<?xml version="1.0" encoding="UTF-8" standalone="no"?>
<!DOCTYPE svg PUBLIC "-//W3C//DTD SVG 1.1//EN"
 "http://www.w3.org/Graphics/SVG/1.1/DTD/svg11.dtd">
<!-- Generated by graphviz version 2.43.0 (0)
 -->
<!-- Title: ApplyExternalWrench.cc Pages: 1 -->
<svg width="3047pt" height="252pt"
 viewBox="0.00 0.00 3047.07 252.00" xmlns="http://www.w3.org/2000/svg" xmlns:xlink="http://www.w3.org/1999/xlink">
<g id="graph0" class="graph" transform="scale(1 1) rotate(0) translate(4 248)">
<title>ApplyExternalWrench.cc</title>
<!-- Node1 -->
<g id="node1" class="node">
<title>Node1</title>
<g id="a_node1"><a xlink:title=" ">
<polygon fill="#bfbfbf" stroke="black" points="1095.07,-224.5 1095.07,-243.5 1230.07,-243.5 1230.07,-224.5 1095.07,-224.5"/>
<text text-anchor="middle" x="1162.57" y="-231.5" font-family="FreeSans.ttf" font-size="10.00">ApplyExternalWrench.cc</text>
</a>
</g>
</g>
<!-- Node2 -->
<g id="node2" class="node">
<title>Node2</title>
<g id="a_node2"><a xlink:href="ApplyExternalWrench_8hh.html" target="_top" xlink:title=" ">
<polygon fill="none" stroke="black" points="1007.07,-168.5 1007.07,-187.5 1144.07,-187.5 1144.07,-168.5 1007.07,-168.5"/>
<text text-anchor="middle" x="1075.57" y="-175.5" font-family="FreeSans.ttf" font-size="10.00">ApplyExternalWrench.hh</text>
</a>
</g>
</g>
<!-- Node1&#45;&gt;Node2 -->
<g id="edge1" class="edge">
<title>Node1&#45;&gt;Node2</title>
<path fill="none" stroke="midnightblue" d="M1148.59,-224.32C1135.02,-215.9 1114.19,-202.97 1098.25,-193.07"/>
<polygon fill="midnightblue" stroke="midnightblue" points="1099.86,-189.95 1089.51,-187.65 1096.16,-195.9 1099.86,-189.95"/>
</g>
<!-- Node31 -->
<g id="node31" class="node">
<title>Node31</title>
<g id="a_node31"><a xlink:title=" ">
<polygon fill="none" stroke="#bfbfbf" points="1162.57,-168.5 1162.57,-187.5 1336.57,-187.5 1336.57,-168.5 1162.57,-168.5"/>
<text text-anchor="middle" x="1249.57" y="-175.5" font-family="FreeSans.ttf" font-size="10.00">gazebo/physics/PhysicsTypes.hh</text>
</a>
</g>
</g>
<!-- Node1&#45;&gt;Node31 -->
<g id="edge46" class="edge">
<title>Node1&#45;&gt;Node31</title>
<path fill="none" stroke="midnightblue" d="M1176.55,-224.32C1190.12,-215.9 1210.95,-202.97 1226.9,-193.07"/>
<polygon fill="midnightblue" stroke="midnightblue" points="1228.98,-195.9 1235.63,-187.65 1225.28,-189.95 1228.98,-195.9"/>
</g>
<!-- Node3 -->
<g id="node3" class="node">
<title>Node3</title>
<g id="a_node3"><a xlink:title=" ">
<polygon fill="none" stroke="#bfbfbf" points="28.57,-56.5 28.57,-75.5 88.57,-75.5 88.57,-56.5 28.57,-56.5"/>
<text text-anchor="middle" x="58.57" y="-63.5" font-family="FreeSans.ttf" font-size="10.00">iostream</text>
</a>
</g>
</g>
<!-- Node2&#45;&gt;Node3 -->
<g id="edge2" class="edge">
<title>Node2&#45;&gt;Node3</title>
<path fill="none" stroke="midnightblue" d="M1007.07,-173.97C892.02,-168.44 652.81,-155.13 451.57,-132 296.57,-114.18 255.6,-106.68 98.77,-76.14"/>
<polygon fill="midnightblue" stroke="midnightblue" points="99.24,-72.66 88.76,-74.19 97.91,-79.53 99.24,-72.66"/>
</g>
<!-- Node4 -->
<g id="node4" class="node">
<title>Node4</title>
<g id="a_node4"><a xlink:title=" ">
<polygon fill="none" stroke="#bfbfbf" points="1568.57,-0.5 1568.57,-19.5 1612.57,-19.5 1612.57,-0.5 1568.57,-0.5"/>
<text text-anchor="middle" x="1590.57" y="-7.5" font-family="FreeSans.ttf" font-size="10.00">string</text>
</a>
</g>
</g>
<!-- Node2&#45;&gt;Node4 -->
<g id="edge3" class="edge">
<title>Node2&#45;&gt;Node4</title>
<path fill="none" stroke="midnightblue" d="M1006.84,-176.34C870.45,-174.31 556.19,-166 294.57,-132 168.82,-115.66 -68.8,-146.94 19.57,-56 47.37,-27.39 1336.12,-13.49 1558.16,-11.31"/>
<polygon fill="midnightblue" stroke="midnightblue" points="1558.52,-14.8 1568.49,-11.21 1558.45,-7.81 1558.52,-14.8"/>
</g>
<!-- Node5 -->
<g id="node5" class="node">
<title>Node5</title>
<g id="a_node5"><a xlink:title=" ">
<polygon fill="none" stroke="#bfbfbf" points="106.57,-56.5 106.57,-75.5 252.57,-75.5 252.57,-56.5 106.57,-56.5"/>
<text text-anchor="middle" x="179.57" y="-63.5" font-family="FreeSans.ttf" font-size="10.00">gazebo/common/Plugin.hh</text>
</a>
</g>
</g>
<!-- Node2&#45;&gt;Node5 -->
<g id="edge4" class="edge">
<title>Node2&#45;&gt;Node5</title>
<path fill="none" stroke="midnightblue" d="M1006.89,-172C912.94,-164.85 739.16,-150.48 591.57,-132 464.87,-116.13 317.24,-91.28 237.63,-77.36"/>
<polygon fill="midnightblue" stroke="midnightblue" points="237.78,-73.83 227.32,-75.55 236.57,-80.72 237.78,-73.83"/>
</g>
<!-- Node6 -->
<g id="node6" class="node">
<title>Node6</title>
<g id="a_node6"><a xlink:title=" ">
<polygon fill="none" stroke="#bfbfbf" points="271.07,-56.5 271.07,-75.5 414.07,-75.5 414.07,-56.5 271.07,-56.5"/>
<text text-anchor="middle" x="342.57" y="-63.5" font-family="FreeSans.ttf" font-size="10.00">gazebo/transport/Node.hh</text>
</a>
</g>
</g>
<!-- Node2&#45;&gt;Node6 -->
<g id="edge5" class="edge">
<title>Node2&#45;&gt;Node6</title>
<path fill="none" stroke="midnightblue" d="M1006.86,-169.24C935.07,-160.92 819.23,-146.88 719.57,-132 604.92,-114.88 471.36,-90.89 397.97,-77.35"/>
<polygon fill="midnightblue" stroke="midnightblue" points="398.49,-73.89 388.02,-75.52 397.22,-80.78 398.49,-73.89"/>
</g>
<!-- Node7 -->
<g id="node7" class="node">
<title>Node7</title>
<g id="a_node7"><a xlink:title=" ">
<polygon fill="none" stroke="#bfbfbf" points="432.57,-56.5 432.57,-75.5 562.57,-75.5 562.57,-56.5 432.57,-56.5"/>
<text text-anchor="middle" x="497.57" y="-63.5" font-family="FreeSans.ttf" font-size="10.00">gazebo/physics/Link.hh</text>
</a>
</g>
</g>
<!-- Node2&#45;&gt;Node7 -->
<g id="edge6" class="edge">
<title>Node2&#45;&gt;Node7</title>
<path fill="none" stroke="midnightblue" d="M1025.19,-168.47C973.7,-159.68 891.47,-145.39 820.57,-132 724.2,-113.8 612.03,-90.82 548.46,-77.63"/>
<polygon fill="midnightblue" stroke="midnightblue" points="548.8,-74.13 538.3,-75.52 547.38,-80.98 548.8,-74.13"/>
</g>
<!-- Node8 -->
<g id="node8" class="node">
<title>Node8</title>
<g id="a_node8"><a xlink:title=" ">
<polygon fill="none" stroke="#bfbfbf" points="581.07,-56.5 581.07,-75.5 718.07,-75.5 718.07,-56.5 581.07,-56.5"/>
<text text-anchor="middle" x="649.57" y="-63.5" font-family="FreeSans.ttf" font-size="10.00">gazebo/physics/World.hh</text>
</a>
</g>
</g>
<!-- Node2&#45;&gt;Node8 -->
<g id="edge7" class="edge">
<title>Node2&#45;&gt;Node8</title>
<path fill="none" stroke="midnightblue" d="M1042.5,-168.46C966.14,-148.74 777.58,-100.05 692.47,-78.08"/>
<polygon fill="midnightblue" stroke="midnightblue" points="693.18,-74.65 682.62,-75.53 691.43,-81.42 693.18,-74.65"/>
</g>
<!-- Node9 -->
<g id="node9" class="node">
<title>Node9</title>
<g id="a_node9"><a xlink:title=" ">
<polygon fill="none" stroke="#bfbfbf" points="736.57,-56.5 736.57,-75.5 876.57,-75.5 876.57,-56.5 736.57,-56.5"/>
<text text-anchor="middle" x="806.57" y="-63.5" font-family="FreeSans.ttf" font-size="10.00">gazebo/physics/Model.hh</text>
</a>
</g>
</g>
<!-- Node2&#45;&gt;Node9 -->
<g id="edge8" class="edge">
<title>Node2&#45;&gt;Node9</title>
<path fill="none" stroke="midnightblue" d="M1054.46,-168.37C1007.12,-149.01 892.32,-102.06 837.16,-79.51"/>
<polygon fill="midnightblue" stroke="midnightblue" points="838.16,-76.14 827.58,-75.59 835.51,-82.62 838.16,-76.14"/>
</g>
<!-- Node10 -->
<g id="node10" class="node">
<title>Node10</title>
<g id="a_node10"><a xlink:href="common_8h.html" target="_top" xlink:title=" ">
<polygon fill="none" stroke="black" points="2511.57,-56.5 2511.57,-75.5 2675.57,-75.5 2675.57,-56.5 2511.57,-56.5"/>
<text text-anchor="middle" x="2593.57" y="-63.5" font-family="FreeSans.ttf" font-size="10.00">GazeboYarpPlugins/common.h</text>
</a>
</g>
</g>
<!-- Node2&#45;&gt;Node10 -->
<g id="edge9" class="edge">
<title>Node2&#45;&gt;Node10</title>
<path fill="none" stroke="midnightblue" d="M1144.47,-168.97C1147.54,-168.64 1150.59,-168.31 1153.57,-168 1323.17,-150.23 1370.78,-175.89 1535.57,-132 1556.33,-126.47 1558.67,-116.96 1579.57,-112 1776.18,-65.38 2281.66,-89.33 2501.02,-76.03"/>
<polygon fill="midnightblue" stroke="midnightblue" points="2501.5,-79.5 2511.25,-75.36 2501.04,-72.52 2501.5,-79.5"/>
</g>
<!-- Node12 -->
<g id="node12" class="node">
<title>Node12</title>
<g id="a_node12"><a xlink:title=" ">
<polygon fill="none" stroke="#bfbfbf" points="894.57,-56.5 894.57,-75.5 1000.57,-75.5 1000.57,-56.5 894.57,-56.5"/>
<text text-anchor="middle" x="947.57" y="-63.5" font-family="FreeSans.ttf" font-size="10.00">yarp/os/Network.h</text>
</a>
</g>
</g>
<!-- Node2&#45;&gt;Node12 -->
<g id="edge12" class="edge">
<title>Node2&#45;&gt;Node12</title>
<path fill="none" stroke="midnightblue" d="M1065.53,-168.37C1043.84,-149.73 992.41,-105.53 965.18,-82.13"/>
<polygon fill="midnightblue" stroke="midnightblue" points="967.43,-79.45 957.57,-75.59 962.87,-84.76 967.43,-79.45"/>
</g>
<!-- Node13 -->
<g id="node13" class="node">
<title>Node13</title>
<g id="a_node13"><a xlink:title=" ">
<polygon fill="none" stroke="#bfbfbf" points="1019.07,-56.5 1019.07,-75.5 1132.07,-75.5 1132.07,-56.5 1019.07,-56.5"/>
<text text-anchor="middle" x="1075.57" y="-63.5" font-family="FreeSans.ttf" font-size="10.00">yarp/os/RpcServer.h</text>
</a>
</g>
</g>
<!-- Node2&#45;&gt;Node13 -->
<g id="edge13" class="edge">
<title>Node2&#45;&gt;Node13</title>
<path fill="none" stroke="midnightblue" d="M1075.57,-168.37C1075.57,-150.62 1075.57,-109.67 1075.57,-85.6"/>
<polygon fill="midnightblue" stroke="midnightblue" points="1079.07,-85.59 1075.57,-75.59 1072.07,-85.59 1079.07,-85.59"/>
</g>
<!-- Node14 -->
<g id="node14" class="node">
<title>Node14</title>
<g id="a_node14"><a xlink:title=" ">
<polygon fill="none" stroke="#bfbfbf" points="1150.57,-56.5 1150.57,-75.5 1244.57,-75.5 1244.57,-56.5 1150.57,-56.5"/>
<text text-anchor="middle" x="1197.57" y="-63.5" font-family="FreeSans.ttf" font-size="10.00">yarp/os/Bottle.h</text>
</a>
</g>
</g>
<!-- Node2&#45;&gt;Node14 -->
<g id="edge14" class="edge">
<title>Node2&#45;&gt;Node14</title>
<path fill="none" stroke="midnightblue" d="M1085.14,-168.37C1105.72,-149.81 1154.41,-105.91 1180.45,-82.44"/>
<polygon fill="midnightblue" stroke="midnightblue" points="1182.96,-84.89 1188.04,-75.59 1178.27,-79.69 1182.96,-84.89"/>
</g>
<!-- Node15 -->
<g id="node15" class="node">
<title>Node15</title>
<g id="a_node15"><a xlink:title=" ">
<polygon fill="none" stroke="#bfbfbf" points="1262.57,-56.5 1262.57,-75.5 1360.57,-75.5 1360.57,-56.5 1262.57,-56.5"/>
<text text-anchor="middle" x="1311.57" y="-63.5" font-family="FreeSans.ttf" font-size="10.00">yarp/sig/Vector.h</text>
</a>
</g>
</g>
<!-- Node2&#45;&gt;Node15 -->
<g id="edge15" class="edge">
<title>Node2&#45;&gt;Node15</title>
<path fill="none" stroke="midnightblue" d="M1094.09,-168.37C1135.36,-149.13 1235.09,-102.65 1283.83,-79.93"/>
<polygon fill="midnightblue" stroke="midnightblue" points="1285.55,-82.99 1293.14,-75.59 1282.6,-76.64 1285.55,-82.99"/>
</g>
<!-- Node16 -->
<g id="node16" class="node">
<title>Node16</title>
<g id="a_node16"><a xlink:title=" ">
<polygon fill="none" stroke="#bfbfbf" points="2693.57,-56.5 2693.57,-75.5 2791.57,-75.5 2791.57,-56.5 2693.57,-56.5"/>
<text text-anchor="middle" x="2742.57" y="-63.5" font-family="FreeSans.ttf" font-size="10.00">yarp/os/Thread.h</text>
</a>
</g>
</g>
<!-- Node2&#45;&gt;Node16 -->
<g id="edge16" class="edge">
<title>Node2&#45;&gt;Node16</title>
<path fill="none" stroke="midnightblue" d="M1144.46,-168.94C1147.54,-168.62 1150.59,-168.3 1153.57,-168 1339.1,-149.31 1390.81,-177.77 1571.57,-132 1593.18,-126.53 1595.82,-116.91 1617.57,-112 1845.83,-60.49 2432.05,-97.2 2683.02,-75.98"/>
<polygon fill="midnightblue" stroke="midnightblue" points="2683.61,-79.44 2693.26,-75.06 2682.99,-72.47 2683.61,-79.44"/>
</g>
<!-- Node17 -->
<g id="node17" class="node">
<title>Node17</title>
<g id="a_node17"><a xlink:title=" ">
<polygon fill="none" stroke="#bfbfbf" points="2809.57,-56.5 2809.57,-75.5 2903.57,-75.5 2903.57,-56.5 2809.57,-56.5"/>
<text text-anchor="middle" x="2856.57" y="-63.5" font-family="FreeSans.ttf" font-size="10.00">yarp/os/Vocab.h</text>
</a>
</g>
</g>
<!-- Node2&#45;&gt;Node17 -->
<g id="edge17" class="edge">
<title>Node2&#45;&gt;Node17</title>
<path fill="none" stroke="midnightblue" d="M1144.46,-168.92C1147.54,-168.6 1150.59,-168.29 1153.57,-168 1355.47,-148.37 1411.56,-180.34 1608.57,-132 1630.62,-126.59 1633.4,-116.88 1655.57,-112 1901.02,-57.92 2530.9,-99.17 2799.1,-75.97"/>
<polygon fill="midnightblue" stroke="midnightblue" points="2799.63,-79.43 2809.27,-75.04 2798.99,-72.46 2799.63,-79.43"/>
</g>
<!-- Node18 -->
<g id="node18" class="node">
<title>Node18</title>
<g id="a_node18"><a xlink:title=" ">
<polygon fill="none" stroke="#bfbfbf" points="1697.57,-112.5 1697.57,-131.5 1793.57,-131.5 1793.57,-112.5 1697.57,-112.5"/>
<text text-anchor="middle" x="1745.57" y="-119.5" font-family="FreeSans.ttf" font-size="10.00">yarp/os/Stamp.h</text>
</a>
</g>
</g>
<!-- Node2&#45;&gt;Node18 -->
<g id="edge18" class="edge">
<title>Node2&#45;&gt;Node18</title>
<path fill="none" stroke="midnightblue" d="M1144.46,-168.87C1147.53,-168.57 1150.58,-168.27 1153.57,-168 1388.68,-146.46 1448.8,-156.98 1683.57,-132 1684.85,-131.86 1686.14,-131.72 1687.44,-131.57"/>
<polygon fill="midnightblue" stroke="midnightblue" points="1688.05,-135.03 1697.55,-130.34 1687.2,-128.08 1688.05,-135.03"/>
</g>
<!-- Node19 -->
<g id="node19" class="node">
<title>Node19</title>
<g id="a_node19"><a xlink:title=" ">
<polygon fill="none" stroke="#bfbfbf" points="2922.07,-56.5 2922.07,-75.5 3039.07,-75.5 3039.07,-56.5 2922.07,-56.5"/>
<text text-anchor="middle" x="2980.57" y="-63.5" font-family="FreeSans.ttf" font-size="10.00">yarp/os/LogStream.h</text>
</a>
</g>
</g>
<!-- Node2&#45;&gt;Node19 -->
<g id="edge19" class="edge">
<title>Node2&#45;&gt;Node19</title>
<path fill="none" stroke="midnightblue" d="M1144.46,-168.89C1147.54,-168.58 1150.58,-168.28 1153.57,-168 1371.85,-147.43 1433.36,-187.13 1645.57,-132 1665.97,-126.7 1668.06,-116.85 1688.57,-112 1950.27,-50.07 2625.27,-96.76 2911.97,-75.91"/>
<polygon fill="midnightblue" stroke="midnightblue" points="2912.3,-79.39 2922.01,-75.14 2911.77,-72.41 2912.3,-79.39"/>
</g>
<!-- Node20 -->
<g id="node20" class="node">
<title>Node20</title>
<g id="a_node20"><a xlink:href="ExternalWrench_8hh.html" target="_top" xlink:title=" ">
<polygon fill="none" stroke="black" points="1418.07,-112.5 1418.07,-131.5 1527.07,-131.5 1527.07,-112.5 1418.07,-112.5"/>
<text text-anchor="middle" x="1472.57" y="-119.5" font-family="FreeSans.ttf" font-size="10.00">ExternalWrench.hh</text>
</a>
</g>
</g>
<!-- Node2&#45;&gt;Node20 -->
<g id="edge20" class="edge">
<title>Node2&#45;&gt;Node20</title>
<path fill="none" stroke="midnightblue" d="M1138.48,-168.44C1212.08,-158.43 1333.34,-141.94 1407.76,-131.82"/>
<polygon fill="midnightblue" stroke="midnightblue" points="1408.5,-135.25 1417.94,-130.43 1407.56,-128.31 1408.5,-135.25"/>
</g>
<!-- Node10&#45;&gt;Node4 -->
<g id="edge10" class="edge">
<title>Node10&#45;&gt;Node4</title>
<path fill="none" stroke="midnightblue" d="M2511.25,-56.67C2508.32,-56.44 2505.42,-56.21 2502.57,-56 2158.78,-30.53 1740.98,-15.86 1622.98,-12.02"/>
<polygon fill="midnightblue" stroke="midnightblue" points="1622.92,-8.52 1612.82,-11.69 1622.7,-15.51 1622.92,-8.52"/>
</g>
<!-- Node11 -->
<g id="node11" class="node">
<title>Node11</title>
<g id="a_node11"><a xlink:title=" ">
<polygon fill="none" stroke="#bfbfbf" points="2570.07,-0.5 2570.07,-19.5 2617.07,-19.5 2617.07,-0.5 2570.07,-0.5"/>
<text text-anchor="middle" x="2593.57" y="-7.5" font-family="FreeSans.ttf" font-size="10.00">cmath</text>
</a>
</g>
</g>
<!-- Node10&#45;&gt;Node11 -->
<g id="edge11" class="edge">
<title>Node10&#45;&gt;Node11</title>
<path fill="none" stroke="midnightblue" d="M2593.57,-56.08C2593.57,-49.01 2593.57,-38.86 2593.57,-29.99"/>
<polygon fill="midnightblue" stroke="midnightblue" points="2597.07,-29.75 2593.57,-19.75 2590.07,-29.75 2597.07,-29.75"/>
</g>
<!-- Node20&#45;&gt;Node3 -->
<g id="edge21" class="edge">
<title>Node20&#45;&gt;Node3</title>
<path fill="none" stroke="midnightblue" d="M1417.92,-120.63C1198.46,-118.92 379.89,-110.4 98.87,-75.85"/>
<polygon fill="midnightblue" stroke="midnightblue" points="99.06,-72.35 88.7,-74.56 98.18,-79.29 99.06,-72.35"/>
</g>
<!-- Node20&#45;&gt;Node4 -->
<g id="edge25" class="edge">
<title>Node20&#45;&gt;Node4</title>
<path fill="none" stroke="midnightblue" d="M1509.71,-112.35C1530.6,-105.68 1555.62,-94.4 1571.57,-76 1582.75,-63.1 1587.36,-43.93 1589.26,-29.74"/>
<polygon fill="midnightblue" stroke="midnightblue" points="1592.75,-29.95 1590.27,-19.65 1585.79,-29.25 1592.75,-29.95"/>
</g>
<!-- Node20&#45;&gt;Node5 -->
<g id="edge30" class="edge">
<title>Node20&#45;&gt;Node5</title>
<path fill="none" stroke="midnightblue" d="M1417.88,-120.37C1248.13,-118.13 715.07,-108.83 262.86,-76.04"/>
<polygon fill="midnightblue" stroke="midnightblue" points="263.09,-72.55 252.86,-75.31 262.58,-79.53 263.09,-72.55"/>
</g>
<!-- Node20&#45;&gt;Node6 -->
<g id="edge31" class="edge">
<title>Node20&#45;&gt;Node6</title>
<path fill="none" stroke="midnightblue" d="M1417.89,-119.96C1263.56,-116.75 811.24,-105.41 424.09,-75.98"/>
<polygon fill="midnightblue" stroke="midnightblue" points="424.34,-72.49 414.1,-75.21 423.8,-79.47 424.34,-72.49"/>
</g>
<!-- Node20&#45;&gt;Node7 -->
<g id="edge32" class="edge">
<title>Node20&#45;&gt;Node7</title>
<path fill="none" stroke="midnightblue" d="M1417.89,-119.62C1278.71,-115.83 899.54,-103.68 573.04,-76.07"/>
<polygon fill="midnightblue" stroke="midnightblue" points="573.18,-72.56 562.91,-75.2 572.58,-79.54 573.18,-72.56"/>
</g>
<!-- Node20&#45;&gt;Node8 -->
<g id="edge33" class="edge">
<title>Node20&#45;&gt;Node8</title>
<path fill="none" stroke="midnightblue" d="M1417.82,-118.72C1296.02,-113.42 993.22,-99.02 728.64,-76.04"/>
<polygon fill="midnightblue" stroke="midnightblue" points="728.72,-72.54 718.45,-75.15 728.11,-79.51 728.72,-72.54"/>
</g>
<!-- Node20&#45;&gt;Node9 -->
<g id="edge34" class="edge">
<title>Node20&#45;&gt;Node9</title>
<path fill="none" stroke="midnightblue" d="M1417.89,-117.48C1315.77,-110.77 1088.88,-95.16 886.97,-76.1"/>
<polygon fill="midnightblue" stroke="midnightblue" points="887.05,-72.59 876.77,-75.13 886.39,-79.56 887.05,-72.59"/>
</g>
<!-- Node20&#45;&gt;Node10 -->
<g id="edge35" class="edge">
<title>Node20&#45;&gt;Node10</title>
<path fill="none" stroke="midnightblue" d="M1527.13,-113.41C1532.01,-112.88 1536.88,-112.39 1541.57,-112 1964.16,-76.6 2074.43,-104.6 2501.11,-76.05"/>
<polygon fill="midnightblue" stroke="midnightblue" points="2501.51,-79.54 2511.25,-75.37 2501.04,-72.55 2501.51,-79.54"/>
</g>
<!-- Node20&#45;&gt;Node12 -->
<g id="edge36" class="edge">
<title>Node20&#45;&gt;Node12</title>
<path fill="none" stroke="midnightblue" d="M1417.95,-116.53C1333.13,-109.41 1164.34,-94.5 1010.74,-76.09"/>
<polygon fill="midnightblue" stroke="midnightblue" points="1011,-72.6 1000.65,-74.87 1010.16,-79.55 1011,-72.6"/>
</g>
<!-- Node20&#45;&gt;Node13 -->
<g id="edge37" class="edge">
<title>Node20&#45;&gt;Node13</title>
<path fill="none" stroke="midnightblue" d="M1417.81,-113.56C1354.22,-104.92 1245.86,-90.2 1142.12,-76.07"/>
<polygon fill="midnightblue" stroke="midnightblue" points="1142.48,-72.59 1132.1,-74.71 1141.53,-79.53 1142.48,-72.59"/>
</g>
<!-- Node20&#45;&gt;Node14 -->
<g id="edge38" class="edge">
<title>Node20&#45;&gt;Node14</title>
<path fill="none" stroke="midnightblue" d="M1429,-112.44C1380.72,-102.96 1302.86,-87.67 1250.96,-77.48"/>
<polygon fill="midnightblue" stroke="midnightblue" points="1251.43,-74.01 1240.94,-75.52 1250.08,-80.88 1251.43,-74.01"/>
</g>
<!-- Node20&#45;&gt;Node15 -->
<g id="edge39" class="edge">
<title>Node20&#45;&gt;Node15</title>
<path fill="none" stroke="midnightblue" d="M1447.06,-112.44C1419.97,-103.36 1376.98,-88.94 1346.7,-78.78"/>
<polygon fill="midnightblue" stroke="midnightblue" points="1347.56,-75.38 1336.96,-75.52 1345.33,-82.01 1347.56,-75.38"/>
</g>
<!-- Node20&#45;&gt;Node16 -->
<g id="edge40" class="edge">
<title>Node20&#45;&gt;Node16</title>
<path fill="none" stroke="midnightblue" d="M1527.24,-115.86C1544.02,-114.43 1562.54,-112.99 1579.57,-112 2066.76,-83.59 2193.6,-121.24 2683.1,-76.01"/>
<polygon fill="midnightblue" stroke="midnightblue" points="2683.63,-79.48 2693.26,-75.07 2682.98,-72.51 2683.63,-79.48"/>
</g>
<!-- Node20&#45;&gt;Node17 -->
<g id="edge42" class="edge">
<title>Node20&#45;&gt;Node17</title>
<path fill="none" stroke="midnightblue" d="M1527.29,-117.19C1554.43,-115.41 1587.71,-113.38 1617.57,-112 2139.69,-87.86 2275.2,-125.36 2799.18,-76"/>
<polygon fill="midnightblue" stroke="midnightblue" points="2799.64,-79.47 2809.27,-75.04 2798.98,-72.5 2799.64,-79.47"/>
</g>
<!-- Node20&#45;&gt;Node19 -->
<g id="edge44" class="edge">
<title>Node20&#45;&gt;Node19</title>
<path fill="none" stroke="midnightblue" d="M1527.41,-118.01C1563.76,-116.1 1612.5,-113.68 1655.57,-112 2210.63,-90.4 2353.73,-120.36 2911.68,-75.97"/>
<polygon fill="midnightblue" stroke="midnightblue" points="2912.32,-79.43 2922.01,-75.14 2911.76,-72.45 2912.32,-79.43"/>
</g>
<!-- Node21 -->
<g id="node21" class="node">
<title>Node21</title>
<g id="a_node21"><a xlink:title=" ">
<polygon fill="none" stroke="#bfbfbf" points="1379.07,-56.5 1379.07,-75.5 1432.07,-75.5 1432.07,-56.5 1379.07,-56.5"/>
<text text-anchor="middle" x="1405.57" y="-63.5" font-family="FreeSans.ttf" font-size="10.00">stdlib.h</text>
</a>
</g>
</g>
<!-- Node20&#45;&gt;Node21 -->
<g id="edge22" class="edge">
<title>Node20&#45;&gt;Node21</title>
<path fill="none" stroke="midnightblue" d="M1461.81,-112.32C1451.8,-104.26 1436.68,-92.08 1424.64,-82.37"/>
<polygon fill="midnightblue" stroke="midnightblue" points="1426.51,-79.38 1416.53,-75.83 1422.12,-84.83 1426.51,-79.38"/>
</g>
<!-- Node22 -->
<g id="node22" class="node">
<title>Node22</title>
<g id="a_node22"><a xlink:title=" ">
<polygon fill="none" stroke="#bfbfbf" points="1450.57,-56.5 1450.57,-75.5 1494.57,-75.5 1494.57,-56.5 1450.57,-56.5"/>
<text text-anchor="middle" x="1472.57" y="-63.5" font-family="FreeSans.ttf" font-size="10.00">ctime</text>
</a>
</g>
</g>
<!-- Node20&#45;&gt;Node22 -->
<g id="edge23" class="edge">
<title>Node20&#45;&gt;Node22</title>
<path fill="none" stroke="midnightblue" d="M1472.57,-112.08C1472.57,-105.01 1472.57,-94.86 1472.57,-85.99"/>
<polygon fill="midnightblue" stroke="midnightblue" points="1476.07,-85.75 1472.57,-75.75 1469.07,-85.75 1476.07,-85.75"/>
</g>
<!-- Node23 -->
<g id="node23" class="node">
<title>Node23</title>
<g id="a_node23"><a xlink:title=" ">
<polygon fill="none" stroke="#bfbfbf" points="1512.57,-56.5 1512.57,-75.5 1562.57,-75.5 1562.57,-56.5 1512.57,-56.5"/>
<text text-anchor="middle" x="1537.57" y="-63.5" font-family="FreeSans.ttf" font-size="10.00">stdio.h</text>
</a>
</g>
</g>
<!-- Node20&#45;&gt;Node23 -->
<g id="edge24" class="edge">
<title>Node20&#45;&gt;Node23</title>
<path fill="none" stroke="midnightblue" d="M1483.01,-112.32C1492.72,-104.26 1507.39,-92.08 1519.07,-82.37"/>
<polygon fill="midnightblue" stroke="midnightblue" points="1521.48,-84.92 1526.94,-75.83 1517.01,-79.53 1521.48,-84.92"/>
</g>
<!-- Node24 -->
<g id="node24" class="node">
<title>Node24</title>
<g id="a_node24"><a xlink:title=" ">
<polygon fill="none" stroke="#bfbfbf" points="1618.57,-56.5 1618.57,-75.5 1676.57,-75.5 1676.57,-56.5 1618.57,-56.5"/>
<text text-anchor="middle" x="1647.57" y="-63.5" font-family="FreeSans.ttf" font-size="10.00">memory</text>
</a>
</g>
</g>
<!-- Node20&#45;&gt;Node24 -->
<g id="edge26" class="edge">
<title>Node20&#45;&gt;Node24</title>
<path fill="none" stroke="midnightblue" d="M1500.3,-112.44C1530,-103.28 1577.29,-88.69 1610.24,-78.52"/>
<polygon fill="midnightblue" stroke="midnightblue" points="1611.45,-81.81 1619.97,-75.52 1609.38,-75.12 1611.45,-81.81"/>
</g>
<!-- Node25 -->
<g id="node25" class="node">
<title>Node25</title>
<g id="a_node25"><a xlink:title=" ">
<polygon fill="none" stroke="#bfbfbf" points="1695.07,-56.5 1695.07,-75.5 1800.07,-75.5 1800.07,-56.5 1695.07,-56.5"/>
<text text-anchor="middle" x="1747.57" y="-63.5" font-family="FreeSans.ttf" font-size="10.00">gazebo/gazebo.hh</text>
</a>
</g>
</g>
<!-- Node20&#45;&gt;Node25 -->
<g id="edge27" class="edge">
<title>Node20&#45;&gt;Node25</title>
<path fill="none" stroke="midnightblue" d="M1516.14,-112.44C1564.42,-102.96 1642.28,-87.67 1694.18,-77.48"/>
<polygon fill="midnightblue" stroke="midnightblue" points="1695.06,-80.88 1704.2,-75.52 1693.71,-74.01 1695.06,-80.88"/>
</g>
<!-- Node26 -->
<g id="node26" class="node">
<title>Node26</title>
<g id="a_node26"><a xlink:title=" ">
<polygon fill="none" stroke="#bfbfbf" points="1818.07,-56.5 1818.07,-75.5 1997.07,-75.5 1997.07,-56.5 1818.07,-56.5"/>
<text text-anchor="middle" x="1907.57" y="-63.5" font-family="FreeSans.ttf" font-size="10.00">gazebo/physics/PhysicsEngine.hh</text>
</a>
</g>
</g>
<!-- Node20&#45;&gt;Node26 -->
<g id="edge28" class="edge">
<title>Node20&#45;&gt;Node26</title>
<path fill="none" stroke="midnightblue" d="M1527.18,-113.84C1532.04,-113.21 1536.9,-112.59 1541.57,-112 1639.69,-99.57 1752.67,-85.75 1826.84,-76.75"/>
<polygon fill="midnightblue" stroke="midnightblue" points="1827.54,-80.19 1837.05,-75.51 1826.7,-73.24 1827.54,-80.19"/>
</g>
<!-- Node27 -->
<g id="node27" class="node">
<title>Node27</title>
<g id="a_node27"><a xlink:title=" ">
<polygon fill="none" stroke="#bfbfbf" points="2015.07,-56.5 2015.07,-75.5 2164.07,-75.5 2164.07,-56.5 2015.07,-56.5"/>
<text text-anchor="middle" x="2089.57" y="-63.5" font-family="FreeSans.ttf" font-size="10.00">gazebo/common/Events.hh</text>
</a>
</g>
</g>
<!-- Node20&#45;&gt;Node27 -->
<g id="edge29" class="edge">
<title>Node20&#45;&gt;Node27</title>
<path fill="none" stroke="midnightblue" d="M1527.15,-113.61C1532.02,-113.03 1536.88,-112.49 1541.57,-112 1744.42,-90.93 1798.44,-95.03 2004.67,-76.15"/>
<polygon fill="midnightblue" stroke="midnightblue" points="2005.29,-79.61 2014.92,-75.2 2004.65,-72.64 2005.29,-79.61"/>
</g>
<!-- Node28 -->
<g id="node28" class="node">
<title>Node28</title>
<g id="a_node28"><a xlink:title=" ">
<polygon fill="none" stroke="#bfbfbf" points="2182.07,-56.5 2182.07,-75.5 2271.07,-75.5 2271.07,-56.5 2182.07,-56.5"/>
<text text-anchor="middle" x="2226.57" y="-63.5" font-family="FreeSans.ttf" font-size="10.00">yarp/os/Time.h</text>
</a>
</g>
</g>
<!-- Node20&#45;&gt;Node28 -->
<g id="edge41" class="edge">
<title>Node20&#45;&gt;Node28</title>
<path fill="none" stroke="midnightblue" d="M1527.14,-113.51C1532.02,-112.95 1536.88,-112.44 1541.57,-112 1818.41,-86.1 1892.28,-107.09 2171.77,-76.09"/>
<polygon fill="midnightblue" stroke="midnightblue" points="2172.25,-79.56 2181.8,-74.96 2171.47,-72.6 2172.25,-79.56"/>
</g>
<!-- Node29 -->
<g id="node29" class="node">
<title>Node29</title>
<g id="a_node29"><a xlink:title=" ">
<polygon fill="none" stroke="#bfbfbf" points="2289.57,-56.5 2289.57,-75.5 2371.57,-75.5 2371.57,-56.5 2289.57,-56.5"/>
<text text-anchor="middle" x="2330.57" y="-63.5" font-family="FreeSans.ttf" font-size="10.00">yarp/os/Log.h</text>
</a>
</g>
</g>
<!-- Node20&#45;&gt;Node29 -->
<g id="edge43" class="edge">
<title>Node20&#45;&gt;Node29</title>
<path fill="none" stroke="midnightblue" d="M1527.14,-113.47C1532.01,-112.92 1536.88,-112.42 1541.57,-112 1865.74,-83.01 1952.08,-112.59 2279.19,-76"/>
<polygon fill="midnightblue" stroke="midnightblue" points="2279.89,-79.44 2289.43,-74.84 2279.1,-72.49 2279.89,-79.44"/>
</g>
<!-- Node30 -->
<g id="node30" class="node">
<title>Node30</title>
<g id="a_node30"><a xlink:title=" ">
<polygon fill="none" stroke="#bfbfbf" points="2389.57,-56.5 2389.57,-75.5 2493.57,-75.5 2493.57,-56.5 2389.57,-56.5"/>
<text text-anchor="middle" x="2441.57" y="-63.5" font-family="FreeSans.ttf" font-size="10.00">yarp/math/Math.h</text>
</a>
</g>
</g>
<!-- Node20&#45;&gt;Node30 -->
<g id="edge45" class="edge">
<title>Node20&#45;&gt;Node30</title>
<path fill="none" stroke="midnightblue" d="M1527.14,-113.44C1532.01,-112.9 1536.88,-112.41 1541.57,-112 1910.15,-80.12 2007.31,-110.74 2379.41,-76"/>
<polygon fill="midnightblue" stroke="midnightblue" points="2379.74,-79.49 2389.37,-75.06 2379.09,-72.52 2379.74,-79.49"/>
</g>
</g>
</svg>
