<?xml version="1.0" encoding="UTF-8" standalone="no"?>
<!DOCTYPE svg PUBLIC "-//W3C//DTD SVG 1.1//EN"
 "http://www.w3.org/Graphics/SVG/1.1/DTD/svg11.dtd">
<!-- Generated by graphviz version 5.0.1 (20220821.0811)
 -->
<!-- Title: WorldInterfaceServer.cpp Pages: 1 -->
<svg width="422pt" height="95pt"
 viewBox="0.00 0.00 421.50 95.00" xmlns="http://www.w3.org/2000/svg" xmlns:xlink="http://www.w3.org/1999/xlink">
<g id="graph0" class="graph" transform="scale(1 1) rotate(0) translate(4 91)">
<title>WorldInterfaceServer.cpp</title>
<!-- Node1 -->
<g id="node1" class="node">
<title>Node1</title>
<g id="a_node1"><a xlink:title=" ">
<polygon fill="#bfbfbf" stroke="black" points="197,-67.5 197,-86.5 336,-86.5 336,-67.5 197,-67.5"/>
<text text-anchor="middle" x="266.5" y="-74.5" font-family="FreeSans.ttf" font-size="10.00">WorldInterfaceServer.cpp</text>
</a>
</g>
</g>
<!-- Node2 -->
<g id="node2" class="node">
<title>Node2</title>
<g id="a_node2"><a xlink:title=" ">
<polygon fill="none" stroke="#bfbfbf" points="0,-0.5 0,-30.5 183,-30.5 183,-0.5 0,-0.5"/>
<text text-anchor="start" x="8" y="-18.5" font-family="FreeSans.ttf" font-size="10.00">GazeboYarpPlugins/WorldInterface</text>
<text text-anchor="middle" x="91.5" y="-7.5" font-family="FreeSans.ttf" font-size="10.00">Server.h</text>
</a>
</g>
</g>
<!-- Node1&#45;&gt;Node2 -->
<g id="edge1" class="edge">
<title>Node1&#45;&gt;Node2</title>
<path fill="none" stroke="midnightblue" d="M241.43,-67.48C215.73,-58.74 175.05,-44.91 142.54,-33.86"/>
<polygon fill="midnightblue" stroke="midnightblue" points="143.34,-30.43 132.74,-30.52 141.09,-37.06 143.34,-30.43"/>
</g>
<!-- Node3 -->
<g id="node3" class="node">
<title>Node3</title>
<g id="a_node3"><a xlink:title=" ">
<polygon fill="none" stroke="#bfbfbf" points="201.5,-6 201.5,-25 331.5,-25 331.5,-6 201.5,-6"/>
<text text-anchor="middle" x="266.5" y="-13" font-family="FreeSans.ttf" font-size="10.00">yarp/os/idl/WireTypes.h</text>
</a>
</g>
</g>
<!-- Node1&#45;&gt;Node3 -->
<g id="edge2" class="edge">
<title>Node1&#45;&gt;Node3</title>
<path fill="none" stroke="midnightblue" d="M266.5,-67.48C266.5,-59.08 266.5,-45.98 266.5,-35.16"/>
<polygon fill="midnightblue" stroke="midnightblue" points="270,-35.01 266.5,-25.01 263,-35.01 270,-35.01"/>
</g>
<!-- Node4 -->
<g id="node4" class="node">
<title>Node4</title>
<g id="a_node4"><a xlink:title=" ">
<polygon fill="none" stroke="#bfbfbf" points="349.5,-6 349.5,-25 413.5,-25 413.5,-6 349.5,-6"/>
<text text-anchor="middle" x="381.5" y="-13" font-family="FreeSans.ttf" font-size="10.00">algorithm</text>
</a>
</g>
</g>
<!-- Node1&#45;&gt;Node4 -->
<g id="edge3" class="edge">
<title>Node1&#45;&gt;Node4</title>
<path fill="none" stroke="midnightblue" d="M282.98,-67.48C302.11,-57.58 333.87,-41.14 356.15,-29.62"/>
<polygon fill="midnightblue" stroke="midnightblue" points="357.78,-32.71 365.05,-25.01 354.56,-26.5 357.78,-32.71"/>
</g>
</g>
</svg>
