<?xml version="1.0" encoding="UTF-8" standalone="no"?>
<!DOCTYPE svg PUBLIC "-//W3C//DTD SVG 1.1//EN"
 "http://www.w3.org/Graphics/SVG/1.1/DTD/svg11.dtd">
<!-- Generated by graphviz version 5.0.0 (20220707.2338)
 -->
<!-- Title: ClockServer.cpp Pages: 1 -->
<svg width="418pt" height="84pt"
 viewBox="0.00 0.00 417.50 84.00" xmlns="http://www.w3.org/2000/svg" xmlns:xlink="http://www.w3.org/1999/xlink">
<g id="graph0" class="graph" transform="scale(1 1) rotate(0) translate(4 80)">
<title>ClockServer.cpp</title>
<!-- Node1 -->
<g id="node1" class="node">
<title>Node1</title>
<g id="a_node1"><a xlink:title=" ">
<polygon fill="#bfbfbf" stroke="black" points="215,-56.5 215,-75.5 310,-75.5 310,-56.5 215,-56.5"/>
<text text-anchor="middle" x="262.5" y="-63.5" font-family="FreeSans.ttf" font-size="10.00">ClockServer.cpp</text>
</a>
</g>
</g>
<!-- Node2 -->
<g id="node2" class="node">
<title>Node2</title>
<g id="a_node2"><a xlink:title=" ">
<polygon fill="none" stroke="#bfbfbf" points="0,-0.5 0,-19.5 179,-19.5 179,-0.5 0,-0.5"/>
<text text-anchor="middle" x="89.5" y="-7.5" font-family="FreeSans.ttf" font-size="10.00">GazeboYarpPlugins/ClockServer.h</text>
</a>
</g>
</g>
<!-- Node1&#45;&gt;Node2 -->
<g id="edge1" class="edge">
<title>Node1&#45;&gt;Node2</title>
<path fill="none" stroke="midnightblue" d="M235.09,-56.44C205.73,-47.28 158.98,-32.69 126.4,-22.52"/>
<polygon fill="midnightblue" stroke="midnightblue" points="127.37,-19.16 116.78,-19.52 125.29,-25.84 127.37,-19.16"/>
</g>
<!-- Node3 -->
<g id="node3" class="node">
<title>Node3</title>
<g id="a_node3"><a xlink:title=" ">
<polygon fill="none" stroke="#bfbfbf" points="197.5,-0.5 197.5,-19.5 327.5,-19.5 327.5,-0.5 197.5,-0.5"/>
<text text-anchor="middle" x="262.5" y="-7.5" font-family="FreeSans.ttf" font-size="10.00">yarp/os/idl/WireTypes.h</text>
</a>
</g>
</g>
<!-- Node1&#45;&gt;Node3 -->
<g id="edge2" class="edge">
<title>Node1&#45;&gt;Node3</title>
<path fill="none" stroke="midnightblue" d="M262.5,-56.08C262.5,-49.01 262.5,-38.86 262.5,-29.99"/>
<polygon fill="midnightblue" stroke="midnightblue" points="266,-29.75 262.5,-19.75 259,-29.75 266,-29.75"/>
</g>
<!-- Node4 -->
<g id="node4" class="node">
<title>Node4</title>
<g id="a_node4"><a xlink:title=" ">
<polygon fill="none" stroke="#bfbfbf" points="345.5,-0.5 345.5,-19.5 409.5,-19.5 409.5,-0.5 345.5,-0.5"/>
<text text-anchor="middle" x="377.5" y="-7.5" font-family="FreeSans.ttf" font-size="10.00">algorithm</text>
</a>
</g>
</g>
<!-- Node1&#45;&gt;Node4 -->
<g id="edge3" class="edge">
<title>Node1&#45;&gt;Node4</title>
<path fill="none" stroke="midnightblue" d="M280.72,-56.44C299.4,-47.68 328.66,-33.94 350.12,-23.86"/>
<polygon fill="midnightblue" stroke="midnightblue" points="351.8,-26.93 359.36,-19.52 348.82,-20.6 351.8,-26.93"/>
</g>
</g>
</svg>
