<?xml version="1.0" encoding="UTF-8" standalone="no"?>
<!DOCTYPE svg PUBLIC "-//W3C//DTD SVG 1.1//EN"
 "http://www.w3.org/Graphics/SVG/1.1/DTD/svg11.dtd">
<!-- Generated by graphviz version 3.0.0 (20220315.2325)
 -->
<!-- Title: WorldInterfaceServer.h Pages: 1 -->
<svg width="570pt" height="84pt"
 viewBox="0.00 0.00 569.50 84.00" xmlns="http://www.w3.org/2000/svg" xmlns:xlink="http://www.w3.org/1999/xlink">
<g id="graph0" class="graph" transform="scale(1 1) rotate(0) translate(4 80)">
<title>WorldInterfaceServer.h</title>
<!-- Node1 -->
<g id="node1" class="node">
<title>Node1</title>
<g id="a_node1"><a xlink:title=" ">
<polygon fill="#bfbfbf" stroke="black" points="184.5,-56.5 184.5,-75.5 312.5,-75.5 312.5,-56.5 184.5,-56.5"/>
<text text-anchor="middle" x="248.5" y="-63.5" font-family="FreeSans.ttf" font-size="10.00">WorldInterfaceServer.h</text>
</a>
</g>
</g>
<!-- Node2 -->
<g id="node2" class="node">
<title>Node2</title>
<g id="a_node2"><a xlink:title=" ">
<polygon fill="none" stroke="#bfbfbf" points="0,-0.5 0,-19.5 87,-19.5 87,-0.5 0,-0.5"/>
<text text-anchor="middle" x="43.5" y="-7.5" font-family="FreeSans.ttf" font-size="10.00">yarp/os/Wire.h</text>
</a>
</g>
</g>
<!-- Node1&#45;&gt;Node2 -->
<g id="edge1" class="edge">
<title>Node1&#45;&gt;Node2</title>
<path fill="none" stroke="midnightblue" d="M216.02,-56.44C180.78,-47.16 124.4,-32.31 85.74,-22.13"/>
<polygon fill="midnightblue" stroke="midnightblue" points="86.39,-18.68 75.83,-19.52 84.61,-25.45 86.39,-18.68"/>
</g>
<!-- Node3 -->
<g id="node3" class="node">
<title>Node3</title>
<g id="a_node3"><a xlink:title=" ">
<polygon fill="none" stroke="#bfbfbf" points="105.5,-0.5 105.5,-19.5 235.5,-19.5 235.5,-0.5 105.5,-0.5"/>
<text text-anchor="middle" x="170.5" y="-7.5" font-family="FreeSans.ttf" font-size="10.00">yarp/os/idl/WireTypes.h</text>
</a>
</g>
</g>
<!-- Node1&#45;&gt;Node3 -->
<g id="edge2" class="edge">
<title>Node1&#45;&gt;Node3</title>
<path fill="none" stroke="midnightblue" d="M235.97,-56.32C223.91,-47.98 205.47,-35.21 191.23,-25.35"/>
<polygon fill="midnightblue" stroke="midnightblue" points="193.22,-22.47 183,-19.65 189.23,-28.22 193.22,-22.47"/>
</g>
<!-- Node4 -->
<g id="node4" class="node">
<title>Node4</title>
<g id="a_node4"><a xlink:title=" ">
<polygon fill="none" stroke="#bfbfbf" points="253.5,-0.5 253.5,-19.5 399.5,-19.5 399.5,-0.5 253.5,-0.5"/>
<text text-anchor="middle" x="326.5" y="-7.5" font-family="FreeSans.ttf" font-size="10.00">GazeboYarpPlugins/Color.h</text>
</a>
</g>
</g>
<!-- Node1&#45;&gt;Node4 -->
<g id="edge3" class="edge">
<title>Node1&#45;&gt;Node4</title>
<path fill="none" stroke="midnightblue" d="M261.03,-56.32C273.09,-47.98 291.53,-35.21 305.77,-25.35"/>
<polygon fill="midnightblue" stroke="midnightblue" points="307.77,-28.22 314,-19.65 303.78,-22.47 307.77,-28.22"/>
</g>
<!-- Node5 -->
<g id="node5" class="node">
<title>Node5</title>
<g id="a_node5"><a xlink:title=" ">
<polygon fill="none" stroke="#bfbfbf" points="417.5,-0.5 417.5,-19.5 561.5,-19.5 561.5,-0.5 417.5,-0.5"/>
<text text-anchor="middle" x="489.5" y="-7.5" font-family="FreeSans.ttf" font-size="10.00">GazeboYarpPlugins/Pose.h</text>
</a>
</g>
</g>
<!-- Node1&#45;&gt;Node5 -->
<g id="edge4" class="edge">
<title>Node1&#45;&gt;Node5</title>
<path fill="none" stroke="midnightblue" d="M286.69,-56.44C328.64,-47.04 396.09,-31.93 441.57,-21.74"/>
<polygon fill="midnightblue" stroke="midnightblue" points="442.5,-25.12 451.49,-19.52 440.97,-18.29 442.5,-25.12"/>
</g>
</g>
</svg>
