<?xml version="1.0" encoding="UTF-8" standalone="no"?>
<!DOCTYPE svg PUBLIC "-//W3C//DTD SVG 1.1//EN"
 "http://www.w3.org/Graphics/SVG/1.1/DTD/svg11.dtd">
<!-- Generated by graphviz version 2.43.0 (0)
 -->
<!-- Title: BaseState.cc Pages: 1 -->
<svg width="2747pt" height="196pt"
 viewBox="0.00 0.00 2747.00 196.00" xmlns="http://www.w3.org/2000/svg" xmlns:xlink="http://www.w3.org/1999/xlink">
<g id="graph0" class="graph" transform="scale(1 1) rotate(0) translate(4 192)">
<title>BaseState.cc</title>
<!-- Node1 -->
<g id="node1" class="node">
<title>Node1</title>
<g id="a_node1"><a xlink:title=" ">
<polygon fill="#bfbfbf" stroke="black" points="1738,-168.5 1738,-187.5 1818,-187.5 1818,-168.5 1738,-168.5"/>
<text text-anchor="middle" x="1778" y="-175.5" font-family="FreeSans.ttf" font-size="10.00">BaseState.cc</text>
</a>
</g>
</g>
<!-- Node2 -->
<g id="node2" class="node">
<title>Node2</title>
<g id="a_node2"><a xlink:href="BaseState_8hh.html" target="_top" xlink:title=" ">
<polygon fill="none" stroke="black" points="622.5,-112.5 622.5,-131.5 703.5,-131.5 703.5,-112.5 622.5,-112.5"/>
<text text-anchor="middle" x="663" y="-119.5" font-family="FreeSans.ttf" font-size="10.00">BaseState.hh</text>
</a>
</g>
</g>
<!-- Node1&#45;&gt;Node2 -->
<g id="edge1" class="edge">
<title>Node1&#45;&gt;Node2</title>
<path fill="none" stroke="midnightblue" d="M1737.99,-175.06C1567.73,-166.82 903.59,-134.65 713.87,-125.46"/>
<polygon fill="midnightblue" stroke="midnightblue" points="713.78,-121.96 703.62,-124.97 713.44,-128.95 713.78,-121.96"/>
</g>
<!-- Node18 -->
<g id="node18" class="node">
<title>Node18</title>
<g id="a_node18"><a xlink:href="BaseStateDriver_8h.html" target="_top" xlink:title=" ">
<polygon fill="none" stroke="black" points="1615,-112.5 1615,-131.5 1719,-131.5 1719,-112.5 1615,-112.5"/>
<text text-anchor="middle" x="1667" y="-119.5" font-family="FreeSans.ttf" font-size="10.00">BaseStateDriver.h</text>
</a>
</g>
</g>
<!-- Node1&#45;&gt;Node18 -->
<g id="edge22" class="edge">
<title>Node1&#45;&gt;Node18</title>
<path fill="none" stroke="midnightblue" d="M1760.17,-168.32C1742.28,-159.62 1714.52,-146.12 1693.95,-136.11"/>
<polygon fill="midnightblue" stroke="midnightblue" points="1695.31,-132.88 1684.79,-131.65 1692.25,-139.18 1695.31,-132.88"/>
</g>
<!-- Node30 -->
<g id="node30" class="node">
<title>Node30</title>
<g id="a_node30"><a xlink:title=" ">
<polygon fill="none" stroke="#bfbfbf" points="1737,-112.5 1737,-131.5 1819,-131.5 1819,-112.5 1737,-112.5"/>
<text text-anchor="middle" x="1778" y="-119.5" font-family="FreeSans.ttf" font-size="10.00">yarp/os/Log.h</text>
</a>
</g>
</g>
<!-- Node1&#45;&gt;Node30 -->
<g id="edge38" class="edge">
<title>Node1&#45;&gt;Node30</title>
<path fill="none" stroke="midnightblue" d="M1778,-168.08C1778,-161.01 1778,-150.86 1778,-141.99"/>
<polygon fill="midnightblue" stroke="midnightblue" points="1781.5,-141.75 1778,-131.75 1774.5,-141.75 1781.5,-141.75"/>
</g>
<!-- Node31 -->
<g id="node31" class="node">
<title>Node31</title>
<g id="a_node31"><a xlink:title=" ">
<polygon fill="none" stroke="#bfbfbf" points="1837.5,-112.5 1837.5,-131.5 1954.5,-131.5 1954.5,-112.5 1837.5,-112.5"/>
<text text-anchor="middle" x="1896" y="-119.5" font-family="FreeSans.ttf" font-size="10.00">yarp/os/LogStream.h</text>
</a>
</g>
</g>
<!-- Node1&#45;&gt;Node31 -->
<g id="edge39" class="edge">
<title>Node1&#45;&gt;Node31</title>
<path fill="none" stroke="midnightblue" d="M1796.7,-168.44C1815.94,-159.64 1846.15,-145.81 1868.2,-135.72"/>
<polygon fill="midnightblue" stroke="midnightblue" points="1869.75,-138.86 1877.39,-131.52 1866.84,-132.5 1869.75,-138.86"/>
</g>
<!-- Node32 -->
<g id="node32" class="node">
<title>Node32</title>
<g id="a_node32"><a xlink:title=" ">
<polygon fill="none" stroke="#bfbfbf" points="1973,-112.5 1973,-131.5 2067,-131.5 2067,-112.5 1973,-112.5"/>
<text text-anchor="middle" x="2020" y="-119.5" font-family="FreeSans.ttf" font-size="10.00">yarp/os/Bottle.h</text>
</a>
</g>
</g>
<!-- Node1&#45;&gt;Node32 -->
<g id="edge40" class="edge">
<title>Node1&#45;&gt;Node32</title>
<path fill="none" stroke="midnightblue" d="M1816.35,-168.44C1858.47,-159.04 1926.21,-143.93 1971.87,-133.74"/>
<polygon fill="midnightblue" stroke="midnightblue" points="1972.84,-137.11 1981.83,-131.52 1971.31,-130.28 1972.84,-137.11"/>
</g>
<!-- Node3 -->
<g id="node3" class="node">
<title>Node3</title>
<g id="a_node3"><a xlink:title=" ">
<polygon fill="none" stroke="#bfbfbf" points="0,-0.5 0,-19.5 44,-19.5 44,-0.5 0,-0.5"/>
<text text-anchor="middle" x="22" y="-7.5" font-family="FreeSans.ttf" font-size="10.00">string</text>
</a>
</g>
</g>
<!-- Node2&#45;&gt;Node3 -->
<g id="edge2" class="edge">
<title>Node2&#45;&gt;Node3</title>
<path fill="none" stroke="midnightblue" d="M622.4,-121.61C506.87,-122.76 178.5,-121.81 83,-76 61.28,-65.58 43.41,-43.79 32.75,-28.32"/>
<polygon fill="midnightblue" stroke="midnightblue" points="35.48,-26.1 27.07,-19.66 29.63,-29.94 35.48,-26.1"/>
</g>
<!-- Node4 -->
<g id="node4" class="node">
<title>Node4</title>
<g id="a_node4"><a xlink:title=" ">
<polygon fill="none" stroke="#bfbfbf" points="911,-56.5 911,-75.5 1057,-75.5 1057,-56.5 911,-56.5"/>
<text text-anchor="middle" x="984" y="-63.5" font-family="FreeSans.ttf" font-size="10.00">gazebo/common/Plugin.hh</text>
</a>
</g>
</g>
<!-- Node2&#45;&gt;Node4 -->
<g id="edge3" class="edge">
<title>Node2&#45;&gt;Node4</title>
<path fill="none" stroke="midnightblue" d="M703.65,-114.16C759.14,-104.83 859.03,-88.02 923.37,-77.2"/>
<polygon fill="midnightblue" stroke="midnightblue" points="924.1,-80.63 933.38,-75.51 922.94,-73.72 924.1,-80.63"/>
</g>
<!-- Node5 -->
<g id="node5" class="node">
<title>Node5</title>
<g id="a_node5"><a xlink:href="Handler_8hh.html" target="_top" xlink:title=" ">
<polygon fill="none" stroke="black" points="691,-56.5 691,-75.5 855,-75.5 855,-56.5 691,-56.5"/>
<text text-anchor="middle" x="773" y="-63.5" font-family="FreeSans.ttf" font-size="10.00">GazeboYarpPlugins/Handler.hh</text>
</a>
</g>
</g>
<!-- Node2&#45;&gt;Node5 -->
<g id="edge4" class="edge">
<title>Node2&#45;&gt;Node5</title>
<path fill="none" stroke="midnightblue" d="M680.67,-112.32C698.39,-103.62 725.9,-90.12 746.29,-80.11"/>
<polygon fill="midnightblue" stroke="midnightblue" points="747.94,-83.2 755.37,-75.65 744.85,-76.92 747.94,-83.2"/>
</g>
<!-- Node10 -->
<g id="node10" class="node">
<title>Node10</title>
<g id="a_node10"><a xlink:title=" ">
<polygon fill="none" stroke="#bfbfbf" points="758,-0.5 758,-19.5 880,-19.5 880,-0.5 758,-0.5"/>
<text text-anchor="middle" x="819" y="-7.5" font-family="FreeSans.ttf" font-size="10.00">yarp/dev/PolyDriver.h</text>
</a>
</g>
</g>
<!-- Node2&#45;&gt;Node10 -->
<g id="edge20" class="edge">
<title>Node2&#45;&gt;Node10</title>
<path fill="none" stroke="midnightblue" d="M663.09,-112.16C663.72,-98.32 666.96,-71.55 682,-56 699.52,-37.89 724.43,-27.07 748.23,-20.6"/>
<polygon fill="midnightblue" stroke="midnightblue" points="749.12,-23.98 757.97,-18.16 747.42,-17.19 749.12,-23.98"/>
</g>
<!-- Node11 -->
<g id="node11" class="node">
<title>Node11</title>
<g id="a_node11"><a xlink:title=" ">
<polygon fill="none" stroke="#bfbfbf" points="954,-0.5 954,-19.5 1094,-19.5 1094,-0.5 954,-0.5"/>
<text text-anchor="middle" x="1024" y="-7.5" font-family="FreeSans.ttf" font-size="10.00">yarp/dev/PolyDriverList.h</text>
</a>
</g>
</g>
<!-- Node2&#45;&gt;Node11 -->
<g id="edge21" class="edge">
<title>Node2&#45;&gt;Node11</title>
<path fill="none" stroke="midnightblue" d="M703.56,-115.15C744.8,-108.47 810.13,-95.81 864,-76 881.91,-69.41 884.57,-63.76 902,-56 930.46,-43.33 963.68,-31.24 988.27,-22.79"/>
<polygon fill="midnightblue" stroke="midnightblue" points="989.56,-26.05 997.9,-19.52 987.31,-19.42 989.56,-26.05"/>
</g>
<!-- Node12 -->
<g id="node12" class="node">
<title>Node12</title>
<g id="a_node12"><a xlink:href="common_8h.html" target="_top" xlink:title=" ">
<polygon fill="none" stroke="black" points="266,-56.5 266,-75.5 430,-75.5 430,-56.5 266,-56.5"/>
<text text-anchor="middle" x="348" y="-63.5" font-family="FreeSans.ttf" font-size="10.00">GazeboYarpPlugins/common.h</text>
</a>
</g>
</g>
<!-- Node2&#45;&gt;Node12 -->
<g id="edge11" class="edge">
<title>Node2&#45;&gt;Node12</title>
<path fill="none" stroke="midnightblue" d="M622.46,-114.05C568,-104.71 470.8,-88.05 407.89,-77.27"/>
<polygon fill="midnightblue" stroke="midnightblue" points="408.16,-73.76 397.71,-75.52 406.98,-80.66 408.16,-73.76"/>
</g>
<!-- Node14 -->
<g id="node14" class="node">
<title>Node14</title>
<g id="a_node14"><a xlink:href="ConfHelpers_8hh.html" target="_top" xlink:title=" ">
<polygon fill="none" stroke="black" points="448.5,-56.5 448.5,-75.5 635.5,-75.5 635.5,-56.5 448.5,-56.5"/>
<text text-anchor="middle" x="542" y="-63.5" font-family="FreeSans.ttf" font-size="10.00">GazeboYarpPlugins/ConfHelpers.hh</text>
</a>
</g>
</g>
<!-- Node2&#45;&gt;Node14 -->
<g id="edge14" class="edge">
<title>Node2&#45;&gt;Node14</title>
<path fill="none" stroke="midnightblue" d="M643.83,-112.44C624.09,-103.64 593.11,-89.81 570.51,-79.72"/>
<polygon fill="midnightblue" stroke="midnightblue" points="571.64,-76.4 561.08,-75.52 568.79,-82.79 571.64,-76.4"/>
</g>
<!-- Node17 -->
<g id="node17" class="node">
<title>Node17</title>
<g id="a_node17"><a xlink:title=" ">
<polygon fill="none" stroke="#bfbfbf" points="92.5,-56.5 92.5,-75.5 247.5,-75.5 247.5,-56.5 92.5,-56.5"/>
<text text-anchor="middle" x="170" y="-63.5" font-family="FreeSans.ttf" font-size="10.00">yarp/dev/IMultipleWrapper.h</text>
</a>
</g>
</g>
<!-- Node2&#45;&gt;Node17 -->
<g id="edge19" class="edge">
<title>Node2&#45;&gt;Node17</title>
<path fill="none" stroke="midnightblue" d="M622.24,-116.54C542.79,-107.83 365.61,-88.43 258.12,-76.65"/>
<polygon fill="midnightblue" stroke="midnightblue" points="258.26,-73.15 247.94,-75.54 257.5,-80.11 258.26,-73.15"/>
</g>
<!-- Node6 -->
<g id="node6" class="node">
<title>Node6</title>
<g id="a_node6"><a xlink:title=" ">
<polygon fill="none" stroke="#bfbfbf" points="898,-0.5 898,-19.5 936,-19.5 936,-0.5 898,-0.5"/>
<text text-anchor="middle" x="917" y="-7.5" font-family="FreeSans.ttf" font-size="10.00">map</text>
</a>
</g>
</g>
<!-- Node5&#45;&gt;Node6 -->
<g id="edge5" class="edge">
<title>Node5&#45;&gt;Node6</title>
<path fill="none" stroke="midnightblue" d="M795.82,-56.44C820.85,-47.06 861.08,-31.97 888.25,-21.78"/>
<polygon fill="midnightblue" stroke="midnightblue" points="889.83,-24.93 897.97,-18.14 887.38,-18.37 889.83,-24.93"/>
</g>
<!-- Node7 -->
<g id="node7" class="node">
<title>Node7</title>
<g id="a_node7"><a xlink:title=" ">
<polygon fill="none" stroke="#bfbfbf" points="509.5,-0.5 509.5,-19.5 602.5,-19.5 602.5,-0.5 509.5,-0.5"/>
<text text-anchor="middle" x="556" y="-7.5" font-family="FreeSans.ttf" font-size="10.00">sdf/sdf_config.h</text>
</a>
</g>
</g>
<!-- Node5&#45;&gt;Node7 -->
<g id="edge6" class="edge">
<title>Node5&#45;&gt;Node7</title>
<path fill="none" stroke="midnightblue" d="M738.62,-56.44C701.08,-47.1 640.87,-32.12 599.93,-21.93"/>
<polygon fill="midnightblue" stroke="midnightblue" points="600.77,-18.53 590.22,-19.52 599.08,-25.33 600.77,-18.53"/>
</g>
<!-- Node8 -->
<g id="node8" class="node">
<title>Node8</title>
<g id="a_node8"><a xlink:title=" ">
<polygon fill="none" stroke="#bfbfbf" points="620.5,-0.5 620.5,-19.5 739.5,-19.5 739.5,-0.5 620.5,-0.5"/>
<text text-anchor="middle" x="680" y="-7.5" font-family="FreeSans.ttf" font-size="10.00">boost/shared_ptr.hpp</text>
</a>
</g>
</g>
<!-- Node5&#45;&gt;Node8 -->
<g id="edge7" class="edge">
<title>Node5&#45;&gt;Node8</title>
<path fill="none" stroke="midnightblue" d="M758.06,-56.32C743.41,-47.82 720.87,-34.73 703.76,-24.8"/>
<polygon fill="midnightblue" stroke="midnightblue" points="705.31,-21.65 694.9,-19.65 701.8,-27.7 705.31,-21.65"/>
</g>
<!-- Node9 -->
<g id="node9" class="node">
<title>Node9</title>
<g id="a_node9"><a xlink:title=" ">
<polygon fill="none" stroke="#bfbfbf" points="1664,-0.5 1664,-19.5 1712,-19.5 1712,-0.5 1664,-0.5"/>
<text text-anchor="middle" x="1688" y="-7.5" font-family="FreeSans.ttf" font-size="10.00">mutex</text>
</a>
</g>
</g>
<!-- Node5&#45;&gt;Node9 -->
<g id="edge8" class="edge">
<title>Node5&#45;&gt;Node9</title>
<path fill="none" stroke="midnightblue" d="M855.23,-59.11C870.76,-58.04 886.88,-56.96 902,-56 1192.75,-37.54 1544.24,-18.62 1653.75,-12.81"/>
<polygon fill="midnightblue" stroke="midnightblue" points="1654.07,-16.3 1663.87,-12.27 1653.7,-9.31 1654.07,-16.3"/>
</g>
<!-- Node5&#45;&gt;Node10 -->
<g id="edge9" class="edge">
<title>Node5&#45;&gt;Node10</title>
<path fill="none" stroke="midnightblue" d="M780.6,-56.08C787.23,-48.3 797.02,-36.8 805.06,-27.37"/>
<polygon fill="midnightblue" stroke="midnightblue" points="807.73,-29.63 811.55,-19.75 802.4,-25.09 807.73,-29.63"/>
</g>
<!-- Node5&#45;&gt;Node11 -->
<g id="edge10" class="edge">
<title>Node5&#45;&gt;Node11</title>
<path fill="none" stroke="midnightblue" d="M812.77,-56.44C856.56,-47.02 927.01,-31.87 974.38,-21.68"/>
<polygon fill="midnightblue" stroke="midnightblue" points="975.37,-25.04 984.41,-19.52 973.9,-18.2 975.37,-25.04"/>
</g>
<!-- Node12&#45;&gt;Node3 -->
<g id="edge12" class="edge">
<title>Node12&#45;&gt;Node3</title>
<path fill="none" stroke="midnightblue" d="M274.16,-56.47C216.53,-49.18 134.35,-37.41 54.04,-19.99"/>
<polygon fill="midnightblue" stroke="midnightblue" points="54.78,-16.57 44.26,-17.84 53.28,-23.41 54.78,-16.57"/>
</g>
<!-- Node13 -->
<g id="node13" class="node">
<title>Node13</title>
<g id="a_node13"><a xlink:title=" ">
<polygon fill="none" stroke="#bfbfbf" points="62.5,-0.5 62.5,-19.5 109.5,-19.5 109.5,-0.5 62.5,-0.5"/>
<text text-anchor="middle" x="86" y="-7.5" font-family="FreeSans.ttf" font-size="10.00">cmath</text>
</a>
</g>
</g>
<!-- Node12&#45;&gt;Node13 -->
<g id="edge13" class="edge">
<title>Node12&#45;&gt;Node13</title>
<path fill="none" stroke="midnightblue" d="M299.09,-56.45C254.75,-48.45 187.42,-35.73 119.73,-20.03"/>
<polygon fill="midnightblue" stroke="midnightblue" points="120.28,-16.57 109.74,-17.69 118.68,-23.38 120.28,-16.57"/>
</g>
<!-- Node14&#45;&gt;Node7 -->
<g id="edge15" class="edge">
<title>Node14&#45;&gt;Node7</title>
<path fill="none" stroke="midnightblue" d="M544.31,-56.08C546.17,-48.93 548.84,-38.64 551.15,-29.69"/>
<polygon fill="midnightblue" stroke="midnightblue" points="554.61,-30.31 553.73,-19.75 547.83,-28.55 554.61,-30.31"/>
</g>
<!-- Node14&#45;&gt;Node8 -->
<g id="edge16" class="edge">
<title>Node14&#45;&gt;Node8</title>
<path fill="none" stroke="midnightblue" d="M563.87,-56.44C586.78,-47.48 622.98,-33.31 648.87,-23.18"/>
<polygon fill="midnightblue" stroke="midnightblue" points="650.2,-26.42 658.24,-19.52 647.65,-19.9 650.2,-26.42"/>
</g>
<!-- Node15 -->
<g id="node15" class="node">
<title>Node15</title>
<g id="a_node15"><a xlink:title=" ">
<polygon fill="none" stroke="#bfbfbf" points="320.5,-0.5 320.5,-19.5 491.5,-19.5 491.5,-0.5 320.5,-0.5"/>
<text text-anchor="middle" x="406" y="-7.5" font-family="FreeSans.ttf" font-size="10.00">gazebo/sensors/SensorTypes.hh</text>
</a>
</g>
</g>
<!-- Node14&#45;&gt;Node15 -->
<g id="edge17" class="edge">
<title>Node14&#45;&gt;Node15</title>
<path fill="none" stroke="midnightblue" d="M520.45,-56.44C497.97,-47.52 462.51,-33.44 437.02,-23.32"/>
<polygon fill="midnightblue" stroke="midnightblue" points="438.03,-19.95 427.45,-19.52 435.45,-26.46 438.03,-19.95"/>
</g>
<!-- Node16 -->
<g id="node16" class="node">
<title>Node16</title>
<g id="a_node16"><a xlink:title=" ">
<polygon fill="none" stroke="#bfbfbf" points="128,-0.5 128,-19.5 302,-19.5 302,-0.5 128,-0.5"/>
<text text-anchor="middle" x="215" y="-7.5" font-family="FreeSans.ttf" font-size="10.00">gazebo/physics/PhysicsTypes.hh</text>
</a>
</g>
</g>
<!-- Node14&#45;&gt;Node16 -->
<g id="edge18" class="edge">
<title>Node14&#45;&gt;Node16</title>
<path fill="none" stroke="midnightblue" d="M490.19,-56.44C432.18,-46.87 338.26,-31.36 276.56,-21.17"/>
<polygon fill="midnightblue" stroke="midnightblue" points="277.01,-17.69 266.57,-19.52 275.87,-24.6 277.01,-17.69"/>
</g>
<!-- Node18&#45;&gt;Node4 -->
<g id="edge23" class="edge">
<title>Node18&#45;&gt;Node4</title>
<path fill="none" stroke="midnightblue" d="M1614.7,-117.69C1511.97,-111.07 1276.4,-95.22 1067.54,-76.11"/>
<polygon fill="midnightblue" stroke="midnightblue" points="1067.58,-72.6 1057.3,-75.17 1066.94,-79.57 1067.58,-72.6"/>
</g>
<!-- Node18&#45;&gt;Node5 -->
<g id="edge35" class="edge">
<title>Node18&#45;&gt;Node5</title>
<path fill="none" stroke="midnightblue" d="M1614.58,-118.11C1490.65,-111.25 1169.86,-93.22 902,-76 890.19,-75.24 877.76,-74.41 865.49,-73.57"/>
<polygon fill="midnightblue" stroke="midnightblue" points="865.44,-70.06 855.23,-72.87 864.96,-77.05 865.44,-70.06"/>
</g>
<!-- Node18&#45;&gt;Node9 -->
<g id="edge37" class="edge">
<title>Node18&#45;&gt;Node9</title>
<path fill="none" stroke="midnightblue" d="M1719.21,-113.04C1722.18,-112.67 1725.13,-112.32 1728,-112 1782.7,-105.98 2184.53,-116.3 2222,-76 2228.05,-69.49 2228.02,-62.54 2222,-56 2188.18,-19.22 1835.1,-12.48 1722.38,-11.26"/>
<polygon fill="midnightblue" stroke="midnightblue" points="1722.28,-7.76 1712.24,-11.16 1722.21,-14.76 1722.28,-7.76"/>
</g>
<!-- Node18&#45;&gt;Node12 -->
<g id="edge36" class="edge">
<title>Node18&#45;&gt;Node12</title>
<path fill="none" stroke="midnightblue" d="M1614.87,-120.24C1446.53,-117.56 902.02,-106.96 440.52,-76.06"/>
<polygon fill="midnightblue" stroke="midnightblue" points="440.53,-72.55 430.32,-75.37 440.06,-79.54 440.53,-72.55"/>
</g>
<!-- Node19 -->
<g id="node19" class="node">
<title>Node19</title>
<g id="a_node19"><a xlink:title=" ">
<polygon fill="none" stroke="#bfbfbf" points="2269,-56.5 2269,-75.5 2427,-75.5 2427,-56.5 2269,-56.5"/>
<text text-anchor="middle" x="2348" y="-63.5" font-family="FreeSans.ttf" font-size="10.00">gazebo/common/common.hh</text>
</a>
</g>
</g>
<!-- Node18&#45;&gt;Node19 -->
<g id="edge24" class="edge">
<title>Node18&#45;&gt;Node19</title>
<path fill="none" stroke="midnightblue" d="M1719.21,-113.02C1722.18,-112.65 1725.13,-112.31 1728,-112 1961.42,-86.85 2021.03,-95.31 2255,-76 2256.27,-75.89 2257.56,-75.79 2258.85,-75.68"/>
<polygon fill="midnightblue" stroke="midnightblue" points="2259.2,-79.16 2268.87,-74.81 2258.6,-72.19 2259.2,-79.16"/>
</g>
<!-- Node20 -->
<g id="node20" class="node">
<title>Node20</title>
<g id="a_node20"><a xlink:title=" ">
<polygon fill="none" stroke="#bfbfbf" points="2445,-56.5 2445,-75.5 2575,-75.5 2575,-56.5 2445,-56.5"/>
<text text-anchor="middle" x="2510" y="-63.5" font-family="FreeSans.ttf" font-size="10.00">gazebo/physics/Link.hh</text>
</a>
</g>
</g>
<!-- Node18&#45;&gt;Node20 -->
<g id="edge25" class="edge">
<title>Node18&#45;&gt;Node20</title>
<path fill="none" stroke="midnightblue" d="M1719.2,-112.96C1722.18,-112.61 1725.12,-112.28 1728,-112 2038.17,-81.3 2120.33,-102.57 2434.34,-76.08"/>
<polygon fill="midnightblue" stroke="midnightblue" points="2434.99,-79.54 2444.66,-75.2 2434.39,-72.56 2434.99,-79.54"/>
</g>
<!-- Node21 -->
<g id="node21" class="node">
<title>Node21</title>
<g id="a_node21"><a xlink:title=" ">
<polygon fill="none" stroke="#bfbfbf" points="2593,-56.5 2593,-75.5 2739,-75.5 2739,-56.5 2593,-56.5"/>
<text text-anchor="middle" x="2666" y="-63.5" font-family="FreeSans.ttf" font-size="10.00">gazebo/physics/physics.hh</text>
</a>
</g>
</g>
<!-- Node18&#45;&gt;Node21 -->
<g id="edge26" class="edge">
<title>Node18&#45;&gt;Node21</title>
<path fill="none" stroke="midnightblue" d="M1719.2,-112.93C1722.17,-112.59 1725.12,-112.27 1728,-112 2103.76,-76.48 2202.58,-104.29 2582.53,-76.06"/>
<polygon fill="midnightblue" stroke="midnightblue" points="2583,-79.53 2592.71,-75.29 2582.47,-72.55 2583,-79.53"/>
</g>
<!-- Node22 -->
<g id="node22" class="node">
<title>Node22</title>
<g id="a_node22"><a xlink:title=" ">
<polygon fill="none" stroke="#bfbfbf" points="1075,-56.5 1075,-75.5 1197,-75.5 1197,-56.5 1075,-56.5"/>
<text text-anchor="middle" x="1136" y="-63.5" font-family="FreeSans.ttf" font-size="10.00">gazebo/math/Pose.hh</text>
</a>
</g>
</g>
<!-- Node18&#45;&gt;Node22 -->
<g id="edge27" class="edge">
<title>Node18&#45;&gt;Node22</title>
<path fill="none" stroke="midnightblue" d="M1614.87,-116.39C1531.36,-108.9 1362.19,-93.27 1207.35,-76.01"/>
<polygon fill="midnightblue" stroke="midnightblue" points="1207.51,-72.5 1197.18,-74.87 1206.73,-79.46 1207.51,-72.5"/>
</g>
<!-- Node23 -->
<g id="node23" class="node">
<title>Node23</title>
<g id="a_node23"><a xlink:title=" ">
<polygon fill="none" stroke="#bfbfbf" points="1215.5,-56.5 1215.5,-75.5 1350.5,-75.5 1350.5,-56.5 1215.5,-56.5"/>
<text text-anchor="middle" x="1283" y="-63.5" font-family="FreeSans.ttf" font-size="10.00">gazebo/math/Vector3.hh</text>
</a>
</g>
</g>
<!-- Node18&#45;&gt;Node23 -->
<g id="edge28" class="edge">
<title>Node18&#45;&gt;Node23</title>
<path fill="none" stroke="midnightblue" d="M1614.81,-113.66C1547.2,-104.15 1429.08,-87.54 1353.53,-76.92"/>
<polygon fill="midnightblue" stroke="midnightblue" points="1354.01,-73.45 1343.62,-75.52 1353.03,-80.38 1354.01,-73.45"/>
</g>
<!-- Node24 -->
<g id="node24" class="node">
<title>Node24</title>
<g id="a_node24"><a xlink:title=" ">
<polygon fill="none" stroke="#bfbfbf" points="1369,-56.5 1369,-75.5 1505,-75.5 1505,-56.5 1369,-56.5"/>
<text text-anchor="middle" x="1437" y="-63.5" font-family="FreeSans.ttf" font-size="10.00">gazebo/math/Matrix3.hh</text>
</a>
</g>
</g>
<!-- Node18&#45;&gt;Node24 -->
<g id="edge29" class="edge">
<title>Node18&#45;&gt;Node24</title>
<path fill="none" stroke="midnightblue" d="M1630.56,-112.44C1590.6,-103.06 1526.41,-87.99 1483.02,-77.8"/>
<polygon fill="midnightblue" stroke="midnightblue" points="1483.81,-74.39 1473.27,-75.52 1482.21,-81.21 1483.81,-74.39"/>
</g>
<!-- Node25 -->
<g id="node25" class="node">
<title>Node25</title>
<g id="a_node25"><a xlink:title=" ">
<polygon fill="none" stroke="#bfbfbf" points="1523,-56.5 1523,-75.5 1657,-75.5 1657,-56.5 1523,-56.5"/>
<text text-anchor="middle" x="1590" y="-63.5" font-family="FreeSans.ttf" font-size="10.00">yarp/dev/DeviceDriver.h</text>
</a>
</g>
</g>
<!-- Node18&#45;&gt;Node25 -->
<g id="edge30" class="edge">
<title>Node18&#45;&gt;Node25</title>
<path fill="none" stroke="midnightblue" d="M1654.63,-112.32C1642.84,-104.06 1624.87,-91.45 1610.86,-81.63"/>
<polygon fill="midnightblue" stroke="midnightblue" points="1612.54,-78.53 1602.34,-75.65 1608.52,-84.26 1612.54,-78.53"/>
</g>
<!-- Node26 -->
<g id="node26" class="node">
<title>Node26</title>
<g id="a_node26"><a xlink:title=" ">
<polygon fill="none" stroke="#bfbfbf" points="1675,-56.5 1675,-75.5 1815,-75.5 1815,-56.5 1675,-56.5"/>
<text text-anchor="middle" x="1745" y="-63.5" font-family="FreeSans.ttf" font-size="10.00">yarp/dev/IAnalogSensor.h</text>
</a>
</g>
</g>
<!-- Node18&#45;&gt;Node26 -->
<g id="edge31" class="edge">
<title>Node18&#45;&gt;Node26</title>
<path fill="none" stroke="midnightblue" d="M1679.53,-112.32C1691.59,-103.98 1710.03,-91.21 1724.27,-81.35"/>
<polygon fill="midnightblue" stroke="midnightblue" points="1726.27,-84.22 1732.5,-75.65 1722.28,-78.47 1726.27,-84.22"/>
</g>
<!-- Node27 -->
<g id="node27" class="node">
<title>Node27</title>
<g id="a_node27"><a xlink:title=" ">
<polygon fill="none" stroke="#bfbfbf" points="1833.5,-56.5 1833.5,-75.5 1982.5,-75.5 1982.5,-56.5 1833.5,-56.5"/>
<text text-anchor="middle" x="1908" y="-63.5" font-family="FreeSans.ttf" font-size="10.00">yarp/dev/IPreciselyTimed.h</text>
</a>
</g>
</g>
<!-- Node18&#45;&gt;Node27 -->
<g id="edge32" class="edge">
<title>Node18&#45;&gt;Node27</title>
<path fill="none" stroke="midnightblue" d="M1705.19,-112.44C1747.14,-103.04 1814.59,-87.93 1860.07,-77.74"/>
<polygon fill="midnightblue" stroke="midnightblue" points="1861,-81.12 1869.99,-75.52 1859.47,-74.29 1861,-81.12"/>
</g>
<!-- Node28 -->
<g id="node28" class="node">
<title>Node28</title>
<g id="a_node28"><a xlink:title=" ">
<polygon fill="none" stroke="#bfbfbf" points="2001,-56.5 2001,-75.5 2097,-75.5 2097,-56.5 2001,-56.5"/>
<text text-anchor="middle" x="2049" y="-63.5" font-family="FreeSans.ttf" font-size="10.00">yarp/os/Stamp.h</text>
</a>
</g>
</g>
<!-- Node18&#45;&gt;Node28 -->
<g id="edge33" class="edge">
<title>Node18&#45;&gt;Node28</title>
<path fill="none" stroke="midnightblue" d="M1719.24,-113.25C1722.2,-112.83 1725.14,-112.41 1728,-112 1842.04,-95.81 1873.16,-93.36 1990.69,-76.17"/>
<polygon fill="midnightblue" stroke="midnightblue" points="1991.42,-79.6 2000.81,-74.68 1990.41,-72.67 1991.42,-79.6"/>
</g>
<!-- Node29 -->
<g id="node29" class="node">
<title>Node29</title>
<g id="a_node29"><a xlink:title=" ">
<polygon fill="none" stroke="#bfbfbf" points="2115,-56.5 2115,-75.5 2213,-75.5 2213,-56.5 2115,-56.5"/>
<text text-anchor="middle" x="2164" y="-63.5" font-family="FreeSans.ttf" font-size="10.00">yarp/sig/Vector.h</text>
</a>
</g>
</g>
<!-- Node18&#45;&gt;Node29 -->
<g id="edge34" class="edge">
<title>Node18&#45;&gt;Node29</title>
<path fill="none" stroke="midnightblue" d="M1719.22,-113.11C1722.19,-112.72 1725.13,-112.35 1728,-112 1892.34,-92.06 1936.86,-96.76 2105.04,-76.05"/>
<polygon fill="midnightblue" stroke="midnightblue" points="2105.49,-79.52 2114.98,-74.81 2104.63,-72.57 2105.49,-79.52"/>
</g>
</g>
</svg>
