<?xml version="1.0" encoding="UTF-8" standalone="no"?>
<!DOCTYPE svg PUBLIC "-//W3C//DTD SVG 1.1//EN"
 "http://www.w3.org/Graphics/SVG/1.1/DTD/svg11.dtd">
<!-- Generated by graphviz version 5.0.0 (20220707.2338)
 -->
<!-- Title: BaseState.cc Pages: 1 -->
<svg width="3157pt" height="196pt"
 viewBox="0.00 0.00 3156.50 196.00" xmlns="http://www.w3.org/2000/svg" xmlns:xlink="http://www.w3.org/1999/xlink">
<g id="graph0" class="graph" transform="scale(1 1) rotate(0) translate(4 192)">
<title>BaseState.cc</title>
<!-- Node1 -->
<g id="node1" class="node">
<title>Node1</title>
<g id="a_node1"><a xlink:title=" ">
<polygon fill="#bfbfbf" stroke="black" points="1995,-168.5 1995,-187.5 2075,-187.5 2075,-168.5 1995,-168.5"/>
<text text-anchor="middle" x="2035" y="-175.5" font-family="FreeSans.ttf" font-size="10.00">BaseState.cc</text>
</a>
</g>
</g>
<!-- Node2 -->
<g id="node2" class="node">
<title>Node2</title>
<g id="a_node2"><a xlink:href="BaseState_8hh.html" target="_top" xlink:title=" ">
<polygon fill="none" stroke="black" points="835.5,-112.5 835.5,-131.5 916.5,-131.5 916.5,-112.5 835.5,-112.5"/>
<text text-anchor="middle" x="876" y="-119.5" font-family="FreeSans.ttf" font-size="10.00">BaseState.hh</text>
</a>
</g>
</g>
<!-- Node1&#45;&gt;Node2 -->
<g id="edge1" class="edge">
<title>Node1&#45;&gt;Node2</title>
<path fill="none" stroke="midnightblue" d="M1994.77,-175.13C1819.39,-166.95 1121.75,-134.45 926.83,-125.37"/>
<polygon fill="midnightblue" stroke="midnightblue" points="926.74,-121.86 916.58,-124.89 926.41,-128.85 926.74,-121.86"/>
</g>
<!-- Node19 -->
<g id="node19" class="node">
<title>Node19</title>
<g id="a_node19"><a xlink:href="BaseStateDriver_8h.html" target="_top" xlink:title=" ">
<polygon fill="none" stroke="black" points="1872,-112.5 1872,-131.5 1976,-131.5 1976,-112.5 1872,-112.5"/>
<text text-anchor="middle" x="1924" y="-119.5" font-family="FreeSans.ttf" font-size="10.00">BaseStateDriver.h</text>
</a>
</g>
</g>
<!-- Node1&#45;&gt;Node19 -->
<g id="edge23" class="edge">
<title>Node1&#45;&gt;Node19</title>
<path fill="none" stroke="midnightblue" d="M2017.17,-168.32C1999.28,-159.62 1971.52,-146.12 1950.95,-136.11"/>
<polygon fill="midnightblue" stroke="midnightblue" points="1952.31,-132.88 1941.79,-131.65 1949.25,-139.18 1952.31,-132.88"/>
</g>
<!-- Node32 -->
<g id="node32" class="node">
<title>Node32</title>
<g id="a_node32"><a xlink:title=" ">
<polygon fill="none" stroke="#bfbfbf" points="1994,-112.5 1994,-131.5 2076,-131.5 2076,-112.5 1994,-112.5"/>
<text text-anchor="middle" x="2035" y="-119.5" font-family="FreeSans.ttf" font-size="10.00">yarp/os/Log.h</text>
</a>
</g>
</g>
<!-- Node1&#45;&gt;Node32 -->
<g id="edge40" class="edge">
<title>Node1&#45;&gt;Node32</title>
<path fill="none" stroke="midnightblue" d="M2035,-168.08C2035,-161.01 2035,-150.86 2035,-141.99"/>
<polygon fill="midnightblue" stroke="midnightblue" points="2038.5,-141.75 2035,-131.75 2031.5,-141.75 2038.5,-141.75"/>
</g>
<!-- Node33 -->
<g id="node33" class="node">
<title>Node33</title>
<g id="a_node33"><a xlink:title=" ">
<polygon fill="none" stroke="#bfbfbf" points="2094.5,-112.5 2094.5,-131.5 2211.5,-131.5 2211.5,-112.5 2094.5,-112.5"/>
<text text-anchor="middle" x="2153" y="-119.5" font-family="FreeSans.ttf" font-size="10.00">yarp/os/LogStream.h</text>
</a>
</g>
</g>
<!-- Node1&#45;&gt;Node33 -->
<g id="edge41" class="edge">
<title>Node1&#45;&gt;Node33</title>
<path fill="none" stroke="midnightblue" d="M2053.7,-168.44C2072.94,-159.64 2103.15,-145.81 2125.2,-135.72"/>
<polygon fill="midnightblue" stroke="midnightblue" points="2126.75,-138.86 2134.39,-131.52 2123.84,-132.5 2126.75,-138.86"/>
</g>
<!-- Node34 -->
<g id="node34" class="node">
<title>Node34</title>
<g id="a_node34"><a xlink:title=" ">
<polygon fill="none" stroke="#bfbfbf" points="2230,-112.5 2230,-131.5 2324,-131.5 2324,-112.5 2230,-112.5"/>
<text text-anchor="middle" x="2277" y="-119.5" font-family="FreeSans.ttf" font-size="10.00">yarp/os/Bottle.h</text>
</a>
</g>
</g>
<!-- Node1&#45;&gt;Node34 -->
<g id="edge42" class="edge">
<title>Node1&#45;&gt;Node34</title>
<path fill="none" stroke="midnightblue" d="M2073.35,-168.44C2115.47,-159.04 2183.21,-143.93 2228.87,-133.74"/>
<polygon fill="midnightblue" stroke="midnightblue" points="2229.84,-137.11 2238.83,-131.52 2228.31,-130.28 2229.84,-137.11"/>
</g>
<!-- Node3 -->
<g id="node3" class="node">
<title>Node3</title>
<g id="a_node3"><a xlink:title=" ">
<polygon fill="none" stroke="#bfbfbf" points="1217,-0.5 1217,-19.5 1261,-19.5 1261,-0.5 1217,-0.5"/>
<text text-anchor="middle" x="1239" y="-7.5" font-family="FreeSans.ttf" font-size="10.00">string</text>
</a>
</g>
</g>
<!-- Node2&#45;&gt;Node3 -->
<g id="edge2" class="edge">
<title>Node2&#45;&gt;Node3</title>
<path fill="none" stroke="midnightblue" d="M893.85,-112.34C912.25,-103.37 941.72,-88.9 967,-76 984,-67.32 986.94,-62.18 1005,-56 1088.72,-27.32 1116.84,-39.86 1206.92,-20.01"/>
<polygon fill="midnightblue" stroke="midnightblue" points="1207.75,-23.41 1216.72,-17.78 1206.2,-16.59 1207.75,-23.41"/>
</g>
<!-- Node4 -->
<g id="node4" class="node">
<title>Node4</title>
<g id="a_node4"><a xlink:title=" ">
<polygon fill="none" stroke="#bfbfbf" points="1014,-56.5 1014,-75.5 1160,-75.5 1160,-56.5 1014,-56.5"/>
<text text-anchor="middle" x="1087" y="-63.5" font-family="FreeSans.ttf" font-size="10.00">gazebo/common/Plugin.hh</text>
</a>
</g>
</g>
<!-- Node2&#45;&gt;Node4 -->
<g id="edge3" class="edge">
<title>Node2&#45;&gt;Node4</title>
<path fill="none" stroke="midnightblue" d="M909.43,-112.44C945.86,-103.12 1004.23,-88.18 1044.03,-78"/>
<polygon fill="midnightblue" stroke="midnightblue" points="1044.9,-81.39 1053.72,-75.52 1043.17,-74.61 1044.9,-81.39"/>
</g>
<!-- Node5 -->
<g id="node5" class="node">
<title>Node5</title>
<g id="a_node5"><a xlink:href="Handler_8hh.html" target="_top" xlink:title=" ">
<polygon fill="none" stroke="black" points="794,-56.5 794,-75.5 958,-75.5 958,-56.5 794,-56.5"/>
<text text-anchor="middle" x="876" y="-63.5" font-family="FreeSans.ttf" font-size="10.00">GazeboYarpPlugins/Handler.hh</text>
</a>
</g>
</g>
<!-- Node2&#45;&gt;Node5 -->
<g id="edge4" class="edge">
<title>Node2&#45;&gt;Node5</title>
<path fill="none" stroke="midnightblue" d="M876,-112.08C876,-105.01 876,-94.86 876,-85.99"/>
<polygon fill="midnightblue" stroke="midnightblue" points="879.5,-85.75 876,-75.75 872.5,-85.75 879.5,-85.75"/>
</g>
<!-- Node10 -->
<g id="node10" class="node">
<title>Node10</title>
<g id="a_node10"><a xlink:title=" ">
<polygon fill="none" stroke="#bfbfbf" points="630,-0.5 630,-19.5 752,-19.5 752,-0.5 630,-0.5"/>
<text text-anchor="middle" x="691" y="-7.5" font-family="FreeSans.ttf" font-size="10.00">yarp/dev/PolyDriver.h</text>
</a>
</g>
</g>
<!-- Node2&#45;&gt;Node10 -->
<g id="edge21" class="edge">
<title>Node2&#45;&gt;Node10</title>
<path fill="none" stroke="midnightblue" d="M835.33,-121.2C760.89,-120.6 607.27,-114.59 574,-76 551.43,-49.82 594.58,-32.12 634.71,-21.88"/>
<polygon fill="midnightblue" stroke="midnightblue" points="635.64,-25.26 644.53,-19.5 633.99,-18.46 635.64,-25.26"/>
</g>
<!-- Node11 -->
<g id="node11" class="node">
<title>Node11</title>
<g id="a_node11"><a xlink:title=" ">
<polygon fill="none" stroke="#bfbfbf" points="770,-0.5 770,-19.5 910,-19.5 910,-0.5 770,-0.5"/>
<text text-anchor="middle" x="840" y="-7.5" font-family="FreeSans.ttf" font-size="10.00">yarp/dev/PolyDriverList.h</text>
</a>
</g>
</g>
<!-- Node2&#45;&gt;Node11 -->
<g id="edge22" class="edge">
<title>Node2&#45;&gt;Node11</title>
<path fill="none" stroke="midnightblue" d="M838.03,-112.41C818.59,-105.88 796.62,-94.72 785,-76 773.1,-56.83 794.94,-37.42 814.51,-24.86"/>
<polygon fill="midnightblue" stroke="midnightblue" points="816.47,-27.77 823.22,-19.6 812.85,-21.78 816.47,-27.77"/>
</g>
<!-- Node13 -->
<g id="node13" class="node">
<title>Node13</title>
<g id="a_node13"><a xlink:href="common_8h.html" target="_top" xlink:title=" ">
<polygon fill="none" stroke="black" points="1216,-56.5 1216,-75.5 1380,-75.5 1380,-56.5 1216,-56.5"/>
<text text-anchor="middle" x="1298" y="-63.5" font-family="FreeSans.ttf" font-size="10.00">GazeboYarpPlugins/common.h</text>
</a>
</g>
</g>
<!-- Node2&#45;&gt;Node13 -->
<g id="edge12" class="edge">
<title>Node2&#45;&gt;Node13</title>
<path fill="none" stroke="midnightblue" d="M916.85,-115.77C987.05,-106.79 1131.68,-88.28 1221.21,-76.83"/>
<polygon fill="midnightblue" stroke="midnightblue" points="1221.83,-80.28 1231.31,-75.53 1220.94,-73.33 1221.83,-80.28"/>
</g>
<!-- Node15 -->
<g id="node15" class="node">
<title>Node15</title>
<g id="a_node15"><a xlink:href="ConfHelpers_8hh.html" target="_top" xlink:title=" ">
<polygon fill="none" stroke="black" points="334.5,-56.5 334.5,-75.5 521.5,-75.5 521.5,-56.5 334.5,-56.5"/>
<text text-anchor="middle" x="428" y="-63.5" font-family="FreeSans.ttf" font-size="10.00">GazeboYarpPlugins/ConfHelpers.hh</text>
</a>
</g>
</g>
<!-- Node2&#45;&gt;Node15 -->
<g id="edge15" class="edge">
<title>Node2&#45;&gt;Node15</title>
<path fill="none" stroke="midnightblue" d="M835.45,-116.11C761.81,-107.24 604.83,-88.31 508.65,-76.72"/>
<polygon fill="midnightblue" stroke="midnightblue" points="509.02,-73.24 498.67,-75.52 508.18,-80.19 509.02,-73.24"/>
</g>
<!-- Node18 -->
<g id="node18" class="node">
<title>Node18</title>
<g id="a_node18"><a xlink:title=" ">
<polygon fill="none" stroke="#bfbfbf" points="582.5,-56.5 582.5,-75.5 737.5,-75.5 737.5,-56.5 582.5,-56.5"/>
<text text-anchor="middle" x="660" y="-63.5" font-family="FreeSans.ttf" font-size="10.00">yarp/dev/IMultipleWrapper.h</text>
</a>
</g>
</g>
<!-- Node2&#45;&gt;Node18 -->
<g id="edge20" class="edge">
<title>Node2&#45;&gt;Node18</title>
<path fill="none" stroke="midnightblue" d="M841.77,-112.44C804.49,-103.12 744.73,-88.18 703.99,-78"/>
<polygon fill="midnightblue" stroke="midnightblue" points="704.62,-74.55 694.07,-75.52 702.92,-81.34 704.62,-74.55"/>
</g>
<!-- Node6 -->
<g id="node6" class="node">
<title>Node6</title>
<g id="a_node6"><a xlink:title=" ">
<polygon fill="none" stroke="#bfbfbf" points="1095,-0.5 1095,-19.5 1133,-19.5 1133,-0.5 1095,-0.5"/>
<text text-anchor="middle" x="1114" y="-7.5" font-family="FreeSans.ttf" font-size="10.00">map</text>
</a>
</g>
</g>
<!-- Node5&#45;&gt;Node6 -->
<g id="edge5" class="edge">
<title>Node5&#45;&gt;Node6</title>
<path fill="none" stroke="midnightblue" d="M923.29,-56.48C964.11,-48.78 1024.8,-36.49 1085.21,-20.29"/>
<polygon fill="midnightblue" stroke="midnightblue" points="1086.17,-23.66 1094.91,-17.66 1084.34,-16.9 1086.17,-23.66"/>
</g>
<!-- Node7 -->
<g id="node7" class="node">
<title>Node7</title>
<g id="a_node7"><a xlink:title=" ">
<polygon fill="none" stroke="#bfbfbf" points="381.5,-0.5 381.5,-19.5 474.5,-19.5 474.5,-0.5 381.5,-0.5"/>
<text text-anchor="middle" x="428" y="-7.5" font-family="FreeSans.ttf" font-size="10.00">sdf/sdf_config.h</text>
</a>
</g>
</g>
<!-- Node5&#45;&gt;Node7 -->
<g id="edge6" class="edge">
<title>Node5&#45;&gt;Node7</title>
<path fill="none" stroke="midnightblue" d="M793.81,-56.75C716.53,-48.73 597.36,-35.68 484.94,-20.22"/>
<polygon fill="midnightblue" stroke="midnightblue" points="485.17,-16.72 474.78,-18.81 484.21,-23.65 485.17,-16.72"/>
</g>
<!-- Node8 -->
<g id="node8" class="node">
<title>Node8</title>
<g id="a_node8"><a xlink:title=" ">
<polygon fill="none" stroke="#bfbfbf" points="492.5,-0.5 492.5,-19.5 611.5,-19.5 611.5,-0.5 492.5,-0.5"/>
<text text-anchor="middle" x="552" y="-7.5" font-family="FreeSans.ttf" font-size="10.00">boost/shared_ptr.hpp</text>
</a>
</g>
</g>
<!-- Node5&#45;&gt;Node8 -->
<g id="edge7" class="edge">
<title>Node5&#45;&gt;Node8</title>
<path fill="none" stroke="midnightblue" d="M824.66,-56.44C767.19,-46.87 674.13,-31.36 613,-21.17"/>
<polygon fill="midnightblue" stroke="midnightblue" points="613.54,-17.71 603.1,-19.52 612.39,-24.61 613.54,-17.71"/>
</g>
<!-- Node9 -->
<g id="node9" class="node">
<title>Node9</title>
<g id="a_node9"><a xlink:title=" ">
<polygon fill="none" stroke="#bfbfbf" points="1151,-0.5 1151,-19.5 1199,-19.5 1199,-0.5 1151,-0.5"/>
<text text-anchor="middle" x="1175" y="-7.5" font-family="FreeSans.ttf" font-size="10.00">mutex</text>
</a>
</g>
</g>
<!-- Node5&#45;&gt;Node9 -->
<g id="edge8" class="edge">
<title>Node5&#45;&gt;Node9</title>
<path fill="none" stroke="midnightblue" d="M936.55,-56.5C988.35,-48.83 1065.08,-36.54 1140.74,-20.1"/>
<polygon fill="midnightblue" stroke="midnightblue" points="1141.9,-23.43 1150.92,-17.86 1140.4,-16.59 1141.9,-23.43"/>
</g>
<!-- Node5&#45;&gt;Node10 -->
<g id="edge9" class="edge">
<title>Node5&#45;&gt;Node10</title>
<path fill="none" stroke="midnightblue" d="M846.69,-56.44C815.16,-47.24 764.87,-32.56 730.01,-22.39"/>
<polygon fill="midnightblue" stroke="midnightblue" points="730.76,-18.96 720.18,-19.52 728.8,-25.68 730.76,-18.96"/>
</g>
<!-- Node5&#45;&gt;Node11 -->
<g id="edge10" class="edge">
<title>Node5&#45;&gt;Node11</title>
<path fill="none" stroke="midnightblue" d="M870.06,-56.08C865.02,-48.53 857.66,-37.49 851.49,-28.23"/>
<polygon fill="midnightblue" stroke="midnightblue" points="854.29,-26.13 845.83,-19.75 848.47,-30.01 854.29,-26.13"/>
</g>
<!-- Node12 -->
<g id="node12" class="node">
<title>Node12</title>
<g id="a_node12"><a xlink:title=" ">
<polygon fill="none" stroke="#bfbfbf" points="928.5,-0.5 928.5,-19.5 1077.5,-19.5 1077.5,-0.5 928.5,-0.5"/>
<text text-anchor="middle" x="1003" y="-7.5" font-family="FreeSans.ttf" font-size="10.00">gazebo/common/Events.hh</text>
</a>
</g>
</g>
<!-- Node5&#45;&gt;Node12 -->
<g id="edge11" class="edge">
<title>Node5&#45;&gt;Node12</title>
<path fill="none" stroke="midnightblue" d="M896.12,-56.44C917.02,-47.56 949.93,-33.56 973.72,-23.45"/>
<polygon fill="midnightblue" stroke="midnightblue" points="975.14,-26.65 982.97,-19.52 972.4,-20.21 975.14,-26.65"/>
</g>
<!-- Node13&#45;&gt;Node3 -->
<g id="edge13" class="edge">
<title>Node13&#45;&gt;Node3</title>
<path fill="none" stroke="midnightblue" d="M1288.52,-56.32C1279.8,-48.34 1266.66,-36.31 1256.1,-26.65"/>
<polygon fill="midnightblue" stroke="midnightblue" points="1258.39,-24 1248.65,-19.83 1253.67,-29.17 1258.39,-24"/>
</g>
<!-- Node14 -->
<g id="node14" class="node">
<title>Node14</title>
<g id="a_node14"><a xlink:title=" ">
<polygon fill="none" stroke="#bfbfbf" points="1279.5,-0.5 1279.5,-19.5 1326.5,-19.5 1326.5,-0.5 1279.5,-0.5"/>
<text text-anchor="middle" x="1303" y="-7.5" font-family="FreeSans.ttf" font-size="10.00">cmath</text>
</a>
</g>
</g>
<!-- Node13&#45;&gt;Node14 -->
<g id="edge14" class="edge">
<title>Node13&#45;&gt;Node14</title>
<path fill="none" stroke="midnightblue" d="M1298.83,-56.08C1299.48,-49.01 1300.42,-38.86 1301.24,-29.99"/>
<polygon fill="midnightblue" stroke="midnightblue" points="1304.75,-30.03 1302.19,-19.75 1297.78,-29.39 1304.75,-30.03"/>
</g>
<!-- Node15&#45;&gt;Node7 -->
<g id="edge16" class="edge">
<title>Node15&#45;&gt;Node7</title>
<path fill="none" stroke="midnightblue" d="M428,-56.08C428,-49.01 428,-38.86 428,-29.99"/>
<polygon fill="midnightblue" stroke="midnightblue" points="431.5,-29.75 428,-19.75 424.5,-29.75 431.5,-29.75"/>
</g>
<!-- Node15&#45;&gt;Node8 -->
<g id="edge17" class="edge">
<title>Node15&#45;&gt;Node8</title>
<path fill="none" stroke="midnightblue" d="M447.65,-56.44C467.96,-47.6 499.9,-33.69 523.1,-23.59"/>
<polygon fill="midnightblue" stroke="midnightblue" points="524.67,-26.72 532.44,-19.52 521.88,-20.3 524.67,-26.72"/>
</g>
<!-- Node16 -->
<g id="node16" class="node">
<title>Node16</title>
<g id="a_node16"><a xlink:title=" ">
<polygon fill="none" stroke="#bfbfbf" points="192.5,-0.5 192.5,-19.5 363.5,-19.5 363.5,-0.5 192.5,-0.5"/>
<text text-anchor="middle" x="278" y="-7.5" font-family="FreeSans.ttf" font-size="10.00">gazebo/sensors/SensorTypes.hh</text>
</a>
</g>
</g>
<!-- Node15&#45;&gt;Node16 -->
<g id="edge18" class="edge">
<title>Node15&#45;&gt;Node16</title>
<path fill="none" stroke="midnightblue" d="M404.23,-56.44C379.11,-47.4 339.29,-33.06 311.1,-22.92"/>
<polygon fill="midnightblue" stroke="midnightblue" points="312.25,-19.61 301.66,-19.52 309.88,-26.2 312.25,-19.61"/>
</g>
<!-- Node17 -->
<g id="node17" class="node">
<title>Node17</title>
<g id="a_node17"><a xlink:title=" ">
<polygon fill="none" stroke="#bfbfbf" points="0,-0.5 0,-19.5 174,-19.5 174,-0.5 0,-0.5"/>
<text text-anchor="middle" x="87" y="-7.5" font-family="FreeSans.ttf" font-size="10.00">gazebo/physics/PhysicsTypes.hh</text>
</a>
</g>
</g>
<!-- Node15&#45;&gt;Node17 -->
<g id="edge19" class="edge">
<title>Node15&#45;&gt;Node17</title>
<path fill="none" stroke="midnightblue" d="M373.97,-56.44C313.36,-46.85 215.14,-31.29 150.8,-21.1"/>
<polygon fill="midnightblue" stroke="midnightblue" points="151.2,-17.62 140.78,-19.52 150.11,-24.54 151.2,-17.62"/>
</g>
<!-- Node19&#45;&gt;Node4 -->
<g id="edge24" class="edge">
<title>Node19&#45;&gt;Node4</title>
<path fill="none" stroke="midnightblue" d="M1871.66,-118.64C1749.42,-112.95 1435.64,-97.37 1174,-76 1172.72,-75.9 1171.44,-75.79 1170.14,-75.68"/>
<polygon fill="midnightblue" stroke="midnightblue" points="1170.35,-72.18 1160.08,-74.79 1169.73,-79.16 1170.35,-72.18"/>
</g>
<!-- Node19&#45;&gt;Node5 -->
<g id="edge37" class="edge">
<title>Node19&#45;&gt;Node5</title>
<path fill="none" stroke="midnightblue" d="M1871.91,-118.83C1731.74,-112.9 1334.88,-95.58 1005,-76 993.18,-75.3 980.76,-74.5 968.48,-73.68"/>
<polygon fill="midnightblue" stroke="midnightblue" points="968.43,-70.17 958.22,-72.99 967.96,-77.16 968.43,-70.17"/>
</g>
<!-- Node19&#45;&gt;Node9 -->
<g id="edge39" class="edge">
<title>Node19&#45;&gt;Node9</title>
<path fill="none" stroke="midnightblue" d="M1871.79,-120.71C1716.01,-119.44 1261.9,-112.6 1207,-76 1191.17,-65.45 1182.87,-44.67 1178.74,-29.43"/>
<polygon fill="midnightblue" stroke="midnightblue" points="1182.11,-28.48 1176.41,-19.55 1175.29,-30.08 1182.11,-28.48"/>
</g>
<!-- Node19&#45;&gt;Node13 -->
<g id="edge38" class="edge">
<title>Node19&#45;&gt;Node13</title>
<path fill="none" stroke="midnightblue" d="M1871.96,-116.88C1778.02,-109.38 1573.62,-92.81 1390.42,-76.12"/>
<polygon fill="midnightblue" stroke="midnightblue" points="1390.61,-72.62 1380.33,-75.2 1389.97,-79.59 1390.61,-72.62"/>
</g>
<!-- Node20 -->
<g id="node20" class="node">
<title>Node20</title>
<g id="a_node20"><a xlink:title=" ">
<polygon fill="none" stroke="#bfbfbf" points="2106,-56.5 2106,-75.5 2264,-75.5 2264,-56.5 2106,-56.5"/>
<text text-anchor="middle" x="2185" y="-63.5" font-family="FreeSans.ttf" font-size="10.00">gazebo/common/common.hh</text>
</a>
</g>
</g>
<!-- Node19&#45;&gt;Node20 -->
<g id="edge25" class="edge">
<title>Node19&#45;&gt;Node20</title>
<path fill="none" stroke="midnightblue" d="M1965.36,-112.44C2011.08,-102.98 2084.76,-87.74 2134.02,-77.55"/>
<polygon fill="midnightblue" stroke="midnightblue" points="2134.75,-80.97 2143.84,-75.52 2133.34,-74.12 2134.75,-80.97"/>
</g>
<!-- Node21 -->
<g id="node21" class="node">
<title>Node21</title>
<g id="a_node21"><a xlink:title=" ">
<polygon fill="none" stroke="#bfbfbf" points="2282,-56.5 2282,-75.5 2412,-75.5 2412,-56.5 2282,-56.5"/>
<text text-anchor="middle" x="2347" y="-63.5" font-family="FreeSans.ttf" font-size="10.00">gazebo/physics/Link.hh</text>
</a>
</g>
</g>
<!-- Node19&#45;&gt;Node21 -->
<g id="edge26" class="edge">
<title>Node19&#45;&gt;Node21</title>
<path fill="none" stroke="midnightblue" d="M1976.23,-113.21C1979.2,-112.8 1982.14,-112.39 1985,-112 2038.7,-104.7 2182.41,-87.05 2271.76,-76.15"/>
<polygon fill="midnightblue" stroke="midnightblue" points="2272.34,-79.6 2281.84,-74.92 2271.49,-72.65 2272.34,-79.6"/>
</g>
<!-- Node22 -->
<g id="node22" class="node">
<title>Node22</title>
<g id="a_node22"><a xlink:title=" ">
<polygon fill="none" stroke="#bfbfbf" points="2430,-56.5 2430,-75.5 2576,-75.5 2576,-56.5 2430,-56.5"/>
<text text-anchor="middle" x="2503" y="-63.5" font-family="FreeSans.ttf" font-size="10.00">gazebo/physics/physics.hh</text>
</a>
</g>
</g>
<!-- Node19&#45;&gt;Node22 -->
<g id="edge27" class="edge">
<title>Node19&#45;&gt;Node22</title>
<path fill="none" stroke="midnightblue" d="M1976.21,-113.07C1979.18,-112.69 1982.13,-112.33 1985,-112 2174.86,-90.18 2225.73,-94.45 2419.46,-76.12"/>
<polygon fill="midnightblue" stroke="midnightblue" points="2420.07,-79.58 2429.69,-75.14 2419.41,-72.61 2420.07,-79.58"/>
</g>
<!-- Node23 -->
<g id="node23" class="node">
<title>Node23</title>
<g id="a_node23"><a xlink:title=" ">
<polygon fill="none" stroke="#bfbfbf" points="2594.5,-56.5 2594.5,-75.5 2723.5,-75.5 2723.5,-56.5 2594.5,-56.5"/>
<text text-anchor="middle" x="2659" y="-63.5" font-family="FreeSans.ttf" font-size="10.00">ignition/math/Pose3.hh</text>
</a>
</g>
</g>
<!-- Node19&#45;&gt;Node23 -->
<g id="edge28" class="edge">
<title>Node19&#45;&gt;Node23</title>
<path fill="none" stroke="midnightblue" d="M1976.21,-112.99C1979.18,-112.63 1982.13,-112.3 1985,-112 2247.48,-84.81 2317.25,-99.76 2584.45,-75.99"/>
<polygon fill="midnightblue" stroke="midnightblue" points="2584.8,-79.47 2594.45,-75.09 2584.18,-72.5 2584.8,-79.47"/>
</g>
<!-- Node24 -->
<g id="node24" class="node">
<title>Node24</title>
<g id="a_node24"><a xlink:title=" ">
<polygon fill="none" stroke="#bfbfbf" points="2741.5,-56.5 2741.5,-75.5 2878.5,-75.5 2878.5,-56.5 2741.5,-56.5"/>
<text text-anchor="middle" x="2810" y="-63.5" font-family="FreeSans.ttf" font-size="10.00">ignition/math/Vector3.hh</text>
</a>
</g>
</g>
<!-- Node19&#45;&gt;Node24 -->
<g id="edge29" class="edge">
<title>Node19&#45;&gt;Node24</title>
<path fill="none" stroke="midnightblue" d="M1976.2,-112.95C1979.17,-112.6 1982.12,-112.28 1985,-112 2312.86,-80 2399.53,-102.86 2730.8,-76.13"/>
<polygon fill="midnightblue" stroke="midnightblue" points="2731.49,-79.58 2741.18,-75.28 2730.92,-72.61 2731.49,-79.58"/>
</g>
<!-- Node25 -->
<g id="node25" class="node">
<title>Node25</title>
<g id="a_node25"><a xlink:title=" ">
<polygon fill="none" stroke="#bfbfbf" points="2896.5,-56.5 2896.5,-75.5 3033.5,-75.5 3033.5,-56.5 2896.5,-56.5"/>
<text text-anchor="middle" x="2965" y="-63.5" font-family="FreeSans.ttf" font-size="10.00">ignition/math/Matrix3.hh</text>
</a>
</g>
</g>
<!-- Node19&#45;&gt;Node25 -->
<g id="edge30" class="edge">
<title>Node19&#45;&gt;Node25</title>
<path fill="none" stroke="midnightblue" d="M1976.2,-112.92C1979.17,-112.58 1982.12,-112.27 1985,-112 2381.59,-74.94 2485.85,-106.8 2886.07,-76.09"/>
<polygon fill="midnightblue" stroke="midnightblue" points="2886.48,-79.57 2896.18,-75.31 2885.94,-72.59 2886.48,-79.57"/>
</g>
<!-- Node26 -->
<g id="node26" class="node">
<title>Node26</title>
<g id="a_node26"><a xlink:title=" ">
<polygon fill="none" stroke="#bfbfbf" points="3051.5,-56.5 3051.5,-75.5 3148.5,-75.5 3148.5,-56.5 3051.5,-56.5"/>
<text text-anchor="middle" x="3100" y="-63.5" font-family="FreeSans.ttf" font-size="10.00">ignition/math.hh</text>
</a>
</g>
</g>
<!-- Node19&#45;&gt;Node26 -->
<g id="edge31" class="edge">
<title>Node19&#45;&gt;Node26</title>
<path fill="none" stroke="midnightblue" d="M1976.2,-112.9C1979.17,-112.57 1982.12,-112.26 1985,-112 2450.26,-69.9 2572.91,-120.05 3041.16,-76.06"/>
<polygon fill="midnightblue" stroke="midnightblue" points="3041.61,-79.53 3051.23,-75.1 3040.95,-72.56 3041.61,-79.53"/>
</g>
<!-- Node27 -->
<g id="node27" class="node">
<title>Node27</title>
<g id="a_node27"><a xlink:title=" ">
<polygon fill="none" stroke="#bfbfbf" points="1398,-56.5 1398,-75.5 1532,-75.5 1532,-56.5 1398,-56.5"/>
<text text-anchor="middle" x="1465" y="-63.5" font-family="FreeSans.ttf" font-size="10.00">yarp/dev/DeviceDriver.h</text>
</a>
</g>
</g>
<!-- Node19&#45;&gt;Node27 -->
<g id="edge32" class="edge">
<title>Node19&#45;&gt;Node27</title>
<path fill="none" stroke="midnightblue" d="M1871.96,-114.9C1800.23,-106.49 1666.63,-90.81 1542.22,-76.14"/>
<polygon fill="midnightblue" stroke="midnightblue" points="1542.48,-72.65 1532.14,-74.95 1541.66,-79.6 1542.48,-72.65"/>
</g>
<!-- Node28 -->
<g id="node28" class="node">
<title>Node28</title>
<g id="a_node28"><a xlink:title=" ">
<polygon fill="none" stroke="#bfbfbf" points="1550,-56.5 1550,-75.5 1690,-75.5 1690,-56.5 1550,-56.5"/>
<text text-anchor="middle" x="1620" y="-63.5" font-family="FreeSans.ttf" font-size="10.00">yarp/dev/IAnalogSensor.h</text>
</a>
</g>
</g>
<!-- Node19&#45;&gt;Node28 -->
<g id="edge33" class="edge">
<title>Node19&#45;&gt;Node28</title>
<path fill="none" stroke="midnightblue" d="M1875.83,-112.44C1822.13,-102.9 1735.31,-87.48 1677.95,-77.29"/>
<polygon fill="midnightblue" stroke="midnightblue" points="1678.4,-73.82 1667.94,-75.52 1677.18,-80.71 1678.4,-73.82"/>
</g>
<!-- Node29 -->
<g id="node29" class="node">
<title>Node29</title>
<g id="a_node29"><a xlink:title=" ">
<polygon fill="none" stroke="#bfbfbf" points="1708.5,-56.5 1708.5,-75.5 1857.5,-75.5 1857.5,-56.5 1708.5,-56.5"/>
<text text-anchor="middle" x="1783" y="-63.5" font-family="FreeSans.ttf" font-size="10.00">yarp/dev/IPreciselyTimed.h</text>
</a>
</g>
</g>
<!-- Node19&#45;&gt;Node29 -->
<g id="edge34" class="edge">
<title>Node19&#45;&gt;Node29</title>
<path fill="none" stroke="midnightblue" d="M1901.66,-112.44C1878.25,-103.48 1841.26,-89.31 1814.81,-79.18"/>
<polygon fill="midnightblue" stroke="midnightblue" points="1815.83,-75.82 1805.24,-75.52 1813.32,-82.36 1815.83,-75.82"/>
</g>
<!-- Node30 -->
<g id="node30" class="node">
<title>Node30</title>
<g id="a_node30"><a xlink:title=" ">
<polygon fill="none" stroke="#bfbfbf" points="1876,-56.5 1876,-75.5 1972,-75.5 1972,-56.5 1876,-56.5"/>
<text text-anchor="middle" x="1924" y="-63.5" font-family="FreeSans.ttf" font-size="10.00">yarp/os/Stamp.h</text>
</a>
</g>
</g>
<!-- Node19&#45;&gt;Node30 -->
<g id="edge35" class="edge">
<title>Node19&#45;&gt;Node30</title>
<path fill="none" stroke="midnightblue" d="M1924,-112.08C1924,-105.01 1924,-94.86 1924,-85.99"/>
<polygon fill="midnightblue" stroke="midnightblue" points="1927.5,-85.75 1924,-75.75 1920.5,-85.75 1927.5,-85.75"/>
</g>
<!-- Node31 -->
<g id="node31" class="node">
<title>Node31</title>
<g id="a_node31"><a xlink:title=" ">
<polygon fill="none" stroke="#bfbfbf" points="1990,-56.5 1990,-75.5 2088,-75.5 2088,-56.5 1990,-56.5"/>
<text text-anchor="middle" x="2039" y="-63.5" font-family="FreeSans.ttf" font-size="10.00">yarp/sig/Vector.h</text>
</a>
</g>
</g>
<!-- Node19&#45;&gt;Node31 -->
<g id="edge36" class="edge">
<title>Node19&#45;&gt;Node31</title>
<path fill="none" stroke="midnightblue" d="M1942.22,-112.44C1960.9,-103.68 1990.16,-89.94 2011.62,-79.86"/>
<polygon fill="midnightblue" stroke="midnightblue" points="2013.3,-82.93 2020.86,-75.52 2010.32,-76.6 2013.3,-82.93"/>
</g>
</g>
</svg>
