<?xml version="1.0" encoding="UTF-8" standalone="no"?>
<!DOCTYPE svg PUBLIC "-//W3C//DTD SVG 1.1//EN"
 "http://www.w3.org/Graphics/SVG/1.1/DTD/svg11.dtd">
<!-- Generated by graphviz version 2.49.0 (20210829.0051)
 -->
<!-- Title: BaseStateDriver.h Pages: 1 -->
<svg width="2409pt" height="140pt"
 viewBox="0.00 0.00 2408.50 140.00" xmlns="http://www.w3.org/2000/svg" xmlns:xlink="http://www.w3.org/1999/xlink">
<g id="graph0" class="graph" transform="scale(1 1) rotate(0) translate(4 136)">
<title>BaseStateDriver.h</title>
<!-- Node1 -->
<g id="node1" class="node">
<title>Node1</title>
<g id="a_node1"><a xlink:title=" ">
<polygon fill="#bfbfbf" stroke="black" points="1173,-112.5 1173,-131.5 1277,-131.5 1277,-112.5 1173,-112.5"/>
<text text-anchor="middle" x="1225" y="-119.5" font-family="FreeSans.ttf" font-size="10.00">BaseStateDriver.h</text>
</a>
</g>
</g>
<!-- Node2 -->
<g id="node2" class="node">
<title>Node2</title>
<g id="a_node2"><a xlink:title=" ">
<polygon fill="none" stroke="#bfbfbf" points="0,-56.5 0,-75.5 146,-75.5 146,-56.5 0,-56.5"/>
<text text-anchor="middle" x="73" y="-63.5" font-family="FreeSans.ttf" font-size="10.00">gazebo/common/Plugin.hh</text>
</a>
</g>
</g>
<!-- Node1&#45;&gt;Node2 -->
<g id="edge1" class="edge">
<title>Node1&#45;&gt;Node2</title>
<path fill="none" stroke="midnightblue" d="M1172.87,-120.05C1019.06,-116.98 553.54,-105.8 156.54,-76.06"/>
<polygon fill="midnightblue" stroke="midnightblue" points="156.53,-72.55 146.29,-75.29 156,-79.53 156.53,-72.55"/>
</g>
<!-- Node3 -->
<g id="node3" class="node">
<title>Node3</title>
<g id="a_node3"><a xlink:title=" ">
<polygon fill="none" stroke="#bfbfbf" points="164,-56.5 164,-75.5 322,-75.5 322,-56.5 164,-56.5"/>
<text text-anchor="middle" x="243" y="-63.5" font-family="FreeSans.ttf" font-size="10.00">gazebo/common/common.hh</text>
</a>
</g>
</g>
<!-- Node1&#45;&gt;Node3 -->
<g id="edge2" class="edge">
<title>Node1&#45;&gt;Node3</title>
<path fill="none" stroke="midnightblue" d="M1172.54,-119.31C1035.99,-114.69 658.06,-100.63 332.25,-76.06"/>
<polygon fill="midnightblue" stroke="midnightblue" points="332.37,-72.56 322.14,-75.29 331.84,-79.54 332.37,-72.56"/>
</g>
<!-- Node4 -->
<g id="node4" class="node">
<title>Node4</title>
<g id="a_node4"><a xlink:title=" ">
<polygon fill="none" stroke="#bfbfbf" points="340,-56.5 340,-75.5 470,-75.5 470,-56.5 340,-56.5"/>
<text text-anchor="middle" x="405" y="-63.5" font-family="FreeSans.ttf" font-size="10.00">gazebo/physics/Link.hh</text>
</a>
</g>
</g>
<!-- Node1&#45;&gt;Node4 -->
<g id="edge3" class="edge">
<title>Node1&#45;&gt;Node4</title>
<path fill="none" stroke="midnightblue" d="M1172.91,-118.95C1052.81,-113.98 746.95,-100 480.6,-76.09"/>
<polygon fill="midnightblue" stroke="midnightblue" points="480.62,-72.58 470.35,-75.17 479.99,-79.55 480.62,-72.58"/>
</g>
<!-- Node5 -->
<g id="node5" class="node">
<title>Node5</title>
<g id="a_node5"><a xlink:title=" ">
<polygon fill="none" stroke="#bfbfbf" points="488,-56.5 488,-75.5 634,-75.5 634,-56.5 488,-56.5"/>
<text text-anchor="middle" x="561" y="-63.5" font-family="FreeSans.ttf" font-size="10.00">gazebo/physics/physics.hh</text>
</a>
</g>
</g>
<!-- Node1&#45;&gt;Node5 -->
<g id="edge4" class="edge">
<title>Node1&#45;&gt;Node5</title>
<path fill="none" stroke="midnightblue" d="M1172.78,-117.53C1072.54,-110.74 845.93,-94.8 644.49,-76.11"/>
<polygon fill="midnightblue" stroke="midnightblue" points="644.59,-72.61 634.31,-75.16 643.94,-79.58 644.59,-72.61"/>
</g>
<!-- Node6 -->
<g id="node6" class="node">
<title>Node6</title>
<g id="a_node6"><a xlink:title=" ">
<polygon fill="none" stroke="#bfbfbf" points="652.5,-56.5 652.5,-75.5 781.5,-75.5 781.5,-56.5 652.5,-56.5"/>
<text text-anchor="middle" x="717" y="-63.5" font-family="FreeSans.ttf" font-size="10.00">ignition/math/Pose3.hh</text>
</a>
</g>
</g>
<!-- Node1&#45;&gt;Node6 -->
<g id="edge5" class="edge">
<title>Node1&#45;&gt;Node6</title>
<path fill="none" stroke="midnightblue" d="M1172.74,-115.93C1092.94,-108.11 935.65,-92.41 792.18,-76.23"/>
<polygon fill="midnightblue" stroke="midnightblue" points="792.2,-72.71 781.87,-75.06 791.41,-79.67 792.2,-72.71"/>
</g>
<!-- Node7 -->
<g id="node7" class="node">
<title>Node7</title>
<g id="a_node7"><a xlink:title=" ">
<polygon fill="none" stroke="#bfbfbf" points="799.5,-56.5 799.5,-75.5 936.5,-75.5 936.5,-56.5 799.5,-56.5"/>
<text text-anchor="middle" x="868" y="-63.5" font-family="FreeSans.ttf" font-size="10.00">ignition/math/Vector3.hh</text>
</a>
</g>
</g>
<!-- Node1&#45;&gt;Node7 -->
<g id="edge6" class="edge">
<title>Node1&#45;&gt;Node7</title>
<path fill="none" stroke="midnightblue" d="M1172.71,-113.09C1109.61,-103.55 1003.45,-87.49 934.57,-77.07"/>
<polygon fill="midnightblue" stroke="midnightblue" points="934.68,-73.55 924.26,-75.51 933.63,-80.47 934.68,-73.55"/>
</g>
<!-- Node8 -->
<g id="node8" class="node">
<title>Node8</title>
<g id="a_node8"><a xlink:title=" ">
<polygon fill="none" stroke="#bfbfbf" points="954.5,-56.5 954.5,-75.5 1091.5,-75.5 1091.5,-56.5 954.5,-56.5"/>
<text text-anchor="middle" x="1023" y="-63.5" font-family="FreeSans.ttf" font-size="10.00">ignition/math/Matrix3.hh</text>
</a>
</g>
</g>
<!-- Node1&#45;&gt;Node8 -->
<g id="edge7" class="edge">
<title>Node1&#45;&gt;Node8</title>
<path fill="none" stroke="midnightblue" d="M1192.99,-112.44C1158.27,-103.16 1102.71,-88.31 1064.62,-78.13"/>
<polygon fill="midnightblue" stroke="midnightblue" points="1065.42,-74.72 1054.86,-75.52 1063.61,-81.48 1065.42,-74.72"/>
</g>
<!-- Node9 -->
<g id="node9" class="node">
<title>Node9</title>
<g id="a_node9"><a xlink:title=" ">
<polygon fill="none" stroke="#bfbfbf" points="1109.5,-56.5 1109.5,-75.5 1206.5,-75.5 1206.5,-56.5 1109.5,-56.5"/>
<text text-anchor="middle" x="1158" y="-63.5" font-family="FreeSans.ttf" font-size="10.00">ignition/math.hh</text>
</a>
</g>
</g>
<!-- Node1&#45;&gt;Node9 -->
<g id="edge8" class="edge">
<title>Node1&#45;&gt;Node9</title>
<path fill="none" stroke="midnightblue" d="M1214.24,-112.32C1204.23,-104.26 1189.11,-92.08 1177.07,-82.37"/>
<polygon fill="midnightblue" stroke="midnightblue" points="1178.94,-79.38 1168.96,-75.83 1174.55,-84.83 1178.94,-79.38"/>
</g>
<!-- Node10 -->
<g id="node10" class="node">
<title>Node10</title>
<g id="a_node10"><a xlink:title=" ">
<polygon fill="none" stroke="#bfbfbf" points="1225,-56.5 1225,-75.5 1359,-75.5 1359,-56.5 1225,-56.5"/>
<text text-anchor="middle" x="1292" y="-63.5" font-family="FreeSans.ttf" font-size="10.00">yarp/dev/DeviceDriver.h</text>
</a>
</g>
</g>
<!-- Node1&#45;&gt;Node10 -->
<g id="edge9" class="edge">
<title>Node1&#45;&gt;Node10</title>
<path fill="none" stroke="midnightblue" d="M1235.76,-112.32C1245.77,-104.26 1260.89,-92.08 1272.93,-82.37"/>
<polygon fill="midnightblue" stroke="midnightblue" points="1275.45,-84.83 1281.04,-75.83 1271.06,-79.38 1275.45,-84.83"/>
</g>
<!-- Node11 -->
<g id="node11" class="node">
<title>Node11</title>
<g id="a_node11"><a xlink:title=" ">
<polygon fill="none" stroke="#bfbfbf" points="1377,-56.5 1377,-75.5 1517,-75.5 1517,-56.5 1377,-56.5"/>
<text text-anchor="middle" x="1447" y="-63.5" font-family="FreeSans.ttf" font-size="10.00">yarp/dev/IAnalogSensor.h</text>
</a>
</g>
</g>
<!-- Node1&#45;&gt;Node11 -->
<g id="edge10" class="edge">
<title>Node1&#45;&gt;Node11</title>
<path fill="none" stroke="midnightblue" d="M1260.18,-112.44C1298.58,-103.1 1360.18,-88.12 1402.06,-77.93"/>
<polygon fill="midnightblue" stroke="midnightblue" points="1403.1,-81.28 1411.99,-75.52 1401.44,-74.48 1403.1,-81.28"/>
</g>
<!-- Node12 -->
<g id="node12" class="node">
<title>Node12</title>
<g id="a_node12"><a xlink:title=" ">
<polygon fill="none" stroke="#bfbfbf" points="1535.5,-56.5 1535.5,-75.5 1684.5,-75.5 1684.5,-56.5 1535.5,-56.5"/>
<text text-anchor="middle" x="1610" y="-63.5" font-family="FreeSans.ttf" font-size="10.00">yarp/dev/IPreciselyTimed.h</text>
</a>
</g>
</g>
<!-- Node1&#45;&gt;Node12 -->
<g id="edge11" class="edge">
<title>Node1&#45;&gt;Node12</title>
<path fill="none" stroke="midnightblue" d="M1277.32,-113.66C1345.11,-104.15 1463.54,-87.54 1539.29,-76.92"/>
<polygon fill="midnightblue" stroke="midnightblue" points="1539.81,-80.38 1549.22,-75.52 1538.83,-73.45 1539.81,-80.38"/>
</g>
<!-- Node13 -->
<g id="node13" class="node">
<title>Node13</title>
<g id="a_node13"><a xlink:title=" ">
<polygon fill="none" stroke="#bfbfbf" points="1703,-56.5 1703,-75.5 1799,-75.5 1799,-56.5 1703,-56.5"/>
<text text-anchor="middle" x="1751" y="-63.5" font-family="FreeSans.ttf" font-size="10.00">yarp/os/Stamp.h</text>
</a>
</g>
</g>
<!-- Node1&#45;&gt;Node13 -->
<g id="edge12" class="edge">
<title>Node1&#45;&gt;Node13</title>
<path fill="none" stroke="midnightblue" d="M1277.05,-116.99C1363.57,-110.1 1542.36,-94.91 1693,-76 1693.1,-75.99 1693.2,-75.97 1693.3,-75.96"/>
<polygon fill="midnightblue" stroke="midnightblue" points="1693.47,-79.47 1702.92,-74.68 1692.55,-72.53 1693.47,-79.47"/>
</g>
<!-- Node14 -->
<g id="node14" class="node">
<title>Node14</title>
<g id="a_node14"><a xlink:title=" ">
<polygon fill="none" stroke="#bfbfbf" points="1817,-56.5 1817,-75.5 1915,-75.5 1915,-56.5 1817,-56.5"/>
<text text-anchor="middle" x="1866" y="-63.5" font-family="FreeSans.ttf" font-size="10.00">yarp/sig/Vector.h</text>
</a>
</g>
</g>
<!-- Node1&#45;&gt;Node14 -->
<g id="edge13" class="edge">
<title>Node1&#45;&gt;Node14</title>
<path fill="none" stroke="midnightblue" d="M1277.39,-118.31C1377.94,-112.85 1605.17,-99.1 1806.8,-76.05"/>
<polygon fill="midnightblue" stroke="midnightblue" points="1807.46,-79.5 1816.99,-74.88 1806.65,-72.55 1807.46,-79.5"/>
</g>
<!-- Node15 -->
<g id="node15" class="node">
<title>Node15</title>
<g id="a_node15"><a xlink:href="Handler_8hh.html" target="_top" xlink:title=" ">
<polygon fill="none" stroke="black" points="1933,-56.5 1933,-75.5 2097,-75.5 2097,-56.5 1933,-56.5"/>
<text text-anchor="middle" x="2015" y="-63.5" font-family="FreeSans.ttf" font-size="10.00">GazeboYarpPlugins/Handler.hh</text>
</a>
</g>
</g>
<!-- Node1&#45;&gt;Node15 -->
<g id="edge14" class="edge">
<title>Node1&#45;&gt;Node15</title>
<path fill="none" stroke="midnightblue" d="M1277.22,-118.25C1391.9,-112.08 1674.63,-96.15 1922.39,-76.11"/>
<polygon fill="midnightblue" stroke="midnightblue" points="1922.99,-79.57 1932.67,-75.27 1922.42,-72.59 1922.99,-79.57"/>
</g>
<!-- Node19 -->
<g id="node19" class="node">
<title>Node19</title>
<g id="a_node19"><a xlink:title=" ">
<polygon fill="none" stroke="#bfbfbf" points="2225,-0.5 2225,-19.5 2273,-19.5 2273,-0.5 2225,-0.5"/>
<text text-anchor="middle" x="2249" y="-7.5" font-family="FreeSans.ttf" font-size="10.00">mutex</text>
</a>
</g>
</g>
<!-- Node1&#45;&gt;Node19 -->
<g id="edge24" class="edge">
<title>Node1&#45;&gt;Node19</title>
<path fill="none" stroke="midnightblue" d="M1277.22,-120.89C1441.68,-120.13 1947.34,-114.63 2106,-76 2150.8,-65.09 2198.79,-40.24 2226.23,-24.62"/>
<polygon fill="midnightblue" stroke="midnightblue" points="2228.13,-27.56 2235.03,-19.52 2224.63,-21.51 2228.13,-27.56"/>
</g>
<!-- Node22 -->
<g id="node22" class="node">
<title>Node22</title>
<g id="a_node22"><a xlink:href="common_8h.html" target="_top" xlink:title=" ">
<polygon fill="none" stroke="black" points="2231,-56.5 2231,-75.5 2395,-75.5 2395,-56.5 2231,-56.5"/>
<text text-anchor="middle" x="2313" y="-63.5" font-family="FreeSans.ttf" font-size="10.00">GazeboYarpPlugins/common.h</text>
</a>
</g>
</g>
<!-- Node1&#45;&gt;Node22 -->
<g id="edge21" class="edge">
<title>Node1&#45;&gt;Node22</title>
<path fill="none" stroke="midnightblue" d="M1277.12,-119.07C1422.07,-113.59 1842.21,-96.99 2191,-76 2200.7,-75.42 2210.83,-74.75 2220.92,-74.06"/>
<polygon fill="midnightblue" stroke="midnightblue" points="2221.26,-77.54 2230.99,-73.36 2220.77,-70.56 2221.26,-77.54"/>
</g>
<!-- Node16 -->
<g id="node16" class="node">
<title>Node16</title>
<g id="a_node16"><a xlink:title=" ">
<polygon fill="none" stroke="#bfbfbf" points="1622,-0.5 1622,-19.5 1660,-19.5 1660,-0.5 1622,-0.5"/>
<text text-anchor="middle" x="1641" y="-7.5" font-family="FreeSans.ttf" font-size="10.00">map</text>
</a>
</g>
</g>
<!-- Node15&#45;&gt;Node16 -->
<g id="edge15" class="edge">
<title>Node15&#45;&gt;Node16</title>
<path fill="none" stroke="midnightblue" d="M1936.52,-56.47C1855.09,-47.34 1732.17,-32.69 1669.96,-19.8"/>
<polygon fill="midnightblue" stroke="midnightblue" points="1670.67,-16.37 1660.15,-17.66 1669.18,-23.21 1670.67,-16.37"/>
</g>
<!-- Node17 -->
<g id="node17" class="node">
<title>Node17</title>
<g id="a_node17"><a xlink:title=" ">
<polygon fill="none" stroke="#bfbfbf" points="1678.5,-0.5 1678.5,-19.5 1771.5,-19.5 1771.5,-0.5 1678.5,-0.5"/>
<text text-anchor="middle" x="1725" y="-7.5" font-family="FreeSans.ttf" font-size="10.00">sdf/sdf_config.h</text>
</a>
</g>
</g>
<!-- Node15&#45;&gt;Node17 -->
<g id="edge16" class="edge">
<title>Node15&#45;&gt;Node17</title>
<path fill="none" stroke="midnightblue" d="M1969.05,-56.44C1917.93,-46.92 1835.35,-31.55 1780.62,-21.36"/>
<polygon fill="midnightblue" stroke="midnightblue" points="1781.21,-17.91 1770.74,-19.52 1779.93,-24.79 1781.21,-17.91"/>
</g>
<!-- Node18 -->
<g id="node18" class="node">
<title>Node18</title>
<g id="a_node18"><a xlink:title=" ">
<polygon fill="none" stroke="#bfbfbf" points="1789.5,-0.5 1789.5,-19.5 1908.5,-19.5 1908.5,-0.5 1789.5,-0.5"/>
<text text-anchor="middle" x="1849" y="-7.5" font-family="FreeSans.ttf" font-size="10.00">boost/shared_ptr.hpp</text>
</a>
</g>
</g>
<!-- Node15&#45;&gt;Node18 -->
<g id="edge17" class="edge">
<title>Node15&#45;&gt;Node18</title>
<path fill="none" stroke="midnightblue" d="M1988.7,-56.44C1960.65,-47.32 1916.06,-32.81 1884.82,-22.65"/>
<polygon fill="midnightblue" stroke="midnightblue" points="1885.77,-19.28 1875.18,-19.52 1883.61,-25.94 1885.77,-19.28"/>
</g>
<!-- Node15&#45;&gt;Node19 -->
<g id="edge18" class="edge">
<title>Node15&#45;&gt;Node19</title>
<path fill="none" stroke="midnightblue" d="M2055.55,-56.49C2094.17,-48.27 2154.16,-35.15 2215.1,-20.14"/>
<polygon fill="midnightblue" stroke="midnightblue" points="2216.02,-23.52 2224.88,-17.71 2214.33,-16.72 2216.02,-23.52"/>
</g>
<!-- Node20 -->
<g id="node20" class="node">
<title>Node20</title>
<g id="a_node20"><a xlink:title=" ">
<polygon fill="none" stroke="#bfbfbf" points="1927,-0.5 1927,-19.5 2049,-19.5 2049,-0.5 1927,-0.5"/>
<text text-anchor="middle" x="1988" y="-7.5" font-family="FreeSans.ttf" font-size="10.00">yarp/dev/PolyDriver.h</text>
</a>
</g>
</g>
<!-- Node15&#45;&gt;Node20 -->
<g id="edge19" class="edge">
<title>Node15&#45;&gt;Node20</title>
<path fill="none" stroke="midnightblue" d="M2010.54,-56.08C2006.85,-48.69 2001.48,-37.95 1996.91,-28.81"/>
<polygon fill="midnightblue" stroke="midnightblue" points="1999.98,-27.13 1992.38,-19.75 1993.72,-30.26 1999.98,-27.13"/>
</g>
<!-- Node21 -->
<g id="node21" class="node">
<title>Node21</title>
<g id="a_node21"><a xlink:title=" ">
<polygon fill="none" stroke="#bfbfbf" points="2067,-0.5 2067,-19.5 2207,-19.5 2207,-0.5 2067,-0.5"/>
<text text-anchor="middle" x="2137" y="-7.5" font-family="FreeSans.ttf" font-size="10.00">yarp/dev/PolyDriverList.h</text>
</a>
</g>
</g>
<!-- Node15&#45;&gt;Node21 -->
<g id="edge20" class="edge">
<title>Node15&#45;&gt;Node21</title>
<path fill="none" stroke="midnightblue" d="M2034.33,-56.44C2054.32,-47.6 2085.74,-33.69 2108.56,-23.59"/>
<polygon fill="midnightblue" stroke="midnightblue" points="2110.03,-26.76 2117.76,-19.52 2107.2,-20.36 2110.03,-26.76"/>
</g>
<!-- Node23 -->
<g id="node23" class="node">
<title>Node23</title>
<g id="a_node23"><a xlink:title=" ">
<polygon fill="none" stroke="#bfbfbf" points="2291,-0.5 2291,-19.5 2335,-19.5 2335,-0.5 2291,-0.5"/>
<text text-anchor="middle" x="2313" y="-7.5" font-family="FreeSans.ttf" font-size="10.00">string</text>
</a>
</g>
</g>
<!-- Node22&#45;&gt;Node23 -->
<g id="edge22" class="edge">
<title>Node22&#45;&gt;Node23</title>
<path fill="none" stroke="midnightblue" d="M2313,-56.08C2313,-49.01 2313,-38.86 2313,-29.99"/>
<polygon fill="midnightblue" stroke="midnightblue" points="2316.5,-29.75 2313,-19.75 2309.5,-29.75 2316.5,-29.75"/>
</g>
<!-- Node24 -->
<g id="node24" class="node">
<title>Node24</title>
<g id="a_node24"><a xlink:title=" ">
<polygon fill="none" stroke="#bfbfbf" points="2353.5,-0.5 2353.5,-19.5 2400.5,-19.5 2400.5,-0.5 2353.5,-0.5"/>
<text text-anchor="middle" x="2377" y="-7.5" font-family="FreeSans.ttf" font-size="10.00">cmath</text>
</a>
</g>
</g>
<!-- Node22&#45;&gt;Node24 -->
<g id="edge23" class="edge">
<title>Node22&#45;&gt;Node24</title>
<path fill="none" stroke="midnightblue" d="M2323.28,-56.32C2332.84,-48.26 2347.28,-36.08 2358.78,-26.37"/>
<polygon fill="midnightblue" stroke="midnightblue" points="2361.14,-28.96 2366.53,-19.83 2356.63,-23.61 2361.14,-28.96"/>
</g>
</g>
</svg>
