<?xml version="1.0" encoding="UTF-8" standalone="no"?>
<!DOCTYPE svg PUBLIC "-//W3C//DTD SVG 1.1//EN"
 "http://www.w3.org/Graphics/SVG/1.1/DTD/svg11.dtd">
<!-- Generated by graphviz version 2.49.0 (20210829.0051)
 -->
<!-- Title: BaseState.cc Pages: 1 -->
<svg width="3021pt" height="196pt"
 viewBox="0.00 0.00 3021.00 196.00" xmlns="http://www.w3.org/2000/svg" xmlns:xlink="http://www.w3.org/1999/xlink">
<g id="graph0" class="graph" transform="scale(1 1) rotate(0) translate(4 192)">
<title>BaseState.cc</title>
<!-- Node1 -->
<g id="node1" class="node">
<title>Node1</title>
<g id="a_node1"><a xlink:title=" ">
<polygon fill="#bfbfbf" stroke="black" points="1804.5,-168.5 1804.5,-187.5 1884.5,-187.5 1884.5,-168.5 1804.5,-168.5"/>
<text text-anchor="middle" x="1844.5" y="-175.5" font-family="FreeSans.ttf" font-size="10.00">BaseState.cc</text>
</a>
</g>
</g>
<!-- Node2 -->
<g id="node2" class="node">
<title>Node2</title>
<g id="a_node2"><a xlink:href="BaseState_8hh.html" target="_top" xlink:title=" ">
<polygon fill="none" stroke="black" points="772,-112.5 772,-131.5 853,-131.5 853,-112.5 772,-112.5"/>
<text text-anchor="middle" x="812.5" y="-119.5" font-family="FreeSans.ttf" font-size="10.00">BaseState.hh</text>
</a>
</g>
</g>
<!-- Node1&#45;&gt;Node2 -->
<g id="edge1" class="edge">
<title>Node1&#45;&gt;Node2</title>
<path fill="none" stroke="midnightblue" d="M1804.36,-174.9C1643.16,-166.46 1042.95,-135.06 863.49,-125.67"/>
<polygon fill="midnightblue" stroke="midnightblue" points="863.45,-122.16 853.28,-125.13 863.08,-129.15 863.45,-122.16"/>
</g>
<!-- Node18 -->
<g id="node18" class="node">
<title>Node18</title>
<g id="a_node18"><a xlink:href="BaseStateDriver_8h.html" target="_top" xlink:title=" ">
<polygon fill="none" stroke="black" points="1681.5,-112.5 1681.5,-131.5 1785.5,-131.5 1785.5,-112.5 1681.5,-112.5"/>
<text text-anchor="middle" x="1733.5" y="-119.5" font-family="FreeSans.ttf" font-size="10.00">BaseStateDriver.h</text>
</a>
</g>
</g>
<!-- Node1&#45;&gt;Node18 -->
<g id="edge22" class="edge">
<title>Node1&#45;&gt;Node18</title>
<path fill="none" stroke="midnightblue" d="M1826.67,-168.32C1808.78,-159.62 1781.02,-146.12 1760.45,-136.11"/>
<polygon fill="midnightblue" stroke="midnightblue" points="1761.81,-132.88 1751.29,-131.65 1758.75,-139.18 1761.81,-132.88"/>
</g>
<!-- Node31 -->
<g id="node31" class="node">
<title>Node31</title>
<g id="a_node31"><a xlink:title=" ">
<polygon fill="none" stroke="#bfbfbf" points="1803.5,-112.5 1803.5,-131.5 1885.5,-131.5 1885.5,-112.5 1803.5,-112.5"/>
<text text-anchor="middle" x="1844.5" y="-119.5" font-family="FreeSans.ttf" font-size="10.00">yarp/os/Log.h</text>
</a>
</g>
</g>
<!-- Node1&#45;&gt;Node31 -->
<g id="edge39" class="edge">
<title>Node1&#45;&gt;Node31</title>
<path fill="none" stroke="midnightblue" d="M1844.5,-168.08C1844.5,-161.01 1844.5,-150.86 1844.5,-141.99"/>
<polygon fill="midnightblue" stroke="midnightblue" points="1848,-141.75 1844.5,-131.75 1841,-141.75 1848,-141.75"/>
</g>
<!-- Node32 -->
<g id="node32" class="node">
<title>Node32</title>
<g id="a_node32"><a xlink:title=" ">
<polygon fill="none" stroke="#bfbfbf" points="1904,-112.5 1904,-131.5 2021,-131.5 2021,-112.5 1904,-112.5"/>
<text text-anchor="middle" x="1962.5" y="-119.5" font-family="FreeSans.ttf" font-size="10.00">yarp/os/LogStream.h</text>
</a>
</g>
</g>
<!-- Node1&#45;&gt;Node32 -->
<g id="edge40" class="edge">
<title>Node1&#45;&gt;Node32</title>
<path fill="none" stroke="midnightblue" d="M1863.2,-168.44C1882.44,-159.64 1912.65,-145.81 1934.7,-135.72"/>
<polygon fill="midnightblue" stroke="midnightblue" points="1936.25,-138.86 1943.89,-131.52 1933.34,-132.5 1936.25,-138.86"/>
</g>
<!-- Node33 -->
<g id="node33" class="node">
<title>Node33</title>
<g id="a_node33"><a xlink:title=" ">
<polygon fill="none" stroke="#bfbfbf" points="2039.5,-112.5 2039.5,-131.5 2133.5,-131.5 2133.5,-112.5 2039.5,-112.5"/>
<text text-anchor="middle" x="2086.5" y="-119.5" font-family="FreeSans.ttf" font-size="10.00">yarp/os/Bottle.h</text>
</a>
</g>
</g>
<!-- Node1&#45;&gt;Node33 -->
<g id="edge41" class="edge">
<title>Node1&#45;&gt;Node33</title>
<path fill="none" stroke="midnightblue" d="M1882.85,-168.44C1924.97,-159.04 1992.71,-143.93 2038.37,-133.74"/>
<polygon fill="midnightblue" stroke="midnightblue" points="2039.34,-137.11 2048.33,-131.52 2037.81,-130.28 2039.34,-137.11"/>
</g>
<!-- Node3 -->
<g id="node3" class="node">
<title>Node3</title>
<g id="a_node3"><a xlink:title=" ">
<polygon fill="none" stroke="#bfbfbf" points="984.5,-0.5 984.5,-19.5 1028.5,-19.5 1028.5,-0.5 984.5,-0.5"/>
<text text-anchor="middle" x="1006.5" y="-7.5" font-family="FreeSans.ttf" font-size="10.00">string</text>
</a>
</g>
</g>
<!-- Node2&#45;&gt;Node3 -->
<g id="edge2" class="edge">
<title>Node2&#45;&gt;Node3</title>
<path fill="none" stroke="midnightblue" d="M818.02,-112.08C827.09,-98.15 846.46,-71.23 869.5,-56 878.45,-50.08 936.82,-31.92 974.43,-20.56"/>
<polygon fill="midnightblue" stroke="midnightblue" points="975.86,-23.78 984.43,-17.55 973.84,-17.08 975.86,-23.78"/>
</g>
<!-- Node4 -->
<g id="node4" class="node">
<title>Node4</title>
<g id="a_node4"><a xlink:title=" ">
<polygon fill="none" stroke="#bfbfbf" points="878.5,-56.5 878.5,-75.5 1024.5,-75.5 1024.5,-56.5 878.5,-56.5"/>
<text text-anchor="middle" x="951.5" y="-63.5" font-family="FreeSans.ttf" font-size="10.00">gazebo/common/Plugin.hh</text>
</a>
</g>
</g>
<!-- Node2&#45;&gt;Node4 -->
<g id="edge3" class="edge">
<title>Node2&#45;&gt;Node4</title>
<path fill="none" stroke="midnightblue" d="M834.52,-112.44C857.6,-103.48 894.06,-89.31 920.14,-79.18"/>
<polygon fill="midnightblue" stroke="midnightblue" points="921.52,-82.4 929.58,-75.52 918.99,-75.88 921.52,-82.4"/>
</g>
<!-- Node5 -->
<g id="node5" class="node">
<title>Node5</title>
<g id="a_node5"><a xlink:href="Handler_8hh.html" target="_top" xlink:title=" ">
<polygon fill="none" stroke="black" points="620.5,-56.5 620.5,-75.5 784.5,-75.5 784.5,-56.5 620.5,-56.5"/>
<text text-anchor="middle" x="702.5" y="-63.5" font-family="FreeSans.ttf" font-size="10.00">GazeboYarpPlugins/Handler.hh</text>
</a>
</g>
</g>
<!-- Node2&#45;&gt;Node5 -->
<g id="edge4" class="edge">
<title>Node2&#45;&gt;Node5</title>
<path fill="none" stroke="midnightblue" d="M794.83,-112.32C777.11,-103.62 749.6,-90.12 729.21,-80.11"/>
<polygon fill="midnightblue" stroke="midnightblue" points="730.65,-76.92 720.13,-75.65 727.56,-83.2 730.65,-76.92"/>
</g>
<!-- Node10 -->
<g id="node10" class="node">
<title>Node10</title>
<g id="a_node10"><a xlink:title=" ">
<polygon fill="none" stroke="#bfbfbf" points="630.5,-0.5 630.5,-19.5 752.5,-19.5 752.5,-0.5 630.5,-0.5"/>
<text text-anchor="middle" x="691.5" y="-7.5" font-family="FreeSans.ttf" font-size="10.00">yarp/dev/PolyDriver.h</text>
</a>
</g>
</g>
<!-- Node2&#45;&gt;Node10 -->
<g id="edge20" class="edge">
<title>Node2&#45;&gt;Node10</title>
<path fill="none" stroke="midnightblue" d="M771.64,-117.76C718.8,-112.62 631.17,-100.56 611.5,-76 594.16,-54.35 627.14,-35.09 655.86,-23.26"/>
<polygon fill="midnightblue" stroke="midnightblue" points="657.32,-26.45 665.36,-19.54 654.77,-19.93 657.32,-26.45"/>
</g>
<!-- Node11 -->
<g id="node11" class="node">
<title>Node11</title>
<g id="a_node11"><a xlink:title=" ">
<polygon fill="none" stroke="#bfbfbf" points="826.5,-0.5 826.5,-19.5 966.5,-19.5 966.5,-0.5 826.5,-0.5"/>
<text text-anchor="middle" x="896.5" y="-7.5" font-family="FreeSans.ttf" font-size="10.00">yarp/dev/PolyDriverList.h</text>
</a>
</g>
</g>
<!-- Node2&#45;&gt;Node11 -->
<g id="edge21" class="edge">
<title>Node2&#45;&gt;Node11</title>
<path fill="none" stroke="midnightblue" d="M814.08,-112.25C816.81,-99 823.42,-73.55 836.5,-56 845.86,-43.44 859.68,-32.74 871.7,-24.94"/>
<polygon fill="midnightblue" stroke="midnightblue" points="873.76,-27.78 880.43,-19.54 870.08,-21.82 873.76,-27.78"/>
</g>
<!-- Node12 -->
<g id="node12" class="node">
<title>Node12</title>
<g id="a_node12"><a xlink:href="common_8h.html" target="_top" xlink:title=" ">
<polygon fill="none" stroke="black" points="1042.5,-56.5 1042.5,-75.5 1206.5,-75.5 1206.5,-56.5 1042.5,-56.5"/>
<text text-anchor="middle" x="1124.5" y="-63.5" font-family="FreeSans.ttf" font-size="10.00">GazeboYarpPlugins/common.h</text>
</a>
</g>
</g>
<!-- Node2&#45;&gt;Node12 -->
<g id="edge11" class="edge">
<title>Node2&#45;&gt;Node12</title>
<path fill="none" stroke="midnightblue" d="M853.29,-113.94C907.35,-104.58 1003.11,-88.01 1065.18,-77.27"/>
<polygon fill="midnightblue" stroke="midnightblue" points="1065.96,-80.68 1075.22,-75.53 1064.77,-73.79 1065.96,-80.68"/>
</g>
<!-- Node14 -->
<g id="node14" class="node">
<title>Node14</title>
<g id="a_node14"><a xlink:href="ConfHelpers_8hh.html" target="_top" xlink:title=" ">
<polygon fill="none" stroke="black" points="363,-56.5 363,-75.5 550,-75.5 550,-56.5 363,-56.5"/>
<text text-anchor="middle" x="456.5" y="-63.5" font-family="FreeSans.ttf" font-size="10.00">GazeboYarpPlugins/ConfHelpers.hh</text>
</a>
</g>
</g>
<!-- Node2&#45;&gt;Node14 -->
<g id="edge14" class="edge">
<title>Node2&#45;&gt;Node14</title>
<path fill="none" stroke="midnightblue" d="M771.66,-114.81C710.79,-105.57 595.6,-88.1 522.62,-77.03"/>
<polygon fill="midnightblue" stroke="midnightblue" points="523.02,-73.55 512.61,-75.51 521.97,-80.47 523.02,-73.55"/>
</g>
<!-- Node17 -->
<g id="node17" class="node">
<title>Node17</title>
<g id="a_node17"><a xlink:title=" ">
<polygon fill="none" stroke="#bfbfbf" points="190,-56.5 190,-75.5 345,-75.5 345,-56.5 190,-56.5"/>
<text text-anchor="middle" x="267.5" y="-63.5" font-family="FreeSans.ttf" font-size="10.00">yarp/dev/IMultipleWrapper.h</text>
</a>
</g>
</g>
<!-- Node2&#45;&gt;Node17 -->
<g id="edge19" class="edge">
<title>Node2&#45;&gt;Node17</title>
<path fill="none" stroke="midnightblue" d="M771.97,-117.12C693.59,-109.59 515.54,-92.39 355.35,-76.18"/>
<polygon fill="midnightblue" stroke="midnightblue" points="355.62,-72.69 345.31,-75.17 354.91,-79.66 355.62,-72.69"/>
</g>
<!-- Node6 -->
<g id="node6" class="node">
<title>Node6</title>
<g id="a_node6"><a xlink:title=" ">
<polygon fill="none" stroke="#bfbfbf" points="770.5,-0.5 770.5,-19.5 808.5,-19.5 808.5,-0.5 770.5,-0.5"/>
<text text-anchor="middle" x="789.5" y="-7.5" font-family="FreeSans.ttf" font-size="10.00">map</text>
</a>
</g>
</g>
<!-- Node5&#45;&gt;Node6 -->
<g id="edge5" class="edge">
<title>Node5&#45;&gt;Node6</title>
<path fill="none" stroke="midnightblue" d="M716.48,-56.32C730.05,-47.9 750.88,-34.97 766.82,-25.07"/>
<polygon fill="midnightblue" stroke="midnightblue" points="768.91,-27.9 775.56,-19.65 765.21,-21.95 768.91,-27.9"/>
</g>
<!-- Node7 -->
<g id="node7" class="node">
<title>Node7</title>
<g id="a_node7"><a xlink:title=" ">
<polygon fill="none" stroke="#bfbfbf" points="519,-0.5 519,-19.5 612,-19.5 612,-0.5 519,-0.5"/>
<text text-anchor="middle" x="565.5" y="-7.5" font-family="FreeSans.ttf" font-size="10.00">sdf/sdf_config.h</text>
</a>
</g>
</g>
<!-- Node5&#45;&gt;Node7 -->
<g id="edge6" class="edge">
<title>Node5&#45;&gt;Node7</title>
<path fill="none" stroke="midnightblue" d="M680.79,-56.44C658.15,-47.52 622.43,-33.44 596.75,-23.32"/>
<polygon fill="midnightblue" stroke="midnightblue" points="597.69,-19.93 587.11,-19.52 595.13,-26.44 597.69,-19.93"/>
</g>
<!-- Node8 -->
<g id="node8" class="node">
<title>Node8</title>
<g id="a_node8"><a xlink:title=" ">
<polygon fill="none" stroke="#bfbfbf" points="382,-0.5 382,-19.5 501,-19.5 501,-0.5 382,-0.5"/>
<text text-anchor="middle" x="441.5" y="-7.5" font-family="FreeSans.ttf" font-size="10.00">boost/shared_ptr.hpp</text>
</a>
</g>
</g>
<!-- Node5&#45;&gt;Node8 -->
<g id="edge7" class="edge">
<title>Node5&#45;&gt;Node8</title>
<path fill="none" stroke="midnightblue" d="M661.14,-56.44C615.42,-46.98 541.74,-31.74 492.48,-21.55"/>
<polygon fill="midnightblue" stroke="midnightblue" points="493.16,-18.12 482.66,-19.52 491.75,-24.97 493.16,-18.12"/>
</g>
<!-- Node9 -->
<g id="node9" class="node">
<title>Node9</title>
<g id="a_node9"><a xlink:title=" ">
<polygon fill="none" stroke="#bfbfbf" points="1046.5,-0.5 1046.5,-19.5 1094.5,-19.5 1094.5,-0.5 1046.5,-0.5"/>
<text text-anchor="middle" x="1070.5" y="-7.5" font-family="FreeSans.ttf" font-size="10.00">mutex</text>
</a>
</g>
</g>
<!-- Node5&#45;&gt;Node9 -->
<g id="edge8" class="edge">
<title>Node5&#45;&gt;Node9</title>
<path fill="none" stroke="midnightblue" d="M784.58,-57.05C850.32,-49.97 945.01,-38.2 1036.46,-19.98"/>
<polygon fill="midnightblue" stroke="midnightblue" points="1037.33,-23.37 1046.44,-17.96 1035.94,-16.51 1037.33,-23.37"/>
</g>
<!-- Node5&#45;&gt;Node10 -->
<g id="edge9" class="edge">
<title>Node5&#45;&gt;Node10</title>
<path fill="none" stroke="midnightblue" d="M700.68,-56.08C699.23,-48.93 697.13,-38.64 695.31,-29.69"/>
<polygon fill="midnightblue" stroke="midnightblue" points="698.71,-28.85 693.28,-19.75 691.85,-30.25 698.71,-28.85"/>
</g>
<!-- Node5&#45;&gt;Node11 -->
<g id="edge10" class="edge">
<title>Node5&#45;&gt;Node11</title>
<path fill="none" stroke="midnightblue" d="M733.24,-56.44C766.44,-47.2 819.49,-32.44 856.06,-22.26"/>
<polygon fill="midnightblue" stroke="midnightblue" points="857.21,-25.57 865.9,-19.52 855.33,-18.83 857.21,-25.57"/>
</g>
<!-- Node12&#45;&gt;Node3 -->
<g id="edge12" class="edge">
<title>Node12&#45;&gt;Node3</title>
<path fill="none" stroke="midnightblue" d="M1105.8,-56.44C1086.56,-47.64 1056.35,-33.81 1034.3,-23.72"/>
<polygon fill="midnightblue" stroke="midnightblue" points="1035.66,-20.5 1025.11,-19.52 1032.75,-26.86 1035.66,-20.5"/>
</g>
<!-- Node13 -->
<g id="node13" class="node">
<title>Node13</title>
<g id="a_node13"><a xlink:title=" ">
<polygon fill="none" stroke="#bfbfbf" points="1113,-0.5 1113,-19.5 1160,-19.5 1160,-0.5 1113,-0.5"/>
<text text-anchor="middle" x="1136.5" y="-7.5" font-family="FreeSans.ttf" font-size="10.00">cmath</text>
</a>
</g>
</g>
<!-- Node12&#45;&gt;Node13 -->
<g id="edge13" class="edge">
<title>Node12&#45;&gt;Node13</title>
<path fill="none" stroke="midnightblue" d="M1126.48,-56.08C1128.07,-48.93 1130.36,-38.64 1132.35,-29.69"/>
<polygon fill="midnightblue" stroke="midnightblue" points="1135.8,-30.27 1134.56,-19.75 1128.97,-28.75 1135.8,-30.27"/>
</g>
<!-- Node14&#45;&gt;Node7 -->
<g id="edge15" class="edge">
<title>Node14&#45;&gt;Node7</title>
<path fill="none" stroke="midnightblue" d="M474.01,-56.32C491.57,-47.62 518.83,-34.12 539.03,-24.11"/>
<polygon fill="midnightblue" stroke="midnightblue" points="540.62,-27.23 548.03,-19.65 537.52,-20.96 540.62,-27.23"/>
</g>
<!-- Node14&#45;&gt;Node8 -->
<g id="edge16" class="edge">
<title>Node14&#45;&gt;Node8</title>
<path fill="none" stroke="midnightblue" d="M454.02,-56.08C452.01,-48.85 449.11,-38.41 446.61,-29.4"/>
<polygon fill="midnightblue" stroke="midnightblue" points="449.98,-28.45 443.93,-19.75 443.24,-30.32 449.98,-28.45"/>
</g>
<!-- Node15 -->
<g id="node15" class="node">
<title>Node15</title>
<g id="a_node15"><a xlink:title=" ">
<polygon fill="none" stroke="#bfbfbf" points="0,-0.5 0,-19.5 171,-19.5 171,-0.5 0,-0.5"/>
<text text-anchor="middle" x="85.5" y="-7.5" font-family="FreeSans.ttf" font-size="10.00">gazebo/sensors/SensorTypes.hh</text>
</a>
</g>
</g>
<!-- Node14&#45;&gt;Node15 -->
<g id="edge17" class="edge">
<title>Node14&#45;&gt;Node15</title>
<path fill="none" stroke="midnightblue" d="M397.71,-56.44C331.5,-46.81 224.03,-31.16 154.05,-20.98"/>
<polygon fill="midnightblue" stroke="midnightblue" points="154.41,-17.49 144.01,-19.52 153.4,-24.42 154.41,-17.49"/>
</g>
<!-- Node16 -->
<g id="node16" class="node">
<title>Node16</title>
<g id="a_node16"><a xlink:title=" ">
<polygon fill="none" stroke="#bfbfbf" points="189.5,-0.5 189.5,-19.5 363.5,-19.5 363.5,-0.5 189.5,-0.5"/>
<text text-anchor="middle" x="276.5" y="-7.5" font-family="FreeSans.ttf" font-size="10.00">gazebo/physics/PhysicsTypes.hh</text>
</a>
</g>
</g>
<!-- Node14&#45;&gt;Node16 -->
<g id="edge18" class="edge">
<title>Node14&#45;&gt;Node16</title>
<path fill="none" stroke="midnightblue" d="M427.98,-56.44C397.43,-47.28 348.79,-32.69 314.9,-22.52"/>
<polygon fill="midnightblue" stroke="midnightblue" points="315.47,-19.04 304.89,-19.52 313.46,-25.74 315.47,-19.04"/>
</g>
<!-- Node18&#45;&gt;Node4 -->
<g id="edge23" class="edge">
<title>Node18&#45;&gt;Node4</title>
<path fill="none" stroke="midnightblue" d="M1681.19,-118.45C1566.31,-112.66 1283.11,-97.45 1035.09,-76.1"/>
<polygon fill="midnightblue" stroke="midnightblue" points="1035.07,-72.59 1024.8,-75.21 1034.46,-79.56 1035.07,-72.59"/>
</g>
<!-- Node18&#45;&gt;Node5 -->
<g id="edge36" class="edge">
<title>Node18&#45;&gt;Node5</title>
<path fill="none" stroke="midnightblue" d="M1681.39,-118.32C1546.95,-111.39 1177.36,-92.31 869.5,-76 845.4,-74.72 819.34,-73.33 795.14,-72.02"/>
<polygon fill="midnightblue" stroke="midnightblue" points="795.07,-68.51 784.89,-71.47 794.69,-75.5 795.07,-68.51"/>
</g>
<!-- Node18&#45;&gt;Node9 -->
<g id="edge38" class="edge">
<title>Node18&#45;&gt;Node9</title>
<path fill="none" stroke="midnightblue" d="M1681.1,-116.28C1629.68,-110.57 1549.6,-98.74 1483.5,-76 1465.45,-69.79 1463.76,-61.55 1445.5,-56 1299.68,-11.72 1254.38,-47.58 1104.5,-20 1104.4,-19.98 1104.3,-19.96 1104.2,-19.94"/>
<polygon fill="midnightblue" stroke="midnightblue" points="1105.06,-16.55 1094.54,-17.85 1103.58,-23.39 1105.06,-16.55"/>
</g>
<!-- Node18&#45;&gt;Node12 -->
<g id="edge37" class="edge">
<title>Node18&#45;&gt;Node12</title>
<path fill="none" stroke="midnightblue" d="M1681.28,-116.67C1589.56,-109.02 1393.29,-92.45 1216.82,-76.11"/>
<polygon fill="midnightblue" stroke="midnightblue" points="1217.12,-72.63 1206.84,-75.19 1216.47,-79.6 1217.12,-72.63"/>
</g>
<!-- Node19 -->
<g id="node19" class="node">
<title>Node19</title>
<g id="a_node19"><a xlink:title=" ">
<polygon fill="none" stroke="#bfbfbf" points="1492.5,-56.5 1492.5,-75.5 1650.5,-75.5 1650.5,-56.5 1492.5,-56.5"/>
<text text-anchor="middle" x="1571.5" y="-63.5" font-family="FreeSans.ttf" font-size="10.00">gazebo/common/common.hh</text>
</a>
</g>
</g>
<!-- Node18&#45;&gt;Node19 -->
<g id="edge24" class="edge">
<title>Node18&#45;&gt;Node19</title>
<path fill="none" stroke="midnightblue" d="M1707.83,-112.44C1680.58,-103.36 1637.32,-88.94 1606.85,-78.78"/>
<polygon fill="midnightblue" stroke="midnightblue" points="1607.64,-75.36 1597.05,-75.52 1605.43,-82 1607.64,-75.36"/>
</g>
<!-- Node20 -->
<g id="node20" class="node">
<title>Node20</title>
<g id="a_node20"><a xlink:title=" ">
<polygon fill="none" stroke="#bfbfbf" points="1668.5,-56.5 1668.5,-75.5 1798.5,-75.5 1798.5,-56.5 1668.5,-56.5"/>
<text text-anchor="middle" x="1733.5" y="-63.5" font-family="FreeSans.ttf" font-size="10.00">gazebo/physics/Link.hh</text>
</a>
</g>
</g>
<!-- Node18&#45;&gt;Node20 -->
<g id="edge25" class="edge">
<title>Node18&#45;&gt;Node20</title>
<path fill="none" stroke="midnightblue" d="M1733.5,-112.08C1733.5,-105.01 1733.5,-94.86 1733.5,-85.99"/>
<polygon fill="midnightblue" stroke="midnightblue" points="1737,-85.75 1733.5,-75.75 1730,-85.75 1737,-85.75"/>
</g>
<!-- Node21 -->
<g id="node21" class="node">
<title>Node21</title>
<g id="a_node21"><a xlink:title=" ">
<polygon fill="none" stroke="#bfbfbf" points="1816.5,-56.5 1816.5,-75.5 1962.5,-75.5 1962.5,-56.5 1816.5,-56.5"/>
<text text-anchor="middle" x="1889.5" y="-63.5" font-family="FreeSans.ttf" font-size="10.00">gazebo/physics/physics.hh</text>
</a>
</g>
</g>
<!-- Node18&#45;&gt;Node21 -->
<g id="edge26" class="edge">
<title>Node18&#45;&gt;Node21</title>
<path fill="none" stroke="midnightblue" d="M1758.22,-112.44C1784.35,-103.4 1825.76,-89.06 1855.08,-78.92"/>
<polygon fill="midnightblue" stroke="midnightblue" points="1856.59,-82.1 1864.9,-75.52 1854.3,-75.48 1856.59,-82.1"/>
</g>
<!-- Node22 -->
<g id="node22" class="node">
<title>Node22</title>
<g id="a_node22"><a xlink:title=" ">
<polygon fill="none" stroke="#bfbfbf" points="1981,-56.5 1981,-75.5 2110,-75.5 2110,-56.5 1981,-56.5"/>
<text text-anchor="middle" x="2045.5" y="-63.5" font-family="FreeSans.ttf" font-size="10.00">ignition/math/Pose3.hh</text>
</a>
</g>
</g>
<!-- Node18&#45;&gt;Node22 -->
<g id="edge27" class="edge">
<title>Node18&#45;&gt;Node22</title>
<path fill="none" stroke="midnightblue" d="M1782.94,-112.44C1838.16,-102.89 1927.52,-87.42 1986.39,-77.23"/>
<polygon fill="midnightblue" stroke="midnightblue" points="1987.04,-80.67 1996.29,-75.52 1985.84,-73.77 1987.04,-80.67"/>
</g>
<!-- Node23 -->
<g id="node23" class="node">
<title>Node23</title>
<g id="a_node23"><a xlink:title=" ">
<polygon fill="none" stroke="#bfbfbf" points="2128,-56.5 2128,-75.5 2265,-75.5 2265,-56.5 2128,-56.5"/>
<text text-anchor="middle" x="2196.5" y="-63.5" font-family="FreeSans.ttf" font-size="10.00">ignition/math/Vector3.hh</text>
</a>
</g>
</g>
<!-- Node18&#45;&gt;Node23 -->
<g id="edge28" class="edge">
<title>Node18&#45;&gt;Node23</title>
<path fill="none" stroke="midnightblue" d="M1785.73,-113.17C1788.69,-112.76 1791.63,-112.37 1794.5,-112 1935.39,-93.81 1973.41,-92.49 2117.55,-76.21"/>
<polygon fill="midnightblue" stroke="midnightblue" points="2118.11,-79.67 2127.66,-75.07 2117.32,-72.72 2118.11,-79.67"/>
</g>
<!-- Node24 -->
<g id="node24" class="node">
<title>Node24</title>
<g id="a_node24"><a xlink:title=" ">
<polygon fill="none" stroke="#bfbfbf" points="2283,-56.5 2283,-75.5 2420,-75.5 2420,-56.5 2283,-56.5"/>
<text text-anchor="middle" x="2351.5" y="-63.5" font-family="FreeSans.ttf" font-size="10.00">ignition/math/Matrix3.hh</text>
</a>
</g>
</g>
<!-- Node18&#45;&gt;Node24 -->
<g id="edge29" class="edge">
<title>Node18&#45;&gt;Node24</title>
<path fill="none" stroke="midnightblue" d="M1785.71,-113.05C1788.68,-112.67 1791.63,-112.32 1794.5,-112 2003.8,-88.74 2059.81,-96.18 2272.42,-76.16"/>
<polygon fill="midnightblue" stroke="midnightblue" points="2273.04,-79.62 2282.67,-75.19 2272.38,-72.65 2273.04,-79.62"/>
</g>
<!-- Node25 -->
<g id="node25" class="node">
<title>Node25</title>
<g id="a_node25"><a xlink:title=" ">
<polygon fill="none" stroke="#bfbfbf" points="2438,-56.5 2438,-75.5 2535,-75.5 2535,-56.5 2438,-56.5"/>
<text text-anchor="middle" x="2486.5" y="-63.5" font-family="FreeSans.ttf" font-size="10.00">ignition/math.hh</text>
</a>
</g>
</g>
<!-- Node18&#45;&gt;Node25 -->
<g id="edge30" class="edge">
<title>Node18&#45;&gt;Node25</title>
<path fill="none" stroke="midnightblue" d="M1785.7,-112.98C1788.68,-112.62 1791.62,-112.29 1794.5,-112 2072.42,-83.68 2146.7,-105.56 2427.64,-76.1"/>
<polygon fill="midnightblue" stroke="midnightblue" points="2428.15,-79.57 2437.72,-75.03 2427.41,-72.6 2428.15,-79.57"/>
</g>
<!-- Node26 -->
<g id="node26" class="node">
<title>Node26</title>
<g id="a_node26"><a xlink:title=" ">
<polygon fill="none" stroke="#bfbfbf" points="2553.5,-56.5 2553.5,-75.5 2687.5,-75.5 2687.5,-56.5 2553.5,-56.5"/>
<text text-anchor="middle" x="2620.5" y="-63.5" font-family="FreeSans.ttf" font-size="10.00">yarp/dev/DeviceDriver.h</text>
</a>
</g>
</g>
<!-- Node18&#45;&gt;Node26 -->
<g id="edge31" class="edge">
<title>Node18&#45;&gt;Node26</title>
<path fill="none" stroke="midnightblue" d="M1785.7,-112.95C1788.67,-112.6 1791.62,-112.28 1794.5,-112 2123.24,-79.94 2210.15,-103.15 2542.97,-76.06"/>
<polygon fill="midnightblue" stroke="midnightblue" points="2543.71,-79.51 2553.39,-75.21 2543.14,-72.54 2543.71,-79.51"/>
</g>
<!-- Node27 -->
<g id="node27" class="node">
<title>Node27</title>
<g id="a_node27"><a xlink:title=" ">
<polygon fill="none" stroke="#bfbfbf" points="2705.5,-56.5 2705.5,-75.5 2845.5,-75.5 2845.5,-56.5 2705.5,-56.5"/>
<text text-anchor="middle" x="2775.5" y="-63.5" font-family="FreeSans.ttf" font-size="10.00">yarp/dev/IAnalogSensor.h</text>
</a>
</g>
</g>
<!-- Node18&#45;&gt;Node27 -->
<g id="edge32" class="edge">
<title>Node18&#45;&gt;Node27</title>
<path fill="none" stroke="midnightblue" d="M1785.7,-112.92C1788.67,-112.58 1791.62,-112.27 1794.5,-112 2190.65,-74.98 2294.75,-106.2 2695.2,-76.04"/>
<polygon fill="midnightblue" stroke="midnightblue" points="2695.61,-79.52 2705.31,-75.27 2695.08,-72.54 2695.61,-79.52"/>
</g>
<!-- Node28 -->
<g id="node28" class="node">
<title>Node28</title>
<g id="a_node28"><a xlink:title=" ">
<polygon fill="none" stroke="#bfbfbf" points="2864,-56.5 2864,-75.5 3013,-75.5 3013,-56.5 2864,-56.5"/>
<text text-anchor="middle" x="2938.5" y="-63.5" font-family="FreeSans.ttf" font-size="10.00">yarp/dev/IPreciselyTimed.h</text>
</a>
</g>
</g>
<!-- Node18&#45;&gt;Node28 -->
<g id="edge33" class="edge">
<title>Node18&#45;&gt;Node28</title>
<path fill="none" stroke="midnightblue" d="M1785.7,-112.9C1788.67,-112.57 1791.62,-112.26 1794.5,-112 2260.64,-69.83 2382.56,-108.57 2853.74,-75.99"/>
<polygon fill="midnightblue" stroke="midnightblue" points="2854.14,-79.47 2863.87,-75.28 2853.65,-72.49 2854.14,-79.47"/>
</g>
<!-- Node29 -->
<g id="node29" class="node">
<title>Node29</title>
<g id="a_node29"><a xlink:title=" ">
<polygon fill="none" stroke="#bfbfbf" points="1224.5,-56.5 1224.5,-75.5 1320.5,-75.5 1320.5,-56.5 1224.5,-56.5"/>
<text text-anchor="middle" x="1272.5" y="-63.5" font-family="FreeSans.ttf" font-size="10.00">yarp/os/Stamp.h</text>
</a>
</g>
</g>
<!-- Node18&#45;&gt;Node29 -->
<g id="edge34" class="edge">
<title>Node18&#45;&gt;Node29</title>
<path fill="none" stroke="midnightblue" d="M1681.43,-115.97C1606.35,-108.54 1463.08,-93.74 1330.98,-76.15"/>
<polygon fill="midnightblue" stroke="midnightblue" points="1331.06,-72.63 1320.68,-74.77 1330.13,-79.56 1331.06,-72.63"/>
</g>
<!-- Node30 -->
<g id="node30" class="node">
<title>Node30</title>
<g id="a_node30"><a xlink:title=" ">
<polygon fill="none" stroke="#bfbfbf" points="1338.5,-56.5 1338.5,-75.5 1436.5,-75.5 1436.5,-56.5 1338.5,-56.5"/>
<text text-anchor="middle" x="1387.5" y="-63.5" font-family="FreeSans.ttf" font-size="10.00">yarp/sig/Vector.h</text>
</a>
</g>
</g>
<!-- Node18&#45;&gt;Node30 -->
<g id="edge35" class="edge">
<title>Node18&#45;&gt;Node30</title>
<path fill="none" stroke="midnightblue" d="M1681.33,-112.86C1618.43,-103.04 1512.97,-86.58 1446.97,-76.28"/>
<polygon fill="midnightblue" stroke="midnightblue" points="1447.15,-72.77 1436.73,-74.68 1446.07,-79.68 1447.15,-72.77"/>
</g>
</g>
</svg>
