<?xml version="1.0" encoding="UTF-8" standalone="no"?>
<!DOCTYPE svg PUBLIC "-//W3C//DTD SVG 1.1//EN"
 "http://www.w3.org/Graphics/SVG/1.1/DTD/svg11.dtd">
<!-- Generated by graphviz version 3.0.0 (20220315.2325)
 -->
<!-- Title: BaseStateDriver.cpp Pages: 1 -->
<svg width="2454pt" height="196pt"
 viewBox="0.00 0.00 2453.50 196.00" xmlns="http://www.w3.org/2000/svg" xmlns:xlink="http://www.w3.org/1999/xlink">
<g id="graph0" class="graph" transform="scale(1 1) rotate(0) translate(4 192)">
<title>BaseStateDriver.cpp</title>
<!-- Node1 -->
<g id="node1" class="node">
<title>Node1</title>
<g id="a_node1"><a xlink:title=" ">
<polygon fill="#bfbfbf" stroke="black" points="1278,-168.5 1278,-187.5 1394,-187.5 1394,-168.5 1278,-168.5"/>
<text text-anchor="middle" x="1336" y="-175.5" font-family="FreeSans.ttf" font-size="10.00">BaseStateDriver.cpp</text>
</a>
</g>
</g>
<!-- Node2 -->
<g id="node2" class="node">
<title>Node2</title>
<g id="a_node2"><a xlink:href="BaseStateDriver_8h.html" target="_top" xlink:title=" ">
<polygon fill="none" stroke="black" points="1173,-112.5 1173,-131.5 1277,-131.5 1277,-112.5 1173,-112.5"/>
<text text-anchor="middle" x="1225" y="-119.5" font-family="FreeSans.ttf" font-size="10.00">BaseStateDriver.h</text>
</a>
</g>
</g>
<!-- Node1&#45;&gt;Node2 -->
<g id="edge1" class="edge">
<title>Node1&#45;&gt;Node2</title>
<path fill="none" stroke="midnightblue" d="M1318.17,-168.32C1300.28,-159.62 1272.52,-146.12 1251.95,-136.11"/>
<polygon fill="midnightblue" stroke="midnightblue" points="1253.31,-132.88 1242.79,-131.65 1250.25,-139.18 1253.31,-132.88"/>
</g>
<!-- Node27 -->
<g id="node27" class="node">
<title>Node27</title>
<g id="a_node27"><a xlink:title=" ">
<polygon fill="none" stroke="#bfbfbf" points="1295,-112.5 1295,-131.5 1377,-131.5 1377,-112.5 1295,-112.5"/>
<text text-anchor="middle" x="1336" y="-119.5" font-family="FreeSans.ttf" font-size="10.00">yarp/os/Log.h</text>
</a>
</g>
</g>
<!-- Node1&#45;&gt;Node27 -->
<g id="edge27" class="edge">
<title>Node1&#45;&gt;Node27</title>
<path fill="none" stroke="midnightblue" d="M1336,-168.08C1336,-161.01 1336,-150.86 1336,-141.99"/>
<polygon fill="midnightblue" stroke="midnightblue" points="1339.5,-141.75 1336,-131.75 1332.5,-141.75 1339.5,-141.75"/>
</g>
<!-- Node28 -->
<g id="node28" class="node">
<title>Node28</title>
<g id="a_node28"><a xlink:title=" ">
<polygon fill="none" stroke="#bfbfbf" points="1395.5,-112.5 1395.5,-131.5 1512.5,-131.5 1512.5,-112.5 1395.5,-112.5"/>
<text text-anchor="middle" x="1454" y="-119.5" font-family="FreeSans.ttf" font-size="10.00">yarp/os/LogStream.h</text>
</a>
</g>
</g>
<!-- Node1&#45;&gt;Node28 -->
<g id="edge28" class="edge">
<title>Node1&#45;&gt;Node28</title>
<path fill="none" stroke="midnightblue" d="M1354.7,-168.44C1373.94,-159.64 1404.15,-145.81 1426.2,-135.72"/>
<polygon fill="midnightblue" stroke="midnightblue" points="1427.75,-138.86 1435.39,-131.52 1424.84,-132.5 1427.75,-138.86"/>
</g>
<!-- Node3 -->
<g id="node3" class="node">
<title>Node3</title>
<g id="a_node3"><a xlink:title=" ">
<polygon fill="none" stroke="#bfbfbf" points="0,-56.5 0,-75.5 146,-75.5 146,-56.5 0,-56.5"/>
<text text-anchor="middle" x="73" y="-63.5" font-family="FreeSans.ttf" font-size="10.00">gazebo/common/Plugin.hh</text>
</a>
</g>
</g>
<!-- Node2&#45;&gt;Node3 -->
<g id="edge2" class="edge">
<title>Node2&#45;&gt;Node3</title>
<path fill="none" stroke="midnightblue" d="M1172.87,-120.05C1019.06,-116.98 553.54,-105.8 156.54,-76.06"/>
<polygon fill="midnightblue" stroke="midnightblue" points="156.53,-72.55 146.29,-75.29 156,-79.53 156.53,-72.55"/>
</g>
<!-- Node4 -->
<g id="node4" class="node">
<title>Node4</title>
<g id="a_node4"><a xlink:title=" ">
<polygon fill="none" stroke="#bfbfbf" points="164,-56.5 164,-75.5 322,-75.5 322,-56.5 164,-56.5"/>
<text text-anchor="middle" x="243" y="-63.5" font-family="FreeSans.ttf" font-size="10.00">gazebo/common/common.hh</text>
</a>
</g>
</g>
<!-- Node2&#45;&gt;Node4 -->
<g id="edge3" class="edge">
<title>Node2&#45;&gt;Node4</title>
<path fill="none" stroke="midnightblue" d="M1172.54,-119.31C1035.99,-114.69 658.06,-100.63 332.25,-76.06"/>
<polygon fill="midnightblue" stroke="midnightblue" points="332.37,-72.56 322.14,-75.29 331.84,-79.54 332.37,-72.56"/>
</g>
<!-- Node5 -->
<g id="node5" class="node">
<title>Node5</title>
<g id="a_node5"><a xlink:title=" ">
<polygon fill="none" stroke="#bfbfbf" points="340,-56.5 340,-75.5 470,-75.5 470,-56.5 340,-56.5"/>
<text text-anchor="middle" x="405" y="-63.5" font-family="FreeSans.ttf" font-size="10.00">gazebo/physics/Link.hh</text>
</a>
</g>
</g>
<!-- Node2&#45;&gt;Node5 -->
<g id="edge4" class="edge">
<title>Node2&#45;&gt;Node5</title>
<path fill="none" stroke="midnightblue" d="M1172.91,-118.95C1052.81,-113.98 746.95,-100 480.6,-76.09"/>
<polygon fill="midnightblue" stroke="midnightblue" points="480.62,-72.58 470.35,-75.17 479.99,-79.55 480.62,-72.58"/>
</g>
<!-- Node6 -->
<g id="node6" class="node">
<title>Node6</title>
<g id="a_node6"><a xlink:title=" ">
<polygon fill="none" stroke="#bfbfbf" points="488,-56.5 488,-75.5 634,-75.5 634,-56.5 488,-56.5"/>
<text text-anchor="middle" x="561" y="-63.5" font-family="FreeSans.ttf" font-size="10.00">gazebo/physics/physics.hh</text>
</a>
</g>
</g>
<!-- Node2&#45;&gt;Node6 -->
<g id="edge5" class="edge">
<title>Node2&#45;&gt;Node6</title>
<path fill="none" stroke="midnightblue" d="M1172.78,-117.53C1072.54,-110.74 845.93,-94.8 644.49,-76.11"/>
<polygon fill="midnightblue" stroke="midnightblue" points="644.59,-72.61 634.31,-75.16 643.94,-79.58 644.59,-72.61"/>
</g>
<!-- Node7 -->
<g id="node7" class="node">
<title>Node7</title>
<g id="a_node7"><a xlink:title=" ">
<polygon fill="none" stroke="#bfbfbf" points="652.5,-56.5 652.5,-75.5 781.5,-75.5 781.5,-56.5 652.5,-56.5"/>
<text text-anchor="middle" x="717" y="-63.5" font-family="FreeSans.ttf" font-size="10.00">ignition/math/Pose3.hh</text>
</a>
</g>
</g>
<!-- Node2&#45;&gt;Node7 -->
<g id="edge6" class="edge">
<title>Node2&#45;&gt;Node7</title>
<path fill="none" stroke="midnightblue" d="M1172.74,-115.93C1092.94,-108.11 935.65,-92.41 792.18,-76.23"/>
<polygon fill="midnightblue" stroke="midnightblue" points="792.2,-72.71 781.87,-75.06 791.41,-79.67 792.2,-72.71"/>
</g>
<!-- Node8 -->
<g id="node8" class="node">
<title>Node8</title>
<g id="a_node8"><a xlink:title=" ">
<polygon fill="none" stroke="#bfbfbf" points="799.5,-56.5 799.5,-75.5 936.5,-75.5 936.5,-56.5 799.5,-56.5"/>
<text text-anchor="middle" x="868" y="-63.5" font-family="FreeSans.ttf" font-size="10.00">ignition/math/Vector3.hh</text>
</a>
</g>
</g>
<!-- Node2&#45;&gt;Node8 -->
<g id="edge7" class="edge">
<title>Node2&#45;&gt;Node8</title>
<path fill="none" stroke="midnightblue" d="M1172.71,-113.09C1109.61,-103.55 1003.45,-87.49 934.57,-77.07"/>
<polygon fill="midnightblue" stroke="midnightblue" points="934.68,-73.55 924.26,-75.51 933.63,-80.47 934.68,-73.55"/>
</g>
<!-- Node9 -->
<g id="node9" class="node">
<title>Node9</title>
<g id="a_node9"><a xlink:title=" ">
<polygon fill="none" stroke="#bfbfbf" points="954.5,-56.5 954.5,-75.5 1091.5,-75.5 1091.5,-56.5 954.5,-56.5"/>
<text text-anchor="middle" x="1023" y="-63.5" font-family="FreeSans.ttf" font-size="10.00">ignition/math/Matrix3.hh</text>
</a>
</g>
</g>
<!-- Node2&#45;&gt;Node9 -->
<g id="edge8" class="edge">
<title>Node2&#45;&gt;Node9</title>
<path fill="none" stroke="midnightblue" d="M1192.99,-112.44C1158.27,-103.16 1102.71,-88.31 1064.62,-78.13"/>
<polygon fill="midnightblue" stroke="midnightblue" points="1065.42,-74.72 1054.86,-75.52 1063.61,-81.48 1065.42,-74.72"/>
</g>
<!-- Node10 -->
<g id="node10" class="node">
<title>Node10</title>
<g id="a_node10"><a xlink:title=" ">
<polygon fill="none" stroke="#bfbfbf" points="1109.5,-56.5 1109.5,-75.5 1206.5,-75.5 1206.5,-56.5 1109.5,-56.5"/>
<text text-anchor="middle" x="1158" y="-63.5" font-family="FreeSans.ttf" font-size="10.00">ignition/math.hh</text>
</a>
</g>
</g>
<!-- Node2&#45;&gt;Node10 -->
<g id="edge9" class="edge">
<title>Node2&#45;&gt;Node10</title>
<path fill="none" stroke="midnightblue" d="M1214.24,-112.32C1204.23,-104.26 1189.11,-92.08 1177.07,-82.37"/>
<polygon fill="midnightblue" stroke="midnightblue" points="1178.94,-79.38 1168.96,-75.83 1174.55,-84.83 1178.94,-79.38"/>
</g>
<!-- Node11 -->
<g id="node11" class="node">
<title>Node11</title>
<g id="a_node11"><a xlink:title=" ">
<polygon fill="none" stroke="#bfbfbf" points="1225,-56.5 1225,-75.5 1359,-75.5 1359,-56.5 1225,-56.5"/>
<text text-anchor="middle" x="1292" y="-63.5" font-family="FreeSans.ttf" font-size="10.00">yarp/dev/DeviceDriver.h</text>
</a>
</g>
</g>
<!-- Node2&#45;&gt;Node11 -->
<g id="edge10" class="edge">
<title>Node2&#45;&gt;Node11</title>
<path fill="none" stroke="midnightblue" d="M1235.76,-112.32C1245.77,-104.26 1260.89,-92.08 1272.93,-82.37"/>
<polygon fill="midnightblue" stroke="midnightblue" points="1275.45,-84.83 1281.04,-75.83 1271.06,-79.38 1275.45,-84.83"/>
</g>
<!-- Node12 -->
<g id="node12" class="node">
<title>Node12</title>
<g id="a_node12"><a xlink:title=" ">
<polygon fill="none" stroke="#bfbfbf" points="1377,-56.5 1377,-75.5 1517,-75.5 1517,-56.5 1377,-56.5"/>
<text text-anchor="middle" x="1447" y="-63.5" font-family="FreeSans.ttf" font-size="10.00">yarp/dev/IAnalogSensor.h</text>
</a>
</g>
</g>
<!-- Node2&#45;&gt;Node12 -->
<g id="edge11" class="edge">
<title>Node2&#45;&gt;Node12</title>
<path fill="none" stroke="midnightblue" d="M1260.18,-112.44C1298.58,-103.1 1360.18,-88.12 1402.06,-77.93"/>
<polygon fill="midnightblue" stroke="midnightblue" points="1403.1,-81.28 1411.99,-75.52 1401.44,-74.48 1403.1,-81.28"/>
</g>
<!-- Node13 -->
<g id="node13" class="node">
<title>Node13</title>
<g id="a_node13"><a xlink:title=" ">
<polygon fill="none" stroke="#bfbfbf" points="1535.5,-56.5 1535.5,-75.5 1684.5,-75.5 1684.5,-56.5 1535.5,-56.5"/>
<text text-anchor="middle" x="1610" y="-63.5" font-family="FreeSans.ttf" font-size="10.00">yarp/dev/IPreciselyTimed.h</text>
</a>
</g>
</g>
<!-- Node2&#45;&gt;Node13 -->
<g id="edge12" class="edge">
<title>Node2&#45;&gt;Node13</title>
<path fill="none" stroke="midnightblue" d="M1277.24,-113.26C1280.2,-112.83 1283.14,-112.41 1286,-112 1372.31,-99.64 1471.64,-85.92 1537.32,-76.92"/>
<polygon fill="midnightblue" stroke="midnightblue" points="1538.13,-80.34 1547.56,-75.51 1537.18,-73.4 1538.13,-80.34"/>
</g>
<!-- Node14 -->
<g id="node14" class="node">
<title>Node14</title>
<g id="a_node14"><a xlink:title=" ">
<polygon fill="none" stroke="#bfbfbf" points="1703,-56.5 1703,-75.5 1799,-75.5 1799,-56.5 1703,-56.5"/>
<text text-anchor="middle" x="1751" y="-63.5" font-family="FreeSans.ttf" font-size="10.00">yarp/os/Stamp.h</text>
</a>
</g>
</g>
<!-- Node2&#45;&gt;Node14 -->
<g id="edge13" class="edge">
<title>Node2&#45;&gt;Node14</title>
<path fill="none" stroke="midnightblue" d="M1277.22,-113.09C1280.19,-112.71 1283.13,-112.34 1286,-112 1466.35,-90.74 1512.73,-97.93 1693,-76 1693.1,-75.99 1693.2,-75.98 1693.3,-75.96"/>
<polygon fill="midnightblue" stroke="midnightblue" points="1693.46,-79.47 1702.93,-74.71 1692.56,-72.53 1693.46,-79.47"/>
</g>
<!-- Node15 -->
<g id="node15" class="node">
<title>Node15</title>
<g id="a_node15"><a xlink:title=" ">
<polygon fill="none" stroke="#bfbfbf" points="1817,-56.5 1817,-75.5 1915,-75.5 1915,-56.5 1817,-56.5"/>
<text text-anchor="middle" x="1866" y="-63.5" font-family="FreeSans.ttf" font-size="10.00">yarp/sig/Vector.h</text>
</a>
</g>
</g>
<!-- Node2&#45;&gt;Node15 -->
<g id="edge14" class="edge">
<title>Node2&#45;&gt;Node15</title>
<path fill="none" stroke="midnightblue" d="M1277.21,-113.02C1280.18,-112.66 1283.13,-112.31 1286,-112 1513.93,-87.36 1575.17,-101.44 1806.9,-76.02"/>
<polygon fill="midnightblue" stroke="midnightblue" points="1807.44,-79.49 1816.99,-74.9 1806.67,-72.53 1807.44,-79.49"/>
</g>
<!-- Node16 -->
<g id="node16" class="node">
<title>Node16</title>
<g id="a_node16"><a xlink:href="Handler_8hh.html" target="_top" xlink:title=" ">
<polygon fill="none" stroke="black" points="1933,-56.5 1933,-75.5 2097,-75.5 2097,-56.5 1933,-56.5"/>
<text text-anchor="middle" x="2015" y="-63.5" font-family="FreeSans.ttf" font-size="10.00">GazeboYarpPlugins/Handler.hh</text>
</a>
</g>
</g>
<!-- Node2&#45;&gt;Node16 -->
<g id="edge15" class="edge">
<title>Node2&#45;&gt;Node16</title>
<path fill="none" stroke="midnightblue" d="M1277.2,-112.98C1280.18,-112.62 1283.12,-112.29 1286,-112 1565.24,-83.58 1639.12,-97.64 1922.5,-76.08"/>
<polygon fill="midnightblue" stroke="midnightblue" points="1922.97,-79.56 1932.67,-75.3 1922.43,-72.58 1922.97,-79.56"/>
</g>
<!-- Node20 -->
<g id="node20" class="node">
<title>Node20</title>
<g id="a_node20"><a xlink:title=" ">
<polygon fill="none" stroke="#bfbfbf" points="2270,-0.5 2270,-19.5 2318,-19.5 2318,-0.5 2270,-0.5"/>
<text text-anchor="middle" x="2294" y="-7.5" font-family="FreeSans.ttf" font-size="10.00">mutex</text>
</a>
</g>
</g>
<!-- Node2&#45;&gt;Node20 -->
<g id="edge26" class="edge">
<title>Node2&#45;&gt;Node20</title>
<path fill="none" stroke="midnightblue" d="M1277.2,-112.94C1280.17,-112.59 1283.12,-112.27 1286,-112 1649.14,-77.33 1747.66,-144.31 2106,-76 2164.61,-64.83 2229.73,-39.13 2265.88,-23.6"/>
<polygon fill="midnightblue" stroke="midnightblue" points="2267.51,-26.71 2275.28,-19.51 2264.72,-20.29 2267.51,-26.71"/>
</g>
<!-- Node24 -->
<g id="node24" class="node">
<title>Node24</title>
<g id="a_node24"><a xlink:href="common_8h.html" target="_top" xlink:title=" ">
<polygon fill="none" stroke="black" points="2276,-56.5 2276,-75.5 2440,-75.5 2440,-56.5 2276,-56.5"/>
<text text-anchor="middle" x="2358" y="-63.5" font-family="FreeSans.ttf" font-size="10.00">GazeboYarpPlugins/common.h</text>
</a>
</g>
</g>
<!-- Node2&#45;&gt;Node24 -->
<g id="edge23" class="edge">
<title>Node2&#45;&gt;Node24</title>
<path fill="none" stroke="midnightblue" d="M1277.2,-112.92C1280.17,-112.58 1283.12,-112.27 1286,-112 1691.23,-74.24 1794.49,-95.65 2201,-76 2221.95,-74.99 2244.47,-73.77 2265.73,-72.57"/>
<polygon fill="midnightblue" stroke="midnightblue" points="2265.93,-76.06 2275.72,-72 2265.53,-69.07 2265.93,-76.06"/>
</g>
<!-- Node17 -->
<g id="node17" class="node">
<title>Node17</title>
<g id="a_node17"><a xlink:title=" ">
<polygon fill="none" stroke="#bfbfbf" points="1500,-0.5 1500,-19.5 1538,-19.5 1538,-0.5 1500,-0.5"/>
<text text-anchor="middle" x="1519" y="-7.5" font-family="FreeSans.ttf" font-size="10.00">map</text>
</a>
</g>
</g>
<!-- Node16&#45;&gt;Node17 -->
<g id="edge16" class="edge">
<title>Node16&#45;&gt;Node17</title>
<path fill="none" stroke="midnightblue" d="M1932.66,-56.84C1929.74,-56.56 1926.84,-56.28 1924,-56 1759.74,-40.04 1713.65,-53.41 1548.17,-19.82"/>
<polygon fill="midnightblue" stroke="midnightblue" points="1548.63,-16.34 1538.13,-17.75 1547.22,-23.19 1548.63,-16.34"/>
</g>
<!-- Node18 -->
<g id="node18" class="node">
<title>Node18</title>
<g id="a_node18"><a xlink:title=" ">
<polygon fill="none" stroke="#bfbfbf" points="1556.5,-0.5 1556.5,-19.5 1649.5,-19.5 1649.5,-0.5 1556.5,-0.5"/>
<text text-anchor="middle" x="1603" y="-7.5" font-family="FreeSans.ttf" font-size="10.00">sdf/sdf_config.h</text>
</a>
</g>
</g>
<!-- Node16&#45;&gt;Node18 -->
<g id="edge17" class="edge">
<title>Node16&#45;&gt;Node18</title>
<path fill="none" stroke="midnightblue" d="M1941.05,-56.48C1871.04,-48.24 1762.71,-35 1659.74,-20.21"/>
<polygon fill="midnightblue" stroke="midnightblue" points="1660.19,-16.74 1649.79,-18.78 1659.19,-23.67 1660.19,-16.74"/>
</g>
<!-- Node19 -->
<g id="node19" class="node">
<title>Node19</title>
<g id="a_node19"><a xlink:title=" ">
<polygon fill="none" stroke="#bfbfbf" points="1667.5,-0.5 1667.5,-19.5 1786.5,-19.5 1786.5,-0.5 1667.5,-0.5"/>
<text text-anchor="middle" x="1727" y="-7.5" font-family="FreeSans.ttf" font-size="10.00">boost/shared_ptr.hpp</text>
</a>
</g>
</g>
<!-- Node16&#45;&gt;Node19 -->
<g id="edge18" class="edge">
<title>Node16&#45;&gt;Node19</title>
<path fill="none" stroke="midnightblue" d="M1969.37,-56.44C1918.7,-46.94 1836.93,-31.61 1782.57,-21.42"/>
<polygon fill="midnightblue" stroke="midnightblue" points="1782.89,-17.92 1772.42,-19.52 1781.6,-24.8 1782.89,-17.92"/>
</g>
<!-- Node16&#45;&gt;Node20 -->
<g id="edge19" class="edge">
<title>Node16&#45;&gt;Node20</title>
<path fill="none" stroke="midnightblue" d="M2069.02,-56.48C2116.79,-48.64 2188.57,-36.11 2259.86,-20.11"/>
<polygon fill="midnightblue" stroke="midnightblue" points="2260.93,-23.45 2269.91,-17.83 2259.38,-16.63 2260.93,-23.45"/>
</g>
<!-- Node21 -->
<g id="node21" class="node">
<title>Node21</title>
<g id="a_node21"><a xlink:title=" ">
<polygon fill="none" stroke="#bfbfbf" points="1805,-0.5 1805,-19.5 1927,-19.5 1927,-0.5 1805,-0.5"/>
<text text-anchor="middle" x="1866" y="-7.5" font-family="FreeSans.ttf" font-size="10.00">yarp/dev/PolyDriver.h</text>
</a>
</g>
</g>
<!-- Node16&#45;&gt;Node21 -->
<g id="edge20" class="edge">
<title>Node16&#45;&gt;Node21</title>
<path fill="none" stroke="midnightblue" d="M1991.39,-56.44C1966.54,-47.44 1927.23,-33.19 1899.25,-23.05"/>
<polygon fill="midnightblue" stroke="midnightblue" points="1900.09,-19.63 1889.5,-19.52 1897.71,-26.21 1900.09,-19.63"/>
</g>
<!-- Node22 -->
<g id="node22" class="node">
<title>Node22</title>
<g id="a_node22"><a xlink:title=" ">
<polygon fill="none" stroke="#bfbfbf" points="1945,-0.5 1945,-19.5 2085,-19.5 2085,-0.5 1945,-0.5"/>
<text text-anchor="middle" x="2015" y="-7.5" font-family="FreeSans.ttf" font-size="10.00">yarp/dev/PolyDriverList.h</text>
</a>
</g>
</g>
<!-- Node16&#45;&gt;Node22 -->
<g id="edge21" class="edge">
<title>Node16&#45;&gt;Node22</title>
<path fill="none" stroke="midnightblue" d="M2015,-56.08C2015,-49.01 2015,-38.86 2015,-29.99"/>
<polygon fill="midnightblue" stroke="midnightblue" points="2018.5,-29.75 2015,-19.75 2011.5,-29.75 2018.5,-29.75"/>
</g>
<!-- Node23 -->
<g id="node23" class="node">
<title>Node23</title>
<g id="a_node23"><a xlink:title=" ">
<polygon fill="none" stroke="#bfbfbf" points="2103.5,-0.5 2103.5,-19.5 2252.5,-19.5 2252.5,-0.5 2103.5,-0.5"/>
<text text-anchor="middle" x="2178" y="-7.5" font-family="FreeSans.ttf" font-size="10.00">gazebo/common/Events.hh</text>
</a>
</g>
</g>
<!-- Node16&#45;&gt;Node23 -->
<g id="edge22" class="edge">
<title>Node16&#45;&gt;Node23</title>
<path fill="none" stroke="midnightblue" d="M2040.83,-56.44C2068.25,-47.36 2111.78,-32.94 2142.43,-22.78"/>
<polygon fill="midnightblue" stroke="midnightblue" points="2143.9,-25.98 2152.29,-19.52 2141.7,-19.34 2143.9,-25.98"/>
</g>
<!-- Node25 -->
<g id="node25" class="node">
<title>Node25</title>
<g id="a_node25"><a xlink:title=" ">
<polygon fill="none" stroke="#bfbfbf" points="2336,-0.5 2336,-19.5 2380,-19.5 2380,-0.5 2336,-0.5"/>
<text text-anchor="middle" x="2358" y="-7.5" font-family="FreeSans.ttf" font-size="10.00">string</text>
</a>
</g>
</g>
<!-- Node24&#45;&gt;Node25 -->
<g id="edge24" class="edge">
<title>Node24&#45;&gt;Node25</title>
<path fill="none" stroke="midnightblue" d="M2358,-56.08C2358,-49.01 2358,-38.86 2358,-29.99"/>
<polygon fill="midnightblue" stroke="midnightblue" points="2361.5,-29.75 2358,-19.75 2354.5,-29.75 2361.5,-29.75"/>
</g>
<!-- Node26 -->
<g id="node26" class="node">
<title>Node26</title>
<g id="a_node26"><a xlink:title=" ">
<polygon fill="none" stroke="#bfbfbf" points="2398.5,-0.5 2398.5,-19.5 2445.5,-19.5 2445.5,-0.5 2398.5,-0.5"/>
<text text-anchor="middle" x="2422" y="-7.5" font-family="FreeSans.ttf" font-size="10.00">cmath</text>
</a>
</g>
</g>
<!-- Node24&#45;&gt;Node26 -->
<g id="edge25" class="edge">
<title>Node24&#45;&gt;Node26</title>
<path fill="none" stroke="midnightblue" d="M2368.28,-56.32C2377.84,-48.26 2392.28,-36.08 2403.78,-26.37"/>
<polygon fill="midnightblue" stroke="midnightblue" points="2406.14,-28.96 2411.53,-19.83 2401.63,-23.61 2406.14,-28.96"/>
</g>
</g>
</svg>
