<?xml version="1.0" encoding="UTF-8" standalone="no"?>
<!DOCTYPE svg PUBLIC "-//W3C//DTD SVG 1.1//EN"
 "http://www.w3.org/Graphics/SVG/1.1/DTD/svg11.dtd">
<!-- Generated by graphviz version 5.0.1 (20220821.0811)
 -->
<!-- Title: BaseState.hh Pages: 1 -->
<svg width="1335pt" height="140pt"
 viewBox="0.00 0.00 1335.00 140.00" xmlns="http://www.w3.org/2000/svg" xmlns:xlink="http://www.w3.org/1999/xlink">
<g id="graph0" class="graph" transform="scale(1 1) rotate(0) translate(4 136)">
<title>BaseState.hh</title>
<!-- Node1 -->
<g id="node1" class="node">
<title>Node1</title>
<g id="a_node1"><a xlink:title=" ">
<polygon fill="#bfbfbf" stroke="black" points="639.5,-112.5 639.5,-131.5 720.5,-131.5 720.5,-112.5 639.5,-112.5"/>
<text text-anchor="middle" x="680" y="-119.5" font-family="FreeSans.ttf" font-size="10.00">BaseState.hh</text>
</a>
</g>
</g>
<!-- Node2 -->
<g id="node2" class="node">
<title>Node2</title>
<g id="a_node2"><a xlink:title=" ">
<polygon fill="none" stroke="#bfbfbf" points="0,-0.5 0,-19.5 44,-19.5 44,-0.5 0,-0.5"/>
<text text-anchor="middle" x="22" y="-7.5" font-family="FreeSans.ttf" font-size="10.00">string</text>
</a>
</g>
</g>
<!-- Node1&#45;&gt;Node2 -->
<g id="edge1" class="edge">
<title>Node1&#45;&gt;Node2</title>
<path fill="none" stroke="midnightblue" d="M639.2,-120.79C505.64,-119.74 87.49,-113.47 41,-76 27.43,-65.06 23.21,-45 22.05,-30.05"/>
<polygon fill="midnightblue" stroke="midnightblue" points="25.54,-29.7 21.67,-19.84 18.55,-29.97 25.54,-29.7"/>
</g>
<!-- Node3 -->
<g id="node3" class="node">
<title>Node3</title>
<g id="a_node3"><a xlink:title=" ">
<polygon fill="none" stroke="#bfbfbf" points="318,-56.5 318,-75.5 464,-75.5 464,-56.5 318,-56.5"/>
<text text-anchor="middle" x="391" y="-63.5" font-family="FreeSans.ttf" font-size="10.00">gazebo/common/Plugin.hh</text>
</a>
</g>
</g>
<!-- Node1&#45;&gt;Node3 -->
<g id="edge2" class="edge">
<title>Node1&#45;&gt;Node3</title>
<path fill="none" stroke="midnightblue" d="M639.21,-113.38C588.97,-103.99 503.37,-88 447,-77.46"/>
<polygon fill="midnightblue" stroke="midnightblue" points="447.3,-73.96 436.83,-75.56 446.02,-80.84 447.3,-73.96"/>
</g>
<!-- Node4 -->
<g id="node4" class="node">
<title>Node4</title>
<g id="a_node4"><a xlink:href="Handler_8hh.html" target="_top" xlink:title=" ">
<polygon fill="none" stroke="black" points="695,-56.5 695,-75.5 859,-75.5 859,-56.5 695,-56.5"/>
<text text-anchor="middle" x="777" y="-63.5" font-family="FreeSans.ttf" font-size="10.00">GazeboYarpPlugins/Handler.hh</text>
</a>
</g>
</g>
<!-- Node1&#45;&gt;Node4 -->
<g id="edge3" class="edge">
<title>Node1&#45;&gt;Node4</title>
<path fill="none" stroke="midnightblue" d="M695.58,-112.32C711,-103.74 734.81,-90.49 752.71,-80.52"/>
<polygon fill="midnightblue" stroke="midnightblue" points="754.42,-83.58 761.45,-75.65 751.01,-77.46 754.42,-83.58"/>
</g>
<!-- Node9 -->
<g id="node9" class="node">
<title>Node9</title>
<g id="a_node9"><a xlink:title=" ">
<polygon fill="none" stroke="#bfbfbf" points="1047,-0.5 1047,-19.5 1169,-19.5 1169,-0.5 1047,-0.5"/>
<text text-anchor="middle" x="1108" y="-7.5" font-family="FreeSans.ttf" font-size="10.00">yarp/dev/PolyDriver.h</text>
</a>
</g>
</g>
<!-- Node1&#45;&gt;Node9 -->
<g id="edge20" class="edge">
<title>Node1&#45;&gt;Node9</title>
<path fill="none" stroke="midnightblue" d="M720.65,-113.72C759.18,-106.25 818.4,-93.28 868,-76 887.9,-69.07 891.06,-62.83 911,-56 955.73,-40.68 1007.96,-29.02 1047.4,-21.41"/>
<polygon fill="midnightblue" stroke="midnightblue" points="1048.22,-24.82 1057.39,-19.52 1046.92,-17.94 1048.22,-24.82"/>
</g>
<!-- Node10 -->
<g id="node10" class="node">
<title>Node10</title>
<g id="a_node10"><a xlink:title=" ">
<polygon fill="none" stroke="#bfbfbf" points="1187,-0.5 1187,-19.5 1327,-19.5 1327,-0.5 1187,-0.5"/>
<text text-anchor="middle" x="1257" y="-7.5" font-family="FreeSans.ttf" font-size="10.00">yarp/dev/PolyDriverList.h</text>
</a>
</g>
</g>
<!-- Node1&#45;&gt;Node10 -->
<g id="edge21" class="edge">
<title>Node1&#45;&gt;Node10</title>
<path fill="none" stroke="midnightblue" d="M720.65,-115.85C765.96,-109.42 840.99,-96.67 903,-76 922.61,-69.46 925.21,-61.99 945,-56 967.05,-49.33 1095.11,-31.96 1180.16,-20.86"/>
<polygon fill="midnightblue" stroke="midnightblue" points="1180.84,-24.3 1190.31,-19.53 1179.94,-17.36 1180.84,-24.3"/>
</g>
<!-- Node12 -->
<g id="node12" class="node">
<title>Node12</title>
<g id="a_node12"><a xlink:href="common_8h.html" target="_top" xlink:title=" ">
<polygon fill="none" stroke="black" points="50,-56.5 50,-75.5 214,-75.5 214,-56.5 50,-56.5"/>
<text text-anchor="middle" x="132" y="-63.5" font-family="FreeSans.ttf" font-size="10.00">GazeboYarpPlugins/common.h</text>
</a>
</g>
</g>
<!-- Node1&#45;&gt;Node12 -->
<g id="edge11" class="edge">
<title>Node1&#45;&gt;Node12</title>
<path fill="none" stroke="midnightblue" d="M639.26,-116.99C552.04,-108.39 345.38,-88.03 224.47,-76.11"/>
<polygon fill="midnightblue" stroke="midnightblue" points="224.77,-72.62 214.48,-75.13 224.09,-79.59 224.77,-72.62"/>
</g>
<!-- Node14 -->
<g id="node14" class="node">
<title>Node14</title>
<g id="a_node14"><a xlink:href="ConfHelpers_8hh.html" target="_top" xlink:title=" ">
<polygon fill="none" stroke="black" points="482.5,-56.5 482.5,-75.5 669.5,-75.5 669.5,-56.5 482.5,-56.5"/>
<text text-anchor="middle" x="576" y="-63.5" font-family="FreeSans.ttf" font-size="10.00">GazeboYarpPlugins/ConfHelpers.hh</text>
</a>
</g>
</g>
<!-- Node1&#45;&gt;Node14 -->
<g id="edge14" class="edge">
<title>Node1&#45;&gt;Node14</title>
<path fill="none" stroke="midnightblue" d="M663.29,-112.32C646.69,-103.7 621,-90.36 601.78,-80.39"/>
<polygon fill="midnightblue" stroke="midnightblue" points="603.16,-77.16 592.67,-75.65 599.93,-83.37 603.16,-77.16"/>
</g>
<!-- Node17 -->
<g id="node17" class="node">
<title>Node17</title>
<g id="a_node17"><a xlink:title=" ">
<polygon fill="none" stroke="#bfbfbf" points="953.5,-56.5 953.5,-75.5 1108.5,-75.5 1108.5,-56.5 953.5,-56.5"/>
<text text-anchor="middle" x="1031" y="-63.5" font-family="FreeSans.ttf" font-size="10.00">yarp/dev/IMultipleWrapper.h</text>
</a>
</g>
</g>
<!-- Node1&#45;&gt;Node17 -->
<g id="edge19" class="edge">
<title>Node1&#45;&gt;Node17</title>
<path fill="none" stroke="midnightblue" d="M720.61,-114.75C780.55,-105.53 893.36,-88.18 965.21,-77.12"/>
<polygon fill="midnightblue" stroke="midnightblue" points="966.15,-80.52 975.5,-75.54 965.08,-73.6 966.15,-80.52"/>
</g>
<!-- Node5 -->
<g id="node5" class="node">
<title>Node5</title>
<g id="a_node5"><a xlink:title=" ">
<polygon fill="none" stroke="#bfbfbf" points="758,-0.5 758,-19.5 796,-19.5 796,-0.5 758,-0.5"/>
<text text-anchor="middle" x="777" y="-7.5" font-family="FreeSans.ttf" font-size="10.00">map</text>
</a>
</g>
</g>
<!-- Node4&#45;&gt;Node5 -->
<g id="edge4" class="edge">
<title>Node4&#45;&gt;Node5</title>
<path fill="none" stroke="midnightblue" d="M777,-56.08C777,-49.01 777,-38.86 777,-29.99"/>
<polygon fill="midnightblue" stroke="midnightblue" points="780.5,-29.75 777,-19.75 773.5,-29.75 780.5,-29.75"/>
</g>
<!-- Node6 -->
<g id="node6" class="node">
<title>Node6</title>
<g id="a_node6"><a xlink:title=" ">
<polygon fill="none" stroke="#bfbfbf" points="646.5,-0.5 646.5,-19.5 739.5,-19.5 739.5,-0.5 646.5,-0.5"/>
<text text-anchor="middle" x="693" y="-7.5" font-family="FreeSans.ttf" font-size="10.00">sdf/sdf_config.h</text>
</a>
</g>
</g>
<!-- Node4&#45;&gt;Node6 -->
<g id="edge5" class="edge">
<title>Node4&#45;&gt;Node6</title>
<path fill="none" stroke="midnightblue" d="M763.5,-56.32C750.4,-47.9 730.29,-34.97 714.89,-25.07"/>
<polygon fill="midnightblue" stroke="midnightblue" points="716.77,-22.12 706.46,-19.65 712.98,-28.01 716.77,-22.12"/>
</g>
<!-- Node7 -->
<g id="node7" class="node">
<title>Node7</title>
<g id="a_node7"><a xlink:title=" ">
<polygon fill="none" stroke="#bfbfbf" points="509.5,-0.5 509.5,-19.5 628.5,-19.5 628.5,-0.5 509.5,-0.5"/>
<text text-anchor="middle" x="569" y="-7.5" font-family="FreeSans.ttf" font-size="10.00">boost/shared_ptr.hpp</text>
</a>
</g>
</g>
<!-- Node4&#45;&gt;Node7 -->
<g id="edge6" class="edge">
<title>Node4&#45;&gt;Node7</title>
<path fill="none" stroke="midnightblue" d="M744.04,-56.44C708.21,-47.14 650.84,-32.25 611.61,-22.06"/>
<polygon fill="midnightblue" stroke="midnightblue" points="612.36,-18.64 601.8,-19.52 610.6,-25.42 612.36,-18.64"/>
</g>
<!-- Node8 -->
<g id="node8" class="node">
<title>Node8</title>
<g id="a_node8"><a xlink:title=" ">
<polygon fill="none" stroke="#bfbfbf" points="814,-0.5 814,-19.5 862,-19.5 862,-0.5 814,-0.5"/>
<text text-anchor="middle" x="838" y="-7.5" font-family="FreeSans.ttf" font-size="10.00">mutex</text>
</a>
</g>
</g>
<!-- Node4&#45;&gt;Node8 -->
<g id="edge7" class="edge">
<title>Node4&#45;&gt;Node8</title>
<path fill="none" stroke="midnightblue" d="M786.8,-56.32C795.82,-48.34 809.41,-36.31 820.32,-26.65"/>
<polygon fill="midnightblue" stroke="midnightblue" points="822.85,-29.08 828.02,-19.83 818.21,-23.84 822.85,-29.08"/>
</g>
<!-- Node4&#45;&gt;Node9 -->
<g id="edge8" class="edge">
<title>Node4&#45;&gt;Node9</title>
<path fill="none" stroke="midnightblue" d="M829.45,-56.44C888.16,-46.87 983.23,-31.36 1045.68,-21.17"/>
<polygon fill="midnightblue" stroke="midnightblue" points="1046.49,-24.58 1055.8,-19.52 1045.36,-17.67 1046.49,-24.58"/>
</g>
<!-- Node4&#45;&gt;Node10 -->
<g id="edge9" class="edge">
<title>Node4&#45;&gt;Node10</title>
<path fill="none" stroke="midnightblue" d="M853.13,-56.5C931.59,-47.72 1057.75,-33.59 1176.77,-20.14"/>
<polygon fill="midnightblue" stroke="midnightblue" points="1177.25,-23.61 1186.79,-19 1176.46,-16.65 1177.25,-23.61"/>
</g>
<!-- Node11 -->
<g id="node11" class="node">
<title>Node11</title>
<g id="a_node11"><a xlink:title=" ">
<polygon fill="none" stroke="#bfbfbf" points="879.5,-0.5 879.5,-19.5 1028.5,-19.5 1028.5,-0.5 879.5,-0.5"/>
<text text-anchor="middle" x="954" y="-7.5" font-family="FreeSans.ttf" font-size="10.00">gazebo/common/Events.hh</text>
</a>
</g>
</g>
<!-- Node4&#45;&gt;Node11 -->
<g id="edge10" class="edge">
<title>Node4&#45;&gt;Node11</title>
<path fill="none" stroke="midnightblue" d="M805.05,-56.44C835.08,-47.28 882.91,-32.69 916.24,-22.52"/>
<polygon fill="midnightblue" stroke="midnightblue" points="917.54,-25.78 926.09,-19.52 915.5,-19.09 917.54,-25.78"/>
</g>
<!-- Node12&#45;&gt;Node2 -->
<g id="edge12" class="edge">
<title>Node12&#45;&gt;Node2</title>
<path fill="none" stroke="midnightblue" d="M114.33,-56.32C96.61,-47.62 69.1,-34.12 48.71,-24.11"/>
<polygon fill="midnightblue" stroke="midnightblue" points="50.15,-20.92 39.63,-19.65 47.06,-27.2 50.15,-20.92"/>
</g>
<!-- Node13 -->
<g id="node13" class="node">
<title>Node13</title>
<g id="a_node13"><a xlink:title=" ">
<polygon fill="none" stroke="#bfbfbf" points="62.5,-0.5 62.5,-19.5 109.5,-19.5 109.5,-0.5 62.5,-0.5"/>
<text text-anchor="middle" x="86" y="-7.5" font-family="FreeSans.ttf" font-size="10.00">cmath</text>
</a>
</g>
</g>
<!-- Node12&#45;&gt;Node13 -->
<g id="edge13" class="edge">
<title>Node12&#45;&gt;Node13</title>
<path fill="none" stroke="midnightblue" d="M124.4,-56.08C117.77,-48.3 107.98,-36.8 99.94,-27.37"/>
<polygon fill="midnightblue" stroke="midnightblue" points="102.6,-25.09 93.45,-19.75 97.27,-29.63 102.6,-25.09"/>
</g>
<!-- Node14&#45;&gt;Node6 -->
<g id="edge15" class="edge">
<title>Node14&#45;&gt;Node6</title>
<path fill="none" stroke="midnightblue" d="M594.54,-56.44C613.62,-47.64 643.57,-33.81 665.44,-23.72"/>
<polygon fill="midnightblue" stroke="midnightblue" points="666.93,-26.88 674.55,-19.52 664,-20.53 666.93,-26.88"/>
</g>
<!-- Node14&#45;&gt;Node7 -->
<g id="edge16" class="edge">
<title>Node14&#45;&gt;Node7</title>
<path fill="none" stroke="midnightblue" d="M574.84,-56.08C573.92,-48.93 572.58,-38.64 571.42,-29.69"/>
<polygon fill="midnightblue" stroke="midnightblue" points="574.89,-29.22 570.13,-19.75 567.95,-30.12 574.89,-29.22"/>
</g>
<!-- Node15 -->
<g id="node15" class="node">
<title>Node15</title>
<g id="a_node15"><a xlink:title=" ">
<polygon fill="none" stroke="#bfbfbf" points="320.5,-0.5 320.5,-19.5 491.5,-19.5 491.5,-0.5 320.5,-0.5"/>
<text text-anchor="middle" x="406" y="-7.5" font-family="FreeSans.ttf" font-size="10.00">gazebo/sensors/SensorTypes.hh</text>
</a>
</g>
</g>
<!-- Node14&#45;&gt;Node15 -->
<g id="edge17" class="edge">
<title>Node14&#45;&gt;Node15</title>
<path fill="none" stroke="midnightblue" d="M549.06,-56.44C520.34,-47.32 474.67,-32.81 442.68,-22.65"/>
<polygon fill="midnightblue" stroke="midnightblue" points="443.4,-19.21 432.81,-19.52 441.28,-25.88 443.4,-19.21"/>
</g>
<!-- Node16 -->
<g id="node16" class="node">
<title>Node16</title>
<g id="a_node16"><a xlink:title=" ">
<polygon fill="none" stroke="#bfbfbf" points="128,-0.5 128,-19.5 302,-19.5 302,-0.5 128,-0.5"/>
<text text-anchor="middle" x="215" y="-7.5" font-family="FreeSans.ttf" font-size="10.00">gazebo/physics/PhysicsTypes.hh</text>
</a>
</g>
</g>
<!-- Node14&#45;&gt;Node16 -->
<g id="edge18" class="edge">
<title>Node14&#45;&gt;Node16</title>
<path fill="none" stroke="midnightblue" d="M518.8,-56.44C454.5,-46.83 350.22,-31.23 282.13,-21.04"/>
<polygon fill="midnightblue" stroke="midnightblue" points="282.34,-17.53 271.93,-19.52 281.31,-24.46 282.34,-17.53"/>
</g>
</g>
</svg>
