<?xml version="1.0" encoding="UTF-8" standalone="no"?>
<!DOCTYPE svg PUBLIC "-//W3C//DTD SVG 1.1//EN"
 "http://www.w3.org/Graphics/SVG/1.1/DTD/svg11.dtd">
<!-- Generated by graphviz version 2.43.0 (0)
 -->
<!-- Title: BaseState.hh Pages: 1 -->
<svg width="1168pt" height="140pt"
 viewBox="0.00 0.00 1168.00 140.00" xmlns="http://www.w3.org/2000/svg" xmlns:xlink="http://www.w3.org/1999/xlink">
<g id="graph0" class="graph" transform="scale(1 1) rotate(0) translate(4 136)">
<title>BaseState.hh</title>
<!-- Node1 -->
<g id="node1" class="node">
<title>Node1</title>
<g id="a_node1"><a xlink:title=" ">
<polygon fill="#bfbfbf" stroke="black" points="619.5,-112.5 619.5,-131.5 700.5,-131.5 700.5,-112.5 619.5,-112.5"/>
<text text-anchor="middle" x="660" y="-119.5" font-family="FreeSans.ttf" font-size="10.00">BaseState.hh</text>
</a>
</g>
</g>
<!-- Node2 -->
<g id="node2" class="node">
<title>Node2</title>
<g id="a_node2"><a xlink:title=" ">
<polygon fill="none" stroke="#bfbfbf" points="0,-0.5 0,-19.5 44,-19.5 44,-0.5 0,-0.5"/>
<text text-anchor="middle" x="22" y="-7.5" font-family="FreeSans.ttf" font-size="10.00">string</text>
</a>
</g>
</g>
<!-- Node1&#45;&gt;Node2 -->
<g id="edge1" class="edge">
<title>Node1&#45;&gt;Node2</title>
<path fill="none" stroke="midnightblue" d="M619.1,-120.69C488.27,-119.33 85.84,-112.22 41,-76 27.44,-65.05 23.22,-44.99 22.06,-30.04"/>
<polygon fill="midnightblue" stroke="midnightblue" points="25.55,-29.7 21.67,-19.84 18.55,-29.97 25.55,-29.7"/>
</g>
<!-- Node3 -->
<g id="node3" class="node">
<title>Node3</title>
<g id="a_node3"><a xlink:title=" ">
<polygon fill="none" stroke="#bfbfbf" points="305,-56.5 305,-75.5 451,-75.5 451,-56.5 305,-56.5"/>
<text text-anchor="middle" x="378" y="-63.5" font-family="FreeSans.ttf" font-size="10.00">gazebo/common/Plugin.hh</text>
</a>
</g>
</g>
<!-- Node1&#45;&gt;Node3 -->
<g id="edge2" class="edge">
<title>Node1&#45;&gt;Node3</title>
<path fill="none" stroke="midnightblue" d="M619.3,-113.21C570.04,-103.77 486.94,-87.86 432.28,-77.39"/>
<polygon fill="midnightblue" stroke="midnightblue" points="432.89,-73.95 422.41,-75.5 431.58,-80.82 432.89,-73.95"/>
</g>
<!-- Node4 -->
<g id="node4" class="node">
<title>Node4</title>
<g id="a_node4"><a xlink:href="Handler_8hh.html" target="_top" xlink:title=" ">
<polygon fill="none" stroke="black" points="688,-56.5 688,-75.5 852,-75.5 852,-56.5 688,-56.5"/>
<text text-anchor="middle" x="770" y="-63.5" font-family="FreeSans.ttf" font-size="10.00">GazeboYarpPlugins/Handler.hh</text>
</a>
</g>
</g>
<!-- Node1&#45;&gt;Node4 -->
<g id="edge3" class="edge">
<title>Node1&#45;&gt;Node4</title>
<path fill="none" stroke="midnightblue" d="M677.67,-112.32C695.39,-103.62 722.9,-90.12 743.29,-80.11"/>
<polygon fill="midnightblue" stroke="midnightblue" points="744.94,-83.2 752.37,-75.65 741.85,-76.92 744.94,-83.2"/>
</g>
<!-- Node9 -->
<g id="node9" class="node">
<title>Node9</title>
<g id="a_node9"><a xlink:title=" ">
<polygon fill="none" stroke="#bfbfbf" points="880,-0.5 880,-19.5 1002,-19.5 1002,-0.5 880,-0.5"/>
<text text-anchor="middle" x="941" y="-7.5" font-family="FreeSans.ttf" font-size="10.00">yarp/dev/PolyDriver.h</text>
</a>
</g>
</g>
<!-- Node1&#45;&gt;Node9 -->
<g id="edge19" class="edge">
<title>Node1&#45;&gt;Node9</title>
<path fill="none" stroke="midnightblue" d="M700.7,-117.43C742.64,-112.5 809.03,-101.19 861,-76 886.27,-63.75 910.62,-42.09 925.69,-27.16"/>
<polygon fill="midnightblue" stroke="midnightblue" points="928.54,-29.25 933.05,-19.67 923.54,-24.35 928.54,-29.25"/>
</g>
<!-- Node10 -->
<g id="node10" class="node">
<title>Node10</title>
<g id="a_node10"><a xlink:title=" ">
<polygon fill="none" stroke="#bfbfbf" points="1020,-0.5 1020,-19.5 1160,-19.5 1160,-0.5 1020,-0.5"/>
<text text-anchor="middle" x="1090" y="-7.5" font-family="FreeSans.ttf" font-size="10.00">yarp/dev/PolyDriverList.h</text>
</a>
</g>
</g>
<!-- Node1&#45;&gt;Node10 -->
<g id="edge20" class="edge">
<title>Node1&#45;&gt;Node10</title>
<path fill="none" stroke="midnightblue" d="M700.69,-115.71C747.34,-109.05 825.76,-95.99 891,-76 912.71,-69.35 916.64,-63.68 938,-56 974.41,-42.91 1016.68,-30.62 1047.39,-22.21"/>
<polygon fill="midnightblue" stroke="midnightblue" points="1048.6,-25.51 1057.33,-19.51 1046.76,-18.75 1048.6,-25.51"/>
</g>
<!-- Node11 -->
<g id="node11" class="node">
<title>Node11</title>
<g id="a_node11"><a xlink:href="common_8h.html" target="_top" xlink:title=" ">
<polygon fill="none" stroke="black" points="50,-56.5 50,-75.5 214,-75.5 214,-56.5 50,-56.5"/>
<text text-anchor="middle" x="132" y="-63.5" font-family="FreeSans.ttf" font-size="10.00">GazeboYarpPlugins/common.h</text>
</a>
</g>
</g>
<!-- Node1&#45;&gt;Node11 -->
<g id="edge10" class="edge">
<title>Node1&#45;&gt;Node11</title>
<path fill="none" stroke="midnightblue" d="M619.45,-116.85C535.44,-108.26 340.58,-88.33 224.27,-76.44"/>
<polygon fill="midnightblue" stroke="midnightblue" points="224.61,-72.95 214.31,-75.42 223.9,-79.92 224.61,-72.95"/>
</g>
<!-- Node13 -->
<g id="node13" class="node">
<title>Node13</title>
<g id="a_node13"><a xlink:href="ConfHelpers_8hh.html" target="_top" xlink:title=" ">
<polygon fill="none" stroke="black" points="469.5,-56.5 469.5,-75.5 656.5,-75.5 656.5,-56.5 469.5,-56.5"/>
<text text-anchor="middle" x="563" y="-63.5" font-family="FreeSans.ttf" font-size="10.00">GazeboYarpPlugins/ConfHelpers.hh</text>
</a>
</g>
</g>
<!-- Node1&#45;&gt;Node13 -->
<g id="edge13" class="edge">
<title>Node1&#45;&gt;Node13</title>
<path fill="none" stroke="midnightblue" d="M644.42,-112.32C629,-103.74 605.19,-90.49 587.29,-80.52"/>
<polygon fill="midnightblue" stroke="midnightblue" points="588.99,-77.46 578.55,-75.65 585.58,-83.58 588.99,-77.46"/>
</g>
<!-- Node16 -->
<g id="node16" class="node">
<title>Node16</title>
<g id="a_node16"><a xlink:title=" ">
<polygon fill="none" stroke="#bfbfbf" points="946.5,-56.5 946.5,-75.5 1101.5,-75.5 1101.5,-56.5 946.5,-56.5"/>
<text text-anchor="middle" x="1024" y="-63.5" font-family="FreeSans.ttf" font-size="10.00">yarp/dev/IMultipleWrapper.h</text>
</a>
</g>
</g>
<!-- Node1&#45;&gt;Node16 -->
<g id="edge18" class="edge">
<title>Node1&#45;&gt;Node16</title>
<path fill="none" stroke="midnightblue" d="M700.7,-114.96C762.62,-105.78 881.22,-88.18 956.27,-77.05"/>
<polygon fill="midnightblue" stroke="midnightblue" points="957.19,-80.45 966.57,-75.52 956.16,-73.53 957.19,-80.45"/>
</g>
<!-- Node5 -->
<g id="node5" class="node">
<title>Node5</title>
<g id="a_node5"><a xlink:title=" ">
<polygon fill="none" stroke="#bfbfbf" points="758,-0.5 758,-19.5 796,-19.5 796,-0.5 758,-0.5"/>
<text text-anchor="middle" x="777" y="-7.5" font-family="FreeSans.ttf" font-size="10.00">map</text>
</a>
</g>
</g>
<!-- Node4&#45;&gt;Node5 -->
<g id="edge4" class="edge">
<title>Node4&#45;&gt;Node5</title>
<path fill="none" stroke="midnightblue" d="M771.16,-56.08C772.08,-48.93 773.42,-38.64 774.58,-29.69"/>
<polygon fill="midnightblue" stroke="midnightblue" points="778.05,-30.12 775.87,-19.75 771.11,-29.22 778.05,-30.12"/>
</g>
<!-- Node6 -->
<g id="node6" class="node">
<title>Node6</title>
<g id="a_node6"><a xlink:title=" ">
<polygon fill="none" stroke="#bfbfbf" points="509.5,-0.5 509.5,-19.5 602.5,-19.5 602.5,-0.5 509.5,-0.5"/>
<text text-anchor="middle" x="556" y="-7.5" font-family="FreeSans.ttf" font-size="10.00">sdf/sdf_config.h</text>
</a>
</g>
</g>
<!-- Node4&#45;&gt;Node6 -->
<g id="edge5" class="edge">
<title>Node4&#45;&gt;Node6</title>
<path fill="none" stroke="midnightblue" d="M736.09,-56.44C699.15,-47.12 639.95,-32.18 599.58,-22"/>
<polygon fill="midnightblue" stroke="midnightblue" points="600.3,-18.57 589.75,-19.52 598.59,-25.36 600.3,-18.57"/>
</g>
<!-- Node7 -->
<g id="node7" class="node">
<title>Node7</title>
<g id="a_node7"><a xlink:title=" ">
<polygon fill="none" stroke="#bfbfbf" points="620.5,-0.5 620.5,-19.5 739.5,-19.5 739.5,-0.5 620.5,-0.5"/>
<text text-anchor="middle" x="680" y="-7.5" font-family="FreeSans.ttf" font-size="10.00">boost/shared_ptr.hpp</text>
</a>
</g>
</g>
<!-- Node4&#45;&gt;Node7 -->
<g id="edge6" class="edge">
<title>Node4&#45;&gt;Node7</title>
<path fill="none" stroke="midnightblue" d="M755.54,-56.32C741.5,-47.9 719.95,-34.97 703.46,-25.07"/>
<polygon fill="midnightblue" stroke="midnightblue" points="704.8,-21.8 694.42,-19.65 701.2,-27.8 704.8,-21.8"/>
</g>
<!-- Node8 -->
<g id="node8" class="node">
<title>Node8</title>
<g id="a_node8"><a xlink:title=" ">
<polygon fill="none" stroke="#bfbfbf" points="814,-0.5 814,-19.5 862,-19.5 862,-0.5 814,-0.5"/>
<text text-anchor="middle" x="838" y="-7.5" font-family="FreeSans.ttf" font-size="10.00">mutex</text>
</a>
</g>
</g>
<!-- Node4&#45;&gt;Node8 -->
<g id="edge7" class="edge">
<title>Node4&#45;&gt;Node8</title>
<path fill="none" stroke="midnightblue" d="M780.93,-56.32C791.17,-48.18 806.72,-35.84 819,-26.09"/>
<polygon fill="midnightblue" stroke="midnightblue" points="821.22,-28.79 826.88,-19.83 816.87,-23.31 821.22,-28.79"/>
</g>
<!-- Node4&#45;&gt;Node9 -->
<g id="edge8" class="edge">
<title>Node4&#45;&gt;Node9</title>
<path fill="none" stroke="midnightblue" d="M797.1,-56.44C825.99,-47.32 871.92,-32.81 904.11,-22.65"/>
<polygon fill="midnightblue" stroke="midnightblue" points="905.55,-25.87 914.03,-19.52 903.44,-19.19 905.55,-25.87"/>
</g>
<!-- Node4&#45;&gt;Node10 -->
<g id="edge9" class="edge">
<title>Node4&#45;&gt;Node10</title>
<path fill="none" stroke="midnightblue" d="M820.7,-56.44C877.35,-46.89 969,-31.42 1029.38,-21.23"/>
<polygon fill="midnightblue" stroke="midnightblue" points="1030.25,-24.63 1039.53,-19.52 1029.09,-17.73 1030.25,-24.63"/>
</g>
<!-- Node11&#45;&gt;Node2 -->
<g id="edge11" class="edge">
<title>Node11&#45;&gt;Node2</title>
<path fill="none" stroke="midnightblue" d="M114.33,-56.32C96.61,-47.62 69.1,-34.12 48.71,-24.11"/>
<polygon fill="midnightblue" stroke="midnightblue" points="50.15,-20.92 39.63,-19.65 47.06,-27.2 50.15,-20.92"/>
</g>
<!-- Node12 -->
<g id="node12" class="node">
<title>Node12</title>
<g id="a_node12"><a xlink:title=" ">
<polygon fill="none" stroke="#bfbfbf" points="62.5,-0.5 62.5,-19.5 109.5,-19.5 109.5,-0.5 62.5,-0.5"/>
<text text-anchor="middle" x="86" y="-7.5" font-family="FreeSans.ttf" font-size="10.00">cmath</text>
</a>
</g>
</g>
<!-- Node11&#45;&gt;Node12 -->
<g id="edge12" class="edge">
<title>Node11&#45;&gt;Node12</title>
<path fill="none" stroke="midnightblue" d="M124.4,-56.08C117.77,-48.3 107.98,-36.8 99.94,-27.37"/>
<polygon fill="midnightblue" stroke="midnightblue" points="102.6,-25.09 93.45,-19.75 97.27,-29.63 102.6,-25.09"/>
</g>
<!-- Node13&#45;&gt;Node6 -->
<g id="edge14" class="edge">
<title>Node13&#45;&gt;Node6</title>
<path fill="none" stroke="midnightblue" d="M561.84,-56.08C560.92,-48.93 559.58,-38.64 558.42,-29.69"/>
<polygon fill="midnightblue" stroke="midnightblue" points="561.89,-29.22 557.13,-19.75 554.95,-30.12 561.89,-29.22"/>
</g>
<!-- Node13&#45;&gt;Node7 -->
<g id="edge15" class="edge">
<title>Node13&#45;&gt;Node7</title>
<path fill="none" stroke="midnightblue" d="M581.54,-56.44C600.62,-47.64 630.57,-33.81 652.44,-23.72"/>
<polygon fill="midnightblue" stroke="midnightblue" points="653.93,-26.88 661.55,-19.52 651,-20.53 653.93,-26.88"/>
</g>
<!-- Node14 -->
<g id="node14" class="node">
<title>Node14</title>
<g id="a_node14"><a xlink:title=" ">
<polygon fill="none" stroke="#bfbfbf" points="127.5,-0.5 127.5,-19.5 298.5,-19.5 298.5,-0.5 127.5,-0.5"/>
<text text-anchor="middle" x="213" y="-7.5" font-family="FreeSans.ttf" font-size="10.00">gazebo/sensors/SensorTypes.hh</text>
</a>
</g>
</g>
<!-- Node13&#45;&gt;Node14 -->
<g id="edge16" class="edge">
<title>Node13&#45;&gt;Node14</title>
<path fill="none" stroke="midnightblue" d="M507.54,-56.44C445.33,-46.85 344.52,-31.29 278.49,-21.1"/>
<polygon fill="midnightblue" stroke="midnightblue" points="278.62,-17.58 268.2,-19.52 277.55,-24.5 278.62,-17.58"/>
</g>
<!-- Node15 -->
<g id="node15" class="node">
<title>Node15</title>
<g id="a_node15"><a xlink:title=" ">
<polygon fill="none" stroke="#bfbfbf" points="317,-0.5 317,-19.5 491,-19.5 491,-0.5 317,-0.5"/>
<text text-anchor="middle" x="404" y="-7.5" font-family="FreeSans.ttf" font-size="10.00">gazebo/physics/PhysicsTypes.hh</text>
</a>
</g>
</g>
<!-- Node13&#45;&gt;Node15 -->
<g id="edge17" class="edge">
<title>Node13&#45;&gt;Node15</title>
<path fill="none" stroke="midnightblue" d="M537.81,-56.44C511.06,-47.36 468.6,-32.94 438.69,-22.78"/>
<polygon fill="midnightblue" stroke="midnightblue" points="439.67,-19.42 429.08,-19.52 437.42,-26.05 439.67,-19.42"/>
</g>
</g>
</svg>
