<?xml version="1.0" encoding="UTF-8" standalone="no"?>
<!DOCTYPE svg PUBLIC "-//W3C//DTD SVG 1.1//EN"
 "http://www.w3.org/Graphics/SVG/1.1/DTD/svg11.dtd">
<!-- Generated by graphviz version 2.43.0 (0)
 -->
<!-- Title: BaseStateDriver.h Pages: 1 -->
<svg width="222pt" height="84pt"
 viewBox="0.00 0.00 222.00 84.00" xmlns="http://www.w3.org/2000/svg" xmlns:xlink="http://www.w3.org/1999/xlink">
<g id="graph0" class="graph" transform="scale(1 1) rotate(0) translate(4 80)">
<title>BaseStateDriver.h</title>
<!-- Node1 -->
<g id="node1" class="node">
<title>Node1</title>
<g id="a_node1"><a xlink:title=" ">
<polygon fill="#bfbfbf" stroke="black" points="46,-56.5 46,-75.5 150,-75.5 150,-56.5 46,-56.5"/>
<text text-anchor="middle" x="98" y="-63.5" font-family="FreeSans.ttf" font-size="10.00">BaseStateDriver.h</text>
</a>
</g>
</g>
<!-- Node2 -->
<g id="node2" class="node">
<title>Node2</title>
<g id="a_node2"><a xlink:href="BaseState_8cc.html" target="_top" xlink:title=" ">
<polygon fill="none" stroke="black" points="0,-0.5 0,-19.5 80,-19.5 80,-0.5 0,-0.5"/>
<text text-anchor="middle" x="40" y="-7.5" font-family="FreeSans.ttf" font-size="10.00">BaseState.cc</text>
</a>
</g>
</g>
<!-- Node1&#45;&gt;Node2 -->
<g id="edge1" class="edge">
<title>Node1&#45;&gt;Node2</title>
<path fill="none" stroke="midnightblue" d="M81.09,-49.25C70.8,-39.67 58.03,-27.79 49.49,-19.83"/>
<polygon fill="midnightblue" stroke="midnightblue" points="78.98,-52.07 88.68,-56.32 83.75,-46.95 78.98,-52.07"/>
</g>
<!-- Node3 -->
<g id="node3" class="node">
<title>Node3</title>
<g id="a_node3"><a xlink:href="BaseStateDriver_8cpp.html" target="_top" xlink:title=" ">
<polygon fill="none" stroke="black" points="98,-0.5 98,-19.5 214,-19.5 214,-0.5 98,-0.5"/>
<text text-anchor="middle" x="156" y="-7.5" font-family="FreeSans.ttf" font-size="10.00">BaseStateDriver.cpp</text>
</a>
</g>
</g>
<!-- Node1&#45;&gt;Node3 -->
<g id="edge2" class="edge">
<title>Node1&#45;&gt;Node3</title>
<path fill="none" stroke="midnightblue" d="M114.91,-49.25C125.2,-39.67 137.97,-27.79 146.51,-19.83"/>
<polygon fill="midnightblue" stroke="midnightblue" points="112.25,-46.95 107.32,-56.32 117.02,-52.07 112.25,-46.95"/>
</g>
</g>
</svg>
