<?xml version="1.0" encoding="UTF-8" standalone="no"?>
<!DOCTYPE svg PUBLIC "-//W3C//DTD SVG 1.1//EN"
 "http://www.w3.org/Graphics/SVG/1.1/DTD/svg11.dtd">
<!-- Generated by graphviz version 2.43.0 (0)
 -->
<!-- Title: BaseStateDriver.cpp Pages: 1 -->
<svg width="2284pt" height="196pt"
 viewBox="0.00 0.00 2283.50 196.00" xmlns="http://www.w3.org/2000/svg" xmlns:xlink="http://www.w3.org/1999/xlink">
<g id="graph0" class="graph" transform="scale(1 1) rotate(0) translate(4 192)">
<title>BaseStateDriver.cpp</title>
<!-- Node1 -->
<g id="node1" class="node">
<title>Node1</title>
<g id="a_node1"><a xlink:title=" ">
<polygon fill="#bfbfbf" stroke="black" points="1220,-168.5 1220,-187.5 1336,-187.5 1336,-168.5 1220,-168.5"/>
<text text-anchor="middle" x="1278" y="-175.5" font-family="FreeSans.ttf" font-size="10.00">BaseStateDriver.cpp</text>
</a>
</g>
</g>
<!-- Node2 -->
<g id="node2" class="node">
<title>Node2</title>
<g id="a_node2"><a xlink:href="BaseStateDriver_8h.html" target="_top" xlink:title=" ">
<polygon fill="none" stroke="black" points="1115,-112.5 1115,-131.5 1219,-131.5 1219,-112.5 1115,-112.5"/>
<text text-anchor="middle" x="1167" y="-119.5" font-family="FreeSans.ttf" font-size="10.00">BaseStateDriver.h</text>
</a>
</g>
</g>
<!-- Node1&#45;&gt;Node2 -->
<g id="edge1" class="edge">
<title>Node1&#45;&gt;Node2</title>
<path fill="none" stroke="midnightblue" d="M1260.17,-168.32C1242.28,-159.62 1214.52,-146.12 1193.95,-136.11"/>
<polygon fill="midnightblue" stroke="midnightblue" points="1195.31,-132.88 1184.79,-131.65 1192.25,-139.18 1195.31,-132.88"/>
</g>
<!-- Node25 -->
<g id="node25" class="node">
<title>Node25</title>
<g id="a_node25"><a xlink:title=" ">
<polygon fill="none" stroke="#bfbfbf" points="1237,-112.5 1237,-131.5 1319,-131.5 1319,-112.5 1237,-112.5"/>
<text text-anchor="middle" x="1278" y="-119.5" font-family="FreeSans.ttf" font-size="10.00">yarp/os/Log.h</text>
</a>
</g>
</g>
<!-- Node1&#45;&gt;Node25 -->
<g id="edge25" class="edge">
<title>Node1&#45;&gt;Node25</title>
<path fill="none" stroke="midnightblue" d="M1278,-168.08C1278,-161.01 1278,-150.86 1278,-141.99"/>
<polygon fill="midnightblue" stroke="midnightblue" points="1281.5,-141.75 1278,-131.75 1274.5,-141.75 1281.5,-141.75"/>
</g>
<!-- Node26 -->
<g id="node26" class="node">
<title>Node26</title>
<g id="a_node26"><a xlink:title=" ">
<polygon fill="none" stroke="#bfbfbf" points="1337.5,-112.5 1337.5,-131.5 1454.5,-131.5 1454.5,-112.5 1337.5,-112.5"/>
<text text-anchor="middle" x="1396" y="-119.5" font-family="FreeSans.ttf" font-size="10.00">yarp/os/LogStream.h</text>
</a>
</g>
</g>
<!-- Node1&#45;&gt;Node26 -->
<g id="edge26" class="edge">
<title>Node1&#45;&gt;Node26</title>
<path fill="none" stroke="midnightblue" d="M1296.7,-168.44C1315.94,-159.64 1346.15,-145.81 1368.2,-135.72"/>
<polygon fill="midnightblue" stroke="midnightblue" points="1369.75,-138.86 1377.39,-131.52 1366.84,-132.5 1369.75,-138.86"/>
</g>
<!-- Node3 -->
<g id="node3" class="node">
<title>Node3</title>
<g id="a_node3"><a xlink:title=" ">
<polygon fill="none" stroke="#bfbfbf" points="0,-56.5 0,-75.5 146,-75.5 146,-56.5 0,-56.5"/>
<text text-anchor="middle" x="73" y="-63.5" font-family="FreeSans.ttf" font-size="10.00">gazebo/common/Plugin.hh</text>
</a>
</g>
</g>
<!-- Node2&#45;&gt;Node3 -->
<g id="edge2" class="edge">
<title>Node2&#45;&gt;Node3</title>
<path fill="none" stroke="midnightblue" d="M1114.79,-119.87C966.49,-116.42 529.9,-104.48 156.49,-76.06"/>
<polygon fill="midnightblue" stroke="midnightblue" points="156.53,-72.56 146.3,-75.28 156,-79.54 156.53,-72.56"/>
</g>
<!-- Node4 -->
<g id="node4" class="node">
<title>Node4</title>
<g id="a_node4"><a xlink:title=" ">
<polygon fill="none" stroke="#bfbfbf" points="164,-56.5 164,-75.5 322,-75.5 322,-56.5 164,-56.5"/>
<text text-anchor="middle" x="243" y="-63.5" font-family="FreeSans.ttf" font-size="10.00">gazebo/common/common.hh</text>
</a>
</g>
</g>
<!-- Node2&#45;&gt;Node4 -->
<g id="edge3" class="edge">
<title>Node2&#45;&gt;Node4</title>
<path fill="none" stroke="midnightblue" d="M1114.61,-119.06C984.31,-114.04 634.94,-99.42 332.43,-76.07"/>
<polygon fill="midnightblue" stroke="midnightblue" points="332.38,-72.56 322.14,-75.28 331.84,-79.54 332.38,-72.56"/>
</g>
<!-- Node5 -->
<g id="node5" class="node">
<title>Node5</title>
<g id="a_node5"><a xlink:title=" ">
<polygon fill="none" stroke="#bfbfbf" points="340,-56.5 340,-75.5 470,-75.5 470,-56.5 340,-56.5"/>
<text text-anchor="middle" x="405" y="-63.5" font-family="FreeSans.ttf" font-size="10.00">gazebo/physics/Link.hh</text>
</a>
</g>
</g>
<!-- Node2&#45;&gt;Node5 -->
<g id="edge4" class="edge">
<title>Node2&#45;&gt;Node5</title>
<path fill="none" stroke="midnightblue" d="M1114.7,-118.58C1001.21,-113.1 723.6,-98.54 480.44,-76.09"/>
<polygon fill="midnightblue" stroke="midnightblue" points="480.63,-72.59 470.35,-75.15 479.98,-79.56 480.63,-72.59"/>
</g>
<!-- Node6 -->
<g id="node6" class="node">
<title>Node6</title>
<g id="a_node6"><a xlink:title=" ">
<polygon fill="none" stroke="#bfbfbf" points="488,-56.5 488,-75.5 634,-75.5 634,-56.5 488,-56.5"/>
<text text-anchor="middle" x="561" y="-63.5" font-family="FreeSans.ttf" font-size="10.00">gazebo/physics/physics.hh</text>
</a>
</g>
</g>
<!-- Node2&#45;&gt;Node6 -->
<g id="edge5" class="edge">
<title>Node2&#45;&gt;Node6</title>
<path fill="none" stroke="midnightblue" d="M1114.9,-116.94C1022.42,-109.63 823.23,-93.5 644.43,-76.12"/>
<polygon fill="midnightblue" stroke="midnightblue" points="644.6,-72.62 634.31,-75.13 643.92,-79.59 644.6,-72.62"/>
</g>
<!-- Node7 -->
<g id="node7" class="node">
<title>Node7</title>
<g id="a_node7"><a xlink:title=" ">
<polygon fill="none" stroke="#bfbfbf" points="652,-56.5 652,-75.5 774,-75.5 774,-56.5 652,-56.5"/>
<text text-anchor="middle" x="713" y="-63.5" font-family="FreeSans.ttf" font-size="10.00">gazebo/math/Pose.hh</text>
</a>
</g>
</g>
<!-- Node2&#45;&gt;Node7 -->
<g id="edge6" class="edge">
<title>Node2&#45;&gt;Node7</title>
<path fill="none" stroke="midnightblue" d="M1114.8,-115.07C1042.86,-106.86 908.89,-91.41 784.19,-76.13"/>
<polygon fill="midnightblue" stroke="midnightblue" points="784.43,-72.64 774.08,-74.89 783.58,-79.59 784.43,-72.64"/>
</g>
<!-- Node8 -->
<g id="node8" class="node">
<title>Node8</title>
<g id="a_node8"><a xlink:title=" ">
<polygon fill="none" stroke="#bfbfbf" points="792.5,-56.5 792.5,-75.5 927.5,-75.5 927.5,-56.5 792.5,-56.5"/>
<text text-anchor="middle" x="860" y="-63.5" font-family="FreeSans.ttf" font-size="10.00">gazebo/math/Vector3.hh</text>
</a>
</g>
</g>
<!-- Node2&#45;&gt;Node8 -->
<g id="edge7" class="edge">
<title>Node2&#45;&gt;Node8</title>
<path fill="none" stroke="midnightblue" d="M1118.35,-112.44C1064.13,-102.9 976.45,-87.48 918.52,-77.29"/>
<polygon fill="midnightblue" stroke="midnightblue" points="918.87,-73.8 908.42,-75.52 917.66,-80.7 918.87,-73.8"/>
</g>
<!-- Node9 -->
<g id="node9" class="node">
<title>Node9</title>
<g id="a_node9"><a xlink:title=" ">
<polygon fill="none" stroke="#bfbfbf" points="946,-56.5 946,-75.5 1082,-75.5 1082,-56.5 946,-56.5"/>
<text text-anchor="middle" x="1014" y="-63.5" font-family="FreeSans.ttf" font-size="10.00">gazebo/math/Matrix3.hh</text>
</a>
</g>
</g>
<!-- Node2&#45;&gt;Node9 -->
<g id="edge8" class="edge">
<title>Node2&#45;&gt;Node9</title>
<path fill="none" stroke="midnightblue" d="M1142.76,-112.44C1117.13,-103.4 1076.51,-89.06 1047.76,-78.92"/>
<polygon fill="midnightblue" stroke="midnightblue" points="1048.72,-75.54 1038.13,-75.52 1046.39,-82.15 1048.72,-75.54"/>
</g>
<!-- Node10 -->
<g id="node10" class="node">
<title>Node10</title>
<g id="a_node10"><a xlink:title=" ">
<polygon fill="none" stroke="#bfbfbf" points="1100,-56.5 1100,-75.5 1234,-75.5 1234,-56.5 1100,-56.5"/>
<text text-anchor="middle" x="1167" y="-63.5" font-family="FreeSans.ttf" font-size="10.00">yarp/dev/DeviceDriver.h</text>
</a>
</g>
</g>
<!-- Node2&#45;&gt;Node10 -->
<g id="edge9" class="edge">
<title>Node2&#45;&gt;Node10</title>
<path fill="none" stroke="midnightblue" d="M1167,-112.08C1167,-105.01 1167,-94.86 1167,-85.99"/>
<polygon fill="midnightblue" stroke="midnightblue" points="1170.5,-85.75 1167,-75.75 1163.5,-85.75 1170.5,-85.75"/>
</g>
<!-- Node11 -->
<g id="node11" class="node">
<title>Node11</title>
<g id="a_node11"><a xlink:title=" ">
<polygon fill="none" stroke="#bfbfbf" points="1252,-56.5 1252,-75.5 1392,-75.5 1392,-56.5 1252,-56.5"/>
<text text-anchor="middle" x="1322" y="-63.5" font-family="FreeSans.ttf" font-size="10.00">yarp/dev/IAnalogSensor.h</text>
</a>
</g>
</g>
<!-- Node2&#45;&gt;Node11 -->
<g id="edge10" class="edge">
<title>Node2&#45;&gt;Node11</title>
<path fill="none" stroke="midnightblue" d="M1191.56,-112.44C1217.52,-103.4 1258.67,-89.06 1287.8,-78.92"/>
<polygon fill="midnightblue" stroke="midnightblue" points="1289.26,-82.11 1297.55,-75.52 1286.96,-75.5 1289.26,-82.11"/>
</g>
<!-- Node12 -->
<g id="node12" class="node">
<title>Node12</title>
<g id="a_node12"><a xlink:title=" ">
<polygon fill="none" stroke="#bfbfbf" points="1410.5,-56.5 1410.5,-75.5 1559.5,-75.5 1559.5,-56.5 1410.5,-56.5"/>
<text text-anchor="middle" x="1485" y="-63.5" font-family="FreeSans.ttf" font-size="10.00">yarp/dev/IPreciselyTimed.h</text>
</a>
</g>
</g>
<!-- Node2&#45;&gt;Node12 -->
<g id="edge11" class="edge">
<title>Node2&#45;&gt;Node12</title>
<path fill="none" stroke="midnightblue" d="M1217.39,-112.44C1273.68,-102.89 1364.75,-87.42 1424.76,-77.23"/>
<polygon fill="midnightblue" stroke="midnightblue" points="1425.57,-80.64 1434.85,-75.52 1424.4,-73.74 1425.57,-80.64"/>
</g>
<!-- Node13 -->
<g id="node13" class="node">
<title>Node13</title>
<g id="a_node13"><a xlink:title=" ">
<polygon fill="none" stroke="#bfbfbf" points="1578,-56.5 1578,-75.5 1674,-75.5 1674,-56.5 1578,-56.5"/>
<text text-anchor="middle" x="1626" y="-63.5" font-family="FreeSans.ttf" font-size="10.00">yarp/os/Stamp.h</text>
</a>
</g>
</g>
<!-- Node2&#45;&gt;Node13 -->
<g id="edge12" class="edge">
<title>Node2&#45;&gt;Node13</title>
<path fill="none" stroke="midnightblue" d="M1219.22,-113.15C1222.19,-112.75 1225.13,-112.36 1228,-112 1378.75,-92.91 1417.32,-95.66 1568,-76 1568.1,-75.99 1568.2,-75.97 1568.3,-75.96"/>
<polygon fill="midnightblue" stroke="midnightblue" points="1568.49,-79.47 1577.92,-74.64 1567.54,-72.53 1568.49,-79.47"/>
</g>
<!-- Node14 -->
<g id="node14" class="node">
<title>Node14</title>
<g id="a_node14"><a xlink:title=" ">
<polygon fill="none" stroke="#bfbfbf" points="1692,-56.5 1692,-75.5 1790,-75.5 1790,-56.5 1692,-56.5"/>
<text text-anchor="middle" x="1741" y="-63.5" font-family="FreeSans.ttf" font-size="10.00">yarp/sig/Vector.h</text>
</a>
</g>
</g>
<!-- Node2&#45;&gt;Node14 -->
<g id="edge13" class="edge">
<title>Node2&#45;&gt;Node14</title>
<path fill="none" stroke="midnightblue" d="M1219.21,-113.06C1222.18,-112.68 1225.13,-112.33 1228,-112 1426.32,-89.55 1479.81,-99.24 1681.94,-76.04"/>
<polygon fill="midnightblue" stroke="midnightblue" points="1682.46,-79.5 1691.99,-74.87 1681.65,-72.55 1682.46,-79.5"/>
</g>
<!-- Node15 -->
<g id="node15" class="node">
<title>Node15</title>
<g id="a_node15"><a xlink:href="Handler_8hh.html" target="_top" xlink:title=" ">
<polygon fill="none" stroke="black" points="1808,-56.5 1808,-75.5 1972,-75.5 1972,-56.5 1808,-56.5"/>
<text text-anchor="middle" x="1890" y="-63.5" font-family="FreeSans.ttf" font-size="10.00">GazeboYarpPlugins/Handler.hh</text>
</a>
</g>
</g>
<!-- Node2&#45;&gt;Node15 -->
<g id="edge14" class="edge">
<title>Node2&#45;&gt;Node15</title>
<path fill="none" stroke="midnightblue" d="M1219.21,-113C1222.18,-112.64 1225.13,-112.3 1228,-112 1477.55,-85.77 1543.81,-96.23 1797.41,-76.1"/>
<polygon fill="midnightblue" stroke="midnightblue" points="1797.98,-79.56 1807.67,-75.27 1797.42,-72.59 1797.98,-79.56"/>
</g>
<!-- Node19 -->
<g id="node19" class="node">
<title>Node19</title>
<g id="a_node19"><a xlink:title=" ">
<polygon fill="none" stroke="#bfbfbf" points="2100,-0.5 2100,-19.5 2148,-19.5 2148,-0.5 2100,-0.5"/>
<text text-anchor="middle" x="2124" y="-7.5" font-family="FreeSans.ttf" font-size="10.00">mutex</text>
</a>
</g>
</g>
<!-- Node2&#45;&gt;Node19 -->
<g id="edge24" class="edge">
<title>Node2&#45;&gt;Node19</title>
<path fill="none" stroke="midnightblue" d="M1219.2,-112.95C1222.17,-112.6 1225.12,-112.28 1228,-112 1394.73,-95.75 1818.17,-115.37 1981,-76 2025.81,-65.17 2073.81,-40.29 2101.23,-24.65"/>
<polygon fill="midnightblue" stroke="midnightblue" points="2103.15,-27.58 2110.04,-19.54 2099.63,-21.53 2103.15,-27.58"/>
</g>
<!-- Node22 -->
<g id="node22" class="node">
<title>Node22</title>
<g id="a_node22"><a xlink:href="common_8h.html" target="_top" xlink:title=" ">
<polygon fill="none" stroke="black" points="2106,-56.5 2106,-75.5 2270,-75.5 2270,-56.5 2106,-56.5"/>
<text text-anchor="middle" x="2188" y="-63.5" font-family="FreeSans.ttf" font-size="10.00">GazeboYarpPlugins/common.h</text>
</a>
</g>
</g>
<!-- Node2&#45;&gt;Node22 -->
<g id="edge21" class="edge">
<title>Node2&#45;&gt;Node22</title>
<path fill="none" stroke="midnightblue" d="M1219.2,-112.94C1222.17,-112.59 1225.12,-112.27 1228,-112 1599.12,-76.75 1693.85,-97.72 2066,-76 2075.7,-75.43 2085.83,-74.78 2095.92,-74.1"/>
<polygon fill="midnightblue" stroke="midnightblue" points="2096.26,-77.58 2105.99,-73.4 2095.77,-70.6 2096.26,-77.58"/>
</g>
<!-- Node16 -->
<g id="node16" class="node">
<title>Node16</title>
<g id="a_node16"><a xlink:title=" ">
<polygon fill="none" stroke="#bfbfbf" points="1497,-0.5 1497,-19.5 1535,-19.5 1535,-0.5 1497,-0.5"/>
<text text-anchor="middle" x="1516" y="-7.5" font-family="FreeSans.ttf" font-size="10.00">map</text>
</a>
</g>
</g>
<!-- Node15&#45;&gt;Node16 -->
<g id="edge15" class="edge">
<title>Node15&#45;&gt;Node16</title>
<path fill="none" stroke="midnightblue" d="M1811.52,-56.47C1730.09,-47.34 1607.17,-32.69 1544.96,-19.8"/>
<polygon fill="midnightblue" stroke="midnightblue" points="1545.67,-16.37 1535.15,-17.66 1544.18,-23.21 1545.67,-16.37"/>
</g>
<!-- Node17 -->
<g id="node17" class="node">
<title>Node17</title>
<g id="a_node17"><a xlink:title=" ">
<polygon fill="none" stroke="#bfbfbf" points="1553.5,-0.5 1553.5,-19.5 1646.5,-19.5 1646.5,-0.5 1553.5,-0.5"/>
<text text-anchor="middle" x="1600" y="-7.5" font-family="FreeSans.ttf" font-size="10.00">sdf/sdf_config.h</text>
</a>
</g>
</g>
<!-- Node15&#45;&gt;Node17 -->
<g id="edge16" class="edge">
<title>Node15&#45;&gt;Node17</title>
<path fill="none" stroke="midnightblue" d="M1844.05,-56.44C1792.93,-46.92 1710.35,-31.55 1655.62,-21.36"/>
<polygon fill="midnightblue" stroke="midnightblue" points="1656.21,-17.91 1645.74,-19.52 1654.93,-24.79 1656.21,-17.91"/>
</g>
<!-- Node18 -->
<g id="node18" class="node">
<title>Node18</title>
<g id="a_node18"><a xlink:title=" ">
<polygon fill="none" stroke="#bfbfbf" points="1664.5,-0.5 1664.5,-19.5 1783.5,-19.5 1783.5,-0.5 1664.5,-0.5"/>
<text text-anchor="middle" x="1724" y="-7.5" font-family="FreeSans.ttf" font-size="10.00">boost/shared_ptr.hpp</text>
</a>
</g>
</g>
<!-- Node15&#45;&gt;Node18 -->
<g id="edge17" class="edge">
<title>Node15&#45;&gt;Node18</title>
<path fill="none" stroke="midnightblue" d="M1863.7,-56.44C1835.65,-47.32 1791.06,-32.81 1759.82,-22.65"/>
<polygon fill="midnightblue" stroke="midnightblue" points="1760.77,-19.28 1750.18,-19.52 1758.61,-25.94 1760.77,-19.28"/>
</g>
<!-- Node15&#45;&gt;Node19 -->
<g id="edge18" class="edge">
<title>Node15&#45;&gt;Node19</title>
<path fill="none" stroke="midnightblue" d="M1930.55,-56.49C1969.17,-48.27 2029.16,-35.15 2090.1,-20.14"/>
<polygon fill="midnightblue" stroke="midnightblue" points="2091.02,-23.52 2099.88,-17.71 2089.33,-16.72 2091.02,-23.52"/>
</g>
<!-- Node20 -->
<g id="node20" class="node">
<title>Node20</title>
<g id="a_node20"><a xlink:title=" ">
<polygon fill="none" stroke="#bfbfbf" points="1802,-0.5 1802,-19.5 1924,-19.5 1924,-0.5 1802,-0.5"/>
<text text-anchor="middle" x="1863" y="-7.5" font-family="FreeSans.ttf" font-size="10.00">yarp/dev/PolyDriver.h</text>
</a>
</g>
</g>
<!-- Node15&#45;&gt;Node20 -->
<g id="edge19" class="edge">
<title>Node15&#45;&gt;Node20</title>
<path fill="none" stroke="midnightblue" d="M1885.54,-56.08C1881.85,-48.69 1876.48,-37.95 1871.91,-28.81"/>
<polygon fill="midnightblue" stroke="midnightblue" points="1874.98,-27.13 1867.38,-19.75 1868.72,-30.26 1874.98,-27.13"/>
</g>
<!-- Node21 -->
<g id="node21" class="node">
<title>Node21</title>
<g id="a_node21"><a xlink:title=" ">
<polygon fill="none" stroke="#bfbfbf" points="1942,-0.5 1942,-19.5 2082,-19.5 2082,-0.5 1942,-0.5"/>
<text text-anchor="middle" x="2012" y="-7.5" font-family="FreeSans.ttf" font-size="10.00">yarp/dev/PolyDriverList.h</text>
</a>
</g>
</g>
<!-- Node15&#45;&gt;Node21 -->
<g id="edge20" class="edge">
<title>Node15&#45;&gt;Node21</title>
<path fill="none" stroke="midnightblue" d="M1909.33,-56.44C1929.32,-47.6 1960.74,-33.69 1983.56,-23.59"/>
<polygon fill="midnightblue" stroke="midnightblue" points="1985.03,-26.76 1992.76,-19.52 1982.2,-20.36 1985.03,-26.76"/>
</g>
<!-- Node23 -->
<g id="node23" class="node">
<title>Node23</title>
<g id="a_node23"><a xlink:title=" ">
<polygon fill="none" stroke="#bfbfbf" points="2166,-0.5 2166,-19.5 2210,-19.5 2210,-0.5 2166,-0.5"/>
<text text-anchor="middle" x="2188" y="-7.5" font-family="FreeSans.ttf" font-size="10.00">string</text>
</a>
</g>
</g>
<!-- Node22&#45;&gt;Node23 -->
<g id="edge22" class="edge">
<title>Node22&#45;&gt;Node23</title>
<path fill="none" stroke="midnightblue" d="M2188,-56.08C2188,-49.01 2188,-38.86 2188,-29.99"/>
<polygon fill="midnightblue" stroke="midnightblue" points="2191.5,-29.75 2188,-19.75 2184.5,-29.75 2191.5,-29.75"/>
</g>
<!-- Node24 -->
<g id="node24" class="node">
<title>Node24</title>
<g id="a_node24"><a xlink:title=" ">
<polygon fill="none" stroke="#bfbfbf" points="2228.5,-0.5 2228.5,-19.5 2275.5,-19.5 2275.5,-0.5 2228.5,-0.5"/>
<text text-anchor="middle" x="2252" y="-7.5" font-family="FreeSans.ttf" font-size="10.00">cmath</text>
</a>
</g>
</g>
<!-- Node22&#45;&gt;Node24 -->
<g id="edge23" class="edge">
<title>Node22&#45;&gt;Node24</title>
<path fill="none" stroke="midnightblue" d="M2198.28,-56.32C2207.84,-48.26 2222.28,-36.08 2233.78,-26.37"/>
<polygon fill="midnightblue" stroke="midnightblue" points="2236.14,-28.96 2241.53,-19.83 2231.63,-23.61 2236.14,-28.96"/>
</g>
</g>
</svg>
