<?xml version="1.0" encoding="UTF-8" standalone="no"?>
<!DOCTYPE svg PUBLIC "-//W3C//DTD SVG 1.1//EN"
 "http://www.w3.org/Graphics/SVG/1.1/DTD/svg11.dtd">
<!-- Generated by graphviz version 2.43.0 (0)
 -->
<!-- Title: CameraDriver.h Pages: 1 -->
<svg width="1318pt" height="84pt"
 viewBox="0.00 0.00 1318.00 84.00" xmlns="http://www.w3.org/2000/svg" xmlns:xlink="http://www.w3.org/1999/xlink">
<g id="graph0" class="graph" transform="scale(1 1) rotate(0) translate(4 80)">
<title>CameraDriver.h</title>
<!-- Node1 -->
<g id="node1" class="node">
<title>Node1</title>
<g id="a_node1"><a xlink:title=" ">
<polygon fill="#bfbfbf" stroke="black" points="639.5,-56.5 639.5,-75.5 732.5,-75.5 732.5,-56.5 639.5,-56.5"/>
<text text-anchor="middle" x="686" y="-63.5" font-family="FreeSans.ttf" font-size="10.00">CameraDriver.h</text>
</a>
</g>
</g>
<!-- Node2 -->
<g id="node2" class="node">
<title>Node2</title>
<g id="a_node2"><a xlink:title=" ">
<polygon fill="none" stroke="#bfbfbf" points="0,-0.5 0,-19.5 134,-19.5 134,-0.5 0,-0.5"/>
<text text-anchor="middle" x="67" y="-7.5" font-family="FreeSans.ttf" font-size="10.00">yarp/dev/DeviceDriver.h</text>
</a>
</g>
</g>
<!-- Node1&#45;&gt;Node2 -->
<g id="edge1" class="edge">
<title>Node1&#45;&gt;Node2</title>
<path fill="none" stroke="midnightblue" d="M639.46,-61.7C547.17,-55.03 334.19,-39.04 144.29,-20.1"/>
<polygon fill="midnightblue" stroke="midnightblue" points="144.42,-16.59 134.12,-19.08 143.72,-23.56 144.42,-16.59"/>
</g>
<!-- Node3 -->
<g id="node3" class="node">
<title>Node3</title>
<g id="a_node3"><a xlink:title=" ">
<polygon fill="none" stroke="#bfbfbf" points="152,-0.5 152,-19.5 342,-19.5 342,-0.5 152,-0.5"/>
<text text-anchor="middle" x="247" y="-7.5" font-family="FreeSans.ttf" font-size="10.00">yarp/dev/FrameGrabberInterfaces.h</text>
</a>
</g>
</g>
<!-- Node1&#45;&gt;Node3 -->
<g id="edge2" class="edge">
<title>Node1&#45;&gt;Node3</title>
<path fill="none" stroke="midnightblue" d="M639.43,-59.27C564.89,-50.1 417.86,-32.02 326.46,-20.77"/>
<polygon fill="midnightblue" stroke="midnightblue" points="326.77,-17.29 316.42,-19.54 325.92,-24.23 326.77,-17.29"/>
</g>
<!-- Node4 -->
<g id="node4" class="node">
<title>Node4</title>
<g id="a_node4"><a xlink:title=" ">
<polygon fill="none" stroke="#bfbfbf" points="360,-0.5 360,-19.5 456,-19.5 456,-0.5 360,-0.5"/>
<text text-anchor="middle" x="408" y="-7.5" font-family="FreeSans.ttf" font-size="10.00">yarp/os/Stamp.h</text>
</a>
</g>
</g>
<!-- Node1&#45;&gt;Node4 -->
<g id="edge3" class="edge">
<title>Node1&#45;&gt;Node4</title>
<path fill="none" stroke="midnightblue" d="M641.95,-56.44C593.15,-46.96 514.44,-31.67 461.97,-21.48"/>
<polygon fill="midnightblue" stroke="midnightblue" points="462.33,-17.99 451.84,-19.52 460.99,-24.86 462.33,-17.99"/>
</g>
<!-- Node5 -->
<g id="node5" class="node">
<title>Node5</title>
<g id="a_node5"><a xlink:title=" ">
<polygon fill="none" stroke="#bfbfbf" points="474.5,-0.5 474.5,-19.5 623.5,-19.5 623.5,-0.5 474.5,-0.5"/>
<text text-anchor="middle" x="549" y="-7.5" font-family="FreeSans.ttf" font-size="10.00">yarp/dev/IPreciselyTimed.h</text>
</a>
</g>
</g>
<!-- Node1&#45;&gt;Node5 -->
<g id="edge4" class="edge">
<title>Node1&#45;&gt;Node5</title>
<path fill="none" stroke="midnightblue" d="M664.29,-56.44C641.65,-47.52 605.93,-33.44 580.25,-23.32"/>
<polygon fill="midnightblue" stroke="midnightblue" points="581.19,-19.93 570.61,-19.52 578.63,-26.44 581.19,-19.93"/>
</g>
<!-- Node6 -->
<g id="node6" class="node">
<title>Node6</title>
<g id="a_node6"><a xlink:title=" ">
<polygon fill="none" stroke="#bfbfbf" points="641.5,-0.5 641.5,-19.5 730.5,-19.5 730.5,-0.5 641.5,-0.5"/>
<text text-anchor="middle" x="686" y="-7.5" font-family="FreeSans.ttf" font-size="10.00">yarp/os/Time.h</text>
</a>
</g>
</g>
<!-- Node1&#45;&gt;Node6 -->
<g id="edge5" class="edge">
<title>Node1&#45;&gt;Node6</title>
<path fill="none" stroke="midnightblue" d="M686,-56.08C686,-49.01 686,-38.86 686,-29.99"/>
<polygon fill="midnightblue" stroke="midnightblue" points="689.5,-29.75 686,-19.75 682.5,-29.75 689.5,-29.75"/>
</g>
<!-- Node7 -->
<g id="node7" class="node">
<title>Node7</title>
<g id="a_node7"><a xlink:title=" ">
<polygon fill="none" stroke="#bfbfbf" points="748.5,-0.5 748.5,-19.5 867.5,-19.5 867.5,-0.5 748.5,-0.5"/>
<text text-anchor="middle" x="808" y="-7.5" font-family="FreeSans.ttf" font-size="10.00">boost/shared_ptr.hpp</text>
</a>
</g>
</g>
<!-- Node1&#45;&gt;Node7 -->
<g id="edge6" class="edge">
<title>Node1&#45;&gt;Node7</title>
<path fill="none" stroke="midnightblue" d="M705.33,-56.44C725.32,-47.6 756.74,-33.69 779.56,-23.59"/>
<polygon fill="midnightblue" stroke="midnightblue" points="781.03,-26.76 788.76,-19.52 778.2,-20.36 781.03,-26.76"/>
</g>
<!-- Node8 -->
<g id="node8" class="node">
<title>Node8</title>
<g id="a_node8"><a xlink:title=" ">
<polygon fill="none" stroke="#bfbfbf" points="886,-0.5 886,-19.5 1044,-19.5 1044,-0.5 886,-0.5"/>
<text text-anchor="middle" x="965" y="-7.5" font-family="FreeSans.ttf" font-size="10.00">gazebo/rendering/Camera.hh</text>
</a>
</g>
</g>
<!-- Node1&#45;&gt;Node8 -->
<g id="edge7" class="edge">
<title>Node1&#45;&gt;Node8</title>
<path fill="none" stroke="midnightblue" d="M730.21,-56.44C779.29,-46.94 858.51,-31.61 911.16,-21.42"/>
<polygon fill="midnightblue" stroke="midnightblue" points="911.85,-24.85 921,-19.52 910.52,-17.98 911.85,-24.85"/>
</g>
<!-- Node9 -->
<g id="node9" class="node">
<title>Node9</title>
<g id="a_node9"><a xlink:title=" ">
<polygon fill="none" stroke="#bfbfbf" points="1062.5,-0.5 1062.5,-19.5 1243.5,-19.5 1243.5,-0.5 1062.5,-0.5"/>
<text text-anchor="middle" x="1153" y="-7.5" font-family="FreeSans.ttf" font-size="10.00">gazebo/sensors/CameraSensor.hh</text>
</a>
</g>
</g>
<!-- Node1&#45;&gt;Node9 -->
<g id="edge8" class="edge">
<title>Node1&#45;&gt;Node9</title>
<path fill="none" stroke="midnightblue" d="M732.92,-59.58C811.55,-50.48 970.97,-32.05 1069.23,-20.69"/>
<polygon fill="midnightblue" stroke="midnightblue" points="1069.89,-24.13 1079.42,-19.51 1069.09,-17.18 1069.89,-24.13"/>
</g>
<!-- Node10 -->
<g id="node10" class="node">
<title>Node10</title>
<g id="a_node10"><a xlink:title=" ">
<polygon fill="none" stroke="#bfbfbf" points="1262,-0.5 1262,-19.5 1310,-19.5 1310,-0.5 1262,-0.5"/>
<text text-anchor="middle" x="1286" y="-7.5" font-family="FreeSans.ttf" font-size="10.00">mutex</text>
</a>
</g>
</g>
<!-- Node1&#45;&gt;Node10 -->
<g id="edge9" class="edge">
<title>Node1&#45;&gt;Node10</title>
<path fill="none" stroke="midnightblue" d="M732.67,-64.24C828.46,-62.05 1054.19,-53.63 1251.97,-19.85"/>
<polygon fill="midnightblue" stroke="midnightblue" points="1252.71,-23.27 1261.97,-18.11 1251.52,-16.37 1252.71,-23.27"/>
</g>
</g>
</svg>
