<?xml version="1.0" encoding="UTF-8" standalone="no"?>
<!DOCTYPE svg PUBLIC "-//W3C//DTD SVG 1.1//EN"
 "http://www.w3.org/Graphics/SVG/1.1/DTD/svg11.dtd">
<!-- Generated by graphviz version 2.43.0 (0)
 -->
<!-- Title: Camera.hh Pages: 1 -->
<svg width="882pt" height="84pt"
 viewBox="0.00 0.00 882.00 84.00" xmlns="http://www.w3.org/2000/svg" xmlns:xlink="http://www.w3.org/1999/xlink">
<g id="graph0" class="graph" transform="scale(1 1) rotate(0) translate(4 80)">
<title>Camera.hh</title>
<!-- Node1 -->
<g id="node1" class="node">
<title>Node1</title>
<g id="a_node1"><a xlink:title=" ">
<polygon fill="#bfbfbf" stroke="black" points="442,-56.5 442,-75.5 512,-75.5 512,-56.5 442,-56.5"/>
<text text-anchor="middle" x="477" y="-63.5" font-family="FreeSans.ttf" font-size="10.00">Camera.hh</text>
</a>
</g>
</g>
<!-- Node2 -->
<g id="node2" class="node">
<title>Node2</title>
<g id="a_node2"><a xlink:title=" ">
<polygon fill="none" stroke="#bfbfbf" points="0,-0.5 0,-19.5 146,-19.5 146,-0.5 0,-0.5"/>
<text text-anchor="middle" x="73" y="-7.5" font-family="FreeSans.ttf" font-size="10.00">gazebo/common/Plugin.hh</text>
</a>
</g>
</g>
<!-- Node1&#45;&gt;Node2 -->
<g id="edge1" class="edge">
<title>Node1&#45;&gt;Node2</title>
<path fill="none" stroke="midnightblue" d="M441.85,-60.3C376.39,-51.55 234.51,-32.59 147.04,-20.9"/>
<polygon fill="midnightblue" stroke="midnightblue" points="147.29,-17.4 136.92,-19.54 146.37,-24.34 147.29,-17.4"/>
</g>
<!-- Node3 -->
<g id="node3" class="node">
<title>Node3</title>
<g id="a_node3"><a xlink:title=" ">
<polygon fill="none" stroke="#bfbfbf" points="164,-0.5 164,-19.5 340,-19.5 340,-0.5 164,-0.5"/>
<text text-anchor="middle" x="252" y="-7.5" font-family="FreeSans.ttf" font-size="10.00">gazebo/plugins/CameraPlugin.hh</text>
</a>
</g>
</g>
<!-- Node1&#45;&gt;Node3 -->
<g id="edge2" class="edge">
<title>Node1&#45;&gt;Node3</title>
<path fill="none" stroke="midnightblue" d="M441.84,-56.56C402.94,-47.23 340.12,-32.15 297.49,-21.92"/>
<polygon fill="midnightblue" stroke="midnightblue" points="298.19,-18.49 287.65,-19.56 296.56,-25.29 298.19,-18.49"/>
</g>
<!-- Node4 -->
<g id="node4" class="node">
<title>Node4</title>
<g id="a_node4"><a xlink:title=" ">
<polygon fill="none" stroke="#bfbfbf" points="358,-0.5 358,-19.5 464,-19.5 464,-0.5 358,-0.5"/>
<text text-anchor="middle" x="411" y="-7.5" font-family="FreeSans.ttf" font-size="10.00">yarp/os/Network.h</text>
</a>
</g>
</g>
<!-- Node1&#45;&gt;Node4 -->
<g id="edge3" class="edge">
<title>Node1&#45;&gt;Node4</title>
<path fill="none" stroke="midnightblue" d="M466.4,-56.32C456.54,-48.26 441.65,-36.08 429.78,-26.37"/>
<polygon fill="midnightblue" stroke="midnightblue" points="431.75,-23.46 421.8,-19.83 427.32,-28.88 431.75,-23.46"/>
</g>
<!-- Node5 -->
<g id="node5" class="node">
<title>Node5</title>
<g id="a_node5"><a xlink:title=" ">
<polygon fill="none" stroke="#bfbfbf" points="482,-0.5 482,-19.5 604,-19.5 604,-0.5 482,-0.5"/>
<text text-anchor="middle" x="543" y="-7.5" font-family="FreeSans.ttf" font-size="10.00">yarp/dev/PolyDriver.h</text>
</a>
</g>
</g>
<!-- Node1&#45;&gt;Node5 -->
<g id="edge4" class="edge">
<title>Node1&#45;&gt;Node5</title>
<path fill="none" stroke="midnightblue" d="M487.6,-56.32C497.46,-48.26 512.35,-36.08 524.22,-26.37"/>
<polygon fill="midnightblue" stroke="midnightblue" points="526.68,-28.88 532.2,-19.83 522.25,-23.46 526.68,-28.88"/>
</g>
<!-- Node6 -->
<g id="node6" class="node">
<title>Node6</title>
<g id="a_node6"><a xlink:title=" ">
<polygon fill="none" stroke="#bfbfbf" points="622,-0.5 622,-19.5 812,-19.5 812,-0.5 622,-0.5"/>
<text text-anchor="middle" x="717" y="-7.5" font-family="FreeSans.ttf" font-size="10.00">yarp/dev/FrameGrabberInterfaces.h</text>
</a>
</g>
</g>
<!-- Node1&#45;&gt;Node6 -->
<g id="edge5" class="edge">
<title>Node1&#45;&gt;Node6</title>
<path fill="none" stroke="midnightblue" d="M512.16,-57.09C553.64,-47.76 622.82,-32.19 669.16,-21.76"/>
<polygon fill="midnightblue" stroke="midnightblue" points="669.99,-25.17 678.97,-19.56 668.45,-18.34 669.99,-25.17"/>
</g>
<!-- Node7 -->
<g id="node7" class="node">
<title>Node7</title>
<g id="a_node7"><a xlink:title=" ">
<polygon fill="none" stroke="#bfbfbf" points="830,-0.5 830,-19.5 874,-19.5 874,-0.5 830,-0.5"/>
<text text-anchor="middle" x="852" y="-7.5" font-family="FreeSans.ttf" font-size="10.00">string</text>
</a>
</g>
</g>
<!-- Node1&#45;&gt;Node7 -->
<g id="edge6" class="edge">
<title>Node1&#45;&gt;Node7</title>
<path fill="none" stroke="midnightblue" d="M512.46,-62.16C573.46,-56.88 702.28,-44.05 819.86,-19.96"/>
<polygon fill="midnightblue" stroke="midnightblue" points="820.67,-23.36 829.75,-17.9 819.25,-16.51 820.67,-23.36"/>
</g>
</g>
</svg>
