<?xml version="1.0" encoding="UTF-8" standalone="no"?>
<!DOCTYPE svg PUBLIC "-//W3C//DTD SVG 1.1//EN"
 "http://www.w3.org/Graphics/SVG/1.1/DTD/svg11.dtd">
<!-- Generated by graphviz version 2.43.0 (0)
 -->
<!-- Title: CameraDriver.cpp Pages: 1 -->
<svg width="2054pt" height="140pt"
 viewBox="0.00 0.00 2054.00 140.00" xmlns="http://www.w3.org/2000/svg" xmlns:xlink="http://www.w3.org/1999/xlink">
<g id="graph0" class="graph" transform="scale(1 1) rotate(0) translate(4 136)">
<title>CameraDriver.cpp</title>
<!-- Node1 -->
<g id="node1" class="node">
<title>Node1</title>
<g id="a_node1"><a xlink:title=" ">
<polygon fill="#bfbfbf" stroke="black" points="1566.5,-112.5 1566.5,-131.5 1670.5,-131.5 1670.5,-112.5 1566.5,-112.5"/>
<text text-anchor="middle" x="1618.5" y="-119.5" font-family="FreeSans.ttf" font-size="10.00">CameraDriver.cpp</text>
</a>
</g>
</g>
<!-- Node2 -->
<g id="node2" class="node">
<title>Node2</title>
<g id="a_node2"><a xlink:href="CameraDriver_8h.html" target="_top" xlink:title=" ">
<polygon fill="none" stroke="black" points="731,-56.5 731,-75.5 824,-75.5 824,-56.5 731,-56.5"/>
<text text-anchor="middle" x="777.5" y="-63.5" font-family="FreeSans.ttf" font-size="10.00">CameraDriver.h</text>
</a>
</g>
</g>
<!-- Node1&#45;&gt;Node2 -->
<g id="edge1" class="edge">
<title>Node1&#45;&gt;Node2</title>
<path fill="none" stroke="midnightblue" d="M1566.21,-117.64C1416.86,-108.05 989.17,-80.59 834.33,-70.65"/>
<polygon fill="midnightblue" stroke="midnightblue" points="834.3,-67.14 824.1,-69.99 833.85,-74.13 834.3,-67.14"/>
</g>
<!-- Node10 -->
<g id="node10" class="node">
<title>Node10</title>
<g id="a_node10"><a xlink:title=" ">
<polygon fill="none" stroke="#bfbfbf" points="924,-0.5 924,-19.5 1105,-19.5 1105,-0.5 924,-0.5"/>
<text text-anchor="middle" x="1014.5" y="-7.5" font-family="FreeSans.ttf" font-size="10.00">gazebo/sensors/CameraSensor.hh</text>
</a>
</g>
</g>
<!-- Node1&#45;&gt;Node10 -->
<g id="edge21" class="edge">
<title>Node1&#45;&gt;Node10</title>
<path fill="none" stroke="midnightblue" d="M1566.34,-112.89C1511.34,-104.22 1422.2,-89.85 1345.5,-76 1246.21,-58.07 1130.65,-34.84 1065.69,-21.56"/>
<polygon fill="midnightblue" stroke="midnightblue" points="1066.2,-18.09 1055.71,-19.51 1064.8,-24.95 1066.2,-18.09"/>
</g>
<!-- Node12 -->
<g id="node12" class="node">
<title>Node12</title>
<g id="a_node12"><a xlink:href="Handler_8hh.html" target="_top" xlink:title=" ">
<polygon fill="none" stroke="black" points="1354.5,-56.5 1354.5,-75.5 1518.5,-75.5 1518.5,-56.5 1354.5,-56.5"/>
<text text-anchor="middle" x="1436.5" y="-63.5" font-family="FreeSans.ttf" font-size="10.00">GazeboYarpPlugins/Handler.hh</text>
</a>
</g>
</g>
<!-- Node1&#45;&gt;Node12 -->
<g id="edge11" class="edge">
<title>Node1&#45;&gt;Node12</title>
<path fill="none" stroke="midnightblue" d="M1589.66,-112.44C1558.64,-103.24 1509.17,-88.56 1474.88,-78.39"/>
<polygon fill="midnightblue" stroke="midnightblue" points="1475.79,-75.01 1465.2,-75.52 1473.79,-81.72 1475.79,-75.01"/>
</g>
<!-- Node17 -->
<g id="node17" class="node">
<title>Node17</title>
<g id="a_node17"><a xlink:href="common_8h.html" target="_top" xlink:title=" ">
<polygon fill="none" stroke="black" points="1536.5,-56.5 1536.5,-75.5 1700.5,-75.5 1700.5,-56.5 1536.5,-56.5"/>
<text text-anchor="middle" x="1618.5" y="-63.5" font-family="FreeSans.ttf" font-size="10.00">GazeboYarpPlugins/common.h</text>
</a>
</g>
</g>
<!-- Node1&#45;&gt;Node17 -->
<g id="edge18" class="edge">
<title>Node1&#45;&gt;Node17</title>
<path fill="none" stroke="midnightblue" d="M1618.5,-112.08C1618.5,-105.01 1618.5,-94.86 1618.5,-85.99"/>
<polygon fill="midnightblue" stroke="midnightblue" points="1622,-85.75 1618.5,-75.75 1615,-85.75 1622,-85.75"/>
</g>
<!-- Node20 -->
<g id="node20" class="node">
<title>Node20</title>
<g id="a_node20"><a xlink:title=" ">
<polygon fill="none" stroke="#bfbfbf" points="1718.5,-56.5 1718.5,-75.5 1810.5,-75.5 1810.5,-56.5 1718.5,-56.5"/>
<text text-anchor="middle" x="1764.5" y="-63.5" font-family="FreeSans.ttf" font-size="10.00">yarp/os/Value.h</text>
</a>
</g>
</g>
<!-- Node1&#45;&gt;Node20 -->
<g id="edge22" class="edge">
<title>Node1&#45;&gt;Node20</title>
<path fill="none" stroke="midnightblue" d="M1641.63,-112.44C1665.98,-103.44 1704.51,-89.19 1731.92,-79.05"/>
<polygon fill="midnightblue" stroke="midnightblue" points="1733.31,-82.27 1741.47,-75.52 1730.88,-75.7 1733.31,-82.27"/>
</g>
<!-- Node21 -->
<g id="node21" class="node">
<title>Node21</title>
<g id="a_node21"><a xlink:title=" ">
<polygon fill="none" stroke="#bfbfbf" points="1828.5,-56.5 1828.5,-75.5 1910.5,-75.5 1910.5,-56.5 1828.5,-56.5"/>
<text text-anchor="middle" x="1869.5" y="-63.5" font-family="FreeSans.ttf" font-size="10.00">yarp/os/Log.h</text>
</a>
</g>
</g>
<!-- Node1&#45;&gt;Node21 -->
<g id="edge23" class="edge">
<title>Node1&#45;&gt;Node21</title>
<path fill="none" stroke="midnightblue" d="M1658.27,-112.44C1702.06,-103.02 1772.51,-87.87 1819.88,-77.68"/>
<polygon fill="midnightblue" stroke="midnightblue" points="1820.87,-81.04 1829.91,-75.52 1819.4,-74.2 1820.87,-81.04"/>
</g>
<!-- Node22 -->
<g id="node22" class="node">
<title>Node22</title>
<g id="a_node22"><a xlink:title=" ">
<polygon fill="none" stroke="#bfbfbf" points="1929,-56.5 1929,-75.5 2046,-75.5 2046,-56.5 1929,-56.5"/>
<text text-anchor="middle" x="1987.5" y="-63.5" font-family="FreeSans.ttf" font-size="10.00">yarp/os/LogStream.h</text>
</a>
</g>
</g>
<!-- Node1&#45;&gt;Node22 -->
<g id="edge24" class="edge">
<title>Node1&#45;&gt;Node22</title>
<path fill="none" stroke="midnightblue" d="M1670.59,-113.38C1735.63,-103.86 1847.07,-87.55 1918.98,-77.03"/>
<polygon fill="midnightblue" stroke="midnightblue" points="1919.9,-80.43 1929.29,-75.52 1918.89,-73.5 1919.9,-80.43"/>
</g>
<!-- Node3 -->
<g id="node3" class="node">
<title>Node3</title>
<g id="a_node3"><a xlink:title=" ">
<polygon fill="none" stroke="#bfbfbf" points="449.5,-0.5 449.5,-19.5 583.5,-19.5 583.5,-0.5 449.5,-0.5"/>
<text text-anchor="middle" x="516.5" y="-7.5" font-family="FreeSans.ttf" font-size="10.00">yarp/dev/DeviceDriver.h</text>
</a>
</g>
</g>
<!-- Node2&#45;&gt;Node3 -->
<g id="edge2" class="edge">
<title>Node2&#45;&gt;Node3</title>
<path fill="none" stroke="midnightblue" d="M736.14,-56.44C690.42,-46.98 616.74,-31.74 567.48,-21.55"/>
<polygon fill="midnightblue" stroke="midnightblue" points="568.16,-18.12 557.66,-19.52 566.75,-24.97 568.16,-18.12"/>
</g>
<!-- Node4 -->
<g id="node4" class="node">
<title>Node4</title>
<g id="a_node4"><a xlink:title=" ">
<polygon fill="none" stroke="#bfbfbf" points="601.5,-0.5 601.5,-19.5 791.5,-19.5 791.5,-0.5 601.5,-0.5"/>
<text text-anchor="middle" x="696.5" y="-7.5" font-family="FreeSans.ttf" font-size="10.00">yarp/dev/FrameGrabberInterfaces.h</text>
</a>
</g>
</g>
<!-- Node2&#45;&gt;Node4 -->
<g id="edge3" class="edge">
<title>Node2&#45;&gt;Node4</title>
<path fill="none" stroke="midnightblue" d="M764.49,-56.32C751.97,-47.98 732.82,-35.21 718.03,-25.35"/>
<polygon fill="midnightblue" stroke="midnightblue" points="719.74,-22.29 709.48,-19.65 715.86,-28.11 719.74,-22.29"/>
</g>
<!-- Node5 -->
<g id="node5" class="node">
<title>Node5</title>
<g id="a_node5"><a xlink:title=" ">
<polygon fill="none" stroke="#bfbfbf" points="809.5,-0.5 809.5,-19.5 905.5,-19.5 905.5,-0.5 809.5,-0.5"/>
<text text-anchor="middle" x="857.5" y="-7.5" font-family="FreeSans.ttf" font-size="10.00">yarp/os/Stamp.h</text>
</a>
</g>
</g>
<!-- Node2&#45;&gt;Node5 -->
<g id="edge4" class="edge">
<title>Node2&#45;&gt;Node5</title>
<path fill="none" stroke="midnightblue" d="M790.35,-56.32C802.72,-47.98 821.63,-35.21 836.24,-25.35"/>
<polygon fill="midnightblue" stroke="midnightblue" points="838.35,-28.15 844.68,-19.65 834.43,-22.35 838.35,-28.15"/>
</g>
<!-- Node6 -->
<g id="node6" class="node">
<title>Node6</title>
<g id="a_node6"><a xlink:title=" ">
<polygon fill="none" stroke="#bfbfbf" points="0,-0.5 0,-19.5 149,-19.5 149,-0.5 0,-0.5"/>
<text text-anchor="middle" x="74.5" y="-7.5" font-family="FreeSans.ttf" font-size="10.00">yarp/dev/IPreciselyTimed.h</text>
</a>
</g>
</g>
<!-- Node2&#45;&gt;Node6 -->
<g id="edge5" class="edge">
<title>Node2&#45;&gt;Node6</title>
<path fill="none" stroke="midnightblue" d="M730.79,-62.18C628.96,-55.91 379.11,-39.85 159.26,-20.13"/>
<polygon fill="midnightblue" stroke="midnightblue" points="159.42,-16.63 149.14,-19.22 158.79,-23.6 159.42,-16.63"/>
</g>
<!-- Node7 -->
<g id="node7" class="node">
<title>Node7</title>
<g id="a_node7"><a xlink:title=" ">
<polygon fill="none" stroke="#bfbfbf" points="167,-0.5 167,-19.5 256,-19.5 256,-0.5 167,-0.5"/>
<text text-anchor="middle" x="211.5" y="-7.5" font-family="FreeSans.ttf" font-size="10.00">yarp/os/Time.h</text>
</a>
</g>
</g>
<!-- Node2&#45;&gt;Node7 -->
<g id="edge6" class="edge">
<title>Node2&#45;&gt;Node7</title>
<path fill="none" stroke="midnightblue" d="M730.68,-62.16C641.99,-56.51 443.2,-42.53 266.29,-20.14"/>
<polygon fill="midnightblue" stroke="midnightblue" points="266.64,-16.66 256.28,-18.87 265.76,-23.6 266.64,-16.66"/>
</g>
<!-- Node8 -->
<g id="node8" class="node">
<title>Node8</title>
<g id="a_node8"><a xlink:title=" ">
<polygon fill="none" stroke="#bfbfbf" points="1190,-0.5 1190,-19.5 1309,-19.5 1309,-0.5 1190,-0.5"/>
<text text-anchor="middle" x="1249.5" y="-7.5" font-family="FreeSans.ttf" font-size="10.00">boost/shared_ptr.hpp</text>
</a>
</g>
</g>
<!-- Node2&#45;&gt;Node8 -->
<g id="edge7" class="edge">
<title>Node2&#45;&gt;Node8</title>
<path fill="none" stroke="midnightblue" d="M824.07,-60.08C897.31,-52.29 1044.16,-36.41 1179.53,-20.1"/>
<polygon fill="midnightblue" stroke="midnightblue" points="1180.16,-23.55 1189.67,-18.87 1179.32,-16.6 1180.16,-23.55"/>
</g>
<!-- Node9 -->
<g id="node9" class="node">
<title>Node9</title>
<g id="a_node9"><a xlink:title=" ">
<polygon fill="none" stroke="#bfbfbf" points="273.5,-0.5 273.5,-19.5 431.5,-19.5 431.5,-0.5 273.5,-0.5"/>
<text text-anchor="middle" x="352.5" y="-7.5" font-family="FreeSans.ttf" font-size="10.00">gazebo/rendering/Camera.hh</text>
</a>
</g>
</g>
<!-- Node2&#45;&gt;Node9 -->
<g id="edge8" class="edge">
<title>Node2&#45;&gt;Node9</title>
<path fill="none" stroke="midnightblue" d="M730.8,-59.07C658.21,-49.84 517.51,-31.97 429.66,-20.8"/>
<polygon fill="midnightblue" stroke="midnightblue" points="429.85,-17.3 419.49,-19.51 428.96,-24.24 429.85,-17.3"/>
</g>
<!-- Node2&#45;&gt;Node10 -->
<g id="edge9" class="edge">
<title>Node2&#45;&gt;Node10</title>
<path fill="none" stroke="midnightblue" d="M815.05,-56.44C856.31,-47.04 922.64,-31.93 967.37,-21.74"/>
<polygon fill="midnightblue" stroke="midnightblue" points="968.15,-25.15 977.12,-19.52 966.59,-18.33 968.15,-25.15"/>
</g>
<!-- Node11 -->
<g id="node11" class="node">
<title>Node11</title>
<g id="a_node11"><a xlink:title=" ">
<polygon fill="none" stroke="#bfbfbf" points="1123.5,-0.5 1123.5,-19.5 1171.5,-19.5 1171.5,-0.5 1123.5,-0.5"/>
<text text-anchor="middle" x="1147.5" y="-7.5" font-family="FreeSans.ttf" font-size="10.00">mutex</text>
</a>
</g>
</g>
<!-- Node2&#45;&gt;Node11 -->
<g id="edge10" class="edge">
<title>Node2&#45;&gt;Node11</title>
<path fill="none" stroke="midnightblue" d="M824,-60.64C889.13,-54.11 1011.03,-40.34 1113.5,-20 1113.6,-19.98 1113.7,-19.96 1113.8,-19.94"/>
<polygon fill="midnightblue" stroke="midnightblue" points="1114.45,-23.38 1123.44,-17.77 1112.92,-16.55 1114.45,-23.38"/>
</g>
<!-- Node12&#45;&gt;Node8 -->
<g id="edge14" class="edge">
<title>Node12&#45;&gt;Node8</title>
<path fill="none" stroke="midnightblue" d="M1406.87,-56.44C1375,-47.24 1324.17,-32.56 1288.94,-22.39"/>
<polygon fill="midnightblue" stroke="midnightblue" points="1289.57,-18.93 1278.99,-19.52 1287.63,-25.65 1289.57,-18.93"/>
</g>
<!-- Node12&#45;&gt;Node11 -->
<g id="edge15" class="edge">
<title>Node12&#45;&gt;Node11</title>
<path fill="none" stroke="midnightblue" d="M1379.26,-56.49C1329.42,-48.73 1255.04,-36.3 1181.49,-20.06"/>
<polygon fill="midnightblue" stroke="midnightblue" points="1182.11,-16.61 1171.59,-17.84 1180.58,-23.44 1182.11,-16.61"/>
</g>
<!-- Node13 -->
<g id="node13" class="node">
<title>Node13</title>
<g id="a_node13"><a xlink:title=" ">
<polygon fill="none" stroke="#bfbfbf" points="1736.5,-0.5 1736.5,-19.5 1774.5,-19.5 1774.5,-0.5 1736.5,-0.5"/>
<text text-anchor="middle" x="1755.5" y="-7.5" font-family="FreeSans.ttf" font-size="10.00">map</text>
</a>
</g>
</g>
<!-- Node12&#45;&gt;Node13 -->
<g id="edge12" class="edge">
<title>Node12&#45;&gt;Node13</title>
<path fill="none" stroke="midnightblue" d="M1513.42,-56.46C1570.03,-49.41 1648.95,-37.96 1726.4,-19.95"/>
<polygon fill="midnightblue" stroke="midnightblue" points="1727.41,-23.31 1736.33,-17.6 1725.8,-16.49 1727.41,-23.31"/>
</g>
<!-- Node14 -->
<g id="node14" class="node">
<title>Node14</title>
<g id="a_node14"><a xlink:title=" ">
<polygon fill="none" stroke="#bfbfbf" points="1327,-0.5 1327,-19.5 1420,-19.5 1420,-0.5 1327,-0.5"/>
<text text-anchor="middle" x="1373.5" y="-7.5" font-family="FreeSans.ttf" font-size="10.00">sdf/sdf_config.h</text>
</a>
</g>
</g>
<!-- Node12&#45;&gt;Node14 -->
<g id="edge13" class="edge">
<title>Node12&#45;&gt;Node14</title>
<path fill="none" stroke="midnightblue" d="M1426.38,-56.32C1416.97,-48.26 1402.76,-36.08 1391.43,-26.37"/>
<polygon fill="midnightblue" stroke="midnightblue" points="1393.68,-23.68 1383.81,-19.83 1389.12,-29 1393.68,-23.68"/>
</g>
<!-- Node15 -->
<g id="node15" class="node">
<title>Node15</title>
<g id="a_node15"><a xlink:title=" ">
<polygon fill="none" stroke="#bfbfbf" points="1438.5,-0.5 1438.5,-19.5 1560.5,-19.5 1560.5,-0.5 1438.5,-0.5"/>
<text text-anchor="middle" x="1499.5" y="-7.5" font-family="FreeSans.ttf" font-size="10.00">yarp/dev/PolyDriver.h</text>
</a>
</g>
</g>
<!-- Node12&#45;&gt;Node15 -->
<g id="edge16" class="edge">
<title>Node12&#45;&gt;Node15</title>
<path fill="none" stroke="midnightblue" d="M1446.62,-56.32C1456.03,-48.26 1470.24,-36.08 1481.57,-26.37"/>
<polygon fill="midnightblue" stroke="midnightblue" points="1483.88,-29 1489.19,-19.83 1479.32,-23.68 1483.88,-29"/>
</g>
<!-- Node16 -->
<g id="node16" class="node">
<title>Node16</title>
<g id="a_node16"><a xlink:title=" ">
<polygon fill="none" stroke="#bfbfbf" points="1578.5,-0.5 1578.5,-19.5 1718.5,-19.5 1718.5,-0.5 1578.5,-0.5"/>
<text text-anchor="middle" x="1648.5" y="-7.5" font-family="FreeSans.ttf" font-size="10.00">yarp/dev/PolyDriverList.h</text>
</a>
</g>
</g>
<!-- Node12&#45;&gt;Node16 -->
<g id="edge17" class="edge">
<title>Node12&#45;&gt;Node16</title>
<path fill="none" stroke="midnightblue" d="M1470.09,-56.44C1506.69,-47.12 1565.34,-32.18 1605.33,-22"/>
<polygon fill="midnightblue" stroke="midnightblue" points="1606.24,-25.38 1615.07,-19.52 1604.51,-18.59 1606.24,-25.38"/>
</g>
<!-- Node18 -->
<g id="node18" class="node">
<title>Node18</title>
<g id="a_node18"><a xlink:title=" ">
<polygon fill="none" stroke="#bfbfbf" points="1858.5,-0.5 1858.5,-19.5 1902.5,-19.5 1902.5,-0.5 1858.5,-0.5"/>
<text text-anchor="middle" x="1880.5" y="-7.5" font-family="FreeSans.ttf" font-size="10.00">string</text>
</a>
</g>
</g>
<!-- Node17&#45;&gt;Node18 -->
<g id="edge19" class="edge">
<title>Node17&#45;&gt;Node18</title>
<path fill="none" stroke="midnightblue" d="M1669.25,-56.47C1714.05,-48.64 1781.28,-36.14 1848.33,-20.12"/>
<polygon fill="midnightblue" stroke="midnightblue" points="1849.31,-23.48 1858.21,-17.73 1847.67,-16.68 1849.31,-23.48"/>
</g>
<!-- Node19 -->
<g id="node19" class="node">
<title>Node19</title>
<g id="a_node19"><a xlink:title=" ">
<polygon fill="none" stroke="#bfbfbf" points="1793,-0.5 1793,-19.5 1840,-19.5 1840,-0.5 1793,-0.5"/>
<text text-anchor="middle" x="1816.5" y="-7.5" font-family="FreeSans.ttf" font-size="10.00">cmath</text>
</a>
</g>
</g>
<!-- Node17&#45;&gt;Node19 -->
<g id="edge20" class="edge">
<title>Node17&#45;&gt;Node19</title>
<path fill="none" stroke="midnightblue" d="M1649.87,-56.44C1686.15,-46.55 1745.65,-30.32 1782.86,-20.17"/>
<polygon fill="midnightblue" stroke="midnightblue" points="1784,-23.49 1792.73,-17.48 1782.16,-16.74 1784,-23.49"/>
</g>
</g>
</svg>
