<?xml version="1.0" encoding="UTF-8" standalone="no"?>
<!DOCTYPE svg PUBLIC "-//W3C//DTD SVG 1.1//EN"
 "http://www.w3.org/Graphics/SVG/1.1/DTD/svg11.dtd">
<!-- Generated by graphviz version 5.0.0 (20220707.2338)
 -->
<!-- Title: Camera.cc Pages: 1 -->
<svg width="2942pt" height="140pt"
 viewBox="0.00 0.00 2941.50 140.00" xmlns="http://www.w3.org/2000/svg" xmlns:xlink="http://www.w3.org/1999/xlink">
<g id="graph0" class="graph" transform="scale(1 1) rotate(0) translate(4 136)">
<title>Camera.cc</title>
<!-- Node1 -->
<g id="node1" class="node">
<title>Node1</title>
<g id="a_node1"><a xlink:title=" ">
<polygon fill="#bfbfbf" stroke="black" points="1731,-112.5 1731,-131.5 1799,-131.5 1799,-112.5 1731,-112.5"/>
<text text-anchor="middle" x="1765" y="-119.5" font-family="FreeSans.ttf" font-size="10.00">Camera.cc</text>
</a>
</g>
</g>
<!-- Node2 -->
<g id="node2" class="node">
<title>Node2</title>
<g id="a_node2"><a xlink:href="Camera_8hh.html" target="_top" xlink:title=" ">
<polygon fill="none" stroke="black" points="434,-56.5 434,-75.5 504,-75.5 504,-56.5 434,-56.5"/>
<text text-anchor="middle" x="469" y="-63.5" font-family="FreeSans.ttf" font-size="10.00">Camera.hh</text>
</a>
</g>
</g>
<!-- Node1&#45;&gt;Node2 -->
<g id="edge1" class="edge">
<title>Node1&#45;&gt;Node2</title>
<path fill="none" stroke="midnightblue" d="M1730.75,-120.54C1557.8,-118.09 778.67,-105.64 514.4,-75.93"/>
<polygon fill="midnightblue" stroke="midnightblue" points="514.8,-72.46 504.46,-74.78 513.99,-79.41 514.8,-72.46"/>
</g>
<!-- Node6 -->
<g id="node6" class="node">
<title>Node6</title>
<g id="a_node6"><a xlink:title=" ">
<polygon fill="none" stroke="#bfbfbf" points="818,-0.5 818,-19.5 940,-19.5 940,-0.5 818,-0.5"/>
<text text-anchor="middle" x="879" y="-7.5" font-family="FreeSans.ttf" font-size="10.00">yarp/dev/PolyDriver.h</text>
</a>
</g>
</g>
<!-- Node1&#45;&gt;Node6 -->
<g id="edge35" class="edge">
<title>Node1&#45;&gt;Node6</title>
<path fill="none" stroke="midnightblue" d="M1730.83,-116.8C1620.06,-103.18 1260.58,-58.91 950.28,-20.03"/>
<polygon fill="midnightblue" stroke="midnightblue" points="950.55,-16.54 940.19,-18.77 949.68,-23.48 950.55,-16.54"/>
</g>
<!-- Node9 -->
<g id="node9" class="node">
<title>Node9</title>
<g id="a_node9"><a xlink:href="CameraDriver_8h.html" target="_top" xlink:title=" ">
<polygon fill="none" stroke="black" points="1464.5,-56.5 1464.5,-75.5 1557.5,-75.5 1557.5,-56.5 1464.5,-56.5"/>
<text text-anchor="middle" x="1511" y="-63.5" font-family="FreeSans.ttf" font-size="10.00">CameraDriver.h</text>
</a>
</g>
</g>
<!-- Node1&#45;&gt;Node9 -->
<g id="edge8" class="edge">
<title>Node1&#45;&gt;Node9</title>
<path fill="none" stroke="midnightblue" d="M1730.74,-113.72C1687.16,-104.45 1611.55,-88.38 1561.39,-77.71"/>
<polygon fill="midnightblue" stroke="midnightblue" points="1561.91,-74.25 1551.4,-75.59 1560.46,-81.09 1561.91,-74.25"/>
</g>
<!-- Node16 -->
<g id="node16" class="node">
<title>Node16</title>
<g id="a_node16"><a xlink:title=" ">
<polygon fill="none" stroke="#bfbfbf" points="1674.5,-0.5 1674.5,-19.5 1855.5,-19.5 1855.5,-0.5 1674.5,-0.5"/>
<text text-anchor="middle" x="1765" y="-7.5" font-family="FreeSans.ttf" font-size="10.00">gazebo/sensors/CameraSensor.hh</text>
</a>
</g>
</g>
<!-- Node1&#45;&gt;Node16 -->
<g id="edge34" class="edge">
<title>Node1&#45;&gt;Node16</title>
<path fill="none" stroke="midnightblue" d="M1765,-112.37C1765,-94.62 1765,-53.67 1765,-29.6"/>
<polygon fill="midnightblue" stroke="midnightblue" points="1768.5,-29.59 1765,-19.59 1761.5,-29.59 1768.5,-29.59"/>
</g>
<!-- Node18 -->
<g id="node18" class="node">
<title>Node18</title>
<g id="a_node18"><a xlink:href="Handler_8hh.html" target="_top" xlink:title=" ">
<polygon fill="none" stroke="black" points="2142,-56.5 2142,-75.5 2306,-75.5 2306,-56.5 2142,-56.5"/>
<text text-anchor="middle" x="2224" y="-63.5" font-family="FreeSans.ttf" font-size="10.00">GazeboYarpPlugins/Handler.hh</text>
</a>
</g>
</g>
<!-- Node1&#45;&gt;Node18 -->
<g id="edge18" class="edge">
<title>Node1&#45;&gt;Node18</title>
<path fill="none" stroke="midnightblue" d="M1799.12,-116.99C1871.01,-108.53 2039.75,-88.68 2141.63,-76.69"/>
<polygon fill="midnightblue" stroke="midnightblue" points="2142.05,-80.17 2151.57,-75.52 2141.23,-73.21 2142.05,-80.17"/>
</g>
<!-- Node23 -->
<g id="node23" class="node">
<title>Node23</title>
<g id="a_node23"><a xlink:href="common_8h.html" target="_top" xlink:title=" ">
<polygon fill="none" stroke="black" points="522,-56.5 522,-75.5 686,-75.5 686,-56.5 522,-56.5"/>
<text text-anchor="middle" x="604" y="-63.5" font-family="FreeSans.ttf" font-size="10.00">GazeboYarpPlugins/common.h</text>
</a>
</g>
</g>
<!-- Node1&#45;&gt;Node23 -->
<g id="edge26" class="edge">
<title>Node1&#45;&gt;Node23</title>
<path fill="none" stroke="midnightblue" d="M1730.88,-119.41C1576.07,-112.21 936.86,-82.48 696.2,-71.29"/>
<polygon fill="midnightblue" stroke="midnightblue" points="696.23,-67.79 686.08,-70.82 695.91,-74.78 696.23,-67.79"/>
</g>
<!-- Node25 -->
<g id="node25" class="node">
<title>Node25</title>
<g id="a_node25"><a xlink:href="ConfHelpers_8hh.html" target="_top" xlink:title=" ">
<polygon fill="none" stroke="black" points="1936.5,-56.5 1936.5,-75.5 2123.5,-75.5 2123.5,-56.5 1936.5,-56.5"/>
<text text-anchor="middle" x="2030" y="-63.5" font-family="FreeSans.ttf" font-size="10.00">GazeboYarpPlugins/ConfHelpers.hh</text>
</a>
</g>
</g>
<!-- Node1&#45;&gt;Node25 -->
<g id="edge29" class="edge">
<title>Node1&#45;&gt;Node25</title>
<path fill="none" stroke="midnightblue" d="M1799.1,-114.05C1844.54,-104.79 1925.35,-88.33 1978.3,-77.53"/>
<polygon fill="midnightblue" stroke="midnightblue" points="1979.08,-80.95 1988.18,-75.52 1977.68,-74.09 1979.08,-80.95"/>
</g>
<!-- Node28 -->
<g id="node28" class="node">
<title>Node28</title>
<g id="a_node28"><a xlink:title=" ">
<polygon fill="none" stroke="#bfbfbf" points="2324,-56.5 2324,-75.5 2406,-75.5 2406,-56.5 2324,-56.5"/>
<text text-anchor="middle" x="2365" y="-63.5" font-family="FreeSans.ttf" font-size="10.00">yarp/os/Log.h</text>
</a>
</g>
</g>
<!-- Node1&#45;&gt;Node28 -->
<g id="edge36" class="edge">
<title>Node1&#45;&gt;Node28</title>
<path fill="none" stroke="midnightblue" d="M1799.23,-119.35C1884.43,-115 2112.97,-101.82 2313.71,-76.05"/>
<polygon fill="midnightblue" stroke="midnightblue" points="2314.38,-79.49 2323.85,-74.73 2313.48,-72.55 2314.38,-79.49"/>
</g>
<!-- Node29 -->
<g id="node29" class="node">
<title>Node29</title>
<g id="a_node29"><a xlink:title=" ">
<polygon fill="none" stroke="#bfbfbf" points="2424.5,-56.5 2424.5,-75.5 2541.5,-75.5 2541.5,-56.5 2424.5,-56.5"/>
<text text-anchor="middle" x="2483" y="-63.5" font-family="FreeSans.ttf" font-size="10.00">yarp/os/LogStream.h</text>
</a>
</g>
</g>
<!-- Node1&#45;&gt;Node29 -->
<g id="edge37" class="edge">
<title>Node1&#45;&gt;Node29</title>
<path fill="none" stroke="midnightblue" d="M1799.24,-119.38C1894.75,-114.72 2172.33,-100.07 2414.38,-76"/>
<polygon fill="midnightblue" stroke="midnightblue" points="2414.82,-79.47 2424.42,-74.99 2414.12,-72.5 2414.82,-79.47"/>
</g>
<!-- Node3 -->
<g id="node3" class="node">
<title>Node3</title>
<g id="a_node3"><a xlink:title=" ">
<polygon fill="none" stroke="#bfbfbf" points="0,-0.5 0,-19.5 146,-19.5 146,-0.5 0,-0.5"/>
<text text-anchor="middle" x="73" y="-7.5" font-family="FreeSans.ttf" font-size="10.00">gazebo/common/Plugin.hh</text>
</a>
</g>
</g>
<!-- Node2&#45;&gt;Node3 -->
<g id="edge2" class="edge">
<title>Node2&#45;&gt;Node3</title>
<path fill="none" stroke="midnightblue" d="M433.86,-60.21C369.38,-51.41 230.96,-32.54 145.53,-20.89"/>
<polygon fill="midnightblue" stroke="midnightblue" points="145.77,-17.39 135.38,-19.51 144.82,-24.33 145.77,-17.39"/>
</g>
<!-- Node4 -->
<g id="node4" class="node">
<title>Node4</title>
<g id="a_node4"><a xlink:title=" ">
<polygon fill="none" stroke="#bfbfbf" points="164,-0.5 164,-19.5 340,-19.5 340,-0.5 164,-0.5"/>
<text text-anchor="middle" x="252" y="-7.5" font-family="FreeSans.ttf" font-size="10.00">gazebo/plugins/CameraPlugin.hh</text>
</a>
</g>
</g>
<!-- Node2&#45;&gt;Node4 -->
<g id="edge3" class="edge">
<title>Node2&#45;&gt;Node4</title>
<path fill="none" stroke="midnightblue" d="M434.62,-56.44C397.08,-47.1 336.87,-32.12 295.93,-21.93"/>
<polygon fill="midnightblue" stroke="midnightblue" points="296.77,-18.53 286.22,-19.52 295.08,-25.33 296.77,-18.53"/>
</g>
<!-- Node5 -->
<g id="node5" class="node">
<title>Node5</title>
<g id="a_node5"><a xlink:title=" ">
<polygon fill="none" stroke="#bfbfbf" points="358,-0.5 358,-19.5 464,-19.5 464,-0.5 358,-0.5"/>
<text text-anchor="middle" x="411" y="-7.5" font-family="FreeSans.ttf" font-size="10.00">yarp/os/Network.h</text>
</a>
</g>
</g>
<!-- Node2&#45;&gt;Node5 -->
<g id="edge4" class="edge">
<title>Node2&#45;&gt;Node5</title>
<path fill="none" stroke="midnightblue" d="M459.68,-56.32C451.11,-48.34 438.19,-36.31 427.81,-26.65"/>
<polygon fill="midnightblue" stroke="midnightblue" points="430.19,-24.09 420.49,-19.83 425.42,-29.21 430.19,-24.09"/>
</g>
<!-- Node2&#45;&gt;Node6 -->
<g id="edge5" class="edge">
<title>Node2&#45;&gt;Node6</title>
<path fill="none" stroke="midnightblue" d="M504.02,-57.57C507.05,-57.01 510.08,-56.48 513,-56 640.61,-35.22 675.8,-36.38 807.82,-20.13"/>
<polygon fill="midnightblue" stroke="midnightblue" points="808.43,-23.58 817.92,-18.88 807.56,-16.64 808.43,-23.58"/>
</g>
<!-- Node7 -->
<g id="node7" class="node">
<title>Node7</title>
<g id="a_node7"><a xlink:title=" ">
<polygon fill="none" stroke="#bfbfbf" points="610,-0.5 610,-19.5 800,-19.5 800,-0.5 610,-0.5"/>
<text text-anchor="middle" x="705" y="-7.5" font-family="FreeSans.ttf" font-size="10.00">yarp/dev/FrameGrabberInterfaces.h</text>
</a>
</g>
</g>
<!-- Node2&#45;&gt;Node7 -->
<g id="edge6" class="edge">
<title>Node2&#45;&gt;Node7</title>
<path fill="none" stroke="midnightblue" d="M504.08,-56.97C544.9,-47.63 612.51,-32.16 657.89,-21.78"/>
<polygon fill="midnightblue" stroke="midnightblue" points="658.81,-25.16 667.78,-19.52 657.25,-18.33 658.81,-25.16"/>
</g>
<!-- Node8 -->
<g id="node8" class="node">
<title>Node8</title>
<g id="a_node8"><a xlink:title=" ">
<polygon fill="none" stroke="#bfbfbf" points="482,-0.5 482,-19.5 526,-19.5 526,-0.5 482,-0.5"/>
<text text-anchor="middle" x="504" y="-7.5" font-family="FreeSans.ttf" font-size="10.00">string</text>
</a>
</g>
</g>
<!-- Node2&#45;&gt;Node8 -->
<g id="edge7" class="edge">
<title>Node2&#45;&gt;Node8</title>
<path fill="none" stroke="midnightblue" d="M474.78,-56.08C479.67,-48.53 486.83,-37.49 492.83,-28.23"/>
<polygon fill="midnightblue" stroke="midnightblue" points="495.83,-30.05 498.33,-19.75 489.95,-26.24 495.83,-30.05"/>
</g>
<!-- Node9&#45;&gt;Node7 -->
<g id="edge10" class="edge">
<title>Node9&#45;&gt;Node7</title>
<path fill="none" stroke="midnightblue" d="M1464.15,-62.36C1352.81,-56 1063.37,-39.03 810.33,-20.08"/>
<polygon fill="midnightblue" stroke="midnightblue" points="810.44,-16.58 800.21,-19.32 809.92,-23.56 810.44,-16.58"/>
</g>
<!-- Node10 -->
<g id="node10" class="node">
<title>Node10</title>
<g id="a_node10"><a xlink:title=" ">
<polygon fill="none" stroke="#bfbfbf" points="1241,-0.5 1241,-19.5 1375,-19.5 1375,-0.5 1241,-0.5"/>
<text text-anchor="middle" x="1308" y="-7.5" font-family="FreeSans.ttf" font-size="10.00">yarp/dev/DeviceDriver.h</text>
</a>
</g>
</g>
<!-- Node9&#45;&gt;Node10 -->
<g id="edge9" class="edge">
<title>Node9&#45;&gt;Node10</title>
<path fill="none" stroke="midnightblue" d="M1478.83,-56.44C1443.94,-47.16 1388.11,-32.31 1349.83,-22.13"/>
<polygon fill="midnightblue" stroke="midnightblue" points="1350.58,-18.7 1340.02,-19.52 1348.78,-25.47 1350.58,-18.7"/>
</g>
<!-- Node11 -->
<g id="node11" class="node">
<title>Node11</title>
<g id="a_node11"><a xlink:title=" ">
<polygon fill="none" stroke="#bfbfbf" points="1393,-0.5 1393,-19.5 1489,-19.5 1489,-0.5 1393,-0.5"/>
<text text-anchor="middle" x="1441" y="-7.5" font-family="FreeSans.ttf" font-size="10.00">yarp/os/Stamp.h</text>
</a>
</g>
</g>
<!-- Node9&#45;&gt;Node11 -->
<g id="edge11" class="edge">
<title>Node9&#45;&gt;Node11</title>
<path fill="none" stroke="midnightblue" d="M1499.75,-56.32C1489.2,-48.18 1473.2,-35.84 1460.56,-26.09"/>
<polygon fill="midnightblue" stroke="midnightblue" points="1462.51,-23.17 1452.45,-19.83 1458.23,-28.71 1462.51,-23.17"/>
</g>
<!-- Node12 -->
<g id="node12" class="node">
<title>Node12</title>
<g id="a_node12"><a xlink:title=" ">
<polygon fill="none" stroke="#bfbfbf" points="1507.5,-0.5 1507.5,-19.5 1656.5,-19.5 1656.5,-0.5 1507.5,-0.5"/>
<text text-anchor="middle" x="1582" y="-7.5" font-family="FreeSans.ttf" font-size="10.00">yarp/dev/IPreciselyTimed.h</text>
</a>
</g>
</g>
<!-- Node9&#45;&gt;Node12 -->
<g id="edge12" class="edge">
<title>Node9&#45;&gt;Node12</title>
<path fill="none" stroke="midnightblue" d="M1522.41,-56.32C1533.11,-48.18 1549.34,-35.84 1562.16,-26.09"/>
<polygon fill="midnightblue" stroke="midnightblue" points="1564.54,-28.67 1570.39,-19.83 1560.31,-23.1 1564.54,-28.67"/>
</g>
<!-- Node13 -->
<g id="node13" class="node">
<title>Node13</title>
<g id="a_node13"><a xlink:title=" ">
<polygon fill="none" stroke="#bfbfbf" points="958.5,-0.5 958.5,-19.5 1047.5,-19.5 1047.5,-0.5 958.5,-0.5"/>
<text text-anchor="middle" x="1003" y="-7.5" font-family="FreeSans.ttf" font-size="10.00">yarp/os/Time.h</text>
</a>
</g>
</g>
<!-- Node9&#45;&gt;Node13 -->
<g id="edge13" class="edge">
<title>Node9&#45;&gt;Node13</title>
<path fill="none" stroke="midnightblue" d="M1464.37,-61.47C1383.61,-55.11 1212.26,-40.59 1057.93,-20.18"/>
<polygon fill="midnightblue" stroke="midnightblue" points="1058.16,-16.68 1047.79,-18.83 1057.24,-23.62 1058.16,-16.68"/>
</g>
<!-- Node14 -->
<g id="node14" class="node">
<title>Node14</title>
<g id="a_node14"><a xlink:title=" ">
<polygon fill="none" stroke="#bfbfbf" points="2062.5,-0.5 2062.5,-19.5 2181.5,-19.5 2181.5,-0.5 2062.5,-0.5"/>
<text text-anchor="middle" x="2122" y="-7.5" font-family="FreeSans.ttf" font-size="10.00">boost/shared_ptr.hpp</text>
</a>
</g>
</g>
<!-- Node9&#45;&gt;Node14 -->
<g id="edge14" class="edge">
<title>Node9&#45;&gt;Node14</title>
<path fill="none" stroke="midnightblue" d="M1557.56,-61.91C1649.89,-55.62 1862.94,-40.28 2052.18,-20.15"/>
<polygon fill="midnightblue" stroke="midnightblue" points="2052.75,-23.61 2062.32,-19.07 2052,-16.65 2052.75,-23.61"/>
</g>
<!-- Node15 -->
<g id="node15" class="node">
<title>Node15</title>
<g id="a_node15"><a xlink:title=" ">
<polygon fill="none" stroke="#bfbfbf" points="1065,-0.5 1065,-19.5 1223,-19.5 1223,-0.5 1065,-0.5"/>
<text text-anchor="middle" x="1144" y="-7.5" font-family="FreeSans.ttf" font-size="10.00">gazebo/rendering/Camera.hh</text>
</a>
</g>
</g>
<!-- Node9&#45;&gt;Node15 -->
<g id="edge15" class="edge">
<title>Node9&#45;&gt;Node15</title>
<path fill="none" stroke="midnightblue" d="M1464.15,-58.11C1400.29,-48.71 1285.5,-31.82 1212.12,-21.02"/>
<polygon fill="midnightblue" stroke="midnightblue" points="1212.46,-17.53 1202.05,-19.54 1211.44,-24.46 1212.46,-17.53"/>
</g>
<!-- Node9&#45;&gt;Node16 -->
<g id="edge16" class="edge">
<title>Node9&#45;&gt;Node16</title>
<path fill="none" stroke="midnightblue" d="M1551.25,-56.44C1595.65,-47 1667.15,-31.8 1715.09,-21.61"/>
<polygon fill="midnightblue" stroke="midnightblue" points="1715.89,-25.02 1724.94,-19.52 1714.43,-18.17 1715.89,-25.02"/>
</g>
<!-- Node17 -->
<g id="node17" class="node">
<title>Node17</title>
<g id="a_node17"><a xlink:title=" ">
<polygon fill="none" stroke="#bfbfbf" points="2200,-0.5 2200,-19.5 2248,-19.5 2248,-0.5 2200,-0.5"/>
<text text-anchor="middle" x="2224" y="-7.5" font-family="FreeSans.ttf" font-size="10.00">mutex</text>
</a>
</g>
</g>
<!-- Node9&#45;&gt;Node17 -->
<g id="edge17" class="edge">
<title>Node9&#45;&gt;Node17</title>
<path fill="none" stroke="midnightblue" d="M1557.54,-65.11C1666.67,-64.7 1947.48,-59.67 2189.91,-19.83"/>
<polygon fill="midnightblue" stroke="midnightblue" points="2190.68,-23.25 2199.97,-18.15 2189.53,-16.34 2190.68,-23.25"/>
</g>
<!-- Node18&#45;&gt;Node6 -->
<g id="edge23" class="edge">
<title>Node18&#45;&gt;Node6</title>
<path fill="none" stroke="midnightblue" d="M2141.68,-56.6C2138.75,-56.39 2135.85,-56.18 2133,-56 1611.4,-22.31 1476.12,-60.63 950.28,-19.92"/>
<polygon fill="midnightblue" stroke="midnightblue" points="950.39,-16.42 940.15,-19.13 949.85,-23.4 950.39,-16.42"/>
</g>
<!-- Node18&#45;&gt;Node14 -->
<g id="edge21" class="edge">
<title>Node18&#45;&gt;Node14</title>
<path fill="none" stroke="midnightblue" d="M2207.61,-56.32C2191.33,-47.7 2166.13,-34.36 2147.28,-24.39"/>
<polygon fill="midnightblue" stroke="midnightblue" points="2148.82,-21.24 2138.35,-19.65 2145.55,-27.43 2148.82,-21.24"/>
</g>
<!-- Node18&#45;&gt;Node17 -->
<g id="edge22" class="edge">
<title>Node18&#45;&gt;Node17</title>
<path fill="none" stroke="midnightblue" d="M2224,-56.08C2224,-49.01 2224,-38.86 2224,-29.99"/>
<polygon fill="midnightblue" stroke="midnightblue" points="2227.5,-29.75 2224,-19.75 2220.5,-29.75 2227.5,-29.75"/>
</g>
<!-- Node19 -->
<g id="node19" class="node">
<title>Node19</title>
<g id="a_node19"><a xlink:title=" ">
<polygon fill="none" stroke="#bfbfbf" points="2570,-0.5 2570,-19.5 2608,-19.5 2608,-0.5 2570,-0.5"/>
<text text-anchor="middle" x="2589" y="-7.5" font-family="FreeSans.ttf" font-size="10.00">map</text>
</a>
</g>
</g>
<!-- Node18&#45;&gt;Node19 -->
<g id="edge19" class="edge">
<title>Node18&#45;&gt;Node19</title>
<path fill="none" stroke="midnightblue" d="M2299.69,-56.48C2378.81,-47.32 2498.76,-32.6 2559.85,-19.85"/>
<polygon fill="midnightblue" stroke="midnightblue" points="2560.83,-23.22 2569.85,-17.65 2559.33,-16.38 2560.83,-23.22"/>
</g>
<!-- Node20 -->
<g id="node20" class="node">
<title>Node20</title>
<g id="a_node20"><a xlink:title=" ">
<polygon fill="none" stroke="#bfbfbf" points="2458.5,-0.5 2458.5,-19.5 2551.5,-19.5 2551.5,-0.5 2458.5,-0.5"/>
<text text-anchor="middle" x="2505" y="-7.5" font-family="FreeSans.ttf" font-size="10.00">sdf/sdf_config.h</text>
</a>
</g>
</g>
<!-- Node18&#45;&gt;Node20 -->
<g id="edge20" class="edge">
<title>Node18&#45;&gt;Node20</title>
<path fill="none" stroke="midnightblue" d="M2268.53,-56.44C2317.96,-46.94 2397.75,-31.61 2450.78,-21.42"/>
<polygon fill="midnightblue" stroke="midnightblue" points="2451.52,-24.84 2460.68,-19.52 2450.2,-17.97 2451.52,-24.84"/>
</g>
<!-- Node21 -->
<g id="node21" class="node">
<title>Node21</title>
<g id="a_node21"><a xlink:title=" ">
<polygon fill="none" stroke="#bfbfbf" points="2626,-0.5 2626,-19.5 2766,-19.5 2766,-0.5 2626,-0.5"/>
<text text-anchor="middle" x="2696" y="-7.5" font-family="FreeSans.ttf" font-size="10.00">yarp/dev/PolyDriverList.h</text>
</a>
</g>
</g>
<!-- Node18&#45;&gt;Node21 -->
<g id="edge24" class="edge">
<title>Node18&#45;&gt;Node21</title>
<path fill="none" stroke="midnightblue" d="M2298.53,-56.47C2384.95,-46.59 2526.88,-30.35 2615.69,-20.19"/>
<polygon fill="midnightblue" stroke="midnightblue" points="2616.18,-23.66 2625.71,-19.04 2615.38,-16.7 2616.18,-23.66"/>
</g>
<!-- Node22 -->
<g id="node22" class="node">
<title>Node22</title>
<g id="a_node22"><a xlink:title=" ">
<polygon fill="none" stroke="#bfbfbf" points="2784.5,-0.5 2784.5,-19.5 2933.5,-19.5 2933.5,-0.5 2784.5,-0.5"/>
<text text-anchor="middle" x="2859" y="-7.5" font-family="FreeSans.ttf" font-size="10.00">gazebo/common/Events.hh</text>
</a>
</g>
</g>
<!-- Node18&#45;&gt;Node22 -->
<g id="edge25" class="edge">
<title>Node18&#45;&gt;Node22</title>
<path fill="none" stroke="midnightblue" d="M2306.33,-56.78C2309.26,-56.51 2312.15,-56.25 2315,-56 2515.98,-38.2 2569.11,-38.9 2774.16,-20.05"/>
<polygon fill="midnightblue" stroke="midnightblue" points="2774.72,-23.51 2784.36,-19.11 2774.08,-16.54 2774.72,-23.51"/>
</g>
<!-- Node23&#45;&gt;Node8 -->
<g id="edge27" class="edge">
<title>Node23&#45;&gt;Node8</title>
<path fill="none" stroke="midnightblue" d="M587.93,-56.32C572.04,-47.74 547.49,-34.49 529.04,-24.52"/>
<polygon fill="midnightblue" stroke="midnightblue" points="530.49,-21.33 520.03,-19.65 527.16,-27.49 530.49,-21.33"/>
</g>
<!-- Node24 -->
<g id="node24" class="node">
<title>Node24</title>
<g id="a_node24"><a xlink:title=" ">
<polygon fill="none" stroke="#bfbfbf" points="544.5,-0.5 544.5,-19.5 591.5,-19.5 591.5,-0.5 544.5,-0.5"/>
<text text-anchor="middle" x="568" y="-7.5" font-family="FreeSans.ttf" font-size="10.00">cmath</text>
</a>
</g>
</g>
<!-- Node23&#45;&gt;Node24 -->
<g id="edge28" class="edge">
<title>Node23&#45;&gt;Node24</title>
<path fill="none" stroke="midnightblue" d="M598.06,-56.08C593.02,-48.53 585.66,-37.49 579.49,-28.23"/>
<polygon fill="midnightblue" stroke="midnightblue" points="582.29,-26.13 573.83,-19.75 576.47,-30.01 582.29,-26.13"/>
</g>
<!-- Node25&#45;&gt;Node14 -->
<g id="edge31" class="edge">
<title>Node25&#45;&gt;Node14</title>
<path fill="none" stroke="midnightblue" d="M2044.78,-56.32C2059.27,-47.82 2081.57,-34.73 2098.49,-24.8"/>
<polygon fill="midnightblue" stroke="midnightblue" points="2100.4,-27.74 2107.26,-19.65 2096.86,-21.7 2100.4,-27.74"/>
</g>
<!-- Node25&#45;&gt;Node20 -->
<g id="edge30" class="edge">
<title>Node25&#45;&gt;Node20</title>
<path fill="none" stroke="midnightblue" d="M2122.53,-56.47C2205.22,-48.52 2329.92,-35.73 2448.31,-20.03"/>
<polygon fill="midnightblue" stroke="midnightblue" points="2448.83,-23.49 2458.28,-18.7 2447.9,-16.55 2448.83,-23.49"/>
</g>
<!-- Node26 -->
<g id="node26" class="node">
<title>Node26</title>
<g id="a_node26"><a xlink:title=" ">
<polygon fill="none" stroke="#bfbfbf" points="1873.5,-0.5 1873.5,-19.5 2044.5,-19.5 2044.5,-0.5 1873.5,-0.5"/>
<text text-anchor="middle" x="1959" y="-7.5" font-family="FreeSans.ttf" font-size="10.00">gazebo/sensors/SensorTypes.hh</text>
</a>
</g>
</g>
<!-- Node25&#45;&gt;Node26 -->
<g id="edge32" class="edge">
<title>Node25&#45;&gt;Node26</title>
<path fill="none" stroke="midnightblue" d="M2018.59,-56.32C2007.89,-48.18 1991.66,-35.84 1978.84,-26.09"/>
<polygon fill="midnightblue" stroke="midnightblue" points="1980.69,-23.1 1970.61,-19.83 1976.46,-28.67 1980.69,-23.1"/>
</g>
<!-- Node27 -->
<g id="node27" class="node">
<title>Node27</title>
<g id="a_node27"><a xlink:title=" ">
<polygon fill="none" stroke="#bfbfbf" points="2266,-0.5 2266,-19.5 2440,-19.5 2440,-0.5 2266,-0.5"/>
<text text-anchor="middle" x="2353" y="-7.5" font-family="FreeSans.ttf" font-size="10.00">gazebo/physics/PhysicsTypes.hh</text>
</a>
</g>
</g>
<!-- Node25&#45;&gt;Node27 -->
<g id="edge33" class="edge">
<title>Node25&#45;&gt;Node27</title>
<path fill="none" stroke="midnightblue" d="M2081.18,-56.44C2138.47,-46.87 2231.24,-31.36 2292.19,-21.17"/>
<polygon fill="midnightblue" stroke="midnightblue" points="2292.77,-24.62 2302.06,-19.52 2291.62,-17.71 2292.77,-24.62"/>
</g>
</g>
</svg>
