<?xml version="1.0" encoding="UTF-8" standalone="no"?>
<!DOCTYPE svg PUBLIC "-//W3C//DTD SVG 1.1//EN"
 "http://www.w3.org/Graphics/SVG/1.1/DTD/svg11.dtd">
<!-- Generated by graphviz version 3.0.0 (20220315.2325)
 -->
<!-- Title: CameraDriver.cpp Pages: 1 -->
<svg width="2118pt" height="140pt"
 viewBox="0.00 0.00 2117.50 140.00" xmlns="http://www.w3.org/2000/svg" xmlns:xlink="http://www.w3.org/1999/xlink">
<g id="graph0" class="graph" transform="scale(1 1) rotate(0) translate(4 136)">
<title>CameraDriver.cpp</title>
<!-- Node1 -->
<g id="node1" class="node">
<title>Node1</title>
<g id="a_node1"><a xlink:title=" ">
<polygon fill="#bfbfbf" stroke="black" points="1630,-112.5 1630,-131.5 1734,-131.5 1734,-112.5 1630,-112.5"/>
<text text-anchor="middle" x="1682" y="-119.5" font-family="FreeSans.ttf" font-size="10.00">CameraDriver.cpp</text>
</a>
</g>
</g>
<!-- Node2 -->
<g id="node2" class="node">
<title>Node2</title>
<g id="a_node2"><a xlink:href="CameraDriver_8h.html" target="_top" xlink:title=" ">
<polygon fill="none" stroke="black" points="710.5,-56.5 710.5,-75.5 803.5,-75.5 803.5,-56.5 710.5,-56.5"/>
<text text-anchor="middle" x="757" y="-63.5" font-family="FreeSans.ttf" font-size="10.00">CameraDriver.h</text>
</a>
</g>
</g>
<!-- Node1&#45;&gt;Node2 -->
<g id="edge1" class="edge">
<title>Node1&#45;&gt;Node2</title>
<path fill="none" stroke="midnightblue" d="M1629.95,-117.96C1469.06,-108.57 980.54,-80.05 813.62,-70.31"/>
<polygon fill="midnightblue" stroke="midnightblue" points="813.75,-66.81 803.56,-69.72 813.34,-73.8 813.75,-66.81"/>
</g>
<!-- Node10 -->
<g id="node10" class="node">
<title>Node10</title>
<g id="a_node10"><a xlink:title=" ">
<polygon fill="none" stroke="#bfbfbf" points="924.5,-0.5 924.5,-19.5 1105.5,-19.5 1105.5,-0.5 924.5,-0.5"/>
<text text-anchor="middle" x="1015" y="-7.5" font-family="FreeSans.ttf" font-size="10.00">gazebo/sensors/CameraSensor.hh</text>
</a>
</g>
</g>
<!-- Node1&#45;&gt;Node10 -->
<g id="edge22" class="edge">
<title>Node1&#45;&gt;Node10</title>
<path fill="none" stroke="midnightblue" d="M1630.17,-112.46C1575.26,-103.41 1486.02,-88.7 1409,-76 1291.49,-56.62 1154.27,-33.98 1076.71,-21.18"/>
<polygon fill="midnightblue" stroke="midnightblue" points="1077.07,-17.69 1066.63,-19.52 1075.93,-24.6 1077.07,-17.69"/>
</g>
<!-- Node12 -->
<g id="node12" class="node">
<title>Node12</title>
<g id="a_node12"><a xlink:href="Handler_8hh.html" target="_top" xlink:title=" ">
<polygon fill="none" stroke="black" points="1418,-56.5 1418,-75.5 1582,-75.5 1582,-56.5 1418,-56.5"/>
<text text-anchor="middle" x="1500" y="-63.5" font-family="FreeSans.ttf" font-size="10.00">GazeboYarpPlugins/Handler.hh</text>
</a>
</g>
</g>
<!-- Node1&#45;&gt;Node12 -->
<g id="edge11" class="edge">
<title>Node1&#45;&gt;Node12</title>
<path fill="none" stroke="midnightblue" d="M1653.16,-112.44C1622.14,-103.24 1572.67,-88.56 1538.38,-78.39"/>
<polygon fill="midnightblue" stroke="midnightblue" points="1539.29,-75.01 1528.7,-75.52 1537.29,-81.72 1539.29,-75.01"/>
</g>
<!-- Node18 -->
<g id="node18" class="node">
<title>Node18</title>
<g id="a_node18"><a xlink:href="common_8h.html" target="_top" xlink:title=" ">
<polygon fill="none" stroke="black" points="1600,-56.5 1600,-75.5 1764,-75.5 1764,-56.5 1600,-56.5"/>
<text text-anchor="middle" x="1682" y="-63.5" font-family="FreeSans.ttf" font-size="10.00">GazeboYarpPlugins/common.h</text>
</a>
</g>
</g>
<!-- Node1&#45;&gt;Node18 -->
<g id="edge19" class="edge">
<title>Node1&#45;&gt;Node18</title>
<path fill="none" stroke="midnightblue" d="M1682,-112.08C1682,-105.01 1682,-94.86 1682,-85.99"/>
<polygon fill="midnightblue" stroke="midnightblue" points="1685.5,-85.75 1682,-75.75 1678.5,-85.75 1685.5,-85.75"/>
</g>
<!-- Node21 -->
<g id="node21" class="node">
<title>Node21</title>
<g id="a_node21"><a xlink:title=" ">
<polygon fill="none" stroke="#bfbfbf" points="1782,-56.5 1782,-75.5 1874,-75.5 1874,-56.5 1782,-56.5"/>
<text text-anchor="middle" x="1828" y="-63.5" font-family="FreeSans.ttf" font-size="10.00">yarp/os/Value.h</text>
</a>
</g>
</g>
<!-- Node1&#45;&gt;Node21 -->
<g id="edge23" class="edge">
<title>Node1&#45;&gt;Node21</title>
<path fill="none" stroke="midnightblue" d="M1705.13,-112.44C1729.48,-103.44 1768.01,-89.19 1795.42,-79.05"/>
<polygon fill="midnightblue" stroke="midnightblue" points="1796.81,-82.27 1804.97,-75.52 1794.38,-75.7 1796.81,-82.27"/>
</g>
<!-- Node22 -->
<g id="node22" class="node">
<title>Node22</title>
<g id="a_node22"><a xlink:title=" ">
<polygon fill="none" stroke="#bfbfbf" points="1892,-56.5 1892,-75.5 1974,-75.5 1974,-56.5 1892,-56.5"/>
<text text-anchor="middle" x="1933" y="-63.5" font-family="FreeSans.ttf" font-size="10.00">yarp/os/Log.h</text>
</a>
</g>
</g>
<!-- Node1&#45;&gt;Node22 -->
<g id="edge24" class="edge">
<title>Node1&#45;&gt;Node22</title>
<path fill="none" stroke="midnightblue" d="M1721.77,-112.44C1765.56,-103.02 1836.01,-87.87 1883.38,-77.68"/>
<polygon fill="midnightblue" stroke="midnightblue" points="1884.37,-81.04 1893.41,-75.52 1882.9,-74.2 1884.37,-81.04"/>
</g>
<!-- Node23 -->
<g id="node23" class="node">
<title>Node23</title>
<g id="a_node23"><a xlink:title=" ">
<polygon fill="none" stroke="#bfbfbf" points="1992.5,-56.5 1992.5,-75.5 2109.5,-75.5 2109.5,-56.5 1992.5,-56.5"/>
<text text-anchor="middle" x="2051" y="-63.5" font-family="FreeSans.ttf" font-size="10.00">yarp/os/LogStream.h</text>
</a>
</g>
</g>
<!-- Node1&#45;&gt;Node23 -->
<g id="edge25" class="edge">
<title>Node1&#45;&gt;Node23</title>
<path fill="none" stroke="midnightblue" d="M1734.09,-113.38C1799.13,-103.86 1910.57,-87.55 1982.48,-77.03"/>
<polygon fill="midnightblue" stroke="midnightblue" points="1983.4,-80.43 1992.79,-75.52 1982.39,-73.5 1983.4,-80.43"/>
</g>
<!-- Node3 -->
<g id="node3" class="node">
<title>Node3</title>
<g id="a_node3"><a xlink:title=" ">
<polygon fill="none" stroke="#bfbfbf" points="0,-0.5 0,-19.5 134,-19.5 134,-0.5 0,-0.5"/>
<text text-anchor="middle" x="67" y="-7.5" font-family="FreeSans.ttf" font-size="10.00">yarp/dev/DeviceDriver.h</text>
</a>
</g>
</g>
<!-- Node2&#45;&gt;Node3 -->
<g id="edge2" class="edge">
<title>Node2&#45;&gt;Node3</title>
<path fill="none" stroke="midnightblue" d="M710.34,-62.29C609.22,-56.28 362.09,-40.74 144.15,-20.07"/>
<polygon fill="midnightblue" stroke="midnightblue" points="144.41,-16.58 134.12,-19.11 143.74,-23.55 144.41,-16.58"/>
</g>
<!-- Node4 -->
<g id="node4" class="node">
<title>Node4</title>
<g id="a_node4"><a xlink:title=" ">
<polygon fill="none" stroke="#bfbfbf" points="152,-0.5 152,-19.5 342,-19.5 342,-0.5 152,-0.5"/>
<text text-anchor="middle" x="247" y="-7.5" font-family="FreeSans.ttf" font-size="10.00">yarp/dev/FrameGrabberInterfaces.h</text>
</a>
</g>
</g>
<!-- Node2&#45;&gt;Node4 -->
<g id="edge3" class="edge">
<title>Node2&#45;&gt;Node4</title>
<path fill="none" stroke="midnightblue" d="M710.39,-60.06C625.98,-51.13 446.45,-32.12 337.29,-20.56"/>
<polygon fill="midnightblue" stroke="midnightblue" points="337.59,-17.07 327.28,-19.5 336.86,-24.03 337.59,-17.07"/>
</g>
<!-- Node5 -->
<g id="node5" class="node">
<title>Node5</title>
<g id="a_node5"><a xlink:title=" ">
<polygon fill="none" stroke="#bfbfbf" points="360,-0.5 360,-19.5 456,-19.5 456,-0.5 360,-0.5"/>
<text text-anchor="middle" x="408" y="-7.5" font-family="FreeSans.ttf" font-size="10.00">yarp/os/Stamp.h</text>
</a>
</g>
</g>
<!-- Node2&#45;&gt;Node5 -->
<g id="edge4" class="edge">
<title>Node2&#45;&gt;Node5</title>
<path fill="none" stroke="midnightblue" d="M710.47,-57.88C654.86,-49.37 558.72,-34.6 466.29,-20.2"/>
<polygon fill="midnightblue" stroke="midnightblue" points="466.62,-16.71 456.2,-18.62 465.54,-23.62 466.62,-16.71"/>
</g>
<!-- Node6 -->
<g id="node6" class="node">
<title>Node6</title>
<g id="a_node6"><a xlink:title=" ">
<polygon fill="none" stroke="#bfbfbf" points="474.5,-0.5 474.5,-19.5 623.5,-19.5 623.5,-0.5 474.5,-0.5"/>
<text text-anchor="middle" x="549" y="-7.5" font-family="FreeSans.ttf" font-size="10.00">yarp/dev/IPreciselyTimed.h</text>
</a>
</g>
</g>
<!-- Node2&#45;&gt;Node6 -->
<g id="edge5" class="edge">
<title>Node2&#45;&gt;Node6</title>
<path fill="none" stroke="midnightblue" d="M724.04,-56.44C688.21,-47.14 630.84,-32.25 591.61,-22.06"/>
<polygon fill="midnightblue" stroke="midnightblue" points="592.36,-18.64 581.8,-19.52 590.6,-25.42 592.36,-18.64"/>
</g>
<!-- Node7 -->
<g id="node7" class="node">
<title>Node7</title>
<g id="a_node7"><a xlink:title=" ">
<polygon fill="none" stroke="#bfbfbf" points="641.5,-0.5 641.5,-19.5 730.5,-19.5 730.5,-0.5 641.5,-0.5"/>
<text text-anchor="middle" x="686" y="-7.5" font-family="FreeSans.ttf" font-size="10.00">yarp/os/Time.h</text>
</a>
</g>
</g>
<!-- Node2&#45;&gt;Node7 -->
<g id="edge6" class="edge">
<title>Node2&#45;&gt;Node7</title>
<path fill="none" stroke="midnightblue" d="M745.59,-56.32C734.89,-48.18 718.66,-35.84 705.84,-26.09"/>
<polygon fill="midnightblue" stroke="midnightblue" points="707.69,-23.1 697.61,-19.83 703.46,-28.67 707.69,-23.1"/>
</g>
<!-- Node8 -->
<g id="node8" class="node">
<title>Node8</title>
<g id="a_node8"><a xlink:title=" ">
<polygon fill="none" stroke="#bfbfbf" points="1123.5,-0.5 1123.5,-19.5 1242.5,-19.5 1242.5,-0.5 1123.5,-0.5"/>
<text text-anchor="middle" x="1183" y="-7.5" font-family="FreeSans.ttf" font-size="10.00">boost/shared_ptr.hpp</text>
</a>
</g>
</g>
<!-- Node2&#45;&gt;Node8 -->
<g id="edge7" class="edge">
<title>Node2&#45;&gt;Node8</title>
<path fill="none" stroke="midnightblue" d="M803.5,-59.2C869.72,-50.94 995.25,-35.21 1112.9,-20.14"/>
<polygon fill="midnightblue" stroke="midnightblue" points="1113.69,-23.56 1123.16,-18.82 1112.8,-16.62 1113.69,-23.56"/>
</g>
<!-- Node9 -->
<g id="node9" class="node">
<title>Node9</title>
<g id="a_node9"><a xlink:title=" ">
<polygon fill="none" stroke="#bfbfbf" points="748,-0.5 748,-19.5 906,-19.5 906,-0.5 748,-0.5"/>
<text text-anchor="middle" x="827" y="-7.5" font-family="FreeSans.ttf" font-size="10.00">gazebo/rendering/Camera.hh</text>
</a>
</g>
</g>
<!-- Node2&#45;&gt;Node9 -->
<g id="edge8" class="edge">
<title>Node2&#45;&gt;Node9</title>
<path fill="none" stroke="midnightblue" d="M768.25,-56.32C778.8,-48.18 794.8,-35.84 807.44,-26.09"/>
<polygon fill="midnightblue" stroke="midnightblue" points="809.77,-28.71 815.55,-19.83 805.49,-23.17 809.77,-28.71"/>
</g>
<!-- Node2&#45;&gt;Node10 -->
<g id="edge9" class="edge">
<title>Node2&#45;&gt;Node10</title>
<path fill="none" stroke="midnightblue" d="M797.88,-56.44C842.98,-47 915.61,-31.8 964.3,-21.61"/>
<polygon fill="midnightblue" stroke="midnightblue" points="965.24,-24.99 974.31,-19.52 963.81,-18.14 965.24,-24.99"/>
</g>
<!-- Node11 -->
<g id="node11" class="node">
<title>Node11</title>
<g id="a_node11"><a xlink:title=" ">
<polygon fill="none" stroke="#bfbfbf" points="1261,-0.5 1261,-19.5 1309,-19.5 1309,-0.5 1261,-0.5"/>
<text text-anchor="middle" x="1285" y="-7.5" font-family="FreeSans.ttf" font-size="10.00">mutex</text>
</a>
</g>
</g>
<!-- Node2&#45;&gt;Node11 -->
<g id="edge10" class="edge">
<title>Node2&#45;&gt;Node11</title>
<path fill="none" stroke="midnightblue" d="M803.66,-63.36C891.71,-59.69 1088.17,-48.76 1251,-20 1251.1,-19.98 1251.2,-19.96 1251.3,-19.95"/>
<polygon fill="midnightblue" stroke="midnightblue" points="1251.91,-23.4 1260.97,-17.9 1250.46,-16.55 1251.91,-23.4"/>
</g>
<!-- Node12&#45;&gt;Node8 -->
<g id="edge14" class="edge">
<title>Node12&#45;&gt;Node8</title>
<path fill="none" stroke="midnightblue" d="M1449.77,-56.44C1393.66,-46.89 1302.87,-31.42 1243.05,-21.23"/>
<polygon fill="midnightblue" stroke="midnightblue" points="1243.44,-17.75 1232.99,-19.52 1242.26,-24.65 1243.44,-17.75"/>
</g>
<!-- Node12&#45;&gt;Node11 -->
<g id="edge15" class="edge">
<title>Node12&#45;&gt;Node11</title>
<path fill="none" stroke="midnightblue" d="M1464.36,-56.46C1429.64,-48.07 1375.09,-34.74 1318.9,-20.19"/>
<polygon fill="midnightblue" stroke="midnightblue" points="1319.69,-16.78 1309.13,-17.65 1317.93,-23.56 1319.69,-16.78"/>
</g>
<!-- Node13 -->
<g id="node13" class="node">
<title>Node13</title>
<g id="a_node13"><a xlink:title=" ">
<polygon fill="none" stroke="#bfbfbf" points="1904,-0.5 1904,-19.5 1942,-19.5 1942,-0.5 1904,-0.5"/>
<text text-anchor="middle" x="1923" y="-7.5" font-family="FreeSans.ttf" font-size="10.00">map</text>
</a>
</g>
</g>
<!-- Node12&#45;&gt;Node13 -->
<g id="edge12" class="edge">
<title>Node12&#45;&gt;Node13</title>
<path fill="none" stroke="midnightblue" d="M1582.23,-56.58C1681.72,-46.26 1841.65,-29.21 1894,-19.87"/>
<polygon fill="midnightblue" stroke="midnightblue" points="1894.84,-23.27 1903.96,-17.89 1893.47,-16.41 1894.84,-23.27"/>
</g>
<!-- Node14 -->
<g id="node14" class="node">
<title>Node14</title>
<g id="a_node14"><a xlink:title=" ">
<polygon fill="none" stroke="#bfbfbf" points="1327.5,-0.5 1327.5,-19.5 1420.5,-19.5 1420.5,-0.5 1327.5,-0.5"/>
<text text-anchor="middle" x="1374" y="-7.5" font-family="FreeSans.ttf" font-size="10.00">sdf/sdf_config.h</text>
</a>
</g>
</g>
<!-- Node12&#45;&gt;Node14 -->
<g id="edge13" class="edge">
<title>Node12&#45;&gt;Node14</title>
<path fill="none" stroke="midnightblue" d="M1480.03,-56.44C1459.39,-47.6 1426.94,-33.69 1403.37,-23.59"/>
<polygon fill="midnightblue" stroke="midnightblue" points="1404.44,-20.24 1393.87,-19.52 1401.68,-26.67 1404.44,-20.24"/>
</g>
<!-- Node15 -->
<g id="node15" class="node">
<title>Node15</title>
<g id="a_node15"><a xlink:title=" ">
<polygon fill="none" stroke="#bfbfbf" points="1439,-0.5 1439,-19.5 1561,-19.5 1561,-0.5 1439,-0.5"/>
<text text-anchor="middle" x="1500" y="-7.5" font-family="FreeSans.ttf" font-size="10.00">yarp/dev/PolyDriver.h</text>
</a>
</g>
</g>
<!-- Node12&#45;&gt;Node15 -->
<g id="edge16" class="edge">
<title>Node12&#45;&gt;Node15</title>
<path fill="none" stroke="midnightblue" d="M1500,-56.08C1500,-49.01 1500,-38.86 1500,-29.99"/>
<polygon fill="midnightblue" stroke="midnightblue" points="1503.5,-29.75 1500,-19.75 1496.5,-29.75 1503.5,-29.75"/>
</g>
<!-- Node16 -->
<g id="node16" class="node">
<title>Node16</title>
<g id="a_node16"><a xlink:title=" ">
<polygon fill="none" stroke="#bfbfbf" points="1579,-0.5 1579,-19.5 1719,-19.5 1719,-0.5 1579,-0.5"/>
<text text-anchor="middle" x="1649" y="-7.5" font-family="FreeSans.ttf" font-size="10.00">yarp/dev/PolyDriverList.h</text>
</a>
</g>
</g>
<!-- Node12&#45;&gt;Node16 -->
<g id="edge17" class="edge">
<title>Node12&#45;&gt;Node16</title>
<path fill="none" stroke="midnightblue" d="M1523.61,-56.44C1548.46,-47.44 1587.77,-33.19 1615.75,-23.05"/>
<polygon fill="midnightblue" stroke="midnightblue" points="1617.29,-26.21 1625.5,-19.52 1614.91,-19.63 1617.29,-26.21"/>
</g>
<!-- Node17 -->
<g id="node17" class="node">
<title>Node17</title>
<g id="a_node17"><a xlink:title=" ">
<polygon fill="none" stroke="#bfbfbf" points="1737.5,-0.5 1737.5,-19.5 1886.5,-19.5 1886.5,-0.5 1737.5,-0.5"/>
<text text-anchor="middle" x="1812" y="-7.5" font-family="FreeSans.ttf" font-size="10.00">gazebo/common/Events.hh</text>
</a>
</g>
</g>
<!-- Node12&#45;&gt;Node17 -->
<g id="edge18" class="edge">
<title>Node12&#45;&gt;Node17</title>
<path fill="none" stroke="midnightblue" d="M1549.44,-56.44C1604.66,-46.89 1694.02,-31.42 1752.89,-21.23"/>
<polygon fill="midnightblue" stroke="midnightblue" points="1753.54,-24.67 1762.79,-19.52 1752.34,-17.77 1753.54,-24.67"/>
</g>
<!-- Node19 -->
<g id="node19" class="node">
<title>Node19</title>
<g id="a_node19"><a xlink:title=" ">
<polygon fill="none" stroke="#bfbfbf" points="1960,-0.5 1960,-19.5 2004,-19.5 2004,-0.5 1960,-0.5"/>
<text text-anchor="middle" x="1982" y="-7.5" font-family="FreeSans.ttf" font-size="10.00">string</text>
</a>
</g>
</g>
<!-- Node18&#45;&gt;Node19 -->
<g id="edge20" class="edge">
<title>Node18&#45;&gt;Node19</title>
<path fill="none" stroke="midnightblue" d="M1745.73,-56.48C1798.14,-48.99 1874.5,-36.96 1949.62,-20.1"/>
<polygon fill="midnightblue" stroke="midnightblue" points="1950.76,-23.43 1959.73,-17.8 1949.2,-16.61 1950.76,-23.43"/>
</g>
<!-- Node20 -->
<g id="node20" class="node">
<title>Node20</title>
<g id="a_node20"><a xlink:title=" ">
<polygon fill="none" stroke="#bfbfbf" points="2022.5,-0.5 2022.5,-19.5 2069.5,-19.5 2069.5,-0.5 2022.5,-0.5"/>
<text text-anchor="middle" x="2046" y="-7.5" font-family="FreeSans.ttf" font-size="10.00">cmath</text>
</a>
</g>
</g>
<!-- Node18&#45;&gt;Node20 -->
<g id="edge21" class="edge">
<title>Node18&#45;&gt;Node20</title>
<path fill="none" stroke="midnightblue" d="M1764.12,-56.87C1829.04,-49.74 1922.07,-37.97 2012.43,-19.87"/>
<polygon fill="midnightblue" stroke="midnightblue" points="2013.19,-23.29 2022.3,-17.86 2011.8,-16.43 2013.19,-23.29"/>
</g>
</g>
</svg>
