<?xml version="1.0" encoding="UTF-8" standalone="no"?>
<!DOCTYPE svg PUBLIC "-//W3C//DTD SVG 1.1//EN"
 "http://www.w3.org/Graphics/SVG/1.1/DTD/svg11.dtd">
<!-- Generated by graphviz version 5.0.1 (20220821.0811)
 -->
<!-- Title: GazeboYarpPlugins::ClockServer_getSimulationTime_helper Pages: 1 -->
<svg width="598pt" height="148pt"
 viewBox="0.00 0.00 598.00 148.00" xmlns="http://www.w3.org/2000/svg" xmlns:xlink="http://www.w3.org/1999/xlink">
<g id="graph0" class="graph" transform="scale(1 1) rotate(0) translate(4 144)">
<title>GazeboYarpPlugins::ClockServer_getSimulationTime_helper</title>
<!-- Node1 -->
<g id="node1" class="node">
<title>Node1</title>
<g id="a_node1"><a xlink:title=" ">
<polygon fill="#bfbfbf" stroke="black" points="417,-86.5 417,-127.5 590,-127.5 590,-86.5 417,-86.5"/>
<text text-anchor="start" x="425" y="-115.5" font-family="FreeSans.ttf" font-size="10.00">GazeboYarpPlugins::</text>
<text text-anchor="start" x="425" y="-104.5" font-family="FreeSans.ttf" font-size="10.00">ClockServer_getSimulationTime</text>
<text text-anchor="middle" x="503.5" y="-93.5" font-family="FreeSans.ttf" font-size="10.00">_helper</text>
</a>
</g>
</g>
<!-- Node2 -->
<g id="node2" class="node">
<title>Node2</title>
<g id="a_node2"><a xlink:title=" ">
<polygon fill="none" stroke="black" points="215.5,-120.5 215.5,-139.5 317.5,-139.5 317.5,-120.5 215.5,-120.5"/>
<text text-anchor="middle" x="266.5" y="-127.5" font-family="FreeSans.ttf" font-size="10.00">yarp::os::Portable</text>
</a>
</g>
</g>
<!-- Node2&#45;&gt;Node1 -->
<g id="edge1" class="edge">
<title>Node2&#45;&gt;Node1</title>
<path fill="none" stroke="midnightblue" d="M320.2,-119.1C348.68,-115.32 384.56,-111.55 416.94,-108.85"/>
<polygon fill="midnightblue" stroke="midnightblue" points="319.49,-115.67 310.06,-120.49 320.44,-122.6 319.49,-115.67"/>
</g>
<!-- Node2&#45;&gt;Node1 -->
<g id="edge2" class="edge">
<title>Node2&#45;&gt;Node1</title>
<path fill="none" stroke="midnightblue" d="M327.73,-130.09C354.81,-128.23 387.28,-125.23 416.83,-121.91"/>
<polygon fill="midnightblue" stroke="midnightblue" points="327.38,-126.6 317.63,-130.74 327.83,-133.59 327.38,-126.6"/>
</g>
<!-- Node3 -->
<g id="node3" class="node">
<title>Node3</title>
<g id="a_node3"><a xlink:href="classGazeboYarpPlugins_1_1ClockServer__getSimulationTime__helper_1_1Command.html" target="_top" xlink:title=" ">
<polygon fill="none" stroke="black" points="180,-60.5 180,-101.5 353,-101.5 353,-60.5 180,-60.5"/>
<text text-anchor="start" x="188" y="-89.5" font-family="FreeSans.ttf" font-size="10.00">GazeboYarpPlugins::</text>
<text text-anchor="start" x="188" y="-78.5" font-family="FreeSans.ttf" font-size="10.00">ClockServer_getSimulationTime</text>
<text text-anchor="middle" x="266.5" y="-67.5" font-family="FreeSans.ttf" font-size="10.00">_helper::Command</text>
</a>
</g>
</g>
<!-- Node3&#45;&gt;Node1 -->
<g id="edge3" class="edge">
<title>Node3&#45;&gt;Node1</title>
<path fill="none" stroke="#9a32cd" stroke-dasharray="5,2" d="M363.31,-91.6C380.98,-93.55 399.32,-95.58 416.66,-97.5"/>
<polygon fill="#9a32cd" stroke="#9a32cd" points="363.33,-88.08 353.01,-90.46 362.56,-95.04 363.33,-88.08"/>
<text text-anchor="middle" x="385" y="-97" font-family="FreeSans.ttf" font-size="10.00"> cmd</text>
</g>
<!-- Node4 -->
<g id="node4" class="node">
<title>Node4</title>
<g id="a_node4"><a xlink:title=" ">
<polygon fill="none" stroke="black" points="0,-40.5 0,-59.5 143,-59.5 143,-40.5 0,-40.5"/>
<text text-anchor="middle" x="71.5" y="-47.5" font-family="FreeSans.ttf" font-size="10.00">yarp::os::idl::WirePortable</text>
</a>
</g>
</g>
<!-- Node4&#45;&gt;Node3 -->
<g id="edge4" class="edge">
<title>Node4&#45;&gt;Node3</title>
<path fill="none" stroke="midnightblue" d="M153.18,-56.29C162.03,-57.62 171.08,-59.06 179.99,-60.55"/>
<polygon fill="midnightblue" stroke="midnightblue" points="153.67,-52.83 143.27,-54.84 152.66,-59.75 153.67,-52.83"/>
</g>
<!-- Node4&#45;&gt;Node3 -->
<g id="edge5" class="edge">
<title>Node4&#45;&gt;Node3</title>
<path fill="none" stroke="midnightblue" d="M110.81,-61.67C130.57,-65.81 155.54,-70.22 179.61,-73.92"/>
<polygon fill="midnightblue" stroke="midnightblue" points="111.49,-58.23 100.98,-59.53 110.01,-65.07 111.49,-58.23"/>
</g>
<!-- Node5 -->
<g id="node5" class="node">
<title>Node5</title>
<g id="a_node5"><a xlink:href="classGazeboYarpPlugins_1_1ClockServer__getSimulationTime__helper_1_1Reply.html" target="_top" xlink:title=" ">
<polygon fill="none" stroke="black" points="180,-0.5 180,-41.5 353,-41.5 353,-0.5 180,-0.5"/>
<text text-anchor="start" x="188" y="-29.5" font-family="FreeSans.ttf" font-size="10.00">GazeboYarpPlugins::</text>
<text text-anchor="start" x="188" y="-18.5" font-family="FreeSans.ttf" font-size="10.00">ClockServer_getSimulationTime</text>
<text text-anchor="middle" x="266.5" y="-7.5" font-family="FreeSans.ttf" font-size="10.00">_helper::Reply</text>
</a>
</g>
</g>
<!-- Node4&#45;&gt;Node5 -->
<g id="edge7" class="edge">
<title>Node4&#45;&gt;Node5</title>
<path fill="none" stroke="midnightblue" d="M112.29,-38.44C131.86,-34.58 156.26,-30.54 179.8,-27.17"/>
<polygon fill="midnightblue" stroke="midnightblue" points="111.33,-35.06 102.23,-40.5 112.73,-41.92 111.33,-35.06"/>
</g>
<!-- Node4&#45;&gt;Node5 -->
<g id="edge8" class="edge">
<title>Node4&#45;&gt;Node5</title>
<path fill="none" stroke="midnightblue" d="M153.46,-44.51C162.23,-43.28 171.17,-41.95 179.99,-40.56"/>
<polygon fill="midnightblue" stroke="midnightblue" points="152.7,-41.08 143.27,-45.9 153.65,-48.01 152.7,-41.08"/>
</g>
<!-- Node5&#45;&gt;Node1 -->
<g id="edge6" class="edge">
<title>Node5&#45;&gt;Node1</title>
<path fill="none" stroke="#9a32cd" stroke-dasharray="5,2" d="M336.37,-45.02C342,-47.03 347.6,-49.04 353,-51 384.66,-62.48 419.94,-75.68 448.28,-86.38"/>
<polygon fill="#9a32cd" stroke="#9a32cd" points="337.49,-41.71 326.89,-41.66 335.14,-48.3 337.49,-41.71"/>
<text text-anchor="middle" x="385" y="-70" font-family="FreeSans.ttf" font-size="10.00"> reply</text>
</g>
</g>
</svg>
