<?xml version="1.0" encoding="UTF-8" standalone="no"?>
<!DOCTYPE svg PUBLIC "-//W3C//DTD SVG 1.1//EN"
 "http://www.w3.org/Graphics/SVG/1.1/DTD/svg11.dtd">
<!-- Generated by graphviz version 5.0.1 (20220821.0811)
 -->
<!-- Title: GazeboYarpPlugins::WorldInterfaceServer_loadModelFromFile_helper Pages: 1 -->
<svg width="554pt" height="171pt"
 viewBox="0.00 0.00 554.00 170.50" xmlns="http://www.w3.org/2000/svg" xmlns:xlink="http://www.w3.org/1999/xlink">
<g id="graph0" class="graph" transform="scale(1 1) rotate(0) translate(4 166.5)">
<title>GazeboYarpPlugins::WorldInterfaceServer_loadModelFromFile_helper</title>
<!-- Node1 -->
<g id="node1" class="node">
<title>Node1</title>
<g id="a_node1"><a xlink:title=" ">
<polygon fill="#bfbfbf" stroke="black" points="395,-104 395,-145 546,-145 546,-104 395,-104"/>
<text text-anchor="start" x="403" y="-133" font-family="FreeSans.ttf" font-size="10.00">GazeboYarpPlugins::</text>
<text text-anchor="start" x="403" y="-122" font-family="FreeSans.ttf" font-size="10.00">WorldInterfaceServer</text>
<text text-anchor="middle" x="470.5" y="-111" font-family="FreeSans.ttf" font-size="10.00">_loadModelFromFile_helper</text>
</a>
</g>
</g>
<!-- Node2 -->
<g id="node2" class="node">
<title>Node2</title>
<g id="a_node2"><a xlink:title=" ">
<polygon fill="none" stroke="black" points="204.5,-143 204.5,-162 306.5,-162 306.5,-143 204.5,-143"/>
<text text-anchor="middle" x="255.5" y="-150" font-family="FreeSans.ttf" font-size="10.00">yarp::os::Portable</text>
</a>
</g>
</g>
<!-- Node2&#45;&gt;Node1 -->
<g id="edge1" class="edge">
<title>Node2&#45;&gt;Node1</title>
<path fill="none" stroke="midnightblue" d="M300.25,-141.17C327.49,-136.43 363.25,-131.43 394.87,-127.84"/>
<polygon fill="midnightblue" stroke="midnightblue" points="299.47,-137.76 290.25,-142.97 300.71,-144.65 299.47,-137.76"/>
</g>
<!-- Node2&#45;&gt;Node1 -->
<g id="edge2" class="edge">
<title>Node2&#45;&gt;Node1</title>
<path fill="none" stroke="midnightblue" d="M316.81,-150.72C341,-148.21 369.12,-144.62 394.59,-140.83"/>
<polygon fill="midnightblue" stroke="midnightblue" points="316.31,-147.25 306.71,-151.73 317.01,-154.22 316.31,-147.25"/>
</g>
<!-- Node3 -->
<g id="node3" class="node">
<title>Node3</title>
<g id="a_node3"><a xlink:href="classGazeboYarpPlugins_1_1WorldInterfaceServer__loadModelFromFile__helper_1_1Command.html" target="_top" xlink:title=" ">
<polygon fill="none" stroke="black" points="180,-71.5 180,-123.5 331,-123.5 331,-71.5 180,-71.5"/>
<text text-anchor="start" x="188" y="-111.5" font-family="FreeSans.ttf" font-size="10.00">GazeboYarpPlugins::</text>
<text text-anchor="start" x="188" y="-100.5" font-family="FreeSans.ttf" font-size="10.00">WorldInterfaceServer</text>
<text text-anchor="start" x="188" y="-89.5" font-family="FreeSans.ttf" font-size="10.00">_loadModelFromFile_helper</text>
<text text-anchor="middle" x="255.5" y="-78.5" font-family="FreeSans.ttf" font-size="10.00">::Command</text>
</a>
</g>
</g>
<!-- Node3&#45;&gt;Node1 -->
<g id="edge3" class="edge">
<title>Node3&#45;&gt;Node1</title>
<path fill="none" stroke="#9a32cd" stroke-dasharray="5,2" d="M341.57,-108.28C359.2,-110.52 377.66,-112.86 394.88,-115.04"/>
<polygon fill="#9a32cd" stroke="#9a32cd" points="341.66,-104.77 331.3,-106.98 340.78,-111.71 341.66,-104.77"/>
<text text-anchor="middle" x="363" y="-115.5" font-family="FreeSans.ttf" font-size="10.00"> cmd</text>
</g>
<!-- Node4 -->
<g id="node4" class="node">
<title>Node4</title>
<g id="a_node4"><a xlink:title=" ">
<polygon fill="none" stroke="black" points="0,-52 0,-71 143,-71 143,-52 0,-52"/>
<text text-anchor="middle" x="71.5" y="-59" font-family="FreeSans.ttf" font-size="10.00">yarp::os::idl::WirePortable</text>
</a>
</g>
</g>
<!-- Node4&#45;&gt;Node3 -->
<g id="edge4" class="edge">
<title>Node4&#45;&gt;Node3</title>
<path fill="none" stroke="midnightblue" d="M153.06,-70.72C161.92,-72.41 170.91,-74.21 179.7,-76.05"/>
<polygon fill="midnightblue" stroke="midnightblue" points="153.6,-67.26 143.13,-68.87 152.32,-74.15 153.6,-67.26"/>
</g>
<!-- Node4&#45;&gt;Node3 -->
<g id="edge5" class="edge">
<title>Node4&#45;&gt;Node3</title>
<path fill="none" stroke="midnightblue" d="M106.53,-73.63C127.18,-78.86 154.37,-84.65 179.8,-89.38"/>
<polygon fill="midnightblue" stroke="midnightblue" points="107.23,-70.2 96.67,-71.04 105.45,-76.97 107.23,-70.2"/>
</g>
<!-- Node5 -->
<g id="node5" class="node">
<title>Node5</title>
<g id="a_node5"><a xlink:href="classGazeboYarpPlugins_1_1WorldInterfaceServer__loadModelFromFile__helper_1_1Reply.html" target="_top" xlink:title=" ">
<polygon fill="none" stroke="black" points="180,-0.5 180,-52.5 331,-52.5 331,-0.5 180,-0.5"/>
<text text-anchor="start" x="188" y="-40.5" font-family="FreeSans.ttf" font-size="10.00">GazeboYarpPlugins::</text>
<text text-anchor="start" x="188" y="-29.5" font-family="FreeSans.ttf" font-size="10.00">WorldInterfaceServer</text>
<text text-anchor="start" x="188" y="-18.5" font-family="FreeSans.ttf" font-size="10.00">_loadModelFromFile_helper</text>
<text text-anchor="middle" x="255.5" y="-7.5" font-family="FreeSans.ttf" font-size="10.00">::Reply</text>
</a>
</g>
</g>
<!-- Node4&#45;&gt;Node5 -->
<g id="edge7" class="edge">
<title>Node4&#45;&gt;Node5</title>
<path fill="none" stroke="midnightblue" d="M106.89,-49.47C127.46,-44.39 154.44,-38.79 179.7,-34.23"/>
<polygon fill="midnightblue" stroke="midnightblue" points="105.86,-46.12 97.05,-51.99 107.6,-52.9 105.86,-46.12"/>
</g>
<!-- Node4&#45;&gt;Node5 -->
<g id="edge8" class="edge">
<title>Node4&#45;&gt;Node5</title>
<path fill="none" stroke="midnightblue" d="M153.06,-52.72C161.92,-51.08 170.91,-49.33 179.7,-47.54"/>
<polygon fill="midnightblue" stroke="midnightblue" points="152.34,-49.29 143.13,-54.52 153.59,-56.18 152.34,-49.29"/>
</g>
<!-- Node5&#45;&gt;Node1 -->
<g id="edge6" class="edge">
<title>Node5&#45;&gt;Node1</title>
<path fill="none" stroke="#9a32cd" stroke-dasharray="5,2" d="M322.24,-56.75C355.55,-72.07 395.14,-90.29 424.87,-103.97"/>
<polygon fill="#9a32cd" stroke="#9a32cd" points="323.57,-53.51 313.02,-52.5 320.64,-59.86 323.57,-53.51"/>
<text text-anchor="middle" x="363" y="-84.5" font-family="FreeSans.ttf" font-size="10.00"> reply</text>
</g>
</g>
</svg>
