<?xml version="1.0" encoding="UTF-8" standalone="no"?>
<!DOCTYPE svg PUBLIC "-//W3C//DTD SVG 1.1//EN"
 "http://www.w3.org/Graphics/SVG/1.1/DTD/svg11.dtd">
<!-- Generated by graphviz version 5.0.0 (20220707.2338)
 -->
<!-- Title: GazeboYarpPlugins::WorldInterfaceServer_loadModelFromFileWithPose_helper::Command Pages: 1 -->
<svg width="264pt" height="185pt"
 viewBox="0.00 0.00 263.50 185.00" xmlns="http://www.w3.org/2000/svg" xmlns:xlink="http://www.w3.org/1999/xlink">
<g id="graph0" class="graph" transform="scale(1 1) rotate(0) translate(4 181)">
<title>GazeboYarpPlugins::WorldInterfaceServer_loadModelFromFileWithPose_helper::Command</title>
<!-- Node1 -->
<g id="node1" class="node">
<title>Node1</title>
<g id="a_node1"><a xlink:title=" ">
<polygon fill="#bfbfbf" stroke="black" points="0,-0.5 0,-52.5 161,-52.5 161,-0.5 0,-0.5"/>
<text text-anchor="start" x="8" y="-40.5" font-family="FreeSans.ttf" font-size="10.00">GazeboYarpPlugins::</text>
<text text-anchor="start" x="8" y="-29.5" font-family="FreeSans.ttf" font-size="10.00">WorldInterfaceServer</text>
<text text-anchor="start" x="8" y="-18.5" font-family="FreeSans.ttf" font-size="10.00">_loadModelFromFileWithPose</text>
<text text-anchor="middle" x="80.5" y="-7.5" font-family="FreeSans.ttf" font-size="10.00">_helper::Command</text>
</a>
</g>
</g>
<!-- Node2 -->
<g id="node2" class="node">
<title>Node2</title>
<g id="a_node2"><a xlink:title=" ">
<polygon fill="none" stroke="black" points="30,-157.5 30,-176.5 173,-176.5 173,-157.5 30,-157.5"/>
<text text-anchor="middle" x="101.5" y="-164.5" font-family="FreeSans.ttf" font-size="10.00">yarp::os::idl::WirePortable</text>
</a>
</g>
</g>
<!-- Node2&#45;&gt;Node1 -->
<g id="edge1" class="edge">
<title>Node2&#45;&gt;Node1</title>
<path fill="none" stroke="midnightblue" d="M93.94,-147.56C87.8,-123.13 81.06,-79.96 78.96,-52.59"/>
<polygon fill="midnightblue" stroke="midnightblue" points="90.61,-148.66 96.7,-157.34 97.35,-146.76 90.61,-148.66"/>
</g>
<!-- Node2&#45;&gt;Node1 -->
<g id="edge2" class="edge">
<title>Node2&#45;&gt;Node1</title>
<path fill="none" stroke="midnightblue" d="M103.45,-147.23C102.15,-122.74 95.82,-79.84 89.64,-52.59"/>
<polygon fill="midnightblue" stroke="midnightblue" points="99.95,-147.42 103.67,-157.34 106.95,-147.26 99.95,-147.42"/>
</g>
<!-- Node3 -->
<g id="node3" class="node">
<title>Node3</title>
<g id="a_node3"><a xlink:href="classGazeboYarpPlugins_1_1Pose.html" target="_top" xlink:title=" ">
<polygon fill="none" stroke="black" points="117.5,-100.5 117.5,-119.5 255.5,-119.5 255.5,-100.5 117.5,-100.5"/>
<text text-anchor="middle" x="186.5" y="-107.5" font-family="FreeSans.ttf" font-size="10.00">GazeboYarpPlugins::Pose</text>
</a>
</g>
</g>
<!-- Node2&#45;&gt;Node3 -->
<g id="edge4" class="edge">
<title>Node2&#45;&gt;Node3</title>
<path fill="none" stroke="midnightblue" d="M117.83,-151.54C132.34,-141.35 153.2,-128.07 168.26,-119.53"/>
<polygon fill="midnightblue" stroke="midnightblue" points="115.77,-148.71 109.72,-157.41 119.87,-154.38 115.77,-148.71"/>
</g>
<!-- Node2&#45;&gt;Node3 -->
<g id="edge5" class="edge">
<title>Node2&#45;&gt;Node3</title>
<path fill="none" stroke="midnightblue" d="M128.86,-152.14C145.91,-141.96 166.53,-128.43 178.12,-119.71"/>
<polygon fill="midnightblue" stroke="midnightblue" points="126.72,-149.34 119.84,-157.41 130.24,-155.39 126.72,-149.34"/>
</g>
<!-- Node3&#45;&gt;Node1 -->
<g id="edge3" class="edge">
<title>Node3&#45;&gt;Node1</title>
<path fill="none" stroke="#9a32cd" stroke-dasharray="5,2" d="M167.1,-94.09C152.1,-82.55 130.98,-66.31 113.36,-52.76"/>
<polygon fill="#9a32cd" stroke="#9a32cd" points="165.1,-96.96 175.16,-100.28 169.36,-91.41 165.1,-96.96"/>
<text text-anchor="middle" x="162" y="-74" font-family="FreeSans.ttf" font-size="10.00"> pose</text>
</g>
</g>
</svg>
