<?xml version="1.0" encoding="UTF-8" standalone="no"?>
<!DOCTYPE svg PUBLIC "-//W3C//DTD SVG 1.1//EN"
 "http://www.w3.org/Graphics/SVG/1.1/DTD/svg11.dtd">
<!-- Generated by graphviz version 5.0.0 (20220707.2338)
 -->
<!-- Title: GazeboYarpPlugins::WorldInterfaceServer_makeFrame_helper Pages: 1 -->
<svg width="753pt" height="187pt"
 viewBox="0.00 0.00 753.00 187.00" xmlns="http://www.w3.org/2000/svg" xmlns:xlink="http://www.w3.org/1999/xlink">
<g id="graph0" class="graph" transform="scale(1 1) rotate(0) translate(4 183)">
<title>GazeboYarpPlugins::WorldInterfaceServer_makeFrame_helper</title>
<!-- Node1 -->
<g id="node1" class="node">
<title>Node1</title>
<g id="a_node1"><a xlink:title=" ">
<polygon fill="#bfbfbf" stroke="black" points="626,-123.5 626,-164.5 745,-164.5 745,-123.5 626,-123.5"/>
<text text-anchor="start" x="634" y="-152.5" font-family="FreeSans.ttf" font-size="10.00">GazeboYarpPlugins::</text>
<text text-anchor="start" x="634" y="-141.5" font-family="FreeSans.ttf" font-size="10.00">WorldInterfaceServer</text>
<text text-anchor="middle" x="685.5" y="-130.5" font-family="FreeSans.ttf" font-size="10.00">_makeFrame_helper</text>
</a>
</g>
</g>
<!-- Node2 -->
<g id="node2" class="node">
<title>Node2</title>
<g id="a_node2"><a xlink:title=" ">
<polygon fill="none" stroke="black" points="428,-159.5 428,-178.5 530,-178.5 530,-159.5 428,-159.5"/>
<text text-anchor="middle" x="479" y="-166.5" font-family="FreeSans.ttf" font-size="10.00">yarp::os::Portable</text>
</a>
</g>
</g>
<!-- Node2&#45;&gt;Node1 -->
<g id="edge1" class="edge">
<title>Node2&#45;&gt;Node1</title>
<path fill="none" stroke="midnightblue" d="M525.21,-157.76C554.83,-152.93 593.83,-148.01 625.82,-145"/>
<polygon fill="midnightblue" stroke="midnightblue" points="524.43,-154.34 515.15,-159.46 525.6,-161.24 524.43,-154.34"/>
</g>
<!-- Node2&#45;&gt;Node1 -->
<g id="edge2" class="edge">
<title>Node2&#45;&gt;Node1</title>
<path fill="none" stroke="midnightblue" d="M540.15,-167.86C567.21,-165.28 599.05,-161.38 625.92,-157.33"/>
<polygon fill="midnightblue" stroke="midnightblue" points="539.67,-164.39 530.03,-168.78 540.3,-171.36 539.67,-164.39"/>
</g>
<!-- Node3 -->
<g id="node3" class="node">
<title>Node3</title>
<g id="a_node3"><a xlink:href="classGazeboYarpPlugins_1_1WorldInterfaceServer__makeFrame__helper_1_1Command.html" target="_top" xlink:title=" ">
<polygon fill="none" stroke="black" points="393,-99.5 393,-140.5 565,-140.5 565,-99.5 393,-99.5"/>
<text text-anchor="start" x="401" y="-128.5" font-family="FreeSans.ttf" font-size="10.00">GazeboYarpPlugins::</text>
<text text-anchor="start" x="401" y="-117.5" font-family="FreeSans.ttf" font-size="10.00">WorldInterfaceServer</text>
<text text-anchor="middle" x="479" y="-106.5" font-family="FreeSans.ttf" font-size="10.00">_makeFrame_helper::Command</text>
</a>
</g>
</g>
<!-- Node3&#45;&gt;Node1 -->
<g id="edge3" class="edge">
<title>Node3&#45;&gt;Node1</title>
<path fill="none" stroke="#9a32cd" stroke-dasharray="5,2" d="M575.26,-127.31C586.31,-128.42 597.41,-129.65 608,-131 613.75,-131.73 619.72,-132.59 625.68,-133.5"/>
<polygon fill="#9a32cd" stroke="#9a32cd" points="575.43,-123.81 565.14,-126.33 574.75,-130.78 575.43,-123.81"/>
<text text-anchor="middle" x="595.5" y="-134" font-family="FreeSans.ttf" font-size="10.00"> cmd</text>
</g>
<!-- Node4 -->
<g id="node4" class="node">
<title>Node4</title>
<g id="a_node4"><a xlink:title=" ">
<polygon fill="none" stroke="black" points="0,-88.5 0,-107.5 143,-107.5 143,-88.5 0,-88.5"/>
<text text-anchor="middle" x="71.5" y="-95.5" font-family="FreeSans.ttf" font-size="10.00">yarp::os::idl::WirePortable</text>
</a>
</g>
</g>
<!-- Node4&#45;&gt;Node3 -->
<g id="edge4" class="edge">
<title>Node4&#45;&gt;Node3</title>
<path fill="none" stroke="midnightblue" d="M117.84,-111.16C136.63,-118.29 158.92,-126.12 180,-130 250.99,-143.08 332.93,-136.31 392.89,-128.86"/>
<polygon fill="midnightblue" stroke="midnightblue" points="118.95,-107.84 108.36,-107.53 116.44,-114.38 118.95,-107.84"/>
</g>
<!-- Node4&#45;&gt;Node3 -->
<g id="edge5" class="edge">
<title>Node4&#45;&gt;Node3</title>
<path fill="none" stroke="midnightblue" d="M89.77,-113.26C110.54,-125.96 146.78,-141.88 180,-148 258.64,-162.49 350.7,-152.62 411.46,-140.52"/>
<polygon fill="midnightblue" stroke="midnightblue" points="91.65,-110.3 81.38,-107.69 87.78,-116.14 91.65,-110.3"/>
</g>
<!-- Node5 -->
<g id="node5" class="node">
<title>Node5</title>
<g id="a_node5"><a xlink:href="classGazeboYarpPlugins_1_1Pose.html" target="_top" xlink:title=" ">
<polygon fill="none" stroke="black" points="185.5,-110.5 185.5,-129.5 323.5,-129.5 323.5,-110.5 185.5,-110.5"/>
<text text-anchor="middle" x="254.5" y="-117.5" font-family="FreeSans.ttf" font-size="10.00">GazeboYarpPlugins::Pose</text>
</a>
</g>
</g>
<!-- Node4&#45;&gt;Node5 -->
<g id="edge7" class="edge">
<title>Node4&#45;&gt;Node5</title>
<path fill="none" stroke="midnightblue" d="M153.48,-101.13C176.66,-103.78 200.69,-107.14 219.39,-110.44"/>
<polygon fill="midnightblue" stroke="midnightblue" points="153.58,-97.62 143.26,-100 152.81,-104.57 153.58,-97.62"/>
</g>
<!-- Node4&#45;&gt;Node5 -->
<g id="edge8" class="edge">
<title>Node4&#45;&gt;Node5</title>
<path fill="none" stroke="midnightblue" d="M116.62,-109.25C137.32,-112.61 162.44,-115.89 185.49,-118.3"/>
<polygon fill="midnightblue" stroke="midnightblue" points="116.99,-105.77 106.54,-107.55 115.82,-112.67 116.99,-105.77"/>
</g>
<!-- Node6 -->
<g id="node6" class="node">
<title>Node6</title>
<g id="a_node6"><a xlink:href="classGazeboYarpPlugins_1_1Color.html" target="_top" xlink:title=" ">
<polygon fill="none" stroke="black" points="197,-61 197,-91 312,-91 312,-61 197,-61"/>
<text text-anchor="start" x="205" y="-79" font-family="FreeSans.ttf" font-size="10.00">GazeboYarpPlugins::</text>
<text text-anchor="middle" x="254.5" y="-68" font-family="FreeSans.ttf" font-size="10.00">Color</text>
</a>
</g>
</g>
<!-- Node4&#45;&gt;Node6 -->
<g id="edge10" class="edge">
<title>Node4&#45;&gt;Node6</title>
<path fill="none" stroke="midnightblue" d="M116.5,-86.77C140.67,-82.84 170.92,-79.02 196.84,-76.58"/>
<polygon fill="midnightblue" stroke="midnightblue" points="115.82,-83.33 106.54,-88.45 116.99,-90.23 115.82,-83.33"/>
</g>
<!-- Node4&#45;&gt;Node6 -->
<g id="edge11" class="edge">
<title>Node4&#45;&gt;Node6</title>
<path fill="none" stroke="midnightblue" d="M153.33,-94.89C167.99,-93.21 183,-91.26 196.78,-89.21"/>
<polygon fill="midnightblue" stroke="midnightblue" points="152.81,-91.43 143.26,-96 153.58,-98.38 152.81,-91.43"/>
</g>
<!-- Node7 -->
<g id="node7" class="node">
<title>Node7</title>
<g id="a_node7"><a xlink:href="classGazeboYarpPlugins_1_1WorldInterfaceServer__makeFrame__helper_1_1Reply.html" target="_top" xlink:title=" ">
<polygon fill="none" stroke="black" points="180,-0.5 180,-41.5 329,-41.5 329,-0.5 180,-0.5"/>
<text text-anchor="start" x="188" y="-29.5" font-family="FreeSans.ttf" font-size="10.00">GazeboYarpPlugins::</text>
<text text-anchor="start" x="188" y="-18.5" font-family="FreeSans.ttf" font-size="10.00">WorldInterfaceServer</text>
<text text-anchor="middle" x="254.5" y="-7.5" font-family="FreeSans.ttf" font-size="10.00">_makeFrame_helper::Reply</text>
</a>
</g>
</g>
<!-- Node4&#45;&gt;Node7 -->
<g id="edge13" class="edge">
<title>Node4&#45;&gt;Node7</title>
<path fill="none" stroke="midnightblue" d="M91.32,-83.39C112.77,-71.7 148.89,-56.22 180,-43 181.15,-42.51 182.3,-42.02 183.47,-41.53"/>
<polygon fill="midnightblue" stroke="midnightblue" points="89.46,-80.42 82.57,-88.47 92.98,-86.47 89.46,-80.42"/>
</g>
<!-- Node4&#45;&gt;Node7 -->
<g id="edge14" class="edge">
<title>Node4&#45;&gt;Node7</title>
<path fill="none" stroke="midnightblue" d="M123.26,-84.69C141.18,-77.54 161.48,-68.87 180,-61 194.53,-54.83 210.7,-48 224.16,-41.54"/>
<polygon fill="midnightblue" stroke="midnightblue" points="121.6,-81.58 113.57,-88.5 124.16,-88.1 121.6,-81.58"/>
</g>
<!-- Node5&#45;&gt;Node3 -->
<g id="edge6" class="edge">
<title>Node5&#45;&gt;Node3</title>
<path fill="none" stroke="#9a32cd" stroke-dasharray="5,2" d="M333.92,-120C353.03,-120 373.56,-120 392.96,-120"/>
<polygon fill="#9a32cd" stroke="#9a32cd" points="333.77,-116.5 323.77,-120 333.77,-123.5 333.77,-116.5"/>
<text text-anchor="middle" x="361" y="-123" font-family="FreeSans.ttf" font-size="10.00"> pose</text>
</g>
<!-- Node6&#45;&gt;Node3 -->
<g id="edge9" class="edge">
<title>Node6&#45;&gt;Node3</title>
<path fill="none" stroke="#9a32cd" stroke-dasharray="5,2" d="M322.2,-89.19C344.39,-93.58 369.4,-98.52 392.79,-103.15"/>
<polygon fill="#9a32cd" stroke="#9a32cd" points="322.71,-85.72 312.22,-87.22 321.35,-92.59 322.71,-85.72"/>
<text text-anchor="middle" x="361" y="-102" font-family="FreeSans.ttf" font-size="10.00"> color</text>
</g>
<!-- Node7&#45;&gt;Node1 -->
<g id="edge12" class="edge">
<title>Node7&#45;&gt;Node1</title>
<path fill="none" stroke="#9a32cd" stroke-dasharray="5,2" d="M339.05,-29.48C402.41,-37.61 490.93,-52.66 565,-79 596.6,-90.24 629.91,-109.01 653.31,-123.5"/>
<polygon fill="#9a32cd" stroke="#9a32cd" points="339.46,-26 329.1,-28.23 338.59,-32.95 339.46,-26"/>
<text text-anchor="middle" x="479" y="-82" font-family="FreeSans.ttf" font-size="10.00"> reply</text>
</g>
</g>
</svg>
