<?xml version="1.0" encoding="UTF-8" standalone="no"?>
<!DOCTYPE svg PUBLIC "-//W3C//DTD SVG 1.1//EN"
 "http://www.w3.org/Graphics/SVG/1.1/DTD/svg11.dtd">
<!-- Generated by graphviz version 3.0.0 (20220315.2325)
 -->
<!-- Title: GazeboYarpPlugins::WorldInterfaceServer_enableCollision_helper Pages: 1 -->
<svg width="518pt" height="171pt"
 viewBox="0.00 0.00 518.00 170.50" xmlns="http://www.w3.org/2000/svg" xmlns:xlink="http://www.w3.org/1999/xlink">
<g id="graph0" class="graph" transform="scale(1 1) rotate(0) translate(4 166.5)">
<title>GazeboYarpPlugins::WorldInterfaceServer_enableCollision_helper</title>
<!-- Node1 -->
<g id="node1" class="node">
<title>Node1</title>
<g id="a_node1"><a xlink:title=" ">
<polygon fill="#bfbfbf" stroke="black" points="377,-104 377,-145 510,-145 510,-104 377,-104"/>
<text text-anchor="start" x="385" y="-133" font-family="FreeSans.ttf" font-size="10.00">GazeboYarpPlugins::</text>
<text text-anchor="start" x="385" y="-122" font-family="FreeSans.ttf" font-size="10.00">WorldInterfaceServer</text>
<text text-anchor="middle" x="443.5" y="-111" font-family="FreeSans.ttf" font-size="10.00">_enableCollision_helper</text>
</a>
</g>
</g>
<!-- Node2 -->
<g id="node2" class="node">
<title>Node2</title>
<g id="a_node2"><a xlink:title=" ">
<polygon fill="none" stroke="black" points="195.5,-143 195.5,-162 297.5,-162 297.5,-143 195.5,-143"/>
<text text-anchor="middle" x="246.5" y="-150" font-family="FreeSans.ttf" font-size="10.00">yarp::os::Portable</text>
</a>
</g>
</g>
<!-- Node2&#45;&gt;Node1 -->
<g id="edge1" class="edge">
<title>Node2&#45;&gt;Node1</title>
<path fill="none" stroke="midnightblue" d="M288.47,-141C314,-136.17 347.44,-131.1 376.63,-127.53"/>
<polygon fill="midnightblue" stroke="midnightblue" points="287.54,-137.61 278.4,-142.97 288.89,-144.48 287.54,-137.61"/>
</g>
<!-- Node2&#45;&gt;Node1 -->
<g id="edge2" class="edge">
<title>Node2&#45;&gt;Node1</title>
<path fill="none" stroke="midnightblue" d="M307.89,-150.12C329.8,-147.54 354.66,-144.01 377,-140.32"/>
<polygon fill="midnightblue" stroke="midnightblue" points="307.26,-146.67 297.72,-151.28 308.05,-153.63 307.26,-146.67"/>
</g>
<!-- Node3 -->
<g id="node3" class="node">
<title>Node3</title>
<g id="a_node3"><a xlink:href="classGazeboYarpPlugins_1_1WorldInterfaceServer__enableCollision__helper_1_1Command.html" target="_top" xlink:title=" ">
<polygon fill="none" stroke="black" points="180,-71.5 180,-123.5 313,-123.5 313,-71.5 180,-71.5"/>
<text text-anchor="start" x="188" y="-111.5" font-family="FreeSans.ttf" font-size="10.00">GazeboYarpPlugins::</text>
<text text-anchor="start" x="188" y="-100.5" font-family="FreeSans.ttf" font-size="10.00">WorldInterfaceServer</text>
<text text-anchor="start" x="188" y="-89.5" font-family="FreeSans.ttf" font-size="10.00">_enableCollision_helper</text>
<text text-anchor="middle" x="246.5" y="-78.5" font-family="FreeSans.ttf" font-size="10.00">::Command</text>
</a>
</g>
</g>
<!-- Node3&#45;&gt;Node1 -->
<g id="edge3" class="edge">
<title>Node3&#45;&gt;Node1</title>
<path fill="none" stroke="#9a32cd" stroke-dasharray="5,2" d="M323.46,-108.02C341.04,-110.45 359.61,-113.02 376.71,-115.39"/>
<polygon fill="#9a32cd" stroke="#9a32cd" points="323.63,-104.51 313.25,-106.6 322.67,-111.44 323.63,-104.51"/>
<text text-anchor="middle" x="345" y="-115.5" font-family="FreeSans.ttf" font-size="10.00"> cmd</text>
</g>
<!-- Node4 -->
<g id="node4" class="node">
<title>Node4</title>
<g id="a_node4"><a xlink:title=" ">
<polygon fill="none" stroke="black" points="0,-52 0,-71 143,-71 143,-52 0,-52"/>
<text text-anchor="middle" x="71.5" y="-59" font-family="FreeSans.ttf" font-size="10.00">yarp::os::idl::WirePortable</text>
</a>
</g>
</g>
<!-- Node4&#45;&gt;Node3 -->
<g id="edge4" class="edge">
<title>Node4&#45;&gt;Node3</title>
<path fill="none" stroke="midnightblue" d="M153.31,-71.58C162.17,-73.38 171.11,-75.3 179.76,-77.24"/>
<polygon fill="midnightblue" stroke="midnightblue" points="153.86,-68.12 143.36,-69.6 152.49,-74.98 153.86,-68.12"/>
</g>
<!-- Node4&#45;&gt;Node3 -->
<g id="edge5" class="edge">
<title>Node4&#45;&gt;Node3</title>
<path fill="none" stroke="midnightblue" d="M105.2,-73.72C126.25,-79.31 154.34,-85.55 179.86,-90.41"/>
<polygon fill="midnightblue" stroke="midnightblue" points="106.04,-70.33 95.47,-71.04 104.18,-77.08 106.04,-70.33"/>
</g>
<!-- Node5 -->
<g id="node5" class="node">
<title>Node5</title>
<g id="a_node5"><a xlink:href="classGazeboYarpPlugins_1_1WorldInterfaceServer__enableCollision__helper_1_1Reply.html" target="_top" xlink:title=" ">
<polygon fill="none" stroke="black" points="180,-0.5 180,-52.5 313,-52.5 313,-0.5 180,-0.5"/>
<text text-anchor="start" x="188" y="-40.5" font-family="FreeSans.ttf" font-size="10.00">GazeboYarpPlugins::</text>
<text text-anchor="start" x="188" y="-29.5" font-family="FreeSans.ttf" font-size="10.00">WorldInterfaceServer</text>
<text text-anchor="start" x="188" y="-18.5" font-family="FreeSans.ttf" font-size="10.00">_enableCollision_helper</text>
<text text-anchor="middle" x="246.5" y="-7.5" font-family="FreeSans.ttf" font-size="10.00">::Reply</text>
</a>
</g>
</g>
<!-- Node4&#45;&gt;Node5 -->
<g id="edge7" class="edge">
<title>Node4&#45;&gt;Node5</title>
<path fill="none" stroke="midnightblue" d="M105.53,-49.38C126.51,-43.94 154.4,-37.92 179.75,-33.23"/>
<polygon fill="midnightblue" stroke="midnightblue" points="104.58,-46.01 95.83,-51.99 106.4,-52.77 104.58,-46.01"/>
</g>
<!-- Node4&#45;&gt;Node5 -->
<g id="edge8" class="edge">
<title>Node4&#45;&gt;Node5</title>
<path fill="none" stroke="midnightblue" d="M153.31,-51.89C162.17,-50.14 171.11,-48.27 179.76,-46.38"/>
<polygon fill="midnightblue" stroke="midnightblue" points="152.52,-48.48 143.36,-53.81 153.85,-55.35 152.52,-48.48"/>
</g>
<!-- Node5&#45;&gt;Node1 -->
<g id="edge6" class="edge">
<title>Node5&#45;&gt;Node1</title>
<path fill="none" stroke="#9a32cd" stroke-dasharray="5,2" d="M308.47,-57.14C338.8,-72.38 374.65,-90.4 401.64,-103.97"/>
<polygon fill="#9a32cd" stroke="#9a32cd" points="309.75,-53.87 299.24,-52.5 306.61,-60.12 309.75,-53.87"/>
<text text-anchor="middle" x="345" y="-84.5" font-family="FreeSans.ttf" font-size="10.00"> reply</text>
</g>
</g>
</svg>
