<?xml version="1.0" encoding="UTF-8" standalone="no"?>
<!DOCTYPE svg PUBLIC "-//W3C//DTD SVG 1.1//EN"
 "http://www.w3.org/Graphics/SVG/1.1/DTD/svg11.dtd">
<!-- Generated by graphviz version 3.0.0 (20220315.2325)
 -->
<!-- Title: GazeboYarpPlugins::WorldInterfaceServer_getList_helper::Reply Pages: 1 -->
<svg width="151pt" height="106pt"
 viewBox="0.00 0.00 151.00 106.00" xmlns="http://www.w3.org/2000/svg" xmlns:xlink="http://www.w3.org/1999/xlink">
<g id="graph0" class="graph" transform="scale(1 1) rotate(0) translate(4 102)">
<title>GazeboYarpPlugins::WorldInterfaceServer_getList_helper::Reply</title>
<!-- Node1 -->
<g id="node1" class="node">
<title>Node1</title>
<g id="a_node1"><a xlink:title=" ">
<polygon fill="#bfbfbf" stroke="black" points="9,-0.5 9,-41.5 134,-41.5 134,-0.5 9,-0.5"/>
<text text-anchor="start" x="17" y="-29.5" font-family="FreeSans.ttf" font-size="10.00">GazeboYarpPlugins::</text>
<text text-anchor="start" x="17" y="-18.5" font-family="FreeSans.ttf" font-size="10.00">WorldInterfaceServer</text>
<text text-anchor="middle" x="71.5" y="-7.5" font-family="FreeSans.ttf" font-size="10.00">_getList_helper::Reply</text>
</a>
</g>
</g>
<!-- Node2 -->
<g id="node2" class="node">
<title>Node2</title>
<g id="a_node2"><a xlink:title=" ">
<polygon fill="none" stroke="black" points="0,-78.5 0,-97.5 143,-97.5 143,-78.5 0,-78.5"/>
<text text-anchor="middle" x="71.5" y="-85.5" font-family="FreeSans.ttf" font-size="10.00">yarp::os::idl::WirePortable</text>
</a>
</g>
</g>
<!-- Node2&#45;&gt;Node1 -->
<g id="edge1" class="edge">
<title>Node2&#45;&gt;Node1</title>
<path fill="none" stroke="midnightblue" d="M65.32,-68.32C64.58,-59.93 64.56,-50.03 65.25,-41.54"/>
<polygon fill="midnightblue" stroke="midnightblue" points="61.86,-68.82 66.71,-78.23 68.79,-67.85 61.86,-68.82"/>
</g>
<!-- Node2&#45;&gt;Node1 -->
<g id="edge2" class="edge">
<title>Node2&#45;&gt;Node1</title>
<path fill="none" stroke="midnightblue" d="M77.68,-68.32C78.42,-59.93 78.44,-50.03 77.75,-41.54"/>
<polygon fill="midnightblue" stroke="midnightblue" points="74.21,-67.85 76.29,-78.23 81.14,-68.82 74.21,-67.85"/>
</g>
</g>
</svg>
