<?xml version="1.0" encoding="UTF-8" standalone="no"?>
<!DOCTYPE svg PUBLIC "-//W3C//DTD SVG 1.1//EN"
 "http://www.w3.org/Graphics/SVG/1.1/DTD/svg11.dtd">
<!-- Generated by graphviz version 5.0.1 (20220821.0811)
 -->
<!-- Title: GazeboYarpPlugins::WorldInterfaceServer_loadModelFromFileWithPose_helper Pages: 1 -->
<svg width="795pt" height="190pt"
 viewBox="0.00 0.00 795.00 189.50" xmlns="http://www.w3.org/2000/svg" xmlns:xlink="http://www.w3.org/1999/xlink">
<g id="graph0" class="graph" transform="scale(1 1) rotate(0) translate(4 185.5)">
<title>GazeboYarpPlugins::WorldInterfaceServer_loadModelFromFileWithPose_helper</title>
<!-- Node1 -->
<g id="node1" class="node">
<title>Node1</title>
<g id="a_node1"><a xlink:title=" ">
<polygon fill="#bfbfbf" stroke="black" points="626,-117.5 626,-169.5 787,-169.5 787,-117.5 626,-117.5"/>
<text text-anchor="start" x="634" y="-157.5" font-family="FreeSans.ttf" font-size="10.00">GazeboYarpPlugins::</text>
<text text-anchor="start" x="634" y="-146.5" font-family="FreeSans.ttf" font-size="10.00">WorldInterfaceServer</text>
<text text-anchor="start" x="634" y="-135.5" font-family="FreeSans.ttf" font-size="10.00">_loadModelFromFileWithPose</text>
<text text-anchor="middle" x="706.5" y="-124.5" font-family="FreeSans.ttf" font-size="10.00">_helper</text>
</a>
</g>
</g>
<!-- Node2 -->
<g id="node2" class="node">
<title>Node2</title>
<g id="a_node2"><a xlink:title=" ">
<polygon fill="none" stroke="black" points="433.5,-162 433.5,-181 535.5,-181 535.5,-162 433.5,-162"/>
<text text-anchor="middle" x="484.5" y="-169" font-family="FreeSans.ttf" font-size="10.00">yarp::os::Portable</text>
</a>
</g>
</g>
<!-- Node2&#45;&gt;Node1 -->
<g id="edge1" class="edge">
<title>Node2&#45;&gt;Node1</title>
<path fill="none" stroke="midnightblue" d="M530.42,-160.22C557.79,-155.6 593.57,-150.72 625.64,-147.14"/>
<polygon fill="midnightblue" stroke="midnightblue" points="529.61,-156.81 520.36,-161.97 530.81,-163.7 529.61,-156.81"/>
</g>
<!-- Node2&#45;&gt;Node1 -->
<g id="edge2" class="edge">
<title>Node2&#45;&gt;Node1</title>
<path fill="none" stroke="midnightblue" d="M545.98,-169.9C570.62,-167.46 599.44,-163.93 625.76,-160.17"/>
<polygon fill="midnightblue" stroke="midnightblue" points="545.32,-166.45 535.7,-170.88 545.98,-173.42 545.32,-166.45"/>
</g>
<!-- Node3 -->
<g id="node3" class="node">
<title>Node3</title>
<g id="a_node3"><a xlink:href="classGazeboYarpPlugins_1_1WorldInterfaceServer__loadModelFromFileWithPose__helper_1_1Command.html" target="_top" xlink:title=" ">
<polygon fill="none" stroke="black" points="404,-90.5 404,-142.5 565,-142.5 565,-90.5 404,-90.5"/>
<text text-anchor="start" x="412" y="-130.5" font-family="FreeSans.ttf" font-size="10.00">GazeboYarpPlugins::</text>
<text text-anchor="start" x="412" y="-119.5" font-family="FreeSans.ttf" font-size="10.00">WorldInterfaceServer</text>
<text text-anchor="start" x="412" y="-108.5" font-family="FreeSans.ttf" font-size="10.00">_loadModelFromFileWithPose</text>
<text text-anchor="middle" x="484.5" y="-97.5" font-family="FreeSans.ttf" font-size="10.00">_helper::Command</text>
</a>
</g>
</g>
<!-- Node3&#45;&gt;Node1 -->
<g id="edge3" class="edge">
<title>Node3&#45;&gt;Node1</title>
<path fill="none" stroke="#9a32cd" stroke-dasharray="5,2" d="M575.49,-127.54C592.11,-129.58 609.37,-131.7 625.67,-133.7"/>
<polygon fill="#9a32cd" stroke="#9a32cd" points="575.59,-124.03 565.24,-126.29 574.74,-130.98 575.59,-124.03"/>
<text text-anchor="middle" x="595.5" y="-133.5" font-family="FreeSans.ttf" font-size="10.00"> cmd</text>
</g>
<!-- Node4 -->
<g id="node4" class="node">
<title>Node4</title>
<g id="a_node4"><a xlink:title=" ">
<polygon fill="none" stroke="black" points="0,-72 0,-91 143,-91 143,-72 0,-72"/>
<text text-anchor="middle" x="71.5" y="-79" font-family="FreeSans.ttf" font-size="10.00">yarp::os::idl::WirePortable</text>
</a>
</g>
</g>
<!-- Node4&#45;&gt;Node3 -->
<g id="edge4" class="edge">
<title>Node4&#45;&gt;Node3</title>
<path fill="none" stroke="midnightblue" d="M146.77,-93.05C151.57,-93.98 156.34,-94.82 161,-95.5 243.18,-107.56 338.33,-109.68 403.87,-111.07"/>
<polygon fill="midnightblue" stroke="midnightblue" points="147.43,-89.62 136.94,-91.04 146.03,-96.47 147.43,-89.62"/>
</g>
<!-- Node4&#45;&gt;Node3 -->
<g id="edge5" class="edge">
<title>Node4&#45;&gt;Node3</title>
<path fill="none" stroke="midnightblue" d="M92.63,-95.18C110.4,-102.54 137.12,-110 161,-113.5 243.18,-125.56 338.33,-127.68 403.87,-125.57"/>
<polygon fill="midnightblue" stroke="midnightblue" points="94.07,-91.99 83.52,-91.01 91.15,-98.36 94.07,-91.99"/>
</g>
<!-- Node5 -->
<g id="node5" class="node">
<title>Node5</title>
<g id="a_node5"><a xlink:href="classGazeboYarpPlugins_1_1Pose.html" target="_top" xlink:title=" ">
<polygon fill="none" stroke="black" points="191.5,-72 191.5,-91 329.5,-91 329.5,-72 191.5,-72"/>
<text text-anchor="middle" x="260.5" y="-79" font-family="FreeSans.ttf" font-size="10.00">GazeboYarpPlugins::Pose</text>
</a>
</g>
</g>
<!-- Node4&#45;&gt;Node5 -->
<g id="edge7" class="edge">
<title>Node4&#45;&gt;Node5</title>
<path fill="none" stroke="midnightblue" d="M153.32,-74.81C166.04,-74.69 179.09,-74.75 191.49,-74.98"/>
<polygon fill="midnightblue" stroke="midnightblue" points="153.15,-71.31 143.2,-74.93 153.24,-78.31 153.15,-71.31"/>
</g>
<!-- Node4&#45;&gt;Node5 -->
<g id="edge8" class="edge">
<title>Node4&#45;&gt;Node5</title>
<path fill="none" stroke="midnightblue" d="M153.32,-88.19C166.04,-88.31 179.09,-88.25 191.49,-88.02"/>
<polygon fill="midnightblue" stroke="midnightblue" points="153.24,-84.69 143.2,-88.07 153.15,-91.69 153.24,-84.69"/>
</g>
<!-- Node6 -->
<g id="node6" class="node">
<title>Node6</title>
<g id="a_node6"><a xlink:href="classGazeboYarpPlugins_1_1WorldInterfaceServer__loadModelFromFileWithPose__helper_1_1Reply.html" target="_top" xlink:title=" ">
<polygon fill="none" stroke="black" points="180,-0.5 180,-52.5 341,-52.5 341,-0.5 180,-0.5"/>
<text text-anchor="start" x="188" y="-40.5" font-family="FreeSans.ttf" font-size="10.00">GazeboYarpPlugins::</text>
<text text-anchor="start" x="188" y="-29.5" font-family="FreeSans.ttf" font-size="10.00">WorldInterfaceServer</text>
<text text-anchor="start" x="188" y="-18.5" font-family="FreeSans.ttf" font-size="10.00">_loadModelFromFileWithPose</text>
<text text-anchor="middle" x="260.5" y="-7.5" font-family="FreeSans.ttf" font-size="10.00">_helper::Reply</text>
</a>
</g>
</g>
<!-- Node4&#45;&gt;Node6 -->
<g id="edge10" class="edge">
<title>Node4&#45;&gt;Node6</title>
<path fill="none" stroke="midnightblue" d="M100.35,-68.34C121.43,-60.72 151.49,-51.31 179.82,-43.25"/>
<polygon fill="midnightblue" stroke="midnightblue" points="98.91,-65.14 90.77,-71.91 101.36,-71.69 98.91,-65.14"/>
</g>
<!-- Node4&#45;&gt;Node6 -->
<g id="edge11" class="edge">
<title>Node4&#45;&gt;Node6</title>
<path fill="none" stroke="midnightblue" d="M135.62,-69.36C154.12,-64.33 174.4,-58.39 193.1,-52.52"/>
<polygon fill="midnightblue" stroke="midnightblue" points="134.59,-66.01 125.84,-71.98 136.4,-72.77 134.59,-66.01"/>
</g>
<!-- Node5&#45;&gt;Node3 -->
<g id="edge6" class="edge">
<title>Node5&#45;&gt;Node3</title>
<path fill="none" stroke="#9a32cd" stroke-dasharray="5,2" d="M339.57,-88.23C355,-89.96 371.05,-92.04 386,-94.5 391.82,-95.46 397.82,-96.55 403.84,-97.72"/>
<polygon fill="#9a32cd" stroke="#9a32cd" points="339.86,-84.74 329.54,-87.14 339.1,-91.7 339.86,-84.74"/>
<text text-anchor="middle" x="372.5" y="-97.5" font-family="FreeSans.ttf" font-size="10.00"> pose</text>
</g>
<!-- Node6&#45;&gt;Node1 -->
<g id="edge9" class="edge">
<title>Node6&#45;&gt;Node1</title>
<path fill="none" stroke="#9a32cd" stroke-dasharray="5,2" d="M351.16,-31.59C412.54,-36.98 495.15,-48 565,-70.5 600.19,-81.83 637.19,-101.41 664.38,-117.44"/>
<polygon fill="#9a32cd" stroke="#9a32cd" points="351.37,-28.1 341.11,-30.74 350.78,-35.07 351.37,-28.1"/>
<text text-anchor="middle" x="484.5" y="-73.5" font-family="FreeSans.ttf" font-size="10.00"> reply</text>
</g>
</g>
</svg>
