<?xml version="1.0" encoding="UTF-8" standalone="no"?>
<!DOCTYPE svg PUBLIC "-//W3C//DTD SVG 1.1//EN"
 "http://www.w3.org/Graphics/SVG/1.1/DTD/svg11.dtd">
<!-- Generated by graphviz version 5.0.0 (20220707.2338)
 -->
<!-- Title: GazeboYarpPlugins::LinkAttacherServer_enableGravity_helper Pages: 1 -->
<svg width="620pt" height="148pt"
 viewBox="0.00 0.00 620.00 148.00" xmlns="http://www.w3.org/2000/svg" xmlns:xlink="http://www.w3.org/1999/xlink">
<g id="graph0" class="graph" transform="scale(1 1) rotate(0) translate(4 144)">
<title>GazeboYarpPlugins::LinkAttacherServer_enableGravity_helper</title>
<!-- Node1 -->
<g id="node1" class="node">
<title>Node1</title>
<g id="a_node1"><a xlink:title=" ">
<polygon fill="#bfbfbf" stroke="black" points="428,-86.5 428,-127.5 612,-127.5 612,-86.5 428,-86.5"/>
<text text-anchor="start" x="436" y="-115.5" font-family="FreeSans.ttf" font-size="10.00">GazeboYarpPlugins::</text>
<text text-anchor="start" x="436" y="-104.5" font-family="FreeSans.ttf" font-size="10.00">LinkAttacherServer_enableGravity</text>
<text text-anchor="middle" x="520" y="-93.5" font-family="FreeSans.ttf" font-size="10.00">_helper</text>
</a>
</g>
</g>
<!-- Node2 -->
<g id="node2" class="node">
<title>Node2</title>
<g id="a_node2"><a xlink:title=" ">
<polygon fill="none" stroke="black" points="221,-120.5 221,-139.5 323,-139.5 323,-120.5 221,-120.5"/>
<text text-anchor="middle" x="272" y="-127.5" font-family="FreeSans.ttf" font-size="10.00">yarp::os::Portable</text>
</a>
</g>
</g>
<!-- Node2&#45;&gt;Node1 -->
<g id="edge1" class="edge">
<title>Node2&#45;&gt;Node1</title>
<path fill="none" stroke="midnightblue" d="M327.63,-119.17C357.09,-115.42 394.21,-111.68 427.91,-108.97"/>
<polygon fill="midnightblue" stroke="midnightblue" points="327.01,-115.72 317.55,-120.49 327.92,-122.66 327.01,-115.72"/>
</g>
<!-- Node2&#45;&gt;Node1 -->
<g id="edge2" class="edge">
<title>Node2&#45;&gt;Node1</title>
<path fill="none" stroke="midnightblue" d="M333.25,-130.27C361.66,-128.45 396.17,-125.44 427.7,-122.08"/>
<polygon fill="midnightblue" stroke="midnightblue" points="332.85,-126.78 323.08,-130.88 333.27,-133.77 332.85,-126.78"/>
</g>
<!-- Node3 -->
<g id="node3" class="node">
<title>Node3</title>
<g id="a_node3"><a xlink:href="classGazeboYarpPlugins_1_1LinkAttacherServer__enableGravity__helper_1_1Command.html" target="_top" xlink:title=" ">
<polygon fill="none" stroke="black" points="180,-60.5 180,-101.5 364,-101.5 364,-60.5 180,-60.5"/>
<text text-anchor="start" x="188" y="-89.5" font-family="FreeSans.ttf" font-size="10.00">GazeboYarpPlugins::</text>
<text text-anchor="start" x="188" y="-78.5" font-family="FreeSans.ttf" font-size="10.00">LinkAttacherServer_enableGravity</text>
<text text-anchor="middle" x="272" y="-67.5" font-family="FreeSans.ttf" font-size="10.00">_helper::Command</text>
</a>
</g>
</g>
<!-- Node3&#45;&gt;Node1 -->
<g id="edge3" class="edge">
<title>Node3&#45;&gt;Node1</title>
<path fill="none" stroke="#9a32cd" stroke-dasharray="5,2" d="M374.57,-91.74C392.25,-93.6 410.53,-95.54 427.9,-97.37"/>
<polygon fill="#9a32cd" stroke="#9a32cd" points="374.56,-88.22 364.25,-90.64 373.83,-95.18 374.56,-88.22"/>
<text text-anchor="middle" x="396" y="-97" font-family="FreeSans.ttf" font-size="10.00"> cmd</text>
</g>
<!-- Node4 -->
<g id="node4" class="node">
<title>Node4</title>
<g id="a_node4"><a xlink:title=" ">
<polygon fill="none" stroke="black" points="0,-40.5 0,-59.5 143,-59.5 143,-40.5 0,-40.5"/>
<text text-anchor="middle" x="71.5" y="-47.5" font-family="FreeSans.ttf" font-size="10.00">yarp::os::idl::WirePortable</text>
</a>
</g>
</g>
<!-- Node4&#45;&gt;Node3 -->
<g id="edge4" class="edge">
<title>Node4&#45;&gt;Node3</title>
<path fill="none" stroke="midnightblue" d="M153.08,-55.94C162.81,-57.35 172.79,-58.88 182.62,-60.48"/>
<polygon fill="midnightblue" stroke="midnightblue" points="153.43,-52.46 143.04,-54.52 152.45,-59.39 153.43,-52.46"/>
</g>
<!-- Node4&#45;&gt;Node3 -->
<g id="edge5" class="edge">
<title>Node4&#45;&gt;Node3</title>
<path fill="none" stroke="midnightblue" d="M111.8,-61.64C131.3,-65.62 155.75,-69.85 179.59,-73.46"/>
<polygon fill="midnightblue" stroke="midnightblue" points="112.3,-58.17 101.79,-59.53 110.85,-65.02 112.3,-58.17"/>
</g>
<!-- Node5 -->
<g id="node5" class="node">
<title>Node5</title>
<g id="a_node5"><a xlink:href="classGazeboYarpPlugins_1_1LinkAttacherServer__enableGravity__helper_1_1Reply.html" target="_top" xlink:title=" ">
<polygon fill="none" stroke="black" points="180,-0.5 180,-41.5 364,-41.5 364,-0.5 180,-0.5"/>
<text text-anchor="start" x="188" y="-29.5" font-family="FreeSans.ttf" font-size="10.00">GazeboYarpPlugins::</text>
<text text-anchor="start" x="188" y="-18.5" font-family="FreeSans.ttf" font-size="10.00">LinkAttacherServer_enableGravity</text>
<text text-anchor="middle" x="272" y="-7.5" font-family="FreeSans.ttf" font-size="10.00">_helper::Reply</text>
</a>
</g>
</g>
<!-- Node4&#45;&gt;Node5 -->
<g id="edge7" class="edge">
<title>Node4&#45;&gt;Node5</title>
<path fill="none" stroke="midnightblue" d="M113.04,-38.51C132.39,-34.79 156.4,-30.9 179.81,-27.59"/>
<polygon fill="midnightblue" stroke="midnightblue" points="112.2,-35.11 103.08,-40.5 113.57,-41.97 112.2,-35.11"/>
</g>
<!-- Node4&#45;&gt;Node5 -->
<g id="edge8" class="edge">
<title>Node4&#45;&gt;Node5</title>
<path fill="none" stroke="midnightblue" d="M153.23,-44.85C162,-43.67 170.97,-42.39 179.85,-41.05"/>
<polygon fill="midnightblue" stroke="midnightblue" points="152.5,-41.42 143.04,-46.19 153.41,-48.36 152.5,-41.42"/>
</g>
<!-- Node5&#45;&gt;Node1 -->
<g id="edge6" class="edge">
<title>Node5&#45;&gt;Node1</title>
<path fill="none" stroke="#9a32cd" stroke-dasharray="5,2" d="M345.87,-44.82C352.01,-46.89 358.12,-48.97 364,-51 396.99,-62.4 433.74,-75.65 463.17,-86.4"/>
<polygon fill="#9a32cd" stroke="#9a32cd" points="346.82,-41.45 336.23,-41.59 344.6,-48.09 346.82,-41.45"/>
<text text-anchor="middle" x="396" y="-69" font-family="FreeSans.ttf" font-size="10.00"> reply</text>
</g>
</g>
</svg>
