<?xml version="1.0" encoding="UTF-8" standalone="no"?>
<!DOCTYPE svg PUBLIC "-//W3C//DTD SVG 1.1//EN"
 "http://www.w3.org/Graphics/SVG/1.1/DTD/svg11.dtd">
<!-- Generated by graphviz version 2.43.0 (0)
 -->
<!-- Title: GazeboYarpPlugins::Color::Editor Pages: 1 -->
<svg width="221pt" height="95pt"
 viewBox="0.00 0.00 220.50 95.00" xmlns="http://www.w3.org/2000/svg" xmlns:xlink="http://www.w3.org/1999/xlink">
<g id="graph0" class="graph" transform="scale(1 1) rotate(0) translate(4 91)">
<title>GazeboYarpPlugins::Color::Editor</title>
<!-- Node1 -->
<g id="node1" class="node">
<title>Node1</title>
<g id="a_node1"><a xlink:title=" ">
<polygon fill="#bfbfbf" stroke="black" points="41.5,-0.5 41.5,-30.5 156.5,-30.5 156.5,-0.5 41.5,-0.5"/>
<text text-anchor="start" x="49.5" y="-18.5" font-family="FreeSans.ttf" font-size="10.00">GazeboYarpPlugins::</text>
<text text-anchor="middle" x="99" y="-7.5" font-family="FreeSans.ttf" font-size="10.00">Color::Editor</text>
</a>
</g>
</g>
<!-- Node2 -->
<g id="node2" class="node">
<title>Node2</title>
<g id="a_node2"><a xlink:title=" ">
<polygon fill="none" stroke="#bfbfbf" points="0,-67.5 0,-86.5 84,-86.5 84,-67.5 0,-67.5"/>
<text text-anchor="middle" x="42" y="-74.5" font-family="FreeSans.ttf" font-size="10.00">yarp::os::Wire</text>
</a>
</g>
</g>
<!-- Node2&#45;&gt;Node1 -->
<g id="edge1" class="edge">
<title>Node2&#45;&gt;Node1</title>
<path fill="none" stroke="midnightblue" d="M51.67,-59.53C59.46,-50.42 70.29,-39.21 79.74,-30.52"/>
<polygon fill="midnightblue" stroke="midnightblue" points="48.81,-57.49 45.27,-67.48 54.26,-61.88 48.81,-57.49"/>
</g>
<!-- Node2&#45;&gt;Node1 -->
<g id="edge3" class="edge">
<title>Node2&#45;&gt;Node1</title>
<path fill="none" stroke="midnightblue" d="M62.7,-60.65C72.67,-51.35 83.9,-39.57 91.4,-30.52"/>
<polygon fill="midnightblue" stroke="midnightblue" points="60.19,-58.2 55.07,-67.48 64.85,-63.42 60.19,-58.2"/>
</g>
<!-- Node3 -->
<g id="node3" class="node">
<title>Node3</title>
<g id="a_node3"><a xlink:title=" ">
<polygon fill="none" stroke="#bfbfbf" points="101.5,-67.5 101.5,-86.5 212.5,-86.5 212.5,-67.5 101.5,-67.5"/>
<text text-anchor="middle" x="157" y="-74.5" font-family="FreeSans.ttf" font-size="10.00">yarp::os::PortWriter</text>
</a>
</g>
</g>
<!-- Node3&#45;&gt;Node1 -->
<g id="edge2" class="edge">
<title>Node3&#45;&gt;Node1</title>
<path fill="none" stroke="midnightblue" d="M136.04,-60.65C125.91,-51.35 114.49,-39.57 106.84,-30.52"/>
<polygon fill="midnightblue" stroke="midnightblue" points="133.97,-63.49 143.79,-67.48 138.6,-58.24 133.97,-63.49"/>
</g>
<!-- Node3&#45;&gt;Node1 -->
<g id="edge4" class="edge">
<title>Node3&#45;&gt;Node1</title>
<path fill="none" stroke="midnightblue" d="M147.06,-59.53C139.11,-50.42 128.09,-39.21 118.5,-30.52"/>
<polygon fill="midnightblue" stroke="midnightblue" points="144.54,-61.97 153.59,-67.48 149.94,-57.53 144.54,-61.97"/>
</g>
</g>
</svg>
