<?xml version="1.0" encoding="UTF-8" standalone="no"?>
<!DOCTYPE svg PUBLIC "-//W3C//DTD SVG 1.1//EN"
 "http://www.w3.org/Graphics/SVG/1.1/DTD/svg11.dtd">
<!-- Generated by graphviz version 2.43.0 (0)
 -->
<!-- Title: yarp::os::BufferedPort&lt; T &gt; Pages: 1 -->
<svg width="295pt" height="106pt"
 viewBox="0.00 0.00 295.00 106.00" xmlns="http://www.w3.org/2000/svg" xmlns:xlink="http://www.w3.org/1999/xlink">
<g id="graph0" class="graph" transform="scale(1 1) rotate(0) translate(4 102)">
<title>yarp::os::BufferedPort&lt; T &gt;</title>
<!-- Node1 -->
<g id="node1" class="node">
<title>Node1</title>
<g id="a_node1"><a xlink:title=" ">
<polygon fill="#bfbfbf" stroke="black" points="55.5,-78.5 55.5,-97.5 206.5,-97.5 206.5,-78.5 55.5,-78.5"/>
<text text-anchor="middle" x="131" y="-85.5" font-family="FreeSans.ttf" font-size="10.00">yarp::os::BufferedPort&lt; T &gt;</text>
</a>
</g>
</g>
<!-- Node2 -->
<g id="node2" class="node">
<title>Node2</title>
<g id="a_node2"><a xlink:href="classyarp_1_1os_1_1BufferedPort.html" target="_top" xlink:title=" ">
<polygon fill="none" stroke="black" points="0,-0.5 0,-30.5 122,-30.5 122,-0.5 0,-0.5"/>
<text text-anchor="start" x="8" y="-18.5" font-family="FreeSans.ttf" font-size="10.00">yarp::os::BufferedPort</text>
<text text-anchor="middle" x="61" y="-7.5" font-family="FreeSans.ttf" font-size="10.00">&lt; ImageType &gt;</text>
</a>
</g>
</g>
<!-- Node1&#45;&gt;Node2 -->
<g id="edge1" class="edge">
<title>Node1&#45;&gt;Node2</title>
<path fill="none" stroke="orange" stroke-dasharray="5,2" d="M112.63,-71.66C108.39,-67.94 103.96,-63.91 100,-60 90.47,-50.6 80.39,-39.33 72.88,-30.62"/>
<polygon fill="orange" stroke="orange" points="110.51,-74.45 120.38,-78.31 115.07,-69.14 110.51,-74.45"/>
<text text-anchor="middle" x="139.5" y="-52" font-family="FreeSans.ttf" font-size="10.00"> &lt; ImageType &gt;</text>
</g>
<!-- Node3 -->
<g id="node3" class="node">
<title>Node3</title>
<g id="a_node3"><a xlink:href="classyarp_1_1os_1_1BufferedPort.html" target="_top" xlink:title=" ">
<polygon fill="none" stroke="black" points="140,-0.5 140,-30.5 262,-30.5 262,-0.5 140,-0.5"/>
<text text-anchor="start" x="148" y="-18.5" font-family="FreeSans.ttf" font-size="10.00">yarp::os::BufferedPort</text>
<text text-anchor="middle" x="201" y="-7.5" font-family="FreeSans.ttf" font-size="10.00">&lt; yarp::os::Bottle &gt;</text>
</a>
</g>
</g>
<!-- Node1&#45;&gt;Node3 -->
<g id="edge2" class="edge">
<title>Node1&#45;&gt;Node3</title>
<path fill="none" stroke="orange" stroke-dasharray="5,2" d="M161.56,-73.4C167.83,-69.67 174.03,-65.2 179,-60 186.96,-51.68 192.67,-39.93 196.27,-30.73"/>
<polygon fill="orange" stroke="orange" points="159.58,-70.49 152.45,-78.33 162.91,-76.65 159.58,-70.49"/>
<text text-anchor="middle" x="237" y="-52" font-family="FreeSans.ttf" font-size="10.00"> &lt; yarp::os::Bottle &gt;</text>
</g>
</g>
</svg>
