<?xml version="1.0" encoding="UTF-8" standalone="no"?>
<!DOCTYPE svg PUBLIC "-//W3C//DTD SVG 1.1//EN"
 "http://www.w3.org/Graphics/SVG/1.1/DTD/svg11.dtd">
<!-- Generated by graphviz version 3.0.0 (20220315.2325)
 -->
<!-- Title: GazeboYarpPlugins::WorldInterfaceServer_rename_helper Pages: 1 -->
<svg width="523pt" height="148pt"
 viewBox="0.00 0.00 523.00 148.00" xmlns="http://www.w3.org/2000/svg" xmlns:xlink="http://www.w3.org/1999/xlink">
<g id="graph0" class="graph" transform="scale(1 1) rotate(0) translate(4 144)">
<title>GazeboYarpPlugins::WorldInterfaceServer_rename_helper</title>
<!-- Node1 -->
<g id="node1" class="node">
<title>Node1</title>
<g id="a_node1"><a xlink:title=" ">
<polygon fill="#bfbfbf" stroke="black" points="396,-86.5 396,-127.5 515,-127.5 515,-86.5 396,-86.5"/>
<text text-anchor="start" x="404" y="-115.5" font-family="FreeSans.ttf" font-size="10.00">GazeboYarpPlugins::</text>
<text text-anchor="start" x="404" y="-104.5" font-family="FreeSans.ttf" font-size="10.00">WorldInterfaceServer</text>
<text text-anchor="middle" x="455.5" y="-93.5" font-family="FreeSans.ttf" font-size="10.00">_rename_helper</text>
</a>
</g>
</g>
<!-- Node2 -->
<g id="node2" class="node">
<title>Node2</title>
<g id="a_node2"><a xlink:title=" ">
<polygon fill="none" stroke="black" points="205,-120.5 205,-139.5 307,-139.5 307,-120.5 205,-120.5"/>
<text text-anchor="middle" x="256" y="-127.5" font-family="FreeSans.ttf" font-size="10.00">yarp::os::Portable</text>
</a>
</g>
</g>
<!-- Node2&#45;&gt;Node1 -->
<g id="edge1" class="edge">
<title>Node2&#45;&gt;Node1</title>
<path fill="none" stroke="midnightblue" d="M302.95,-118.84C330.6,-114.53 366.08,-110.25 395.76,-107.61"/>
<polygon fill="midnightblue" stroke="midnightblue" points="302.08,-115.44 292.77,-120.49 303.2,-122.35 302.08,-115.44"/>
</g>
<!-- Node2&#45;&gt;Node1 -->
<g id="edge2" class="edge">
<title>Node2&#45;&gt;Node1</title>
<path fill="none" stroke="midnightblue" d="M317.15,-129.26C342.08,-127.01 370.9,-123.65 395.69,-120.08"/>
<polygon fill="midnightblue" stroke="midnightblue" points="316.76,-125.79 307.09,-130.13 317.36,-132.76 316.76,-125.79"/>
</g>
<!-- Node3 -->
<g id="node3" class="node">
<title>Node3</title>
<g id="a_node3"><a xlink:href="classGazeboYarpPlugins_1_1WorldInterfaceServer__rename__helper_1_1Command.html" target="_top" xlink:title=" ">
<polygon fill="none" stroke="black" points="180,-60.5 180,-101.5 332,-101.5 332,-60.5 180,-60.5"/>
<text text-anchor="start" x="188" y="-89.5" font-family="FreeSans.ttf" font-size="10.00">GazeboYarpPlugins::</text>
<text text-anchor="start" x="188" y="-78.5" font-family="FreeSans.ttf" font-size="10.00">WorldInterfaceServer</text>
<text text-anchor="middle" x="256" y="-67.5" font-family="FreeSans.ttf" font-size="10.00">_rename_helper::Command</text>
</a>
</g>
</g>
<!-- Node3&#45;&gt;Node1 -->
<g id="edge3" class="edge">
<title>Node3&#45;&gt;Node1</title>
<path fill="none" stroke="#9a32cd" stroke-dasharray="5,2" d="M342.19,-92.21C360.25,-94.59 378.93,-97.05 395.75,-99.27"/>
<polygon fill="#9a32cd" stroke="#9a32cd" points="342.6,-88.74 332.23,-90.9 341.69,-95.68 342.6,-88.74"/>
<text text-anchor="middle" x="364" y="-99" font-family="FreeSans.ttf" font-size="10.00"> cmd</text>
</g>
<!-- Node4 -->
<g id="node4" class="node">
<title>Node4</title>
<g id="a_node4"><a xlink:title=" ">
<polygon fill="none" stroke="black" points="0,-40.5 0,-59.5 143,-59.5 143,-40.5 0,-40.5"/>
<text text-anchor="middle" x="71.5" y="-47.5" font-family="FreeSans.ttf" font-size="10.00">yarp::os::idl::WirePortable</text>
</a>
</g>
</g>
<!-- Node4&#45;&gt;Node3 -->
<g id="edge4" class="edge">
<title>Node4&#45;&gt;Node3</title>
<path fill="none" stroke="midnightblue" d="M153.03,-56.97C161.93,-58.41 170.96,-59.96 179.79,-61.57"/>
<polygon fill="midnightblue" stroke="midnightblue" points="153.48,-53.5 143.06,-55.39 152.39,-60.41 153.48,-53.5"/>
</g>
<!-- Node4&#45;&gt;Node3 -->
<g id="edge5" class="edge">
<title>Node4&#45;&gt;Node3</title>
<path fill="none" stroke="midnightblue" d="M109.19,-61.77C129.46,-66.25 155.43,-71.03 179.81,-74.88"/>
<polygon fill="midnightblue" stroke="midnightblue" points="109.96,-58.35 99.43,-59.53 108.39,-65.18 109.96,-58.35"/>
</g>
<!-- Node5 -->
<g id="node5" class="node">
<title>Node5</title>
<g id="a_node5"><a xlink:href="classGazeboYarpPlugins_1_1WorldInterfaceServer__rename__helper_1_1Reply.html" target="_top" xlink:title=" ">
<polygon fill="none" stroke="black" points="191.5,-0.5 191.5,-41.5 320.5,-41.5 320.5,-0.5 191.5,-0.5"/>
<text text-anchor="start" x="199.5" y="-29.5" font-family="FreeSans.ttf" font-size="10.00">GazeboYarpPlugins::</text>
<text text-anchor="start" x="199.5" y="-18.5" font-family="FreeSans.ttf" font-size="10.00">WorldInterfaceServer</text>
<text text-anchor="middle" x="256" y="-7.5" font-family="FreeSans.ttf" font-size="10.00">_rename_helper::Reply</text>
</a>
</g>
</g>
<!-- Node4&#45;&gt;Node5 -->
<g id="edge7" class="edge">
<title>Node4&#45;&gt;Node5</title>
<path fill="none" stroke="midnightblue" d="M110.47,-38.37C133.82,-33.51 164.32,-28.37 191.28,-24.66"/>
<polygon fill="midnightblue" stroke="midnightblue" points="109.65,-34.96 100.62,-40.5 111.13,-41.8 109.65,-34.96"/>
</g>
<!-- Node4&#45;&gt;Node5 -->
<g id="edge8" class="edge">
<title>Node4&#45;&gt;Node5</title>
<path fill="none" stroke="midnightblue" d="M153.25,-43.88C166.06,-41.94 179.14,-39.78 191.48,-37.56"/>
<polygon fill="midnightblue" stroke="midnightblue" points="152.44,-40.46 143.06,-45.38 153.46,-47.38 152.44,-40.46"/>
</g>
<!-- Node5&#45;&gt;Node1 -->
<g id="edge6" class="edge">
<title>Node5&#45;&gt;Node1</title>
<path fill="none" stroke="#9a32cd" stroke-dasharray="5,2" d="M319.15,-45.59C323.51,-47.4 327.83,-49.21 332,-51 358.33,-62.28 387.51,-75.58 410.79,-86.4"/>
<polygon fill="#9a32cd" stroke="#9a32cd" points="320.16,-42.22 309.58,-41.66 317.5,-48.7 320.16,-42.22"/>
<text text-anchor="middle" x="364" y="-73" font-family="FreeSans.ttf" font-size="10.00"> reply</text>
</g>
</g>
</svg>
