<?xml version="1.0" encoding="UTF-8" standalone="no"?>
<!DOCTYPE svg PUBLIC "-//W3C//DTD SVG 1.1//EN"
 "http://www.w3.org/Graphics/SVG/1.1/DTD/svg11.dtd">
<!-- Generated by graphviz version 2.43.0 (0)
 -->
<!-- Title: LinkAttacherServerImpl Pages: 1 -->
<svg width="139pt" height="151pt"
 viewBox="0.00 0.00 139.00 151.00" xmlns="http://www.w3.org/2000/svg" xmlns:xlink="http://www.w3.org/1999/xlink">
<g id="graph0" class="graph" transform="scale(1 1) rotate(0) translate(4 147)">
<title>LinkAttacherServerImpl</title>
<!-- Node1 -->
<g id="node1" class="node">
<title>Node1</title>
<g id="a_node1"><a xlink:title=" ">
<polygon fill="#bfbfbf" stroke="black" points="0,-0.5 0,-19.5 131,-19.5 131,-0.5 0,-0.5"/>
<text text-anchor="middle" x="65.5" y="-7.5" font-family="FreeSans.ttf" font-size="10.00">LinkAttacherServerImpl</text>
</a>
</g>
</g>
<!-- Node2 -->
<g id="node2" class="node">
<title>Node2</title>
<g id="a_node2"><a xlink:href="classGazeboYarpPlugins_1_1LinkAttacherServer.html" target="_top" xlink:title=" ">
<polygon fill="none" stroke="black" points="8,-56.5 8,-86.5 123,-86.5 123,-56.5 8,-56.5"/>
<text text-anchor="start" x="16" y="-74.5" font-family="FreeSans.ttf" font-size="10.00">GazeboYarpPlugins::</text>
<text text-anchor="middle" x="65.5" y="-63.5" font-family="FreeSans.ttf" font-size="10.00">LinkAttacherServer</text>
</a>
</g>
</g>
<!-- Node2&#45;&gt;Node1 -->
<g id="edge1" class="edge">
<title>Node2&#45;&gt;Node1</title>
<path fill="none" stroke="midnightblue" d="M65.5,-46.29C65.5,-36.86 65.5,-26.65 65.5,-19.66"/>
<polygon fill="midnightblue" stroke="midnightblue" points="62,-46.4 65.5,-56.4 69,-46.4 62,-46.4"/>
</g>
<!-- Node3 -->
<g id="node3" class="node">
<title>Node3</title>
<g id="a_node3"><a xlink:title=" ">
<polygon fill="none" stroke="#bfbfbf" points="23.5,-123.5 23.5,-142.5 107.5,-142.5 107.5,-123.5 23.5,-123.5"/>
<text text-anchor="middle" x="65.5" y="-130.5" font-family="FreeSans.ttf" font-size="10.00">yarp::os::Wire</text>
</a>
</g>
</g>
<!-- Node3&#45;&gt;Node2 -->
<g id="edge2" class="edge">
<title>Node3&#45;&gt;Node2</title>
<path fill="none" stroke="midnightblue" d="M59.2,-113.53C58.47,-104.81 58.63,-94.59 59.67,-86.52"/>
<polygon fill="midnightblue" stroke="midnightblue" points="55.74,-114.06 60.6,-123.48 62.67,-113.09 55.74,-114.06"/>
</g>
<!-- Node3&#45;&gt;Node2 -->
<g id="edge3" class="edge">
<title>Node3&#45;&gt;Node2</title>
<path fill="none" stroke="midnightblue" d="M71.8,-113.53C72.53,-104.81 72.37,-94.59 71.33,-86.52"/>
<polygon fill="midnightblue" stroke="midnightblue" points="68.33,-113.09 70.4,-123.48 75.26,-114.06 68.33,-113.09"/>
</g>
</g>
</svg>
