<?xml version="1.0" encoding="UTF-8" standalone="no"?>
<!DOCTYPE svg PUBLIC "-//W3C//DTD SVG 1.1//EN"
 "http://www.w3.org/Graphics/SVG/1.1/DTD/svg11.dtd">
<!-- Generated by graphviz version 5.0.0 (20220707.2338)
 -->
<!-- Title: GazeboYarpPlugins::ClockServer_pauseSimulation_helper Pages: 1 -->
<svg width="576pt" height="148pt"
 viewBox="0.00 0.00 576.00 148.00" xmlns="http://www.w3.org/2000/svg" xmlns:xlink="http://www.w3.org/1999/xlink">
<g id="graph0" class="graph" transform="scale(1 1) rotate(0) translate(4 144)">
<title>GazeboYarpPlugins::ClockServer_pauseSimulation_helper</title>
<!-- Node1 -->
<g id="node1" class="node">
<title>Node1</title>
<g id="a_node1"><a xlink:title=" ">
<polygon fill="#bfbfbf" stroke="black" points="406,-86.5 406,-127.5 568,-127.5 568,-86.5 406,-86.5"/>
<text text-anchor="start" x="414" y="-115.5" font-family="FreeSans.ttf" font-size="10.00">GazeboYarpPlugins::</text>
<text text-anchor="start" x="414" y="-104.5" font-family="FreeSans.ttf" font-size="10.00">ClockServer_pauseSimulation</text>
<text text-anchor="middle" x="487" y="-93.5" font-family="FreeSans.ttf" font-size="10.00">_helper</text>
</a>
</g>
</g>
<!-- Node2 -->
<g id="node2" class="node">
<title>Node2</title>
<g id="a_node2"><a xlink:title=" ">
<polygon fill="none" stroke="black" points="210,-120.5 210,-139.5 312,-139.5 312,-120.5 210,-120.5"/>
<text text-anchor="middle" x="261" y="-127.5" font-family="FreeSans.ttf" font-size="10.00">yarp::os::Portable</text>
</a>
</g>
</g>
<!-- Node2&#45;&gt;Node1 -->
<g id="edge1" class="edge">
<title>Node2&#45;&gt;Node1</title>
<path fill="none" stroke="midnightblue" d="M312.73,-119.03C340.21,-115.22 374.79,-111.42 405.83,-108.73"/>
<polygon fill="midnightblue" stroke="midnightblue" points="311.97,-115.61 302.56,-120.49 312.96,-122.54 311.97,-115.61"/>
</g>
<!-- Node2&#45;&gt;Node1 -->
<g id="edge2" class="edge">
<title>Node2&#45;&gt;Node1</title>
<path fill="none" stroke="midnightblue" d="M322.55,-129.86C348.09,-127.96 378.2,-125.01 405.56,-121.76"/>
<polygon fill="midnightblue" stroke="midnightblue" points="322,-126.39 312.27,-130.58 322.49,-133.37 322,-126.39"/>
</g>
<!-- Node3 -->
<g id="node3" class="node">
<title>Node3</title>
<g id="a_node3"><a xlink:href="classGazeboYarpPlugins_1_1ClockServer__pauseSimulation__helper_1_1Command.html" target="_top" xlink:title=" ">
<polygon fill="none" stroke="black" points="180,-60.5 180,-101.5 342,-101.5 342,-60.5 180,-60.5"/>
<text text-anchor="start" x="188" y="-89.5" font-family="FreeSans.ttf" font-size="10.00">GazeboYarpPlugins::</text>
<text text-anchor="start" x="188" y="-78.5" font-family="FreeSans.ttf" font-size="10.00">ClockServer_pauseSimulation</text>
<text text-anchor="middle" x="261" y="-67.5" font-family="FreeSans.ttf" font-size="10.00">_helper::Command</text>
</a>
</g>
</g>
<!-- Node3&#45;&gt;Node1 -->
<g id="edge3" class="edge">
<title>Node3&#45;&gt;Node1</title>
<path fill="none" stroke="#9a32cd" stroke-dasharray="5,2" d="M352.54,-91.51C370.22,-93.56 388.64,-95.7 405.95,-97.71"/>
<polygon fill="#9a32cd" stroke="#9a32cd" points="352.57,-87.99 342.24,-90.31 351.77,-94.94 352.57,-87.99"/>
<text text-anchor="middle" x="374" y="-98" font-family="FreeSans.ttf" font-size="10.00"> cmd</text>
</g>
<!-- Node4 -->
<g id="node4" class="node">
<title>Node4</title>
<g id="a_node4"><a xlink:title=" ">
<polygon fill="none" stroke="black" points="0,-40.5 0,-59.5 143,-59.5 143,-40.5 0,-40.5"/>
<text text-anchor="middle" x="71.5" y="-47.5" font-family="FreeSans.ttf" font-size="10.00">yarp::os::idl::WirePortable</text>
</a>
</g>
</g>
<!-- Node4&#45;&gt;Node3 -->
<g id="edge4" class="edge">
<title>Node4&#45;&gt;Node3</title>
<path fill="none" stroke="midnightblue" d="M153.01,-56.62C161.85,-58 170.85,-59.49 179.69,-61.03"/>
<polygon fill="midnightblue" stroke="midnightblue" points="153.53,-53.16 143.12,-55.11 152.48,-60.08 153.53,-53.16"/>
</g>
<!-- Node4&#45;&gt;Node3 -->
<g id="edge5" class="edge">
<title>Node4&#45;&gt;Node3</title>
<path fill="none" stroke="midnightblue" d="M110.12,-61.75C130.17,-66.06 155.64,-70.66 179.87,-74.44"/>
<polygon fill="midnightblue" stroke="midnightblue" points="110.69,-58.29 100.17,-59.53 109.16,-65.13 110.69,-58.29"/>
</g>
<!-- Node5 -->
<g id="node5" class="node">
<title>Node5</title>
<g id="a_node5"><a xlink:href="classGazeboYarpPlugins_1_1ClockServer__pauseSimulation__helper_1_1Reply.html" target="_top" xlink:title=" ">
<polygon fill="none" stroke="black" points="180,-0.5 180,-41.5 342,-41.5 342,-0.5 180,-0.5"/>
<text text-anchor="start" x="188" y="-29.5" font-family="FreeSans.ttf" font-size="10.00">GazeboYarpPlugins::</text>
<text text-anchor="start" x="188" y="-18.5" font-family="FreeSans.ttf" font-size="10.00">ClockServer_pauseSimulation</text>
<text text-anchor="middle" x="261" y="-7.5" font-family="FreeSans.ttf" font-size="10.00">_helper::Reply</text>
</a>
</g>
</g>
<!-- Node4&#45;&gt;Node5 -->
<g id="edge7" class="edge">
<title>Node4&#45;&gt;Node5</title>
<path fill="none" stroke="midnightblue" d="M111.25,-38.42C131.05,-34.4 155.91,-30.19 179.61,-26.74"/>
<polygon fill="midnightblue" stroke="midnightblue" points="110.45,-35.01 101.39,-40.5 111.89,-41.86 110.45,-35.01"/>
</g>
<!-- Node4&#45;&gt;Node5 -->
<g id="edge8" class="edge">
<title>Node4&#45;&gt;Node5</title>
<path fill="none" stroke="midnightblue" d="M153.3,-44.2C162.05,-42.92 170.95,-41.54 179.69,-40.11"/>
<polygon fill="midnightblue" stroke="midnightblue" points="152.53,-40.77 143.12,-45.64 153.51,-47.7 152.53,-40.77"/>
</g>
<!-- Node5&#45;&gt;Node1 -->
<g id="edge6" class="edge">
<title>Node5&#45;&gt;Node1</title>
<path fill="none" stroke="#9a32cd" stroke-dasharray="5,2" d="M326.54,-45.12C331.77,-47.1 336.98,-49.08 342,-51 372.45,-62.63 406.43,-75.83 433.73,-86.5"/>
<polygon fill="#9a32cd" stroke="#9a32cd" points="327.71,-41.83 317.12,-41.57 325.24,-48.38 327.71,-41.83"/>
<text text-anchor="middle" x="374" y="-70" font-family="FreeSans.ttf" font-size="10.00"> reply</text>
</g>
</g>
</svg>
