<?xml version="1.0" encoding="UTF-8" standalone="no"?>
<!DOCTYPE svg PUBLIC "-//W3C//DTD SVG 1.1//EN"
 "http://www.w3.org/Graphics/SVG/1.1/DTD/svg11.dtd">
<!-- Generated by graphviz version 3.0.0 (20220315.2325)
 -->
<!-- Title: GazeboYarpPlugins::WorldInterfaceServer_deleteAll_helper Pages: 1 -->
<svg width="529pt" height="148pt"
 viewBox="0.00 0.00 529.00 148.00" xmlns="http://www.w3.org/2000/svg" xmlns:xlink="http://www.w3.org/1999/xlink">
<g id="graph0" class="graph" transform="scale(1 1) rotate(0) translate(4 144)">
<title>GazeboYarpPlugins::WorldInterfaceServer_deleteAll_helper</title>
<!-- Node1 -->
<g id="node1" class="node">
<title>Node1</title>
<g id="a_node1"><a xlink:title=" ">
<polygon fill="#bfbfbf" stroke="black" points="402,-86.5 402,-127.5 521,-127.5 521,-86.5 402,-86.5"/>
<text text-anchor="start" x="410" y="-115.5" font-family="FreeSans.ttf" font-size="10.00">GazeboYarpPlugins::</text>
<text text-anchor="start" x="410" y="-104.5" font-family="FreeSans.ttf" font-size="10.00">WorldInterfaceServer</text>
<text text-anchor="middle" x="461.5" y="-93.5" font-family="FreeSans.ttf" font-size="10.00">_deleteAll_helper</text>
</a>
</g>
</g>
<!-- Node2 -->
<g id="node2" class="node">
<title>Node2</title>
<g id="a_node2"><a xlink:title=" ">
<polygon fill="none" stroke="black" points="208,-120.5 208,-139.5 310,-139.5 310,-120.5 208,-120.5"/>
<text text-anchor="middle" x="259" y="-127.5" font-family="FreeSans.ttf" font-size="10.00">yarp::os::Portable</text>
</a>
</g>
</g>
<!-- Node2&#45;&gt;Node1 -->
<g id="edge1" class="edge">
<title>Node2&#45;&gt;Node1</title>
<path fill="none" stroke="midnightblue" d="M306.36,-118.89C334.72,-114.52 371.26,-110.19 401.65,-107.54"/>
<polygon fill="midnightblue" stroke="midnightblue" points="305.63,-115.46 296.31,-120.49 306.74,-122.37 305.63,-115.46"/>
</g>
<!-- Node2&#45;&gt;Node1 -->
<g id="edge2" class="edge">
<title>Node2&#45;&gt;Node1</title>
<path fill="none" stroke="midnightblue" d="M320.13,-129.35C345.99,-127.07 376.12,-123.6 401.82,-119.94"/>
<polygon fill="midnightblue" stroke="midnightblue" points="319.75,-125.87 310.08,-130.19 320.33,-132.84 319.75,-125.87"/>
</g>
<!-- Node3 -->
<g id="node3" class="node">
<title>Node3</title>
<g id="a_node3"><a xlink:href="classGazeboYarpPlugins_1_1WorldInterfaceServer__deleteAll__helper_1_1Command.html" target="_top" xlink:title=" ">
<polygon fill="none" stroke="black" points="180,-60.5 180,-101.5 338,-101.5 338,-60.5 180,-60.5"/>
<text text-anchor="start" x="188" y="-89.5" font-family="FreeSans.ttf" font-size="10.00">GazeboYarpPlugins::</text>
<text text-anchor="start" x="188" y="-78.5" font-family="FreeSans.ttf" font-size="10.00">WorldInterfaceServer</text>
<text text-anchor="middle" x="259" y="-67.5" font-family="FreeSans.ttf" font-size="10.00">_deleteAll_helper::Command</text>
</a>
</g>
</g>
<!-- Node3&#45;&gt;Node1 -->
<g id="edge3" class="edge">
<title>Node3&#45;&gt;Node1</title>
<path fill="none" stroke="#9a32cd" stroke-dasharray="5,2" d="M348.13,-92.43C366.32,-94.79 385.05,-97.22 401.87,-99.4"/>
<polygon fill="#9a32cd" stroke="#9a32cd" points="348.46,-88.94 338.09,-91.13 347.56,-95.88 348.46,-88.94"/>
<text text-anchor="middle" x="370" y="-99" font-family="FreeSans.ttf" font-size="10.00"> cmd</text>
</g>
<!-- Node4 -->
<g id="node4" class="node">
<title>Node4</title>
<g id="a_node4"><a xlink:title=" ">
<polygon fill="none" stroke="black" points="0,-40.5 0,-59.5 143,-59.5 143,-40.5 0,-40.5"/>
<text text-anchor="middle" x="71.5" y="-47.5" font-family="FreeSans.ttf" font-size="10.00">yarp::os::idl::WirePortable</text>
</a>
</g>
</g>
<!-- Node4&#45;&gt;Node3 -->
<g id="edge4" class="edge">
<title>Node4&#45;&gt;Node3</title>
<path fill="none" stroke="midnightblue" d="M153.08,-56.77C161.95,-58.17 170.96,-59.69 179.8,-61.26"/>
<polygon fill="midnightblue" stroke="midnightblue" points="153.58,-53.3 143.16,-55.23 152.51,-60.22 153.58,-53.3"/>
</g>
<!-- Node4&#45;&gt;Node3 -->
<g id="edge5" class="edge">
<title>Node4&#45;&gt;Node3</title>
<path fill="none" stroke="midnightblue" d="M109.87,-61.79C130.02,-66.16 155.67,-70.83 179.94,-74.63"/>
<polygon fill="midnightblue" stroke="midnightblue" points="110.4,-58.32 99.87,-59.53 108.86,-65.14 110.4,-58.32"/>
</g>
<!-- Node5 -->
<g id="node5" class="node">
<title>Node5</title>
<g id="a_node5"><a xlink:href="classGazeboYarpPlugins_1_1WorldInterfaceServer__deleteAll__helper_1_1Reply.html" target="_top" xlink:title=" ">
<polygon fill="none" stroke="black" points="191.5,-0.5 191.5,-41.5 326.5,-41.5 326.5,-0.5 191.5,-0.5"/>
<text text-anchor="start" x="199.5" y="-29.5" font-family="FreeSans.ttf" font-size="10.00">GazeboYarpPlugins::</text>
<text text-anchor="start" x="199.5" y="-18.5" font-family="FreeSans.ttf" font-size="10.00">WorldInterfaceServer</text>
<text text-anchor="middle" x="259" y="-7.5" font-family="FreeSans.ttf" font-size="10.00">_deleteAll_helper::Reply</text>
</a>
</g>
</g>
<!-- Node4&#45;&gt;Node5 -->
<g id="edge7" class="edge">
<title>Node4&#45;&gt;Node5</title>
<path fill="none" stroke="midnightblue" d="M110.88,-38.41C134.07,-33.66 164.27,-28.63 191.27,-24.92"/>
<polygon fill="midnightblue" stroke="midnightblue" points="110.13,-34.99 101.08,-40.5 111.59,-41.84 110.13,-34.99"/>
</g>
<!-- Node4&#45;&gt;Node5 -->
<g id="edge8" class="edge">
<title>Node4&#45;&gt;Node5</title>
<path fill="none" stroke="midnightblue" d="M153.24,-44.08C165.91,-42.2 178.89,-40.11 191.2,-37.95"/>
<polygon fill="midnightblue" stroke="midnightblue" points="152.56,-40.64 143.16,-45.53 153.56,-47.57 152.56,-40.64"/>
</g>
<!-- Node5&#45;&gt;Node1 -->
<g id="edge6" class="edge">
<title>Node5&#45;&gt;Node1</title>
<path fill="none" stroke="#9a32cd" stroke-dasharray="5,2" d="M324.29,-45.37C328.95,-47.24 333.55,-49.13 338,-51 364.51,-62.15 393.83,-75.51 417.13,-86.39"/>
<polygon fill="#9a32cd" stroke="#9a32cd" points="325.31,-42 314.72,-41.56 322.72,-48.51 325.31,-42"/>
<text text-anchor="middle" x="370" y="-73" font-family="FreeSans.ttf" font-size="10.00"> reply</text>
</g>
</g>
</svg>
