<?xml version="1.0" encoding="UTF-8" standalone="no"?>
<!DOCTYPE svg PUBLIC "-//W3C//DTD SVG 1.1//EN"
 "http://www.w3.org/Graphics/SVG/1.1/DTD/svg11.dtd">
<!-- Generated by graphviz version 5.0.0 (20220707.2338)
 -->
<!-- Title: GazeboYarpPlugins::WorldInterfaceServer_makeCylinder_helper Pages: 1 -->
<svg width="701pt" height="204pt"
 viewBox="0.00 0.00 701.00 203.50" xmlns="http://www.w3.org/2000/svg" xmlns:xlink="http://www.w3.org/1999/xlink">
<g id="graph0" class="graph" transform="scale(1 1) rotate(0) translate(4 199.5)">
<title>GazeboYarpPlugins::WorldInterfaceServer_makeCylinder_helper</title>
<!-- Node1 -->
<g id="node1" class="node">
<title>Node1</title>
<g id="a_node1"><a xlink:title=" ">
<polygon fill="#bfbfbf" stroke="black" points="568,-137 568,-178 693,-178 693,-137 568,-137"/>
<text text-anchor="start" x="576" y="-166" font-family="FreeSans.ttf" font-size="10.00">GazeboYarpPlugins::</text>
<text text-anchor="start" x="576" y="-155" font-family="FreeSans.ttf" font-size="10.00">WorldInterfaceServer</text>
<text text-anchor="middle" x="630.5" y="-144" font-family="FreeSans.ttf" font-size="10.00">_makeCylinder_helper</text>
</a>
</g>
</g>
<!-- Node2 -->
<g id="node2" class="node">
<title>Node2</title>
<g id="a_node2"><a xlink:title=" ">
<polygon fill="none" stroke="black" points="393.5,-176 393.5,-195 495.5,-195 495.5,-176 393.5,-176"/>
<text text-anchor="middle" x="444.5" y="-183" font-family="FreeSans.ttf" font-size="10.00">yarp::os::Portable</text>
</a>
</g>
</g>
<!-- Node2&#45;&gt;Node1 -->
<g id="edge1" class="edge">
<title>Node2&#45;&gt;Node1</title>
<path fill="none" stroke="midnightblue" d="M484.52,-173.93C508.68,-169.1 540.23,-164.04 567.73,-160.48"/>
<polygon fill="midnightblue" stroke="midnightblue" points="483.73,-170.51 474.66,-175.97 485.16,-177.37 483.73,-170.51"/>
</g>
<!-- Node2&#45;&gt;Node1 -->
<g id="edge2" class="edge">
<title>Node2&#45;&gt;Node1</title>
<path fill="none" stroke="midnightblue" d="M505.93,-182.69C525.78,-180.15 547.86,-176.8 567.8,-173.3"/>
<polygon fill="midnightblue" stroke="midnightblue" points="505.28,-179.24 495.78,-183.94 506.13,-186.19 505.28,-179.24"/>
</g>
<!-- Node3 -->
<g id="node3" class="node">
<title>Node3</title>
<g id="a_node3"><a xlink:href="classGazeboYarpPlugins_1_1WorldInterfaceServer__makeCylinder__helper_1_1Command.html" target="_top" xlink:title=" ">
<polygon fill="none" stroke="black" points="382,-104.5 382,-156.5 507,-156.5 507,-104.5 382,-104.5"/>
<text text-anchor="start" x="390" y="-144.5" font-family="FreeSans.ttf" font-size="10.00">GazeboYarpPlugins::</text>
<text text-anchor="start" x="390" y="-133.5" font-family="FreeSans.ttf" font-size="10.00">WorldInterfaceServer</text>
<text text-anchor="start" x="390" y="-122.5" font-family="FreeSans.ttf" font-size="10.00">_makeCylinder_helper</text>
<text text-anchor="middle" x="444.5" y="-111.5" font-family="FreeSans.ttf" font-size="10.00">::Command</text>
</a>
</g>
</g>
<!-- Node3&#45;&gt;Node1 -->
<g id="edge3" class="edge">
<title>Node3&#45;&gt;Node1</title>
<path fill="none" stroke="#9a32cd" stroke-dasharray="5,2" d="M517.26,-141.03C533.93,-143.48 551.53,-146.06 567.72,-148.43"/>
<polygon fill="#9a32cd" stroke="#9a32cd" points="517.43,-137.52 507.03,-139.53 516.41,-144.44 517.43,-137.52"/>
<text text-anchor="middle" x="537.5" y="-148.5" font-family="FreeSans.ttf" font-size="10.00"> cmd</text>
</g>
<!-- Node4 -->
<g id="node4" class="node">
<title>Node4</title>
<g id="a_node4"><a xlink:title=" ">
<polygon fill="none" stroke="black" points="0,-99 0,-118 143,-118 143,-99 0,-99"/>
<text text-anchor="middle" x="71.5" y="-106" font-family="FreeSans.ttf" font-size="10.00">yarp::os::idl::WirePortable</text>
</a>
</g>
</g>
<!-- Node4&#45;&gt;Node3 -->
<g id="edge4" class="edge">
<title>Node4&#45;&gt;Node3</title>
<path fill="none" stroke="midnightblue" d="M117.82,-121.78C136.6,-128.93 158.9,-136.74 180,-140.5 248.41,-152.7 328.13,-143.81 381.82,-136.38"/>
<polygon fill="midnightblue" stroke="midnightblue" points="118.93,-118.46 108.34,-118.13 116.42,-124.99 118.93,-118.46"/>
</g>
<!-- Node4&#45;&gt;Node3 -->
<g id="edge5" class="edge">
<title>Node4&#45;&gt;Node3</title>
<path fill="none" stroke="midnightblue" d="M89.44,-123.63C110.15,-136.42 146.58,-152.54 180,-158.5 248.41,-170.7 328.13,-161.81 381.82,-150.65"/>
<polygon fill="midnightblue" stroke="midnightblue" points="91.35,-120.69 81.1,-118.03 87.45,-126.51 91.35,-120.69"/>
</g>
<!-- Node5 -->
<g id="node5" class="node">
<title>Node5</title>
<g id="a_node5"><a xlink:href="classGazeboYarpPlugins_1_1Pose.html" target="_top" xlink:title=" ">
<polygon fill="none" stroke="black" points="180,-121 180,-140 318,-140 318,-121 180,-121"/>
<text text-anchor="middle" x="249" y="-128" font-family="FreeSans.ttf" font-size="10.00">GazeboYarpPlugins::Pose</text>
</a>
</g>
</g>
<!-- Node4&#45;&gt;Node5 -->
<g id="edge7" class="edge">
<title>Node4&#45;&gt;Node5</title>
<path fill="none" stroke="midnightblue" d="M153.15,-111.88C175.1,-114.51 197.65,-117.78 215.25,-121"/>
<polygon fill="midnightblue" stroke="midnightblue" points="153.46,-108.39 143.12,-110.72 152.65,-115.35 153.46,-108.39"/>
</g>
<!-- Node4&#45;&gt;Node5 -->
<g id="edge8" class="edge">
<title>Node4&#45;&gt;Node5</title>
<path fill="none" stroke="midnightblue" d="M115.54,-119.8C134.9,-123.03 158.23,-126.19 179.89,-128.56"/>
<polygon fill="midnightblue" stroke="midnightblue" points="115.96,-116.32 105.51,-118.05 114.76,-123.21 115.96,-116.32"/>
</g>
<!-- Node6 -->
<g id="node6" class="node">
<title>Node6</title>
<g id="a_node6"><a xlink:href="classGazeboYarpPlugins_1_1Color.html" target="_top" xlink:title=" ">
<polygon fill="none" stroke="black" points="191.5,-71.5 191.5,-101.5 306.5,-101.5 306.5,-71.5 191.5,-71.5"/>
<text text-anchor="start" x="199.5" y="-89.5" font-family="FreeSans.ttf" font-size="10.00">GazeboYarpPlugins::</text>
<text text-anchor="middle" x="249" y="-78.5" font-family="FreeSans.ttf" font-size="10.00">Color</text>
</a>
</g>
</g>
<!-- Node4&#45;&gt;Node6 -->
<g id="edge10" class="edge">
<title>Node4&#45;&gt;Node6</title>
<path fill="none" stroke="midnightblue" d="M115.58,-97.2C138.4,-93.39 166.73,-89.68 191.31,-87.25"/>
<polygon fill="midnightblue" stroke="midnightblue" points="114.76,-93.79 105.51,-98.95 115.96,-100.68 114.76,-93.79"/>
</g>
<!-- Node4&#45;&gt;Node6 -->
<g id="edge11" class="edge">
<title>Node4&#45;&gt;Node6</title>
<path fill="none" stroke="midnightblue" d="M153.33,-105.1C166.15,-103.56 179.15,-101.81 191.26,-99.97"/>
<polygon fill="midnightblue" stroke="midnightblue" points="152.65,-101.65 143.12,-106.28 153.46,-108.61 152.65,-101.65"/>
</g>
<!-- Node7 -->
<g id="node7" class="node">
<title>Node7</title>
<g id="a_node7"><a xlink:href="classGazeboYarpPlugins_1_1WorldInterfaceServer__makeCylinder__helper_1_1Reply.html" target="_top" xlink:title=" ">
<polygon fill="none" stroke="black" points="186.5,-0.5 186.5,-52.5 311.5,-52.5 311.5,-0.5 186.5,-0.5"/>
<text text-anchor="start" x="194.5" y="-40.5" font-family="FreeSans.ttf" font-size="10.00">GazeboYarpPlugins::</text>
<text text-anchor="start" x="194.5" y="-29.5" font-family="FreeSans.ttf" font-size="10.00">WorldInterfaceServer</text>
<text text-anchor="start" x="194.5" y="-18.5" font-family="FreeSans.ttf" font-size="10.00">_makeCylinder_helper</text>
<text text-anchor="middle" x="249" y="-7.5" font-family="FreeSans.ttf" font-size="10.00">::Reply</text>
</a>
</g>
</g>
<!-- Node4&#45;&gt;Node7 -->
<g id="edge13" class="edge">
<title>Node4&#45;&gt;Node7</title>
<path fill="none" stroke="midnightblue" d="M93.98,-93.85C116.85,-81.23 154.09,-63.21 186.22,-48.89"/>
<polygon fill="midnightblue" stroke="midnightblue" points="92.08,-90.91 85.12,-98.9 95.54,-96.99 92.08,-90.91"/>
</g>
<!-- Node4&#45;&gt;Node7 -->
<g id="edge14" class="edge">
<title>Node4&#45;&gt;Node7</title>
<path fill="none" stroke="midnightblue" d="M113.6,-95.11C141.04,-83.51 177.06,-66.71 204.9,-52.54"/>
<polygon fill="midnightblue" stroke="midnightblue" points="112.17,-91.92 104.28,-98.99 114.86,-98.38 112.17,-91.92"/>
</g>
<!-- Node5&#45;&gt;Node3 -->
<g id="edge6" class="edge">
<title>Node5&#45;&gt;Node3</title>
<path fill="none" stroke="#9a32cd" stroke-dasharray="5,2" d="M328.53,-130.5C346.24,-130.5 364.8,-130.5 381.7,-130.5"/>
<polygon fill="#9a32cd" stroke="#9a32cd" points="328.22,-127 318.22,-130.5 328.22,-134 328.22,-127"/>
<text text-anchor="middle" x="350" y="-133.5" font-family="FreeSans.ttf" font-size="10.00"> pose</text>
</g>
<!-- Node6&#45;&gt;Node3 -->
<g id="edge9" class="edge">
<title>Node6&#45;&gt;Node3</title>
<path fill="none" stroke="#9a32cd" stroke-dasharray="5,2" d="M316.6,-101.64C337.7,-106.44 360.93,-111.72 381.68,-116.44"/>
<polygon fill="#9a32cd" stroke="#9a32cd" points="317.28,-98.21 306.75,-99.4 315.72,-105.03 317.28,-98.21"/>
<text text-anchor="middle" x="350" y="-113.5" font-family="FreeSans.ttf" font-size="10.00"> color</text>
</g>
<!-- Node7&#45;&gt;Node1 -->
<g id="edge12" class="edge">
<title>Node7&#45;&gt;Node1</title>
<path fill="none" stroke="#9a32cd" stroke-dasharray="5,2" d="M321.51,-36.42C374.11,-45.2 446.64,-60.41 507,-84.5 541.03,-98.08 576.66,-120.36 600.66,-136.74"/>
<polygon fill="#9a32cd" stroke="#9a32cd" points="322.03,-32.96 311.6,-34.81 320.91,-39.87 322.03,-32.96"/>
<text text-anchor="middle" x="444.5" y="-87.5" font-family="FreeSans.ttf" font-size="10.00"> reply</text>
</g>
</g>
</svg>
