<?xml version="1.0" encoding="UTF-8" standalone="no"?>
<!DOCTYPE svg PUBLIC "-//W3C//DTD SVG 1.1//EN"
 "http://www.w3.org/Graphics/SVG/1.1/DTD/svg11.dtd">
<!-- Generated by graphviz version 5.0.1 (20220821.0811)
 -->
<!-- Title: GazeboYarpPlugins::WorldInterfaceServer_changeColor_helper Pages: 1 -->
<svg width="709pt" height="190pt"
 viewBox="0.00 0.00 709.00 190.00" xmlns="http://www.w3.org/2000/svg" xmlns:xlink="http://www.w3.org/1999/xlink">
<g id="graph0" class="graph" transform="scale(1 1) rotate(0) translate(4 186)">
<title>GazeboYarpPlugins::WorldInterfaceServer_changeColor_helper</title>
<!-- Node1 -->
<g id="node1" class="node">
<title>Node1</title>
<g id="a_node1"><a xlink:title=" ">
<polygon fill="#bfbfbf" stroke="black" points="582,-123.5 582,-164.5 701,-164.5 701,-123.5 582,-123.5"/>
<text text-anchor="start" x="590" y="-152.5" font-family="FreeSans.ttf" font-size="10.00">GazeboYarpPlugins::</text>
<text text-anchor="start" x="590" y="-141.5" font-family="FreeSans.ttf" font-size="10.00">WorldInterfaceServer</text>
<text text-anchor="middle" x="641.5" y="-130.5" font-family="FreeSans.ttf" font-size="10.00">_changeColor_helper</text>
</a>
</g>
</g>
<!-- Node2 -->
<g id="node2" class="node">
<title>Node2</title>
<g id="a_node2"><a xlink:title=" ">
<polygon fill="none" stroke="black" points="407.5,-162.5 407.5,-181.5 509.5,-181.5 509.5,-162.5 407.5,-162.5"/>
<text text-anchor="middle" x="458.5" y="-169.5" font-family="FreeSans.ttf" font-size="10.00">yarp::os::Portable</text>
</a>
</g>
</g>
<!-- Node2&#45;&gt;Node1 -->
<g id="edge1" class="edge">
<title>Node2&#45;&gt;Node1</title>
<path fill="none" stroke="midnightblue" d="M498.14,-160.38C522.53,-155.43 554.52,-150.24 581.99,-146.69"/>
<polygon fill="midnightblue" stroke="midnightblue" points="497.24,-156.99 488.18,-162.47 498.69,-163.84 497.24,-156.99"/>
</g>
<!-- Node2&#45;&gt;Node1 -->
<g id="edge2" class="edge">
<title>Node2&#45;&gt;Node1</title>
<path fill="none" stroke="midnightblue" d="M520.09,-169.04C539.95,-166.43 561.98,-163.01 581.71,-159.46"/>
<polygon fill="midnightblue" stroke="midnightblue" points="519.4,-165.6 509.92,-170.32 520.28,-172.54 519.4,-165.6"/>
</g>
<!-- Node3 -->
<g id="node3" class="node">
<title>Node3</title>
<g id="a_node3"><a xlink:href="classGazeboYarpPlugins_1_1WorldInterfaceServer__changeColor__helper_1_1Command.html" target="_top" xlink:title=" ">
<polygon fill="none" stroke="black" points="396,-91 396,-143 521,-143 521,-91 396,-91"/>
<text text-anchor="start" x="404" y="-131" font-family="FreeSans.ttf" font-size="10.00">GazeboYarpPlugins::</text>
<text text-anchor="start" x="404" y="-120" font-family="FreeSans.ttf" font-size="10.00">WorldInterfaceServer</text>
<text text-anchor="start" x="404" y="-109" font-family="FreeSans.ttf" font-size="10.00">_changeColor_helper::</text>
<text text-anchor="middle" x="458.5" y="-98" font-family="FreeSans.ttf" font-size="10.00">Command</text>
</a>
</g>
</g>
<!-- Node3&#45;&gt;Node1 -->
<g id="edge3" class="edge">
<title>Node3&#45;&gt;Node1</title>
<path fill="none" stroke="#9a32cd" stroke-dasharray="5,2" d="M531.34,-127.72C548.11,-130.22 565.77,-132.85 581.89,-135.26"/>
<polygon fill="#9a32cd" stroke="#9a32cd" points="531.44,-124.19 521.03,-126.18 530.41,-131.12 531.44,-124.19"/>
<text text-anchor="middle" x="551.5" y="-135" font-family="FreeSans.ttf" font-size="10.00"> cmd</text>
</g>
<!-- Node4 -->
<g id="node4" class="node">
<title>Node4</title>
<g id="a_node4"><a xlink:title=" ">
<polygon fill="none" stroke="black" points="0,-66.5 0,-85.5 143,-85.5 143,-66.5 0,-66.5"/>
<text text-anchor="middle" x="71.5" y="-73.5" font-family="FreeSans.ttf" font-size="10.00">yarp::os::idl::WirePortable</text>
</a>
</g>
</g>
<!-- Node4&#45;&gt;Node3 -->
<g id="edge4" class="edge">
<title>Node4&#45;&gt;Node3</title>
<path fill="none" stroke="midnightblue" d="M149.28,-87.7C153.23,-88.53 157.16,-89.3 161,-90 241.3,-104.58 335.62,-108.01 395.95,-110.63"/>
<polygon fill="midnightblue" stroke="midnightblue" points="149.95,-84.26 139.43,-85.57 148.46,-91.11 149.95,-84.26"/>
</g>
<!-- Node4&#45;&gt;Node3 -->
<g id="edge5" class="edge">
<title>Node4&#45;&gt;Node3</title>
<path fill="none" stroke="midnightblue" d="M93.53,-89.62C111.34,-96.62 137.63,-103.76 161,-108 241.3,-122.58 335.62,-126.01 395.95,-124.38"/>
<polygon fill="midnightblue" stroke="midnightblue" points="94.68,-86.3 84.11,-85.54 91.9,-92.72 94.68,-86.3"/>
</g>
<!-- Node5 -->
<g id="node5" class="node">
<title>Node5</title>
<g id="a_node5"><a xlink:href="classGazeboYarpPlugins_1_1Color.html" target="_top" xlink:title=" ">
<polygon fill="none" stroke="black" points="198.5,-61 198.5,-91 313.5,-91 313.5,-61 198.5,-61"/>
<text text-anchor="start" x="206.5" y="-79" font-family="FreeSans.ttf" font-size="10.00">GazeboYarpPlugins::</text>
<text text-anchor="middle" x="256" y="-68" font-family="FreeSans.ttf" font-size="10.00">Color</text>
</a>
</g>
</g>
<!-- Node4&#45;&gt;Node5 -->
<g id="edge7" class="edge">
<title>Node4&#45;&gt;Node5</title>
<path fill="none" stroke="midnightblue" d="M153.49,-69.29C168.67,-69.17 184.24,-69.31 198.48,-69.7"/>
<polygon fill="midnightblue" stroke="midnightblue" points="153.02,-65.79 143.06,-69.41 153.1,-72.79 153.02,-65.79"/>
</g>
<!-- Node4&#45;&gt;Node5 -->
<g id="edge8" class="edge">
<title>Node4&#45;&gt;Node5</title>
<path fill="none" stroke="midnightblue" d="M153.49,-82.71C168.67,-82.83 184.24,-82.69 198.48,-82.3"/>
<polygon fill="midnightblue" stroke="midnightblue" points="153.1,-79.21 143.06,-82.59 153.02,-86.21 153.1,-79.21"/>
</g>
<!-- Node6 -->
<g id="node6" class="node">
<title>Node6</title>
<g id="a_node6"><a xlink:href="classGazeboYarpPlugins_1_1WorldInterfaceServer__changeColor__helper_1_1Reply.html" target="_top" xlink:title=" ">
<polygon fill="none" stroke="black" points="180,-0.5 180,-41.5 332,-41.5 332,-0.5 180,-0.5"/>
<text text-anchor="start" x="188" y="-29.5" font-family="FreeSans.ttf" font-size="10.00">GazeboYarpPlugins::</text>
<text text-anchor="start" x="188" y="-18.5" font-family="FreeSans.ttf" font-size="10.00">WorldInterfaceServer</text>
<text text-anchor="middle" x="256" y="-7.5" font-family="FreeSans.ttf" font-size="10.00">_changeColor_helper::Reply</text>
</a>
</g>
</g>
<!-- Node4&#45;&gt;Node6 -->
<g id="edge10" class="edge">
<title>Node4&#45;&gt;Node6</title>
<path fill="none" stroke="midnightblue" d="M99.95,-62.74C121.14,-54.91 151.53,-45.19 179.79,-37.01"/>
<polygon fill="midnightblue" stroke="midnightblue" points="98.42,-59.57 90.33,-66.41 100.92,-66.11 98.42,-59.57"/>
</g>
<!-- Node4&#45;&gt;Node6 -->
<g id="edge11" class="edge">
<title>Node4&#45;&gt;Node6</title>
<path fill="none" stroke="midnightblue" d="M134.69,-63.69C158.24,-57.12 184.68,-49.02 206.76,-41.57"/>
<polygon fill="midnightblue" stroke="midnightblue" points="133.51,-60.39 124.8,-66.41 135.37,-67.14 133.51,-60.39"/>
</g>
<!-- Node5&#45;&gt;Node3 -->
<g id="edge6" class="edge">
<title>Node5&#45;&gt;Node3</title>
<path fill="none" stroke="#9a32cd" stroke-dasharray="5,2" d="M323.82,-85.09C341.51,-87.88 360.54,-91.23 378,-95 383.74,-96.24 389.68,-97.65 395.61,-99.14"/>
<polygon fill="#9a32cd" stroke="#9a32cd" points="323.99,-81.58 313.58,-83.52 322.93,-88.5 323.99,-81.58"/>
<text text-anchor="middle" x="364" y="-98" font-family="FreeSans.ttf" font-size="10.00"> color</text>
</g>
<!-- Node6&#45;&gt;Node1 -->
<g id="edge9" class="edge">
<title>Node6&#45;&gt;Node1</title>
<path fill="none" stroke="#9a32cd" stroke-dasharray="5,2" d="M342.1,-29.21C394.91,-36.22 463.44,-48.82 521,-71 554.8,-84.02 589.74,-106.62 613.04,-123.23"/>
<polygon fill="#9a32cd" stroke="#9a32cd" points="342.46,-25.73 332.09,-27.92 341.56,-32.67 342.46,-25.73"/>
<text text-anchor="middle" x="458.5" y="-74" font-family="FreeSans.ttf" font-size="10.00"> reply</text>
</g>
</g>
</svg>
