<?xml version="1.0" encoding="UTF-8" standalone="no"?>
<!DOCTYPE svg PUBLIC "-//W3C//DTD SVG 1.1//EN"
 "http://www.w3.org/Graphics/SVG/1.1/DTD/svg11.dtd">
<!-- Generated by graphviz version 2.43.0 (0)
 -->
<!-- Title: WorldInterfaceServerImpl Pages: 1 -->
<svg width="149pt" height="151pt"
 viewBox="0.00 0.00 149.00 151.00" xmlns="http://www.w3.org/2000/svg" xmlns:xlink="http://www.w3.org/1999/xlink">
<g id="graph0" class="graph" transform="scale(1 1) rotate(0) translate(4 147)">
<title>WorldInterfaceServerImpl</title>
<!-- Node1 -->
<g id="node1" class="node">
<title>Node1</title>
<g id="a_node1"><a xlink:title=" ">
<polygon fill="#bfbfbf" stroke="black" points="0,-0.5 0,-19.5 141,-19.5 141,-0.5 0,-0.5"/>
<text text-anchor="middle" x="70.5" y="-7.5" font-family="FreeSans.ttf" font-size="10.00">WorldInterfaceServerImpl</text>
</a>
</g>
</g>
<!-- Node2 -->
<g id="node2" class="node">
<title>Node2</title>
<g id="a_node2"><a xlink:href="classGazeboYarpPlugins_1_1WorldInterfaceServer.html" target="_top" xlink:title=" ">
<polygon fill="none" stroke="black" points="11,-56.5 11,-86.5 130,-86.5 130,-56.5 11,-56.5"/>
<text text-anchor="start" x="19" y="-74.5" font-family="FreeSans.ttf" font-size="10.00">GazeboYarpPlugins::</text>
<text text-anchor="middle" x="70.5" y="-63.5" font-family="FreeSans.ttf" font-size="10.00">WorldInterfaceServer</text>
</a>
</g>
</g>
<!-- Node2&#45;&gt;Node1 -->
<g id="edge1" class="edge">
<title>Node2&#45;&gt;Node1</title>
<path fill="none" stroke="midnightblue" d="M70.5,-46.29C70.5,-36.86 70.5,-26.65 70.5,-19.66"/>
<polygon fill="midnightblue" stroke="midnightblue" points="67,-46.4 70.5,-56.4 74,-46.4 67,-46.4"/>
</g>
<!-- Node3 -->
<g id="node3" class="node">
<title>Node3</title>
<g id="a_node3"><a xlink:title=" ">
<polygon fill="none" stroke="#bfbfbf" points="28.5,-123.5 28.5,-142.5 112.5,-142.5 112.5,-123.5 28.5,-123.5"/>
<text text-anchor="middle" x="70.5" y="-130.5" font-family="FreeSans.ttf" font-size="10.00">yarp::os::Wire</text>
</a>
</g>
</g>
<!-- Node3&#45;&gt;Node2 -->
<g id="edge2" class="edge">
<title>Node3&#45;&gt;Node2</title>
<path fill="none" stroke="midnightblue" d="M64.2,-113.53C63.47,-104.81 63.63,-94.59 64.67,-86.52"/>
<polygon fill="midnightblue" stroke="midnightblue" points="60.74,-114.06 65.6,-123.48 67.67,-113.09 60.74,-114.06"/>
</g>
<!-- Node3&#45;&gt;Node2 -->
<g id="edge3" class="edge">
<title>Node3&#45;&gt;Node2</title>
<path fill="none" stroke="midnightblue" d="M76.8,-113.53C77.53,-104.81 77.37,-94.59 76.33,-86.52"/>
<polygon fill="midnightblue" stroke="midnightblue" points="73.33,-113.09 75.4,-123.48 80.26,-114.06 73.33,-113.09"/>
</g>
</g>
</svg>
