<?xml version="1.0" encoding="UTF-8" standalone="no"?>
<!DOCTYPE svg PUBLIC "-//W3C//DTD SVG 1.1//EN"
 "http://www.w3.org/Graphics/SVG/1.1/DTD/svg11.dtd">
<!-- Generated by graphviz version 2.43.0 (0)
 -->
<!-- Title: GazeboYarpPlugins::LinkAttacherServer Pages: 1 -->
<svg width="123pt" height="95pt"
 viewBox="0.00 0.00 123.00 95.00" xmlns="http://www.w3.org/2000/svg" xmlns:xlink="http://www.w3.org/1999/xlink">
<g id="graph0" class="graph" transform="scale(1 1) rotate(0) translate(4 91)">
<title>GazeboYarpPlugins::LinkAttacherServer</title>
<!-- Node1 -->
<g id="node1" class="node">
<title>Node1</title>
<g id="a_node1"><a xlink:title=" ">
<polygon fill="#bfbfbf" stroke="black" points="0,-0.5 0,-30.5 115,-30.5 115,-0.5 0,-0.5"/>
<text text-anchor="start" x="8" y="-18.5" font-family="FreeSans.ttf" font-size="10.00">GazeboYarpPlugins::</text>
<text text-anchor="middle" x="57.5" y="-7.5" font-family="FreeSans.ttf" font-size="10.00">LinkAttacherServer</text>
</a>
</g>
</g>
<!-- Node2 -->
<g id="node2" class="node">
<title>Node2</title>
<g id="a_node2"><a xlink:title=" ">
<polygon fill="none" stroke="#bfbfbf" points="15.5,-67.5 15.5,-86.5 99.5,-86.5 99.5,-67.5 15.5,-67.5"/>
<text text-anchor="middle" x="57.5" y="-74.5" font-family="FreeSans.ttf" font-size="10.00">yarp::os::Wire</text>
</a>
</g>
</g>
<!-- Node2&#45;&gt;Node1 -->
<g id="edge1" class="edge">
<title>Node2&#45;&gt;Node1</title>
<path fill="none" stroke="midnightblue" d="M51.2,-57.53C50.47,-48.81 50.63,-38.59 51.67,-30.52"/>
<polygon fill="midnightblue" stroke="midnightblue" points="47.74,-58.06 52.6,-67.48 54.67,-57.09 47.74,-58.06"/>
</g>
<!-- Node2&#45;&gt;Node1 -->
<g id="edge2" class="edge">
<title>Node2&#45;&gt;Node1</title>
<path fill="none" stroke="midnightblue" d="M63.8,-57.53C64.53,-48.81 64.37,-38.59 63.33,-30.52"/>
<polygon fill="midnightblue" stroke="midnightblue" points="60.33,-57.09 62.4,-67.48 67.26,-58.06 60.33,-57.09"/>
</g>
</g>
</svg>
