<?xml version="1.0" encoding="UTF-8" standalone="no"?>
<!DOCTYPE svg PUBLIC "-//W3C//DTD SVG 1.1//EN"
 "http://www.w3.org/Graphics/SVG/1.1/DTD/svg11.dtd">
<!-- Generated by graphviz version 2.43.0 (0)
 -->
<!-- Title: gazebo::VideoTexture Pages: 1 -->
<svg width="250pt" height="173pt"
 viewBox="0.00 0.00 250.00 173.00" xmlns="http://www.w3.org/2000/svg" xmlns:xlink="http://www.w3.org/1999/xlink">
<g id="graph0" class="graph" transform="scale(1 1) rotate(0) translate(4 169)">
<title>gazebo::VideoTexture</title>
<!-- Node1 -->
<g id="node1" class="node">
<title>Node1</title>
<g id="a_node1"><a xlink:title=" ">
<polygon fill="#bfbfbf" stroke="black" points="0,-0.5 0,-19.5 122,-19.5 122,-0.5 0,-0.5"/>
<text text-anchor="middle" x="61" y="-7.5" font-family="FreeSans.ttf" font-size="10.00">gazebo::VideoTexture</text>
</a>
</g>
</g>
<!-- Node2 -->
<g id="node2" class="node">
<title>Node2</title>
<g id="a_node2"><a xlink:title=" ">
<polygon fill="none" stroke="#bfbfbf" points="6.5,-73 6.5,-92 83.5,-92 83.5,-73 6.5,-73"/>
<text text-anchor="middle" x="45" y="-80" font-family="FreeSans.ttf" font-size="10.00">VisualPlugin</text>
</a>
</g>
</g>
<!-- Node2&#45;&gt;Node1 -->
<g id="edge1" class="edge">
<title>Node2&#45;&gt;Node1</title>
<path fill="none" stroke="midnightblue" d="M49.23,-62.86C52.4,-48.9 56.59,-30.43 59.02,-19.72"/>
<polygon fill="midnightblue" stroke="midnightblue" points="45.76,-62.33 46.96,-72.86 52.59,-63.88 45.76,-62.33"/>
</g>
<!-- Node3 -->
<g id="node3" class="node">
<title>Node3</title>
<g id="a_node3"><a xlink:href="classyarp_1_1os_1_1BufferedPort.html" target="_top" xlink:title=" ">
<polygon fill="none" stroke="black" points="102,-67.5 102,-97.5 224,-97.5 224,-67.5 102,-67.5"/>
<text text-anchor="start" x="110" y="-85.5" font-family="FreeSans.ttf" font-size="10.00">yarp::os::BufferedPort</text>
<text text-anchor="middle" x="163" y="-74.5" font-family="FreeSans.ttf" font-size="10.00">&lt; ImageType &gt;</text>
</a>
</g>
</g>
<!-- Node3&#45;&gt;Node1 -->
<g id="edge2" class="edge">
<title>Node3&#45;&gt;Node1</title>
<path fill="none" stroke="#9a32cd" stroke-dasharray="5,2" d="M133.92,-61.4C113.99,-47.62 88.53,-30.03 73.57,-19.69"/>
<polygon fill="#9a32cd" stroke="#9a32cd" points="132.14,-64.43 142.36,-67.23 136.12,-58.67 132.14,-64.43"/>
<text text-anchor="middle" x="148" y="-41" font-family="FreeSans.ttf" font-size="10.00"> m_VideoPort</text>
</g>
<!-- Node4 -->
<g id="node4" class="node">
<title>Node4</title>
<g id="a_node4"><a xlink:href="classyarp_1_1os_1_1BufferedPort.html" target="_top" xlink:title=" ">
<polygon fill="none" stroke="black" points="87.5,-145.5 87.5,-164.5 238.5,-164.5 238.5,-145.5 87.5,-145.5"/>
<text text-anchor="middle" x="163" y="-152.5" font-family="FreeSans.ttf" font-size="10.00">yarp::os::BufferedPort&lt; T &gt;</text>
</a>
</g>
</g>
<!-- Node4&#45;&gt;Node3 -->
<g id="edge3" class="edge">
<title>Node4&#45;&gt;Node3</title>
<path fill="none" stroke="orange" stroke-dasharray="5,2" d="M163,-135.24C163,-123.41 163,-108.38 163,-97.58"/>
<polygon fill="orange" stroke="orange" points="159.5,-135.36 163,-145.36 166.5,-135.36 159.5,-135.36"/>
<text text-anchor="middle" x="202.5" y="-119" font-family="FreeSans.ttf" font-size="10.00"> &lt; ImageType &gt;</text>
</g>
</g>
</svg>
