<?xml version="1.0" encoding="UTF-8" standalone="no"?>
<!DOCTYPE svg PUBLIC "-//W3C//DTD SVG 1.1//EN"
 "http://www.w3.org/Graphics/SVG/1.1/DTD/svg11.dtd">
<!-- Generated by graphviz version 3.0.0 (20220315.2325)
 -->
<!-- Title: GazeboYarpPlugins::WorldInterfaceServer_makeSphere_helper Pages: 1 -->
<svg width="759pt" height="187pt"
 viewBox="0.00 0.00 759.00 187.00" xmlns="http://www.w3.org/2000/svg" xmlns:xlink="http://www.w3.org/1999/xlink">
<g id="graph0" class="graph" transform="scale(1 1) rotate(0) translate(4 183)">
<title>GazeboYarpPlugins::WorldInterfaceServer_makeSphere_helper</title>
<!-- Node1 -->
<g id="node1" class="node">
<title>Node1</title>
<g id="a_node1"><a xlink:title=" ">
<polygon fill="#bfbfbf" stroke="black" points="632,-123.5 632,-164.5 751,-164.5 751,-123.5 632,-123.5"/>
<text text-anchor="start" x="640" y="-152.5" font-family="FreeSans.ttf" font-size="10.00">GazeboYarpPlugins::</text>
<text text-anchor="start" x="640" y="-141.5" font-family="FreeSans.ttf" font-size="10.00">WorldInterfaceServer</text>
<text text-anchor="middle" x="691.5" y="-130.5" font-family="FreeSans.ttf" font-size="10.00">_makeSphere_helper</text>
</a>
</g>
</g>
<!-- Node2 -->
<g id="node2" class="node">
<title>Node2</title>
<g id="a_node2"><a xlink:title=" ">
<polygon fill="none" stroke="black" points="432.5,-159.5 432.5,-178.5 534.5,-178.5 534.5,-159.5 432.5,-159.5"/>
<text text-anchor="middle" x="483.5" y="-166.5" font-family="FreeSans.ttf" font-size="10.00">yarp::os::Portable</text>
</a>
</g>
</g>
<!-- Node2&#45;&gt;Node1 -->
<g id="edge1" class="edge">
<title>Node2&#45;&gt;Node1</title>
<path fill="none" stroke="midnightblue" d="M530.08,-157.75C560.03,-152.91 599.51,-147.97 631.8,-144.96"/>
<polygon fill="midnightblue" stroke="midnightblue" points="529.2,-154.35 519.91,-159.46 530.35,-161.26 529.2,-154.35"/>
</g>
<!-- Node2&#45;&gt;Node1 -->
<g id="edge2" class="edge">
<title>Node2&#45;&gt;Node1</title>
<path fill="none" stroke="midnightblue" d="M544.87,-167.88C572.26,-165.3 604.53,-161.36 631.72,-157.3"/>
<polygon fill="midnightblue" stroke="midnightblue" points="544.28,-164.42 534.63,-168.8 544.9,-171.39 544.28,-164.42"/>
</g>
<!-- Node3 -->
<g id="node3" class="node">
<title>Node3</title>
<g id="a_node3"><a xlink:href="classGazeboYarpPlugins_1_1WorldInterfaceServer__makeSphere__helper_1_1Command.html" target="_top" xlink:title=" ">
<polygon fill="none" stroke="black" points="396,-99.5 396,-140.5 571,-140.5 571,-99.5 396,-99.5"/>
<text text-anchor="start" x="404" y="-128.5" font-family="FreeSans.ttf" font-size="10.00">GazeboYarpPlugins::</text>
<text text-anchor="start" x="404" y="-117.5" font-family="FreeSans.ttf" font-size="10.00">WorldInterfaceServer</text>
<text text-anchor="middle" x="483.5" y="-106.5" font-family="FreeSans.ttf" font-size="10.00">_makeSphere_helper::Command</text>
</a>
</g>
</g>
<!-- Node3&#45;&gt;Node1 -->
<g id="edge3" class="edge">
<title>Node3&#45;&gt;Node1</title>
<path fill="none" stroke="#9a32cd" stroke-dasharray="5,2" d="M581.41,-127.34C592.42,-128.44 603.46,-129.66 614,-131 619.75,-131.73 625.72,-132.58 631.68,-133.5"/>
<polygon fill="#9a32cd" stroke="#9a32cd" points="581.62,-123.85 571.33,-126.37 580.95,-130.81 581.62,-123.85"/>
<text text-anchor="middle" x="601.5" y="-134" font-family="FreeSans.ttf" font-size="10.00"> cmd</text>
</g>
<!-- Node4 -->
<g id="node4" class="node">
<title>Node4</title>
<g id="a_node4"><a xlink:title=" ">
<polygon fill="none" stroke="black" points="0,-88.5 0,-107.5 143,-107.5 143,-88.5 0,-88.5"/>
<text text-anchor="middle" x="71.5" y="-95.5" font-family="FreeSans.ttf" font-size="10.00">yarp::os::idl::WirePortable</text>
</a>
</g>
</g>
<!-- Node4&#45;&gt;Node3 -->
<g id="edge4" class="edge">
<title>Node4&#45;&gt;Node3</title>
<path fill="none" stroke="midnightblue" d="M117.84,-111.16C136.63,-118.29 158.92,-126.12 180,-130 251.93,-143.25 334.93,-136.51 395.77,-129.02"/>
<polygon fill="midnightblue" stroke="midnightblue" points="118.95,-107.84 108.36,-107.53 116.44,-114.38 118.95,-107.84"/>
</g>
<!-- Node4&#45;&gt;Node3 -->
<g id="edge5" class="edge">
<title>Node4&#45;&gt;Node3</title>
<path fill="none" stroke="midnightblue" d="M89.77,-113.26C110.54,-125.96 146.78,-141.88 180,-148 260.08,-162.75 353.88,-152.73 415.55,-140.5"/>
<polygon fill="midnightblue" stroke="midnightblue" points="91.65,-110.3 81.38,-107.69 87.78,-116.14 91.65,-110.3"/>
</g>
<!-- Node5 -->
<g id="node5" class="node">
<title>Node5</title>
<g id="a_node5"><a xlink:href="classGazeboYarpPlugins_1_1Pose.html" target="_top" xlink:title=" ">
<polygon fill="none" stroke="black" points="187,-110.5 187,-129.5 325,-129.5 325,-110.5 187,-110.5"/>
<text text-anchor="middle" x="256" y="-117.5" font-family="FreeSans.ttf" font-size="10.00">GazeboYarpPlugins::Pose</text>
</a>
</g>
</g>
<!-- Node4&#45;&gt;Node5 -->
<g id="edge7" class="edge">
<title>Node4&#45;&gt;Node5</title>
<path fill="none" stroke="midnightblue" d="M153.16,-101.01C176.92,-103.7 201.65,-107.11 220.79,-110.47"/>
<polygon fill="midnightblue" stroke="midnightblue" points="153.38,-97.52 143.06,-99.91 152.62,-104.48 153.38,-97.52"/>
</g>
<!-- Node4&#45;&gt;Node5 -->
<g id="edge8" class="edge">
<title>Node4&#45;&gt;Node5</title>
<path fill="none" stroke="midnightblue" d="M116.75,-109.22C137.77,-112.6 163.37,-115.91 186.8,-118.33"/>
<polygon fill="midnightblue" stroke="midnightblue" points="117.27,-105.75 106.83,-107.55 116.11,-112.66 117.27,-105.75"/>
</g>
<!-- Node6 -->
<g id="node6" class="node">
<title>Node6</title>
<g id="a_node6"><a xlink:href="classGazeboYarpPlugins_1_1Color.html" target="_top" xlink:title=" ">
<polygon fill="none" stroke="black" points="198.5,-61 198.5,-91 313.5,-91 313.5,-61 198.5,-61"/>
<text text-anchor="start" x="206.5" y="-79" font-family="FreeSans.ttf" font-size="10.00">GazeboYarpPlugins::</text>
<text text-anchor="middle" x="256" y="-68" font-family="FreeSans.ttf" font-size="10.00">Color</text>
</a>
</g>
</g>
<!-- Node4&#45;&gt;Node6 -->
<g id="edge10" class="edge">
<title>Node4&#45;&gt;Node6</title>
<path fill="none" stroke="midnightblue" d="M116.91,-86.76C141.38,-82.82 172.03,-78.99 198.23,-76.54"/>
<polygon fill="midnightblue" stroke="midnightblue" points="116.11,-83.34 106.83,-88.45 117.27,-90.25 116.11,-83.34"/>
</g>
<!-- Node4&#45;&gt;Node6 -->
<g id="edge11" class="edge">
<title>Node4&#45;&gt;Node6</title>
<path fill="none" stroke="midnightblue" d="M153.05,-95C168.37,-93.27 184.1,-91.24 198.48,-89.11"/>
<polygon fill="midnightblue" stroke="midnightblue" points="152.62,-91.52 143.06,-96.09 153.38,-98.48 152.62,-91.52"/>
</g>
<!-- Node7 -->
<g id="node7" class="node">
<title>Node7</title>
<g id="a_node7"><a xlink:href="classGazeboYarpPlugins_1_1WorldInterfaceServer__makeSphere__helper_1_1Reply.html" target="_top" xlink:title=" ">
<polygon fill="none" stroke="black" points="180,-0.5 180,-41.5 332,-41.5 332,-0.5 180,-0.5"/>
<text text-anchor="start" x="188" y="-29.5" font-family="FreeSans.ttf" font-size="10.00">GazeboYarpPlugins::</text>
<text text-anchor="start" x="188" y="-18.5" font-family="FreeSans.ttf" font-size="10.00">WorldInterfaceServer</text>
<text text-anchor="middle" x="256" y="-7.5" font-family="FreeSans.ttf" font-size="10.00">_makeSphere_helper::Reply</text>
</a>
</g>
</g>
<!-- Node4&#45;&gt;Node7 -->
<g id="edge13" class="edge">
<title>Node4&#45;&gt;Node7</title>
<path fill="none" stroke="midnightblue" d="M91.31,-83.35C112.74,-71.62 148.84,-56.1 180,-43 181.17,-42.51 182.35,-42.01 183.54,-41.52"/>
<polygon fill="midnightblue" stroke="midnightblue" points="89.44,-80.38 82.56,-88.44 92.96,-86.43 89.44,-80.38"/>
</g>
<!-- Node4&#45;&gt;Node7 -->
<g id="edge14" class="edge">
<title>Node4&#45;&gt;Node7</title>
<path fill="none" stroke="midnightblue" d="M123.23,-84.62C141.14,-77.46 161.45,-68.8 180,-61 194.68,-54.83 211.01,-48.06 224.68,-41.66"/>
<polygon fill="midnightblue" stroke="midnightblue" points="121.57,-81.51 113.54,-88.43 124.13,-88.02 121.57,-81.51"/>
</g>
<!-- Node5&#45;&gt;Node3 -->
<g id="edge6" class="edge">
<title>Node5&#45;&gt;Node3</title>
<path fill="none" stroke="#9a32cd" stroke-dasharray="5,2" d="M335.31,-120C354.79,-120 375.8,-120 395.67,-120"/>
<polygon fill="#9a32cd" stroke="#9a32cd" points="335.27,-116.5 325.27,-120 335.27,-123.5 335.27,-116.5"/>
<text text-anchor="middle" x="364" y="-123" font-family="FreeSans.ttf" font-size="10.00"> pose</text>
</g>
<!-- Node6&#45;&gt;Node3 -->
<g id="edge9" class="edge">
<title>Node6&#45;&gt;Node3</title>
<path fill="none" stroke="#9a32cd" stroke-dasharray="5,2" d="M323.48,-88.97C346.18,-93.4 371.92,-98.42 395.97,-103.12"/>
<polygon fill="#9a32cd" stroke="#9a32cd" points="324.1,-85.53 313.61,-87.05 322.76,-92.4 324.1,-85.53"/>
<text text-anchor="middle" x="364" y="-102" font-family="FreeSans.ttf" font-size="10.00"> color</text>
</g>
<!-- Node7&#45;&gt;Node1 -->
<g id="edge12" class="edge">
<title>Node7&#45;&gt;Node1</title>
<path fill="none" stroke="#9a32cd" stroke-dasharray="5,2" d="M342.4,-29.4C406.64,-37.47 496.1,-52.47 571,-79 602.61,-90.2 635.92,-108.97 659.32,-123.47"/>
<polygon fill="#9a32cd" stroke="#9a32cd" points="342.67,-25.9 332.32,-28.16 341.82,-32.85 342.67,-25.9"/>
<text text-anchor="middle" x="483.5" y="-82" font-family="FreeSans.ttf" font-size="10.00"> reply</text>
</g>
</g>
</svg>
