<?xml version="1.0" encoding="UTF-8" standalone="no"?>
<!DOCTYPE svg PUBLIC "-//W3C//DTD SVG 1.1//EN"
 "http://www.w3.org/Graphics/SVG/1.1/DTD/svg11.dtd">
<!-- Generated by graphviz version 2.43.0 (0)
 -->
<!-- Title: GazeboYarpPlugins::WorldInterfaceServer Pages: 1 -->
<svg width="240pt" height="151pt"
 viewBox="0.00 0.00 239.50 151.00" xmlns="http://www.w3.org/2000/svg" xmlns:xlink="http://www.w3.org/1999/xlink">
<g id="graph0" class="graph" transform="scale(1 1) rotate(0) translate(4 147)">
<title>GazeboYarpPlugins::WorldInterfaceServer</title>
<!-- Node1 -->
<g id="node1" class="node">
<title>Node1</title>
<g id="a_node1"><a xlink:title=" ">
<polygon fill="#bfbfbf" stroke="black" points="73,-56.5 73,-86.5 192,-86.5 192,-56.5 73,-56.5"/>
<text text-anchor="start" x="81" y="-74.5" font-family="FreeSans.ttf" font-size="10.00">GazeboYarpPlugins::</text>
<text text-anchor="middle" x="132.5" y="-63.5" font-family="FreeSans.ttf" font-size="10.00">WorldInterfaceServer</text>
</a>
</g>
</g>
<!-- Node3 -->
<g id="node3" class="node">
<title>Node3</title>
<g id="a_node3"><a xlink:href="classWorldInterfaceServerImpl.html" target="_top" xlink:title=" ">
<polygon fill="none" stroke="black" points="0,-0.5 0,-19.5 141,-19.5 141,-0.5 0,-0.5"/>
<text text-anchor="middle" x="70.5" y="-7.5" font-family="FreeSans.ttf" font-size="10.00">WorldInterfaceServerImpl</text>
</a>
</g>
</g>
<!-- Node1&#45;&gt;Node3 -->
<g id="edge3" class="edge">
<title>Node1&#45;&gt;Node3</title>
<path fill="none" stroke="midnightblue" d="M110.41,-49.3C99.77,-39.09 87.6,-27.41 79.52,-19.66"/>
<polygon fill="midnightblue" stroke="midnightblue" points="108.17,-52 117.81,-56.4 113.02,-46.95 108.17,-52"/>
</g>
<!-- Node4 -->
<g id="node4" class="node">
<title>Node4</title>
<g id="a_node4"><a xlink:href="classWorldProxy.html" target="_top" xlink:title=" ">
<polygon fill="none" stroke="black" points="159.5,-0.5 159.5,-19.5 231.5,-19.5 231.5,-0.5 159.5,-0.5"/>
<text text-anchor="middle" x="195.5" y="-7.5" font-family="FreeSans.ttf" font-size="10.00">WorldProxy</text>
</a>
</g>
</g>
<!-- Node1&#45;&gt;Node4 -->
<g id="edge4" class="edge">
<title>Node1&#45;&gt;Node4</title>
<path fill="none" stroke="midnightblue" d="M154.95,-49.3C165.76,-39.09 178.13,-27.41 186.33,-19.66"/>
<polygon fill="midnightblue" stroke="midnightblue" points="152.3,-46.99 147.43,-56.4 157.1,-52.08 152.3,-46.99"/>
</g>
<!-- Node2 -->
<g id="node2" class="node">
<title>Node2</title>
<g id="a_node2"><a xlink:title=" ">
<polygon fill="none" stroke="#bfbfbf" points="90.5,-123.5 90.5,-142.5 174.5,-142.5 174.5,-123.5 90.5,-123.5"/>
<text text-anchor="middle" x="132.5" y="-130.5" font-family="FreeSans.ttf" font-size="10.00">yarp::os::Wire</text>
</a>
</g>
</g>
<!-- Node2&#45;&gt;Node1 -->
<g id="edge1" class="edge">
<title>Node2&#45;&gt;Node1</title>
<path fill="none" stroke="midnightblue" d="M126.2,-113.53C125.47,-104.81 125.63,-94.59 126.67,-86.52"/>
<polygon fill="midnightblue" stroke="midnightblue" points="122.74,-114.06 127.6,-123.48 129.67,-113.09 122.74,-114.06"/>
</g>
<!-- Node2&#45;&gt;Node1 -->
<g id="edge2" class="edge">
<title>Node2&#45;&gt;Node1</title>
<path fill="none" stroke="midnightblue" d="M138.8,-113.53C139.53,-104.81 139.37,-94.59 138.33,-86.52"/>
<polygon fill="midnightblue" stroke="midnightblue" points="135.33,-113.09 137.4,-123.48 142.26,-114.06 135.33,-113.09"/>
</g>
</g>
</svg>
