<?xml version="1.0" encoding="UTF-8" standalone="no"?>
<!DOCTYPE svg PUBLIC "-//W3C//DTD SVG 1.1//EN"
 "http://www.w3.org/Graphics/SVG/1.1/DTD/svg11.dtd">
<!-- Generated by graphviz version 5.0.1 (20220821.0811)
 -->
<!-- Title: GazeboYarpPlugins::ClockServer_resetSimulationState_helper Pages: 1 -->
<svg width="568pt" height="148pt"
 viewBox="0.00 0.00 568.00 148.00" xmlns="http://www.w3.org/2000/svg" xmlns:xlink="http://www.w3.org/1999/xlink">
<g id="graph0" class="graph" transform="scale(1 1) rotate(0) translate(4 144)">
<title>GazeboYarpPlugins::ClockServer_resetSimulationState_helper</title>
<!-- Node1 -->
<g id="node1" class="node">
<title>Node1</title>
<g id="a_node1"><a xlink:title=" ">
<polygon fill="#bfbfbf" stroke="black" points="402,-86.5 402,-127.5 560,-127.5 560,-86.5 402,-86.5"/>
<text text-anchor="start" x="410" y="-115.5" font-family="FreeSans.ttf" font-size="10.00">GazeboYarpPlugins::</text>
<text text-anchor="start" x="410" y="-104.5" font-family="FreeSans.ttf" font-size="10.00">ClockServer_resetSimulation</text>
<text text-anchor="middle" x="481" y="-93.5" font-family="FreeSans.ttf" font-size="10.00">State_helper</text>
</a>
</g>
</g>
<!-- Node2 -->
<g id="node2" class="node">
<title>Node2</title>
<g id="a_node2"><a xlink:title=" ">
<polygon fill="none" stroke="black" points="208,-120.5 208,-139.5 310,-139.5 310,-120.5 208,-120.5"/>
<text text-anchor="middle" x="259" y="-127.5" font-family="FreeSans.ttf" font-size="10.00">yarp::os::Portable</text>
</a>
</g>
</g>
<!-- Node2&#45;&gt;Node1 -->
<g id="edge1" class="edge">
<title>Node2&#45;&gt;Node1</title>
<path fill="none" stroke="midnightblue" d="M309.87,-119.03C336.98,-115.2 371.13,-111.38 401.71,-108.69"/>
<polygon fill="midnightblue" stroke="midnightblue" points="309.23,-115.58 299.84,-120.49 310.24,-122.51 309.23,-115.58"/>
</g>
<!-- Node2&#45;&gt;Node1 -->
<g id="edge2" class="edge">
<title>Node2&#45;&gt;Node1</title>
<path fill="none" stroke="midnightblue" d="M320.34,-129.79C345.55,-127.86 375.15,-124.9 401.97,-121.65"/>
<polygon fill="midnightblue" stroke="midnightblue" points="319.92,-126.31 310.2,-130.52 320.42,-133.29 319.92,-126.31"/>
</g>
<!-- Node3 -->
<g id="node3" class="node">
<title>Node3</title>
<g id="a_node3"><a xlink:href="classGazeboYarpPlugins_1_1ClockServer__resetSimulationState__helper_1_1Command.html" target="_top" xlink:title=" ">
<polygon fill="none" stroke="black" points="180,-60.5 180,-101.5 338,-101.5 338,-60.5 180,-60.5"/>
<text text-anchor="start" x="188" y="-89.5" font-family="FreeSans.ttf" font-size="10.00">GazeboYarpPlugins::</text>
<text text-anchor="start" x="188" y="-78.5" font-family="FreeSans.ttf" font-size="10.00">ClockServer_resetSimulation</text>
<text text-anchor="middle" x="259" y="-67.5" font-family="FreeSans.ttf" font-size="10.00">State_helper::Command</text>
</a>
</g>
</g>
<!-- Node3&#45;&gt;Node1 -->
<g id="edge3" class="edge">
<title>Node3&#45;&gt;Node1</title>
<path fill="none" stroke="#9a32cd" stroke-dasharray="5,2" d="M348.45,-91.45C366.07,-93.54 384.45,-95.71 401.7,-97.75"/>
<polygon fill="#9a32cd" stroke="#9a32cd" points="348.52,-87.94 338.18,-90.24 347.7,-94.89 348.52,-87.94"/>
<text text-anchor="middle" x="370" y="-98" font-family="FreeSans.ttf" font-size="10.00"> cmd</text>
</g>
<!-- Node4 -->
<g id="node4" class="node">
<title>Node4</title>
<g id="a_node4"><a xlink:title=" ">
<polygon fill="none" stroke="black" points="0,-40.5 0,-59.5 143,-59.5 143,-40.5 0,-40.5"/>
<text text-anchor="middle" x="71.5" y="-47.5" font-family="FreeSans.ttf" font-size="10.00">yarp::os::idl::WirePortable</text>
</a>
</g>
</g>
<!-- Node4&#45;&gt;Node3 -->
<g id="edge4" class="edge">
<title>Node4&#45;&gt;Node3</title>
<path fill="none" stroke="midnightblue" d="M153.08,-56.77C161.95,-58.17 170.96,-59.69 179.8,-61.26"/>
<polygon fill="midnightblue" stroke="midnightblue" points="153.58,-53.3 143.16,-55.23 152.51,-60.22 153.58,-53.3"/>
</g>
<!-- Node4&#45;&gt;Node3 -->
<g id="edge5" class="edge">
<title>Node4&#45;&gt;Node3</title>
<path fill="none" stroke="midnightblue" d="M109.87,-61.79C130.02,-66.16 155.67,-70.83 179.94,-74.63"/>
<polygon fill="midnightblue" stroke="midnightblue" points="110.4,-58.32 99.87,-59.53 108.86,-65.14 110.4,-58.32"/>
</g>
<!-- Node5 -->
<g id="node5" class="node">
<title>Node5</title>
<g id="a_node5"><a xlink:href="classGazeboYarpPlugins_1_1ClockServer__resetSimulationState__helper_1_1Reply.html" target="_top" xlink:title=" ">
<polygon fill="none" stroke="black" points="180,-0.5 180,-41.5 338,-41.5 338,-0.5 180,-0.5"/>
<text text-anchor="start" x="188" y="-29.5" font-family="FreeSans.ttf" font-size="10.00">GazeboYarpPlugins::</text>
<text text-anchor="start" x="188" y="-18.5" font-family="FreeSans.ttf" font-size="10.00">ClockServer_resetSimulation</text>
<text text-anchor="middle" x="259" y="-7.5" font-family="FreeSans.ttf" font-size="10.00">State_helper::Reply</text>
</a>
</g>
</g>
<!-- Node4&#45;&gt;Node5 -->
<g id="edge7" class="edge">
<title>Node4&#45;&gt;Node5</title>
<path fill="none" stroke="midnightblue" d="M110.98,-38.39C130.89,-34.31 155.93,-30.04 179.68,-26.57"/>
<polygon fill="midnightblue" stroke="midnightblue" points="110.13,-34.99 101.08,-40.5 111.59,-41.84 110.13,-34.99"/>
</g>
<!-- Node4&#45;&gt;Node5 -->
<g id="edge8" class="edge">
<title>Node4&#45;&gt;Node5</title>
<path fill="none" stroke="midnightblue" d="M153.08,-44.1C161.95,-42.79 170.96,-41.37 179.8,-39.9"/>
<polygon fill="midnightblue" stroke="midnightblue" points="152.56,-40.64 143.16,-45.53 153.56,-47.57 152.56,-40.64"/>
</g>
<!-- Node5&#45;&gt;Node1 -->
<g id="edge6" class="edge">
<title>Node5&#45;&gt;Node1</title>
<path fill="none" stroke="#9a32cd" stroke-dasharray="5,2" d="M323.3,-45.29C328.28,-47.22 333.22,-49.14 338,-51 367.88,-62.64 401.24,-75.78 428.11,-86.41"/>
<polygon fill="#9a32cd" stroke="#9a32cd" points="324.32,-41.94 313.73,-41.6 321.8,-48.47 324.32,-41.94"/>
<text text-anchor="middle" x="370" y="-70" font-family="FreeSans.ttf" font-size="10.00"> reply</text>
</g>
</g>
</svg>
