<?xml version="1.0" encoding="UTF-8" standalone="no"?>
<!DOCTYPE svg PUBLIC "-//W3C//DTD SVG 1.1//EN"
 "http://www.w3.org/Graphics/SVG/1.1/DTD/svg11.dtd">
<!-- Generated by graphviz version 5.0.1 (20220821.0811)
 -->
<!-- Title: GazeboYarpPlugins::WorldInterfaceServer_deleteObject_helper Pages: 1 -->
<svg width="492pt" height="171pt"
 viewBox="0.00 0.00 492.00 170.50" xmlns="http://www.w3.org/2000/svg" xmlns:xlink="http://www.w3.org/1999/xlink">
<g id="graph0" class="graph" transform="scale(1 1) rotate(0) translate(4 166.5)">
<title>GazeboYarpPlugins::WorldInterfaceServer_deleteObject_helper</title>
<!-- Node1 -->
<g id="node1" class="node">
<title>Node1</title>
<g id="a_node1"><a xlink:title=" ">
<polygon fill="#bfbfbf" stroke="black" points="364,-104 364,-145 484,-145 484,-104 364,-104"/>
<text text-anchor="start" x="372" y="-133" font-family="FreeSans.ttf" font-size="10.00">GazeboYarpPlugins::</text>
<text text-anchor="start" x="372" y="-122" font-family="FreeSans.ttf" font-size="10.00">WorldInterfaceServer</text>
<text text-anchor="middle" x="424" y="-111" font-family="FreeSans.ttf" font-size="10.00">_deleteObject_helper</text>
</a>
</g>
</g>
<!-- Node2 -->
<g id="node2" class="node">
<title>Node2</title>
<g id="a_node2"><a xlink:title=" ">
<polygon fill="none" stroke="black" points="189,-143 189,-162 291,-162 291,-143 189,-143"/>
<text text-anchor="middle" x="240" y="-150" font-family="FreeSans.ttf" font-size="10.00">yarp::os::Portable</text>
</a>
</g>
</g>
<!-- Node2&#45;&gt;Node1 -->
<g id="edge1" class="edge">
<title>Node2&#45;&gt;Node1</title>
<path fill="none" stroke="midnightblue" d="M279.81,-140.88C304.23,-135.96 336.23,-130.79 363.79,-127.24"/>
<polygon fill="midnightblue" stroke="midnightblue" points="278.91,-137.5 269.84,-142.97 280.34,-144.35 278.91,-137.5"/>
</g>
<!-- Node2&#45;&gt;Node1 -->
<g id="edge2" class="edge">
<title>Node2&#45;&gt;Node1</title>
<path fill="none" stroke="midnightblue" d="M301.22,-149.63C321.39,-147.01 343.84,-143.55 363.92,-139.96"/>
<polygon fill="midnightblue" stroke="midnightblue" points="300.7,-146.17 291.21,-150.88 301.57,-153.11 300.7,-146.17"/>
</g>
<!-- Node3 -->
<g id="node3" class="node">
<title>Node3</title>
<g id="a_node3"><a xlink:href="classGazeboYarpPlugins_1_1WorldInterfaceServer__deleteObject__helper_1_1Command.html" target="_top" xlink:title=" ">
<polygon fill="none" stroke="black" points="180,-71.5 180,-123.5 300,-123.5 300,-71.5 180,-71.5"/>
<text text-anchor="start" x="188" y="-111.5" font-family="FreeSans.ttf" font-size="10.00">GazeboYarpPlugins::</text>
<text text-anchor="start" x="188" y="-100.5" font-family="FreeSans.ttf" font-size="10.00">WorldInterfaceServer</text>
<text text-anchor="start" x="188" y="-89.5" font-family="FreeSans.ttf" font-size="10.00">_deleteObject_helper</text>
<text text-anchor="middle" x="240" y="-78.5" font-family="FreeSans.ttf" font-size="10.00">::Command</text>
</a>
</g>
</g>
<!-- Node3&#45;&gt;Node1 -->
<g id="edge3" class="edge">
<title>Node3&#45;&gt;Node1</title>
<path fill="none" stroke="#9a32cd" stroke-dasharray="5,2" d="M310.33,-107.79C327.99,-110.4 346.8,-113.2 363.9,-115.73"/>
<polygon fill="#9a32cd" stroke="#9a32cd" points="310.5,-104.27 300.09,-106.27 309.47,-111.2 310.5,-104.27"/>
<text text-anchor="middle" x="332" y="-115.5" font-family="FreeSans.ttf" font-size="10.00"> cmd</text>
</g>
<!-- Node4 -->
<g id="node4" class="node">
<title>Node4</title>
<g id="a_node4"><a xlink:title=" ">
<polygon fill="none" stroke="black" points="0,-52 0,-71 143,-71 143,-52 0,-52"/>
<text text-anchor="middle" x="71.5" y="-59" font-family="FreeSans.ttf" font-size="10.00">yarp::os::idl::WirePortable</text>
</a>
</g>
</g>
<!-- Node4&#45;&gt;Node3 -->
<g id="edge4" class="edge">
<title>Node4&#45;&gt;Node3</title>
<path fill="none" stroke="midnightblue" d="M152.92,-72.14C161.99,-74.08 171.1,-76.14 179.83,-78.21"/>
<polygon fill="midnightblue" stroke="midnightblue" points="153.62,-68.71 143.11,-70.09 152.18,-75.56 153.62,-68.71"/>
</g>
<!-- Node4&#45;&gt;Node3 -->
<g id="edge5" class="edge">
<title>Node4&#45;&gt;Node3</title>
<path fill="none" stroke="midnightblue" d="M104.44,-73.85C125.76,-79.72 154.43,-86.27 179.84,-91.2"/>
<polygon fill="midnightblue" stroke="midnightblue" points="105.19,-70.43 94.61,-71.04 103.26,-77.16 105.19,-70.43"/>
</g>
<!-- Node5 -->
<g id="node5" class="node">
<title>Node5</title>
<g id="a_node5"><a xlink:href="classGazeboYarpPlugins_1_1WorldInterfaceServer__deleteObject__helper_1_1Reply.html" target="_top" xlink:title=" ">
<polygon fill="none" stroke="black" points="180,-0.5 180,-52.5 300,-52.5 300,-0.5 180,-0.5"/>
<text text-anchor="start" x="188" y="-40.5" font-family="FreeSans.ttf" font-size="10.00">GazeboYarpPlugins::</text>
<text text-anchor="start" x="188" y="-29.5" font-family="FreeSans.ttf" font-size="10.00">WorldInterfaceServer</text>
<text text-anchor="start" x="188" y="-18.5" font-family="FreeSans.ttf" font-size="10.00">_deleteObject_helper</text>
<text text-anchor="middle" x="240" y="-7.5" font-family="FreeSans.ttf" font-size="10.00">::Reply</text>
</a>
</g>
</g>
<!-- Node4&#45;&gt;Node5 -->
<g id="edge7" class="edge">
<title>Node4&#45;&gt;Node5</title>
<path fill="none" stroke="midnightblue" d="M104.76,-49.25C126.01,-43.55 154.47,-37.22 179.72,-32.47"/>
<polygon fill="midnightblue" stroke="midnightblue" points="103.64,-45.93 94.95,-51.99 105.53,-52.67 103.64,-45.93"/>
</g>
<!-- Node4&#45;&gt;Node5 -->
<g id="edge8" class="edge">
<title>Node4&#45;&gt;Node5</title>
<path fill="none" stroke="midnightblue" d="M152.92,-51.34C161.99,-49.46 171.1,-47.46 179.83,-45.43"/>
<polygon fill="midnightblue" stroke="midnightblue" points="152.21,-47.91 143.11,-53.34 153.61,-54.77 152.21,-47.91"/>
</g>
<!-- Node5&#45;&gt;Node1 -->
<g id="edge6" class="edge">
<title>Node5&#45;&gt;Node1</title>
<path fill="none" stroke="#9a32cd" stroke-dasharray="5,2" d="M298.27,-57.34C326.5,-72.54 359.78,-90.46 384.86,-103.97"/>
<polygon fill="#9a32cd" stroke="#9a32cd" points="299.76,-54.16 289.29,-52.5 296.44,-60.33 299.76,-54.16"/>
<text text-anchor="middle" x="332" y="-84.5" font-family="FreeSans.ttf" font-size="10.00"> reply</text>
</g>
</g>
</svg>
