<?xml version="1.0" encoding="UTF-8" standalone="no"?>
<!DOCTYPE svg PUBLIC "-//W3C//DTD SVG 1.1//EN"
 "http://www.w3.org/Graphics/SVG/1.1/DTD/svg11.dtd">
<!-- Generated by graphviz version 5.0.1 (20220821.0811)
 -->
<!-- Title: GazeboYarpPlugins::WorldInterfaceServer_makeFrame_helper::Command Pages: 1 -->
<svg width="382pt" height="185pt"
 viewBox="0.00 0.00 381.50 185.00" xmlns="http://www.w3.org/2000/svg" xmlns:xlink="http://www.w3.org/1999/xlink">
<g id="graph0" class="graph" transform="scale(1 1) rotate(0) translate(4 181)">
<title>GazeboYarpPlugins::WorldInterfaceServer_makeFrame_helper::Command</title>
<!-- Node1 -->
<g id="node1" class="node">
<title>Node1</title>
<g id="a_node1"><a xlink:title=" ">
<polygon fill="#bfbfbf" stroke="black" points="0,-0.5 0,-41.5 172,-41.5 172,-0.5 0,-0.5"/>
<text text-anchor="start" x="8" y="-29.5" font-family="FreeSans.ttf" font-size="10.00">GazeboYarpPlugins::</text>
<text text-anchor="start" x="8" y="-18.5" font-family="FreeSans.ttf" font-size="10.00">WorldInterfaceServer</text>
<text text-anchor="middle" x="86" y="-7.5" font-family="FreeSans.ttf" font-size="10.00">_makeFrame_helper::Command</text>
</a>
</g>
</g>
<!-- Node2 -->
<g id="node2" class="node">
<title>Node2</title>
<g id="a_node2"><a xlink:title=" ">
<polygon fill="none" stroke="black" points="99.5,-157.5 99.5,-176.5 242.5,-176.5 242.5,-157.5 99.5,-157.5"/>
<text text-anchor="middle" x="171" y="-164.5" font-family="FreeSans.ttf" font-size="10.00">yarp::os::idl::WirePortable</text>
</a>
</g>
</g>
<!-- Node2&#45;&gt;Node1 -->
<g id="edge1" class="edge">
<title>Node2&#45;&gt;Node1</title>
<path fill="none" stroke="midnightblue" d="M126.71,-153.56C110.33,-146.28 93.55,-135.42 84,-120 69.27,-96.22 70.54,-62.69 75.72,-41.66"/>
<polygon fill="midnightblue" stroke="midnightblue" points="125.67,-156.92 136.25,-157.45 128.31,-150.43 125.67,-156.92"/>
</g>
<!-- Node2&#45;&gt;Node1 -->
<g id="edge2" class="edge">
<title>Node2&#45;&gt;Node1</title>
<path fill="none" stroke="midnightblue" d="M142.24,-153.15C127.71,-145.87 111.37,-135.13 102,-120 87.27,-96.22 88.54,-62.69 88.99,-41.66"/>
<polygon fill="midnightblue" stroke="midnightblue" points="140.89,-156.39 151.43,-157.45 143.85,-150.04 140.89,-156.39"/>
</g>
<!-- Node3 -->
<g id="node3" class="node">
<title>Node3</title>
<g id="a_node3"><a xlink:href="classGazeboYarpPlugins_1_1Pose.html" target="_top" xlink:title=" ">
<polygon fill="none" stroke="black" points="102,-95 102,-114 240,-114 240,-95 102,-95"/>
<text text-anchor="middle" x="171" y="-102" font-family="FreeSans.ttf" font-size="10.00">GazeboYarpPlugins::Pose</text>
</a>
</g>
</g>
<!-- Node2&#45;&gt;Node3 -->
<g id="edge4" class="edge">
<title>Node2&#45;&gt;Node3</title>
<path fill="none" stroke="midnightblue" d="M164.71,-147.35C163.79,-136.28 164.25,-122.77 166.1,-114.15"/>
<polygon fill="midnightblue" stroke="midnightblue" points="161.26,-147.91 166.1,-157.33 168.19,-146.95 161.26,-147.91"/>
</g>
<!-- Node2&#45;&gt;Node3 -->
<g id="edge5" class="edge">
<title>Node2&#45;&gt;Node3</title>
<path fill="none" stroke="midnightblue" d="M177.29,-147.35C178.21,-136.28 177.75,-122.77 175.9,-114.15"/>
<polygon fill="midnightblue" stroke="midnightblue" points="173.81,-146.95 175.9,-157.33 180.74,-147.91 173.81,-146.95"/>
</g>
<!-- Node4 -->
<g id="node4" class="node">
<title>Node4</title>
<g id="a_node4"><a xlink:href="classGazeboYarpPlugins_1_1Color.html" target="_top" xlink:title=" ">
<polygon fill="none" stroke="black" points="258.5,-89.5 258.5,-119.5 373.5,-119.5 373.5,-89.5 258.5,-89.5"/>
<text text-anchor="start" x="266.5" y="-107.5" font-family="FreeSans.ttf" font-size="10.00">GazeboYarpPlugins::</text>
<text text-anchor="middle" x="316" y="-96.5" font-family="FreeSans.ttf" font-size="10.00">Color</text>
</a>
</g>
</g>
<!-- Node2&#45;&gt;Node4 -->
<g id="edge7" class="edge">
<title>Node2&#45;&gt;Node4</title>
<path fill="none" stroke="midnightblue" d="M195.99,-153.22C218.17,-143.37 250.74,-129.76 276.43,-119.59"/>
<polygon fill="midnightblue" stroke="midnightblue" points="194.27,-150.16 186.59,-157.46 197.15,-156.54 194.27,-150.16"/>
</g>
<!-- Node2&#45;&gt;Node4 -->
<g id="edge8" class="edge">
<title>Node2&#45;&gt;Node4</title>
<path fill="none" stroke="midnightblue" d="M205.9,-153.75C231.11,-143.86 264.57,-129.94 288.04,-119.59"/>
<polygon fill="midnightblue" stroke="midnightblue" points="204.4,-150.58 196.34,-157.46 206.93,-157.11 204.4,-150.58"/>
</g>
<!-- Node3&#45;&gt;Node1 -->
<g id="edge3" class="edge">
<title>Node3&#45;&gt;Node1</title>
<path fill="none" stroke="#9a32cd" stroke-dasharray="5,2" d="M154.61,-87.78C140.93,-74.67 121.35,-55.9 106.61,-41.76"/>
<polygon fill="#9a32cd" stroke="#9a32cd" points="152.26,-90.38 161.9,-94.78 157.11,-85.33 152.26,-90.38"/>
<text text-anchor="middle" x="150.5" y="-63" font-family="FreeSans.ttf" font-size="10.00"> pose</text>
</g>
<!-- Node4&#45;&gt;Node1 -->
<g id="edge6" class="edge">
<title>Node4&#45;&gt;Node1</title>
<path fill="none" stroke="#9a32cd" stroke-dasharray="5,2" d="M266.93,-86.11C230.1,-73.06 179.64,-55.18 141.36,-41.62"/>
<polygon fill="#9a32cd" stroke="#9a32cd" points="265.87,-89.45 276.46,-89.49 268.2,-82.85 265.87,-89.45"/>
<text text-anchor="middle" x="235" y="-63" font-family="FreeSans.ttf" font-size="10.00"> color</text>
</g>
</g>
</svg>
