<?xml version="1.0" encoding="UTF-8" standalone="no"?>
<!DOCTYPE svg PUBLIC "-//W3C//DTD SVG 1.1//EN"
 "http://www.w3.org/Graphics/SVG/1.1/DTD/svg11.dtd">
<!-- Generated by graphviz version 5.0.1 (20220821.0811)
 -->
<!-- Title: GazeboYarpPlugins::WorldInterfaceServer_enableGravity_helper Pages: 1 -->
<svg width="506pt" height="171pt"
 viewBox="0.00 0.00 506.00 170.50" xmlns="http://www.w3.org/2000/svg" xmlns:xlink="http://www.w3.org/1999/xlink">
<g id="graph0" class="graph" transform="scale(1 1) rotate(0) translate(4 166.5)">
<title>GazeboYarpPlugins::WorldInterfaceServer_enableGravity_helper</title>
<!-- Node1 -->
<g id="node1" class="node">
<title>Node1</title>
<g id="a_node1"><a xlink:title=" ">
<polygon fill="#bfbfbf" stroke="black" points="371,-104 371,-145 498,-145 498,-104 371,-104"/>
<text text-anchor="start" x="379" y="-133" font-family="FreeSans.ttf" font-size="10.00">GazeboYarpPlugins::</text>
<text text-anchor="start" x="379" y="-122" font-family="FreeSans.ttf" font-size="10.00">WorldInterfaceServer</text>
<text text-anchor="middle" x="434.5" y="-111" font-family="FreeSans.ttf" font-size="10.00">_enableGravity_helper</text>
</a>
</g>
</g>
<!-- Node2 -->
<g id="node2" class="node">
<title>Node2</title>
<g id="a_node2"><a xlink:title=" ">
<polygon fill="none" stroke="black" points="192.5,-143 192.5,-162 294.5,-162 294.5,-143 192.5,-143"/>
<text text-anchor="middle" x="243.5" y="-150" font-family="FreeSans.ttf" font-size="10.00">yarp::os::Portable</text>
</a>
</g>
</g>
<!-- Node2&#45;&gt;Node1 -->
<g id="edge1" class="edge">
<title>Node2&#45;&gt;Node1</title>
<path fill="none" stroke="midnightblue" d="M284.33,-140.97C309.41,-136.09 342.31,-130.96 370.84,-127.39"/>
<polygon fill="midnightblue" stroke="midnightblue" points="283.55,-137.56 274.45,-142.97 284.94,-144.42 283.55,-137.56"/>
</g>
<!-- Node2&#45;&gt;Node1 -->
<g id="edge2" class="edge">
<title>Node2&#45;&gt;Node1</title>
<path fill="none" stroke="midnightblue" d="M304.78,-149.91C325.89,-147.31 349.64,-143.81 370.93,-140.17"/>
<polygon fill="midnightblue" stroke="midnightblue" points="304.17,-146.46 294.65,-151.11 304.99,-153.41 304.17,-146.46"/>
</g>
<!-- Node3 -->
<g id="node3" class="node">
<title>Node3</title>
<g id="a_node3"><a xlink:href="classGazeboYarpPlugins_1_1WorldInterfaceServer__enableGravity__helper_1_1Command.html" target="_top" xlink:title=" ">
<polygon fill="none" stroke="black" points="180,-71.5 180,-123.5 307,-123.5 307,-71.5 180,-71.5"/>
<text text-anchor="start" x="188" y="-111.5" font-family="FreeSans.ttf" font-size="10.00">GazeboYarpPlugins::</text>
<text text-anchor="start" x="188" y="-100.5" font-family="FreeSans.ttf" font-size="10.00">WorldInterfaceServer</text>
<text text-anchor="start" x="188" y="-89.5" font-family="FreeSans.ttf" font-size="10.00">_enableGravity_helper</text>
<text text-anchor="middle" x="243.5" y="-78.5" font-family="FreeSans.ttf" font-size="10.00">::Command</text>
</a>
</g>
</g>
<!-- Node3&#45;&gt;Node1 -->
<g id="edge3" class="edge">
<title>Node3&#45;&gt;Node1</title>
<path fill="none" stroke="#9a32cd" stroke-dasharray="5,2" d="M317.44,-107.92C335.11,-110.44 353.85,-113.12 371,-115.57"/>
<polygon fill="#9a32cd" stroke="#9a32cd" points="317.57,-104.4 307.17,-106.45 316.58,-111.33 317.57,-104.4"/>
<text text-anchor="middle" x="339" y="-115.5" font-family="FreeSans.ttf" font-size="10.00"> cmd</text>
</g>
<!-- Node4 -->
<g id="node4" class="node">
<title>Node4</title>
<g id="a_node4"><a xlink:title=" ">
<polygon fill="none" stroke="black" points="0,-52 0,-71 143,-71 143,-52 0,-52"/>
<text text-anchor="middle" x="71.5" y="-59" font-family="FreeSans.ttf" font-size="10.00">yarp::os::idl::WirePortable</text>
</a>
</g>
</g>
<!-- Node4&#45;&gt;Node3 -->
<g id="edge4" class="edge">
<title>Node4&#45;&gt;Node3</title>
<path fill="none" stroke="midnightblue" d="M152.93,-71.79C162.01,-73.68 171.16,-75.69 179.97,-77.72"/>
<polygon fill="midnightblue" stroke="midnightblue" points="153.62,-68.36 143.12,-69.79 152.22,-75.22 153.62,-68.36"/>
</g>
<!-- Node4&#45;&gt;Node3 -->
<g id="edge5" class="edge">
<title>Node4&#45;&gt;Node3</title>
<path fill="none" stroke="midnightblue" d="M104.85,-73.78C126.02,-79.5 154.39,-85.87 179.87,-90.77"/>
<polygon fill="midnightblue" stroke="midnightblue" points="105.65,-70.37 95.07,-71.04 103.76,-77.11 105.65,-70.37"/>
</g>
<!-- Node5 -->
<g id="node5" class="node">
<title>Node5</title>
<g id="a_node5"><a xlink:href="classGazeboYarpPlugins_1_1WorldInterfaceServer__enableGravity__helper_1_1Reply.html" target="_top" xlink:title=" ">
<polygon fill="none" stroke="black" points="180,-0.5 180,-52.5 307,-52.5 307,-0.5 180,-0.5"/>
<text text-anchor="start" x="188" y="-40.5" font-family="FreeSans.ttf" font-size="10.00">GazeboYarpPlugins::</text>
<text text-anchor="start" x="188" y="-29.5" font-family="FreeSans.ttf" font-size="10.00">WorldInterfaceServer</text>
<text text-anchor="start" x="188" y="-18.5" font-family="FreeSans.ttf" font-size="10.00">_enableGravity_helper</text>
<text text-anchor="middle" x="243.5" y="-7.5" font-family="FreeSans.ttf" font-size="10.00">::Reply</text>
</a>
</g>
</g>
<!-- Node4&#45;&gt;Node5 -->
<g id="edge7" class="edge">
<title>Node4&#45;&gt;Node5</title>
<path fill="none" stroke="midnightblue" d="M105.18,-49.32C126.29,-43.76 154.44,-37.6 179.75,-32.88"/>
<polygon fill="midnightblue" stroke="midnightblue" points="104.15,-45.97 95.43,-51.99 106,-52.72 104.15,-45.97"/>
</g>
<!-- Node4&#45;&gt;Node5 -->
<g id="edge8" class="edge">
<title>Node4&#45;&gt;Node5</title>
<path fill="none" stroke="midnightblue" d="M153.22,-51.62C162.2,-49.81 171.25,-47.87 179.97,-45.91"/>
<polygon fill="midnightblue" stroke="midnightblue" points="152.25,-48.25 143.12,-53.62 153.61,-55.11 152.25,-48.25"/>
</g>
<!-- Node5&#45;&gt;Node1 -->
<g id="edge6" class="edge">
<title>Node5&#45;&gt;Node1</title>
<path fill="none" stroke="#9a32cd" stroke-dasharray="5,2" d="M303.59,-57.14C332.99,-72.38 367.74,-90.4 393.9,-103.97"/>
<polygon fill="#9a32cd" stroke="#9a32cd" points="305.14,-54 294.65,-52.5 301.92,-60.22 305.14,-54"/>
<text text-anchor="middle" x="339" y="-84.5" font-family="FreeSans.ttf" font-size="10.00"> reply</text>
</g>
</g>
</svg>
