<?xml version="1.0" encoding="UTF-8" standalone="no"?>
<!DOCTYPE svg PUBLIC "-//W3C//DTD SVG 1.1//EN"
 "http://www.w3.org/Graphics/SVG/1.1/DTD/svg11.dtd">
<!-- Generated by graphviz version 5.0.0 (20220707.2338)
 -->
<!-- Title: GazeboYarpPlugins::WorldInterfaceServer_getPose_helper::Reply Pages: 1 -->
<svg width="249pt" height="174pt"
 viewBox="0.00 0.00 248.50 174.00" xmlns="http://www.w3.org/2000/svg" xmlns:xlink="http://www.w3.org/1999/xlink">
<g id="graph0" class="graph" transform="scale(1 1) rotate(0) translate(4 170)">
<title>GazeboYarpPlugins::WorldInterfaceServer_getPose_helper::Reply</title>
<!-- Node1 -->
<g id="node1" class="node">
<title>Node1</title>
<g id="a_node1"><a xlink:title=" ">
<polygon fill="#bfbfbf" stroke="black" points="0,-0.5 0,-41.5 131,-41.5 131,-0.5 0,-0.5"/>
<text text-anchor="start" x="8" y="-29.5" font-family="FreeSans.ttf" font-size="10.00">GazeboYarpPlugins::</text>
<text text-anchor="start" x="8" y="-18.5" font-family="FreeSans.ttf" font-size="10.00">WorldInterfaceServer</text>
<text text-anchor="middle" x="65.5" y="-7.5" font-family="FreeSans.ttf" font-size="10.00">_getPose_helper::Reply</text>
</a>
</g>
</g>
<!-- Node2 -->
<g id="node2" class="node">
<title>Node2</title>
<g id="a_node2"><a xlink:title=" ">
<polygon fill="none" stroke="black" points="15,-146.5 15,-165.5 158,-165.5 158,-146.5 15,-146.5"/>
<text text-anchor="middle" x="86.5" y="-153.5" font-family="FreeSans.ttf" font-size="10.00">yarp::os::idl::WirePortable</text>
</a>
</g>
</g>
<!-- Node2&#45;&gt;Node1 -->
<g id="edge1" class="edge">
<title>Node2&#45;&gt;Node1</title>
<path fill="none" stroke="midnightblue" d="M78.76,-136.62C72.33,-111.74 65.3,-67.51 63.66,-41.88"/>
<polygon fill="midnightblue" stroke="midnightblue" points="75.42,-137.64 81.56,-146.27 82.14,-135.69 75.42,-137.64"/>
</g>
<!-- Node2&#45;&gt;Node1 -->
<g id="edge2" class="edge">
<title>Node2&#45;&gt;Node1</title>
<path fill="none" stroke="midnightblue" d="M88.39,-135.95C86.88,-110.95 80.02,-67.28 73.62,-41.88"/>
<polygon fill="midnightblue" stroke="midnightblue" points="84.9,-136.38 88.68,-146.27 91.9,-136.18 84.9,-136.38"/>
</g>
<!-- Node3 -->
<g id="node3" class="node">
<title>Node3</title>
<g id="a_node3"><a xlink:href="classGazeboYarpPlugins_1_1Pose.html" target="_top" xlink:title=" ">
<polygon fill="none" stroke="black" points="102.5,-89.5 102.5,-108.5 240.5,-108.5 240.5,-89.5 102.5,-89.5"/>
<text text-anchor="middle" x="171.5" y="-96.5" font-family="FreeSans.ttf" font-size="10.00">GazeboYarpPlugins::Pose</text>
</a>
</g>
</g>
<!-- Node2&#45;&gt;Node3 -->
<g id="edge4" class="edge">
<title>Node2&#45;&gt;Node3</title>
<path fill="none" stroke="midnightblue" d="M102.83,-140.54C117.34,-130.35 138.2,-117.07 153.26,-108.53"/>
<polygon fill="midnightblue" stroke="midnightblue" points="100.77,-137.71 94.72,-146.41 104.87,-143.38 100.77,-137.71"/>
</g>
<!-- Node2&#45;&gt;Node3 -->
<g id="edge5" class="edge">
<title>Node2&#45;&gt;Node3</title>
<path fill="none" stroke="midnightblue" d="M113.86,-141.14C130.91,-130.96 151.53,-117.43 163.12,-108.71"/>
<polygon fill="midnightblue" stroke="midnightblue" points="111.72,-138.34 104.84,-146.41 115.24,-144.39 111.72,-138.34"/>
</g>
<!-- Node3&#45;&gt;Node1 -->
<g id="edge3" class="edge">
<title>Node3&#45;&gt;Node1</title>
<path fill="none" stroke="#9a32cd" stroke-dasharray="5,2" d="M150.94,-83.26C134.41,-71.41 111.04,-54.65 92.92,-41.66"/>
<polygon fill="#9a32cd" stroke="#9a32cd" points="149.17,-86.3 159.34,-89.28 153.25,-80.61 149.17,-86.3"/>
<text text-anchor="middle" x="165" y="-63" font-family="FreeSans.ttf" font-size="10.00"> return_helper</text>
</g>
</g>
</svg>
