<?xml version="1.0" encoding="UTF-8" standalone="no"?>
<!DOCTYPE svg PUBLIC "-//W3C//DTD SVG 1.1//EN"
 "http://www.w3.org/Graphics/SVG/1.1/DTD/svg11.dtd">
<!-- Generated by graphviz version 5.0.1 (20220821.0811)
 -->
<!-- Title: GazeboYarpPlugins::LinkAttacherServer_detachUnscoped_helper::Reply Pages: 1 -->
<svg width="204pt" height="106pt"
 viewBox="0.00 0.00 204.00 106.00" xmlns="http://www.w3.org/2000/svg" xmlns:xlink="http://www.w3.org/1999/xlink">
<g id="graph0" class="graph" transform="scale(1 1) rotate(0) translate(4 102)">
<title>GazeboYarpPlugins::LinkAttacherServer_detachUnscoped_helper::Reply</title>
<!-- Node1 -->
<g id="node1" class="node">
<title>Node1</title>
<g id="a_node1"><a xlink:title=" ">
<polygon fill="#bfbfbf" stroke="black" points="0,-0.5 0,-41.5 196,-41.5 196,-0.5 0,-0.5"/>
<text text-anchor="start" x="8" y="-29.5" font-family="FreeSans.ttf" font-size="10.00">GazeboYarpPlugins::</text>
<text text-anchor="start" x="8" y="-18.5" font-family="FreeSans.ttf" font-size="10.00">LinkAttacherServer_detachUnscoped</text>
<text text-anchor="middle" x="98" y="-7.5" font-family="FreeSans.ttf" font-size="10.00">_helper::Reply</text>
</a>
</g>
</g>
<!-- Node2 -->
<g id="node2" class="node">
<title>Node2</title>
<g id="a_node2"><a xlink:title=" ">
<polygon fill="none" stroke="black" points="26.5,-78.5 26.5,-97.5 169.5,-97.5 169.5,-78.5 26.5,-78.5"/>
<text text-anchor="middle" x="98" y="-85.5" font-family="FreeSans.ttf" font-size="10.00">yarp::os::idl::WirePortable</text>
</a>
</g>
</g>
<!-- Node2&#45;&gt;Node1 -->
<g id="edge1" class="edge">
<title>Node2&#45;&gt;Node1</title>
<path fill="none" stroke="midnightblue" d="M91.82,-68.32C91.08,-59.93 91.06,-50.03 91.75,-41.54"/>
<polygon fill="midnightblue" stroke="midnightblue" points="88.36,-68.82 93.21,-78.23 95.29,-67.85 88.36,-68.82"/>
</g>
<!-- Node2&#45;&gt;Node1 -->
<g id="edge2" class="edge">
<title>Node2&#45;&gt;Node1</title>
<path fill="none" stroke="midnightblue" d="M104.18,-68.32C104.92,-59.93 104.94,-50.03 104.25,-41.54"/>
<polygon fill="midnightblue" stroke="midnightblue" points="100.71,-67.85 102.79,-78.23 107.64,-68.82 100.71,-67.85"/>
</g>
</g>
</svg>
