<?xml version="1.0" encoding="UTF-8" standalone="no"?>
<!DOCTYPE svg PUBLIC "-//W3C//DTD SVG 1.1//EN"
 "http://www.w3.org/Graphics/SVG/1.1/DTD/svg11.dtd">
<!-- Generated by graphviz version 3.0.0 (20220315.2325)
 -->
<!-- Title: GazeboYarpPlugins::WorldInterfaceServer_detach_helper Pages: 1 -->
<svg width="518pt" height="148pt"
 viewBox="0.00 0.00 518.00 148.00" xmlns="http://www.w3.org/2000/svg" xmlns:xlink="http://www.w3.org/1999/xlink">
<g id="graph0" class="graph" transform="scale(1 1) rotate(0) translate(4 144)">
<title>GazeboYarpPlugins::WorldInterfaceServer_detach_helper</title>
<!-- Node1 -->
<g id="node1" class="node">
<title>Node1</title>
<g id="a_node1"><a xlink:title=" ">
<polygon fill="#bfbfbf" stroke="black" points="391,-86.5 391,-127.5 510,-127.5 510,-86.5 391,-86.5"/>
<text text-anchor="start" x="399" y="-115.5" font-family="FreeSans.ttf" font-size="10.00">GazeboYarpPlugins::</text>
<text text-anchor="start" x="399" y="-104.5" font-family="FreeSans.ttf" font-size="10.00">WorldInterfaceServer</text>
<text text-anchor="middle" x="450.5" y="-93.5" font-family="FreeSans.ttf" font-size="10.00">_detach_helper</text>
</a>
</g>
</g>
<!-- Node2 -->
<g id="node2" class="node">
<title>Node2</title>
<g id="a_node2"><a xlink:title=" ">
<polygon fill="none" stroke="black" points="202.5,-120.5 202.5,-139.5 304.5,-139.5 304.5,-120.5 202.5,-120.5"/>
<text text-anchor="middle" x="253.5" y="-127.5" font-family="FreeSans.ttf" font-size="10.00">yarp::os::Portable</text>
</a>
</g>
</g>
<!-- Node2&#45;&gt;Node1 -->
<g id="edge1" class="edge">
<title>Node2&#45;&gt;Node1</title>
<path fill="none" stroke="midnightblue" d="M299.79,-118.85C326.86,-114.57 361.56,-110.33 390.73,-107.68"/>
<polygon fill="midnightblue" stroke="midnightblue" points="299.11,-115.42 289.81,-120.49 300.25,-122.33 299.11,-115.42"/>
</g>
<!-- Node2&#45;&gt;Node1 -->
<g id="edge2" class="edge">
<title>Node2&#45;&gt;Node1</title>
<path fill="none" stroke="midnightblue" d="M314.84,-129.18C339.02,-126.95 366.79,-123.66 390.8,-120.17"/>
<polygon fill="midnightblue" stroke="midnightblue" points="314.37,-125.7 304.72,-130.07 314.99,-132.68 314.37,-125.7"/>
</g>
<!-- Node3 -->
<g id="node3" class="node">
<title>Node3</title>
<g id="a_node3"><a xlink:href="classGazeboYarpPlugins_1_1WorldInterfaceServer__detach__helper_1_1Command.html" target="_top" xlink:title=" ">
<polygon fill="none" stroke="black" points="180,-60.5 180,-101.5 327,-101.5 327,-60.5 180,-60.5"/>
<text text-anchor="start" x="188" y="-89.5" font-family="FreeSans.ttf" font-size="10.00">GazeboYarpPlugins::</text>
<text text-anchor="start" x="188" y="-78.5" font-family="FreeSans.ttf" font-size="10.00">WorldInterfaceServer</text>
<text text-anchor="middle" x="253.5" y="-67.5" font-family="FreeSans.ttf" font-size="10.00">_detach_helper::Command</text>
</a>
</g>
</g>
<!-- Node3&#45;&gt;Node1 -->
<g id="edge3" class="edge">
<title>Node3&#45;&gt;Node1</title>
<path fill="none" stroke="#9a32cd" stroke-dasharray="5,2" d="M337.06,-92.01C355.13,-94.42 373.91,-96.92 390.82,-99.18"/>
<polygon fill="#9a32cd" stroke="#9a32cd" points="337.49,-88.53 327.11,-90.68 336.56,-95.47 337.49,-88.53"/>
<text text-anchor="middle" x="359" y="-99" font-family="FreeSans.ttf" font-size="10.00"> cmd</text>
</g>
<!-- Node4 -->
<g id="node4" class="node">
<title>Node4</title>
<g id="a_node4"><a xlink:title=" ">
<polygon fill="none" stroke="black" points="0,-40.5 0,-59.5 143,-59.5 143,-40.5 0,-40.5"/>
<text text-anchor="middle" x="71.5" y="-47.5" font-family="FreeSans.ttf" font-size="10.00">yarp::os::idl::WirePortable</text>
</a>
</g>
</g>
<!-- Node4&#45;&gt;Node3 -->
<g id="edge4" class="edge">
<title>Node4&#45;&gt;Node3</title>
<path fill="none" stroke="midnightblue" d="M153.07,-57.16C161.94,-58.62 170.94,-60.2 179.71,-61.82"/>
<polygon fill="midnightblue" stroke="midnightblue" points="153.55,-53.69 143.12,-55.55 152.44,-60.6 153.55,-53.69"/>
</g>
<!-- Node4&#45;&gt;Node3 -->
<g id="edge5" class="edge">
<title>Node4&#45;&gt;Node3</title>
<path fill="none" stroke="midnightblue" d="M108.87,-61.81C129.28,-66.37 155.49,-71.25 179.91,-75.14"/>
<polygon fill="midnightblue" stroke="midnightblue" points="109.59,-58.38 99.06,-59.53 108.01,-65.2 109.59,-58.38"/>
</g>
<!-- Node5 -->
<g id="node5" class="node">
<title>Node5</title>
<g id="a_node5"><a xlink:href="classGazeboYarpPlugins_1_1WorldInterfaceServer__detach__helper_1_1Reply.html" target="_top" xlink:title=" ">
<polygon fill="none" stroke="black" points="191,-0.5 191,-41.5 316,-41.5 316,-0.5 191,-0.5"/>
<text text-anchor="start" x="199" y="-29.5" font-family="FreeSans.ttf" font-size="10.00">GazeboYarpPlugins::</text>
<text text-anchor="start" x="199" y="-18.5" font-family="FreeSans.ttf" font-size="10.00">WorldInterfaceServer</text>
<text text-anchor="middle" x="253.5" y="-7.5" font-family="FreeSans.ttf" font-size="10.00">_detach_helper::Reply</text>
</a>
</g>
</g>
<!-- Node4&#45;&gt;Node5 -->
<g id="edge7" class="edge">
<title>Node4&#45;&gt;Node5</title>
<path fill="none" stroke="midnightblue" d="M110.08,-38.34C133.42,-33.42 163.97,-28.22 190.79,-24.5"/>
<polygon fill="midnightblue" stroke="midnightblue" points="109.25,-34.94 100.23,-40.5 110.75,-41.78 109.25,-34.94"/>
</g>
<!-- Node4&#45;&gt;Node5 -->
<g id="edge8" class="edge">
<title>Node4&#45;&gt;Node5</title>
<path fill="none" stroke="midnightblue" d="M153.19,-43.72C165.83,-41.77 178.71,-39.6 190.84,-37.38"/>
<polygon fill="midnightblue" stroke="midnightblue" points="152.49,-40.28 143.12,-45.23 153.53,-47.21 152.49,-40.28"/>
</g>
<!-- Node5&#45;&gt;Node1 -->
<g id="edge6" class="edge">
<title>Node5&#45;&gt;Node1</title>
<path fill="none" stroke="#9a32cd" stroke-dasharray="5,2" d="M314.33,-45.56C318.63,-47.38 322.88,-49.21 327,-51 353.16,-62.39 382.21,-75.64 405.45,-86.39"/>
<polygon fill="#9a32cd" stroke="#9a32cd" points="315.49,-42.24 304.91,-41.58 312.77,-48.69 315.49,-42.24"/>
<text text-anchor="middle" x="359" y="-73" font-family="FreeSans.ttf" font-size="10.00"> reply</text>
</g>
</g>
</svg>
