<?xml version="1.0" encoding="UTF-8" standalone="no"?>
<!DOCTYPE svg PUBLIC "-//W3C//DTD SVG 1.1//EN"
 "http://www.w3.org/Graphics/SVG/1.1/DTD/svg11.dtd">
<!-- Generated by graphviz version 5.0.0 (20220707.2338)
 -->
<!-- Title: GazeboYarpPlugins::ClockServer_getSimulationTime_helper::Reply Pages: 1 -->
<svg width="181pt" height="106pt"
 viewBox="0.00 0.00 181.00 106.00" xmlns="http://www.w3.org/2000/svg" xmlns:xlink="http://www.w3.org/1999/xlink">
<g id="graph0" class="graph" transform="scale(1 1) rotate(0) translate(4 102)">
<title>GazeboYarpPlugins::ClockServer_getSimulationTime_helper::Reply</title>
<!-- Node1 -->
<g id="node1" class="node">
<title>Node1</title>
<g id="a_node1"><a xlink:title=" ">
<polygon fill="#bfbfbf" stroke="black" points="0,-0.5 0,-41.5 173,-41.5 173,-0.5 0,-0.5"/>
<text text-anchor="start" x="8" y="-29.5" font-family="FreeSans.ttf" font-size="10.00">GazeboYarpPlugins::</text>
<text text-anchor="start" x="8" y="-18.5" font-family="FreeSans.ttf" font-size="10.00">ClockServer_getSimulationTime</text>
<text text-anchor="middle" x="86.5" y="-7.5" font-family="FreeSans.ttf" font-size="10.00">_helper::Reply</text>
</a>
</g>
</g>
<!-- Node2 -->
<g id="node2" class="node">
<title>Node2</title>
<g id="a_node2"><a xlink:title=" ">
<polygon fill="none" stroke="black" points="15,-78.5 15,-97.5 158,-97.5 158,-78.5 15,-78.5"/>
<text text-anchor="middle" x="86.5" y="-85.5" font-family="FreeSans.ttf" font-size="10.00">yarp::os::idl::WirePortable</text>
</a>
</g>
</g>
<!-- Node2&#45;&gt;Node1 -->
<g id="edge1" class="edge">
<title>Node2&#45;&gt;Node1</title>
<path fill="none" stroke="midnightblue" d="M80.32,-68.32C79.58,-59.93 79.56,-50.03 80.25,-41.54"/>
<polygon fill="midnightblue" stroke="midnightblue" points="76.86,-68.82 81.71,-78.23 83.79,-67.85 76.86,-68.82"/>
</g>
<!-- Node2&#45;&gt;Node1 -->
<g id="edge2" class="edge">
<title>Node2&#45;&gt;Node1</title>
<path fill="none" stroke="midnightblue" d="M92.68,-68.32C93.42,-59.93 93.44,-50.03 92.75,-41.54"/>
<polygon fill="midnightblue" stroke="midnightblue" points="89.21,-67.85 91.29,-78.23 96.14,-68.82 89.21,-67.85"/>
</g>
</g>
</svg>
