<?xml version="1.0" encoding="UTF-8" standalone="no"?>
<!DOCTYPE svg PUBLIC "-//W3C//DTD SVG 1.1//EN"
 "http://www.w3.org/Graphics/SVG/1.1/DTD/svg11.dtd">
<!-- Generated by graphviz version 5.0.1 (20220821.0811)
 -->
<!-- Title: GazeboYarpPlugins::WorldInterfaceServer_changeColor_helper::Command Pages: 1 -->
<svg width="223pt" height="196pt"
 viewBox="0.00 0.00 223.00 196.00" xmlns="http://www.w3.org/2000/svg" xmlns:xlink="http://www.w3.org/1999/xlink">
<g id="graph0" class="graph" transform="scale(1 1) rotate(0) translate(4 192)">
<title>GazeboYarpPlugins::WorldInterfaceServer_changeColor_helper::Command</title>
<!-- Node1 -->
<g id="node1" class="node">
<title>Node1</title>
<g id="a_node1"><a xlink:title=" ">
<polygon fill="#bfbfbf" stroke="black" points="0,-0.5 0,-52.5 125,-52.5 125,-0.5 0,-0.5"/>
<text text-anchor="start" x="8" y="-40.5" font-family="FreeSans.ttf" font-size="10.00">GazeboYarpPlugins::</text>
<text text-anchor="start" x="8" y="-29.5" font-family="FreeSans.ttf" font-size="10.00">WorldInterfaceServer</text>
<text text-anchor="start" x="8" y="-18.5" font-family="FreeSans.ttf" font-size="10.00">_changeColor_helper::</text>
<text text-anchor="middle" x="62.5" y="-7.5" font-family="FreeSans.ttf" font-size="10.00">Command</text>
</a>
</g>
</g>
<!-- Node2 -->
<g id="node2" class="node">
<title>Node2</title>
<g id="a_node2"><a xlink:title=" ">
<polygon fill="none" stroke="black" points="12,-168.5 12,-187.5 155,-187.5 155,-168.5 12,-168.5"/>
<text text-anchor="middle" x="83.5" y="-175.5" font-family="FreeSans.ttf" font-size="10.00">yarp::os::idl::WirePortable</text>
</a>
</g>
</g>
<!-- Node2&#45;&gt;Node1 -->
<g id="edge1" class="edge">
<title>Node2&#45;&gt;Node1</title>
<path fill="none" stroke="midnightblue" d="M76.18,-158.13C69.85,-131.43 62.8,-82.56 60.84,-52.76"/>
<polygon fill="midnightblue" stroke="midnightblue" points="72.88,-159.33 78.84,-168.1 79.65,-157.53 72.88,-159.33"/>
</g>
<!-- Node2&#45;&gt;Node1 -->
<g id="edge2" class="edge">
<title>Node2&#45;&gt;Node1</title>
<path fill="none" stroke="midnightblue" d="M85.5,-157.77C84.29,-130.99 77.64,-82.43 71.26,-52.76"/>
<polygon fill="midnightblue" stroke="midnightblue" points="82.01,-158.15 85.66,-168.1 89,-158.04 82.01,-158.15"/>
</g>
<!-- Node3 -->
<g id="node3" class="node">
<title>Node3</title>
<g id="a_node3"><a xlink:href="classGazeboYarpPlugins_1_1Color.html" target="_top" xlink:title=" ">
<polygon fill="none" stroke="black" points="100,-100.5 100,-130.5 215,-130.5 215,-100.5 100,-100.5"/>
<text text-anchor="start" x="108" y="-118.5" font-family="FreeSans.ttf" font-size="10.00">GazeboYarpPlugins::</text>
<text text-anchor="middle" x="157.5" y="-107.5" font-family="FreeSans.ttf" font-size="10.00">Color</text>
</a>
</g>
</g>
<!-- Node2&#45;&gt;Node3 -->
<g id="edge4" class="edge">
<title>Node2&#45;&gt;Node3</title>
<path fill="none" stroke="midnightblue" d="M96.66,-161.34C107.25,-151.81 122.08,-139.74 134.54,-130.53"/>
<polygon fill="midnightblue" stroke="midnightblue" points="94.1,-158.94 89.2,-168.33 98.89,-164.04 94.1,-158.94"/>
</g>
<!-- Node2&#45;&gt;Node3 -->
<g id="edge5" class="edge">
<title>Node2&#45;&gt;Node3</title>
<path fill="none" stroke="midnightblue" d="M107.15,-162.46C120.2,-152.77 135.67,-140.11 146.14,-130.53"/>
<polygon fill="midnightblue" stroke="midnightblue" points="105.07,-159.65 99,-168.33 109.16,-165.32 105.07,-159.65"/>
</g>
<!-- Node3&#45;&gt;Node1 -->
<g id="edge3" class="edge">
<title>Node3&#45;&gt;Node1</title>
<path fill="none" stroke="#9a32cd" stroke-dasharray="5,2" d="M134.41,-93.35C121.06,-81.13 104.18,-65.67 90.13,-52.8"/>
<polygon fill="#9a32cd" stroke="#9a32cd" points="132.07,-95.96 141.81,-100.13 136.8,-90.8 132.07,-95.96"/>
<text text-anchor="middle" x="134.5" y="-74" font-family="FreeSans.ttf" font-size="10.00"> color</text>
</g>
</g>
</svg>
