<?xml version="1.0" encoding="UTF-8" standalone="no"?>
<!DOCTYPE svg PUBLIC "-//W3C//DTD SVG 1.1//EN"
 "http://www.w3.org/Graphics/SVG/1.1/DTD/svg11.dtd">
<!-- Generated by graphviz version 2.43.0 (0)
 -->
<!-- Title: GazeboYarpPlugins::WorldInterfaceServer_makeBox_helper Pages: 1 -->
<svg width="400pt" height="185pt"
 viewBox="0.00 0.00 400.00 185.00" xmlns="http://www.w3.org/2000/svg" xmlns:xlink="http://www.w3.org/1999/xlink">
<g id="graph0" class="graph" transform="scale(1 1) rotate(0) translate(4 181)">
<title>GazeboYarpPlugins::WorldInterfaceServer_makeBox_helper</title>
<!-- Node1 -->
<g id="node1" class="node">
<title>Node1</title>
<g id="a_node1"><a xlink:title=" ">
<polygon fill="#bfbfbf" stroke="black" points="118.5,-0.5 118.5,-41.5 237.5,-41.5 237.5,-0.5 118.5,-0.5"/>
<text text-anchor="start" x="126.5" y="-29.5" font-family="FreeSans.ttf" font-size="10.00">GazeboYarpPlugins::</text>
<text text-anchor="start" x="126.5" y="-18.5" font-family="FreeSans.ttf" font-size="10.00">WorldInterfaceServer</text>
<text text-anchor="middle" x="178" y="-7.5" font-family="FreeSans.ttf" font-size="10.00">_makeBox_helper</text>
</a>
</g>
</g>
<!-- Node2 -->
<g id="node2" class="node">
<title>Node2</title>
<g id="a_node2"><a xlink:title=" ">
<polygon fill="none" stroke="#bfbfbf" points="0,-95 0,-114 102,-114 102,-95 0,-95"/>
<text text-anchor="middle" x="51" y="-102" font-family="FreeSans.ttf" font-size="10.00">yarp::os::Portable</text>
</a>
</g>
</g>
<!-- Node2&#45;&gt;Node1 -->
<g id="edge1" class="edge">
<title>Node2&#45;&gt;Node1</title>
<path fill="none" stroke="midnightblue" d="M73.26,-89.21C93.84,-76.01 124.6,-56.27 147.46,-41.6"/>
<polygon fill="midnightblue" stroke="midnightblue" points="71.12,-86.43 64.59,-94.78 74.9,-92.32 71.12,-86.43"/>
</g>
<!-- Node3 -->
<g id="node3" class="node">
<title>Node3</title>
<g id="a_node3"><a xlink:href="classGazeboYarpPlugins_1_1Color.html" target="_top" xlink:title=" ">
<polygon fill="none" stroke="black" points="120.5,-89.5 120.5,-119.5 235.5,-119.5 235.5,-89.5 120.5,-89.5"/>
<text text-anchor="start" x="128.5" y="-107.5" font-family="FreeSans.ttf" font-size="10.00">GazeboYarpPlugins::</text>
<text text-anchor="middle" x="178" y="-96.5" font-family="FreeSans.ttf" font-size="10.00">Color</text>
</a>
</g>
</g>
<!-- Node3&#45;&gt;Node1 -->
<g id="edge2" class="edge">
<title>Node3&#45;&gt;Node1</title>
<path fill="none" stroke="#9a32cd" stroke-dasharray="5,2" d="M178,-79.07C178,-67.06 178,-52.79 178,-41.53"/>
<polygon fill="#9a32cd" stroke="#9a32cd" points="174.5,-79.3 178,-89.3 181.5,-79.3 174.5,-79.3"/>
<text text-anchor="middle" x="199.5" y="-63" font-family="FreeSans.ttf" font-size="10.00"> m_color</text>
</g>
<!-- Node4 -->
<g id="node4" class="node">
<title>Node4</title>
<g id="a_node4"><a xlink:title=" ">
<polygon fill="none" stroke="#bfbfbf" points="178.5,-157.5 178.5,-176.5 321.5,-176.5 321.5,-157.5 178.5,-157.5"/>
<text text-anchor="middle" x="250" y="-164.5" font-family="FreeSans.ttf" font-size="10.00">yarp::os::idl::WirePortable</text>
</a>
</g>
</g>
<!-- Node4&#45;&gt;Node3 -->
<g id="edge3" class="edge">
<title>Node4&#45;&gt;Node3</title>
<path fill="none" stroke="midnightblue" d="M226.52,-151.22C213.96,-141.64 199.21,-129.23 189.14,-119.76"/>
<polygon fill="midnightblue" stroke="midnightblue" points="224.66,-154.2 234.78,-157.33 228.82,-148.57 224.66,-154.2"/>
</g>
<!-- Node4&#45;&gt;Node3 -->
<g id="edge4" class="edge">
<title>Node4&#45;&gt;Node3</title>
<path fill="none" stroke="midnightblue" d="M237.36,-150.34C227.08,-140.81 212.66,-128.74 200.49,-119.53"/>
<polygon fill="midnightblue" stroke="midnightblue" points="234.96,-152.89 244.58,-157.33 239.83,-147.86 234.96,-152.89"/>
</g>
<!-- Node5 -->
<g id="node5" class="node">
<title>Node5</title>
<g id="a_node5"><a xlink:href="classGazeboYarpPlugins_1_1Pose.html" target="_top" xlink:title=" ">
<polygon fill="none" stroke="black" points="254,-95 254,-114 392,-114 392,-95 254,-95"/>
<text text-anchor="middle" x="323" y="-102" font-family="FreeSans.ttf" font-size="10.00">GazeboYarpPlugins::Pose</text>
</a>
</g>
</g>
<!-- Node4&#45;&gt;Node5 -->
<g id="edge6" class="edge">
<title>Node4&#45;&gt;Node5</title>
<path fill="none" stroke="midnightblue" d="M262.84,-150.39C275.46,-138.86 294.26,-123.58 307.66,-114.15"/>
<polygon fill="midnightblue" stroke="midnightblue" points="260.38,-147.9 255.56,-157.33 265.21,-152.97 260.38,-147.9"/>
</g>
<!-- Node4&#45;&gt;Node5 -->
<g id="edge7" class="edge">
<title>Node4&#45;&gt;Node5</title>
<path fill="none" stroke="midnightblue" d="M273.53,-151.37C289,-139.73 307.84,-123.85 317.46,-114.15"/>
<polygon fill="midnightblue" stroke="midnightblue" points="271.37,-148.61 265.36,-157.33 275.5,-154.26 271.37,-148.61"/>
</g>
<!-- Node5&#45;&gt;Node1 -->
<g id="edge5" class="edge">
<title>Node5&#45;&gt;Node1</title>
<path fill="none" stroke="#9a32cd" stroke-dasharray="5,2" d="M298.8,-89.9C275.27,-76.67 239.29,-56.45 212.72,-41.51"/>
<polygon fill="#9a32cd" stroke="#9a32cd" points="297.32,-93.08 307.76,-94.93 300.75,-86.98 297.32,-93.08"/>
<text text-anchor="middle" x="285" y="-63" font-family="FreeSans.ttf" font-size="10.00"> m_pose</text>
</g>
</g>
</svg>
