<?xml version="1.0" encoding="UTF-8" standalone="no"?>
<!DOCTYPE svg PUBLIC "-//W3C//DTD SVG 1.1//EN"
 "http://www.w3.org/Graphics/SVG/1.1/DTD/svg11.dtd">
<!-- Generated by graphviz version 2.43.0 (0)
 -->
<!-- Title: GazeboYarpPlugins::WorldInterfaceServer_changeColor_helper Pages: 1 -->
<svg width="258pt" height="185pt"
 viewBox="0.00 0.00 257.50 185.00" xmlns="http://www.w3.org/2000/svg" xmlns:xlink="http://www.w3.org/1999/xlink">
<g id="graph0" class="graph" transform="scale(1 1) rotate(0) translate(4 181)">
<title>GazeboYarpPlugins::WorldInterfaceServer_changeColor_helper</title>
<!-- Node1 -->
<g id="node1" class="node">
<title>Node1</title>
<g id="a_node1"><a xlink:title=" ">
<polygon fill="#bfbfbf" stroke="black" points="7.5,-0.5 7.5,-41.5 126.5,-41.5 126.5,-0.5 7.5,-0.5"/>
<text text-anchor="start" x="15.5" y="-29.5" font-family="FreeSans.ttf" font-size="10.00">GazeboYarpPlugins::</text>
<text text-anchor="start" x="15.5" y="-18.5" font-family="FreeSans.ttf" font-size="10.00">WorldInterfaceServer</text>
<text text-anchor="middle" x="67" y="-7.5" font-family="FreeSans.ttf" font-size="10.00">_changeColor_helper</text>
</a>
</g>
</g>
<!-- Node2 -->
<g id="node2" class="node">
<title>Node2</title>
<g id="a_node2"><a xlink:title=" ">
<polygon fill="none" stroke="#bfbfbf" points="0,-95 0,-114 102,-114 102,-95 0,-95"/>
<text text-anchor="middle" x="51" y="-102" font-family="FreeSans.ttf" font-size="10.00">yarp::os::Portable</text>
</a>
</g>
</g>
<!-- Node2&#45;&gt;Node1 -->
<g id="edge1" class="edge">
<title>Node2&#45;&gt;Node1</title>
<path fill="none" stroke="midnightblue" d="M54.68,-84.75C57.21,-71.89 60.55,-54.84 63.12,-41.76"/>
<polygon fill="midnightblue" stroke="midnightblue" points="51.2,-84.29 52.71,-94.78 58.07,-85.64 51.2,-84.29"/>
</g>
<!-- Node3 -->
<g id="node3" class="node">
<title>Node3</title>
<g id="a_node3"><a xlink:href="classGazeboYarpPlugins_1_1Color.html" target="_top" xlink:title=" ">
<polygon fill="none" stroke="black" points="120.5,-89.5 120.5,-119.5 235.5,-119.5 235.5,-89.5 120.5,-89.5"/>
<text text-anchor="start" x="128.5" y="-107.5" font-family="FreeSans.ttf" font-size="10.00">GazeboYarpPlugins::</text>
<text text-anchor="middle" x="178" y="-96.5" font-family="FreeSans.ttf" font-size="10.00">Color</text>
</a>
</g>
</g>
<!-- Node3&#45;&gt;Node1 -->
<g id="edge2" class="edge">
<title>Node3&#45;&gt;Node1</title>
<path fill="none" stroke="#9a32cd" stroke-dasharray="5,2" d="M150.84,-83.56C133.46,-70.8 111.01,-54.31 93.72,-41.62"/>
<polygon fill="#9a32cd" stroke="#9a32cd" points="148.79,-86.39 158.92,-89.49 152.93,-80.75 148.79,-86.39"/>
<text text-anchor="middle" x="153.5" y="-63" font-family="FreeSans.ttf" font-size="10.00"> m_color</text>
</g>
<!-- Node4 -->
<g id="node4" class="node">
<title>Node4</title>
<g id="a_node4"><a xlink:title=" ">
<polygon fill="none" stroke="#bfbfbf" points="106.5,-157.5 106.5,-176.5 249.5,-176.5 249.5,-157.5 106.5,-157.5"/>
<text text-anchor="middle" x="178" y="-164.5" font-family="FreeSans.ttf" font-size="10.00">yarp::os::idl::WirePortable</text>
</a>
</g>
</g>
<!-- Node4&#45;&gt;Node3 -->
<g id="edge3" class="edge">
<title>Node4&#45;&gt;Node3</title>
<path fill="none" stroke="midnightblue" d="M171.7,-147.22C170.97,-138.36 171.13,-127.96 172.17,-119.76"/>
<polygon fill="midnightblue" stroke="midnightblue" points="168.26,-147.91 173.1,-157.33 175.2,-146.95 168.26,-147.91"/>
</g>
<!-- Node4&#45;&gt;Node3 -->
<g id="edge4" class="edge">
<title>Node4&#45;&gt;Node3</title>
<path fill="none" stroke="midnightblue" d="M184.3,-147.22C185.03,-138.36 184.87,-127.96 183.83,-119.76"/>
<polygon fill="midnightblue" stroke="midnightblue" points="180.8,-146.95 182.9,-157.33 187.74,-147.91 180.8,-146.95"/>
</g>
</g>
</svg>
