<?xml version="1.0" encoding="UTF-8" standalone="no"?>
<!DOCTYPE svg PUBLIC "-//W3C//DTD SVG 1.1//EN"
 "http://www.w3.org/Graphics/SVG/1.1/DTD/svg11.dtd">
<!-- Generated by graphviz version 5.0.0 (20220707.2338)
 -->
<!-- Title: GazeboYarpPlugins::WorldInterfaceServer_attach_helper Pages: 1 -->
<svg width="516pt" height="148pt"
 viewBox="0.00 0.00 516.00 148.00" xmlns="http://www.w3.org/2000/svg" xmlns:xlink="http://www.w3.org/1999/xlink">
<g id="graph0" class="graph" transform="scale(1 1) rotate(0) translate(4 144)">
<title>GazeboYarpPlugins::WorldInterfaceServer_attach_helper</title>
<!-- Node1 -->
<g id="node1" class="node">
<title>Node1</title>
<g id="a_node1"><a xlink:title=" ">
<polygon fill="#bfbfbf" stroke="black" points="389,-86.5 389,-127.5 508,-127.5 508,-86.5 389,-86.5"/>
<text text-anchor="start" x="397" y="-115.5" font-family="FreeSans.ttf" font-size="10.00">GazeboYarpPlugins::</text>
<text text-anchor="start" x="397" y="-104.5" font-family="FreeSans.ttf" font-size="10.00">WorldInterfaceServer</text>
<text text-anchor="middle" x="448.5" y="-93.5" font-family="FreeSans.ttf" font-size="10.00">_attach_helper</text>
</a>
</g>
</g>
<!-- Node2 -->
<g id="node2" class="node">
<title>Node2</title>
<g id="a_node2"><a xlink:title=" ">
<polygon fill="none" stroke="black" points="201.5,-120.5 201.5,-139.5 303.5,-139.5 303.5,-120.5 201.5,-120.5"/>
<text text-anchor="middle" x="252.5" y="-127.5" font-family="FreeSans.ttf" font-size="10.00">yarp::os::Portable</text>
</a>
</g>
</g>
<!-- Node2&#45;&gt;Node1 -->
<g id="edge1" class="edge">
<title>Node2&#45;&gt;Node1</title>
<path fill="none" stroke="midnightblue" d="M298.52,-118.86C325.34,-114.6 359.69,-110.37 388.65,-107.71"/>
<polygon fill="midnightblue" stroke="midnightblue" points="297.93,-115.41 288.63,-120.49 299.07,-122.32 297.93,-115.41"/>
</g>
<!-- Node2&#45;&gt;Node1 -->
<g id="edge2" class="edge">
<title>Node2&#45;&gt;Node1</title>
<path fill="none" stroke="midnightblue" d="M313.74,-129.16C337.67,-126.93 365.12,-123.67 388.89,-120.2"/>
<polygon fill="midnightblue" stroke="midnightblue" points="313.36,-125.68 303.71,-130.04 313.98,-132.65 313.36,-125.68"/>
</g>
<!-- Node3 -->
<g id="node3" class="node">
<title>Node3</title>
<g id="a_node3"><a xlink:href="classGazeboYarpPlugins_1_1WorldInterfaceServer__attach__helper_1_1Command.html" target="_top" xlink:title=" ">
<polygon fill="none" stroke="black" points="180,-60.5 180,-101.5 325,-101.5 325,-60.5 180,-60.5"/>
<text text-anchor="start" x="188" y="-89.5" font-family="FreeSans.ttf" font-size="10.00">GazeboYarpPlugins::</text>
<text text-anchor="start" x="188" y="-78.5" font-family="FreeSans.ttf" font-size="10.00">WorldInterfaceServer</text>
<text text-anchor="middle" x="252.5" y="-67.5" font-family="FreeSans.ttf" font-size="10.00">_attach_helper::Command</text>
</a>
</g>
</g>
<!-- Node3&#45;&gt;Node1 -->
<g id="edge3" class="edge">
<title>Node3&#45;&gt;Node1</title>
<path fill="none" stroke="#9a32cd" stroke-dasharray="5,2" d="M335.11,-91.94C353.14,-94.35 371.89,-96.87 388.79,-99.13"/>
<polygon fill="#9a32cd" stroke="#9a32cd" points="335.56,-88.47 325.19,-90.61 334.63,-95.4 335.56,-88.47"/>
<text text-anchor="middle" x="357" y="-99" font-family="FreeSans.ttf" font-size="10.00"> cmd</text>
</g>
<!-- Node4 -->
<g id="node4" class="node">
<title>Node4</title>
<g id="a_node4"><a xlink:title=" ">
<polygon fill="none" stroke="black" points="0,-40.5 0,-59.5 143,-59.5 143,-40.5 0,-40.5"/>
<text text-anchor="middle" x="71.5" y="-47.5" font-family="FreeSans.ttf" font-size="10.00">yarp::os::idl::WirePortable</text>
</a>
</g>
</g>
<!-- Node4&#45;&gt;Node3 -->
<g id="edge4" class="edge">
<title>Node4&#45;&gt;Node3</title>
<path fill="none" stroke="midnightblue" d="M153.19,-57.25C162.06,-58.73 171.05,-60.32 179.8,-61.95"/>
<polygon fill="midnightblue" stroke="midnightblue" points="153.68,-53.79 143.25,-55.64 152.55,-60.7 153.68,-53.79"/>
</g>
<!-- Node4&#45;&gt;Node3 -->
<g id="edge5" class="edge">
<title>Node4&#45;&gt;Node3</title>
<path fill="none" stroke="midnightblue" d="M108.72,-61.82C129.12,-66.41 155.32,-71.31 179.71,-75.2"/>
<polygon fill="midnightblue" stroke="midnightblue" points="109.45,-58.4 98.91,-59.53 107.85,-65.21 109.45,-58.4"/>
</g>
<!-- Node5 -->
<g id="node5" class="node">
<title>Node5</title>
<g id="a_node5"><a xlink:href="classGazeboYarpPlugins_1_1WorldInterfaceServer__attach__helper_1_1Reply.html" target="_top" xlink:title=" ">
<polygon fill="none" stroke="black" points="191.5,-0.5 191.5,-41.5 313.5,-41.5 313.5,-0.5 191.5,-0.5"/>
<text text-anchor="start" x="199.5" y="-29.5" font-family="FreeSans.ttf" font-size="10.00">GazeboYarpPlugins::</text>
<text text-anchor="start" x="199.5" y="-18.5" font-family="FreeSans.ttf" font-size="10.00">WorldInterfaceServer</text>
<text text-anchor="middle" x="252.5" y="-7.5" font-family="FreeSans.ttf" font-size="10.00">_attach_helper::Reply</text>
</a>
</g>
</g>
<!-- Node4&#45;&gt;Node5 -->
<g id="edge7" class="edge">
<title>Node4&#45;&gt;Node5</title>
<path fill="none" stroke="midnightblue" d="M110,-38.31C133.52,-33.33 164.37,-28.07 191.26,-24.34"/>
<polygon fill="midnightblue" stroke="midnightblue" points="109.09,-34.93 100.08,-40.5 110.6,-41.76 109.09,-34.93"/>
</g>
<!-- Node4&#45;&gt;Node5 -->
<g id="edge8" class="edge">
<title>Node4&#45;&gt;Node5</title>
<path fill="none" stroke="midnightblue" d="M153.42,-43.61C166.19,-41.63 179.19,-39.42 191.38,-37.16"/>
<polygon fill="midnightblue" stroke="midnightblue" points="152.61,-40.2 143.25,-45.15 153.66,-47.12 152.61,-40.2"/>
</g>
<!-- Node5&#45;&gt;Node1 -->
<g id="edge6" class="edge">
<title>Node5&#45;&gt;Node1</title>
<path fill="none" stroke="#9a32cd" stroke-dasharray="5,2" d="M312.5,-45.58C316.74,-47.4 320.94,-49.22 325,-51 351.13,-62.45 380.18,-75.71 403.42,-86.44"/>
<polygon fill="#9a32cd" stroke="#9a32cd" points="313.78,-42.32 303.2,-41.62 311.03,-48.76 313.78,-42.32"/>
<text text-anchor="middle" x="357" y="-73" font-family="FreeSans.ttf" font-size="10.00"> reply</text>
</g>
</g>
</svg>
