<?xml version="1.0" encoding="UTF-8" standalone="no"?>
<!DOCTYPE svg PUBLIC "-//W3C//DTD SVG 1.1//EN"
 "http://www.w3.org/Graphics/SVG/1.1/DTD/svg11.dtd">
<!-- Generated by graphviz version 5.0.0 (20220707.2338)
 -->
<!-- Title: GazeboYarpPlugins::LinkAttacherServer_detachUnscoped_helper Pages: 1 -->
<svg width="644pt" height="148pt"
 viewBox="0.00 0.00 644.00 148.00" xmlns="http://www.w3.org/2000/svg" xmlns:xlink="http://www.w3.org/1999/xlink">
<g id="graph0" class="graph" transform="scale(1 1) rotate(0) translate(4 144)">
<title>GazeboYarpPlugins::LinkAttacherServer_detachUnscoped_helper</title>
<!-- Node1 -->
<g id="node1" class="node">
<title>Node1</title>
<g id="a_node1"><a xlink:title=" ">
<polygon fill="#bfbfbf" stroke="black" points="440,-86.5 440,-127.5 636,-127.5 636,-86.5 440,-86.5"/>
<text text-anchor="start" x="448" y="-115.5" font-family="FreeSans.ttf" font-size="10.00">GazeboYarpPlugins::</text>
<text text-anchor="start" x="448" y="-104.5" font-family="FreeSans.ttf" font-size="10.00">LinkAttacherServer_detachUnscoped</text>
<text text-anchor="middle" x="538" y="-93.5" font-family="FreeSans.ttf" font-size="10.00">_helper</text>
</a>
</g>
</g>
<!-- Node2 -->
<g id="node2" class="node">
<title>Node2</title>
<g id="a_node2"><a xlink:title=" ">
<polygon fill="none" stroke="black" points="227,-120.5 227,-139.5 329,-139.5 329,-120.5 227,-120.5"/>
<text text-anchor="middle" x="278" y="-127.5" font-family="FreeSans.ttf" font-size="10.00">yarp::os::Portable</text>
</a>
</g>
</g>
<!-- Node2&#45;&gt;Node1 -->
<g id="edge1" class="edge">
<title>Node2&#45;&gt;Node1</title>
<path fill="none" stroke="midnightblue" d="M335.75,-119.24C366.27,-115.52 404.74,-111.81 439.86,-109.1"/>
<polygon fill="midnightblue" stroke="midnightblue" points="335.21,-115.78 325.72,-120.49 336.08,-122.72 335.21,-115.78"/>
</g>
<!-- Node2&#45;&gt;Node1 -->
<g id="edge2" class="edge">
<title>Node2&#45;&gt;Node1</title>
<path fill="none" stroke="midnightblue" d="M339.32,-130.44C369.21,-128.67 406.06,-125.64 439.8,-122.23"/>
<polygon fill="midnightblue" stroke="midnightblue" points="338.84,-126.96 329.05,-131.01 339.23,-133.95 338.84,-126.96"/>
</g>
<!-- Node3 -->
<g id="node3" class="node">
<title>Node3</title>
<g id="a_node3"><a xlink:href="classGazeboYarpPlugins_1_1LinkAttacherServer__detachUnscoped__helper_1_1Command.html" target="_top" xlink:title=" ">
<polygon fill="none" stroke="black" points="180,-60.5 180,-101.5 376,-101.5 376,-60.5 180,-60.5"/>
<text text-anchor="start" x="188" y="-89.5" font-family="FreeSans.ttf" font-size="10.00">GazeboYarpPlugins::</text>
<text text-anchor="start" x="188" y="-78.5" font-family="FreeSans.ttf" font-size="10.00">LinkAttacherServer_detachUnscoped</text>
<text text-anchor="middle" x="278" y="-67.5" font-family="FreeSans.ttf" font-size="10.00">_helper::Command</text>
</a>
</g>
</g>
<!-- Node3&#45;&gt;Node1 -->
<g id="edge3" class="edge">
<title>Node3&#45;&gt;Node1</title>
<path fill="none" stroke="#9a32cd" stroke-dasharray="5,2" d="M386.52,-91.84C404.23,-93.62 422.49,-95.46 439.92,-97.22"/>
<polygon fill="#9a32cd" stroke="#9a32cd" points="386.47,-88.31 376.17,-90.79 385.77,-95.28 386.47,-88.31"/>
<text text-anchor="middle" x="408" y="-97" font-family="FreeSans.ttf" font-size="10.00"> cmd</text>
</g>
<!-- Node4 -->
<g id="node4" class="node">
<title>Node4</title>
<g id="a_node4"><a xlink:title=" ">
<polygon fill="none" stroke="black" points="0,-40.5 0,-59.5 143,-59.5 143,-40.5 0,-40.5"/>
<text text-anchor="middle" x="71.5" y="-47.5" font-family="FreeSans.ttf" font-size="10.00">yarp::os::idl::WirePortable</text>
</a>
</g>
</g>
<!-- Node4&#45;&gt;Node3 -->
<g id="edge4" class="edge">
<title>Node4&#45;&gt;Node3</title>
<path fill="none" stroke="midnightblue" d="M153.28,-55.63C163.95,-57.11 174.95,-58.75 185.78,-60.46"/>
<polygon fill="midnightblue" stroke="midnightblue" points="153.54,-52.13 143.16,-54.26 152.6,-59.07 153.54,-52.13"/>
</g>
<!-- Node4&#45;&gt;Node3 -->
<g id="edge5" class="edge">
<title>Node4&#45;&gt;Node3</title>
<path fill="none" stroke="midnightblue" d="M112.59,-61.57C131.89,-65.39 155.95,-69.46 179.66,-72.99"/>
<polygon fill="midnightblue" stroke="midnightblue" points="113.17,-58.11 102.67,-59.53 111.77,-64.97 113.17,-58.11"/>
</g>
<!-- Node5 -->
<g id="node5" class="node">
<title>Node5</title>
<g id="a_node5"><a xlink:href="classGazeboYarpPlugins_1_1LinkAttacherServer__detachUnscoped__helper_1_1Reply.html" target="_top" xlink:title=" ">
<polygon fill="none" stroke="black" points="180,-0.5 180,-41.5 376,-41.5 376,-0.5 180,-0.5"/>
<text text-anchor="start" x="188" y="-29.5" font-family="FreeSans.ttf" font-size="10.00">GazeboYarpPlugins::</text>
<text text-anchor="start" x="188" y="-18.5" font-family="FreeSans.ttf" font-size="10.00">LinkAttacherServer_detachUnscoped</text>
<text text-anchor="middle" x="278" y="-7.5" font-family="FreeSans.ttf" font-size="10.00">_helper::Reply</text>
</a>
</g>
</g>
<!-- Node4&#45;&gt;Node5 -->
<g id="edge7" class="edge">
<title>Node4&#45;&gt;Node5</title>
<path fill="none" stroke="midnightblue" d="M113.87,-38.59C133.01,-35.01 156.64,-31.26 179.9,-28.03"/>
<polygon fill="midnightblue" stroke="midnightblue" points="113.16,-35.16 104,-40.5 114.49,-42.03 113.16,-35.16"/>
</g>
<!-- Node4&#45;&gt;Node5 -->
<g id="edge8" class="edge">
<title>Node4&#45;&gt;Node5</title>
<path fill="none" stroke="midnightblue" d="M153.33,-45.15C162.09,-44.02 171.07,-42.79 180,-41.5"/>
<polygon fill="midnightblue" stroke="midnightblue" points="152.65,-41.71 143.16,-46.43 153.52,-48.66 152.65,-41.71"/>
</g>
<!-- Node5&#45;&gt;Node1 -->
<g id="edge6" class="edge">
<title>Node5&#45;&gt;Node1</title>
<path fill="none" stroke="#9a32cd" stroke-dasharray="5,2" d="M356.22,-44.62C362.92,-46.75 369.59,-48.89 376,-51 410.44,-62.31 448.79,-75.62 479.41,-86.43"/>
<polygon fill="#9a32cd" stroke="#9a32cd" points="357,-41.19 346.41,-41.52 354.89,-47.87 357,-41.19"/>
<text text-anchor="middle" x="408" y="-68" font-family="FreeSans.ttf" font-size="10.00"> reply</text>
</g>
</g>
</svg>
