<?xml version="1.0" encoding="UTF-8" standalone="no"?>
<!DOCTYPE svg PUBLIC "-//W3C//DTD SVG 1.1//EN"
 "http://www.w3.org/Graphics/SVG/1.1/DTD/svg11.dtd">
<!-- Generated by graphviz version 3.0.0 (20220315.2325)
 -->
<!-- Title: GazeboYarpPlugins::WorldInterfaceServer_deleteObject_helper Pages: 1 -->
<svg width="128pt" height="106pt"
 viewBox="0.00 0.00 128.00 106.00" xmlns="http://www.w3.org/2000/svg" xmlns:xlink="http://www.w3.org/1999/xlink">
<g id="graph0" class="graph" transform="scale(1 1) rotate(0) translate(4 102)">
<title>GazeboYarpPlugins::WorldInterfaceServer_deleteObject_helper</title>
<!-- Node1 -->
<g id="node1" class="node">
<title>Node1</title>
<g id="a_node1"><a xlink:title=" ">
<polygon fill="#bfbfbf" stroke="black" points="0,-0.5 0,-41.5 120,-41.5 120,-0.5 0,-0.5"/>
<text text-anchor="start" x="8" y="-29.5" font-family="FreeSans.ttf" font-size="10.00">GazeboYarpPlugins::</text>
<text text-anchor="start" x="8" y="-18.5" font-family="FreeSans.ttf" font-size="10.00">WorldInterfaceServer</text>
<text text-anchor="middle" x="60" y="-7.5" font-family="FreeSans.ttf" font-size="10.00">_deleteObject_helper</text>
</a>
</g>
</g>
<!-- Node2 -->
<g id="node2" class="node">
<title>Node2</title>
<g id="a_node2"><a xlink:title=" ">
<polygon fill="none" stroke="black" points="9,-78.5 9,-97.5 111,-97.5 111,-78.5 9,-78.5"/>
<text text-anchor="middle" x="60" y="-85.5" font-family="FreeSans.ttf" font-size="10.00">yarp::os::Portable</text>
</a>
</g>
</g>
<!-- Node2&#45;&gt;Node1 -->
<g id="edge1" class="edge">
<title>Node2&#45;&gt;Node1</title>
<path fill="none" stroke="midnightblue" d="M53.82,-68.32C53.08,-59.93 53.06,-50.03 53.75,-41.54"/>
<polygon fill="midnightblue" stroke="midnightblue" points="50.36,-68.82 55.21,-78.23 57.29,-67.85 50.36,-68.82"/>
</g>
<!-- Node2&#45;&gt;Node1 -->
<g id="edge2" class="edge">
<title>Node2&#45;&gt;Node1</title>
<path fill="none" stroke="midnightblue" d="M66.18,-68.32C66.92,-59.93 66.94,-50.03 66.25,-41.54"/>
<polygon fill="midnightblue" stroke="midnightblue" points="62.71,-67.85 64.79,-78.23 69.64,-68.82 62.71,-67.85"/>
</g>
</g>
</svg>
