<?xml version="1.0" encoding="UTF-8" standalone="no"?>
<!DOCTYPE svg PUBLIC "-//W3C//DTD SVG 1.1//EN"
 "http://www.w3.org/Graphics/SVG/1.1/DTD/svg11.dtd">
<!-- Generated by graphviz version 5.0.0 (20220707.2338)
 -->
<!-- Title: GazeboYarpPlugins::WorldInterfaceServer_makeBox_helper Pages: 1 -->
<svg width="730pt" height="187pt"
 viewBox="0.00 0.00 730.00 187.00" xmlns="http://www.w3.org/2000/svg" xmlns:xlink="http://www.w3.org/1999/xlink">
<g id="graph0" class="graph" transform="scale(1 1) rotate(0) translate(4 183)">
<title>GazeboYarpPlugins::WorldInterfaceServer_makeBox_helper</title>
<!-- Node1 -->
<g id="node1" class="node">
<title>Node1</title>
<g id="a_node1"><a xlink:title=" ">
<polygon fill="#bfbfbf" stroke="black" points="603,-123.5 603,-164.5 722,-164.5 722,-123.5 603,-123.5"/>
<text text-anchor="start" x="611" y="-152.5" font-family="FreeSans.ttf" font-size="10.00">GazeboYarpPlugins::</text>
<text text-anchor="start" x="611" y="-141.5" font-family="FreeSans.ttf" font-size="10.00">WorldInterfaceServer</text>
<text text-anchor="middle" x="662.5" y="-130.5" font-family="FreeSans.ttf" font-size="10.00">_makeBox_helper</text>
</a>
</g>
</g>
<!-- Node2 -->
<g id="node2" class="node">
<title>Node2</title>
<g id="a_node2"><a xlink:title=" ">
<polygon fill="none" stroke="black" points="411,-159.5 411,-178.5 513,-178.5 513,-159.5 411,-159.5"/>
<text text-anchor="middle" x="462" y="-166.5" font-family="FreeSans.ttf" font-size="10.00">yarp::os::Portable</text>
</a>
</g>
</g>
<!-- Node2&#45;&gt;Node1 -->
<g id="edge1" class="edge">
<title>Node2&#45;&gt;Node1</title>
<path fill="none" stroke="midnightblue" d="M507.1,-157.72C535.34,-152.99 572.3,-148.17 602.97,-145.15"/>
<polygon fill="midnightblue" stroke="midnightblue" points="506.38,-154.3 497.12,-159.46 507.58,-161.19 506.38,-154.3"/>
</g>
<!-- Node2&#45;&gt;Node1 -->
<g id="edge2" class="edge">
<title>Node2&#45;&gt;Node1</title>
<path fill="none" stroke="midnightblue" d="M523.29,-167.67C548.58,-165.15 577.87,-161.44 602.97,-157.59"/>
<polygon fill="midnightblue" stroke="midnightblue" points="522.71,-164.21 513.09,-168.64 523.38,-171.18 522.71,-164.21"/>
</g>
<!-- Node3 -->
<g id="node3" class="node">
<title>Node3</title>
<g id="a_node3"><a xlink:href="classGazeboYarpPlugins_1_1WorldInterfaceServer__makeBox__helper_1_1Command.html" target="_top" xlink:title=" ">
<polygon fill="none" stroke="black" points="382,-99.5 382,-140.5 542,-140.5 542,-99.5 382,-99.5"/>
<text text-anchor="start" x="390" y="-128.5" font-family="FreeSans.ttf" font-size="10.00">GazeboYarpPlugins::</text>
<text text-anchor="start" x="390" y="-117.5" font-family="FreeSans.ttf" font-size="10.00">WorldInterfaceServer</text>
<text text-anchor="middle" x="462" y="-106.5" font-family="FreeSans.ttf" font-size="10.00">_makeBox_helper::Command</text>
</a>
</g>
</g>
<!-- Node3&#45;&gt;Node1 -->
<g id="edge3" class="edge">
<title>Node3&#45;&gt;Node1</title>
<path fill="none" stroke="#9a32cd" stroke-dasharray="5,2" d="M552.27,-127.24C563.31,-128.37 574.42,-129.63 585,-131 590.74,-131.75 596.72,-132.61 602.68,-133.53"/>
<polygon fill="#9a32cd" stroke="#9a32cd" points="552.48,-123.74 542.18,-126.23 551.78,-130.7 552.48,-123.74"/>
<text text-anchor="middle" x="572.5" y="-134" font-family="FreeSans.ttf" font-size="10.00"> cmd</text>
</g>
<!-- Node4 -->
<g id="node4" class="node">
<title>Node4</title>
<g id="a_node4"><a xlink:title=" ">
<polygon fill="none" stroke="black" points="0,-88.5 0,-107.5 143,-107.5 143,-88.5 0,-88.5"/>
<text text-anchor="middle" x="71.5" y="-95.5" font-family="FreeSans.ttf" font-size="10.00">yarp::os::idl::WirePortable</text>
</a>
</g>
</g>
<!-- Node4&#45;&gt;Node3 -->
<g id="edge4" class="edge">
<title>Node4&#45;&gt;Node3</title>
<path fill="none" stroke="midnightblue" d="M117.82,-111.28C136.6,-118.43 158.9,-126.24 180,-130 247.39,-142.02 325.11,-135.21 381.71,-128.04"/>
<polygon fill="midnightblue" stroke="midnightblue" points="118.93,-107.96 108.34,-107.63 116.42,-114.49 118.93,-107.96"/>
</g>
<!-- Node4&#45;&gt;Node3 -->
<g id="edge5" class="edge">
<title>Node4&#45;&gt;Node3</title>
<path fill="none" stroke="midnightblue" d="M89.44,-113.13C110.15,-125.92 146.58,-142.04 180,-148 252.93,-161.01 337.95,-151.96 395.21,-140.55"/>
<polygon fill="midnightblue" stroke="midnightblue" points="91.35,-110.19 81.1,-107.53 87.45,-116.01 91.35,-110.19"/>
</g>
<!-- Node5 -->
<g id="node5" class="node">
<title>Node5</title>
<g id="a_node5"><a xlink:href="classGazeboYarpPlugins_1_1Pose.html" target="_top" xlink:title=" ">
<polygon fill="none" stroke="black" points="180,-110.5 180,-129.5 318,-129.5 318,-110.5 180,-110.5"/>
<text text-anchor="middle" x="249" y="-117.5" font-family="FreeSans.ttf" font-size="10.00">GazeboYarpPlugins::Pose</text>
</a>
</g>
</g>
<!-- Node4&#45;&gt;Node5 -->
<g id="edge7" class="edge">
<title>Node4&#45;&gt;Node5</title>
<path fill="none" stroke="midnightblue" d="M153.15,-101.38C175.1,-104.01 197.65,-107.28 215.25,-110.5"/>
<polygon fill="midnightblue" stroke="midnightblue" points="153.46,-97.89 143.12,-100.22 152.65,-104.85 153.46,-97.89"/>
</g>
<!-- Node4&#45;&gt;Node5 -->
<g id="edge8" class="edge">
<title>Node4&#45;&gt;Node5</title>
<path fill="none" stroke="midnightblue" d="M115.54,-109.3C134.9,-112.53 158.23,-115.69 179.89,-118.06"/>
<polygon fill="midnightblue" stroke="midnightblue" points="115.96,-105.82 105.51,-107.55 114.76,-112.71 115.96,-105.82"/>
</g>
<!-- Node6 -->
<g id="node6" class="node">
<title>Node6</title>
<g id="a_node6"><a xlink:href="classGazeboYarpPlugins_1_1Color.html" target="_top" xlink:title=" ">
<polygon fill="none" stroke="black" points="191.5,-61 191.5,-91 306.5,-91 306.5,-61 191.5,-61"/>
<text text-anchor="start" x="199.5" y="-79" font-family="FreeSans.ttf" font-size="10.00">GazeboYarpPlugins::</text>
<text text-anchor="middle" x="249" y="-68" font-family="FreeSans.ttf" font-size="10.00">Color</text>
</a>
</g>
</g>
<!-- Node4&#45;&gt;Node6 -->
<g id="edge10" class="edge">
<title>Node4&#45;&gt;Node6</title>
<path fill="none" stroke="midnightblue" d="M115.58,-86.7C138.4,-82.89 166.73,-79.18 191.31,-76.75"/>
<polygon fill="midnightblue" stroke="midnightblue" points="114.76,-83.29 105.51,-88.45 115.96,-90.18 114.76,-83.29"/>
</g>
<!-- Node4&#45;&gt;Node6 -->
<g id="edge11" class="edge">
<title>Node4&#45;&gt;Node6</title>
<path fill="none" stroke="midnightblue" d="M153.33,-94.6C166.15,-93.06 179.15,-91.31 191.26,-89.47"/>
<polygon fill="midnightblue" stroke="midnightblue" points="152.65,-91.15 143.12,-95.78 153.46,-98.11 152.65,-91.15"/>
</g>
<!-- Node7 -->
<g id="node7" class="node">
<title>Node7</title>
<g id="a_node7"><a xlink:href="classGazeboYarpPlugins_1_1WorldInterfaceServer__makeBox__helper_1_1Reply.html" target="_top" xlink:title=" ">
<polygon fill="none" stroke="black" points="180.5,-0.5 180.5,-41.5 317.5,-41.5 317.5,-0.5 180.5,-0.5"/>
<text text-anchor="start" x="188.5" y="-29.5" font-family="FreeSans.ttf" font-size="10.00">GazeboYarpPlugins::</text>
<text text-anchor="start" x="188.5" y="-18.5" font-family="FreeSans.ttf" font-size="10.00">WorldInterfaceServer</text>
<text text-anchor="middle" x="249" y="-7.5" font-family="FreeSans.ttf" font-size="10.00">_makeBox_helper::Reply</text>
</a>
</g>
</g>
<!-- Node4&#45;&gt;Node7 -->
<g id="edge13" class="edge">
<title>Node4&#45;&gt;Node7</title>
<path fill="none" stroke="midnightblue" d="M94.61,-83.64C117.54,-71.68 154.43,-54.89 186.28,-41.6"/>
<polygon fill="midnightblue" stroke="midnightblue" points="92.84,-80.62 85.69,-88.44 96.15,-86.78 92.84,-80.62"/>
</g>
<!-- Node4&#45;&gt;Node7 -->
<g id="edge14" class="edge">
<title>Node4&#45;&gt;Node7</title>
<path fill="none" stroke="midnightblue" d="M116.17,-84.77C146.25,-72.8 185.66,-55.36 213.53,-41.62"/>
<polygon fill="midnightblue" stroke="midnightblue" points="114.79,-81.55 106.75,-88.45 117.34,-88.07 114.79,-81.55"/>
</g>
<!-- Node5&#45;&gt;Node3 -->
<g id="edge6" class="edge">
<title>Node5&#45;&gt;Node3</title>
<path fill="none" stroke="#9a32cd" stroke-dasharray="5,2" d="M328.32,-120C345.73,-120 364.19,-120 381.64,-120"/>
<polygon fill="#9a32cd" stroke="#9a32cd" points="328.21,-116.5 318.21,-120 328.21,-123.5 328.21,-116.5"/>
<text text-anchor="middle" x="350" y="-123" font-family="FreeSans.ttf" font-size="10.00"> pose</text>
</g>
<!-- Node6&#45;&gt;Node3 -->
<g id="edge9" class="edge">
<title>Node6&#45;&gt;Node3</title>
<path fill="none" stroke="#9a32cd" stroke-dasharray="5,2" d="M316.5,-89.87C337.19,-94.18 360.22,-98.98 381.69,-103.46"/>
<polygon fill="#9a32cd" stroke="#9a32cd" points="317.05,-86.41 306.54,-87.79 315.62,-93.26 317.05,-86.41"/>
<text text-anchor="middle" x="350" y="-102" font-family="FreeSans.ttf" font-size="10.00"> color</text>
</g>
<!-- Node7&#45;&gt;Node1 -->
<g id="edge12" class="edge">
<title>Node7&#45;&gt;Node1</title>
<path fill="none" stroke="#9a32cd" stroke-dasharray="5,2" d="M327.79,-29.94C387.64,-38.36 471.71,-53.57 542,-79 573.31,-90.33 606.39,-108.9 629.78,-123.29"/>
<polygon fill="#9a32cd" stroke="#9a32cd" points="328.04,-26.44 317.66,-28.55 327.09,-33.38 328.04,-26.44"/>
<text text-anchor="middle" x="462" y="-82" font-family="FreeSans.ttf" font-size="10.00"> reply</text>
</g>
</g>
</svg>
