<?xml version="1.0" encoding="UTF-8" standalone="no"?>
<!DOCTYPE svg PUBLIC "-//W3C//DTD SVG 1.1//EN"
 "http://www.w3.org/Graphics/SVG/1.1/DTD/svg11.dtd">
<!-- Generated by graphviz version 5.0.1 (20220821.0811)
 -->
<!-- Title: GazeboYarpPlugins::ClockServer_stepSimulation_helper Pages: 1 -->
<svg width="560pt" height="148pt"
 viewBox="0.00 0.00 560.00 148.00" xmlns="http://www.w3.org/2000/svg" xmlns:xlink="http://www.w3.org/1999/xlink">
<g id="graph0" class="graph" transform="scale(1 1) rotate(0) translate(4 144)">
<title>GazeboYarpPlugins::ClockServer_stepSimulation_helper</title>
<!-- Node1 -->
<g id="node1" class="node">
<title>Node1</title>
<g id="a_node1"><a xlink:title=" ">
<polygon fill="#bfbfbf" stroke="black" points="398,-86.5 398,-127.5 552,-127.5 552,-86.5 398,-86.5"/>
<text text-anchor="start" x="406" y="-115.5" font-family="FreeSans.ttf" font-size="10.00">GazeboYarpPlugins::</text>
<text text-anchor="start" x="406" y="-104.5" font-family="FreeSans.ttf" font-size="10.00">ClockServer_stepSimulation</text>
<text text-anchor="middle" x="475" y="-93.5" font-family="FreeSans.ttf" font-size="10.00">_helper</text>
</a>
</g>
</g>
<!-- Node2 -->
<g id="node2" class="node">
<title>Node2</title>
<g id="a_node2"><a xlink:title=" ">
<polygon fill="none" stroke="black" points="206,-120.5 206,-139.5 308,-139.5 308,-120.5 206,-120.5"/>
<text text-anchor="middle" x="257" y="-127.5" font-family="FreeSans.ttf" font-size="10.00">yarp::os::Portable</text>
</a>
</g>
</g>
<!-- Node2&#45;&gt;Node1 -->
<g id="edge1" class="edge">
<title>Node2&#45;&gt;Node1</title>
<path fill="none" stroke="midnightblue" d="M307.36,-118.97C334.05,-115.14 367.59,-111.33 397.58,-108.65"/>
<polygon fill="midnightblue" stroke="midnightblue" points="306.49,-115.56 297.12,-120.49 307.52,-122.48 306.49,-115.56"/>
</g>
<!-- Node2&#45;&gt;Node1 -->
<g id="edge2" class="edge">
<title>Node2&#45;&gt;Node1</title>
<path fill="none" stroke="midnightblue" d="M318.39,-129.7C343.05,-127.76 371.85,-124.81 397.92,-121.58"/>
<polygon fill="midnightblue" stroke="midnightblue" points="317.81,-126.23 308.1,-130.47 318.33,-133.21 317.81,-126.23"/>
</g>
<!-- Node3 -->
<g id="node3" class="node">
<title>Node3</title>
<g id="a_node3"><a xlink:href="classGazeboYarpPlugins_1_1ClockServer__stepSimulation__helper_1_1Command.html" target="_top" xlink:title=" ">
<polygon fill="none" stroke="black" points="180,-60.5 180,-101.5 334,-101.5 334,-60.5 180,-60.5"/>
<text text-anchor="start" x="188" y="-89.5" font-family="FreeSans.ttf" font-size="10.00">GazeboYarpPlugins::</text>
<text text-anchor="start" x="188" y="-78.5" font-family="FreeSans.ttf" font-size="10.00">ClockServer_stepSimulation</text>
<text text-anchor="middle" x="257" y="-67.5" font-family="FreeSans.ttf" font-size="10.00">_helper::Command</text>
</a>
</g>
</g>
<!-- Node3&#45;&gt;Node1 -->
<g id="edge3" class="edge">
<title>Node3&#45;&gt;Node1</title>
<path fill="none" stroke="#9a32cd" stroke-dasharray="5,2" d="M344.44,-91.4C362.09,-93.53 380.54,-95.75 397.81,-97.83"/>
<polygon fill="#9a32cd" stroke="#9a32cd" points="344.5,-87.89 334.15,-90.17 343.66,-94.84 344.5,-87.89"/>
<text text-anchor="middle" x="366" y="-98" font-family="FreeSans.ttf" font-size="10.00"> cmd</text>
</g>
<!-- Node4 -->
<g id="node4" class="node">
<title>Node4</title>
<g id="a_node4"><a xlink:title=" ">
<polygon fill="none" stroke="black" points="0,-40.5 0,-59.5 143,-59.5 143,-40.5 0,-40.5"/>
<text text-anchor="middle" x="71.5" y="-47.5" font-family="FreeSans.ttf" font-size="10.00">yarp::os::idl::WirePortable</text>
</a>
</g>
</g>
<!-- Node4&#45;&gt;Node3 -->
<g id="edge4" class="edge">
<title>Node4&#45;&gt;Node3</title>
<path fill="none" stroke="midnightblue" d="M153.14,-56.92C162.02,-58.35 171.04,-59.89 179.87,-61.48"/>
<polygon fill="midnightblue" stroke="midnightblue" points="153.61,-53.45 143.18,-55.35 152.52,-60.36 153.61,-53.45"/>
</g>
<!-- Node4&#45;&gt;Node3 -->
<g id="edge5" class="edge">
<title>Node4&#45;&gt;Node3</title>
<path fill="none" stroke="midnightblue" d="M109.34,-61.76C129.62,-66.21 155.58,-70.97 179.99,-74.82"/>
<polygon fill="midnightblue" stroke="midnightblue" points="110.1,-58.34 99.58,-59.53 108.55,-65.17 110.1,-58.34"/>
</g>
<!-- Node5 -->
<g id="node5" class="node">
<title>Node5</title>
<g id="a_node5"><a xlink:href="classGazeboYarpPlugins_1_1ClockServer__stepSimulation__helper_1_1Reply.html" target="_top" xlink:title=" ">
<polygon fill="none" stroke="black" points="180,-0.5 180,-41.5 334,-41.5 334,-0.5 180,-0.5"/>
<text text-anchor="start" x="188" y="-29.5" font-family="FreeSans.ttf" font-size="10.00">GazeboYarpPlugins::</text>
<text text-anchor="start" x="188" y="-18.5" font-family="FreeSans.ttf" font-size="10.00">ClockServer_stepSimulation</text>
<text text-anchor="middle" x="257" y="-7.5" font-family="FreeSans.ttf" font-size="10.00">_helper::Reply</text>
</a>
</g>
</g>
<!-- Node4&#45;&gt;Node5 -->
<g id="edge7" class="edge">
<title>Node4&#45;&gt;Node5</title>
<path fill="none" stroke="midnightblue" d="M110.72,-38.36C130.72,-34.22 155.94,-29.88 179.73,-26.39"/>
<polygon fill="midnightblue" stroke="midnightblue" points="109.81,-34.97 100.77,-40.5 111.28,-41.82 109.81,-34.97"/>
</g>
<!-- Node4&#45;&gt;Node5 -->
<g id="edge8" class="edge">
<title>Node4&#45;&gt;Node5</title>
<path fill="none" stroke="midnightblue" d="M153.14,-43.96C162.02,-42.63 171.04,-41.19 179.87,-39.69"/>
<polygon fill="midnightblue" stroke="midnightblue" points="152.57,-40.51 143.18,-45.42 153.58,-47.43 152.57,-40.51"/>
</g>
<!-- Node5&#45;&gt;Node1 -->
<g id="edge6" class="edge">
<title>Node5&#45;&gt;Node1</title>
<path fill="none" stroke="#9a32cd" stroke-dasharray="5,2" d="M319.67,-45.32C324.52,-47.24 329.34,-49.15 334,-51 363.44,-62.7 396.32,-75.85 422.82,-86.46"/>
<polygon fill="#9a32cd" stroke="#9a32cd" points="320.93,-42.05 310.34,-41.63 318.35,-48.56 320.93,-42.05"/>
<text text-anchor="middle" x="366" y="-70" font-family="FreeSans.ttf" font-size="10.00"> reply</text>
</g>
</g>
</svg>
