<?xml version="1.0" encoding="UTF-8" standalone="no"?>
<!DOCTYPE svg PUBLIC "-//W3C//DTD SVG 1.1//EN"
 "http://www.w3.org/Graphics/SVG/1.1/DTD/svg11.dtd">
<!-- Generated by graphviz version 5.0.0 (20220707.2338)
 -->
<!-- Title: GazeboYarpPlugins::WorldInterfaceServer_makeCylinder_helper::Command Pages: 1 -->
<svg width="358pt" height="196pt"
 viewBox="0.00 0.00 358.00 196.00" xmlns="http://www.w3.org/2000/svg" xmlns:xlink="http://www.w3.org/1999/xlink">
<g id="graph0" class="graph" transform="scale(1 1) rotate(0) translate(4 192)">
<title>GazeboYarpPlugins::WorldInterfaceServer_makeCylinder_helper::Command</title>
<!-- Node1 -->
<g id="node1" class="node">
<title>Node1</title>
<g id="a_node1"><a xlink:title=" ">
<polygon fill="#bfbfbf" stroke="black" points="0,-0.5 0,-52.5 125,-52.5 125,-0.5 0,-0.5"/>
<text text-anchor="start" x="8" y="-40.5" font-family="FreeSans.ttf" font-size="10.00">GazeboYarpPlugins::</text>
<text text-anchor="start" x="8" y="-29.5" font-family="FreeSans.ttf" font-size="10.00">WorldInterfaceServer</text>
<text text-anchor="start" x="8" y="-18.5" font-family="FreeSans.ttf" font-size="10.00">_makeCylinder_helper</text>
<text text-anchor="middle" x="62.5" y="-7.5" font-family="FreeSans.ttf" font-size="10.00">::Command</text>
</a>
</g>
</g>
<!-- Node2 -->
<g id="node2" class="node">
<title>Node2</title>
<g id="a_node2"><a xlink:title=" ">
<polygon fill="none" stroke="black" points="76,-168.5 76,-187.5 219,-187.5 219,-168.5 76,-168.5"/>
<text text-anchor="middle" x="147.5" y="-175.5" font-family="FreeSans.ttf" font-size="10.00">yarp::os::idl::WirePortable</text>
</a>
</g>
</g>
<!-- Node2&#45;&gt;Node1 -->
<g id="edge1" class="edge">
<title>Node2&#45;&gt;Node1</title>
<path fill="none" stroke="midnightblue" d="M103.19,-164.58C86.8,-157.3 70.02,-146.44 60.5,-131 46.03,-107.55 46.36,-75.16 50.88,-52.89"/>
<polygon fill="midnightblue" stroke="midnightblue" points="102.15,-167.94 112.73,-168.46 104.78,-161.45 102.15,-167.94"/>
</g>
<!-- Node2&#45;&gt;Node1 -->
<g id="edge2" class="edge">
<title>Node2&#45;&gt;Node1</title>
<path fill="none" stroke="midnightblue" d="M118.71,-164.17C104.18,-156.89 87.84,-146.15 78.5,-131 64.03,-107.55 64.36,-75.16 65.04,-52.89"/>
<polygon fill="midnightblue" stroke="midnightblue" points="117.37,-167.4 127.91,-168.46 120.33,-161.06 117.37,-167.4"/>
</g>
<!-- Node3 -->
<g id="node3" class="node">
<title>Node3</title>
<g id="a_node3"><a xlink:href="classGazeboYarpPlugins_1_1Pose.html" target="_top" xlink:title=" ">
<polygon fill="none" stroke="black" points="78.5,-106 78.5,-125 216.5,-125 216.5,-106 78.5,-106"/>
<text text-anchor="middle" x="147.5" y="-113" font-family="FreeSans.ttf" font-size="10.00">GazeboYarpPlugins::Pose</text>
</a>
</g>
</g>
<!-- Node2&#45;&gt;Node3 -->
<g id="edge4" class="edge">
<title>Node2&#45;&gt;Node3</title>
<path fill="none" stroke="midnightblue" d="M141.21,-158.35C140.29,-147.28 140.75,-133.77 142.6,-125.15"/>
<polygon fill="midnightblue" stroke="midnightblue" points="137.76,-158.91 142.6,-168.33 144.69,-157.95 137.76,-158.91"/>
</g>
<!-- Node2&#45;&gt;Node3 -->
<g id="edge5" class="edge">
<title>Node2&#45;&gt;Node3</title>
<path fill="none" stroke="midnightblue" d="M153.79,-158.35C154.71,-147.28 154.25,-133.77 152.4,-125.15"/>
<polygon fill="midnightblue" stroke="midnightblue" points="150.31,-157.95 152.4,-168.33 157.24,-158.91 150.31,-157.95"/>
</g>
<!-- Node4 -->
<g id="node4" class="node">
<title>Node4</title>
<g id="a_node4"><a xlink:href="classGazeboYarpPlugins_1_1Color.html" target="_top" xlink:title=" ">
<polygon fill="none" stroke="black" points="235,-100.5 235,-130.5 350,-130.5 350,-100.5 235,-100.5"/>
<text text-anchor="start" x="243" y="-118.5" font-family="FreeSans.ttf" font-size="10.00">GazeboYarpPlugins::</text>
<text text-anchor="middle" x="292.5" y="-107.5" font-family="FreeSans.ttf" font-size="10.00">Color</text>
</a>
</g>
</g>
<!-- Node2&#45;&gt;Node4 -->
<g id="edge7" class="edge">
<title>Node2&#45;&gt;Node4</title>
<path fill="none" stroke="midnightblue" d="M172.49,-164.22C194.67,-154.37 227.24,-140.76 252.93,-130.59"/>
<polygon fill="midnightblue" stroke="midnightblue" points="170.77,-161.16 163.09,-168.46 173.65,-167.54 170.77,-161.16"/>
</g>
<!-- Node2&#45;&gt;Node4 -->
<g id="edge8" class="edge">
<title>Node2&#45;&gt;Node4</title>
<path fill="none" stroke="midnightblue" d="M182.4,-164.75C207.61,-154.86 241.07,-140.94 264.54,-130.59"/>
<polygon fill="midnightblue" stroke="midnightblue" points="180.9,-161.58 172.84,-168.46 183.43,-168.11 180.9,-161.58"/>
</g>
<!-- Node3&#45;&gt;Node1 -->
<g id="edge3" class="edge">
<title>Node3&#45;&gt;Node1</title>
<path fill="none" stroke="#9a32cd" stroke-dasharray="5,2" d="M132,-98.63C119.45,-85.79 101.55,-67.47 87.05,-52.63"/>
<polygon fill="#9a32cd" stroke="#9a32cd" points="129.55,-101.13 139.04,-105.84 134.55,-96.24 129.55,-101.13"/>
<text text-anchor="middle" x="129" y="-74" font-family="FreeSans.ttf" font-size="10.00"> pose</text>
</g>
<!-- Node4&#45;&gt;Node1 -->
<g id="edge6" class="edge">
<title>Node4&#45;&gt;Node1</title>
<path fill="none" stroke="#9a32cd" stroke-dasharray="5,2" d="M245.86,-96.86C211.13,-83.72 163.34,-65.64 125.26,-51.24"/>
<polygon fill="#9a32cd" stroke="#9a32cd" points="244.7,-100.16 255.29,-100.43 247.18,-93.61 244.7,-100.16"/>
<text text-anchor="middle" x="218.5" y="-74" font-family="FreeSans.ttf" font-size="10.00"> color</text>
</g>
</g>
</svg>
