<?xml version="1.0" encoding="UTF-8" standalone="no"?>
<!DOCTYPE svg PUBLIC "-//W3C//DTD SVG 1.1//EN"
 "http://www.w3.org/Graphics/SVG/1.1/DTD/svg11.dtd">
<!-- Generated by graphviz version 5.0.1 (20220821.0811)
 -->
<!-- Title: GazeboYarpPlugins::ClockServer_stepSimulation_helper::Reply Pages: 1 -->
<svg width="162pt" height="106pt"
 viewBox="0.00 0.00 162.00 106.00" xmlns="http://www.w3.org/2000/svg" xmlns:xlink="http://www.w3.org/1999/xlink">
<g id="graph0" class="graph" transform="scale(1 1) rotate(0) translate(4 102)">
<title>GazeboYarpPlugins::ClockServer_stepSimulation_helper::Reply</title>
<!-- Node1 -->
<g id="node1" class="node">
<title>Node1</title>
<g id="a_node1"><a xlink:title=" ">
<polygon fill="#bfbfbf" stroke="black" points="0,-0.5 0,-41.5 154,-41.5 154,-0.5 0,-0.5"/>
<text text-anchor="start" x="8" y="-29.5" font-family="FreeSans.ttf" font-size="10.00">GazeboYarpPlugins::</text>
<text text-anchor="start" x="8" y="-18.5" font-family="FreeSans.ttf" font-size="10.00">ClockServer_stepSimulation</text>
<text text-anchor="middle" x="77" y="-7.5" font-family="FreeSans.ttf" font-size="10.00">_helper::Reply</text>
</a>
</g>
</g>
<!-- Node2 -->
<g id="node2" class="node">
<title>Node2</title>
<g id="a_node2"><a xlink:title=" ">
<polygon fill="none" stroke="black" points="5.5,-78.5 5.5,-97.5 148.5,-97.5 148.5,-78.5 5.5,-78.5"/>
<text text-anchor="middle" x="77" y="-85.5" font-family="FreeSans.ttf" font-size="10.00">yarp::os::idl::WirePortable</text>
</a>
</g>
</g>
<!-- Node2&#45;&gt;Node1 -->
<g id="edge1" class="edge">
<title>Node2&#45;&gt;Node1</title>
<path fill="none" stroke="midnightblue" d="M70.82,-68.32C70.08,-59.93 70.06,-50.03 70.75,-41.54"/>
<polygon fill="midnightblue" stroke="midnightblue" points="67.36,-68.82 72.21,-78.23 74.29,-67.85 67.36,-68.82"/>
</g>
<!-- Node2&#45;&gt;Node1 -->
<g id="edge2" class="edge">
<title>Node2&#45;&gt;Node1</title>
<path fill="none" stroke="midnightblue" d="M83.18,-68.32C83.92,-59.93 83.94,-50.03 83.25,-41.54"/>
<polygon fill="midnightblue" stroke="midnightblue" points="79.71,-67.85 81.79,-78.23 86.64,-68.82 79.71,-67.85"/>
</g>
</g>
</svg>
