<?xml version="1.0" encoding="UTF-8" standalone="no"?>
<!DOCTYPE svg PUBLIC "-//W3C//DTD SVG 1.1//EN"
 "http://www.w3.org/Graphics/SVG/1.1/DTD/svg11.dtd">
<!-- Generated by graphviz version 5.0.0 (20220707.2338)
 -->
<!-- Title: GazeboYarpPlugins::ClockServer_getStepSize_helper Pages: 1 -->
<svg width="528pt" height="148pt"
 viewBox="0.00 0.00 528.00 148.00" xmlns="http://www.w3.org/2000/svg" xmlns:xlink="http://www.w3.org/1999/xlink">
<g id="graph0" class="graph" transform="scale(1 1) rotate(0) translate(4 144)">
<title>GazeboYarpPlugins::ClockServer_getStepSize_helper</title>
<!-- Node1 -->
<g id="node1" class="node">
<title>Node1</title>
<g id="a_node1"><a xlink:title=" ">
<polygon fill="#bfbfbf" stroke="black" points="382,-86.5 382,-127.5 520,-127.5 520,-86.5 382,-86.5"/>
<text text-anchor="start" x="390" y="-115.5" font-family="FreeSans.ttf" font-size="10.00">GazeboYarpPlugins::</text>
<text text-anchor="start" x="390" y="-104.5" font-family="FreeSans.ttf" font-size="10.00">ClockServer_getStepSize</text>
<text text-anchor="middle" x="451" y="-93.5" font-family="FreeSans.ttf" font-size="10.00">_helper</text>
</a>
</g>
</g>
<!-- Node2 -->
<g id="node2" class="node">
<title>Node2</title>
<g id="a_node2"><a xlink:title=" ">
<polygon fill="none" stroke="black" points="198,-120.5 198,-139.5 300,-139.5 300,-120.5 198,-120.5"/>
<text text-anchor="middle" x="249" y="-127.5" font-family="FreeSans.ttf" font-size="10.00">yarp::os::Portable</text>
</a>
</g>
</g>
<!-- Node2&#45;&gt;Node1 -->
<g id="edge1" class="edge">
<title>Node2&#45;&gt;Node1</title>
<path fill="none" stroke="midnightblue" d="M296.3,-118.88C321.64,-114.97 353.54,-111.08 381.69,-108.42"/>
<polygon fill="midnightblue" stroke="midnightblue" points="295.54,-115.46 286.22,-120.49 296.65,-122.37 295.54,-115.46"/>
</g>
<!-- Node2&#45;&gt;Node1 -->
<g id="edge2" class="edge">
<title>Node2&#45;&gt;Node1</title>
<path fill="none" stroke="midnightblue" d="M310.3,-129.32C332.78,-127.33 358.47,-124.43 381.63,-121.3"/>
<polygon fill="midnightblue" stroke="midnightblue" points="309.88,-125.84 300.21,-130.17 310.47,-132.82 309.88,-125.84"/>
</g>
<!-- Node3 -->
<g id="node3" class="node">
<title>Node3</title>
<g id="a_node3"><a xlink:href="classGazeboYarpPlugins_1_1ClockServer__getStepSize__helper_1_1Command.html" target="_top" xlink:title=" ">
<polygon fill="none" stroke="black" points="180,-60.5 180,-101.5 318,-101.5 318,-60.5 180,-60.5"/>
<text text-anchor="start" x="188" y="-89.5" font-family="FreeSans.ttf" font-size="10.00">GazeboYarpPlugins::</text>
<text text-anchor="start" x="188" y="-78.5" font-family="FreeSans.ttf" font-size="10.00">ClockServer_getStepSize</text>
<text text-anchor="middle" x="249" y="-67.5" font-family="FreeSans.ttf" font-size="10.00">_helper::Command</text>
</a>
</g>
</g>
<!-- Node3&#45;&gt;Node1 -->
<g id="edge3" class="edge">
<title>Node3&#45;&gt;Node1</title>
<path fill="none" stroke="#9a32cd" stroke-dasharray="5,2" d="M328.49,-91.2C346.07,-93.49 364.58,-95.89 381.7,-98.12"/>
<polygon fill="#9a32cd" stroke="#9a32cd" points="328.64,-87.69 318.27,-89.88 327.73,-94.64 328.64,-87.69"/>
<text text-anchor="middle" x="350" y="-98" font-family="FreeSans.ttf" font-size="10.00"> cmd</text>
</g>
<!-- Node4 -->
<g id="node4" class="node">
<title>Node4</title>
<g id="a_node4"><a xlink:title=" ">
<polygon fill="none" stroke="black" points="0,-40.5 0,-59.5 143,-59.5 143,-40.5 0,-40.5"/>
<text text-anchor="middle" x="71.5" y="-47.5" font-family="FreeSans.ttf" font-size="10.00">yarp::os::idl::WirePortable</text>
</a>
</g>
</g>
<!-- Node4&#45;&gt;Node3 -->
<g id="edge4" class="edge">
<title>Node4&#45;&gt;Node3</title>
<path fill="none" stroke="midnightblue" d="M153.13,-57.51C162.04,-59.04 171.06,-60.67 179.8,-62.35"/>
<polygon fill="midnightblue" stroke="midnightblue" points="153.56,-54.04 143.12,-55.84 152.41,-60.94 153.56,-54.04"/>
</g>
<!-- Node4&#45;&gt;Node3 -->
<g id="edge5" class="edge">
<title>Node4&#45;&gt;Node3</title>
<path fill="none" stroke="midnightblue" d="M108.29,-61.88C128.89,-66.6 155.47,-71.64 179.9,-75.57"/>
<polygon fill="midnightblue" stroke="midnightblue" points="108.93,-58.44 98.4,-59.53 107.31,-65.25 108.93,-58.44"/>
</g>
<!-- Node5 -->
<g id="node5" class="node">
<title>Node5</title>
<g id="a_node5"><a xlink:href="classGazeboYarpPlugins_1_1ClockServer__getStepSize__helper_1_1Reply.html" target="_top" xlink:title=" ">
<polygon fill="none" stroke="black" points="180,-0.5 180,-41.5 318,-41.5 318,-0.5 180,-0.5"/>
<text text-anchor="start" x="188" y="-29.5" font-family="FreeSans.ttf" font-size="10.00">GazeboYarpPlugins::</text>
<text text-anchor="start" x="188" y="-18.5" font-family="FreeSans.ttf" font-size="10.00">ClockServer_getStepSize</text>
<text text-anchor="middle" x="249" y="-7.5" font-family="FreeSans.ttf" font-size="10.00">_helper::Reply</text>
</a>
</g>
</g>
<!-- Node4&#45;&gt;Node5 -->
<g id="edge7" class="edge">
<title>Node4&#45;&gt;Node5</title>
<path fill="none" stroke="midnightblue" d="M109.39,-38.28C129.86,-33.87 155.97,-29.23 179.99,-25.64"/>
<polygon fill="midnightblue" stroke="midnightblue" points="108.53,-34.89 99.54,-40.5 110.06,-41.72 108.53,-34.89"/>
</g>
<!-- Node4&#45;&gt;Node5 -->
<g id="edge8" class="edge">
<title>Node4&#45;&gt;Node5</title>
<path fill="none" stroke="midnightblue" d="M153.13,-43.41C162.04,-41.98 171.06,-40.45 179.8,-38.87"/>
<polygon fill="midnightblue" stroke="midnightblue" points="152.47,-39.97 143.12,-44.96 153.54,-46.88 152.47,-39.97"/>
</g>
<!-- Node5&#45;&gt;Node1 -->
<g id="edge6" class="edge">
<title>Node5&#45;&gt;Node1</title>
<path fill="none" stroke="#9a32cd" stroke-dasharray="5,2" d="M307.4,-45.68C337.4,-58.58 373.68,-74.18 402.14,-86.42"/>
<polygon fill="#9a32cd" stroke="#9a32cd" points="308.47,-42.33 297.9,-41.6 305.71,-48.76 308.47,-42.33"/>
<text text-anchor="middle" x="350" y="-72" font-family="FreeSans.ttf" font-size="10.00"> reply</text>
</g>
</g>
</svg>
