<?xml version="1.0" encoding="UTF-8" standalone="no"?>
<!DOCTYPE svg PUBLIC "-//W3C//DTD SVG 1.1//EN"
 "http://www.w3.org/Graphics/SVG/1.1/DTD/svg11.dtd">
<!-- Generated by graphviz version 5.0.1 (20220821.0811)
 -->
<!-- Title: GazeboYarpPlugins::WorldInterfaceServer_makeBox_helper::Command Pages: 1 -->
<svg width="168pt" height="106pt"
 viewBox="0.00 0.00 168.00 106.00" xmlns="http://www.w3.org/2000/svg" xmlns:xlink="http://www.w3.org/1999/xlink">
<g id="graph0" class="graph" transform="scale(1 1) rotate(0) translate(4 102)">
<title>GazeboYarpPlugins::WorldInterfaceServer_makeBox_helper::Command</title>
<!-- Node1 -->
<g id="node1" class="node">
<title>Node1</title>
<g id="a_node1"><a xlink:title=" ">
<polygon fill="#bfbfbf" stroke="black" points="0,-0.5 0,-41.5 160,-41.5 160,-0.5 0,-0.5"/>
<text text-anchor="start" x="8" y="-29.5" font-family="FreeSans.ttf" font-size="10.00">GazeboYarpPlugins::</text>
<text text-anchor="start" x="8" y="-18.5" font-family="FreeSans.ttf" font-size="10.00">WorldInterfaceServer</text>
<text text-anchor="middle" x="80" y="-7.5" font-family="FreeSans.ttf" font-size="10.00">_makeBox_helper::Command</text>
</a>
</g>
</g>
<!-- Node2 -->
<g id="node2" class="node">
<title>Node2</title>
<g id="a_node2"><a xlink:title=" ">
<polygon fill="none" stroke="black" points="8.5,-78.5 8.5,-97.5 151.5,-97.5 151.5,-78.5 8.5,-78.5"/>
<text text-anchor="middle" x="80" y="-85.5" font-family="FreeSans.ttf" font-size="10.00">yarp::os::idl::WirePortable</text>
</a>
</g>
</g>
<!-- Node2&#45;&gt;Node1 -->
<g id="edge1" class="edge">
<title>Node2&#45;&gt;Node1</title>
<path fill="none" stroke="midnightblue" d="M73.82,-68.32C73.08,-59.93 73.06,-50.03 73.75,-41.54"/>
<polygon fill="midnightblue" stroke="midnightblue" points="70.36,-68.82 75.21,-78.23 77.29,-67.85 70.36,-68.82"/>
</g>
<!-- Node2&#45;&gt;Node1 -->
<g id="edge2" class="edge">
<title>Node2&#45;&gt;Node1</title>
<path fill="none" stroke="midnightblue" d="M86.18,-68.32C86.92,-59.93 86.94,-50.03 86.25,-41.54"/>
<polygon fill="midnightblue" stroke="midnightblue" points="82.71,-67.85 84.79,-78.23 89.64,-68.82 82.71,-67.85"/>
</g>
</g>
</svg>
