<?xml version="1.0" encoding="UTF-8" standalone="no"?>
<!DOCTYPE svg PUBLIC "-//W3C//DTD SVG 1.1//EN"
 "http://www.w3.org/Graphics/SVG/1.1/DTD/svg11.dtd">
<!-- Generated by graphviz version 2.43.0 (0)
 -->
<!-- Title: BaseCouplingHandler Pages: 1 -->
<svg width="310pt" height="306pt"
 viewBox="0.00 0.00 310.00 306.00" xmlns="http://www.w3.org/2000/svg" xmlns:xlink="http://www.w3.org/1999/xlink">
<g id="graph0" class="graph" transform="scale(1 1) rotate(0) translate(4 302)">
<title>BaseCouplingHandler</title>
<!-- Node1 -->
<g id="node1" class="node">
<title>Node1</title>
<g id="a_node1"><a xlink:title=" ">
<polygon fill="#bfbfbf" stroke="black" points="0,-133.5 0,-152.5 122,-152.5 122,-133.5 0,-133.5"/>
<text text-anchor="middle" x="61" y="-140.5" font-family="FreeSans.ttf" font-size="10.00">BaseCouplingHandler</text>
</a>
</g>
</g>
<!-- Node2 -->
<g id="node2" class="node">
<title>Node2</title>
<g id="a_node2"><a xlink:href="classCerHandCouplingHandler.html" target="_top" xlink:title=" ">
<polygon fill="none" stroke="black" points="160,-278.5 160,-297.5 300,-297.5 300,-278.5 160,-278.5"/>
<text text-anchor="middle" x="230" y="-285.5" font-family="FreeSans.ttf" font-size="10.00">CerHandCouplingHandler</text>
</a>
</g>
</g>
<!-- Node1&#45;&gt;Node2 -->
<g id="edge1" class="edge">
<title>Node1&#45;&gt;Node2</title>
<path fill="none" stroke="midnightblue" d="M71.08,-161.65C85.55,-189.38 116.5,-241.18 158,-269 163.83,-272.91 170.43,-276.01 177.2,-278.48"/>
<polygon fill="midnightblue" stroke="midnightblue" points="74.14,-159.96 66.51,-152.62 67.9,-163.12 74.14,-159.96"/>
</g>
<!-- Node3 -->
<g id="node3" class="node">
<title>Node3</title>
<g id="a_node3"><a xlink:href="classEyesCouplingHandler.html" target="_top" xlink:title=" ">
<polygon fill="none" stroke="black" points="169.5,-240.5 169.5,-259.5 290.5,-259.5 290.5,-240.5 169.5,-240.5"/>
<text text-anchor="middle" x="230" y="-247.5" font-family="FreeSans.ttf" font-size="10.00">EyesCouplingHandler</text>
</a>
</g>
</g>
<!-- Node1&#45;&gt;Node3 -->
<g id="edge2" class="edge">
<title>Node1&#45;&gt;Node3</title>
<path fill="none" stroke="midnightblue" d="M76.16,-160.26C93.44,-180.21 124.52,-212.64 158,-231 165.05,-234.87 172.93,-237.98 180.8,-240.48"/>
<polygon fill="midnightblue" stroke="midnightblue" points="78.76,-157.92 69.63,-152.55 73.42,-162.45 78.76,-157.92"/>
</g>
<!-- Node4 -->
<g id="node4" class="node">
<title>Node4</title>
<g id="a_node4"><a xlink:href="classFingersAbductionCouplingHandler.html" target="_top" xlink:title=" ">
<polygon fill="none" stroke="black" points="158.5,-191 158.5,-221 301.5,-221 301.5,-191 158.5,-191"/>
<text text-anchor="start" x="166.5" y="-209" font-family="FreeSans.ttf" font-size="10.00">FingersAbductionCoupling</text>
<text text-anchor="middle" x="230" y="-198" font-family="FreeSans.ttf" font-size="10.00">Handler</text>
</a>
</g>
</g>
<!-- Node1&#45;&gt;Node4 -->
<g id="edge3" class="edge">
<title>Node1&#45;&gt;Node4</title>
<path fill="none" stroke="midnightblue" d="M95,-156.42C113.46,-163.84 136.94,-173.13 158,-181 166.81,-184.29 176.29,-187.71 185.35,-190.93"/>
<polygon fill="midnightblue" stroke="midnightblue" points="96.16,-153.12 85.57,-152.62 93.54,-159.61 96.16,-153.12"/>
</g>
<!-- Node5 -->
<g id="node5" class="node">
<title>Node5</title>
<g id="a_node5"><a xlink:href="classHandMk3CouplingHandler.html" target="_top" xlink:title=" ">
<polygon fill="none" stroke="black" points="158,-152.5 158,-171.5 302,-171.5 302,-152.5 158,-152.5"/>
<text text-anchor="middle" x="230" y="-159.5" font-family="FreeSans.ttf" font-size="10.00">HandMk3CouplingHandler</text>
</a>
</g>
</g>
<!-- Node1&#45;&gt;Node5 -->
<g id="edge4" class="edge">
<title>Node1&#45;&gt;Node5</title>
<path fill="none" stroke="midnightblue" d="M132.48,-151.02C140.92,-151.98 149.54,-152.96 158,-153.92"/>
<polygon fill="midnightblue" stroke="midnightblue" points="132.62,-147.51 122.29,-149.86 131.83,-154.47 132.62,-147.51"/>
</g>
<!-- Node6 -->
<g id="node6" class="node">
<title>Node6</title>
<g id="a_node6"><a xlink:href="classIndexCouplingHandler.html" target="_top" xlink:title=" ">
<polygon fill="none" stroke="black" points="167.5,-114.5 167.5,-133.5 292.5,-133.5 292.5,-114.5 167.5,-114.5"/>
<text text-anchor="middle" x="230" y="-121.5" font-family="FreeSans.ttf" font-size="10.00">IndexCouplingHandler</text>
</a>
</g>
</g>
<!-- Node1&#45;&gt;Node6 -->
<g id="edge5" class="edge">
<title>Node1&#45;&gt;Node6</title>
<path fill="none" stroke="midnightblue" d="M132.4,-134.99C144.03,-133.67 156,-132.31 167.39,-131.01"/>
<polygon fill="midnightblue" stroke="midnightblue" points="131.83,-131.53 122.29,-136.14 132.62,-138.49 131.83,-131.53"/>
</g>
<!-- Node7 -->
<g id="node7" class="node">
<title>Node7</title>
<g id="a_node7"><a xlink:href="classMiddleCouplingHandler.html" target="_top" xlink:title=" ">
<polygon fill="none" stroke="black" points="164.5,-76.5 164.5,-95.5 295.5,-95.5 295.5,-76.5 164.5,-76.5"/>
<text text-anchor="middle" x="230" y="-83.5" font-family="FreeSans.ttf" font-size="10.00">MiddleCouplingHandler</text>
</a>
</g>
</g>
<!-- Node1&#45;&gt;Node7 -->
<g id="edge6" class="edge">
<title>Node1&#45;&gt;Node7</title>
<path fill="none" stroke="midnightblue" d="M93.66,-129.4C112.22,-121.7 136.22,-112.2 158,-105 168.3,-101.6 179.59,-98.36 190.07,-95.55"/>
<polygon fill="midnightblue" stroke="midnightblue" points="92.1,-126.26 84.23,-133.35 94.81,-132.71 92.1,-126.26"/>
</g>
<!-- Node8 -->
<g id="node8" class="node">
<title>Node8</title>
<g id="a_node8"><a xlink:href="classPinkyCouplingHandler.html" target="_top" xlink:title=" ">
<polygon fill="none" stroke="black" points="168,-38.5 168,-57.5 292,-57.5 292,-38.5 168,-38.5"/>
<text text-anchor="middle" x="230" y="-45.5" font-family="FreeSans.ttf" font-size="10.00">PinkyCouplingHandler</text>
</a>
</g>
</g>
<!-- Node1&#45;&gt;Node8 -->
<g id="edge7" class="edge">
<title>Node1&#45;&gt;Node8</title>
<path fill="none" stroke="midnightblue" d="M78.82,-126.09C96.9,-108.84 127.2,-82.48 158,-67 165.64,-63.16 174.14,-60.03 182.54,-57.5"/>
<polygon fill="midnightblue" stroke="midnightblue" points="76.14,-123.82 71.42,-133.3 81.03,-128.83 76.14,-123.82"/>
</g>
<!-- Node9 -->
<g id="node9" class="node">
<title>Node9</title>
<g id="a_node9"><a xlink:href="classThumbCouplingHandler.html" target="_top" xlink:title=" ">
<polygon fill="none" stroke="black" points="164.5,-0.5 164.5,-19.5 295.5,-19.5 295.5,-0.5 164.5,-0.5"/>
<text text-anchor="middle" x="230" y="-7.5" font-family="FreeSans.ttf" font-size="10.00">ThumbCouplingHandler</text>
</a>
</g>
</g>
<!-- Node1&#45;&gt;Node9 -->
<g id="edge8" class="edge">
<title>Node1&#45;&gt;Node9</title>
<path fill="none" stroke="midnightblue" d="M72.42,-124.68C87.82,-99.29 119.08,-53.74 158,-29 164.14,-25.1 171.06,-21.99 178.12,-19.52"/>
<polygon fill="midnightblue" stroke="midnightblue" points="69.38,-122.95 67.31,-133.34 75.41,-126.5 69.38,-122.95"/>
</g>
</g>
</svg>
