<?xml version="1.0" encoding="UTF-8" standalone="no"?>
<!DOCTYPE svg PUBLIC "-//W3C//DTD SVG 1.1//EN"
 "http://www.w3.org/Graphics/SVG/1.1/DTD/svg11.dtd">
<!-- Generated by graphviz version 5.0.0 (20220707.2338)
 -->
<!-- Title: GazeboYarpPlugins::WorldInterfaceServer_getPose_helper Pages: 1 -->
<svg width="760pt" height="171pt"
 viewBox="0.00 0.00 760.00 171.00" xmlns="http://www.w3.org/2000/svg" xmlns:xlink="http://www.w3.org/1999/xlink">
<g id="graph0" class="graph" transform="scale(1 1) rotate(0) translate(4 167)">
<title>GazeboYarpPlugins::WorldInterfaceServer_getPose_helper</title>
<!-- Node1 -->
<g id="node1" class="node">
<title>Node1</title>
<g id="a_node1"><a xlink:title=" ">
<polygon fill="#bfbfbf" stroke="black" points="633,-110.5 633,-151.5 752,-151.5 752,-110.5 633,-110.5"/>
<text text-anchor="start" x="641" y="-139.5" font-family="FreeSans.ttf" font-size="10.00">GazeboYarpPlugins::</text>
<text text-anchor="start" x="641" y="-128.5" font-family="FreeSans.ttf" font-size="10.00">WorldInterfaceServer</text>
<text text-anchor="middle" x="692.5" y="-117.5" font-family="FreeSans.ttf" font-size="10.00">_getPose_helper</text>
</a>
</g>
</g>
<!-- Node2 -->
<g id="node2" class="node">
<title>Node2</title>
<g id="a_node2"><a xlink:title=" ">
<polygon fill="none" stroke="black" points="452.5,-143.5 452.5,-162.5 554.5,-162.5 554.5,-143.5 452.5,-143.5"/>
<text text-anchor="middle" x="503.5" y="-150.5" font-family="FreeSans.ttf" font-size="10.00">yarp::os::Portable</text>
</a>
</g>
</g>
<!-- Node2&#45;&gt;Node1 -->
<g id="edge1" class="edge">
<title>Node2&#45;&gt;Node1</title>
<path fill="none" stroke="midnightblue" d="M549.63,-141.82C574.65,-137.88 606.06,-134.03 632.96,-131.58"/>
<polygon fill="midnightblue" stroke="midnightblue" points="548.98,-138.38 539.67,-143.45 550.11,-145.29 548.98,-138.38"/>
</g>
<!-- Node2&#45;&gt;Node1 -->
<g id="edge2" class="edge">
<title>Node2&#45;&gt;Node1</title>
<path fill="none" stroke="midnightblue" d="M564.76,-152.27C586.62,-150.23 611.25,-147.32 632.96,-144.2"/>
<polygon fill="midnightblue" stroke="midnightblue" points="564.27,-148.8 554.61,-153.16 564.88,-155.77 564.27,-148.8"/>
</g>
<!-- Node3 -->
<g id="node3" class="node">
<title>Node3</title>
<g id="a_node3"><a xlink:href="classGazeboYarpPlugins_1_1WorldInterfaceServer__getPose__helper_1_1Command.html" target="_top" xlink:title=" ">
<polygon fill="none" stroke="black" points="180,-94.5 180,-135.5 333,-135.5 333,-94.5 180,-94.5"/>
<text text-anchor="start" x="188" y="-123.5" font-family="FreeSans.ttf" font-size="10.00">GazeboYarpPlugins::</text>
<text text-anchor="start" x="188" y="-112.5" font-family="FreeSans.ttf" font-size="10.00">WorldInterfaceServer</text>
<text text-anchor="middle" x="256.5" y="-101.5" font-family="FreeSans.ttf" font-size="10.00">_getPose_helper::Command</text>
</a>
</g>
</g>
<!-- Node3&#45;&gt;Node1 -->
<g id="edge3" class="edge">
<title>Node3&#45;&gt;Node1</title>
<path fill="none" stroke="#9a32cd" stroke-dasharray="5,2" d="M343.28,-116.29C405.87,-117.46 492.72,-119.53 569,-123 589.86,-123.95 612.71,-125.34 632.95,-126.7"/>
<polygon fill="#9a32cd" stroke="#9a32cd" points="343.13,-112.79 333.06,-116.11 343,-119.79 343.13,-112.79"/>
<text text-anchor="middle" x="503.5" y="-126" font-family="FreeSans.ttf" font-size="10.00"> cmd</text>
</g>
<!-- Node4 -->
<g id="node4" class="node">
<title>Node4</title>
<g id="a_node4"><a xlink:title=" ">
<polygon fill="none" stroke="black" points="0,-47.5 0,-66.5 143,-66.5 143,-47.5 0,-47.5"/>
<text text-anchor="middle" x="71.5" y="-54.5" font-family="FreeSans.ttf" font-size="10.00">yarp::os::idl::WirePortable</text>
</a>
</g>
</g>
<!-- Node4&#45;&gt;Node3 -->
<g id="edge4" class="edge">
<title>Node4&#45;&gt;Node3</title>
<path fill="none" stroke="midnightblue" d="M131.83,-69.44C156.99,-76.79 185.87,-86.08 209.4,-94.44"/>
<polygon fill="midnightblue" stroke="midnightblue" points="132.6,-66.02 122.02,-66.62 130.67,-72.75 132.6,-66.02"/>
</g>
<!-- Node4&#45;&gt;Node3 -->
<g id="edge5" class="edge">
<title>Node4&#45;&gt;Node3</title>
<path fill="none" stroke="midnightblue" d="M99.04,-70.33C120.29,-78.56 151.19,-88.93 179.93,-97.71"/>
<polygon fill="midnightblue" stroke="midnightblue" points="100.3,-67.07 89.72,-66.6 97.7,-73.57 100.3,-67.07"/>
</g>
<!-- Node5 -->
<g id="node5" class="node">
<title>Node5</title>
<g id="a_node5"><a xlink:href="classGazeboYarpPlugins_1_1WorldInterfaceServer__getPose__helper_1_1Reply.html" target="_top" xlink:title=" ">
<polygon fill="none" stroke="black" points="438,-36.5 438,-77.5 569,-77.5 569,-36.5 438,-36.5"/>
<text text-anchor="start" x="446" y="-65.5" font-family="FreeSans.ttf" font-size="10.00">GazeboYarpPlugins::</text>
<text text-anchor="start" x="446" y="-54.5" font-family="FreeSans.ttf" font-size="10.00">WorldInterfaceServer</text>
<text text-anchor="middle" x="503.5" y="-43.5" font-family="FreeSans.ttf" font-size="10.00">_getPose_helper::Reply</text>
</a>
</g>
</g>
<!-- Node4&#45;&gt;Node5 -->
<g id="edge7" class="edge">
<title>Node4&#45;&gt;Node5</title>
<path fill="none" stroke="midnightblue" d="M153.1,-51.6C235.5,-49.67 361.87,-49.81 437.92,-52.01"/>
<polygon fill="midnightblue" stroke="midnightblue" points="152.93,-48.1 143.02,-51.85 153.11,-55.1 152.93,-48.1"/>
</g>
<!-- Node4&#45;&gt;Node5 -->
<g id="edge8" class="edge">
<title>Node4&#45;&gt;Node5</title>
<path fill="none" stroke="midnightblue" d="M153.1,-62.4C235.5,-64.33 361.87,-64.19 437.92,-61.99"/>
<polygon fill="midnightblue" stroke="midnightblue" points="153.11,-58.9 143.02,-62.15 152.93,-65.9 153.11,-58.9"/>
</g>
<!-- Node6 -->
<g id="node6" class="node">
<title>Node6</title>
<g id="a_node6"><a xlink:href="classGazeboYarpPlugins_1_1Pose.html" target="_top" xlink:title=" ">
<polygon fill="none" stroke="black" points="187.5,-0.5 187.5,-19.5 325.5,-19.5 325.5,-0.5 187.5,-0.5"/>
<text text-anchor="middle" x="256.5" y="-7.5" font-family="FreeSans.ttf" font-size="10.00">GazeboYarpPlugins::Pose</text>
</a>
</g>
</g>
<!-- Node4&#45;&gt;Node6 -->
<g id="edge10" class="edge">
<title>Node4&#45;&gt;Node6</title>
<path fill="none" stroke="midnightblue" d="M102.24,-44.22C126.84,-36.35 162.59,-26.74 193.38,-19.52"/>
<polygon fill="midnightblue" stroke="midnightblue" points="100.82,-41.01 92.43,-47.48 103.03,-47.65 100.82,-41.01"/>
</g>
<!-- Node4&#45;&gt;Node6 -->
<g id="edge11" class="edge">
<title>Node4&#45;&gt;Node6</title>
<path fill="none" stroke="midnightblue" d="M144.71,-45.07C177.35,-37.15 213.42,-27.16 235.27,-19.63"/>
<polygon fill="midnightblue" stroke="midnightblue" points="143.63,-41.73 134.71,-47.46 145.25,-48.54 143.63,-41.73"/>
</g>
<!-- Node5&#45;&gt;Node1 -->
<g id="edge6" class="edge">
<title>Node5&#45;&gt;Node1</title>
<path fill="none" stroke="#9a32cd" stroke-dasharray="5,2" d="M578.78,-76.07C591.04,-79.91 603.49,-84.24 615,-89 629.42,-94.96 644.62,-102.93 657.64,-110.31"/>
<polygon fill="#9a32cd" stroke="#9a32cd" points="579.6,-72.66 569.01,-73.09 577.56,-79.35 579.6,-72.66"/>
<text text-anchor="middle" x="601" y="-92" font-family="FreeSans.ttf" font-size="10.00"> reply</text>
</g>
<!-- Node6&#45;&gt;Node5 -->
<g id="edge9" class="edge">
<title>Node6&#45;&gt;Node5</title>
<path fill="none" stroke="#9a32cd" stroke-dasharray="5,2" d="M335.98,-11.35C362.9,-13.11 393.03,-16.53 420,-23 433.26,-26.18 447.15,-31.19 459.67,-36.4"/>
<polygon fill="#9a32cd" stroke="#9a32cd" points="336.03,-7.85 325.84,-10.76 335.61,-14.84 336.03,-7.85"/>
<text text-anchor="middle" x="385.5" y="-26" font-family="FreeSans.ttf" font-size="10.00"> return_helper</text>
</g>
</g>
</svg>
