<?xml version="1.0" encoding="UTF-8" standalone="no"?>
<!DOCTYPE svg PUBLIC "-//W3C//DTD SVG 1.1//EN"
 "http://www.w3.org/Graphics/SVG/1.1/DTD/svg11.dtd">
<!-- Generated by graphviz version 2.43.0 (0)
 -->
<!-- Title: GazeboYarpPlugins::WorldInterfaceServer_loadModelFromFileWithPose_helper Pages: 1 -->
<svg width="269pt" height="185pt"
 viewBox="0.00 0.00 268.50 185.00" xmlns="http://www.w3.org/2000/svg" xmlns:xlink="http://www.w3.org/1999/xlink">
<g id="graph0" class="graph" transform="scale(1 1) rotate(0) translate(4 181)">
<title>GazeboYarpPlugins::WorldInterfaceServer_loadModelFromFileWithPose_helper</title>
<!-- Node1 -->
<g id="node1" class="node">
<title>Node1</title>
<g id="a_node1"><a xlink:title=" ">
<polygon fill="#bfbfbf" stroke="black" points="12.5,-0.5 12.5,-52.5 173.5,-52.5 173.5,-0.5 12.5,-0.5"/>
<text text-anchor="start" x="20.5" y="-40.5" font-family="FreeSans.ttf" font-size="10.00">GazeboYarpPlugins::</text>
<text text-anchor="start" x="20.5" y="-29.5" font-family="FreeSans.ttf" font-size="10.00">WorldInterfaceServer</text>
<text text-anchor="start" x="20.5" y="-18.5" font-family="FreeSans.ttf" font-size="10.00">_loadModelFromFileWithPose</text>
<text text-anchor="middle" x="93" y="-7.5" font-family="FreeSans.ttf" font-size="10.00">_helper</text>
</a>
</g>
</g>
<!-- Node2 -->
<g id="node2" class="node">
<title>Node2</title>
<g id="a_node2"><a xlink:title=" ">
<polygon fill="none" stroke="#bfbfbf" points="0,-100.5 0,-119.5 102,-119.5 102,-100.5 0,-100.5"/>
<text text-anchor="middle" x="51" y="-107.5" font-family="FreeSans.ttf" font-size="10.00">yarp::os::Portable</text>
</a>
</g>
</g>
<!-- Node2&#45;&gt;Node1 -->
<g id="edge1" class="edge">
<title>Node2&#45;&gt;Node1</title>
<path fill="none" stroke="midnightblue" d="M60.24,-91.08C66.03,-79.84 73.58,-65.18 79.98,-52.76"/>
<polygon fill="midnightblue" stroke="midnightblue" points="56.96,-89.79 55.49,-100.28 63.19,-92.99 56.96,-89.79"/>
</g>
<!-- Node3 -->
<g id="node3" class="node">
<title>Node3</title>
<g id="a_node3"><a xlink:href="classGazeboYarpPlugins_1_1Pose.html" target="_top" xlink:title=" ">
<polygon fill="none" stroke="black" points="120,-100.5 120,-119.5 258,-119.5 258,-100.5 120,-100.5"/>
<text text-anchor="middle" x="189" y="-107.5" font-family="FreeSans.ttf" font-size="10.00">GazeboYarpPlugins::Pose</text>
</a>
</g>
</g>
<!-- Node3&#45;&gt;Node1 -->
<g id="edge2" class="edge">
<title>Node3&#45;&gt;Node1</title>
<path fill="none" stroke="#9a32cd" stroke-dasharray="5,2" d="M171.05,-93.76C157.49,-82.25 138.57,-66.19 122.76,-52.76"/>
<polygon fill="#9a32cd" stroke="#9a32cd" points="168.84,-96.47 178.73,-100.28 173.37,-91.14 168.84,-96.47"/>
<text text-anchor="middle" x="176" y="-74" font-family="FreeSans.ttf" font-size="10.00"> m_pose</text>
</g>
<!-- Node4 -->
<g id="node4" class="node">
<title>Node4</title>
<g id="a_node4"><a xlink:title=" ">
<polygon fill="none" stroke="#bfbfbf" points="117.5,-157.5 117.5,-176.5 260.5,-176.5 260.5,-157.5 117.5,-157.5"/>
<text text-anchor="middle" x="189" y="-164.5" font-family="FreeSans.ttf" font-size="10.00">yarp::os::idl::WirePortable</text>
</a>
</g>
</g>
<!-- Node4&#45;&gt;Node3 -->
<g id="edge3" class="edge">
<title>Node4&#45;&gt;Node3</title>
<path fill="none" stroke="midnightblue" d="M182.58,-147.42C181.87,-138.05 182.31,-127.14 183.91,-119.71"/>
<polygon fill="midnightblue" stroke="midnightblue" points="179.12,-147.97 183.94,-157.41 186.05,-147.03 179.12,-147.97"/>
</g>
<!-- Node4&#45;&gt;Node3 -->
<g id="edge4" class="edge">
<title>Node4&#45;&gt;Node3</title>
<path fill="none" stroke="midnightblue" d="M195.42,-147.42C196.13,-138.05 195.69,-127.14 194.09,-119.71"/>
<polygon fill="midnightblue" stroke="midnightblue" points="191.95,-147.03 194.06,-157.41 198.88,-147.97 191.95,-147.03"/>
</g>
</g>
</svg>
