<?xml version="1.0" encoding="UTF-8" standalone="no"?>
<!DOCTYPE svg PUBLIC "-//W3C//DTD SVG 1.1//EN"
 "http://www.w3.org/Graphics/SVG/1.1/DTD/svg11.dtd">
<!-- Generated by graphviz version 5.0.1 (20220821.0811)
 -->
<!-- Title: GazeboYarpPlugins::WorldInterfaceServer_loadModelFromFile_helper::Reply Pages: 1 -->
<svg width="159pt" height="117pt"
 viewBox="0.00 0.00 159.00 117.00" xmlns="http://www.w3.org/2000/svg" xmlns:xlink="http://www.w3.org/1999/xlink">
<g id="graph0" class="graph" transform="scale(1 1) rotate(0) translate(4 113)">
<title>GazeboYarpPlugins::WorldInterfaceServer_loadModelFromFile_helper::Reply</title>
<!-- Node1 -->
<g id="node1" class="node">
<title>Node1</title>
<g id="a_node1"><a xlink:title=" ">
<polygon fill="#bfbfbf" stroke="black" points="0,-0.5 0,-52.5 151,-52.5 151,-0.5 0,-0.5"/>
<text text-anchor="start" x="8" y="-40.5" font-family="FreeSans.ttf" font-size="10.00">GazeboYarpPlugins::</text>
<text text-anchor="start" x="8" y="-29.5" font-family="FreeSans.ttf" font-size="10.00">WorldInterfaceServer</text>
<text text-anchor="start" x="8" y="-18.5" font-family="FreeSans.ttf" font-size="10.00">_loadModelFromFile_helper</text>
<text text-anchor="middle" x="75.5" y="-7.5" font-family="FreeSans.ttf" font-size="10.00">::Reply</text>
</a>
</g>
</g>
<!-- Node2 -->
<g id="node2" class="node">
<title>Node2</title>
<g id="a_node2"><a xlink:title=" ">
<polygon fill="none" stroke="black" points="4,-89.5 4,-108.5 147,-108.5 147,-89.5 4,-89.5"/>
<text text-anchor="middle" x="75.5" y="-96.5" font-family="FreeSans.ttf" font-size="10.00">yarp::os::idl::WirePortable</text>
</a>
</g>
</g>
<!-- Node2&#45;&gt;Node1 -->
<g id="edge1" class="edge">
<title>Node2&#45;&gt;Node1</title>
<path fill="none" stroke="midnightblue" d="M69.47,-79.38C68.7,-71.18 68.55,-61.43 69,-52.6"/>
<polygon fill="midnightblue" stroke="midnightblue" points="66.01,-79.95 70.89,-89.36 72.94,-78.96 66.01,-79.95"/>
</g>
<!-- Node2&#45;&gt;Node1 -->
<g id="edge2" class="edge">
<title>Node2&#45;&gt;Node1</title>
<path fill="none" stroke="midnightblue" d="M81.53,-79.38C82.3,-71.18 82.45,-61.43 82,-52.6"/>
<polygon fill="midnightblue" stroke="midnightblue" points="78.06,-78.96 80.11,-89.36 84.99,-79.95 78.06,-78.96"/>
</g>
</g>
</svg>
