<?xml version="1.0" encoding="UTF-8" standalone="no"?>
<!DOCTYPE svg PUBLIC "-//W3C//DTD SVG 1.1//EN"
 "http://www.w3.org/Graphics/SVG/1.1/DTD/svg11.dtd">
<!-- Generated by graphviz version 3.0.0 (20220315.2325)
 -->
<!-- Title: GazeboYarpPlugins::LinkAttacherServer_attachUnscoped_helper Pages: 1 -->
<svg width="640pt" height="148pt"
 viewBox="0.00 0.00 640.00 148.00" xmlns="http://www.w3.org/2000/svg" xmlns:xlink="http://www.w3.org/1999/xlink">
<g id="graph0" class="graph" transform="scale(1 1) rotate(0) translate(4 144)">
<title>GazeboYarpPlugins::LinkAttacherServer_attachUnscoped_helper</title>
<!-- Node1 -->
<g id="node1" class="node">
<title>Node1</title>
<g id="a_node1"><a xlink:title=" ">
<polygon fill="#bfbfbf" stroke="black" points="438,-86.5 438,-127.5 632,-127.5 632,-86.5 438,-86.5"/>
<text text-anchor="start" x="446" y="-115.5" font-family="FreeSans.ttf" font-size="10.00">GazeboYarpPlugins::</text>
<text text-anchor="start" x="446" y="-104.5" font-family="FreeSans.ttf" font-size="10.00">LinkAttacherServer_attachUnscoped</text>
<text text-anchor="middle" x="535" y="-93.5" font-family="FreeSans.ttf" font-size="10.00">_helper</text>
</a>
</g>
</g>
<!-- Node2 -->
<g id="node2" class="node">
<title>Node2</title>
<g id="a_node2"><a xlink:title=" ">
<polygon fill="none" stroke="black" points="226,-120.5 226,-139.5 328,-139.5 328,-120.5 226,-120.5"/>
<text text-anchor="middle" x="277" y="-127.5" font-family="FreeSans.ttf" font-size="10.00">yarp::os::Portable</text>
</a>
</g>
</g>
<!-- Node2&#45;&gt;Node1 -->
<g id="edge1" class="edge">
<title>Node2&#45;&gt;Node1</title>
<path fill="none" stroke="midnightblue" d="M334.33,-119.23C364.69,-115.51 402.97,-111.79 437.88,-109.08"/>
<polygon fill="midnightblue" stroke="midnightblue" points="333.84,-115.77 324.36,-120.49 334.72,-122.71 333.84,-115.77"/>
</g>
<!-- Node2&#45;&gt;Node1 -->
<g id="edge2" class="edge">
<title>Node2&#45;&gt;Node1</title>
<path fill="none" stroke="midnightblue" d="M338.47,-130.4C368.15,-128.62 404.61,-125.59 437.98,-122.19"/>
<polygon fill="midnightblue" stroke="midnightblue" points="338.06,-126.92 328.27,-130.98 338.45,-133.91 338.06,-126.92"/>
</g>
<!-- Node3 -->
<g id="node3" class="node">
<title>Node3</title>
<g id="a_node3"><a xlink:href="classGazeboYarpPlugins_1_1LinkAttacherServer__attachUnscoped__helper_1_1Command.html" target="_top" xlink:title=" ">
<polygon fill="none" stroke="black" points="180,-60.5 180,-101.5 374,-101.5 374,-60.5 180,-60.5"/>
<text text-anchor="start" x="188" y="-89.5" font-family="FreeSans.ttf" font-size="10.00">GazeboYarpPlugins::</text>
<text text-anchor="start" x="188" y="-78.5" font-family="FreeSans.ttf" font-size="10.00">LinkAttacherServer_attachUnscoped</text>
<text text-anchor="middle" x="277" y="-67.5" font-family="FreeSans.ttf" font-size="10.00">_helper::Command</text>
</a>
</g>
</g>
<!-- Node3&#45;&gt;Node1 -->
<g id="edge3" class="edge">
<title>Node3&#45;&gt;Node1</title>
<path fill="none" stroke="#9a32cd" stroke-dasharray="5,2" d="M384.41,-91.81C402.12,-93.61 420.4,-95.46 437.83,-97.23"/>
<polygon fill="#9a32cd" stroke="#9a32cd" points="384.36,-88.28 374.05,-90.76 383.65,-95.25 384.36,-88.28"/>
<text text-anchor="middle" x="406" y="-97" font-family="FreeSans.ttf" font-size="10.00"> cmd</text>
</g>
<!-- Node4 -->
<g id="node4" class="node">
<title>Node4</title>
<g id="a_node4"><a xlink:title=" ">
<polygon fill="none" stroke="black" points="0,-40.5 0,-59.5 143,-59.5 143,-40.5 0,-40.5"/>
<text text-anchor="middle" x="71.5" y="-47.5" font-family="FreeSans.ttf" font-size="10.00">yarp::os::idl::WirePortable</text>
</a>
</g>
</g>
<!-- Node4&#45;&gt;Node3 -->
<g id="edge4" class="edge">
<title>Node4&#45;&gt;Node3</title>
<path fill="none" stroke="midnightblue" d="M153.16,-55.67C163.77,-57.15 174.69,-58.78 185.45,-60.49"/>
<polygon fill="midnightblue" stroke="midnightblue" points="153.48,-52.18 143.1,-54.29 152.54,-59.12 153.48,-52.18"/>
</g>
<!-- Node4&#45;&gt;Node3 -->
<g id="edge5" class="edge">
<title>Node4&#45;&gt;Node3</title>
<path fill="none" stroke="midnightblue" d="M112.45,-61.58C131.77,-65.43 155.87,-69.52 179.59,-73.05"/>
<polygon fill="midnightblue" stroke="midnightblue" points="113.03,-58.12 102.53,-59.53 111.61,-64.98 113.03,-58.12"/>
</g>
<!-- Node5 -->
<g id="node5" class="node">
<title>Node5</title>
<g id="a_node5"><a xlink:href="classGazeboYarpPlugins_1_1LinkAttacherServer__attachUnscoped__helper_1_1Reply.html" target="_top" xlink:title=" ">
<polygon fill="none" stroke="black" points="180,-0.5 180,-41.5 374,-41.5 374,-0.5 180,-0.5"/>
<text text-anchor="start" x="188" y="-29.5" font-family="FreeSans.ttf" font-size="10.00">GazeboYarpPlugins::</text>
<text text-anchor="start" x="188" y="-18.5" font-family="FreeSans.ttf" font-size="10.00">LinkAttacherServer_attachUnscoped</text>
<text text-anchor="middle" x="277" y="-7.5" font-family="FreeSans.ttf" font-size="10.00">_helper::Reply</text>
</a>
</g>
</g>
<!-- Node4&#45;&gt;Node5 -->
<g id="edge7" class="edge">
<title>Node4&#45;&gt;Node5</title>
<path fill="none" stroke="midnightblue" d="M113.72,-38.58C132.88,-34.98 156.55,-31.21 179.83,-27.96"/>
<polygon fill="midnightblue" stroke="midnightblue" points="113,-35.15 103.85,-40.5 114.34,-42.02 113,-35.15"/>
</g>
<!-- Node4&#45;&gt;Node5 -->
<g id="edge8" class="edge">
<title>Node4&#45;&gt;Node5</title>
<path fill="none" stroke="midnightblue" d="M153.21,-45.12C161.92,-43.99 170.84,-42.76 179.71,-41.46"/>
<polygon fill="midnightblue" stroke="midnightblue" points="152.58,-41.67 143.1,-46.4 153.46,-48.61 152.58,-41.67"/>
</g>
<!-- Node5&#45;&gt;Node1 -->
<g id="edge6" class="edge">
<title>Node5&#45;&gt;Node1</title>
<path fill="none" stroke="#9a32cd" stroke-dasharray="5,2" d="M354.42,-44.63C361.05,-46.75 367.65,-48.9 374,-51 408.22,-62.33 446.33,-75.64 476.77,-86.44"/>
<polygon fill="#9a32cd" stroke="#9a32cd" points="355.3,-41.23 344.71,-41.53 353.18,-47.9 355.3,-41.23"/>
<text text-anchor="middle" x="406" y="-68" font-family="FreeSans.ttf" font-size="10.00"> reply</text>
</g>
</g>
</svg>
