<?xml version="1.0" encoding="UTF-8" standalone="no"?>
<!DOCTYPE svg PUBLIC "-//W3C//DTD SVG 1.1//EN"
 "http://www.w3.org/Graphics/SVG/1.1/DTD/svg11.dtd">
<!-- Generated by graphviz version 5.0.1 (20220821.0811)
 -->
<!-- Title: GazeboYarpPlugins::WorldInterfaceServer_setPose_helper::Command Pages: 1 -->
<svg width="259pt" height="174pt"
 viewBox="0.00 0.00 259.00 174.00" xmlns="http://www.w3.org/2000/svg" xmlns:xlink="http://www.w3.org/1999/xlink">
<g id="graph0" class="graph" transform="scale(1 1) rotate(0) translate(4 170)">
<title>GazeboYarpPlugins::WorldInterfaceServer_setPose_helper::Command</title>
<!-- Node1 -->
<g id="node1" class="node">
<title>Node1</title>
<g id="a_node1"><a xlink:title=" ">
<polygon fill="#bfbfbf" stroke="black" points="0,-0.5 0,-41.5 152,-41.5 152,-0.5 0,-0.5"/>
<text text-anchor="start" x="8" y="-29.5" font-family="FreeSans.ttf" font-size="10.00">GazeboYarpPlugins::</text>
<text text-anchor="start" x="8" y="-18.5" font-family="FreeSans.ttf" font-size="10.00">WorldInterfaceServer</text>
<text text-anchor="middle" x="76" y="-7.5" font-family="FreeSans.ttf" font-size="10.00">_setPose_helper::Command</text>
</a>
</g>
</g>
<!-- Node2 -->
<g id="node2" class="node">
<title>Node2</title>
<g id="a_node2"><a xlink:title=" ">
<polygon fill="none" stroke="black" points="25.5,-146.5 25.5,-165.5 168.5,-165.5 168.5,-146.5 25.5,-146.5"/>
<text text-anchor="middle" x="97" y="-153.5" font-family="FreeSans.ttf" font-size="10.00">yarp::os::idl::WirePortable</text>
</a>
</g>
</g>
<!-- Node2&#45;&gt;Node1 -->
<g id="edge1" class="edge">
<title>Node2&#45;&gt;Node1</title>
<path fill="none" stroke="midnightblue" d="M89.26,-136.62C82.83,-111.74 75.8,-67.51 74.16,-41.88"/>
<polygon fill="midnightblue" stroke="midnightblue" points="85.92,-137.64 92.06,-146.27 92.64,-135.69 85.92,-137.64"/>
</g>
<!-- Node2&#45;&gt;Node1 -->
<g id="edge2" class="edge">
<title>Node2&#45;&gt;Node1</title>
<path fill="none" stroke="midnightblue" d="M98.89,-135.95C97.38,-110.95 90.52,-67.28 84.12,-41.88"/>
<polygon fill="midnightblue" stroke="midnightblue" points="95.4,-136.38 99.18,-146.27 102.4,-136.18 95.4,-136.38"/>
</g>
<!-- Node3 -->
<g id="node3" class="node">
<title>Node3</title>
<g id="a_node3"><a xlink:href="classGazeboYarpPlugins_1_1Pose.html" target="_top" xlink:title=" ">
<polygon fill="none" stroke="black" points="113,-89.5 113,-108.5 251,-108.5 251,-89.5 113,-89.5"/>
<text text-anchor="middle" x="182" y="-96.5" font-family="FreeSans.ttf" font-size="10.00">GazeboYarpPlugins::Pose</text>
</a>
</g>
</g>
<!-- Node2&#45;&gt;Node3 -->
<g id="edge4" class="edge">
<title>Node2&#45;&gt;Node3</title>
<path fill="none" stroke="midnightblue" d="M113.33,-140.54C127.84,-130.35 148.7,-117.07 163.76,-108.53"/>
<polygon fill="midnightblue" stroke="midnightblue" points="111.27,-137.71 105.22,-146.41 115.37,-143.38 111.27,-137.71"/>
</g>
<!-- Node2&#45;&gt;Node3 -->
<g id="edge5" class="edge">
<title>Node2&#45;&gt;Node3</title>
<path fill="none" stroke="midnightblue" d="M124.36,-141.14C141.41,-130.96 162.03,-117.43 173.62,-108.71"/>
<polygon fill="midnightblue" stroke="midnightblue" points="122.22,-138.34 115.34,-146.41 125.74,-144.39 122.22,-138.34"/>
</g>
<!-- Node3&#45;&gt;Node1 -->
<g id="edge3" class="edge">
<title>Node3&#45;&gt;Node1</title>
<path fill="none" stroke="#9a32cd" stroke-dasharray="5,2" d="M161.44,-83.26C144.91,-71.41 121.54,-54.65 103.42,-41.66"/>
<polygon fill="#9a32cd" stroke="#9a32cd" points="159.67,-86.3 169.84,-89.28 163.75,-80.61 159.67,-86.3"/>
<text text-anchor="middle" x="154.5" y="-63" font-family="FreeSans.ttf" font-size="10.00"> pose</text>
</g>
</g>
</svg>
