<?xml version="1.0" encoding="UTF-8" standalone="no"?>
<!DOCTYPE svg PUBLIC "-//W3C//DTD SVG 1.1//EN"
 "http://www.w3.org/Graphics/SVG/1.1/DTD/svg11.dtd">
<!-- Generated by graphviz version 2.43.0 (0)
 -->
<!-- Title: GazeboYarpPlugins::WorldInterfaceServer_setPose_helper Pages: 1 -->
<svg width="269pt" height="174pt"
 viewBox="0.00 0.00 268.50 174.00" xmlns="http://www.w3.org/2000/svg" xmlns:xlink="http://www.w3.org/1999/xlink">
<g id="graph0" class="graph" transform="scale(1 1) rotate(0) translate(4 170)">
<title>GazeboYarpPlugins::WorldInterfaceServer_setPose_helper</title>
<!-- Node1 -->
<g id="node1" class="node">
<title>Node1</title>
<g id="a_node1"><a xlink:title=" ">
<polygon fill="#bfbfbf" stroke="black" points="33.5,-0.5 33.5,-41.5 152.5,-41.5 152.5,-0.5 33.5,-0.5"/>
<text text-anchor="start" x="41.5" y="-29.5" font-family="FreeSans.ttf" font-size="10.00">GazeboYarpPlugins::</text>
<text text-anchor="start" x="41.5" y="-18.5" font-family="FreeSans.ttf" font-size="10.00">WorldInterfaceServer</text>
<text text-anchor="middle" x="93" y="-7.5" font-family="FreeSans.ttf" font-size="10.00">_setPose_helper</text>
</a>
</g>
</g>
<!-- Node2 -->
<g id="node2" class="node">
<title>Node2</title>
<g id="a_node2"><a xlink:title=" ">
<polygon fill="none" stroke="#bfbfbf" points="0,-89.5 0,-108.5 102,-108.5 102,-89.5 0,-89.5"/>
<text text-anchor="middle" x="51" y="-96.5" font-family="FreeSans.ttf" font-size="10.00">yarp::os::Portable</text>
</a>
</g>
</g>
<!-- Node2&#45;&gt;Node1 -->
<g id="edge1" class="edge">
<title>Node2&#45;&gt;Node1</title>
<path fill="none" stroke="midnightblue" d="M60.84,-80.2C67.23,-68.64 75.55,-53.57 82.14,-41.66"/>
<polygon fill="midnightblue" stroke="midnightblue" points="57.59,-78.84 55.82,-89.28 63.72,-82.22 57.59,-78.84"/>
</g>
<!-- Node3 -->
<g id="node3" class="node">
<title>Node3</title>
<g id="a_node3"><a xlink:href="classGazeboYarpPlugins_1_1Pose.html" target="_top" xlink:title=" ">
<polygon fill="none" stroke="black" points="120,-89.5 120,-108.5 258,-108.5 258,-89.5 120,-89.5"/>
<text text-anchor="middle" x="189" y="-96.5" font-family="FreeSans.ttf" font-size="10.00">GazeboYarpPlugins::Pose</text>
</a>
</g>
</g>
<!-- Node3&#45;&gt;Node1 -->
<g id="edge2" class="edge">
<title>Node3&#45;&gt;Node1</title>
<path fill="none" stroke="#9a32cd" stroke-dasharray="5,2" d="M169.96,-82.93C155.02,-71.1 134.09,-54.53 117.83,-41.66"/>
<polygon fill="#9a32cd" stroke="#9a32cd" points="167.97,-85.82 177.99,-89.28 172.32,-80.33 167.97,-85.82"/>
<text text-anchor="middle" x="173" y="-63" font-family="FreeSans.ttf" font-size="10.00"> m_pose</text>
</g>
<!-- Node4 -->
<g id="node4" class="node">
<title>Node4</title>
<g id="a_node4"><a xlink:title=" ">
<polygon fill="none" stroke="#bfbfbf" points="117.5,-146.5 117.5,-165.5 260.5,-165.5 260.5,-146.5 117.5,-146.5"/>
<text text-anchor="middle" x="189" y="-153.5" font-family="FreeSans.ttf" font-size="10.00">yarp::os::idl::WirePortable</text>
</a>
</g>
</g>
<!-- Node4&#45;&gt;Node3 -->
<g id="edge3" class="edge">
<title>Node4&#45;&gt;Node3</title>
<path fill="none" stroke="midnightblue" d="M182.58,-136.42C181.87,-127.05 182.31,-116.14 183.91,-108.71"/>
<polygon fill="midnightblue" stroke="midnightblue" points="179.12,-136.97 183.94,-146.41 186.05,-136.03 179.12,-136.97"/>
</g>
<!-- Node4&#45;&gt;Node3 -->
<g id="edge4" class="edge">
<title>Node4&#45;&gt;Node3</title>
<path fill="none" stroke="midnightblue" d="M195.42,-136.42C196.13,-127.05 195.69,-116.14 194.09,-108.71"/>
<polygon fill="midnightblue" stroke="midnightblue" points="191.95,-136.03 194.06,-146.41 198.88,-136.97 191.95,-136.03"/>
</g>
</g>
</svg>
