<?xml version="1.0" encoding="UTF-8" standalone="no"?>
<!DOCTYPE svg PUBLIC "-//W3C//DTD SVG 1.1//EN"
 "http://www.w3.org/Graphics/SVG/1.1/DTD/svg11.dtd">
<!-- Generated by graphviz version 5.0.0 (20220707.2338)
 -->
<!-- Title: GazeboYarpPlugins::ClockServer_pauseSimulation_helper Pages: 1 -->
<svg width="170pt" height="106pt"
 viewBox="0.00 0.00 170.00 106.00" xmlns="http://www.w3.org/2000/svg" xmlns:xlink="http://www.w3.org/1999/xlink">
<g id="graph0" class="graph" transform="scale(1 1) rotate(0) translate(4 102)">
<title>GazeboYarpPlugins::ClockServer_pauseSimulation_helper</title>
<!-- Node1 -->
<g id="node1" class="node">
<title>Node1</title>
<g id="a_node1"><a xlink:title=" ">
<polygon fill="#bfbfbf" stroke="black" points="0,-0.5 0,-41.5 162,-41.5 162,-0.5 0,-0.5"/>
<text text-anchor="start" x="8" y="-29.5" font-family="FreeSans.ttf" font-size="10.00">GazeboYarpPlugins::</text>
<text text-anchor="start" x="8" y="-18.5" font-family="FreeSans.ttf" font-size="10.00">ClockServer_pauseSimulation</text>
<text text-anchor="middle" x="81" y="-7.5" font-family="FreeSans.ttf" font-size="10.00">_helper</text>
</a>
</g>
</g>
<!-- Node2 -->
<g id="node2" class="node">
<title>Node2</title>
<g id="a_node2"><a xlink:title=" ">
<polygon fill="none" stroke="black" points="30,-78.5 30,-97.5 132,-97.5 132,-78.5 30,-78.5"/>
<text text-anchor="middle" x="81" y="-85.5" font-family="FreeSans.ttf" font-size="10.00">yarp::os::Portable</text>
</a>
</g>
</g>
<!-- Node2&#45;&gt;Node1 -->
<g id="edge1" class="edge">
<title>Node2&#45;&gt;Node1</title>
<path fill="none" stroke="midnightblue" d="M74.82,-68.32C74.08,-59.93 74.06,-50.03 74.75,-41.54"/>
<polygon fill="midnightblue" stroke="midnightblue" points="71.36,-68.82 76.21,-78.23 78.29,-67.85 71.36,-68.82"/>
</g>
<!-- Node2&#45;&gt;Node1 -->
<g id="edge2" class="edge">
<title>Node2&#45;&gt;Node1</title>
<path fill="none" stroke="midnightblue" d="M87.18,-68.32C87.92,-59.93 87.94,-50.03 87.25,-41.54"/>
<polygon fill="midnightblue" stroke="midnightblue" points="83.71,-67.85 85.79,-78.23 90.64,-68.82 83.71,-67.85"/>
</g>
</g>
</svg>
