<?xml version="1.0" encoding="UTF-8" standalone="no"?>
<!DOCTYPE svg PUBLIC "-//W3C//DTD SVG 1.1//EN"
 "http://www.w3.org/Graphics/SVG/1.1/DTD/svg11.dtd">
<!-- Generated by graphviz version 5.0.1 (20220821.0811)
 -->
<!-- Title: GazeboYarpPlugins::WorldInterfaceServer_setPose_helper Pages: 1 -->
<svg width="721pt" height="168pt"
 viewBox="0.00 0.00 721.00 168.00" xmlns="http://www.w3.org/2000/svg" xmlns:xlink="http://www.w3.org/1999/xlink">
<g id="graph0" class="graph" transform="scale(1 1) rotate(0) translate(4 164)">
<title>GazeboYarpPlugins::WorldInterfaceServer_setPose_helper</title>
<!-- Node1 -->
<g id="node1" class="node">
<title>Node1</title>
<g id="a_node1"><a xlink:title=" ">
<polygon fill="#bfbfbf" stroke="black" points="594,-106.5 594,-147.5 713,-147.5 713,-106.5 594,-106.5"/>
<text text-anchor="start" x="602" y="-135.5" font-family="FreeSans.ttf" font-size="10.00">GazeboYarpPlugins::</text>
<text text-anchor="start" x="602" y="-124.5" font-family="FreeSans.ttf" font-size="10.00">WorldInterfaceServer</text>
<text text-anchor="middle" x="653.5" y="-113.5" font-family="FreeSans.ttf" font-size="10.00">_setPose_helper</text>
</a>
</g>
</g>
<!-- Node2 -->
<g id="node2" class="node">
<title>Node2</title>
<g id="a_node2"><a xlink:title=" ">
<polygon fill="none" stroke="black" points="406,-140.5 406,-159.5 508,-159.5 508,-140.5 406,-140.5"/>
<text text-anchor="middle" x="457" y="-147.5" font-family="FreeSans.ttf" font-size="10.00">yarp::os::Portable</text>
</a>
</g>
</g>
<!-- Node2&#45;&gt;Node1 -->
<g id="edge1" class="edge">
<title>Node2&#45;&gt;Node1</title>
<path fill="none" stroke="midnightblue" d="M503.17,-138.85C530.18,-134.57 564.78,-130.33 593.88,-127.68"/>
<polygon fill="midnightblue" stroke="midnightblue" points="502.52,-135.42 493.22,-140.49 503.66,-142.32 502.52,-135.42"/>
</g>
<!-- Node2&#45;&gt;Node1 -->
<g id="edge2" class="edge">
<title>Node2&#45;&gt;Node1</title>
<path fill="none" stroke="midnightblue" d="M518.18,-149.18C542.3,-146.95 570,-143.66 593.95,-140.17"/>
<polygon fill="midnightblue" stroke="midnightblue" points="517.74,-145.7 508.09,-150.07 518.36,-152.68 517.74,-145.7"/>
</g>
<!-- Node3 -->
<g id="node3" class="node">
<title>Node3</title>
<g id="a_node3"><a xlink:href="classGazeboYarpPlugins_1_1WorldInterfaceServer__setPose__helper_1_1Command.html" target="_top" xlink:title=" ">
<polygon fill="none" stroke="black" points="381,-80.5 381,-121.5 533,-121.5 533,-80.5 381,-80.5"/>
<text text-anchor="start" x="389" y="-109.5" font-family="FreeSans.ttf" font-size="10.00">GazeboYarpPlugins::</text>
<text text-anchor="start" x="389" y="-98.5" font-family="FreeSans.ttf" font-size="10.00">WorldInterfaceServer</text>
<text text-anchor="middle" x="457" y="-87.5" font-family="FreeSans.ttf" font-size="10.00">_setPose_helper::Command</text>
</a>
</g>
</g>
<!-- Node3&#45;&gt;Node1 -->
<g id="edge3" class="edge">
<title>Node3&#45;&gt;Node1</title>
<path fill="none" stroke="#9a32cd" stroke-dasharray="5,2" d="M543.18,-112.39C560.26,-114.67 577.85,-117.02 593.78,-119.15"/>
<polygon fill="#9a32cd" stroke="#9a32cd" points="543.57,-108.91 533.2,-111.05 542.65,-115.85 543.57,-108.91"/>
<text text-anchor="middle" x="563.5" y="-119" font-family="FreeSans.ttf" font-size="10.00"> cmd</text>
</g>
<!-- Node4 -->
<g id="node4" class="node">
<title>Node4</title>
<g id="a_node4"><a xlink:title=" ">
<polygon fill="none" stroke="black" points="0,-60.5 0,-79.5 143,-79.5 143,-60.5 0,-60.5"/>
<text text-anchor="middle" x="71.5" y="-67.5" font-family="FreeSans.ttf" font-size="10.00">yarp::os::idl::WirePortable</text>
</a>
</g>
</g>
<!-- Node4&#45;&gt;Node3 -->
<g id="edge4" class="edge">
<title>Node4&#45;&gt;Node3</title>
<path fill="none" stroke="midnightblue" d="M146.48,-81.55C151.37,-82.49 156.24,-83.33 161,-84 235.19,-94.51 320.89,-95.62 380.74,-96.32"/>
<polygon fill="midnightblue" stroke="midnightblue" points="146.94,-78.08 136.44,-79.51 145.54,-84.94 146.94,-78.08"/>
</g>
<!-- Node4&#45;&gt;Node3 -->
<g id="edge5" class="edge">
<title>Node4&#45;&gt;Node3</title>
<path fill="none" stroke="midnightblue" d="M92.62,-83.74C110.38,-91.14 137.11,-98.62 161,-102 235.19,-112.51 320.89,-113.62 380.74,-110.96"/>
<polygon fill="midnightblue" stroke="midnightblue" points="94.06,-80.55 83.51,-79.55 91.13,-86.91 94.06,-80.55"/>
</g>
<!-- Node5 -->
<g id="node5" class="node">
<title>Node5</title>
<g id="a_node5"><a xlink:href="classGazeboYarpPlugins_1_1Pose.html" target="_top" xlink:title=" ">
<polygon fill="none" stroke="black" points="180,-60.5 180,-79.5 318,-79.5 318,-60.5 180,-60.5"/>
<text text-anchor="middle" x="249" y="-67.5" font-family="FreeSans.ttf" font-size="10.00">GazeboYarpPlugins::Pose</text>
</a>
</g>
</g>
<!-- Node4&#45;&gt;Node5 -->
<g id="edge7" class="edge">
<title>Node4&#45;&gt;Node5</title>
<path fill="none" stroke="midnightblue" d="M153.13,-63.27C162.04,-63.22 171.06,-63.26 179.8,-63.4"/>
<polygon fill="midnightblue" stroke="midnightblue" points="153.09,-59.77 143.12,-63.37 153.16,-66.77 153.09,-59.77"/>
</g>
<!-- Node4&#45;&gt;Node5 -->
<g id="edge8" class="edge">
<title>Node4&#45;&gt;Node5</title>
<path fill="none" stroke="midnightblue" d="M153.13,-76.73C162.04,-76.78 171.06,-76.74 179.8,-76.6"/>
<polygon fill="midnightblue" stroke="midnightblue" points="153.16,-73.23 143.12,-76.63 153.09,-80.23 153.16,-73.23"/>
</g>
<!-- Node6 -->
<g id="node6" class="node">
<title>Node6</title>
<g id="a_node6"><a xlink:href="classGazeboYarpPlugins_1_1WorldInterfaceServer__setPose__helper_1_1Reply.html" target="_top" xlink:title=" ">
<polygon fill="none" stroke="black" points="184,-0.5 184,-41.5 314,-41.5 314,-0.5 184,-0.5"/>
<text text-anchor="start" x="192" y="-29.5" font-family="FreeSans.ttf" font-size="10.00">GazeboYarpPlugins::</text>
<text text-anchor="start" x="192" y="-18.5" font-family="FreeSans.ttf" font-size="10.00">WorldInterfaceServer</text>
<text text-anchor="middle" x="249" y="-7.5" font-family="FreeSans.ttf" font-size="10.00">_setPose_helper::Reply</text>
</a>
</g>
</g>
<!-- Node4&#45;&gt;Node6 -->
<g id="edge10" class="edge">
<title>Node4&#45;&gt;Node6</title>
<path fill="none" stroke="midnightblue" d="M100.83,-56.96C123.22,-49.23 155.34,-39.8 183.86,-32.38"/>
<polygon fill="midnightblue" stroke="midnightblue" points="99.52,-53.72 91.28,-60.39 101.88,-60.31 99.52,-53.72"/>
</g>
<!-- Node4&#45;&gt;Node6 -->
<g id="edge11" class="edge">
<title>Node4&#45;&gt;Node6</title>
<path fill="none" stroke="midnightblue" d="M139.28,-57.93C158.29,-52.94 178.7,-47.12 196.64,-41.54"/>
<polygon fill="midnightblue" stroke="midnightblue" points="138.29,-54.57 129.48,-60.46 140.04,-61.35 138.29,-54.57"/>
</g>
<!-- Node5&#45;&gt;Node3 -->
<g id="edge6" class="edge">
<title>Node5&#45;&gt;Node3</title>
<path fill="none" stroke="#9a32cd" stroke-dasharray="5,2" d="M328.38,-78.23C340.01,-79.68 351.83,-81.28 363,-83 368.85,-83.9 374.9,-84.91 380.96,-85.97"/>
<polygon fill="#9a32cd" stroke="#9a32cd" points="328.58,-74.73 318.23,-77 327.74,-81.68 328.58,-74.73"/>
<text text-anchor="middle" x="349.5" y="-86" font-family="FreeSans.ttf" font-size="10.00"> pose</text>
</g>
<!-- Node6&#45;&gt;Node1 -->
<g id="edge9" class="edge">
<title>Node6&#45;&gt;Node1</title>
<path fill="none" stroke="#9a32cd" stroke-dasharray="5,2" d="M324.41,-23.68C382.51,-27.57 464.59,-37.03 533,-60 565.69,-70.98 599.69,-91.02 623.02,-106.33"/>
<polygon fill="#9a32cd" stroke="#9a32cd" points="324.41,-20.18 314.21,-23.04 323.97,-27.16 324.41,-20.18"/>
<text text-anchor="middle" x="457" y="-63" font-family="FreeSans.ttf" font-size="10.00"> reply</text>
</g>
</g>
</svg>
