<?xml version="1.0" encoding="UTF-8" standalone="no"?>
<!DOCTYPE svg PUBLIC "-//W3C//DTD SVG 1.1//EN"
 "http://www.w3.org/Graphics/SVG/1.1/DTD/svg11.dtd">
<!-- Generated by graphviz version 5.0.0 (20220707.2338)
 -->
<!-- Title: GazeboYarpPlugins::ClockServer_continueSimulation_helper Pages: 1 -->
<svg width="602pt" height="148pt"
 viewBox="0.00 0.00 602.00 148.00" xmlns="http://www.w3.org/2000/svg" xmlns:xlink="http://www.w3.org/1999/xlink">
<g id="graph0" class="graph" transform="scale(1 1) rotate(0) translate(4 144)">
<title>GazeboYarpPlugins::ClockServer_continueSimulation_helper</title>
<!-- Node1 -->
<g id="node1" class="node">
<title>Node1</title>
<g id="a_node1"><a xlink:title=" ">
<polygon fill="#bfbfbf" stroke="black" points="419,-86.5 419,-127.5 594,-127.5 594,-86.5 419,-86.5"/>
<text text-anchor="start" x="427" y="-115.5" font-family="FreeSans.ttf" font-size="10.00">GazeboYarpPlugins::</text>
<text text-anchor="start" x="427" y="-104.5" font-family="FreeSans.ttf" font-size="10.00">ClockServer_continueSimulation</text>
<text text-anchor="middle" x="506.5" y="-93.5" font-family="FreeSans.ttf" font-size="10.00">_helper</text>
</a>
</g>
</g>
<!-- Node2 -->
<g id="node2" class="node">
<title>Node2</title>
<g id="a_node2"><a xlink:title=" ">
<polygon fill="none" stroke="black" points="216.5,-120.5 216.5,-139.5 318.5,-139.5 318.5,-120.5 216.5,-120.5"/>
<text text-anchor="middle" x="267.5" y="-127.5" font-family="FreeSans.ttf" font-size="10.00">yarp::os::Portable</text>
</a>
</g>
</g>
<!-- Node2&#45;&gt;Node1 -->
<g id="edge1" class="edge">
<title>Node2&#45;&gt;Node1</title>
<path fill="none" stroke="midnightblue" d="M321.6,-119.11C350.19,-115.35 386.18,-111.59 418.72,-108.89"/>
<polygon fill="midnightblue" stroke="midnightblue" points="320.86,-115.68 311.42,-120.49 321.8,-122.61 320.86,-115.68"/>
</g>
<!-- Node2&#45;&gt;Node1 -->
<g id="edge2" class="edge">
<title>Node2&#45;&gt;Node1</title>
<path fill="none" stroke="midnightblue" d="M328.95,-130.11C356.26,-128.25 389.05,-125.25 418.91,-121.93"/>
<polygon fill="midnightblue" stroke="midnightblue" points="328.52,-126.63 318.76,-130.76 328.97,-133.61 328.52,-126.63"/>
</g>
<!-- Node3 -->
<g id="node3" class="node">
<title>Node3</title>
<g id="a_node3"><a xlink:href="classGazeboYarpPlugins_1_1ClockServer__continueSimulation__helper_1_1Command.html" target="_top" xlink:title=" ">
<polygon fill="none" stroke="black" points="180,-60.5 180,-101.5 355,-101.5 355,-60.5 180,-60.5"/>
<text text-anchor="start" x="188" y="-89.5" font-family="FreeSans.ttf" font-size="10.00">GazeboYarpPlugins::</text>
<text text-anchor="start" x="188" y="-78.5" font-family="FreeSans.ttf" font-size="10.00">ClockServer_continueSimulation</text>
<text text-anchor="middle" x="267.5" y="-67.5" font-family="FreeSans.ttf" font-size="10.00">_helper::Command</text>
</a>
</g>
</g>
<!-- Node3&#45;&gt;Node1 -->
<g id="edge3" class="edge">
<title>Node3&#45;&gt;Node1</title>
<path fill="none" stroke="#9a32cd" stroke-dasharray="5,2" d="M365.39,-91.63C383.07,-93.57 401.41,-95.58 418.77,-97.49"/>
<polygon fill="#9a32cd" stroke="#9a32cd" points="365.39,-88.11 355.07,-90.5 364.63,-95.07 365.39,-88.11"/>
<text text-anchor="middle" x="387" y="-97" font-family="FreeSans.ttf" font-size="10.00"> cmd</text>
</g>
<!-- Node4 -->
<g id="node4" class="node">
<title>Node4</title>
<g id="a_node4"><a xlink:title=" ">
<polygon fill="none" stroke="black" points="0,-40.5 0,-59.5 143,-59.5 143,-40.5 0,-40.5"/>
<text text-anchor="middle" x="71.5" y="-47.5" font-family="FreeSans.ttf" font-size="10.00">yarp::os::idl::WirePortable</text>
</a>
</g>
</g>
<!-- Node4&#45;&gt;Node3 -->
<g id="edge4" class="edge">
<title>Node4&#45;&gt;Node3</title>
<path fill="none" stroke="midnightblue" d="M153.07,-56.21C161.99,-57.54 171.11,-58.98 180.1,-60.48"/>
<polygon fill="midnightblue" stroke="midnightblue" points="153.49,-52.74 143.09,-54.76 152.48,-59.66 153.49,-52.74"/>
</g>
<!-- Node4&#45;&gt;Node3 -->
<g id="edge5" class="edge">
<title>Node4&#45;&gt;Node3</title>
<path fill="none" stroke="midnightblue" d="M110.95,-61.65C130.71,-65.77 155.65,-70.16 179.74,-73.85"/>
<polygon fill="midnightblue" stroke="midnightblue" points="111.64,-58.22 101.13,-59.53 110.16,-65.06 111.64,-58.22"/>
</g>
<!-- Node5 -->
<g id="node5" class="node">
<title>Node5</title>
<g id="a_node5"><a xlink:href="classGazeboYarpPlugins_1_1ClockServer__continueSimulation__helper_1_1Reply.html" target="_top" xlink:title=" ">
<polygon fill="none" stroke="black" points="180,-0.5 180,-41.5 355,-41.5 355,-0.5 180,-0.5"/>
<text text-anchor="start" x="188" y="-29.5" font-family="FreeSans.ttf" font-size="10.00">GazeboYarpPlugins::</text>
<text text-anchor="start" x="188" y="-18.5" font-family="FreeSans.ttf" font-size="10.00">ClockServer_continueSimulation</text>
<text text-anchor="middle" x="267.5" y="-7.5" font-family="FreeSans.ttf" font-size="10.00">_helper::Reply</text>
</a>
</g>
</g>
<!-- Node4&#45;&gt;Node5 -->
<g id="edge7" class="edge">
<title>Node4&#45;&gt;Node5</title>
<path fill="none" stroke="midnightblue" d="M112.44,-38.45C132.01,-34.61 156.38,-30.59 179.93,-27.23"/>
<polygon fill="midnightblue" stroke="midnightblue" points="111.49,-35.07 102.39,-40.5 112.88,-41.93 111.49,-35.07"/>
</g>
<!-- Node4&#45;&gt;Node5 -->
<g id="edge8" class="edge">
<title>Node4&#45;&gt;Node5</title>
<path fill="none" stroke="midnightblue" d="M153.26,-44.59C162.01,-43.38 170.95,-42.06 179.77,-40.68"/>
<polygon fill="midnightblue" stroke="midnightblue" points="152.53,-41.16 143.09,-45.97 153.47,-48.1 152.53,-41.16"/>
</g>
<!-- Node5&#45;&gt;Node1 -->
<g id="edge6" class="edge">
<title>Node5&#45;&gt;Node1</title>
<path fill="none" stroke="#9a32cd" stroke-dasharray="5,2" d="M338.18,-45.01C343.87,-47.02 349.54,-49.04 355,-51 387.01,-62.5 422.69,-75.76 451.27,-86.49"/>
<polygon fill="#9a32cd" stroke="#9a32cd" points="339.18,-41.66 328.59,-41.65 336.86,-48.26 339.18,-41.66"/>
<text text-anchor="middle" x="387" y="-70" font-family="FreeSans.ttf" font-size="10.00"> reply</text>
</g>
</g>
</svg>
