<?xml version="1.0" encoding="UTF-8" standalone="no"?>
<!DOCTYPE svg PUBLIC "-//W3C//DTD SVG 1.1//EN"
 "http://www.w3.org/Graphics/SVG/1.1/DTD/svg11.dtd">
<!-- Generated by graphviz version 5.0.0 (20220707.2338)
 -->
<!-- Title: GazeboYarpPlugins::WorldInterfaceServer_makeSphere_helper::Command Pages: 1 -->
<svg width="383pt" height="185pt"
 viewBox="0.00 0.00 383.00 185.00" xmlns="http://www.w3.org/2000/svg" xmlns:xlink="http://www.w3.org/1999/xlink">
<g id="graph0" class="graph" transform="scale(1 1) rotate(0) translate(4 181)">
<title>GazeboYarpPlugins::WorldInterfaceServer_makeSphere_helper::Command</title>
<!-- Node1 -->
<g id="node1" class="node">
<title>Node1</title>
<g id="a_node1"><a xlink:title=" ">
<polygon fill="#bfbfbf" stroke="black" points="0,-0.5 0,-41.5 175,-41.5 175,-0.5 0,-0.5"/>
<text text-anchor="start" x="8" y="-29.5" font-family="FreeSans.ttf" font-size="10.00">GazeboYarpPlugins::</text>
<text text-anchor="start" x="8" y="-18.5" font-family="FreeSans.ttf" font-size="10.00">WorldInterfaceServer</text>
<text text-anchor="middle" x="87.5" y="-7.5" font-family="FreeSans.ttf" font-size="10.00">_makeSphere_helper::Command</text>
</a>
</g>
</g>
<!-- Node2 -->
<g id="node2" class="node">
<title>Node2</title>
<g id="a_node2"><a xlink:title=" ">
<polygon fill="none" stroke="black" points="101,-157.5 101,-176.5 244,-176.5 244,-157.5 101,-157.5"/>
<text text-anchor="middle" x="172.5" y="-164.5" font-family="FreeSans.ttf" font-size="10.00">yarp::os::idl::WirePortable</text>
</a>
</g>
</g>
<!-- Node2&#45;&gt;Node1 -->
<g id="edge1" class="edge">
<title>Node2&#45;&gt;Node1</title>
<path fill="none" stroke="midnightblue" d="M128.21,-153.56C111.83,-146.28 95.05,-135.42 85.5,-120 70.77,-96.22 72.04,-62.69 77.22,-41.66"/>
<polygon fill="midnightblue" stroke="midnightblue" points="127.17,-156.92 137.75,-157.45 129.81,-150.43 127.17,-156.92"/>
</g>
<!-- Node2&#45;&gt;Node1 -->
<g id="edge2" class="edge">
<title>Node2&#45;&gt;Node1</title>
<path fill="none" stroke="midnightblue" d="M143.74,-153.15C129.21,-145.87 112.87,-135.13 103.5,-120 88.77,-96.22 90.04,-62.69 90.49,-41.66"/>
<polygon fill="midnightblue" stroke="midnightblue" points="142.39,-156.39 152.93,-157.45 145.35,-150.04 142.39,-156.39"/>
</g>
<!-- Node3 -->
<g id="node3" class="node">
<title>Node3</title>
<g id="a_node3"><a xlink:href="classGazeboYarpPlugins_1_1Pose.html" target="_top" xlink:title=" ">
<polygon fill="none" stroke="black" points="103.5,-95 103.5,-114 241.5,-114 241.5,-95 103.5,-95"/>
<text text-anchor="middle" x="172.5" y="-102" font-family="FreeSans.ttf" font-size="10.00">GazeboYarpPlugins::Pose</text>
</a>
</g>
</g>
<!-- Node2&#45;&gt;Node3 -->
<g id="edge4" class="edge">
<title>Node2&#45;&gt;Node3</title>
<path fill="none" stroke="midnightblue" d="M166.21,-147.35C165.29,-136.28 165.75,-122.77 167.6,-114.15"/>
<polygon fill="midnightblue" stroke="midnightblue" points="162.76,-147.91 167.6,-157.33 169.69,-146.95 162.76,-147.91"/>
</g>
<!-- Node2&#45;&gt;Node3 -->
<g id="edge5" class="edge">
<title>Node2&#45;&gt;Node3</title>
<path fill="none" stroke="midnightblue" d="M178.79,-147.35C179.71,-136.28 179.25,-122.77 177.4,-114.15"/>
<polygon fill="midnightblue" stroke="midnightblue" points="175.31,-146.95 177.4,-157.33 182.24,-147.91 175.31,-146.95"/>
</g>
<!-- Node4 -->
<g id="node4" class="node">
<title>Node4</title>
<g id="a_node4"><a xlink:href="classGazeboYarpPlugins_1_1Color.html" target="_top" xlink:title=" ">
<polygon fill="none" stroke="black" points="260,-89.5 260,-119.5 375,-119.5 375,-89.5 260,-89.5"/>
<text text-anchor="start" x="268" y="-107.5" font-family="FreeSans.ttf" font-size="10.00">GazeboYarpPlugins::</text>
<text text-anchor="middle" x="317.5" y="-96.5" font-family="FreeSans.ttf" font-size="10.00">Color</text>
</a>
</g>
</g>
<!-- Node2&#45;&gt;Node4 -->
<g id="edge7" class="edge">
<title>Node2&#45;&gt;Node4</title>
<path fill="none" stroke="midnightblue" d="M197.49,-153.22C219.67,-143.37 252.24,-129.76 277.93,-119.59"/>
<polygon fill="midnightblue" stroke="midnightblue" points="195.77,-150.16 188.09,-157.46 198.65,-156.54 195.77,-150.16"/>
</g>
<!-- Node2&#45;&gt;Node4 -->
<g id="edge8" class="edge">
<title>Node2&#45;&gt;Node4</title>
<path fill="none" stroke="midnightblue" d="M207.4,-153.75C232.61,-143.86 266.07,-129.94 289.54,-119.59"/>
<polygon fill="midnightblue" stroke="midnightblue" points="205.9,-150.58 197.84,-157.46 208.43,-157.11 205.9,-150.58"/>
</g>
<!-- Node3&#45;&gt;Node1 -->
<g id="edge3" class="edge">
<title>Node3&#45;&gt;Node1</title>
<path fill="none" stroke="#9a32cd" stroke-dasharray="5,2" d="M156.11,-87.78C142.43,-74.67 122.85,-55.9 108.11,-41.76"/>
<polygon fill="#9a32cd" stroke="#9a32cd" points="153.76,-90.38 163.4,-94.78 158.61,-85.33 153.76,-90.38"/>
<text text-anchor="middle" x="152" y="-63" font-family="FreeSans.ttf" font-size="10.00"> pose</text>
</g>
<!-- Node4&#45;&gt;Node1 -->
<g id="edge6" class="edge">
<title>Node4&#45;&gt;Node1</title>
<path fill="none" stroke="#9a32cd" stroke-dasharray="5,2" d="M268.43,-86.11C231.6,-73.06 181.14,-55.18 142.86,-41.62"/>
<polygon fill="#9a32cd" stroke="#9a32cd" points="267.37,-89.45 277.96,-89.49 269.7,-82.85 267.37,-89.45"/>
<text text-anchor="middle" x="236.5" y="-63" font-family="FreeSans.ttf" font-size="10.00"> color</text>
</g>
</g>
</svg>
