<?xml version="1.0" encoding="UTF-8" standalone="no"?>
<!DOCTYPE svg PUBLIC "-//W3C//DTD SVG 1.1//EN"
 "http://www.w3.org/Graphics/SVG/1.1/DTD/svg11.dtd">
<!-- Generated by graphviz version 3.0.0 (20220315.2325)
 -->
<!-- Title: GazeboYarpPlugins::WorldInterfaceServer_makeBox_helper::Command Pages: 1 -->
<svg width="376pt" height="185pt"
 viewBox="0.00 0.00 375.50 185.00" xmlns="http://www.w3.org/2000/svg" xmlns:xlink="http://www.w3.org/1999/xlink">
<g id="graph0" class="graph" transform="scale(1 1) rotate(0) translate(4 181)">
<title>GazeboYarpPlugins::WorldInterfaceServer_makeBox_helper::Command</title>
<!-- Node1 -->
<g id="node1" class="node">
<title>Node1</title>
<g id="a_node1"><a xlink:title=" ">
<polygon fill="#bfbfbf" stroke="black" points="0,-0.5 0,-41.5 160,-41.5 160,-0.5 0,-0.5"/>
<text text-anchor="start" x="8" y="-29.5" font-family="FreeSans.ttf" font-size="10.00">GazeboYarpPlugins::</text>
<text text-anchor="start" x="8" y="-18.5" font-family="FreeSans.ttf" font-size="10.00">WorldInterfaceServer</text>
<text text-anchor="middle" x="80" y="-7.5" font-family="FreeSans.ttf" font-size="10.00">_makeBox_helper::Command</text>
</a>
</g>
</g>
<!-- Node2 -->
<g id="node2" class="node">
<title>Node2</title>
<g id="a_node2"><a xlink:title=" ">
<polygon fill="none" stroke="black" points="93.5,-157.5 93.5,-176.5 236.5,-176.5 236.5,-157.5 93.5,-157.5"/>
<text text-anchor="middle" x="165" y="-164.5" font-family="FreeSans.ttf" font-size="10.00">yarp::os::idl::WirePortable</text>
</a>
</g>
</g>
<!-- Node2&#45;&gt;Node1 -->
<g id="edge1" class="edge">
<title>Node2&#45;&gt;Node1</title>
<path fill="none" stroke="midnightblue" d="M120.71,-153.56C104.33,-146.28 87.55,-135.42 78,-120 63.27,-96.22 64.54,-62.69 69.72,-41.66"/>
<polygon fill="midnightblue" stroke="midnightblue" points="119.67,-156.92 130.25,-157.45 122.31,-150.43 119.67,-156.92"/>
</g>
<!-- Node2&#45;&gt;Node1 -->
<g id="edge2" class="edge">
<title>Node2&#45;&gt;Node1</title>
<path fill="none" stroke="midnightblue" d="M136.24,-153.15C121.71,-145.87 105.37,-135.13 96,-120 81.27,-96.22 82.54,-62.69 82.99,-41.66"/>
<polygon fill="midnightblue" stroke="midnightblue" points="134.89,-156.39 145.43,-157.45 137.85,-150.04 134.89,-156.39"/>
</g>
<!-- Node3 -->
<g id="node3" class="node">
<title>Node3</title>
<g id="a_node3"><a xlink:href="classGazeboYarpPlugins_1_1Pose.html" target="_top" xlink:title=" ">
<polygon fill="none" stroke="black" points="96,-95 96,-114 234,-114 234,-95 96,-95"/>
<text text-anchor="middle" x="165" y="-102" font-family="FreeSans.ttf" font-size="10.00">GazeboYarpPlugins::Pose</text>
</a>
</g>
</g>
<!-- Node2&#45;&gt;Node3 -->
<g id="edge4" class="edge">
<title>Node2&#45;&gt;Node3</title>
<path fill="none" stroke="midnightblue" d="M158.71,-147.35C157.79,-136.28 158.25,-122.77 160.1,-114.15"/>
<polygon fill="midnightblue" stroke="midnightblue" points="155.26,-147.91 160.1,-157.33 162.19,-146.95 155.26,-147.91"/>
</g>
<!-- Node2&#45;&gt;Node3 -->
<g id="edge5" class="edge">
<title>Node2&#45;&gt;Node3</title>
<path fill="none" stroke="midnightblue" d="M171.29,-147.35C172.21,-136.28 171.75,-122.77 169.9,-114.15"/>
<polygon fill="midnightblue" stroke="midnightblue" points="167.81,-146.95 169.9,-157.33 174.74,-147.91 167.81,-146.95"/>
</g>
<!-- Node4 -->
<g id="node4" class="node">
<title>Node4</title>
<g id="a_node4"><a xlink:href="classGazeboYarpPlugins_1_1Color.html" target="_top" xlink:title=" ">
<polygon fill="none" stroke="black" points="252.5,-89.5 252.5,-119.5 367.5,-119.5 367.5,-89.5 252.5,-89.5"/>
<text text-anchor="start" x="260.5" y="-107.5" font-family="FreeSans.ttf" font-size="10.00">GazeboYarpPlugins::</text>
<text text-anchor="middle" x="310" y="-96.5" font-family="FreeSans.ttf" font-size="10.00">Color</text>
</a>
</g>
</g>
<!-- Node2&#45;&gt;Node4 -->
<g id="edge7" class="edge">
<title>Node2&#45;&gt;Node4</title>
<path fill="none" stroke="midnightblue" d="M189.99,-153.22C212.17,-143.37 244.74,-129.76 270.43,-119.59"/>
<polygon fill="midnightblue" stroke="midnightblue" points="188.27,-150.16 180.59,-157.46 191.15,-156.54 188.27,-150.16"/>
</g>
<!-- Node2&#45;&gt;Node4 -->
<g id="edge8" class="edge">
<title>Node2&#45;&gt;Node4</title>
<path fill="none" stroke="midnightblue" d="M199.9,-153.75C225.11,-143.86 258.57,-129.94 282.04,-119.59"/>
<polygon fill="midnightblue" stroke="midnightblue" points="198.4,-150.58 190.34,-157.46 200.93,-157.11 198.4,-150.58"/>
</g>
<!-- Node3&#45;&gt;Node1 -->
<g id="edge3" class="edge">
<title>Node3&#45;&gt;Node1</title>
<path fill="none" stroke="#9a32cd" stroke-dasharray="5,2" d="M148.61,-87.78C134.93,-74.67 115.35,-55.9 100.61,-41.76"/>
<polygon fill="#9a32cd" stroke="#9a32cd" points="146.26,-90.38 155.9,-94.78 151.11,-85.33 146.26,-90.38"/>
<text text-anchor="middle" x="144.5" y="-63" font-family="FreeSans.ttf" font-size="10.00"> pose</text>
</g>
<!-- Node4&#45;&gt;Node1 -->
<g id="edge6" class="edge">
<title>Node4&#45;&gt;Node1</title>
<path fill="none" stroke="#9a32cd" stroke-dasharray="5,2" d="M260.93,-86.11C224.1,-73.06 173.64,-55.18 135.36,-41.62"/>
<polygon fill="#9a32cd" stroke="#9a32cd" points="259.87,-89.45 270.46,-89.49 262.2,-82.85 259.87,-89.45"/>
<text text-anchor="middle" x="229" y="-63" font-family="FreeSans.ttf" font-size="10.00"> color</text>
</g>
</g>
</svg>
