<?xml version="1.0" encoding="UTF-8" standalone="no"?>
<!DOCTYPE svg PUBLIC "-//W3C//DTD SVG 1.1//EN"
 "http://www.w3.org/Graphics/SVG/1.1/DTD/svg11.dtd">
<!-- Generated by graphviz version 2.43.0 (0)
 -->
<!-- Title: ClockServerImpl.cpp Pages: 1 -->
<svg width="414pt" height="140pt"
 viewBox="0.00 0.00 413.50 140.00" xmlns="http://www.w3.org/2000/svg" xmlns:xlink="http://www.w3.org/1999/xlink">
<g id="graph0" class="graph" transform="scale(1 1) rotate(0) translate(4 136)">
<title>ClockServerImpl.cpp</title>
<!-- Node1 -->
<g id="node1" class="node">
<title>Node1</title>
<g id="a_node1"><a xlink:title=" ">
<polygon fill="#bfbfbf" stroke="black" points="116,-112.5 116,-131.5 233,-131.5 233,-112.5 116,-112.5"/>
<text text-anchor="middle" x="174.5" y="-119.5" font-family="FreeSans.ttf" font-size="10.00">ClockServerImpl.cpp</text>
</a>
</g>
</g>
<!-- Node2 -->
<g id="node2" class="node">
<title>Node2</title>
<g id="a_node2"><a xlink:href="ClockServerImpl_8h.html" target="_top" xlink:title=" ">
<polygon fill="none" stroke="black" points="4.5,-56.5 4.5,-75.5 110.5,-75.5 110.5,-56.5 4.5,-56.5"/>
<text text-anchor="middle" x="57.5" y="-63.5" font-family="FreeSans.ttf" font-size="10.00">ClockServerImpl.h</text>
</a>
</g>
</g>
<!-- Node1&#45;&gt;Node2 -->
<g id="edge1" class="edge">
<title>Node1&#45;&gt;Node2</title>
<path fill="none" stroke="midnightblue" d="M155.96,-112.44C136.88,-103.64 106.93,-89.81 85.06,-79.72"/>
<polygon fill="midnightblue" stroke="midnightblue" points="86.5,-76.53 75.95,-75.52 83.57,-82.88 86.5,-76.53"/>
</g>
<!-- Node4 -->
<g id="node4" class="node">
<title>Node4</title>
<g id="a_node4"><a xlink:href="Clock_8hh.html" target="_top" xlink:title=" ">
<polygon fill="none" stroke="black" points="145,-56.5 145,-75.5 204,-75.5 204,-56.5 145,-56.5"/>
<text text-anchor="middle" x="174.5" y="-63.5" font-family="FreeSans.ttf" font-size="10.00">Clock.hh</text>
</a>
</g>
</g>
<!-- Node1&#45;&gt;Node4 -->
<g id="edge3" class="edge">
<title>Node1&#45;&gt;Node4</title>
<path fill="none" stroke="midnightblue" d="M174.5,-112.08C174.5,-105.01 174.5,-94.86 174.5,-85.99"/>
<polygon fill="midnightblue" stroke="midnightblue" points="178,-85.75 174.5,-75.75 171,-85.75 178,-85.75"/>
</g>
<!-- Node7 -->
<g id="node7" class="node">
<title>Node7</title>
<g id="a_node7"><a xlink:title=" ">
<polygon fill="none" stroke="#bfbfbf" points="222.5,-56.5 222.5,-75.5 282.5,-75.5 282.5,-56.5 222.5,-56.5"/>
<text text-anchor="middle" x="252.5" y="-63.5" font-family="FreeSans.ttf" font-size="10.00">iostream</text>
</a>
</g>
</g>
<!-- Node1&#45;&gt;Node7 -->
<g id="edge6" class="edge">
<title>Node1&#45;&gt;Node7</title>
<path fill="none" stroke="midnightblue" d="M187.03,-112.32C199.09,-103.98 217.53,-91.21 231.77,-81.35"/>
<polygon fill="midnightblue" stroke="midnightblue" points="233.77,-84.22 240,-75.65 229.78,-78.47 233.77,-84.22"/>
</g>
<!-- Node3 -->
<g id="node3" class="node">
<title>Node3</title>
<g id="a_node3"><a xlink:title=" ">
<polygon fill="none" stroke="#bfbfbf" points="0,-0.5 0,-19.5 83,-19.5 83,-0.5 0,-0.5"/>
<text text-anchor="middle" x="41.5" y="-7.5" font-family="FreeSans.ttf" font-size="10.00">ClockServer.h</text>
</a>
</g>
</g>
<!-- Node2&#45;&gt;Node3 -->
<g id="edge2" class="edge">
<title>Node2&#45;&gt;Node3</title>
<path fill="none" stroke="midnightblue" d="M54.86,-56.08C52.71,-48.85 49.62,-38.41 46.95,-29.4"/>
<polygon fill="midnightblue" stroke="midnightblue" points="50.29,-28.34 44.09,-19.75 43.58,-30.33 50.29,-28.34"/>
</g>
<!-- Node5 -->
<g id="node5" class="node">
<title>Node5</title>
<g id="a_node5"><a xlink:title=" ">
<polygon fill="none" stroke="#bfbfbf" points="101.5,-0.5 101.5,-19.5 247.5,-19.5 247.5,-0.5 101.5,-0.5"/>
<text text-anchor="middle" x="174.5" y="-7.5" font-family="FreeSans.ttf" font-size="10.00">gazebo/common/Plugin.hh</text>
</a>
</g>
</g>
<!-- Node4&#45;&gt;Node5 -->
<g id="edge4" class="edge">
<title>Node4&#45;&gt;Node5</title>
<path fill="none" stroke="midnightblue" d="M174.5,-56.08C174.5,-49.01 174.5,-38.86 174.5,-29.99"/>
<polygon fill="midnightblue" stroke="midnightblue" points="178,-29.75 174.5,-19.75 171,-29.75 178,-29.75"/>
</g>
<!-- Node6 -->
<g id="node6" class="node">
<title>Node6</title>
<g id="a_node6"><a xlink:title=" ">
<polygon fill="none" stroke="#bfbfbf" points="265.5,-0.5 265.5,-19.5 405.5,-19.5 405.5,-0.5 265.5,-0.5"/>
<text text-anchor="middle" x="335.5" y="-7.5" font-family="FreeSans.ttf" font-size="10.00">gazebo/common/Time.hh</text>
</a>
</g>
</g>
<!-- Node4&#45;&gt;Node6 -->
<g id="edge5" class="edge">
<title>Node4&#45;&gt;Node6</title>
<path fill="none" stroke="midnightblue" d="M200.01,-56.44C227.1,-47.36 270.09,-32.94 300.37,-22.78"/>
<polygon fill="midnightblue" stroke="midnightblue" points="301.74,-26.01 310.11,-19.52 299.51,-19.38 301.74,-26.01"/>
</g>
</g>
</svg>
