<?xml version="1.0" encoding="UTF-8" standalone="no"?>
<!DOCTYPE svg PUBLIC "-//W3C//DTD SVG 1.1//EN"
 "http://www.w3.org/Graphics/SVG/1.1/DTD/svg11.dtd">
<!-- Generated by graphviz version 2.43.0 (0)
 -->
<!-- Title: Clock.cc Pages: 1 -->
<svg width="2423pt" height="140pt"
 viewBox="0.00 0.00 2423.00 140.00" xmlns="http://www.w3.org/2000/svg" xmlns:xlink="http://www.w3.org/1999/xlink">
<g id="graph0" class="graph" transform="scale(1 1) rotate(0) translate(4 136)">
<title>Clock.cc</title>
<!-- Node1 -->
<g id="node1" class="node">
<title>Node1</title>
<g id="a_node1"><a xlink:title=" ">
<polygon fill="#bfbfbf" stroke="black" points="1309.5,-112.5 1309.5,-131.5 1366.5,-131.5 1366.5,-112.5 1309.5,-112.5"/>
<text text-anchor="middle" x="1338" y="-119.5" font-family="FreeSans.ttf" font-size="10.00">Clock.cc</text>
</a>
</g>
</g>
<!-- Node2 -->
<g id="node2" class="node">
<title>Node2</title>
<g id="a_node2"><a xlink:href="common_8h.html" target="_top" xlink:title=" ">
<polygon fill="none" stroke="black" points="4,-56.5 4,-75.5 168,-75.5 168,-56.5 4,-56.5"/>
<text text-anchor="middle" x="86" y="-63.5" font-family="FreeSans.ttf" font-size="10.00">GazeboYarpPlugins/common.h</text>
</a>
</g>
</g>
<!-- Node1&#45;&gt;Node2 -->
<g id="edge1" class="edge">
<title>Node1&#45;&gt;Node2</title>
<path fill="none" stroke="midnightblue" d="M1309.42,-119.96C1184.14,-115.37 671.1,-96.26 250,-76 226.8,-74.88 201.76,-73.57 178.41,-72.29"/>
<polygon fill="midnightblue" stroke="midnightblue" points="178.34,-68.78 168.16,-71.73 177.95,-75.77 178.34,-68.78"/>
</g>
<!-- Node5 -->
<g id="node5" class="node">
<title>Node5</title>
<g id="a_node5"><a xlink:href="Clock_8hh.html" target="_top" xlink:title=" ">
<polygon fill="none" stroke="black" points="259.5,-56.5 259.5,-75.5 318.5,-75.5 318.5,-56.5 259.5,-56.5"/>
<text text-anchor="middle" x="289" y="-63.5" font-family="FreeSans.ttf" font-size="10.00">Clock.hh</text>
</a>
</g>
</g>
<!-- Node1&#45;&gt;Node5 -->
<g id="edge4" class="edge">
<title>Node1&#45;&gt;Node5</title>
<path fill="none" stroke="midnightblue" d="M1309.18,-120.43C1167.69,-117.5 545.06,-103.37 328.7,-75.77"/>
<polygon fill="midnightblue" stroke="midnightblue" points="329.08,-72.29 318.71,-74.44 328.16,-79.23 329.08,-72.29"/>
</g>
<!-- Node8 -->
<g id="node8" class="node">
<title>Node8</title>
<g id="a_node8"><a xlink:href="ClockServerImpl_8h.html" target="_top" xlink:title=" ">
<polygon fill="none" stroke="black" points="337,-56.5 337,-75.5 443,-75.5 443,-56.5 337,-56.5"/>
<text text-anchor="middle" x="390" y="-63.5" font-family="FreeSans.ttf" font-size="10.00">ClockServerImpl.h</text>
</a>
</g>
</g>
<!-- Node1&#45;&gt;Node8 -->
<g id="edge7" class="edge">
<title>Node1&#45;&gt;Node8</title>
<path fill="none" stroke="midnightblue" d="M1309.28,-120.49C1199.62,-118.35 796.71,-108.64 453.38,-75.93"/>
<polygon fill="midnightblue" stroke="midnightblue" points="453.52,-72.43 443.24,-74.95 452.85,-79.39 453.52,-72.43"/>
</g>
<!-- Node10 -->
<g id="node10" class="node">
<title>Node10</title>
<g id="a_node10"><a xlink:title=" ">
<polygon fill="none" stroke="#bfbfbf" points="461.5,-56.5 461.5,-75.5 574.5,-75.5 574.5,-56.5 461.5,-56.5"/>
<text text-anchor="middle" x="518" y="-63.5" font-family="FreeSans.ttf" font-size="10.00">boost/bind/bind.hpp</text>
</a>
</g>
</g>
<!-- Node1&#45;&gt;Node10 -->
<g id="edge9" class="edge">
<title>Node1&#45;&gt;Node10</title>
<path fill="none" stroke="midnightblue" d="M1309.18,-120.07C1210.05,-116.7 873.91,-103.9 585.1,-76.03"/>
<polygon fill="midnightblue" stroke="midnightblue" points="585.14,-72.52 574.85,-75.03 584.46,-79.48 585.14,-72.52"/>
</g>
<!-- Node11 -->
<g id="node11" class="node">
<title>Node11</title>
<g id="a_node11"><a xlink:title=" ">
<polygon fill="none" stroke="#bfbfbf" points="593,-56.5 593,-75.5 727,-75.5 727,-56.5 593,-56.5"/>
<text text-anchor="middle" x="660" y="-63.5" font-family="FreeSans.ttf" font-size="10.00">gazebo/gazebo_config.h</text>
</a>
</g>
</g>
<!-- Node1&#45;&gt;Node11 -->
<g id="edge10" class="edge">
<title>Node1&#45;&gt;Node11</title>
<path fill="none" stroke="midnightblue" d="M1309.5,-119.29C1224.44,-114.09 964.79,-97.58 737.3,-75.98"/>
<polygon fill="midnightblue" stroke="midnightblue" points="737.46,-72.48 727.17,-75.02 736.8,-79.45 737.46,-72.48"/>
</g>
<!-- Node12 -->
<g id="node12" class="node">
<title>Node12</title>
<g id="a_node12"><a xlink:title=" ">
<polygon fill="none" stroke="#bfbfbf" points="745.5,-56.5 745.5,-75.5 894.5,-75.5 894.5,-56.5 745.5,-56.5"/>
<text text-anchor="middle" x="820" y="-63.5" font-family="FreeSans.ttf" font-size="10.00">gazebo/common/Events.hh</text>
</a>
</g>
</g>
<!-- Node1&#45;&gt;Node12 -->
<g id="edge11" class="edge">
<title>Node1&#45;&gt;Node12</title>
<path fill="none" stroke="midnightblue" d="M1309.3,-118.06C1241.2,-111.07 1064.2,-92.87 904.65,-76.07"/>
<polygon fill="midnightblue" stroke="midnightblue" points="904.97,-72.58 894.65,-75.01 904.23,-79.54 904.97,-72.58"/>
</g>
<!-- Node13 -->
<g id="node13" class="node">
<title>Node13</title>
<g id="a_node13"><a xlink:title=" ">
<polygon fill="none" stroke="#bfbfbf" points="912.5,-56.5 912.5,-75.5 1091.5,-75.5 1091.5,-56.5 912.5,-56.5"/>
<text text-anchor="middle" x="1002" y="-63.5" font-family="FreeSans.ttf" font-size="10.00">gazebo/physics/PhysicsEngine.hh</text>
</a>
</g>
</g>
<!-- Node1&#45;&gt;Node13 -->
<g id="edge12" class="edge">
<title>Node1&#45;&gt;Node13</title>
<path fill="none" stroke="midnightblue" d="M1309.35,-116.4C1255.55,-107.75 1138.22,-88.89 1065.1,-77.14"/>
<polygon fill="midnightblue" stroke="midnightblue" points="1065.51,-73.66 1055.08,-75.53 1064.4,-80.57 1065.51,-73.66"/>
</g>
<!-- Node14 -->
<g id="node14" class="node">
<title>Node14</title>
<g id="a_node14"><a xlink:title=" ">
<polygon fill="none" stroke="#bfbfbf" points="1109.5,-56.5 1109.5,-75.5 1246.5,-75.5 1246.5,-56.5 1109.5,-56.5"/>
<text text-anchor="middle" x="1178" y="-63.5" font-family="FreeSans.ttf" font-size="10.00">gazebo/physics/World.hh</text>
</a>
</g>
</g>
<!-- Node1&#45;&gt;Node14 -->
<g id="edge13" class="edge">
<title>Node1&#45;&gt;Node14</title>
<path fill="none" stroke="midnightblue" d="M1312.65,-112.44C1285.73,-103.36 1243,-88.94 1212.91,-78.78"/>
<polygon fill="midnightblue" stroke="midnightblue" points="1213.83,-75.4 1203.23,-75.52 1211.59,-82.03 1213.83,-75.4"/>
</g>
<!-- Node15 -->
<g id="node15" class="node">
<title>Node15</title>
<g id="a_node15"><a xlink:title=" ">
<polygon fill="none" stroke="#bfbfbf" points="1265,-56.5 1265,-75.5 1411,-75.5 1411,-56.5 1265,-56.5"/>
<text text-anchor="middle" x="1338" y="-63.5" font-family="FreeSans.ttf" font-size="10.00">gazebo/physics/physics.hh</text>
</a>
</g>
</g>
<!-- Node1&#45;&gt;Node15 -->
<g id="edge14" class="edge">
<title>Node1&#45;&gt;Node15</title>
<path fill="none" stroke="midnightblue" d="M1338,-112.08C1338,-105.01 1338,-94.86 1338,-85.99"/>
<polygon fill="midnightblue" stroke="midnightblue" points="1341.5,-85.75 1338,-75.75 1334.5,-85.75 1341.5,-85.75"/>
</g>
<!-- Node16 -->
<g id="node16" class="node">
<title>Node16</title>
<g id="a_node16"><a xlink:title=" ">
<polygon fill="none" stroke="#bfbfbf" points="1429,-56.5 1429,-75.5 1599,-75.5 1599,-56.5 1429,-56.5"/>
<text text-anchor="middle" x="1514" y="-63.5" font-family="FreeSans.ttf" font-size="10.00">gazebo/physics/PhysicsIface.hh</text>
</a>
</g>
</g>
<!-- Node1&#45;&gt;Node16 -->
<g id="edge15" class="edge">
<title>Node1&#45;&gt;Node16</title>
<path fill="none" stroke="midnightblue" d="M1365.89,-112.44C1395.75,-103.28 1443.31,-88.69 1476.46,-78.52"/>
<polygon fill="midnightblue" stroke="midnightblue" points="1477.71,-81.8 1486.24,-75.52 1475.66,-75.1 1477.71,-81.8"/>
</g>
<!-- Node17 -->
<g id="node17" class="node">
<title>Node17</title>
<g id="a_node17"><a xlink:title=" ">
<polygon fill="none" stroke="#bfbfbf" points="1617,-56.5 1617,-75.5 1723,-75.5 1723,-56.5 1617,-56.5"/>
<text text-anchor="middle" x="1670" y="-63.5" font-family="FreeSans.ttf" font-size="10.00">yarp/os/Network.h</text>
</a>
</g>
</g>
<!-- Node1&#45;&gt;Node17 -->
<g id="edge16" class="edge">
<title>Node1&#45;&gt;Node17</title>
<path fill="none" stroke="midnightblue" d="M1366.59,-116.35C1419.92,-107.68 1535.67,-88.85 1607.79,-77.12"/>
<polygon fill="midnightblue" stroke="midnightblue" points="1608.35,-80.57 1617.66,-75.51 1607.23,-73.66 1608.35,-80.57"/>
</g>
<!-- Node18 -->
<g id="node18" class="node">
<title>Node18</title>
<g id="a_node18"><a xlink:title=" ">
<polygon fill="none" stroke="#bfbfbf" points="1741,-56.5 1741,-75.5 1845,-75.5 1845,-56.5 1741,-56.5"/>
<text text-anchor="middle" x="1793" y="-63.5" font-family="FreeSans.ttf" font-size="10.00">yarp/os/Property.h</text>
</a>
</g>
</g>
<!-- Node1&#45;&gt;Node18 -->
<g id="edge17" class="edge">
<title>Node1&#45;&gt;Node18</title>
<path fill="none" stroke="midnightblue" d="M1366.71,-118.05C1430.26,-111.44 1587.85,-94.67 1730.53,-76.16"/>
<polygon fill="midnightblue" stroke="midnightblue" points="1731.31,-79.58 1740.77,-74.82 1730.4,-72.64 1731.31,-79.58"/>
</g>
<!-- Node19 -->
<g id="node19" class="node">
<title>Node19</title>
<g id="a_node19"><a xlink:title=" ">
<polygon fill="none" stroke="#bfbfbf" points="1863.5,-56.5 1863.5,-75.5 1988.5,-75.5 1988.5,-56.5 1863.5,-56.5"/>
<text text-anchor="middle" x="1926" y="-63.5" font-family="FreeSans.ttf" font-size="10.00">yarp/os/BufferedPort.h</text>
</a>
</g>
</g>
<!-- Node1&#45;&gt;Node19 -->
<g id="edge18" class="edge">
<title>Node1&#45;&gt;Node19</title>
<path fill="none" stroke="midnightblue" d="M1366.56,-118.89C1443.35,-113.12 1660.84,-96.27 1853.18,-76.05"/>
<polygon fill="midnightblue" stroke="midnightblue" points="1853.61,-79.52 1863.19,-74.99 1852.87,-72.56 1853.61,-79.52"/>
</g>
<!-- Node20 -->
<g id="node20" class="node">
<title>Node20</title>
<g id="a_node20"><a xlink:title=" ">
<polygon fill="none" stroke="#bfbfbf" points="2007,-56.5 2007,-75.5 2101,-75.5 2101,-56.5 2007,-56.5"/>
<text text-anchor="middle" x="2054" y="-63.5" font-family="FreeSans.ttf" font-size="10.00">yarp/os/Bottle.h</text>
</a>
</g>
</g>
<!-- Node1&#45;&gt;Node20 -->
<g id="edge19" class="edge">
<title>Node1&#45;&gt;Node20</title>
<path fill="none" stroke="midnightblue" d="M1366.71,-119.98C1457.54,-116.55 1746.9,-104.12 1996.99,-76.01"/>
<polygon fill="midnightblue" stroke="midnightblue" points="1997.45,-79.48 2006.99,-74.87 1996.66,-72.52 1997.45,-79.48"/>
</g>
<!-- Node21 -->
<g id="node21" class="node">
<title>Node21</title>
<g id="a_node21"><a xlink:title=" ">
<polygon fill="none" stroke="#bfbfbf" points="2119,-56.5 2119,-75.5 2201,-75.5 2201,-56.5 2119,-56.5"/>
<text text-anchor="middle" x="2160" y="-63.5" font-family="FreeSans.ttf" font-size="10.00">yarp/os/Log.h</text>
</a>
</g>
</g>
<!-- Node1&#45;&gt;Node21 -->
<g id="edge20" class="edge">
<title>Node1&#45;&gt;Node21</title>
<path fill="none" stroke="midnightblue" d="M1366.85,-120.56C1467.64,-118.78 1813.48,-110.45 2108.81,-75.99"/>
<polygon fill="midnightblue" stroke="midnightblue" points="2109.34,-79.46 2118.86,-74.81 2108.52,-72.5 2109.34,-79.46"/>
</g>
<!-- Node22 -->
<g id="node22" class="node">
<title>Node22</title>
<g id="a_node22"><a xlink:title=" ">
<polygon fill="none" stroke="#bfbfbf" points="2219.5,-56.5 2219.5,-75.5 2336.5,-75.5 2336.5,-56.5 2219.5,-56.5"/>
<text text-anchor="middle" x="2278" y="-63.5" font-family="FreeSans.ttf" font-size="10.00">yarp/os/LogStream.h</text>
</a>
</g>
</g>
<!-- Node1&#45;&gt;Node22 -->
<g id="edge21" class="edge">
<title>Node1&#45;&gt;Node22</title>
<path fill="none" stroke="midnightblue" d="M1366.66,-120.35C1475.21,-117.73 1871.56,-106.58 2209.45,-75.97"/>
<polygon fill="midnightblue" stroke="midnightblue" points="2209.79,-79.45 2219.43,-75.05 2209.15,-72.48 2209.79,-79.45"/>
</g>
<!-- Node23 -->
<g id="node23" class="node">
<title>Node23</title>
<g id="a_node23"><a xlink:title=" ">
<polygon fill="none" stroke="#bfbfbf" points="2355,-56.5 2355,-75.5 2415,-75.5 2415,-56.5 2355,-56.5"/>
<text text-anchor="middle" x="2385" y="-63.5" font-family="FreeSans.ttf" font-size="10.00">iostream</text>
</a>
</g>
</g>
<!-- Node1&#45;&gt;Node23 -->
<g id="edge22" class="edge">
<title>Node1&#45;&gt;Node23</title>
<path fill="none" stroke="midnightblue" d="M1366.76,-120.42C1507.98,-117.49 2129.37,-103.32 2344.91,-75.84"/>
<polygon fill="midnightblue" stroke="midnightblue" points="2345.41,-79.31 2354.87,-74.53 2344.49,-72.37 2345.41,-79.31"/>
</g>
<!-- Node3 -->
<g id="node3" class="node">
<title>Node3</title>
<g id="a_node3"><a xlink:title=" ">
<polygon fill="none" stroke="#bfbfbf" points="0,-0.5 0,-19.5 44,-19.5 44,-0.5 0,-0.5"/>
<text text-anchor="middle" x="22" y="-7.5" font-family="FreeSans.ttf" font-size="10.00">string</text>
</a>
</g>
</g>
<!-- Node2&#45;&gt;Node3 -->
<g id="edge2" class="edge">
<title>Node2&#45;&gt;Node3</title>
<path fill="none" stroke="midnightblue" d="M75.72,-56.32C66.16,-48.26 51.72,-36.08 40.22,-26.37"/>
<polygon fill="midnightblue" stroke="midnightblue" points="42.37,-23.61 32.47,-19.83 37.86,-28.96 42.37,-23.61"/>
</g>
<!-- Node4 -->
<g id="node4" class="node">
<title>Node4</title>
<g id="a_node4"><a xlink:title=" ">
<polygon fill="none" stroke="#bfbfbf" points="62.5,-0.5 62.5,-19.5 109.5,-19.5 109.5,-0.5 62.5,-0.5"/>
<text text-anchor="middle" x="86" y="-7.5" font-family="FreeSans.ttf" font-size="10.00">cmath</text>
</a>
</g>
</g>
<!-- Node2&#45;&gt;Node4 -->
<g id="edge3" class="edge">
<title>Node2&#45;&gt;Node4</title>
<path fill="none" stroke="midnightblue" d="M86,-56.08C86,-49.01 86,-38.86 86,-29.99"/>
<polygon fill="midnightblue" stroke="midnightblue" points="89.5,-29.75 86,-19.75 82.5,-29.75 89.5,-29.75"/>
</g>
<!-- Node6 -->
<g id="node6" class="node">
<title>Node6</title>
<g id="a_node6"><a xlink:title=" ">
<polygon fill="none" stroke="#bfbfbf" points="128,-0.5 128,-19.5 274,-19.5 274,-0.5 128,-0.5"/>
<text text-anchor="middle" x="201" y="-7.5" font-family="FreeSans.ttf" font-size="10.00">gazebo/common/Plugin.hh</text>
</a>
</g>
</g>
<!-- Node5&#45;&gt;Node6 -->
<g id="edge5" class="edge">
<title>Node5&#45;&gt;Node6</title>
<path fill="none" stroke="midnightblue" d="M274.86,-56.32C261.13,-47.9 240.06,-34.97 223.94,-25.07"/>
<polygon fill="midnightblue" stroke="midnightblue" points="225.46,-21.9 215.1,-19.65 221.8,-27.87 225.46,-21.9"/>
</g>
<!-- Node7 -->
<g id="node7" class="node">
<title>Node7</title>
<g id="a_node7"><a xlink:title=" ">
<polygon fill="none" stroke="#bfbfbf" points="292,-0.5 292,-19.5 432,-19.5 432,-0.5 292,-0.5"/>
<text text-anchor="middle" x="362" y="-7.5" font-family="FreeSans.ttf" font-size="10.00">gazebo/common/Time.hh</text>
</a>
</g>
</g>
<!-- Node5&#45;&gt;Node7 -->
<g id="edge6" class="edge">
<title>Node5&#45;&gt;Node7</title>
<path fill="none" stroke="midnightblue" d="M300.73,-56.32C311.84,-48.11 328.74,-35.6 341.98,-25.81"/>
<polygon fill="midnightblue" stroke="midnightblue" points="344.1,-28.59 350.06,-19.83 339.94,-22.97 344.1,-28.59"/>
</g>
<!-- Node9 -->
<g id="node9" class="node">
<title>Node9</title>
<g id="a_node9"><a xlink:title=" ">
<polygon fill="none" stroke="#bfbfbf" points="450.5,-0.5 450.5,-19.5 533.5,-19.5 533.5,-0.5 450.5,-0.5"/>
<text text-anchor="middle" x="492" y="-7.5" font-family="FreeSans.ttf" font-size="10.00">ClockServer.h</text>
</a>
</g>
</g>
<!-- Node8&#45;&gt;Node9 -->
<g id="edge8" class="edge">
<title>Node8&#45;&gt;Node9</title>
<path fill="none" stroke="midnightblue" d="M406.39,-56.32C422.67,-47.7 447.87,-34.36 466.72,-24.39"/>
<polygon fill="midnightblue" stroke="midnightblue" points="468.45,-27.43 475.65,-19.65 465.18,-21.24 468.45,-27.43"/>
</g>
</g>
</svg>
