<?xml version="1.0" encoding="UTF-8" standalone="no"?>
<!DOCTYPE svg PUBLIC "-//W3C//DTD SVG 1.1//EN"
 "http://www.w3.org/Graphics/SVG/1.1/DTD/svg11.dtd">
<!-- Generated by graphviz version 5.0.0 (20220707.2338)
 -->
<!-- Title: ClockServerImpl.cpp Pages: 1 -->
<svg width="510pt" height="140pt"
 viewBox="0.00 0.00 509.50 140.00" xmlns="http://www.w3.org/2000/svg" xmlns:xlink="http://www.w3.org/1999/xlink">
<g id="graph0" class="graph" transform="scale(1 1) rotate(0) translate(4 136)">
<title>ClockServerImpl.cpp</title>
<!-- Node1 -->
<g id="node1" class="node">
<title>Node1</title>
<g id="a_node1"><a xlink:title=" ">
<polygon fill="#bfbfbf" stroke="black" points="212,-112.5 212,-131.5 329,-131.5 329,-112.5 212,-112.5"/>
<text text-anchor="middle" x="270.5" y="-119.5" font-family="FreeSans.ttf" font-size="10.00">ClockServerImpl.cpp</text>
</a>
</g>
</g>
<!-- Node2 -->
<g id="node2" class="node">
<title>Node2</title>
<g id="a_node2"><a xlink:href="ClockServerImpl_8h.html" target="_top" xlink:title=" ">
<polygon fill="none" stroke="black" points="76.5,-56.5 76.5,-75.5 182.5,-75.5 182.5,-56.5 76.5,-56.5"/>
<text text-anchor="middle" x="129.5" y="-63.5" font-family="FreeSans.ttf" font-size="10.00">ClockServerImpl.h</text>
</a>
</g>
</g>
<!-- Node1&#45;&gt;Node2 -->
<g id="edge1" class="edge">
<title>Node1&#45;&gt;Node2</title>
<path fill="none" stroke="midnightblue" d="M248.16,-112.44C224.75,-103.48 187.76,-89.31 161.31,-79.18"/>
<polygon fill="midnightblue" stroke="midnightblue" points="162.33,-75.82 151.74,-75.52 159.82,-82.36 162.33,-75.82"/>
</g>
<!-- Node4 -->
<g id="node4" class="node">
<title>Node4</title>
<g id="a_node4"><a xlink:href="Clock_8hh.html" target="_top" xlink:title=" ">
<polygon fill="none" stroke="black" points="241,-56.5 241,-75.5 300,-75.5 300,-56.5 241,-56.5"/>
<text text-anchor="middle" x="270.5" y="-63.5" font-family="FreeSans.ttf" font-size="10.00">Clock.hh</text>
</a>
</g>
</g>
<!-- Node1&#45;&gt;Node4 -->
<g id="edge3" class="edge">
<title>Node1&#45;&gt;Node4</title>
<path fill="none" stroke="midnightblue" d="M270.5,-112.08C270.5,-105.01 270.5,-94.86 270.5,-85.99"/>
<polygon fill="midnightblue" stroke="midnightblue" points="274,-85.75 270.5,-75.75 267,-85.75 274,-85.75"/>
</g>
<!-- Node7 -->
<g id="node7" class="node">
<title>Node7</title>
<g id="a_node7"><a xlink:title=" ">
<polygon fill="none" stroke="#bfbfbf" points="318.5,-56.5 318.5,-75.5 378.5,-75.5 378.5,-56.5 318.5,-56.5"/>
<text text-anchor="middle" x="348.5" y="-63.5" font-family="FreeSans.ttf" font-size="10.00">iostream</text>
</a>
</g>
</g>
<!-- Node1&#45;&gt;Node7 -->
<g id="edge6" class="edge">
<title>Node1&#45;&gt;Node7</title>
<path fill="none" stroke="midnightblue" d="M283.03,-112.32C295.09,-103.98 313.53,-91.21 327.77,-81.35"/>
<polygon fill="midnightblue" stroke="midnightblue" points="329.77,-84.22 336,-75.65 325.78,-78.47 329.77,-84.22"/>
</g>
<!-- Node3 -->
<g id="node3" class="node">
<title>Node3</title>
<g id="a_node3"><a xlink:title=" ">
<polygon fill="none" stroke="#bfbfbf" points="0,-0.5 0,-19.5 179,-19.5 179,-0.5 0,-0.5"/>
<text text-anchor="middle" x="89.5" y="-7.5" font-family="FreeSans.ttf" font-size="10.00">GazeboYarpPlugins/ClockServer.h</text>
</a>
</g>
</g>
<!-- Node2&#45;&gt;Node3 -->
<g id="edge2" class="edge">
<title>Node2&#45;&gt;Node3</title>
<path fill="none" stroke="midnightblue" d="M122.89,-56.08C117.24,-48.46 108.96,-37.26 102.05,-27.94"/>
<polygon fill="midnightblue" stroke="midnightblue" points="104.75,-25.7 95.98,-19.75 99.12,-29.87 104.75,-25.7"/>
</g>
<!-- Node5 -->
<g id="node5" class="node">
<title>Node5</title>
<g id="a_node5"><a xlink:title=" ">
<polygon fill="none" stroke="#bfbfbf" points="197.5,-0.5 197.5,-19.5 343.5,-19.5 343.5,-0.5 197.5,-0.5"/>
<text text-anchor="middle" x="270.5" y="-7.5" font-family="FreeSans.ttf" font-size="10.00">gazebo/common/Plugin.hh</text>
</a>
</g>
</g>
<!-- Node4&#45;&gt;Node5 -->
<g id="edge4" class="edge">
<title>Node4&#45;&gt;Node5</title>
<path fill="none" stroke="midnightblue" d="M270.5,-56.08C270.5,-49.01 270.5,-38.86 270.5,-29.99"/>
<polygon fill="midnightblue" stroke="midnightblue" points="274,-29.75 270.5,-19.75 267,-29.75 274,-29.75"/>
</g>
<!-- Node6 -->
<g id="node6" class="node">
<title>Node6</title>
<g id="a_node6"><a xlink:title=" ">
<polygon fill="none" stroke="#bfbfbf" points="361.5,-0.5 361.5,-19.5 501.5,-19.5 501.5,-0.5 361.5,-0.5"/>
<text text-anchor="middle" x="431.5" y="-7.5" font-family="FreeSans.ttf" font-size="10.00">gazebo/common/Time.hh</text>
</a>
</g>
</g>
<!-- Node4&#45;&gt;Node6 -->
<g id="edge5" class="edge">
<title>Node4&#45;&gt;Node6</title>
<path fill="none" stroke="midnightblue" d="M296.01,-56.44C323.1,-47.36 366.09,-32.94 396.37,-22.78"/>
<polygon fill="midnightblue" stroke="midnightblue" points="397.74,-26.01 406.11,-19.52 395.51,-19.38 397.74,-26.01"/>
</g>
</g>
</svg>
