<?xml version="1.0" encoding="UTF-8" standalone="no"?>
<!DOCTYPE svg PUBLIC "-//W3C//DTD SVG 1.1//EN"
 "http://www.w3.org/Graphics/SVG/1.1/DTD/svg11.dtd">
<!-- Generated by graphviz version 2.43.0 (0)
 -->
<!-- Title: Clock.hh Pages: 1 -->
<svg width="312pt" height="84pt"
 viewBox="0.00 0.00 312.00 84.00" xmlns="http://www.w3.org/2000/svg" xmlns:xlink="http://www.w3.org/1999/xlink">
<g id="graph0" class="graph" transform="scale(1 1) rotate(0) translate(4 80)">
<title>Clock.hh</title>
<!-- Node1 -->
<g id="node1" class="node">
<title>Node1</title>
<g id="a_node1"><a xlink:title=" ">
<polygon fill="#bfbfbf" stroke="black" points="123.5,-56.5 123.5,-75.5 182.5,-75.5 182.5,-56.5 123.5,-56.5"/>
<text text-anchor="middle" x="153" y="-63.5" font-family="FreeSans.ttf" font-size="10.00">Clock.hh</text>
</a>
</g>
</g>
<!-- Node2 -->
<g id="node2" class="node">
<title>Node2</title>
<g id="a_node2"><a xlink:title=" ">
<polygon fill="none" stroke="#bfbfbf" points="0,-0.5 0,-19.5 146,-19.5 146,-0.5 0,-0.5"/>
<text text-anchor="middle" x="73" y="-7.5" font-family="FreeSans.ttf" font-size="10.00">gazebo/common/Plugin.hh</text>
</a>
</g>
</g>
<!-- Node1&#45;&gt;Node2 -->
<g id="edge1" class="edge">
<title>Node1&#45;&gt;Node2</title>
<path fill="none" stroke="midnightblue" d="M140.15,-56.32C127.78,-47.98 108.87,-35.21 94.26,-25.35"/>
<polygon fill="midnightblue" stroke="midnightblue" points="96.07,-22.35 85.82,-19.65 92.15,-28.15 96.07,-22.35"/>
</g>
<!-- Node3 -->
<g id="node3" class="node">
<title>Node3</title>
<g id="a_node3"><a xlink:title=" ">
<polygon fill="none" stroke="#bfbfbf" points="164,-0.5 164,-19.5 304,-19.5 304,-0.5 164,-0.5"/>
<text text-anchor="middle" x="234" y="-7.5" font-family="FreeSans.ttf" font-size="10.00">gazebo/common/Time.hh</text>
</a>
</g>
</g>
<!-- Node1&#45;&gt;Node3 -->
<g id="edge2" class="edge">
<title>Node1&#45;&gt;Node3</title>
<path fill="none" stroke="midnightblue" d="M166.01,-56.32C178.53,-47.98 197.68,-35.21 212.47,-25.35"/>
<polygon fill="midnightblue" stroke="midnightblue" points="214.64,-28.11 221.02,-19.65 210.76,-22.29 214.64,-28.11"/>
</g>
</g>
</svg>
