<?xml version="1.0" encoding="UTF-8" standalone="no"?>
<!DOCTYPE svg PUBLIC "-//W3C//DTD SVG 1.1//EN"
 "http://www.w3.org/Graphics/SVG/1.1/DTD/svg11.dtd">
<!-- Generated by graphviz version 2.43.0 (0)
 -->
<!-- Title: ClockServer.cpp Pages: 1 -->
<svg width="281pt" height="140pt"
 viewBox="0.00 0.00 280.50 140.00" xmlns="http://www.w3.org/2000/svg" xmlns:xlink="http://www.w3.org/1999/xlink">
<g id="graph0" class="graph" transform="scale(1 1) rotate(0) translate(4 136)">
<title>ClockServer.cpp</title>
<!-- Node1 -->
<g id="node1" class="node">
<title>Node1</title>
<g id="a_node1"><a xlink:title=" ">
<polygon fill="#bfbfbf" stroke="black" points="101,-112.5 101,-131.5 196,-131.5 196,-112.5 101,-112.5"/>
<text text-anchor="middle" x="148.5" y="-119.5" font-family="FreeSans.ttf" font-size="10.00">ClockServer.cpp</text>
</a>
</g>
</g>
<!-- Node2 -->
<g id="node2" class="node">
<title>Node2</title>
<g id="a_node2"><a xlink:href="GazeboYarpPlugins_2ClockServer_8h.html" target="_top" xlink:title=" ">
<polygon fill="none" stroke="black" points="0,-56.5 0,-75.5 179,-75.5 179,-56.5 0,-56.5"/>
<text text-anchor="middle" x="89.5" y="-63.5" font-family="FreeSans.ttf" font-size="10.00">GazeboYarpPlugins/ClockServer.h</text>
</a>
</g>
</g>
<!-- Node1&#45;&gt;Node2 -->
<g id="edge1" class="edge">
<title>Node1&#45;&gt;Node2</title>
<path fill="none" stroke="midnightblue" d="M139.02,-112.32C130.3,-104.34 117.16,-92.31 106.6,-82.65"/>
<polygon fill="midnightblue" stroke="midnightblue" points="108.89,-80 99.15,-75.83 104.17,-85.17 108.89,-80"/>
</g>
<!-- Node4 -->
<g id="node4" class="node">
<title>Node4</title>
<g id="a_node4"><a xlink:title=" ">
<polygon fill="none" stroke="#bfbfbf" points="142.5,-0.5 142.5,-19.5 272.5,-19.5 272.5,-0.5 142.5,-0.5"/>
<text text-anchor="middle" x="207.5" y="-7.5" font-family="FreeSans.ttf" font-size="10.00">yarp/os/idl/WireTypes.h</text>
</a>
</g>
</g>
<!-- Node1&#45;&gt;Node4 -->
<g id="edge4" class="edge">
<title>Node1&#45;&gt;Node4</title>
<path fill="none" stroke="midnightblue" d="M158.43,-112.3C167.48,-103.86 180.6,-90.27 188.5,-76 196.51,-61.53 201.45,-43.35 204.28,-29.89"/>
<polygon fill="midnightblue" stroke="midnightblue" points="207.75,-30.37 206.18,-19.89 200.88,-29.06 207.75,-30.37"/>
</g>
<!-- Node3 -->
<g id="node3" class="node">
<title>Node3</title>
<g id="a_node3"><a xlink:title=" ">
<polygon fill="none" stroke="#bfbfbf" points="37,-0.5 37,-19.5 124,-19.5 124,-0.5 37,-0.5"/>
<text text-anchor="middle" x="80.5" y="-7.5" font-family="FreeSans.ttf" font-size="10.00">yarp/os/Wire.h</text>
</a>
</g>
</g>
<!-- Node2&#45;&gt;Node3 -->
<g id="edge2" class="edge">
<title>Node2&#45;&gt;Node3</title>
<path fill="none" stroke="midnightblue" d="M88.01,-56.08C86.82,-48.93 85.11,-38.64 83.62,-29.69"/>
<polygon fill="midnightblue" stroke="midnightblue" points="87.05,-29.04 81.96,-19.75 80.15,-30.19 87.05,-29.04"/>
</g>
<!-- Node2&#45;&gt;Node4 -->
<g id="edge3" class="edge">
<title>Node2&#45;&gt;Node4</title>
<path fill="none" stroke="midnightblue" d="M108.2,-56.44C127.44,-47.64 157.65,-33.81 179.7,-23.72"/>
<polygon fill="midnightblue" stroke="midnightblue" points="181.25,-26.86 188.89,-19.52 178.34,-20.5 181.25,-26.86"/>
</g>
</g>
</svg>
