<?xml version="1.0" encoding="UTF-8" standalone="no"?>
<!DOCTYPE svg PUBLIC "-//W3C//DTD SVG 1.1//EN"
 "http://www.w3.org/Graphics/SVG/1.1/DTD/svg11.dtd">
<!-- Generated by graphviz version 2.43.0 (0)
 -->
<!-- Title: ClockServerImpl.h Pages: 1 -->
<svg width="200pt" height="84pt"
 viewBox="0.00 0.00 200.00 84.00" xmlns="http://www.w3.org/2000/svg" xmlns:xlink="http://www.w3.org/1999/xlink">
<g id="graph0" class="graph" transform="scale(1 1) rotate(0) translate(4 80)">
<title>ClockServerImpl.h</title>
<!-- Node1 -->
<g id="node1" class="node">
<title>Node1</title>
<g id="a_node1"><a xlink:title=" ">
<polygon fill="#bfbfbf" stroke="black" points="27.5,-56.5 27.5,-75.5 133.5,-75.5 133.5,-56.5 27.5,-56.5"/>
<text text-anchor="middle" x="80.5" y="-63.5" font-family="FreeSans.ttf" font-size="10.00">ClockServerImpl.h</text>
</a>
</g>
</g>
<!-- Node2 -->
<g id="node2" class="node">
<title>Node2</title>
<g id="a_node2"><a xlink:href="Clock_8cc.html" target="_top" xlink:title=" ">
<polygon fill="none" stroke="black" points="0,-0.5 0,-19.5 57,-19.5 57,-0.5 0,-0.5"/>
<text text-anchor="middle" x="28.5" y="-7.5" font-family="FreeSans.ttf" font-size="10.00">Clock.cc</text>
</a>
</g>
</g>
<!-- Node1&#45;&gt;Node2 -->
<g id="edge1" class="edge">
<title>Node1&#45;&gt;Node2</title>
<path fill="none" stroke="midnightblue" d="M64.82,-48.72C55.66,-39.2 44.45,-27.56 36.93,-19.75"/>
<polygon fill="midnightblue" stroke="midnightblue" points="62.46,-51.31 71.91,-56.08 67.5,-46.45 62.46,-51.31"/>
</g>
<!-- Node3 -->
<g id="node3" class="node">
<title>Node3</title>
<g id="a_node3"><a xlink:href="ClockServerImpl_8cpp.html" target="_top" xlink:title=" ">
<polygon fill="none" stroke="black" points="75,-0.5 75,-19.5 192,-19.5 192,-0.5 75,-0.5"/>
<text text-anchor="middle" x="133.5" y="-7.5" font-family="FreeSans.ttf" font-size="10.00">ClockServerImpl.cpp</text>
</a>
</g>
</g>
<!-- Node1&#45;&gt;Node3 -->
<g id="edge2" class="edge">
<title>Node1&#45;&gt;Node3</title>
<path fill="none" stroke="midnightblue" d="M96.48,-48.72C105.82,-39.2 117.25,-27.56 124.91,-19.75"/>
<polygon fill="midnightblue" stroke="midnightblue" points="93.76,-46.49 89.25,-56.08 98.75,-51.4 93.76,-46.49"/>
</g>
</g>
</svg>
