<?xml version="1.0" encoding="UTF-8" standalone="no"?>
<!DOCTYPE svg PUBLIC "-//W3C//DTD SVG 1.1//EN"
 "http://www.w3.org/Graphics/SVG/1.1/DTD/svg11.dtd">
<!-- Generated by graphviz version 5.0.0 (20220707.2338)
 -->
<!-- Title: LinkAttacherServer.cpp Pages: 1 -->
<svg width="412pt" height="95pt"
 viewBox="0.00 0.00 411.50 95.00" xmlns="http://www.w3.org/2000/svg" xmlns:xlink="http://www.w3.org/1999/xlink">
<g id="graph0" class="graph" transform="scale(1 1) rotate(0) translate(4 91)">
<title>LinkAttacherServer.cpp</title>
<!-- Node1 -->
<g id="node1" class="node">
<title>Node1</title>
<g id="a_node1"><a xlink:title=" ">
<polygon fill="#bfbfbf" stroke="black" points="192,-67.5 192,-86.5 321,-86.5 321,-67.5 192,-67.5"/>
<text text-anchor="middle" x="256.5" y="-74.5" font-family="FreeSans.ttf" font-size="10.00">LinkAttacherServer.cpp</text>
</a>
</g>
</g>
<!-- Node2 -->
<g id="node2" class="node">
<title>Node2</title>
<g id="a_node2"><a xlink:title=" ">
<polygon fill="none" stroke="#bfbfbf" points="0,-0.5 0,-30.5 173,-30.5 173,-0.5 0,-0.5"/>
<text text-anchor="start" x="8" y="-18.5" font-family="FreeSans.ttf" font-size="10.00">GazeboYarpPlugins/LinkAttacher</text>
<text text-anchor="middle" x="86.5" y="-7.5" font-family="FreeSans.ttf" font-size="10.00">Server.h</text>
</a>
</g>
</g>
<!-- Node1&#45;&gt;Node2 -->
<g id="edge1" class="edge">
<title>Node1&#45;&gt;Node2</title>
<path fill="none" stroke="midnightblue" d="M232.14,-67.48C207.18,-58.74 167.66,-44.91 136.09,-33.86"/>
<polygon fill="midnightblue" stroke="midnightblue" points="137.16,-30.52 126.57,-30.52 134.85,-37.13 137.16,-30.52"/>
</g>
<!-- Node3 -->
<g id="node3" class="node">
<title>Node3</title>
<g id="a_node3"><a xlink:title=" ">
<polygon fill="none" stroke="#bfbfbf" points="191.5,-6 191.5,-25 321.5,-25 321.5,-6 191.5,-6"/>
<text text-anchor="middle" x="256.5" y="-13" font-family="FreeSans.ttf" font-size="10.00">yarp/os/idl/WireTypes.h</text>
</a>
</g>
</g>
<!-- Node1&#45;&gt;Node3 -->
<g id="edge2" class="edge">
<title>Node1&#45;&gt;Node3</title>
<path fill="none" stroke="midnightblue" d="M256.5,-67.48C256.5,-59.08 256.5,-45.98 256.5,-35.16"/>
<polygon fill="midnightblue" stroke="midnightblue" points="260,-35.01 256.5,-25.01 253,-35.01 260,-35.01"/>
</g>
<!-- Node4 -->
<g id="node4" class="node">
<title>Node4</title>
<g id="a_node4"><a xlink:title=" ">
<polygon fill="none" stroke="#bfbfbf" points="339.5,-6 339.5,-25 403.5,-25 403.5,-6 339.5,-6"/>
<text text-anchor="middle" x="371.5" y="-13" font-family="FreeSans.ttf" font-size="10.00">algorithm</text>
</a>
</g>
</g>
<!-- Node1&#45;&gt;Node4 -->
<g id="edge3" class="edge">
<title>Node1&#45;&gt;Node4</title>
<path fill="none" stroke="midnightblue" d="M272.98,-67.48C292.11,-57.58 323.87,-41.14 346.15,-29.62"/>
<polygon fill="midnightblue" stroke="midnightblue" points="347.78,-32.71 355.05,-25.01 344.56,-26.5 347.78,-32.71"/>
</g>
</g>
</svg>
