<?xml version="1.0" encoding="UTF-8" standalone="no"?>
<!DOCTYPE svg PUBLIC "-//W3C//DTD SVG 1.1//EN"
 "http://www.w3.org/Graphics/SVG/1.1/DTD/svg11.dtd">
<!-- Generated by graphviz version 2.43.0 (0)
 -->
<!-- Title: Color.cpp Pages: 1 -->
<svg width="244pt" height="140pt"
 viewBox="0.00 0.00 243.50 140.00" xmlns="http://www.w3.org/2000/svg" xmlns:xlink="http://www.w3.org/1999/xlink">
<g id="graph0" class="graph" transform="scale(1 1) rotate(0) translate(4 136)">
<title>Color.cpp</title>
<!-- Node1 -->
<g id="node1" class="node">
<title>Node1</title>
<g id="a_node1"><a xlink:title=" ">
<polygon fill="#bfbfbf" stroke="black" points="75.5,-112.5 75.5,-131.5 137.5,-131.5 137.5,-112.5 75.5,-112.5"/>
<text text-anchor="middle" x="106.5" y="-119.5" font-family="FreeSans.ttf" font-size="10.00">Color.cpp</text>
</a>
</g>
</g>
<!-- Node2 -->
<g id="node2" class="node">
<title>Node2</title>
<g id="a_node2"><a xlink:href="GazeboYarpPlugins_2Color_8h.html" target="_top" xlink:title=" ">
<polygon fill="none" stroke="black" points="33.5,-56.5 33.5,-75.5 179.5,-75.5 179.5,-56.5 33.5,-56.5"/>
<text text-anchor="middle" x="106.5" y="-63.5" font-family="FreeSans.ttf" font-size="10.00">GazeboYarpPlugins/Color.h</text>
</a>
</g>
</g>
<!-- Node1&#45;&gt;Node2 -->
<g id="edge1" class="edge">
<title>Node1&#45;&gt;Node2</title>
<path fill="none" stroke="midnightblue" d="M106.5,-112.08C106.5,-105.01 106.5,-94.86 106.5,-85.99"/>
<polygon fill="midnightblue" stroke="midnightblue" points="110,-85.75 106.5,-75.75 103,-85.75 110,-85.75"/>
</g>
<!-- Node3 -->
<g id="node3" class="node">
<title>Node3</title>
<g id="a_node3"><a xlink:title=" ">
<polygon fill="none" stroke="#bfbfbf" points="0,-0.5 0,-19.5 87,-19.5 87,-0.5 0,-0.5"/>
<text text-anchor="middle" x="43.5" y="-7.5" font-family="FreeSans.ttf" font-size="10.00">yarp/os/Wire.h</text>
</a>
</g>
</g>
<!-- Node2&#45;&gt;Node3 -->
<g id="edge2" class="edge">
<title>Node2&#45;&gt;Node3</title>
<path fill="none" stroke="midnightblue" d="M96.38,-56.32C86.97,-48.26 72.76,-36.08 61.43,-26.37"/>
<polygon fill="midnightblue" stroke="midnightblue" points="63.68,-23.68 53.81,-19.83 59.12,-29 63.68,-23.68"/>
</g>
<!-- Node4 -->
<g id="node4" class="node">
<title>Node4</title>
<g id="a_node4"><a xlink:title=" ">
<polygon fill="none" stroke="#bfbfbf" points="105.5,-0.5 105.5,-19.5 235.5,-19.5 235.5,-0.5 105.5,-0.5"/>
<text text-anchor="middle" x="170.5" y="-7.5" font-family="FreeSans.ttf" font-size="10.00">yarp/os/idl/WireTypes.h</text>
</a>
</g>
</g>
<!-- Node2&#45;&gt;Node4 -->
<g id="edge3" class="edge">
<title>Node2&#45;&gt;Node4</title>
<path fill="none" stroke="midnightblue" d="M116.78,-56.32C126.34,-48.26 140.78,-36.08 152.28,-26.37"/>
<polygon fill="midnightblue" stroke="midnightblue" points="154.64,-28.96 160.03,-19.83 150.13,-23.61 154.64,-28.96"/>
</g>
</g>
</svg>
