<?xml version="1.0" encoding="UTF-8" standalone="no"?>
<!DOCTYPE svg PUBLIC "-//W3C//DTD SVG 1.1//EN"
 "http://www.w3.org/Graphics/SVG/1.1/DTD/svg11.dtd">
<!-- Generated by graphviz version 5.0.0 (20220707.2338)
 -->
<!-- Title: common.h Pages: 1 -->
<svg width="4881pt" height="207pt"
 viewBox="0.00 0.00 4880.50 207.00" xmlns="http://www.w3.org/2000/svg" xmlns:xlink="http://www.w3.org/1999/xlink">
<g id="graph0" class="graph" transform="scale(1 1) rotate(0) translate(4 203)">
<title>common.h</title>
<!-- Node1 -->
<g id="node1" class="node">
<title>Node1</title>
<g id="a_node1"><a xlink:title=" ">
<polygon fill="#bfbfbf" stroke="black" points="2463,-179.5 2463,-198.5 2531,-198.5 2531,-179.5 2463,-179.5"/>
<text text-anchor="middle" x="2497" y="-186.5" font-family="FreeSans.ttf" font-size="10.00">common.h</text>
</a>
</g>
</g>
<!-- Node2 -->
<g id="node2" class="node">
<title>Node2</title>
<g id="a_node2"><a xlink:href="ApplyExternalWrench_8hh.html" target="_top" xlink:title=" ">
<polygon fill="none" stroke="black" points="1306.5,-56.5 1306.5,-75.5 1443.5,-75.5 1443.5,-56.5 1306.5,-56.5"/>
<text text-anchor="middle" x="1375" y="-63.5" font-family="FreeSans.ttf" font-size="10.00">ApplyExternalWrench.hh</text>
</a>
</g>
</g>
<!-- Node1&#45;&gt;Node2 -->
<g id="edge1" class="edge">
<title>Node1&#45;&gt;Node2</title>
<path fill="none" stroke="midnightblue" d="M2452.51,-187.74C2178.13,-186.03 726.65,-175.45 695,-143 685.38,-133.14 685.58,-122.06 695,-112 736.16,-68.03 1142.06,-65.54 1306.43,-66.36"/>
<polygon fill="midnightblue" stroke="midnightblue" points="2452.85,-191.24 2462.87,-187.8 2452.89,-184.24 2452.85,-191.24"/>
</g>
<!-- Node4 -->
<g id="node4" class="node">
<title>Node4</title>
<g id="a_node4"><a xlink:href="BaseState_8hh.html" target="_top" xlink:title=" ">
<polygon fill="none" stroke="black" points="1.5,-118 1.5,-137 82.5,-137 82.5,-118 1.5,-118"/>
<text text-anchor="middle" x="42" y="-125" font-family="FreeSans.ttf" font-size="10.00">BaseState.hh</text>
</a>
</g>
</g>
<!-- Node1&#45;&gt;Node4 -->
<g id="edge3" class="edge">
<title>Node1&#45;&gt;Node4</title>
<path fill="none" stroke="midnightblue" d="M2452.53,-187.86C2144.61,-186.79 334.64,-178.99 93,-143 84.44,-141.73 75.29,-139.43 67.14,-137.04"/>
<polygon fill="midnightblue" stroke="midnightblue" points="2452.84,-191.36 2462.85,-187.89 2452.86,-184.36 2452.84,-191.36"/>
</g>
<!-- Node6 -->
<g id="node6" class="node">
<title>Node6</title>
<g id="a_node6"><a xlink:href="BaseStateDriver_8h.html" target="_top" xlink:title=" ">
<polygon fill="none" stroke="black" points="102,-118 102,-137 206,-137 206,-118 102,-118"/>
<text text-anchor="middle" x="154" y="-125" font-family="FreeSans.ttf" font-size="10.00">BaseStateDriver.h</text>
</a>
</g>
</g>
<!-- Node1&#45;&gt;Node6 -->
<g id="edge5" class="edge">
<title>Node1&#45;&gt;Node6</title>
<path fill="none" stroke="midnightblue" d="M2452.49,-187.69C2153.68,-185.57 444.46,-172.19 215,-143 204.85,-141.71 193.93,-139.41 184.17,-137.02"/>
<polygon fill="midnightblue" stroke="midnightblue" points="2452.89,-191.2 2462.92,-187.77 2452.94,-184.2 2452.89,-191.2"/>
</g>
<!-- Node8 -->
<g id="node8" class="node">
<title>Node8</title>
<g id="a_node8"><a xlink:href="Camera_8cc.html" target="_top" xlink:title=" ">
<polygon fill="none" stroke="black" points="382,-118 382,-137 450,-137 450,-118 382,-118"/>
<text text-anchor="middle" x="416" y="-125" font-family="FreeSans.ttf" font-size="10.00">Camera.cc</text>
</a>
</g>
</g>
<!-- Node1&#45;&gt;Node8 -->
<g id="edge8" class="edge">
<title>Node1&#45;&gt;Node8</title>
<path fill="none" stroke="midnightblue" d="M2452.46,-187.82C2172.52,-186.62 661.3,-178.49 459,-143 451.71,-141.72 443.97,-139.43 437.1,-137.03"/>
<polygon fill="midnightblue" stroke="midnightblue" points="2452.63,-191.33 2462.64,-187.87 2452.66,-184.33 2452.63,-191.33"/>
</g>
<!-- Node9 -->
<g id="node9" class="node">
<title>Node9</title>
<g id="a_node9"><a xlink:href="CameraDriver_8cpp.html" target="_top" xlink:title=" ">
<polygon fill="none" stroke="black" points="468,-118 468,-137 572,-137 572,-118 468,-118"/>
<text text-anchor="middle" x="520" y="-125" font-family="FreeSans.ttf" font-size="10.00">CameraDriver.cpp</text>
</a>
</g>
</g>
<!-- Node1&#45;&gt;Node9 -->
<g id="edge9" class="edge">
<title>Node1&#45;&gt;Node9</title>
<path fill="none" stroke="midnightblue" d="M2452.49,-188.22C2201.42,-189.29 960,-191.94 581,-143 570.96,-141.7 560.16,-139.44 550.49,-137.07"/>
<polygon fill="midnightblue" stroke="midnightblue" points="2452.71,-191.72 2462.69,-188.18 2452.68,-184.72 2452.71,-191.72"/>
</g>
<!-- Node10 -->
<g id="node10" class="node">
<title>Node10</title>
<g id="a_node10"><a xlink:href="Clock_8cc.html" target="_top" xlink:title=" ">
<polygon fill="none" stroke="black" points="590.5,-118 590.5,-137 647.5,-137 647.5,-118 590.5,-118"/>
<text text-anchor="middle" x="619" y="-125" font-family="FreeSans.ttf" font-size="10.00">Clock.cc</text>
</a>
</g>
</g>
<!-- Node1&#45;&gt;Node10 -->
<g id="edge10" class="edge">
<title>Node1&#45;&gt;Node10</title>
<path fill="none" stroke="midnightblue" d="M2452.42,-187.71C2189.17,-185.88 843.07,-174.99 662,-143 654.71,-141.71 646.97,-139.41 640.1,-137.02"/>
<polygon fill="midnightblue" stroke="midnightblue" points="2452.72,-191.21 2462.74,-187.78 2452.77,-184.21 2452.72,-191.21"/>
</g>
<!-- Node11 -->
<g id="node11" class="node">
<title>Node11</title>
<g id="a_node11"><a xlink:href="ConfigurationOverride_8hh.html" target="_top" xlink:title=" ">
<polygon fill="none" stroke="black" points="224.5,-118 224.5,-137 363.5,-137 363.5,-118 224.5,-118"/>
<text text-anchor="middle" x="294" y="-125" font-family="FreeSans.ttf" font-size="10.00">ConfigurationOverride.hh</text>
</a>
</g>
</g>
<!-- Node1&#45;&gt;Node11 -->
<g id="edge11" class="edge">
<title>Node1&#45;&gt;Node11</title>
<path fill="none" stroke="midnightblue" d="M2452.87,-188.03C2187.13,-188.06 797.11,-186.13 373,-143 360.1,-141.69 346.14,-139.42 333.61,-137.05"/>
<polygon fill="midnightblue" stroke="midnightblue" points="2452.92,-191.53 2462.92,-188.03 2452.92,-184.53 2452.92,-191.53"/>
</g>
<!-- Node13 -->
<g id="node13" class="node">
<title>Node13</title>
<g id="a_node13"><a xlink:href="ContactLoadCellArray_8cc.html" target="_top" xlink:title=" ">
<polygon fill="none" stroke="black" points="704,-118 704,-137 838,-137 838,-118 704,-118"/>
<text text-anchor="middle" x="771" y="-125" font-family="FreeSans.ttf" font-size="10.00">ContactLoadCellArray.cc</text>
</a>
</g>
</g>
<!-- Node1&#45;&gt;Node13 -->
<g id="edge13" class="edge">
<title>Node1&#45;&gt;Node13</title>
<path fill="none" stroke="midnightblue" d="M2452.67,-187.76C2223.49,-186.36 1171.27,-178.12 847,-143 834.58,-141.65 821.15,-139.37 809.09,-137.01"/>
<polygon fill="midnightblue" stroke="midnightblue" points="2452.93,-191.26 2462.95,-187.82 2452.97,-184.26 2452.93,-191.26"/>
</g>
<!-- Node14 -->
<g id="node14" class="node">
<title>Node14</title>
<g id="a_node14"><a xlink:href="ContactLoadCellArrayDriver_8cpp.html" target="_top" xlink:title=" ">
<polygon fill="none" stroke="black" points="856,-118 856,-137 1028,-137 1028,-118 856,-118"/>
<text text-anchor="middle" x="942" y="-125" font-family="FreeSans.ttf" font-size="10.00">ContactLoadCellArrayDriver.cpp</text>
</a>
</g>
</g>
<!-- Node1&#45;&gt;Node14 -->
<g id="edge14" class="edge">
<title>Node1&#45;&gt;Node14</title>
<path fill="none" stroke="midnightblue" d="M2452.78,-187.36C2240.22,-184.16 1322.13,-169.06 1037,-143 1021.71,-141.6 1005.15,-139.34 990.19,-137.01"/>
<polygon fill="midnightblue" stroke="midnightblue" points="2452.88,-190.86 2462.93,-187.51 2452.99,-183.86 2452.88,-190.86"/>
</g>
<!-- Node15 -->
<g id="node15" class="node">
<title>Node15</title>
<g id="a_node15"><a xlink:href="ControlBoard_8cc.html" target="_top" xlink:title=" ">
<polygon fill="none" stroke="black" points="1046,-118 1046,-137 1140,-137 1140,-118 1046,-118"/>
<text text-anchor="middle" x="1093" y="-125" font-family="FreeSans.ttf" font-size="10.00">ControlBoard.cc</text>
</a>
</g>
</g>
<!-- Node1&#45;&gt;Node15 -->
<g id="edge15" class="edge">
<title>Node1&#45;&gt;Node15</title>
<path fill="none" stroke="midnightblue" d="M2452.57,-187.83C2249.57,-186.85 1409.13,-180.55 1149,-143 1139.76,-141.67 1129.84,-139.39 1120.96,-137.03"/>
<polygon fill="midnightblue" stroke="midnightblue" points="2452.83,-191.33 2462.84,-187.88 2452.86,-184.33 2452.83,-191.33"/>
</g>
<!-- Node16 -->
<g id="node16" class="node">
<title>Node16</title>
<g id="a_node16"><a xlink:href="ControlBoardDriver_8cpp.html" target="_top" xlink:title=" ">
<polygon fill="none" stroke="black" points="1158,-118 1158,-137 1288,-137 1288,-118 1158,-118"/>
<text text-anchor="middle" x="1223" y="-125" font-family="FreeSans.ttf" font-size="10.00">ControlBoardDriver.cpp</text>
</a>
</g>
</g>
<!-- Node1&#45;&gt;Node16 -->
<g id="edge16" class="edge">
<title>Node1&#45;&gt;Node16</title>
<path fill="none" stroke="midnightblue" d="M2452.68,-187.26C2264.07,-183.99 1527.43,-169.73 1297,-143 1285.04,-141.61 1272.11,-139.35 1260.47,-137.02"/>
<polygon fill="midnightblue" stroke="midnightblue" points="2452.72,-190.77 2462.78,-187.44 2452.84,-183.77 2452.72,-190.77"/>
</g>
<!-- Node17 -->
<g id="node17" class="node">
<title>Node17</title>
<g id="a_node17"><a xlink:href="ControlBoardDriverCoupling_8cpp.html" target="_top" xlink:title=" ">
<polygon fill="none" stroke="black" points="1306.5,-118 1306.5,-137 1479.5,-137 1479.5,-118 1306.5,-118"/>
<text text-anchor="middle" x="1393" y="-125" font-family="FreeSans.ttf" font-size="10.00">ControlBoardDriverCoupling.cpp</text>
</a>
</g>
</g>
<!-- Node1&#45;&gt;Node17 -->
<g id="edge17" class="edge">
<title>Node1&#45;&gt;Node17</title>
<path fill="none" stroke="midnightblue" d="M2452.53,-187.71C2311.17,-186.43 1859.61,-179.54 1488,-143 1473.06,-141.53 1456.88,-139.3 1442.18,-137.03"/>
<polygon fill="midnightblue" stroke="midnightblue" points="2452.91,-191.21 2462.94,-187.8 2452.97,-184.21 2452.91,-191.21"/>
</g>
<!-- Node18 -->
<g id="node18" class="node">
<title>Node18</title>
<g id="a_node18"><a xlink:href="ControlBoardDriverPidControl_8cpp.html" target="_top" xlink:title=" ">
<polygon fill="none" stroke="black" points="1497.5,-118 1497.5,-137 1678.5,-137 1678.5,-118 1497.5,-118"/>
<text text-anchor="middle" x="1588" y="-125" font-family="FreeSans.ttf" font-size="10.00">ControlBoardDriverPidControl.cpp</text>
</a>
</g>
</g>
<!-- Node1&#45;&gt;Node18 -->
<g id="edge18" class="edge">
<title>Node1&#45;&gt;Node18</title>
<path fill="none" stroke="midnightblue" d="M2452.88,-186.94C2330.82,-183.72 1978.39,-172.37 1687,-143 1671.7,-141.46 1655.15,-139.25 1640.04,-137.02"/>
<polygon fill="midnightblue" stroke="midnightblue" points="2452.87,-190.44 2462.96,-187.2 2453.06,-183.45 2452.87,-190.44"/>
</g>
<!-- Node19 -->
<g id="node19" class="node">
<title>Node19</title>
<g id="a_node19"><a xlink:href="ControlBoardDriverTrajectory_8cpp.html" target="_top" xlink:title=" ">
<polygon fill="none" stroke="black" points="1696.5,-118 1696.5,-137 1873.5,-137 1873.5,-118 1696.5,-118"/>
<text text-anchor="middle" x="1785" y="-125" font-family="FreeSans.ttf" font-size="10.00">ControlBoardDriverTrajectory.cpp</text>
</a>
</g>
</g>
<!-- Node1&#45;&gt;Node19 -->
<g id="edge19" class="edge">
<title>Node1&#45;&gt;Node19</title>
<path fill="none" stroke="midnightblue" d="M2452.76,-185.91C2351.51,-180.87 2095.24,-166.7 1882,-143 1867.36,-141.37 1851.54,-139.19 1837.01,-137.01"/>
<polygon fill="midnightblue" stroke="midnightblue" points="2452.76,-189.41 2462.92,-186.41 2453.1,-182.42 2452.76,-189.41"/>
</g>
<!-- Node20 -->
<g id="node20" class="node">
<title>Node20</title>
<g id="a_node20"><a xlink:href="DepthCamera_8cc.html" target="_top" xlink:title=" ">
<polygon fill="none" stroke="black" points="1891,-118 1891,-137 1989,-137 1989,-118 1891,-118"/>
<text text-anchor="middle" x="1940" y="-125" font-family="FreeSans.ttf" font-size="10.00">DepthCamera.cc</text>
</a>
</g>
</g>
<!-- Node1&#45;&gt;Node20 -->
<g id="edge20" class="edge">
<title>Node1&#45;&gt;Node20</title>
<path fill="none" stroke="midnightblue" d="M2452.8,-186.32C2365.39,-182.48 2164.48,-171.14 1998,-143 1988.99,-141.48 1979.33,-139.29 1970.52,-137.07"/>
<polygon fill="midnightblue" stroke="midnightblue" points="2452.74,-189.82 2462.88,-186.75 2453.04,-182.82 2452.74,-189.82"/>
</g>
<!-- Node21 -->
<g id="node21" class="node">
<title>Node21</title>
<g id="a_node21"><a xlink:href="DepthCameraDriver_8cpp.html" target="_top" xlink:title=" ">
<polygon fill="none" stroke="black" points="2007,-118 2007,-137 2141,-137 2141,-118 2007,-118"/>
<text text-anchor="middle" x="2074" y="-125" font-family="FreeSans.ttf" font-size="10.00">DepthCameraDriver.cpp</text>
</a>
</g>
</g>
<!-- Node1&#45;&gt;Node21 -->
<g id="edge21" class="edge">
<title>Node1&#45;&gt;Node21</title>
<path fill="none" stroke="midnightblue" d="M2452.87,-183.13C2386.83,-175.65 2258.47,-160.36 2150,-143 2138.99,-141.24 2127.13,-139.09 2116.13,-137"/>
<polygon fill="midnightblue" stroke="midnightblue" points="2452.59,-186.62 2462.92,-184.26 2453.37,-179.66 2452.59,-186.62"/>
</g>
<!-- Node22 -->
<g id="node22" class="node">
<title>Node22</title>
<g id="a_node22"><a xlink:href="ExternalWrench_8hh.html" target="_top" xlink:title=" ">
<polygon fill="none" stroke="black" points="2159.5,-118 2159.5,-137 2268.5,-137 2268.5,-118 2159.5,-118"/>
<text text-anchor="middle" x="2214" y="-125" font-family="FreeSans.ttf" font-size="10.00">ExternalWrench.hh</text>
</a>
</g>
</g>
<!-- Node1&#45;&gt;Node22 -->
<g id="edge22" class="edge">
<title>Node1&#45;&gt;Node22</title>
<path fill="none" stroke="midnightblue" d="M2452.96,-179.22C2408.7,-170.34 2338.54,-156.08 2278,-143 2269.31,-141.12 2259.98,-139.04 2251.2,-137.06"/>
<polygon fill="midnightblue" stroke="midnightblue" points="2452.32,-182.66 2462.81,-181.2 2453.7,-175.8 2452.32,-182.66"/>
</g>
<!-- Node24 -->
<g id="node24" class="node">
<title>Node24</title>
<g id="a_node24"><a xlink:href="FakeControlBoard_8cc.html" target="_top" xlink:title=" ">
<polygon fill="none" stroke="black" points="2287,-118 2287,-137 2403,-137 2403,-118 2287,-118"/>
<text text-anchor="middle" x="2345" y="-125" font-family="FreeSans.ttf" font-size="10.00">FakeControlBoard.cc</text>
</a>
</g>
</g>
<!-- Node1&#45;&gt;Node24 -->
<g id="edge25" class="edge">
<title>Node1&#45;&gt;Node24</title>
<path fill="none" stroke="midnightblue" d="M2465.79,-175.78C2436.25,-164.22 2392.68,-147.16 2366.74,-137.01"/>
<polygon fill="midnightblue" stroke="midnightblue" points="2464.63,-179.09 2475.22,-179.48 2467.19,-172.57 2464.63,-179.09"/>
</g>
<!-- Node25 -->
<g id="node25" class="node">
<title>Node25</title>
<g id="a_node25"><a xlink:href="FakeControlBoardDriver_8cpp.html" target="_top" xlink:title=" ">
<polygon fill="none" stroke="black" points="2421,-118 2421,-137 2573,-137 2573,-118 2421,-118"/>
<text text-anchor="middle" x="2497" y="-125" font-family="FreeSans.ttf" font-size="10.00">FakeControlBoardDriver.cpp</text>
</a>
</g>
</g>
<!-- Node1&#45;&gt;Node25 -->
<g id="edge26" class="edge">
<title>Node1&#45;&gt;Node25</title>
<path fill="none" stroke="midnightblue" d="M2497,-169.32C2497,-158.5 2497,-145.4 2497,-137.01"/>
<polygon fill="midnightblue" stroke="midnightblue" points="2493.5,-169.48 2497,-179.48 2500.5,-169.48 2493.5,-169.48"/>
</g>
<!-- Node26 -->
<g id="node26" class="node">
<title>Node26</title>
<g id="a_node26"><a xlink:href="FakeControlBoardDriverPidControl_8cpp.html" target="_top" xlink:title=" ">
<polygon fill="none" stroke="black" points="2591.5,-112.5 2591.5,-142.5 2738.5,-142.5 2738.5,-112.5 2591.5,-112.5"/>
<text text-anchor="start" x="2599.5" y="-130.5" font-family="FreeSans.ttf" font-size="10.00">FakeControlBoardDriverPid</text>
<text text-anchor="middle" x="2665" y="-119.5" font-family="FreeSans.ttf" font-size="10.00">Control.cpp</text>
</a>
</g>
</g>
<!-- Node1&#45;&gt;Node26 -->
<g id="edge27" class="edge">
<title>Node1&#45;&gt;Node26</title>
<path fill="none" stroke="midnightblue" d="M2530.59,-176.1C2557.93,-166.42 2596.57,-152.74 2625.41,-142.52"/>
<polygon fill="midnightblue" stroke="midnightblue" points="2529.33,-172.84 2521.07,-179.48 2531.67,-179.44 2529.33,-172.84"/>
</g>
<!-- Node27 -->
<g id="node27" class="node">
<title>Node27</title>
<g id="a_node27"><a xlink:href="ForceTorque_8cc.html" target="_top" xlink:title=" ">
<polygon fill="none" stroke="black" points="2756.5,-118 2756.5,-137 2845.5,-137 2845.5,-118 2756.5,-118"/>
<text text-anchor="middle" x="2801" y="-125" font-family="FreeSans.ttf" font-size="10.00">ForceTorque.cc</text>
</a>
</g>
</g>
<!-- Node1&#45;&gt;Node27 -->
<g id="edge28" class="edge">
<title>Node1&#45;&gt;Node27</title>
<path fill="none" stroke="midnightblue" d="M2541.32,-181.18C2591.47,-173.2 2675.48,-159.01 2747,-143 2754.86,-141.24 2763.3,-139.1 2771.12,-137"/>
<polygon fill="midnightblue" stroke="midnightblue" points="2540.48,-177.77 2531.15,-182.79 2541.57,-184.68 2540.48,-177.77"/>
</g>
<!-- Node28 -->
<g id="node28" class="node">
<title>Node28</title>
<g id="a_node28"><a xlink:href="ForceTorqueDriver_8cpp.html" target="_top" xlink:title=" ">
<polygon fill="none" stroke="black" points="2863.5,-118 2863.5,-137 2988.5,-137 2988.5,-118 2863.5,-118"/>
<text text-anchor="middle" x="2926" y="-125" font-family="FreeSans.ttf" font-size="10.00">ForceTorqueDriver.cpp</text>
</a>
</g>
</g>
<!-- Node1&#45;&gt;Node28 -->
<g id="edge29" class="edge">
<title>Node1&#45;&gt;Node28</title>
<path fill="none" stroke="midnightblue" d="M2541.37,-183.47C2609.02,-176.31 2741.93,-161.32 2854,-143 2864.57,-141.27 2875.96,-139.12 2886.48,-137"/>
<polygon fill="midnightblue" stroke="midnightblue" points="2540.66,-180.02 2531.08,-184.55 2541.39,-186.98 2540.66,-180.02"/>
</g>
<!-- Node29 -->
<g id="node29" class="node">
<title>Node29</title>
<g id="a_node29"><a xlink:href="GazeboYarpRobotInterface_8cc.html" target="_top" xlink:title=" ">
<polygon fill="none" stroke="black" points="3006.5,-118 3006.5,-137 3165.5,-137 3165.5,-118 3006.5,-118"/>
<text text-anchor="middle" x="3086" y="-125" font-family="FreeSans.ttf" font-size="10.00">GazeboYarpRobotInterface.cc</text>
</a>
</g>
</g>
<!-- Node1&#45;&gt;Node29 -->
<g id="edge30" class="edge">
<title>Node1&#45;&gt;Node29</title>
<path fill="none" stroke="midnightblue" d="M2541.11,-185.1C2628.38,-179.12 2829.15,-164.2 2997,-143 3010.2,-141.33 3024.45,-139.17 3037.59,-137.03"/>
<polygon fill="midnightblue" stroke="midnightblue" points="2540.78,-181.61 2531.04,-185.78 2541.26,-188.6 2540.78,-181.61"/>
</g>
<!-- Node30 -->
<g id="node30" class="node">
<title>Node30</title>
<g id="a_node30"><a xlink:href="IMU_8cc.html" target="_top" xlink:title=" ">
<polygon fill="none" stroke="black" points="3183,-118 3183,-137 3233,-137 3233,-118 3183,-118"/>
<text text-anchor="middle" x="3208" y="-125" font-family="FreeSans.ttf" font-size="10.00">IMU.cc</text>
</a>
</g>
</g>
<!-- Node1&#45;&gt;Node30 -->
<g id="edge31" class="edge">
<title>Node1&#45;&gt;Node30</title>
<path fill="none" stroke="midnightblue" d="M2541.13,-187C2671.47,-183.74 3053.12,-171.91 3174,-143 3179.74,-141.63 3185.75,-139.37 3191.09,-137.04"/>
<polygon fill="midnightblue" stroke="midnightblue" points="2541.02,-183.5 2531.11,-187.24 2541.19,-190.5 2541.02,-183.5"/>
</g>
<!-- Node31 -->
<g id="node31" class="node">
<title>Node31</title>
<g id="a_node31"><a xlink:href="IMUDriver_8cpp.html" target="_top" xlink:title=" ">
<polygon fill="none" stroke="black" points="3251,-118 3251,-137 3337,-137 3337,-118 3251,-118"/>
<text text-anchor="middle" x="3294" y="-125" font-family="FreeSans.ttf" font-size="10.00">IMUDriver.cpp</text>
</a>
</g>
</g>
<!-- Node1&#45;&gt;Node31 -->
<g id="edge32" class="edge">
<title>Node1&#45;&gt;Node31</title>
<path fill="none" stroke="midnightblue" d="M2541.33,-188.57C2657.31,-189.38 2978.97,-187.1 3242,-143 3250.41,-141.59 3259.41,-139.35 3267.52,-137.05"/>
<polygon fill="midnightblue" stroke="midnightblue" points="2541.1,-185.07 2531.07,-188.49 2541.04,-192.07 2541.1,-185.07"/>
</g>
<!-- Node32 -->
<g id="node32" class="node">
<title>Node32</title>
<g id="a_node32"><a xlink:href="LaserSensor_8cc.html" target="_top" xlink:title=" ">
<polygon fill="none" stroke="black" points="3355.5,-118 3355.5,-137 3444.5,-137 3444.5,-118 3355.5,-118"/>
<text text-anchor="middle" x="3400" y="-125" font-family="FreeSans.ttf" font-size="10.00">LaserSensor.cc</text>
</a>
</g>
</g>
<!-- Node1&#45;&gt;Node32 -->
<g id="edge33" class="edge">
<title>Node1&#45;&gt;Node32</title>
<path fill="none" stroke="midnightblue" d="M2541.55,-186.87C2693.21,-182.83 3188.7,-168.01 3346,-143 3354.82,-141.6 3364.27,-139.33 3372.77,-137"/>
<polygon fill="midnightblue" stroke="midnightblue" points="2541.14,-183.38 2531.24,-187.14 2541.33,-190.38 2541.14,-183.38"/>
</g>
<!-- Node33 -->
<g id="node33" class="node">
<title>Node33</title>
<g id="a_node33"><a xlink:href="MaisSensor_8cc.html" target="_top" xlink:title=" ">
<polygon fill="none" stroke="black" points="3463,-118 3463,-137 3549,-137 3549,-118 3463,-118"/>
<text text-anchor="middle" x="3506" y="-125" font-family="FreeSans.ttf" font-size="10.00">MaisSensor.cc</text>
</a>
</g>
</g>
<!-- Node1&#45;&gt;Node33 -->
<g id="edge34" class="edge">
<title>Node1&#45;&gt;Node33</title>
<path fill="none" stroke="midnightblue" d="M2541.64,-187.2C2705.55,-184.07 3273.95,-171.35 3453,-143 3461.67,-141.63 3470.95,-139.37 3479.29,-137.04"/>
<polygon fill="midnightblue" stroke="midnightblue" points="2541.37,-183.71 2531.44,-187.39 2541.5,-190.7 2541.37,-183.71"/>
</g>
<!-- Node34 -->
<g id="node34" class="node">
<title>Node34</title>
<g id="a_node34"><a xlink:href="MaisSensorDriver_8cpp.html" target="_top" xlink:title=" ">
<polygon fill="none" stroke="black" points="3567,-118 3567,-137 3689,-137 3689,-118 3567,-118"/>
<text text-anchor="middle" x="3628" y="-125" font-family="FreeSans.ttf" font-size="10.00">MaisSensorDriver.cpp</text>
</a>
</g>
</g>
<!-- Node1&#45;&gt;Node34 -->
<g id="edge35" class="edge">
<title>Node1&#45;&gt;Node34</title>
<path fill="none" stroke="midnightblue" d="M2541.21,-187.08C2715.65,-183.3 3356.4,-167.99 3558,-143 3569.21,-141.61 3581.29,-139.38 3592.22,-137.07"/>
<polygon fill="midnightblue" stroke="midnightblue" points="2541.04,-183.58 2531.11,-187.3 2541.19,-190.58 2541.04,-183.58"/>
</g>
<!-- Node35 -->
<g id="node35" class="node">
<title>Node35</title>
<g id="a_node35"><a xlink:href="ModelPosePublisher_8cc.html" target="_top" xlink:title=" ">
<polygon fill="none" stroke="black" points="3707,-118 3707,-137 3835,-137 3835,-118 3707,-118"/>
<text text-anchor="middle" x="3771" y="-125" font-family="FreeSans.ttf" font-size="10.00">ModelPosePublisher.cc</text>
</a>
</g>
</g>
<!-- Node1&#45;&gt;Node35 -->
<g id="edge36" class="edge">
<title>Node1&#45;&gt;Node35</title>
<path fill="none" stroke="midnightblue" d="M2541.36,-187.28C2730.14,-184.08 3467.41,-170.05 3698,-143 3709.81,-141.62 3722.56,-139.35 3734.04,-137.02"/>
<polygon fill="midnightblue" stroke="midnightblue" points="2541.19,-183.78 2531.25,-187.45 2541.31,-190.78 2541.19,-183.78"/>
</g>
<!-- Node36 -->
<g id="node36" class="node">
<title>Node36</title>
<g id="a_node36"><a xlink:href="MultiCamera_8cc.html" target="_top" xlink:title=" ">
<polygon fill="none" stroke="black" points="3853.5,-118 3853.5,-137 3946.5,-137 3946.5,-118 3853.5,-118"/>
<text text-anchor="middle" x="3900" y="-125" font-family="FreeSans.ttf" font-size="10.00">MultiCamera.cc</text>
</a>
</g>
</g>
<!-- Node1&#45;&gt;Node36 -->
<g id="edge37" class="edge">
<title>Node1&#45;&gt;Node36</title>
<path fill="none" stroke="midnightblue" d="M2541.4,-187.83C2744.25,-186.84 3584.07,-180.53 3844,-143 3853.24,-141.67 3863.16,-139.39 3872.04,-137.03"/>
<polygon fill="midnightblue" stroke="midnightblue" points="2541.12,-184.33 2531.13,-187.88 2541.15,-191.33 2541.12,-184.33"/>
</g>
<!-- Node37 -->
<g id="node37" class="node">
<title>Node37</title>
<g id="a_node37"><a xlink:href="MultiCameraDriver_8cpp.html" target="_top" xlink:title=" ">
<polygon fill="none" stroke="black" points="3964.5,-118 3964.5,-137 4093.5,-137 4093.5,-118 3964.5,-118"/>
<text text-anchor="middle" x="4029" y="-125" font-family="FreeSans.ttf" font-size="10.00">MultiCameraDriver.cpp</text>
</a>
</g>
</g>
<!-- Node1&#45;&gt;Node37 -->
<g id="edge38" class="edge">
<title>Node1&#45;&gt;Node37</title>
<path fill="none" stroke="midnightblue" d="M2541.19,-187.61C2753.57,-185.56 3670.87,-175.01 3955,-143 3966.97,-141.65 3979.89,-139.4 3991.54,-137.07"/>
<polygon fill="midnightblue" stroke="midnightblue" points="2541.01,-184.11 2531.04,-187.7 2541.07,-191.11 2541.01,-184.11"/>
</g>
<!-- Node38 -->
<g id="node38" class="node">
<title>Node38</title>
<g id="a_node38"><a xlink:href="VideoTexture_8cc.html" target="_top" xlink:title=" ">
<polygon fill="none" stroke="black" points="4112,-118 4112,-137 4206,-137 4206,-118 4112,-118"/>
<text text-anchor="middle" x="4159" y="-125" font-family="FreeSans.ttf" font-size="10.00">VideoTexture.cc</text>
</a>
</g>
</g>
<!-- Node1&#45;&gt;Node38 -->
<g id="edge39" class="edge">
<title>Node1&#45;&gt;Node38</title>
<path fill="none" stroke="midnightblue" d="M2541.26,-188.08C2766.64,-188.29 3788.28,-186.75 4102,-143 4111.41,-141.69 4121.5,-139.42 4130.54,-137.05"/>
<polygon fill="midnightblue" stroke="midnightblue" points="2541.14,-184.58 2531.14,-188.07 2541.13,-191.58 2541.14,-184.58"/>
</g>
<!-- Node39 -->
<g id="node39" class="node">
<title>Node39</title>
<g id="a_node39"><a xlink:href="inertialMTB_8cc.html" target="_top" xlink:title=" ">
<polygon fill="none" stroke="black" points="4224,-118 4224,-137 4310,-137 4310,-118 4224,-118"/>
<text text-anchor="middle" x="4267" y="-125" font-family="FreeSans.ttf" font-size="10.00">inertialMTB.cc</text>
</a>
</g>
</g>
<!-- Node1&#45;&gt;Node39 -->
<g id="edge40" class="edge">
<title>Node1&#45;&gt;Node39</title>
<path fill="none" stroke="midnightblue" d="M2541.49,-187.49C2794.36,-184.49 4045.38,-168.47 4215,-143 4223.62,-141.71 4232.84,-139.44 4241.09,-137.08"/>
<polygon fill="midnightblue" stroke="midnightblue" points="2541.17,-183.99 2531.22,-187.61 2541.26,-190.99 2541.17,-183.99"/>
</g>
<!-- Node40 -->
<g id="node40" class="node">
<title>Node40</title>
<g id="a_node40"><a xlink:href="inertialMTBPart_8cc.html" target="_top" xlink:title=" ">
<polygon fill="none" stroke="black" points="4328.5,-118 4328.5,-137 4433.5,-137 4433.5,-118 4328.5,-118"/>
<text text-anchor="middle" x="4381" y="-125" font-family="FreeSans.ttf" font-size="10.00">inertialMTBPart.cc</text>
</a>
</g>
</g>
<!-- Node1&#45;&gt;Node40 -->
<g id="edge41" class="edge">
<title>Node1&#45;&gt;Node40</title>
<path fill="none" stroke="midnightblue" d="M2541.23,-188.14C2784.29,-188.7 3959.48,-188.99 4319,-143 4329.2,-141.7 4340.17,-139.43 4350,-137.06"/>
<polygon fill="midnightblue" stroke="midnightblue" points="2541.03,-184.64 2531.02,-188.11 2541.01,-191.64 2541.03,-184.64"/>
</g>
<!-- Node41 -->
<g id="node41" class="node">
<title>Node41</title>
<g id="a_node41"><a xlink:href="inertialMTBPartDriver_8cpp.html" target="_top" xlink:title=" ">
<polygon fill="none" stroke="black" points="4451.5,-118 4451.5,-137 4592.5,-137 4592.5,-118 4451.5,-118"/>
<text text-anchor="middle" x="4522" y="-125" font-family="FreeSans.ttf" font-size="10.00">inertialMTBPartDriver.cpp</text>
</a>
</g>
</g>
<!-- Node1&#45;&gt;Node41 -->
<g id="edge42" class="edge">
<title>Node1&#45;&gt;Node41</title>
<path fill="none" stroke="midnightblue" d="M2541.33,-187.92C2794.1,-187.29 4055.65,-182.24 4442,-143 4455.06,-141.67 4469.19,-139.4 4481.89,-137.04"/>
<polygon fill="midnightblue" stroke="midnightblue" points="2541.06,-184.42 2531.07,-187.94 2541.07,-191.42 2541.06,-184.42"/>
</g>
<!-- Node42 -->
<g id="node42" class="node">
<title>Node42</title>
<g id="a_node42"><a xlink:href="linkattacherserverimpl_8h.html" target="_top" xlink:title=" ">
<polygon fill="none" stroke="black" points="4611,-118 4611,-137 4747,-137 4747,-118 4611,-118"/>
<text text-anchor="middle" x="4679" y="-125" font-family="FreeSans.ttf" font-size="10.00">linkattacherserverimpl.h</text>
</a>
</g>
</g>
<!-- Node1&#45;&gt;Node42 -->
<g id="edge43" class="edge">
<title>Node1&#45;&gt;Node42</title>
<path fill="none" stroke="midnightblue" d="M2541.53,-188.03C2806.79,-188.08 4181.36,-186.2 4601,-143 4613.74,-141.69 4627.52,-139.42 4639.9,-137.05"/>
<polygon fill="midnightblue" stroke="midnightblue" points="2541.14,-184.53 2531.14,-188.03 2541.14,-191.53 2541.14,-184.53"/>
</g>
<!-- Node46 -->
<g id="node46" class="node">
<title>Node46</title>
<g id="a_node46"><a xlink:href="worldinterface_8cpp.html" target="_top" xlink:title=" ">
<polygon fill="none" stroke="black" points="4765.5,-118 4765.5,-137 4872.5,-137 4872.5,-118 4765.5,-118"/>
<text text-anchor="middle" x="4819" y="-125" font-family="FreeSans.ttf" font-size="10.00">worldinterface.cpp</text>
</a>
</g>
</g>
<!-- Node1&#45;&gt;Node46 -->
<g id="edge47" class="edge">
<title>Node1&#45;&gt;Node46</title>
<path fill="none" stroke="midnightblue" d="M2541.53,-187.67C2838.63,-185.36 4528.88,-171.09 4756,-143 4766.47,-141.7 4777.75,-139.41 4787.82,-137.01"/>
<polygon fill="midnightblue" stroke="midnightblue" points="2541.13,-184.17 2531.16,-187.75 2541.18,-191.17 2541.13,-184.17"/>
</g>
<!-- Node3 -->
<g id="node3" class="node">
<title>Node3</title>
<g id="a_node3"><a xlink:href="ApplyExternalWrench_8cc.html" target="_top" xlink:title=" ">
<polygon fill="none" stroke="black" points="1307.5,-0.5 1307.5,-19.5 1442.5,-19.5 1442.5,-0.5 1307.5,-0.5"/>
<text text-anchor="middle" x="1375" y="-7.5" font-family="FreeSans.ttf" font-size="10.00">ApplyExternalWrench.cc</text>
</a>
</g>
</g>
<!-- Node2&#45;&gt;Node3 -->
<g id="edge2" class="edge">
<title>Node2&#45;&gt;Node3</title>
<path fill="none" stroke="midnightblue" d="M1375,-45.8C1375,-36.91 1375,-26.78 1375,-19.75"/>
<polygon fill="midnightblue" stroke="midnightblue" points="1371.5,-46.08 1375,-56.08 1378.5,-46.08 1371.5,-46.08"/>
</g>
<!-- Node5 -->
<g id="node5" class="node">
<title>Node5</title>
<g id="a_node5"><a xlink:href="BaseState_8cc.html" target="_top" xlink:title=" ">
<polygon fill="none" stroke="black" points="0,-56.5 0,-75.5 80,-75.5 80,-56.5 0,-56.5"/>
<text text-anchor="middle" x="40" y="-63.5" font-family="FreeSans.ttf" font-size="10.00">BaseState.cc</text>
</a>
</g>
</g>
<!-- Node4&#45;&gt;Node5 -->
<g id="edge4" class="edge">
<title>Node4&#45;&gt;Node5</title>
<path fill="none" stroke="midnightblue" d="M41.37,-107.82C41.01,-97 40.57,-83.9 40.29,-75.51"/>
<polygon fill="midnightblue" stroke="midnightblue" points="37.88,-108.1 41.71,-117.98 44.88,-107.86 37.88,-108.1"/>
</g>
<!-- Node6&#45;&gt;Node5 -->
<g id="edge6" class="edge">
<title>Node6&#45;&gt;Node5</title>
<path fill="none" stroke="midnightblue" d="M128.54,-113.21C106.46,-101.69 75.17,-85.36 56.3,-75.51"/>
<polygon fill="midnightblue" stroke="midnightblue" points="127.18,-116.45 137.67,-117.98 130.42,-110.25 127.18,-116.45"/>
</g>
<!-- Node7 -->
<g id="node7" class="node">
<title>Node7</title>
<g id="a_node7"><a xlink:href="BaseStateDriver_8cpp.html" target="_top" xlink:title=" ">
<polygon fill="none" stroke="black" points="98,-56.5 98,-75.5 214,-75.5 214,-56.5 98,-56.5"/>
<text text-anchor="middle" x="156" y="-63.5" font-family="FreeSans.ttf" font-size="10.00">BaseStateDriver.cpp</text>
</a>
</g>
</g>
<!-- Node6&#45;&gt;Node7 -->
<g id="edge7" class="edge">
<title>Node6&#45;&gt;Node7</title>
<path fill="none" stroke="midnightblue" d="M154.63,-107.82C154.99,-97 155.43,-83.9 155.71,-75.51"/>
<polygon fill="midnightblue" stroke="midnightblue" points="151.12,-107.86 154.29,-117.98 158.12,-108.1 151.12,-107.86"/>
</g>
<!-- Node12 -->
<g id="node12" class="node">
<title>Node12</title>
<g id="a_node12"><a xlink:href="ConfigurationOverride_8cc.html" target="_top" xlink:title=" ">
<polygon fill="none" stroke="black" points="232.5,-56.5 232.5,-75.5 369.5,-75.5 369.5,-56.5 232.5,-56.5"/>
<text text-anchor="middle" x="301" y="-63.5" font-family="FreeSans.ttf" font-size="10.00">ConfigurationOverride.cc</text>
</a>
</g>
</g>
<!-- Node11&#45;&gt;Node12 -->
<g id="edge12" class="edge">
<title>Node11&#45;&gt;Node12</title>
<path fill="none" stroke="midnightblue" d="M296.2,-107.82C297.47,-97 299.01,-83.9 300,-75.51"/>
<polygon fill="midnightblue" stroke="midnightblue" points="292.7,-107.63 295,-117.98 299.65,-108.45 292.7,-107.63"/>
</g>
<!-- Node22&#45;&gt;Node2 -->
<g id="edge23" class="edge">
<title>Node22&#45;&gt;Node2</title>
<path fill="none" stroke="midnightblue" d="M2170.96,-115.73C2163.99,-114.28 2156.82,-112.96 2150,-112 1890.94,-75.39 1579.13,-68.43 1443.54,-67.2"/>
<polygon fill="midnightblue" stroke="midnightblue" points="2170.46,-119.2 2180.98,-117.93 2171.96,-112.37 2170.46,-119.2"/>
</g>
<!-- Node23 -->
<g id="node23" class="node">
<title>Node23</title>
<g id="a_node23"><a xlink:href="ExternalWrench_8cc.html" target="_top" xlink:title=" ">
<polygon fill="none" stroke="black" points="2160.5,-56.5 2160.5,-75.5 2267.5,-75.5 2267.5,-56.5 2160.5,-56.5"/>
<text text-anchor="middle" x="2214" y="-63.5" font-family="FreeSans.ttf" font-size="10.00">ExternalWrench.cc</text>
</a>
</g>
</g>
<!-- Node22&#45;&gt;Node23 -->
<g id="edge24" class="edge">
<title>Node22&#45;&gt;Node23</title>
<path fill="none" stroke="midnightblue" d="M2214,-107.82C2214,-97 2214,-83.9 2214,-75.51"/>
<polygon fill="midnightblue" stroke="midnightblue" points="2210.5,-107.98 2214,-117.98 2217.5,-107.98 2210.5,-107.98"/>
</g>
<!-- Node43 -->
<g id="node43" class="node">
<title>Node43</title>
<g id="a_node43"><a xlink:href="linkattacher_8hh.html" target="_top" xlink:title=" ">
<polygon fill="none" stroke="black" points="4702.5,-56.5 4702.5,-75.5 4791.5,-75.5 4791.5,-56.5 4702.5,-56.5"/>
<text text-anchor="middle" x="4747" y="-63.5" font-family="FreeSans.ttf" font-size="10.00">linkattacher.hh</text>
</a>
</g>
</g>
<!-- Node42&#45;&gt;Node43 -->
<g id="edge44" class="edge">
<title>Node42&#45;&gt;Node43</title>
<path fill="none" stroke="midnightblue" d="M4696.54,-111.15C4709.51,-99.81 4726.68,-84.78 4737.28,-75.51"/>
<polygon fill="midnightblue" stroke="midnightblue" points="4693.96,-108.76 4688.74,-117.98 4698.57,-114.02 4693.96,-108.76"/>
</g>
<!-- Node45 -->
<g id="node45" class="node">
<title>Node45</title>
<g id="a_node45"><a xlink:href="linkattacherserverimpl_8cpp.html" target="_top" xlink:title=" ">
<polygon fill="none" stroke="black" points="4537.5,-56.5 4537.5,-75.5 4684.5,-75.5 4684.5,-56.5 4537.5,-56.5"/>
<text text-anchor="middle" x="4611" y="-63.5" font-family="FreeSans.ttf" font-size="10.00">linkattacherserverimpl.cpp</text>
</a>
</g>
</g>
<!-- Node42&#45;&gt;Node45 -->
<g id="edge46" class="edge">
<title>Node42&#45;&gt;Node45</title>
<path fill="none" stroke="midnightblue" d="M4661.46,-111.15C4648.49,-99.81 4631.32,-84.78 4620.72,-75.51"/>
<polygon fill="midnightblue" stroke="midnightblue" points="4659.43,-114.02 4669.26,-117.98 4664.04,-108.76 4659.43,-114.02"/>
</g>
<!-- Node44 -->
<g id="node44" class="node">
<title>Node44</title>
<g id="a_node44"><a xlink:href="linkattacher_8cc.html" target="_top" xlink:title=" ">
<polygon fill="none" stroke="black" points="4703.5,-0.5 4703.5,-19.5 4790.5,-19.5 4790.5,-0.5 4703.5,-0.5"/>
<text text-anchor="middle" x="4747" y="-7.5" font-family="FreeSans.ttf" font-size="10.00">linkattacher.cc</text>
</a>
</g>
</g>
<!-- Node43&#45;&gt;Node44 -->
<g id="edge45" class="edge">
<title>Node43&#45;&gt;Node44</title>
<path fill="none" stroke="midnightblue" d="M4747,-45.8C4747,-36.91 4747,-26.78 4747,-19.75"/>
<polygon fill="midnightblue" stroke="midnightblue" points="4743.5,-46.08 4747,-56.08 4750.5,-46.08 4743.5,-46.08"/>
</g>
</g>
</svg>
