<?xml version="1.0" encoding="UTF-8" standalone="no"?>
<!DOCTYPE svg PUBLIC "-//W3C//DTD SVG 1.1//EN"
 "http://www.w3.org/Graphics/SVG/1.1/DTD/svg11.dtd">
<!-- Generated by graphviz version 2.43.0 (0)
 -->
<!-- Title: common.h Pages: 1 -->
<svg width="5095pt" height="207pt"
 viewBox="0.00 0.00 5095.00 207.00" xmlns="http://www.w3.org/2000/svg" xmlns:xlink="http://www.w3.org/1999/xlink">
<g id="graph0" class="graph" transform="scale(1 1) rotate(0) translate(4 203)">
<title>common.h</title>
<!-- Node1 -->
<g id="node1" class="node">
<title>Node1</title>
<g id="a_node1"><a xlink:title=" ">
<polygon fill="#bfbfbf" stroke="black" points="2567.5,-179.5 2567.5,-198.5 2635.5,-198.5 2635.5,-179.5 2567.5,-179.5"/>
<text text-anchor="middle" x="2601.5" y="-186.5" font-family="FreeSans.ttf" font-size="10.00">common.h</text>
</a>
</g>
</g>
<!-- Node2 -->
<g id="node2" class="node">
<title>Node2</title>
<g id="a_node2"><a xlink:href="BaseState_8hh.html" target="_top" xlink:title=" ">
<polygon fill="none" stroke="black" points="0,-118 0,-137 81,-137 81,-118 0,-118"/>
<text text-anchor="middle" x="40.5" y="-125" font-family="FreeSans.ttf" font-size="10.00">BaseState.hh</text>
</a>
</g>
</g>
<!-- Node1&#45;&gt;Node2 -->
<g id="edge1" class="edge">
<title>Node1&#45;&gt;Node2</title>
<path fill="none" stroke="midnightblue" d="M2557.04,-187.91C2241.28,-187.18 343.33,-181.23 90.5,-143 82.1,-141.73 73.13,-139.44 65.13,-137.04"/>
<polygon fill="midnightblue" stroke="midnightblue" points="2557.17,-191.41 2567.18,-187.93 2557.19,-184.41 2557.17,-191.41"/>
</g>
<!-- Node4 -->
<g id="node4" class="node">
<title>Node4</title>
<g id="a_node4"><a xlink:href="BaseStateDriver_8h.html" target="_top" xlink:title=" ">
<polygon fill="none" stroke="black" points="99.5,-118 99.5,-137 203.5,-137 203.5,-118 99.5,-118"/>
<text text-anchor="middle" x="151.5" y="-125" font-family="FreeSans.ttf" font-size="10.00">BaseStateDriver.h</text>
</a>
</g>
</g>
<!-- Node1&#45;&gt;Node4 -->
<g id="edge3" class="edge">
<title>Node1&#45;&gt;Node4</title>
<path fill="none" stroke="midnightblue" d="M2556.84,-187.74C2249.54,-185.84 453.22,-173.52 212.5,-143 202.35,-141.71 191.43,-139.42 181.67,-137.02"/>
<polygon fill="midnightblue" stroke="midnightblue" points="2557.12,-191.24 2567.14,-187.8 2557.16,-184.24 2557.12,-191.24"/>
</g>
<!-- Node6 -->
<g id="node6" class="node">
<title>Node6</title>
<g id="a_node6"><a xlink:href="Camera_8cc.html" target="_top" xlink:title=" ">
<polygon fill="none" stroke="black" points="221.5,-118 221.5,-137 289.5,-137 289.5,-118 221.5,-118"/>
<text text-anchor="middle" x="255.5" y="-125" font-family="FreeSans.ttf" font-size="10.00">Camera.cc</text>
</a>
</g>
</g>
<!-- Node1&#45;&gt;Node6 -->
<g id="edge6" class="edge">
<title>Node1&#45;&gt;Node6</title>
<path fill="none" stroke="midnightblue" d="M2556.99,-187.95C2256.45,-187.48 528.59,-183.06 298.5,-143 291.2,-141.73 283.47,-139.44 276.6,-137.04"/>
<polygon fill="midnightblue" stroke="midnightblue" points="2557.07,-191.45 2567.08,-187.96 2557.08,-184.45 2557.07,-191.45"/>
</g>
<!-- Node7 -->
<g id="node7" class="node">
<title>Node7</title>
<g id="a_node7"><a xlink:href="CameraDriver_8cpp.html" target="_top" xlink:title=" ">
<polygon fill="none" stroke="black" points="307.5,-118 307.5,-137 411.5,-137 411.5,-118 307.5,-118"/>
<text text-anchor="middle" x="359.5" y="-125" font-family="FreeSans.ttf" font-size="10.00">CameraDriver.cpp</text>
</a>
</g>
</g>
<!-- Node1&#45;&gt;Node7 -->
<g id="edge7" class="edge">
<title>Node1&#45;&gt;Node7</title>
<path fill="none" stroke="midnightblue" d="M2557.13,-187.65C2266.47,-185.3 639.33,-170.94 420.5,-143 410.35,-141.7 399.43,-139.4 389.67,-137.01"/>
<polygon fill="midnightblue" stroke="midnightblue" points="2557.26,-191.15 2567.29,-187.73 2557.32,-184.15 2557.26,-191.15"/>
</g>
<!-- Node8 -->
<g id="node8" class="node">
<title>Node8</title>
<g id="a_node8"><a xlink:href="Clock_8cc.html" target="_top" xlink:title=" ">
<polygon fill="none" stroke="black" points="430,-118 430,-137 487,-137 487,-118 430,-118"/>
<text text-anchor="middle" x="458.5" y="-125" font-family="FreeSans.ttf" font-size="10.00">Clock.cc</text>
</a>
</g>
</g>
<!-- Node1&#45;&gt;Node8 -->
<g id="edge8" class="edge">
<title>Node1&#45;&gt;Node8</title>
<path fill="none" stroke="midnightblue" d="M2556.83,-187.99C2271,-187.77 703.95,-184.7 495.5,-143 489.14,-141.73 482.46,-139.44 476.56,-137.04"/>
<polygon fill="midnightblue" stroke="midnightblue" points="2557.21,-191.49 2567.21,-187.99 2557.21,-184.49 2557.21,-191.49"/>
</g>
<!-- Node9 -->
<g id="node9" class="node">
<title>Node9</title>
<g id="a_node9"><a xlink:href="ConfigurationOverride_8hh.html" target="_top" xlink:title=" ">
<polygon fill="none" stroke="black" points="505,-118 505,-137 644,-137 644,-118 505,-118"/>
<text text-anchor="middle" x="574.5" y="-125" font-family="FreeSans.ttf" font-size="10.00">ConfigurationOverride.hh</text>
</a>
</g>
</g>
<!-- Node1&#45;&gt;Node9 -->
<g id="edge9" class="edge">
<title>Node1&#45;&gt;Node9</title>
<path fill="none" stroke="midnightblue" d="M2557.1,-187.93C2303.93,-187.39 1040.4,-182.72 653.5,-143 640.6,-141.68 626.65,-139.4 614.11,-137.04"/>
<polygon fill="midnightblue" stroke="midnightblue" points="2557.37,-191.43 2567.38,-187.95 2557.39,-184.43 2557.37,-191.43"/>
</g>
<!-- Node11 -->
<g id="node11" class="node">
<title>Node11</title>
<g id="a_node11"><a xlink:href="ContactLoadCellArray_8cc.html" target="_top" xlink:title=" ">
<polygon fill="none" stroke="black" points="662.5,-118 662.5,-137 796.5,-137 796.5,-118 662.5,-118"/>
<text text-anchor="middle" x="729.5" y="-125" font-family="FreeSans.ttf" font-size="10.00">ContactLoadCellArray.cc</text>
</a>
</g>
</g>
<!-- Node1&#45;&gt;Node11 -->
<g id="edge11" class="edge">
<title>Node1&#45;&gt;Node11</title>
<path fill="none" stroke="midnightblue" d="M2557.15,-187.87C2316,-187.03 1160.36,-181.04 805.5,-143 793.08,-141.67 779.65,-139.39 767.59,-137.03"/>
<polygon fill="midnightblue" stroke="midnightblue" points="2557.28,-191.37 2567.29,-187.91 2557.31,-184.37 2557.28,-191.37"/>
</g>
<!-- Node12 -->
<g id="node12" class="node">
<title>Node12</title>
<g id="a_node12"><a xlink:href="ContactLoadCellArrayDriver_8cpp.html" target="_top" xlink:title=" ">
<polygon fill="none" stroke="black" points="814.5,-118 814.5,-137 986.5,-137 986.5,-118 814.5,-118"/>
<text text-anchor="middle" x="900.5" y="-125" font-family="FreeSans.ttf" font-size="10.00">ContactLoadCellArrayDriver.cpp</text>
</a>
</g>
</g>
<!-- Node1&#45;&gt;Node12 -->
<g id="edge12" class="edge">
<title>Node1&#45;&gt;Node12</title>
<path fill="none" stroke="midnightblue" d="M2557.28,-187.5C2332.09,-184.84 1311.18,-171.4 995.5,-143 980.21,-141.62 963.64,-139.36 948.69,-137.03"/>
<polygon fill="midnightblue" stroke="midnightblue" points="2557.35,-191 2567.39,-187.62 2557.44,-184 2557.35,-191"/>
</g>
<!-- Node13 -->
<g id="node13" class="node">
<title>Node13</title>
<g id="a_node13"><a xlink:href="ControlBoard_8cc.html" target="_top" xlink:title=" ">
<polygon fill="none" stroke="black" points="1004.5,-118 1004.5,-137 1098.5,-137 1098.5,-118 1004.5,-118"/>
<text text-anchor="middle" x="1051.5" y="-125" font-family="FreeSans.ttf" font-size="10.00">ControlBoard.cc</text>
</a>
</g>
</g>
<!-- Node1&#45;&gt;Node13 -->
<g id="edge13" class="edge">
<title>Node1&#45;&gt;Node13</title>
<path fill="none" stroke="midnightblue" d="M2557.21,-188C2341.32,-187.78 1398.01,-184.45 1107.5,-143 1098.25,-141.68 1088.34,-139.41 1079.45,-137.04"/>
<polygon fill="midnightblue" stroke="midnightblue" points="2557.22,-191.5 2567.22,-188.01 2557.23,-184.5 2557.22,-191.5"/>
</g>
<!-- Node14 -->
<g id="node14" class="node">
<title>Node14</title>
<g id="a_node14"><a xlink:href="ControlBoardDriver_8cpp.html" target="_top" xlink:title=" ">
<polygon fill="none" stroke="black" points="1116.5,-118 1116.5,-137 1246.5,-137 1246.5,-118 1116.5,-118"/>
<text text-anchor="middle" x="1181.5" y="-125" font-family="FreeSans.ttf" font-size="10.00">ControlBoardDriver.cpp</text>
</a>
</g>
</g>
<!-- Node1&#45;&gt;Node14 -->
<g id="edge14" class="edge">
<title>Node1&#45;&gt;Node14</title>
<path fill="none" stroke="midnightblue" d="M2557.18,-187.47C2354.69,-184.92 1516.25,-172.71 1255.5,-143 1243.53,-141.64 1230.61,-139.38 1218.96,-137.05"/>
<polygon fill="midnightblue" stroke="midnightblue" points="2557.39,-190.98 2567.43,-187.6 2557.47,-183.98 2557.39,-190.98"/>
</g>
<!-- Node15 -->
<g id="node15" class="node">
<title>Node15</title>
<g id="a_node15"><a xlink:href="ControlBoardDriverCoupling_8cpp.html" target="_top" xlink:title=" ">
<polygon fill="none" stroke="black" points="1265,-118 1265,-137 1438,-137 1438,-118 1265,-118"/>
<text text-anchor="middle" x="1351.5" y="-125" font-family="FreeSans.ttf" font-size="10.00">ControlBoardDriverCoupling.cpp</text>
</a>
</g>
</g>
<!-- Node1&#45;&gt;Node15 -->
<g id="edge15" class="edge">
<title>Node1&#45;&gt;Node15</title>
<path fill="none" stroke="midnightblue" d="M2556.94,-188.06C2402.73,-187.91 1877.63,-184.17 1446.5,-143 1431.39,-141.56 1415.01,-139.31 1400.19,-137.01"/>
<polygon fill="midnightblue" stroke="midnightblue" points="2557.39,-191.57 2567.39,-188.07 2557.39,-184.57 2557.39,-191.57"/>
</g>
<!-- Node16 -->
<g id="node16" class="node">
<title>Node16</title>
<g id="a_node16"><a xlink:href="ControlBoardDriverPidControl_8cpp.html" target="_top" xlink:title=" ">
<polygon fill="none" stroke="black" points="1456,-118 1456,-137 1637,-137 1637,-118 1456,-118"/>
<text text-anchor="middle" x="1546.5" y="-125" font-family="FreeSans.ttf" font-size="10.00">ControlBoardDriverPidControl.cpp</text>
</a>
</g>
</g>
<!-- Node1&#45;&gt;Node16 -->
<g id="edge16" class="edge">
<title>Node1&#45;&gt;Node16</title>
<path fill="none" stroke="midnightblue" d="M2557.04,-187.46C2420.57,-185.47 1995.68,-176.8 1645.5,-143 1630.03,-141.51 1613.27,-139.28 1598.02,-137.03"/>
<polygon fill="midnightblue" stroke="midnightblue" points="2557.07,-190.96 2567.12,-187.6 2557.17,-183.96 2557.07,-190.96"/>
</g>
<!-- Node17 -->
<g id="node17" class="node">
<title>Node17</title>
<g id="a_node17"><a xlink:href="ControlBoardDriverTrajectory_8cpp.html" target="_top" xlink:title=" ">
<polygon fill="none" stroke="black" points="1655,-118 1655,-137 1832,-137 1832,-118 1655,-118"/>
<text text-anchor="middle" x="1743.5" y="-125" font-family="FreeSans.ttf" font-size="10.00">ControlBoardDriverTrajectory.cpp</text>
</a>
</g>
</g>
<!-- Node1&#45;&gt;Node17 -->
<g id="edge17" class="edge">
<title>Node1&#45;&gt;Node17</title>
<path fill="none" stroke="midnightblue" d="M2557.25,-186.77C2440.06,-183.2 2112.03,-171.27 1840.5,-143 1825.6,-141.45 1809.48,-139.25 1794.74,-137.03"/>
<polygon fill="midnightblue" stroke="midnightblue" points="2557.18,-190.26 2567.28,-187.07 2557.39,-183.27 2557.18,-190.26"/>
</g>
<!-- Node18 -->
<g id="node18" class="node">
<title>Node18</title>
<g id="a_node18"><a xlink:href="DepthCamera_8cc.html" target="_top" xlink:title=" ">
<polygon fill="none" stroke="black" points="1849.5,-118 1849.5,-137 1947.5,-137 1947.5,-118 1849.5,-118"/>
<text text-anchor="middle" x="1898.5" y="-125" font-family="FreeSans.ttf" font-size="10.00">DepthCamera.cc</text>
</a>
</g>
</g>
<!-- Node1&#45;&gt;Node18 -->
<g id="edge18" class="edge">
<title>Node1&#45;&gt;Node18</title>
<path fill="none" stroke="midnightblue" d="M2557.12,-187.58C2452.08,-185.99 2180.25,-178.49 1956.5,-143 1947.27,-141.54 1937.37,-139.31 1928.4,-137.04"/>
<polygon fill="midnightblue" stroke="midnightblue" points="2557.3,-191.08 2567.34,-187.72 2557.39,-184.08 2557.3,-191.08"/>
</g>
<!-- Node19 -->
<g id="node19" class="node">
<title>Node19</title>
<g id="a_node19"><a xlink:href="DepthCameraDriver_8cpp.html" target="_top" xlink:title=" ">
<polygon fill="none" stroke="black" points="1965.5,-118 1965.5,-137 2099.5,-137 2099.5,-118 1965.5,-118"/>
<text text-anchor="middle" x="2032.5" y="-125" font-family="FreeSans.ttf" font-size="10.00">DepthCameraDriver.cpp</text>
</a>
</g>
</g>
<!-- Node1&#45;&gt;Node19 -->
<g id="edge19" class="edge">
<title>Node1&#45;&gt;Node19</title>
<path fill="none" stroke="midnightblue" d="M2557.31,-185.42C2470.84,-180.04 2273.29,-166.19 2108.5,-143 2097.06,-141.39 2084.73,-139.23 2073.4,-137.06"/>
<polygon fill="midnightblue" stroke="midnightblue" points="2557.1,-188.91 2567.3,-186.03 2557.53,-181.92 2557.1,-188.91"/>
</g>
<!-- Node20 -->
<g id="node20" class="node">
<title>Node20</title>
<g id="a_node20"><a xlink:href="DoubleLaser_8cc.html" target="_top" xlink:title=" ">
<polygon fill="none" stroke="black" points="2117.5,-118 2117.5,-137 2207.5,-137 2207.5,-118 2117.5,-118"/>
<text text-anchor="middle" x="2162.5" y="-125" font-family="FreeSans.ttf" font-size="10.00">DoubleLaser.cc</text>
</a>
</g>
</g>
<!-- Node1&#45;&gt;Node20 -->
<g id="edge20" class="edge">
<title>Node1&#45;&gt;Node20</title>
<path fill="none" stroke="midnightblue" d="M2557.11,-184.53C2485.92,-178.56 2341.96,-164.85 2221.5,-143 2212.57,-141.38 2202.99,-139.21 2194.19,-137.05"/>
<polygon fill="midnightblue" stroke="midnightblue" points="2557.23,-188.05 2567.49,-185.39 2557.81,-181.07 2557.23,-188.05"/>
</g>
<!-- Node21 -->
<g id="node21" class="node">
<title>Node21</title>
<g id="a_node21"><a xlink:href="ApplyExternalWrench_8hh.html" target="_top" xlink:title=" ">
<polygon fill="none" stroke="black" points="2167,-56.5 2167,-75.5 2304,-75.5 2304,-56.5 2167,-56.5"/>
<text text-anchor="middle" x="2235.5" y="-63.5" font-family="FreeSans.ttf" font-size="10.00">ApplyExternalWrench.hh</text>
</a>
</g>
</g>
<!-- Node1&#45;&gt;Node21 -->
<g id="edge21" class="edge">
<title>Node1&#45;&gt;Node21</title>
<path fill="none" stroke="midnightblue" d="M2557.06,-188.25C2473.7,-187.78 2298.34,-182.03 2254.5,-143 2235,-125.64 2234.06,-91.57 2234.81,-75.62"/>
<polygon fill="midnightblue" stroke="midnightblue" points="2557.22,-191.75 2567.23,-188.28 2557.24,-184.75 2557.22,-191.75"/>
</g>
<!-- Node23 -->
<g id="node23" class="node">
<title>Node23</title>
<g id="a_node23"><a xlink:href="ExternalWrench_8hh.html" target="_top" xlink:title=" ">
<polygon fill="none" stroke="black" points="2264,-118 2264,-137 2373,-137 2373,-118 2264,-118"/>
<text text-anchor="middle" x="2318.5" y="-125" font-family="FreeSans.ttf" font-size="10.00">ExternalWrench.hh</text>
</a>
</g>
</g>
<!-- Node1&#45;&gt;Node23 -->
<g id="edge23" class="edge">
<title>Node1&#45;&gt;Node23</title>
<path fill="none" stroke="midnightblue" d="M2557.46,-179.22C2513.2,-170.34 2443.04,-156.08 2382.5,-143 2373.81,-141.12 2364.48,-139.04 2355.7,-137.06"/>
<polygon fill="midnightblue" stroke="midnightblue" points="2556.82,-182.66 2567.31,-181.2 2558.2,-175.8 2556.82,-182.66"/>
</g>
<!-- Node25 -->
<g id="node25" class="node">
<title>Node25</title>
<g id="a_node25"><a xlink:href="FakeControlBoard_8cc.html" target="_top" xlink:title=" ">
<polygon fill="none" stroke="black" points="2391.5,-118 2391.5,-137 2507.5,-137 2507.5,-118 2391.5,-118"/>
<text text-anchor="middle" x="2449.5" y="-125" font-family="FreeSans.ttf" font-size="10.00">FakeControlBoard.cc</text>
</a>
</g>
</g>
<!-- Node1&#45;&gt;Node25 -->
<g id="edge26" class="edge">
<title>Node1&#45;&gt;Node25</title>
<path fill="none" stroke="midnightblue" d="M2570.29,-175.78C2540.75,-164.22 2497.18,-147.16 2471.24,-137.01"/>
<polygon fill="midnightblue" stroke="midnightblue" points="2569.13,-179.09 2579.72,-179.48 2571.69,-172.57 2569.13,-179.09"/>
</g>
<!-- Node26 -->
<g id="node26" class="node">
<title>Node26</title>
<g id="a_node26"><a xlink:href="FakeControlBoardDriver_8cpp.html" target="_top" xlink:title=" ">
<polygon fill="none" stroke="black" points="2525.5,-118 2525.5,-137 2677.5,-137 2677.5,-118 2525.5,-118"/>
<text text-anchor="middle" x="2601.5" y="-125" font-family="FreeSans.ttf" font-size="10.00">FakeControlBoardDriver.cpp</text>
</a>
</g>
</g>
<!-- Node1&#45;&gt;Node26 -->
<g id="edge27" class="edge">
<title>Node1&#45;&gt;Node26</title>
<path fill="none" stroke="midnightblue" d="M2601.5,-169.32C2601.5,-158.5 2601.5,-145.4 2601.5,-137.01"/>
<polygon fill="midnightblue" stroke="midnightblue" points="2598,-169.48 2601.5,-179.48 2605,-169.48 2598,-169.48"/>
</g>
<!-- Node27 -->
<g id="node27" class="node">
<title>Node27</title>
<g id="a_node27"><a xlink:href="FakeControlBoardDriverPidControl_8cpp.html" target="_top" xlink:title=" ">
<polygon fill="none" stroke="black" points="2696,-112.5 2696,-142.5 2843,-142.5 2843,-112.5 2696,-112.5"/>
<text text-anchor="start" x="2704" y="-130.5" font-family="FreeSans.ttf" font-size="10.00">FakeControlBoardDriverPid</text>
<text text-anchor="middle" x="2769.5" y="-119.5" font-family="FreeSans.ttf" font-size="10.00">Control.cpp</text>
</a>
</g>
</g>
<!-- Node1&#45;&gt;Node27 -->
<g id="edge28" class="edge">
<title>Node1&#45;&gt;Node27</title>
<path fill="none" stroke="midnightblue" d="M2635.09,-176.1C2662.43,-166.42 2701.07,-152.74 2729.91,-142.52"/>
<polygon fill="midnightblue" stroke="midnightblue" points="2633.83,-172.84 2625.57,-179.48 2636.17,-179.44 2633.83,-172.84"/>
</g>
<!-- Node28 -->
<g id="node28" class="node">
<title>Node28</title>
<g id="a_node28"><a xlink:href="ForceTorque_8cc.html" target="_top" xlink:title=" ">
<polygon fill="none" stroke="black" points="2861,-118 2861,-137 2950,-137 2950,-118 2861,-118"/>
<text text-anchor="middle" x="2905.5" y="-125" font-family="FreeSans.ttf" font-size="10.00">ForceTorque.cc</text>
</a>
</g>
</g>
<!-- Node1&#45;&gt;Node28 -->
<g id="edge29" class="edge">
<title>Node1&#45;&gt;Node28</title>
<path fill="none" stroke="midnightblue" d="M2645.82,-181.18C2695.97,-173.2 2779.98,-159.01 2851.5,-143 2859.36,-141.24 2867.8,-139.1 2875.62,-137"/>
<polygon fill="midnightblue" stroke="midnightblue" points="2644.98,-177.77 2635.65,-182.79 2646.07,-184.68 2644.98,-177.77"/>
</g>
<!-- Node29 -->
<g id="node29" class="node">
<title>Node29</title>
<g id="a_node29"><a xlink:href="IMU_8cc.html" target="_top" xlink:title=" ">
<polygon fill="none" stroke="black" points="2968.5,-118 2968.5,-137 3018.5,-137 3018.5,-118 2968.5,-118"/>
<text text-anchor="middle" x="2993.5" y="-125" font-family="FreeSans.ttf" font-size="10.00">IMU.cc</text>
</a>
</g>
</g>
<!-- Node1&#45;&gt;Node29 -->
<g id="edge30" class="edge">
<title>Node1&#45;&gt;Node29</title>
<path fill="none" stroke="midnightblue" d="M2645.91,-186.21C2714.16,-182.61 2848.45,-172.17 2958.5,-143 2964.09,-141.52 2969.98,-139.34 2975.29,-137.12"/>
<polygon fill="midnightblue" stroke="midnightblue" points="2645.35,-182.73 2635.54,-186.73 2645.71,-189.72 2645.35,-182.73"/>
</g>
<!-- Node30 -->
<g id="node30" class="node">
<title>Node30</title>
<g id="a_node30"><a xlink:href="IMUDriver_8cpp.html" target="_top" xlink:title=" ">
<polygon fill="none" stroke="black" points="3036.5,-118 3036.5,-137 3122.5,-137 3122.5,-118 3036.5,-118"/>
<text text-anchor="middle" x="3079.5" y="-125" font-family="FreeSans.ttf" font-size="10.00">IMUDriver.cpp</text>
</a>
</g>
</g>
<!-- Node1&#45;&gt;Node30 -->
<g id="edge31" class="edge">
<title>Node1&#45;&gt;Node30</title>
<path fill="none" stroke="midnightblue" d="M2646.15,-185.74C2724.11,-181.24 2889.88,-169.27 3027.5,-143 3035.6,-141.45 3044.28,-139.26 3052.18,-137.04"/>
<polygon fill="midnightblue" stroke="midnightblue" points="2645.53,-182.27 2635.74,-186.32 2645.92,-189.26 2645.53,-182.27"/>
</g>
<!-- Node31 -->
<g id="node31" class="node">
<title>Node31</title>
<g id="a_node31"><a xlink:href="inertialMTB_8cc.html" target="_top" xlink:title=" ">
<polygon fill="none" stroke="black" points="3140.5,-118 3140.5,-137 3226.5,-137 3226.5,-118 3140.5,-118"/>
<text text-anchor="middle" x="3183.5" y="-125" font-family="FreeSans.ttf" font-size="10.00">inertialMTB.cc</text>
</a>
</g>
</g>
<!-- Node1&#45;&gt;Node31 -->
<g id="edge32" class="edge">
<title>Node1&#45;&gt;Node31</title>
<path fill="none" stroke="midnightblue" d="M2645.85,-187.03C2737.35,-184.43 2953.38,-175.1 3131.5,-143 3139.71,-141.52 3148.5,-139.32 3156.46,-137.07"/>
<polygon fill="midnightblue" stroke="midnightblue" points="2645.48,-183.54 2635.58,-187.31 2645.67,-190.54 2645.48,-183.54"/>
</g>
<!-- Node32 -->
<g id="node32" class="node">
<title>Node32</title>
<g id="a_node32"><a xlink:href="inertialMTBPart_8cc.html" target="_top" xlink:title=" ">
<polygon fill="none" stroke="black" points="3245,-118 3245,-137 3350,-137 3350,-118 3245,-118"/>
<text text-anchor="middle" x="3297.5" y="-125" font-family="FreeSans.ttf" font-size="10.00">inertialMTBPart.cc</text>
</a>
</g>
</g>
<!-- Node1&#45;&gt;Node32 -->
<g id="edge33" class="edge">
<title>Node1&#45;&gt;Node32</title>
<path fill="none" stroke="midnightblue" d="M2645.83,-187.27C2749.54,-185.04 3015.84,-176.27 3235.5,-143 3245.34,-141.51 3255.92,-139.28 3265.51,-137"/>
<polygon fill="midnightblue" stroke="midnightblue" points="2645.66,-183.77 2635.73,-187.48 2645.8,-190.77 2645.66,-183.77"/>
</g>
<!-- Node33 -->
<g id="node33" class="node">
<title>Node33</title>
<g id="a_node33"><a xlink:href="inertialMTBPartDriver_8cpp.html" target="_top" xlink:title=" ">
<polygon fill="none" stroke="black" points="3368,-118 3368,-137 3509,-137 3509,-118 3368,-118"/>
<text text-anchor="middle" x="3438.5" y="-125" font-family="FreeSans.ttf" font-size="10.00">inertialMTBPartDriver.cpp</text>
</a>
</g>
</g>
<!-- Node1&#45;&gt;Node33 -->
<g id="edge34" class="edge">
<title>Node1&#45;&gt;Node33</title>
<path fill="none" stroke="midnightblue" d="M2645.92,-187.22C2762.93,-184.76 3089.13,-175.3 3358.5,-143 3370.97,-141.5 3384.44,-139.3 3396.71,-137.05"/>
<polygon fill="midnightblue" stroke="midnightblue" points="2645.51,-183.73 2635.58,-187.43 2645.65,-190.72 2645.51,-183.73"/>
</g>
<!-- Node34 -->
<g id="node34" class="node">
<title>Node34</title>
<g id="a_node34"><a xlink:href="JointSensors_8cc.html" target="_top" xlink:title=" ">
<polygon fill="none" stroke="black" points="3527.5,-118 3527.5,-137 3617.5,-137 3617.5,-118 3527.5,-118"/>
<text text-anchor="middle" x="3572.5" y="-125" font-family="FreeSans.ttf" font-size="10.00">JointSensors.cc</text>
</a>
</g>
</g>
<!-- Node1&#45;&gt;Node34 -->
<g id="edge35" class="edge">
<title>Node1&#45;&gt;Node34</title>
<path fill="none" stroke="midnightblue" d="M2646.34,-187.04C2806.03,-183.41 3346.57,-169.43 3517.5,-143 3526.48,-141.61 3536.11,-139.35 3544.76,-137.02"/>
<polygon fill="midnightblue" stroke="midnightblue" points="2645.87,-183.55 2635.95,-187.27 2646.02,-190.54 2645.87,-183.55"/>
</g>
<!-- Node35 -->
<g id="node35" class="node">
<title>Node35</title>
<g id="a_node35"><a xlink:href="JointSensorsDriver_8cpp.html" target="_top" xlink:title=" ">
<polygon fill="none" stroke="black" points="3635.5,-118 3635.5,-137 3761.5,-137 3761.5,-118 3635.5,-118"/>
<text text-anchor="middle" x="3698.5" y="-125" font-family="FreeSans.ttf" font-size="10.00">JointSensorsDriver.cpp</text>
</a>
</g>
</g>
<!-- Node1&#45;&gt;Node35 -->
<g id="edge36" class="edge">
<title>Node1&#45;&gt;Node35</title>
<path fill="none" stroke="midnightblue" d="M2645.84,-188.5C2788.63,-189.58 3249.16,-189 3626.5,-143 3638.02,-141.6 3650.45,-139.36 3661.68,-137.06"/>
<polygon fill="midnightblue" stroke="midnightblue" points="2645.75,-185 2635.72,-188.41 2645.69,-192 2645.75,-185"/>
</g>
<!-- Node36 -->
<g id="node36" class="node">
<title>Node36</title>
<g id="a_node36"><a xlink:href="LaserSensor_8cc.html" target="_top" xlink:title=" ">
<polygon fill="none" stroke="black" points="3780,-118 3780,-137 3869,-137 3869,-118 3780,-118"/>
<text text-anchor="middle" x="3824.5" y="-125" font-family="FreeSans.ttf" font-size="10.00">LaserSensor.cc</text>
</a>
</g>
</g>
<!-- Node1&#45;&gt;Node36 -->
<g id="edge37" class="edge">
<title>Node1&#45;&gt;Node36</title>
<path fill="none" stroke="midnightblue" d="M2645.93,-187.62C2831.77,-185.82 3547.54,-176.79 3770.5,-143 3779.43,-141.65 3788.99,-139.36 3797.56,-137"/>
<polygon fill="midnightblue" stroke="midnightblue" points="2645.68,-184.12 2635.71,-187.72 2645.74,-191.12 2645.68,-184.12"/>
</g>
<!-- Node37 -->
<g id="node37" class="node">
<title>Node37</title>
<g id="a_node37"><a xlink:href="linkattacherserverimpl_8h.html" target="_top" xlink:title=" ">
<polygon fill="none" stroke="black" points="3887.5,-118 3887.5,-137 4023.5,-137 4023.5,-118 3887.5,-118"/>
<text text-anchor="middle" x="3955.5" y="-125" font-family="FreeSans.ttf" font-size="10.00">linkattacherserverimpl.h</text>
</a>
</g>
</g>
<!-- Node1&#45;&gt;Node37 -->
<g id="edge38" class="edge">
<title>Node1&#45;&gt;Node37</title>
<path fill="none" stroke="midnightblue" d="M2645.71,-187.32C2841.44,-184.19 3631.12,-170.09 3877.5,-143 3890.1,-141.61 3903.71,-139.35 3915.99,-137.02"/>
<polygon fill="midnightblue" stroke="midnightblue" points="2645.46,-183.83 2635.52,-187.48 2645.57,-190.83 2645.46,-183.83"/>
</g>
<!-- Node41 -->
<g id="node41" class="node">
<title>Node41</title>
<g id="a_node41"><a xlink:href="MaisSensor_8cc.html" target="_top" xlink:title=" ">
<polygon fill="none" stroke="black" points="4041.5,-118 4041.5,-137 4127.5,-137 4127.5,-118 4041.5,-118"/>
<text text-anchor="middle" x="4084.5" y="-125" font-family="FreeSans.ttf" font-size="10.00">MaisSensor.cc</text>
</a>
</g>
</g>
<!-- Node1&#45;&gt;Node41 -->
<g id="edge42" class="edge">
<title>Node1&#45;&gt;Node41</title>
<path fill="none" stroke="midnightblue" d="M2645.61,-188.04C2855.62,-188.01 3755.38,-185.36 4032.5,-143 4041.12,-141.68 4050.33,-139.41 4058.58,-137.05"/>
<polygon fill="midnightblue" stroke="midnightblue" points="2645.57,-184.54 2635.57,-188.04 2645.57,-191.54 2645.57,-184.54"/>
</g>
<!-- Node42 -->
<g id="node42" class="node">
<title>Node42</title>
<g id="a_node42"><a xlink:href="MaisSensorDriver_8cpp.html" target="_top" xlink:title=" ">
<polygon fill="none" stroke="black" points="4145.5,-118 4145.5,-137 4267.5,-137 4267.5,-118 4145.5,-118"/>
<text text-anchor="middle" x="4206.5" y="-125" font-family="FreeSans.ttf" font-size="10.00">MaisSensorDriver.cpp</text>
</a>
</g>
</g>
<!-- Node1&#45;&gt;Node42 -->
<g id="edge43" class="edge">
<title>Node1&#45;&gt;Node42</title>
<path fill="none" stroke="midnightblue" d="M2645.89,-187.75C2865.43,-186.34 3836.57,-178.19 4136.5,-143 4147.96,-141.66 4160.34,-139.37 4171.44,-137.01"/>
<polygon fill="midnightblue" stroke="midnightblue" points="2645.69,-184.25 2635.71,-187.81 2645.74,-191.25 2645.69,-184.25"/>
</g>
<!-- Node43 -->
<g id="node43" class="node">
<title>Node43</title>
<g id="a_node43"><a xlink:href="ModelPosePublisher_8cc.html" target="_top" xlink:title=" ">
<polygon fill="none" stroke="black" points="4285.5,-118 4285.5,-137 4413.5,-137 4413.5,-118 4285.5,-118"/>
<text text-anchor="middle" x="4349.5" y="-125" font-family="FreeSans.ttf" font-size="10.00">ModelPosePublisher.cc</text>
</a>
</g>
</g>
<!-- Node1&#45;&gt;Node43 -->
<g id="edge44" class="edge">
<title>Node1&#45;&gt;Node43</title>
<path fill="none" stroke="midnightblue" d="M2645.79,-187.82C2876.97,-186.76 3947.11,-179.87 4276.5,-143 4288.44,-141.66 4301.34,-139.38 4312.93,-137.02"/>
<polygon fill="midnightblue" stroke="midnightblue" points="2645.71,-184.33 2635.73,-187.87 2645.75,-191.33 2645.71,-184.33"/>
</g>
<!-- Node44 -->
<g id="node44" class="node">
<title>Node44</title>
<g id="a_node44"><a xlink:href="MultiCamera_8cc.html" target="_top" xlink:title=" ">
<polygon fill="none" stroke="black" points="4432,-118 4432,-137 4525,-137 4525,-118 4432,-118"/>
<text text-anchor="middle" x="4478.5" y="-125" font-family="FreeSans.ttf" font-size="10.00">MultiCamera.cc</text>
</a>
</g>
</g>
<!-- Node1&#45;&gt;Node44 -->
<g id="edge45" class="edge">
<title>Node1&#45;&gt;Node44</title>
<path fill="none" stroke="midnightblue" d="M2645.73,-188.28C2888.75,-189.59 4063.75,-193.2 4422.5,-143 4431.75,-141.71 4441.67,-139.44 4450.55,-137.08"/>
<polygon fill="midnightblue" stroke="midnightblue" points="2645.53,-184.78 2635.51,-188.22 2645.49,-191.78 2645.53,-184.78"/>
</g>
<!-- Node45 -->
<g id="node45" class="node">
<title>Node45</title>
<g id="a_node45"><a xlink:href="MultiCameraDriver_8cpp.html" target="_top" xlink:title=" ">
<polygon fill="none" stroke="black" points="4543,-118 4543,-137 4672,-137 4672,-118 4543,-118"/>
<text text-anchor="middle" x="4607.5" y="-125" font-family="FreeSans.ttf" font-size="10.00">MultiCameraDriver.cpp</text>
</a>
</g>
</g>
<!-- Node1&#45;&gt;Node45 -->
<g id="edge46" class="edge">
<title>Node1&#45;&gt;Node45</title>
<path fill="none" stroke="midnightblue" d="M2645.97,-188.01C2898.18,-187.9 4151.08,-185.22 4534.5,-143 4546.44,-141.68 4559.34,-139.41 4570.93,-137.05"/>
<polygon fill="midnightblue" stroke="midnightblue" points="2645.73,-184.51 2635.73,-188.01 2645.73,-191.51 2645.73,-184.51"/>
</g>
<!-- Node46 -->
<g id="node46" class="node">
<title>Node46</title>
<g id="a_node46"><a xlink:href="GazeboYarpRobotInterface_8cc.html" target="_top" xlink:title=" ">
<polygon fill="none" stroke="black" points="4690,-118 4690,-137 4849,-137 4849,-118 4690,-118"/>
<text text-anchor="middle" x="4769.5" y="-125" font-family="FreeSans.ttf" font-size="10.00">GazeboYarpRobotInterface.cc</text>
</a>
</g>
</g>
<!-- Node1&#45;&gt;Node46 -->
<g id="edge47" class="edge">
<title>Node1&#45;&gt;Node46</title>
<path fill="none" stroke="midnightblue" d="M2645.93,-187.9C2909.12,-187.15 4266.46,-181.49 4681.5,-143 4695.84,-141.67 4711.37,-139.39 4725.34,-137.03"/>
<polygon fill="midnightblue" stroke="midnightblue" points="2645.61,-184.4 2635.62,-187.92 2645.63,-191.4 2645.61,-184.4"/>
</g>
<!-- Node47 -->
<g id="node47" class="node">
<title>Node47</title>
<g id="a_node47"><a xlink:href="VideoTexture_8cc.html" target="_top" xlink:title=" ">
<polygon fill="none" stroke="black" points="4867.5,-118 4867.5,-137 4961.5,-137 4961.5,-118 4867.5,-118"/>
<text text-anchor="middle" x="4914.5" y="-125" font-family="FreeSans.ttf" font-size="10.00">VideoTexture.cc</text>
</a>
</g>
</g>
<!-- Node1&#45;&gt;Node47 -->
<g id="edge48" class="edge">
<title>Node1&#45;&gt;Node47</title>
<path fill="none" stroke="midnightblue" d="M2646,-187.74C2942.9,-185.9 4631.98,-174.15 4858.5,-143 4867.85,-141.71 4877.89,-139.42 4886.84,-137.03"/>
<polygon fill="midnightblue" stroke="midnightblue" points="2645.61,-184.24 2635.63,-187.8 2645.65,-191.24 2645.61,-184.24"/>
</g>
<!-- Node48 -->
<g id="node48" class="node">
<title>Node48</title>
<g id="a_node48"><a xlink:href="worldinterface_8cpp.html" target="_top" xlink:title=" ">
<polygon fill="none" stroke="black" points="4980,-118 4980,-137 5087,-137 5087,-118 4980,-118"/>
<text text-anchor="middle" x="5033.5" y="-125" font-family="FreeSans.ttf" font-size="10.00">worldinterface.cpp</text>
</a>
</g>
</g>
<!-- Node1&#45;&gt;Node48 -->
<g id="edge49" class="edge">
<title>Node1&#45;&gt;Node48</title>
<path fill="none" stroke="midnightblue" d="M2645.78,-187.71C2950.5,-185.65 4731.69,-172.43 4970.5,-143 4980.97,-141.71 4992.25,-139.41 5002.32,-137.02"/>
<polygon fill="midnightblue" stroke="midnightblue" points="2645.55,-184.21 2635.57,-187.78 2645.6,-191.21 2645.55,-184.21"/>
</g>
<!-- Node3 -->
<g id="node3" class="node">
<title>Node3</title>
<g id="a_node3"><a xlink:href="BaseState_8cc.html" target="_top" xlink:title=" ">
<polygon fill="none" stroke="black" points="0.5,-56.5 0.5,-75.5 80.5,-75.5 80.5,-56.5 0.5,-56.5"/>
<text text-anchor="middle" x="40.5" y="-63.5" font-family="FreeSans.ttf" font-size="10.00">BaseState.cc</text>
</a>
</g>
</g>
<!-- Node2&#45;&gt;Node3 -->
<g id="edge2" class="edge">
<title>Node2&#45;&gt;Node3</title>
<path fill="none" stroke="midnightblue" d="M40.5,-107.82C40.5,-97 40.5,-83.9 40.5,-75.51"/>
<polygon fill="midnightblue" stroke="midnightblue" points="37,-107.98 40.5,-117.98 44,-107.98 37,-107.98"/>
</g>
<!-- Node4&#45;&gt;Node3 -->
<g id="edge4" class="edge">
<title>Node4&#45;&gt;Node3</title>
<path fill="none" stroke="midnightblue" d="M126.71,-113.21C105.21,-101.69 74.74,-85.36 56.37,-75.51"/>
<polygon fill="midnightblue" stroke="midnightblue" points="125.13,-116.34 135.6,-117.98 128.44,-110.17 125.13,-116.34"/>
</g>
<!-- Node5 -->
<g id="node5" class="node">
<title>Node5</title>
<g id="a_node5"><a xlink:href="BaseStateDriver_8cpp.html" target="_top" xlink:title=" ">
<polygon fill="none" stroke="black" points="98.5,-56.5 98.5,-75.5 214.5,-75.5 214.5,-56.5 98.5,-56.5"/>
<text text-anchor="middle" x="156.5" y="-63.5" font-family="FreeSans.ttf" font-size="10.00">BaseStateDriver.cpp</text>
</a>
</g>
</g>
<!-- Node4&#45;&gt;Node5 -->
<g id="edge5" class="edge">
<title>Node4&#45;&gt;Node5</title>
<path fill="none" stroke="midnightblue" d="M153.07,-107.82C153.98,-97 155.08,-83.9 155.78,-75.51"/>
<polygon fill="midnightblue" stroke="midnightblue" points="149.57,-107.72 152.22,-117.98 156.54,-108.3 149.57,-107.72"/>
</g>
<!-- Node10 -->
<g id="node10" class="node">
<title>Node10</title>
<g id="a_node10"><a xlink:href="ConfigurationOverride_8cc.html" target="_top" xlink:title=" ">
<polygon fill="none" stroke="black" points="506,-56.5 506,-75.5 643,-75.5 643,-56.5 506,-56.5"/>
<text text-anchor="middle" x="574.5" y="-63.5" font-family="FreeSans.ttf" font-size="10.00">ConfigurationOverride.cc</text>
</a>
</g>
</g>
<!-- Node9&#45;&gt;Node10 -->
<g id="edge10" class="edge">
<title>Node9&#45;&gt;Node10</title>
<path fill="none" stroke="midnightblue" d="M574.5,-107.82C574.5,-97 574.5,-83.9 574.5,-75.51"/>
<polygon fill="midnightblue" stroke="midnightblue" points="571,-107.98 574.5,-117.98 578,-107.98 571,-107.98"/>
</g>
<!-- Node22 -->
<g id="node22" class="node">
<title>Node22</title>
<g id="a_node22"><a xlink:href="ApplyExternalWrench_8cc.html" target="_top" xlink:title=" ">
<polygon fill="none" stroke="black" points="2168,-0.5 2168,-19.5 2303,-19.5 2303,-0.5 2168,-0.5"/>
<text text-anchor="middle" x="2235.5" y="-7.5" font-family="FreeSans.ttf" font-size="10.00">ApplyExternalWrench.cc</text>
</a>
</g>
</g>
<!-- Node21&#45;&gt;Node22 -->
<g id="edge22" class="edge">
<title>Node21&#45;&gt;Node22</title>
<path fill="none" stroke="midnightblue" d="M2235.5,-45.8C2235.5,-36.91 2235.5,-26.78 2235.5,-19.75"/>
<polygon fill="midnightblue" stroke="midnightblue" points="2232,-46.08 2235.5,-56.08 2239,-46.08 2232,-46.08"/>
</g>
<!-- Node23&#45;&gt;Node21 -->
<g id="edge24" class="edge">
<title>Node23&#45;&gt;Node21</title>
<path fill="none" stroke="midnightblue" d="M2298.43,-112.11C2282.47,-100.67 2260.67,-85.05 2247.37,-75.51"/>
<polygon fill="midnightblue" stroke="midnightblue" points="2296.44,-114.99 2306.61,-117.98 2300.52,-109.3 2296.44,-114.99"/>
</g>
<!-- Node24 -->
<g id="node24" class="node">
<title>Node24</title>
<g id="a_node24"><a xlink:href="ExternalWrench_8cc.html" target="_top" xlink:title=" ">
<polygon fill="none" stroke="black" points="2322,-56.5 2322,-75.5 2429,-75.5 2429,-56.5 2322,-56.5"/>
<text text-anchor="middle" x="2375.5" y="-63.5" font-family="FreeSans.ttf" font-size="10.00">ExternalWrench.cc</text>
</a>
</g>
</g>
<!-- Node23&#45;&gt;Node24 -->
<g id="edge25" class="edge">
<title>Node23&#45;&gt;Node24</title>
<path fill="none" stroke="midnightblue" d="M2333.83,-110.5C2344.62,-99.24 2358.64,-84.6 2367.35,-75.51"/>
<polygon fill="midnightblue" stroke="midnightblue" points="2331.06,-108.33 2326.67,-117.98 2336.11,-113.18 2331.06,-108.33"/>
</g>
<!-- Node38 -->
<g id="node38" class="node">
<title>Node38</title>
<g id="a_node38"><a xlink:href="linkattacher_8hh.html" target="_top" xlink:title=" ">
<polygon fill="none" stroke="black" points="3843,-56.5 3843,-75.5 3932,-75.5 3932,-56.5 3843,-56.5"/>
<text text-anchor="middle" x="3887.5" y="-63.5" font-family="FreeSans.ttf" font-size="10.00">linkattacher.hh</text>
</a>
</g>
</g>
<!-- Node37&#45;&gt;Node38 -->
<g id="edge39" class="edge">
<title>Node37&#45;&gt;Node38</title>
<path fill="none" stroke="midnightblue" d="M3937.96,-111.15C3924.99,-99.81 3907.82,-84.78 3897.22,-75.51"/>
<polygon fill="midnightblue" stroke="midnightblue" points="3935.93,-114.02 3945.76,-117.98 3940.54,-108.76 3935.93,-114.02"/>
</g>
<!-- Node40 -->
<g id="node40" class="node">
<title>Node40</title>
<g id="a_node40"><a xlink:href="linkattacherserverimpl_8cpp.html" target="_top" xlink:title=" ">
<polygon fill="none" stroke="black" points="3950,-56.5 3950,-75.5 4097,-75.5 4097,-56.5 3950,-56.5"/>
<text text-anchor="middle" x="4023.5" y="-63.5" font-family="FreeSans.ttf" font-size="10.00">linkattacherserverimpl.cpp</text>
</a>
</g>
</g>
<!-- Node37&#45;&gt;Node40 -->
<g id="edge41" class="edge">
<title>Node37&#45;&gt;Node40</title>
<path fill="none" stroke="midnightblue" d="M3973.04,-111.15C3986.01,-99.81 4003.18,-84.78 4013.78,-75.51"/>
<polygon fill="midnightblue" stroke="midnightblue" points="3970.46,-108.76 3965.24,-117.98 3975.07,-114.02 3970.46,-108.76"/>
</g>
<!-- Node39 -->
<g id="node39" class="node">
<title>Node39</title>
<g id="a_node39"><a xlink:href="linkattacher_8cc.html" target="_top" xlink:title=" ">
<polygon fill="none" stroke="black" points="3844,-0.5 3844,-19.5 3931,-19.5 3931,-0.5 3844,-0.5"/>
<text text-anchor="middle" x="3887.5" y="-7.5" font-family="FreeSans.ttf" font-size="10.00">linkattacher.cc</text>
</a>
</g>
</g>
<!-- Node38&#45;&gt;Node39 -->
<g id="edge40" class="edge">
<title>Node38&#45;&gt;Node39</title>
<path fill="none" stroke="midnightblue" d="M3887.5,-45.8C3887.5,-36.91 3887.5,-26.78 3887.5,-19.75"/>
<polygon fill="midnightblue" stroke="midnightblue" points="3884,-46.08 3887.5,-56.08 3891,-46.08 3884,-46.08"/>
</g>
</g>
</svg>
