<?xml version="1.0" encoding="UTF-8" standalone="no"?>
<!DOCTYPE svg PUBLIC "-//W3C//DTD SVG 1.1//EN"
 "http://www.w3.org/Graphics/SVG/1.1/DTD/svg11.dtd">
<!-- Generated by graphviz version 2.49.0 (20210829.0051)
 -->
<!-- Title: common.h Pages: 1 -->
<svg width="4734pt" height="207pt"
 viewBox="0.00 0.00 4734.00 207.00" xmlns="http://www.w3.org/2000/svg" xmlns:xlink="http://www.w3.org/1999/xlink">
<g id="graph0" class="graph" transform="scale(1 1) rotate(0) translate(4 203)">
<title>common.h</title>
<!-- Node1 -->
<g id="node1" class="node">
<title>Node1</title>
<g id="a_node1"><a xlink:title=" ">
<polygon fill="#bfbfbf" stroke="black" points="2383.5,-179.5 2383.5,-198.5 2451.5,-198.5 2451.5,-179.5 2383.5,-179.5"/>
<text text-anchor="middle" x="2417.5" y="-186.5" font-family="FreeSans.ttf" font-size="10.00">common.h</text>
</a>
</g>
</g>
<!-- Node2 -->
<g id="node2" class="node">
<title>Node2</title>
<g id="a_node2"><a xlink:href="BaseState_8hh.html" target="_top" xlink:title=" ">
<polygon fill="none" stroke="black" points="0,-118 0,-137 81,-137 81,-118 0,-118"/>
<text text-anchor="middle" x="40.5" y="-125" font-family="FreeSans.ttf" font-size="10.00">BaseState.hh</text>
</a>
</g>
</g>
<!-- Node1&#45;&gt;Node2 -->
<g id="edge1" class="edge">
<title>Node1&#45;&gt;Node2</title>
<path fill="none" stroke="midnightblue" d="M2373.03,-187.84C2070.84,-186.68 323.93,-178.47 90.5,-143 82.1,-141.72 73.13,-139.43 65.14,-137.04"/>
<polygon fill="midnightblue" stroke="midnightblue" points="2373.15,-191.34 2383.16,-187.88 2373.18,-184.34 2373.15,-191.34"/>
</g>
<!-- Node4 -->
<g id="node4" class="node">
<title>Node4</title>
<g id="a_node4"><a xlink:href="BaseStateDriver_8h.html" target="_top" xlink:title=" ">
<polygon fill="none" stroke="black" points="99.5,-118 99.5,-137 203.5,-137 203.5,-118 99.5,-118"/>
<text text-anchor="middle" x="151.5" y="-125" font-family="FreeSans.ttf" font-size="10.00">BaseStateDriver.h</text>
</a>
</g>
</g>
<!-- Node1&#45;&gt;Node4 -->
<g id="edge3" class="edge">
<title>Node1&#45;&gt;Node4</title>
<path fill="none" stroke="midnightblue" d="M2373.11,-187.66C2080.52,-185.36 433.85,-171.24 212.5,-143 202.35,-141.71 191.43,-139.41 181.67,-137.02"/>
<polygon fill="midnightblue" stroke="midnightblue" points="2373.3,-191.16 2383.33,-187.74 2373.36,-184.16 2373.3,-191.16"/>
</g>
<!-- Node6 -->
<g id="node6" class="node">
<title>Node6</title>
<g id="a_node6"><a xlink:href="Camera_8cc.html" target="_top" xlink:title=" ">
<polygon fill="none" stroke="black" points="221.5,-118 221.5,-137 289.5,-137 289.5,-118 221.5,-118"/>
<text text-anchor="middle" x="255.5" y="-125" font-family="FreeSans.ttf" font-size="10.00">Camera.cc</text>
</a>
</g>
</g>
<!-- Node1&#45;&gt;Node6 -->
<g id="edge6" class="edge">
<title>Node1&#45;&gt;Node6</title>
<path fill="none" stroke="midnightblue" d="M2373.03,-187.87C2086.81,-186.89 509.3,-179.89 298.5,-143 291.21,-141.72 283.47,-139.43 276.6,-137.04"/>
<polygon fill="midnightblue" stroke="midnightblue" points="2373.41,-191.37 2383.43,-187.9 2373.44,-184.37 2373.41,-191.37"/>
</g>
<!-- Node7 -->
<g id="node7" class="node">
<title>Node7</title>
<g id="a_node7"><a xlink:href="CameraDriver_8cpp.html" target="_top" xlink:title=" ">
<polygon fill="none" stroke="black" points="307.5,-118 307.5,-137 411.5,-137 411.5,-118 307.5,-118"/>
<text text-anchor="middle" x="359.5" y="-125" font-family="FreeSans.ttf" font-size="10.00">CameraDriver.cpp</text>
</a>
</g>
</g>
<!-- Node1&#45;&gt;Node7 -->
<g id="edge7" class="edge">
<title>Node1&#45;&gt;Node7</title>
<path fill="none" stroke="midnightblue" d="M2373.16,-188.27C2116.27,-189.65 816.58,-193.96 420.5,-143 410.35,-141.69 399.43,-139.39 389.67,-137"/>
<polygon fill="midnightblue" stroke="midnightblue" points="2373.26,-191.77 2383.24,-188.22 2373.22,-184.77 2373.26,-191.77"/>
</g>
<!-- Node8 -->
<g id="node8" class="node">
<title>Node8</title>
<g id="a_node8"><a xlink:href="Clock_8cc.html" target="_top" xlink:title=" ">
<polygon fill="none" stroke="black" points="430,-118 430,-137 487,-137 487,-118 430,-118"/>
<text text-anchor="middle" x="458.5" y="-125" font-family="FreeSans.ttf" font-size="10.00">Clock.cc</text>
</a>
</g>
</g>
<!-- Node1&#45;&gt;Node8 -->
<g id="edge8" class="edge">
<title>Node1&#45;&gt;Node8</title>
<path fill="none" stroke="midnightblue" d="M2372.94,-187.89C2102.35,-187.08 684.8,-181.07 495.5,-143 489.14,-141.72 482.46,-139.43 476.56,-137.03"/>
<polygon fill="midnightblue" stroke="midnightblue" points="2373.16,-191.39 2383.17,-187.92 2373.18,-184.39 2373.16,-191.39"/>
</g>
<!-- Node9 -->
<g id="node9" class="node">
<title>Node9</title>
<g id="a_node9"><a xlink:href="ConfigurationOverride_8hh.html" target="_top" xlink:title=" ">
<polygon fill="none" stroke="black" points="505,-118 505,-137 644,-137 644,-118 505,-118"/>
<text text-anchor="middle" x="574.5" y="-125" font-family="FreeSans.ttf" font-size="10.00">ConfigurationOverride.hh</text>
</a>
</g>
</g>
<!-- Node1&#45;&gt;Node9 -->
<g id="edge9" class="edge">
<title>Node1&#45;&gt;Node9</title>
<path fill="none" stroke="midnightblue" d="M2373.18,-187.81C2134.67,-186.63 1001.79,-179.18 653.5,-143 640.6,-141.66 626.65,-139.38 614.11,-137.02"/>
<polygon fill="midnightblue" stroke="midnightblue" points="2373.2,-191.31 2383.22,-187.86 2373.23,-184.31 2373.2,-191.31"/>
</g>
<!-- Node11 -->
<g id="node11" class="node">
<title>Node11</title>
<g id="a_node11"><a xlink:href="ContactLoadCellArray_8cc.html" target="_top" xlink:title=" ">
<polygon fill="none" stroke="black" points="662.5,-118 662.5,-137 796.5,-137 796.5,-118 662.5,-118"/>
<text text-anchor="middle" x="729.5" y="-125" font-family="FreeSans.ttf" font-size="10.00">ContactLoadCellArray.cc</text>
</a>
</g>
</g>
<!-- Node1&#45;&gt;Node11 -->
<g id="edge11" class="edge">
<title>Node1&#45;&gt;Node11</title>
<path fill="none" stroke="midnightblue" d="M2373.09,-187.73C2146.95,-186.18 1121.78,-177.36 805.5,-143 793.08,-141.65 779.66,-139.37 767.59,-137.01"/>
<polygon fill="midnightblue" stroke="midnightblue" points="2373.23,-191.23 2383.25,-187.79 2373.27,-184.23 2373.23,-191.23"/>
</g>
<!-- Node12 -->
<g id="node12" class="node">
<title>Node12</title>
<g id="a_node12"><a xlink:href="ContactLoadCellArrayDriver_8cpp.html" target="_top" xlink:title=" ">
<polygon fill="none" stroke="black" points="814.5,-118 814.5,-137 986.5,-137 986.5,-118 814.5,-118"/>
<text text-anchor="middle" x="900.5" y="-125" font-family="FreeSans.ttf" font-size="10.00">ContactLoadCellArrayDriver.cpp</text>
</a>
</g>
</g>
<!-- Node1&#45;&gt;Node12 -->
<g id="edge12" class="edge">
<title>Node1&#45;&gt;Node12</title>
<path fill="none" stroke="midnightblue" d="M2373.1,-187.31C2163.6,-183.96 1272.62,-168.44 995.5,-143 980.21,-141.6 963.65,-139.33 948.69,-137"/>
<polygon fill="midnightblue" stroke="midnightblue" points="2373.35,-190.82 2383.4,-187.48 2373.46,-183.82 2373.35,-190.82"/>
</g>
<!-- Node13 -->
<g id="node13" class="node">
<title>Node13</title>
<g id="a_node13"><a xlink:href="ControlBoard_8cc.html" target="_top" xlink:title=" ">
<polygon fill="none" stroke="black" points="1004.5,-118 1004.5,-137 1098.5,-137 1098.5,-118 1004.5,-118"/>
<text text-anchor="middle" x="1051.5" y="-125" font-family="FreeSans.ttf" font-size="10.00">ControlBoard.cc</text>
</a>
</g>
</g>
<!-- Node1&#45;&gt;Node13 -->
<g id="edge13" class="edge">
<title>Node1&#45;&gt;Node13</title>
<path fill="none" stroke="midnightblue" d="M2373.34,-187.78C2174.36,-186.59 1359.87,-179.56 1107.5,-143 1098.26,-141.66 1088.34,-139.38 1079.46,-137.02"/>
<polygon fill="midnightblue" stroke="midnightblue" points="2373.4,-191.28 2383.42,-187.84 2373.44,-184.28 2373.4,-191.28"/>
</g>
<!-- Node14 -->
<g id="node14" class="node">
<title>Node14</title>
<g id="a_node14"><a xlink:href="ControlBoardDriver_8cpp.html" target="_top" xlink:title=" ">
<polygon fill="none" stroke="black" points="1116.5,-118 1116.5,-137 1246.5,-137 1246.5,-118 1116.5,-118"/>
<text text-anchor="middle" x="1181.5" y="-125" font-family="FreeSans.ttf" font-size="10.00">ControlBoardDriver.cpp</text>
</a>
</g>
</g>
<!-- Node1&#45;&gt;Node14 -->
<g id="edge14" class="edge">
<title>Node1&#45;&gt;Node14</title>
<path fill="none" stroke="midnightblue" d="M2373.09,-187.2C2188.09,-183.73 1478.03,-168.95 1255.5,-143 1243.54,-141.6 1230.62,-139.34 1218.97,-137.01"/>
<polygon fill="midnightblue" stroke="midnightblue" points="2373.2,-190.7 2383.26,-187.39 2373.33,-183.7 2373.2,-190.7"/>
</g>
<!-- Node15 -->
<g id="node15" class="node">
<title>Node15</title>
<g id="a_node15"><a xlink:href="ControlBoardDriverCoupling_8cpp.html" target="_top" xlink:title=" ">
<polygon fill="none" stroke="black" points="1265,-118 1265,-137 1438,-137 1438,-118 1265,-118"/>
<text text-anchor="middle" x="1351.5" y="-125" font-family="FreeSans.ttf" font-size="10.00">ControlBoardDriverCoupling.cpp</text>
</a>
</g>
</g>
<!-- Node1&#45;&gt;Node15 -->
<g id="edge15" class="edge">
<title>Node1&#45;&gt;Node15</title>
<path fill="none" stroke="midnightblue" d="M2373.29,-187.6C2235.69,-186.02 1802.89,-178.36 1446.5,-143 1431.56,-141.52 1415.38,-139.29 1400.68,-137.01"/>
<polygon fill="midnightblue" stroke="midnightblue" points="2373.4,-191.11 2383.44,-187.72 2373.48,-184.11 2373.4,-191.11"/>
</g>
<!-- Node16 -->
<g id="node16" class="node">
<title>Node16</title>
<g id="a_node16"><a xlink:href="ControlBoardDriverPidControl_8cpp.html" target="_top" xlink:title=" ">
<polygon fill="none" stroke="black" points="1456,-118 1456,-137 1637,-137 1637,-118 1456,-118"/>
<text text-anchor="middle" x="1546.5" y="-125" font-family="FreeSans.ttf" font-size="10.00">ControlBoardDriverPidControl.cpp</text>
</a>
</g>
</g>
<!-- Node1&#45;&gt;Node16 -->
<g id="edge16" class="edge">
<title>Node1&#45;&gt;Node16</title>
<path fill="none" stroke="midnightblue" d="M2373.04,-186.77C2254.53,-183.18 1921.32,-171.18 1645.5,-143 1630.29,-141.45 1613.84,-139.25 1598.8,-137.03"/>
<polygon fill="midnightblue" stroke="midnightblue" points="2373.07,-190.27 2383.17,-187.07 2373.28,-183.27 2373.07,-190.27"/>
</g>
<!-- Node17 -->
<g id="node17" class="node">
<title>Node17</title>
<g id="a_node17"><a xlink:href="ControlBoardDriverTrajectory_8cpp.html" target="_top" xlink:title=" ">
<polygon fill="none" stroke="black" points="1655,-118 1655,-137 1832,-137 1832,-118 1655,-118"/>
<text text-anchor="middle" x="1743.5" y="-125" font-family="FreeSans.ttf" font-size="10.00">ControlBoardDriverTrajectory.cpp</text>
</a>
</g>
</g>
<!-- Node1&#45;&gt;Node17 -->
<g id="edge17" class="edge">
<title>Node1&#45;&gt;Node17</title>
<path fill="none" stroke="midnightblue" d="M2373.27,-185.62C2276.47,-180.17 2038.69,-165.51 1840.5,-143 1825.95,-141.35 1810.23,-139.17 1795.77,-137"/>
<polygon fill="midnightblue" stroke="midnightblue" points="2373.1,-189.11 2383.28,-186.18 2373.49,-182.12 2373.1,-189.11"/>
</g>
<!-- Node18 -->
<g id="node18" class="node">
<title>Node18</title>
<g id="a_node18"><a xlink:href="DepthCamera_8cc.html" target="_top" xlink:title=" ">
<polygon fill="none" stroke="black" points="1849.5,-118 1849.5,-137 1947.5,-137 1947.5,-118 1849.5,-118"/>
<text text-anchor="middle" x="1898.5" y="-125" font-family="FreeSans.ttf" font-size="10.00">DepthCamera.cc</text>
</a>
</g>
</g>
<!-- Node1&#45;&gt;Node18 -->
<g id="edge18" class="edge">
<title>Node1&#45;&gt;Node18</title>
<path fill="none" stroke="midnightblue" d="M2373.43,-185.87C2291.04,-181.4 2108.29,-169.23 1956.5,-143 1947.5,-141.44 1937.83,-139.24 1929.02,-137.03"/>
<polygon fill="midnightblue" stroke="midnightblue" points="2373.26,-189.36 2383.44,-186.4 2373.64,-182.37 2373.26,-189.36"/>
</g>
<!-- Node19 -->
<g id="node19" class="node">
<title>Node19</title>
<g id="a_node19"><a xlink:href="DepthCameraDriver_8cpp.html" target="_top" xlink:title=" ">
<polygon fill="none" stroke="black" points="1965.5,-118 1965.5,-137 2099.5,-137 2099.5,-118 1965.5,-118"/>
<text text-anchor="middle" x="2032.5" y="-125" font-family="FreeSans.ttf" font-size="10.00">DepthCameraDriver.cpp</text>
</a>
</g>
</g>
<!-- Node1&#45;&gt;Node19 -->
<g id="edge19" class="edge">
<title>Node1&#45;&gt;Node19</title>
<path fill="none" stroke="midnightblue" d="M2373.12,-181.86C2313.86,-173.56 2205.64,-158.06 2113.5,-143 2102.22,-141.16 2090.08,-139.05 2078.72,-137.02"/>
<polygon fill="midnightblue" stroke="midnightblue" points="2372.87,-185.36 2383.25,-183.27 2373.84,-178.42 2372.87,-185.36"/>
</g>
<!-- Node20 -->
<g id="node20" class="node">
<title>Node20</title>
<g id="a_node20"><a xlink:href="ApplyExternalWrench_8hh.html" target="_top" xlink:title=" ">
<polygon fill="none" stroke="black" points="2059,-56.5 2059,-75.5 2196,-75.5 2196,-56.5 2059,-56.5"/>
<text text-anchor="middle" x="2127.5" y="-63.5" font-family="FreeSans.ttf" font-size="10.00">ApplyExternalWrench.hh</text>
</a>
</g>
</g>
<!-- Node1&#45;&gt;Node20 -->
<g id="edge20" class="edge">
<title>Node1&#45;&gt;Node20</title>
<path fill="none" stroke="midnightblue" d="M2373.49,-186.41C2305.36,-183.04 2178.84,-172.84 2146.5,-143 2127.31,-125.29 2126.22,-91.4 2126.87,-75.55"/>
<polygon fill="midnightblue" stroke="midnightblue" points="2373.34,-189.91 2383.5,-186.88 2373.67,-182.92 2373.34,-189.91"/>
</g>
<!-- Node22 -->
<g id="node22" class="node">
<title>Node22</title>
<g id="a_node22"><a xlink:href="ExternalWrench_8hh.html" target="_top" xlink:title=" ">
<polygon fill="none" stroke="black" points="2156,-118 2156,-137 2265,-137 2265,-118 2156,-118"/>
<text text-anchor="middle" x="2210.5" y="-125" font-family="FreeSans.ttf" font-size="10.00">ExternalWrench.hh</text>
</a>
</g>
</g>
<!-- Node1&#45;&gt;Node22 -->
<g id="edge22" class="edge">
<title>Node1&#45;&gt;Node22</title>
<path fill="none" stroke="midnightblue" d="M2378.1,-176.68C2337.88,-165.11 2276.35,-147.43 2240.1,-137.01"/>
<polygon fill="midnightblue" stroke="midnightblue" points="2377.26,-180.08 2387.84,-179.48 2379.2,-173.35 2377.26,-180.08"/>
</g>
<!-- Node24 -->
<g id="node24" class="node">
<title>Node24</title>
<g id="a_node24"><a xlink:href="FakeControlBoard_8cc.html" target="_top" xlink:title=" ">
<polygon fill="none" stroke="black" points="2283.5,-118 2283.5,-137 2399.5,-137 2399.5,-118 2283.5,-118"/>
<text text-anchor="middle" x="2341.5" y="-125" font-family="FreeSans.ttf" font-size="10.00">FakeControlBoard.cc</text>
</a>
</g>
</g>
<!-- Node1&#45;&gt;Node24 -->
<g id="edge25" class="edge">
<title>Node1&#45;&gt;Node24</title>
<path fill="none" stroke="midnightblue" d="M2398.72,-173.29C2384.14,-161.88 2364.44,-146.46 2352.37,-137.01"/>
<polygon fill="midnightblue" stroke="midnightblue" points="2396.58,-176.07 2406.61,-179.48 2400.89,-170.55 2396.58,-176.07"/>
</g>
<!-- Node25 -->
<g id="node25" class="node">
<title>Node25</title>
<g id="a_node25"><a xlink:href="FakeControlBoardDriver_8cpp.html" target="_top" xlink:title=" ">
<polygon fill="none" stroke="black" points="2417.5,-118 2417.5,-137 2569.5,-137 2569.5,-118 2417.5,-118"/>
<text text-anchor="middle" x="2493.5" y="-125" font-family="FreeSans.ttf" font-size="10.00">FakeControlBoardDriver.cpp</text>
</a>
</g>
</g>
<!-- Node1&#45;&gt;Node25 -->
<g id="edge26" class="edge">
<title>Node1&#45;&gt;Node25</title>
<path fill="none" stroke="midnightblue" d="M2436.28,-173.29C2450.86,-161.88 2470.56,-146.46 2482.63,-137.01"/>
<polygon fill="midnightblue" stroke="midnightblue" points="2434.11,-170.55 2428.39,-179.48 2438.42,-176.07 2434.11,-170.55"/>
</g>
<!-- Node26 -->
<g id="node26" class="node">
<title>Node26</title>
<g id="a_node26"><a xlink:href="FakeControlBoardDriverPidControl_8cpp.html" target="_top" xlink:title=" ">
<polygon fill="none" stroke="black" points="2588,-112.5 2588,-142.5 2735,-142.5 2735,-112.5 2588,-112.5"/>
<text text-anchor="start" x="2596" y="-130.5" font-family="FreeSans.ttf" font-size="10.00">FakeControlBoardDriverPid</text>
<text text-anchor="middle" x="2661.5" y="-119.5" font-family="FreeSans.ttf" font-size="10.00">Control.cpp</text>
</a>
</g>
</g>
<!-- Node1&#45;&gt;Node26 -->
<g id="edge27" class="edge">
<title>Node1&#45;&gt;Node26</title>
<path fill="none" stroke="midnightblue" d="M2461.65,-177.23C2501.55,-167.5 2560.53,-153.12 2604.08,-142.5"/>
<polygon fill="midnightblue" stroke="midnightblue" points="2460.57,-173.89 2451.68,-179.66 2462.23,-180.7 2460.57,-173.89"/>
</g>
<!-- Node27 -->
<g id="node27" class="node">
<title>Node27</title>
<g id="a_node27"><a xlink:href="ForceTorque_8cc.html" target="_top" xlink:title=" ">
<polygon fill="none" stroke="black" points="2753,-118 2753,-137 2842,-137 2842,-118 2753,-118"/>
<text text-anchor="middle" x="2797.5" y="-125" font-family="FreeSans.ttf" font-size="10.00">ForceTorque.cc</text>
</a>
</g>
</g>
<!-- Node1&#45;&gt;Node27 -->
<g id="edge28" class="edge">
<title>Node1&#45;&gt;Node27</title>
<path fill="none" stroke="midnightblue" d="M2461.5,-183.69C2524.41,-177.14 2643.51,-163.24 2743.5,-143 2751.59,-141.36 2760.26,-139.21 2768.23,-137.07"/>
<polygon fill="midnightblue" stroke="midnightblue" points="2461.11,-180.22 2451.53,-184.72 2461.83,-187.18 2461.11,-180.22"/>
</g>
<!-- Node28 -->
<g id="node28" class="node">
<title>Node28</title>
<g id="a_node28"><a xlink:href="IMU_8cc.html" target="_top" xlink:title=" ">
<polygon fill="none" stroke="black" points="2860.5,-118 2860.5,-137 2910.5,-137 2910.5,-118 2860.5,-118"/>
<text text-anchor="middle" x="2885.5" y="-125" font-family="FreeSans.ttf" font-size="10.00">IMU.cc</text>
</a>
</g>
</g>
<!-- Node1&#45;&gt;Node28 -->
<g id="edge29" class="edge">
<title>Node1&#45;&gt;Node28</title>
<path fill="none" stroke="midnightblue" d="M2461.88,-187.59C2541.12,-185.93 2711.67,-178.18 2850.5,-143 2856.24,-141.55 2862.27,-139.32 2867.67,-137.05"/>
<polygon fill="midnightblue" stroke="midnightblue" points="2461.7,-184.09 2451.77,-187.78 2461.83,-191.09 2461.7,-184.09"/>
</g>
<!-- Node29 -->
<g id="node29" class="node">
<title>Node29</title>
<g id="a_node29"><a xlink:href="IMUDriver_8cpp.html" target="_top" xlink:title=" ">
<polygon fill="none" stroke="black" points="2928.5,-118 2928.5,-137 3014.5,-137 3014.5,-118 2928.5,-118"/>
<text text-anchor="middle" x="2971.5" y="-125" font-family="FreeSans.ttf" font-size="10.00">IMUDriver.cpp</text>
</a>
</g>
</g>
<!-- Node1&#45;&gt;Node29 -->
<g id="edge30" class="edge">
<title>Node1&#45;&gt;Node29</title>
<path fill="none" stroke="midnightblue" d="M2461.71,-186.74C2549.6,-183.65 2752.21,-173.56 2919.5,-143 2927.71,-141.5 2936.49,-139.29 2944.46,-137.05"/>
<polygon fill="midnightblue" stroke="midnightblue" points="2461.45,-183.25 2451.57,-187.09 2461.69,-190.25 2461.45,-183.25"/>
</g>
<!-- Node30 -->
<g id="node30" class="node">
<title>Node30</title>
<g id="a_node30"><a xlink:href="inertialMTB_8cc.html" target="_top" xlink:title=" ">
<polygon fill="none" stroke="black" points="3032.5,-118 3032.5,-137 3118.5,-137 3118.5,-118 3032.5,-118"/>
<text text-anchor="middle" x="3075.5" y="-125" font-family="FreeSans.ttf" font-size="10.00">inertialMTB.cc</text>
</a>
</g>
</g>
<!-- Node1&#45;&gt;Node30 -->
<g id="edge31" class="edge">
<title>Node1&#45;&gt;Node30</title>
<path fill="none" stroke="midnightblue" d="M2461.72,-187.7C2562.27,-186.37 2815.48,-179.36 3023.5,-143 3031.81,-141.55 3040.7,-139.32 3048.74,-137.05"/>
<polygon fill="midnightblue" stroke="midnightblue" points="2461.58,-184.2 2451.63,-187.82 2461.67,-191.2 2461.58,-184.2"/>
</g>
<!-- Node31 -->
<g id="node31" class="node">
<title>Node31</title>
<g id="a_node31"><a xlink:href="inertialMTBPart_8cc.html" target="_top" xlink:title=" ">
<polygon fill="none" stroke="black" points="3137,-118 3137,-137 3242,-137 3242,-118 3137,-118"/>
<text text-anchor="middle" x="3189.5" y="-125" font-family="FreeSans.ttf" font-size="10.00">inertialMTBPart.cc</text>
</a>
</g>
</g>
<!-- Node1&#45;&gt;Node31 -->
<g id="edge32" class="edge">
<title>Node1&#45;&gt;Node31</title>
<path fill="none" stroke="midnightblue" d="M2461.96,-187.74C2574.17,-186.55 2877.74,-179.86 3127.5,-143 3137.34,-141.55 3147.93,-139.32 3157.52,-137.05"/>
<polygon fill="midnightblue" stroke="midnightblue" points="2461.67,-184.25 2451.7,-187.84 2461.74,-191.25 2461.67,-184.25"/>
</g>
<!-- Node32 -->
<g id="node32" class="node">
<title>Node32</title>
<g id="a_node32"><a xlink:href="inertialMTBPartDriver_8cpp.html" target="_top" xlink:title=" ">
<polygon fill="none" stroke="black" points="3260,-118 3260,-137 3401,-137 3401,-118 3260,-118"/>
<text text-anchor="middle" x="3330.5" y="-125" font-family="FreeSans.ttf" font-size="10.00">inertialMTBPartDriver.cpp</text>
</a>
</g>
</g>
<!-- Node1&#45;&gt;Node32 -->
<g id="edge33" class="edge">
<title>Node1&#45;&gt;Node32</title>
<path fill="none" stroke="midnightblue" d="M2462.05,-187.55C2586.91,-185.88 2950.69,-178.13 3250.5,-143 3263.12,-141.52 3276.75,-139.29 3289.13,-137.02"/>
<polygon fill="midnightblue" stroke="midnightblue" points="2461.7,-184.06 2451.75,-187.69 2461.79,-191.06 2461.7,-184.06"/>
</g>
<!-- Node33 -->
<g id="node33" class="node">
<title>Node33</title>
<g id="a_node33"><a xlink:href="LaserSensor_8cc.html" target="_top" xlink:title=" ">
<polygon fill="none" stroke="black" points="3419,-118 3419,-137 3508,-137 3508,-118 3419,-118"/>
<text text-anchor="middle" x="3463.5" y="-125" font-family="FreeSans.ttf" font-size="10.00">LaserSensor.cc</text>
</a>
</g>
</g>
<!-- Node1&#45;&gt;Node33 -->
<g id="edge34" class="edge">
<title>Node1&#45;&gt;Node33</title>
<path fill="none" stroke="midnightblue" d="M2461.87,-187.27C2629.32,-184.3 3222.91,-171.93 3409.5,-143 3418.33,-141.63 3427.78,-139.37 3436.28,-137.04"/>
<polygon fill="midnightblue" stroke="midnightblue" points="2461.63,-183.77 2451.69,-187.44 2461.75,-190.77 2461.63,-183.77"/>
</g>
<!-- Node34 -->
<g id="node34" class="node">
<title>Node34</title>
<g id="a_node34"><a xlink:href="linkattacherserverimpl_8h.html" target="_top" xlink:title=" ">
<polygon fill="none" stroke="black" points="3526.5,-118 3526.5,-137 3662.5,-137 3662.5,-118 3526.5,-118"/>
<text text-anchor="middle" x="3594.5" y="-125" font-family="FreeSans.ttf" font-size="10.00">linkattacherserverimpl.h</text>
</a>
</g>
</g>
<!-- Node1&#45;&gt;Node34 -->
<g id="edge35" class="edge">
<title>Node1&#45;&gt;Node34</title>
<path fill="none" stroke="midnightblue" d="M2461.97,-188.45C2611.38,-189.48 3108.82,-189 3516.5,-143 3528.95,-141.59 3542.41,-139.36 3554.58,-137.05"/>
<polygon fill="midnightblue" stroke="midnightblue" points="2461.85,-184.95 2451.82,-188.38 2461.79,-191.95 2461.85,-184.95"/>
</g>
<!-- Node38 -->
<g id="node38" class="node">
<title>Node38</title>
<g id="a_node38"><a xlink:href="MaisSensor_8cc.html" target="_top" xlink:title=" ">
<polygon fill="none" stroke="black" points="3680.5,-118 3680.5,-137 3766.5,-137 3766.5,-118 3680.5,-118"/>
<text text-anchor="middle" x="3723.5" y="-125" font-family="FreeSans.ttf" font-size="10.00">MaisSensor.cc</text>
</a>
</g>
</g>
<!-- Node1&#45;&gt;Node38 -->
<g id="edge39" class="edge">
<title>Node1&#45;&gt;Node38</title>
<path fill="none" stroke="midnightblue" d="M2461.66,-187.81C2655.37,-186.77 3431.05,-180.3 3671.5,-143 3680.11,-141.66 3689.33,-139.38 3697.58,-137.02"/>
<polygon fill="midnightblue" stroke="midnightblue" points="2461.54,-184.31 2451.56,-187.86 2461.58,-191.31 2461.54,-184.31"/>
</g>
<!-- Node39 -->
<g id="node39" class="node">
<title>Node39</title>
<g id="a_node39"><a xlink:href="MaisSensorDriver_8cpp.html" target="_top" xlink:title=" ">
<polygon fill="none" stroke="black" points="3784.5,-118 3784.5,-137 3906.5,-137 3906.5,-118 3784.5,-118"/>
<text text-anchor="middle" x="3845.5" y="-125" font-family="FreeSans.ttf" font-size="10.00">MaisSensorDriver.cpp</text>
</a>
</g>
</g>
<!-- Node1&#45;&gt;Node39 -->
<g id="edge40" class="edge">
<title>Node1&#45;&gt;Node39</title>
<path fill="none" stroke="midnightblue" d="M2461.59,-187.55C2664.79,-185.34 3512.32,-174.38 3775.5,-143 3786.84,-141.65 3799.07,-139.4 3810.08,-137.06"/>
<polygon fill="midnightblue" stroke="midnightblue" points="2461.54,-184.05 2451.58,-187.66 2461.62,-191.05 2461.54,-184.05"/>
</g>
<!-- Node40 -->
<g id="node40" class="node">
<title>Node40</title>
<g id="a_node40"><a xlink:href="ModelPosePublisher_8cc.html" target="_top" xlink:title=" ">
<polygon fill="none" stroke="black" points="3924.5,-118 3924.5,-137 4052.5,-137 4052.5,-118 3924.5,-118"/>
<text text-anchor="middle" x="3988.5" y="-125" font-family="FreeSans.ttf" font-size="10.00">ModelPosePublisher.cc</text>
</a>
</g>
</g>
<!-- Node1&#45;&gt;Node40 -->
<g id="edge41" class="edge">
<title>Node1&#45;&gt;Node40</title>
<path fill="none" stroke="midnightblue" d="M2461.84,-187.66C2678.04,-185.86 3623.13,-176.2 3915.5,-143 3927.44,-141.64 3940.34,-139.36 3951.92,-137"/>
<polygon fill="midnightblue" stroke="midnightblue" points="2461.49,-184.16 2451.52,-187.75 2461.55,-191.16 2461.49,-184.16"/>
</g>
<!-- Node41 -->
<g id="node41" class="node">
<title>Node41</title>
<g id="a_node41"><a xlink:href="MultiCamera_8cc.html" target="_top" xlink:title=" ">
<polygon fill="none" stroke="black" points="4071,-118 4071,-137 4164,-137 4164,-118 4071,-118"/>
<text text-anchor="middle" x="4117.5" y="-125" font-family="FreeSans.ttf" font-size="10.00">MultiCamera.cc</text>
</a>
</g>
</g>
<!-- Node1&#45;&gt;Node41 -->
<g id="edge42" class="edge">
<title>Node1&#45;&gt;Node41</title>
<path fill="none" stroke="midnightblue" d="M2462.09,-188.14C2691.44,-188.66 3739.89,-188.44 4061.5,-143 4070.75,-141.69 4080.67,-139.42 4089.55,-137.06"/>
<polygon fill="midnightblue" stroke="midnightblue" points="2461.8,-184.64 2451.8,-188.12 2461.79,-191.64 2461.8,-184.64"/>
</g>
<!-- Node42 -->
<g id="node42" class="node">
<title>Node42</title>
<g id="a_node42"><a xlink:href="MultiCameraDriver_8cpp.html" target="_top" xlink:title=" ">
<polygon fill="none" stroke="black" points="4182,-118 4182,-137 4311,-137 4311,-118 4182,-118"/>
<text text-anchor="middle" x="4246.5" y="-125" font-family="FreeSans.ttf" font-size="10.00">MultiCameraDriver.cpp</text>
</a>
</g>
</g>
<!-- Node1&#45;&gt;Node42 -->
<g id="edge43" class="edge">
<title>Node1&#45;&gt;Node42</title>
<path fill="none" stroke="midnightblue" d="M2461.99,-187.89C2700.22,-187.13 3827.24,-181.54 4173.5,-143 4185.44,-141.67 4198.34,-139.39 4209.93,-137.03"/>
<polygon fill="midnightblue" stroke="midnightblue" points="2461.63,-184.39 2451.64,-187.92 2461.65,-191.39 2461.63,-184.39"/>
</g>
<!-- Node43 -->
<g id="node43" class="node">
<title>Node43</title>
<g id="a_node43"><a xlink:href="GazeboYarpRobotInterface_8cc.html" target="_top" xlink:title=" ">
<polygon fill="none" stroke="black" points="4329,-118 4329,-137 4488,-137 4488,-118 4329,-118"/>
<text text-anchor="middle" x="4408.5" y="-125" font-family="FreeSans.ttf" font-size="10.00">GazeboYarpRobotInterface.cc</text>
</a>
</g>
</g>
<!-- Node1&#45;&gt;Node43 -->
<g id="edge44" class="edge">
<title>Node1&#45;&gt;Node43</title>
<path fill="none" stroke="midnightblue" d="M2461.66,-187.79C2710.77,-186.51 3942.61,-178.43 4320.5,-143 4334.84,-141.66 4350.37,-139.37 4364.34,-137.01"/>
<polygon fill="midnightblue" stroke="midnightblue" points="2461.52,-184.3 2451.54,-187.85 2461.56,-191.29 2461.52,-184.3"/>
</g>
<!-- Node44 -->
<g id="node44" class="node">
<title>Node44</title>
<g id="a_node44"><a xlink:href="VideoTexture_8cc.html" target="_top" xlink:title=" ">
<polygon fill="none" stroke="black" points="4506.5,-118 4506.5,-137 4600.5,-137 4600.5,-118 4506.5,-118"/>
<text text-anchor="middle" x="4553.5" y="-125" font-family="FreeSans.ttf" font-size="10.00">VideoTexture.cc</text>
</a>
</g>
</g>
<!-- Node1&#45;&gt;Node44 -->
<g id="edge45" class="edge">
<title>Node1&#45;&gt;Node44</title>
<path fill="none" stroke="midnightblue" d="M2462.02,-187.66C2745.17,-185.39 4289.64,-171.76 4497.5,-143 4506.85,-141.71 4516.89,-139.41 4525.84,-137.02"/>
<polygon fill="midnightblue" stroke="midnightblue" points="2461.7,-184.16 2451.73,-187.74 2461.76,-191.16 2461.7,-184.16"/>
</g>
<!-- Node45 -->
<g id="node45" class="node">
<title>Node45</title>
<g id="a_node45"><a xlink:href="worldinterface_8cpp.html" target="_top" xlink:title=" ">
<polygon fill="none" stroke="black" points="4619,-118 4619,-137 4726,-137 4726,-118 4619,-118"/>
<text text-anchor="middle" x="4672.5" y="-125" font-family="FreeSans.ttf" font-size="10.00">worldinterface.cpp</text>
</a>
</g>
</g>
<!-- Node1&#45;&gt;Node45 -->
<g id="edge46" class="edge">
<title>Node1&#45;&gt;Node45</title>
<path fill="none" stroke="midnightblue" d="M2462.09,-187.64C2754.2,-185.18 4389.47,-170.28 4609.5,-143 4619.97,-141.7 4631.24,-139.4 4641.32,-137.01"/>
<polygon fill="midnightblue" stroke="midnightblue" points="2461.85,-184.14 2451.88,-187.72 2461.91,-191.14 2461.85,-184.14"/>
</g>
<!-- Node3 -->
<g id="node3" class="node">
<title>Node3</title>
<g id="a_node3"><a xlink:href="BaseState_8cc.html" target="_top" xlink:title=" ">
<polygon fill="none" stroke="black" points="0.5,-56.5 0.5,-75.5 80.5,-75.5 80.5,-56.5 0.5,-56.5"/>
<text text-anchor="middle" x="40.5" y="-63.5" font-family="FreeSans.ttf" font-size="10.00">BaseState.cc</text>
</a>
</g>
</g>
<!-- Node2&#45;&gt;Node3 -->
<g id="edge2" class="edge">
<title>Node2&#45;&gt;Node3</title>
<path fill="none" stroke="midnightblue" d="M40.5,-107.82C40.5,-97 40.5,-83.9 40.5,-75.51"/>
<polygon fill="midnightblue" stroke="midnightblue" points="37,-107.98 40.5,-117.98 44,-107.98 37,-107.98"/>
</g>
<!-- Node4&#45;&gt;Node3 -->
<g id="edge4" class="edge">
<title>Node4&#45;&gt;Node3</title>
<path fill="none" stroke="midnightblue" d="M126.71,-113.21C105.21,-101.69 74.74,-85.36 56.37,-75.51"/>
<polygon fill="midnightblue" stroke="midnightblue" points="125.13,-116.34 135.6,-117.98 128.44,-110.17 125.13,-116.34"/>
</g>
<!-- Node5 -->
<g id="node5" class="node">
<title>Node5</title>
<g id="a_node5"><a xlink:href="BaseStateDriver_8cpp.html" target="_top" xlink:title=" ">
<polygon fill="none" stroke="black" points="98.5,-56.5 98.5,-75.5 214.5,-75.5 214.5,-56.5 98.5,-56.5"/>
<text text-anchor="middle" x="156.5" y="-63.5" font-family="FreeSans.ttf" font-size="10.00">BaseStateDriver.cpp</text>
</a>
</g>
</g>
<!-- Node4&#45;&gt;Node5 -->
<g id="edge5" class="edge">
<title>Node4&#45;&gt;Node5</title>
<path fill="none" stroke="midnightblue" d="M153.07,-107.82C153.98,-97 155.08,-83.9 155.78,-75.51"/>
<polygon fill="midnightblue" stroke="midnightblue" points="149.57,-107.72 152.22,-117.98 156.54,-108.3 149.57,-107.72"/>
</g>
<!-- Node10 -->
<g id="node10" class="node">
<title>Node10</title>
<g id="a_node10"><a xlink:href="ConfigurationOverride_8cc.html" target="_top" xlink:title=" ">
<polygon fill="none" stroke="black" points="506,-56.5 506,-75.5 643,-75.5 643,-56.5 506,-56.5"/>
<text text-anchor="middle" x="574.5" y="-63.5" font-family="FreeSans.ttf" font-size="10.00">ConfigurationOverride.cc</text>
</a>
</g>
</g>
<!-- Node9&#45;&gt;Node10 -->
<g id="edge10" class="edge">
<title>Node9&#45;&gt;Node10</title>
<path fill="none" stroke="midnightblue" d="M574.5,-107.82C574.5,-97 574.5,-83.9 574.5,-75.51"/>
<polygon fill="midnightblue" stroke="midnightblue" points="571,-107.98 574.5,-117.98 578,-107.98 571,-107.98"/>
</g>
<!-- Node21 -->
<g id="node21" class="node">
<title>Node21</title>
<g id="a_node21"><a xlink:href="ApplyExternalWrench_8cc.html" target="_top" xlink:title=" ">
<polygon fill="none" stroke="black" points="2060,-0.5 2060,-19.5 2195,-19.5 2195,-0.5 2060,-0.5"/>
<text text-anchor="middle" x="2127.5" y="-7.5" font-family="FreeSans.ttf" font-size="10.00">ApplyExternalWrench.cc</text>
</a>
</g>
</g>
<!-- Node20&#45;&gt;Node21 -->
<g id="edge21" class="edge">
<title>Node20&#45;&gt;Node21</title>
<path fill="none" stroke="midnightblue" d="M2127.5,-45.8C2127.5,-36.91 2127.5,-26.78 2127.5,-19.75"/>
<polygon fill="midnightblue" stroke="midnightblue" points="2124,-46.08 2127.5,-56.08 2131,-46.08 2124,-46.08"/>
</g>
<!-- Node22&#45;&gt;Node20 -->
<g id="edge23" class="edge">
<title>Node22&#45;&gt;Node20</title>
<path fill="none" stroke="midnightblue" d="M2190.43,-112.11C2174.47,-100.67 2152.67,-85.05 2139.37,-75.51"/>
<polygon fill="midnightblue" stroke="midnightblue" points="2188.44,-114.99 2198.61,-117.98 2192.52,-109.3 2188.44,-114.99"/>
</g>
<!-- Node23 -->
<g id="node23" class="node">
<title>Node23</title>
<g id="a_node23"><a xlink:href="ExternalWrench_8cc.html" target="_top" xlink:title=" ">
<polygon fill="none" stroke="black" points="2214,-56.5 2214,-75.5 2321,-75.5 2321,-56.5 2214,-56.5"/>
<text text-anchor="middle" x="2267.5" y="-63.5" font-family="FreeSans.ttf" font-size="10.00">ExternalWrench.cc</text>
</a>
</g>
</g>
<!-- Node22&#45;&gt;Node23 -->
<g id="edge24" class="edge">
<title>Node22&#45;&gt;Node23</title>
<path fill="none" stroke="midnightblue" d="M2225.83,-110.5C2236.62,-99.24 2250.64,-84.6 2259.35,-75.51"/>
<polygon fill="midnightblue" stroke="midnightblue" points="2223.06,-108.33 2218.67,-117.98 2228.11,-113.18 2223.06,-108.33"/>
</g>
<!-- Node35 -->
<g id="node35" class="node">
<title>Node35</title>
<g id="a_node35"><a xlink:href="linkattacher_8hh.html" target="_top" xlink:title=" ">
<polygon fill="none" stroke="black" points="3482,-56.5 3482,-75.5 3571,-75.5 3571,-56.5 3482,-56.5"/>
<text text-anchor="middle" x="3526.5" y="-63.5" font-family="FreeSans.ttf" font-size="10.00">linkattacher.hh</text>
</a>
</g>
</g>
<!-- Node34&#45;&gt;Node35 -->
<g id="edge36" class="edge">
<title>Node34&#45;&gt;Node35</title>
<path fill="none" stroke="midnightblue" d="M3576.96,-111.15C3563.99,-99.81 3546.82,-84.78 3536.22,-75.51"/>
<polygon fill="midnightblue" stroke="midnightblue" points="3574.93,-114.02 3584.76,-117.98 3579.54,-108.76 3574.93,-114.02"/>
</g>
<!-- Node37 -->
<g id="node37" class="node">
<title>Node37</title>
<g id="a_node37"><a xlink:href="linkattacherserverimpl_8cpp.html" target="_top" xlink:title=" ">
<polygon fill="none" stroke="black" points="3589,-56.5 3589,-75.5 3736,-75.5 3736,-56.5 3589,-56.5"/>
<text text-anchor="middle" x="3662.5" y="-63.5" font-family="FreeSans.ttf" font-size="10.00">linkattacherserverimpl.cpp</text>
</a>
</g>
</g>
<!-- Node34&#45;&gt;Node37 -->
<g id="edge38" class="edge">
<title>Node34&#45;&gt;Node37</title>
<path fill="none" stroke="midnightblue" d="M3612.04,-111.15C3625.01,-99.81 3642.18,-84.78 3652.78,-75.51"/>
<polygon fill="midnightblue" stroke="midnightblue" points="3609.46,-108.76 3604.24,-117.98 3614.07,-114.02 3609.46,-108.76"/>
</g>
<!-- Node36 -->
<g id="node36" class="node">
<title>Node36</title>
<g id="a_node36"><a xlink:href="linkattacher_8cc.html" target="_top" xlink:title=" ">
<polygon fill="none" stroke="black" points="3483,-0.5 3483,-19.5 3570,-19.5 3570,-0.5 3483,-0.5"/>
<text text-anchor="middle" x="3526.5" y="-7.5" font-family="FreeSans.ttf" font-size="10.00">linkattacher.cc</text>
</a>
</g>
</g>
<!-- Node35&#45;&gt;Node36 -->
<g id="edge37" class="edge">
<title>Node35&#45;&gt;Node36</title>
<path fill="none" stroke="midnightblue" d="M3526.5,-45.8C3526.5,-36.91 3526.5,-26.78 3526.5,-19.75"/>
<polygon fill="midnightblue" stroke="midnightblue" points="3523,-46.08 3526.5,-56.08 3530,-46.08 3523,-46.08"/>
</g>
</g>
</svg>
