<?xml version="1.0" encoding="UTF-8" standalone="no"?>
<!DOCTYPE svg PUBLIC "-//W3C//DTD SVG 1.1//EN"
 "http://www.w3.org/Graphics/SVG/1.1/DTD/svg11.dtd">
<!-- Generated by graphviz version 5.0.0 (20220707.2338)
 -->
<!-- Title: common.h Pages: 1 -->
<svg width="4738pt" height="207pt"
 viewBox="0.00 0.00 4737.50 207.00" xmlns="http://www.w3.org/2000/svg" xmlns:xlink="http://www.w3.org/1999/xlink">
<g id="graph0" class="graph" transform="scale(1 1) rotate(0) translate(4 203)">
<title>common.h</title>
<!-- Node1 -->
<g id="node1" class="node">
<title>Node1</title>
<g id="a_node1"><a xlink:title=" ">
<polygon fill="#bfbfbf" stroke="black" points="2387,-179.5 2387,-198.5 2455,-198.5 2455,-179.5 2387,-179.5"/>
<text text-anchor="middle" x="2421" y="-186.5" font-family="FreeSans.ttf" font-size="10.00">common.h</text>
</a>
</g>
</g>
<!-- Node2 -->
<g id="node2" class="node">
<title>Node2</title>
<g id="a_node2"><a xlink:href="ApplyExternalWrench_8hh.html" target="_top" xlink:title=" ">
<polygon fill="none" stroke="black" points="1306.5,-56.5 1306.5,-75.5 1443.5,-75.5 1443.5,-56.5 1306.5,-56.5"/>
<text text-anchor="middle" x="1375" y="-63.5" font-family="FreeSans.ttf" font-size="10.00">ApplyExternalWrench.hh</text>
</a>
</g>
</g>
<!-- Node1&#45;&gt;Node2 -->
<g id="edge1" class="edge">
<title>Node1&#45;&gt;Node2</title>
<path fill="none" stroke="midnightblue" d="M2376.69,-187.69C2109.66,-185.72 725.24,-174.04 695,-143 685.39,-133.13 685.58,-122.06 695,-112 736.16,-68.03 1142.06,-65.54 1306.43,-66.36"/>
<polygon fill="midnightblue" stroke="midnightblue" points="2376.76,-191.19 2386.79,-187.76 2376.81,-184.19 2376.76,-191.19"/>
</g>
<!-- Node4 -->
<g id="node4" class="node">
<title>Node4</title>
<g id="a_node4"><a xlink:href="BaseState_8hh.html" target="_top" xlink:title=" ">
<polygon fill="none" stroke="black" points="1.5,-118 1.5,-137 82.5,-137 82.5,-118 1.5,-118"/>
<text text-anchor="middle" x="42" y="-125" font-family="FreeSans.ttf" font-size="10.00">BaseState.hh</text>
</a>
</g>
</g>
<!-- Node1&#45;&gt;Node4 -->
<g id="edge3" class="edge">
<title>Node1&#45;&gt;Node4</title>
<path fill="none" stroke="midnightblue" d="M2376.51,-187.83C2074.21,-186.58 326.62,-177.87 93,-143 84.44,-141.72 75.29,-139.43 67.14,-137.04"/>
<polygon fill="midnightblue" stroke="midnightblue" points="2376.64,-191.33 2386.65,-187.87 2376.66,-184.33 2376.64,-191.33"/>
</g>
<!-- Node6 -->
<g id="node6" class="node">
<title>Node6</title>
<g id="a_node6"><a xlink:href="BaseStateDriver_8h.html" target="_top" xlink:title=" ">
<polygon fill="none" stroke="black" points="102,-118 102,-137 206,-137 206,-118 102,-118"/>
<text text-anchor="middle" x="154" y="-125" font-family="FreeSans.ttf" font-size="10.00">BaseStateDriver.h</text>
</a>
</g>
</g>
<!-- Node1&#45;&gt;Node6 -->
<g id="edge5" class="edge">
<title>Node1&#45;&gt;Node6</title>
<path fill="none" stroke="midnightblue" d="M2376.59,-187.66C2083.87,-185.37 436.46,-171.25 215,-143 204.85,-141.71 193.93,-139.41 184.17,-137.02"/>
<polygon fill="midnightblue" stroke="midnightblue" points="2376.79,-191.16 2386.82,-187.74 2376.84,-184.16 2376.79,-191.16"/>
</g>
<!-- Node8 -->
<g id="node8" class="node">
<title>Node8</title>
<g id="a_node8"><a xlink:href="Camera_8cc.html" target="_top" xlink:title=" ">
<polygon fill="none" stroke="black" points="382,-118 382,-137 450,-137 450,-118 382,-118"/>
<text text-anchor="middle" x="416" y="-125" font-family="FreeSans.ttf" font-size="10.00">Camera.cc</text>
</a>
</g>
</g>
<!-- Node1&#45;&gt;Node8 -->
<g id="edge8" class="edge">
<title>Node1&#45;&gt;Node8</title>
<path fill="none" stroke="midnightblue" d="M2376.42,-187.78C2102.54,-186.35 653.34,-177.18 459,-143 451.71,-141.72 443.97,-139.42 437.1,-137.03"/>
<polygon fill="midnightblue" stroke="midnightblue" points="2376.74,-191.29 2386.76,-187.84 2376.78,-184.29 2376.74,-191.29"/>
</g>
<!-- Node9 -->
<g id="node9" class="node">
<title>Node9</title>
<g id="a_node9"><a xlink:href="CameraDriver_8cpp.html" target="_top" xlink:title=" ">
<polygon fill="none" stroke="black" points="468,-118 468,-137 572,-137 572,-118 468,-118"/>
<text text-anchor="middle" x="520" y="-125" font-family="FreeSans.ttf" font-size="10.00">CameraDriver.cpp</text>
</a>
</g>
</g>
<!-- Node1&#45;&gt;Node9 -->
<g id="edge9" class="edge">
<title>Node1&#45;&gt;Node9</title>
<path fill="none" stroke="midnightblue" d="M2376.72,-188.17C2132.13,-188.93 944.18,-190.08 581,-143 570.96,-141.7 560.17,-139.43 550.49,-137.07"/>
<polygon fill="midnightblue" stroke="midnightblue" points="2377.01,-191.67 2387,-188.14 2376.99,-184.67 2377.01,-191.67"/>
</g>
<!-- Node10 -->
<g id="node10" class="node">
<title>Node10</title>
<g id="a_node10"><a xlink:href="Clock_8cc.html" target="_top" xlink:title=" ">
<polygon fill="none" stroke="black" points="590.5,-118 590.5,-137 647.5,-137 647.5,-118 590.5,-118"/>
<text text-anchor="middle" x="619" y="-125" font-family="FreeSans.ttf" font-size="10.00">Clock.cc</text>
</a>
</g>
</g>
<!-- Node1&#45;&gt;Node10 -->
<g id="edge10" class="edge">
<title>Node1&#45;&gt;Node10</title>
<path fill="none" stroke="midnightblue" d="M2376.64,-187.66C2120.41,-185.58 835.19,-173.69 662,-143 654.71,-141.71 646.97,-139.41 640.1,-137.02"/>
<polygon fill="midnightblue" stroke="midnightblue" points="2376.67,-191.16 2386.69,-187.74 2376.72,-184.16 2376.67,-191.16"/>
</g>
<!-- Node11 -->
<g id="node11" class="node">
<title>Node11</title>
<g id="a_node11"><a xlink:href="ConfigurationOverride_8hh.html" target="_top" xlink:title=" ">
<polygon fill="none" stroke="black" points="224.5,-118 224.5,-137 363.5,-137 363.5,-118 224.5,-118"/>
<text text-anchor="middle" x="294" y="-125" font-family="FreeSans.ttf" font-size="10.00">ConfigurationOverride.hh</text>
</a>
</g>
</g>
<!-- Node1&#45;&gt;Node11 -->
<g id="edge11" class="edge">
<title>Node1&#45;&gt;Node11</title>
<path fill="none" stroke="midnightblue" d="M2376.41,-187.99C2115.18,-187.78 780.85,-184.64 373,-143 360.1,-141.68 346.15,-139.41 333.61,-137.05"/>
<polygon fill="midnightblue" stroke="midnightblue" points="2376.65,-191.49 2386.65,-188 2376.65,-184.49 2376.65,-191.49"/>
</g>
<!-- Node13 -->
<g id="node13" class="node">
<title>Node13</title>
<g id="a_node13"><a xlink:href="ContactLoadCellArray_8cc.html" target="_top" xlink:title=" ">
<polygon fill="none" stroke="black" points="704,-118 704,-137 838,-137 838,-118 704,-118"/>
<text text-anchor="middle" x="771" y="-125" font-family="FreeSans.ttf" font-size="10.00">ContactLoadCellArray.cc</text>
</a>
</g>
</g>
<!-- Node1&#45;&gt;Node13 -->
<g id="edge13" class="edge">
<title>Node1&#45;&gt;Node13</title>
<path fill="none" stroke="midnightblue" d="M2376.59,-187.69C2153.67,-185.99 1155.33,-176.6 847,-143 834.58,-141.65 821.16,-139.36 809.09,-137"/>
<polygon fill="midnightblue" stroke="midnightblue" points="2376.88,-191.19 2386.91,-187.77 2376.94,-184.19 2376.88,-191.19"/>
</g>
<!-- Node14 -->
<g id="node14" class="node">
<title>Node14</title>
<g id="a_node14"><a xlink:href="ContactLoadCellArrayDriver_8cpp.html" target="_top" xlink:title=" ">
<polygon fill="none" stroke="black" points="856,-118 856,-137 1028,-137 1028,-118 856,-118"/>
<text text-anchor="middle" x="942" y="-125" font-family="FreeSans.ttf" font-size="10.00">ContactLoadCellArrayDriver.cpp</text>
</a>
</g>
</g>
<!-- Node1&#45;&gt;Node14 -->
<g id="edge14" class="edge">
<title>Node1&#45;&gt;Node14</title>
<path fill="none" stroke="midnightblue" d="M2376.73,-188.47C2204.48,-189.9 1562.53,-191.48 1037,-143 1021.88,-141.61 1005.51,-139.37 990.68,-137.07"/>
<polygon fill="midnightblue" stroke="midnightblue" points="2376.96,-191.97 2386.93,-188.38 2376.9,-184.97 2376.96,-191.97"/>
</g>
<!-- Node15 -->
<g id="node15" class="node">
<title>Node15</title>
<g id="a_node15"><a xlink:href="ControlBoard_8cc.html" target="_top" xlink:title=" ">
<polygon fill="none" stroke="black" points="1046,-118 1046,-137 1140,-137 1140,-118 1046,-118"/>
<text text-anchor="middle" x="1093" y="-125" font-family="FreeSans.ttf" font-size="10.00">ControlBoard.cc</text>
</a>
</g>
</g>
<!-- Node1&#45;&gt;Node15 -->
<g id="edge15" class="edge">
<title>Node1&#45;&gt;Node15</title>
<path fill="none" stroke="midnightblue" d="M2376.55,-187.73C2180.67,-186.32 1393.38,-178.53 1149,-143 1139.76,-141.66 1129.84,-139.38 1120.96,-137.02"/>
<polygon fill="midnightblue" stroke="midnightblue" points="2376.73,-191.23 2386.76,-187.8 2376.78,-184.23 2376.73,-191.23"/>
</g>
<!-- Node16 -->
<g id="node16" class="node">
<title>Node16</title>
<g id="a_node16"><a xlink:href="ControlBoardDriver_8cpp.html" target="_top" xlink:title=" ">
<polygon fill="none" stroke="black" points="1158,-118 1158,-137 1288,-137 1288,-118 1158,-118"/>
<text text-anchor="middle" x="1223" y="-125" font-family="FreeSans.ttf" font-size="10.00">ControlBoardDriver.cpp</text>
</a>
</g>
</g>
<!-- Node1&#45;&gt;Node16 -->
<g id="edge16" class="edge">
<title>Node1&#45;&gt;Node16</title>
<path fill="none" stroke="midnightblue" d="M2376.57,-187.13C2195.38,-183.46 1511.66,-168.18 1297,-143 1285.04,-141.6 1272.12,-139.33 1260.47,-137"/>
<polygon fill="midnightblue" stroke="midnightblue" points="2376.73,-190.64 2386.8,-187.34 2376.87,-183.64 2376.73,-190.64"/>
</g>
<!-- Node17 -->
<g id="node17" class="node">
<title>Node17</title>
<g id="a_node17"><a xlink:href="ControlBoardDriverCoupling_8cpp.html" target="_top" xlink:title=" ">
<polygon fill="none" stroke="black" points="1306.5,-118 1306.5,-137 1479.5,-137 1479.5,-118 1306.5,-118"/>
<text text-anchor="middle" x="1393" y="-125" font-family="FreeSans.ttf" font-size="10.00">ControlBoardDriverCoupling.cpp</text>
</a>
</g>
</g>
<!-- Node1&#45;&gt;Node17 -->
<g id="edge17" class="edge">
<title>Node1&#45;&gt;Node17</title>
<path fill="none" stroke="midnightblue" d="M2376.28,-187.48C2241.65,-185.56 1828.53,-177.11 1488,-143 1473.23,-141.52 1457.24,-139.32 1442.67,-137.07"/>
<polygon fill="midnightblue" stroke="midnightblue" points="2376.55,-190.98 2386.59,-187.62 2376.64,-183.98 2376.55,-190.98"/>
</g>
<!-- Node18 -->
<g id="node18" class="node">
<title>Node18</title>
<g id="a_node18"><a xlink:href="ControlBoardDriverPidControl_8cpp.html" target="_top" xlink:title=" ">
<polygon fill="none" stroke="black" points="1497.5,-118 1497.5,-137 1678.5,-137 1678.5,-118 1497.5,-118"/>
<text text-anchor="middle" x="1588" y="-125" font-family="FreeSans.ttf" font-size="10.00">ControlBoardDriverPidControl.cpp</text>
</a>
</g>
</g>
<!-- Node1&#45;&gt;Node18 -->
<g id="edge18" class="edge">
<title>Node1&#45;&gt;Node18</title>
<path fill="none" stroke="midnightblue" d="M2376.78,-186.59C2262.44,-182.65 1947.76,-170.04 1687,-143 1671.8,-141.42 1655.35,-139.22 1640.3,-137"/>
<polygon fill="midnightblue" stroke="midnightblue" points="2376.78,-190.09 2386.89,-186.93 2377.02,-183.09 2376.78,-190.09"/>
</g>
<!-- Node19 -->
<g id="node19" class="node">
<title>Node19</title>
<g id="a_node19"><a xlink:href="ControlBoardDriverTrajectory_8cpp.html" target="_top" xlink:title=" ">
<polygon fill="none" stroke="black" points="1696.5,-118 1696.5,-137 1873.5,-137 1873.5,-118 1696.5,-118"/>
<text text-anchor="middle" x="1785" y="-125" font-family="FreeSans.ttf" font-size="10.00">ControlBoardDriverTrajectory.cpp</text>
</a>
</g>
</g>
<!-- Node1&#45;&gt;Node19 -->
<g id="edge19" class="edge">
<title>Node1&#45;&gt;Node19</title>
<path fill="none" stroke="midnightblue" d="M2376.79,-185.29C2284.61,-179.42 2065.22,-164.32 1882,-143 1867.62,-141.33 1852.1,-139.17 1837.78,-137.03"/>
<polygon fill="midnightblue" stroke="midnightblue" points="2376.67,-188.79 2386.87,-185.92 2377.11,-181.8 2376.67,-188.79"/>
</g>
<!-- Node20 -->
<g id="node20" class="node">
<title>Node20</title>
<g id="a_node20"><a xlink:href="DepthCamera_8cc.html" target="_top" xlink:title=" ">
<polygon fill="none" stroke="black" points="1891,-118 1891,-137 1989,-137 1989,-118 1891,-118"/>
<text text-anchor="middle" x="1940" y="-125" font-family="FreeSans.ttf" font-size="10.00">DepthCamera.cc</text>
</a>
</g>
</g>
<!-- Node1&#45;&gt;Node20 -->
<g id="edge20" class="edge">
<title>Node1&#45;&gt;Node20</title>
<path fill="none" stroke="midnightblue" d="M2376.44,-185.3C2299.02,-180.17 2134.82,-167.26 1998,-143 1989.11,-141.42 1979.56,-139.24 1970.83,-137.05"/>
<polygon fill="midnightblue" stroke="midnightblue" points="2376.57,-188.82 2386.78,-185.98 2377.03,-181.84 2376.57,-188.82"/>
</g>
<!-- Node21 -->
<g id="node21" class="node">
<title>Node21</title>
<g id="a_node21"><a xlink:href="DepthCameraDriver_8cpp.html" target="_top" xlink:title=" ">
<polygon fill="none" stroke="black" points="2007,-118 2007,-137 2141,-137 2141,-118 2007,-118"/>
<text text-anchor="middle" x="2074" y="-125" font-family="FreeSans.ttf" font-size="10.00">DepthCameraDriver.cpp</text>
</a>
</g>
</g>
<!-- Node1&#45;&gt;Node21 -->
<g id="edge21" class="edge">
<title>Node1&#45;&gt;Node21</title>
<path fill="none" stroke="midnightblue" d="M2376.52,-180.95C2322.79,-172.36 2229.67,-157.21 2150,-143 2139.55,-141.14 2128.32,-139.04 2117.77,-137.04"/>
<polygon fill="midnightblue" stroke="midnightblue" points="2376.3,-184.46 2386.73,-182.58 2377.41,-177.55 2376.3,-184.46"/>
</g>
<!-- Node22 -->
<g id="node22" class="node">
<title>Node22</title>
<g id="a_node22"><a xlink:href="ExternalWrench_8hh.html" target="_top" xlink:title=" ">
<polygon fill="none" stroke="black" points="2159.5,-118 2159.5,-137 2268.5,-137 2268.5,-118 2159.5,-118"/>
<text text-anchor="middle" x="2214" y="-125" font-family="FreeSans.ttf" font-size="10.00">ExternalWrench.hh</text>
</a>
</g>
</g>
<!-- Node1&#45;&gt;Node22 -->
<g id="edge22" class="edge">
<title>Node1&#45;&gt;Node22</title>
<path fill="none" stroke="midnightblue" d="M2381.6,-176.68C2341.38,-165.11 2279.85,-147.43 2243.6,-137.01"/>
<polygon fill="midnightblue" stroke="midnightblue" points="2380.76,-180.08 2391.34,-179.48 2382.7,-173.35 2380.76,-180.08"/>
</g>
<!-- Node24 -->
<g id="node24" class="node">
<title>Node24</title>
<g id="a_node24"><a xlink:href="FakeControlBoard_8cc.html" target="_top" xlink:title=" ">
<polygon fill="none" stroke="black" points="2287,-118 2287,-137 2403,-137 2403,-118 2287,-118"/>
<text text-anchor="middle" x="2345" y="-125" font-family="FreeSans.ttf" font-size="10.00">FakeControlBoard.cc</text>
</a>
</g>
</g>
<!-- Node1&#45;&gt;Node24 -->
<g id="edge25" class="edge">
<title>Node1&#45;&gt;Node24</title>
<path fill="none" stroke="midnightblue" d="M2402.22,-173.29C2387.64,-161.88 2367.94,-146.46 2355.87,-137.01"/>
<polygon fill="midnightblue" stroke="midnightblue" points="2400.08,-176.07 2410.11,-179.48 2404.39,-170.55 2400.08,-176.07"/>
</g>
<!-- Node25 -->
<g id="node25" class="node">
<title>Node25</title>
<g id="a_node25"><a xlink:href="FakeControlBoardDriver_8cpp.html" target="_top" xlink:title=" ">
<polygon fill="none" stroke="black" points="2421,-118 2421,-137 2573,-137 2573,-118 2421,-118"/>
<text text-anchor="middle" x="2497" y="-125" font-family="FreeSans.ttf" font-size="10.00">FakeControlBoardDriver.cpp</text>
</a>
</g>
</g>
<!-- Node1&#45;&gt;Node25 -->
<g id="edge26" class="edge">
<title>Node1&#45;&gt;Node25</title>
<path fill="none" stroke="midnightblue" d="M2439.78,-173.29C2454.36,-161.88 2474.06,-146.46 2486.13,-137.01"/>
<polygon fill="midnightblue" stroke="midnightblue" points="2437.61,-170.55 2431.89,-179.48 2441.92,-176.07 2437.61,-170.55"/>
</g>
<!-- Node26 -->
<g id="node26" class="node">
<title>Node26</title>
<g id="a_node26"><a xlink:href="FakeControlBoardDriverPidControl_8cpp.html" target="_top" xlink:title=" ">
<polygon fill="none" stroke="black" points="2591.5,-112.5 2591.5,-142.5 2738.5,-142.5 2738.5,-112.5 2591.5,-112.5"/>
<text text-anchor="start" x="2599.5" y="-130.5" font-family="FreeSans.ttf" font-size="10.00">FakeControlBoardDriverPid</text>
<text text-anchor="middle" x="2665" y="-119.5" font-family="FreeSans.ttf" font-size="10.00">Control.cpp</text>
</a>
</g>
</g>
<!-- Node1&#45;&gt;Node26 -->
<g id="edge27" class="edge">
<title>Node1&#45;&gt;Node26</title>
<path fill="none" stroke="midnightblue" d="M2465.15,-177.23C2505.05,-167.5 2564.03,-153.12 2607.58,-142.5"/>
<polygon fill="midnightblue" stroke="midnightblue" points="2464.07,-173.89 2455.18,-179.66 2465.73,-180.7 2464.07,-173.89"/>
</g>
<!-- Node27 -->
<g id="node27" class="node">
<title>Node27</title>
<g id="a_node27"><a xlink:href="ForceTorque_8cc.html" target="_top" xlink:title=" ">
<polygon fill="none" stroke="black" points="2756.5,-118 2756.5,-137 2845.5,-137 2845.5,-118 2756.5,-118"/>
<text text-anchor="middle" x="2801" y="-125" font-family="FreeSans.ttf" font-size="10.00">ForceTorque.cc</text>
</a>
</g>
</g>
<!-- Node1&#45;&gt;Node27 -->
<g id="edge28" class="edge">
<title>Node1&#45;&gt;Node27</title>
<path fill="none" stroke="midnightblue" d="M2465,-183.69C2527.91,-177.14 2647.01,-163.24 2747,-143 2755.09,-141.36 2763.76,-139.21 2771.73,-137.07"/>
<polygon fill="midnightblue" stroke="midnightblue" points="2464.61,-180.22 2455.03,-184.72 2465.33,-187.18 2464.61,-180.22"/>
</g>
<!-- Node28 -->
<g id="node28" class="node">
<title>Node28</title>
<g id="a_node28"><a xlink:href="GazeboYarpRobotInterface_8cc.html" target="_top" xlink:title=" ">
<polygon fill="none" stroke="black" points="2863.5,-118 2863.5,-137 3022.5,-137 3022.5,-118 2863.5,-118"/>
<text text-anchor="middle" x="2943" y="-125" font-family="FreeSans.ttf" font-size="10.00">GazeboYarpRobotInterface.cc</text>
</a>
</g>
</g>
<!-- Node1&#45;&gt;Node28 -->
<g id="edge29" class="edge">
<title>Node1&#45;&gt;Node28</title>
<path fill="none" stroke="midnightblue" d="M2465.04,-184.27C2543.42,-177.45 2712.22,-161.9 2854,-143 2866.88,-141.28 2880.76,-139.16 2893.65,-137.06"/>
<polygon fill="midnightblue" stroke="midnightblue" points="2464.7,-180.79 2455.04,-185.14 2465.31,-187.76 2464.7,-180.79"/>
</g>
<!-- Node29 -->
<g id="node29" class="node">
<title>Node29</title>
<g id="a_node29"><a xlink:href="IMU_8cc.html" target="_top" xlink:title=" ">
<polygon fill="none" stroke="black" points="3040,-118 3040,-137 3090,-137 3090,-118 3040,-118"/>
<text text-anchor="middle" x="3065" y="-125" font-family="FreeSans.ttf" font-size="10.00">IMU.cc</text>
</a>
</g>
</g>
<!-- Node1&#45;&gt;Node29 -->
<g id="edge30" class="edge">
<title>Node1&#45;&gt;Node29</title>
<path fill="none" stroke="midnightblue" d="M2465.23,-186.62C2586.69,-182.54 2923.47,-169.13 3031,-143 3036.74,-141.61 3042.74,-139.34 3048.08,-137.01"/>
<polygon fill="midnightblue" stroke="midnightblue" points="2465.05,-183.13 2455.17,-186.96 2465.28,-190.12 2465.05,-183.13"/>
</g>
<!-- Node30 -->
<g id="node30" class="node">
<title>Node30</title>
<g id="a_node30"><a xlink:href="IMUDriver_8cpp.html" target="_top" xlink:title=" ">
<polygon fill="none" stroke="black" points="3108,-118 3108,-137 3194,-137 3194,-118 3108,-118"/>
<text text-anchor="middle" x="3151" y="-125" font-family="FreeSans.ttf" font-size="10.00">IMUDriver.cpp</text>
</a>
</g>
</g>
<!-- Node1&#45;&gt;Node30 -->
<g id="edge31" class="edge">
<title>Node1&#45;&gt;Node30</title>
<path fill="none" stroke="midnightblue" d="M2465.42,-188.2C2574.27,-187.99 2862.67,-183.35 3099,-143 3107.41,-141.56 3116.41,-139.32 3124.52,-137.02"/>
<polygon fill="midnightblue" stroke="midnightblue" points="2465.15,-184.7 2455.15,-188.2 2465.15,-191.7 2465.15,-184.7"/>
</g>
<!-- Node31 -->
<g id="node31" class="node">
<title>Node31</title>
<g id="a_node31"><a xlink:href="LaserSensor_8cc.html" target="_top" xlink:title=" ">
<polygon fill="none" stroke="black" points="3212.5,-118 3212.5,-137 3301.5,-137 3301.5,-118 3212.5,-118"/>
<text text-anchor="middle" x="3257" y="-125" font-family="FreeSans.ttf" font-size="10.00">LaserSensor.cc</text>
</a>
</g>
</g>
<!-- Node1&#45;&gt;Node31 -->
<g id="edge32" class="edge">
<title>Node1&#45;&gt;Node31</title>
<path fill="none" stroke="midnightblue" d="M2465.43,-188.61C2585.32,-189.58 2925.09,-187.82 3203,-143 3211.72,-141.59 3221.06,-139.35 3229.49,-137.05"/>
<polygon fill="midnightblue" stroke="midnightblue" points="2465.22,-185.11 2455.19,-188.52 2465.15,-192.11 2465.22,-185.11"/>
</g>
<!-- Node32 -->
<g id="node32" class="node">
<title>Node32</title>
<g id="a_node32"><a xlink:href="MaisSensor_8cc.html" target="_top" xlink:title=" ">
<polygon fill="none" stroke="black" points="3320,-118 3320,-137 3406,-137 3406,-118 3320,-118"/>
<text text-anchor="middle" x="3363" y="-125" font-family="FreeSans.ttf" font-size="10.00">MaisSensor.cc</text>
</a>
</g>
</g>
<!-- Node1&#45;&gt;Node32 -->
<g id="edge33" class="edge">
<title>Node1&#45;&gt;Node32</title>
<path fill="none" stroke="midnightblue" d="M2465.58,-187.02C2621.9,-183.38 3144.61,-169.49 3310,-143 3318.67,-141.61 3327.95,-139.35 3336.28,-137.02"/>
<polygon fill="midnightblue" stroke="midnightblue" points="2465.31,-183.52 2455.39,-187.25 2465.47,-190.52 2465.31,-183.52"/>
</g>
<!-- Node33 -->
<g id="node33" class="node">
<title>Node33</title>
<g id="a_node33"><a xlink:href="MaisSensorDriver_8cpp.html" target="_top" xlink:title=" ">
<polygon fill="none" stroke="black" points="3424,-118 3424,-137 3546,-137 3546,-118 3424,-118"/>
<text text-anchor="middle" x="3485" y="-125" font-family="FreeSans.ttf" font-size="10.00">MaisSensorDriver.cpp</text>
</a>
</g>
</g>
<!-- Node1&#45;&gt;Node33 -->
<g id="edge34" class="edge">
<title>Node1&#45;&gt;Node33</title>
<path fill="none" stroke="midnightblue" d="M2465.38,-188.5C2605.45,-189.53 3050.41,-188.72 3415,-143 3426.21,-141.59 3438.29,-139.36 3449.21,-137.05"/>
<polygon fill="midnightblue" stroke="midnightblue" points="2465.09,-184.99 2455.06,-188.41 2465.04,-191.99 2465.09,-184.99"/>
</g>
<!-- Node34 -->
<g id="node34" class="node">
<title>Node34</title>
<g id="a_node34"><a xlink:href="ModelPosePublisher_8cc.html" target="_top" xlink:title=" ">
<polygon fill="none" stroke="black" points="3564,-118 3564,-137 3692,-137 3692,-118 3564,-118"/>
<text text-anchor="middle" x="3628" y="-125" font-family="FreeSans.ttf" font-size="10.00">ModelPosePublisher.cc</text>
</a>
</g>
</g>
<!-- Node1&#45;&gt;Node34 -->
<g id="edge35" class="edge">
<title>Node1&#45;&gt;Node34</title>
<path fill="none" stroke="midnightblue" d="M2465.25,-187.17C2647.19,-183.61 3338.23,-168.67 3555,-143 3566.81,-141.6 3579.55,-139.34 3591.04,-137.01"/>
<polygon fill="midnightblue" stroke="midnightblue" points="2465.16,-183.67 2455.23,-187.36 2465.3,-190.67 2465.16,-183.67"/>
</g>
<!-- Node35 -->
<g id="node35" class="node">
<title>Node35</title>
<g id="a_node35"><a xlink:href="MultiCamera_8cc.html" target="_top" xlink:title=" ">
<polygon fill="none" stroke="black" points="3710.5,-118 3710.5,-137 3803.5,-137 3803.5,-118 3710.5,-118"/>
<text text-anchor="middle" x="3757" y="-125" font-family="FreeSans.ttf" font-size="10.00">MultiCamera.cc</text>
</a>
</g>
</g>
<!-- Node1&#45;&gt;Node35 -->
<g id="edge36" class="edge">
<title>Node1&#45;&gt;Node35</title>
<path fill="none" stroke="midnightblue" d="M2465.4,-187.74C2661.97,-186.38 3454.95,-178.74 3701,-143 3710.24,-141.66 3720.16,-139.38 3729.04,-137.02"/>
<polygon fill="midnightblue" stroke="midnightblue" points="2465.14,-184.24 2455.17,-187.81 2465.19,-191.24 2465.14,-184.24"/>
</g>
<!-- Node36 -->
<g id="node36" class="node">
<title>Node36</title>
<g id="a_node36"><a xlink:href="MultiCameraDriver_8cpp.html" target="_top" xlink:title=" ">
<polygon fill="none" stroke="black" points="3821.5,-118 3821.5,-137 3950.5,-137 3950.5,-118 3821.5,-118"/>
<text text-anchor="middle" x="3886" y="-125" font-family="FreeSans.ttf" font-size="10.00">MultiCameraDriver.cpp</text>
</a>
</g>
</g>
<!-- Node1&#45;&gt;Node36 -->
<g id="edge37" class="edge">
<title>Node1&#45;&gt;Node36</title>
<path fill="none" stroke="midnightblue" d="M2465.47,-187.53C2672.35,-185.18 3541.95,-173.62 3812,-143 3823.97,-141.64 3836.89,-139.39 3848.54,-137.06"/>
<polygon fill="midnightblue" stroke="midnightblue" points="2465.25,-184.03 2455.29,-187.64 2465.33,-191.03 2465.25,-184.03"/>
</g>
<!-- Node37 -->
<g id="node37" class="node">
<title>Node37</title>
<g id="a_node37"><a xlink:href="VideoTexture_8cc.html" target="_top" xlink:title=" ">
<polygon fill="none" stroke="black" points="3969,-118 3969,-137 4063,-137 4063,-118 3969,-118"/>
<text text-anchor="middle" x="4016" y="-125" font-family="FreeSans.ttf" font-size="10.00">VideoTexture.cc</text>
</a>
</g>
</g>
<!-- Node1&#45;&gt;Node37 -->
<g id="edge38" class="edge">
<title>Node1&#45;&gt;Node37</title>
<path fill="none" stroke="midnightblue" d="M2465.51,-188.02C2685.65,-187.9 3659.35,-184.98 3959,-143 3968.4,-141.68 3978.5,-139.41 3987.54,-137.05"/>
<polygon fill="midnightblue" stroke="midnightblue" points="2465.31,-184.52 2455.31,-188.02 2465.31,-191.52 2465.31,-184.52"/>
</g>
<!-- Node38 -->
<g id="node38" class="node">
<title>Node38</title>
<g id="a_node38"><a xlink:href="inertialMTB_8cc.html" target="_top" xlink:title=" ">
<polygon fill="none" stroke="black" points="4081,-118 4081,-137 4167,-137 4167,-118 4081,-118"/>
<text text-anchor="middle" x="4124" y="-125" font-family="FreeSans.ttf" font-size="10.00">inertialMTB.cc</text>
</a>
</g>
</g>
<!-- Node1&#45;&gt;Node38 -->
<g id="edge39" class="edge">
<title>Node1&#45;&gt;Node38</title>
<path fill="none" stroke="midnightblue" d="M2465.42,-188.26C2695.07,-189.36 3749.28,-191.64 4072,-143 4080.62,-141.7 4089.84,-139.43 4098.08,-137.07"/>
<polygon fill="midnightblue" stroke="midnightblue" points="2465.14,-184.76 2455.12,-188.21 2465.1,-191.75 2465.14,-184.76"/>
</g>
<!-- Node39 -->
<g id="node39" class="node">
<title>Node39</title>
<g id="a_node39"><a xlink:href="inertialMTBPart_8cc.html" target="_top" xlink:title=" ">
<polygon fill="none" stroke="black" points="4185.5,-118 4185.5,-137 4290.5,-137 4290.5,-118 4185.5,-118"/>
<text text-anchor="middle" x="4238" y="-125" font-family="FreeSans.ttf" font-size="10.00">inertialMTBPart.cc</text>
</a>
</g>
</g>
<!-- Node1&#45;&gt;Node39 -->
<g id="edge40" class="edge">
<title>Node1&#45;&gt;Node39</title>
<path fill="none" stroke="midnightblue" d="M2465.48,-188.09C2703.71,-188.38 3830.63,-187.34 4176,-143 4186.2,-141.69 4197.17,-139.42 4207,-137.06"/>
<polygon fill="midnightblue" stroke="midnightblue" points="2465.14,-184.59 2455.14,-188.07 2465.13,-191.59 2465.14,-184.59"/>
</g>
<!-- Node40 -->
<g id="node40" class="node">
<title>Node40</title>
<g id="a_node40"><a xlink:href="inertialMTBPartDriver_8cpp.html" target="_top" xlink:title=" ">
<polygon fill="none" stroke="black" points="4308.5,-118 4308.5,-137 4449.5,-137 4449.5,-118 4308.5,-118"/>
<text text-anchor="middle" x="4379" y="-125" font-family="FreeSans.ttf" font-size="10.00">inertialMTBPartDriver.cpp</text>
</a>
</g>
</g>
<!-- Node1&#45;&gt;Node40 -->
<g id="edge41" class="edge">
<title>Node1&#45;&gt;Node40</title>
<path fill="none" stroke="midnightblue" d="M2465.38,-187.87C2713.09,-187.02 3926.77,-180.96 4299,-143 4312.06,-141.67 4326.19,-139.39 4338.89,-137.03"/>
<polygon fill="midnightblue" stroke="midnightblue" points="2465.3,-184.37 2455.31,-187.91 2465.33,-191.37 2465.3,-184.37"/>
</g>
<!-- Node41 -->
<g id="node41" class="node">
<title>Node41</title>
<g id="a_node41"><a xlink:href="linkattacherserverimpl_8h.html" target="_top" xlink:title=" ">
<polygon fill="none" stroke="black" points="4468,-118 4468,-137 4604,-137 4604,-118 4468,-118"/>
<text text-anchor="middle" x="4536" y="-125" font-family="FreeSans.ttf" font-size="10.00">linkattacherserverimpl.h</text>
</a>
</g>
</g>
<!-- Node1&#45;&gt;Node41 -->
<g id="edge42" class="edge">
<title>Node1&#45;&gt;Node41</title>
<path fill="none" stroke="midnightblue" d="M2465.35,-188C2725.19,-187.83 4052.39,-184.9 4458,-143 4470.74,-141.68 4484.52,-139.41 4496.9,-137.05"/>
<polygon fill="midnightblue" stroke="midnightblue" points="2465.17,-184.5 2455.17,-188 2465.17,-191.5 2465.17,-184.5"/>
</g>
<!-- Node45 -->
<g id="node45" class="node">
<title>Node45</title>
<g id="a_node45"><a xlink:href="worldinterface_8cpp.html" target="_top" xlink:title=" ">
<polygon fill="none" stroke="black" points="4622.5,-118 4622.5,-137 4729.5,-137 4729.5,-118 4622.5,-118"/>
<text text-anchor="middle" x="4676" y="-125" font-family="FreeSans.ttf" font-size="10.00">worldinterface.cpp</text>
</a>
</g>
</g>
<!-- Node1&#45;&gt;Node45 -->
<g id="edge46" class="edge">
<title>Node1&#45;&gt;Node45</title>
<path fill="none" stroke="midnightblue" d="M2465.59,-187.64C2757.7,-185.18 4392.97,-170.28 4613,-143 4623.47,-141.7 4634.74,-139.4 4644.82,-137.01"/>
<polygon fill="midnightblue" stroke="midnightblue" points="2465.35,-184.14 2455.38,-187.72 2465.41,-191.14 2465.35,-184.14"/>
</g>
<!-- Node3 -->
<g id="node3" class="node">
<title>Node3</title>
<g id="a_node3"><a xlink:href="ApplyExternalWrench_8cc.html" target="_top" xlink:title=" ">
<polygon fill="none" stroke="black" points="1307.5,-0.5 1307.5,-19.5 1442.5,-19.5 1442.5,-0.5 1307.5,-0.5"/>
<text text-anchor="middle" x="1375" y="-7.5" font-family="FreeSans.ttf" font-size="10.00">ApplyExternalWrench.cc</text>
</a>
</g>
</g>
<!-- Node2&#45;&gt;Node3 -->
<g id="edge2" class="edge">
<title>Node2&#45;&gt;Node3</title>
<path fill="none" stroke="midnightblue" d="M1375,-45.8C1375,-36.91 1375,-26.78 1375,-19.75"/>
<polygon fill="midnightblue" stroke="midnightblue" points="1371.5,-46.08 1375,-56.08 1378.5,-46.08 1371.5,-46.08"/>
</g>
<!-- Node5 -->
<g id="node5" class="node">
<title>Node5</title>
<g id="a_node5"><a xlink:href="BaseState_8cc.html" target="_top" xlink:title=" ">
<polygon fill="none" stroke="black" points="0,-56.5 0,-75.5 80,-75.5 80,-56.5 0,-56.5"/>
<text text-anchor="middle" x="40" y="-63.5" font-family="FreeSans.ttf" font-size="10.00">BaseState.cc</text>
</a>
</g>
</g>
<!-- Node4&#45;&gt;Node5 -->
<g id="edge4" class="edge">
<title>Node4&#45;&gt;Node5</title>
<path fill="none" stroke="midnightblue" d="M41.37,-107.82C41.01,-97 40.57,-83.9 40.29,-75.51"/>
<polygon fill="midnightblue" stroke="midnightblue" points="37.88,-108.1 41.71,-117.98 44.88,-107.86 37.88,-108.1"/>
</g>
<!-- Node6&#45;&gt;Node5 -->
<g id="edge6" class="edge">
<title>Node6&#45;&gt;Node5</title>
<path fill="none" stroke="midnightblue" d="M128.54,-113.21C106.46,-101.69 75.17,-85.36 56.3,-75.51"/>
<polygon fill="midnightblue" stroke="midnightblue" points="127.18,-116.45 137.67,-117.98 130.42,-110.25 127.18,-116.45"/>
</g>
<!-- Node7 -->
<g id="node7" class="node">
<title>Node7</title>
<g id="a_node7"><a xlink:href="BaseStateDriver_8cpp.html" target="_top" xlink:title=" ">
<polygon fill="none" stroke="black" points="98,-56.5 98,-75.5 214,-75.5 214,-56.5 98,-56.5"/>
<text text-anchor="middle" x="156" y="-63.5" font-family="FreeSans.ttf" font-size="10.00">BaseStateDriver.cpp</text>
</a>
</g>
</g>
<!-- Node6&#45;&gt;Node7 -->
<g id="edge7" class="edge">
<title>Node6&#45;&gt;Node7</title>
<path fill="none" stroke="midnightblue" d="M154.63,-107.82C154.99,-97 155.43,-83.9 155.71,-75.51"/>
<polygon fill="midnightblue" stroke="midnightblue" points="151.12,-107.86 154.29,-117.98 158.12,-108.1 151.12,-107.86"/>
</g>
<!-- Node12 -->
<g id="node12" class="node">
<title>Node12</title>
<g id="a_node12"><a xlink:href="ConfigurationOverride_8cc.html" target="_top" xlink:title=" ">
<polygon fill="none" stroke="black" points="232.5,-56.5 232.5,-75.5 369.5,-75.5 369.5,-56.5 232.5,-56.5"/>
<text text-anchor="middle" x="301" y="-63.5" font-family="FreeSans.ttf" font-size="10.00">ConfigurationOverride.cc</text>
</a>
</g>
</g>
<!-- Node11&#45;&gt;Node12 -->
<g id="edge12" class="edge">
<title>Node11&#45;&gt;Node12</title>
<path fill="none" stroke="midnightblue" d="M296.2,-107.82C297.47,-97 299.01,-83.9 300,-75.51"/>
<polygon fill="midnightblue" stroke="midnightblue" points="292.7,-107.63 295,-117.98 299.65,-108.45 292.7,-107.63"/>
</g>
<!-- Node22&#45;&gt;Node2 -->
<g id="edge23" class="edge">
<title>Node22&#45;&gt;Node2</title>
<path fill="none" stroke="midnightblue" d="M2170.96,-115.73C2163.99,-114.28 2156.82,-112.96 2150,-112 1890.94,-75.39 1579.13,-68.43 1443.54,-67.2"/>
<polygon fill="midnightblue" stroke="midnightblue" points="2170.46,-119.2 2180.98,-117.93 2171.96,-112.37 2170.46,-119.2"/>
</g>
<!-- Node23 -->
<g id="node23" class="node">
<title>Node23</title>
<g id="a_node23"><a xlink:href="ExternalWrench_8cc.html" target="_top" xlink:title=" ">
<polygon fill="none" stroke="black" points="2160.5,-56.5 2160.5,-75.5 2267.5,-75.5 2267.5,-56.5 2160.5,-56.5"/>
<text text-anchor="middle" x="2214" y="-63.5" font-family="FreeSans.ttf" font-size="10.00">ExternalWrench.cc</text>
</a>
</g>
</g>
<!-- Node22&#45;&gt;Node23 -->
<g id="edge24" class="edge">
<title>Node22&#45;&gt;Node23</title>
<path fill="none" stroke="midnightblue" d="M2214,-107.82C2214,-97 2214,-83.9 2214,-75.51"/>
<polygon fill="midnightblue" stroke="midnightblue" points="2210.5,-107.98 2214,-117.98 2217.5,-107.98 2210.5,-107.98"/>
</g>
<!-- Node42 -->
<g id="node42" class="node">
<title>Node42</title>
<g id="a_node42"><a xlink:href="linkattacher_8hh.html" target="_top" xlink:title=" ">
<polygon fill="none" stroke="black" points="4559.5,-56.5 4559.5,-75.5 4648.5,-75.5 4648.5,-56.5 4559.5,-56.5"/>
<text text-anchor="middle" x="4604" y="-63.5" font-family="FreeSans.ttf" font-size="10.00">linkattacher.hh</text>
</a>
</g>
</g>
<!-- Node41&#45;&gt;Node42 -->
<g id="edge43" class="edge">
<title>Node41&#45;&gt;Node42</title>
<path fill="none" stroke="midnightblue" d="M4553.54,-111.15C4566.51,-99.81 4583.68,-84.78 4594.28,-75.51"/>
<polygon fill="midnightblue" stroke="midnightblue" points="4550.96,-108.76 4545.74,-117.98 4555.57,-114.02 4550.96,-108.76"/>
</g>
<!-- Node44 -->
<g id="node44" class="node">
<title>Node44</title>
<g id="a_node44"><a xlink:href="linkattacherserverimpl_8cpp.html" target="_top" xlink:title=" ">
<polygon fill="none" stroke="black" points="4394.5,-56.5 4394.5,-75.5 4541.5,-75.5 4541.5,-56.5 4394.5,-56.5"/>
<text text-anchor="middle" x="4468" y="-63.5" font-family="FreeSans.ttf" font-size="10.00">linkattacherserverimpl.cpp</text>
</a>
</g>
</g>
<!-- Node41&#45;&gt;Node44 -->
<g id="edge45" class="edge">
<title>Node41&#45;&gt;Node44</title>
<path fill="none" stroke="midnightblue" d="M4518.46,-111.15C4505.49,-99.81 4488.32,-84.78 4477.72,-75.51"/>
<polygon fill="midnightblue" stroke="midnightblue" points="4516.43,-114.02 4526.26,-117.98 4521.04,-108.76 4516.43,-114.02"/>
</g>
<!-- Node43 -->
<g id="node43" class="node">
<title>Node43</title>
<g id="a_node43"><a xlink:href="linkattacher_8cc.html" target="_top" xlink:title=" ">
<polygon fill="none" stroke="black" points="4560.5,-0.5 4560.5,-19.5 4647.5,-19.5 4647.5,-0.5 4560.5,-0.5"/>
<text text-anchor="middle" x="4604" y="-7.5" font-family="FreeSans.ttf" font-size="10.00">linkattacher.cc</text>
</a>
</g>
</g>
<!-- Node42&#45;&gt;Node43 -->
<g id="edge44" class="edge">
<title>Node42&#45;&gt;Node43</title>
<path fill="none" stroke="midnightblue" d="M4604,-45.8C4604,-36.91 4604,-26.78 4604,-19.75"/>
<polygon fill="midnightblue" stroke="midnightblue" points="4600.5,-46.08 4604,-56.08 4607.5,-46.08 4600.5,-46.08"/>
</g>
</g>
</svg>
