<?xml version="1.0" encoding="UTF-8" standalone="no"?>
<!DOCTYPE svg PUBLIC "-//W3C//DTD SVG 1.1//EN"
 "http://www.w3.org/Graphics/SVG/1.1/DTD/svg11.dtd">
<!-- Generated by graphviz version 2.43.0 (0)
 -->
<!-- Title: ConfHelpers.hh Pages: 1 -->
<svg width="2275pt" height="196pt"
 viewBox="0.00 0.00 2275.00 196.00" xmlns="http://www.w3.org/2000/svg" xmlns:xlink="http://www.w3.org/1999/xlink">
<g id="graph0" class="graph" transform="scale(1 1) rotate(0) translate(4 192)">
<title>ConfHelpers.hh</title>
<!-- Node1 -->
<g id="node1" class="node">
<title>Node1</title>
<g id="a_node1"><a xlink:title=" ">
<polygon fill="#bfbfbf" stroke="black" points="1046,-168.5 1046,-187.5 1138,-187.5 1138,-168.5 1046,-168.5"/>
<text text-anchor="middle" x="1092" y="-175.5" font-family="FreeSans.ttf" font-size="10.00">ConfHelpers.hh</text>
</a>
</g>
</g>
<!-- Node2 -->
<g id="node2" class="node">
<title>Node2</title>
<g id="a_node2"><a xlink:href="ConfHelpers_8cc.html" target="_top" xlink:title=" ">
<polygon fill="none" stroke="black" points="0,-112.5 0,-131.5 90,-131.5 90,-112.5 0,-112.5"/>
<text text-anchor="middle" x="45" y="-119.5" font-family="FreeSans.ttf" font-size="10.00">ConfHelpers.cc</text>
</a>
</g>
</g>
<!-- Node1&#45;&gt;Node2 -->
<g id="edge1" class="edge">
<title>Node1&#45;&gt;Node2</title>
<path fill="none" stroke="midnightblue" d="M1035.82,-176.81C884.22,-175.78 454.24,-169.52 99,-132 96.07,-131.69 93.06,-131.32 90.03,-130.92"/>
<polygon fill="midnightblue" stroke="midnightblue" points="1035.8,-180.31 1045.82,-176.87 1035.85,-173.31 1035.8,-180.31"/>
</g>
<!-- Node3 -->
<g id="node3" class="node">
<title>Node3</title>
<g id="a_node3"><a xlink:href="BaseState_8hh.html" target="_top" xlink:title=" ">
<polygon fill="none" stroke="black" points="108.5,-112.5 108.5,-131.5 189.5,-131.5 189.5,-112.5 108.5,-112.5"/>
<text text-anchor="middle" x="149" y="-119.5" font-family="FreeSans.ttf" font-size="10.00">BaseState.hh</text>
</a>
</g>
</g>
<!-- Node1&#45;&gt;Node3 -->
<g id="edge2" class="edge">
<title>Node1&#45;&gt;Node3</title>
<path fill="none" stroke="midnightblue" d="M1035.67,-176.65C894.4,-175.25 513.83,-168.12 199,-132 195.93,-131.65 192.77,-131.22 189.59,-130.75"/>
<polygon fill="midnightblue" stroke="midnightblue" points="1035.79,-180.16 1045.82,-176.75 1035.85,-173.16 1035.79,-180.16"/>
</g>
<!-- Node5 -->
<g id="node5" class="node">
<title>Node5</title>
<g id="a_node5"><a xlink:href="Camera_8cc.html" target="_top" xlink:title=" ">
<polygon fill="none" stroke="black" points="208,-112.5 208,-131.5 276,-131.5 276,-112.5 208,-112.5"/>
<text text-anchor="middle" x="242" y="-119.5" font-family="FreeSans.ttf" font-size="10.00">Camera.cc</text>
</a>
</g>
</g>
<!-- Node1&#45;&gt;Node5 -->
<g id="edge4" class="edge">
<title>Node1&#45;&gt;Node5</title>
<path fill="none" stroke="midnightblue" d="M1035.57,-176.77C903.65,-175.59 565.05,-168.9 285,-132 282.13,-131.62 279.16,-131.16 276.19,-130.64"/>
<polygon fill="midnightblue" stroke="midnightblue" points="1035.8,-180.27 1045.82,-176.85 1035.85,-173.27 1035.8,-180.27"/>
</g>
<!-- Node6 -->
<g id="node6" class="node">
<title>Node6</title>
<g id="a_node6"><a xlink:href="ContactLoadCellArray_8cc.html" target="_top" xlink:title=" ">
<polygon fill="none" stroke="black" points="294,-112.5 294,-131.5 428,-131.5 428,-112.5 294,-112.5"/>
<text text-anchor="middle" x="361" y="-119.5" font-family="FreeSans.ttf" font-size="10.00">ContactLoadCellArray.cc</text>
</a>
</g>
</g>
<!-- Node1&#45;&gt;Node6 -->
<g id="edge5" class="edge">
<title>Node1&#45;&gt;Node6</title>
<path fill="none" stroke="midnightblue" d="M1035.7,-174.07C922.28,-167.96 658.21,-152.68 437,-132 434.09,-131.73 431.12,-131.44 428.12,-131.13"/>
<polygon fill="midnightblue" stroke="midnightblue" points="1035.71,-177.57 1045.88,-174.61 1036.08,-170.58 1035.71,-177.57"/>
</g>
<!-- Node7 -->
<g id="node7" class="node">
<title>Node7</title>
<g id="a_node7"><a xlink:href="ControlBoard_8cc.html" target="_top" xlink:title=" ">
<polygon fill="none" stroke="black" points="446,-112.5 446,-131.5 540,-131.5 540,-112.5 446,-112.5"/>
<text text-anchor="middle" x="493" y="-119.5" font-family="FreeSans.ttf" font-size="10.00">ControlBoard.cc</text>
</a>
</g>
</g>
<!-- Node1&#45;&gt;Node7 -->
<g id="edge6" class="edge">
<title>Node1&#45;&gt;Node7</title>
<path fill="none" stroke="midnightblue" d="M1035.69,-173.76C936.92,-167.76 726.08,-153.53 549,-132 546.07,-131.64 543.05,-131.25 540.02,-130.82"/>
<polygon fill="midnightblue" stroke="midnightblue" points="1035.56,-177.26 1045.75,-174.37 1035.98,-170.27 1035.56,-177.26"/>
</g>
<!-- Node8 -->
<g id="node8" class="node">
<title>Node8</title>
<g id="a_node8"><a xlink:href="DepthCamera_8cc.html" target="_top" xlink:title=" ">
<polygon fill="none" stroke="black" points="558,-112.5 558,-131.5 656,-131.5 656,-112.5 558,-112.5"/>
<text text-anchor="middle" x="607" y="-119.5" font-family="FreeSans.ttf" font-size="10.00">DepthCamera.cc</text>
</a>
</g>
</g>
<!-- Node1&#45;&gt;Node8 -->
<g id="edge7" class="edge">
<title>Node1&#45;&gt;Node8</title>
<path fill="none" stroke="midnightblue" d="M1035.71,-171.95C953.93,-164.42 797.56,-149.26 665,-132 662.07,-131.62 659.06,-131.21 656.02,-130.78"/>
<polygon fill="midnightblue" stroke="midnightblue" points="1035.51,-175.45 1045.79,-172.88 1036.15,-168.48 1035.51,-175.45"/>
</g>
<!-- Node9 -->
<g id="node9" class="node">
<title>Node9</title>
<g id="a_node9"><a xlink:href="DoubleLaser_8cc.html" target="_top" xlink:title=" ">
<polygon fill="none" stroke="black" points="674,-112.5 674,-131.5 764,-131.5 764,-112.5 674,-112.5"/>
<text text-anchor="middle" x="719" y="-119.5" font-family="FreeSans.ttf" font-size="10.00">DoubleLaser.cc</text>
</a>
</g>
</g>
<!-- Node1&#45;&gt;Node9 -->
<g id="edge8" class="edge">
<title>Node1&#45;&gt;Node9</title>
<path fill="none" stroke="midnightblue" d="M1035.75,-169.5C971.97,-160.89 864.9,-146.14 773,-132 770.09,-131.55 767.09,-131.08 764.07,-130.6"/>
<polygon fill="midnightblue" stroke="midnightblue" points="1035.61,-173.01 1045.99,-170.88 1036.54,-166.07 1035.61,-173.01"/>
</g>
<!-- Node10 -->
<g id="node10" class="node">
<title>Node10</title>
<g id="a_node10"><a xlink:href="FakeControlBoard_8cc.html" target="_top" xlink:title=" ">
<polygon fill="none" stroke="black" points="782,-112.5 782,-131.5 898,-131.5 898,-112.5 782,-112.5"/>
<text text-anchor="middle" x="840" y="-119.5" font-family="FreeSans.ttf" font-size="10.00">FakeControlBoard.cc</text>
</a>
</g>
</g>
<!-- Node1&#45;&gt;Node10 -->
<g id="edge9" class="edge">
<title>Node1&#45;&gt;Node10</title>
<path fill="none" stroke="midnightblue" d="M1042.28,-166.35C994.66,-156.14 923.72,-140.94 879.74,-131.52"/>
<polygon fill="midnightblue" stroke="midnightblue" points="1041.56,-169.77 1052.07,-168.44 1043.03,-162.93 1041.56,-169.77"/>
</g>
<!-- Node11 -->
<g id="node11" class="node">
<title>Node11</title>
<g id="a_node11"><a xlink:href="ForceTorque_8cc.html" target="_top" xlink:title=" ">
<polygon fill="none" stroke="black" points="916.5,-112.5 916.5,-131.5 1005.5,-131.5 1005.5,-112.5 916.5,-112.5"/>
<text text-anchor="middle" x="961" y="-119.5" font-family="FreeSans.ttf" font-size="10.00">ForceTorque.cc</text>
</a>
</g>
</g>
<!-- Node1&#45;&gt;Node11 -->
<g id="edge10" class="edge">
<title>Node1&#45;&gt;Node11</title>
<path fill="none" stroke="midnightblue" d="M1061.68,-164.5C1037.12,-154.38 1003.18,-140.39 981.66,-131.52"/>
<polygon fill="midnightblue" stroke="midnightblue" points="1060.66,-167.87 1071.24,-168.44 1063.33,-161.4 1060.66,-167.87"/>
</g>
<!-- Node12 -->
<g id="node12" class="node">
<title>Node12</title>
<g id="a_node12"><a xlink:href="IMU_8cc.html" target="_top" xlink:title=" ">
<polygon fill="none" stroke="black" points="1024,-112.5 1024,-131.5 1074,-131.5 1074,-112.5 1024,-112.5"/>
<text text-anchor="middle" x="1049" y="-119.5" font-family="FreeSans.ttf" font-size="10.00">IMU.cc</text>
</a>
</g>
</g>
<!-- Node1&#45;&gt;Node12 -->
<g id="edge11" class="edge">
<title>Node1&#45;&gt;Node12</title>
<path fill="none" stroke="midnightblue" d="M1078.58,-160.14C1071.09,-150.74 1062.06,-139.4 1055.97,-131.75"/>
<polygon fill="midnightblue" stroke="midnightblue" points="1075.93,-162.44 1084.9,-168.08 1081.41,-158.08 1075.93,-162.44"/>
</g>
<!-- Node13 -->
<g id="node13" class="node">
<title>Node13</title>
<g id="a_node13"><a xlink:href="inertialMTB_8cc.html" target="_top" xlink:title=" ">
<polygon fill="none" stroke="black" points="1092,-112.5 1092,-131.5 1178,-131.5 1178,-112.5 1092,-112.5"/>
<text text-anchor="middle" x="1135" y="-119.5" font-family="FreeSans.ttf" font-size="10.00">inertialMTB.cc</text>
</a>
</g>
</g>
<!-- Node1&#45;&gt;Node13 -->
<g id="edge12" class="edge">
<title>Node1&#45;&gt;Node13</title>
<path fill="none" stroke="midnightblue" d="M1105.42,-160.14C1112.91,-150.74 1121.94,-139.4 1128.03,-131.75"/>
<polygon fill="midnightblue" stroke="midnightblue" points="1102.59,-158.08 1099.1,-168.08 1108.07,-162.44 1102.59,-158.08"/>
</g>
<!-- Node14 -->
<g id="node14" class="node">
<title>Node14</title>
<g id="a_node14"><a xlink:href="inertialMTBPart_8cc.html" target="_top" xlink:title=" ">
<polygon fill="none" stroke="black" points="1196.5,-112.5 1196.5,-131.5 1301.5,-131.5 1301.5,-112.5 1196.5,-112.5"/>
<text text-anchor="middle" x="1249" y="-119.5" font-family="FreeSans.ttf" font-size="10.00">inertialMTBPart.cc</text>
</a>
</g>
</g>
<!-- Node1&#45;&gt;Node14 -->
<g id="edge13" class="edge">
<title>Node1&#45;&gt;Node14</title>
<path fill="none" stroke="midnightblue" d="M1126.39,-165.17C1155.95,-155 1197.87,-140.59 1224.24,-131.52"/>
<polygon fill="midnightblue" stroke="midnightblue" points="1125.2,-161.88 1116.88,-168.44 1127.47,-168.5 1125.2,-161.88"/>
</g>
<!-- Node15 -->
<g id="node15" class="node">
<title>Node15</title>
<g id="a_node15"><a xlink:href="inertialMTBPartDriver_8cpp.html" target="_top" xlink:title=" ">
<polygon fill="none" stroke="black" points="1319.5,-112.5 1319.5,-131.5 1460.5,-131.5 1460.5,-112.5 1319.5,-112.5"/>
<text text-anchor="middle" x="1390" y="-119.5" font-family="FreeSans.ttf" font-size="10.00">inertialMTBPartDriver.cpp</text>
</a>
</g>
</g>
<!-- Node1&#45;&gt;Node15 -->
<g id="edge14" class="edge">
<title>Node1&#45;&gt;Node15</title>
<path fill="none" stroke="midnightblue" d="M1148.37,-166.78C1204.57,-156.6 1289.89,-141.14 1342.67,-131.58"/>
<polygon fill="midnightblue" stroke="midnightblue" points="1147.45,-163.39 1138.24,-168.62 1148.7,-170.28 1147.45,-163.39"/>
</g>
<!-- Node16 -->
<g id="node16" class="node">
<title>Node16</title>
<g id="a_node16"><a xlink:href="JointSensors_8cc.html" target="_top" xlink:title=" ">
<polygon fill="none" stroke="black" points="1479,-112.5 1479,-131.5 1569,-131.5 1569,-112.5 1479,-112.5"/>
<text text-anchor="middle" x="1524" y="-119.5" font-family="FreeSans.ttf" font-size="10.00">JointSensors.cc</text>
</a>
</g>
</g>
<!-- Node1&#45;&gt;Node16 -->
<g id="edge15" class="edge">
<title>Node1&#45;&gt;Node16</title>
<path fill="none" stroke="midnightblue" d="M1148.23,-171.06C1221.99,-163.09 1355.4,-148.07 1469,-132 1472.16,-131.55 1475.42,-131.07 1478.7,-130.57"/>
<polygon fill="midnightblue" stroke="midnightblue" points="1147.79,-167.59 1138.22,-172.14 1148.54,-174.55 1147.79,-167.59"/>
</g>
<!-- Node17 -->
<g id="node17" class="node">
<title>Node17</title>
<g id="a_node17"><a xlink:href="LaserSensor_8cc.html" target="_top" xlink:title=" ">
<polygon fill="none" stroke="black" points="1587.5,-112.5 1587.5,-131.5 1676.5,-131.5 1676.5,-112.5 1587.5,-112.5"/>
<text text-anchor="middle" x="1632" y="-119.5" font-family="FreeSans.ttf" font-size="10.00">LaserSensor.cc</text>
</a>
</g>
</g>
<!-- Node1&#45;&gt;Node17 -->
<g id="edge16" class="edge">
<title>Node1&#45;&gt;Node17</title>
<path fill="none" stroke="midnightblue" d="M1148.08,-173.14C1238.69,-166.61 1422.84,-152.09 1578,-132 1581.02,-131.61 1584.12,-131.18 1587.25,-130.72"/>
<polygon fill="midnightblue" stroke="midnightblue" points="1147.75,-169.66 1138.02,-173.86 1148.25,-176.64 1147.75,-169.66"/>
</g>
<!-- Node18 -->
<g id="node18" class="node">
<title>Node18</title>
<g id="a_node18"><a xlink:href="linkattacherserverimpl_8h.html" target="_top" xlink:title=" ">
<polygon fill="none" stroke="black" points="1695,-112.5 1695,-131.5 1831,-131.5 1831,-112.5 1695,-112.5"/>
<text text-anchor="middle" x="1763" y="-119.5" font-family="FreeSans.ttf" font-size="10.00">linkattacherserverimpl.h</text>
</a>
</g>
</g>
<!-- Node1&#45;&gt;Node18 -->
<g id="edge17" class="edge">
<title>Node1&#45;&gt;Node18</title>
<path fill="none" stroke="midnightblue" d="M1148.28,-173.47C1253.7,-166.68 1488.06,-150.83 1685,-132 1688.26,-131.69 1691.59,-131.36 1694.95,-131.01"/>
<polygon fill="midnightblue" stroke="midnightblue" points="1147.94,-169.98 1138.19,-174.11 1148.39,-176.97 1147.94,-169.98"/>
</g>
<!-- Node22 -->
<g id="node22" class="node">
<title>Node22</title>
<g id="a_node22"><a xlink:href="MaisSensor_8cc.html" target="_top" xlink:title=" ">
<polygon fill="none" stroke="black" points="1849,-112.5 1849,-131.5 1935,-131.5 1935,-112.5 1849,-112.5"/>
<text text-anchor="middle" x="1892" y="-119.5" font-family="FreeSans.ttf" font-size="10.00">MaisSensor.cc</text>
</a>
</g>
</g>
<!-- Node1&#45;&gt;Node22 -->
<g id="edge21" class="edge">
<title>Node1&#45;&gt;Node22</title>
<path fill="none" stroke="midnightblue" d="M1148.2,-175.75C1273.02,-172.52 1582.65,-161.92 1840,-132 1842.91,-131.66 1845.91,-131.27 1848.92,-130.84"/>
<polygon fill="midnightblue" stroke="midnightblue" points="1148.03,-172.26 1138.12,-176.01 1148.21,-179.26 1148.03,-172.26"/>
</g>
<!-- Node23 -->
<g id="node23" class="node">
<title>Node23</title>
<g id="a_node23"><a xlink:href="MultiCamera_8cc.html" target="_top" xlink:title=" ">
<polygon fill="none" stroke="black" points="1953.5,-112.5 1953.5,-131.5 2046.5,-131.5 2046.5,-112.5 1953.5,-112.5"/>
<text text-anchor="middle" x="2000" y="-119.5" font-family="FreeSans.ttf" font-size="10.00">MultiCamera.cc</text>
</a>
</g>
</g>
<!-- Node1&#45;&gt;Node23 -->
<g id="edge22" class="edge">
<title>Node1&#45;&gt;Node23</title>
<path fill="none" stroke="midnightblue" d="M1148.56,-176.09C1285.46,-173.45 1645.41,-163.79 1944,-132 1947.04,-131.68 1950.16,-131.3 1953.3,-130.89"/>
<polygon fill="midnightblue" stroke="midnightblue" points="1148.25,-172.6 1138.32,-176.29 1148.38,-179.6 1148.25,-172.6"/>
</g>
<!-- Node24 -->
<g id="node24" class="node">
<title>Node24</title>
<g id="a_node24"><a xlink:href="VideoTexture_8cc.html" target="_top" xlink:title=" ">
<polygon fill="none" stroke="black" points="2065,-112.5 2065,-131.5 2159,-131.5 2159,-112.5 2065,-112.5"/>
<text text-anchor="middle" x="2112" y="-119.5" font-family="FreeSans.ttf" font-size="10.00">VideoTexture.cc</text>
</a>
</g>
</g>
<!-- Node1&#45;&gt;Node24 -->
<g id="edge23" class="edge">
<title>Node1&#45;&gt;Node24</title>
<path fill="none" stroke="midnightblue" d="M1148.55,-176.58C1297.46,-175 1712.6,-167.5 2056,-132 2058.94,-131.7 2061.96,-131.34 2065,-130.95"/>
<polygon fill="midnightblue" stroke="midnightblue" points="1148.26,-173.09 1138.29,-176.69 1148.33,-180.09 1148.26,-173.09"/>
</g>
<!-- Node25 -->
<g id="node25" class="node">
<title>Node25</title>
<g id="a_node25"><a xlink:href="worldproxy_8cpp.html" target="_top" xlink:title=" ">
<polygon fill="none" stroke="black" points="2177,-112.5 2177,-131.5 2267,-131.5 2267,-112.5 2177,-112.5"/>
<text text-anchor="middle" x="2222" y="-119.5" font-family="FreeSans.ttf" font-size="10.00">worldproxy.cpp</text>
</a>
</g>
</g>
<!-- Node1&#45;&gt;Node25 -->
<g id="edge24" class="edge">
<title>Node1&#45;&gt;Node25</title>
<path fill="none" stroke="midnightblue" d="M1148.1,-177.09C1307.95,-176.82 1779.26,-172.37 2168,-132 2170.93,-131.7 2173.94,-131.33 2176.98,-130.93"/>
<polygon fill="midnightblue" stroke="midnightblue" points="1148.03,-173.59 1138.03,-177.1 1148.03,-180.59 1148.03,-173.59"/>
</g>
<!-- Node4 -->
<g id="node4" class="node">
<title>Node4</title>
<g id="a_node4"><a xlink:href="BaseState_8cc.html" target="_top" xlink:title=" ">
<polygon fill="none" stroke="black" points="109,-56.5 109,-75.5 189,-75.5 189,-56.5 109,-56.5"/>
<text text-anchor="middle" x="149" y="-63.5" font-family="FreeSans.ttf" font-size="10.00">BaseState.cc</text>
</a>
</g>
</g>
<!-- Node3&#45;&gt;Node4 -->
<g id="edge3" class="edge">
<title>Node3&#45;&gt;Node4</title>
<path fill="none" stroke="midnightblue" d="M149,-101.8C149,-92.91 149,-82.78 149,-75.75"/>
<polygon fill="midnightblue" stroke="midnightblue" points="145.5,-102.08 149,-112.08 152.5,-102.08 145.5,-102.08"/>
</g>
<!-- Node19 -->
<g id="node19" class="node">
<title>Node19</title>
<g id="a_node19"><a xlink:href="linkattacher_8hh.html" target="_top" xlink:title=" ">
<polygon fill="none" stroke="black" points="1650.5,-56.5 1650.5,-75.5 1739.5,-75.5 1739.5,-56.5 1650.5,-56.5"/>
<text text-anchor="middle" x="1695" y="-63.5" font-family="FreeSans.ttf" font-size="10.00">linkattacher.hh</text>
</a>
</g>
</g>
<!-- Node18&#45;&gt;Node19 -->
<g id="edge18" class="edge">
<title>Node18&#45;&gt;Node19</title>
<path fill="none" stroke="midnightblue" d="M1744.24,-106.1C1732,-96.38 1716.44,-84.03 1706.12,-75.83"/>
<polygon fill="midnightblue" stroke="midnightblue" points="1742.07,-108.85 1752.07,-112.32 1746.42,-103.36 1742.07,-108.85"/>
</g>
<!-- Node21 -->
<g id="node21" class="node">
<title>Node21</title>
<g id="a_node21"><a xlink:href="linkattacherserverimpl_8cpp.html" target="_top" xlink:title=" ">
<polygon fill="none" stroke="black" points="1757.5,-56.5 1757.5,-75.5 1904.5,-75.5 1904.5,-56.5 1757.5,-56.5"/>
<text text-anchor="middle" x="1831" y="-63.5" font-family="FreeSans.ttf" font-size="10.00">linkattacherserverimpl.cpp</text>
</a>
</g>
</g>
<!-- Node18&#45;&gt;Node21 -->
<g id="edge20" class="edge">
<title>Node18&#45;&gt;Node21</title>
<path fill="none" stroke="midnightblue" d="M1781.76,-106.1C1794,-96.38 1809.56,-84.03 1819.88,-75.83"/>
<polygon fill="midnightblue" stroke="midnightblue" points="1779.58,-103.36 1773.93,-112.32 1783.93,-108.85 1779.58,-103.36"/>
</g>
<!-- Node20 -->
<g id="node20" class="node">
<title>Node20</title>
<g id="a_node20"><a xlink:href="linkattacher_8cc.html" target="_top" xlink:title=" ">
<polygon fill="none" stroke="black" points="1651.5,-0.5 1651.5,-19.5 1738.5,-19.5 1738.5,-0.5 1651.5,-0.5"/>
<text text-anchor="middle" x="1695" y="-7.5" font-family="FreeSans.ttf" font-size="10.00">linkattacher.cc</text>
</a>
</g>
</g>
<!-- Node19&#45;&gt;Node20 -->
<g id="edge19" class="edge">
<title>Node19&#45;&gt;Node20</title>
<path fill="none" stroke="midnightblue" d="M1695,-45.8C1695,-36.91 1695,-26.78 1695,-19.75"/>
<polygon fill="midnightblue" stroke="midnightblue" points="1691.5,-46.08 1695,-56.08 1698.5,-46.08 1691.5,-46.08"/>
</g>
</g>
</svg>
