<?xml version="1.0" encoding="UTF-8" standalone="no"?>
<!DOCTYPE svg PUBLIC "-//W3C//DTD SVG 1.1//EN"
 "http://www.w3.org/Graphics/SVG/1.1/DTD/svg11.dtd">
<!-- Generated by graphviz version 3.0.0 (20220315.2325)
 -->
<!-- Title: ConfHelpers.hh Pages: 1 -->
<svg width="2185pt" height="196pt"
 viewBox="0.00 0.00 2184.50 196.00" xmlns="http://www.w3.org/2000/svg" xmlns:xlink="http://www.w3.org/1999/xlink">
<g id="graph0" class="graph" transform="scale(1 1) rotate(0) translate(4 192)">
<title>ConfHelpers.hh</title>
<!-- Node1 -->
<g id="node1" class="node">
<title>Node1</title>
<g id="a_node1"><a xlink:title=" ">
<polygon fill="#bfbfbf" stroke="black" points="982.5,-168.5 982.5,-187.5 1074.5,-187.5 1074.5,-168.5 982.5,-168.5"/>
<text text-anchor="middle" x="1028.5" y="-175.5" font-family="FreeSans.ttf" font-size="10.00">ConfHelpers.hh</text>
</a>
</g>
</g>
<!-- Node2 -->
<g id="node2" class="node">
<title>Node2</title>
<g id="a_node2"><a xlink:href="BaseState_8hh.html" target="_top" xlink:title=" ">
<polygon fill="none" stroke="black" points="0,-112.5 0,-131.5 81,-131.5 81,-112.5 0,-112.5"/>
<text text-anchor="middle" x="40.5" y="-119.5" font-family="FreeSans.ttf" font-size="10.00">BaseState.hh</text>
</a>
</g>
</g>
<!-- Node1&#45;&gt;Node2 -->
<g id="edge1" class="edge">
<title>Node1&#45;&gt;Node2</title>
<path fill="none" stroke="midnightblue" d="M972.4,-176.85C826.53,-175.91 423.51,-169.8 90.5,-132 87.43,-131.65 84.27,-131.23 81.09,-130.76"/>
<polygon fill="midnightblue" stroke="midnightblue" points="972.44,-180.35 982.46,-176.91 972.48,-173.35 972.44,-180.35"/>
</g>
<!-- Node4 -->
<g id="node4" class="node">
<title>Node4</title>
<g id="a_node4"><a xlink:href="Camera_8cc.html" target="_top" xlink:title=" ">
<polygon fill="none" stroke="black" points="99.5,-112.5 99.5,-131.5 167.5,-131.5 167.5,-112.5 99.5,-112.5"/>
<text text-anchor="middle" x="133.5" y="-119.5" font-family="FreeSans.ttf" font-size="10.00">Camera.cc</text>
</a>
</g>
</g>
<!-- Node1&#45;&gt;Node4 -->
<g id="edge3" class="edge">
<title>Node1&#45;&gt;Node4</title>
<path fill="none" stroke="midnightblue" d="M971.84,-177C834.7,-176.36 474.26,-170.79 176.5,-132 173.63,-131.63 170.66,-131.16 167.69,-130.65"/>
<polygon fill="midnightblue" stroke="midnightblue" points="972.08,-180.51 982.1,-177.04 972.11,-173.51 972.08,-180.51"/>
</g>
<!-- Node5 -->
<g id="node5" class="node">
<title>Node5</title>
<g id="a_node5"><a xlink:href="ConfHelpers_8cc.html" target="_top" xlink:title=" ">
<polygon fill="none" stroke="black" points="185.5,-112.5 185.5,-131.5 275.5,-131.5 275.5,-112.5 185.5,-112.5"/>
<text text-anchor="middle" x="230.5" y="-119.5" font-family="FreeSans.ttf" font-size="10.00">ConfHelpers.cc</text>
</a>
</g>
</g>
<!-- Node1&#45;&gt;Node5 -->
<g id="edge4" class="edge">
<title>Node1&#45;&gt;Node5</title>
<path fill="none" stroke="midnightblue" d="M972.16,-175.61C847.73,-172.09 540.26,-160.97 284.5,-132 281.57,-131.67 278.56,-131.29 275.53,-130.87"/>
<polygon fill="midnightblue" stroke="midnightblue" points="972.12,-179.11 982.21,-175.89 972.31,-172.11 972.12,-179.11"/>
</g>
<!-- Node6 -->
<g id="node6" class="node">
<title>Node6</title>
<g id="a_node6"><a xlink:href="ContactLoadCellArray_8cc.html" target="_top" xlink:title=" ">
<polygon fill="none" stroke="black" points="293.5,-112.5 293.5,-131.5 427.5,-131.5 427.5,-112.5 293.5,-112.5"/>
<text text-anchor="middle" x="360.5" y="-119.5" font-family="FreeSans.ttf" font-size="10.00">ContactLoadCellArray.cc</text>
</a>
</g>
</g>
<!-- Node1&#45;&gt;Node6 -->
<g id="edge5" class="edge">
<title>Node1&#45;&gt;Node6</title>
<path fill="none" stroke="midnightblue" d="M972.31,-173.52C867.06,-166.82 633.08,-151.1 436.5,-132 433.59,-131.72 430.62,-131.42 427.62,-131.1"/>
<polygon fill="midnightblue" stroke="midnightblue" points="972.19,-177.02 982.39,-174.16 972.63,-170.03 972.19,-177.02"/>
</g>
<!-- Node7 -->
<g id="node7" class="node">
<title>Node7</title>
<g id="a_node7"><a xlink:href="ControlBoard_8cc.html" target="_top" xlink:title=" ">
<polygon fill="none" stroke="black" points="445.5,-112.5 445.5,-131.5 539.5,-131.5 539.5,-112.5 445.5,-112.5"/>
<text text-anchor="middle" x="492.5" y="-119.5" font-family="FreeSans.ttf" font-size="10.00">ControlBoard.cc</text>
</a>
</g>
</g>
<!-- Node1&#45;&gt;Node7 -->
<g id="edge6" class="edge">
<title>Node1&#45;&gt;Node7</title>
<path fill="none" stroke="midnightblue" d="M972.16,-172.93C882.34,-166.16 701.25,-151.41 548.5,-132 545.57,-131.63 542.56,-131.22 539.52,-130.79"/>
<polygon fill="midnightblue" stroke="midnightblue" points="972.15,-176.44 982.39,-173.69 972.68,-169.46 972.15,-176.44"/>
</g>
<!-- Node8 -->
<g id="node8" class="node">
<title>Node8</title>
<g id="a_node8"><a xlink:href="DepthCamera_8cc.html" target="_top" xlink:title=" ">
<polygon fill="none" stroke="black" points="557.5,-112.5 557.5,-131.5 655.5,-131.5 655.5,-112.5 557.5,-112.5"/>
<text text-anchor="middle" x="606.5" y="-119.5" font-family="FreeSans.ttf" font-size="10.00">DepthCamera.cc</text>
</a>
</g>
</g>
<!-- Node1&#45;&gt;Node8 -->
<g id="edge7" class="edge">
<title>Node1&#45;&gt;Node8</title>
<path fill="none" stroke="midnightblue" d="M972.33,-170.6C900.76,-162.33 773.3,-147.16 664.5,-132 661.57,-131.59 658.57,-131.16 655.53,-130.72"/>
<polygon fill="midnightblue" stroke="midnightblue" points="972.14,-174.1 982.47,-171.77 972.94,-167.15 972.14,-174.1"/>
</g>
<!-- Node9 -->
<g id="node9" class="node">
<title>Node9</title>
<g id="a_node9"><a xlink:href="FakeControlBoard_8cc.html" target="_top" xlink:title=" ">
<polygon fill="none" stroke="black" points="673.5,-112.5 673.5,-131.5 789.5,-131.5 789.5,-112.5 673.5,-112.5"/>
<text text-anchor="middle" x="731.5" y="-119.5" font-family="FreeSans.ttf" font-size="10.00">FakeControlBoard.cc</text>
</a>
</g>
</g>
<!-- Node1&#45;&gt;Node9 -->
<g id="edge8" class="edge">
<title>Node1&#45;&gt;Node9</title>
<path fill="none" stroke="midnightblue" d="M972.31,-166.78C916.31,-156.6 831.28,-141.14 778.67,-131.58"/>
<polygon fill="midnightblue" stroke="midnightblue" points="971.95,-170.28 982.42,-168.62 973.21,-163.39 971.95,-170.28"/>
</g>
<!-- Node10 -->
<g id="node10" class="node">
<title>Node10</title>
<g id="a_node10"><a xlink:href="ForceTorque_8cc.html" target="_top" xlink:title=" ">
<polygon fill="none" stroke="black" points="808,-112.5 808,-131.5 897,-131.5 897,-112.5 808,-112.5"/>
<text text-anchor="middle" x="852.5" y="-119.5" font-family="FreeSans.ttf" font-size="10.00">ForceTorque.cc</text>
</a>
</g>
</g>
<!-- Node1&#45;&gt;Node10 -->
<g id="edge9" class="edge">
<title>Node1&#45;&gt;Node10</title>
<path fill="none" stroke="midnightblue" d="M990.81,-165.44C957.63,-155.26 910.07,-140.66 880.26,-131.52"/>
<polygon fill="midnightblue" stroke="midnightblue" points="990.03,-168.86 1000.61,-168.44 992.08,-162.16 990.03,-168.86"/>
</g>
<!-- Node11 -->
<g id="node11" class="node">
<title>Node11</title>
<g id="a_node11"><a xlink:href="IMU_8cc.html" target="_top" xlink:title=" ">
<polygon fill="none" stroke="black" points="915.5,-112.5 915.5,-131.5 965.5,-131.5 965.5,-112.5 915.5,-112.5"/>
<text text-anchor="middle" x="940.5" y="-119.5" font-family="FreeSans.ttf" font-size="10.00">IMU.cc</text>
</a>
</g>
</g>
<!-- Node1&#45;&gt;Node11 -->
<g id="edge10" class="edge">
<title>Node1&#45;&gt;Node11</title>
<path fill="none" stroke="midnightblue" d="M1005.52,-162.9C989.39,-153 968.32,-140.07 954.6,-131.65"/>
<polygon fill="midnightblue" stroke="midnightblue" points="1004.01,-166.08 1014.36,-168.32 1007.67,-160.11 1004.01,-166.08"/>
</g>
<!-- Node12 -->
<g id="node12" class="node">
<title>Node12</title>
<g id="a_node12"><a xlink:href="LaserSensor_8cc.html" target="_top" xlink:title=" ">
<polygon fill="none" stroke="black" points="984,-112.5 984,-131.5 1073,-131.5 1073,-112.5 984,-112.5"/>
<text text-anchor="middle" x="1028.5" y="-119.5" font-family="FreeSans.ttf" font-size="10.00">LaserSensor.cc</text>
</a>
</g>
</g>
<!-- Node1&#45;&gt;Node12 -->
<g id="edge11" class="edge">
<title>Node1&#45;&gt;Node12</title>
<path fill="none" stroke="midnightblue" d="M1028.5,-157.8C1028.5,-148.91 1028.5,-138.78 1028.5,-131.75"/>
<polygon fill="midnightblue" stroke="midnightblue" points="1025,-158.08 1028.5,-168.08 1032,-158.08 1025,-158.08"/>
</g>
<!-- Node13 -->
<g id="node13" class="node">
<title>Node13</title>
<g id="a_node13"><a xlink:href="MaisSensor_8cc.html" target="_top" xlink:title=" ">
<polygon fill="none" stroke="black" points="1091.5,-112.5 1091.5,-131.5 1177.5,-131.5 1177.5,-112.5 1091.5,-112.5"/>
<text text-anchor="middle" x="1134.5" y="-119.5" font-family="FreeSans.ttf" font-size="10.00">MaisSensor.cc</text>
</a>
</g>
</g>
<!-- Node1&#45;&gt;Node13 -->
<g id="edge12" class="edge">
<title>Node1&#45;&gt;Node13</title>
<path fill="none" stroke="midnightblue" d="M1054.56,-163.73C1074.18,-153.73 1100.53,-140.31 1117.51,-131.65"/>
<polygon fill="midnightblue" stroke="midnightblue" points="1052.85,-160.67 1045.53,-168.32 1056.03,-166.9 1052.85,-160.67"/>
</g>
<!-- Node14 -->
<g id="node14" class="node">
<title>Node14</title>
<g id="a_node14"><a xlink:href="MultiCamera_8cc.html" target="_top" xlink:title=" ">
<polygon fill="none" stroke="black" points="1196,-112.5 1196,-131.5 1289,-131.5 1289,-112.5 1196,-112.5"/>
<text text-anchor="middle" x="1242.5" y="-119.5" font-family="FreeSans.ttf" font-size="10.00">MultiCamera.cc</text>
</a>
</g>
</g>
<!-- Node1&#45;&gt;Node14 -->
<g id="edge13" class="edge">
<title>Node1&#45;&gt;Node14</title>
<path fill="none" stroke="midnightblue" d="M1072.26,-165.96C1112.67,-155.76 1171.87,-140.82 1208.75,-131.52"/>
<polygon fill="midnightblue" stroke="midnightblue" points="1071.25,-162.6 1062.41,-168.44 1072.96,-169.39 1071.25,-162.6"/>
</g>
<!-- Node15 -->
<g id="node15" class="node">
<title>Node15</title>
<g id="a_node15"><a xlink:href="VideoTexture_8cc.html" target="_top" xlink:title=" ">
<polygon fill="none" stroke="black" points="1307.5,-112.5 1307.5,-131.5 1401.5,-131.5 1401.5,-112.5 1307.5,-112.5"/>
<text text-anchor="middle" x="1354.5" y="-119.5" font-family="FreeSans.ttf" font-size="10.00">VideoTexture.cc</text>
</a>
</g>
</g>
<!-- Node1&#45;&gt;Node15 -->
<g id="edge14" class="edge">
<title>Node1&#45;&gt;Node15</title>
<path fill="none" stroke="midnightblue" d="M1084.66,-167.7C1147.57,-157.28 1248.44,-140.57 1307.4,-130.8"/>
<polygon fill="midnightblue" stroke="midnightblue" points="1083.81,-164.29 1074.52,-169.38 1084.95,-171.2 1083.81,-164.29"/>
</g>
<!-- Node16 -->
<g id="node16" class="node">
<title>Node16</title>
<g id="a_node16"><a xlink:href="inertialMTB_8cc.html" target="_top" xlink:title=" ">
<polygon fill="none" stroke="black" points="1419.5,-112.5 1419.5,-131.5 1505.5,-131.5 1505.5,-112.5 1419.5,-112.5"/>
<text text-anchor="middle" x="1462.5" y="-119.5" font-family="FreeSans.ttf" font-size="10.00">inertialMTB.cc</text>
</a>
</g>
</g>
<!-- Node1&#45;&gt;Node16 -->
<g id="edge15" class="edge">
<title>Node1&#45;&gt;Node16</title>
<path fill="none" stroke="midnightblue" d="M1084.88,-171.32C1159.52,-163.59 1295.16,-148.76 1410.5,-132 1413.4,-131.58 1416.39,-131.12 1419.4,-130.64"/>
<polygon fill="midnightblue" stroke="midnightblue" points="1084.35,-167.86 1074.77,-172.37 1085.07,-174.82 1084.35,-167.86"/>
</g>
<!-- Node17 -->
<g id="node17" class="node">
<title>Node17</title>
<g id="a_node17"><a xlink:href="inertialMTBPart_8cc.html" target="_top" xlink:title=" ">
<polygon fill="none" stroke="black" points="1524,-112.5 1524,-131.5 1629,-131.5 1629,-112.5 1524,-112.5"/>
<text text-anchor="middle" x="1576.5" y="-119.5" font-family="FreeSans.ttf" font-size="10.00">inertialMTBPart.cc</text>
</a>
</g>
</g>
<!-- Node1&#45;&gt;Node17 -->
<g id="edge16" class="edge">
<title>Node1&#45;&gt;Node17</title>
<path fill="none" stroke="midnightblue" d="M1084.88,-172.73C1175.56,-165.66 1359.34,-150.43 1514.5,-132 1517.52,-131.64 1520.63,-131.25 1523.76,-130.85"/>
<polygon fill="midnightblue" stroke="midnightblue" points="1084.52,-169.25 1074.82,-173.52 1085.06,-176.23 1084.52,-169.25"/>
</g>
<!-- Node18 -->
<g id="node18" class="node">
<title>Node18</title>
<g id="a_node18"><a xlink:href="inertialMTBPartDriver_8cpp.html" target="_top" xlink:title=" ">
<polygon fill="none" stroke="black" points="1647,-112.5 1647,-131.5 1788,-131.5 1788,-112.5 1647,-112.5"/>
<text text-anchor="middle" x="1717.5" y="-119.5" font-family="FreeSans.ttf" font-size="10.00">inertialMTBPartDriver.cpp</text>
</a>
</g>
</g>
<!-- Node1&#45;&gt;Node18 -->
<g id="edge17" class="edge">
<title>Node1&#45;&gt;Node18</title>
<path fill="none" stroke="midnightblue" d="M1085.07,-173.55C1192.73,-166.81 1434.46,-150.92 1637.5,-132 1640.56,-131.71 1643.69,-131.41 1646.84,-131.1"/>
<polygon fill="midnightblue" stroke="midnightblue" points="1084.53,-170.07 1074.77,-174.19 1084.97,-177.06 1084.53,-170.07"/>
</g>
<!-- Node19 -->
<g id="node19" class="node">
<title>Node19</title>
<g id="a_node19"><a xlink:href="linkattacherserverimpl_8h.html" target="_top" xlink:title=" ">
<polygon fill="none" stroke="black" points="1806.5,-112.5 1806.5,-131.5 1942.5,-131.5 1942.5,-112.5 1806.5,-112.5"/>
<text text-anchor="middle" x="1874.5" y="-119.5" font-family="FreeSans.ttf" font-size="10.00">linkattacherserverimpl.h</text>
</a>
</g>
</g>
<!-- Node1&#45;&gt;Node19 -->
<g id="edge18" class="edge">
<title>Node1&#45;&gt;Node19</title>
<path fill="none" stroke="midnightblue" d="M1085.16,-174.77C1212.48,-169.53 1530.86,-155.09 1796.5,-132 1799.76,-131.72 1803.09,-131.41 1806.46,-131.08"/>
<polygon fill="midnightblue" stroke="midnightblue" points="1084.73,-171.29 1074.88,-175.19 1085.02,-178.28 1084.73,-171.29"/>
</g>
<!-- Node23 -->
<g id="node23" class="node">
<title>Node23</title>
<g id="a_node23"><a xlink:href="worldinterface_8cpp.html" target="_top" xlink:title=" ">
<polygon fill="none" stroke="black" points="1961,-112.5 1961,-131.5 2068,-131.5 2068,-112.5 1961,-112.5"/>
<text text-anchor="middle" x="2014.5" y="-119.5" font-family="FreeSans.ttf" font-size="10.00">worldinterface.cpp</text>
</a>
</g>
</g>
<!-- Node1&#45;&gt;Node23 -->
<g id="edge22" class="edge">
<title>Node1&#45;&gt;Node23</title>
<path fill="none" stroke="midnightblue" d="M1085.09,-176.08C1229.67,-173.31 1624.31,-163.28 1951.5,-132 1954.58,-131.71 1957.74,-131.37 1960.92,-131"/>
<polygon fill="midnightblue" stroke="midnightblue" points="1084.64,-172.58 1074.71,-176.27 1084.77,-179.58 1084.64,-172.58"/>
</g>
<!-- Node24 -->
<g id="node24" class="node">
<title>Node24</title>
<g id="a_node24"><a xlink:href="worldproxy_8cpp.html" target="_top" xlink:title=" ">
<polygon fill="none" stroke="black" points="2086.5,-112.5 2086.5,-131.5 2176.5,-131.5 2176.5,-112.5 2086.5,-112.5"/>
<text text-anchor="middle" x="2131.5" y="-119.5" font-family="FreeSans.ttf" font-size="10.00">worldproxy.cpp</text>
</a>
</g>
</g>
<!-- Node1&#45;&gt;Node24 -->
<g id="edge23" class="edge">
<title>Node1&#45;&gt;Node24</title>
<path fill="none" stroke="midnightblue" d="M1085.04,-177C1242.63,-176.48 1700,-171.41 2077.5,-132 2080.43,-131.69 2083.44,-131.33 2086.47,-130.93"/>
<polygon fill="midnightblue" stroke="midnightblue" points="1084.65,-173.5 1074.66,-177.03 1084.67,-180.5 1084.65,-173.5"/>
</g>
<!-- Node3 -->
<g id="node3" class="node">
<title>Node3</title>
<g id="a_node3"><a xlink:href="BaseState_8cc.html" target="_top" xlink:title=" ">
<polygon fill="none" stroke="black" points="0.5,-56.5 0.5,-75.5 80.5,-75.5 80.5,-56.5 0.5,-56.5"/>
<text text-anchor="middle" x="40.5" y="-63.5" font-family="FreeSans.ttf" font-size="10.00">BaseState.cc</text>
</a>
</g>
</g>
<!-- Node2&#45;&gt;Node3 -->
<g id="edge2" class="edge">
<title>Node2&#45;&gt;Node3</title>
<path fill="none" stroke="midnightblue" d="M40.5,-101.8C40.5,-92.91 40.5,-82.78 40.5,-75.75"/>
<polygon fill="midnightblue" stroke="midnightblue" points="37,-102.08 40.5,-112.08 44,-102.08 37,-102.08"/>
</g>
<!-- Node20 -->
<g id="node20" class="node">
<title>Node20</title>
<g id="a_node20"><a xlink:href="linkattacher_8hh.html" target="_top" xlink:title=" ">
<polygon fill="none" stroke="black" points="1762,-56.5 1762,-75.5 1851,-75.5 1851,-56.5 1762,-56.5"/>
<text text-anchor="middle" x="1806.5" y="-63.5" font-family="FreeSans.ttf" font-size="10.00">linkattacher.hh</text>
</a>
</g>
</g>
<!-- Node19&#45;&gt;Node20 -->
<g id="edge19" class="edge">
<title>Node19&#45;&gt;Node20</title>
<path fill="none" stroke="midnightblue" d="M1855.74,-106.1C1843.5,-96.38 1827.94,-84.03 1817.62,-75.83"/>
<polygon fill="midnightblue" stroke="midnightblue" points="1853.57,-108.85 1863.57,-112.32 1857.92,-103.36 1853.57,-108.85"/>
</g>
<!-- Node22 -->
<g id="node22" class="node">
<title>Node22</title>
<g id="a_node22"><a xlink:href="linkattacherserverimpl_8cpp.html" target="_top" xlink:title=" ">
<polygon fill="none" stroke="black" points="1869,-56.5 1869,-75.5 2016,-75.5 2016,-56.5 1869,-56.5"/>
<text text-anchor="middle" x="1942.5" y="-63.5" font-family="FreeSans.ttf" font-size="10.00">linkattacherserverimpl.cpp</text>
</a>
</g>
</g>
<!-- Node19&#45;&gt;Node22 -->
<g id="edge21" class="edge">
<title>Node19&#45;&gt;Node22</title>
<path fill="none" stroke="midnightblue" d="M1893.26,-106.1C1905.5,-96.38 1921.06,-84.03 1931.38,-75.83"/>
<polygon fill="midnightblue" stroke="midnightblue" points="1891.08,-103.36 1885.43,-112.32 1895.43,-108.85 1891.08,-103.36"/>
</g>
<!-- Node21 -->
<g id="node21" class="node">
<title>Node21</title>
<g id="a_node21"><a xlink:href="linkattacher_8cc.html" target="_top" xlink:title=" ">
<polygon fill="none" stroke="black" points="1763,-0.5 1763,-19.5 1850,-19.5 1850,-0.5 1763,-0.5"/>
<text text-anchor="middle" x="1806.5" y="-7.5" font-family="FreeSans.ttf" font-size="10.00">linkattacher.cc</text>
</a>
</g>
</g>
<!-- Node20&#45;&gt;Node21 -->
<g id="edge20" class="edge">
<title>Node20&#45;&gt;Node21</title>
<path fill="none" stroke="midnightblue" d="M1806.5,-45.8C1806.5,-36.91 1806.5,-26.78 1806.5,-19.75"/>
<polygon fill="midnightblue" stroke="midnightblue" points="1803,-46.08 1806.5,-56.08 1810,-46.08 1803,-46.08"/>
</g>
</g>
</svg>
