<?xml version="1.0" encoding="UTF-8" standalone="no"?>
<!DOCTYPE svg PUBLIC "-//W3C//DTD SVG 1.1//EN"
 "http://www.w3.org/Graphics/SVG/1.1/DTD/svg11.dtd">
<!-- Generated by graphviz version 2.43.0 (0)
 -->
<!-- Title: ConfHelpers.cc Pages: 1 -->
<svg width="1429pt" height="140pt"
 viewBox="0.00 0.00 1429.00 140.00" xmlns="http://www.w3.org/2000/svg" xmlns:xlink="http://www.w3.org/1999/xlink">
<g id="graph0" class="graph" transform="scale(1 1) rotate(0) translate(4 136)">
<title>ConfHelpers.cc</title>
<!-- Node1 -->
<g id="node1" class="node">
<title>Node1</title>
<g id="a_node1"><a xlink:title=" ">
<polygon fill="#bfbfbf" stroke="black" points="880.5,-112.5 880.5,-131.5 970.5,-131.5 970.5,-112.5 880.5,-112.5"/>
<text text-anchor="middle" x="925.5" y="-119.5" font-family="FreeSans.ttf" font-size="10.00">ConfHelpers.cc</text>
</a>
</g>
</g>
<!-- Node2 -->
<g id="node2" class="node">
<title>Node2</title>
<g id="a_node2"><a xlink:href="ConfHelpers_8hh.html" target="_top" xlink:title=" ">
<polygon fill="none" stroke="black" points="205.5,-56.5 205.5,-75.5 297.5,-75.5 297.5,-56.5 205.5,-56.5"/>
<text text-anchor="middle" x="251.5" y="-63.5" font-family="FreeSans.ttf" font-size="10.00">ConfHelpers.hh</text>
</a>
</g>
</g>
<!-- Node1&#45;&gt;Node2 -->
<g id="edge1" class="edge">
<title>Node1&#45;&gt;Node2</title>
<path fill="none" stroke="midnightblue" d="M880.32,-119.11C779.49,-114.58 528.27,-101.64 307.81,-76.05"/>
<polygon fill="midnightblue" stroke="midnightblue" points="308.01,-72.55 297.67,-74.86 307.2,-79.5 308.01,-72.55"/>
</g>
<!-- Node7 -->
<g id="node7" class="node">
<title>Node7</title>
<g id="a_node7"><a xlink:title=" ">
<polygon fill="none" stroke="#bfbfbf" points="315.5,-56.5 315.5,-75.5 437.5,-75.5 437.5,-56.5 315.5,-56.5"/>
<text text-anchor="middle" x="376.5" y="-63.5" font-family="FreeSans.ttf" font-size="10.00">yarp/dev/PolyDriver.h</text>
</a>
</g>
</g>
<!-- Node1&#45;&gt;Node7 -->
<g id="edge6" class="edge">
<title>Node1&#45;&gt;Node7</title>
<path fill="none" stroke="midnightblue" d="M880.31,-117.23C797.16,-110.2 614.07,-94.22 448.08,-76.03"/>
<polygon fill="midnightblue" stroke="midnightblue" points="448,-72.5 437.68,-74.88 447.23,-79.46 448,-72.5"/>
</g>
<!-- Node8 -->
<g id="node8" class="node">
<title>Node8</title>
<g id="a_node8"><a xlink:title=" ">
<polygon fill="none" stroke="#bfbfbf" points="456,-56.5 456,-75.5 593,-75.5 593,-56.5 456,-56.5"/>
<text text-anchor="middle" x="524.5" y="-63.5" font-family="FreeSans.ttf" font-size="10.00">gazebo/physics/Entity.hh</text>
</a>
</g>
</g>
<!-- Node1&#45;&gt;Node8 -->
<g id="edge7" class="edge">
<title>Node1&#45;&gt;Node8</title>
<path fill="none" stroke="midnightblue" d="M880.28,-114.91C811.56,-105.66 680.13,-87.96 597.69,-76.86"/>
<polygon fill="midnightblue" stroke="midnightblue" points="598.01,-73.37 587.63,-75.5 597.08,-80.31 598.01,-73.37"/>
</g>
<!-- Node9 -->
<g id="node9" class="node">
<title>Node9</title>
<g id="a_node9"><a xlink:title=" ">
<polygon fill="none" stroke="#bfbfbf" points="611.5,-56.5 611.5,-75.5 759.5,-75.5 759.5,-56.5 611.5,-56.5"/>
<text text-anchor="middle" x="685.5" y="-63.5" font-family="FreeSans.ttf" font-size="10.00">gazebo/sensors/sensors.hh</text>
</a>
</g>
</g>
<!-- Node1&#45;&gt;Node9 -->
<g id="edge8" class="edge">
<title>Node1&#45;&gt;Node9</title>
<path fill="none" stroke="midnightblue" d="M887.47,-112.44C845.69,-103.04 778.52,-87.93 733.23,-77.74"/>
<polygon fill="midnightblue" stroke="midnightblue" points="733.88,-74.3 723.35,-75.52 732.34,-81.13 733.88,-74.3"/>
</g>
<!-- Node10 -->
<g id="node10" class="node">
<title>Node10</title>
<g id="a_node10"><a xlink:title=" ">
<polygon fill="none" stroke="#bfbfbf" points="777.5,-56.5 777.5,-75.5 935.5,-75.5 935.5,-56.5 777.5,-56.5"/>
<text text-anchor="middle" x="856.5" y="-63.5" font-family="FreeSans.ttf" font-size="10.00">gazebo/common/common.hh</text>
</a>
</g>
</g>
<!-- Node1&#45;&gt;Node10 -->
<g id="edge9" class="edge">
<title>Node1&#45;&gt;Node10</title>
<path fill="none" stroke="midnightblue" d="M914.41,-112.32C904.01,-104.18 888.24,-91.84 875.78,-82.09"/>
<polygon fill="midnightblue" stroke="midnightblue" points="877.82,-79.24 867.79,-75.83 873.51,-84.75 877.82,-79.24"/>
</g>
<!-- Node11 -->
<g id="node11" class="node">
<title>Node11</title>
<g id="a_node11"><a xlink:title=" ">
<polygon fill="none" stroke="#bfbfbf" points="953.5,-56.5 953.5,-75.5 1035.5,-75.5 1035.5,-56.5 953.5,-56.5"/>
<text text-anchor="middle" x="994.5" y="-63.5" font-family="FreeSans.ttf" font-size="10.00">yarp/os/Log.h</text>
</a>
</g>
</g>
<!-- Node1&#45;&gt;Node11 -->
<g id="edge10" class="edge">
<title>Node1&#45;&gt;Node11</title>
<path fill="none" stroke="midnightblue" d="M936.59,-112.32C946.99,-104.18 962.76,-91.84 975.22,-82.09"/>
<polygon fill="midnightblue" stroke="midnightblue" points="977.49,-84.75 983.21,-75.83 973.18,-79.24 977.49,-84.75"/>
</g>
<!-- Node12 -->
<g id="node12" class="node">
<title>Node12</title>
<g id="a_node12"><a xlink:title=" ">
<polygon fill="none" stroke="#bfbfbf" points="1054,-56.5 1054,-75.5 1171,-75.5 1171,-56.5 1054,-56.5"/>
<text text-anchor="middle" x="1112.5" y="-63.5" font-family="FreeSans.ttf" font-size="10.00">yarp/os/LogStream.h</text>
</a>
</g>
</g>
<!-- Node1&#45;&gt;Node12 -->
<g id="edge11" class="edge">
<title>Node1&#45;&gt;Node12</title>
<path fill="none" stroke="midnightblue" d="M955.13,-112.44C987,-103.24 1037.83,-88.56 1073.06,-78.39"/>
<polygon fill="midnightblue" stroke="midnightblue" points="1074.37,-81.65 1083.01,-75.52 1072.43,-74.93 1074.37,-81.65"/>
</g>
<!-- Node13 -->
<g id="node13" class="node">
<title>Node13</title>
<g id="a_node13"><a xlink:title=" ">
<polygon fill="none" stroke="#bfbfbf" points="1189.5,-56.5 1189.5,-75.5 1293.5,-75.5 1293.5,-56.5 1189.5,-56.5"/>
<text text-anchor="middle" x="1241.5" y="-63.5" font-family="FreeSans.ttf" font-size="10.00">yarp/os/Property.h</text>
</a>
</g>
</g>
<!-- Node1&#45;&gt;Node13 -->
<g id="edge12" class="edge">
<title>Node1&#45;&gt;Node13</title>
<path fill="none" stroke="midnightblue" d="M970.78,-113.26C1026.22,-103.79 1120.32,-87.71 1181.69,-77.22"/>
<polygon fill="midnightblue" stroke="midnightblue" points="1182.35,-80.66 1191.62,-75.52 1181.17,-73.76 1182.35,-80.66"/>
</g>
<!-- Node14 -->
<g id="node14" class="node">
<title>Node14</title>
<g id="a_node14"><a xlink:title=" ">
<polygon fill="none" stroke="#bfbfbf" points="1311.5,-56.5 1311.5,-75.5 1355.5,-75.5 1355.5,-56.5 1311.5,-56.5"/>
<text text-anchor="middle" x="1333.5" y="-63.5" font-family="FreeSans.ttf" font-size="10.00">string</text>
</a>
</g>
</g>
<!-- Node1&#45;&gt;Node14 -->
<g id="edge13" class="edge">
<title>Node1&#45;&gt;Node14</title>
<path fill="none" stroke="midnightblue" d="M970.56,-118.02C1039.79,-112.92 1176.52,-100.77 1301.16,-75.97"/>
<polygon fill="midnightblue" stroke="midnightblue" points="1302.15,-79.34 1311.26,-73.93 1300.76,-72.48 1302.15,-79.34"/>
</g>
<!-- Node15 -->
<g id="node15" class="node">
<title>Node15</title>
<g id="a_node15"><a xlink:title=" ">
<polygon fill="none" stroke="#bfbfbf" points="1374,-56.5 1374,-75.5 1421,-75.5 1421,-56.5 1374,-56.5"/>
<text text-anchor="middle" x="1397.5" y="-63.5" font-family="FreeSans.ttf" font-size="10.00">vector</text>
</a>
</g>
</g>
<!-- Node1&#45;&gt;Node15 -->
<g id="edge14" class="edge">
<title>Node1&#45;&gt;Node15</title>
<path fill="none" stroke="midnightblue" d="M970.72,-118.82C1048.91,-114.51 1214.49,-103.05 1363.57,-75.86"/>
<polygon fill="midnightblue" stroke="midnightblue" points="1364.62,-79.22 1373.81,-73.96 1363.34,-72.34 1364.62,-79.22"/>
</g>
<!-- Node3 -->
<g id="node3" class="node">
<title>Node3</title>
<g id="a_node3"><a xlink:title=" ">
<polygon fill="none" stroke="#bfbfbf" points="0,-0.5 0,-19.5 93,-19.5 93,-0.5 0,-0.5"/>
<text text-anchor="middle" x="46.5" y="-7.5" font-family="FreeSans.ttf" font-size="10.00">sdf/sdf_config.h</text>
</a>
</g>
</g>
<!-- Node2&#45;&gt;Node3 -->
<g id="edge2" class="edge">
<title>Node2&#45;&gt;Node3</title>
<path fill="none" stroke="midnightblue" d="M219.02,-56.44C183.78,-47.16 127.4,-32.31 88.74,-22.13"/>
<polygon fill="midnightblue" stroke="midnightblue" points="89.39,-18.68 78.83,-19.52 87.61,-25.45 89.39,-18.68"/>
</g>
<!-- Node4 -->
<g id="node4" class="node">
<title>Node4</title>
<g id="a_node4"><a xlink:title=" ">
<polygon fill="none" stroke="#bfbfbf" points="111,-0.5 111,-19.5 230,-19.5 230,-0.5 111,-0.5"/>
<text text-anchor="middle" x="170.5" y="-7.5" font-family="FreeSans.ttf" font-size="10.00">boost/shared_ptr.hpp</text>
</a>
</g>
</g>
<!-- Node2&#45;&gt;Node4 -->
<g id="edge3" class="edge">
<title>Node2&#45;&gt;Node4</title>
<path fill="none" stroke="midnightblue" d="M238.49,-56.32C225.97,-47.98 206.82,-35.21 192.03,-25.35"/>
<polygon fill="midnightblue" stroke="midnightblue" points="193.74,-22.29 183.48,-19.65 189.86,-28.11 193.74,-22.29"/>
</g>
<!-- Node5 -->
<g id="node5" class="node">
<title>Node5</title>
<g id="a_node5"><a xlink:title=" ">
<polygon fill="none" stroke="#bfbfbf" points="248,-0.5 248,-19.5 419,-19.5 419,-0.5 248,-0.5"/>
<text text-anchor="middle" x="333.5" y="-7.5" font-family="FreeSans.ttf" font-size="10.00">gazebo/sensors/SensorTypes.hh</text>
</a>
</g>
</g>
<!-- Node2&#45;&gt;Node5 -->
<g id="edge4" class="edge">
<title>Node2&#45;&gt;Node5</title>
<path fill="none" stroke="midnightblue" d="M264.67,-56.32C277.35,-47.98 296.73,-35.21 311.71,-25.35"/>
<polygon fill="midnightblue" stroke="midnightblue" points="313.93,-28.08 320.36,-19.65 310.08,-22.23 313.93,-28.08"/>
</g>
<!-- Node6 -->
<g id="node6" class="node">
<title>Node6</title>
<g id="a_node6"><a xlink:title=" ">
<polygon fill="none" stroke="#bfbfbf" points="437.5,-0.5 437.5,-19.5 611.5,-19.5 611.5,-0.5 437.5,-0.5"/>
<text text-anchor="middle" x="524.5" y="-7.5" font-family="FreeSans.ttf" font-size="10.00">gazebo/physics/PhysicsTypes.hh</text>
</a>
</g>
</g>
<!-- Node2&#45;&gt;Node6 -->
<g id="edge5" class="edge">
<title>Node2&#45;&gt;Node6</title>
<path fill="none" stroke="midnightblue" d="M294.76,-56.44C342.68,-46.96 419.98,-31.67 471.5,-21.48"/>
<polygon fill="midnightblue" stroke="midnightblue" points="472.31,-24.89 481.44,-19.52 470.96,-18.02 472.31,-24.89"/>
</g>
</g>
</svg>
