<?xml version="1.0" encoding="UTF-8" standalone="no"?>
<!DOCTYPE svg PUBLIC "-//W3C//DTD SVG 1.1//EN"
 "http://www.w3.org/Graphics/SVG/1.1/DTD/svg11.dtd">
<!-- Generated by graphviz version 2.49.0 (20210829.0051)
 -->
<!-- Title: ConfHelpers.hh Pages: 1 -->
<svg width="2058pt" height="196pt"
 viewBox="0.00 0.00 2058.00 196.00" xmlns="http://www.w3.org/2000/svg" xmlns:xlink="http://www.w3.org/1999/xlink">
<g id="graph0" class="graph" transform="scale(1 1) rotate(0) translate(4 192)">
<title>ConfHelpers.hh</title>
<!-- Node1 -->
<g id="node1" class="node">
<title>Node1</title>
<g id="a_node1"><a xlink:title=" ">
<polygon fill="#bfbfbf" stroke="black" points="938,-168.5 938,-187.5 1030,-187.5 1030,-168.5 938,-168.5"/>
<text text-anchor="middle" x="984" y="-175.5" font-family="FreeSans.ttf" font-size="10.00">ConfHelpers.hh</text>
</a>
</g>
</g>
<!-- Node2 -->
<g id="node2" class="node">
<title>Node2</title>
<g id="a_node2"><a xlink:href="ConfHelpers_8cc.html" target="_top" xlink:title=" ">
<polygon fill="none" stroke="black" points="0,-112.5 0,-131.5 90,-131.5 90,-112.5 0,-112.5"/>
<text text-anchor="middle" x="45" y="-119.5" font-family="FreeSans.ttf" font-size="10.00">ConfHelpers.cc</text>
</a>
</g>
</g>
<!-- Node1&#45;&gt;Node2 -->
<g id="edge1" class="edge">
<title>Node1&#45;&gt;Node2</title>
<path fill="none" stroke="midnightblue" d="M927.7,-176.37C787.36,-174.31 410.86,-165.8 99,-132 96.07,-131.68 93.06,-131.31 90.03,-130.9"/>
<polygon fill="midnightblue" stroke="midnightblue" points="927.74,-179.87 937.79,-176.51 927.84,-172.87 927.74,-179.87"/>
</g>
<!-- Node3 -->
<g id="node3" class="node">
<title>Node3</title>
<g id="a_node3"><a xlink:href="BaseState_8hh.html" target="_top" xlink:title=" ">
<polygon fill="none" stroke="black" points="108.5,-112.5 108.5,-131.5 189.5,-131.5 189.5,-112.5 108.5,-112.5"/>
<text text-anchor="middle" x="149" y="-119.5" font-family="FreeSans.ttf" font-size="10.00">BaseState.hh</text>
</a>
</g>
</g>
<!-- Node1&#45;&gt;Node3 -->
<g id="edge2" class="edge">
<title>Node1&#45;&gt;Node3</title>
<path fill="none" stroke="midnightblue" d="M927.77,-176.11C798.6,-173.54 470.9,-164.14 199,-132 195.93,-131.64 192.77,-131.21 189.6,-130.73"/>
<polygon fill="midnightblue" stroke="midnightblue" points="927.75,-179.61 937.82,-176.3 927.89,-172.61 927.75,-179.61"/>
</g>
<!-- Node5 -->
<g id="node5" class="node">
<title>Node5</title>
<g id="a_node5"><a xlink:href="Camera_8cc.html" target="_top" xlink:title=" ">
<polygon fill="none" stroke="black" points="208,-112.5 208,-131.5 276,-131.5 276,-112.5 208,-112.5"/>
<text text-anchor="middle" x="242" y="-119.5" font-family="FreeSans.ttf" font-size="10.00">Camera.cc</text>
</a>
</g>
</g>
<!-- Node1&#45;&gt;Node5 -->
<g id="edge4" class="edge">
<title>Node1&#45;&gt;Node5</title>
<path fill="none" stroke="midnightblue" d="M927.65,-176.08C808.5,-173.55 522.44,-164.32 285,-132 282.13,-131.61 279.16,-131.14 276.19,-130.61"/>
<polygon fill="midnightblue" stroke="midnightblue" points="927.91,-179.59 937.98,-176.29 928.05,-172.59 927.91,-179.59"/>
</g>
<!-- Node6 -->
<g id="node6" class="node">
<title>Node6</title>
<g id="a_node6"><a xlink:href="ContactLoadCellArray_8cc.html" target="_top" xlink:title=" ">
<polygon fill="none" stroke="black" points="294,-112.5 294,-131.5 428,-131.5 428,-112.5 294,-112.5"/>
<text text-anchor="middle" x="361" y="-119.5" font-family="FreeSans.ttf" font-size="10.00">ContactLoadCellArray.cc</text>
</a>
</g>
</g>
<!-- Node1&#45;&gt;Node6 -->
<g id="edge5" class="edge">
<title>Node1&#45;&gt;Node6</title>
<path fill="none" stroke="midnightblue" d="M927.74,-173.04C828.53,-165.91 616.02,-149.96 437,-132 434.09,-131.71 431.12,-131.4 428.12,-131.08"/>
<polygon fill="midnightblue" stroke="midnightblue" points="927.62,-176.54 937.85,-173.76 928.12,-169.56 927.62,-176.54"/>
</g>
<!-- Node7 -->
<g id="node7" class="node">
<title>Node7</title>
<g id="a_node7"><a xlink:href="ControlBoard_8cc.html" target="_top" xlink:title=" ">
<polygon fill="none" stroke="black" points="446,-112.5 446,-131.5 540,-131.5 540,-112.5 446,-112.5"/>
<text text-anchor="middle" x="493" y="-119.5" font-family="FreeSans.ttf" font-size="10.00">ControlBoard.cc</text>
</a>
</g>
</g>
<!-- Node1&#45;&gt;Node7 -->
<g id="edge6" class="edge">
<title>Node1&#45;&gt;Node7</title>
<path fill="none" stroke="midnightblue" d="M927.89,-172.21C844.92,-164.9 684.66,-149.9 549,-132 546.07,-131.61 543.06,-131.19 540.03,-130.75"/>
<polygon fill="midnightblue" stroke="midnightblue" points="927.6,-175.7 937.86,-173.09 928.21,-168.73 927.6,-175.7"/>
</g>
<!-- Node8 -->
<g id="node8" class="node">
<title>Node8</title>
<g id="a_node8"><a xlink:href="DepthCamera_8cc.html" target="_top" xlink:title=" ">
<polygon fill="none" stroke="black" points="558,-112.5 558,-131.5 656,-131.5 656,-112.5 558,-112.5"/>
<text text-anchor="middle" x="607" y="-119.5" font-family="FreeSans.ttf" font-size="10.00">DepthCamera.cc</text>
</a>
</g>
</g>
<!-- Node1&#45;&gt;Node8 -->
<g id="edge7" class="edge">
<title>Node1&#45;&gt;Node8</title>
<path fill="none" stroke="midnightblue" d="M927.5,-169.27C863.72,-160.49 756.85,-145.6 665,-132 662.08,-131.57 659.07,-131.12 656.04,-130.66"/>
<polygon fill="midnightblue" stroke="midnightblue" points="927.36,-172.78 937.75,-170.68 928.32,-165.85 927.36,-172.78"/>
</g>
<!-- Node9 -->
<g id="node9" class="node">
<title>Node9</title>
<g id="a_node9"><a xlink:href="FakeControlBoard_8cc.html" target="_top" xlink:title=" ">
<polygon fill="none" stroke="black" points="674,-112.5 674,-131.5 790,-131.5 790,-112.5 674,-112.5"/>
<text text-anchor="middle" x="732" y="-119.5" font-family="FreeSans.ttf" font-size="10.00">FakeControlBoard.cc</text>
</a>
</g>
</g>
<!-- Node1&#45;&gt;Node9 -->
<g id="edge8" class="edge">
<title>Node1&#45;&gt;Node9</title>
<path fill="none" stroke="midnightblue" d="M934.28,-166.35C886.66,-156.14 815.72,-140.94 771.74,-131.52"/>
<polygon fill="midnightblue" stroke="midnightblue" points="933.56,-169.77 944.07,-168.44 935.03,-162.93 933.56,-169.77"/>
</g>
<!-- Node10 -->
<g id="node10" class="node">
<title>Node10</title>
<g id="a_node10"><a xlink:href="ForceTorque_8cc.html" target="_top" xlink:title=" ">
<polygon fill="none" stroke="black" points="808.5,-112.5 808.5,-131.5 897.5,-131.5 897.5,-112.5 808.5,-112.5"/>
<text text-anchor="middle" x="853" y="-119.5" font-family="FreeSans.ttf" font-size="10.00">ForceTorque.cc</text>
</a>
</g>
</g>
<!-- Node1&#45;&gt;Node10 -->
<g id="edge9" class="edge">
<title>Node1&#45;&gt;Node10</title>
<path fill="none" stroke="midnightblue" d="M953.68,-164.5C929.12,-154.38 895.18,-140.39 873.66,-131.52"/>
<polygon fill="midnightblue" stroke="midnightblue" points="952.66,-167.87 963.24,-168.44 955.33,-161.4 952.66,-167.87"/>
</g>
<!-- Node11 -->
<g id="node11" class="node">
<title>Node11</title>
<g id="a_node11"><a xlink:href="IMU_8cc.html" target="_top" xlink:title=" ">
<polygon fill="none" stroke="black" points="916,-112.5 916,-131.5 966,-131.5 966,-112.5 916,-112.5"/>
<text text-anchor="middle" x="941" y="-119.5" font-family="FreeSans.ttf" font-size="10.00">IMU.cc</text>
</a>
</g>
</g>
<!-- Node1&#45;&gt;Node11 -->
<g id="edge10" class="edge">
<title>Node1&#45;&gt;Node11</title>
<path fill="none" stroke="midnightblue" d="M970.58,-160.14C963.09,-150.74 954.06,-139.4 947.97,-131.75"/>
<polygon fill="midnightblue" stroke="midnightblue" points="967.93,-162.44 976.9,-168.08 973.41,-158.08 967.93,-162.44"/>
</g>
<!-- Node12 -->
<g id="node12" class="node">
<title>Node12</title>
<g id="a_node12"><a xlink:href="inertialMTB_8cc.html" target="_top" xlink:title=" ">
<polygon fill="none" stroke="black" points="984,-112.5 984,-131.5 1070,-131.5 1070,-112.5 984,-112.5"/>
<text text-anchor="middle" x="1027" y="-119.5" font-family="FreeSans.ttf" font-size="10.00">inertialMTB.cc</text>
</a>
</g>
</g>
<!-- Node1&#45;&gt;Node12 -->
<g id="edge11" class="edge">
<title>Node1&#45;&gt;Node12</title>
<path fill="none" stroke="midnightblue" d="M997.42,-160.14C1004.91,-150.74 1013.94,-139.4 1020.03,-131.75"/>
<polygon fill="midnightblue" stroke="midnightblue" points="994.59,-158.08 991.1,-168.08 1000.07,-162.44 994.59,-158.08"/>
</g>
<!-- Node13 -->
<g id="node13" class="node">
<title>Node13</title>
<g id="a_node13"><a xlink:href="inertialMTBPart_8cc.html" target="_top" xlink:title=" ">
<polygon fill="none" stroke="black" points="1088.5,-112.5 1088.5,-131.5 1193.5,-131.5 1193.5,-112.5 1088.5,-112.5"/>
<text text-anchor="middle" x="1141" y="-119.5" font-family="FreeSans.ttf" font-size="10.00">inertialMTBPart.cc</text>
</a>
</g>
</g>
<!-- Node1&#45;&gt;Node13 -->
<g id="edge12" class="edge">
<title>Node1&#45;&gt;Node13</title>
<path fill="none" stroke="midnightblue" d="M1018.39,-165.17C1047.95,-155 1089.87,-140.59 1116.24,-131.52"/>
<polygon fill="midnightblue" stroke="midnightblue" points="1017.2,-161.88 1008.88,-168.44 1019.47,-168.5 1017.2,-161.88"/>
</g>
<!-- Node14 -->
<g id="node14" class="node">
<title>Node14</title>
<g id="a_node14"><a xlink:href="inertialMTBPartDriver_8cpp.html" target="_top" xlink:title=" ">
<polygon fill="none" stroke="black" points="1211.5,-112.5 1211.5,-131.5 1352.5,-131.5 1352.5,-112.5 1211.5,-112.5"/>
<text text-anchor="middle" x="1282" y="-119.5" font-family="FreeSans.ttf" font-size="10.00">inertialMTBPartDriver.cpp</text>
</a>
</g>
</g>
<!-- Node1&#45;&gt;Node14 -->
<g id="edge13" class="edge">
<title>Node1&#45;&gt;Node14</title>
<path fill="none" stroke="midnightblue" d="M1040.37,-166.78C1096.57,-156.6 1181.89,-141.14 1234.67,-131.58"/>
<polygon fill="midnightblue" stroke="midnightblue" points="1039.45,-163.39 1030.24,-168.62 1040.7,-170.28 1039.45,-163.39"/>
</g>
<!-- Node15 -->
<g id="node15" class="node">
<title>Node15</title>
<g id="a_node15"><a xlink:href="LaserSensor_8cc.html" target="_top" xlink:title=" ">
<polygon fill="none" stroke="black" points="1370.5,-112.5 1370.5,-131.5 1459.5,-131.5 1459.5,-112.5 1370.5,-112.5"/>
<text text-anchor="middle" x="1415" y="-119.5" font-family="FreeSans.ttf" font-size="10.00">LaserSensor.cc</text>
</a>
</g>
</g>
<!-- Node1&#45;&gt;Node15 -->
<g id="edge14" class="edge">
<title>Node1&#45;&gt;Node15</title>
<path fill="none" stroke="midnightblue" d="M1040.23,-171.11C1114,-163.2 1247.42,-148.23 1361,-132 1364.01,-131.57 1367.11,-131.11 1370.24,-130.62"/>
<polygon fill="midnightblue" stroke="midnightblue" points="1039.8,-167.64 1030.23,-172.18 1040.54,-174.6 1039.8,-167.64"/>
</g>
<!-- Node16 -->
<g id="node16" class="node">
<title>Node16</title>
<g id="a_node16"><a xlink:href="linkattacherserverimpl_8h.html" target="_top" xlink:title=" ">
<polygon fill="none" stroke="black" points="1478,-112.5 1478,-131.5 1614,-131.5 1614,-112.5 1478,-112.5"/>
<text text-anchor="middle" x="1546" y="-119.5" font-family="FreeSans.ttf" font-size="10.00">linkattacherserverimpl.h</text>
</a>
</g>
</g>
<!-- Node1&#45;&gt;Node16 -->
<g id="edge15" class="edge">
<title>Node1&#45;&gt;Node16</title>
<path fill="none" stroke="midnightblue" d="M1040.09,-172.19C1130.31,-164.37 1313.23,-148.12 1468,-132 1471.25,-131.66 1474.58,-131.31 1477.95,-130.94"/>
<polygon fill="midnightblue" stroke="midnightblue" points="1039.74,-168.71 1030.08,-173.06 1040.34,-175.68 1039.74,-168.71"/>
</g>
<!-- Node20 -->
<g id="node20" class="node">
<title>Node20</title>
<g id="a_node20"><a xlink:href="MaisSensor_8cc.html" target="_top" xlink:title=" ">
<polygon fill="none" stroke="black" points="1632,-112.5 1632,-131.5 1718,-131.5 1718,-112.5 1632,-112.5"/>
<text text-anchor="middle" x="1675" y="-119.5" font-family="FreeSans.ttf" font-size="10.00">MaisSensor.cc</text>
</a>
</g>
</g>
<!-- Node1&#45;&gt;Node20 -->
<g id="edge19" class="edge">
<title>Node1&#45;&gt;Node20</title>
<path fill="none" stroke="midnightblue" d="M1040.28,-174.95C1151.8,-170.46 1408.61,-158.03 1623,-132 1625.91,-131.65 1628.91,-131.24 1631.92,-130.8"/>
<polygon fill="midnightblue" stroke="midnightblue" points="1040.11,-171.45 1030.26,-175.35 1040.39,-178.45 1040.11,-171.45"/>
</g>
<!-- Node21 -->
<g id="node21" class="node">
<title>Node21</title>
<g id="a_node21"><a xlink:href="MultiCamera_8cc.html" target="_top" xlink:title=" ">
<polygon fill="none" stroke="black" points="1736.5,-112.5 1736.5,-131.5 1829.5,-131.5 1829.5,-112.5 1736.5,-112.5"/>
<text text-anchor="middle" x="1783" y="-119.5" font-family="FreeSans.ttf" font-size="10.00">MultiCamera.cc</text>
</a>
</g>
</g>
<!-- Node1&#45;&gt;Node21 -->
<g id="edge20" class="edge">
<title>Node1&#45;&gt;Node21</title>
<path fill="none" stroke="midnightblue" d="M1040.26,-175.49C1164.49,-171.74 1471.5,-160.2 1727,-132 1730.03,-131.67 1733.15,-131.28 1736.3,-130.86"/>
<polygon fill="midnightblue" stroke="midnightblue" points="1040.11,-171.99 1030.22,-175.79 1040.32,-178.99 1040.11,-171.99"/>
</g>
<!-- Node22 -->
<g id="node22" class="node">
<title>Node22</title>
<g id="a_node22"><a xlink:href="VideoTexture_8cc.html" target="_top" xlink:title=" ">
<polygon fill="none" stroke="black" points="1848,-112.5 1848,-131.5 1942,-131.5 1942,-112.5 1848,-112.5"/>
<text text-anchor="middle" x="1895" y="-119.5" font-family="FreeSans.ttf" font-size="10.00">VideoTexture.cc</text>
</a>
</g>
</g>
<!-- Node1&#45;&gt;Node22 -->
<g id="edge21" class="edge">
<title>Node1&#45;&gt;Node22</title>
<path fill="none" stroke="midnightblue" d="M1040.26,-176.11C1177.27,-173.51 1539,-163.91 1839,-132 1841.94,-131.69 1844.96,-131.32 1848,-130.93"/>
<polygon fill="midnightblue" stroke="midnightblue" points="1039.95,-172.62 1030.01,-176.3 1040.08,-179.62 1039.95,-172.62"/>
</g>
<!-- Node23 -->
<g id="node23" class="node">
<title>Node23</title>
<g id="a_node23"><a xlink:href="worldproxy_8cpp.html" target="_top" xlink:title=" ">
<polygon fill="none" stroke="black" points="1960,-112.5 1960,-131.5 2050,-131.5 2050,-112.5 1960,-112.5"/>
<text text-anchor="middle" x="2005" y="-119.5" font-family="FreeSans.ttf" font-size="10.00">worldproxy.cpp</text>
</a>
</g>
</g>
<!-- Node1&#45;&gt;Node23 -->
<g id="edge22" class="edge">
<title>Node1&#45;&gt;Node23</title>
<path fill="none" stroke="midnightblue" d="M1040.74,-176.71C1190.14,-175.43 1606.63,-168.58 1951,-132 1953.93,-131.69 1956.94,-131.32 1959.97,-130.91"/>
<polygon fill="midnightblue" stroke="midnightblue" points="1040.42,-173.21 1030.45,-176.79 1040.47,-180.21 1040.42,-173.21"/>
</g>
<!-- Node4 -->
<g id="node4" class="node">
<title>Node4</title>
<g id="a_node4"><a xlink:href="BaseState_8cc.html" target="_top" xlink:title=" ">
<polygon fill="none" stroke="black" points="109,-56.5 109,-75.5 189,-75.5 189,-56.5 109,-56.5"/>
<text text-anchor="middle" x="149" y="-63.5" font-family="FreeSans.ttf" font-size="10.00">BaseState.cc</text>
</a>
</g>
</g>
<!-- Node3&#45;&gt;Node4 -->
<g id="edge3" class="edge">
<title>Node3&#45;&gt;Node4</title>
<path fill="none" stroke="midnightblue" d="M149,-101.8C149,-92.91 149,-82.78 149,-75.75"/>
<polygon fill="midnightblue" stroke="midnightblue" points="145.5,-102.08 149,-112.08 152.5,-102.08 145.5,-102.08"/>
</g>
<!-- Node17 -->
<g id="node17" class="node">
<title>Node17</title>
<g id="a_node17"><a xlink:href="linkattacher_8hh.html" target="_top" xlink:title=" ">
<polygon fill="none" stroke="black" points="1433.5,-56.5 1433.5,-75.5 1522.5,-75.5 1522.5,-56.5 1433.5,-56.5"/>
<text text-anchor="middle" x="1478" y="-63.5" font-family="FreeSans.ttf" font-size="10.00">linkattacher.hh</text>
</a>
</g>
</g>
<!-- Node16&#45;&gt;Node17 -->
<g id="edge16" class="edge">
<title>Node16&#45;&gt;Node17</title>
<path fill="none" stroke="midnightblue" d="M1527.24,-106.1C1515,-96.38 1499.44,-84.03 1489.12,-75.83"/>
<polygon fill="midnightblue" stroke="midnightblue" points="1525.07,-108.85 1535.07,-112.32 1529.42,-103.36 1525.07,-108.85"/>
</g>
<!-- Node19 -->
<g id="node19" class="node">
<title>Node19</title>
<g id="a_node19"><a xlink:href="linkattacherserverimpl_8cpp.html" target="_top" xlink:title=" ">
<polygon fill="none" stroke="black" points="1540.5,-56.5 1540.5,-75.5 1687.5,-75.5 1687.5,-56.5 1540.5,-56.5"/>
<text text-anchor="middle" x="1614" y="-63.5" font-family="FreeSans.ttf" font-size="10.00">linkattacherserverimpl.cpp</text>
</a>
</g>
</g>
<!-- Node16&#45;&gt;Node19 -->
<g id="edge18" class="edge">
<title>Node16&#45;&gt;Node19</title>
<path fill="none" stroke="midnightblue" d="M1564.76,-106.1C1577,-96.38 1592.56,-84.03 1602.88,-75.83"/>
<polygon fill="midnightblue" stroke="midnightblue" points="1562.58,-103.36 1556.93,-112.32 1566.93,-108.85 1562.58,-103.36"/>
</g>
<!-- Node18 -->
<g id="node18" class="node">
<title>Node18</title>
<g id="a_node18"><a xlink:href="linkattacher_8cc.html" target="_top" xlink:title=" ">
<polygon fill="none" stroke="black" points="1434.5,-0.5 1434.5,-19.5 1521.5,-19.5 1521.5,-0.5 1434.5,-0.5"/>
<text text-anchor="middle" x="1478" y="-7.5" font-family="FreeSans.ttf" font-size="10.00">linkattacher.cc</text>
</a>
</g>
</g>
<!-- Node17&#45;&gt;Node18 -->
<g id="edge17" class="edge">
<title>Node17&#45;&gt;Node18</title>
<path fill="none" stroke="midnightblue" d="M1478,-45.8C1478,-36.91 1478,-26.78 1478,-19.75"/>
<polygon fill="midnightblue" stroke="midnightblue" points="1474.5,-46.08 1478,-56.08 1481.5,-46.08 1474.5,-46.08"/>
</g>
</g>
</svg>
