<?xml version="1.0" encoding="UTF-8" standalone="no"?>
<!DOCTYPE svg PUBLIC "-//W3C//DTD SVG 1.1//EN"
 "http://www.w3.org/Graphics/SVG/1.1/DTD/svg11.dtd">
<!-- Generated by graphviz version 2.43.0 (0)
 -->
<!-- Title: ConfHelpers.hh Pages: 1 -->
<svg width="620pt" height="84pt"
 viewBox="0.00 0.00 619.50 84.00" xmlns="http://www.w3.org/2000/svg" xmlns:xlink="http://www.w3.org/1999/xlink">
<g id="graph0" class="graph" transform="scale(1 1) rotate(0) translate(4 80)">
<title>ConfHelpers.hh</title>
<!-- Node1 -->
<g id="node1" class="node">
<title>Node1</title>
<g id="a_node1"><a xlink:title=" ">
<polygon fill="#bfbfbf" stroke="black" points="205.5,-56.5 205.5,-75.5 297.5,-75.5 297.5,-56.5 205.5,-56.5"/>
<text text-anchor="middle" x="251.5" y="-63.5" font-family="FreeSans.ttf" font-size="10.00">ConfHelpers.hh</text>
</a>
</g>
</g>
<!-- Node2 -->
<g id="node2" class="node">
<title>Node2</title>
<g id="a_node2"><a xlink:title=" ">
<polygon fill="none" stroke="#bfbfbf" points="0,-0.5 0,-19.5 93,-19.5 93,-0.5 0,-0.5"/>
<text text-anchor="middle" x="46.5" y="-7.5" font-family="FreeSans.ttf" font-size="10.00">sdf/sdf_config.h</text>
</a>
</g>
</g>
<!-- Node1&#45;&gt;Node2 -->
<g id="edge1" class="edge">
<title>Node1&#45;&gt;Node2</title>
<path fill="none" stroke="midnightblue" d="M219.02,-56.44C183.78,-47.16 127.4,-32.31 88.74,-22.13"/>
<polygon fill="midnightblue" stroke="midnightblue" points="89.39,-18.68 78.83,-19.52 87.61,-25.45 89.39,-18.68"/>
</g>
<!-- Node3 -->
<g id="node3" class="node">
<title>Node3</title>
<g id="a_node3"><a xlink:title=" ">
<polygon fill="none" stroke="#bfbfbf" points="111,-0.5 111,-19.5 230,-19.5 230,-0.5 111,-0.5"/>
<text text-anchor="middle" x="170.5" y="-7.5" font-family="FreeSans.ttf" font-size="10.00">boost/shared_ptr.hpp</text>
</a>
</g>
</g>
<!-- Node1&#45;&gt;Node3 -->
<g id="edge2" class="edge">
<title>Node1&#45;&gt;Node3</title>
<path fill="none" stroke="midnightblue" d="M238.49,-56.32C225.97,-47.98 206.82,-35.21 192.03,-25.35"/>
<polygon fill="midnightblue" stroke="midnightblue" points="193.74,-22.29 183.48,-19.65 189.86,-28.11 193.74,-22.29"/>
</g>
<!-- Node4 -->
<g id="node4" class="node">
<title>Node4</title>
<g id="a_node4"><a xlink:title=" ">
<polygon fill="none" stroke="#bfbfbf" points="248,-0.5 248,-19.5 419,-19.5 419,-0.5 248,-0.5"/>
<text text-anchor="middle" x="333.5" y="-7.5" font-family="FreeSans.ttf" font-size="10.00">gazebo/sensors/SensorTypes.hh</text>
</a>
</g>
</g>
<!-- Node1&#45;&gt;Node4 -->
<g id="edge3" class="edge">
<title>Node1&#45;&gt;Node4</title>
<path fill="none" stroke="midnightblue" d="M264.67,-56.32C277.35,-47.98 296.73,-35.21 311.71,-25.35"/>
<polygon fill="midnightblue" stroke="midnightblue" points="313.93,-28.08 320.36,-19.65 310.08,-22.23 313.93,-28.08"/>
</g>
<!-- Node5 -->
<g id="node5" class="node">
<title>Node5</title>
<g id="a_node5"><a xlink:title=" ">
<polygon fill="none" stroke="#bfbfbf" points="437.5,-0.5 437.5,-19.5 611.5,-19.5 611.5,-0.5 437.5,-0.5"/>
<text text-anchor="middle" x="524.5" y="-7.5" font-family="FreeSans.ttf" font-size="10.00">gazebo/physics/PhysicsTypes.hh</text>
</a>
</g>
</g>
<!-- Node1&#45;&gt;Node5 -->
<g id="edge4" class="edge">
<title>Node1&#45;&gt;Node5</title>
<path fill="none" stroke="midnightblue" d="M294.76,-56.44C342.68,-46.96 419.98,-31.67 471.5,-21.48"/>
<polygon fill="midnightblue" stroke="midnightblue" points="472.31,-24.89 481.44,-19.52 470.96,-18.02 472.31,-24.89"/>
</g>
</g>
</svg>
