<?xml version="1.0" encoding="UTF-8" standalone="no"?>
<!DOCTYPE svg PUBLIC "-//W3C//DTD SVG 1.1//EN"
 "http://www.w3.org/Graphics/SVG/1.1/DTD/svg11.dtd">
<!-- Generated by graphviz version 2.43.0 (0)
 -->
<!-- Title: ConfigurationOverride.cc Pages: 1 -->
<svg width="631pt" height="196pt"
 viewBox="0.00 0.00 630.50 196.00" xmlns="http://www.w3.org/2000/svg" xmlns:xlink="http://www.w3.org/1999/xlink">
<g id="graph0" class="graph" transform="scale(1 1) rotate(0) translate(4 192)">
<title>ConfigurationOverride.cc</title>
<!-- Node1 -->
<g id="node1" class="node">
<title>Node1</title>
<g id="a_node1"><a xlink:title=" ">
<polygon fill="#bfbfbf" stroke="black" points="312.5,-168.5 312.5,-187.5 449.5,-187.5 449.5,-168.5 312.5,-168.5"/>
<text text-anchor="middle" x="381" y="-175.5" font-family="FreeSans.ttf" font-size="10.00">ConfigurationOverride.cc</text>
</a>
</g>
</g>
<!-- Node2 -->
<g id="node2" class="node">
<title>Node2</title>
<g id="a_node2"><a xlink:href="ConfigurationOverride_8hh.html" target="_top" xlink:title=" ">
<polygon fill="none" stroke="black" points="89.5,-112.5 89.5,-131.5 228.5,-131.5 228.5,-112.5 89.5,-112.5"/>
<text text-anchor="middle" x="159" y="-119.5" font-family="FreeSans.ttf" font-size="10.00">ConfigurationOverride.hh</text>
</a>
</g>
</g>
<!-- Node1&#45;&gt;Node2 -->
<g id="edge1" class="edge">
<title>Node1&#45;&gt;Node2</title>
<path fill="none" stroke="midnightblue" d="M345.82,-168.44C307.42,-159.1 245.82,-144.12 203.94,-133.93"/>
<polygon fill="midnightblue" stroke="midnightblue" points="204.56,-130.48 194.01,-131.52 202.9,-137.28 204.56,-130.48"/>
</g>
<!-- Node7 -->
<g id="node7" class="node">
<title>Node7</title>
<g id="a_node7"><a xlink:title=" ">
<polygon fill="none" stroke="#bfbfbf" points="247,-112.5 247,-131.5 387,-131.5 387,-112.5 247,-112.5"/>
<text text-anchor="middle" x="317" y="-119.5" font-family="FreeSans.ttf" font-size="10.00">gazebo/physics/Model.hh</text>
</a>
</g>
</g>
<!-- Node1&#45;&gt;Node7 -->
<g id="edge6" class="edge">
<title>Node1&#45;&gt;Node7</title>
<path fill="none" stroke="midnightblue" d="M370.72,-168.32C361.16,-160.26 346.72,-148.08 335.22,-138.37"/>
<polygon fill="midnightblue" stroke="midnightblue" points="337.37,-135.61 327.47,-131.83 332.86,-140.96 337.37,-135.61"/>
</g>
<!-- Node8 -->
<g id="node8" class="node">
<title>Node8</title>
<g id="a_node8"><a xlink:title=" ">
<polygon fill="none" stroke="#bfbfbf" points="405,-112.5 405,-131.5 487,-131.5 487,-112.5 405,-112.5"/>
<text text-anchor="middle" x="446" y="-119.5" font-family="FreeSans.ttf" font-size="10.00">yarp/os/Log.h</text>
</a>
</g>
</g>
<!-- Node1&#45;&gt;Node8 -->
<g id="edge7" class="edge">
<title>Node1&#45;&gt;Node8</title>
<path fill="none" stroke="midnightblue" d="M391.44,-168.32C401.15,-160.26 415.82,-148.08 427.5,-138.37"/>
<polygon fill="midnightblue" stroke="midnightblue" points="429.91,-140.92 435.37,-131.83 425.44,-135.53 429.91,-140.92"/>
</g>
<!-- Node9 -->
<g id="node9" class="node">
<title>Node9</title>
<g id="a_node9"><a xlink:title=" ">
<polygon fill="none" stroke="#bfbfbf" points="505.5,-112.5 505.5,-131.5 622.5,-131.5 622.5,-112.5 505.5,-112.5"/>
<text text-anchor="middle" x="564" y="-119.5" font-family="FreeSans.ttf" font-size="10.00">yarp/os/LogStream.h</text>
</a>
</g>
</g>
<!-- Node1&#45;&gt;Node9 -->
<g id="edge8" class="edge">
<title>Node1&#45;&gt;Node9</title>
<path fill="none" stroke="midnightblue" d="M410,-168.44C441.18,-159.24 490.93,-144.56 525.41,-134.39"/>
<polygon fill="midnightblue" stroke="midnightblue" points="526.54,-137.7 535.14,-131.52 524.56,-130.99 526.54,-137.7"/>
</g>
<!-- Node3 -->
<g id="node3" class="node">
<title>Node3</title>
<g id="a_node3"><a xlink:title=" ">
<polygon fill="none" stroke="#bfbfbf" points="0,-56.5 0,-75.5 146,-75.5 146,-56.5 0,-56.5"/>
<text text-anchor="middle" x="73" y="-63.5" font-family="FreeSans.ttf" font-size="10.00">gazebo/common/Plugin.hh</text>
</a>
</g>
</g>
<!-- Node2&#45;&gt;Node3 -->
<g id="edge2" class="edge">
<title>Node2&#45;&gt;Node3</title>
<path fill="none" stroke="midnightblue" d="M145.18,-112.32C131.77,-103.9 111.18,-90.97 95.41,-81.07"/>
<polygon fill="midnightblue" stroke="midnightblue" points="97.11,-78.01 86.78,-75.65 93.39,-83.94 97.11,-78.01"/>
</g>
<!-- Node4 -->
<g id="node4" class="node">
<title>Node4</title>
<g id="a_node4"><a xlink:href="common_8h.html" target="_top" xlink:title=" ">
<polygon fill="none" stroke="black" points="164,-56.5 164,-75.5 328,-75.5 328,-56.5 164,-56.5"/>
<text text-anchor="middle" x="246" y="-63.5" font-family="FreeSans.ttf" font-size="10.00">GazeboYarpPlugins/common.h</text>
</a>
</g>
</g>
<!-- Node2&#45;&gt;Node4 -->
<g id="edge3" class="edge">
<title>Node2&#45;&gt;Node4</title>
<path fill="none" stroke="midnightblue" d="M172.98,-112.32C186.55,-103.9 207.38,-90.97 223.32,-81.07"/>
<polygon fill="midnightblue" stroke="midnightblue" points="225.41,-83.9 232.06,-75.65 221.71,-77.95 225.41,-83.9"/>
</g>
<!-- Node5 -->
<g id="node5" class="node">
<title>Node5</title>
<g id="a_node5"><a xlink:title=" ">
<polygon fill="none" stroke="#bfbfbf" points="192,-0.5 192,-19.5 236,-19.5 236,-0.5 192,-0.5"/>
<text text-anchor="middle" x="214" y="-7.5" font-family="FreeSans.ttf" font-size="10.00">string</text>
</a>
</g>
</g>
<!-- Node4&#45;&gt;Node5 -->
<g id="edge4" class="edge">
<title>Node4&#45;&gt;Node5</title>
<path fill="none" stroke="midnightblue" d="M240.72,-56.08C236.29,-48.61 229.84,-37.72 224.38,-28.52"/>
<polygon fill="midnightblue" stroke="midnightblue" points="227.29,-26.57 219.19,-19.75 221.27,-30.14 227.29,-26.57"/>
</g>
<!-- Node6 -->
<g id="node6" class="node">
<title>Node6</title>
<g id="a_node6"><a xlink:title=" ">
<polygon fill="none" stroke="#bfbfbf" points="254.5,-0.5 254.5,-19.5 301.5,-19.5 301.5,-0.5 254.5,-0.5"/>
<text text-anchor="middle" x="278" y="-7.5" font-family="FreeSans.ttf" font-size="10.00">cmath</text>
</a>
</g>
</g>
<!-- Node4&#45;&gt;Node6 -->
<g id="edge5" class="edge">
<title>Node4&#45;&gt;Node6</title>
<path fill="none" stroke="midnightblue" d="M251.28,-56.08C255.71,-48.61 262.16,-37.72 267.62,-28.52"/>
<polygon fill="midnightblue" stroke="midnightblue" points="270.73,-30.14 272.81,-19.75 264.71,-26.57 270.73,-30.14"/>
</g>
</g>
</svg>
