<?xml version="1.0" encoding="UTF-8" standalone="no"?>
<!DOCTYPE svg PUBLIC "-//W3C//DTD SVG 1.1//EN"
 "http://www.w3.org/Graphics/SVG/1.1/DTD/svg11.dtd">
<!-- Generated by graphviz version 2.43.0 (0)
 -->
<!-- Title: ContactLoadCellArrayDriver.h Pages: 1 -->
<svg width="332pt" height="84pt"
 viewBox="0.00 0.00 332.00 84.00" xmlns="http://www.w3.org/2000/svg" xmlns:xlink="http://www.w3.org/1999/xlink">
<g id="graph0" class="graph" transform="scale(1 1) rotate(0) translate(4 80)">
<title>ContactLoadCellArrayDriver.h</title>
<!-- Node1 -->
<g id="node1" class="node">
<title>Node1</title>
<g id="a_node1"><a xlink:title=" ">
<polygon fill="#bfbfbf" stroke="black" points="71.5,-56.5 71.5,-75.5 232.5,-75.5 232.5,-56.5 71.5,-56.5"/>
<text text-anchor="middle" x="152" y="-63.5" font-family="FreeSans.ttf" font-size="10.00">ContactLoadCellArrayDriver.h</text>
</a>
</g>
</g>
<!-- Node2 -->
<g id="node2" class="node">
<title>Node2</title>
<g id="a_node2"><a xlink:href="ContactLoadCellArray_8cc.html" target="_top" xlink:title=" ">
<polygon fill="none" stroke="black" points="0,-0.5 0,-19.5 134,-19.5 134,-0.5 0,-0.5"/>
<text text-anchor="middle" x="67" y="-7.5" font-family="FreeSans.ttf" font-size="10.00">ContactLoadCellArray.cc</text>
</a>
</g>
</g>
<!-- Node1&#45;&gt;Node2 -->
<g id="edge1" class="edge">
<title>Node1&#45;&gt;Node2</title>
<path fill="none" stroke="midnightblue" d="M129.81,-50.9C114.22,-41 93.87,-28.07 80.62,-19.65"/>
<polygon fill="midnightblue" stroke="midnightblue" points="128.03,-53.92 138.34,-56.32 131.78,-48.01 128.03,-53.92"/>
</g>
<!-- Node3 -->
<g id="node3" class="node">
<title>Node3</title>
<g id="a_node3"><a xlink:href="ContactLoadCellArrayDriver_8cpp.html" target="_top" xlink:title=" ">
<polygon fill="none" stroke="black" points="152,-0.5 152,-19.5 324,-19.5 324,-0.5 152,-0.5"/>
<text text-anchor="middle" x="238" y="-7.5" font-family="FreeSans.ttf" font-size="10.00">ContactLoadCellArrayDriver.cpp</text>
</a>
</g>
</g>
<!-- Node1&#45;&gt;Node3 -->
<g id="edge2" class="edge">
<title>Node1&#45;&gt;Node3</title>
<path fill="none" stroke="midnightblue" d="M174.45,-50.9C190.22,-41 210.81,-28.07 224.22,-19.65"/>
<polygon fill="midnightblue" stroke="midnightblue" points="172.43,-48.04 165.82,-56.32 176.15,-53.97 172.43,-48.04"/>
</g>
</g>
</svg>
