<?xml version="1.0" encoding="UTF-8" standalone="no"?>
<!DOCTYPE svg PUBLIC "-//W3C//DTD SVG 1.1//EN"
 "http://www.w3.org/Graphics/SVG/1.1/DTD/svg11.dtd">
<!-- Generated by graphviz version 2.43.0 (0)
 -->
<!-- Title: ControlBoardDriverPWM.cpp Pages: 1 -->
<svg width="3475pt" height="207pt"
 viewBox="0.00 0.00 3474.50 207.00" xmlns="http://www.w3.org/2000/svg" xmlns:xlink="http://www.w3.org/1999/xlink">
<g id="graph0" class="graph" transform="scale(1 1) rotate(0) translate(4 203)">
<title>ControlBoardDriverPWM.cpp</title>
<!-- Node1 -->
<g id="node1" class="node">
<title>Node1</title>
<g id="a_node1"><a xlink:title=" ">
<polygon fill="#bfbfbf" stroke="black" points="1890.5,-179.5 1890.5,-198.5 2045.5,-198.5 2045.5,-179.5 1890.5,-179.5"/>
<text text-anchor="middle" x="1968" y="-186.5" font-family="FreeSans.ttf" font-size="10.00">ControlBoardDriverPWM.cpp</text>
</a>
</g>
</g>
<!-- Node2 -->
<g id="node2" class="node">
<title>Node2</title>
<g id="a_node2"><a xlink:title=" ">
<polygon fill="none" stroke="#bfbfbf" points="1884,-123.5 1884,-142.5 1944,-142.5 1944,-123.5 1884,-123.5"/>
<text text-anchor="middle" x="1914" y="-130.5" font-family="FreeSans.ttf" font-size="10.00">iostream</text>
</a>
</g>
</g>
<!-- Node1&#45;&gt;Node2 -->
<g id="edge1" class="edge">
<title>Node1&#45;&gt;Node2</title>
<path fill="none" stroke="midnightblue" d="M1959.08,-179.08C1951.22,-171.22 1939.57,-159.57 1930.08,-150.08"/>
<polygon fill="midnightblue" stroke="midnightblue" points="1932.3,-147.35 1922.75,-142.75 1927.35,-152.3 1932.3,-147.35"/>
</g>
<!-- Node3 -->
<g id="node3" class="node">
<title>Node3</title>
<g id="a_node3"><a xlink:href="ControlBoardDriver_8h.html" target="_top" xlink:title=" ">
<polygon fill="none" stroke="black" points="1962.5,-123.5 1962.5,-142.5 2081.5,-142.5 2081.5,-123.5 1962.5,-123.5"/>
<text text-anchor="middle" x="2022" y="-130.5" font-family="FreeSans.ttf" font-size="10.00">ControlBoardDriver.h</text>
</a>
</g>
</g>
<!-- Node1&#45;&gt;Node3 -->
<g id="edge2" class="edge">
<title>Node1&#45;&gt;Node3</title>
<path fill="none" stroke="midnightblue" d="M1976.92,-179.08C1984.78,-171.22 1996.43,-159.57 2005.92,-150.08"/>
<polygon fill="midnightblue" stroke="midnightblue" points="2008.65,-152.3 2013.25,-142.75 2003.7,-147.35 2008.65,-152.3"/>
</g>
<!-- Node4 -->
<g id="node4" class="node">
<title>Node4</title>
<g id="a_node4"><a xlink:title=" ">
<polygon fill="none" stroke="#bfbfbf" points="0,-62 0,-81 104,-81 104,-62 0,-62"/>
<text text-anchor="middle" x="52" y="-69" font-family="FreeSans.ttf" font-size="10.00">yarp/os/Property.h</text>
</a>
</g>
</g>
<!-- Node3&#45;&gt;Node4 -->
<g id="edge3" class="edge">
<title>Node3&#45;&gt;Node4</title>
<path fill="none" stroke="midnightblue" d="M1962.2,-123.79C1959.09,-123.49 1956.01,-123.23 1953,-123 1545.17,-92.51 518.7,-138.58 113,-87 106.18,-86.13 99.01,-84.81 92.08,-83.31"/>
<polygon fill="midnightblue" stroke="midnightblue" points="92.7,-79.86 82.17,-81.02 91.13,-86.68 92.7,-79.86"/>
</g>
<!-- Node5 -->
<g id="node5" class="node">
<title>Node5</title>
<g id="a_node5"><a xlink:title=" ">
<polygon fill="none" stroke="#bfbfbf" points="122,-62 122,-81 214,-81 214,-62 122,-62"/>
<text text-anchor="middle" x="168" y="-69" font-family="FreeSans.ttf" font-size="10.00">yarp/os/Value.h</text>
</a>
</g>
</g>
<!-- Node3&#45;&gt;Node5 -->
<g id="edge4" class="edge">
<title>Node3&#45;&gt;Node5</title>
<path fill="none" stroke="midnightblue" d="M1962.2,-123.8C1959.09,-123.5 1956.01,-123.23 1953,-123 1569.56,-94.09 603.8,-140.39 223,-87 217.11,-86.17 210.95,-84.93 204.97,-83.52"/>
<polygon fill="midnightblue" stroke="midnightblue" points="205.71,-80.1 195.16,-81.02 203.98,-86.88 205.71,-80.1"/>
</g>
<!-- Node6 -->
<g id="node6" class="node">
<title>Node6</title>
<g id="a_node6"><a xlink:title=" ">
<polygon fill="none" stroke="#bfbfbf" points="232.5,-62 232.5,-81 339.5,-81 339.5,-62 232.5,-62"/>
<text text-anchor="middle" x="286" y="-69" font-family="FreeSans.ttf" font-size="10.00">yarp/dev/Drivers.h</text>
</a>
</g>
</g>
<!-- Node3&#45;&gt;Node6 -->
<g id="edge5" class="edge">
<title>Node3&#45;&gt;Node6</title>
<path fill="none" stroke="midnightblue" d="M1962.2,-123.8C1959.09,-123.5 1956.01,-123.23 1953,-123 1597.5,-95.9 702.78,-131.21 349,-87 342.04,-86.13 334.73,-84.82 327.64,-83.34"/>
<polygon fill="midnightblue" stroke="midnightblue" points="328.02,-79.84 317.5,-81.08 326.5,-86.67 328.02,-79.84"/>
</g>
<!-- Node7 -->
<g id="node7" class="node">
<title>Node7</title>
<g id="a_node7"><a xlink:title=" ">
<polygon fill="none" stroke="#bfbfbf" points="358,-62 358,-81 480,-81 480,-62 358,-62"/>
<text text-anchor="middle" x="419" y="-69" font-family="FreeSans.ttf" font-size="10.00">yarp/dev/PolyDriver.h</text>
</a>
</g>
</g>
<!-- Node3&#45;&gt;Node7 -->
<g id="edge6" class="edge">
<title>Node3&#45;&gt;Node7</title>
<path fill="none" stroke="midnightblue" d="M1962.2,-123.81C1959.09,-123.51 1956.01,-123.23 1953,-123 1304.07,-72.84 1135.61,-161.31 489,-87 480.85,-86.06 472.24,-84.64 463.95,-83.05"/>
<polygon fill="midnightblue" stroke="midnightblue" points="464.55,-79.6 454.05,-81.05 463.16,-86.46 464.55,-79.6"/>
</g>
<!-- Node8 -->
<g id="node8" class="node">
<title>Node8</title>
<g id="a_node8"><a xlink:title=" ">
<polygon fill="none" stroke="#bfbfbf" points="498.5,-62 498.5,-81 623.5,-81 623.5,-62 498.5,-62"/>
<text text-anchor="middle" x="561" y="-69" font-family="FreeSans.ttf" font-size="10.00">yarp/dev/IPidControl.h</text>
</a>
</g>
</g>
<!-- Node3&#45;&gt;Node8 -->
<g id="edge7" class="edge">
<title>Node3&#45;&gt;Node8</title>
<path fill="none" stroke="midnightblue" d="M1962.2,-123.82C1959.09,-123.51 1956.01,-123.24 1953,-123 1367.92,-76.99 1216.14,-153.18 633,-87 624.53,-86.04 615.58,-84.59 606.97,-82.98"/>
<polygon fill="midnightblue" stroke="midnightblue" points="607.56,-79.53 597.07,-81.02 606.2,-86.39 607.56,-79.53"/>
</g>
<!-- Node9 -->
<g id="node9" class="node">
<title>Node9</title>
<g id="a_node9"><a xlink:title=" ">
<polygon fill="none" stroke="#bfbfbf" points="642,-62 642,-81 776,-81 776,-62 642,-62"/>
<text text-anchor="middle" x="709" y="-69" font-family="FreeSans.ttf" font-size="10.00">yarp/dev/IPWMControl.h</text>
</a>
</g>
</g>
<!-- Node3&#45;&gt;Node9 -->
<g id="edge8" class="edge">
<title>Node3&#45;&gt;Node9</title>
<path fill="none" stroke="midnightblue" d="M1962.2,-123.83C1959.09,-123.52 1956.01,-123.24 1953,-123 1435.31,-81.36 1301.24,-143.84 785,-87 776.08,-86.02 766.63,-84.56 757.54,-82.94"/>
<polygon fill="midnightblue" stroke="midnightblue" points="757.96,-79.46 747.48,-81.06 756.67,-86.34 757.96,-79.46"/>
</g>
<!-- Node10 -->
<g id="node10" class="node">
<title>Node10</title>
<g id="a_node10"><a xlink:title=" ">
<polygon fill="none" stroke="#bfbfbf" points="794,-62 794,-81 940,-81 940,-62 794,-62"/>
<text text-anchor="middle" x="867" y="-69" font-family="FreeSans.ttf" font-size="10.00">yarp/dev/ICurrentControl.h</text>
</a>
</g>
</g>
<!-- Node3&#45;&gt;Node10 -->
<g id="edge9" class="edge">
<title>Node3&#45;&gt;Node10</title>
<path fill="none" stroke="midnightblue" d="M1962.2,-123.85C1959.09,-123.54 1956.01,-123.25 1953,-123 1508.02,-86.08 1393.03,-133.99 949,-87 939.08,-85.95 928.55,-84.41 918.46,-82.73"/>
<polygon fill="midnightblue" stroke="midnightblue" points="919.01,-79.27 908.56,-81 917.81,-86.17 919.01,-79.27"/>
</g>
<!-- Node11 -->
<g id="node11" class="node">
<title>Node11</title>
<g id="a_node11"><a xlink:title=" ">
<polygon fill="none" stroke="#bfbfbf" points="958.5,-56.5 958.5,-86.5 1133.5,-86.5 1133.5,-56.5 958.5,-56.5"/>
<text text-anchor="start" x="966.5" y="-74.5" font-family="FreeSans.ttf" font-size="10.00">yarp/dev/ControlBoardInterfaces</text>
<text text-anchor="middle" x="1046" y="-63.5" font-family="FreeSans.ttf" font-size="10.00">Impl.h</text>
</a>
</g>
</g>
<!-- Node3&#45;&gt;Node11 -->
<g id="edge10" class="edge">
<title>Node3&#45;&gt;Node11</title>
<path fill="none" stroke="midnightblue" d="M1962.19,-123.88C1959.09,-123.56 1956.01,-123.26 1953,-123 1597.34,-91.96 1503.42,-121.13 1143.89,-87.01"/>
<polygon fill="midnightblue" stroke="midnightblue" points="1144.01,-83.5 1133.72,-86.03 1143.34,-90.47 1144.01,-83.5"/>
</g>
<!-- Node12 -->
<g id="node12" class="node">
<title>Node12</title>
<g id="a_node12"><a xlink:title=" ">
<polygon fill="none" stroke="#bfbfbf" points="1152,-62 1152,-81 1336,-81 1336,-62 1152,-62"/>
<text text-anchor="middle" x="1244" y="-69" font-family="FreeSans.ttf" font-size="10.00">yarp/dev/ControlBoardInterfaces.h</text>
</a>
</g>
</g>
<!-- Node3&#45;&gt;Node12 -->
<g id="edge11" class="edge">
<title>Node3&#45;&gt;Node12</title>
<path fill="none" stroke="midnightblue" d="M1962.19,-123.94C1959.08,-123.6 1956.01,-123.28 1953,-123 1683.51,-97.48 1614.32,-114.26 1345,-87 1332.88,-85.77 1319.99,-84.16 1307.61,-82.46"/>
<polygon fill="midnightblue" stroke="midnightblue" points="1307.75,-78.94 1297.36,-81.01 1306.78,-85.87 1307.75,-78.94"/>
</g>
<!-- Node13 -->
<g id="node13" class="node">
<title>Node13</title>
<g id="a_node13"><a xlink:title=" ">
<polygon fill="none" stroke="#bfbfbf" points="1354.5,-62 1354.5,-81 1491.5,-81 1491.5,-62 1354.5,-62"/>
<text text-anchor="middle" x="1423" y="-69" font-family="FreeSans.ttf" font-size="10.00">yarp/dev/IControlMode.h</text>
</a>
</g>
</g>
<!-- Node3&#45;&gt;Node13 -->
<g id="edge12" class="edge">
<title>Node3&#45;&gt;Node13</title>
<path fill="none" stroke="midnightblue" d="M1962.18,-124.01C1959.08,-123.65 1956,-123.32 1953,-123 1752.58,-101.96 1700.78,-113.45 1501,-87 1492.46,-85.87 1483.44,-84.43 1474.68,-82.89"/>
<polygon fill="midnightblue" stroke="midnightblue" points="1475.03,-79.4 1464.57,-81.06 1473.78,-86.28 1475.03,-79.4"/>
</g>
<!-- Node14 -->
<g id="node14" class="node">
<title>Node14</title>
<g id="a_node14"><a xlink:title=" ">
<polygon fill="none" stroke="#bfbfbf" points="1510,-62 1510,-81 1664,-81 1664,-62 1510,-62"/>
<text text-anchor="middle" x="1587" y="-69" font-family="FreeSans.ttf" font-size="10.00">yarp/dev/IInteractionMode.h</text>
</a>
</g>
</g>
<!-- Node3&#45;&gt;Node14 -->
<g id="edge13" class="edge">
<title>Node3&#45;&gt;Node14</title>
<path fill="none" stroke="midnightblue" d="M1962.16,-124.19C1959.06,-123.79 1956,-123.39 1953,-123 1828.57,-106.89 1797.11,-105.43 1673,-87 1664.09,-85.68 1654.68,-84.19 1645.48,-82.68"/>
<polygon fill="midnightblue" stroke="midnightblue" points="1646.05,-79.22 1635.61,-81.04 1644.9,-86.13 1646.05,-79.22"/>
</g>
<!-- Node15 -->
<g id="node15" class="node">
<title>Node15</title>
<g id="a_node15"><a xlink:title=" ">
<polygon fill="none" stroke="#bfbfbf" points="1682,-62 1682,-81 1840,-81 1840,-62 1682,-62"/>
<text text-anchor="middle" x="1761" y="-69" font-family="FreeSans.ttf" font-size="10.00">yarp/dev/IRemoteVariables.h</text>
</a>
</g>
</g>
<!-- Node3&#45;&gt;Node15 -->
<g id="edge14" class="edge">
<title>Node3&#45;&gt;Node15</title>
<path fill="none" stroke="midnightblue" d="M1984.61,-123.48C1938.19,-112.89 1858.98,-94.84 1808.36,-83.3"/>
<polygon fill="midnightblue" stroke="midnightblue" points="1808.85,-79.82 1798.33,-81.01 1807.3,-86.64 1808.85,-79.82"/>
</g>
<!-- Node16 -->
<g id="node16" class="node">
<title>Node16</title>
<g id="a_node16"><a xlink:title=" ">
<polygon fill="none" stroke="#bfbfbf" points="1858.5,-62 1858.5,-81 2031.5,-81 2031.5,-62 1858.5,-62"/>
<text text-anchor="middle" x="1945" y="-69" font-family="FreeSans.ttf" font-size="10.00">yarp/dev/IVirtualAnalogSensor.h</text>
</a>
</g>
</g>
<!-- Node3&#45;&gt;Node16 -->
<g id="edge15" class="edge">
<title>Node3&#45;&gt;Node16</title>
<path fill="none" stroke="midnightblue" d="M2010.97,-123.48C1998.73,-114.02 1978.77,-98.6 1964.01,-87.19"/>
<polygon fill="midnightblue" stroke="midnightblue" points="1966.06,-84.35 1956.01,-81.01 1961.78,-89.89 1966.06,-84.35"/>
</g>
<!-- Node17 -->
<g id="node17" class="node">
<title>Node17</title>
<g id="a_node17"><a xlink:title=" ">
<polygon fill="none" stroke="#bfbfbf" points="2050,-62 2050,-81 2148,-81 2148,-62 2050,-62"/>
<text text-anchor="middle" x="2099" y="-69" font-family="FreeSans.ttf" font-size="10.00">yarp/sig/Vector.h</text>
</a>
</g>
</g>
<!-- Node3&#45;&gt;Node17 -->
<g id="edge16" class="edge">
<title>Node3&#45;&gt;Node17</title>
<path fill="none" stroke="midnightblue" d="M2033.03,-123.48C2045.27,-114.02 2065.23,-98.6 2079.99,-87.19"/>
<polygon fill="midnightblue" stroke="midnightblue" points="2082.22,-89.89 2087.99,-81.01 2077.94,-84.35 2082.22,-89.89"/>
</g>
<!-- Node18 -->
<g id="node18" class="node">
<title>Node18</title>
<g id="a_node18"><a xlink:title=" ">
<polygon fill="none" stroke="#bfbfbf" points="2166.5,-62 2166.5,-81 2255.5,-81 2255.5,-62 2166.5,-62"/>
<text text-anchor="middle" x="2211" y="-69" font-family="FreeSans.ttf" font-size="10.00">yarp/os/Time.h</text>
</a>
</g>
</g>
<!-- Node3&#45;&gt;Node18 -->
<g id="edge17" class="edge">
<title>Node3&#45;&gt;Node18</title>
<path fill="none" stroke="midnightblue" d="M2049.08,-123.48C2081.92,-113.14 2137.43,-95.66 2174.15,-84.1"/>
<polygon fill="midnightblue" stroke="midnightblue" points="2175.48,-87.35 2183.97,-81.01 2173.38,-80.67 2175.48,-87.35"/>
</g>
<!-- Node19 -->
<g id="node19" class="node">
<title>Node19</title>
<g id="a_node19"><a xlink:title=" ">
<polygon fill="none" stroke="#bfbfbf" points="2274,-62 2274,-81 2370,-81 2370,-62 2274,-62"/>
<text text-anchor="middle" x="2322" y="-69" font-family="FreeSans.ttf" font-size="10.00">yarp/os/Stamp.h</text>
</a>
</g>
</g>
<!-- Node3&#45;&gt;Node19 -->
<g id="edge18" class="edge">
<title>Node3&#45;&gt;Node19</title>
<path fill="none" stroke="midnightblue" d="M2073.17,-123.42C2122.28,-114.97 2198.44,-101.28 2264,-87 2269.01,-85.91 2274.24,-84.7 2279.42,-83.46"/>
<polygon fill="midnightblue" stroke="midnightblue" points="2280.38,-86.83 2289.26,-81.06 2278.72,-80.03 2280.38,-86.83"/>
</g>
<!-- Node20 -->
<g id="node20" class="node">
<title>Node20</title>
<g id="a_node20"><a xlink:title=" ">
<polygon fill="none" stroke="#bfbfbf" points="2388.5,-62 2388.5,-81 2507.5,-81 2507.5,-62 2388.5,-62"/>
<text text-anchor="middle" x="2448" y="-69" font-family="FreeSans.ttf" font-size="10.00">boost/shared_ptr.hpp</text>
</a>
</g>
</g>
<!-- Node3&#45;&gt;Node20 -->
<g id="edge19" class="edge">
<title>Node3&#45;&gt;Node20</title>
<path fill="none" stroke="midnightblue" d="M2081.59,-125.99C2152.65,-118.49 2274.88,-104.47 2379,-87 2385.81,-85.86 2392.98,-84.51 2400,-83.11"/>
<polygon fill="midnightblue" stroke="midnightblue" points="2401.05,-86.47 2410.14,-81.04 2399.65,-79.61 2401.05,-86.47"/>
</g>
<!-- Node21 -->
<g id="node21" class="node">
<title>Node21</title>
<g id="a_node21"><a xlink:href="ControlBoardDriverRange_8h.html" target="_top" xlink:title=" ">
<polygon fill="none" stroke="black" points="2461,-0.5 2461,-19.5 2611,-19.5 2611,-0.5 2461,-0.5"/>
<text text-anchor="middle" x="2536" y="-7.5" font-family="FreeSans.ttf" font-size="10.00">ControlBoardDriverRange.h</text>
</a>
</g>
</g>
<!-- Node3&#45;&gt;Node21 -->
<g id="edge20" class="edge">
<title>Node3&#45;&gt;Node21</title>
<path fill="none" stroke="midnightblue" d="M2081.57,-130.36C2205.74,-126.39 2483.45,-114.53 2516,-87 2532.41,-73.12 2536.19,-47.55 2536.68,-29.93"/>
<polygon fill="midnightblue" stroke="midnightblue" points="2540.18,-29.68 2536.62,-19.7 2533.18,-29.72 2540.18,-29.68"/>
</g>
<!-- Node22 -->
<g id="node22" class="node">
<title>Node22</title>
<g id="a_node22"><a xlink:href="ControlBoardDriverTrajectory_8h.html" target="_top" xlink:title=" ">
<polygon fill="none" stroke="black" points="2782,-62 2782,-81 2948,-81 2948,-62 2782,-62"/>
<text text-anchor="middle" x="2865" y="-69" font-family="FreeSans.ttf" font-size="10.00">ControlBoardDriverTrajectory.h</text>
</a>
</g>
</g>
<!-- Node3&#45;&gt;Node22 -->
<g id="edge21" class="edge">
<title>Node3&#45;&gt;Node22</title>
<path fill="none" stroke="midnightblue" d="M2081.55,-130.38C2208.8,-126.5 2516.54,-114.83 2773,-87 2783.83,-85.82 2795.33,-84.26 2806.4,-82.6"/>
<polygon fill="midnightblue" stroke="midnightblue" points="2807.07,-86.04 2816.42,-81.05 2806,-79.12 2807.07,-86.04"/>
</g>
<!-- Node25 -->
<g id="node25" class="node">
<title>Node25</title>
<g id="a_node25"><a xlink:href="ControlBoardDriverCoupling_8h.html" target="_top" xlink:title=" ">
<polygon fill="none" stroke="black" points="2602,-62 2602,-81 2764,-81 2764,-62 2602,-62"/>
<text text-anchor="middle" x="2683" y="-69" font-family="FreeSans.ttf" font-size="10.00">ControlBoardDriverCoupling.h</text>
</a>
</g>
</g>
<!-- Node3&#45;&gt;Node25 -->
<g id="edge24" class="edge">
<title>Node3&#45;&gt;Node25</title>
<path fill="none" stroke="midnightblue" d="M2081.62,-128.68C2184.96,-122.6 2403.91,-108.34 2588,-87 2598.91,-85.74 2610.5,-84.16 2621.68,-82.52"/>
<polygon fill="midnightblue" stroke="midnightblue" points="2622.44,-85.95 2631.82,-81 2621.41,-79.02 2622.44,-85.95"/>
</g>
<!-- Node26 -->
<g id="node26" class="node">
<title>Node26</title>
<g id="a_node26"><a xlink:title=" ">
<polygon fill="none" stroke="#bfbfbf" points="2628.5,-0.5 2628.5,-19.5 2721.5,-19.5 2721.5,-0.5 2628.5,-0.5"/>
<text text-anchor="middle" x="2675" y="-7.5" font-family="FreeSans.ttf" font-size="10.00">unordered_map</text>
</a>
</g>
</g>
<!-- Node3&#45;&gt;Node26 -->
<g id="edge32" class="edge">
<title>Node3&#45;&gt;Node26</title>
<path fill="none" stroke="midnightblue" d="M2081.8,-130.03C2199.08,-125.64 2455.18,-113.29 2539,-87 2565.4,-78.72 2568.87,-69.55 2593,-56 2612.18,-45.24 2634.01,-33.27 2650.32,-24.38"/>
<polygon fill="midnightblue" stroke="midnightblue" points="2652.12,-27.39 2659.23,-19.54 2648.77,-21.24 2652.12,-27.39"/>
</g>
<!-- Node27 -->
<g id="node27" class="node">
<title>Node27</title>
<g id="a_node27"><a xlink:title=" ">
<polygon fill="none" stroke="#bfbfbf" points="2966,-62 2966,-81 3098,-81 3098,-62 2966,-62"/>
<text text-anchor="middle" x="3032" y="-69" font-family="FreeSans.ttf" font-size="10.00">gazebo/common/PID.hh</text>
</a>
</g>
</g>
<!-- Node3&#45;&gt;Node27 -->
<g id="edge28" class="edge">
<title>Node3&#45;&gt;Node27</title>
<path fill="none" stroke="midnightblue" d="M2081.59,-132.08C2230.03,-131.63 2628.04,-126.51 2957,-87 2965.71,-85.95 2974.92,-84.48 2983.79,-82.87"/>
<polygon fill="midnightblue" stroke="midnightblue" points="2984.45,-86.31 2993.63,-81.01 2983.15,-79.43 2984.45,-86.31"/>
</g>
<!-- Node28 -->
<g id="node28" class="node">
<title>Node28</title>
<g id="a_node28"><a xlink:title=" ">
<polygon fill="none" stroke="#bfbfbf" points="3116,-62 3116,-81 3256,-81 3256,-62 3116,-62"/>
<text text-anchor="middle" x="3186" y="-69" font-family="FreeSans.ttf" font-size="10.00">gazebo/common/Time.hh</text>
</a>
</g>
</g>
<!-- Node3&#45;&gt;Node28 -->
<g id="edge29" class="edge">
<title>Node3&#45;&gt;Node28</title>
<path fill="none" stroke="midnightblue" d="M2081.62,-132.45C2245.73,-133.06 2717.76,-130.58 3107,-87 3116.26,-85.96 3126.07,-84.48 3135.51,-82.85"/>
<polygon fill="midnightblue" stroke="midnightblue" points="3136.34,-86.26 3145.57,-81.05 3135.1,-79.37 3136.34,-86.26"/>
</g>
<!-- Node29 -->
<g id="node29" class="node">
<title>Node29</title>
<g id="a_node29"><a xlink:title=" ">
<polygon fill="none" stroke="#bfbfbf" points="3274,-62 3274,-81 3318,-81 3318,-62 3274,-62"/>
<text text-anchor="middle" x="3296" y="-69" font-family="FreeSans.ttf" font-size="10.00">string</text>
</a>
</g>
</g>
<!-- Node3&#45;&gt;Node29 -->
<g id="edge30" class="edge">
<title>Node3&#45;&gt;Node29</title>
<path fill="none" stroke="midnightblue" d="M2081.58,-131.24C2313.59,-128.09 3149.48,-114.88 3265,-87 3266.99,-86.52 3269.01,-85.9 3271.01,-85.2"/>
<polygon fill="midnightblue" stroke="midnightblue" points="3272.81,-88.24 3280.68,-81.15 3270.1,-81.79 3272.81,-88.24"/>
</g>
<!-- Node30 -->
<g id="node30" class="node">
<title>Node30</title>
<g id="a_node30"><a xlink:title=" ">
<polygon fill="none" stroke="#bfbfbf" points="3336.5,-62 3336.5,-81 3401.5,-81 3401.5,-62 3336.5,-62"/>
<text text-anchor="middle" x="3369" y="-69" font-family="FreeSans.ttf" font-size="10.00">functional</text>
</a>
</g>
</g>
<!-- Node3&#45;&gt;Node30 -->
<g id="edge31" class="edge">
<title>Node3&#45;&gt;Node30</title>
<path fill="none" stroke="midnightblue" d="M2081.75,-132.29C2304.09,-133.02 3083.35,-132.21 3327,-87 3330.71,-86.31 3334.53,-85.36 3338.29,-84.27"/>
<polygon fill="midnightblue" stroke="midnightblue" points="3339.53,-87.54 3347.97,-81.13 3337.37,-80.88 3339.53,-87.54"/>
</g>
<!-- Node31 -->
<g id="node31" class="node">
<title>Node31</title>
<g id="a_node31"><a xlink:title=" ">
<polygon fill="none" stroke="#bfbfbf" points="3419.5,-62 3419.5,-81 3466.5,-81 3466.5,-62 3419.5,-62"/>
<text text-anchor="middle" x="3443" y="-69" font-family="FreeSans.ttf" font-size="10.00">vector</text>
</a>
</g>
</g>
<!-- Node3&#45;&gt;Node31 -->
<g id="edge33" class="edge">
<title>Node3&#45;&gt;Node31</title>
<path fill="none" stroke="midnightblue" d="M2081.67,-131.44C2330.74,-128.93 3280.51,-117.4 3411,-87 3413.36,-86.45 3415.75,-85.72 3418.11,-84.89"/>
<polygon fill="midnightblue" stroke="midnightblue" points="3419.58,-88.07 3427.48,-81.01 3416.9,-81.6 3419.58,-88.07"/>
</g>
<!-- Node23 -->
<g id="node23" class="node">
<title>Node23</title>
<g id="a_node23"><a xlink:title=" ">
<polygon fill="none" stroke="#bfbfbf" points="2740,-0.5 2740,-19.5 2880,-19.5 2880,-0.5 2740,-0.5"/>
<text text-anchor="middle" x="2810" y="-7.5" font-family="FreeSans.ttf" font-size="10.00">gazebo/physics/Model.hh</text>
</a>
</g>
</g>
<!-- Node22&#45;&gt;Node23 -->
<g id="edge22" class="edge">
<title>Node22&#45;&gt;Node23</title>
<path fill="none" stroke="midnightblue" d="M2857.12,-61.98C2848.71,-52.87 2835.18,-38.24 2824.77,-26.98"/>
<polygon fill="midnightblue" stroke="midnightblue" points="2827.22,-24.48 2817.87,-19.51 2822.08,-29.23 2827.22,-24.48"/>
</g>
<!-- Node24 -->
<g id="node24" class="node">
<title>Node24</title>
<g id="a_node24"><a xlink:title=" ">
<polygon fill="none" stroke="#bfbfbf" points="2898,-0.5 2898,-19.5 2946,-19.5 2946,-0.5 2898,-0.5"/>
<text text-anchor="middle" x="2922" y="-7.5" font-family="FreeSans.ttf" font-size="10.00">mutex</text>
</a>
</g>
</g>
<!-- Node22&#45;&gt;Node24 -->
<g id="edge23" class="edge">
<title>Node22&#45;&gt;Node24</title>
<path fill="none" stroke="midnightblue" d="M2873.17,-61.98C2881.89,-52.87 2895.9,-38.24 2906.69,-26.98"/>
<polygon fill="midnightblue" stroke="midnightblue" points="2909.46,-29.15 2913.85,-19.51 2904.4,-24.31 2909.46,-29.15"/>
</g>
<!-- Node25&#45;&gt;Node21 -->
<g id="edge25" class="edge">
<title>Node25&#45;&gt;Node21</title>
<path fill="none" stroke="midnightblue" d="M2661.94,-61.98C2636.94,-51.86 2595.06,-34.9 2566.51,-23.35"/>
<polygon fill="midnightblue" stroke="midnightblue" points="2567.61,-20.02 2557.02,-19.51 2564.98,-26.51 2567.61,-20.02"/>
</g>
<!-- Node25&#45;&gt;Node23 -->
<g id="edge26" class="edge">
<title>Node25&#45;&gt;Node23</title>
<path fill="none" stroke="midnightblue" d="M2701.2,-61.98C2722.51,-51.99 2758.03,-35.35 2782.66,-23.81"/>
<polygon fill="midnightblue" stroke="midnightblue" points="2784.27,-26.92 2791.84,-19.51 2781.3,-20.58 2784.27,-26.92"/>
</g>
<!-- Node25&#45;&gt;Node26 -->
<g id="edge27" class="edge">
<title>Node25&#45;&gt;Node26</title>
<path fill="none" stroke="midnightblue" d="M2681.85,-61.98C2680.73,-53.58 2678.96,-40.48 2677.51,-29.66"/>
<polygon fill="midnightblue" stroke="midnightblue" points="2680.95,-28.95 2676.14,-19.51 2674.01,-29.89 2680.95,-28.95"/>
</g>
</g>
</svg>
