<?xml version="1.0" encoding="UTF-8" standalone="no"?>
<!DOCTYPE svg PUBLIC "-//W3C//DTD SVG 1.1//EN"
 "http://www.w3.org/Graphics/SVG/1.1/DTD/svg11.dtd">
<!-- Generated by graphviz version 2.43.0 (0)
 -->
<!-- Title: ControlBoard.hh Pages: 1 -->
<svg width="566pt" height="84pt"
 viewBox="0.00 0.00 565.50 84.00" xmlns="http://www.w3.org/2000/svg" xmlns:xlink="http://www.w3.org/1999/xlink">
<g id="graph0" class="graph" transform="scale(1 1) rotate(0) translate(4 80)">
<title>ControlBoard.hh</title>
<!-- Node1 -->
<g id="node1" class="node">
<title>Node1</title>
<g id="a_node1"><a xlink:title=" ">
<polygon fill="#bfbfbf" stroke="black" points="193.5,-56.5 193.5,-75.5 288.5,-75.5 288.5,-56.5 193.5,-56.5"/>
<text text-anchor="middle" x="241" y="-63.5" font-family="FreeSans.ttf" font-size="10.00">ControlBoard.hh</text>
</a>
</g>
</g>
<!-- Node2 -->
<g id="node2" class="node">
<title>Node2</title>
<g id="a_node2"><a xlink:title=" ">
<polygon fill="none" stroke="#bfbfbf" points="0,-0.5 0,-19.5 146,-19.5 146,-0.5 0,-0.5"/>
<text text-anchor="middle" x="73" y="-7.5" font-family="FreeSans.ttf" font-size="10.00">gazebo/common/Plugin.hh</text>
</a>
</g>
</g>
<!-- Node1&#45;&gt;Node2 -->
<g id="edge1" class="edge">
<title>Node1&#45;&gt;Node2</title>
<path fill="none" stroke="midnightblue" d="M214.38,-56.44C185.99,-47.32 140.86,-32.81 109.25,-22.65"/>
<polygon fill="midnightblue" stroke="midnightblue" points="110.09,-19.24 99.5,-19.52 107.94,-25.91 110.09,-19.24"/>
</g>
<!-- Node3 -->
<g id="node3" class="node">
<title>Node3</title>
<g id="a_node3"><a xlink:title=" ">
<polygon fill="none" stroke="#bfbfbf" points="164,-0.5 164,-19.5 208,-19.5 208,-0.5 164,-0.5"/>
<text text-anchor="middle" x="186" y="-7.5" font-family="FreeSans.ttf" font-size="10.00">string</text>
</a>
</g>
</g>
<!-- Node1&#45;&gt;Node3 -->
<g id="edge2" class="edge">
<title>Node1&#45;&gt;Node3</title>
<path fill="none" stroke="midnightblue" d="M231.92,-56.08C223.83,-48.14 211.8,-36.34 202.09,-26.8"/>
<polygon fill="midnightblue" stroke="midnightblue" points="204.5,-24.26 194.91,-19.75 199.6,-29.25 204.5,-24.26"/>
</g>
<!-- Node4 -->
<g id="node4" class="node">
<title>Node4</title>
<g id="a_node4"><a xlink:title=" ">
<polygon fill="none" stroke="#bfbfbf" points="226,-0.5 226,-19.5 366,-19.5 366,-0.5 226,-0.5"/>
<text text-anchor="middle" x="296" y="-7.5" font-family="FreeSans.ttf" font-size="10.00">yarp/dev/PolyDriverList.h</text>
</a>
</g>
</g>
<!-- Node1&#45;&gt;Node4 -->
<g id="edge3" class="edge">
<title>Node1&#45;&gt;Node4</title>
<path fill="none" stroke="midnightblue" d="M250.08,-56.08C258.17,-48.14 270.2,-36.34 279.91,-26.8"/>
<polygon fill="midnightblue" stroke="midnightblue" points="282.4,-29.25 287.09,-19.75 277.5,-24.26 282.4,-29.25"/>
</g>
<!-- Node5 -->
<g id="node5" class="node">
<title>Node5</title>
<g id="a_node5"><a xlink:title=" ">
<polygon fill="none" stroke="#bfbfbf" points="384.5,-0.5 384.5,-19.5 557.5,-19.5 557.5,-0.5 384.5,-0.5"/>
<text text-anchor="middle" x="471" y="-7.5" font-family="FreeSans.ttf" font-size="10.00">yarp/dev/IVirtualAnalogSensor.h</text>
</a>
</g>
</g>
<!-- Node1&#45;&gt;Node5 -->
<g id="edge4" class="edge">
<title>Node1&#45;&gt;Node5</title>
<path fill="none" stroke="midnightblue" d="M277.44,-56.44C317.4,-47.06 381.59,-31.99 424.98,-21.8"/>
<polygon fill="midnightblue" stroke="midnightblue" points="425.79,-25.21 434.73,-19.52 424.19,-18.39 425.79,-25.21"/>
</g>
</g>
</svg>
