<?xml version="1.0" encoding="UTF-8" standalone="no"?>
<!DOCTYPE svg PUBLIC "-//W3C//DTD SVG 1.1//EN"
 "http://www.w3.org/Graphics/SVG/1.1/DTD/svg11.dtd">
<!-- Generated by graphviz version 5.0.0 (20220707.2338)
 -->
<!-- Title: ControlBoardDriverCoupling.cpp Pages: 1 -->
<svg width="3876pt" height="207pt"
 viewBox="0.00 0.00 3876.00 207.00" xmlns="http://www.w3.org/2000/svg" xmlns:xlink="http://www.w3.org/1999/xlink">
<g id="graph0" class="graph" transform="scale(1 1) rotate(0) translate(4 203)">
<title>ControlBoardDriverCoupling.cpp</title>
<!-- Node1 -->
<g id="node1" class="node">
<title>Node1</title>
<g id="a_node1"><a xlink:title=" ">
<polygon fill="#bfbfbf" stroke="black" points="3417,-179.5 3417,-198.5 3590,-198.5 3590,-179.5 3417,-179.5"/>
<text text-anchor="middle" x="3503.5" y="-186.5" font-family="FreeSans.ttf" font-size="10.00">ControlBoardDriverCoupling.cpp</text>
</a>
</g>
</g>
<!-- Node2 -->
<g id="node2" class="node">
<title>Node2</title>
<g id="a_node2"><a xlink:href="ControlBoardDriver_8h.html" target="_top" xlink:title=" ">
<polygon fill="none" stroke="black" points="1642,-123.5 1642,-142.5 1761,-142.5 1761,-123.5 1642,-123.5"/>
<text text-anchor="middle" x="1701.5" y="-130.5" font-family="FreeSans.ttf" font-size="10.00">ControlBoardDriver.h</text>
</a>
</g>
</g>
<!-- Node1&#45;&gt;Node2 -->
<g id="edge1" class="edge">
<title>Node1&#45;&gt;Node2</title>
<path fill="none" stroke="midnightblue" d="M3416.89,-185.4C3106.52,-176.1 2053.45,-144.55 1771.45,-136.1"/>
<polygon fill="midnightblue" stroke="midnightblue" points="1771.45,-132.59 1761.35,-135.79 1771.24,-139.59 1771.45,-132.59"/>
</g>
<!-- Node22 -->
<g id="node22" class="node">
<title>Node22</title>
<g id="a_node22"><a xlink:title=" ">
<polygon fill="none" stroke="#bfbfbf" points="2508.5,-0.5 2508.5,-19.5 2648.5,-19.5 2648.5,-0.5 2508.5,-0.5"/>
<text text-anchor="middle" x="2578.5" y="-7.5" font-family="FreeSans.ttf" font-size="10.00">gazebo/physics/Model.hh</text>
</a>
</g>
</g>
<!-- Node1&#45;&gt;Node22 -->
<g id="edge39" class="edge">
<title>Node1&#45;&gt;Node22</title>
<path fill="none" stroke="midnightblue" d="M3508.67,-179.48C3522.11,-156.16 3554.8,-90.72 3521.5,-56 3489.58,-22.72 2766.88,-23.59 2658.9,-19.77"/>
<polygon fill="midnightblue" stroke="midnightblue" points="2658.85,-16.26 2648.69,-19.26 2658.5,-23.25 2658.85,-16.26"/>
</g>
<!-- Node24 -->
<g id="node24" class="node">
<title>Node24</title>
<g id="a_node24"><a xlink:href="ControlBoardDriverCoupling_8h.html" target="_top" xlink:title=" ">
<polygon fill="none" stroke="black" points="19.5,-62 19.5,-81 181.5,-81 181.5,-62 19.5,-62"/>
<text text-anchor="middle" x="100.5" y="-69" font-family="FreeSans.ttf" font-size="10.00">ControlBoardDriverCoupling.h</text>
</a>
</g>
</g>
<!-- Node1&#45;&gt;Node24 -->
<g id="edge36" class="edge">
<title>Node1&#45;&gt;Node24</title>
<path fill="none" stroke="midnightblue" d="M3416.76,-186.37C3150.32,-181.26 2320.18,-164.62 1632.5,-143 991.44,-122.84 828.71,-150.57 190.5,-87 179.53,-85.91 167.86,-84.34 156.69,-82.63"/>
<polygon fill="midnightblue" stroke="midnightblue" points="157.03,-79.14 146.61,-81.03 155.94,-86.05 157.03,-79.14"/>
</g>
<!-- Node31 -->
<g id="node31" class="node">
<title>Node31</title>
<g id="a_node31"><a xlink:href="common_8h.html" target="_top" xlink:title=" ">
<polygon fill="none" stroke="black" points="3311.5,-123.5 3311.5,-142.5 3475.5,-142.5 3475.5,-123.5 3311.5,-123.5"/>
<text text-anchor="middle" x="3393.5" y="-130.5" font-family="FreeSans.ttf" font-size="10.00">GazeboYarpPlugins/common.h</text>
</a>
</g>
</g>
<!-- Node1&#45;&gt;Node31 -->
<g id="edge33" class="edge">
<title>Node1&#45;&gt;Node31</title>
<path fill="none" stroke="midnightblue" d="M3485.83,-179.32C3468.11,-170.62 3440.6,-157.12 3420.21,-147.11"/>
<polygon fill="midnightblue" stroke="midnightblue" points="3421.65,-143.92 3411.13,-142.65 3418.56,-150.2 3421.65,-143.92"/>
</g>
<!-- Node32 -->
<g id="node32" class="node">
<title>Node32</title>
<g id="a_node32"><a xlink:title=" ">
<polygon fill="none" stroke="#bfbfbf" points="3466,-62 3466,-81 3513,-81 3513,-62 3466,-62"/>
<text text-anchor="middle" x="3489.5" y="-69" font-family="FreeSans.ttf" font-size="10.00">cmath</text>
</a>
</g>
</g>
<!-- Node1&#45;&gt;Node32 -->
<g id="edge38" class="edge">
<title>Node1&#45;&gt;Node32</title>
<path fill="none" stroke="midnightblue" d="M3502.45,-179.32C3500.2,-160.76 3494.87,-116.84 3491.8,-91.47"/>
<polygon fill="midnightblue" stroke="midnightblue" points="3495.24,-90.79 3490.56,-81.28 3488.29,-91.63 3495.24,-90.79"/>
</g>
<!-- Node33 -->
<g id="node33" class="node">
<title>Node33</title>
<g id="a_node33"><a xlink:title=" ">
<polygon fill="none" stroke="#bfbfbf" points="3569.5,-123.5 3569.5,-142.5 3615.5,-142.5 3615.5,-123.5 3569.5,-123.5"/>
<text text-anchor="middle" x="3592.5" y="-130.5" font-family="FreeSans.ttf" font-size="10.00">cstdio</text>
</a>
</g>
</g>
<!-- Node1&#45;&gt;Node33 -->
<g id="edge37" class="edge">
<title>Node1&#45;&gt;Node33</title>
<path fill="none" stroke="midnightblue" d="M3517.8,-179.32C3531.68,-170.9 3552.99,-157.97 3569.3,-148.07"/>
<polygon fill="midnightblue" stroke="midnightblue" points="3571.5,-150.83 3578.24,-142.65 3567.87,-144.85 3571.5,-150.83"/>
</g>
<!-- Node34 -->
<g id="node34" class="node">
<title>Node34</title>
<g id="a_node34"><a xlink:href="ControlBoardLog_8h.html" target="_top" xlink:title=" ">
<polygon fill="none" stroke="black" points="3634,-123.5 3634,-142.5 3741,-142.5 3741,-123.5 3634,-123.5"/>
<text text-anchor="middle" x="3687.5" y="-130.5" font-family="FreeSans.ttf" font-size="10.00">ControlBoardLog.h</text>
</a>
</g>
</g>
<!-- Node1&#45;&gt;Node34 -->
<g id="edge40" class="edge">
<title>Node1&#45;&gt;Node34</title>
<path fill="none" stroke="midnightblue" d="M3532.66,-179.44C3564.01,-170.24 3614.03,-155.56 3648.7,-145.39"/>
<polygon fill="midnightblue" stroke="midnightblue" points="3649.87,-148.69 3658.48,-142.52 3647.9,-141.97 3649.87,-148.69"/>
</g>
<!-- Node3 -->
<g id="node3" class="node">
<title>Node3</title>
<g id="a_node3"><a xlink:title=" ">
<polygon fill="none" stroke="#bfbfbf" points="199.5,-62 199.5,-81 303.5,-81 303.5,-62 199.5,-62"/>
<text text-anchor="middle" x="251.5" y="-69" font-family="FreeSans.ttf" font-size="10.00">yarp/os/Property.h</text>
</a>
</g>
</g>
<!-- Node2&#45;&gt;Node3 -->
<g id="edge2" class="edge">
<title>Node2&#45;&gt;Node3</title>
<path fill="none" stroke="midnightblue" d="M1641.64,-131.66C1410.4,-130.1 575.26,-122.12 312.5,-87 305.76,-86.1 298.67,-84.77 291.81,-83.29"/>
<polygon fill="midnightblue" stroke="midnightblue" points="292.53,-79.86 281.99,-81.02 290.95,-86.68 292.53,-79.86"/>
</g>
<!-- Node4 -->
<g id="node4" class="node">
<title>Node4</title>
<g id="a_node4"><a xlink:title=" ">
<polygon fill="none" stroke="#bfbfbf" points="321.5,-62 321.5,-81 413.5,-81 413.5,-62 321.5,-62"/>
<text text-anchor="middle" x="367.5" y="-69" font-family="FreeSans.ttf" font-size="10.00">yarp/os/Value.h</text>
</a>
</g>
</g>
<!-- Node2&#45;&gt;Node4 -->
<g id="edge3" class="edge">
<title>Node2&#45;&gt;Node4</title>
<path fill="none" stroke="midnightblue" d="M1641.92,-131.66C1422.85,-130.14 662.36,-122.39 422.5,-87 416.68,-86.14 410.59,-84.9 404.67,-83.49"/>
<polygon fill="midnightblue" stroke="midnightblue" points="405.5,-80.09 394.95,-81.02 403.78,-86.88 405.5,-80.09"/>
</g>
<!-- Node5 -->
<g id="node5" class="node">
<title>Node5</title>
<g id="a_node5"><a xlink:title=" ">
<polygon fill="none" stroke="#bfbfbf" points="888,-62 888,-81 995,-81 995,-62 888,-62"/>
<text text-anchor="middle" x="941.5" y="-69" font-family="FreeSans.ttf" font-size="10.00">yarp/dev/Drivers.h</text>
</a>
</g>
</g>
<!-- Node2&#45;&gt;Node5 -->
<g id="edge4" class="edge">
<title>Node2&#45;&gt;Node5</title>
<path fill="none" stroke="midnightblue" d="M1641.95,-131.39C1521.13,-129.45 1238.76,-121.29 1004.5,-87 997.78,-86.02 990.73,-84.69 983.86,-83.23"/>
<polygon fill="midnightblue" stroke="midnightblue" points="984.53,-79.8 974.01,-81.04 983.01,-86.63 984.53,-79.8"/>
</g>
<!-- Node6 -->
<g id="node6" class="node">
<title>Node6</title>
<g id="a_node6"><a xlink:title=" ">
<polygon fill="none" stroke="#bfbfbf" points="1013.5,-62 1013.5,-81 1135.5,-81 1135.5,-62 1013.5,-62"/>
<text text-anchor="middle" x="1074.5" y="-69" font-family="FreeSans.ttf" font-size="10.00">yarp/dev/PolyDriver.h</text>
</a>
</g>
</g>
<!-- Node2&#45;&gt;Node6 -->
<g id="edge5" class="edge">
<title>Node2&#45;&gt;Node6</title>
<path fill="none" stroke="midnightblue" d="M1641.88,-129.6C1539.66,-124.96 1324.56,-112.82 1144.5,-87 1136.98,-85.92 1129.06,-84.53 1121.36,-83.04"/>
<polygon fill="midnightblue" stroke="midnightblue" points="1121.9,-79.58 1111.4,-81.03 1120.52,-86.44 1121.9,-79.58"/>
</g>
<!-- Node7 -->
<g id="node7" class="node">
<title>Node7</title>
<g id="a_node7"><a xlink:title=" ">
<polygon fill="none" stroke="#bfbfbf" points="1154,-62 1154,-81 1279,-81 1279,-62 1154,-62"/>
<text text-anchor="middle" x="1216.5" y="-69" font-family="FreeSans.ttf" font-size="10.00">yarp/dev/IPidControl.h</text>
</a>
</g>
</g>
<!-- Node2&#45;&gt;Node7 -->
<g id="edge6" class="edge">
<title>Node2&#45;&gt;Node7</title>
<path fill="none" stroke="midnightblue" d="M1641.78,-127.2C1561.27,-120.33 1413.59,-106.37 1288.5,-87 1281.05,-85.85 1273.21,-84.45 1265.54,-82.99"/>
<polygon fill="midnightblue" stroke="midnightblue" points="1266.11,-79.54 1255.62,-81.05 1264.76,-86.41 1266.11,-79.54"/>
</g>
<!-- Node8 -->
<g id="node8" class="node">
<title>Node8</title>
<g id="a_node8"><a xlink:title=" ">
<polygon fill="none" stroke="#bfbfbf" points="1297.5,-62 1297.5,-81 1431.5,-81 1431.5,-62 1297.5,-62"/>
<text text-anchor="middle" x="1364.5" y="-69" font-family="FreeSans.ttf" font-size="10.00">yarp/dev/IPWMControl.h</text>
</a>
</g>
</g>
<!-- Node2&#45;&gt;Node8 -->
<g id="edge7" class="edge">
<title>Node2&#45;&gt;Node8</title>
<path fill="none" stroke="midnightblue" d="M1650.44,-123.47C1597.79,-114.62 1513.34,-100.23 1440.5,-87 1433.41,-85.71 1425.96,-84.33 1418.61,-82.95"/>
<polygon fill="midnightblue" stroke="midnightblue" points="1419.16,-79.49 1408.68,-81.07 1417.86,-86.37 1419.16,-79.49"/>
</g>
<!-- Node9 -->
<g id="node9" class="node">
<title>Node9</title>
<g id="a_node9"><a xlink:title=" ">
<polygon fill="none" stroke="#bfbfbf" points="1449.5,-62 1449.5,-81 1595.5,-81 1595.5,-62 1449.5,-62"/>
<text text-anchor="middle" x="1522.5" y="-69" font-family="FreeSans.ttf" font-size="10.00">yarp/dev/ICurrentControl.h</text>
</a>
</g>
</g>
<!-- Node2&#45;&gt;Node9 -->
<g id="edge8" class="edge">
<title>Node2&#45;&gt;Node9</title>
<path fill="none" stroke="midnightblue" d="M1675.85,-123.48C1644.88,-113.18 1592.63,-95.81 1557.85,-84.25"/>
<polygon fill="midnightblue" stroke="midnightblue" points="1558.69,-80.84 1548.1,-81.01 1556.48,-87.48 1558.69,-80.84"/>
</g>
<!-- Node10 -->
<g id="node10" class="node">
<title>Node10</title>
<g id="a_node10"><a xlink:title=" ">
<polygon fill="none" stroke="#bfbfbf" points="1614,-56.5 1614,-86.5 1789,-86.5 1789,-56.5 1614,-56.5"/>
<text text-anchor="start" x="1622" y="-74.5" font-family="FreeSans.ttf" font-size="10.00">yarp/dev/ControlBoardInterfaces</text>
<text text-anchor="middle" x="1701.5" y="-63.5" font-family="FreeSans.ttf" font-size="10.00">Impl.h</text>
</a>
</g>
</g>
<!-- Node2&#45;&gt;Node10 -->
<g id="edge9" class="edge">
<title>Node2&#45;&gt;Node10</title>
<path fill="none" stroke="midnightblue" d="M1701.5,-123.48C1701.5,-116.47 1701.5,-106.19 1701.5,-96.7"/>
<polygon fill="midnightblue" stroke="midnightblue" points="1705,-96.52 1701.5,-86.52 1698,-96.52 1705,-96.52"/>
</g>
<!-- Node11 -->
<g id="node11" class="node">
<title>Node11</title>
<g id="a_node11"><a xlink:title=" ">
<polygon fill="none" stroke="#bfbfbf" points="1807.5,-62 1807.5,-81 1991.5,-81 1991.5,-62 1807.5,-62"/>
<text text-anchor="middle" x="1899.5" y="-69" font-family="FreeSans.ttf" font-size="10.00">yarp/dev/ControlBoardInterfaces.h</text>
</a>
</g>
</g>
<!-- Node2&#45;&gt;Node11 -->
<g id="edge10" class="edge">
<title>Node2&#45;&gt;Node11</title>
<path fill="none" stroke="midnightblue" d="M1729.87,-123.48C1764.42,-113.09 1822.92,-95.51 1861.38,-83.95"/>
<polygon fill="midnightblue" stroke="midnightblue" points="1862.61,-87.24 1871.18,-81.01 1860.6,-80.54 1862.61,-87.24"/>
</g>
<!-- Node12 -->
<g id="node12" class="node">
<title>Node12</title>
<g id="a_node12"><a xlink:title=" ">
<polygon fill="none" stroke="#bfbfbf" points="2010,-62 2010,-81 2147,-81 2147,-62 2010,-62"/>
<text text-anchor="middle" x="2078.5" y="-69" font-family="FreeSans.ttf" font-size="10.00">yarp/dev/IControlMode.h</text>
</a>
</g>
</g>
<!-- Node2&#45;&gt;Node12 -->
<g id="edge11" class="edge">
<title>Node2&#45;&gt;Node12</title>
<path fill="none" stroke="midnightblue" d="M1761.16,-123.64C1821.58,-115.02 1917.67,-100.93 2000.5,-87 2008.14,-85.72 2016.19,-84.3 2024.1,-82.86"/>
<polygon fill="midnightblue" stroke="midnightblue" points="2024.79,-86.29 2034,-81.05 2023.53,-79.41 2024.79,-86.29"/>
</g>
<!-- Node13 -->
<g id="node13" class="node">
<title>Node13</title>
<g id="a_node13"><a xlink:title=" ">
<polygon fill="none" stroke="#bfbfbf" points="2165.5,-62 2165.5,-81 2319.5,-81 2319.5,-62 2165.5,-62"/>
<text text-anchor="middle" x="2242.5" y="-69" font-family="FreeSans.ttf" font-size="10.00">yarp/dev/IInteractionMode.h</text>
</a>
</g>
</g>
<!-- Node2&#45;&gt;Node13 -->
<g id="edge12" class="edge">
<title>Node2&#45;&gt;Node13</title>
<path fill="none" stroke="midnightblue" d="M1761.14,-127.36C1848.06,-120.31 2014.56,-105.71 2155.5,-87 2164.96,-85.74 2174.98,-84.24 2184.71,-82.68"/>
<polygon fill="midnightblue" stroke="midnightblue" points="2185.42,-86.11 2194.72,-81.05 2184.29,-79.21 2185.42,-86.11"/>
</g>
<!-- Node14 -->
<g id="node14" class="node">
<title>Node14</title>
<g id="a_node14"><a xlink:title=" ">
<polygon fill="none" stroke="#bfbfbf" points="2337.5,-62 2337.5,-81 2495.5,-81 2495.5,-62 2337.5,-62"/>
<text text-anchor="middle" x="2416.5" y="-69" font-family="FreeSans.ttf" font-size="10.00">yarp/dev/IRemoteVariables.h</text>
</a>
</g>
</g>
<!-- Node2&#45;&gt;Node14 -->
<g id="edge13" class="edge">
<title>Node2&#45;&gt;Node14</title>
<path fill="none" stroke="midnightblue" d="M1761.32,-129.53C1873.06,-124.52 2120.95,-111.5 2328.5,-87 2338.53,-85.82 2349.17,-84.29 2359.45,-82.68"/>
<polygon fill="midnightblue" stroke="midnightblue" points="2360.26,-86.1 2369.57,-81.05 2359.14,-79.19 2360.26,-86.1"/>
</g>
<!-- Node15 -->
<g id="node15" class="node">
<title>Node15</title>
<g id="a_node15"><a xlink:title=" ">
<polygon fill="none" stroke="#bfbfbf" points="2736,-62 2736,-81 2909,-81 2909,-62 2736,-62"/>
<text text-anchor="middle" x="2822.5" y="-69" font-family="FreeSans.ttf" font-size="10.00">yarp/dev/IVirtualAnalogSensor.h</text>
</a>
</g>
</g>
<!-- Node2&#45;&gt;Node15 -->
<g id="edge14" class="edge">
<title>Node2&#45;&gt;Node15</title>
<path fill="none" stroke="midnightblue" d="M1761.16,-131.59C1919.06,-130.02 2360.84,-122.54 2726.5,-87 2738.3,-85.85 2750.85,-84.24 2762.87,-82.51"/>
<polygon fill="midnightblue" stroke="midnightblue" points="2763.42,-85.97 2772.8,-81.03 2762.39,-79.04 2763.42,-85.97"/>
</g>
<!-- Node16 -->
<g id="node16" class="node">
<title>Node16</title>
<g id="a_node16"><a xlink:title=" ">
<polygon fill="none" stroke="#bfbfbf" points="2927.5,-62 2927.5,-81 3025.5,-81 3025.5,-62 2927.5,-62"/>
<text text-anchor="middle" x="2976.5" y="-69" font-family="FreeSans.ttf" font-size="10.00">yarp/sig/Vector.h</text>
</a>
</g>
</g>
<!-- Node2&#45;&gt;Node16 -->
<g id="edge15" class="edge">
<title>Node2&#45;&gt;Node16</title>
<path fill="none" stroke="midnightblue" d="M1761.03,-131.4C1972.96,-129.03 2690.24,-118.79 2917.5,-87 2923.81,-86.12 2930.42,-84.85 2936.85,-83.42"/>
<polygon fill="midnightblue" stroke="midnightblue" points="2937.79,-86.79 2946.72,-81.07 2936.18,-79.98 2937.79,-86.79"/>
</g>
<!-- Node17 -->
<g id="node17" class="node">
<title>Node17</title>
<g id="a_node17"><a xlink:title=" ">
<polygon fill="none" stroke="#bfbfbf" points="3044,-62 3044,-81 3133,-81 3133,-62 3044,-62"/>
<text text-anchor="middle" x="3088.5" y="-69" font-family="FreeSans.ttf" font-size="10.00">yarp/os/Time.h</text>
</a>
</g>
</g>
<!-- Node2&#45;&gt;Node17 -->
<g id="edge16" class="edge">
<title>Node2&#45;&gt;Node17</title>
<path fill="none" stroke="midnightblue" d="M1761.27,-131.8C1986.48,-130.74 2783.72,-124.4 3034.5,-87 3040.08,-86.17 3045.91,-84.97 3051.59,-83.61"/>
<polygon fill="midnightblue" stroke="midnightblue" points="3052.75,-86.92 3061.56,-81.03 3051,-80.14 3052.75,-86.92"/>
</g>
<!-- Node18 -->
<g id="node18" class="node">
<title>Node18</title>
<g id="a_node18"><a xlink:title=" ">
<polygon fill="none" stroke="#bfbfbf" points="3151.5,-62 3151.5,-81 3247.5,-81 3247.5,-62 3151.5,-62"/>
<text text-anchor="middle" x="3199.5" y="-69" font-family="FreeSans.ttf" font-size="10.00">yarp/os/Stamp.h</text>
</a>
</g>
</g>
<!-- Node2&#45;&gt;Node18 -->
<g id="edge17" class="edge">
<title>Node2&#45;&gt;Node18</title>
<path fill="none" stroke="midnightblue" d="M1761.14,-131.83C1997.43,-130.91 2868.37,-124.96 3141.5,-87 3147.77,-86.13 3154.35,-84.85 3160.74,-83.4"/>
<polygon fill="midnightblue" stroke="midnightblue" points="3161.63,-86.79 3170.53,-81.03 3159.99,-79.98 3161.63,-86.79"/>
</g>
<!-- Node19 -->
<g id="node19" class="node">
<title>Node19</title>
<g id="a_node19"><a xlink:title=" ">
<polygon fill="none" stroke="#bfbfbf" points="3266,-62 3266,-81 3385,-81 3385,-62 3266,-62"/>
<text text-anchor="middle" x="3325.5" y="-69" font-family="FreeSans.ttf" font-size="10.00">boost/shared_ptr.hpp</text>
</a>
</g>
</g>
<!-- Node2&#45;&gt;Node19 -->
<g id="edge18" class="edge">
<title>Node2&#45;&gt;Node19</title>
<path fill="none" stroke="midnightblue" d="M1761.17,-131.7C2009.11,-130.21 2958.97,-122.28 3256.5,-87 3264.45,-86.06 3272.84,-84.65 3280.93,-83.08"/>
<polygon fill="midnightblue" stroke="midnightblue" points="3281.86,-86.46 3290.95,-81.02 3280.45,-79.6 3281.86,-86.46"/>
</g>
<!-- Node20 -->
<g id="node20" class="node">
<title>Node20</title>
<g id="a_node20"><a xlink:href="ControlBoardDriverRange_8h.html" target="_top" xlink:title=" ">
<polygon fill="none" stroke="black" points="1254.5,-0.5 1254.5,-19.5 1404.5,-19.5 1404.5,-0.5 1254.5,-0.5"/>
<text text-anchor="middle" x="1329.5" y="-7.5" font-family="FreeSans.ttf" font-size="10.00">ControlBoardDriverRange.h</text>
</a>
</g>
</g>
<!-- Node2&#45;&gt;Node20 -->
<g id="edge19" class="edge">
<title>Node2&#45;&gt;Node20</title>
<path fill="none" stroke="midnightblue" d="M1761.29,-130.87C1943.18,-127.15 2479.03,-113.93 2504.5,-87 2513.97,-76.99 2514.05,-65.93 2504.5,-56 2466.83,-16.86 1679.11,-11.7 1414.98,-11.07"/>
<polygon fill="midnightblue" stroke="midnightblue" points="1414.68,-7.57 1404.67,-11.05 1414.67,-14.57 1414.68,-7.57"/>
</g>
<!-- Node21 -->
<g id="node21" class="node">
<title>Node21</title>
<g id="a_node21"><a xlink:href="ControlBoardDriverTrajectory_8h.html" target="_top" xlink:title=" ">
<polygon fill="none" stroke="black" points="2551.5,-62 2551.5,-81 2717.5,-81 2717.5,-62 2551.5,-62"/>
<text text-anchor="middle" x="2634.5" y="-69" font-family="FreeSans.ttf" font-size="10.00">ControlBoardDriverTrajectory.h</text>
</a>
</g>
</g>
<!-- Node2&#45;&gt;Node21 -->
<g id="edge20" class="edge">
<title>Node2&#45;&gt;Node21</title>
<path fill="none" stroke="midnightblue" d="M1761.2,-130.72C1898.54,-127.37 2247.38,-116.43 2537.5,-87 2549.28,-85.81 2561.82,-84.19 2573.83,-82.47"/>
<polygon fill="midnightblue" stroke="midnightblue" points="2574.38,-85.93 2583.77,-81.01 2573.37,-79 2574.38,-85.93"/>
</g>
<!-- Node2&#45;&gt;Node24 -->
<g id="edge23" class="edge">
<title>Node2&#45;&gt;Node24</title>
<path fill="none" stroke="midnightblue" d="M1641.92,-131.26C1398.63,-128.09 479.69,-114.48 190.5,-87 179.4,-85.95 167.6,-84.37 156.32,-82.65"/>
<polygon fill="midnightblue" stroke="midnightblue" points="156.56,-79.14 146.14,-81.03 155.46,-86.06 156.56,-79.14"/>
</g>
<!-- Node25 -->
<g id="node25" class="node">
<title>Node25</title>
<g id="a_node25"><a xlink:title=" ">
<polygon fill="none" stroke="#bfbfbf" points="0,-0.5 0,-19.5 93,-19.5 93,-0.5 0,-0.5"/>
<text text-anchor="middle" x="46.5" y="-7.5" font-family="FreeSans.ttf" font-size="10.00">unordered_map</text>
</a>
</g>
</g>
<!-- Node2&#45;&gt;Node25 -->
<g id="edge31" class="edge">
<title>Node2&#45;&gt;Node25</title>
<path fill="none" stroke="midnightblue" d="M1641.95,-131.54C1345.23,-129.13 39.55,-116.84 10.5,-87 -6.13,-69.92 13.1,-43.71 29.21,-26.97"/>
<polygon fill="midnightblue" stroke="midnightblue" points="32.03,-29.1 36.7,-19.59 27.12,-24.11 32.03,-29.1"/>
</g>
<!-- Node26 -->
<g id="node26" class="node">
<title>Node26</title>
<g id="a_node26"><a xlink:title=" ">
<polygon fill="none" stroke="#bfbfbf" points="431.5,-62 431.5,-81 563.5,-81 563.5,-62 431.5,-62"/>
<text text-anchor="middle" x="497.5" y="-69" font-family="FreeSans.ttf" font-size="10.00">gazebo/common/PID.hh</text>
</a>
</g>
</g>
<!-- Node2&#45;&gt;Node26 -->
<g id="edge27" class="edge">
<title>Node2&#45;&gt;Node26</title>
<path fill="none" stroke="midnightblue" d="M1641.79,-130.81C1439.73,-126.61 782.58,-111.35 572.5,-87 563.79,-85.99 554.58,-84.53 545.7,-82.93"/>
<polygon fill="midnightblue" stroke="midnightblue" points="546.34,-79.49 535.87,-81.07 545.04,-86.37 546.34,-79.49"/>
</g>
<!-- Node27 -->
<g id="node27" class="node">
<title>Node27</title>
<g id="a_node27"><a xlink:title=" ">
<polygon fill="none" stroke="#bfbfbf" points="581.5,-62 581.5,-81 721.5,-81 721.5,-62 581.5,-62"/>
<text text-anchor="middle" x="651.5" y="-69" font-family="FreeSans.ttf" font-size="10.00">gazebo/common/Time.hh</text>
</a>
</g>
</g>
<!-- Node2&#45;&gt;Node27 -->
<g id="edge28" class="edge">
<title>Node2&#45;&gt;Node27</title>
<path fill="none" stroke="midnightblue" d="M1641.89,-132.03C1489.59,-131.52 1074,-126.3 730.5,-87 721.24,-85.94 711.43,-84.45 701.99,-82.82"/>
<polygon fill="midnightblue" stroke="midnightblue" points="702.4,-79.33 691.94,-81.01 701.16,-86.22 702.4,-79.33"/>
</g>
<!-- Node28 -->
<g id="node28" class="node">
<title>Node28</title>
<g id="a_node28"><a xlink:title=" ">
<polygon fill="none" stroke="#bfbfbf" points="3403.5,-62 3403.5,-81 3447.5,-81 3447.5,-62 3403.5,-62"/>
<text text-anchor="middle" x="3425.5" y="-69" font-family="FreeSans.ttf" font-size="10.00">string</text>
</a>
</g>
</g>
<!-- Node2&#45;&gt;Node28 -->
<g id="edge29" class="edge">
<title>Node2&#45;&gt;Node28</title>
<path fill="none" stroke="midnightblue" d="M1761.42,-131.82C2043.5,-130.75 3232.14,-124.1 3393.5,-87 3395.86,-86.46 3398.25,-85.74 3400.62,-84.9"/>
<polygon fill="midnightblue" stroke="midnightblue" points="3402.08,-88.08 3409.99,-81.03 3399.41,-81.61 3402.08,-88.08"/>
</g>
<!-- Node29 -->
<g id="node29" class="node">
<title>Node29</title>
<g id="a_node29"><a xlink:title=" ">
<polygon fill="none" stroke="#bfbfbf" points="740,-62 740,-81 805,-81 805,-62 740,-62"/>
<text text-anchor="middle" x="772.5" y="-69" font-family="FreeSans.ttf" font-size="10.00">functional</text>
</a>
</g>
</g>
<!-- Node2&#45;&gt;Node29 -->
<g id="edge30" class="edge">
<title>Node2&#45;&gt;Node29</title>
<path fill="none" stroke="midnightblue" d="M1641.81,-131.22C1469.37,-128.61 972.69,-118.49 813.5,-87 809.99,-86.31 806.37,-85.37 802.8,-84.31"/>
<polygon fill="midnightblue" stroke="midnightblue" points="803.62,-80.89 793.03,-81.07 801.42,-87.54 803.62,-80.89"/>
</g>
<!-- Node30 -->
<g id="node30" class="node">
<title>Node30</title>
<g id="a_node30"><a xlink:title=" ">
<polygon fill="none" stroke="#bfbfbf" points="823,-62 823,-81 870,-81 870,-62 823,-62"/>
<text text-anchor="middle" x="846.5" y="-69" font-family="FreeSans.ttf" font-size="10.00">vector</text>
</a>
</g>
</g>
<!-- Node2&#45;&gt;Node30 -->
<g id="edge32" class="edge">
<title>Node2&#45;&gt;Node30</title>
<path fill="none" stroke="midnightblue" d="M1641.98,-131.59C1478.2,-130.01 1023.4,-122.47 878.5,-87 876.29,-86.46 874.04,-85.77 871.81,-84.98"/>
<polygon fill="midnightblue" stroke="midnightblue" points="872.94,-81.66 862.36,-81.09 870.27,-88.13 872.94,-81.66"/>
</g>
<!-- Node21&#45;&gt;Node22 -->
<g id="edge21" class="edge">
<title>Node21&#45;&gt;Node22</title>
<path fill="none" stroke="midnightblue" d="M2626.48,-61.98C2617.91,-52.87 2604.14,-38.24 2593.54,-26.98"/>
<polygon fill="midnightblue" stroke="midnightblue" points="2595.91,-24.39 2586.51,-19.51 2590.81,-29.19 2595.91,-24.39"/>
</g>
<!-- Node23 -->
<g id="node23" class="node">
<title>Node23</title>
<g id="a_node23"><a xlink:title=" ">
<polygon fill="none" stroke="#bfbfbf" points="2666.5,-0.5 2666.5,-19.5 2714.5,-19.5 2714.5,-0.5 2666.5,-0.5"/>
<text text-anchor="middle" x="2690.5" y="-7.5" font-family="FreeSans.ttf" font-size="10.00">mutex</text>
</a>
</g>
</g>
<!-- Node21&#45;&gt;Node23 -->
<g id="edge22" class="edge">
<title>Node21&#45;&gt;Node23</title>
<path fill="none" stroke="midnightblue" d="M2642.52,-61.98C2651.09,-52.87 2664.86,-38.24 2675.46,-26.98"/>
<polygon fill="midnightblue" stroke="midnightblue" points="2678.19,-29.19 2682.49,-19.51 2673.09,-24.39 2678.19,-29.19"/>
</g>
<!-- Node24&#45;&gt;Node20 -->
<g id="edge24" class="edge">
<title>Node24&#45;&gt;Node20</title>
<path fill="none" stroke="midnightblue" d="M146.61,-61.98C160.65,-59.68 176.17,-57.43 190.5,-56 582.78,-16.79 1054.25,-11.36 1244.13,-10.87"/>
<polygon fill="midnightblue" stroke="midnightblue" points="1244.33,-14.37 1254.32,-10.85 1244.31,-7.37 1244.33,-14.37"/>
</g>
<!-- Node24&#45;&gt;Node22 -->
<g id="edge25" class="edge">
<title>Node24&#45;&gt;Node22</title>
<path fill="none" stroke="midnightblue" d="M145.67,-61.95C159.95,-59.58 175.84,-57.31 190.5,-56 424.04,-35.09 2109.01,-16 2498.36,-11.84"/>
<polygon fill="midnightblue" stroke="midnightblue" points="2498.45,-15.34 2508.41,-11.73 2498.37,-8.34 2498.45,-15.34"/>
</g>
<!-- Node24&#45;&gt;Node25 -->
<g id="edge26" class="edge">
<title>Node24&#45;&gt;Node25</title>
<path fill="none" stroke="midnightblue" d="M92.76,-61.98C84.5,-52.87 71.22,-38.24 61.01,-26.98"/>
<polygon fill="midnightblue" stroke="midnightblue" points="63.53,-24.56 54.22,-19.51 58.35,-29.27 63.53,-24.56"/>
</g>
<!-- Node31&#45;&gt;Node28 -->
<g id="edge34" class="edge">
<title>Node31&#45;&gt;Node28</title>
<path fill="none" stroke="midnightblue" d="M3398.08,-123.48C3402.74,-114.82 3410.09,-101.15 3416.01,-90.15"/>
<polygon fill="midnightblue" stroke="midnightblue" points="3419.27,-91.47 3420.92,-81.01 3413.1,-88.16 3419.27,-91.47"/>
</g>
<!-- Node31&#45;&gt;Node32 -->
<g id="edge35" class="edge">
<title>Node31&#45;&gt;Node32</title>
<path fill="none" stroke="midnightblue" d="M3407.25,-123.48C3422.87,-113.8 3448.56,-97.87 3467.08,-86.39"/>
<polygon fill="midnightblue" stroke="midnightblue" points="3469.12,-89.25 3475.77,-81.01 3465.43,-83.3 3469.12,-89.25"/>
</g>
<!-- Node35 -->
<g id="node35" class="node">
<title>Node35</title>
<g id="a_node35"><a xlink:title=" ">
<polygon fill="none" stroke="#bfbfbf" points="3594.5,-62 3594.5,-81 3732.5,-81 3732.5,-62 3594.5,-62"/>
<text text-anchor="middle" x="3663.5" y="-69" font-family="FreeSans.ttf" font-size="10.00">yarp/os/LogComponent.h</text>
</a>
</g>
</g>
<!-- Node34&#45;&gt;Node35 -->
<g id="edge41" class="edge">
<title>Node34&#45;&gt;Node35</title>
<path fill="none" stroke="midnightblue" d="M3684.06,-123.48C3680.6,-114.9 3675.17,-101.43 3670.75,-90.48"/>
<polygon fill="midnightblue" stroke="midnightblue" points="3673.92,-88.97 3666.93,-81.01 3667.43,-91.59 3673.92,-88.97"/>
</g>
<!-- Node36 -->
<g id="node36" class="node">
<title>Node36</title>
<g id="a_node36"><a xlink:title=" ">
<polygon fill="none" stroke="#bfbfbf" points="3751,-62 3751,-81 3868,-81 3868,-62 3751,-62"/>
<text text-anchor="middle" x="3809.5" y="-69" font-family="FreeSans.ttf" font-size="10.00">yarp/os/LogStream.h</text>
</a>
</g>
</g>
<!-- Node34&#45;&gt;Node36 -->
<g id="edge42" class="edge">
<title>Node34&#45;&gt;Node36</title>
<path fill="none" stroke="midnightblue" d="M3704.98,-123.48C3725.36,-113.53 3759.28,-96.99 3782.92,-85.46"/>
<polygon fill="midnightblue" stroke="midnightblue" points="3784.6,-88.54 3792.05,-81.01 3781.53,-82.25 3784.6,-88.54"/>
</g>
</g>
</svg>
