<?xml version="1.0" encoding="UTF-8" standalone="no"?>
<!DOCTYPE svg PUBLIC "-//W3C//DTD SVG 1.1//EN"
 "http://www.w3.org/Graphics/SVG/1.1/DTD/svg11.dtd">
<!-- Generated by graphviz version 5.0.0 (20220707.2338)
 -->
<!-- Title: ContactLoadCellArray.cc Pages: 1 -->
<svg width="4368pt" height="140pt"
 viewBox="0.00 0.00 4367.50 140.00" xmlns="http://www.w3.org/2000/svg" xmlns:xlink="http://www.w3.org/1999/xlink">
<g id="graph0" class="graph" transform="scale(1 1) rotate(0) translate(4 136)">
<title>ContactLoadCellArray.cc</title>
<!-- Node1 -->
<g id="node1" class="node">
<title>Node1</title>
<g id="a_node1"><a xlink:title=" ">
<polygon fill="#bfbfbf" stroke="black" points="1403.5,-112.5 1403.5,-131.5 1537.5,-131.5 1537.5,-112.5 1403.5,-112.5"/>
<text text-anchor="middle" x="1470.5" y="-119.5" font-family="FreeSans.ttf" font-size="10.00">ContactLoadCellArray.cc</text>
</a>
</g>
</g>
<!-- Node2 -->
<g id="node2" class="node">
<title>Node2</title>
<g id="a_node2"><a xlink:href="ContactLoadCellArrayDriver_8h.html" target="_top" xlink:title=" ">
<polygon fill="none" stroke="black" points="2543,-56.5 2543,-75.5 2704,-75.5 2704,-56.5 2543,-56.5"/>
<text text-anchor="middle" x="2623.5" y="-63.5" font-family="FreeSans.ttf" font-size="10.00">ContactLoadCellArrayDriver.h</text>
</a>
</g>
</g>
<!-- Node1&#45;&gt;Node2 -->
<g id="edge1" class="edge">
<title>Node1&#45;&gt;Node2</title>
<path fill="none" stroke="midnightblue" d="M1537.9,-117.84C1734.77,-108.62 2309.12,-81.72 2532.83,-71.25"/>
<polygon fill="midnightblue" stroke="midnightblue" points="2533.07,-74.74 2542.89,-70.78 2532.74,-67.75 2533.07,-74.74"/>
</g>
<!-- Node22 -->
<g id="node22" class="node">
<title>Node22</title>
<g id="a_node22"><a xlink:href="ContactLoadCellArray_8hh.html" target="_top" xlink:title=" ">
<polygon fill="none" stroke="black" points="603.5,-56.5 603.5,-75.5 739.5,-75.5 739.5,-56.5 603.5,-56.5"/>
<text text-anchor="middle" x="671.5" y="-63.5" font-family="FreeSans.ttf" font-size="10.00">ContactLoadCellArray.hh</text>
</a>
</g>
</g>
<!-- Node1&#45;&gt;Node22 -->
<g id="edge21" class="edge">
<title>Node1&#45;&gt;Node22</title>
<path fill="none" stroke="midnightblue" d="M1403.22,-118.02C1277.2,-112.18 996.79,-97.93 750.15,-76.1"/>
<polygon fill="midnightblue" stroke="midnightblue" points="750.19,-72.59 739.91,-75.19 749.56,-79.56 750.19,-72.59"/>
</g>
<!-- Node23 -->
<g id="node23" class="node">
<title>Node23</title>
<g id="a_node23"><a xlink:title=" ">
<polygon fill="none" stroke="#bfbfbf" points="65.5,-0.5 65.5,-19.5 109.5,-19.5 109.5,-0.5 65.5,-0.5"/>
<text text-anchor="middle" x="87.5" y="-7.5" font-family="FreeSans.ttf" font-size="10.00">string</text>
</a>
</g>
</g>
<!-- Node1&#45;&gt;Node23 -->
<g id="edge46" class="edge">
<title>Node1&#45;&gt;Node23</title>
<path fill="none" stroke="midnightblue" d="M1403.36,-119.06C1256.49,-114.48 895.71,-101.43 594.5,-76 385.56,-58.36 329.03,-62.16 119.82,-19.98"/>
<polygon fill="midnightblue" stroke="midnightblue" points="120.24,-16.49 109.74,-17.93 118.85,-23.35 120.24,-16.49"/>
</g>
<!-- Node28 -->
<g id="node28" class="node">
<title>Node28</title>
<g id="a_node28"><a xlink:href="Handler_8hh.html" target="_top" xlink:title=" ">
<polygon fill="none" stroke="black" points="1256.5,-56.5 1256.5,-75.5 1420.5,-75.5 1420.5,-56.5 1256.5,-56.5"/>
<text text-anchor="middle" x="1338.5" y="-63.5" font-family="FreeSans.ttf" font-size="10.00">GazeboYarpPlugins/Handler.hh</text>
</a>
</g>
</g>
<!-- Node1&#45;&gt;Node28 -->
<g id="edge28" class="edge">
<title>Node1&#45;&gt;Node28</title>
<path fill="none" stroke="midnightblue" d="M1449.58,-112.44C1427.76,-103.52 1393.35,-89.44 1368.61,-79.32"/>
<polygon fill="midnightblue" stroke="midnightblue" points="1369.9,-76.06 1359.32,-75.52 1367.25,-82.54 1369.9,-76.06"/>
</g>
<!-- Node31 -->
<g id="node31" class="node">
<title>Node31</title>
<g id="a_node31"><a xlink:title=" ">
<polygon fill="none" stroke="#bfbfbf" points="1509.5,-0.5 1509.5,-19.5 1631.5,-19.5 1631.5,-0.5 1509.5,-0.5"/>
<text text-anchor="middle" x="1570.5" y="-7.5" font-family="FreeSans.ttf" font-size="10.00">yarp/dev/PolyDriver.h</text>
</a>
</g>
</g>
<!-- Node1&#45;&gt;Node31 -->
<g id="edge44" class="edge">
<title>Node1&#45;&gt;Node31</title>
<path fill="none" stroke="midnightblue" d="M1478.35,-112.37C1495.07,-93.97 1534.44,-50.67 1555.91,-27.05"/>
<polygon fill="midnightblue" stroke="midnightblue" points="1558.55,-29.35 1562.69,-19.59 1553.37,-24.64 1558.55,-29.35"/>
</g>
<!-- Node33 -->
<g id="node33" class="node">
<title>Node33</title>
<g id="a_node33"><a xlink:href="common_8h.html" target="_top" xlink:title=" ">
<polygon fill="none" stroke="black" points="5.5,-56.5 5.5,-75.5 169.5,-75.5 169.5,-56.5 5.5,-56.5"/>
<text text-anchor="middle" x="87.5" y="-63.5" font-family="FreeSans.ttf" font-size="10.00">GazeboYarpPlugins/common.h</text>
</a>
</g>
</g>
<!-- Node1&#45;&gt;Node33 -->
<g id="edge36" class="edge">
<title>Node1&#45;&gt;Node33</title>
<path fill="none" stroke="midnightblue" d="M1403.33,-118.38C1176.72,-109.53 440.1,-80.77 179.71,-70.6"/>
<polygon fill="midnightblue" stroke="midnightblue" points="179.66,-67.1 169.54,-70.2 179.39,-74.09 179.66,-67.1"/>
</g>
<!-- Node35 -->
<g id="node35" class="node">
<title>Node35</title>
<g id="a_node35"><a xlink:href="ConfHelpers_8hh.html" target="_top" xlink:title=" ">
<polygon fill="none" stroke="black" points="758,-56.5 758,-75.5 945,-75.5 945,-56.5 758,-56.5"/>
<text text-anchor="middle" x="851.5" y="-63.5" font-family="FreeSans.ttf" font-size="10.00">GazeboYarpPlugins/ConfHelpers.hh</text>
</a>
</g>
</g>
<!-- Node1&#45;&gt;Node35 -->
<g id="edge39" class="edge">
<title>Node1&#45;&gt;Node35</title>
<path fill="none" stroke="midnightblue" d="M1403.37,-115.14C1295.5,-105.73 1082.77,-87.18 955.25,-76.05"/>
<polygon fill="midnightblue" stroke="midnightblue" points="955.34,-72.55 945.08,-75.16 954.73,-79.52 955.34,-72.55"/>
</g>
<!-- Node38 -->
<g id="node38" class="node">
<title>Node38</title>
<g id="a_node38"><a xlink:title=" ">
<polygon fill="none" stroke="#bfbfbf" points="2722,-56.5 2722,-75.5 2877,-75.5 2877,-56.5 2722,-56.5"/>
<text text-anchor="middle" x="2799.5" y="-63.5" font-family="FreeSans.ttf" font-size="10.00">yarp/dev/IMultipleWrapper.h</text>
</a>
</g>
</g>
<!-- Node1&#45;&gt;Node38 -->
<g id="edge45" class="edge">
<title>Node1&#45;&gt;Node38</title>
<path fill="none" stroke="midnightblue" d="M1537.62,-120.18C1722.89,-117.56 2257.28,-107.68 2711.66,-76.08"/>
<polygon fill="midnightblue" stroke="midnightblue" points="2711.97,-79.57 2721.71,-75.38 2711.49,-72.59 2711.97,-79.57"/>
</g>
<!-- Node39 -->
<g id="node39" class="node">
<title>Node39</title>
<g id="a_node39"><a xlink:title=" ">
<polygon fill="none" stroke="#bfbfbf" points="2895.5,-56.5 2895.5,-75.5 2977.5,-75.5 2977.5,-56.5 2895.5,-56.5"/>
<text text-anchor="middle" x="2936.5" y="-63.5" font-family="FreeSans.ttf" font-size="10.00">yarp/os/Log.h</text>
</a>
</g>
</g>
<!-- Node1&#45;&gt;Node39 -->
<g id="edge47" class="edge">
<title>Node1&#45;&gt;Node39</title>
<path fill="none" stroke="midnightblue" d="M1537.63,-120.17C1778.51,-116.99 2599.65,-104.38 2885.03,-75.96"/>
<polygon fill="midnightblue" stroke="midnightblue" points="2885.78,-79.4 2895.37,-74.9 2885.06,-72.44 2885.78,-79.4"/>
</g>
<!-- Node40 -->
<g id="node40" class="node">
<title>Node40</title>
<g id="a_node40"><a xlink:title=" ">
<polygon fill="none" stroke="#bfbfbf" points="2996,-56.5 2996,-75.5 3113,-75.5 3113,-56.5 2996,-56.5"/>
<text text-anchor="middle" x="3054.5" y="-63.5" font-family="FreeSans.ttf" font-size="10.00">yarp/os/LogStream.h</text>
</a>
</g>
</g>
<!-- Node1&#45;&gt;Node40 -->
<g id="edge48" class="edge">
<title>Node1&#45;&gt;Node40</title>
<path fill="none" stroke="midnightblue" d="M1537.5,-121.44C1748.76,-122.32 2419.87,-121.16 2985.94,-75.94"/>
<polygon fill="midnightblue" stroke="midnightblue" points="2986.25,-79.43 2995.94,-75.14 2985.69,-72.45 2986.25,-79.43"/>
</g>
<!-- Node3 -->
<g id="node3" class="node">
<title>Node3</title>
<g id="a_node3"><a xlink:title=" ">
<polygon fill="none" stroke="#bfbfbf" points="3131.5,-0.5 3131.5,-19.5 3265.5,-19.5 3265.5,-0.5 3131.5,-0.5"/>
<text text-anchor="middle" x="3198.5" y="-7.5" font-family="FreeSans.ttf" font-size="10.00">yarp/dev/DeviceDriver.h</text>
</a>
</g>
</g>
<!-- Node2&#45;&gt;Node3 -->
<g id="edge2" class="edge">
<title>Node2&#45;&gt;Node3</title>
<path fill="none" stroke="midnightblue" d="M2704.45,-56.86C2707.5,-56.57 2710.53,-56.28 2713.5,-56 2891.9,-39.23 2939.28,-38.74 3121.2,-20.11"/>
<polygon fill="midnightblue" stroke="midnightblue" points="3121.79,-23.57 3131.38,-19.06 3121.07,-16.6 3121.79,-23.57"/>
</g>
<!-- Node4 -->
<g id="node4" class="node">
<title>Node4</title>
<g id="a_node4"><a xlink:title=" ">
<polygon fill="none" stroke="#bfbfbf" points="3283.5,-0.5 3283.5,-19.5 3423.5,-19.5 3423.5,-0.5 3283.5,-0.5"/>
<text text-anchor="middle" x="3353.5" y="-7.5" font-family="FreeSans.ttf" font-size="10.00">yarp/dev/IAnalogSensor.h</text>
</a>
</g>
</g>
<!-- Node2&#45;&gt;Node4 -->
<g id="edge3" class="edge">
<title>Node2&#45;&gt;Node4</title>
<path fill="none" stroke="midnightblue" d="M2704.44,-56.77C2707.5,-56.5 2710.53,-56.24 2713.5,-56 2959.23,-35.84 3023.94,-41.98 3273.22,-20.07"/>
<polygon fill="midnightblue" stroke="midnightblue" points="3273.65,-23.55 3283.31,-19.18 3273.04,-16.57 3273.65,-23.55"/>
</g>
<!-- Node5 -->
<g id="node5" class="node">
<title>Node5</title>
<g id="a_node5"><a xlink:title=" ">
<polygon fill="none" stroke="#bfbfbf" points="3442,-0.5 3442,-19.5 3591,-19.5 3591,-0.5 3442,-0.5"/>
<text text-anchor="middle" x="3516.5" y="-7.5" font-family="FreeSans.ttf" font-size="10.00">yarp/dev/IPreciselyTimed.h</text>
</a>
</g>
</g>
<!-- Node2&#45;&gt;Node5 -->
<g id="edge4" class="edge">
<title>Node2&#45;&gt;Node5</title>
<path fill="none" stroke="midnightblue" d="M2704.44,-56.72C2707.5,-56.46 2710.52,-56.22 2713.5,-56 3029.29,-32.32 3111.84,-44.79 3431.84,-20"/>
<polygon fill="midnightblue" stroke="midnightblue" points="3432.17,-23.49 3441.87,-19.22 3431.62,-16.51 3432.17,-23.49"/>
</g>
<!-- Node6 -->
<g id="node6" class="node">
<title>Node6</title>
<g id="a_node6"><a xlink:title=" ">
<polygon fill="none" stroke="#bfbfbf" points="3609.5,-0.5 3609.5,-19.5 3705.5,-19.5 3705.5,-0.5 3609.5,-0.5"/>
<text text-anchor="middle" x="3657.5" y="-7.5" font-family="FreeSans.ttf" font-size="10.00">yarp/os/Stamp.h</text>
</a>
</g>
</g>
<!-- Node2&#45;&gt;Node6 -->
<g id="edge5" class="edge">
<title>Node2&#45;&gt;Node6</title>
<path fill="none" stroke="midnightblue" d="M2704.43,-56.68C2707.49,-56.44 2710.52,-56.21 2713.5,-56 3103.71,-28.59 3206.12,-58.32 3599.12,-20.01"/>
<polygon fill="midnightblue" stroke="midnightblue" points="3599.74,-23.47 3609.35,-19.01 3599.05,-16.5 3599.74,-23.47"/>
</g>
<!-- Node7 -->
<g id="node7" class="node">
<title>Node7</title>
<g id="a_node7"><a xlink:title=" ">
<polygon fill="none" stroke="#bfbfbf" points="3724,-0.5 3724,-19.5 3823,-19.5 3823,-0.5 3724,-0.5"/>
<text text-anchor="middle" x="3773.5" y="-7.5" font-family="FreeSans.ttf" font-size="10.00">yarp/sig/Matrix.h</text>
</a>
</g>
</g>
<!-- Node2&#45;&gt;Node7 -->
<g id="edge6" class="edge">
<title>Node2&#45;&gt;Node7</title>
<path fill="none" stroke="midnightblue" d="M2704.43,-56.66C2707.49,-56.42 2710.52,-56.2 2713.5,-56 3154.29,-26.06 3269.54,-61.1 3713.76,-19.93"/>
<polygon fill="midnightblue" stroke="midnightblue" points="3714.35,-23.39 3723.98,-18.98 3713.69,-16.42 3714.35,-23.39"/>
</g>
<!-- Node8 -->
<g id="node8" class="node">
<title>Node8</title>
<g id="a_node8"><a xlink:title=" ">
<polygon fill="none" stroke="#bfbfbf" points="1122.5,-0.5 1122.5,-19.5 1268.5,-19.5 1268.5,-0.5 1122.5,-0.5"/>
<text text-anchor="middle" x="1195.5" y="-7.5" font-family="FreeSans.ttf" font-size="10.00">gazebo/common/Plugin.hh</text>
</a>
</g>
</g>
<!-- Node2&#45;&gt;Node8 -->
<g id="edge7" class="edge">
<title>Node2&#45;&gt;Node8</title>
<path fill="none" stroke="midnightblue" d="M2542.98,-64.44C2335.35,-62.53 1764.63,-54.38 1278.81,-20.04"/>
<polygon fill="midnightblue" stroke="midnightblue" points="1279.02,-16.54 1268.79,-19.32 1278.52,-23.52 1279.02,-16.54"/>
</g>
<!-- Node9 -->
<g id="node9" class="node">
<title>Node9</title>
<g id="a_node9"><a xlink:title=" ">
<polygon fill="none" stroke="#bfbfbf" points="3841.5,-0.5 3841.5,-19.5 3999.5,-19.5 3999.5,-0.5 3841.5,-0.5"/>
<text text-anchor="middle" x="3920.5" y="-7.5" font-family="FreeSans.ttf" font-size="10.00">gazebo/common/common.hh</text>
</a>
</g>
</g>
<!-- Node2&#45;&gt;Node9 -->
<g id="edge8" class="edge">
<title>Node2&#45;&gt;Node9</title>
<path fill="none" stroke="midnightblue" d="M2704.43,-56.65C2707.49,-56.41 2710.52,-56.2 2713.5,-56 3206.62,-23.45 3334.29,-52.92 3831.06,-20.04"/>
<polygon fill="midnightblue" stroke="midnightblue" points="3831.62,-23.51 3841.37,-19.36 3831.16,-16.53 3831.62,-23.51"/>
</g>
<!-- Node10 -->
<g id="node10" class="node">
<title>Node10</title>
<g id="a_node10"><a xlink:title=" ">
<polygon fill="none" stroke="#bfbfbf" points="4018,-0.5 4018,-19.5 4161,-19.5 4161,-0.5 4018,-0.5"/>
<text text-anchor="middle" x="4089.5" y="-7.5" font-family="FreeSans.ttf" font-size="10.00">gazebo/sensors/Sensor.hh</text>
</a>
</g>
</g>
<!-- Node2&#45;&gt;Node10 -->
<g id="edge9" class="edge">
<title>Node2&#45;&gt;Node10</title>
<path fill="none" stroke="midnightblue" d="M2704.43,-56.63C2707.49,-56.4 2710.52,-56.19 2713.5,-56 3284.74,-19.55 3432.38,-59.35 4007.76,-19.98"/>
<polygon fill="midnightblue" stroke="midnightblue" points="4008.24,-23.45 4017.98,-19.27 4007.76,-16.47 4008.24,-23.45"/>
</g>
<!-- Node11 -->
<g id="node11" class="node">
<title>Node11</title>
<g id="a_node11"><a xlink:title=" ">
<polygon fill="none" stroke="#bfbfbf" points="4179.5,-0.5 4179.5,-19.5 4359.5,-19.5 4359.5,-0.5 4179.5,-0.5"/>
<text text-anchor="middle" x="4269.5" y="-7.5" font-family="FreeSans.ttf" font-size="10.00">gazebo/sensors/ContactSensor.hh</text>
</a>
</g>
</g>
<!-- Node2&#45;&gt;Node11 -->
<g id="edge10" class="edge">
<title>Node2&#45;&gt;Node11</title>
<path fill="none" stroke="midnightblue" d="M2704.43,-56.62C2707.49,-56.39 2710.52,-56.19 2713.5,-56 3356.69,-15.95 3522.13,-56.92 4169.37,-20.02"/>
<polygon fill="midnightblue" stroke="midnightblue" points="4169.63,-23.51 4179.41,-19.44 4169.23,-16.52 4169.63,-23.51"/>
</g>
<!-- Node12 -->
<g id="node12" class="node">
<title>Node12</title>
<g id="a_node12"><a xlink:title=" ">
<polygon fill="none" stroke="#bfbfbf" points="1716,-0.5 1716,-19.5 1901,-19.5 1901,-0.5 1716,-0.5"/>
<text text-anchor="middle" x="1808.5" y="-7.5" font-family="FreeSans.ttf" font-size="10.00">gazebo/sensors/SensorManager.hh</text>
</a>
</g>
</g>
<!-- Node2&#45;&gt;Node12 -->
<g id="edge11" class="edge">
<title>Node2&#45;&gt;Node12</title>
<path fill="none" stroke="midnightblue" d="M2542.99,-60.58C2412.73,-53.27 2147.42,-37.79 1911.22,-20.04"/>
<polygon fill="midnightblue" stroke="midnightblue" points="1911.29,-16.53 1901.06,-19.27 1910.77,-23.51 1911.29,-16.53"/>
</g>
<!-- Node13 -->
<g id="node13" class="node">
<title>Node13</title>
<g id="a_node13"><a xlink:title=" ">
<polygon fill="none" stroke="#bfbfbf" points="1919,-0.5 1919,-19.5 2066,-19.5 2066,-0.5 1919,-0.5"/>
<text text-anchor="middle" x="1992.5" y="-7.5" font-family="FreeSans.ttf" font-size="10.00">gazebo/physics/Contact.hh</text>
</a>
</g>
</g>
<!-- Node2&#45;&gt;Node13 -->
<g id="edge12" class="edge">
<title>Node2&#45;&gt;Node13</title>
<path fill="none" stroke="midnightblue" d="M2542.66,-59.02C2437.74,-51.12 2248.7,-36.37 2076.28,-20.05"/>
<polygon fill="midnightblue" stroke="midnightblue" points="2076.54,-16.56 2066.26,-19.1 2075.88,-23.53 2076.54,-16.56"/>
</g>
<!-- Node14 -->
<g id="node14" class="node">
<title>Node14</title>
<g id="a_node14"><a xlink:title=" ">
<polygon fill="none" stroke="#bfbfbf" points="2084.5,-0.5 2084.5,-19.5 2214.5,-19.5 2214.5,-0.5 2084.5,-0.5"/>
<text text-anchor="middle" x="2149.5" y="-7.5" font-family="FreeSans.ttf" font-size="10.00">gazebo/physics/Link.hh</text>
</a>
</g>
</g>
<!-- Node2&#45;&gt;Node14 -->
<g id="edge13" class="edge">
<title>Node2&#45;&gt;Node14</title>
<path fill="none" stroke="midnightblue" d="M2546.05,-56.5C2467.73,-47.85 2342.91,-33.94 2225.14,-20.18"/>
<polygon fill="midnightblue" stroke="midnightblue" points="2225.21,-16.67 2214.87,-18.98 2224.39,-23.62 2225.21,-16.67"/>
</g>
<!-- Node15 -->
<g id="node15" class="node">
<title>Node15</title>
<g id="a_node15"><a xlink:title=" ">
<polygon fill="none" stroke="#bfbfbf" points="2232.5,-0.5 2232.5,-19.5 2376.5,-19.5 2376.5,-0.5 2232.5,-0.5"/>
<text text-anchor="middle" x="2304.5" y="-7.5" font-family="FreeSans.ttf" font-size="10.00">gazebo/physics/Inertial.hh</text>
</a>
</g>
</g>
<!-- Node2&#45;&gt;Node15 -->
<g id="edge14" class="edge">
<title>Node2&#45;&gt;Node15</title>
<path fill="none" stroke="midnightblue" d="M2572.95,-56.44C2516.49,-46.89 2425.13,-31.42 2364.93,-21.23"/>
<polygon fill="midnightblue" stroke="midnightblue" points="2365.25,-17.73 2354.81,-19.52 2364.09,-24.64 2365.25,-17.73"/>
</g>
<!-- Node16 -->
<g id="node16" class="node">
<title>Node16</title>
<g id="a_node16"><a xlink:title=" ">
<polygon fill="none" stroke="#bfbfbf" points="2394.5,-0.5 2394.5,-19.5 2540.5,-19.5 2540.5,-0.5 2394.5,-0.5"/>
<text text-anchor="middle" x="2467.5" y="-7.5" font-family="FreeSans.ttf" font-size="10.00">gazebo/physics/physics.hh</text>
</a>
</g>
</g>
<!-- Node2&#45;&gt;Node16 -->
<g id="edge15" class="edge">
<title>Node2&#45;&gt;Node16</title>
<path fill="none" stroke="midnightblue" d="M2598.78,-56.44C2572.65,-47.4 2531.24,-33.06 2501.92,-22.92"/>
<polygon fill="midnightblue" stroke="midnightblue" points="2502.7,-19.48 2492.1,-19.52 2500.41,-26.1 2502.7,-19.48"/>
</g>
<!-- Node17 -->
<g id="node17" class="node">
<title>Node17</title>
<g id="a_node17"><a xlink:title=" ">
<polygon fill="none" stroke="#bfbfbf" points="2559,-0.5 2559,-19.5 2688,-19.5 2688,-0.5 2559,-0.5"/>
<text text-anchor="middle" x="2623.5" y="-7.5" font-family="FreeSans.ttf" font-size="10.00">ignition/math/Pose3.hh</text>
</a>
</g>
</g>
<!-- Node2&#45;&gt;Node17 -->
<g id="edge16" class="edge">
<title>Node2&#45;&gt;Node17</title>
<path fill="none" stroke="midnightblue" d="M2623.5,-56.08C2623.5,-49.01 2623.5,-38.86 2623.5,-29.99"/>
<polygon fill="midnightblue" stroke="midnightblue" points="2627,-29.75 2623.5,-19.75 2620,-29.75 2627,-29.75"/>
</g>
<!-- Node18 -->
<g id="node18" class="node">
<title>Node18</title>
<g id="a_node18"><a xlink:title=" ">
<polygon fill="none" stroke="#bfbfbf" points="2706,-0.5 2706,-19.5 2843,-19.5 2843,-0.5 2706,-0.5"/>
<text text-anchor="middle" x="2774.5" y="-7.5" font-family="FreeSans.ttf" font-size="10.00">ignition/math/Vector3.hh</text>
</a>
</g>
</g>
<!-- Node2&#45;&gt;Node18 -->
<g id="edge17" class="edge">
<title>Node2&#45;&gt;Node18</title>
<path fill="none" stroke="midnightblue" d="M2647.43,-56.44C2672.72,-47.4 2712.8,-33.06 2741.18,-22.92"/>
<polygon fill="midnightblue" stroke="midnightblue" points="2742.45,-26.18 2750.69,-19.52 2740.09,-19.59 2742.45,-26.18"/>
</g>
<!-- Node19 -->
<g id="node19" class="node">
<title>Node19</title>
<g id="a_node19"><a xlink:title=" ">
<polygon fill="none" stroke="#bfbfbf" points="2861,-0.5 2861,-19.5 2998,-19.5 2998,-0.5 2861,-0.5"/>
<text text-anchor="middle" x="2929.5" y="-7.5" font-family="FreeSans.ttf" font-size="10.00">ignition/math/Matrix3.hh</text>
</a>
</g>
</g>
<!-- Node2&#45;&gt;Node19 -->
<g id="edge18" class="edge">
<title>Node2&#45;&gt;Node19</title>
<path fill="none" stroke="midnightblue" d="M2671.99,-56.44C2726.04,-46.9 2813.43,-31.48 2871.17,-21.29"/>
<polygon fill="midnightblue" stroke="midnightblue" points="2872,-24.7 2881.24,-19.52 2870.78,-17.81 2872,-24.7"/>
</g>
<!-- Node20 -->
<g id="node20" class="node">
<title>Node20</title>
<g id="a_node20"><a xlink:title=" ">
<polygon fill="none" stroke="#bfbfbf" points="3016,-0.5 3016,-19.5 3113,-19.5 3113,-0.5 3016,-0.5"/>
<text text-anchor="middle" x="3064.5" y="-7.5" font-family="FreeSans.ttf" font-size="10.00">ignition/math.hh</text>
</a>
</g>
</g>
<!-- Node2&#45;&gt;Node20 -->
<g id="edge19" class="edge">
<title>Node2&#45;&gt;Node20</title>
<path fill="none" stroke="midnightblue" d="M2704.16,-56.5C2779.66,-48.32 2895.88,-35.17 3005.77,-20.2"/>
<polygon fill="midnightblue" stroke="midnightblue" points="3006.27,-23.66 3015.7,-18.84 3005.32,-16.73 3006.27,-23.66"/>
</g>
<!-- Node21 -->
<g id="node21" class="node">
<title>Node21</title>
<g id="a_node21"><a xlink:title=" ">
<polygon fill="none" stroke="#bfbfbf" points="1649.5,-0.5 1649.5,-19.5 1697.5,-19.5 1697.5,-0.5 1649.5,-0.5"/>
<text text-anchor="middle" x="1673.5" y="-7.5" font-family="FreeSans.ttf" font-size="10.00">mutex</text>
</a>
</g>
</g>
<!-- Node2&#45;&gt;Node21 -->
<g id="edge20" class="edge">
<title>Node2&#45;&gt;Node21</title>
<path fill="none" stroke="midnightblue" d="M2542.86,-63.21C2350.2,-58.57 1867.3,-44.79 1707.5,-20 1707.4,-19.98 1707.3,-19.97 1707.19,-19.95"/>
<polygon fill="midnightblue" stroke="midnightblue" points="1708,-16.54 1697.51,-18.02 1706.64,-23.41 1708,-16.54"/>
</g>
<!-- Node22&#45;&gt;Node8 -->
<g id="edge22" class="edge">
<title>Node22&#45;&gt;Node8</title>
<path fill="none" stroke="midnightblue" d="M739.51,-56.98C742.55,-56.65 745.56,-56.32 748.5,-56 906.81,-38.92 949.08,-36.84 1111.8,-20.06"/>
<polygon fill="midnightblue" stroke="midnightblue" points="1112.6,-23.5 1122.18,-18.99 1111.88,-16.54 1112.6,-23.5"/>
</g>
<!-- Node22&#45;&gt;Node23 -->
<g id="edge23" class="edge">
<title>Node22&#45;&gt;Node23</title>
<path fill="none" stroke="midnightblue" d="M603.25,-63.85C500.15,-61.15 298.61,-52.09 119.58,-19.84"/>
<polygon fill="midnightblue" stroke="midnightblue" points="120.19,-16.39 109.72,-18.03 118.93,-23.28 120.19,-16.39"/>
</g>
<!-- Node24 -->
<g id="node24" class="node">
<title>Node24</title>
<g id="a_node24"><a xlink:title=" ">
<polygon fill="none" stroke="#bfbfbf" points="826.5,-0.5 826.5,-19.5 966.5,-19.5 966.5,-0.5 826.5,-0.5"/>
<text text-anchor="middle" x="896.5" y="-7.5" font-family="FreeSans.ttf" font-size="10.00">yarp/dev/PolyDriverList.h</text>
</a>
</g>
</g>
<!-- Node22&#45;&gt;Node24 -->
<g id="edge24" class="edge">
<title>Node22&#45;&gt;Node24</title>
<path fill="none" stroke="midnightblue" d="M707.15,-56.44C746.16,-47.08 808.77,-32.06 851.22,-21.87"/>
<polygon fill="midnightblue" stroke="midnightblue" points="852.11,-25.25 861.01,-19.52 850.47,-18.45 852.11,-25.25"/>
</g>
<!-- Node25 -->
<g id="node25" class="node">
<title>Node25</title>
<g id="a_node25"><a xlink:title=" ">
<polygon fill="none" stroke="#bfbfbf" points="715,-0.5 715,-19.5 808,-19.5 808,-0.5 715,-0.5"/>
<text text-anchor="middle" x="761.5" y="-7.5" font-family="FreeSans.ttf" font-size="10.00">sdf/sdf_config.h</text>
</a>
</g>
</g>
<!-- Node22&#45;&gt;Node25 -->
<g id="edge25" class="edge">
<title>Node22&#45;&gt;Node25</title>
<path fill="none" stroke="midnightblue" d="M685.96,-56.32C700,-47.9 721.55,-34.97 738.04,-25.07"/>
<polygon fill="midnightblue" stroke="midnightblue" points="740.3,-27.8 747.08,-19.65 736.7,-21.8 740.3,-27.8"/>
</g>
<!-- Node26 -->
<g id="node26" class="node">
<title>Node26</title>
<g id="a_node26"><a xlink:title=" ">
<polygon fill="none" stroke="#bfbfbf" points="225.5,-0.5 225.5,-19.5 315.5,-19.5 315.5,-0.5 225.5,-0.5"/>
<text text-anchor="middle" x="270.5" y="-7.5" font-family="FreeSans.ttf" font-size="10.00">sdf/Element.hh</text>
</a>
</g>
</g>
<!-- Node22&#45;&gt;Node26 -->
<g id="edge26" class="edge">
<title>Node22&#45;&gt;Node26</title>
<path fill="none" stroke="midnightblue" d="M603.25,-56.89C535.39,-48.66 428.06,-35.18 325.47,-20.1"/>
<polygon fill="midnightblue" stroke="midnightblue" points="325.97,-16.63 315.56,-18.64 324.94,-23.56 325.97,-16.63"/>
</g>
<!-- Node27 -->
<g id="node27" class="node">
<title>Node27</title>
<g id="a_node27"><a xlink:title=" ">
<polygon fill="none" stroke="#bfbfbf" points="127.5,-0.5 127.5,-19.5 207.5,-19.5 207.5,-0.5 127.5,-0.5"/>
<text text-anchor="middle" x="167.5" y="-7.5" font-family="FreeSans.ttf" font-size="10.00">sdf/Param.hh</text>
</a>
</g>
</g>
<!-- Node22&#45;&gt;Node27 -->
<g id="edge27" class="edge">
<title>Node22&#45;&gt;Node27</title>
<path fill="none" stroke="midnightblue" d="M603.45,-60.04C516.4,-53.31 360.77,-39.93 217.84,-20.08"/>
<polygon fill="midnightblue" stroke="midnightblue" points="217.96,-16.56 207.57,-18.64 216.98,-23.49 217.96,-16.56"/>
</g>
<!-- Node28&#45;&gt;Node21 -->
<g id="edge32" class="edge">
<title>Node28&#45;&gt;Node21</title>
<path fill="none" stroke="midnightblue" d="M1412.16,-56.5C1471.24,-49.11 1556.42,-37.19 1639.56,-19.99"/>
<polygon fill="midnightblue" stroke="midnightblue" points="1640.36,-23.4 1649.43,-17.92 1638.92,-16.54 1640.36,-23.4"/>
</g>
<!-- Node28&#45;&gt;Node24 -->
<g id="edge34" class="edge">
<title>Node28&#45;&gt;Node24</title>
<path fill="none" stroke="midnightblue" d="M1268.46,-56.44C1189.01,-46.74 1059.7,-30.94 976.39,-20.76"/>
<polygon fill="midnightblue" stroke="midnightblue" points="976.56,-17.26 966.21,-19.52 975.71,-24.2 976.56,-17.26"/>
</g>
<!-- Node28&#45;&gt;Node25 -->
<g id="edge30" class="edge">
<title>Node28&#45;&gt;Node25</title>
<path fill="none" stroke="midnightblue" d="M1256.19,-59.76C1155.45,-52.92 979.43,-39.62 818.31,-20.01"/>
<polygon fill="midnightblue" stroke="midnightblue" points="818.57,-16.51 808.21,-18.77 817.71,-23.46 818.57,-16.51"/>
</g>
<!-- Node29 -->
<g id="node29" class="node">
<title>Node29</title>
<g id="a_node29"><a xlink:title=" ">
<polygon fill="none" stroke="#bfbfbf" points="1286.5,-0.5 1286.5,-19.5 1324.5,-19.5 1324.5,-0.5 1286.5,-0.5"/>
<text text-anchor="middle" x="1305.5" y="-7.5" font-family="FreeSans.ttf" font-size="10.00">map</text>
</a>
</g>
</g>
<!-- Node28&#45;&gt;Node29 -->
<g id="edge29" class="edge">
<title>Node28&#45;&gt;Node29</title>
<path fill="none" stroke="midnightblue" d="M1333.05,-56.08C1328.49,-48.61 1321.83,-37.72 1316.21,-28.52"/>
<polygon fill="midnightblue" stroke="midnightblue" points="1319.05,-26.46 1310.85,-19.75 1313.08,-30.11 1319.05,-26.46"/>
</g>
<!-- Node30 -->
<g id="node30" class="node">
<title>Node30</title>
<g id="a_node30"><a xlink:title=" ">
<polygon fill="none" stroke="#bfbfbf" points="985,-0.5 985,-19.5 1104,-19.5 1104,-0.5 985,-0.5"/>
<text text-anchor="middle" x="1044.5" y="-7.5" font-family="FreeSans.ttf" font-size="10.00">boost/shared_ptr.hpp</text>
</a>
</g>
</g>
<!-- Node28&#45;&gt;Node30 -->
<g id="edge31" class="edge">
<title>Node28&#45;&gt;Node30</title>
<path fill="none" stroke="midnightblue" d="M1291.91,-56.44C1240.09,-46.92 1156.37,-31.55 1100.88,-21.36"/>
<polygon fill="midnightblue" stroke="midnightblue" points="1101.34,-17.88 1090.87,-19.52 1100.07,-24.77 1101.34,-17.88"/>
</g>
<!-- Node28&#45;&gt;Node31 -->
<g id="edge33" class="edge">
<title>Node28&#45;&gt;Node31</title>
<path fill="none" stroke="midnightblue" d="M1375.26,-56.44C1415.56,-47.06 1480.31,-31.99 1524.08,-21.8"/>
<polygon fill="midnightblue" stroke="midnightblue" points="1524.96,-25.19 1533.91,-19.52 1523.38,-18.37 1524.96,-25.19"/>
</g>
<!-- Node32 -->
<g id="node32" class="node">
<title>Node32</title>
<g id="a_node32"><a xlink:title=" ">
<polygon fill="none" stroke="#bfbfbf" points="1342,-0.5 1342,-19.5 1491,-19.5 1491,-0.5 1342,-0.5"/>
<text text-anchor="middle" x="1416.5" y="-7.5" font-family="FreeSans.ttf" font-size="10.00">gazebo/common/Events.hh</text>
</a>
</g>
</g>
<!-- Node28&#45;&gt;Node32 -->
<g id="edge35" class="edge">
<title>Node28&#45;&gt;Node32</title>
<path fill="none" stroke="midnightblue" d="M1351.03,-56.32C1363.09,-47.98 1381.53,-35.21 1395.77,-25.35"/>
<polygon fill="midnightblue" stroke="midnightblue" points="1397.77,-28.22 1404,-19.65 1393.78,-22.47 1397.77,-28.22"/>
</g>
<!-- Node33&#45;&gt;Node23 -->
<g id="edge37" class="edge">
<title>Node33&#45;&gt;Node23</title>
<path fill="none" stroke="midnightblue" d="M87.5,-56.08C87.5,-49.01 87.5,-38.86 87.5,-29.99"/>
<polygon fill="midnightblue" stroke="midnightblue" points="91,-29.75 87.5,-19.75 84,-29.75 91,-29.75"/>
</g>
<!-- Node34 -->
<g id="node34" class="node">
<title>Node34</title>
<g id="a_node34"><a xlink:title=" ">
<polygon fill="none" stroke="#bfbfbf" points="0,-0.5 0,-19.5 47,-19.5 47,-0.5 0,-0.5"/>
<text text-anchor="middle" x="23.5" y="-7.5" font-family="FreeSans.ttf" font-size="10.00">cmath</text>
</a>
</g>
</g>
<!-- Node33&#45;&gt;Node34 -->
<g id="edge38" class="edge">
<title>Node33&#45;&gt;Node34</title>
<path fill="none" stroke="midnightblue" d="M77.22,-56.32C67.66,-48.26 53.22,-36.08 41.72,-26.37"/>
<polygon fill="midnightblue" stroke="midnightblue" points="43.87,-23.61 33.97,-19.83 39.36,-28.96 43.87,-23.61"/>
</g>
<!-- Node35&#45;&gt;Node25 -->
<g id="edge40" class="edge">
<title>Node35&#45;&gt;Node25</title>
<path fill="none" stroke="midnightblue" d="M837.04,-56.32C823,-47.9 801.45,-34.97 784.96,-25.07"/>
<polygon fill="midnightblue" stroke="midnightblue" points="786.3,-21.8 775.92,-19.65 782.7,-27.8 786.3,-21.8"/>
</g>
<!-- Node35&#45;&gt;Node30 -->
<g id="edge41" class="edge">
<title>Node35&#45;&gt;Node30</title>
<path fill="none" stroke="midnightblue" d="M882.08,-56.44C915.11,-47.2 967.89,-32.44 1004.27,-22.26"/>
<polygon fill="midnightblue" stroke="midnightblue" points="1005.37,-25.58 1014.06,-19.52 1003.49,-18.84 1005.37,-25.58"/>
</g>
<!-- Node36 -->
<g id="node36" class="node">
<title>Node36</title>
<g id="a_node36"><a xlink:title=" ">
<polygon fill="none" stroke="#bfbfbf" points="526,-0.5 526,-19.5 697,-19.5 697,-0.5 526,-0.5"/>
<text text-anchor="middle" x="611.5" y="-7.5" font-family="FreeSans.ttf" font-size="10.00">gazebo/sensors/SensorTypes.hh</text>
</a>
</g>
</g>
<!-- Node35&#45;&gt;Node36 -->
<g id="edge42" class="edge">
<title>Node35&#45;&gt;Node36</title>
<path fill="none" stroke="midnightblue" d="M813.47,-56.44C771.69,-47.04 704.52,-31.93 659.23,-21.74"/>
<polygon fill="midnightblue" stroke="midnightblue" points="659.88,-18.3 649.35,-19.52 658.34,-25.13 659.88,-18.3"/>
</g>
<!-- Node37 -->
<g id="node37" class="node">
<title>Node37</title>
<g id="a_node37"><a xlink:title=" ">
<polygon fill="none" stroke="#bfbfbf" points="333.5,-0.5 333.5,-19.5 507.5,-19.5 507.5,-0.5 333.5,-0.5"/>
<text text-anchor="middle" x="420.5" y="-7.5" font-family="FreeSans.ttf" font-size="10.00">gazebo/physics/PhysicsTypes.hh</text>
</a>
</g>
</g>
<!-- Node35&#45;&gt;Node37 -->
<g id="edge43" class="edge">
<title>Node35&#45;&gt;Node37</title>
<path fill="none" stroke="midnightblue" d="M783.21,-56.44C705.81,-46.75 579.9,-30.97 498.65,-20.79"/>
<polygon fill="midnightblue" stroke="midnightblue" points="498.83,-17.29 488.47,-19.52 497.96,-24.23 498.83,-17.29"/>
</g>
</g>
</svg>
