<?xml version="1.0" encoding="UTF-8" standalone="no"?>
<!DOCTYPE svg PUBLIC "-//W3C//DTD SVG 1.1//EN"
 "http://www.w3.org/Graphics/SVG/1.1/DTD/svg11.dtd">
<!-- Generated by graphviz version 2.43.0 (0)
 -->
<!-- Title: ContactLoadCellArrayDriver.h Pages: 1 -->
<svg width="2882pt" height="84pt"
 viewBox="0.00 0.00 2882.00 84.00" xmlns="http://www.w3.org/2000/svg" xmlns:xlink="http://www.w3.org/1999/xlink">
<g id="graph0" class="graph" transform="scale(1 1) rotate(0) translate(4 80)">
<title>ContactLoadCellArrayDriver.h</title>
<!-- Node1 -->
<g id="node1" class="node">
<title>Node1</title>
<g id="a_node1"><a xlink:title=" ">
<polygon fill="#bfbfbf" stroke="black" points="1422.5,-56.5 1422.5,-75.5 1583.5,-75.5 1583.5,-56.5 1422.5,-56.5"/>
<text text-anchor="middle" x="1503" y="-63.5" font-family="FreeSans.ttf" font-size="10.00">ContactLoadCellArrayDriver.h</text>
</a>
</g>
</g>
<!-- Node2 -->
<g id="node2" class="node">
<title>Node2</title>
<g id="a_node2"><a xlink:title=" ">
<polygon fill="none" stroke="#bfbfbf" points="0,-0.5 0,-19.5 134,-19.5 134,-0.5 0,-0.5"/>
<text text-anchor="middle" x="67" y="-7.5" font-family="FreeSans.ttf" font-size="10.00">yarp/dev/DeviceDriver.h</text>
</a>
</g>
</g>
<!-- Node1&#45;&gt;Node2 -->
<g id="edge1" class="edge">
<title>Node1&#45;&gt;Node2</title>
<path fill="none" stroke="midnightblue" d="M1422.39,-64.72C1213.21,-63.46 635.65,-56.74 144.24,-20.02"/>
<polygon fill="midnightblue" stroke="midnightblue" points="144.34,-16.52 134.11,-19.26 143.82,-23.5 144.34,-16.52"/>
</g>
<!-- Node3 -->
<g id="node3" class="node">
<title>Node3</title>
<g id="a_node3"><a xlink:title=" ">
<polygon fill="none" stroke="#bfbfbf" points="152,-0.5 152,-19.5 292,-19.5 292,-0.5 152,-0.5"/>
<text text-anchor="middle" x="222" y="-7.5" font-family="FreeSans.ttf" font-size="10.00">yarp/dev/IAnalogSensor.h</text>
</a>
</g>
</g>
<!-- Node1&#45;&gt;Node3 -->
<g id="edge2" class="edge">
<title>Node1&#45;&gt;Node3</title>
<path fill="none" stroke="midnightblue" d="M1422.34,-64.1C1230.23,-61.48 730.3,-52 302.28,-20.04"/>
<polygon fill="midnightblue" stroke="midnightblue" points="302.42,-16.54 292.18,-19.28 301.89,-23.52 302.42,-16.54"/>
</g>
<!-- Node4 -->
<g id="node4" class="node">
<title>Node4</title>
<g id="a_node4"><a xlink:title=" ">
<polygon fill="none" stroke="#bfbfbf" points="310.5,-0.5 310.5,-19.5 459.5,-19.5 459.5,-0.5 310.5,-0.5"/>
<text text-anchor="middle" x="385" y="-7.5" font-family="FreeSans.ttf" font-size="10.00">yarp/dev/IPreciselyTimed.h</text>
</a>
</g>
</g>
<!-- Node1&#45;&gt;Node4 -->
<g id="edge3" class="edge">
<title>Node1&#45;&gt;Node4</title>
<path fill="none" stroke="midnightblue" d="M1422.45,-63.23C1249.92,-59.06 831.63,-46.93 469.78,-20"/>
<polygon fill="midnightblue" stroke="midnightblue" points="469.87,-16.5 459.63,-19.24 469.34,-23.48 469.87,-16.5"/>
</g>
<!-- Node5 -->
<g id="node5" class="node">
<title>Node5</title>
<g id="a_node5"><a xlink:title=" ">
<polygon fill="none" stroke="#bfbfbf" points="478,-0.5 478,-19.5 574,-19.5 574,-0.5 478,-0.5"/>
<text text-anchor="middle" x="526" y="-7.5" font-family="FreeSans.ttf" font-size="10.00">yarp/os/Stamp.h</text>
</a>
</g>
</g>
<!-- Node1&#45;&gt;Node5 -->
<g id="edge4" class="edge">
<title>Node1&#45;&gt;Node5</title>
<path fill="none" stroke="midnightblue" d="M1422.48,-63.97C1263.96,-61.32 900.12,-52.08 584.42,-20.03"/>
<polygon fill="midnightblue" stroke="midnightblue" points="584.46,-16.51 574.15,-18.98 583.75,-23.48 584.46,-16.51"/>
</g>
<!-- Node6 -->
<g id="node6" class="node">
<title>Node6</title>
<g id="a_node6"><a xlink:title=" ">
<polygon fill="none" stroke="#bfbfbf" points="592.5,-0.5 592.5,-19.5 691.5,-19.5 691.5,-0.5 592.5,-0.5"/>
<text text-anchor="middle" x="642" y="-7.5" font-family="FreeSans.ttf" font-size="10.00">yarp/sig/Matrix.h</text>
</a>
</g>
</g>
<!-- Node1&#45;&gt;Node6 -->
<g id="edge5" class="edge">
<title>Node1&#45;&gt;Node6</title>
<path fill="none" stroke="midnightblue" d="M1422.26,-63.01C1279.19,-58.94 971.65,-47.66 701.53,-19.94"/>
<polygon fill="midnightblue" stroke="midnightblue" points="701.84,-16.45 691.53,-18.91 701.12,-23.42 701.84,-16.45"/>
</g>
<!-- Node7 -->
<g id="node7" class="node">
<title>Node7</title>
<g id="a_node7"><a xlink:title=" ">
<polygon fill="none" stroke="#bfbfbf" points="710,-0.5 710,-19.5 856,-19.5 856,-0.5 710,-0.5"/>
<text text-anchor="middle" x="783" y="-7.5" font-family="FreeSans.ttf" font-size="10.00">gazebo/common/Plugin.hh</text>
</a>
</g>
</g>
<!-- Node1&#45;&gt;Node7 -->
<g id="edge6" class="edge">
<title>Node1&#45;&gt;Node7</title>
<path fill="none" stroke="midnightblue" d="M1422.35,-60.32C1303.17,-53.18 1072.75,-38.52 866.42,-20.1"/>
<polygon fill="midnightblue" stroke="midnightblue" points="866.58,-16.6 856.3,-19.19 865.95,-23.57 866.58,-16.6"/>
</g>
<!-- Node8 -->
<g id="node8" class="node">
<title>Node8</title>
<g id="a_node8"><a xlink:title=" ">
<polygon fill="none" stroke="#bfbfbf" points="874,-0.5 874,-19.5 1032,-19.5 1032,-0.5 874,-0.5"/>
<text text-anchor="middle" x="953" y="-7.5" font-family="FreeSans.ttf" font-size="10.00">gazebo/common/common.hh</text>
</a>
</g>
</g>
<!-- Node1&#45;&gt;Node8 -->
<g id="edge7" class="edge">
<title>Node1&#45;&gt;Node8</title>
<path fill="none" stroke="midnightblue" d="M1422.45,-57.27C1332.41,-48.61 1181.97,-34.05 1042.2,-20.12"/>
<polygon fill="midnightblue" stroke="midnightblue" points="1042.45,-16.62 1032.15,-19.11 1041.76,-23.59 1042.45,-16.62"/>
</g>
<!-- Node9 -->
<g id="node9" class="node">
<title>Node9</title>
<g id="a_node9"><a xlink:title=" ">
<polygon fill="none" stroke="#bfbfbf" points="1050.5,-0.5 1050.5,-19.5 1193.5,-19.5 1193.5,-0.5 1050.5,-0.5"/>
<text text-anchor="middle" x="1122" y="-7.5" font-family="FreeSans.ttf" font-size="10.00">gazebo/sensors/Sensor.hh</text>
</a>
</g>
</g>
<!-- Node1&#45;&gt;Node9 -->
<g id="edge8" class="edge">
<title>Node1&#45;&gt;Node9</title>
<path fill="none" stroke="midnightblue" d="M1442.63,-56.44C1374.63,-46.81 1264.26,-31.16 1192.4,-20.98"/>
<polygon fill="midnightblue" stroke="midnightblue" points="1192.48,-17.45 1182.09,-19.52 1191.5,-24.39 1192.48,-17.45"/>
</g>
<!-- Node10 -->
<g id="node10" class="node">
<title>Node10</title>
<g id="a_node10"><a xlink:title=" ">
<polygon fill="none" stroke="#bfbfbf" points="1212,-0.5 1212,-19.5 1392,-19.5 1392,-0.5 1212,-0.5"/>
<text text-anchor="middle" x="1302" y="-7.5" font-family="FreeSans.ttf" font-size="10.00">gazebo/sensors/ContactSensor.hh</text>
</a>
</g>
</g>
<!-- Node1&#45;&gt;Node10 -->
<g id="edge9" class="edge">
<title>Node1&#45;&gt;Node10</title>
<path fill="none" stroke="midnightblue" d="M1471.15,-56.44C1436.6,-47.16 1381.32,-32.31 1343.42,-22.13"/>
<polygon fill="midnightblue" stroke="midnightblue" points="1344.27,-18.73 1333.7,-19.52 1342.45,-25.49 1344.27,-18.73"/>
</g>
<!-- Node11 -->
<g id="node11" class="node">
<title>Node11</title>
<g id="a_node11"><a xlink:title=" ">
<polygon fill="none" stroke="#bfbfbf" points="1410.5,-0.5 1410.5,-19.5 1595.5,-19.5 1595.5,-0.5 1410.5,-0.5"/>
<text text-anchor="middle" x="1503" y="-7.5" font-family="FreeSans.ttf" font-size="10.00">gazebo/sensors/SensorManager.hh</text>
</a>
</g>
</g>
<!-- Node1&#45;&gt;Node11 -->
<g id="edge10" class="edge">
<title>Node1&#45;&gt;Node11</title>
<path fill="none" stroke="midnightblue" d="M1503,-56.08C1503,-49.01 1503,-38.86 1503,-29.99"/>
<polygon fill="midnightblue" stroke="midnightblue" points="1506.5,-29.75 1503,-19.75 1499.5,-29.75 1506.5,-29.75"/>
</g>
<!-- Node12 -->
<g id="node12" class="node">
<title>Node12</title>
<g id="a_node12"><a xlink:title=" ">
<polygon fill="none" stroke="#bfbfbf" points="1613.5,-0.5 1613.5,-19.5 1760.5,-19.5 1760.5,-0.5 1613.5,-0.5"/>
<text text-anchor="middle" x="1687" y="-7.5" font-family="FreeSans.ttf" font-size="10.00">gazebo/physics/Contact.hh</text>
</a>
</g>
</g>
<!-- Node1&#45;&gt;Node12 -->
<g id="edge11" class="edge">
<title>Node1&#45;&gt;Node12</title>
<path fill="none" stroke="midnightblue" d="M1532.16,-56.44C1563.51,-47.24 1613.53,-32.56 1648.2,-22.39"/>
<polygon fill="midnightblue" stroke="midnightblue" points="1649.37,-25.69 1657.98,-19.52 1647.4,-18.97 1649.37,-25.69"/>
</g>
<!-- Node13 -->
<g id="node13" class="node">
<title>Node13</title>
<g id="a_node13"><a xlink:title=" ">
<polygon fill="none" stroke="#bfbfbf" points="1779,-0.5 1779,-19.5 1909,-19.5 1909,-0.5 1779,-0.5"/>
<text text-anchor="middle" x="1844" y="-7.5" font-family="FreeSans.ttf" font-size="10.00">gazebo/physics/Link.hh</text>
</a>
</g>
</g>
<!-- Node1&#45;&gt;Node13 -->
<g id="edge12" class="edge">
<title>Node1&#45;&gt;Node13</title>
<path fill="none" stroke="midnightblue" d="M1557.03,-56.44C1617.64,-46.85 1715.86,-31.29 1780.2,-21.1"/>
<polygon fill="midnightblue" stroke="midnightblue" points="1780.89,-24.54 1790.22,-19.52 1779.8,-17.62 1780.89,-24.54"/>
</g>
<!-- Node14 -->
<g id="node14" class="node">
<title>Node14</title>
<g id="a_node14"><a xlink:title=" ">
<polygon fill="none" stroke="#bfbfbf" points="1927,-0.5 1927,-19.5 2071,-19.5 2071,-0.5 1927,-0.5"/>
<text text-anchor="middle" x="1999" y="-7.5" font-family="FreeSans.ttf" font-size="10.00">gazebo/physics/Inertial.hh</text>
</a>
</g>
</g>
<!-- Node1&#45;&gt;Node14 -->
<g id="edge13" class="edge">
<title>Node1&#45;&gt;Node14</title>
<path fill="none" stroke="midnightblue" d="M1582.18,-56.48C1663.49,-47.71 1794.01,-33.6 1916.63,-20.15"/>
<polygon fill="midnightblue" stroke="midnightblue" points="1917.02,-23.63 1926.58,-19.06 1916.26,-16.67 1917.02,-23.63"/>
</g>
<!-- Node15 -->
<g id="node15" class="node">
<title>Node15</title>
<g id="a_node15"><a xlink:title=" ">
<polygon fill="none" stroke="#bfbfbf" points="2089,-0.5 2089,-19.5 2235,-19.5 2235,-0.5 2089,-0.5"/>
<text text-anchor="middle" x="2162" y="-7.5" font-family="FreeSans.ttf" font-size="10.00">gazebo/physics/physics.hh</text>
</a>
</g>
</g>
<!-- Node1&#45;&gt;Node15 -->
<g id="edge14" class="edge">
<title>Node1&#45;&gt;Node15</title>
<path fill="none" stroke="midnightblue" d="M1583.82,-59.5C1693.46,-51.87 1895.71,-37.14 2078.62,-20.1"/>
<polygon fill="midnightblue" stroke="midnightblue" points="2079.06,-23.58 2088.69,-19.16 2078.41,-16.61 2079.06,-23.58"/>
</g>
<!-- Node16 -->
<g id="node16" class="node">
<title>Node16</title>
<g id="a_node16"><a xlink:title=" ">
<polygon fill="none" stroke="#bfbfbf" points="2253.5,-0.5 2253.5,-19.5 2382.5,-19.5 2382.5,-0.5 2253.5,-0.5"/>
<text text-anchor="middle" x="2318" y="-7.5" font-family="FreeSans.ttf" font-size="10.00">ignition/math/Pose3.hh</text>
</a>
</g>
</g>
<!-- Node1&#45;&gt;Node16 -->
<g id="edge15" class="edge">
<title>Node1&#45;&gt;Node16</title>
<path fill="none" stroke="midnightblue" d="M1583.71,-61.7C1718.13,-55.84 1996.56,-42.21 2243.21,-20.01"/>
<polygon fill="midnightblue" stroke="midnightblue" points="2243.81,-23.47 2253.45,-19.08 2243.18,-16.5 2243.81,-23.47"/>
</g>
<!-- Node17 -->
<g id="node17" class="node">
<title>Node17</title>
<g id="a_node17"><a xlink:title=" ">
<polygon fill="none" stroke="#bfbfbf" points="2400.5,-0.5 2400.5,-19.5 2537.5,-19.5 2537.5,-0.5 2400.5,-0.5"/>
<text text-anchor="middle" x="2469" y="-7.5" font-family="FreeSans.ttf" font-size="10.00">ignition/math/Vector3.hh</text>
</a>
</g>
</g>
<!-- Node1&#45;&gt;Node17 -->
<g id="edge16" class="edge">
<title>Node1&#45;&gt;Node17</title>
<path fill="none" stroke="midnightblue" d="M1583.72,-62.69C1738.21,-57.89 2086.65,-45.17 2389.86,-20.13"/>
<polygon fill="midnightblue" stroke="midnightblue" points="2390.5,-23.59 2400.18,-19.27 2389.92,-16.61 2390.5,-23.59"/>
</g>
<!-- Node18 -->
<g id="node18" class="node">
<title>Node18</title>
<g id="a_node18"><a xlink:title=" ">
<polygon fill="none" stroke="#bfbfbf" points="2555.5,-0.5 2555.5,-19.5 2692.5,-19.5 2692.5,-0.5 2555.5,-0.5"/>
<text text-anchor="middle" x="2624" y="-7.5" font-family="FreeSans.ttf" font-size="10.00">ignition/math/Matrix3.hh</text>
</a>
</g>
</g>
<!-- Node1&#45;&gt;Node18 -->
<g id="edge17" class="edge">
<title>Node1&#45;&gt;Node18</title>
<path fill="none" stroke="midnightblue" d="M1583.68,-63.54C1757.51,-59.94 2180.54,-48.85 2544.96,-20.11"/>
<polygon fill="midnightblue" stroke="midnightblue" points="2545.49,-23.58 2555.18,-19.3 2544.93,-16.6 2545.49,-23.58"/>
</g>
<!-- Node19 -->
<g id="node19" class="node">
<title>Node19</title>
<g id="a_node19"><a xlink:title=" ">
<polygon fill="none" stroke="#bfbfbf" points="2710.5,-0.5 2710.5,-19.5 2807.5,-19.5 2807.5,-0.5 2710.5,-0.5"/>
<text text-anchor="middle" x="2759" y="-7.5" font-family="FreeSans.ttf" font-size="10.00">ignition/math.hh</text>
</a>
</g>
</g>
<!-- Node1&#45;&gt;Node19 -->
<g id="edge18" class="edge">
<title>Node1&#45;&gt;Node19</title>
<path fill="none" stroke="midnightblue" d="M1583.56,-65.28C1775.41,-65.24 2274.54,-60.92 2700.19,-20.06"/>
<polygon fill="midnightblue" stroke="midnightblue" points="2700.62,-23.54 2710.23,-19.09 2699.94,-16.57 2700.62,-23.54"/>
</g>
<!-- Node20 -->
<g id="node20" class="node">
<title>Node20</title>
<g id="a_node20"><a xlink:title=" ">
<polygon fill="none" stroke="#bfbfbf" points="2826,-0.5 2826,-19.5 2874,-19.5 2874,-0.5 2826,-0.5"/>
<text text-anchor="middle" x="2850" y="-7.5" font-family="FreeSans.ttf" font-size="10.00">mutex</text>
</a>
</g>
</g>
<!-- Node1&#45;&gt;Node20 -->
<g id="edge19" class="edge">
<title>Node1&#45;&gt;Node20</title>
<path fill="none" stroke="midnightblue" d="M1583.59,-64.69C1827.74,-63.35 2557.76,-56.46 2815.9,-19.73"/>
<polygon fill="midnightblue" stroke="midnightblue" points="2816.61,-23.16 2825.99,-18.24 2815.58,-16.24 2816.61,-23.16"/>
</g>
</g>
</svg>
