<?xml version="1.0" encoding="UTF-8" standalone="no"?>
<!DOCTYPE svg PUBLIC "-//W3C//DTD SVG 1.1//EN"
 "http://www.w3.org/Graphics/SVG/1.1/DTD/svg11.dtd">
<!-- Generated by graphviz version 2.43.0 (0)
 -->
<!-- Title: ContactLoadCellArray.hh Pages: 1 -->
<svg width="692pt" height="84pt"
 viewBox="0.00 0.00 692.00 84.00" xmlns="http://www.w3.org/2000/svg" xmlns:xlink="http://www.w3.org/1999/xlink">
<g id="graph0" class="graph" transform="scale(1 1) rotate(0) translate(4 80)">
<title>ContactLoadCellArray.hh</title>
<!-- Node1 -->
<g id="node1" class="node">
<title>Node1</title>
<g id="a_node1"><a xlink:title=" ">
<polygon fill="#bfbfbf" stroke="black" points="295,-56.5 295,-75.5 431,-75.5 431,-56.5 295,-56.5"/>
<text text-anchor="middle" x="363" y="-63.5" font-family="FreeSans.ttf" font-size="10.00">ContactLoadCellArray.hh</text>
</a>
</g>
</g>
<!-- Node2 -->
<g id="node2" class="node">
<title>Node2</title>
<g id="a_node2"><a xlink:title=" ">
<polygon fill="none" stroke="#bfbfbf" points="0,-0.5 0,-19.5 146,-19.5 146,-0.5 0,-0.5"/>
<text text-anchor="middle" x="73" y="-7.5" font-family="FreeSans.ttf" font-size="10.00">gazebo/common/Plugin.hh</text>
</a>
</g>
</g>
<!-- Node1&#45;&gt;Node2 -->
<g id="edge1" class="edge">
<title>Node1&#45;&gt;Node2</title>
<path fill="none" stroke="midnightblue" d="M317.05,-56.44C265.93,-46.92 183.35,-31.55 128.62,-21.36"/>
<polygon fill="midnightblue" stroke="midnightblue" points="129.21,-17.91 118.74,-19.52 127.93,-24.79 129.21,-17.91"/>
</g>
<!-- Node3 -->
<g id="node3" class="node">
<title>Node3</title>
<g id="a_node3"><a xlink:title=" ">
<polygon fill="none" stroke="#bfbfbf" points="164,-0.5 164,-19.5 208,-19.5 208,-0.5 164,-0.5"/>
<text text-anchor="middle" x="186" y="-7.5" font-family="FreeSans.ttf" font-size="10.00">string</text>
</a>
</g>
</g>
<!-- Node1&#45;&gt;Node3 -->
<g id="edge2" class="edge">
<title>Node1&#45;&gt;Node3</title>
<path fill="none" stroke="midnightblue" d="M334.95,-56.44C303.06,-46.71 251.11,-30.86 217.76,-20.69"/>
<polygon fill="midnightblue" stroke="midnightblue" points="218.63,-17.3 208.04,-17.73 216.59,-23.99 218.63,-17.3"/>
</g>
<!-- Node4 -->
<g id="node4" class="node">
<title>Node4</title>
<g id="a_node4"><a xlink:title=" ">
<polygon fill="none" stroke="#bfbfbf" points="226,-0.5 226,-19.5 366,-19.5 366,-0.5 226,-0.5"/>
<text text-anchor="middle" x="296" y="-7.5" font-family="FreeSans.ttf" font-size="10.00">yarp/dev/PolyDriverList.h</text>
</a>
</g>
</g>
<!-- Node1&#45;&gt;Node4 -->
<g id="edge3" class="edge">
<title>Node1&#45;&gt;Node4</title>
<path fill="none" stroke="midnightblue" d="M352.24,-56.32C342.23,-48.26 327.11,-36.08 315.07,-26.37"/>
<polygon fill="midnightblue" stroke="midnightblue" points="316.94,-23.38 306.96,-19.83 312.55,-28.83 316.94,-23.38"/>
</g>
<!-- Node5 -->
<g id="node5" class="node">
<title>Node5</title>
<g id="a_node5"><a xlink:title=" ">
<polygon fill="none" stroke="#bfbfbf" points="384.5,-0.5 384.5,-19.5 477.5,-19.5 477.5,-0.5 384.5,-0.5"/>
<text text-anchor="middle" x="431" y="-7.5" font-family="FreeSans.ttf" font-size="10.00">sdf/sdf_config.h</text>
</a>
</g>
</g>
<!-- Node1&#45;&gt;Node5 -->
<g id="edge4" class="edge">
<title>Node1&#45;&gt;Node5</title>
<path fill="none" stroke="midnightblue" d="M373.93,-56.32C384.17,-48.18 399.72,-35.84 412,-26.09"/>
<polygon fill="midnightblue" stroke="midnightblue" points="414.22,-28.79 419.88,-19.83 409.87,-23.31 414.22,-28.79"/>
</g>
<!-- Node6 -->
<g id="node6" class="node">
<title>Node6</title>
<g id="a_node6"><a xlink:title=" ">
<polygon fill="none" stroke="#bfbfbf" points="496,-0.5 496,-19.5 586,-19.5 586,-0.5 496,-0.5"/>
<text text-anchor="middle" x="541" y="-7.5" font-family="FreeSans.ttf" font-size="10.00">sdf/Element.hh</text>
</a>
</g>
</g>
<!-- Node1&#45;&gt;Node6 -->
<g id="edge5" class="edge">
<title>Node1&#45;&gt;Node6</title>
<path fill="none" stroke="midnightblue" d="M391.2,-56.44C421.41,-47.28 469.51,-32.69 503.03,-22.52"/>
<polygon fill="midnightblue" stroke="midnightblue" points="504.37,-25.77 512.93,-19.52 502.34,-19.07 504.37,-25.77"/>
</g>
<!-- Node7 -->
<g id="node7" class="node">
<title>Node7</title>
<g id="a_node7"><a xlink:title=" ">
<polygon fill="none" stroke="#bfbfbf" points="604,-0.5 604,-19.5 684,-19.5 684,-0.5 604,-0.5"/>
<text text-anchor="middle" x="644" y="-7.5" font-family="FreeSans.ttf" font-size="10.00">sdf/Param.hh</text>
</a>
</g>
</g>
<!-- Node1&#45;&gt;Node7 -->
<g id="edge6" class="edge">
<title>Node1&#45;&gt;Node7</title>
<path fill="none" stroke="midnightblue" d="M407.53,-56.44C458.26,-46.69 540.99,-30.8 593.93,-20.62"/>
<polygon fill="midnightblue" stroke="midnightblue" points="594.62,-24.05 603.78,-18.73 593.3,-17.18 594.62,-24.05"/>
</g>
</g>
</svg>
