<?xml version="1.0" encoding="UTF-8" standalone="no"?>
<!DOCTYPE svg PUBLIC "-//W3C//DTD SVG 1.1//EN"
 "http://www.w3.org/Graphics/SVG/1.1/DTD/svg11.dtd">
<!-- Generated by graphviz version 5.0.0 (20220707.2338)
 -->
<!-- Title: ControlBoardDriverDeviceDriver.cpp Pages: 1 -->
<svg width="4296pt" height="218pt"
 viewBox="0.00 0.00 4295.50 218.00" xmlns="http://www.w3.org/2000/svg" xmlns:xlink="http://www.w3.org/1999/xlink">
<g id="graph0" class="graph" transform="scale(1 1) rotate(0) translate(4 214)">
<title>ControlBoardDriverDeviceDriver.cpp</title>
<!-- Node1 -->
<g id="node1" class="node">
<title>Node1</title>
<g id="a_node1"><a xlink:title=" ">
<polygon fill="#bfbfbf" stroke="black" points="3753.5,-179.5 3753.5,-209.5 3897.5,-209.5 3897.5,-179.5 3753.5,-179.5"/>
<text text-anchor="start" x="3761.5" y="-197.5" font-family="FreeSans.ttf" font-size="10.00">ControlBoardDriverDevice</text>
<text text-anchor="middle" x="3825.5" y="-186.5" font-family="FreeSans.ttf" font-size="10.00">Driver.cpp</text>
</a>
</g>
</g>
<!-- Node2 -->
<g id="node2" class="node">
<title>Node2</title>
<g id="a_node2"><a xlink:href="ControlBoardDriver_8h.html" target="_top" xlink:title=" ">
<polygon fill="none" stroke="black" points="1949,-123.5 1949,-142.5 2068,-142.5 2068,-123.5 1949,-123.5"/>
<text text-anchor="middle" x="2008.5" y="-130.5" font-family="FreeSans.ttf" font-size="10.00">ControlBoardDriver.h</text>
</a>
</g>
</g>
<!-- Node1&#45;&gt;Node2 -->
<g id="edge1" class="edge">
<title>Node1&#45;&gt;Node2</title>
<path fill="none" stroke="midnightblue" d="M3753.43,-191.14C3461.29,-181.57 2367.09,-145.74 2078.59,-136.3"/>
<polygon fill="midnightblue" stroke="midnightblue" points="2078.38,-132.79 2068.27,-135.96 2078.15,-139.78 2078.38,-132.79"/>
</g>
<!-- Node31 -->
<g id="node31" class="node">
<title>Node31</title>
<g id="a_node31"><a xlink:href="Handler_8hh.html" target="_top" xlink:title=" ">
<polygon fill="none" stroke="black" points="3615.5,-123.5 3615.5,-142.5 3779.5,-142.5 3779.5,-123.5 3615.5,-123.5"/>
<text text-anchor="middle" x="3697.5" y="-130.5" font-family="FreeSans.ttf" font-size="10.00">GazeboYarpPlugins/Handler.hh</text>
</a>
</g>
</g>
<!-- Node1&#45;&gt;Node31 -->
<g id="edge33" class="edge">
<title>Node1&#45;&gt;Node31</title>
<path fill="none" stroke="midnightblue" d="M3795.17,-179.4C3773.98,-169.55 3745.91,-156.5 3725.3,-146.92"/>
<polygon fill="midnightblue" stroke="midnightblue" points="3726.67,-143.7 3716.13,-142.66 3723.72,-150.05 3726.67,-143.7"/>
</g>
<!-- Node35 -->
<g id="node35" class="node">
<title>Node35</title>
<g id="a_node35"><a xlink:title=" ">
<polygon fill="none" stroke="#bfbfbf" points="3847,-62 3847,-81 3996,-81 3996,-62 3847,-62"/>
<text text-anchor="middle" x="3921.5" y="-69" font-family="FreeSans.ttf" font-size="10.00">gazebo/common/Events.hh</text>
</a>
</g>
</g>
<!-- Node1&#45;&gt;Node35 -->
<g id="edge44" class="edge">
<title>Node1&#45;&gt;Node35</title>
<path fill="none" stroke="midnightblue" d="M3836.89,-179.14C3854.77,-156.61 3889.34,-113.04 3908.29,-89.16"/>
<polygon fill="midnightblue" stroke="midnightblue" points="3911.24,-91.06 3914.71,-81.05 3905.76,-86.71 3911.24,-91.06"/>
</g>
<!-- Node36 -->
<g id="node36" class="node">
<title>Node36</title>
<g id="a_node36"><a xlink:href="ControlBoardLog_8h.html" target="_top" xlink:title=" ">
<polygon fill="none" stroke="black" points="4019,-123.5 4019,-142.5 4126,-142.5 4126,-123.5 4019,-123.5"/>
<text text-anchor="middle" x="4072.5" y="-130.5" font-family="FreeSans.ttf" font-size="10.00">ControlBoardLog.h</text>
</a>
</g>
</g>
<!-- Node1&#45;&gt;Node36 -->
<g id="edge41" class="edge">
<title>Node1&#45;&gt;Node36</title>
<path fill="none" stroke="midnightblue" d="M3883.72,-179.47C3927.64,-168.9 3987.01,-154.59 4027.36,-144.87"/>
<polygon fill="midnightblue" stroke="midnightblue" points="4028.29,-148.25 4037.19,-142.51 4026.65,-141.45 4028.29,-148.25"/>
</g>
<!-- Node3 -->
<g id="node3" class="node">
<title>Node3</title>
<g id="a_node3"><a xlink:title=" ">
<polygon fill="none" stroke="#bfbfbf" points="2848.5,-62 2848.5,-81 2952.5,-81 2952.5,-62 2848.5,-62"/>
<text text-anchor="middle" x="2900.5" y="-69" font-family="FreeSans.ttf" font-size="10.00">yarp/os/Property.h</text>
</a>
</g>
</g>
<!-- Node2&#45;&gt;Node3 -->
<g id="edge2" class="edge">
<title>Node2&#45;&gt;Node3</title>
<path fill="none" stroke="midnightblue" d="M2068.23,-132.34C2205.18,-132.35 2552.07,-127.93 2838.5,-87 2845.19,-86.04 2852.22,-84.72 2859.05,-83.25"/>
<polygon fill="midnightblue" stroke="midnightblue" points="2859.86,-86.66 2868.84,-81.03 2858.32,-79.83 2859.86,-86.66"/>
</g>
<!-- Node4 -->
<g id="node4" class="node">
<title>Node4</title>
<g id="a_node4"><a xlink:title=" ">
<polygon fill="none" stroke="#bfbfbf" points="2970.5,-62 2970.5,-81 3062.5,-81 3062.5,-62 2970.5,-62"/>
<text text-anchor="middle" x="3016.5" y="-69" font-family="FreeSans.ttf" font-size="10.00">yarp/os/Value.h</text>
</a>
</g>
</g>
<!-- Node2&#45;&gt;Node4 -->
<g id="edge3" class="edge">
<title>Node2&#45;&gt;Node4</title>
<path fill="none" stroke="midnightblue" d="M2068.22,-130.83C2248.92,-127.01 2788.07,-113.65 2961.5,-87 2967.11,-86.14 2972.98,-84.93 2978.7,-83.58"/>
<polygon fill="midnightblue" stroke="midnightblue" points="2979.93,-86.88 2988.76,-81.03 2978.21,-80.09 2979.93,-86.88"/>
</g>
<!-- Node5 -->
<g id="node5" class="node">
<title>Node5</title>
<g id="a_node5"><a xlink:title=" ">
<polygon fill="none" stroke="#bfbfbf" points="3081,-62 3081,-81 3188,-81 3188,-62 3081,-62"/>
<text text-anchor="middle" x="3134.5" y="-69" font-family="FreeSans.ttf" font-size="10.00">yarp/dev/Drivers.h</text>
</a>
</g>
</g>
<!-- Node2&#45;&gt;Node5 -->
<g id="edge4" class="edge">
<title>Node2&#45;&gt;Node5</title>
<path fill="none" stroke="midnightblue" d="M2068.11,-130.92C2262.27,-127.17 2875.29,-113.5 3071.5,-87 3078.38,-86.07 3085.6,-84.75 3092.61,-83.27"/>
<polygon fill="midnightblue" stroke="midnightblue" points="3093.66,-86.62 3102.66,-81.03 3092.14,-79.79 3093.66,-86.62"/>
</g>
<!-- Node6 -->
<g id="node6" class="node">
<title>Node6</title>
<g id="a_node6"><a xlink:title=" ">
<polygon fill="none" stroke="#bfbfbf" points="3206.5,-62 3206.5,-81 3328.5,-81 3328.5,-62 3206.5,-62"/>
<text text-anchor="middle" x="3267.5" y="-69" font-family="FreeSans.ttf" font-size="10.00">yarp/dev/PolyDriver.h</text>
</a>
</g>
</g>
<!-- Node2&#45;&gt;Node6 -->
<g id="edge5" class="edge">
<title>Node2&#45;&gt;Node6</title>
<path fill="none" stroke="midnightblue" d="M2068.05,-131.03C2276.76,-127.45 2974.42,-113.7 3196.5,-87 3204.67,-86.02 3213.3,-84.59 3221.62,-83.01"/>
<polygon fill="midnightblue" stroke="midnightblue" points="3222.44,-86.42 3231.57,-81.03 3221.08,-79.55 3222.44,-86.42"/>
</g>
<!-- Node7 -->
<g id="node7" class="node">
<title>Node7</title>
<g id="a_node7"><a xlink:title=" ">
<polygon fill="none" stroke="#bfbfbf" points="0,-62 0,-81 125,-81 125,-62 0,-62"/>
<text text-anchor="middle" x="62.5" y="-69" font-family="FreeSans.ttf" font-size="10.00">yarp/dev/IPidControl.h</text>
</a>
</g>
</g>
<!-- Node2&#45;&gt;Node7 -->
<g id="edge6" class="edge">
<title>Node2&#45;&gt;Node7</title>
<path fill="none" stroke="midnightblue" d="M1948.72,-131.97C1670.24,-131.62 498.35,-127.69 134.5,-87 126.03,-86.05 117.07,-84.61 108.46,-83"/>
<polygon fill="midnightblue" stroke="midnightblue" points="109.05,-79.55 98.56,-81.05 107.7,-86.42 109.05,-79.55"/>
</g>
<!-- Node8 -->
<g id="node8" class="node">
<title>Node8</title>
<g id="a_node8"><a xlink:title=" ">
<polygon fill="none" stroke="#bfbfbf" points="143.5,-62 143.5,-81 277.5,-81 277.5,-62 143.5,-62"/>
<text text-anchor="middle" x="210.5" y="-69" font-family="FreeSans.ttf" font-size="10.00">yarp/dev/IPWMControl.h</text>
</a>
</g>
</g>
<!-- Node2&#45;&gt;Node8 -->
<g id="edge7" class="edge">
<title>Node2&#45;&gt;Node8</title>
<path fill="none" stroke="midnightblue" d="M1948.8,-131.74C1684.59,-130.4 618.96,-122.82 286.5,-87 277.38,-86.02 267.72,-84.53 258.45,-82.87"/>
<polygon fill="midnightblue" stroke="midnightblue" points="259.07,-79.42 248.59,-81.02 257.78,-86.3 259.07,-79.42"/>
</g>
<!-- Node9 -->
<g id="node9" class="node">
<title>Node9</title>
<g id="a_node9"><a xlink:title=" ">
<polygon fill="none" stroke="#bfbfbf" points="295.5,-62 295.5,-81 441.5,-81 441.5,-62 295.5,-62"/>
<text text-anchor="middle" x="368.5" y="-69" font-family="FreeSans.ttf" font-size="10.00">yarp/dev/ICurrentControl.h</text>
</a>
</g>
</g>
<!-- Node2&#45;&gt;Node9 -->
<g id="edge8" class="edge">
<title>Node2&#45;&gt;Node9</title>
<path fill="none" stroke="midnightblue" d="M1948.75,-131.44C1700.44,-128.95 749.14,-117.55 450.5,-87 440.58,-85.98 430.05,-84.46 419.95,-82.78"/>
<polygon fill="midnightblue" stroke="midnightblue" points="420.5,-79.33 410.05,-81.06 419.3,-86.22 420.5,-79.33"/>
</g>
<!-- Node10 -->
<g id="node10" class="node">
<title>Node10</title>
<g id="a_node10"><a xlink:title=" ">
<polygon fill="none" stroke="#bfbfbf" points="460,-56.5 460,-86.5 635,-86.5 635,-56.5 460,-56.5"/>
<text text-anchor="start" x="468" y="-74.5" font-family="FreeSans.ttf" font-size="10.00">yarp/dev/ControlBoardInterfaces</text>
<text text-anchor="middle" x="547.5" y="-63.5" font-family="FreeSans.ttf" font-size="10.00">Impl.h</text>
</a>
</g>
</g>
<!-- Node2&#45;&gt;Node10 -->
<g id="edge9" class="edge">
<title>Node2&#45;&gt;Node10</title>
<path fill="none" stroke="midnightblue" d="M1948.85,-132.48C1759.58,-133.5 1155.43,-132.74 645.36,-86.99"/>
<polygon fill="midnightblue" stroke="midnightblue" points="645.49,-83.49 635.21,-86.08 644.86,-90.46 645.49,-83.49"/>
</g>
<!-- Node11 -->
<g id="node11" class="node">
<title>Node11</title>
<g id="a_node11"><a xlink:title=" ">
<polygon fill="none" stroke="#bfbfbf" points="653.5,-62 653.5,-81 837.5,-81 837.5,-62 653.5,-62"/>
<text text-anchor="middle" x="745.5" y="-69" font-family="FreeSans.ttf" font-size="10.00">yarp/dev/ControlBoardInterfaces.h</text>
</a>
</g>
</g>
<!-- Node2&#45;&gt;Node11 -->
<g id="edge10" class="edge">
<title>Node2&#45;&gt;Node11</title>
<path fill="none" stroke="midnightblue" d="M1948.8,-131.87C1777.12,-131.04 1267.47,-125.26 846.5,-87 833.9,-85.85 820.47,-84.22 807.66,-82.46"/>
<polygon fill="midnightblue" stroke="midnightblue" points="807.93,-78.96 797.54,-81.03 806.95,-85.89 807.93,-78.96"/>
</g>
<!-- Node12 -->
<g id="node12" class="node">
<title>Node12</title>
<g id="a_node12"><a xlink:title=" ">
<polygon fill="none" stroke="#bfbfbf" points="856,-62 856,-81 993,-81 993,-62 856,-62"/>
<text text-anchor="middle" x="924.5" y="-69" font-family="FreeSans.ttf" font-size="10.00">yarp/dev/IControlMode.h</text>
</a>
</g>
</g>
<!-- Node2&#45;&gt;Node12 -->
<g id="edge11" class="edge">
<title>Node2&#45;&gt;Node12</title>
<path fill="none" stroke="midnightblue" d="M1948.74,-132.22C1792.62,-132.17 1359.86,-128.01 1002.5,-87 993.36,-85.95 983.67,-84.46 974.35,-82.83"/>
<polygon fill="midnightblue" stroke="midnightblue" points="974.89,-79.37 964.42,-81.03 973.63,-86.26 974.89,-79.37"/>
</g>
<!-- Node13 -->
<g id="node13" class="node">
<title>Node13</title>
<g id="a_node13"><a xlink:title=" ">
<polygon fill="none" stroke="#bfbfbf" points="1011.5,-62 1011.5,-81 1165.5,-81 1165.5,-62 1011.5,-62"/>
<text text-anchor="middle" x="1088.5" y="-69" font-family="FreeSans.ttf" font-size="10.00">yarp/dev/IInteractionMode.h</text>
</a>
</g>
</g>
<!-- Node2&#45;&gt;Node13 -->
<g id="edge12" class="edge">
<title>Node2&#45;&gt;Node13</title>
<path fill="none" stroke="midnightblue" d="M1948.9,-131.1C1811.81,-128.51 1463.64,-119.07 1174.5,-87 1164.45,-85.89 1153.8,-84.37 1143.54,-82.73"/>
<polygon fill="midnightblue" stroke="midnightblue" points="1143.88,-79.24 1133.45,-81.06 1142.74,-86.15 1143.88,-79.24"/>
</g>
<!-- Node14 -->
<g id="node14" class="node">
<title>Node14</title>
<g id="a_node14"><a xlink:title=" ">
<polygon fill="none" stroke="#bfbfbf" points="1183.5,-62 1183.5,-81 1341.5,-81 1341.5,-62 1183.5,-62"/>
<text text-anchor="middle" x="1262.5" y="-69" font-family="FreeSans.ttf" font-size="10.00">yarp/dev/IRemoteVariables.h</text>
</a>
</g>
</g>
<!-- Node2&#45;&gt;Node14 -->
<g id="edge13" class="edge">
<title>Node2&#45;&gt;Node14</title>
<path fill="none" stroke="midnightblue" d="M1948.9,-129.82C1833.21,-125.18 1570.3,-112.57 1350.5,-87 1340.24,-85.81 1329.36,-84.25 1318.87,-82.6"/>
<polygon fill="midnightblue" stroke="midnightblue" points="1319.4,-79.14 1308.97,-81 1318.28,-86.05 1319.4,-79.14"/>
</g>
<!-- Node15 -->
<g id="node15" class="node">
<title>Node15</title>
<g id="a_node15"><a xlink:title=" ">
<polygon fill="none" stroke="#bfbfbf" points="1360,-62 1360,-81 1533,-81 1533,-62 1360,-62"/>
<text text-anchor="middle" x="1446.5" y="-69" font-family="FreeSans.ttf" font-size="10.00">yarp/dev/IVirtualAnalogSensor.h</text>
</a>
</g>
</g>
<!-- Node2&#45;&gt;Node15 -->
<g id="edge14" class="edge">
<title>Node2&#45;&gt;Node15</title>
<path fill="none" stroke="midnightblue" d="M1948.8,-127.27C1860.05,-120 1688.1,-105.01 1542.5,-87 1531.81,-85.68 1520.47,-84.11 1509.47,-82.5"/>
<polygon fill="midnightblue" stroke="midnightblue" points="1509.9,-79.03 1499.5,-81.02 1508.87,-85.95 1509.9,-79.03"/>
</g>
<!-- Node16 -->
<g id="node16" class="node">
<title>Node16</title>
<g id="a_node16"><a xlink:title=" ">
<polygon fill="none" stroke="#bfbfbf" points="1551.5,-62 1551.5,-81 1649.5,-81 1649.5,-62 1551.5,-62"/>
<text text-anchor="middle" x="1600.5" y="-69" font-family="FreeSans.ttf" font-size="10.00">yarp/sig/Vector.h</text>
</a>
</g>
</g>
<!-- Node2&#45;&gt;Node16 -->
<g id="edge15" class="edge">
<title>Node2&#45;&gt;Node16</title>
<path fill="none" stroke="midnightblue" d="M1948.71,-126.47C1878.77,-119.49 1759.64,-106.08 1658.5,-87 1653.02,-85.97 1647.28,-84.73 1641.64,-83.41"/>
<polygon fill="midnightblue" stroke="midnightblue" points="1642.2,-79.95 1631.66,-81 1640.55,-86.75 1642.2,-79.95"/>
</g>
<!-- Node17 -->
<g id="node17" class="node">
<title>Node17</title>
<g id="a_node17"><a xlink:title=" ">
<polygon fill="none" stroke="#bfbfbf" points="1668,-62 1668,-81 1757,-81 1757,-62 1668,-62"/>
<text text-anchor="middle" x="1712.5" y="-69" font-family="FreeSans.ttf" font-size="10.00">yarp/os/Time.h</text>
</a>
</g>
</g>
<!-- Node2&#45;&gt;Node17 -->
<g id="edge16" class="edge">
<title>Node2&#45;&gt;Node17</title>
<path fill="none" stroke="midnightblue" d="M1955.86,-123.44C1906.67,-115.15 1831.3,-101.7 1766.5,-87 1762.01,-85.98 1757.33,-84.84 1752.69,-83.66"/>
<polygon fill="midnightblue" stroke="midnightblue" points="1753.23,-80.19 1742.67,-81.05 1751.46,-86.96 1753.23,-80.19"/>
</g>
<!-- Node18 -->
<g id="node18" class="node">
<title>Node18</title>
<g id="a_node18"><a xlink:title=" ">
<polygon fill="none" stroke="#bfbfbf" points="1775.5,-62 1775.5,-81 1871.5,-81 1871.5,-62 1775.5,-62"/>
<text text-anchor="middle" x="1823.5" y="-69" font-family="FreeSans.ttf" font-size="10.00">yarp/os/Stamp.h</text>
</a>
</g>
</g>
<!-- Node2&#45;&gt;Node18 -->
<g id="edge17" class="edge">
<title>Node2&#45;&gt;Node18</title>
<path fill="none" stroke="midnightblue" d="M1981.99,-123.48C1949.85,-113.14 1895.51,-95.66 1859.57,-84.1"/>
<polygon fill="midnightblue" stroke="midnightblue" points="1860.55,-80.74 1849.96,-81.01 1858.4,-87.4 1860.55,-80.74"/>
</g>
<!-- Node19 -->
<g id="node19" class="node">
<title>Node19</title>
<g id="a_node19"><a xlink:title=" ">
<polygon fill="none" stroke="#bfbfbf" points="3347,-62 3347,-81 3466,-81 3466,-62 3347,-62"/>
<text text-anchor="middle" x="3406.5" y="-69" font-family="FreeSans.ttf" font-size="10.00">boost/shared_ptr.hpp</text>
</a>
</g>
</g>
<!-- Node2&#45;&gt;Node19 -->
<g id="edge18" class="edge">
<title>Node2&#45;&gt;Node19</title>
<path fill="none" stroke="midnightblue" d="M2068.03,-131.36C2292.36,-128.72 3086.54,-117.39 3337.5,-87 3345.36,-86.05 3353.65,-84.65 3361.66,-83.1"/>
<polygon fill="midnightblue" stroke="midnightblue" points="3362.5,-86.5 3371.59,-81.06 3361.09,-79.64 3362.5,-86.5"/>
</g>
<!-- Node20 -->
<g id="node20" class="node">
<title>Node20</title>
<g id="a_node20"><a xlink:href="ControlBoardDriverRange_8h.html" target="_top" xlink:title=" ">
<polygon fill="none" stroke="black" points="1983.5,-0.5 1983.5,-19.5 2133.5,-19.5 2133.5,-0.5 1983.5,-0.5"/>
<text text-anchor="middle" x="2058.5" y="-7.5" font-family="FreeSans.ttf" font-size="10.00">ControlBoardDriverRange.h</text>
</a>
</g>
</g>
<!-- Node2&#45;&gt;Node20 -->
<g id="edge19" class="edge">
<title>Node2&#45;&gt;Node20</title>
<path fill="none" stroke="midnightblue" d="M2045.6,-123.46C2064.94,-116.92 2086.93,-105.72 2098.5,-87 2111.03,-66.73 2092.32,-42.14 2076.49,-26.53"/>
<polygon fill="midnightblue" stroke="midnightblue" points="2078.81,-23.9 2069.11,-19.65 2074.04,-29.03 2078.81,-23.9"/>
</g>
<!-- Node21 -->
<g id="node21" class="node">
<title>Node21</title>
<g id="a_node21"><a xlink:href="ControlBoardDriverTrajectory_8h.html" target="_top" xlink:title=" ">
<polygon fill="none" stroke="black" points="2145.5,-62 2145.5,-81 2311.5,-81 2311.5,-62 2145.5,-62"/>
<text text-anchor="middle" x="2228.5" y="-69" font-family="FreeSans.ttf" font-size="10.00">ControlBoardDriverTrajectory.h</text>
</a>
</g>
</g>
<!-- Node2&#45;&gt;Node21 -->
<g id="edge20" class="edge">
<title>Node2&#45;&gt;Node21</title>
<path fill="none" stroke="midnightblue" d="M2040.02,-123.48C2078.74,-113 2144.52,-95.21 2187.24,-83.66"/>
<polygon fill="midnightblue" stroke="midnightblue" points="2188.3,-87 2197.04,-81.01 2186.47,-80.24 2188.3,-87"/>
</g>
<!-- Node24 -->
<g id="node24" class="node">
<title>Node24</title>
<g id="a_node24"><a xlink:href="ControlBoardDriverCoupling_8h.html" target="_top" xlink:title=" ">
<polygon fill="none" stroke="black" points="1927.5,-62 1927.5,-81 2089.5,-81 2089.5,-62 1927.5,-62"/>
<text text-anchor="middle" x="2008.5" y="-69" font-family="FreeSans.ttf" font-size="10.00">ControlBoardDriverCoupling.h</text>
</a>
</g>
</g>
<!-- Node2&#45;&gt;Node24 -->
<g id="edge23" class="edge">
<title>Node2&#45;&gt;Node24</title>
<path fill="none" stroke="midnightblue" d="M2008.5,-123.48C2008.5,-115.08 2008.5,-101.98 2008.5,-91.16"/>
<polygon fill="midnightblue" stroke="midnightblue" points="2012,-91.01 2008.5,-81.01 2005,-91.01 2012,-91.01"/>
</g>
<!-- Node25 -->
<g id="node25" class="node">
<title>Node25</title>
<g id="a_node25"><a xlink:title=" ">
<polygon fill="none" stroke="#bfbfbf" points="1866,-0.5 1866,-19.5 1959,-19.5 1959,-0.5 1866,-0.5"/>
<text text-anchor="middle" x="1912.5" y="-7.5" font-family="FreeSans.ttf" font-size="10.00">unordered_map</text>
</a>
</g>
</g>
<!-- Node2&#45;&gt;Node25 -->
<g id="edge31" class="edge">
<title>Node2&#45;&gt;Node25</title>
<path fill="none" stroke="midnightblue" d="M1972.87,-123.41C1953.5,-116.79 1931,-105.54 1918.5,-87 1907.2,-70.23 1907.25,-46.42 1909.13,-29.93"/>
<polygon fill="midnightblue" stroke="midnightblue" points="1912.62,-30.27 1910.6,-19.87 1905.69,-29.26 1912.62,-30.27"/>
</g>
<!-- Node26 -->
<g id="node26" class="node">
<title>Node26</title>
<g id="a_node26"><a xlink:title=" ">
<polygon fill="none" stroke="#bfbfbf" points="2329.5,-62 2329.5,-81 2461.5,-81 2461.5,-62 2329.5,-62"/>
<text text-anchor="middle" x="2395.5" y="-69" font-family="FreeSans.ttf" font-size="10.00">gazebo/common/PID.hh</text>
</a>
</g>
</g>
<!-- Node2&#45;&gt;Node26 -->
<g id="edge27" class="edge">
<title>Node2&#45;&gt;Node26</title>
<path fill="none" stroke="midnightblue" d="M2068.15,-124.26C2131.04,-115.89 2232.94,-101.77 2320.5,-87 2327.87,-85.76 2335.62,-84.36 2343.24,-82.94"/>
<polygon fill="midnightblue" stroke="midnightblue" points="2343.95,-86.36 2353.12,-81.06 2342.65,-79.49 2343.95,-86.36"/>
</g>
<!-- Node27 -->
<g id="node27" class="node">
<title>Node27</title>
<g id="a_node27"><a xlink:title=" ">
<polygon fill="none" stroke="#bfbfbf" points="2479.5,-62 2479.5,-81 2619.5,-81 2619.5,-62 2479.5,-62"/>
<text text-anchor="middle" x="2549.5" y="-69" font-family="FreeSans.ttf" font-size="10.00">gazebo/common/Time.hh</text>
</a>
</g>
</g>
<!-- Node2&#45;&gt;Node27 -->
<g id="edge28" class="edge">
<title>Node2&#45;&gt;Node27</title>
<path fill="none" stroke="midnightblue" d="M2068.13,-127.81C2156.33,-121.25 2326.65,-107.17 2470.5,-87 2478.94,-85.82 2487.85,-84.37 2496.52,-82.86"/>
<polygon fill="midnightblue" stroke="midnightblue" points="2497.33,-86.27 2506.56,-81.06 2496.1,-79.38 2497.33,-86.27"/>
</g>
<!-- Node28 -->
<g id="node28" class="node">
<title>Node28</title>
<g id="a_node28"><a xlink:title=" ">
<polygon fill="none" stroke="#bfbfbf" points="2637.5,-62 2637.5,-81 2681.5,-81 2681.5,-62 2637.5,-62"/>
<text text-anchor="middle" x="2659.5" y="-69" font-family="FreeSans.ttf" font-size="10.00">string</text>
</a>
</g>
</g>
<!-- Node2&#45;&gt;Node28 -->
<g id="edge29" class="edge">
<title>Node2&#45;&gt;Node28</title>
<path fill="none" stroke="midnightblue" d="M2068.02,-130.43C2201.99,-126.47 2523.68,-114.32 2628.5,-87 2630.48,-86.48 2632.5,-85.84 2634.49,-85.12"/>
<polygon fill="midnightblue" stroke="midnightblue" points="2636.3,-88.15 2644.15,-81.03 2633.57,-81.71 2636.3,-88.15"/>
</g>
<!-- Node29 -->
<g id="node29" class="node">
<title>Node29</title>
<g id="a_node29"><a xlink:title=" ">
<polygon fill="none" stroke="#bfbfbf" points="2700,-62 2700,-81 2765,-81 2765,-62 2700,-62"/>
<text text-anchor="middle" x="2732.5" y="-69" font-family="FreeSans.ttf" font-size="10.00">functional</text>
</a>
</g>
</g>
<!-- Node2&#45;&gt;Node29 -->
<g id="edge30" class="edge">
<title>Node2&#45;&gt;Node29</title>
<path fill="none" stroke="midnightblue" d="M2068.12,-130.1C2211.45,-125.22 2572.22,-110.87 2690.5,-87 2694.01,-86.29 2697.63,-85.36 2701.2,-84.32"/>
<polygon fill="midnightblue" stroke="midnightblue" points="2702.57,-87.55 2711.01,-81.15 2700.42,-80.89 2702.57,-87.55"/>
</g>
<!-- Node30 -->
<g id="node30" class="node">
<title>Node30</title>
<g id="a_node30"><a xlink:title=" ">
<polygon fill="none" stroke="#bfbfbf" points="2783,-62 2783,-81 2830,-81 2830,-62 2783,-62"/>
<text text-anchor="middle" x="2806.5" y="-69" font-family="FreeSans.ttf" font-size="10.00">vector</text>
</a>
</g>
</g>
<!-- Node2&#45;&gt;Node30 -->
<g id="edge32" class="edge">
<title>Node2&#45;&gt;Node30</title>
<path fill="none" stroke="midnightblue" d="M2068.27,-131.21C2224.09,-128.72 2639.95,-119.17 2773.5,-87 2775.86,-86.43 2778.27,-85.7 2780.64,-84.87"/>
<polygon fill="midnightblue" stroke="midnightblue" points="2782.14,-88.04 2790.11,-81.07 2779.53,-81.55 2782.14,-88.04"/>
</g>
<!-- Node22 -->
<g id="node22" class="node">
<title>Node22</title>
<g id="a_node22"><a xlink:title=" ">
<polygon fill="none" stroke="#bfbfbf" points="2154.5,-0.5 2154.5,-19.5 2294.5,-19.5 2294.5,-0.5 2154.5,-0.5"/>
<text text-anchor="middle" x="2224.5" y="-7.5" font-family="FreeSans.ttf" font-size="10.00">gazebo/physics/Model.hh</text>
</a>
</g>
</g>
<!-- Node21&#45;&gt;Node22 -->
<g id="edge21" class="edge">
<title>Node21&#45;&gt;Node22</title>
<path fill="none" stroke="midnightblue" d="M2227.93,-61.98C2227.36,-53.58 2226.48,-40.48 2225.75,-29.66"/>
<polygon fill="midnightblue" stroke="midnightblue" points="2229.24,-29.25 2225.07,-19.51 2222.25,-29.72 2229.24,-29.25"/>
</g>
<!-- Node23 -->
<g id="node23" class="node">
<title>Node23</title>
<g id="a_node23"><a xlink:title=" ">
<polygon fill="none" stroke="#bfbfbf" points="3053.5,-0.5 3053.5,-19.5 3101.5,-19.5 3101.5,-0.5 3053.5,-0.5"/>
<text text-anchor="middle" x="3077.5" y="-7.5" font-family="FreeSans.ttf" font-size="10.00">mutex</text>
</a>
</g>
</g>
<!-- Node21&#45;&gt;Node23 -->
<g id="edge22" class="edge">
<title>Node21&#45;&gt;Node23</title>
<path fill="none" stroke="midnightblue" d="M2277.08,-61.94C2291.06,-59.72 2306.35,-57.53 2320.5,-56 2598.27,-25.93 2935.7,-14.79 3043.01,-11.86"/>
<polygon fill="midnightblue" stroke="midnightblue" points="3043.34,-15.35 3053.24,-11.59 3043.15,-8.35 3043.34,-15.35"/>
</g>
<!-- Node24&#45;&gt;Node20 -->
<g id="edge24" class="edge">
<title>Node24&#45;&gt;Node20</title>
<path fill="none" stroke="midnightblue" d="M2015.66,-61.98C2023.24,-52.96 2035.37,-38.52 2044.79,-27.31"/>
<polygon fill="midnightblue" stroke="midnightblue" points="2047.6,-29.42 2051.35,-19.51 2042.24,-24.91 2047.6,-29.42"/>
</g>
<!-- Node24&#45;&gt;Node22 -->
<g id="edge25" class="edge">
<title>Node24&#45;&gt;Node22</title>
<path fill="none" stroke="midnightblue" d="M2039.45,-61.98C2077.38,-51.53 2141.78,-33.79 2183.72,-22.23"/>
<polygon fill="midnightblue" stroke="midnightblue" points="2184.9,-25.54 2193.61,-19.51 2183.04,-18.79 2184.9,-25.54"/>
</g>
<!-- Node24&#45;&gt;Node25 -->
<g id="edge26" class="edge">
<title>Node24&#45;&gt;Node25</title>
<path fill="none" stroke="midnightblue" d="M1994.75,-61.98C1979.13,-52.3 1953.44,-36.37 1934.92,-24.89"/>
<polygon fill="midnightblue" stroke="midnightblue" points="1936.57,-21.8 1926.23,-19.51 1932.88,-27.75 1936.57,-21.8"/>
</g>
<!-- Node31&#45;&gt;Node6 -->
<g id="edge38" class="edge">
<title>Node31&#45;&gt;Node6</title>
<path fill="none" stroke="midnightblue" d="M3615.38,-123.62C3542.23,-115.72 3432.42,-102.74 3337.5,-87 3330.59,-85.85 3323.32,-84.51 3316.2,-83.11"/>
<polygon fill="midnightblue" stroke="midnightblue" points="3316.4,-79.58 3305.91,-81.03 3315.02,-86.44 3316.4,-79.58"/>
</g>
<!-- Node31&#45;&gt;Node19 -->
<g id="edge36" class="edge">
<title>Node31&#45;&gt;Node19</title>
<path fill="none" stroke="midnightblue" d="M3654.3,-123.43C3609.36,-114.48 3536.96,-99.96 3474.5,-87 3468.59,-85.77 3462.4,-84.47 3456.26,-83.18"/>
<polygon fill="midnightblue" stroke="midnightblue" points="3456.55,-79.66 3446.04,-81.01 3455.09,-86.51 3456.55,-79.66"/>
</g>
<!-- Node31&#45;&gt;Node23 -->
<g id="edge37" class="edge">
<title>Node31&#45;&gt;Node23</title>
<path fill="none" stroke="midnightblue" d="M3744.83,-123.42C3765.6,-117.05 3788.05,-106.02 3800.5,-87 3808.04,-75.47 3809.93,-66.04 3800.5,-56 3776.66,-30.63 3252.91,-15.47 3112.09,-11.85"/>
<polygon fill="midnightblue" stroke="midnightblue" points="3111.97,-8.35 3101.88,-11.59 3111.79,-15.34 3111.97,-8.35"/>
</g>
<!-- Node32 -->
<g id="node32" class="node">
<title>Node32</title>
<g id="a_node32"><a xlink:title=" ">
<polygon fill="none" stroke="#bfbfbf" points="3753.5,-62 3753.5,-81 3791.5,-81 3791.5,-62 3753.5,-62"/>
<text text-anchor="middle" x="3772.5" y="-69" font-family="FreeSans.ttf" font-size="10.00">map</text>
</a>
</g>
</g>
<!-- Node31&#45;&gt;Node32 -->
<g id="edge34" class="edge">
<title>Node31&#45;&gt;Node32</title>
<path fill="none" stroke="midnightblue" d="M3708.25,-123.48C3720.05,-114.11 3739.24,-98.88 3753.58,-87.51"/>
<polygon fill="midnightblue" stroke="midnightblue" points="3756.12,-89.97 3761.77,-81.01 3751.76,-84.48 3756.12,-89.97"/>
</g>
<!-- Node33 -->
<g id="node33" class="node">
<title>Node33</title>
<g id="a_node33"><a xlink:title=" ">
<polygon fill="none" stroke="#bfbfbf" points="3484,-62 3484,-81 3577,-81 3577,-62 3484,-62"/>
<text text-anchor="middle" x="3530.5" y="-69" font-family="FreeSans.ttf" font-size="10.00">sdf/sdf_config.h</text>
</a>
</g>
</g>
<!-- Node31&#45;&gt;Node33 -->
<g id="edge35" class="edge">
<title>Node31&#45;&gt;Node33</title>
<path fill="none" stroke="midnightblue" d="M3673.57,-123.48C3644.8,-113.22 3596.34,-95.96 3563.9,-84.4"/>
<polygon fill="midnightblue" stroke="midnightblue" points="3564.98,-81.07 3554.38,-81.01 3562.63,-87.66 3564.98,-81.07"/>
</g>
<!-- Node34 -->
<g id="node34" class="node">
<title>Node34</title>
<g id="a_node34"><a xlink:title=" ">
<polygon fill="none" stroke="#bfbfbf" points="3595.5,-62 3595.5,-81 3735.5,-81 3735.5,-62 3595.5,-62"/>
<text text-anchor="middle" x="3665.5" y="-69" font-family="FreeSans.ttf" font-size="10.00">yarp/dev/PolyDriverList.h</text>
</a>
</g>
</g>
<!-- Node31&#45;&gt;Node34 -->
<g id="edge39" class="edge">
<title>Node31&#45;&gt;Node34</title>
<path fill="none" stroke="midnightblue" d="M3692.92,-123.48C3688.26,-114.82 3680.91,-101.15 3674.99,-90.15"/>
<polygon fill="midnightblue" stroke="midnightblue" points="3677.9,-88.16 3670.08,-81.01 3671.73,-91.47 3677.9,-88.16"/>
</g>
<!-- Node31&#45;&gt;Node35 -->
<g id="edge40" class="edge">
<title>Node31&#45;&gt;Node35</title>
<path fill="none" stroke="midnightblue" d="M3729.59,-123.48C3769.1,-112.98 3836.28,-95.14 3879.76,-83.59"/>
<polygon fill="midnightblue" stroke="midnightblue" points="3880.7,-86.96 3889.47,-81.01 3878.9,-80.19 3880.7,-86.96"/>
</g>
<!-- Node37 -->
<g id="node37" class="node">
<title>Node37</title>
<g id="a_node37"><a xlink:title=" ">
<polygon fill="none" stroke="#bfbfbf" points="4149.5,-62 4149.5,-81 4287.5,-81 4287.5,-62 4149.5,-62"/>
<text text-anchor="middle" x="4218.5" y="-69" font-family="FreeSans.ttf" font-size="10.00">yarp/os/LogComponent.h</text>
</a>
</g>
</g>
<!-- Node36&#45;&gt;Node37 -->
<g id="edge42" class="edge">
<title>Node36&#45;&gt;Node37</title>
<path fill="none" stroke="midnightblue" d="M4093.42,-123.48C4118.25,-113.36 4159.84,-96.4 4188.19,-84.85"/>
<polygon fill="midnightblue" stroke="midnightblue" points="4189.68,-88.02 4197.62,-81.01 4187.04,-81.54 4189.68,-88.02"/>
</g>
<!-- Node38 -->
<g id="node38" class="node">
<title>Node38</title>
<g id="a_node38"><a xlink:title=" ">
<polygon fill="none" stroke="#bfbfbf" points="4014,-62 4014,-81 4131,-81 4131,-62 4014,-62"/>
<text text-anchor="middle" x="4072.5" y="-69" font-family="FreeSans.ttf" font-size="10.00">yarp/os/LogStream.h</text>
</a>
</g>
</g>
<!-- Node36&#45;&gt;Node38 -->
<g id="edge43" class="edge">
<title>Node36&#45;&gt;Node38</title>
<path fill="none" stroke="midnightblue" d="M4072.5,-123.48C4072.5,-115.08 4072.5,-101.98 4072.5,-91.16"/>
<polygon fill="midnightblue" stroke="midnightblue" points="4076,-91.01 4072.5,-81.01 4069,-91.01 4076,-91.01"/>
</g>
</g>
</svg>
