<?xml version="1.0" encoding="UTF-8" standalone="no"?>
<!DOCTYPE svg PUBLIC "-//W3C//DTD SVG 1.1//EN"
 "http://www.w3.org/Graphics/SVG/1.1/DTD/svg11.dtd">
<!-- Generated by graphviz version 2.43.0 (0)
 -->
<!-- Title: ContactLoadCellArray.cc Pages: 1 -->
<svg width="4229pt" height="140pt"
 viewBox="0.00 0.00 4228.50 140.00" xmlns="http://www.w3.org/2000/svg" xmlns:xlink="http://www.w3.org/1999/xlink">
<g id="graph0" class="graph" transform="scale(1 1) rotate(0) translate(4 136)">
<title>ContactLoadCellArray.cc</title>
<!-- Node1 -->
<g id="node1" class="node">
<title>Node1</title>
<g id="a_node1"><a xlink:title=" ">
<polygon fill="#bfbfbf" stroke="black" points="3475,-112.5 3475,-131.5 3609,-131.5 3609,-112.5 3475,-112.5"/>
<text text-anchor="middle" x="3542" y="-119.5" font-family="FreeSans.ttf" font-size="10.00">ContactLoadCellArray.cc</text>
</a>
</g>
</g>
<!-- Node2 -->
<g id="node2" class="node">
<title>Node2</title>
<g id="a_node2"><a xlink:href="ContactLoadCellArrayDriver_8h.html" target="_top" xlink:title=" ">
<polygon fill="none" stroke="black" points="1592.5,-56.5 1592.5,-75.5 1753.5,-75.5 1753.5,-56.5 1592.5,-56.5"/>
<text text-anchor="middle" x="1673" y="-63.5" font-family="FreeSans.ttf" font-size="10.00">ContactLoadCellArrayDriver.h</text>
</a>
</g>
</g>
<!-- Node1&#45;&gt;Node2 -->
<g id="edge1" class="edge">
<title>Node1&#45;&gt;Node2</title>
<path fill="none" stroke="midnightblue" d="M3474.93,-119.06C3191.22,-110.87 2089.37,-79.03 1763.97,-69.63"/>
<polygon fill="midnightblue" stroke="midnightblue" points="1763.74,-66.12 1753.65,-69.33 1763.54,-73.12 1763.74,-66.12"/>
</g>
<!-- Node22 -->
<g id="node22" class="node">
<title>Node22</title>
<g id="a_node22"><a xlink:href="ContactLoadCellArray_8hh.html" target="_top" xlink:title=" ">
<polygon fill="none" stroke="black" points="3031,-56.5 3031,-75.5 3167,-75.5 3167,-56.5 3031,-56.5"/>
<text text-anchor="middle" x="3099" y="-63.5" font-family="FreeSans.ttf" font-size="10.00">ContactLoadCellArray.hh</text>
</a>
</g>
</g>
<!-- Node1&#45;&gt;Node22 -->
<g id="edge21" class="edge">
<title>Node1&#45;&gt;Node22</title>
<path fill="none" stroke="midnightblue" d="M3474.72,-112.8C3394.82,-103.06 3261.78,-86.84 3177.33,-76.55"/>
<polygon fill="midnightblue" stroke="midnightblue" points="3177.63,-73.06 3167.28,-75.32 3176.78,-80.01 3177.63,-73.06"/>
</g>
<!-- Node23 -->
<g id="node23" class="node">
<title>Node23</title>
<g id="a_node23"><a xlink:title=" ">
<polygon fill="none" stroke="#bfbfbf" points="3098,-0.5 3098,-19.5 3142,-19.5 3142,-0.5 3098,-0.5"/>
<text text-anchor="middle" x="3120" y="-7.5" font-family="FreeSans.ttf" font-size="10.00">string</text>
</a>
</g>
</g>
<!-- Node1&#45;&gt;Node23 -->
<g id="edge45" class="edge">
<title>Node1&#45;&gt;Node23</title>
<path fill="none" stroke="midnightblue" d="M3474.7,-120.83C3406.75,-118.59 3299.85,-109.37 3214,-76 3184.28,-64.45 3154.83,-41.79 3137.02,-26.51"/>
<polygon fill="midnightblue" stroke="midnightblue" points="3139.09,-23.67 3129.27,-19.69 3134.47,-28.92 3139.09,-23.67"/>
</g>
<!-- Node28 -->
<g id="node28" class="node">
<title>Node28</title>
<g id="a_node28"><a xlink:href="Handler_8hh.html" target="_top" xlink:title=" ">
<polygon fill="none" stroke="black" points="3405,-56.5 3405,-75.5 3569,-75.5 3569,-56.5 3405,-56.5"/>
<text text-anchor="middle" x="3487" y="-63.5" font-family="FreeSans.ttf" font-size="10.00">GazeboYarpPlugins/Handler.hh</text>
</a>
</g>
</g>
<!-- Node1&#45;&gt;Node28 -->
<g id="edge28" class="edge">
<title>Node1&#45;&gt;Node28</title>
<path fill="none" stroke="midnightblue" d="M3532.92,-112.08C3524.83,-104.14 3512.8,-92.34 3503.09,-82.8"/>
<polygon fill="midnightblue" stroke="midnightblue" points="3505.5,-80.26 3495.91,-75.75 3500.6,-85.25 3505.5,-80.26"/>
</g>
<!-- Node31 -->
<g id="node31" class="node">
<title>Node31</title>
<g id="a_node31"><a xlink:title=" ">
<polygon fill="none" stroke="#bfbfbf" points="3552,-0.5 3552,-19.5 3674,-19.5 3674,-0.5 3552,-0.5"/>
<text text-anchor="middle" x="3613" y="-7.5" font-family="FreeSans.ttf" font-size="10.00">yarp/dev/PolyDriver.h</text>
</a>
</g>
</g>
<!-- Node1&#45;&gt;Node31 -->
<g id="edge43" class="edge">
<title>Node1&#45;&gt;Node31</title>
<path fill="none" stroke="midnightblue" d="M3549.67,-112.39C3557.31,-103.59 3569.17,-89.35 3578,-76 3588.14,-60.67 3597.91,-42.11 3604.53,-28.76"/>
<polygon fill="midnightblue" stroke="midnightblue" points="3607.71,-30.22 3608.94,-19.7 3601.42,-27.16 3607.71,-30.22"/>
</g>
<!-- Node32 -->
<g id="node32" class="node">
<title>Node32</title>
<g id="a_node32"><a xlink:href="common_8h.html" target="_top" xlink:title=" ">
<polygon fill="none" stroke="black" points="3223,-56.5 3223,-75.5 3387,-75.5 3387,-56.5 3223,-56.5"/>
<text text-anchor="middle" x="3305" y="-63.5" font-family="FreeSans.ttf" font-size="10.00">GazeboYarpPlugins/common.h</text>
</a>
</g>
</g>
<!-- Node1&#45;&gt;Node32 -->
<g id="edge35" class="edge">
<title>Node1&#45;&gt;Node32</title>
<path fill="none" stroke="midnightblue" d="M3504.45,-112.44C3463.19,-103.04 3396.86,-87.93 3352.13,-77.74"/>
<polygon fill="midnightblue" stroke="midnightblue" points="3352.91,-74.33 3342.38,-75.52 3351.35,-81.15 3352.91,-74.33"/>
</g>
<!-- Node34 -->
<g id="node34" class="node">
<title>Node34</title>
<g id="a_node34"><a xlink:href="ConfHelpers_8hh.html" target="_top" xlink:title=" ">
<polygon fill="none" stroke="black" points="3624.5,-56.5 3624.5,-75.5 3811.5,-75.5 3811.5,-56.5 3624.5,-56.5"/>
<text text-anchor="middle" x="3718" y="-63.5" font-family="FreeSans.ttf" font-size="10.00">GazeboYarpPlugins/ConfHelpers.hh</text>
</a>
</g>
</g>
<!-- Node1&#45;&gt;Node34 -->
<g id="edge38" class="edge">
<title>Node1&#45;&gt;Node34</title>
<path fill="none" stroke="midnightblue" d="M3569.89,-112.44C3599.75,-103.28 3647.31,-88.69 3680.46,-78.52"/>
<polygon fill="midnightblue" stroke="midnightblue" points="3681.71,-81.8 3690.24,-75.52 3679.66,-75.1 3681.71,-81.8"/>
</g>
<!-- Node37 -->
<g id="node37" class="node">
<title>Node37</title>
<g id="a_node37"><a xlink:title=" ">
<polygon fill="none" stroke="#bfbfbf" points="3829.5,-56.5 3829.5,-75.5 3984.5,-75.5 3984.5,-56.5 3829.5,-56.5"/>
<text text-anchor="middle" x="3907" y="-63.5" font-family="FreeSans.ttf" font-size="10.00">yarp/dev/IMultipleWrapper.h</text>
</a>
</g>
</g>
<!-- Node1&#45;&gt;Node37 -->
<g id="edge44" class="edge">
<title>Node1&#45;&gt;Node37</title>
<path fill="none" stroke="midnightblue" d="M3599.84,-112.44C3664.84,-102.83 3770.28,-87.23 3839.13,-77.04"/>
<polygon fill="midnightblue" stroke="midnightblue" points="3840.06,-80.44 3849.44,-75.52 3839.03,-73.52 3840.06,-80.44"/>
</g>
<!-- Node38 -->
<g id="node38" class="node">
<title>Node38</title>
<g id="a_node38"><a xlink:title=" ">
<polygon fill="none" stroke="#bfbfbf" points="4003,-56.5 4003,-75.5 4085,-75.5 4085,-56.5 4003,-56.5"/>
<text text-anchor="middle" x="4044" y="-63.5" font-family="FreeSans.ttf" font-size="10.00">yarp/os/Log.h</text>
</a>
</g>
</g>
<!-- Node1&#45;&gt;Node38 -->
<g id="edge46" class="edge">
<title>Node1&#45;&gt;Node38</title>
<path fill="none" stroke="midnightblue" d="M3609.21,-115.97C3695.59,-109.14 3850.43,-95.64 3992.63,-76.09"/>
<polygon fill="midnightblue" stroke="midnightblue" points="3993.42,-79.52 4002.84,-74.67 3992.45,-72.58 3993.42,-79.52"/>
</g>
<!-- Node39 -->
<g id="node39" class="node">
<title>Node39</title>
<g id="a_node39"><a xlink:title=" ">
<polygon fill="none" stroke="#bfbfbf" points="4103.5,-56.5 4103.5,-75.5 4220.5,-75.5 4220.5,-56.5 4103.5,-56.5"/>
<text text-anchor="middle" x="4162" y="-63.5" font-family="FreeSans.ttf" font-size="10.00">yarp/os/LogStream.h</text>
</a>
</g>
</g>
<!-- Node1&#45;&gt;Node39 -->
<g id="edge47" class="edge">
<title>Node1&#45;&gt;Node39</title>
<path fill="none" stroke="midnightblue" d="M3609.23,-116.61C3711.4,-109.7 3912.1,-95.18 4093.43,-76.01"/>
<polygon fill="midnightblue" stroke="midnightblue" points="4093.84,-79.48 4103.42,-74.94 4093.1,-72.52 4093.84,-79.48"/>
</g>
<!-- Node3 -->
<g id="node3" class="node">
<title>Node3</title>
<g id="a_node3"><a xlink:title=" ">
<polygon fill="none" stroke="#bfbfbf" points="1952,-0.5 1952,-19.5 2086,-19.5 2086,-0.5 1952,-0.5"/>
<text text-anchor="middle" x="2019" y="-7.5" font-family="FreeSans.ttf" font-size="10.00">yarp/dev/DeviceDriver.h</text>
</a>
</g>
</g>
<!-- Node2&#45;&gt;Node3 -->
<g id="edge2" class="edge">
<title>Node2&#45;&gt;Node3</title>
<path fill="none" stroke="midnightblue" d="M1727.82,-56.44C1789.32,-46.85 1888.98,-31.29 1954.26,-21.1"/>
<polygon fill="midnightblue" stroke="midnightblue" points="1955.09,-24.52 1964.43,-19.52 1954.01,-17.6 1955.09,-24.52"/>
</g>
<!-- Node4 -->
<g id="node4" class="node">
<title>Node4</title>
<g id="a_node4"><a xlink:title=" ">
<polygon fill="none" stroke="#bfbfbf" points="2104,-0.5 2104,-19.5 2244,-19.5 2244,-0.5 2104,-0.5"/>
<text text-anchor="middle" x="2174" y="-7.5" font-family="FreeSans.ttf" font-size="10.00">yarp/dev/IAnalogSensor.h</text>
</a>
</g>
</g>
<!-- Node2&#45;&gt;Node4 -->
<g id="edge3" class="edge">
<title>Node2&#45;&gt;Node4</title>
<path fill="none" stroke="midnightblue" d="M1753.53,-56.59C1836.22,-47.91 1968.95,-33.87 2093.68,-20.14"/>
<polygon fill="midnightblue" stroke="midnightblue" points="2094.24,-23.6 2103.79,-19.02 2093.47,-16.64 2094.24,-23.6"/>
</g>
<!-- Node5 -->
<g id="node5" class="node">
<title>Node5</title>
<g id="a_node5"><a xlink:title=" ">
<polygon fill="none" stroke="#bfbfbf" points="2262.5,-0.5 2262.5,-19.5 2411.5,-19.5 2411.5,-0.5 2262.5,-0.5"/>
<text text-anchor="middle" x="2337" y="-7.5" font-family="FreeSans.ttf" font-size="10.00">yarp/dev/IPreciselyTimed.h</text>
</a>
</g>
</g>
<!-- Node2&#45;&gt;Node5 -->
<g id="edge4" class="edge">
<title>Node2&#45;&gt;Node5</title>
<path fill="none" stroke="midnightblue" d="M1753.76,-59.48C1863.85,-51.8 2067.47,-36.99 2252.18,-20.05"/>
<polygon fill="midnightblue" stroke="midnightblue" points="2252.72,-23.51 2262.36,-19.11 2252.08,-16.54 2252.72,-23.51"/>
</g>
<!-- Node6 -->
<g id="node6" class="node">
<title>Node6</title>
<g id="a_node6"><a xlink:title=" ">
<polygon fill="none" stroke="#bfbfbf" points="2430,-0.5 2430,-19.5 2526,-19.5 2526,-0.5 2430,-0.5"/>
<text text-anchor="middle" x="2478" y="-7.5" font-family="FreeSans.ttf" font-size="10.00">yarp/os/Stamp.h</text>
</a>
</g>
</g>
<!-- Node2&#45;&gt;Node6 -->
<g id="edge5" class="edge">
<title>Node2&#45;&gt;Node6</title>
<path fill="none" stroke="midnightblue" d="M1753.63,-62.62C1890.81,-58.02 2178.27,-45.98 2420,-20 2420.1,-19.99 2420.2,-19.98 2420.3,-19.97"/>
<polygon fill="midnightblue" stroke="midnightblue" points="2420.43,-23.48 2429.94,-18.81 2419.59,-16.53 2420.43,-23.48"/>
</g>
<!-- Node7 -->
<g id="node7" class="node">
<title>Node7</title>
<g id="a_node7"><a xlink:title=" ">
<polygon fill="none" stroke="#bfbfbf" points="2544.5,-0.5 2544.5,-19.5 2643.5,-19.5 2643.5,-0.5 2544.5,-0.5"/>
<text text-anchor="middle" x="2594" y="-7.5" font-family="FreeSans.ttf" font-size="10.00">yarp/sig/Matrix.h</text>
</a>
</g>
</g>
<!-- Node2&#45;&gt;Node7 -->
<g id="edge6" class="edge">
<title>Node2&#45;&gt;Node7</title>
<path fill="none" stroke="midnightblue" d="M1753.72,-63.46C1904.85,-59.98 2240.92,-49.49 2534.48,-19.93"/>
<polygon fill="midnightblue" stroke="midnightblue" points="2534.88,-23.41 2544.47,-18.92 2534.17,-16.45 2534.88,-23.41"/>
</g>
<!-- Node8 -->
<g id="node8" class="node">
<title>Node8</title>
<g id="a_node8"><a xlink:title=" ">
<polygon fill="none" stroke="#bfbfbf" points="2662,-0.5 2662,-19.5 2808,-19.5 2808,-0.5 2662,-0.5"/>
<text text-anchor="middle" x="2735" y="-7.5" font-family="FreeSans.ttf" font-size="10.00">gazebo/common/Plugin.hh</text>
</a>
</g>
</g>
<!-- Node2&#45;&gt;Node8 -->
<g id="edge7" class="edge">
<title>Node2&#45;&gt;Node8</title>
<path fill="none" stroke="midnightblue" d="M1753.69,-62.99C1919.62,-58.48 2311.33,-45.92 2651.65,-19.97"/>
<polygon fill="midnightblue" stroke="midnightblue" points="2652,-23.45 2661.7,-19.2 2651.46,-16.47 2652,-23.45"/>
</g>
<!-- Node9 -->
<g id="node9" class="node">
<title>Node9</title>
<g id="a_node9"><a xlink:title=" ">
<polygon fill="none" stroke="#bfbfbf" points="0,-0.5 0,-19.5 158,-19.5 158,-0.5 0,-0.5"/>
<text text-anchor="middle" x="79" y="-7.5" font-family="FreeSans.ttf" font-size="10.00">gazebo/common/common.hh</text>
</a>
</g>
</g>
<!-- Node2&#45;&gt;Node9 -->
<g id="edge8" class="edge">
<title>Node2&#45;&gt;Node9</title>
<path fill="none" stroke="midnightblue" d="M1592.5,-64.63C1368.52,-63.18 718.87,-55.98 168.26,-20.03"/>
<polygon fill="midnightblue" stroke="midnightblue" points="168.34,-16.53 158.13,-19.36 167.88,-23.51 168.34,-16.53"/>
</g>
<!-- Node10 -->
<g id="node10" class="node">
<title>Node10</title>
<g id="a_node10"><a xlink:title=" ">
<polygon fill="none" stroke="#bfbfbf" points="176.5,-0.5 176.5,-19.5 319.5,-19.5 319.5,-0.5 176.5,-0.5"/>
<text text-anchor="middle" x="248" y="-7.5" font-family="FreeSans.ttf" font-size="10.00">gazebo/sensors/Sensor.hh</text>
</a>
</g>
</g>
<!-- Node2&#45;&gt;Node10 -->
<g id="edge9" class="edge">
<title>Node2&#45;&gt;Node10</title>
<path fill="none" stroke="midnightblue" d="M1592.22,-64.47C1384.57,-62.63 815.09,-54.63 329.54,-19.97"/>
<polygon fill="midnightblue" stroke="midnightblue" points="329.75,-16.48 319.53,-19.25 329.25,-23.46 329.75,-16.48"/>
</g>
<!-- Node11 -->
<g id="node11" class="node">
<title>Node11</title>
<g id="a_node11"><a xlink:title=" ">
<polygon fill="none" stroke="#bfbfbf" points="338,-0.5 338,-19.5 518,-19.5 518,-0.5 338,-0.5"/>
<text text-anchor="middle" x="428" y="-7.5" font-family="FreeSans.ttf" font-size="10.00">gazebo/sensors/ContactSensor.hh</text>
</a>
</g>
</g>
<!-- Node2&#45;&gt;Node11 -->
<g id="edge10" class="edge">
<title>Node2&#45;&gt;Node11</title>
<path fill="none" stroke="midnightblue" d="M1592.34,-63.26C1406.63,-58.94 934.3,-46.19 528.27,-20.05"/>
<polygon fill="midnightblue" stroke="midnightblue" points="528.3,-16.54 518.09,-19.39 527.85,-23.53 528.3,-16.54"/>
</g>
<!-- Node12 -->
<g id="node12" class="node">
<title>Node12</title>
<g id="a_node12"><a xlink:title=" ">
<polygon fill="none" stroke="#bfbfbf" points="536.5,-0.5 536.5,-19.5 721.5,-19.5 721.5,-0.5 536.5,-0.5"/>
<text text-anchor="middle" x="629" y="-7.5" font-family="FreeSans.ttf" font-size="10.00">gazebo/sensors/SensorManager.hh</text>
</a>
</g>
</g>
<!-- Node2&#45;&gt;Node12 -->
<g id="edge11" class="edge">
<title>Node2&#45;&gt;Node12</title>
<path fill="none" stroke="midnightblue" d="M1592.2,-62.27C1430.77,-56.56 1056.64,-42.11 731.81,-20.1"/>
<polygon fill="midnightblue" stroke="midnightblue" points="731.94,-16.6 721.73,-19.41 731.47,-23.58 731.94,-16.6"/>
</g>
<!-- Node13 -->
<g id="node13" class="node">
<title>Node13</title>
<g id="a_node13"><a xlink:title=" ">
<polygon fill="none" stroke="#bfbfbf" points="739.5,-0.5 739.5,-19.5 886.5,-19.5 886.5,-0.5 739.5,-0.5"/>
<text text-anchor="middle" x="813" y="-7.5" font-family="FreeSans.ttf" font-size="10.00">gazebo/physics/Contact.hh</text>
</a>
</g>
</g>
<!-- Node2&#45;&gt;Node13 -->
<g id="edge12" class="edge">
<title>Node2&#45;&gt;Node13</title>
<path fill="none" stroke="midnightblue" d="M1592.37,-61.66C1452.92,-55.6 1157.45,-41.46 896.79,-20.02"/>
<polygon fill="midnightblue" stroke="midnightblue" points="897,-16.53 886.75,-19.19 896.43,-23.5 897,-16.53"/>
</g>
<!-- Node14 -->
<g id="node14" class="node">
<title>Node14</title>
<g id="a_node14"><a xlink:title=" ">
<polygon fill="none" stroke="#bfbfbf" points="905,-0.5 905,-19.5 1035,-19.5 1035,-0.5 905,-0.5"/>
<text text-anchor="middle" x="970" y="-7.5" font-family="FreeSans.ttf" font-size="10.00">gazebo/physics/Link.hh</text>
</a>
</g>
</g>
<!-- Node2&#45;&gt;Node14 -->
<g id="edge13" class="edge">
<title>Node2&#45;&gt;Node14</title>
<path fill="none" stroke="midnightblue" d="M1592.47,-60.52C1474.71,-53.69 1248.37,-39.47 1045.6,-20.11"/>
<polygon fill="midnightblue" stroke="midnightblue" points="1045.64,-16.6 1035.35,-19.13 1044.97,-23.57 1045.64,-16.6"/>
</g>
<!-- Node15 -->
<g id="node15" class="node">
<title>Node15</title>
<g id="a_node15"><a xlink:title=" ">
<polygon fill="none" stroke="#bfbfbf" points="1053,-0.5 1053,-19.5 1197,-19.5 1197,-0.5 1053,-0.5"/>
<text text-anchor="middle" x="1125" y="-7.5" font-family="FreeSans.ttf" font-size="10.00">gazebo/physics/Inertial.hh</text>
</a>
</g>
</g>
<!-- Node2&#45;&gt;Node15 -->
<g id="edge14" class="edge">
<title>Node2&#45;&gt;Node15</title>
<path fill="none" stroke="midnightblue" d="M1592.39,-57.59C1501.46,-49.16 1348.86,-34.75 1207.57,-20.15"/>
<polygon fill="midnightblue" stroke="midnightblue" points="1207.73,-16.65 1197.42,-19.1 1207,-23.61 1207.73,-16.65"/>
</g>
<!-- Node16 -->
<g id="node16" class="node">
<title>Node16</title>
<g id="a_node16"><a xlink:title=" ">
<polygon fill="none" stroke="#bfbfbf" points="1215,-0.5 1215,-19.5 1361,-19.5 1361,-0.5 1215,-0.5"/>
<text text-anchor="middle" x="1288" y="-7.5" font-family="FreeSans.ttf" font-size="10.00">gazebo/physics/physics.hh</text>
</a>
</g>
</g>
<!-- Node2&#45;&gt;Node16 -->
<g id="edge15" class="edge">
<title>Node2&#45;&gt;Node16</title>
<path fill="none" stroke="midnightblue" d="M1612,-56.44C1543.14,-46.79 1431.3,-31.1 1358.7,-20.92"/>
<polygon fill="midnightblue" stroke="midnightblue" points="1359.11,-17.44 1348.72,-19.52 1358.14,-24.37 1359.11,-17.44"/>
</g>
<!-- Node17 -->
<g id="node17" class="node">
<title>Node17</title>
<g id="a_node17"><a xlink:title=" ">
<polygon fill="none" stroke="#bfbfbf" points="1379.5,-0.5 1379.5,-19.5 1508.5,-19.5 1508.5,-0.5 1379.5,-0.5"/>
<text text-anchor="middle" x="1444" y="-7.5" font-family="FreeSans.ttf" font-size="10.00">ignition/math/Pose3.hh</text>
</a>
</g>
</g>
<!-- Node2&#45;&gt;Node17 -->
<g id="edge16" class="edge">
<title>Node2&#45;&gt;Node17</title>
<path fill="none" stroke="midnightblue" d="M1636.71,-56.44C1597.02,-47.08 1533.29,-32.06 1490.09,-21.87"/>
<polygon fill="midnightblue" stroke="midnightblue" points="1490.65,-18.41 1480.12,-19.52 1489.05,-25.22 1490.65,-18.41"/>
</g>
<!-- Node18 -->
<g id="node18" class="node">
<title>Node18</title>
<g id="a_node18"><a xlink:title=" ">
<polygon fill="none" stroke="#bfbfbf" points="1526.5,-0.5 1526.5,-19.5 1663.5,-19.5 1663.5,-0.5 1526.5,-0.5"/>
<text text-anchor="middle" x="1595" y="-7.5" font-family="FreeSans.ttf" font-size="10.00">ignition/math/Vector3.hh</text>
</a>
</g>
</g>
<!-- Node2&#45;&gt;Node18 -->
<g id="edge17" class="edge">
<title>Node2&#45;&gt;Node18</title>
<path fill="none" stroke="midnightblue" d="M1660.47,-56.32C1648.41,-47.98 1629.97,-35.21 1615.73,-25.35"/>
<polygon fill="midnightblue" stroke="midnightblue" points="1617.72,-22.47 1607.5,-19.65 1613.73,-28.22 1617.72,-22.47"/>
</g>
<!-- Node19 -->
<g id="node19" class="node">
<title>Node19</title>
<g id="a_node19"><a xlink:title=" ">
<polygon fill="none" stroke="#bfbfbf" points="1681.5,-0.5 1681.5,-19.5 1818.5,-19.5 1818.5,-0.5 1681.5,-0.5"/>
<text text-anchor="middle" x="1750" y="-7.5" font-family="FreeSans.ttf" font-size="10.00">ignition/math/Matrix3.hh</text>
</a>
</g>
</g>
<!-- Node2&#45;&gt;Node19 -->
<g id="edge18" class="edge">
<title>Node2&#45;&gt;Node19</title>
<path fill="none" stroke="midnightblue" d="M1685.37,-56.32C1697.16,-48.06 1715.13,-35.45 1729.14,-25.63"/>
<polygon fill="midnightblue" stroke="midnightblue" points="1731.48,-28.26 1737.66,-19.65 1727.46,-22.53 1731.48,-28.26"/>
</g>
<!-- Node20 -->
<g id="node20" class="node">
<title>Node20</title>
<g id="a_node20"><a xlink:title=" ">
<polygon fill="none" stroke="#bfbfbf" points="1836.5,-0.5 1836.5,-19.5 1933.5,-19.5 1933.5,-0.5 1836.5,-0.5"/>
<text text-anchor="middle" x="1885" y="-7.5" font-family="FreeSans.ttf" font-size="10.00">ignition/math.hh</text>
</a>
</g>
</g>
<!-- Node2&#45;&gt;Node20 -->
<g id="edge19" class="edge">
<title>Node2&#45;&gt;Node20</title>
<path fill="none" stroke="midnightblue" d="M1706.59,-56.44C1743.19,-47.12 1801.84,-32.18 1841.83,-22"/>
<polygon fill="midnightblue" stroke="midnightblue" points="1842.74,-25.38 1851.57,-19.52 1841.01,-18.59 1842.74,-25.38"/>
</g>
<!-- Node21 -->
<g id="node21" class="node">
<title>Node21</title>
<g id="a_node21"><a xlink:title=" ">
<polygon fill="none" stroke="#bfbfbf" points="2826,-0.5 2826,-19.5 2874,-19.5 2874,-0.5 2826,-0.5"/>
<text text-anchor="middle" x="2850" y="-7.5" font-family="FreeSans.ttf" font-size="10.00">mutex</text>
</a>
</g>
</g>
<!-- Node2&#45;&gt;Node21 -->
<g id="edge20" class="edge">
<title>Node2&#45;&gt;Node21</title>
<path fill="none" stroke="midnightblue" d="M1753.76,-64.2C1975.71,-61.64 2592.65,-51.91 2815.97,-19.73"/>
<polygon fill="midnightblue" stroke="midnightblue" points="2816.61,-23.17 2825.99,-18.23 2815.58,-16.25 2816.61,-23.17"/>
</g>
<!-- Node22&#45;&gt;Node8 -->
<g id="edge22" class="edge">
<title>Node22&#45;&gt;Node8</title>
<path fill="none" stroke="midnightblue" d="M3041.32,-56.44C2976.49,-46.83 2871.35,-31.23 2802.68,-21.04"/>
<polygon fill="midnightblue" stroke="midnightblue" points="2802.81,-17.52 2792.41,-19.52 2801.79,-24.45 2802.81,-17.52"/>
</g>
<!-- Node22&#45;&gt;Node23 -->
<g id="edge23" class="edge">
<title>Node22&#45;&gt;Node23</title>
<path fill="none" stroke="midnightblue" d="M3102.47,-56.08C3105.31,-48.77 3109.43,-38.18 3112.96,-29.1"/>
<polygon fill="midnightblue" stroke="midnightblue" points="3116.23,-30.34 3116.6,-19.75 3109.71,-27.8 3116.23,-30.34"/>
</g>
<!-- Node24 -->
<g id="node24" class="node">
<title>Node24</title>
<g id="a_node24"><a xlink:title=" ">
<polygon fill="none" stroke="#bfbfbf" points="3160,-0.5 3160,-19.5 3300,-19.5 3300,-0.5 3160,-0.5"/>
<text text-anchor="middle" x="3230" y="-7.5" font-family="FreeSans.ttf" font-size="10.00">yarp/dev/PolyDriverList.h</text>
</a>
</g>
</g>
<!-- Node22&#45;&gt;Node24 -->
<g id="edge24" class="edge">
<title>Node22&#45;&gt;Node24</title>
<path fill="none" stroke="midnightblue" d="M3119.76,-56.44C3141.32,-47.56 3175.26,-33.56 3199.79,-23.45"/>
<polygon fill="midnightblue" stroke="midnightblue" points="3201.43,-26.56 3209.34,-19.52 3198.76,-20.09 3201.43,-26.56"/>
</g>
<!-- Node25 -->
<g id="node25" class="node">
<title>Node25</title>
<g id="a_node25"><a xlink:title=" ">
<polygon fill="none" stroke="#bfbfbf" points="3440.5,-0.5 3440.5,-19.5 3533.5,-19.5 3533.5,-0.5 3440.5,-0.5"/>
<text text-anchor="middle" x="3487" y="-7.5" font-family="FreeSans.ttf" font-size="10.00">sdf/sdf_config.h</text>
</a>
</g>
</g>
<!-- Node22&#45;&gt;Node25 -->
<g id="edge25" class="edge">
<title>Node22&#45;&gt;Node25</title>
<path fill="none" stroke="midnightblue" d="M3165.52,-56.47C3230.37,-48.05 3332.05,-34.55 3430.17,-20.09"/>
<polygon fill="midnightblue" stroke="midnightblue" points="3430.88,-23.52 3440.26,-18.6 3429.86,-16.6 3430.88,-23.52"/>
</g>
<!-- Node26 -->
<g id="node26" class="node">
<title>Node26</title>
<g id="a_node26"><a xlink:title=" ">
<polygon fill="none" stroke="#bfbfbf" points="2990,-0.5 2990,-19.5 3080,-19.5 3080,-0.5 2990,-0.5"/>
<text text-anchor="middle" x="3035" y="-7.5" font-family="FreeSans.ttf" font-size="10.00">sdf/Element.hh</text>
</a>
</g>
</g>
<!-- Node22&#45;&gt;Node26 -->
<g id="edge26" class="edge">
<title>Node22&#45;&gt;Node26</title>
<path fill="none" stroke="midnightblue" d="M3088.72,-56.32C3079.16,-48.26 3064.72,-36.08 3053.22,-26.37"/>
<polygon fill="midnightblue" stroke="midnightblue" points="3055.37,-23.61 3045.47,-19.83 3050.86,-28.96 3055.37,-23.61"/>
</g>
<!-- Node27 -->
<g id="node27" class="node">
<title>Node27</title>
<g id="a_node27"><a xlink:title=" ">
<polygon fill="none" stroke="#bfbfbf" points="2892,-0.5 2892,-19.5 2972,-19.5 2972,-0.5 2892,-0.5"/>
<text text-anchor="middle" x="2932" y="-7.5" font-family="FreeSans.ttf" font-size="10.00">sdf/Param.hh</text>
</a>
</g>
</g>
<!-- Node22&#45;&gt;Node27 -->
<g id="edge27" class="edge">
<title>Node22&#45;&gt;Node27</title>
<path fill="none" stroke="midnightblue" d="M3072.54,-56.44C3044.32,-47.32 2999.46,-32.81 2968.03,-22.65"/>
<polygon fill="midnightblue" stroke="midnightblue" points="2968.93,-19.26 2958.34,-19.52 2966.78,-25.92 2968.93,-19.26"/>
</g>
<!-- Node28&#45;&gt;Node21 -->
<g id="edge32" class="edge">
<title>Node28&#45;&gt;Node21</title>
<path fill="none" stroke="midnightblue" d="M3404.67,-56.75C3401.74,-56.49 3398.85,-56.24 3396,-56 3171.59,-37.03 3110.13,-57.63 2884.21,-19.86"/>
<polygon fill="midnightblue" stroke="midnightblue" points="2884.47,-16.36 2874.03,-18.14 2883.3,-23.26 2884.47,-16.36"/>
</g>
<!-- Node28&#45;&gt;Node24 -->
<g id="edge34" class="edge">
<title>Node28&#45;&gt;Node24</title>
<path fill="none" stroke="midnightblue" d="M3446.28,-56.44C3401.35,-47 3329,-31.8 3280.5,-21.61"/>
<polygon fill="midnightblue" stroke="midnightblue" points="3281.04,-18.15 3270.53,-19.52 3279.6,-25 3281.04,-18.15"/>
</g>
<!-- Node28&#45;&gt;Node25 -->
<g id="edge30" class="edge">
<title>Node28&#45;&gt;Node25</title>
<path fill="none" stroke="midnightblue" d="M3487,-56.08C3487,-49.01 3487,-38.86 3487,-29.99"/>
<polygon fill="midnightblue" stroke="midnightblue" points="3490.5,-29.75 3487,-19.75 3483.5,-29.75 3490.5,-29.75"/>
</g>
<!-- Node29 -->
<g id="node29" class="node">
<title>Node29</title>
<g id="a_node29"><a xlink:title=" ">
<polygon fill="none" stroke="#bfbfbf" points="3384,-0.5 3384,-19.5 3422,-19.5 3422,-0.5 3384,-0.5"/>
<text text-anchor="middle" x="3403" y="-7.5" font-family="FreeSans.ttf" font-size="10.00">map</text>
</a>
</g>
</g>
<!-- Node28&#45;&gt;Node29 -->
<g id="edge29" class="edge">
<title>Node28&#45;&gt;Node29</title>
<path fill="none" stroke="midnightblue" d="M3473.5,-56.32C3460.4,-47.9 3440.29,-34.97 3424.89,-25.07"/>
<polygon fill="midnightblue" stroke="midnightblue" points="3426.77,-22.12 3416.46,-19.65 3422.98,-28.01 3426.77,-22.12"/>
</g>
<!-- Node30 -->
<g id="node30" class="node">
<title>Node30</title>
<g id="a_node30"><a xlink:title=" ">
<polygon fill="none" stroke="#bfbfbf" points="3692.5,-0.5 3692.5,-19.5 3811.5,-19.5 3811.5,-0.5 3692.5,-0.5"/>
<text text-anchor="middle" x="3752" y="-7.5" font-family="FreeSans.ttf" font-size="10.00">boost/shared_ptr.hpp</text>
</a>
</g>
</g>
<!-- Node28&#45;&gt;Node30 -->
<g id="edge31" class="edge">
<title>Node28&#45;&gt;Node30</title>
<path fill="none" stroke="midnightblue" d="M3528.99,-56.44C3575.41,-46.98 3650.23,-31.74 3700.24,-21.55"/>
<polygon fill="midnightblue" stroke="midnightblue" points="3701.11,-24.94 3710.21,-19.52 3699.71,-18.08 3701.11,-24.94"/>
</g>
<!-- Node28&#45;&gt;Node31 -->
<g id="edge33" class="edge">
<title>Node28&#45;&gt;Node31</title>
<path fill="none" stroke="midnightblue" d="M3506.97,-56.44C3527.61,-47.6 3560.06,-33.69 3583.63,-23.59"/>
<polygon fill="midnightblue" stroke="midnightblue" points="3585.32,-26.67 3593.13,-19.52 3582.56,-20.24 3585.32,-26.67"/>
</g>
<!-- Node32&#45;&gt;Node23 -->
<g id="edge36" class="edge">
<title>Node32&#45;&gt;Node23</title>
<path fill="none" stroke="midnightblue" d="M3275.69,-56.44C3241.93,-46.59 3186.68,-30.46 3151.88,-20.3"/>
<polygon fill="midnightblue" stroke="midnightblue" points="3152.79,-16.92 3142.21,-17.48 3150.83,-23.64 3152.79,-16.92"/>
</g>
<!-- Node33 -->
<g id="node33" class="node">
<title>Node33</title>
<g id="a_node33"><a xlink:title=" ">
<polygon fill="none" stroke="#bfbfbf" points="3318.5,-0.5 3318.5,-19.5 3365.5,-19.5 3365.5,-0.5 3318.5,-0.5"/>
<text text-anchor="middle" x="3342" y="-7.5" font-family="FreeSans.ttf" font-size="10.00">cmath</text>
</a>
</g>
</g>
<!-- Node32&#45;&gt;Node33 -->
<g id="edge37" class="edge">
<title>Node32&#45;&gt;Node33</title>
<path fill="none" stroke="midnightblue" d="M3311.11,-56.08C3316.28,-48.53 3323.85,-37.49 3330.19,-28.23"/>
<polygon fill="midnightblue" stroke="midnightblue" points="3333.24,-29.98 3336,-19.75 3327.46,-26.02 3333.24,-29.98"/>
</g>
<!-- Node34&#45;&gt;Node25 -->
<g id="edge39" class="edge">
<title>Node34&#45;&gt;Node25</title>
<path fill="none" stroke="midnightblue" d="M3681.4,-56.44C3641.27,-47.06 3576.8,-31.99 3533.22,-21.8"/>
<polygon fill="midnightblue" stroke="midnightblue" points="3533.97,-18.38 3523.43,-19.52 3532.37,-25.2 3533.97,-18.38"/>
</g>
<!-- Node34&#45;&gt;Node30 -->
<g id="edge40" class="edge">
<title>Node34&#45;&gt;Node30</title>
<path fill="none" stroke="midnightblue" d="M3723.61,-56.08C3728.37,-48.53 3735.32,-37.49 3741.15,-28.23"/>
<polygon fill="midnightblue" stroke="midnightblue" points="3744.12,-30.08 3746.49,-19.75 3738.2,-26.35 3744.12,-30.08"/>
</g>
<!-- Node35 -->
<g id="node35" class="node">
<title>Node35</title>
<g id="a_node35"><a xlink:title=" ">
<polygon fill="none" stroke="#bfbfbf" points="3829.5,-0.5 3829.5,-19.5 4000.5,-19.5 4000.5,-0.5 3829.5,-0.5"/>
<text text-anchor="middle" x="3915" y="-7.5" font-family="FreeSans.ttf" font-size="10.00">gazebo/sensors/SensorTypes.hh</text>
</a>
</g>
</g>
<!-- Node34&#45;&gt;Node35 -->
<g id="edge41" class="edge">
<title>Node34&#45;&gt;Node35</title>
<path fill="none" stroke="midnightblue" d="M3749.22,-56.44C3782.93,-47.2 3836.8,-32.44 3873.93,-22.26"/>
<polygon fill="midnightblue" stroke="midnightblue" points="3875.21,-25.54 3883.93,-19.52 3873.36,-18.78 3875.21,-25.54"/>
</g>
<!-- Node36 -->
<g id="node36" class="node">
<title>Node36</title>
<g id="a_node36"><a xlink:title=" ">
<polygon fill="none" stroke="#bfbfbf" points="4019,-0.5 4019,-19.5 4193,-19.5 4193,-0.5 4019,-0.5"/>
<text text-anchor="middle" x="4106" y="-7.5" font-family="FreeSans.ttf" font-size="10.00">gazebo/physics/PhysicsTypes.hh</text>
</a>
</g>
</g>
<!-- Node34&#45;&gt;Node36 -->
<g id="edge42" class="edge">
<title>Node34&#45;&gt;Node36</title>
<path fill="none" stroke="midnightblue" d="M3779.48,-56.44C3848.87,-46.79 3961.58,-31.1 4034.75,-20.92"/>
<polygon fill="midnightblue" stroke="midnightblue" points="4035.39,-24.36 4044.81,-19.52 4034.42,-17.43 4035.39,-24.36"/>
</g>
</g>
</svg>
