<?xml version="1.0" encoding="UTF-8" standalone="no"?>
<!DOCTYPE svg PUBLIC "-//W3C//DTD SVG 1.1//EN"
 "http://www.w3.org/Graphics/SVG/1.1/DTD/svg11.dtd">
<!-- Generated by graphviz version 2.43.0 (0)
 -->
<!-- Title: ControlBoardDriver.h Pages: 1 -->
<svg width="3082pt" height="95pt"
 viewBox="0.00 0.00 3081.50 95.00" xmlns="http://www.w3.org/2000/svg" xmlns:xlink="http://www.w3.org/1999/xlink">
<g id="graph0" class="graph" transform="scale(1 1) rotate(0) translate(4 91)">
<title>ControlBoardDriver.h</title>
<!-- Node1 -->
<g id="node1" class="node">
<title>Node1</title>
<g id="a_node1"><a xlink:title=" ">
<polygon fill="#bfbfbf" stroke="black" points="1451.5,-67.5 1451.5,-86.5 1570.5,-86.5 1570.5,-67.5 1451.5,-67.5"/>
<text text-anchor="middle" x="1511" y="-74.5" font-family="FreeSans.ttf" font-size="10.00">ControlBoardDriver.h</text>
</a>
</g>
</g>
<!-- Node2 -->
<g id="node2" class="node">
<title>Node2</title>
<g id="a_node2"><a xlink:href="ControlBoard_8cc.html" target="_top" xlink:title=" ">
<polygon fill="none" stroke="black" points="0,-6 0,-25 94,-25 94,-6 0,-6"/>
<text text-anchor="middle" x="47" y="-13" font-family="FreeSans.ttf" font-size="10.00">ControlBoard.cc</text>
</a>
</g>
</g>
<!-- Node1&#45;&gt;Node2 -->
<g id="edge1" class="edge">
<title>Node1&#45;&gt;Node2</title>
<path fill="none" stroke="midnightblue" d="M1441.24,-75.81C1194.77,-74.83 365.67,-68.73 103,-31 93.76,-29.67 83.84,-27.4 74.95,-25.03"/>
<polygon fill="midnightblue" stroke="midnightblue" points="1441.48,-79.31 1451.5,-75.85 1441.51,-72.31 1441.48,-79.31"/>
</g>
<!-- Node3 -->
<g id="node3" class="node">
<title>Node3</title>
<g id="a_node3"><a xlink:href="ControlBoardDriver_8cpp.html" target="_top" xlink:title=" ">
<polygon fill="none" stroke="black" points="112,-6 112,-25 242,-25 242,-6 112,-6"/>
<text text-anchor="middle" x="177" y="-13" font-family="FreeSans.ttf" font-size="10.00">ControlBoardDriver.cpp</text>
</a>
</g>
</g>
<!-- Node1&#45;&gt;Node3 -->
<g id="edge2" class="edge">
<title>Node1&#45;&gt;Node3</title>
<path fill="none" stroke="midnightblue" d="M1441.03,-74.96C1211.73,-71.31 484.3,-57.85 251,-31 239.03,-29.62 226.11,-27.36 214.47,-25.03"/>
<polygon fill="midnightblue" stroke="midnightblue" points="1441.2,-78.46 1451.25,-75.12 1441.31,-71.46 1441.2,-78.46"/>
</g>
<!-- Node4 -->
<g id="node4" class="node">
<title>Node4</title>
<g id="a_node4"><a xlink:href="ControlBoardDriverControlMode_8cpp.html" target="_top" xlink:title=" ">
<polygon fill="none" stroke="black" points="260,-0.5 260,-30.5 406,-30.5 406,-0.5 260,-0.5"/>
<text text-anchor="start" x="268" y="-18.5" font-family="FreeSans.ttf" font-size="10.00">ControlBoardDriverControl</text>
<text text-anchor="middle" x="333" y="-7.5" font-family="FreeSans.ttf" font-size="10.00">Mode.cpp</text>
</a>
</g>
</g>
<!-- Node1&#45;&gt;Node4 -->
<g id="edge3" class="edge">
<title>Node1&#45;&gt;Node4</title>
<path fill="none" stroke="midnightblue" d="M1441.36,-76.37C1267.59,-76.59 801.11,-72.87 415,-31 412.13,-30.69 409.2,-30.34 406.25,-29.95"/>
<polygon fill="midnightblue" stroke="midnightblue" points="1441.4,-79.87 1451.39,-76.35 1441.38,-72.87 1441.4,-79.87"/>
</g>
<!-- Node5 -->
<g id="node5" class="node">
<title>Node5</title>
<g id="a_node5"><a xlink:href="ControlBoardDriverCoupling_8cpp.html" target="_top" xlink:title=" ">
<polygon fill="none" stroke="black" points="424.5,-6 424.5,-25 597.5,-25 597.5,-6 424.5,-6"/>
<text text-anchor="middle" x="511" y="-13" font-family="FreeSans.ttf" font-size="10.00">ControlBoardDriverCoupling.cpp</text>
</a>
</g>
</g>
<!-- Node1&#45;&gt;Node5 -->
<g id="edge4" class="edge">
<title>Node1&#45;&gt;Node5</title>
<path fill="none" stroke="midnightblue" d="M1441.14,-74.95C1289,-72.12 916.4,-62.32 606,-31 591.23,-29.51 575.24,-27.3 560.68,-25.06"/>
<polygon fill="midnightblue" stroke="midnightblue" points="1441.22,-78.45 1451.28,-75.13 1441.34,-71.45 1441.22,-78.45"/>
</g>
<!-- Node6 -->
<g id="node6" class="node">
<title>Node6</title>
<g id="a_node6"><a xlink:href="ControlBoardDriverCurrent_8cpp.html" target="_top" xlink:title=" ">
<polygon fill="none" stroke="black" points="615.5,-6 615.5,-25 782.5,-25 782.5,-6 615.5,-6"/>
<text text-anchor="middle" x="699" y="-13" font-family="FreeSans.ttf" font-size="10.00">ControlBoardDriverCurrent.cpp</text>
</a>
</g>
</g>
<!-- Node1&#45;&gt;Node6 -->
<g id="edge5" class="edge">
<title>Node1&#45;&gt;Node6</title>
<path fill="none" stroke="midnightblue" d="M1441.07,-73.76C1312.33,-69.17 1029.27,-56.87 792,-31 777.7,-29.44 762.25,-27.24 748.12,-25.02"/>
<polygon fill="midnightblue" stroke="midnightblue" points="1441.07,-77.27 1451.19,-74.12 1441.32,-70.27 1441.07,-77.27"/>
</g>
<!-- Node7 -->
<g id="node7" class="node">
<title>Node7</title>
<g id="a_node7"><a xlink:href="ControlBoardDriverDeviceDriver_8cpp.html" target="_top" xlink:title=" ">
<polygon fill="none" stroke="black" points="801,-0.5 801,-30.5 945,-30.5 945,-0.5 801,-0.5"/>
<text text-anchor="start" x="809" y="-18.5" font-family="FreeSans.ttf" font-size="10.00">ControlBoardDriverDevice</text>
<text text-anchor="middle" x="873" y="-7.5" font-family="FreeSans.ttf" font-size="10.00">Driver.cpp</text>
</a>
</g>
</g>
<!-- Node1&#45;&gt;Node7 -->
<g id="edge6" class="edge">
<title>Node1&#45;&gt;Node7</title>
<path fill="none" stroke="midnightblue" d="M1441.23,-72.53C1335.52,-66.79 1128.58,-53.62 954,-31 951.17,-30.63 948.28,-30.23 945.37,-29.81"/>
<polygon fill="midnightblue" stroke="midnightblue" points="1441.28,-76.04 1451.45,-73.08 1441.65,-69.05 1441.28,-76.04"/>
</g>
<!-- Node8 -->
<g id="node8" class="node">
<title>Node8</title>
<g id="a_node8"><a xlink:href="ControlBoardDriverEncoders_8cpp.html" target="_top" xlink:title=" ">
<polygon fill="none" stroke="black" points="963.5,-6 963.5,-25 1138.5,-25 1138.5,-6 963.5,-6"/>
<text text-anchor="middle" x="1051" y="-13" font-family="FreeSans.ttf" font-size="10.00">ControlBoardDriverEncoders.cpp</text>
</a>
</g>
</g>
<!-- Node1&#45;&gt;Node8 -->
<g id="edge7" class="edge">
<title>Node1&#45;&gt;Node8</title>
<path fill="none" stroke="midnightblue" d="M1441.19,-67.87C1368.05,-59.23 1249.86,-44.92 1148,-31 1134.5,-29.15 1119.97,-27.05 1106.36,-25.02"/>
<polygon fill="midnightblue" stroke="midnightblue" points="1440.86,-71.36 1451.2,-69.05 1441.68,-64.41 1440.86,-71.36"/>
</g>
<!-- Node9 -->
<g id="node9" class="node">
<title>Node9</title>
<g id="a_node9"><a xlink:href="ControlBoardDriverImpedancePositionControl_8cpp.html" target="_top" xlink:title=" ">
<polygon fill="none" stroke="black" points="1157,-0.5 1157,-30.5 1321,-30.5 1321,-0.5 1157,-0.5"/>
<text text-anchor="start" x="1165" y="-18.5" font-family="FreeSans.ttf" font-size="10.00">ControlBoardDriverImpedance</text>
<text text-anchor="middle" x="1239" y="-7.5" font-family="FreeSans.ttf" font-size="10.00">PositionControl.cpp</text>
</a>
</g>
</g>
<!-- Node1&#45;&gt;Node9 -->
<g id="edge8" class="edge">
<title>Node1&#45;&gt;Node9</title>
<path fill="none" stroke="midnightblue" d="M1462.05,-65.29C1417.6,-55.57 1351.74,-41.16 1303.11,-30.52"/>
<polygon fill="midnightblue" stroke="midnightblue" points="1461.51,-68.76 1472.03,-67.48 1463.01,-61.92 1461.51,-68.76"/>
</g>
<!-- Node10 -->
<g id="node10" class="node">
<title>Node10</title>
<g id="a_node10"><a xlink:href="ControlBoardDriverInteractionMode_8cpp.html" target="_top" xlink:title=" ">
<polygon fill="none" stroke="black" points="1339.5,-0.5 1339.5,-30.5 1502.5,-30.5 1502.5,-0.5 1339.5,-0.5"/>
<text text-anchor="start" x="1347.5" y="-18.5" font-family="FreeSans.ttf" font-size="10.00">ControlBoardDriverInteraction</text>
<text text-anchor="middle" x="1421" y="-7.5" font-family="FreeSans.ttf" font-size="10.00">Mode.cpp</text>
</a>
</g>
</g>
<!-- Node1&#45;&gt;Node10 -->
<g id="edge9" class="edge">
<title>Node1&#45;&gt;Node10</title>
<path fill="none" stroke="midnightblue" d="M1489.43,-61.74C1475.12,-52.28 1456.44,-39.93 1442.21,-30.52"/>
<polygon fill="midnightblue" stroke="midnightblue" points="1487.83,-64.88 1498.11,-67.48 1491.69,-59.04 1487.83,-64.88"/>
</g>
<!-- Node11 -->
<g id="node11" class="node">
<title>Node11</title>
<g id="a_node11"><a xlink:href="ControlBoardDriverOthers_8cpp.html" target="_top" xlink:title=" ">
<polygon fill="none" stroke="black" points="1520.5,-6 1520.5,-25 1683.5,-25 1683.5,-6 1520.5,-6"/>
<text text-anchor="middle" x="1602" y="-13" font-family="FreeSans.ttf" font-size="10.00">ControlBoardDriverOthers.cpp</text>
</a>
</g>
</g>
<!-- Node1&#45;&gt;Node11 -->
<g id="edge10" class="edge">
<title>Node1&#45;&gt;Node11</title>
<path fill="none" stroke="midnightblue" d="M1532.52,-61.93C1550.06,-50.46 1574.27,-34.63 1588.99,-25.01"/>
<polygon fill="midnightblue" stroke="midnightblue" points="1530.49,-59.07 1524.04,-67.48 1534.32,-64.93 1530.49,-59.07"/>
</g>
<!-- Node12 -->
<g id="node12" class="node">
<title>Node12</title>
<g id="a_node12"><a xlink:href="ControlBoardDriverPidControl_8cpp.html" target="_top" xlink:title=" ">
<polygon fill="none" stroke="black" points="1701.5,-6 1701.5,-25 1882.5,-25 1882.5,-6 1701.5,-6"/>
<text text-anchor="middle" x="1792" y="-13" font-family="FreeSans.ttf" font-size="10.00">ControlBoardDriverPidControl.cpp</text>
</a>
</g>
</g>
<!-- Node1&#45;&gt;Node12 -->
<g id="edge11" class="edge">
<title>Node1&#45;&gt;Node12</title>
<path fill="none" stroke="midnightblue" d="M1561.05,-65.4C1615.53,-53.87 1701.56,-35.65 1751.81,-25.01"/>
<polygon fill="midnightblue" stroke="midnightblue" points="1560.32,-61.98 1551.26,-67.48 1561.77,-68.83 1560.32,-61.98"/>
</g>
<!-- Node13 -->
<g id="node13" class="node">
<title>Node13</title>
<g id="a_node13"><a xlink:href="ControlBoardDriverPositionControl_8cpp.html" target="_top" xlink:title=" ">
<polygon fill="none" stroke="black" points="1900.5,-0.5 1900.5,-30.5 2049.5,-30.5 2049.5,-0.5 1900.5,-0.5"/>
<text text-anchor="start" x="1908.5" y="-18.5" font-family="FreeSans.ttf" font-size="10.00">ControlBoardDriverPosition</text>
<text text-anchor="middle" x="1975" y="-7.5" font-family="FreeSans.ttf" font-size="10.00">Control.cpp</text>
</a>
</g>
</g>
<!-- Node1&#45;&gt;Node13 -->
<g id="edge12" class="edge">
<title>Node1&#45;&gt;Node13</title>
<path fill="none" stroke="midnightblue" d="M1580.52,-68.96C1657.02,-60.94 1783.52,-46.87 1892,-31 1894.75,-30.6 1897.55,-30.18 1900.37,-29.74"/>
<polygon fill="midnightblue" stroke="midnightblue" points="1580.11,-65.48 1570.53,-70 1580.84,-72.44 1580.11,-65.48"/>
</g>
<!-- Node14 -->
<g id="node14" class="node">
<title>Node14</title>
<g id="a_node14"><a xlink:href="ControlBoardDriverPWM_8cpp.html" target="_top" xlink:title=" ">
<polygon fill="none" stroke="black" points="2067.5,-6 2067.5,-25 2222.5,-25 2222.5,-6 2067.5,-6"/>
<text text-anchor="middle" x="2145" y="-13" font-family="FreeSans.ttf" font-size="10.00">ControlBoardDriverPWM.cpp</text>
</a>
</g>
</g>
<!-- Node1&#45;&gt;Node14 -->
<g id="edge13" class="edge">
<title>Node1&#45;&gt;Node14</title>
<path fill="none" stroke="midnightblue" d="M1580.86,-72.17C1685.2,-66.02 1887.81,-52.42 2059,-31 2071.92,-29.38 2085.87,-27.22 2098.69,-25.05"/>
<polygon fill="midnightblue" stroke="midnightblue" points="1580.55,-68.68 1570.77,-72.76 1580.96,-75.67 1580.55,-68.68"/>
</g>
<!-- Node15 -->
<g id="node15" class="node">
<title>Node15</title>
<g id="a_node15"><a xlink:href="ControlBoardDriverRemoteVariables_8cpp.html" target="_top" xlink:title=" ">
<polygon fill="none" stroke="black" points="2240.5,-0.5 2240.5,-30.5 2389.5,-30.5 2389.5,-0.5 2240.5,-0.5"/>
<text text-anchor="start" x="2248.5" y="-18.5" font-family="FreeSans.ttf" font-size="10.00">ControlBoardDriverRemote</text>
<text text-anchor="middle" x="2315" y="-7.5" font-family="FreeSans.ttf" font-size="10.00">Variables.cpp</text>
</a>
</g>
</g>
<!-- Node1&#45;&gt;Node15 -->
<g id="edge14" class="edge">
<title>Node1&#45;&gt;Node15</title>
<path fill="none" stroke="midnightblue" d="M1580.68,-74.21C1709.62,-70.34 1994.01,-59.13 2232,-31 2234.76,-30.67 2237.57,-30.32 2240.4,-29.93"/>
<polygon fill="midnightblue" stroke="midnightblue" points="1580.44,-70.72 1570.55,-74.51 1580.65,-77.71 1580.44,-70.72"/>
</g>
<!-- Node16 -->
<g id="node16" class="node">
<title>Node16</title>
<g id="a_node16"><a xlink:href="ControlBoardDriverTorqueControl_8cpp.html" target="_top" xlink:title=" ">
<polygon fill="none" stroke="black" points="2407.5,-0.5 2407.5,-30.5 2550.5,-30.5 2550.5,-0.5 2407.5,-0.5"/>
<text text-anchor="start" x="2415.5" y="-18.5" font-family="FreeSans.ttf" font-size="10.00">ControlBoardDriverTorque</text>
<text text-anchor="middle" x="2479" y="-7.5" font-family="FreeSans.ttf" font-size="10.00">Control.cpp</text>
</a>
</g>
</g>
<!-- Node1&#45;&gt;Node16 -->
<g id="edge15" class="edge">
<title>Node1&#45;&gt;Node16</title>
<path fill="none" stroke="midnightblue" d="M1580.72,-75.51C1730.84,-73.79 2095.64,-66.03 2399,-31 2401.66,-30.69 2404.37,-30.35 2407.11,-29.98"/>
<polygon fill="midnightblue" stroke="midnightblue" points="1580.68,-72.01 1570.72,-75.62 1580.76,-79.01 1580.68,-72.01"/>
</g>
<!-- Node17 -->
<g id="node17" class="node">
<title>Node17</title>
<g id="a_node17"><a xlink:href="ControlBoardDriverTrajectory_8cpp.html" target="_top" xlink:title=" ">
<polygon fill="none" stroke="black" points="2568.5,-6 2568.5,-25 2745.5,-25 2745.5,-6 2568.5,-6"/>
<text text-anchor="middle" x="2657" y="-13" font-family="FreeSans.ttf" font-size="10.00">ControlBoardDriverTrajectory.cpp</text>
</a>
</g>
</g>
<!-- Node1&#45;&gt;Node17 -->
<g id="edge16" class="edge">
<title>Node1&#45;&gt;Node17</title>
<path fill="none" stroke="midnightblue" d="M1580.82,-75.55C1749.48,-73.9 2192.32,-66.27 2560,-31 2575.25,-29.54 2591.77,-27.31 2606.78,-25.04"/>
<polygon fill="midnightblue" stroke="midnightblue" points="1580.56,-72.05 1570.59,-75.64 1580.62,-79.05 1580.56,-72.05"/>
</g>
<!-- Node18 -->
<g id="node18" class="node">
<title>Node18</title>
<g id="a_node18"><a xlink:href="ControlBoardDriverVelocityControl_8cpp.html" target="_top" xlink:title=" ">
<polygon fill="none" stroke="black" points="2763.5,-0.5 2763.5,-30.5 2912.5,-30.5 2912.5,-0.5 2763.5,-0.5"/>
<text text-anchor="start" x="2771.5" y="-18.5" font-family="FreeSans.ttf" font-size="10.00">ControlBoardDriverVelocity</text>
<text text-anchor="middle" x="2838" y="-7.5" font-family="FreeSans.ttf" font-size="10.00">Control.cpp</text>
</a>
</g>
</g>
<!-- Node1&#45;&gt;Node18 -->
<g id="edge17" class="edge">
<title>Node1&#45;&gt;Node18</title>
<path fill="none" stroke="midnightblue" d="M1580.84,-74.73C1808.03,-70.41 2524.67,-55.17 2755,-31 2757.76,-30.71 2760.58,-30.38 2763.41,-30.03"/>
<polygon fill="midnightblue" stroke="midnightblue" points="1580.65,-71.24 1570.71,-74.92 1580.78,-78.23 1580.65,-71.24"/>
</g>
<!-- Node19 -->
<g id="node19" class="node">
<title>Node19</title>
<g id="a_node19"><a xlink:href="ControlBoardDriverVirtualAnalogSensor_8cpp.html" target="_top" xlink:title=" ">
<polygon fill="none" stroke="black" points="2930.5,-0.5 2930.5,-30.5 3073.5,-30.5 3073.5,-0.5 2930.5,-0.5"/>
<text text-anchor="start" x="2938.5" y="-18.5" font-family="FreeSans.ttf" font-size="10.00">ControlBoardDriverVirtual</text>
<text text-anchor="middle" x="3002" y="-7.5" font-family="FreeSans.ttf" font-size="10.00">AnalogSensor.cpp</text>
</a>
</g>
</g>
<!-- Node1&#45;&gt;Node19 -->
<g id="edge18" class="edge">
<title>Node1&#45;&gt;Node19</title>
<path fill="none" stroke="midnightblue" d="M1580.83,-75.14C1827.53,-71.87 2657.55,-59.03 2922,-31 2924.67,-30.72 2927.38,-30.4 2930.11,-30.05"/>
<polygon fill="midnightblue" stroke="midnightblue" points="1580.51,-71.64 1570.56,-75.27 1580.6,-78.64 1580.51,-71.64"/>
</g>
</g>
</svg>
