<?xml version="1.0" encoding="UTF-8" standalone="no"?>
<!DOCTYPE svg PUBLIC "-//W3C//DTD SVG 1.1//EN"
 "http://www.w3.org/Graphics/SVG/1.1/DTD/svg11.dtd">
<!-- Generated by graphviz version 2.43.0 (0)
 -->
<!-- Title: ControlBoardDriverCoupling.h Pages: 1 -->
<svg width="3082pt" height="151pt"
 viewBox="0.00 0.00 3082.00 151.00" xmlns="http://www.w3.org/2000/svg" xmlns:xlink="http://www.w3.org/1999/xlink">
<g id="graph0" class="graph" transform="scale(1 1) rotate(0) translate(4 147)">
<title>ControlBoardDriverCoupling.h</title>
<!-- Node1 -->
<g id="node1" class="node">
<title>Node1</title>
<g id="a_node1"><a xlink:title=" ">
<polygon fill="#bfbfbf" stroke="black" points="673.5,-123.5 673.5,-142.5 835.5,-142.5 835.5,-123.5 673.5,-123.5"/>
<text text-anchor="middle" x="754.5" y="-130.5" font-family="FreeSans.ttf" font-size="10.00">ControlBoardDriverCoupling.h</text>
</a>
</g>
</g>
<!-- Node2 -->
<g id="node2" class="node">
<title>Node2</title>
<g id="a_node2"><a xlink:href="ControlBoardDriver_8h.html" target="_top" xlink:title=" ">
<polygon fill="none" stroke="black" points="1362,-67.5 1362,-86.5 1481,-86.5 1481,-67.5 1362,-67.5"/>
<text text-anchor="middle" x="1421.5" y="-74.5" font-family="FreeSans.ttf" font-size="10.00">ControlBoardDriver.h</text>
</a>
</g>
</g>
<!-- Node1&#45;&gt;Node2 -->
<g id="edge1" class="edge">
<title>Node1&#45;&gt;Node2</title>
<path fill="none" stroke="midnightblue" d="M845.8,-124.61C984.47,-113.38 1244.4,-92.34 1361.55,-82.85"/>
<polygon fill="midnightblue" stroke="midnightblue" points="845.31,-121.14 835.62,-125.43 845.87,-128.11 845.31,-121.14"/>
</g>
<!-- Node6 -->
<g id="node6" class="node">
<title>Node6</title>
<g id="a_node6"><a xlink:href="ControlBoardDriverCoupling_8cpp.html" target="_top" xlink:title=" ">
<polygon fill="none" stroke="black" points="0,-6 0,-25 173,-25 173,-6 0,-6"/>
<text text-anchor="middle" x="86.5" y="-13" font-family="FreeSans.ttf" font-size="10.00">ControlBoardDriverCoupling.cpp</text>
</a>
</g>
</g>
<!-- Node1&#45;&gt;Node6 -->
<g id="edge20" class="edge">
<title>Node1&#45;&gt;Node6</title>
<path fill="none" stroke="midnightblue" d="M694.93,-121.7C564.69,-99.18 256.64,-45.92 136.09,-25.07"/>
<polygon fill="midnightblue" stroke="midnightblue" points="694.66,-125.21 705.11,-123.46 695.85,-118.31 694.66,-125.21"/>
</g>
<!-- Node3 -->
<g id="node3" class="node">
<title>Node3</title>
<g id="a_node3"><a xlink:href="ControlBoard_8cc.html" target="_top" xlink:title=" ">
<polygon fill="none" stroke="black" points="191.5,-6 191.5,-25 285.5,-25 285.5,-6 191.5,-6"/>
<text text-anchor="middle" x="238.5" y="-13" font-family="FreeSans.ttf" font-size="10.00">ControlBoard.cc</text>
</a>
</g>
</g>
<!-- Node2&#45;&gt;Node3 -->
<g id="edge2" class="edge">
<title>Node2&#45;&gt;Node3</title>
<path fill="none" stroke="midnightblue" d="M1351.72,-75.16C1138.88,-72.3 499.98,-61.35 294.5,-31 285.36,-29.65 275.56,-27.4 266.75,-25.07"/>
<polygon fill="midnightblue" stroke="midnightblue" points="1351.78,-78.66 1361.83,-75.3 1351.88,-71.66 1351.78,-78.66"/>
</g>
<!-- Node4 -->
<g id="node4" class="node">
<title>Node4</title>
<g id="a_node4"><a xlink:href="ControlBoardDriver_8cpp.html" target="_top" xlink:title=" ">
<polygon fill="none" stroke="black" points="303.5,-6 303.5,-25 433.5,-25 433.5,-6 303.5,-6"/>
<text text-anchor="middle" x="368.5" y="-13" font-family="FreeSans.ttf" font-size="10.00">ControlBoardDriver.cpp</text>
</a>
</g>
</g>
<!-- Node2&#45;&gt;Node4 -->
<g id="edge3" class="edge">
<title>Node2&#45;&gt;Node4</title>
<path fill="none" stroke="midnightblue" d="M1351.69,-76.32C1190.77,-76.28 781.57,-71.79 442.5,-31 430.67,-29.58 417.9,-27.33 406.36,-25.03"/>
<polygon fill="midnightblue" stroke="midnightblue" points="1351.93,-79.82 1361.93,-76.31 1351.93,-72.82 1351.93,-79.82"/>
</g>
<!-- Node5 -->
<g id="node5" class="node">
<title>Node5</title>
<g id="a_node5"><a xlink:href="ControlBoardDriverControlMode_8cpp.html" target="_top" xlink:title=" ">
<polygon fill="none" stroke="black" points="451.5,-0.5 451.5,-30.5 597.5,-30.5 597.5,-0.5 451.5,-0.5"/>
<text text-anchor="start" x="459.5" y="-18.5" font-family="FreeSans.ttf" font-size="10.00">ControlBoardDriverControl</text>
<text text-anchor="middle" x="524.5" y="-7.5" font-family="FreeSans.ttf" font-size="10.00">Mode.cpp</text>
</a>
</g>
</g>
<!-- Node2&#45;&gt;Node5 -->
<g id="edge4" class="edge">
<title>Node2&#45;&gt;Node5</title>
<path fill="none" stroke="midnightblue" d="M1351.57,-74.9C1210.45,-72.08 881.69,-62.42 607.5,-31 604.3,-30.63 601.04,-30.22 597.75,-29.78"/>
<polygon fill="midnightblue" stroke="midnightblue" points="1351.74,-78.41 1361.81,-75.1 1351.88,-71.41 1351.74,-78.41"/>
</g>
<!-- Node2&#45;&gt;Node6 -->
<g id="edge5" class="edge">
<title>Node2&#45;&gt;Node6</title>
<path fill="none" stroke="midnightblue" d="M1351.64,-76.24C1162.75,-76.28 626.27,-72.44 182.5,-31 167.23,-29.57 150.68,-27.33 135.7,-25.03"/>
<polygon fill="midnightblue" stroke="midnightblue" points="1351.71,-79.74 1361.71,-76.23 1351.7,-72.74 1351.71,-79.74"/>
</g>
<!-- Node7 -->
<g id="node7" class="node">
<title>Node7</title>
<g id="a_node7"><a xlink:href="ControlBoardDriverCurrent_8cpp.html" target="_top" xlink:title=" ">
<polygon fill="none" stroke="black" points="616,-6 616,-25 783,-25 783,-6 616,-6"/>
<text text-anchor="middle" x="699.5" y="-13" font-family="FreeSans.ttf" font-size="10.00">ControlBoardDriverCurrent.cpp</text>
</a>
</g>
</g>
<!-- Node2&#45;&gt;Node7 -->
<g id="edge6" class="edge">
<title>Node2&#45;&gt;Node7</title>
<path fill="none" stroke="midnightblue" d="M1351.76,-72.91C1235.54,-67.34 994.98,-53.99 792.5,-31 778.37,-29.4 763.11,-27.21 749.11,-25.02"/>
<polygon fill="midnightblue" stroke="midnightblue" points="1351.79,-76.42 1361.94,-73.39 1352.12,-69.42 1351.79,-76.42"/>
</g>
<!-- Node8 -->
<g id="node8" class="node">
<title>Node8</title>
<g id="a_node8"><a xlink:href="ControlBoardDriverDeviceDriver_8cpp.html" target="_top" xlink:title=" ">
<polygon fill="none" stroke="black" points="801.5,-0.5 801.5,-30.5 945.5,-30.5 945.5,-0.5 801.5,-0.5"/>
<text text-anchor="start" x="809.5" y="-18.5" font-family="FreeSans.ttf" font-size="10.00">ControlBoardDriverDevice</text>
<text text-anchor="middle" x="873.5" y="-7.5" font-family="FreeSans.ttf" font-size="10.00">Driver.cpp</text>
</a>
</g>
</g>
<!-- Node2&#45;&gt;Node8 -->
<g id="edge7" class="edge">
<title>Node2&#45;&gt;Node8</title>
<path fill="none" stroke="midnightblue" d="M1351.51,-70.97C1260.17,-64.01 1095.47,-50.1 955.5,-31 952.35,-30.57 949.13,-30.11 945.89,-29.62"/>
<polygon fill="midnightblue" stroke="midnightblue" points="1351.51,-74.48 1361.74,-71.74 1352.03,-67.5 1351.51,-74.48"/>
</g>
<!-- Node9 -->
<g id="node9" class="node">
<title>Node9</title>
<g id="a_node9"><a xlink:href="ControlBoardDriverEncoders_8cpp.html" target="_top" xlink:title=" ">
<polygon fill="none" stroke="black" points="964,-6 964,-25 1139,-25 1139,-6 964,-6"/>
<text text-anchor="middle" x="1051.5" y="-13" font-family="FreeSans.ttf" font-size="10.00">ControlBoardDriverEncoders.cpp</text>
</a>
</g>
</g>
<!-- Node2&#45;&gt;Node9 -->
<g id="edge8" class="edge">
<title>Node2&#45;&gt;Node9</title>
<path fill="none" stroke="midnightblue" d="M1358.26,-65.83C1286.69,-54.32 1171.41,-35.78 1104.41,-25.01"/>
<polygon fill="midnightblue" stroke="midnightblue" points="1358.06,-69.34 1368.49,-67.48 1359.17,-62.43 1358.06,-69.34"/>
</g>
<!-- Node10 -->
<g id="node10" class="node">
<title>Node10</title>
<g id="a_node10"><a xlink:href="ControlBoardDriverImpedancePositionControl_8cpp.html" target="_top" xlink:title=" ">
<polygon fill="none" stroke="black" points="1157.5,-0.5 1157.5,-30.5 1321.5,-30.5 1321.5,-0.5 1157.5,-0.5"/>
<text text-anchor="start" x="1165.5" y="-18.5" font-family="FreeSans.ttf" font-size="10.00">ControlBoardDriverImpedance</text>
<text text-anchor="middle" x="1239.5" y="-7.5" font-family="FreeSans.ttf" font-size="10.00">PositionControl.cpp</text>
</a>
</g>
</g>
<!-- Node2&#45;&gt;Node10 -->
<g id="edge9" class="edge">
<title>Node2&#45;&gt;Node10</title>
<path fill="none" stroke="midnightblue" d="M1385.89,-64.36C1356.23,-54.66 1313.91,-40.83 1282.39,-30.52"/>
<polygon fill="midnightblue" stroke="midnightblue" points="1384.83,-67.69 1395.42,-67.48 1387.01,-61.04 1384.83,-67.69"/>
</g>
<!-- Node11 -->
<g id="node11" class="node">
<title>Node11</title>
<g id="a_node11"><a xlink:href="ControlBoardDriverInteractionMode_8cpp.html" target="_top" xlink:title=" ">
<polygon fill="none" stroke="black" points="1340,-0.5 1340,-30.5 1503,-30.5 1503,-0.5 1340,-0.5"/>
<text text-anchor="start" x="1348" y="-18.5" font-family="FreeSans.ttf" font-size="10.00">ControlBoardDriverInteraction</text>
<text text-anchor="middle" x="1421.5" y="-7.5" font-family="FreeSans.ttf" font-size="10.00">Mode.cpp</text>
</a>
</g>
</g>
<!-- Node2&#45;&gt;Node11 -->
<g id="edge10" class="edge">
<title>Node2&#45;&gt;Node11</title>
<path fill="none" stroke="midnightblue" d="M1421.5,-57.23C1421.5,-48.59 1421.5,-38.5 1421.5,-30.52"/>
<polygon fill="midnightblue" stroke="midnightblue" points="1418,-57.48 1421.5,-67.48 1425,-57.48 1418,-57.48"/>
</g>
<!-- Node12 -->
<g id="node12" class="node">
<title>Node12</title>
<g id="a_node12"><a xlink:href="ControlBoardDriverOthers_8cpp.html" target="_top" xlink:title=" ">
<polygon fill="none" stroke="black" points="1521,-6 1521,-25 1684,-25 1684,-6 1521,-6"/>
<text text-anchor="middle" x="1602.5" y="-13" font-family="FreeSans.ttf" font-size="10.00">ControlBoardDriverOthers.cpp</text>
</a>
</g>
</g>
<!-- Node2&#45;&gt;Node12 -->
<g id="edge11" class="edge">
<title>Node2&#45;&gt;Node12</title>
<path fill="none" stroke="midnightblue" d="M1457.3,-64.23C1492.48,-52.67 1545.32,-35.3 1576.62,-25.01"/>
<polygon fill="midnightblue" stroke="midnightblue" points="1455.84,-61.03 1447.43,-67.48 1458.03,-67.68 1455.84,-61.03"/>
</g>
<!-- Node13 -->
<g id="node13" class="node">
<title>Node13</title>
<g id="a_node13"><a xlink:href="ControlBoardDriverPidControl_8cpp.html" target="_top" xlink:title=" ">
<polygon fill="none" stroke="black" points="1702,-6 1702,-25 1883,-25 1883,-6 1702,-6"/>
<text text-anchor="middle" x="1792.5" y="-13" font-family="FreeSans.ttf" font-size="10.00">ControlBoardDriverPidControl.cpp</text>
</a>
</g>
</g>
<!-- Node2&#45;&gt;Node13 -->
<g id="edge12" class="edge">
<title>Node2&#45;&gt;Node13</title>
<path fill="none" stroke="midnightblue" d="M1484.91,-65.83C1556.67,-54.32 1672.27,-35.78 1739.44,-25.01"/>
<polygon fill="midnightblue" stroke="midnightblue" points="1483.97,-62.44 1474.66,-67.48 1485.08,-69.35 1483.97,-62.44"/>
</g>
<!-- Node14 -->
<g id="node14" class="node">
<title>Node14</title>
<g id="a_node14"><a xlink:href="ControlBoardDriverPositionControl_8cpp.html" target="_top" xlink:title=" ">
<polygon fill="none" stroke="black" points="1901,-0.5 1901,-30.5 2050,-30.5 2050,-0.5 1901,-0.5"/>
<text text-anchor="start" x="1909" y="-18.5" font-family="FreeSans.ttf" font-size="10.00">ControlBoardDriverPosition</text>
<text text-anchor="middle" x="1975.5" y="-7.5" font-family="FreeSans.ttf" font-size="10.00">Control.cpp</text>
</a>
</g>
</g>
<!-- Node2&#45;&gt;Node14 -->
<g id="edge13" class="edge">
<title>Node2&#45;&gt;Node14</title>
<path fill="none" stroke="midnightblue" d="M1491.19,-71.04C1583.29,-64.1 1750.48,-50.16 1892.5,-31 1895.25,-30.63 1898.06,-30.23 1900.89,-29.82"/>
<polygon fill="midnightblue" stroke="midnightblue" points="1490.86,-67.56 1481.15,-71.79 1491.38,-74.54 1490.86,-67.56"/>
</g>
<!-- Node15 -->
<g id="node15" class="node">
<title>Node15</title>
<g id="a_node15"><a xlink:href="ControlBoardDriverPWM_8cpp.html" target="_top" xlink:title=" ">
<polygon fill="none" stroke="black" points="2068,-6 2068,-25 2223,-25 2223,-6 2068,-6"/>
<text text-anchor="middle" x="2145.5" y="-13" font-family="FreeSans.ttf" font-size="10.00">ControlBoardDriverPWM.cpp</text>
</a>
</g>
</g>
<!-- Node2&#45;&gt;Node15 -->
<g id="edge14" class="edge">
<title>Node2&#45;&gt;Node15</title>
<path fill="none" stroke="midnightblue" d="M1491.35,-73.28C1608.93,-68.22 1853.74,-55.54 2059.5,-31 2072.58,-29.44 2086.7,-27.27 2099.65,-25.07"/>
<polygon fill="midnightblue" stroke="midnightblue" points="1490.9,-69.8 1481.05,-73.72 1491.19,-76.79 1490.9,-69.8"/>
</g>
<!-- Node16 -->
<g id="node16" class="node">
<title>Node16</title>
<g id="a_node16"><a xlink:href="ControlBoardDriverRemoteVariables_8cpp.html" target="_top" xlink:title=" ">
<polygon fill="none" stroke="black" points="2241,-0.5 2241,-30.5 2390,-30.5 2390,-0.5 2241,-0.5"/>
<text text-anchor="start" x="2249" y="-18.5" font-family="FreeSans.ttf" font-size="10.00">ControlBoardDriverRemote</text>
<text text-anchor="middle" x="2315.5" y="-7.5" font-family="FreeSans.ttf" font-size="10.00">Variables.cpp</text>
</a>
</g>
</g>
<!-- Node2&#45;&gt;Node16 -->
<g id="edge15" class="edge">
<title>Node2&#45;&gt;Node16</title>
<path fill="none" stroke="midnightblue" d="M1491.44,-74.88C1632.18,-72.03 1959.49,-62.31 2232.5,-31 2235.26,-30.68 2238.07,-30.33 2240.9,-29.96"/>
<polygon fill="midnightblue" stroke="midnightblue" points="1491.15,-71.39 1481.23,-75.09 1491.29,-78.39 1491.15,-71.39"/>
</g>
<!-- Node17 -->
<g id="node17" class="node">
<title>Node17</title>
<g id="a_node17"><a xlink:href="ControlBoardDriverTorqueControl_8cpp.html" target="_top" xlink:title=" ">
<polygon fill="none" stroke="black" points="2408,-0.5 2408,-30.5 2551,-30.5 2551,-0.5 2408,-0.5"/>
<text text-anchor="start" x="2416" y="-18.5" font-family="FreeSans.ttf" font-size="10.00">ControlBoardDriverTorque</text>
<text text-anchor="middle" x="2479.5" y="-7.5" font-family="FreeSans.ttf" font-size="10.00">Control.cpp</text>
</a>
</g>
</g>
<!-- Node2&#45;&gt;Node17 -->
<g id="edge16" class="edge">
<title>Node2&#45;&gt;Node17</title>
<path fill="none" stroke="midnightblue" d="M1491.49,-75.97C1652.37,-75.22 2060.71,-69.32 2399.5,-31 2402.16,-30.7 2404.87,-30.36 2407.61,-30"/>
<polygon fill="midnightblue" stroke="midnightblue" points="1491.24,-72.48 1481.26,-76.02 1491.27,-79.48 1491.24,-72.48"/>
</g>
<!-- Node18 -->
<g id="node18" class="node">
<title>Node18</title>
<g id="a_node18"><a xlink:href="ControlBoardDriverTrajectory_8cpp.html" target="_top" xlink:title=" ">
<polygon fill="none" stroke="black" points="2569,-6 2569,-25 2746,-25 2746,-6 2569,-6"/>
<text text-anchor="middle" x="2657.5" y="-13" font-family="FreeSans.ttf" font-size="10.00">ControlBoardDriverTrajectory.cpp</text>
</a>
</g>
</g>
<!-- Node2&#45;&gt;Node18 -->
<g id="edge17" class="edge">
<title>Node2&#45;&gt;Node18</title>
<path fill="none" stroke="midnightblue" d="M1491.28,-75.88C1669.67,-75.01 2156.8,-69.03 2560.5,-31 2575.76,-29.56 2592.28,-27.34 2607.28,-25.07"/>
<polygon fill="midnightblue" stroke="midnightblue" points="1491.23,-72.38 1481.24,-75.93 1491.26,-79.38 1491.23,-72.38"/>
</g>
<!-- Node19 -->
<g id="node19" class="node">
<title>Node19</title>
<g id="a_node19"><a xlink:href="ControlBoardDriverVelocityControl_8cpp.html" target="_top" xlink:title=" ">
<polygon fill="none" stroke="black" points="2764,-0.5 2764,-30.5 2913,-30.5 2913,-0.5 2764,-0.5"/>
<text text-anchor="start" x="2772" y="-18.5" font-family="FreeSans.ttf" font-size="10.00">ControlBoardDriverVelocity</text>
<text text-anchor="middle" x="2838.5" y="-7.5" font-family="FreeSans.ttf" font-size="10.00">Control.cpp</text>
</a>
</g>
</g>
<!-- Node2&#45;&gt;Node19 -->
<g id="edge18" class="edge">
<title>Node2&#45;&gt;Node19</title>
<path fill="none" stroke="midnightblue" d="M1491.48,-74.93C1729.51,-71.08 2506.81,-56.79 2755.5,-31 2758.26,-30.71 2761.08,-30.39 2763.91,-30.04"/>
<polygon fill="midnightblue" stroke="midnightblue" points="1491.17,-71.43 1481.23,-75.09 1491.28,-78.43 1491.17,-71.43"/>
</g>
<!-- Node20 -->
<g id="node20" class="node">
<title>Node20</title>
<g id="a_node20"><a xlink:href="ControlBoardDriverVirtualAnalogSensor_8cpp.html" target="_top" xlink:title=" ">
<polygon fill="none" stroke="black" points="2931,-0.5 2931,-30.5 3074,-30.5 3074,-0.5 2931,-0.5"/>
<text text-anchor="start" x="2939" y="-18.5" font-family="FreeSans.ttf" font-size="10.00">ControlBoardDriverVirtual</text>
<text text-anchor="middle" x="3002.5" y="-7.5" font-family="FreeSans.ttf" font-size="10.00">AnalogSensor.cpp</text>
</a>
</g>
</g>
<!-- Node2&#45;&gt;Node20 -->
<g id="edge19" class="edge">
<title>Node2&#45;&gt;Node20</title>
<path fill="none" stroke="midnightblue" d="M1491.42,-75.29C1748.3,-72.47 2639.59,-60.71 2922.5,-31 2925.17,-30.72 2927.88,-30.4 2930.61,-30.05"/>
<polygon fill="midnightblue" stroke="midnightblue" points="1491.07,-71.79 1481.11,-75.4 1491.15,-78.79 1491.07,-71.79"/>
</g>
</g>
</svg>
