<?xml version="1.0" encoding="UTF-8" standalone="no"?>
<!DOCTYPE svg PUBLIC "-//W3C//DTD SVG 1.1//EN"
 "http://www.w3.org/Graphics/SVG/1.1/DTD/svg11.dtd">
<!-- Generated by graphviz version 2.43.0 (0)
 -->
<!-- Title: ControlBoardDriverDeviceDriver.cpp Pages: 1 -->
<svg width="3822pt" height="218pt"
 viewBox="0.00 0.00 3821.71 218.00" xmlns="http://www.w3.org/2000/svg" xmlns:xlink="http://www.w3.org/1999/xlink">
<g id="graph0" class="graph" transform="scale(1 1) rotate(0) translate(4 214)">
<title>ControlBoardDriverDeviceDriver.cpp</title>
<!-- Node1 -->
<g id="node1" class="node">
<title>Node1</title>
<g id="a_node1"><a xlink:title=" ">
<polygon fill="#bfbfbf" stroke="black" points="2057.71,-179.5 2057.71,-209.5 2201.71,-209.5 2201.71,-179.5 2057.71,-179.5"/>
<text text-anchor="start" x="2065.71" y="-197.5" font-family="FreeSans.ttf" font-size="10.00">ControlBoardDriverDevice</text>
<text text-anchor="middle" x="2129.71" y="-186.5" font-family="FreeSans.ttf" font-size="10.00">Driver.cpp</text>
</a>
</g>
</g>
<!-- Node2 -->
<g id="node2" class="node">
<title>Node2</title>
<g id="a_node2"><a xlink:href="ControlBoardDriver_8h.html" target="_top" xlink:title=" ">
<polygon fill="none" stroke="black" points="2002.21,-123.5 2002.21,-142.5 2121.21,-142.5 2121.21,-123.5 2002.21,-123.5"/>
<text text-anchor="middle" x="2061.71" y="-130.5" font-family="FreeSans.ttf" font-size="10.00">ControlBoardDriver.h</text>
</a>
</g>
</g>
<!-- Node1&#45;&gt;Node2 -->
<g id="edge1" class="edge">
<title>Node1&#45;&gt;Node2</title>
<path fill="none" stroke="midnightblue" d="M2113.6,-179.4C2103.31,-170.4 2089.97,-158.72 2079.39,-149.47"/>
<polygon fill="midnightblue" stroke="midnightblue" points="2081.44,-146.61 2071.61,-142.66 2076.83,-151.88 2081.44,-146.61"/>
</g>
<!-- Node31 -->
<g id="node31" class="node">
<title>Node31</title>
<g id="a_node31"><a xlink:href="Handler_8hh.html" target="_top" xlink:title=" ">
<polygon fill="none" stroke="black" points="177.71,-123.5 177.71,-142.5 341.71,-142.5 341.71,-123.5 177.71,-123.5"/>
<text text-anchor="middle" x="259.71" y="-130.5" font-family="FreeSans.ttf" font-size="10.00">GazeboYarpPlugins/Handler.hh</text>
</a>
</g>
</g>
<!-- Node1&#45;&gt;Node31 -->
<g id="edge33" class="edge">
<title>Node1&#45;&gt;Node31</title>
<path fill="none" stroke="midnightblue" d="M2057.55,-191.2C1766.3,-181.94 677.45,-147.29 352.09,-136.94"/>
<polygon fill="midnightblue" stroke="midnightblue" points="351.87,-133.43 341.76,-136.61 351.65,-140.43 351.87,-133.43"/>
</g>
<!-- Node35 -->
<g id="node35" class="node">
<title>Node35</title>
<g id="a_node35"><a xlink:title=" ">
<polygon fill="none" stroke="#bfbfbf" points="2139.21,-123.5 2139.21,-142.5 2256.21,-142.5 2256.21,-123.5 2139.21,-123.5"/>
<text text-anchor="middle" x="2197.71" y="-130.5" font-family="FreeSans.ttf" font-size="10.00">yarp/os/LogStream.h</text>
</a>
</g>
</g>
<!-- Node1&#45;&gt;Node35 -->
<g id="edge40" class="edge">
<title>Node1&#45;&gt;Node35</title>
<path fill="none" stroke="midnightblue" d="M2145.83,-179.4C2156.12,-170.4 2169.46,-158.72 2180.04,-149.47"/>
<polygon fill="midnightblue" stroke="midnightblue" points="2182.6,-151.88 2187.82,-142.66 2177.99,-146.61 2182.6,-151.88"/>
</g>
<!-- Node36 -->
<g id="node36" class="node">
<title>Node36</title>
<g id="a_node36"><a xlink:title=" ">
<polygon fill="none" stroke="#bfbfbf" points="2274.21,-123.5 2274.21,-142.5 2423.21,-142.5 2423.21,-123.5 2274.21,-123.5"/>
<text text-anchor="middle" x="2348.71" y="-130.5" font-family="FreeSans.ttf" font-size="10.00">gazebo/common/Events.hh</text>
</a>
</g>
</g>
<!-- Node1&#45;&gt;Node36 -->
<g id="edge41" class="edge">
<title>Node1&#45;&gt;Node36</title>
<path fill="none" stroke="midnightblue" d="M2181.34,-179.47C2219.78,-169.03 2271.58,-154.96 2307.32,-145.25"/>
<polygon fill="midnightblue" stroke="midnightblue" points="2308.67,-148.51 2317.41,-142.51 2306.84,-141.75 2308.67,-148.51"/>
</g>
<!-- Node3 -->
<g id="node3" class="node">
<title>Node3</title>
<g id="a_node3"><a xlink:title=" ">
<polygon fill="none" stroke="#bfbfbf" points="2177.71,-62 2177.71,-81 2281.71,-81 2281.71,-62 2177.71,-62"/>
<text text-anchor="middle" x="2229.71" y="-69" font-family="FreeSans.ttf" font-size="10.00">yarp/os/Property.h</text>
</a>
</g>
</g>
<!-- Node2&#45;&gt;Node3 -->
<g id="edge2" class="edge">
<title>Node2&#45;&gt;Node3</title>
<path fill="none" stroke="midnightblue" d="M2085.79,-123.48C2114.73,-113.22 2163.48,-95.96 2196.12,-84.4"/>
<polygon fill="midnightblue" stroke="midnightblue" points="2197.43,-87.65 2205.69,-81.01 2195.09,-81.05 2197.43,-87.65"/>
</g>
<!-- Node4 -->
<g id="node4" class="node">
<title>Node4</title>
<g id="a_node4"><a xlink:title=" ">
<polygon fill="none" stroke="#bfbfbf" points="2299.71,-62 2299.71,-81 2391.71,-81 2391.71,-62 2299.71,-62"/>
<text text-anchor="middle" x="2345.71" y="-69" font-family="FreeSans.ttf" font-size="10.00">yarp/os/Value.h</text>
</a>
</g>
</g>
<!-- Node2&#45;&gt;Node4 -->
<g id="edge3" class="edge">
<title>Node2&#45;&gt;Node4</title>
<path fill="none" stroke="midnightblue" d="M2109.71,-123.49C2156.18,-115.03 2228.52,-101.29 2290.71,-87 2295.34,-85.94 2300.17,-84.76 2304.97,-83.55"/>
<polygon fill="midnightblue" stroke="midnightblue" points="2305.87,-86.94 2314.68,-81.05 2304.12,-80.16 2305.87,-86.94"/>
</g>
<!-- Node5 -->
<g id="node5" class="node">
<title>Node5</title>
<g id="a_node5"><a xlink:title=" ">
<polygon fill="none" stroke="#bfbfbf" points="2410.21,-62 2410.21,-81 2517.21,-81 2517.21,-62 2410.21,-62"/>
<text text-anchor="middle" x="2463.71" y="-69" font-family="FreeSans.ttf" font-size="10.00">yarp/dev/Drivers.h</text>
</a>
</g>
</g>
<!-- Node2&#45;&gt;Node5 -->
<g id="edge4" class="edge">
<title>Node2&#45;&gt;Node5</title>
<path fill="none" stroke="midnightblue" d="M2121.56,-124.07C2218.43,-111.24 2399.01,-87.31 2400.71,-87 2406.66,-85.92 2412.89,-84.66 2419.02,-83.33"/>
<polygon fill="midnightblue" stroke="midnightblue" points="2420.18,-86.66 2429.18,-81.07 2418.65,-79.83 2420.18,-86.66"/>
</g>
<!-- Node6 -->
<g id="node6" class="node">
<title>Node6</title>
<g id="a_node6"><a xlink:title=" ">
<polygon fill="none" stroke="#bfbfbf" points="347.71,-62 347.71,-81 469.71,-81 469.71,-62 347.71,-62"/>
<text text-anchor="middle" x="408.71" y="-69" font-family="FreeSans.ttf" font-size="10.00">yarp/dev/PolyDriver.h</text>
</a>
</g>
</g>
<!-- Node2&#45;&gt;Node6 -->
<g id="edge5" class="edge">
<title>Node2&#45;&gt;Node6</title>
<path fill="none" stroke="midnightblue" d="M2001.83,-131.71C1750.76,-130.26 782,-122.44 478.71,-87 470.56,-86.05 461.96,-84.62 453.67,-83.03"/>
<polygon fill="midnightblue" stroke="midnightblue" points="454.27,-79.58 443.77,-81.02 452.88,-86.44 454.27,-79.58"/>
</g>
<!-- Node7 -->
<g id="node7" class="node">
<title>Node7</title>
<g id="a_node7"><a xlink:title=" ">
<polygon fill="none" stroke="#bfbfbf" points="2976.21,-62 2976.21,-81 3101.21,-81 3101.21,-62 2976.21,-62"/>
<text text-anchor="middle" x="3038.71" y="-69" font-family="FreeSans.ttf" font-size="10.00">yarp/dev/IPidControl.h</text>
</a>
</g>
</g>
<!-- Node2&#45;&gt;Node7 -->
<g id="edge6" class="edge">
<title>Node2&#45;&gt;Node7</title>
<path fill="none" stroke="midnightblue" d="M2121.39,-123.8C2124.2,-123.51 2126.99,-123.24 2129.71,-123 2498.43,-90.69 2594.02,-129.36 2961.71,-87 2970.65,-85.97 2980.11,-84.51 2989.22,-82.9"/>
<polygon fill="midnightblue" stroke="midnightblue" points="2990.11,-86.29 2999.31,-81.04 2988.84,-79.41 2990.11,-86.29"/>
</g>
<!-- Node8 -->
<g id="node8" class="node">
<title>Node8</title>
<g id="a_node8"><a xlink:title=" ">
<polygon fill="none" stroke="#bfbfbf" points="3119.71,-62 3119.71,-81 3253.71,-81 3253.71,-62 3119.71,-62"/>
<text text-anchor="middle" x="3186.71" y="-69" font-family="FreeSans.ttf" font-size="10.00">yarp/dev/IPWMControl.h</text>
</a>
</g>
</g>
<!-- Node2&#45;&gt;Node8 -->
<g id="edge7" class="edge">
<title>Node2&#45;&gt;Node8</title>
<path fill="none" stroke="midnightblue" d="M2121.38,-123.78C2124.2,-123.49 2126.99,-123.23 2129.71,-123 2564.47,-86.34 2677.18,-136.02 3110.71,-87 3119.64,-85.99 3129.08,-84.52 3138.17,-82.9"/>
<polygon fill="midnightblue" stroke="midnightblue" points="3139.04,-86.3 3148.22,-81.02 3137.75,-79.41 3139.04,-86.3"/>
</g>
<!-- Node9 -->
<g id="node9" class="node">
<title>Node9</title>
<g id="a_node9"><a xlink:title=" ">
<polygon fill="none" stroke="#bfbfbf" points="3271.71,-62 3271.71,-81 3417.71,-81 3417.71,-62 3271.71,-62"/>
<text text-anchor="middle" x="3344.71" y="-69" font-family="FreeSans.ttf" font-size="10.00">yarp/dev/ICurrentControl.h</text>
</a>
</g>
</g>
<!-- Node2&#45;&gt;Node9 -->
<g id="edge8" class="edge">
<title>Node2&#45;&gt;Node9</title>
<path fill="none" stroke="midnightblue" d="M2121.38,-123.76C2124.2,-123.48 2126.98,-123.22 2129.71,-123 2631.85,-81.9 2761.6,-139 3262.71,-87 3272.64,-85.97 3283.17,-84.44 3293.26,-82.76"/>
<polygon fill="midnightblue" stroke="midnightblue" points="3293.91,-86.2 3303.16,-81.04 3292.71,-79.3 3293.91,-86.2"/>
</g>
<!-- Node10 -->
<g id="node10" class="node">
<title>Node10</title>
<g id="a_node10"><a xlink:title=" ">
<polygon fill="none" stroke="#bfbfbf" points="3436.21,-56.5 3436.21,-86.5 3611.21,-86.5 3611.21,-56.5 3436.21,-56.5"/>
<text text-anchor="start" x="3444.21" y="-74.5" font-family="FreeSans.ttf" font-size="10.00">yarp/dev/ControlBoardInterfaces</text>
<text text-anchor="middle" x="3523.71" y="-63.5" font-family="FreeSans.ttf" font-size="10.00">Impl.h</text>
</a>
</g>
</g>
<!-- Node2&#45;&gt;Node10 -->
<g id="edge9" class="edge">
<title>Node2&#45;&gt;Node10</title>
<path fill="none" stroke="midnightblue" d="M2121.38,-123.75C2124.2,-123.47 2126.98,-123.22 2129.71,-123 2701.18,-77.38 2850.54,-137.01 3425.79,-86.99"/>
<polygon fill="midnightblue" stroke="midnightblue" points="3426.35,-90.46 3436,-86.1 3425.73,-83.48 3426.35,-90.46"/>
</g>
<!-- Node11 -->
<g id="node11" class="node">
<title>Node11</title>
<g id="a_node11"><a xlink:title=" ">
<polygon fill="none" stroke="#bfbfbf" points="3629.71,-62 3629.71,-81 3813.71,-81 3813.71,-62 3629.71,-62"/>
<text text-anchor="middle" x="3721.71" y="-69" font-family="FreeSans.ttf" font-size="10.00">yarp/dev/ControlBoardInterfaces.h</text>
</a>
</g>
</g>
<!-- Node2&#45;&gt;Node11 -->
<g id="edge10" class="edge">
<title>Node2&#45;&gt;Node11</title>
<path fill="none" stroke="midnightblue" d="M2121.38,-123.73C2124.2,-123.46 2126.98,-123.21 2129.71,-123 2790.57,-71.44 2960.16,-142.2 3620.71,-87 3633.73,-85.91 3647.62,-84.25 3660.81,-82.43"/>
<polygon fill="midnightblue" stroke="midnightblue" points="3661.32,-85.89 3670.73,-81.02 3660.33,-78.96 3661.32,-85.89"/>
</g>
<!-- Node12 -->
<g id="node12" class="node">
<title>Node12</title>
<g id="a_node12"><a xlink:title=" ">
<polygon fill="none" stroke="#bfbfbf" points="625.21,-62 625.21,-81 762.21,-81 762.21,-62 625.21,-62"/>
<text text-anchor="middle" x="693.71" y="-69" font-family="FreeSans.ttf" font-size="10.00">yarp/dev/IControlMode.h</text>
</a>
</g>
</g>
<!-- Node2&#45;&gt;Node12 -->
<g id="edge11" class="edge">
<title>Node2&#45;&gt;Node12</title>
<path fill="none" stroke="midnightblue" d="M2002.07,-131.1C1781.88,-127.59 1014.94,-113.7 771.71,-87 762.46,-85.98 752.66,-84.5 743.25,-82.85"/>
<polygon fill="midnightblue" stroke="midnightblue" points="743.69,-79.38 733.23,-81.03 742.44,-86.26 743.69,-79.38"/>
</g>
<!-- Node13 -->
<g id="node13" class="node">
<title>Node13</title>
<g id="a_node13"><a xlink:title=" ">
<polygon fill="none" stroke="#bfbfbf" points="780.71,-62 780.71,-81 934.71,-81 934.71,-62 780.71,-62"/>
<text text-anchor="middle" x="857.71" y="-69" font-family="FreeSans.ttf" font-size="10.00">yarp/dev/IInteractionMode.h</text>
</a>
</g>
</g>
<!-- Node2&#45;&gt;Node13 -->
<g id="edge12" class="edge">
<title>Node2&#45;&gt;Node13</title>
<path fill="none" stroke="midnightblue" d="M2002.14,-132.25C1834.82,-132.4 1346.56,-128.9 943.71,-87 933.33,-85.92 922.3,-84.37 911.72,-82.68"/>
<polygon fill="midnightblue" stroke="midnightblue" points="912.2,-79.21 901.76,-81.03 911.05,-86.12 912.2,-79.21"/>
</g>
<!-- Node14 -->
<g id="node14" class="node">
<title>Node14</title>
<g id="a_node14"><a xlink:title=" ">
<polygon fill="none" stroke="#bfbfbf" points="952.71,-62 952.71,-81 1110.71,-81 1110.71,-62 952.71,-62"/>
<text text-anchor="middle" x="1031.71" y="-69" font-family="FreeSans.ttf" font-size="10.00">yarp/dev/IRemoteVariables.h</text>
</a>
</g>
</g>
<!-- Node2&#45;&gt;Node14 -->
<g id="edge13" class="edge">
<title>Node2&#45;&gt;Node14</title>
<path fill="none" stroke="midnightblue" d="M2002.02,-131.54C1852.83,-129.87 1451.86,-122.18 1119.71,-87 1109.21,-85.89 1098.06,-84.34 1087.35,-82.67"/>
<polygon fill="midnightblue" stroke="midnightblue" points="1087.68,-79.17 1077.25,-81.03 1086.57,-86.08 1087.68,-79.17"/>
</g>
<!-- Node15 -->
<g id="node15" class="node">
<title>Node15</title>
<g id="a_node15"><a xlink:title=" ">
<polygon fill="none" stroke="#bfbfbf" points="1129.21,-62 1129.21,-81 1302.21,-81 1302.21,-62 1129.21,-62"/>
<text text-anchor="middle" x="1215.71" y="-69" font-family="FreeSans.ttf" font-size="10.00">yarp/dev/IVirtualAnalogSensor.h</text>
</a>
</g>
</g>
<!-- Node2&#45;&gt;Node15 -->
<g id="edge14" class="edge">
<title>Node2&#45;&gt;Node15</title>
<path fill="none" stroke="midnightblue" d="M2001.77,-130.24C1874.42,-126.08 1567.6,-113.95 1311.71,-87 1300.31,-85.8 1288.18,-84.21 1276.52,-82.53"/>
<polygon fill="midnightblue" stroke="midnightblue" points="1276.83,-79.04 1266.42,-81.03 1275.8,-85.96 1276.83,-79.04"/>
</g>
<!-- Node16 -->
<g id="node16" class="node">
<title>Node16</title>
<g id="a_node16"><a xlink:title=" ">
<polygon fill="none" stroke="#bfbfbf" points="1320.71,-62 1320.71,-81 1418.71,-81 1418.71,-62 1320.71,-62"/>
<text text-anchor="middle" x="1369.71" y="-69" font-family="FreeSans.ttf" font-size="10.00">yarp/sig/Vector.h</text>
</a>
</g>
</g>
<!-- Node2&#45;&gt;Node16 -->
<g id="edge15" class="edge">
<title>Node2&#45;&gt;Node16</title>
<path fill="none" stroke="midnightblue" d="M2001.88,-131.22C1888.95,-128.97 1636.94,-120.32 1427.71,-87 1421.8,-86.06 1415.62,-84.81 1409.57,-83.43"/>
<polygon fill="midnightblue" stroke="midnightblue" points="1410.15,-79.97 1399.61,-81.03 1408.51,-86.78 1410.15,-79.97"/>
</g>
<!-- Node17 -->
<g id="node17" class="node">
<title>Node17</title>
<g id="a_node17"><a xlink:title=" ">
<polygon fill="none" stroke="#bfbfbf" points="1437.21,-62 1437.21,-81 1526.21,-81 1526.21,-62 1437.21,-62"/>
<text text-anchor="middle" x="1481.71" y="-69" font-family="FreeSans.ttf" font-size="10.00">yarp/os/Time.h</text>
</a>
</g>
</g>
<!-- Node2&#45;&gt;Node17 -->
<g id="edge16" class="edge">
<title>Node2&#45;&gt;Node17</title>
<path fill="none" stroke="midnightblue" d="M2002.11,-130.33C1904.13,-126.82 1703.17,-116.41 1535.71,-87 1530.53,-86.09 1525.12,-84.91 1519.81,-83.63"/>
<polygon fill="midnightblue" stroke="midnightblue" points="1520.37,-80.16 1509.81,-81.05 1518.62,-86.94 1520.37,-80.16"/>
</g>
<!-- Node18 -->
<g id="node18" class="node">
<title>Node18</title>
<g id="a_node18"><a xlink:title=" ">
<polygon fill="none" stroke="#bfbfbf" points="1544.71,-62 1544.71,-81 1640.71,-81 1640.71,-62 1544.71,-62"/>
<text text-anchor="middle" x="1592.71" y="-69" font-family="FreeSans.ttf" font-size="10.00">yarp/os/Stamp.h</text>
</a>
</g>
</g>
<!-- Node2&#45;&gt;Node18 -->
<g id="edge17" class="edge">
<title>Node2&#45;&gt;Node18</title>
<path fill="none" stroke="midnightblue" d="M2001.98,-128.12C1921.49,-122.28 1773.98,-109.48 1649.71,-87 1644.25,-86.01 1638.54,-84.79 1632.93,-83.48"/>
<polygon fill="midnightblue" stroke="midnightblue" points="1633.56,-80.03 1623.01,-81.05 1631.89,-86.83 1633.56,-80.03"/>
</g>
<!-- Node19 -->
<g id="node19" class="node">
<title>Node19</title>
<g id="a_node19"><a xlink:title=" ">
<polygon fill="none" stroke="#bfbfbf" points="488.21,-62 488.21,-81 607.21,-81 607.21,-62 488.21,-62"/>
<text text-anchor="middle" x="547.71" y="-69" font-family="FreeSans.ttf" font-size="10.00">boost/shared_ptr.hpp</text>
</a>
</g>
</g>
<!-- Node2&#45;&gt;Node19 -->
<g id="edge18" class="edge">
<title>Node2&#45;&gt;Node19</title>
<path fill="none" stroke="midnightblue" d="M2001.87,-131.57C1764.72,-129.62 890.61,-120.31 615.71,-87 607.88,-86.05 599.61,-84.64 591.64,-83.07"/>
<polygon fill="midnightblue" stroke="midnightblue" points="592.26,-79.62 581.76,-81.01 590.83,-86.47 592.26,-79.62"/>
</g>
<!-- Node20 -->
<g id="node20" class="node">
<title>Node20</title>
<g id="a_node20"><a xlink:href="ControlBoardDriverRange_8h.html" target="_top" xlink:title=" ">
<polygon fill="none" stroke="black" points="2727.71,-0.5 2727.71,-19.5 2877.71,-19.5 2877.71,-0.5 2727.71,-0.5"/>
<text text-anchor="middle" x="2802.71" y="-7.5" font-family="FreeSans.ttf" font-size="10.00">ControlBoardDriverRange.h</text>
</a>
</g>
</g>
<!-- Node2&#45;&gt;Node20 -->
<g id="edge19" class="edge">
<title>Node2&#45;&gt;Node20</title>
<path fill="none" stroke="midnightblue" d="M2121.39,-123.81C2124.2,-123.52 2126.99,-123.24 2129.71,-123 2171.87,-119.22 2861.5,-117.63 2890.71,-87 2900.22,-77.03 2897.91,-67.75 2890.71,-56 2881.21,-40.46 2864.45,-30.07 2848.09,-23.23"/>
<polygon fill="midnightblue" stroke="midnightblue" points="2849.16,-19.89 2838.57,-19.6 2846.67,-26.43 2849.16,-19.89"/>
</g>
<!-- Node21 -->
<g id="node21" class="node">
<title>Node21</title>
<g id="a_node21"><a xlink:href="ControlBoardDriverTrajectory_8h.html" target="_top" xlink:title=" ">
<polygon fill="none" stroke="black" points="2535.71,-62 2535.71,-81 2701.71,-81 2701.71,-62 2535.71,-62"/>
<text text-anchor="middle" x="2618.71" y="-69" font-family="FreeSans.ttf" font-size="10.00">ControlBoardDriverTrajectory.h</text>
</a>
</g>
</g>
<!-- Node2&#45;&gt;Node21 -->
<g id="edge20" class="edge">
<title>Node2&#45;&gt;Node21</title>
<path fill="none" stroke="midnightblue" d="M2121.4,-123.96C2124.21,-123.63 2126.99,-123.3 2129.71,-123 2305.35,-103.4 2350.32,-108.62 2525.71,-87 2536.04,-85.73 2546.98,-84.19 2557.59,-82.6"/>
<polygon fill="midnightblue" stroke="midnightblue" points="2558.28,-86.04 2567.63,-81.07 2557.22,-79.12 2558.28,-86.04"/>
</g>
<!-- Node24 -->
<g id="node24" class="node">
<title>Node24</title>
<g id="a_node24"><a xlink:href="ControlBoardDriverCoupling_8h.html" target="_top" xlink:title=" ">
<polygon fill="none" stroke="black" points="2719.71,-62 2719.71,-81 2881.71,-81 2881.71,-62 2719.71,-62"/>
<text text-anchor="middle" x="2800.71" y="-69" font-family="FreeSans.ttf" font-size="10.00">ControlBoardDriverCoupling.h</text>
</a>
</g>
</g>
<!-- Node2&#45;&gt;Node24 -->
<g id="edge23" class="edge">
<title>Node2&#45;&gt;Node24</title>
<path fill="none" stroke="midnightblue" d="M2121.39,-123.86C2124.2,-123.55 2126.99,-123.26 2129.71,-123 2387.22,-98.01 2453.58,-115.61 2710.71,-87 2721.2,-85.83 2732.34,-84.29 2743.06,-82.65"/>
<polygon fill="midnightblue" stroke="midnightblue" points="2743.86,-86.06 2753.19,-81.05 2742.77,-79.15 2743.86,-86.06"/>
</g>
<!-- Node25 -->
<g id="node25" class="node">
<title>Node25</title>
<g id="a_node25"><a xlink:title=" ">
<polygon fill="none" stroke="#bfbfbf" points="2899.21,-0.5 2899.21,-19.5 2992.21,-19.5 2992.21,-0.5 2899.21,-0.5"/>
<text text-anchor="middle" x="2945.71" y="-7.5" font-family="FreeSans.ttf" font-size="10.00">unordered_map</text>
</a>
</g>
</g>
<!-- Node2&#45;&gt;Node25 -->
<g id="edge31" class="edge">
<title>Node2&#45;&gt;Node25</title>
<path fill="none" stroke="midnightblue" d="M2121.39,-123.81C2124.2,-123.52 2126.99,-123.24 2129.71,-123 2215.91,-115.32 2835.17,-134.18 2907.71,-87 2927.38,-74.21 2937.27,-47.99 2941.95,-29.96"/>
<polygon fill="midnightblue" stroke="midnightblue" points="2945.42,-30.51 2944.23,-19.98 2938.59,-28.95 2945.42,-30.51"/>
</g>
<!-- Node26 -->
<g id="node26" class="node">
<title>Node26</title>
<g id="a_node26"><a xlink:title=" ">
<polygon fill="none" stroke="#bfbfbf" points="1658.71,-62 1658.71,-81 1790.71,-81 1790.71,-62 1658.71,-62"/>
<text text-anchor="middle" x="1724.71" y="-69" font-family="FreeSans.ttf" font-size="10.00">gazebo/common/PID.hh</text>
</a>
</g>
</g>
<!-- Node2&#45;&gt;Node26 -->
<g id="edge27" class="edge">
<title>Node2&#45;&gt;Node26</title>
<path fill="none" stroke="midnightblue" d="M2009.96,-123.44C1957.07,-114.61 1872.59,-100.3 1799.71,-87 1792.63,-85.71 1785.17,-84.31 1777.83,-82.91"/>
<polygon fill="midnightblue" stroke="midnightblue" points="1778.4,-79.46 1767.92,-81.01 1777.08,-86.33 1778.4,-79.46"/>
</g>
<!-- Node27 -->
<g id="node27" class="node">
<title>Node27</title>
<g id="a_node27"><a xlink:title=" ">
<polygon fill="none" stroke="#bfbfbf" points="1808.71,-62 1808.71,-81 1948.71,-81 1948.71,-62 1808.71,-62"/>
<text text-anchor="middle" x="1878.71" y="-69" font-family="FreeSans.ttf" font-size="10.00">gazebo/common/Time.hh</text>
</a>
</g>
</g>
<!-- Node2&#45;&gt;Node27 -->
<g id="edge28" class="edge">
<title>Node2&#45;&gt;Node27</title>
<path fill="none" stroke="midnightblue" d="M2035.5,-123.48C2003.7,-113.14 1949.95,-95.66 1914.4,-84.1"/>
<polygon fill="midnightblue" stroke="midnightblue" points="1915.48,-80.77 1904.89,-81.01 1913.31,-87.43 1915.48,-80.77"/>
</g>
<!-- Node28 -->
<g id="node28" class="node">
<title>Node28</title>
<g id="a_node28"><a xlink:title=" ">
<polygon fill="none" stroke="#bfbfbf" points="1966.71,-62 1966.71,-81 2010.71,-81 2010.71,-62 1966.71,-62"/>
<text text-anchor="middle" x="1988.71" y="-69" font-family="FreeSans.ttf" font-size="10.00">string</text>
</a>
</g>
</g>
<!-- Node2&#45;&gt;Node28 -->
<g id="edge29" class="edge">
<title>Node2&#45;&gt;Node28</title>
<path fill="none" stroke="midnightblue" d="M2051.26,-123.48C2039.76,-114.11 2021.08,-98.88 2007.13,-87.51"/>
<polygon fill="midnightblue" stroke="midnightblue" points="2009.12,-84.61 1999.15,-81.01 2004.69,-90.04 2009.12,-84.61"/>
</g>
<!-- Node29 -->
<g id="node29" class="node">
<title>Node29</title>
<g id="a_node29"><a xlink:title=" ">
<polygon fill="none" stroke="#bfbfbf" points="2029.21,-62 2029.21,-81 2094.21,-81 2094.21,-62 2029.21,-62"/>
<text text-anchor="middle" x="2061.71" y="-69" font-family="FreeSans.ttf" font-size="10.00">functional</text>
</a>
</g>
</g>
<!-- Node2&#45;&gt;Node29 -->
<g id="edge30" class="edge">
<title>Node2&#45;&gt;Node29</title>
<path fill="none" stroke="midnightblue" d="M2061.71,-123.48C2061.71,-115.08 2061.71,-101.98 2061.71,-91.16"/>
<polygon fill="midnightblue" stroke="midnightblue" points="2065.21,-91.01 2061.71,-81.01 2058.21,-91.01 2065.21,-91.01"/>
</g>
<!-- Node30 -->
<g id="node30" class="node">
<title>Node30</title>
<g id="a_node30"><a xlink:title=" ">
<polygon fill="none" stroke="#bfbfbf" points="2112.21,-62 2112.21,-81 2159.21,-81 2159.21,-62 2112.21,-62"/>
<text text-anchor="middle" x="2135.71" y="-69" font-family="FreeSans.ttf" font-size="10.00">vector</text>
</a>
</g>
</g>
<!-- Node2&#45;&gt;Node30 -->
<g id="edge32" class="edge">
<title>Node2&#45;&gt;Node30</title>
<path fill="none" stroke="midnightblue" d="M2072.32,-123.48C2083.97,-114.11 2102.9,-98.88 2117.05,-87.51"/>
<polygon fill="midnightblue" stroke="midnightblue" points="2119.53,-90 2125.13,-81.01 2115.15,-84.55 2119.53,-90"/>
</g>
<!-- Node22 -->
<g id="node22" class="node">
<title>Node22</title>
<g id="a_node22"><a xlink:title=" ">
<polygon fill="none" stroke="#bfbfbf" points="2557.71,-0.5 2557.71,-19.5 2697.71,-19.5 2697.71,-0.5 2557.71,-0.5"/>
<text text-anchor="middle" x="2627.71" y="-7.5" font-family="FreeSans.ttf" font-size="10.00">gazebo/physics/Model.hh</text>
</a>
</g>
</g>
<!-- Node21&#45;&gt;Node22 -->
<g id="edge21" class="edge">
<title>Node21&#45;&gt;Node22</title>
<path fill="none" stroke="midnightblue" d="M2620,-61.98C2621.27,-53.58 2623.26,-40.48 2624.89,-29.66"/>
<polygon fill="midnightblue" stroke="midnightblue" points="2628.39,-29.92 2626.43,-19.51 2621.47,-28.87 2628.39,-29.92"/>
</g>
<!-- Node23 -->
<g id="node23" class="node">
<title>Node23</title>
<g id="a_node23"><a xlink:title=" ">
<polygon fill="none" stroke="#bfbfbf" points="1235.71,-0.5 1235.71,-19.5 1283.71,-19.5 1283.71,-0.5 1235.71,-0.5"/>
<text text-anchor="middle" x="1259.71" y="-7.5" font-family="FreeSans.ttf" font-size="10.00">mutex</text>
</a>
</g>
</g>
<!-- Node21&#45;&gt;Node23 -->
<g id="edge22" class="edge">
<title>Node21&#45;&gt;Node23</title>
<path fill="none" stroke="midnightblue" d="M2571.06,-61.95C2556.55,-59.65 2540.52,-57.41 2525.71,-56 2038.73,-9.55 1442.24,-9.85 1294.19,-10.72"/>
<polygon fill="midnightblue" stroke="midnightblue" points="1293.9,-7.22 1283.92,-10.79 1293.94,-14.22 1293.9,-7.22"/>
</g>
<!-- Node24&#45;&gt;Node20 -->
<g id="edge24" class="edge">
<title>Node24&#45;&gt;Node20</title>
<path fill="none" stroke="midnightblue" d="M2801,-61.98C2801.28,-53.58 2801.72,-40.48 2802.09,-29.66"/>
<polygon fill="midnightblue" stroke="midnightblue" points="2805.59,-29.62 2802.43,-19.51 2798.59,-29.39 2805.59,-29.62"/>
</g>
<!-- Node24&#45;&gt;Node22 -->
<g id="edge25" class="edge">
<title>Node24&#45;&gt;Node22</title>
<path fill="none" stroke="midnightblue" d="M2775.93,-61.98C2746.12,-51.72 2695.92,-34.46 2662.31,-22.9"/>
<polygon fill="midnightblue" stroke="midnightblue" points="2663.05,-19.45 2652.46,-19.51 2660.77,-26.07 2663.05,-19.45"/>
</g>
<!-- Node24&#45;&gt;Node25 -->
<g id="edge26" class="edge">
<title>Node24&#45;&gt;Node25</title>
<path fill="none" stroke="midnightblue" d="M2821.49,-61.98C2846.15,-51.86 2887.46,-34.9 2915.62,-23.35"/>
<polygon fill="midnightblue" stroke="midnightblue" points="2917.06,-26.54 2924.98,-19.51 2914.4,-20.07 2917.06,-26.54"/>
</g>
<!-- Node31&#45;&gt;Node6 -->
<g id="edge38" class="edge">
<title>Node31&#45;&gt;Node6</title>
<path fill="none" stroke="midnightblue" d="M281.06,-123.48C306.4,-113.36 348.85,-96.4 377.79,-84.85"/>
<polygon fill="midnightblue" stroke="midnightblue" points="379.42,-87.97 387.41,-81.01 376.82,-81.47 379.42,-87.97"/>
</g>
<!-- Node31&#45;&gt;Node19 -->
<g id="edge36" class="edge">
<title>Node31&#45;&gt;Node19</title>
<path fill="none" stroke="midnightblue" d="M301.71,-123.43C345.8,-114.42 417.15,-99.79 478.71,-87 484.77,-85.74 491.12,-84.41 497.42,-83.1"/>
<polygon fill="midnightblue" stroke="midnightblue" points="498.15,-86.52 507.22,-81.04 496.72,-79.67 498.15,-86.52"/>
</g>
<!-- Node31&#45;&gt;Node23 -->
<g id="edge37" class="edge">
<title>Node31&#45;&gt;Node23</title>
<path fill="none" stroke="midnightblue" d="M177.69,-130.65C86.8,-126.49 -40.39,-111.06 12.71,-56 55.98,-11.15 1029.25,-10.57 1225.44,-10.91"/>
<polygon fill="midnightblue" stroke="midnightblue" points="1225.46,-14.41 1235.47,-10.93 1225.47,-7.41 1225.46,-14.41"/>
</g>
<!-- Node32 -->
<g id="node32" class="node">
<title>Node32</title>
<g id="a_node32"><a xlink:title=" ">
<polygon fill="none" stroke="#bfbfbf" points="21.71,-62 21.71,-81 59.71,-81 59.71,-62 21.71,-62"/>
<text text-anchor="middle" x="40.71" y="-69" font-family="FreeSans.ttf" font-size="10.00">map</text>
</a>
</g>
</g>
<!-- Node31&#45;&gt;Node32 -->
<g id="edge34" class="edge">
<title>Node31&#45;&gt;Node32</title>
<path fill="none" stroke="midnightblue" d="M208.44,-123.48C169.4,-116.14 114.72,-104.03 68.71,-87 67.47,-86.54 66.22,-86.04 64.96,-85.51"/>
<polygon fill="midnightblue" stroke="midnightblue" points="66.05,-82.15 55.52,-81.03 63.05,-88.48 66.05,-82.15"/>
</g>
<!-- Node33 -->
<g id="node33" class="node">
<title>Node33</title>
<g id="a_node33"><a xlink:title=" ">
<polygon fill="none" stroke="#bfbfbf" points="78.21,-62 78.21,-81 171.21,-81 171.21,-62 78.21,-62"/>
<text text-anchor="middle" x="124.71" y="-69" font-family="FreeSans.ttf" font-size="10.00">sdf/sdf_config.h</text>
</a>
</g>
</g>
<!-- Node31&#45;&gt;Node33 -->
<g id="edge35" class="edge">
<title>Node31&#45;&gt;Node33</title>
<path fill="none" stroke="midnightblue" d="M240.37,-123.48C217.62,-113.45 179.62,-96.7 153.43,-85.15"/>
<polygon fill="midnightblue" stroke="midnightblue" points="154.58,-81.84 144.02,-81.01 151.76,-88.24 154.58,-81.84"/>
</g>
<!-- Node34 -->
<g id="node34" class="node">
<title>Node34</title>
<g id="a_node34"><a xlink:title=" ">
<polygon fill="none" stroke="#bfbfbf" points="189.71,-62 189.71,-81 329.71,-81 329.71,-62 189.71,-62"/>
<text text-anchor="middle" x="259.71" y="-69" font-family="FreeSans.ttf" font-size="10.00">yarp/dev/PolyDriverList.h</text>
</a>
</g>
</g>
<!-- Node31&#45;&gt;Node34 -->
<g id="edge39" class="edge">
<title>Node31&#45;&gt;Node34</title>
<path fill="none" stroke="midnightblue" d="M259.71,-123.48C259.71,-115.08 259.71,-101.98 259.71,-91.16"/>
<polygon fill="midnightblue" stroke="midnightblue" points="263.21,-91.01 259.71,-81.01 256.21,-91.01 263.21,-91.01"/>
</g>
</g>
</svg>
