<?xml version="1.0" encoding="UTF-8" standalone="no"?>
<!DOCTYPE svg PUBLIC "-//W3C//DTD SVG 1.1//EN"
 "http://www.w3.org/Graphics/SVG/1.1/DTD/svg11.dtd">
<!-- Generated by graphviz version 2.49.0 (20210829.0051)
 -->
<!-- Title: ControlBoardDriverDeviceDriver.cpp Pages: 1 -->
<svg width="4114pt" height="218pt"
 viewBox="0.00 0.00 4113.56 218.00" xmlns="http://www.w3.org/2000/svg" xmlns:xlink="http://www.w3.org/1999/xlink">
<g id="graph0" class="graph" transform="scale(1 1) rotate(0) translate(4 214)">
<title>ControlBoardDriverDeviceDriver.cpp</title>
<!-- Node1 -->
<g id="node1" class="node">
<title>Node1</title>
<g id="a_node1"><a xlink:title=" ">
<polygon fill="#bfbfbf" stroke="black" points="2162.06,-179.5 2162.06,-209.5 2306.06,-209.5 2306.06,-179.5 2162.06,-179.5"/>
<text text-anchor="start" x="2170.06" y="-197.5" font-family="FreeSans.ttf" font-size="10.00">ControlBoardDriverDevice</text>
<text text-anchor="middle" x="2234.06" y="-186.5" font-family="FreeSans.ttf" font-size="10.00">Driver.cpp</text>
</a>
</g>
</g>
<!-- Node2 -->
<g id="node2" class="node">
<title>Node2</title>
<g id="a_node2"><a xlink:href="ControlBoardDriver_8h.html" target="_top" xlink:title=" ">
<polygon fill="none" stroke="black" points="2109.56,-123.5 2109.56,-142.5 2228.56,-142.5 2228.56,-123.5 2109.56,-123.5"/>
<text text-anchor="middle" x="2169.06" y="-130.5" font-family="FreeSans.ttf" font-size="10.00">ControlBoardDriver.h</text>
</a>
</g>
</g>
<!-- Node1&#45;&gt;Node2 -->
<g id="edge1" class="edge">
<title>Node1&#45;&gt;Node2</title>
<path fill="none" stroke="midnightblue" d="M2218.66,-179.4C2208.82,-170.4 2196.07,-158.72 2185.96,-149.47"/>
<polygon fill="midnightblue" stroke="midnightblue" points="2188.26,-146.83 2178.52,-142.66 2183.53,-151.99 2188.26,-146.83"/>
</g>
<!-- Node31 -->
<g id="node31" class="node">
<title>Node31</title>
<g id="a_node31"><a xlink:href="Handler_8hh.html" target="_top" xlink:title=" ">
<polygon fill="none" stroke="black" points="177.06,-123.5 177.06,-142.5 341.06,-142.5 341.06,-123.5 177.06,-123.5"/>
<text text-anchor="middle" x="259.06" y="-130.5" font-family="FreeSans.ttf" font-size="10.00">GazeboYarpPlugins/Handler.hh</text>
</a>
</g>
</g>
<!-- Node1&#45;&gt;Node31 -->
<g id="edge33" class="edge">
<title>Node1&#45;&gt;Node31</title>
<path fill="none" stroke="midnightblue" d="M2162.02,-191.33C1859.22,-182.21 689.8,-146.98 351.33,-136.78"/>
<polygon fill="midnightblue" stroke="midnightblue" points="351.42,-133.28 341.32,-136.48 351.21,-140.28 351.42,-133.28"/>
</g>
<!-- Node35 -->
<g id="node35" class="node">
<title>Node35</title>
<g id="a_node35"><a xlink:href="ControlBoardLog_8h.html" target="_top" xlink:title=" ">
<polygon fill="none" stroke="black" points="3046.56,-123.5 3046.56,-142.5 3153.56,-142.5 3153.56,-123.5 3046.56,-123.5"/>
<text text-anchor="middle" x="3100.06" y="-130.5" font-family="FreeSans.ttf" font-size="10.00">ControlBoardLog.h</text>
</a>
</g>
</g>
<!-- Node1&#45;&gt;Node35 -->
<g id="edge40" class="edge">
<title>Node1&#45;&gt;Node35</title>
<path fill="none" stroke="midnightblue" d="M2306.41,-188.53C2472.58,-177.11 2879.31,-149.17 3036.55,-138.36"/>
<polygon fill="midnightblue" stroke="midnightblue" points="3036.81,-141.85 3046.54,-137.68 3036.33,-134.87 3036.81,-141.85"/>
</g>
<!-- Node38 -->
<g id="node38" class="node">
<title>Node38</title>
<g id="a_node38"><a xlink:title=" ">
<polygon fill="none" stroke="#bfbfbf" points="3171.56,-123.5 3171.56,-142.5 3320.56,-142.5 3320.56,-123.5 3171.56,-123.5"/>
<text text-anchor="middle" x="3246.06" y="-130.5" font-family="FreeSans.ttf" font-size="10.00">gazebo/common/Events.hh</text>
</a>
</g>
</g>
<!-- Node1&#45;&gt;Node38 -->
<g id="edge43" class="edge">
<title>Node1&#45;&gt;Node38</title>
<path fill="none" stroke="midnightblue" d="M2306.34,-190.86C2461.03,-184.92 2835.84,-169.04 3161.33,-143.01"/>
<polygon fill="midnightblue" stroke="midnightblue" points="3161.74,-146.49 3171.43,-142.2 3161.18,-139.51 3161.74,-146.49"/>
</g>
<!-- Node3 -->
<g id="node3" class="node">
<title>Node3</title>
<g id="a_node3"><a xlink:title=" ">
<polygon fill="none" stroke="#bfbfbf" points="625.06,-62 625.06,-81 729.06,-81 729.06,-62 625.06,-62"/>
<text text-anchor="middle" x="677.06" y="-69" font-family="FreeSans.ttf" font-size="10.00">yarp/os/Property.h</text>
</a>
</g>
</g>
<!-- Node2&#45;&gt;Node3 -->
<g id="edge2" class="edge">
<title>Node2&#45;&gt;Node3</title>
<path fill="none" stroke="midnightblue" d="M2109.41,-131.73C1874.06,-130.41 1009.55,-123.16 738.06,-87 731.32,-86.1 724.23,-84.78 717.38,-83.29"/>
<polygon fill="midnightblue" stroke="midnightblue" points="718.09,-79.86 707.55,-81.02 716.51,-86.68 718.09,-79.86"/>
</g>
<!-- Node4 -->
<g id="node4" class="node">
<title>Node4</title>
<g id="a_node4"><a xlink:title=" ">
<polygon fill="none" stroke="#bfbfbf" points="747.06,-62 747.06,-81 839.06,-81 839.06,-62 747.06,-62"/>
<text text-anchor="middle" x="793.06" y="-69" font-family="FreeSans.ttf" font-size="10.00">yarp/os/Value.h</text>
</a>
</g>
</g>
<!-- Node2&#45;&gt;Node4 -->
<g id="edge3" class="edge">
<title>Node2&#45;&gt;Node4</title>
<path fill="none" stroke="midnightblue" d="M2109.45,-131.74C1885.76,-130.48 1096.52,-123.51 848.06,-87 842.24,-86.14 836.15,-84.9 830.23,-83.5"/>
<polygon fill="midnightblue" stroke="midnightblue" points="831.06,-80.1 820.51,-81.03 829.34,-86.88 831.06,-80.1"/>
</g>
<!-- Node5 -->
<g id="node5" class="node">
<title>Node5</title>
<g id="a_node5"><a xlink:title=" ">
<polygon fill="none" stroke="#bfbfbf" points="857.56,-62 857.56,-81 964.56,-81 964.56,-62 857.56,-62"/>
<text text-anchor="middle" x="911.06" y="-69" font-family="FreeSans.ttf" font-size="10.00">yarp/dev/Drivers.h</text>
</a>
</g>
</g>
<!-- Node2&#45;&gt;Node5 -->
<g id="edge4" class="edge">
<title>Node2&#45;&gt;Node5</title>
<path fill="none" stroke="midnightblue" d="M2109.49,-131.24C1899.92,-128.35 1197.23,-116.62 974.06,-87 967.18,-86.09 959.96,-84.77 952.95,-83.3"/>
<polygon fill="midnightblue" stroke="midnightblue" points="953.42,-79.82 942.9,-81.06 951.9,-86.65 953.42,-79.82"/>
</g>
<!-- Node6 -->
<g id="node6" class="node">
<title>Node6</title>
<g id="a_node6"><a xlink:title=" ">
<polygon fill="none" stroke="#bfbfbf" points="347.06,-62 347.06,-81 469.06,-81 469.06,-62 347.06,-62"/>
<text text-anchor="middle" x="408.06" y="-69" font-family="FreeSans.ttf" font-size="10.00">yarp/dev/PolyDriver.h</text>
</a>
</g>
</g>
<!-- Node2&#45;&gt;Node6 -->
<g id="edge5" class="edge">
<title>Node2&#45;&gt;Node6</title>
<path fill="none" stroke="midnightblue" d="M2109.54,-131.83C1848.56,-130.89 803.88,-124.78 478.06,-87 469.91,-86.05 461.3,-84.63 453.01,-83.04"/>
<polygon fill="midnightblue" stroke="midnightblue" points="453.61,-79.59 443.11,-81.03 452.22,-86.45 453.61,-79.59"/>
</g>
<!-- Node7 -->
<g id="node7" class="node">
<title>Node7</title>
<g id="a_node7"><a xlink:title=" ">
<polygon fill="none" stroke="#bfbfbf" points="1423.56,-62 1423.56,-81 1548.56,-81 1548.56,-62 1423.56,-62"/>
<text text-anchor="middle" x="1486.06" y="-69" font-family="FreeSans.ttf" font-size="10.00">yarp/dev/IPidControl.h</text>
</a>
</g>
</g>
<!-- Node2&#45;&gt;Node7 -->
<g id="edge6" class="edge">
<title>Node2&#45;&gt;Node7</title>
<path fill="none" stroke="midnightblue" d="M2109.39,-130.09C1999.76,-126.02 1759.07,-114.53 1558.06,-87 1550.24,-85.93 1542,-84.53 1533.99,-83.02"/>
<polygon fill="midnightblue" stroke="midnightblue" points="1534.51,-79.56 1524.02,-81.07 1533.17,-86.43 1534.51,-79.56"/>
</g>
<!-- Node8 -->
<g id="node8" class="node">
<title>Node8</title>
<g id="a_node8"><a xlink:title=" ">
<polygon fill="none" stroke="#bfbfbf" points="1567.06,-62 1567.06,-81 1701.06,-81 1701.06,-62 1567.06,-62"/>
<text text-anchor="middle" x="1634.06" y="-69" font-family="FreeSans.ttf" font-size="10.00">yarp/dev/IPWMControl.h</text>
</a>
</g>
</g>
<!-- Node2&#45;&gt;Node8 -->
<g id="edge7" class="edge">
<title>Node2&#45;&gt;Node8</title>
<path fill="none" stroke="midnightblue" d="M2109.44,-127.89C2021.68,-121.45 1852.71,-107.56 1710.06,-87 1701.93,-85.83 1693.35,-84.39 1685,-82.88"/>
<polygon fill="midnightblue" stroke="midnightblue" points="1685.44,-79.4 1674.97,-81.01 1684.16,-86.28 1685.44,-79.4"/>
</g>
<!-- Node9 -->
<g id="node9" class="node">
<title>Node9</title>
<g id="a_node9"><a xlink:title=" ">
<polygon fill="none" stroke="#bfbfbf" points="1719.06,-62 1719.06,-81 1865.06,-81 1865.06,-62 1719.06,-62"/>
<text text-anchor="middle" x="1792.06" y="-69" font-family="FreeSans.ttf" font-size="10.00">yarp/dev/ICurrentControl.h</text>
</a>
</g>
</g>
<!-- Node2&#45;&gt;Node9 -->
<g id="edge8" class="edge">
<title>Node2&#45;&gt;Node9</title>
<path fill="none" stroke="midnightblue" d="M2110.51,-123.48C2050.94,-114.72 1955.98,-100.49 1874.06,-87 1866.05,-85.68 1857.61,-84.24 1849.31,-82.8"/>
<polygon fill="midnightblue" stroke="midnightblue" points="1849.75,-79.32 1839.29,-81.05 1848.54,-86.22 1849.75,-79.32"/>
</g>
<!-- Node10 -->
<g id="node10" class="node">
<title>Node10</title>
<g id="a_node10"><a xlink:title=" ">
<polygon fill="none" stroke="#bfbfbf" points="1883.56,-56.5 1883.56,-86.5 2058.56,-86.5 2058.56,-56.5 1883.56,-56.5"/>
<text text-anchor="start" x="1891.56" y="-74.5" font-family="FreeSans.ttf" font-size="10.00">yarp/dev/ControlBoardInterfaces</text>
<text text-anchor="middle" x="1971.06" y="-63.5" font-family="FreeSans.ttf" font-size="10.00">Impl.h</text>
</a>
</g>
</g>
<!-- Node2&#45;&gt;Node10 -->
<g id="edge9" class="edge">
<title>Node2&#45;&gt;Node10</title>
<path fill="none" stroke="midnightblue" d="M2140.69,-123.48C2111.25,-114.63 2064.4,-100.55 2027.39,-89.43"/>
<polygon fill="midnightblue" stroke="midnightblue" points="2028.31,-86.05 2017.73,-86.52 2026.3,-92.75 2028.31,-86.05"/>
</g>
<!-- Node11 -->
<g id="node11" class="node">
<title>Node11</title>
<g id="a_node11"><a xlink:title=" ">
<polygon fill="none" stroke="#bfbfbf" points="2077.06,-62 2077.06,-81 2261.06,-81 2261.06,-62 2077.06,-62"/>
<text text-anchor="middle" x="2169.06" y="-69" font-family="FreeSans.ttf" font-size="10.00">yarp/dev/ControlBoardInterfaces.h</text>
</a>
</g>
</g>
<!-- Node2&#45;&gt;Node11 -->
<g id="edge10" class="edge">
<title>Node2&#45;&gt;Node11</title>
<path fill="none" stroke="midnightblue" d="M2169.06,-123.48C2169.06,-115.08 2169.06,-101.98 2169.06,-91.16"/>
<polygon fill="midnightblue" stroke="midnightblue" points="2172.56,-91.01 2169.06,-81.01 2165.56,-91.01 2172.56,-91.01"/>
</g>
<!-- Node12 -->
<g id="node12" class="node">
<title>Node12</title>
<g id="a_node12"><a xlink:title=" ">
<polygon fill="none" stroke="#bfbfbf" points="2279.56,-62 2279.56,-81 2416.56,-81 2416.56,-62 2279.56,-62"/>
<text text-anchor="middle" x="2348.06" y="-69" font-family="FreeSans.ttf" font-size="10.00">yarp/dev/IControlMode.h</text>
</a>
</g>
</g>
<!-- Node2&#45;&gt;Node12 -->
<g id="edge11" class="edge">
<title>Node2&#45;&gt;Node12</title>
<path fill="none" stroke="midnightblue" d="M2194.71,-123.48C2225.68,-113.18 2277.93,-95.81 2312.71,-84.25"/>
<polygon fill="midnightblue" stroke="midnightblue" points="2314.08,-87.48 2322.46,-81.01 2311.87,-80.84 2314.08,-87.48"/>
</g>
<!-- Node13 -->
<g id="node13" class="node">
<title>Node13</title>
<g id="a_node13"><a xlink:title=" ">
<polygon fill="none" stroke="#bfbfbf" points="2435.06,-62 2435.06,-81 2589.06,-81 2589.06,-62 2435.06,-62"/>
<text text-anchor="middle" x="2512.06" y="-69" font-family="FreeSans.ttf" font-size="10.00">yarp/dev/IInteractionMode.h</text>
</a>
</g>
</g>
<!-- Node2&#45;&gt;Node13 -->
<g id="edge12" class="edge">
<title>Node2&#45;&gt;Node13</title>
<path fill="none" stroke="midnightblue" d="M2218.2,-123.48C2280.23,-112.72 2386.79,-94.23 2453.12,-82.72"/>
<polygon fill="midnightblue" stroke="midnightblue" points="2453.75,-86.17 2463.01,-81.01 2452.56,-79.27 2453.75,-86.17"/>
</g>
<!-- Node14 -->
<g id="node14" class="node">
<title>Node14</title>
<g id="a_node14"><a xlink:title=" ">
<polygon fill="none" stroke="#bfbfbf" points="2607.06,-62 2607.06,-81 2765.06,-81 2765.06,-62 2607.06,-62"/>
<text text-anchor="middle" x="2686.06" y="-69" font-family="FreeSans.ttf" font-size="10.00">yarp/dev/IRemoteVariables.h</text>
</a>
</g>
</g>
<!-- Node2&#45;&gt;Node14 -->
<g id="edge13" class="edge">
<title>Node2&#45;&gt;Node14</title>
<path fill="none" stroke="midnightblue" d="M2228.88,-126.84C2311.9,-119.43 2466.7,-104.7 2598.06,-87 2607.51,-85.73 2617.51,-84.23 2627.25,-82.68"/>
<polygon fill="midnightblue" stroke="midnightblue" points="2627.95,-86.11 2637.26,-81.07 2626.83,-79.2 2627.95,-86.11"/>
</g>
<!-- Node15 -->
<g id="node15" class="node">
<title>Node15</title>
<g id="a_node15"><a xlink:title=" ">
<polygon fill="none" stroke="#bfbfbf" points="2783.56,-62 2783.56,-81 2956.56,-81 2956.56,-62 2783.56,-62"/>
<text text-anchor="middle" x="2870.06" y="-69" font-family="FreeSans.ttf" font-size="10.00">yarp/dev/IVirtualAnalogSensor.h</text>
</a>
</g>
</g>
<!-- Node2&#45;&gt;Node15 -->
<g id="edge14" class="edge">
<title>Node2&#45;&gt;Node15</title>
<path fill="none" stroke="midnightblue" d="M2228.88,-129.05C2337.64,-123.37 2574.94,-109.41 2774.06,-87 2785.2,-85.75 2797.04,-84.16 2808.45,-82.51"/>
<polygon fill="midnightblue" stroke="midnightblue" points="2808.96,-85.97 2818.34,-81.05 2807.94,-79.05 2808.96,-85.97"/>
</g>
<!-- Node16 -->
<g id="node16" class="node">
<title>Node16</title>
<g id="a_node16"><a xlink:title=" ">
<polygon fill="none" stroke="#bfbfbf" points="2975.06,-62 2975.06,-81 3073.06,-81 3073.06,-62 2975.06,-62"/>
<text text-anchor="middle" x="3024.06" y="-69" font-family="FreeSans.ttf" font-size="10.00">yarp/sig/Vector.h</text>
</a>
</g>
</g>
<!-- Node2&#45;&gt;Node16 -->
<g id="edge15" class="edge">
<title>Node2&#45;&gt;Node16</title>
<path fill="none" stroke="midnightblue" d="M2228.86,-132.37C2361.93,-132.38 2692.31,-127.87 2965.06,-87 2971.29,-86.07 2977.82,-84.78 2984.18,-83.35"/>
<polygon fill="midnightblue" stroke="midnightblue" points="2985.04,-86.75 2993.96,-81.03 2983.42,-79.94 2985.04,-86.75"/>
</g>
<!-- Node17 -->
<g id="node17" class="node">
<title>Node17</title>
<g id="a_node17"><a xlink:title=" ">
<polygon fill="none" stroke="#bfbfbf" points="3091.56,-62 3091.56,-81 3180.56,-81 3180.56,-62 3091.56,-62"/>
<text text-anchor="middle" x="3136.06" y="-69" font-family="FreeSans.ttf" font-size="10.00">yarp/os/Time.h</text>
</a>
</g>
</g>
<!-- Node2&#45;&gt;Node17 -->
<g id="edge16" class="edge">
<title>Node2&#45;&gt;Node17</title>
<path fill="none" stroke="midnightblue" d="M2228.76,-130.72C2404.29,-126.69 2916.76,-112.96 3082.06,-87 3087.58,-86.13 3093.34,-84.93 3098.96,-83.57"/>
<polygon fill="midnightblue" stroke="midnightblue" points="3100.03,-86.91 3108.83,-81.02 3098.28,-80.13 3100.03,-86.91"/>
</g>
<!-- Node18 -->
<g id="node18" class="node">
<title>Node18</title>
<g id="a_node18"><a xlink:title=" ">
<polygon fill="none" stroke="#bfbfbf" points="3199.06,-62 3199.06,-81 3295.06,-81 3295.06,-62 3199.06,-62"/>
<text text-anchor="middle" x="3247.06" y="-69" font-family="FreeSans.ttf" font-size="10.00">yarp/os/Stamp.h</text>
</a>
</g>
</g>
<!-- Node2&#45;&gt;Node18 -->
<g id="edge17" class="edge">
<title>Node2&#45;&gt;Node18</title>
<path fill="none" stroke="midnightblue" d="M2228.65,-130.98C2417.71,-127.48 3002.69,-114.66 3190.06,-87 3196.02,-86.12 3202.25,-84.88 3208.32,-83.49"/>
<polygon fill="midnightblue" stroke="midnightblue" points="3209.42,-86.82 3218.3,-81.04 3207.75,-80.02 3209.42,-86.82"/>
</g>
<!-- Node19 -->
<g id="node19" class="node">
<title>Node19</title>
<g id="a_node19"><a xlink:title=" ">
<polygon fill="none" stroke="#bfbfbf" points="487.56,-62 487.56,-81 606.56,-81 606.56,-62 487.56,-62"/>
<text text-anchor="middle" x="547.06" y="-69" font-family="FreeSans.ttf" font-size="10.00">boost/shared_ptr.hpp</text>
</a>
</g>
</g>
<!-- Node2&#45;&gt;Node19 -->
<g id="edge18" class="edge">
<title>Node2&#45;&gt;Node19</title>
<path fill="none" stroke="midnightblue" d="M2109.47,-131.69C1861.85,-130.2 913.21,-122.24 616.06,-87 608.11,-86.06 599.72,-84.65 591.64,-83.08"/>
<polygon fill="midnightblue" stroke="midnightblue" points="592.11,-79.6 581.61,-81.02 590.7,-86.46 592.11,-79.6"/>
</g>
<!-- Node20 -->
<g id="node20" class="node">
<title>Node20</title>
<g id="a_node20"><a xlink:href="ControlBoardDriverRange_8h.html" target="_top" xlink:title=" ">
<polygon fill="none" stroke="black" points="1175.06,-0.5 1175.06,-19.5 1325.06,-19.5 1325.06,-0.5 1175.06,-0.5"/>
<text text-anchor="middle" x="1250.06" y="-7.5" font-family="FreeSans.ttf" font-size="10.00">ControlBoardDriverRange.h</text>
</a>
</g>
</g>
<!-- Node2&#45;&gt;Node20 -->
<g id="edge19" class="edge">
<title>Node2&#45;&gt;Node20</title>
<path fill="none" stroke="midnightblue" d="M2109.38,-132.01C1951.73,-131.49 1527.08,-126.35 1393.06,-87 1366.14,-79.09 1362.78,-69.28 1338.06,-56 1317.53,-44.97 1294.01,-32.97 1276.45,-24.14"/>
<polygon fill="midnightblue" stroke="midnightblue" points="1277.88,-20.94 1267.37,-19.59 1274.74,-27.2 1277.88,-20.94"/>
</g>
<!-- Node21 -->
<g id="node21" class="node">
<title>Node21</title>
<g id="a_node21"><a xlink:href="ControlBoardDriverTrajectory_8h.html" target="_top" xlink:title=" ">
<polygon fill="none" stroke="black" points="983.06,-62 983.06,-81 1149.06,-81 1149.06,-62 983.06,-62"/>
<text text-anchor="middle" x="1066.06" y="-69" font-family="FreeSans.ttf" font-size="10.00">ControlBoardDriverTrajectory.h</text>
</a>
</g>
</g>
<!-- Node2&#45;&gt;Node21 -->
<g id="edge20" class="edge">
<title>Node2&#45;&gt;Node21</title>
<path fill="none" stroke="midnightblue" d="M2109.35,-131.67C1952.85,-130.3 1517.95,-123.26 1158.06,-87 1146.98,-85.88 1135.19,-84.32 1123.89,-82.62"/>
<polygon fill="midnightblue" stroke="midnightblue" points="1124.1,-79.11 1113.68,-81.04 1123.03,-86.03 1124.1,-79.11"/>
</g>
<!-- Node24 -->
<g id="node24" class="node">
<title>Node24</title>
<g id="a_node24"><a xlink:href="ControlBoardDriverCoupling_8h.html" target="_top" xlink:title=" ">
<polygon fill="none" stroke="black" points="1167.06,-62 1167.06,-81 1329.06,-81 1329.06,-62 1167.06,-62"/>
<text text-anchor="middle" x="1248.06" y="-69" font-family="FreeSans.ttf" font-size="10.00">ControlBoardDriverCoupling.h</text>
</a>
</g>
</g>
<!-- Node2&#45;&gt;Node24 -->
<g id="edge23" class="edge">
<title>Node2&#45;&gt;Node24</title>
<path fill="none" stroke="midnightblue" d="M2109.56,-130.74C1973.5,-127.42 1629.31,-116.57 1343.06,-87 1331.64,-85.82 1319.49,-84.23 1307.83,-82.53"/>
<polygon fill="midnightblue" stroke="midnightblue" points="1308.15,-79.04 1297.74,-81.01 1307.11,-85.96 1308.15,-79.04"/>
</g>
<!-- Node25 -->
<g id="node25" class="node">
<title>Node25</title>
<g id="a_node25"><a xlink:title=" ">
<polygon fill="none" stroke="#bfbfbf" points="1346.56,-0.5 1346.56,-19.5 1439.56,-19.5 1439.56,-0.5 1346.56,-0.5"/>
<text text-anchor="middle" x="1393.06" y="-7.5" font-family="FreeSans.ttf" font-size="10.00">unordered_map</text>
</a>
</g>
</g>
<!-- Node2&#45;&gt;Node25 -->
<g id="edge31" class="edge">
<title>Node2&#45;&gt;Node25</title>
<path fill="none" stroke="midnightblue" d="M2109.28,-132.37C1940.24,-132.86 1467.59,-130.32 1414.06,-87 1397.22,-73.37 1393.18,-47.55 1392.54,-29.82"/>
<polygon fill="midnightblue" stroke="midnightblue" points="1396.04,-29.76 1392.51,-19.77 1389.04,-29.79 1396.04,-29.76"/>
</g>
<!-- Node26 -->
<g id="node26" class="node">
<title>Node26</title>
<g id="a_node26"><a xlink:title=" ">
<polygon fill="none" stroke="#bfbfbf" points="3313.06,-62 3313.06,-81 3445.06,-81 3445.06,-62 3313.06,-62"/>
<text text-anchor="middle" x="3379.06" y="-69" font-family="FreeSans.ttf" font-size="10.00">gazebo/common/PID.hh</text>
</a>
</g>
</g>
<!-- Node2&#45;&gt;Node26 -->
<g id="edge27" class="edge">
<title>Node2&#45;&gt;Node26</title>
<path fill="none" stroke="midnightblue" d="M2228.74,-130.83C2431.46,-126.66 3092.74,-111.47 3304.06,-87 3312.77,-85.99 3321.99,-84.54 3330.86,-82.93"/>
<polygon fill="midnightblue" stroke="midnightblue" points="3331.52,-86.37 3340.7,-81.08 3330.22,-79.49 3331.52,-86.37"/>
</g>
<!-- Node27 -->
<g id="node27" class="node">
<title>Node27</title>
<g id="a_node27"><a xlink:title=" ">
<polygon fill="none" stroke="#bfbfbf" points="3463.06,-62 3463.06,-81 3603.06,-81 3603.06,-62 3463.06,-62"/>
<text text-anchor="middle" x="3533.06" y="-69" font-family="FreeSans.ttf" font-size="10.00">gazebo/common/Time.hh</text>
</a>
</g>
</g>
<!-- Node2&#45;&gt;Node27 -->
<g id="edge28" class="edge">
<title>Node2&#45;&gt;Node27</title>
<path fill="none" stroke="midnightblue" d="M2228.85,-131.07C2448.67,-127.47 3211.89,-113.32 3454.06,-87 3463.53,-85.97 3473.56,-84.46 3483.19,-82.8"/>
<polygon fill="midnightblue" stroke="midnightblue" points="3483.82,-86.24 3493.04,-81.02 3482.58,-79.35 3483.82,-86.24"/>
</g>
<!-- Node28 -->
<g id="node28" class="node">
<title>Node28</title>
<g id="a_node28"><a xlink:title=" ">
<polygon fill="none" stroke="#bfbfbf" points="3621.06,-62 3621.06,-81 3665.06,-81 3665.06,-62 3621.06,-62"/>
<text text-anchor="middle" x="3643.06" y="-69" font-family="FreeSans.ttf" font-size="10.00">string</text>
</a>
</g>
</g>
<!-- Node2&#45;&gt;Node28 -->
<g id="edge29" class="edge">
<title>Node2&#45;&gt;Node28</title>
<path fill="none" stroke="midnightblue" d="M2228.9,-131.56C2484.29,-129.49 3476.3,-119.41 3612.06,-87 3614.27,-86.47 3616.51,-85.78 3618.72,-84.98"/>
<polygon fill="midnightblue" stroke="midnightblue" points="3620.22,-88.15 3628.06,-81.01 3617.48,-81.71 3620.22,-88.15"/>
</g>
<!-- Node29 -->
<g id="node29" class="node">
<title>Node29</title>
<g id="a_node29"><a xlink:title=" ">
<polygon fill="none" stroke="#bfbfbf" points="3683.56,-62 3683.56,-81 3748.56,-81 3748.56,-62 3683.56,-62"/>
<text text-anchor="middle" x="3716.06" y="-69" font-family="FreeSans.ttf" font-size="10.00">functional</text>
</a>
</g>
</g>
<!-- Node2&#45;&gt;Node29 -->
<g id="edge30" class="edge">
<title>Node2&#45;&gt;Node29</title>
<path fill="none" stroke="midnightblue" d="M2228.72,-131.28C2490.46,-127.98 3530.39,-113.32 3674.06,-87 3677.96,-86.29 3681.99,-85.27 3685.94,-84.11"/>
<polygon fill="midnightblue" stroke="midnightblue" points="3687.04,-87.43 3695.46,-81 3684.87,-80.78 3687.04,-87.43"/>
</g>
<!-- Node30 -->
<g id="node30" class="node">
<title>Node30</title>
<g id="a_node30"><a xlink:title=" ">
<polygon fill="none" stroke="#bfbfbf" points="3766.56,-62 3766.56,-81 3813.56,-81 3813.56,-62 3766.56,-62"/>
<text text-anchor="middle" x="3790.06" y="-69" font-family="FreeSans.ttf" font-size="10.00">vector</text>
</a>
</g>
</g>
<!-- Node2&#45;&gt;Node30 -->
<g id="edge32" class="edge">
<title>Node2&#45;&gt;Node30</title>
<path fill="none" stroke="midnightblue" d="M2228.91,-131.7C2500.14,-130.17 3607.22,-121.82 3758.06,-87 3760.42,-86.46 3762.81,-85.73 3765.18,-84.9"/>
<polygon fill="midnightblue" stroke="midnightblue" points="3766.65,-88.08 3774.55,-81.02 3763.97,-81.61 3766.65,-88.08"/>
</g>
<!-- Node22 -->
<g id="node22" class="node">
<title>Node22</title>
<g id="a_node22"><a xlink:title=" ">
<polygon fill="none" stroke="#bfbfbf" points="1005.06,-0.5 1005.06,-19.5 1145.06,-19.5 1145.06,-0.5 1005.06,-0.5"/>
<text text-anchor="middle" x="1075.06" y="-7.5" font-family="FreeSans.ttf" font-size="10.00">gazebo/physics/Model.hh</text>
</a>
</g>
</g>
<!-- Node21&#45;&gt;Node22 -->
<g id="edge21" class="edge">
<title>Node21&#45;&gt;Node22</title>
<path fill="none" stroke="midnightblue" d="M1067.35,-61.98C1068.62,-53.58 1070.6,-40.48 1072.24,-29.66"/>
<polygon fill="midnightblue" stroke="midnightblue" points="1075.74,-29.92 1073.77,-19.51 1068.82,-28.87 1075.74,-29.92"/>
</g>
<!-- Node23 -->
<g id="node23" class="node">
<title>Node23</title>
<g id="a_node23"><a xlink:title=" ">
<polygon fill="none" stroke="#bfbfbf" points="459.06,-0.5 459.06,-19.5 507.06,-19.5 507.06,-0.5 459.06,-0.5"/>
<text text-anchor="middle" x="483.06" y="-7.5" font-family="FreeSans.ttf" font-size="10.00">mutex</text>
</a>
</g>
</g>
<!-- Node21&#45;&gt;Node23 -->
<g id="edge22" class="edge">
<title>Node21&#45;&gt;Node23</title>
<path fill="none" stroke="midnightblue" d="M1014.98,-61.94C1001.38,-59.83 986.68,-57.69 973.06,-56 802.61,-34.91 597.68,-19.19 517.55,-13.41"/>
<polygon fill="midnightblue" stroke="midnightblue" points="517.31,-9.89 507.08,-12.67 516.81,-16.87 517.31,-9.89"/>
</g>
<!-- Node24&#45;&gt;Node20 -->
<g id="edge24" class="edge">
<title>Node24&#45;&gt;Node20</title>
<path fill="none" stroke="midnightblue" d="M1248.35,-61.98C1248.63,-53.58 1249.07,-40.48 1249.43,-29.66"/>
<polygon fill="midnightblue" stroke="midnightblue" points="1252.94,-29.62 1249.78,-19.51 1245.94,-29.39 1252.94,-29.62"/>
</g>
<!-- Node24&#45;&gt;Node22 -->
<g id="edge25" class="edge">
<title>Node24&#45;&gt;Node22</title>
<path fill="none" stroke="midnightblue" d="M1223.27,-61.98C1193.47,-51.72 1143.27,-34.46 1109.66,-22.9"/>
<polygon fill="midnightblue" stroke="midnightblue" points="1110.4,-19.45 1099.8,-19.51 1108.12,-26.07 1110.4,-19.45"/>
</g>
<!-- Node24&#45;&gt;Node25 -->
<g id="edge26" class="edge">
<title>Node24&#45;&gt;Node25</title>
<path fill="none" stroke="midnightblue" d="M1268.84,-61.98C1293.49,-51.86 1334.81,-34.9 1362.96,-23.35"/>
<polygon fill="midnightblue" stroke="midnightblue" points="1364.4,-26.54 1372.33,-19.51 1361.74,-20.07 1364.4,-26.54"/>
</g>
<!-- Node31&#45;&gt;Node6 -->
<g id="edge38" class="edge">
<title>Node31&#45;&gt;Node6</title>
<path fill="none" stroke="midnightblue" d="M280.41,-123.48C305.75,-113.36 348.2,-96.4 377.13,-84.85"/>
<polygon fill="midnightblue" stroke="midnightblue" points="378.76,-87.97 386.75,-81.01 376.17,-81.47 378.76,-87.97"/>
</g>
<!-- Node31&#45;&gt;Node19 -->
<g id="edge36" class="edge">
<title>Node31&#45;&gt;Node19</title>
<path fill="none" stroke="midnightblue" d="M301.06,-123.43C345.15,-114.42 416.5,-99.79 478.06,-87 484.12,-85.74 490.47,-84.41 496.77,-83.1"/>
<polygon fill="midnightblue" stroke="midnightblue" points="497.5,-86.52 506.57,-81.04 496.06,-79.67 497.5,-86.52"/>
</g>
<!-- Node31&#45;&gt;Node23 -->
<g id="edge37" class="edge">
<title>Node31&#45;&gt;Node23</title>
<path fill="none" stroke="midnightblue" d="M176.8,-131.14C86.51,-127.43 -39.24,-112.44 12.06,-56 41.35,-23.79 345.13,-14.07 448.69,-11.68"/>
<polygon fill="midnightblue" stroke="midnightblue" points="449,-15.17 458.92,-11.45 448.84,-8.17 449,-15.17"/>
</g>
<!-- Node32 -->
<g id="node32" class="node">
<title>Node32</title>
<g id="a_node32"><a xlink:title=" ">
<polygon fill="none" stroke="#bfbfbf" points="21.06,-62 21.06,-81 59.06,-81 59.06,-62 21.06,-62"/>
<text text-anchor="middle" x="40.06" y="-69" font-family="FreeSans.ttf" font-size="10.00">map</text>
</a>
</g>
</g>
<!-- Node31&#45;&gt;Node32 -->
<g id="edge34" class="edge">
<title>Node31&#45;&gt;Node32</title>
<path fill="none" stroke="midnightblue" d="M207.79,-123.48C168.75,-116.14 114.07,-104.03 68.06,-87 66.82,-86.54 65.56,-86.04 64.3,-85.51"/>
<polygon fill="midnightblue" stroke="midnightblue" points="65.4,-82.15 54.86,-81.03 62.4,-88.48 65.4,-82.15"/>
</g>
<!-- Node33 -->
<g id="node33" class="node">
<title>Node33</title>
<g id="a_node33"><a xlink:title=" ">
<polygon fill="none" stroke="#bfbfbf" points="77.56,-62 77.56,-81 170.56,-81 170.56,-62 77.56,-62"/>
<text text-anchor="middle" x="124.06" y="-69" font-family="FreeSans.ttf" font-size="10.00">sdf/sdf_config.h</text>
</a>
</g>
</g>
<!-- Node31&#45;&gt;Node33 -->
<g id="edge35" class="edge">
<title>Node31&#45;&gt;Node33</title>
<path fill="none" stroke="midnightblue" d="M239.72,-123.48C216.96,-113.45 178.97,-96.7 152.77,-85.15"/>
<polygon fill="midnightblue" stroke="midnightblue" points="153.93,-81.84 143.37,-81.01 151.11,-88.24 153.93,-81.84"/>
</g>
<!-- Node34 -->
<g id="node34" class="node">
<title>Node34</title>
<g id="a_node34"><a xlink:title=" ">
<polygon fill="none" stroke="#bfbfbf" points="189.06,-62 189.06,-81 329.06,-81 329.06,-62 189.06,-62"/>
<text text-anchor="middle" x="259.06" y="-69" font-family="FreeSans.ttf" font-size="10.00">yarp/dev/PolyDriverList.h</text>
</a>
</g>
</g>
<!-- Node31&#45;&gt;Node34 -->
<g id="edge39" class="edge">
<title>Node31&#45;&gt;Node34</title>
<path fill="none" stroke="midnightblue" d="M259.06,-123.48C259.06,-115.08 259.06,-101.98 259.06,-91.16"/>
<polygon fill="midnightblue" stroke="midnightblue" points="262.56,-91.01 259.06,-81.01 255.56,-91.01 262.56,-91.01"/>
</g>
<!-- Node36 -->
<g id="node36" class="node">
<title>Node36</title>
<g id="a_node36"><a xlink:title=" ">
<polygon fill="none" stroke="#bfbfbf" points="3832.06,-62 3832.06,-81 3970.06,-81 3970.06,-62 3832.06,-62"/>
<text text-anchor="middle" x="3901.06" y="-69" font-family="FreeSans.ttf" font-size="10.00">yarp/os/LogComponent.h</text>
</a>
</g>
</g>
<!-- Node35&#45;&gt;Node36 -->
<g id="edge41" class="edge">
<title>Node35&#45;&gt;Node36</title>
<path fill="none" stroke="midnightblue" d="M3153.64,-124.02C3156.82,-123.65 3159.98,-123.3 3163.06,-123 3455.42,-94.2 3531.37,-121.92 3823.06,-87 3832,-85.93 3841.47,-84.46 3850.6,-82.86"/>
<polygon fill="midnightblue" stroke="midnightblue" points="3851.52,-86.26 3860.73,-81.03 3850.27,-79.37 3851.52,-86.26"/>
</g>
<!-- Node37 -->
<g id="node37" class="node">
<title>Node37</title>
<g id="a_node37"><a xlink:title=" ">
<polygon fill="none" stroke="#bfbfbf" points="3988.56,-62 3988.56,-81 4105.56,-81 4105.56,-62 3988.56,-62"/>
<text text-anchor="middle" x="4047.06" y="-69" font-family="FreeSans.ttf" font-size="10.00">yarp/os/LogStream.h</text>
</a>
</g>
</g>
<!-- Node35&#45;&gt;Node37 -->
<g id="edge42" class="edge">
<title>Node35&#45;&gt;Node37</title>
<path fill="none" stroke="midnightblue" d="M3153.64,-123.98C3156.82,-123.62 3159.98,-123.29 3163.06,-123 3524.51,-89.29 3618.97,-133.01 3979.06,-87 3986.64,-86.03 3994.62,-84.66 4002.35,-83.13"/>
<polygon fill="midnightblue" stroke="midnightblue" points="4003.23,-86.53 4012.31,-81.07 4001.81,-79.67 4003.23,-86.53"/>
</g>
</g>
</svg>
