<?xml version="1.0" encoding="UTF-8" standalone="no"?>
<!DOCTYPE svg PUBLIC "-//W3C//DTD SVG 1.1//EN"
 "http://www.w3.org/Graphics/SVG/1.1/DTD/svg11.dtd">
<!-- Generated by graphviz version 2.49.0 (20210829.0051)
 -->
<!-- Title: ControlBoardLog.h Pages: 1 -->
<svg width="2321pt" height="95pt"
 viewBox="0.00 0.00 2321.00 95.00" xmlns="http://www.w3.org/2000/svg" xmlns:xlink="http://www.w3.org/1999/xlink">
<g id="graph0" class="graph" transform="scale(1 1) rotate(0) translate(4 91)">
<title>ControlBoardLog.h</title>
<!-- Node1 -->
<g id="node1" class="node">
<title>Node1</title>
<g id="a_node1"><a xlink:title=" ">
<polygon fill="#bfbfbf" stroke="black" points="1086.5,-67.5 1086.5,-86.5 1193.5,-86.5 1193.5,-67.5 1086.5,-67.5"/>
<text text-anchor="middle" x="1140" y="-74.5" font-family="FreeSans.ttf" font-size="10.00">ControlBoardLog.h</text>
</a>
</g>
</g>
<!-- Node2 -->
<g id="node2" class="node">
<title>Node2</title>
<g id="a_node2"><a xlink:href="ControlBoard_8cc.html" target="_top" xlink:title=" ">
<polygon fill="none" stroke="black" points="0,-6 0,-25 94,-25 94,-6 0,-6"/>
<text text-anchor="middle" x="47" y="-13" font-family="FreeSans.ttf" font-size="10.00">ControlBoard.cc</text>
</a>
</g>
</g>
<!-- Node1&#45;&gt;Node2 -->
<g id="edge1" class="edge">
<title>Node1&#45;&gt;Node2</title>
<path fill="none" stroke="midnightblue" d="M1076.27,-74.99C880.91,-71.6 292.21,-59.28 103,-31 93.86,-29.63 84.06,-27.38 75.25,-25.05"/>
<polygon fill="midnightblue" stroke="midnightblue" points="1076.32,-78.49 1086.38,-75.16 1076.44,-71.49 1076.32,-78.49"/>
</g>
<!-- Node3 -->
<g id="node3" class="node">
<title>Node3</title>
<g id="a_node3"><a xlink:href="ControlBoardDriver_8cpp.html" target="_top" xlink:title=" ">
<polygon fill="none" stroke="black" points="112,-6 112,-25 242,-25 242,-6 112,-6"/>
<text text-anchor="middle" x="177" y="-13" font-family="FreeSans.ttf" font-size="10.00">ControlBoardDriver.cpp</text>
</a>
</g>
</g>
<!-- Node1&#45;&gt;Node3 -->
<g id="edge2" class="edge">
<title>Node1&#45;&gt;Node3</title>
<path fill="none" stroke="midnightblue" d="M1076.27,-75.89C929.9,-74.96 558.64,-68.73 251,-31 239.31,-29.57 226.69,-27.35 215.24,-25.07"/>
<polygon fill="midnightblue" stroke="midnightblue" points="1076.39,-79.39 1086.41,-75.95 1076.43,-72.39 1076.39,-79.39"/>
</g>
<!-- Node4 -->
<g id="node4" class="node">
<title>Node4</title>
<g id="a_node4"><a xlink:href="ControlBoardDriverControlMode_8cpp.html" target="_top" xlink:title=" ">
<polygon fill="none" stroke="black" points="260,-0.5 260,-30.5 406,-30.5 406,-0.5 260,-0.5"/>
<text text-anchor="start" x="268" y="-18.5" font-family="FreeSans.ttf" font-size="10.00">ControlBoardDriverControl</text>
<text text-anchor="middle" x="333" y="-7.5" font-family="FreeSans.ttf" font-size="10.00">Mode.cpp</text>
</a>
</g>
</g>
<!-- Node1&#45;&gt;Node4 -->
<g id="edge3" class="edge">
<title>Node1&#45;&gt;Node4</title>
<path fill="none" stroke="midnightblue" d="M1075.86,-74.45C949.16,-70.86 657.99,-59.93 415,-31 412.13,-30.66 409.21,-30.28 406.26,-29.88"/>
<polygon fill="midnightblue" stroke="midnightblue" points="1076.06,-77.96 1086.15,-74.74 1076.25,-70.96 1076.06,-77.96"/>
</g>
<!-- Node5 -->
<g id="node5" class="node">
<title>Node5</title>
<g id="a_node5"><a xlink:href="ControlBoardDriverCoupling_8cpp.html" target="_top" xlink:title=" ">
<polygon fill="none" stroke="black" points="424.5,-6 424.5,-25 597.5,-25 597.5,-6 424.5,-6"/>
<text text-anchor="middle" x="511" y="-13" font-family="FreeSans.ttf" font-size="10.00">ControlBoardDriverCoupling.cpp</text>
</a>
</g>
</g>
<!-- Node1&#45;&gt;Node5 -->
<g id="edge4" class="edge">
<title>Node1&#45;&gt;Node5</title>
<path fill="none" stroke="midnightblue" d="M1076.18,-72.02C975.88,-65.45 775.32,-51.03 606,-31 591.92,-29.33 576.71,-27.18 562.68,-25.04"/>
<polygon fill="midnightblue" stroke="midnightblue" points="1076.24,-75.53 1086.44,-72.69 1076.69,-68.54 1076.24,-75.53"/>
</g>
<!-- Node6 -->
<g id="node6" class="node">
<title>Node6</title>
<g id="a_node6"><a xlink:href="ControlBoardDriverCurrent_8cpp.html" target="_top" xlink:title=" ">
<polygon fill="none" stroke="black" points="615.5,-6 615.5,-25 782.5,-25 782.5,-6 615.5,-6"/>
<text text-anchor="middle" x="699" y="-13" font-family="FreeSans.ttf" font-size="10.00">ControlBoardDriverCurrent.cpp</text>
</a>
</g>
</g>
<!-- Node1&#45;&gt;Node6 -->
<g id="edge5" class="edge">
<title>Node1&#45;&gt;Node6</title>
<path fill="none" stroke="midnightblue" d="M1076.32,-68.27C1006.49,-59.68 891.16,-45.14 792,-31 779.06,-29.15 765.12,-27.05 752.08,-25.02"/>
<polygon fill="midnightblue" stroke="midnightblue" points="1075.93,-71.75 1086.29,-69.5 1076.79,-64.8 1075.93,-71.75"/>
</g>
<!-- Node7 -->
<g id="node7" class="node">
<title>Node7</title>
<g id="a_node7"><a xlink:href="ControlBoardDriverDeviceDriver_8cpp.html" target="_top" xlink:title=" ">
<polygon fill="none" stroke="black" points="801,-0.5 801,-30.5 945,-30.5 945,-0.5 801,-0.5"/>
<text text-anchor="start" x="809" y="-18.5" font-family="FreeSans.ttf" font-size="10.00">ControlBoardDriverDevice</text>
<text text-anchor="middle" x="873" y="-7.5" font-family="FreeSans.ttf" font-size="10.00">Driver.cpp</text>
</a>
</g>
</g>
<!-- Node1&#45;&gt;Node7 -->
<g id="edge6" class="edge">
<title>Node1&#45;&gt;Node7</title>
<path fill="none" stroke="midnightblue" d="M1091.95,-65.29C1048.31,-55.57 983.67,-41.16 935.93,-30.52"/>
<polygon fill="midnightblue" stroke="midnightblue" points="1091.22,-68.72 1101.75,-67.48 1092.75,-61.88 1091.22,-68.72"/>
</g>
<!-- Node8 -->
<g id="node8" class="node">
<title>Node8</title>
<g id="a_node8"><a xlink:href="ControlBoardDriverOthers_8cpp.html" target="_top" xlink:title=" ">
<polygon fill="none" stroke="black" points="963.5,-6 963.5,-25 1126.5,-25 1126.5,-6 963.5,-6"/>
<text text-anchor="middle" x="1045" y="-13" font-family="FreeSans.ttf" font-size="10.00">ControlBoardDriverOthers.cpp</text>
</a>
</g>
</g>
<!-- Node1&#45;&gt;Node8 -->
<g id="edge7" class="edge">
<title>Node1&#45;&gt;Node8</title>
<path fill="none" stroke="midnightblue" d="M1117.79,-62.09C1099.45,-50.6 1074.02,-34.68 1058.59,-25.01"/>
<polygon fill="midnightblue" stroke="midnightblue" points="1116.06,-65.13 1126.39,-67.48 1119.77,-59.2 1116.06,-65.13"/>
</g>
<!-- Node9 -->
<g id="node9" class="node">
<title>Node9</title>
<g id="a_node9"><a xlink:href="ControlBoardDriverPidControl_8cpp.html" target="_top" xlink:title=" ">
<polygon fill="none" stroke="black" points="1144.5,-6 1144.5,-25 1325.5,-25 1325.5,-6 1144.5,-6"/>
<text text-anchor="middle" x="1235" y="-13" font-family="FreeSans.ttf" font-size="10.00">ControlBoardDriverPidControl.cpp</text>
</a>
</g>
</g>
<!-- Node1&#45;&gt;Node9 -->
<g id="edge8" class="edge">
<title>Node1&#45;&gt;Node9</title>
<path fill="none" stroke="midnightblue" d="M1162.21,-62.09C1180.55,-50.6 1205.98,-34.68 1221.41,-25.01"/>
<polygon fill="midnightblue" stroke="midnightblue" points="1160.23,-59.2 1153.61,-67.48 1163.94,-65.13 1160.23,-59.2"/>
</g>
<!-- Node10 -->
<g id="node10" class="node">
<title>Node10</title>
<g id="a_node10"><a xlink:href="ControlBoardDriverPositionControl_8cpp.html" target="_top" xlink:title=" ">
<polygon fill="none" stroke="black" points="1343.5,-0.5 1343.5,-30.5 1492.5,-30.5 1492.5,-0.5 1343.5,-0.5"/>
<text text-anchor="start" x="1351.5" y="-18.5" font-family="FreeSans.ttf" font-size="10.00">ControlBoardDriverPosition</text>
<text text-anchor="middle" x="1418" y="-7.5" font-family="FreeSans.ttf" font-size="10.00">Control.cpp</text>
</a>
</g>
</g>
<!-- Node1&#45;&gt;Node10 -->
<g id="edge9" class="edge">
<title>Node1&#45;&gt;Node10</title>
<path fill="none" stroke="midnightblue" d="M1189.74,-65.35C1235.18,-55.63 1302.67,-41.18 1352.48,-30.52"/>
<polygon fill="midnightblue" stroke="midnightblue" points="1188.88,-61.96 1179.83,-67.48 1190.34,-68.8 1188.88,-61.96"/>
</g>
<!-- Node11 -->
<g id="node11" class="node">
<title>Node11</title>
<g id="a_node11"><a xlink:href="ControlBoardDriverRemoteVariables_8cpp.html" target="_top" xlink:title=" ">
<polygon fill="none" stroke="black" points="1510.5,-0.5 1510.5,-30.5 1659.5,-30.5 1659.5,-0.5 1510.5,-0.5"/>
<text text-anchor="start" x="1518.5" y="-18.5" font-family="FreeSans.ttf" font-size="10.00">ControlBoardDriverRemote</text>
<text text-anchor="middle" x="1585" y="-7.5" font-family="FreeSans.ttf" font-size="10.00">Variables.cpp</text>
</a>
</g>
</g>
<!-- Node1&#45;&gt;Node11 -->
<g id="edge10" class="edge">
<title>Node1&#45;&gt;Node11</title>
<path fill="none" stroke="midnightblue" d="M1204.11,-69C1276.56,-60.86 1397.97,-46.54 1502,-31 1504.75,-30.59 1507.55,-30.16 1510.37,-29.72"/>
<polygon fill="midnightblue" stroke="midnightblue" points="1203.33,-65.56 1193.78,-70.15 1204.11,-72.52 1203.33,-65.56"/>
</g>
<!-- Node12 -->
<g id="node12" class="node">
<title>Node12</title>
<g id="a_node12"><a xlink:href="ControlBoardDriverTorqueControl_8cpp.html" target="_top" xlink:title=" ">
<polygon fill="none" stroke="black" points="1677.5,-0.5 1677.5,-30.5 1820.5,-30.5 1820.5,-0.5 1677.5,-0.5"/>
<text text-anchor="start" x="1685.5" y="-18.5" font-family="FreeSans.ttf" font-size="10.00">ControlBoardDriverTorque</text>
<text text-anchor="middle" x="1749" y="-7.5" font-family="FreeSans.ttf" font-size="10.00">Control.cpp</text>
</a>
</g>
</g>
<!-- Node1&#45;&gt;Node12 -->
<g id="edge11" class="edge">
<title>Node1&#45;&gt;Node12</title>
<path fill="none" stroke="midnightblue" d="M1204.08,-72.51C1303.79,-66.63 1501.99,-53.19 1669,-31 1671.66,-30.65 1674.36,-30.27 1677.09,-29.86"/>
<polygon fill="midnightblue" stroke="midnightblue" points="1203.65,-69.03 1193.87,-73.1 1204.06,-76.01 1203.65,-69.03"/>
</g>
<!-- Node13 -->
<g id="node13" class="node">
<title>Node13</title>
<g id="a_node13"><a xlink:href="ControlBoardDriverTrajectory_8cpp.html" target="_top" xlink:title=" ">
<polygon fill="none" stroke="black" points="1838.5,-6 1838.5,-25 2015.5,-25 2015.5,-6 1838.5,-6"/>
<text text-anchor="middle" x="1927" y="-13" font-family="FreeSans.ttf" font-size="10.00">ControlBoardDriverTrajectory.cpp</text>
</a>
</g>
</g>
<!-- Node1&#45;&gt;Node13 -->
<g id="edge12" class="edge">
<title>Node1&#45;&gt;Node13</title>
<path fill="none" stroke="midnightblue" d="M1204.09,-73.6C1326.17,-68.65 1600.35,-55.61 1830,-31 1844.81,-29.41 1860.83,-27.22 1875.5,-25.01"/>
<polygon fill="midnightblue" stroke="midnightblue" points="1203.66,-70.12 1193.81,-74.02 1203.94,-77.11 1203.66,-70.12"/>
</g>
<!-- Node14 -->
<g id="node14" class="node">
<title>Node14</title>
<g id="a_node14"><a xlink:href="ControlBoardDriverVirtualAnalogSensor_8cpp.html" target="_top" xlink:title=" ">
<polygon fill="none" stroke="black" points="2033.5,-0.5 2033.5,-30.5 2176.5,-30.5 2176.5,-0.5 2033.5,-0.5"/>
<text text-anchor="start" x="2041.5" y="-18.5" font-family="FreeSans.ttf" font-size="10.00">ControlBoardDriverVirtual</text>
<text text-anchor="middle" x="2105" y="-7.5" font-family="FreeSans.ttf" font-size="10.00">AnalogSensor.cpp</text>
</a>
</g>
</g>
<!-- Node1&#45;&gt;Node14 -->
<g id="edge13" class="edge">
<title>Node1&#45;&gt;Node14</title>
<path fill="none" stroke="midnightblue" d="M1203.68,-75.56C1349.5,-73.95 1718.67,-66.4 2025,-31 2027.66,-30.69 2030.37,-30.35 2033.11,-29.98"/>
<polygon fill="midnightblue" stroke="midnightblue" points="1203.53,-72.06 1193.57,-75.67 1203.61,-79.06 1203.53,-72.06"/>
</g>
<!-- Node15 -->
<g id="node15" class="node">
<title>Node15</title>
<g id="a_node15"><a xlink:href="ControlBoardLog_8cpp.html" target="_top" xlink:title=" ">
<polygon fill="none" stroke="black" points="2195,-6 2195,-25 2313,-25 2313,-6 2195,-6"/>
<text text-anchor="middle" x="2254" y="-13" font-family="FreeSans.ttf" font-size="10.00">ControlBoardLog.cpp</text>
</a>
</g>
</g>
<!-- Node1&#45;&gt;Node15 -->
<g id="edge14" class="edge">
<title>Node1&#45;&gt;Node15</title>
<path fill="none" stroke="midnightblue" d="M1203.89,-74.65C1400.45,-70.28 1994.46,-55.37 2186,-31 2197.02,-29.6 2208.9,-27.33 2219.6,-25"/>
<polygon fill="midnightblue" stroke="midnightblue" points="1203.64,-71.16 1193.72,-74.88 1203.8,-78.15 1203.64,-71.16"/>
</g>
</g>
</svg>
