<?xml version="1.0" encoding="UTF-8" standalone="no"?>
<!DOCTYPE svg PUBLIC "-//W3C//DTD SVG 1.1//EN"
 "http://www.w3.org/Graphics/SVG/1.1/DTD/svg11.dtd">
<!-- Generated by graphviz version 2.43.0 (0)
 -->
<!-- Title: ControlBoardDriver.cpp Pages: 1 -->
<svg width="4384pt" height="207pt"
 viewBox="0.00 0.00 4383.50 207.00" xmlns="http://www.w3.org/2000/svg" xmlns:xlink="http://www.w3.org/1999/xlink">
<g id="graph0" class="graph" transform="scale(1 1) rotate(0) translate(4 203)">
<title>ControlBoardDriver.cpp</title>
<!-- Node1 -->
<g id="node1" class="node">
<title>Node1</title>
<g id="a_node1"><a xlink:title=" ">
<polygon fill="#bfbfbf" stroke="black" points="3698,-179.5 3698,-198.5 3828,-198.5 3828,-179.5 3698,-179.5"/>
<text text-anchor="middle" x="3763" y="-186.5" font-family="FreeSans.ttf" font-size="10.00">ControlBoardDriver.cpp</text>
</a>
</g>
</g>
<!-- Node2 -->
<g id="node2" class="node">
<title>Node2</title>
<g id="a_node2"><a xlink:href="ControlBoardDriver_8h.html" target="_top" xlink:title=" ">
<polygon fill="none" stroke="black" points="1829.5,-123.5 1829.5,-142.5 1948.5,-142.5 1948.5,-123.5 1829.5,-123.5"/>
<text text-anchor="middle" x="1889" y="-130.5" font-family="FreeSans.ttf" font-size="10.00">ControlBoardDriver.h</text>
</a>
</g>
</g>
<!-- Node1&#45;&gt;Node2 -->
<g id="edge1" class="edge">
<title>Node1&#45;&gt;Node2</title>
<path fill="none" stroke="midnightblue" d="M3697.95,-186.13C3410.62,-177.85 2256.39,-144.59 1959.11,-136.02"/>
<polygon fill="midnightblue" stroke="midnightblue" points="1959,-132.52 1948.9,-135.73 1958.8,-139.51 1959,-132.52"/>
</g>
<!-- Node31 -->
<g id="node31" class="node">
<title>Node31</title>
<g id="a_node31"><a xlink:href="common_8h.html" target="_top" xlink:title=" ">
<polygon fill="none" stroke="black" points="3363,-123.5 3363,-142.5 3527,-142.5 3527,-123.5 3363,-123.5"/>
<text text-anchor="middle" x="3445" y="-130.5" font-family="FreeSans.ttf" font-size="10.00">GazeboYarpPlugins/common.h</text>
</a>
</g>
</g>
<!-- Node1&#45;&gt;Node31 -->
<g id="edge33" class="edge">
<title>Node1&#45;&gt;Node31</title>
<path fill="none" stroke="midnightblue" d="M3712.61,-179.44C3656.32,-169.89 3565.25,-154.42 3505.24,-144.23"/>
<polygon fill="midnightblue" stroke="midnightblue" points="3505.6,-140.74 3495.15,-142.52 3504.43,-147.64 3505.6,-140.74"/>
</g>
<!-- Node33 -->
<g id="node33" class="node">
<title>Node33</title>
<g id="a_node33"><a xlink:title=" ">
<polygon fill="none" stroke="#bfbfbf" points="3545,-123.5 3545,-142.5 3591,-142.5 3591,-123.5 3545,-123.5"/>
<text text-anchor="middle" x="3568" y="-130.5" font-family="FreeSans.ttf" font-size="10.00">cstdio</text>
</a>
</g>
</g>
<!-- Node1&#45;&gt;Node33 -->
<g id="edge36" class="edge">
<title>Node1&#45;&gt;Node33</title>
<path fill="none" stroke="midnightblue" d="M3731.74,-179.42C3700.9,-170.94 3652.17,-157.52 3600.99,-143.27"/>
<polygon fill="midnightblue" stroke="midnightblue" points="3601.64,-139.81 3591.07,-140.5 3599.76,-146.56 3601.64,-139.81"/>
</g>
<!-- Node34 -->
<g id="node34" class="node">
<title>Node34</title>
<g id="a_node34"><a xlink:title=" ">
<polygon fill="none" stroke="#bfbfbf" points="3608.5,-123.5 3608.5,-142.5 3757.5,-142.5 3757.5,-123.5 3608.5,-123.5"/>
<text text-anchor="middle" x="3683" y="-130.5" font-family="FreeSans.ttf" font-size="10.00">gazebo/common/Events.hh</text>
</a>
</g>
</g>
<!-- Node1&#45;&gt;Node34 -->
<g id="edge37" class="edge">
<title>Node1&#45;&gt;Node34</title>
<path fill="none" stroke="midnightblue" d="M3750.15,-179.32C3737.78,-170.98 3718.87,-158.21 3704.26,-148.35"/>
<polygon fill="midnightblue" stroke="midnightblue" points="3706.07,-145.35 3695.82,-142.65 3702.15,-151.15 3706.07,-145.35"/>
</g>
<!-- Node35 -->
<g id="node35" class="node">
<title>Node35</title>
<g id="a_node35"><a xlink:title=" ">
<polygon fill="none" stroke="#bfbfbf" points="3775.5,-123.5 3775.5,-142.5 3912.5,-142.5 3912.5,-123.5 3775.5,-123.5"/>
<text text-anchor="middle" x="3844" y="-130.5" font-family="FreeSans.ttf" font-size="10.00">gazebo/physics/World.hh</text>
</a>
</g>
</g>
<!-- Node1&#45;&gt;Node35 -->
<g id="edge38" class="edge">
<title>Node1&#45;&gt;Node35</title>
<path fill="none" stroke="midnightblue" d="M3776.01,-179.32C3788.53,-170.98 3807.68,-158.21 3822.47,-148.35"/>
<polygon fill="midnightblue" stroke="midnightblue" points="3824.64,-151.11 3831.02,-142.65 3820.76,-145.29 3824.64,-151.11"/>
</g>
<!-- Node36 -->
<g id="node36" class="node">
<title>Node36</title>
<g id="a_node36"><a xlink:title=" ">
<polygon fill="none" stroke="#bfbfbf" points="3930.5,-123.5 3930.5,-142.5 4061.5,-142.5 4061.5,-123.5 3930.5,-123.5"/>
<text text-anchor="middle" x="3996" y="-130.5" font-family="FreeSans.ttf" font-size="10.00">gazebo/physics/Joint.hh</text>
</a>
</g>
</g>
<!-- Node1&#45;&gt;Node36 -->
<g id="edge39" class="edge">
<title>Node1&#45;&gt;Node36</title>
<path fill="none" stroke="midnightblue" d="M3799.92,-179.44C3840.4,-170.06 3905.42,-154.99 3949.38,-144.8"/>
<polygon fill="midnightblue" stroke="midnightblue" points="3950.3,-148.18 3959.25,-142.52 3948.72,-141.36 3950.3,-148.18"/>
</g>
<!-- Node37 -->
<g id="node37" class="node">
<title>Node37</title>
<g id="a_node37"><a xlink:title=" ">
<polygon fill="none" stroke="#bfbfbf" points="4079.5,-123.5 4079.5,-142.5 4240.5,-142.5 4240.5,-123.5 4079.5,-123.5"/>
<text text-anchor="middle" x="4160" y="-130.5" font-family="FreeSans.ttf" font-size="10.00">gazebo/transport/transport.hh</text>
</a>
</g>
</g>
<!-- Node1&#45;&gt;Node37 -->
<g id="edge40" class="edge">
<title>Node1&#45;&gt;Node37</title>
<path fill="none" stroke="midnightblue" d="M3825.91,-179.44C3896.9,-169.79 4012.23,-154.1 4087.1,-143.92"/>
<polygon fill="midnightblue" stroke="midnightblue" points="4087.95,-147.33 4097.39,-142.52 4087.01,-140.4 4087.95,-147.33"/>
</g>
<!-- Node38 -->
<g id="node38" class="node">
<title>Node38</title>
<g id="a_node38"><a xlink:title=" ">
<polygon fill="none" stroke="#bfbfbf" points="4258.5,-123.5 4258.5,-142.5 4375.5,-142.5 4375.5,-123.5 4258.5,-123.5"/>
<text text-anchor="middle" x="4317" y="-130.5" font-family="FreeSans.ttf" font-size="10.00">yarp/os/LogStream.h</text>
</a>
</g>
</g>
<!-- Node1&#45;&gt;Node38 -->
<g id="edge41" class="edge">
<title>Node1&#45;&gt;Node38</title>
<path fill="none" stroke="midnightblue" d="M3828.08,-182.85C3919.54,-175.42 4091.6,-160.74 4247.92,-143.2"/>
<polygon fill="midnightblue" stroke="midnightblue" points="4248.65,-146.64 4258.19,-142.04 4247.86,-139.68 4248.65,-146.64"/>
</g>
<!-- Node3 -->
<g id="node3" class="node">
<title>Node3</title>
<g id="a_node3"><a xlink:title=" ">
<polygon fill="none" stroke="#bfbfbf" points="2629,-62 2629,-81 2733,-81 2733,-62 2629,-62"/>
<text text-anchor="middle" x="2681" y="-69" font-family="FreeSans.ttf" font-size="10.00">yarp/os/Property.h</text>
</a>
</g>
</g>
<!-- Node2&#45;&gt;Node3 -->
<g id="edge2" class="edge">
<title>Node2&#45;&gt;Node3</title>
<path fill="none" stroke="midnightblue" d="M1948.97,-131.71C2074.15,-130.35 2372.13,-123.21 2619,-87 2625.46,-86.05 2632.24,-84.77 2638.85,-83.36"/>
<polygon fill="midnightblue" stroke="midnightblue" points="2640.03,-86.68 2649.02,-81.06 2638.49,-79.85 2640.03,-86.68"/>
</g>
<!-- Node4 -->
<g id="node4" class="node">
<title>Node4</title>
<g id="a_node4"><a xlink:title=" ">
<polygon fill="none" stroke="#bfbfbf" points="2751,-62 2751,-81 2843,-81 2843,-62 2751,-62"/>
<text text-anchor="middle" x="2797" y="-69" font-family="FreeSans.ttf" font-size="10.00">yarp/os/Value.h</text>
</a>
</g>
</g>
<!-- Node2&#45;&gt;Node4 -->
<g id="edge3" class="edge">
<title>Node2&#45;&gt;Node4</title>
<path fill="none" stroke="midnightblue" d="M1948.61,-130.45C2116.11,-125.83 2588.71,-110.99 2742,-87 2747.55,-86.13 2753.35,-84.93 2759.01,-83.59"/>
<polygon fill="midnightblue" stroke="midnightblue" points="2760.14,-86.92 2768.97,-81.07 2758.42,-80.13 2760.14,-86.92"/>
</g>
<!-- Node5 -->
<g id="node5" class="node">
<title>Node5</title>
<g id="a_node5"><a xlink:title=" ">
<polygon fill="none" stroke="#bfbfbf" points="2861.5,-62 2861.5,-81 2968.5,-81 2968.5,-62 2861.5,-62"/>
<text text-anchor="middle" x="2915" y="-69" font-family="FreeSans.ttf" font-size="10.00">yarp/dev/Drivers.h</text>
</a>
</g>
</g>
<!-- Node2&#45;&gt;Node5 -->
<g id="edge4" class="edge">
<title>Node2&#45;&gt;Node5</title>
<path fill="none" stroke="midnightblue" d="M1948.67,-130.62C2130.52,-126.17 2676.13,-111.15 2852,-87 2858.8,-86.07 2865.94,-84.75 2872.88,-83.29"/>
<polygon fill="midnightblue" stroke="midnightblue" points="2873.83,-86.67 2882.83,-81.07 2872.31,-79.83 2873.83,-86.67"/>
</g>
<!-- Node6 -->
<g id="node6" class="node">
<title>Node6</title>
<g id="a_node6"><a xlink:title=" ">
<polygon fill="none" stroke="#bfbfbf" points="2987,-62 2987,-81 3109,-81 3109,-62 2987,-62"/>
<text text-anchor="middle" x="3048" y="-69" font-family="FreeSans.ttf" font-size="10.00">yarp/dev/PolyDriver.h</text>
</a>
</g>
</g>
<!-- Node2&#45;&gt;Node6 -->
<g id="edge5" class="edge">
<title>Node2&#45;&gt;Node6</title>
<path fill="none" stroke="midnightblue" d="M1948.6,-130.79C2145.71,-126.61 2775.38,-111.6 2977,-87 2985.17,-86 2993.8,-84.57 3002.12,-82.99"/>
<polygon fill="midnightblue" stroke="midnightblue" points="3002.94,-86.39 3012.06,-81 3001.57,-79.53 3002.94,-86.39"/>
</g>
<!-- Node7 -->
<g id="node7" class="node">
<title>Node7</title>
<g id="a_node7"><a xlink:title=" ">
<polygon fill="none" stroke="#bfbfbf" points="3127.5,-62 3127.5,-81 3252.5,-81 3252.5,-62 3127.5,-62"/>
<text text-anchor="middle" x="3190" y="-69" font-family="FreeSans.ttf" font-size="10.00">yarp/dev/IPidControl.h</text>
</a>
</g>
</g>
<!-- Node2&#45;&gt;Node7 -->
<g id="edge6" class="edge">
<title>Node2&#45;&gt;Node7</title>
<path fill="none" stroke="midnightblue" d="M1948.75,-131.1C2162.34,-127.67 2887.54,-114.24 3118,-87 3126.28,-86.02 3135.03,-84.6 3143.47,-83.02"/>
<polygon fill="midnightblue" stroke="midnightblue" points="3144.42,-86.4 3153.56,-81.03 3143.07,-79.53 3144.42,-86.4"/>
</g>
<!-- Node8 -->
<g id="node8" class="node">
<title>Node8</title>
<g id="a_node8"><a xlink:title=" ">
<polygon fill="none" stroke="#bfbfbf" points="3271,-62 3271,-81 3405,-81 3405,-62 3271,-62"/>
<text text-anchor="middle" x="3338" y="-69" font-family="FreeSans.ttf" font-size="10.00">yarp/dev/IPWMControl.h</text>
</a>
</g>
</g>
<!-- Node2&#45;&gt;Node8 -->
<g id="edge7" class="edge">
<title>Node2&#45;&gt;Node8</title>
<path fill="none" stroke="midnightblue" d="M1948.86,-131.26C2178.2,-128.23 3001.01,-115.57 3261,-87 3270.14,-86 3279.81,-84.51 3289.11,-82.87"/>
<polygon fill="midnightblue" stroke="midnightblue" points="3289.8,-86.3 3299,-81.04 3288.53,-79.42 3289.8,-86.3"/>
</g>
<!-- Node9 -->
<g id="node9" class="node">
<title>Node9</title>
<g id="a_node9"><a xlink:title=" ">
<polygon fill="none" stroke="#bfbfbf" points="0,-62 0,-81 146,-81 146,-62 0,-62"/>
<text text-anchor="middle" x="73" y="-69" font-family="FreeSans.ttf" font-size="10.00">yarp/dev/ICurrentControl.h</text>
</a>
</g>
</g>
<!-- Node2&#45;&gt;Node9 -->
<g id="edge8" class="edge">
<title>Node2&#45;&gt;Node9</title>
<path fill="none" stroke="midnightblue" d="M1829.34,-131.65C1564.09,-129.89 490.2,-120.8 155,-87 144.97,-85.99 134.31,-84.45 124.12,-82.75"/>
<polygon fill="midnightblue" stroke="midnightblue" points="124.58,-79.28 114.13,-81.01 123.38,-86.17 124.58,-79.28"/>
</g>
<!-- Node10 -->
<g id="node10" class="node">
<title>Node10</title>
<g id="a_node10"><a xlink:title=" ">
<polygon fill="none" stroke="#bfbfbf" points="164.5,-56.5 164.5,-86.5 339.5,-86.5 339.5,-56.5 164.5,-56.5"/>
<text text-anchor="start" x="172.5" y="-74.5" font-family="FreeSans.ttf" font-size="10.00">yarp/dev/ControlBoardInterfaces</text>
<text text-anchor="middle" x="252" y="-63.5" font-family="FreeSans.ttf" font-size="10.00">Impl.h</text>
</a>
</g>
</g>
<!-- Node2&#45;&gt;Node10 -->
<g id="edge9" class="edge">
<title>Node2&#45;&gt;Node10</title>
<path fill="none" stroke="midnightblue" d="M1829.13,-131.21C1585.13,-127.82 664.31,-113.6 349.74,-86.96"/>
<polygon fill="midnightblue" stroke="midnightblue" points="349.98,-83.47 339.71,-86.09 349.37,-90.44 349.98,-83.47"/>
</g>
<!-- Node11 -->
<g id="node11" class="node">
<title>Node11</title>
<g id="a_node11"><a xlink:title=" ">
<polygon fill="none" stroke="#bfbfbf" points="358,-62 358,-81 542,-81 542,-62 358,-62"/>
<text text-anchor="middle" x="450" y="-69" font-family="FreeSans.ttf" font-size="10.00">yarp/dev/ControlBoardInterfaces.h</text>
</a>
</g>
</g>
<!-- Node2&#45;&gt;Node11 -->
<g id="edge10" class="edge">
<title>Node2&#45;&gt;Node11</title>
<path fill="none" stroke="midnightblue" d="M1829.18,-132.31C1640.82,-132.78 1043.27,-130.48 551,-87 538.26,-85.87 524.67,-84.23 511.73,-82.45"/>
<polygon fill="midnightblue" stroke="midnightblue" points="511.91,-78.94 501.51,-81 510.92,-85.87 511.91,-78.94"/>
</g>
<!-- Node12 -->
<g id="node12" class="node">
<title>Node12</title>
<g id="a_node12"><a xlink:title=" ">
<polygon fill="none" stroke="#bfbfbf" points="560.5,-62 560.5,-81 697.5,-81 697.5,-62 560.5,-62"/>
<text text-anchor="middle" x="629" y="-69" font-family="FreeSans.ttf" font-size="10.00">yarp/dev/IControlMode.h</text>
</a>
</g>
</g>
<!-- Node2&#45;&gt;Node12 -->
<g id="edge11" class="edge">
<title>Node2&#45;&gt;Node12</title>
<path fill="none" stroke="midnightblue" d="M1829.4,-130.88C1621.36,-126.8 928.06,-111.62 707,-87 697.75,-85.97 687.95,-84.47 678.54,-82.83"/>
<polygon fill="midnightblue" stroke="midnightblue" points="678.98,-79.35 668.51,-81 677.72,-86.24 678.98,-79.35"/>
</g>
<!-- Node13 -->
<g id="node13" class="node">
<title>Node13</title>
<g id="a_node13"><a xlink:title=" ">
<polygon fill="none" stroke="#bfbfbf" points="716,-62 716,-81 870,-81 870,-62 716,-62"/>
<text text-anchor="middle" x="793" y="-69" font-family="FreeSans.ttf" font-size="10.00">yarp/dev/IInteractionMode.h</text>
</a>
</g>
</g>
<!-- Node2&#45;&gt;Node13 -->
<g id="edge12" class="edge">
<title>Node2&#45;&gt;Node13</title>
<path fill="none" stroke="midnightblue" d="M1829.33,-131.89C1672.92,-131.04 1238.33,-125.15 879,-87 868.73,-85.91 857.83,-84.37 847.36,-82.7"/>
<polygon fill="midnightblue" stroke="midnightblue" points="847.93,-79.25 837.49,-81.07 846.79,-86.15 847.93,-79.25"/>
</g>
<!-- Node14 -->
<g id="node14" class="node">
<title>Node14</title>
<g id="a_node14"><a xlink:title=" ">
<polygon fill="none" stroke="#bfbfbf" points="888,-62 888,-81 1046,-81 1046,-62 888,-62"/>
<text text-anchor="middle" x="967" y="-69" font-family="FreeSans.ttf" font-size="10.00">yarp/dev/IRemoteVariables.h</text>
</a>
</g>
</g>
<!-- Node2&#45;&gt;Node14 -->
<g id="edge13" class="edge">
<title>Node2&#45;&gt;Node14</title>
<path fill="none" stroke="midnightblue" d="M1829.41,-131.02C1692.33,-128.28 1344.2,-118.53 1055,-87 1044.62,-85.87 1033.6,-84.33 1023,-82.67"/>
<polygon fill="midnightblue" stroke="midnightblue" points="1023.43,-79.19 1013,-81.05 1022.31,-86.1 1023.43,-79.19"/>
</g>
<!-- Node15 -->
<g id="node15" class="node">
<title>Node15</title>
<g id="a_node15"><a xlink:title=" ">
<polygon fill="none" stroke="#bfbfbf" points="1064.5,-62 1064.5,-81 1237.5,-81 1237.5,-62 1064.5,-62"/>
<text text-anchor="middle" x="1151" y="-69" font-family="FreeSans.ttf" font-size="10.00">yarp/dev/IVirtualAnalogSensor.h</text>
</a>
</g>
</g>
<!-- Node2&#45;&gt;Node15 -->
<g id="edge14" class="edge">
<title>Node2&#45;&gt;Node15</title>
<path fill="none" stroke="midnightblue" d="M1829.11,-129.4C1715.4,-124.12 1460.51,-110.57 1247,-87 1235.73,-85.76 1223.75,-84.16 1212.21,-82.49"/>
<polygon fill="midnightblue" stroke="midnightblue" points="1212.62,-79.02 1202.22,-81.01 1211.6,-85.94 1212.62,-79.02"/>
</g>
<!-- Node16 -->
<g id="node16" class="node">
<title>Node16</title>
<g id="a_node16"><a xlink:title=" ">
<polygon fill="none" stroke="#bfbfbf" points="1256,-62 1256,-81 1354,-81 1354,-62 1256,-62"/>
<text text-anchor="middle" x="1305" y="-69" font-family="FreeSans.ttf" font-size="10.00">yarp/sig/Vector.h</text>
</a>
</g>
</g>
<!-- Node2&#45;&gt;Node16 -->
<g id="edge15" class="edge">
<title>Node2&#45;&gt;Node16</title>
<path fill="none" stroke="midnightblue" d="M1829.45,-130C1731.55,-126.02 1530.7,-114.95 1363,-87 1357.16,-86.03 1351.05,-84.77 1345.07,-83.4"/>
<polygon fill="midnightblue" stroke="midnightblue" points="1345.75,-79.96 1335.21,-81.02 1344.11,-86.77 1345.75,-79.96"/>
</g>
<!-- Node17 -->
<g id="node17" class="node">
<title>Node17</title>
<g id="a_node17"><a xlink:title=" ">
<polygon fill="none" stroke="#bfbfbf" points="1372.5,-62 1372.5,-81 1461.5,-81 1461.5,-62 1372.5,-62"/>
<text text-anchor="middle" x="1417" y="-69" font-family="FreeSans.ttf" font-size="10.00">yarp/os/Time.h</text>
</a>
</g>
</g>
<!-- Node2&#45;&gt;Node17 -->
<g id="edge16" class="edge">
<title>Node2&#45;&gt;Node17</title>
<path fill="none" stroke="midnightblue" d="M1829.39,-128.5C1747.92,-123.06 1597.45,-110.64 1471,-87 1465.88,-86.04 1460.54,-84.85 1455.29,-83.56"/>
<polygon fill="midnightblue" stroke="midnightblue" points="1455.95,-80.12 1445.4,-81.01 1454.2,-86.9 1455.95,-80.12"/>
</g>
<!-- Node18 -->
<g id="node18" class="node">
<title>Node18</title>
<g id="a_node18"><a xlink:title=" ">
<polygon fill="none" stroke="#bfbfbf" points="1480,-62 1480,-81 1576,-81 1576,-62 1480,-62"/>
<text text-anchor="middle" x="1528" y="-69" font-family="FreeSans.ttf" font-size="10.00">yarp/os/Stamp.h</text>
</a>
</g>
</g>
<!-- Node2&#45;&gt;Node18 -->
<g id="edge17" class="edge">
<title>Node2&#45;&gt;Node18</title>
<path fill="none" stroke="midnightblue" d="M1829.27,-124.99C1767.75,-117.34 1669.22,-103.9 1585,-87 1579.88,-85.97 1574.52,-84.77 1569.23,-83.52"/>
<polygon fill="midnightblue" stroke="midnightblue" points="1569.77,-80.05 1559.23,-81.06 1568.1,-86.84 1569.77,-80.05"/>
</g>
<!-- Node19 -->
<g id="node19" class="node">
<title>Node19</title>
<g id="a_node19"><a xlink:title=" ">
<polygon fill="none" stroke="#bfbfbf" points="1594.5,-62 1594.5,-81 1713.5,-81 1713.5,-62 1594.5,-62"/>
<text text-anchor="middle" x="1654" y="-69" font-family="FreeSans.ttf" font-size="10.00">boost/shared_ptr.hpp</text>
</a>
</g>
</g>
<!-- Node2&#45;&gt;Node19 -->
<g id="edge18" class="edge">
<title>Node2&#45;&gt;Node19</title>
<path fill="none" stroke="midnightblue" d="M1855.33,-123.48C1813.8,-112.96 1743.11,-95.06 1697.5,-83.51"/>
<polygon fill="midnightblue" stroke="midnightblue" points="1698.16,-80.07 1687.61,-81.01 1696.44,-86.86 1698.16,-80.07"/>
</g>
<!-- Node20 -->
<g id="node20" class="node">
<title>Node20</title>
<g id="a_node20"><a xlink:href="ControlBoardDriverRange_8h.html" target="_top" xlink:title=" ">
<polygon fill="none" stroke="black" points="1667,-0.5 1667,-19.5 1817,-19.5 1817,-0.5 1667,-0.5"/>
<text text-anchor="middle" x="1742" y="-7.5" font-family="FreeSans.ttf" font-size="10.00">ControlBoardDriverRange.h</text>
</a>
</g>
</g>
<!-- Node2&#45;&gt;Node20 -->
<g id="edge19" class="edge">
<title>Node2&#45;&gt;Node20</title>
<path fill="none" stroke="midnightblue" d="M1858.71,-123.35C1837.66,-116.2 1809.92,-104.37 1790,-87 1771.49,-70.86 1757.6,-45.85 1749.65,-28.97"/>
<polygon fill="midnightblue" stroke="midnightblue" points="1752.76,-27.36 1745.47,-19.66 1746.37,-30.22 1752.76,-27.36"/>
</g>
<!-- Node21 -->
<g id="node21" class="node">
<title>Node21</title>
<g id="a_node21"><a xlink:href="ControlBoardDriverTrajectory_8h.html" target="_top" xlink:title=" ">
<polygon fill="none" stroke="black" points="1988,-62 1988,-81 2154,-81 2154,-62 1988,-62"/>
<text text-anchor="middle" x="2071" y="-69" font-family="FreeSans.ttf" font-size="10.00">ControlBoardDriverTrajectory.h</text>
</a>
</g>
</g>
<!-- Node2&#45;&gt;Node21 -->
<g id="edge20" class="edge">
<title>Node2&#45;&gt;Node21</title>
<path fill="none" stroke="midnightblue" d="M1915.08,-123.48C1946.57,-113.18 1999.7,-95.81 2035.06,-84.25"/>
<polygon fill="midnightblue" stroke="midnightblue" points="2036.55,-87.44 2044.97,-81.01 2034.38,-80.79 2036.55,-87.44"/>
</g>
<!-- Node24 -->
<g id="node24" class="node">
<title>Node24</title>
<g id="a_node24"><a xlink:href="ControlBoardDriverCoupling_8h.html" target="_top" xlink:title=" ">
<polygon fill="none" stroke="black" points="1808,-62 1808,-81 1970,-81 1970,-62 1808,-62"/>
<text text-anchor="middle" x="1889" y="-69" font-family="FreeSans.ttf" font-size="10.00">ControlBoardDriverCoupling.h</text>
</a>
</g>
</g>
<!-- Node2&#45;&gt;Node24 -->
<g id="edge23" class="edge">
<title>Node2&#45;&gt;Node24</title>
<path fill="none" stroke="midnightblue" d="M1889,-123.48C1889,-115.08 1889,-101.98 1889,-91.16"/>
<polygon fill="midnightblue" stroke="midnightblue" points="1892.5,-91.01 1889,-81.01 1885.5,-91.01 1892.5,-91.01"/>
</g>
<!-- Node25 -->
<g id="node25" class="node">
<title>Node25</title>
<g id="a_node25"><a xlink:title=" ">
<polygon fill="none" stroke="#bfbfbf" points="1834.5,-0.5 1834.5,-19.5 1927.5,-19.5 1927.5,-0.5 1834.5,-0.5"/>
<text text-anchor="middle" x="1881" y="-7.5" font-family="FreeSans.ttf" font-size="10.00">unordered_map</text>
</a>
</g>
</g>
<!-- Node2&#45;&gt;Node25 -->
<g id="edge31" class="edge">
<title>Node2&#45;&gt;Node25</title>
<path fill="none" stroke="midnightblue" d="M1851.9,-123.46C1832.56,-116.92 1810.57,-105.72 1799,-87 1791.76,-75.28 1791.98,-67.86 1799,-56 1807.97,-40.84 1824.07,-30.45 1839.63,-23.5"/>
<polygon fill="midnightblue" stroke="midnightblue" points="1841.25,-26.63 1849.19,-19.62 1838.61,-20.14 1841.25,-26.63"/>
</g>
<!-- Node26 -->
<g id="node26" class="node">
<title>Node26</title>
<g id="a_node26"><a xlink:title=" ">
<polygon fill="none" stroke="#bfbfbf" points="2172,-62 2172,-81 2304,-81 2304,-62 2172,-62"/>
<text text-anchor="middle" x="2238" y="-69" font-family="FreeSans.ttf" font-size="10.00">gazebo/common/PID.hh</text>
</a>
</g>
</g>
<!-- Node2&#45;&gt;Node26 -->
<g id="edge27" class="edge">
<title>Node2&#45;&gt;Node26</title>
<path fill="none" stroke="midnightblue" d="M1943.66,-123.49C1999.02,-114.76 2087.07,-100.57 2163,-87 2170.09,-85.73 2177.55,-84.35 2184.9,-82.96"/>
<polygon fill="midnightblue" stroke="midnightblue" points="2185.64,-86.38 2194.81,-81.07 2184.33,-79.5 2185.64,-86.38"/>
</g>
<!-- Node27 -->
<g id="node27" class="node">
<title>Node27</title>
<g id="a_node27"><a xlink:title=" ">
<polygon fill="none" stroke="#bfbfbf" points="2322,-62 2322,-81 2462,-81 2462,-62 2322,-62"/>
<text text-anchor="middle" x="2392" y="-69" font-family="FreeSans.ttf" font-size="10.00">gazebo/common/Time.hh</text>
</a>
</g>
</g>
<!-- Node2&#45;&gt;Node27 -->
<g id="edge28" class="edge">
<title>Node2&#45;&gt;Node27</title>
<path fill="none" stroke="midnightblue" d="M1948.51,-127.12C2030.71,-120.05 2183.51,-105.73 2313,-87 2321.33,-85.79 2330.13,-84.35 2338.71,-82.85"/>
<polygon fill="midnightblue" stroke="midnightblue" points="2339.41,-86.28 2348.63,-81.07 2338.17,-79.39 2339.41,-86.28"/>
</g>
<!-- Node28 -->
<g id="node28" class="node">
<title>Node28</title>
<g id="a_node28"><a xlink:title=" ">
<polygon fill="none" stroke="#bfbfbf" points="3423,-62 3423,-81 3467,-81 3467,-62 3423,-62"/>
<text text-anchor="middle" x="3445" y="-69" font-family="FreeSans.ttf" font-size="10.00">string</text>
</a>
</g>
</g>
<!-- Node2&#45;&gt;Node28 -->
<g id="edge29" class="edge">
<title>Node2&#45;&gt;Node28</title>
<path fill="none" stroke="midnightblue" d="M1948.65,-131.67C2212.71,-130.01 3269.86,-121.28 3414,-87 3416.21,-86.47 3418.45,-85.78 3420.66,-84.99"/>
<polygon fill="midnightblue" stroke="midnightblue" points="3422.16,-88.15 3430,-81.02 3419.42,-81.71 3422.16,-88.15"/>
</g>
<!-- Node29 -->
<g id="node29" class="node">
<title>Node29</title>
<g id="a_node29"><a xlink:title=" ">
<polygon fill="none" stroke="#bfbfbf" points="2480.5,-62 2480.5,-81 2545.5,-81 2545.5,-62 2480.5,-62"/>
<text text-anchor="middle" x="2513" y="-69" font-family="FreeSans.ttf" font-size="10.00">functional</text>
</a>
</g>
</g>
<!-- Node2&#45;&gt;Node29 -->
<g id="edge30" class="edge">
<title>Node2&#45;&gt;Node29</title>
<path fill="none" stroke="midnightblue" d="M1948.77,-132.37C2055.01,-131.93 2283.22,-126 2471,-87 2474.5,-86.27 2478.12,-85.33 2481.69,-84.28"/>
<polygon fill="midnightblue" stroke="midnightblue" points="2483.06,-87.51 2491.5,-81.1 2480.91,-80.85 2483.06,-87.51"/>
</g>
<!-- Node30 -->
<g id="node30" class="node">
<title>Node30</title>
<g id="a_node30"><a xlink:title=" ">
<polygon fill="none" stroke="#bfbfbf" points="2563.5,-62 2563.5,-81 2610.5,-81 2610.5,-62 2563.5,-62"/>
<text text-anchor="middle" x="2587" y="-69" font-family="FreeSans.ttf" font-size="10.00">vector</text>
</a>
</g>
</g>
<!-- Node2&#45;&gt;Node30 -->
<g id="edge32" class="edge">
<title>Node2&#45;&gt;Node30</title>
<path fill="none" stroke="midnightblue" d="M1948.56,-130.6C2089.48,-126.86 2440.08,-114.97 2554,-87 2556.36,-86.42 2558.76,-85.68 2561.14,-84.85"/>
<polygon fill="midnightblue" stroke="midnightblue" points="2562.64,-88.02 2570.61,-81.04 2560.02,-81.53 2562.64,-88.02"/>
</g>
<!-- Node22 -->
<g id="node22" class="node">
<title>Node22</title>
<g id="a_node22"><a xlink:title=" ">
<polygon fill="none" stroke="#bfbfbf" points="1946,-0.5 1946,-19.5 2086,-19.5 2086,-0.5 1946,-0.5"/>
<text text-anchor="middle" x="2016" y="-7.5" font-family="FreeSans.ttf" font-size="10.00">gazebo/physics/Model.hh</text>
</a>
</g>
</g>
<!-- Node21&#45;&gt;Node22 -->
<g id="edge21" class="edge">
<title>Node21&#45;&gt;Node22</title>
<path fill="none" stroke="midnightblue" d="M2063.12,-61.98C2054.71,-52.87 2041.18,-38.24 2030.77,-26.98"/>
<polygon fill="midnightblue" stroke="midnightblue" points="2033.22,-24.48 2023.87,-19.51 2028.08,-29.23 2033.22,-24.48"/>
</g>
<!-- Node23 -->
<g id="node23" class="node">
<title>Node23</title>
<g id="a_node23"><a xlink:title=" ">
<polygon fill="none" stroke="#bfbfbf" points="2104,-0.5 2104,-19.5 2152,-19.5 2152,-0.5 2104,-0.5"/>
<text text-anchor="middle" x="2128" y="-7.5" font-family="FreeSans.ttf" font-size="10.00">mutex</text>
</a>
</g>
</g>
<!-- Node21&#45;&gt;Node23 -->
<g id="edge22" class="edge">
<title>Node21&#45;&gt;Node23</title>
<path fill="none" stroke="midnightblue" d="M2079.17,-61.98C2087.89,-52.87 2101.9,-38.24 2112.69,-26.98"/>
<polygon fill="midnightblue" stroke="midnightblue" points="2115.46,-29.15 2119.85,-19.51 2110.4,-24.31 2115.46,-29.15"/>
</g>
<!-- Node24&#45;&gt;Node20 -->
<g id="edge24" class="edge">
<title>Node24&#45;&gt;Node20</title>
<path fill="none" stroke="midnightblue" d="M1867.94,-61.98C1842.94,-51.86 1801.06,-34.9 1772.51,-23.35"/>
<polygon fill="midnightblue" stroke="midnightblue" points="1773.61,-20.02 1763.02,-19.51 1770.98,-26.51 1773.61,-20.02"/>
</g>
<!-- Node24&#45;&gt;Node22 -->
<g id="edge25" class="edge">
<title>Node24&#45;&gt;Node22</title>
<path fill="none" stroke="midnightblue" d="M1907.2,-61.98C1928.51,-51.99 1964.03,-35.35 1988.66,-23.81"/>
<polygon fill="midnightblue" stroke="midnightblue" points="1990.27,-26.92 1997.84,-19.51 1987.3,-20.58 1990.27,-26.92"/>
</g>
<!-- Node24&#45;&gt;Node25 -->
<g id="edge26" class="edge">
<title>Node24&#45;&gt;Node25</title>
<path fill="none" stroke="midnightblue" d="M1887.85,-61.98C1886.73,-53.58 1884.96,-40.48 1883.51,-29.66"/>
<polygon fill="midnightblue" stroke="midnightblue" points="1886.95,-28.95 1882.14,-19.51 1880.01,-29.89 1886.95,-28.95"/>
</g>
<!-- Node31&#45;&gt;Node28 -->
<g id="edge34" class="edge">
<title>Node31&#45;&gt;Node28</title>
<path fill="none" stroke="midnightblue" d="M3445,-123.48C3445,-115.08 3445,-101.98 3445,-91.16"/>
<polygon fill="midnightblue" stroke="midnightblue" points="3448.5,-91.01 3445,-81.01 3441.5,-91.01 3448.5,-91.01"/>
</g>
<!-- Node32 -->
<g id="node32" class="node">
<title>Node32</title>
<g id="a_node32"><a xlink:title=" ">
<polygon fill="none" stroke="#bfbfbf" points="3485.5,-62 3485.5,-81 3532.5,-81 3532.5,-62 3485.5,-62"/>
<text text-anchor="middle" x="3509" y="-69" font-family="FreeSans.ttf" font-size="10.00">cmath</text>
</a>
</g>
</g>
<!-- Node31&#45;&gt;Node32 -->
<g id="edge35" class="edge">
<title>Node31&#45;&gt;Node32</title>
<path fill="none" stroke="midnightblue" d="M3454.17,-123.48C3464.15,-114.2 3480.31,-99.17 3492.51,-87.83"/>
<polygon fill="midnightblue" stroke="midnightblue" points="3494.91,-90.38 3499.85,-81.01 3490.14,-85.25 3494.91,-90.38"/>
</g>
</g>
</svg>
