<?xml version="1.0" encoding="UTF-8" standalone="no"?>
<!DOCTYPE svg PUBLIC "-//W3C//DTD SVG 1.1//EN"
 "http://www.w3.org/Graphics/SVG/1.1/DTD/svg11.dtd">
<!-- Generated by graphviz version 2.43.0 (0)
 -->
<!-- Title: ControlBoardDriverControlMode.cpp Pages: 1 -->
<svg width="4090pt" height="218pt"
 viewBox="0.00 0.00 4089.50 218.00" xmlns="http://www.w3.org/2000/svg" xmlns:xlink="http://www.w3.org/1999/xlink">
<g id="graph0" class="graph" transform="scale(1 1) rotate(0) translate(4 214)">
<title>ControlBoardDriverControlMode.cpp</title>
<!-- Node1 -->
<g id="node1" class="node">
<title>Node1</title>
<g id="a_node1"><a xlink:title=" ">
<polygon fill="#bfbfbf" stroke="black" points="3598,-179.5 3598,-209.5 3744,-209.5 3744,-179.5 3598,-179.5"/>
<text text-anchor="start" x="3606" y="-197.5" font-family="FreeSans.ttf" font-size="10.00">ControlBoardDriverControl</text>
<text text-anchor="middle" x="3671" y="-186.5" font-family="FreeSans.ttf" font-size="10.00">Mode.cpp</text>
</a>
</g>
</g>
<!-- Node2 -->
<g id="node2" class="node">
<title>Node2</title>
<g id="a_node2"><a xlink:href="ControlBoardDriver_8h.html" target="_top" xlink:title=" ">
<polygon fill="none" stroke="black" points="2030.5,-123.5 2030.5,-142.5 2149.5,-142.5 2149.5,-123.5 2030.5,-123.5"/>
<text text-anchor="middle" x="2090" y="-130.5" font-family="FreeSans.ttf" font-size="10.00">ControlBoardDriver.h</text>
</a>
</g>
</g>
<!-- Node1&#45;&gt;Node2 -->
<g id="edge1" class="edge">
<title>Node1&#45;&gt;Node2</title>
<path fill="none" stroke="midnightblue" d="M3597.92,-190.75C3332.28,-180.75 2419.97,-146.42 2159.78,-136.63"/>
<polygon fill="midnightblue" stroke="midnightblue" points="2159.83,-133.13 2149.7,-136.25 2159.56,-140.12 2159.83,-133.13"/>
</g>
<!-- Node22 -->
<g id="node22" class="node">
<title>Node22</title>
<g id="a_node22"><a xlink:title=" ">
<polygon fill="none" stroke="#bfbfbf" points="3369,-0.5 3369,-19.5 3509,-19.5 3509,-0.5 3369,-0.5"/>
<text text-anchor="middle" x="3439" y="-7.5" font-family="FreeSans.ttf" font-size="10.00">gazebo/physics/Model.hh</text>
</a>
</g>
</g>
<!-- Node1&#45;&gt;Node22 -->
<g id="edge33" class="edge">
<title>Node1&#45;&gt;Node22</title>
<path fill="none" stroke="midnightblue" d="M3597.81,-182.97C3569.23,-175.73 3537.88,-163.53 3515,-143 3483.46,-114.7 3498.32,-92.02 3476,-56 3469.75,-45.92 3461.46,-35.63 3454.32,-27.44"/>
<polygon fill="midnightblue" stroke="midnightblue" points="3456.7,-24.86 3447.41,-19.76 3451.5,-29.54 3456.7,-24.86"/>
</g>
<!-- Node31 -->
<g id="node31" class="node">
<title>Node31</title>
<g id="a_node31"><a xlink:title=" ">
<polygon fill="none" stroke="#bfbfbf" points="3523.5,-123.5 3523.5,-142.5 3654.5,-142.5 3654.5,-123.5 3523.5,-123.5"/>
<text text-anchor="middle" x="3589" y="-130.5" font-family="FreeSans.ttf" font-size="10.00">gazebo/physics/Joint.hh</text>
</a>
</g>
</g>
<!-- Node1&#45;&gt;Node31 -->
<g id="edge34" class="edge">
<title>Node1&#45;&gt;Node31</title>
<path fill="none" stroke="midnightblue" d="M3651.57,-179.4C3638.79,-170.13 3622.11,-158.03 3609.19,-148.65"/>
<polygon fill="midnightblue" stroke="midnightblue" points="3611.08,-145.7 3600.93,-142.66 3606.97,-151.36 3611.08,-145.7"/>
</g>
<!-- Node32 -->
<g id="node32" class="node">
<title>Node32</title>
<g id="a_node32"><a xlink:title=" ">
<polygon fill="none" stroke="#bfbfbf" points="3672.5,-123.5 3672.5,-142.5 3833.5,-142.5 3833.5,-123.5 3672.5,-123.5"/>
<text text-anchor="middle" x="3753" y="-130.5" font-family="FreeSans.ttf" font-size="10.00">gazebo/transport/Publisher.hh</text>
</a>
</g>
</g>
<!-- Node1&#45;&gt;Node32 -->
<g id="edge35" class="edge">
<title>Node1&#45;&gt;Node32</title>
<path fill="none" stroke="midnightblue" d="M3690.43,-179.4C3703.21,-170.13 3719.89,-158.03 3732.81,-148.65"/>
<polygon fill="midnightblue" stroke="midnightblue" points="3735.03,-151.36 3741.07,-142.66 3730.92,-145.7 3735.03,-151.36"/>
</g>
<!-- Node33 -->
<g id="node33" class="node">
<title>Node33</title>
<g id="a_node33"><a xlink:title=" ">
<polygon fill="none" stroke="#bfbfbf" points="3852,-123.5 3852,-142.5 3946,-142.5 3946,-123.5 3852,-123.5"/>
<text text-anchor="middle" x="3899" y="-130.5" font-family="FreeSans.ttf" font-size="10.00">yarp/os/Vocab.h</text>
</a>
</g>
</g>
<!-- Node1&#45;&gt;Node33 -->
<g id="edge36" class="edge">
<title>Node1&#45;&gt;Node33</title>
<path fill="none" stroke="midnightblue" d="M3724.74,-179.47C3764.94,-168.99 3819.15,-154.84 3856.38,-145.12"/>
<polygon fill="midnightblue" stroke="midnightblue" points="3857.61,-148.42 3866.4,-142.51 3855.84,-141.64 3857.61,-148.42"/>
</g>
<!-- Node34 -->
<g id="node34" class="node">
<title>Node34</title>
<g id="a_node34"><a xlink:title=" ">
<polygon fill="none" stroke="#bfbfbf" points="3964.5,-123.5 3964.5,-142.5 4081.5,-142.5 4081.5,-123.5 3964.5,-123.5"/>
<text text-anchor="middle" x="4023" y="-130.5" font-family="FreeSans.ttf" font-size="10.00">yarp/os/LogStream.h</text>
</a>
</g>
</g>
<!-- Node1&#45;&gt;Node34 -->
<g id="edge37" class="edge">
<title>Node1&#45;&gt;Node34</title>
<path fill="none" stroke="midnightblue" d="M3744.36,-181.1C3808.93,-170.18 3901.83,-154.48 3962.3,-144.26"/>
<polygon fill="midnightblue" stroke="midnightblue" points="3963.18,-147.66 3972.46,-142.54 3962.01,-140.76 3963.18,-147.66"/>
</g>
<!-- Node3 -->
<g id="node3" class="node">
<title>Node3</title>
<g id="a_node3"><a xlink:title=" ">
<polygon fill="none" stroke="#bfbfbf" points="2244,-62 2244,-81 2348,-81 2348,-62 2244,-62"/>
<text text-anchor="middle" x="2296" y="-69" font-family="FreeSans.ttf" font-size="10.00">yarp/os/Property.h</text>
</a>
</g>
</g>
<!-- Node2&#45;&gt;Node3 -->
<g id="edge2" class="edge">
<title>Node2&#45;&gt;Node3</title>
<path fill="none" stroke="midnightblue" d="M2119.51,-123.48C2155.62,-113.05 2216.85,-95.36 2256.85,-83.81"/>
<polygon fill="midnightblue" stroke="midnightblue" points="2257.9,-87.15 2266.54,-81.01 2255.96,-80.42 2257.9,-87.15"/>
</g>
<!-- Node4 -->
<g id="node4" class="node">
<title>Node4</title>
<g id="a_node4"><a xlink:title=" ">
<polygon fill="none" stroke="#bfbfbf" points="3065,-62 3065,-81 3157,-81 3157,-62 3065,-62"/>
<text text-anchor="middle" x="3111" y="-69" font-family="FreeSans.ttf" font-size="10.00">yarp/os/Value.h</text>
</a>
</g>
</g>
<!-- Node2&#45;&gt;Node4 -->
<g id="edge3" class="edge">
<title>Node2&#45;&gt;Node4</title>
<path fill="none" stroke="midnightblue" d="M2149.57,-130.87C2331.77,-127.16 2879.89,-114.01 3056,-87 3061.61,-86.14 3067.48,-84.93 3073.2,-83.58"/>
<polygon fill="midnightblue" stroke="midnightblue" points="3074.43,-86.88 3083.26,-81.03 3072.71,-80.1 3074.43,-86.88"/>
</g>
<!-- Node5 -->
<g id="node5" class="node">
<title>Node5</title>
<g id="a_node5"><a xlink:title=" ">
<polygon fill="none" stroke="#bfbfbf" points="3175.5,-62 3175.5,-81 3282.5,-81 3282.5,-62 3175.5,-62"/>
<text text-anchor="middle" x="3229" y="-69" font-family="FreeSans.ttf" font-size="10.00">yarp/dev/Drivers.h</text>
</a>
</g>
</g>
<!-- Node2&#45;&gt;Node5 -->
<g id="edge4" class="edge">
<title>Node2&#45;&gt;Node5</title>
<path fill="none" stroke="midnightblue" d="M2149.65,-130.95C2345.43,-127.29 2967.16,-113.81 3166,-87 3172.88,-86.07 3180.1,-84.75 3187.11,-83.27"/>
<polygon fill="midnightblue" stroke="midnightblue" points="3188.16,-86.62 3197.16,-81.03 3186.64,-79.79 3188.16,-86.62"/>
</g>
<!-- Node6 -->
<g id="node6" class="node">
<title>Node6</title>
<g id="a_node6"><a xlink:title=" ">
<polygon fill="none" stroke="#bfbfbf" points="0,-62 0,-81 122,-81 122,-62 0,-62"/>
<text text-anchor="middle" x="61" y="-69" font-family="FreeSans.ttf" font-size="10.00">yarp/dev/PolyDriver.h</text>
</a>
</g>
</g>
<!-- Node2&#45;&gt;Node6 -->
<g id="edge5" class="edge">
<title>Node2&#45;&gt;Node6</title>
<path fill="none" stroke="midnightblue" d="M2030.39,-132.09C1744.55,-132.28 512.52,-130.53 131,-87 122.85,-86.07 114.24,-84.65 105.95,-83.06"/>
<polygon fill="midnightblue" stroke="midnightblue" points="106.55,-79.61 96.05,-81.06 105.16,-86.47 106.55,-79.61"/>
</g>
<!-- Node7 -->
<g id="node7" class="node">
<title>Node7</title>
<g id="a_node7"><a xlink:title=" ">
<polygon fill="none" stroke="#bfbfbf" points="140.5,-62 140.5,-81 265.5,-81 265.5,-62 140.5,-62"/>
<text text-anchor="middle" x="203" y="-69" font-family="FreeSans.ttf" font-size="10.00">yarp/dev/IPidControl.h</text>
</a>
</g>
</g>
<!-- Node2&#45;&gt;Node7 -->
<g id="edge6" class="edge">
<title>Node2&#45;&gt;Node7</title>
<path fill="none" stroke="midnightblue" d="M2030.29,-131.92C1757.35,-131.32 626.61,-126.46 275,-87 266.53,-86.05 257.57,-84.61 248.96,-82.99"/>
<polygon fill="midnightblue" stroke="midnightblue" points="249.55,-79.54 239.07,-81.04 248.2,-86.41 249.55,-79.54"/>
</g>
<!-- Node8 -->
<g id="node8" class="node">
<title>Node8</title>
<g id="a_node8"><a xlink:title=" ">
<polygon fill="none" stroke="#bfbfbf" points="284,-62 284,-81 418,-81 418,-62 284,-62"/>
<text text-anchor="middle" x="351" y="-69" font-family="FreeSans.ttf" font-size="10.00">yarp/dev/IPWMControl.h</text>
</a>
</g>
</g>
<!-- Node2&#45;&gt;Node8 -->
<g id="edge7" class="edge">
<title>Node2&#45;&gt;Node8</title>
<path fill="none" stroke="midnightblue" d="M2030.18,-131.68C1771.43,-130.08 747.17,-121.64 427,-87 417.88,-86.01 408.22,-84.52 398.95,-82.86"/>
<polygon fill="midnightblue" stroke="midnightblue" points="399.57,-79.42 389.09,-81.02 398.28,-86.3 399.57,-79.42"/>
</g>
<!-- Node9 -->
<g id="node9" class="node">
<title>Node9</title>
<g id="a_node9"><a xlink:title=" ">
<polygon fill="none" stroke="#bfbfbf" points="436,-62 436,-81 582,-81 582,-62 436,-62"/>
<text text-anchor="middle" x="509" y="-69" font-family="FreeSans.ttf" font-size="10.00">yarp/dev/ICurrentControl.h</text>
</a>
</g>
</g>
<!-- Node2&#45;&gt;Node9 -->
<g id="edge8" class="edge">
<title>Node2&#45;&gt;Node9</title>
<path fill="none" stroke="midnightblue" d="M2030.47,-131.37C1788.45,-128.61 877.51,-116.48 591,-87 581.08,-85.98 570.55,-84.46 560.46,-82.77"/>
<polygon fill="midnightblue" stroke="midnightblue" points="561,-79.32 550.55,-81.05 559.8,-86.21 561,-79.32"/>
</g>
<!-- Node10 -->
<g id="node10" class="node">
<title>Node10</title>
<g id="a_node10"><a xlink:title=" ">
<polygon fill="none" stroke="#bfbfbf" points="600.5,-56.5 600.5,-86.5 775.5,-86.5 775.5,-56.5 600.5,-56.5"/>
<text text-anchor="start" x="608.5" y="-74.5" font-family="FreeSans.ttf" font-size="10.00">yarp/dev/ControlBoardInterfaces</text>
<text text-anchor="middle" x="688" y="-63.5" font-family="FreeSans.ttf" font-size="10.00">Impl.h</text>
</a>
</g>
</g>
<!-- Node2&#45;&gt;Node10 -->
<g id="edge9" class="edge">
<title>Node2&#45;&gt;Node10</title>
<path fill="none" stroke="midnightblue" d="M2030.34,-132.36C1846.42,-132.94 1271.8,-130.93 785.74,-86.98"/>
<polygon fill="midnightblue" stroke="midnightblue" points="785.99,-83.49 775.71,-86.07 785.36,-90.46 785.99,-83.49"/>
</g>
<!-- Node11 -->
<g id="node11" class="node">
<title>Node11</title>
<g id="a_node11"><a xlink:title=" ">
<polygon fill="none" stroke="#bfbfbf" points="794,-62 794,-81 978,-81 978,-62 794,-62"/>
<text text-anchor="middle" x="886" y="-69" font-family="FreeSans.ttf" font-size="10.00">yarp/dev/ControlBoardInterfaces.h</text>
</a>
</g>
</g>
<!-- Node2&#45;&gt;Node11 -->
<g id="edge10" class="edge">
<title>Node2&#45;&gt;Node11</title>
<path fill="none" stroke="midnightblue" d="M2030.38,-131.7C1864.59,-130.4 1384.2,-123.52 987,-87 974.4,-85.84 960.98,-84.2 948.16,-82.44"/>
<polygon fill="midnightblue" stroke="midnightblue" points="948.43,-78.94 938.04,-81 947.45,-85.87 948.43,-78.94"/>
</g>
<!-- Node12 -->
<g id="node12" class="node">
<title>Node12</title>
<g id="a_node12"><a xlink:title=" ">
<polygon fill="none" stroke="#bfbfbf" points="996.5,-62 996.5,-81 1133.5,-81 1133.5,-62 996.5,-62"/>
<text text-anchor="middle" x="1065" y="-69" font-family="FreeSans.ttf" font-size="10.00">yarp/dev/IControlMode.h</text>
</a>
</g>
</g>
<!-- Node2&#45;&gt;Node12 -->
<g id="edge11" class="edge">
<title>Node2&#45;&gt;Node12</title>
<path fill="none" stroke="midnightblue" d="M2030.49,-131.98C1880.84,-131.33 1476.94,-125.79 1143,-87 1133.86,-85.94 1124.17,-84.44 1114.85,-82.81"/>
<polygon fill="midnightblue" stroke="midnightblue" points="1115.39,-79.35 1104.92,-81 1114.13,-86.24 1115.39,-79.35"/>
</g>
<!-- Node13 -->
<g id="node13" class="node">
<title>Node13</title>
<g id="a_node13"><a xlink:title=" ">
<polygon fill="none" stroke="#bfbfbf" points="1152,-62 1152,-81 1306,-81 1306,-62 1152,-62"/>
<text text-anchor="middle" x="1229" y="-69" font-family="FreeSans.ttf" font-size="10.00">yarp/dev/IInteractionMode.h</text>
</a>
</g>
</g>
<!-- Node2&#45;&gt;Node13 -->
<g id="edge12" class="edge">
<title>Node2&#45;&gt;Node13</title>
<path fill="none" stroke="midnightblue" d="M2030.01,-130.74C1899.57,-127.52 1580.5,-117 1315,-87 1304.96,-85.87 1294.3,-84.34 1284.04,-82.7"/>
<polygon fill="midnightblue" stroke="midnightblue" points="1284.39,-79.21 1273.95,-81.03 1283.25,-86.11 1284.39,-79.21"/>
</g>
<!-- Node14 -->
<g id="node14" class="node">
<title>Node14</title>
<g id="a_node14"><a xlink:title=" ">
<polygon fill="none" stroke="#bfbfbf" points="1324,-62 1324,-81 1482,-81 1482,-62 1324,-62"/>
<text text-anchor="middle" x="1403" y="-69" font-family="FreeSans.ttf" font-size="10.00">yarp/dev/IRemoteVariables.h</text>
</a>
</g>
</g>
<!-- Node2&#45;&gt;Node14 -->
<g id="edge13" class="edge">
<title>Node2&#45;&gt;Node14</title>
<path fill="none" stroke="midnightblue" d="M2030.32,-129.27C1922.4,-123.93 1687.74,-110.55 1491,-87 1480.97,-85.8 1470.33,-84.27 1460.05,-82.65"/>
<polygon fill="midnightblue" stroke="midnightblue" points="1460.36,-79.16 1449.93,-81.02 1459.25,-86.07 1460.36,-79.16"/>
</g>
<!-- Node15 -->
<g id="node15" class="node">
<title>Node15</title>
<g id="a_node15"><a xlink:title=" ">
<polygon fill="none" stroke="#bfbfbf" points="1500.5,-62 1500.5,-81 1673.5,-81 1673.5,-62 1500.5,-62"/>
<text text-anchor="middle" x="1587" y="-69" font-family="FreeSans.ttf" font-size="10.00">yarp/dev/IVirtualAnalogSensor.h</text>
</a>
</g>
</g>
<!-- Node2&#45;&gt;Node15 -->
<g id="edge14" class="edge">
<title>Node2&#45;&gt;Node15</title>
<path fill="none" stroke="midnightblue" d="M2030.26,-126.15C1950.84,-118.19 1806.18,-103.11 1683,-87 1672.61,-85.64 1661.61,-84.09 1650.91,-82.52"/>
<polygon fill="midnightblue" stroke="midnightblue" points="1651.17,-79.02 1640.77,-81.01 1650.14,-85.94 1651.17,-79.02"/>
</g>
<!-- Node16 -->
<g id="node16" class="node">
<title>Node16</title>
<g id="a_node16"><a xlink:title=" ">
<polygon fill="none" stroke="#bfbfbf" points="1692,-62 1692,-81 1790,-81 1790,-62 1692,-62"/>
<text text-anchor="middle" x="1741" y="-69" font-family="FreeSans.ttf" font-size="10.00">yarp/sig/Vector.h</text>
</a>
</g>
</g>
<!-- Node2&#45;&gt;Node16 -->
<g id="edge15" class="edge">
<title>Node2&#45;&gt;Node16</title>
<path fill="none" stroke="midnightblue" d="M2030.36,-124.4C1971.34,-116.51 1878.55,-103.06 1799,-87 1793.66,-85.92 1788.07,-84.68 1782.56,-83.38"/>
<polygon fill="midnightblue" stroke="midnightblue" points="1783.33,-79.96 1772.79,-81 1781.68,-86.77 1783.33,-79.96"/>
</g>
<!-- Node17 -->
<g id="node17" class="node">
<title>Node17</title>
<g id="a_node17"><a xlink:title=" ">
<polygon fill="none" stroke="#bfbfbf" points="1808.5,-62 1808.5,-81 1897.5,-81 1897.5,-62 1808.5,-62"/>
<text text-anchor="middle" x="1853" y="-69" font-family="FreeSans.ttf" font-size="10.00">yarp/os/Time.h</text>
</a>
</g>
</g>
<!-- Node2&#45;&gt;Node17 -->
<g id="edge16" class="edge">
<title>Node2&#45;&gt;Node17</title>
<path fill="none" stroke="midnightblue" d="M2054.18,-123.43C2017.24,-114.54 1958.01,-100.12 1907,-87 1902.88,-85.94 1898.58,-84.82 1894.29,-83.68"/>
<polygon fill="midnightblue" stroke="midnightblue" points="1894.94,-80.24 1884.38,-81.05 1893.14,-87 1894.94,-80.24"/>
</g>
<!-- Node18 -->
<g id="node18" class="node">
<title>Node18</title>
<g id="a_node18"><a xlink:title=" ">
<polygon fill="none" stroke="#bfbfbf" points="1916,-62 1916,-81 2012,-81 2012,-62 1916,-62"/>
<text text-anchor="middle" x="1964" y="-69" font-family="FreeSans.ttf" font-size="10.00">yarp/os/Stamp.h</text>
</a>
</g>
</g>
<!-- Node2&#45;&gt;Node18 -->
<g id="edge17" class="edge">
<title>Node2&#45;&gt;Node18</title>
<path fill="none" stroke="midnightblue" d="M2071.95,-123.48C2050.8,-113.49 2015.56,-96.85 1991.12,-85.31"/>
<polygon fill="midnightblue" stroke="midnightblue" points="1992.56,-82.11 1982.02,-81.01 1989.57,-88.44 1992.56,-82.11"/>
</g>
<!-- Node19 -->
<g id="node19" class="node">
<title>Node19</title>
<g id="a_node19"><a xlink:title=" ">
<polygon fill="none" stroke="#bfbfbf" points="2030.5,-62 2030.5,-81 2149.5,-81 2149.5,-62 2030.5,-62"/>
<text text-anchor="middle" x="2090" y="-69" font-family="FreeSans.ttf" font-size="10.00">boost/shared_ptr.hpp</text>
</a>
</g>
</g>
<!-- Node2&#45;&gt;Node19 -->
<g id="edge18" class="edge">
<title>Node2&#45;&gt;Node19</title>
<path fill="none" stroke="midnightblue" d="M2090,-123.48C2090,-115.08 2090,-101.98 2090,-91.16"/>
<polygon fill="midnightblue" stroke="midnightblue" points="2093.5,-91.01 2090,-81.01 2086.5,-91.01 2093.5,-91.01"/>
</g>
<!-- Node20 -->
<g id="node20" class="node">
<title>Node20</title>
<g id="a_node20"><a xlink:href="ControlBoardDriverRange_8h.html" target="_top" xlink:title=" ">
<polygon fill="none" stroke="black" points="2136,-0.5 2136,-19.5 2286,-19.5 2286,-0.5 2136,-0.5"/>
<text text-anchor="middle" x="2211" y="-7.5" font-family="FreeSans.ttf" font-size="10.00">ControlBoardDriverRange.h</text>
</a>
</g>
</g>
<!-- Node2&#45;&gt;Node20 -->
<g id="edge19" class="edge">
<title>Node2&#45;&gt;Node20</title>
<path fill="none" stroke="midnightblue" d="M2106.64,-123.35C2121.24,-115.25 2142.5,-102.13 2158,-87 2175.92,-69.51 2191.65,-45.18 2201.22,-28.81"/>
<polygon fill="midnightblue" stroke="midnightblue" points="2204.46,-30.19 2206.35,-19.77 2198.37,-26.74 2204.46,-30.19"/>
</g>
<!-- Node21 -->
<g id="node21" class="node">
<title>Node21</title>
<g id="a_node21"><a xlink:href="ControlBoardDriverTrajectory_8h.html" target="_top" xlink:title=" ">
<polygon fill="none" stroke="black" points="3301,-62 3301,-81 3467,-81 3467,-62 3301,-62"/>
<text text-anchor="middle" x="3384" y="-69" font-family="FreeSans.ttf" font-size="10.00">ControlBoardDriverTrajectory.h</text>
</a>
</g>
</g>
<!-- Node2&#45;&gt;Node21 -->
<g id="edge20" class="edge">
<title>Node2&#45;&gt;Node21</title>
<path fill="none" stroke="midnightblue" d="M2149.58,-132.27C2325.04,-132.53 2855,-129.47 3292,-87 3303.33,-85.9 3315.38,-84.31 3326.9,-82.58"/>
<polygon fill="midnightblue" stroke="midnightblue" points="3327.52,-86.03 3336.86,-81.03 3326.44,-79.11 3327.52,-86.03"/>
</g>
<!-- Node24 -->
<g id="node24" class="node">
<title>Node24</title>
<g id="a_node24"><a xlink:href="ControlBoardDriverCoupling_8h.html" target="_top" xlink:title=" ">
<polygon fill="none" stroke="black" points="2366,-62 2366,-81 2528,-81 2528,-62 2366,-62"/>
<text text-anchor="middle" x="2447" y="-69" font-family="FreeSans.ttf" font-size="10.00">ControlBoardDriverCoupling.h</text>
</a>
</g>
</g>
<!-- Node2&#45;&gt;Node24 -->
<g id="edge23" class="edge">
<title>Node2&#45;&gt;Node24</title>
<path fill="none" stroke="midnightblue" d="M2141.15,-123.48C2205.83,-112.69 2317.07,-94.15 2386.08,-82.65"/>
<polygon fill="midnightblue" stroke="midnightblue" points="2386.66,-86.11 2395.95,-81.01 2385.51,-79.2 2386.66,-86.11"/>
</g>
<!-- Node25 -->
<g id="node25" class="node">
<title>Node25</title>
<g id="a_node25"><a xlink:title=" ">
<polygon fill="none" stroke="#bfbfbf" points="2335.5,-0.5 2335.5,-19.5 2428.5,-19.5 2428.5,-0.5 2335.5,-0.5"/>
<text text-anchor="middle" x="2382" y="-7.5" font-family="FreeSans.ttf" font-size="10.00">unordered_map</text>
</a>
</g>
</g>
<!-- Node2&#45;&gt;Node25 -->
<g id="edge31" class="edge">
<title>Node2&#45;&gt;Node25</title>
<path fill="none" stroke="midnightblue" d="M2109.61,-123.49C2129.04,-114.88 2159.52,-100.88 2185,-87 2207.96,-74.49 2211.19,-66.81 2235,-56 2267.18,-41.4 2305.39,-29.86 2334.79,-22.13"/>
<polygon fill="midnightblue" stroke="midnightblue" points="2335.98,-25.44 2344.79,-19.55 2334.24,-18.66 2335.98,-25.44"/>
</g>
<!-- Node26 -->
<g id="node26" class="node">
<title>Node26</title>
<g id="a_node26"><a xlink:title=" ">
<polygon fill="none" stroke="#bfbfbf" points="2546,-62 2546,-81 2678,-81 2678,-62 2546,-62"/>
<text text-anchor="middle" x="2612" y="-69" font-family="FreeSans.ttf" font-size="10.00">gazebo/common/PID.hh</text>
</a>
</g>
</g>
<!-- Node2&#45;&gt;Node26 -->
<g id="edge27" class="edge">
<title>Node2&#45;&gt;Node26</title>
<path fill="none" stroke="midnightblue" d="M2149.5,-127.74C2235.36,-121.19 2398.86,-107.26 2537,-87 2545.02,-85.82 2553.49,-84.38 2561.73,-82.87"/>
<polygon fill="midnightblue" stroke="midnightblue" points="2562.46,-86.29 2571.63,-81 2561.16,-79.42 2562.46,-86.29"/>
</g>
<!-- Node27 -->
<g id="node27" class="node">
<title>Node27</title>
<g id="a_node27"><a xlink:title=" ">
<polygon fill="none" stroke="#bfbfbf" points="2696,-62 2696,-81 2836,-81 2836,-62 2696,-62"/>
<text text-anchor="middle" x="2766" y="-69" font-family="FreeSans.ttf" font-size="10.00">gazebo/common/Time.hh</text>
</a>
</g>
</g>
<!-- Node2&#45;&gt;Node27 -->
<g id="edge28" class="edge">
<title>Node2&#45;&gt;Node27</title>
<path fill="none" stroke="midnightblue" d="M2149.53,-129.61C2257.16,-124.82 2491.14,-112.28 2687,-87 2695.84,-85.86 2705.2,-84.38 2714.25,-82.81"/>
<polygon fill="midnightblue" stroke="midnightblue" points="2715.09,-86.22 2724.31,-81.01 2713.85,-79.33 2715.09,-86.22"/>
</g>
<!-- Node28 -->
<g id="node28" class="node">
<title>Node28</title>
<g id="a_node28"><a xlink:title=" ">
<polygon fill="none" stroke="#bfbfbf" points="2854,-62 2854,-81 2898,-81 2898,-62 2854,-62"/>
<text text-anchor="middle" x="2876" y="-69" font-family="FreeSans.ttf" font-size="10.00">string</text>
</a>
</g>
</g>
<!-- Node2&#45;&gt;Node28 -->
<g id="edge29" class="edge">
<title>Node2&#45;&gt;Node28</title>
<path fill="none" stroke="midnightblue" d="M2149.59,-131.34C2303.92,-129.15 2713.75,-120.31 2845,-87 2846.99,-86.5 2849,-85.86 2851,-85.15"/>
<polygon fill="midnightblue" stroke="midnightblue" points="2852.8,-88.19 2860.66,-81.07 2850.08,-81.74 2852.8,-88.19"/>
</g>
<!-- Node29 -->
<g id="node29" class="node">
<title>Node29</title>
<g id="a_node29"><a xlink:title=" ">
<polygon fill="none" stroke="#bfbfbf" points="2916.5,-62 2916.5,-81 2981.5,-81 2981.5,-62 2916.5,-62"/>
<text text-anchor="middle" x="2949" y="-69" font-family="FreeSans.ttf" font-size="10.00">functional</text>
</a>
</g>
</g>
<!-- Node2&#45;&gt;Node29 -->
<g id="edge30" class="edge">
<title>Node2&#45;&gt;Node29</title>
<path fill="none" stroke="midnightblue" d="M2149.52,-130.86C2312.21,-127.4 2761.85,-115.48 2907,-87 2910.7,-86.27 2914.52,-85.3 2918.27,-84.19"/>
<polygon fill="midnightblue" stroke="midnightblue" points="2919.52,-87.47 2927.95,-81.05 2917.36,-80.81 2919.52,-87.47"/>
</g>
<!-- Node30 -->
<g id="node30" class="node">
<title>Node30</title>
<g id="a_node30"><a xlink:title=" ">
<polygon fill="none" stroke="#bfbfbf" points="2999.5,-62 2999.5,-81 3046.5,-81 3046.5,-62 2999.5,-62"/>
<text text-anchor="middle" x="3023" y="-69" font-family="FreeSans.ttf" font-size="10.00">vector</text>
</a>
</g>
</g>
<!-- Node2&#45;&gt;Node30 -->
<g id="edge32" class="edge">
<title>Node2&#45;&gt;Node30</title>
<path fill="none" stroke="midnightblue" d="M2149.78,-131.92C2324.27,-131.23 2830.7,-125.83 2991,-87 2993.22,-86.46 2995.47,-85.77 2997.69,-84.99"/>
<polygon fill="midnightblue" stroke="midnightblue" points="2999.23,-88.14 3007.14,-81.1 2996.56,-81.67 2999.23,-88.14"/>
</g>
<!-- Node21&#45;&gt;Node22 -->
<g id="edge21" class="edge">
<title>Node21&#45;&gt;Node22</title>
<path fill="none" stroke="midnightblue" d="M3391.88,-61.98C3400.29,-52.87 3413.82,-38.24 3424.23,-26.98"/>
<polygon fill="midnightblue" stroke="midnightblue" points="3426.92,-29.23 3431.13,-19.51 3421.78,-24.48 3426.92,-29.23"/>
</g>
<!-- Node23 -->
<g id="node23" class="node">
<title>Node23</title>
<g id="a_node23"><a xlink:title=" ">
<polygon fill="none" stroke="#bfbfbf" points="3303,-0.5 3303,-19.5 3351,-19.5 3351,-0.5 3303,-0.5"/>
<text text-anchor="middle" x="3327" y="-7.5" font-family="FreeSans.ttf" font-size="10.00">mutex</text>
</a>
</g>
</g>
<!-- Node21&#45;&gt;Node23 -->
<g id="edge22" class="edge">
<title>Node21&#45;&gt;Node23</title>
<path fill="none" stroke="midnightblue" d="M3375.83,-61.98C3367.11,-52.87 3353.1,-38.24 3342.31,-26.98"/>
<polygon fill="midnightblue" stroke="midnightblue" points="3344.6,-24.31 3335.15,-19.51 3339.54,-29.15 3344.6,-24.31"/>
</g>
<!-- Node24&#45;&gt;Node20 -->
<g id="edge24" class="edge">
<title>Node24&#45;&gt;Node20</title>
<path fill="none" stroke="midnightblue" d="M2413.19,-61.98C2371.48,-51.46 2300.49,-33.56 2254.69,-22.01"/>
<polygon fill="midnightblue" stroke="midnightblue" points="2255.3,-18.56 2244.75,-19.51 2253.59,-25.35 2255.3,-18.56"/>
</g>
<!-- Node24&#45;&gt;Node22 -->
<g id="edge25" class="edge">
<title>Node24&#45;&gt;Node22</title>
<path fill="none" stroke="midnightblue" d="M2493.58,-61.94C2507.5,-59.67 2522.83,-57.45 2537,-56 2897.94,-19.16 2993.29,-48.2 3358.75,-20.04"/>
<polygon fill="midnightblue" stroke="midnightblue" points="3359.12,-23.52 3368.81,-19.25 3358.57,-16.54 3359.12,-23.52"/>
</g>
<!-- Node24&#45;&gt;Node25 -->
<g id="edge26" class="edge">
<title>Node24&#45;&gt;Node25</title>
<path fill="none" stroke="midnightblue" d="M2437.69,-61.98C2427.55,-52.7 2411.14,-37.67 2398.75,-26.33"/>
<polygon fill="midnightblue" stroke="midnightblue" points="2401.04,-23.68 2391.3,-19.51 2396.31,-28.84 2401.04,-23.68"/>
</g>
</g>
</svg>
