<?xml version="1.0" encoding="UTF-8" standalone="no"?>
<!DOCTYPE svg PUBLIC "-//W3C//DTD SVG 1.1//EN"
 "http://www.w3.org/Graphics/SVG/1.1/DTD/svg11.dtd">
<!-- Generated by graphviz version 2.43.0 (0)
 -->
<!-- Title: ControlBoardDriverCoupling.cpp Pages: 1 -->
<svg width="3788pt" height="207pt"
 viewBox="0.00 0.00 3787.50 207.00" xmlns="http://www.w3.org/2000/svg" xmlns:xlink="http://www.w3.org/1999/xlink">
<g id="graph0" class="graph" transform="scale(1 1) rotate(0) translate(4 203)">
<title>ControlBoardDriverCoupling.cpp</title>
<!-- Node1 -->
<g id="node1" class="node">
<title>Node1</title>
<g id="a_node1"><a xlink:title=" ">
<polygon fill="#bfbfbf" stroke="black" points="3445.5,-179.5 3445.5,-198.5 3618.5,-198.5 3618.5,-179.5 3445.5,-179.5"/>
<text text-anchor="middle" x="3532" y="-186.5" font-family="FreeSans.ttf" font-size="10.00">ControlBoardDriverCoupling.cpp</text>
</a>
</g>
</g>
<!-- Node2 -->
<g id="node2" class="node">
<title>Node2</title>
<g id="a_node2"><a xlink:href="ControlBoardDriver_8h.html" target="_top" xlink:title=" ">
<polygon fill="none" stroke="black" points="1840.5,-123.5 1840.5,-142.5 1959.5,-142.5 1959.5,-123.5 1840.5,-123.5"/>
<text text-anchor="middle" x="1900" y="-130.5" font-family="FreeSans.ttf" font-size="10.00">ControlBoardDriver.h</text>
</a>
</g>
</g>
<!-- Node1&#45;&gt;Node2 -->
<g id="edge1" class="edge">
<title>Node1&#45;&gt;Node2</title>
<path fill="none" stroke="midnightblue" d="M3445.41,-185.13C3157.01,-175.59 2232.47,-145 1970.05,-136.32"/>
<polygon fill="midnightblue" stroke="midnightblue" points="1970,-132.81 1959.89,-135.98 1969.77,-139.81 1970,-132.81"/>
</g>
<!-- Node22 -->
<g id="node22" class="node">
<title>Node22</title>
<g id="a_node22"><a xlink:title=" ">
<polygon fill="none" stroke="#bfbfbf" points="3317,-0.5 3317,-19.5 3457,-19.5 3457,-0.5 3317,-0.5"/>
<text text-anchor="middle" x="3387" y="-7.5" font-family="FreeSans.ttf" font-size="10.00">gazebo/physics/Model.hh</text>
</a>
</g>
</g>
<!-- Node1&#45;&gt;Node22 -->
<g id="edge39" class="edge">
<title>Node1&#45;&gt;Node22</title>
<path fill="none" stroke="midnightblue" d="M3537.2,-179.2C3549.99,-156.29 3579.92,-93.93 3551,-56 3539.08,-40.36 3495.15,-28.81 3455.77,-21.33"/>
<polygon fill="midnightblue" stroke="midnightblue" points="3456.34,-17.88 3445.87,-19.52 3455.08,-24.77 3456.34,-17.88"/>
</g>
<!-- Node24 -->
<g id="node24" class="node">
<title>Node24</title>
<g id="a_node24"><a xlink:href="ControlBoardDriverCoupling_8h.html" target="_top" xlink:title=" ">
<polygon fill="none" stroke="black" points="48,-62 48,-81 210,-81 210,-62 48,-62"/>
<text text-anchor="middle" x="129" y="-69" font-family="FreeSans.ttf" font-size="10.00">ControlBoardDriverCoupling.h</text>
</a>
</g>
</g>
<!-- Node1&#45;&gt;Node24 -->
<g id="edge36" class="edge">
<title>Node1&#45;&gt;Node24</title>
<path fill="none" stroke="midnightblue" d="M3445.2,-186.93C2989.74,-181.05 871.9,-150.68 219,-87 208.03,-85.93 196.36,-84.37 185.19,-82.66"/>
<polygon fill="midnightblue" stroke="midnightblue" points="185.53,-79.17 175.1,-81.06 184.43,-86.09 185.53,-79.17"/>
</g>
<!-- Node31 -->
<g id="node31" class="node">
<title>Node31</title>
<g id="a_node31"><a xlink:href="common_8h.html" target="_top" xlink:title=" ">
<polygon fill="none" stroke="black" points="3340,-123.5 3340,-142.5 3504,-142.5 3504,-123.5 3340,-123.5"/>
<text text-anchor="middle" x="3422" y="-130.5" font-family="FreeSans.ttf" font-size="10.00">GazeboYarpPlugins/common.h</text>
</a>
</g>
</g>
<!-- Node1&#45;&gt;Node31 -->
<g id="edge33" class="edge">
<title>Node1&#45;&gt;Node31</title>
<path fill="none" stroke="midnightblue" d="M3514.33,-179.32C3496.61,-170.62 3469.1,-157.12 3448.71,-147.11"/>
<polygon fill="midnightblue" stroke="midnightblue" points="3450.15,-143.92 3439.63,-142.65 3447.06,-150.2 3450.15,-143.92"/>
</g>
<!-- Node32 -->
<g id="node32" class="node">
<title>Node32</title>
<g id="a_node32"><a xlink:title=" ">
<polygon fill="none" stroke="#bfbfbf" points="3494.5,-62 3494.5,-81 3541.5,-81 3541.5,-62 3494.5,-62"/>
<text text-anchor="middle" x="3518" y="-69" font-family="FreeSans.ttf" font-size="10.00">cmath</text>
</a>
</g>
</g>
<!-- Node1&#45;&gt;Node32 -->
<g id="edge38" class="edge">
<title>Node1&#45;&gt;Node32</title>
<path fill="none" stroke="midnightblue" d="M3530.95,-179.32C3528.7,-160.76 3523.37,-116.84 3520.3,-91.47"/>
<polygon fill="midnightblue" stroke="midnightblue" points="3523.74,-90.79 3519.06,-81.28 3516.79,-91.63 3523.74,-90.79"/>
</g>
<!-- Node33 -->
<g id="node33" class="node">
<title>Node33</title>
<g id="a_node33"><a xlink:title=" ">
<polygon fill="none" stroke="#bfbfbf" points="3598,-123.5 3598,-142.5 3644,-142.5 3644,-123.5 3598,-123.5"/>
<text text-anchor="middle" x="3621" y="-130.5" font-family="FreeSans.ttf" font-size="10.00">cstdio</text>
</a>
</g>
</g>
<!-- Node1&#45;&gt;Node33 -->
<g id="edge37" class="edge">
<title>Node1&#45;&gt;Node33</title>
<path fill="none" stroke="midnightblue" d="M3546.3,-179.32C3560.18,-170.9 3581.49,-157.97 3597.8,-148.07"/>
<polygon fill="midnightblue" stroke="midnightblue" points="3600,-150.83 3606.74,-142.65 3596.37,-144.85 3600,-150.83"/>
</g>
<!-- Node34 -->
<g id="node34" class="node">
<title>Node34</title>
<g id="a_node34"><a xlink:title=" ">
<polygon fill="none" stroke="#bfbfbf" points="3662.5,-123.5 3662.5,-142.5 3779.5,-142.5 3779.5,-123.5 3662.5,-123.5"/>
<text text-anchor="middle" x="3721" y="-130.5" font-family="FreeSans.ttf" font-size="10.00">yarp/os/LogStream.h</text>
</a>
</g>
</g>
<!-- Node1&#45;&gt;Node34 -->
<g id="edge40" class="edge">
<title>Node1&#45;&gt;Node34</title>
<path fill="none" stroke="midnightblue" d="M3561.95,-179.44C3594.16,-170.24 3645.53,-155.56 3681.14,-145.39"/>
<polygon fill="midnightblue" stroke="midnightblue" points="3682.54,-148.63 3691.19,-142.52 3680.62,-141.9 3682.54,-148.63"/>
</g>
<!-- Node3 -->
<g id="node3" class="node">
<title>Node3</title>
<g id="a_node3"><a xlink:title=" ">
<polygon fill="none" stroke="#bfbfbf" points="1602,-62 1602,-81 1706,-81 1706,-62 1602,-62"/>
<text text-anchor="middle" x="1654" y="-69" font-family="FreeSans.ttf" font-size="10.00">yarp/os/Property.h</text>
</a>
</g>
</g>
<!-- Node2&#45;&gt;Node3 -->
<g id="edge2" class="edge">
<title>Node2&#45;&gt;Node3</title>
<path fill="none" stroke="midnightblue" d="M1864.75,-123.48C1821.1,-112.92 1746.66,-94.91 1698.94,-83.37"/>
<polygon fill="midnightblue" stroke="midnightblue" points="1699.72,-79.96 1689.18,-81.01 1698.08,-86.76 1699.72,-79.96"/>
</g>
<!-- Node4 -->
<g id="node4" class="node">
<title>Node4</title>
<g id="a_node4"><a xlink:title=" ">
<polygon fill="none" stroke="#bfbfbf" points="1724,-62 1724,-81 1816,-81 1816,-62 1724,-62"/>
<text text-anchor="middle" x="1770" y="-69" font-family="FreeSans.ttf" font-size="10.00">yarp/os/Value.h</text>
</a>
</g>
</g>
<!-- Node2&#45;&gt;Node4 -->
<g id="edge3" class="edge">
<title>Node2&#45;&gt;Node4</title>
<path fill="none" stroke="midnightblue" d="M1881.37,-123.48C1859.56,-113.49 1823.2,-96.85 1797.98,-85.31"/>
<polygon fill="midnightblue" stroke="midnightblue" points="1799.14,-81.99 1788.59,-81.01 1796.23,-88.35 1799.14,-81.99"/>
</g>
<!-- Node5 -->
<g id="node5" class="node">
<title>Node5</title>
<g id="a_node5"><a xlink:title=" ">
<polygon fill="none" stroke="#bfbfbf" points="2290.5,-62 2290.5,-81 2397.5,-81 2397.5,-62 2290.5,-62"/>
<text text-anchor="middle" x="2344" y="-69" font-family="FreeSans.ttf" font-size="10.00">yarp/dev/Drivers.h</text>
</a>
</g>
</g>
<!-- Node2&#45;&gt;Node5 -->
<g id="edge4" class="edge">
<title>Node2&#45;&gt;Node5</title>
<path fill="none" stroke="midnightblue" d="M1959.68,-126.97C2034.94,-120.17 2168.13,-106.6 2281,-87 2287.24,-85.92 2293.79,-84.61 2300.21,-83.22"/>
<polygon fill="midnightblue" stroke="midnightblue" points="2301.14,-86.6 2310.13,-81.01 2299.61,-79.77 2301.14,-86.6"/>
</g>
<!-- Node6 -->
<g id="node6" class="node">
<title>Node6</title>
<g id="a_node6"><a xlink:title=" ">
<polygon fill="none" stroke="#bfbfbf" points="2416,-62 2416,-81 2538,-81 2538,-62 2416,-62"/>
<text text-anchor="middle" x="2477" y="-69" font-family="FreeSans.ttf" font-size="10.00">yarp/dev/PolyDriver.h</text>
</a>
</g>
</g>
<!-- Node2&#45;&gt;Node6 -->
<g id="edge5" class="edge">
<title>Node2&#45;&gt;Node6</title>
<path fill="none" stroke="midnightblue" d="M1959.84,-128.87C2054.8,-123.41 2245.65,-110.43 2406,-87 2413.53,-85.9 2421.47,-84.51 2429.2,-83.03"/>
<polygon fill="midnightblue" stroke="midnightblue" points="2430.06,-86.43 2439.19,-81.05 2428.7,-79.56 2430.06,-86.43"/>
</g>
<!-- Node7 -->
<g id="node7" class="node">
<title>Node7</title>
<g id="a_node7"><a xlink:title=" ">
<polygon fill="none" stroke="#bfbfbf" points="2556.5,-62 2556.5,-81 2681.5,-81 2681.5,-62 2556.5,-62"/>
<text text-anchor="middle" x="2619" y="-69" font-family="FreeSans.ttf" font-size="10.00">yarp/dev/IPidControl.h</text>
</a>
</g>
</g>
<!-- Node2&#45;&gt;Node7 -->
<g id="edge6" class="edge">
<title>Node2&#45;&gt;Node7</title>
<path fill="none" stroke="midnightblue" d="M1959.58,-130.43C2073.93,-126.85 2331.92,-116.01 2547,-87 2554.91,-85.93 2563.25,-84.52 2571.35,-83"/>
<polygon fill="midnightblue" stroke="midnightblue" points="2572.27,-86.38 2581.41,-81.02 2570.93,-79.51 2572.27,-86.38"/>
</g>
<!-- Node8 -->
<g id="node8" class="node">
<title>Node8</title>
<g id="a_node8"><a xlink:title=" ">
<polygon fill="none" stroke="#bfbfbf" points="2738,-62 2738,-81 2872,-81 2872,-62 2738,-62"/>
<text text-anchor="middle" x="2805" y="-69" font-family="FreeSans.ttf" font-size="10.00">yarp/dev/IPWMControl.h</text>
</a>
</g>
</g>
<!-- Node2&#45;&gt;Node8 -->
<g id="edge7" class="edge">
<title>Node2&#45;&gt;Node8</title>
<path fill="none" stroke="midnightblue" d="M1959.67,-131.25C2095.69,-128.98 2439.03,-120.16 2724,-87 2733.48,-85.9 2743.53,-84.38 2753.2,-82.75"/>
<polygon fill="midnightblue" stroke="midnightblue" points="2753.86,-86.18 2763.1,-81.01 2752.65,-79.29 2753.86,-86.18"/>
</g>
<!-- Node9 -->
<g id="node9" class="node">
<title>Node9</title>
<g id="a_node9"><a xlink:title=" ">
<polygon fill="none" stroke="#bfbfbf" points="2890,-62 2890,-81 3036,-81 3036,-62 2890,-62"/>
<text text-anchor="middle" x="2963" y="-69" font-family="FreeSans.ttf" font-size="10.00">yarp/dev/ICurrentControl.h</text>
</a>
</g>
</g>
<!-- Node2&#45;&gt;Node9 -->
<g id="edge8" class="edge">
<title>Node2&#45;&gt;Node9</title>
<path fill="none" stroke="midnightblue" d="M1959.65,-131.94C2113.01,-131.21 2533.41,-125.54 2881,-87 2890.6,-85.94 2900.77,-84.44 2910.56,-82.81"/>
<polygon fill="midnightblue" stroke="midnightblue" points="2911.33,-86.23 2920.59,-81.07 2910.14,-79.33 2911.33,-86.23"/>
</g>
<!-- Node10 -->
<g id="node10" class="node">
<title>Node10</title>
<g id="a_node10"><a xlink:title=" ">
<polygon fill="none" stroke="#bfbfbf" points="3054.5,-56.5 3054.5,-86.5 3229.5,-86.5 3229.5,-56.5 3054.5,-56.5"/>
<text text-anchor="start" x="3062.5" y="-74.5" font-family="FreeSans.ttf" font-size="10.00">yarp/dev/ControlBoardInterfaces</text>
<text text-anchor="middle" x="3142" y="-63.5" font-family="FreeSans.ttf" font-size="10.00">Impl.h</text>
</a>
</g>
</g>
<!-- Node2&#45;&gt;Node10 -->
<g id="edge9" class="edge">
<title>Node2&#45;&gt;Node10</title>
<path fill="none" stroke="midnightblue" d="M1959.75,-131.95C2128.47,-131.3 2622.99,-126.04 3044.04,-87.01"/>
<polygon fill="midnightblue" stroke="midnightblue" points="3044.65,-90.47 3054.28,-86.05 3044,-83.5 3044.65,-90.47"/>
</g>
<!-- Node11 -->
<g id="node11" class="node">
<title>Node11</title>
<g id="a_node11"><a xlink:title=" ">
<polygon fill="none" stroke="#bfbfbf" points="228,-62 228,-81 412,-81 412,-62 228,-62"/>
<text text-anchor="middle" x="320" y="-69" font-family="FreeSans.ttf" font-size="10.00">yarp/dev/ControlBoardInterfaces.h</text>
</a>
</g>
</g>
<!-- Node2&#45;&gt;Node11 -->
<g id="edge10" class="edge">
<title>Node2&#45;&gt;Node11</title>
<path fill="none" stroke="midnightblue" d="M1840.48,-131.08C1600.56,-127.24 703.8,-111.52 421,-87 408.26,-85.9 394.67,-84.26 381.73,-82.48"/>
<polygon fill="midnightblue" stroke="midnightblue" points="381.9,-78.97 371.51,-81.03 380.92,-85.9 381.9,-78.97"/>
</g>
<!-- Node12 -->
<g id="node12" class="node">
<title>Node12</title>
<g id="a_node12"><a xlink:title=" ">
<polygon fill="none" stroke="#bfbfbf" points="430.5,-62 430.5,-81 567.5,-81 567.5,-62 430.5,-62"/>
<text text-anchor="middle" x="499" y="-69" font-family="FreeSans.ttf" font-size="10.00">yarp/dev/IControlMode.h</text>
</a>
</g>
</g>
<!-- Node2&#45;&gt;Node12 -->
<g id="edge11" class="edge">
<title>Node2&#45;&gt;Node12</title>
<path fill="none" stroke="midnightblue" d="M1840.37,-131.16C1616.62,-127.82 827.02,-114.34 577,-87 567.75,-85.99 557.95,-84.5 548.53,-82.86"/>
<polygon fill="midnightblue" stroke="midnightblue" points="548.98,-79.38 538.51,-81.03 547.72,-86.27 548.98,-79.38"/>
</g>
<!-- Node13 -->
<g id="node13" class="node">
<title>Node13</title>
<g id="a_node13"><a xlink:title=" ">
<polygon fill="none" stroke="#bfbfbf" points="586,-62 586,-81 740,-81 740,-62 586,-62"/>
<text text-anchor="middle" x="663" y="-69" font-family="FreeSans.ttf" font-size="10.00">yarp/dev/IInteractionMode.h</text>
</a>
</g>
</g>
<!-- Node2&#45;&gt;Node13 -->
<g id="edge12" class="edge">
<title>Node2&#45;&gt;Node13</title>
<path fill="none" stroke="midnightblue" d="M1840.2,-132.35C1669.42,-132.78 1164.99,-130.02 749,-87 738.61,-85.93 727.58,-84.38 717.01,-82.69"/>
<polygon fill="midnightblue" stroke="midnightblue" points="717.48,-79.22 707.04,-81.04 716.34,-86.13 717.48,-79.22"/>
</g>
<!-- Node14 -->
<g id="node14" class="node">
<title>Node14</title>
<g id="a_node14"><a xlink:title=" ">
<polygon fill="none" stroke="#bfbfbf" points="758,-62 758,-81 916,-81 916,-62 758,-62"/>
<text text-anchor="middle" x="837" y="-69" font-family="FreeSans.ttf" font-size="10.00">yarp/dev/IRemoteVariables.h</text>
</a>
</g>
</g>
<!-- Node2&#45;&gt;Node14 -->
<g id="edge13" class="edge">
<title>Node2&#45;&gt;Node14</title>
<path fill="none" stroke="midnightblue" d="M1840.46,-131.68C1687.87,-130.32 1270.47,-123.31 925,-87 914.5,-85.9 903.34,-84.35 892.63,-82.68"/>
<polygon fill="midnightblue" stroke="midnightblue" points="892.97,-79.19 882.54,-81.05 891.85,-86.1 892.97,-79.19"/>
</g>
<!-- Node15 -->
<g id="node15" class="node">
<title>Node15</title>
<g id="a_node15"><a xlink:title=" ">
<polygon fill="none" stroke="#bfbfbf" points="934.5,-62 934.5,-81 1107.5,-81 1107.5,-62 934.5,-62"/>
<text text-anchor="middle" x="1021" y="-69" font-family="FreeSans.ttf" font-size="10.00">yarp/dev/IVirtualAnalogSensor.h</text>
</a>
</g>
</g>
<!-- Node2&#45;&gt;Node15 -->
<g id="edge14" class="edge">
<title>Node2&#45;&gt;Node15</title>
<path fill="none" stroke="midnightblue" d="M1840.42,-130.46C1709.34,-126.65 1386.17,-115 1117,-87 1105.59,-85.81 1093.46,-84.23 1081.8,-82.55"/>
<polygon fill="midnightblue" stroke="midnightblue" points="1082.11,-79.06 1071.71,-81.05 1081.09,-85.98 1082.11,-79.06"/>
</g>
<!-- Node16 -->
<g id="node16" class="node">
<title>Node16</title>
<g id="a_node16"><a xlink:title=" ">
<polygon fill="none" stroke="#bfbfbf" points="1126,-62 1126,-81 1224,-81 1224,-62 1126,-62"/>
<text text-anchor="middle" x="1175" y="-69" font-family="FreeSans.ttf" font-size="10.00">yarp/sig/Vector.h</text>
</a>
</g>
</g>
<!-- Node2&#45;&gt;Node16 -->
<g id="edge15" class="edge">
<title>Node2&#45;&gt;Node16</title>
<path fill="none" stroke="midnightblue" d="M1840.27,-131.52C1723.09,-129.79 1455.13,-121.98 1233,-87 1227.09,-86.07 1220.9,-84.82 1214.85,-83.45"/>
<polygon fill="midnightblue" stroke="midnightblue" points="1215.44,-79.99 1204.89,-81.05 1213.8,-86.79 1215.44,-79.99"/>
</g>
<!-- Node17 -->
<g id="node17" class="node">
<title>Node17</title>
<g id="a_node17"><a xlink:title=" ">
<polygon fill="none" stroke="#bfbfbf" points="1242.5,-62 1242.5,-81 1331.5,-81 1331.5,-62 1242.5,-62"/>
<text text-anchor="middle" x="1287" y="-69" font-family="FreeSans.ttf" font-size="10.00">yarp/os/Time.h</text>
</a>
</g>
</g>
<!-- Node2&#45;&gt;Node17 -->
<g id="edge16" class="edge">
<title>Node2&#45;&gt;Node17</title>
<path fill="none" stroke="midnightblue" d="M1840.4,-130.76C1737.71,-127.82 1521.12,-118.17 1341,-87 1335.62,-86.07 1330,-84.85 1324.5,-83.51"/>
<polygon fill="midnightblue" stroke="midnightblue" points="1325.37,-80.12 1314.81,-81 1323.62,-86.89 1325.37,-80.12"/>
</g>
<!-- Node18 -->
<g id="node18" class="node">
<title>Node18</title>
<g id="a_node18"><a xlink:title=" ">
<polygon fill="none" stroke="#bfbfbf" points="1350,-62 1350,-81 1446,-81 1446,-62 1350,-62"/>
<text text-anchor="middle" x="1398" y="-69" font-family="FreeSans.ttf" font-size="10.00">yarp/os/Stamp.h</text>
</a>
</g>
</g>
<!-- Node2&#45;&gt;Node18 -->
<g id="edge17" class="edge">
<title>Node2&#45;&gt;Node18</title>
<path fill="none" stroke="midnightblue" d="M1840.23,-128.78C1754.45,-123.52 1591.68,-111.16 1455,-87 1449.47,-86.02 1443.68,-84.8 1438.01,-83.47"/>
<polygon fill="midnightblue" stroke="midnightblue" points="1438.54,-80 1427.99,-81.02 1436.87,-86.8 1438.54,-80"/>
</g>
<!-- Node19 -->
<g id="node19" class="node">
<title>Node19</title>
<g id="a_node19"><a xlink:title=" ">
<polygon fill="none" stroke="#bfbfbf" points="1464.5,-62 1464.5,-81 1583.5,-81 1583.5,-62 1464.5,-62"/>
<text text-anchor="middle" x="1524" y="-69" font-family="FreeSans.ttf" font-size="10.00">boost/shared_ptr.hpp</text>
</a>
</g>
</g>
<!-- Node2&#45;&gt;Node19 -->
<g id="edge18" class="edge">
<title>Node2&#45;&gt;Node19</title>
<path fill="none" stroke="midnightblue" d="M1840.4,-124.37C1778.41,-116.18 1678.65,-102.26 1593,-87 1586.36,-85.82 1579.38,-84.47 1572.52,-83.09"/>
<polygon fill="midnightblue" stroke="midnightblue" points="1573.1,-79.63 1562.6,-81.05 1571.69,-86.49 1573.1,-79.63"/>
</g>
<!-- Node20 -->
<g id="node20" class="node">
<title>Node20</title>
<g id="a_node20"><a xlink:href="ControlBoardDriverRange_8h.html" target="_top" xlink:title=" ">
<polygon fill="none" stroke="black" points="0,-0.5 0,-19.5 150,-19.5 150,-0.5 0,-0.5"/>
<text text-anchor="middle" x="75" y="-7.5" font-family="FreeSans.ttf" font-size="10.00">ControlBoardDriverRange.h</text>
</a>
</g>
</g>
<!-- Node2&#45;&gt;Node20 -->
<g id="edge19" class="edge">
<title>Node2&#45;&gt;Node20</title>
<path fill="none" stroke="midnightblue" d="M1840.27,-131.69C1525.39,-129.93 71.2,-119.99 39,-87 22.35,-69.94 41.58,-43.73 57.7,-26.97"/>
<polygon fill="midnightblue" stroke="midnightblue" points="60.53,-29.1 65.19,-19.59 55.61,-24.12 60.53,-29.1"/>
</g>
<!-- Node21 -->
<g id="node21" class="node">
<title>Node21</title>
<g id="a_node21"><a xlink:href="ControlBoardDriverTrajectory_8h.html" target="_top" xlink:title=" ">
<polygon fill="none" stroke="black" points="3248,-62 3248,-81 3414,-81 3414,-62 3248,-62"/>
<text text-anchor="middle" x="3331" y="-69" font-family="FreeSans.ttf" font-size="10.00">ControlBoardDriverTrajectory.h</text>
</a>
</g>
</g>
<!-- Node2&#45;&gt;Node21 -->
<g id="edge20" class="edge">
<title>Node2&#45;&gt;Node21</title>
<path fill="none" stroke="midnightblue" d="M1959.51,-132.56C2147.57,-133.79 2745.71,-133.48 3238,-87 3249.45,-85.92 3261.63,-84.34 3273.28,-82.61"/>
<polygon fill="midnightblue" stroke="midnightblue" points="3274,-86.04 3283.35,-81.06 3272.93,-79.12 3274,-86.04"/>
</g>
<!-- Node2&#45;&gt;Node24 -->
<g id="edge23" class="edge">
<title>Node2&#45;&gt;Node24</title>
<path fill="none" stroke="midnightblue" d="M1840.44,-131.47C1580.43,-128.99 543.47,-117.34 219,-87 207.9,-85.96 196.1,-84.4 184.81,-82.67"/>
<polygon fill="midnightblue" stroke="midnightblue" points="185.06,-79.17 174.63,-81.06 183.96,-86.08 185.06,-79.17"/>
</g>
<!-- Node25 -->
<g id="node25" class="node">
<title>Node25</title>
<g id="a_node25"><a xlink:title=" ">
<polygon fill="none" stroke="#bfbfbf" points="1415.5,-0.5 1415.5,-19.5 1508.5,-19.5 1508.5,-0.5 1415.5,-0.5"/>
<text text-anchor="middle" x="1462" y="-7.5" font-family="FreeSans.ttf" font-size="10.00">unordered_map</text>
</a>
</g>
</g>
<!-- Node2&#45;&gt;Node25 -->
<g id="edge31" class="edge">
<title>Node2&#45;&gt;Node25</title>
<path fill="none" stroke="midnightblue" d="M1959.77,-130.81C2139.63,-126.96 2665,-113.46 2690,-87 2699.46,-76.98 2699.56,-65.92 2690,-56 2648.9,-13.36 1755.02,-10.84 1518.82,-10.92"/>
<polygon fill="midnightblue" stroke="midnightblue" points="1518.72,-7.42 1508.73,-10.92 1518.73,-14.42 1518.72,-7.42"/>
</g>
<!-- Node26 -->
<g id="node26" class="node">
<title>Node26</title>
<g id="a_node26"><a xlink:title=" ">
<polygon fill="none" stroke="#bfbfbf" points="1834,-62 1834,-81 1966,-81 1966,-62 1834,-62"/>
<text text-anchor="middle" x="1900" y="-69" font-family="FreeSans.ttf" font-size="10.00">gazebo/common/PID.hh</text>
</a>
</g>
</g>
<!-- Node2&#45;&gt;Node26 -->
<g id="edge27" class="edge">
<title>Node2&#45;&gt;Node26</title>
<path fill="none" stroke="midnightblue" d="M1900,-123.48C1900,-115.08 1900,-101.98 1900,-91.16"/>
<polygon fill="midnightblue" stroke="midnightblue" points="1903.5,-91.01 1900,-81.01 1896.5,-91.01 1903.5,-91.01"/>
</g>
<!-- Node27 -->
<g id="node27" class="node">
<title>Node27</title>
<g id="a_node27"><a xlink:title=" ">
<polygon fill="none" stroke="#bfbfbf" points="1984,-62 1984,-81 2124,-81 2124,-62 1984,-62"/>
<text text-anchor="middle" x="2054" y="-69" font-family="FreeSans.ttf" font-size="10.00">gazebo/common/Time.hh</text>
</a>
</g>
</g>
<!-- Node2&#45;&gt;Node27 -->
<g id="edge28" class="edge">
<title>Node2&#45;&gt;Node27</title>
<path fill="none" stroke="midnightblue" d="M1922.06,-123.48C1948.37,-113.31 1992.51,-96.26 2022.42,-84.7"/>
<polygon fill="midnightblue" stroke="midnightblue" points="2023.91,-87.88 2031.98,-81.01 2021.39,-81.35 2023.91,-87.88"/>
</g>
<!-- Node28 -->
<g id="node28" class="node">
<title>Node28</title>
<g id="a_node28"><a xlink:title=" ">
<polygon fill="none" stroke="#bfbfbf" points="3432,-62 3432,-81 3476,-81 3476,-62 3432,-62"/>
<text text-anchor="middle" x="3454" y="-69" font-family="FreeSans.ttf" font-size="10.00">string</text>
</a>
</g>
</g>
<!-- Node2&#45;&gt;Node28 -->
<g id="edge29" class="edge">
<title>Node2&#45;&gt;Node28</title>
<path fill="none" stroke="midnightblue" d="M1959.57,-131.67C2223.29,-130 3279.05,-121.24 3423,-87 3425.21,-86.47 3427.45,-85.78 3429.66,-84.99"/>
<polygon fill="midnightblue" stroke="midnightblue" points="3431.16,-88.15 3439,-81.02 3428.42,-81.71 3431.16,-88.15"/>
</g>
<!-- Node29 -->
<g id="node29" class="node">
<title>Node29</title>
<g id="a_node29"><a xlink:title=" ">
<polygon fill="none" stroke="#bfbfbf" points="2142.5,-62 2142.5,-81 2207.5,-81 2207.5,-62 2142.5,-62"/>
<text text-anchor="middle" x="2175" y="-69" font-family="FreeSans.ttf" font-size="10.00">functional</text>
</a>
</g>
</g>
<!-- Node2&#45;&gt;Node29 -->
<g id="edge30" class="edge">
<title>Node2&#45;&gt;Node29</title>
<path fill="none" stroke="midnightblue" d="M1956.06,-123.46C2003.57,-115.69 2073.3,-102.98 2133,-87 2136.03,-86.19 2139.16,-85.27 2142.28,-84.29"/>
<polygon fill="midnightblue" stroke="midnightblue" points="2143.67,-87.52 2152.07,-81.07 2141.48,-80.87 2143.67,-87.52"/>
</g>
<!-- Node30 -->
<g id="node30" class="node">
<title>Node30</title>
<g id="a_node30"><a xlink:title=" ">
<polygon fill="none" stroke="#bfbfbf" points="2225.5,-62 2225.5,-81 2272.5,-81 2272.5,-62 2225.5,-62"/>
<text text-anchor="middle" x="2249" y="-69" font-family="FreeSans.ttf" font-size="10.00">vector</text>
</a>
</g>
</g>
<!-- Node2&#45;&gt;Node30 -->
<g id="edge32" class="edge">
<title>Node2&#45;&gt;Node30</title>
<path fill="none" stroke="midnightblue" d="M1959.53,-128.37C2023.82,-123.34 2128.74,-111.88 2216,-87 2218.15,-86.39 2220.35,-85.66 2222.53,-84.87"/>
<polygon fill="midnightblue" stroke="midnightblue" points="2223.91,-88.09 2231.86,-81.09 2221.28,-81.6 2223.91,-88.09"/>
</g>
<!-- Node21&#45;&gt;Node22 -->
<g id="edge21" class="edge">
<title>Node21&#45;&gt;Node22</title>
<path fill="none" stroke="midnightblue" d="M3339.02,-61.98C3347.59,-52.87 3361.36,-38.24 3371.96,-26.98"/>
<polygon fill="midnightblue" stroke="midnightblue" points="3374.69,-29.19 3378.99,-19.51 3369.59,-24.39 3374.69,-29.19"/>
</g>
<!-- Node23 -->
<g id="node23" class="node">
<title>Node23</title>
<g id="a_node23"><a xlink:title=" ">
<polygon fill="none" stroke="#bfbfbf" points="3251,-0.5 3251,-19.5 3299,-19.5 3299,-0.5 3251,-0.5"/>
<text text-anchor="middle" x="3275" y="-7.5" font-family="FreeSans.ttf" font-size="10.00">mutex</text>
</a>
</g>
</g>
<!-- Node21&#45;&gt;Node23 -->
<g id="edge22" class="edge">
<title>Node21&#45;&gt;Node23</title>
<path fill="none" stroke="midnightblue" d="M3322.98,-61.98C3314.41,-52.87 3300.64,-38.24 3290.04,-26.98"/>
<polygon fill="midnightblue" stroke="midnightblue" points="3292.41,-24.39 3283.01,-19.51 3287.31,-29.19 3292.41,-24.39"/>
</g>
<!-- Node24&#45;&gt;Node20 -->
<g id="edge24" class="edge">
<title>Node24&#45;&gt;Node20</title>
<path fill="none" stroke="midnightblue" d="M121.26,-61.98C113,-52.87 99.72,-38.24 89.51,-26.98"/>
<polygon fill="midnightblue" stroke="midnightblue" points="92.03,-24.56 82.72,-19.51 86.85,-29.27 92.03,-24.56"/>
</g>
<!-- Node24&#45;&gt;Node22 -->
<g id="edge25" class="edge">
<title>Node24&#45;&gt;Node22</title>
<path fill="none" stroke="midnightblue" d="M173.7,-61.96C188.11,-59.57 204.18,-57.27 219,-56 899.63,2.47 2606.08,-62.27 3306.58,-20"/>
<polygon fill="midnightblue" stroke="midnightblue" points="3307.06,-23.48 3316.82,-19.37 3306.63,-16.49 3307.06,-23.48"/>
</g>
<!-- Node24&#45;&gt;Node25 -->
<g id="edge26" class="edge">
<title>Node24&#45;&gt;Node25</title>
<path fill="none" stroke="midnightblue" d="M175.11,-61.95C189.15,-59.65 204.67,-57.41 219,-56 674.92,-11.19 1228.83,-9.75 1405.21,-10.56"/>
<polygon fill="midnightblue" stroke="midnightblue" points="1405.28,-14.07 1415.3,-10.62 1405.32,-7.07 1405.28,-14.07"/>
</g>
<!-- Node31&#45;&gt;Node28 -->
<g id="edge34" class="edge">
<title>Node31&#45;&gt;Node28</title>
<path fill="none" stroke="midnightblue" d="M3426.58,-123.48C3431.24,-114.82 3438.59,-101.15 3444.51,-90.15"/>
<polygon fill="midnightblue" stroke="midnightblue" points="3447.77,-91.47 3449.42,-81.01 3441.6,-88.16 3447.77,-91.47"/>
</g>
<!-- Node31&#45;&gt;Node32 -->
<g id="edge35" class="edge">
<title>Node31&#45;&gt;Node32</title>
<path fill="none" stroke="midnightblue" d="M3435.75,-123.48C3451.37,-113.8 3477.06,-97.87 3495.58,-86.39"/>
<polygon fill="midnightblue" stroke="midnightblue" points="3497.62,-89.25 3504.27,-81.01 3493.93,-83.3 3497.62,-89.25"/>
</g>
</g>
</svg>
