<?xml version="1.0" encoding="UTF-8" standalone="no"?>
<!DOCTYPE svg PUBLIC "-//W3C//DTD SVG 1.1//EN"
 "http://www.w3.org/Graphics/SVG/1.1/DTD/svg11.dtd">
<!-- Generated by graphviz version 2.49.0 (20210829.0051)
 -->
<!-- Title: ControlBoardDriverPidControl.cpp Pages: 1 -->
<svg width="3998pt" height="207pt"
 viewBox="0.00 0.00 3998.00 207.00" xmlns="http://www.w3.org/2000/svg" xmlns:xlink="http://www.w3.org/1999/xlink">
<g id="graph0" class="graph" transform="scale(1 1) rotate(0) translate(4 203)">
<title>ControlBoardDriverPidControl.cpp</title>
<!-- Node1 -->
<g id="node1" class="node">
<title>Node1</title>
<g id="a_node1"><a xlink:title=" ">
<polygon fill="#bfbfbf" stroke="black" points="3518,-179.5 3518,-198.5 3699,-198.5 3699,-179.5 3518,-179.5"/>
<text text-anchor="middle" x="3608.5" y="-186.5" font-family="FreeSans.ttf" font-size="10.00">ControlBoardDriverPidControl.cpp</text>
</a>
</g>
</g>
<!-- Node2 -->
<g id="node2" class="node">
<title>Node2</title>
<g id="a_node2"><a xlink:href="ControlBoardDriver_8h.html" target="_top" xlink:title=" ">
<polygon fill="none" stroke="black" points="1557,-123.5 1557,-142.5 1676,-142.5 1676,-123.5 1557,-123.5"/>
<text text-anchor="middle" x="1616.5" y="-130.5" font-family="FreeSans.ttf" font-size="10.00">ControlBoardDriver.h</text>
</a>
</g>
</g>
<!-- Node1&#45;&gt;Node2 -->
<g id="edge1" class="edge">
<title>Node1&#45;&gt;Node2</title>
<path fill="none" stroke="midnightblue" d="M3517.73,-185.54C3178.49,-176.34 1989.07,-144.1 1686.79,-135.91"/>
<polygon fill="midnightblue" stroke="midnightblue" points="1686.5,-132.4 1676.41,-135.62 1686.31,-139.39 1686.5,-132.4"/>
</g>
<!-- Node31 -->
<g id="node31" class="node">
<title>Node31</title>
<g id="a_node31"><a xlink:href="common_8h.html" target="_top" xlink:title=" ">
<polygon fill="none" stroke="black" points="3372.5,-123.5 3372.5,-142.5 3536.5,-142.5 3536.5,-123.5 3372.5,-123.5"/>
<text text-anchor="middle" x="3454.5" y="-130.5" font-family="FreeSans.ttf" font-size="10.00">GazeboYarpPlugins/common.h</text>
</a>
</g>
</g>
<!-- Node1&#45;&gt;Node31 -->
<g id="edge33" class="edge">
<title>Node1&#45;&gt;Node31</title>
<path fill="none" stroke="midnightblue" d="M3584.1,-179.44C3558.3,-170.4 3517.42,-156.06 3488.48,-145.92"/>
<polygon fill="midnightblue" stroke="midnightblue" points="3489.38,-142.52 3478.79,-142.52 3487.07,-149.13 3489.38,-142.52"/>
</g>
<!-- Node33 -->
<g id="node33" class="node">
<title>Node33</title>
<g id="a_node33"><a xlink:href="ControlBoardLog_8h.html" target="_top" xlink:title=" ">
<polygon fill="none" stroke="black" points="3555,-123.5 3555,-142.5 3662,-142.5 3662,-123.5 3555,-123.5"/>
<text text-anchor="middle" x="3608.5" y="-130.5" font-family="FreeSans.ttf" font-size="10.00">ControlBoardLog.h</text>
</a>
</g>
</g>
<!-- Node1&#45;&gt;Node33 -->
<g id="edge36" class="edge">
<title>Node1&#45;&gt;Node33</title>
<path fill="none" stroke="midnightblue" d="M3608.5,-179.08C3608.5,-172.01 3608.5,-161.86 3608.5,-152.99"/>
<polygon fill="midnightblue" stroke="midnightblue" points="3612,-152.75 3608.5,-142.75 3605,-152.75 3612,-152.75"/>
</g>
<!-- Node36 -->
<g id="node36" class="node">
<title>Node36</title>
<g id="a_node36"><a xlink:title=" ">
<polygon fill="none" stroke="#bfbfbf" points="3680,-123.5 3680,-142.5 3811,-142.5 3811,-123.5 3680,-123.5"/>
<text text-anchor="middle" x="3745.5" y="-130.5" font-family="FreeSans.ttf" font-size="10.00">gazebo/physics/Joint.hh</text>
</a>
</g>
</g>
<!-- Node1&#45;&gt;Node36 -->
<g id="edge39" class="edge">
<title>Node1&#45;&gt;Node36</title>
<path fill="none" stroke="midnightblue" d="M3630.21,-179.44C3652.85,-170.52 3688.57,-156.44 3714.25,-146.32"/>
<polygon fill="midnightblue" stroke="midnightblue" points="3715.87,-149.44 3723.89,-142.52 3713.31,-142.93 3715.87,-149.44"/>
</g>
<!-- Node37 -->
<g id="node37" class="node">
<title>Node37</title>
<g id="a_node37"><a xlink:title=" ">
<polygon fill="none" stroke="#bfbfbf" points="3829,-123.5 3829,-142.5 3990,-142.5 3990,-123.5 3829,-123.5"/>
<text text-anchor="middle" x="3909.5" y="-130.5" font-family="FreeSans.ttf" font-size="10.00">gazebo/transport/Publisher.hh</text>
</a>
</g>
</g>
<!-- Node1&#45;&gt;Node37 -->
<g id="edge40" class="edge">
<title>Node1&#45;&gt;Node37</title>
<path fill="none" stroke="midnightblue" d="M3656.19,-179.44C3709.36,-169.9 3795.32,-154.48 3852.13,-144.29"/>
<polygon fill="midnightblue" stroke="midnightblue" points="3852.8,-147.73 3862.03,-142.52 3851.57,-140.84 3852.8,-147.73"/>
</g>
<!-- Node3 -->
<g id="node3" class="node">
<title>Node3</title>
<g id="a_node3"><a xlink:title=" ">
<polygon fill="none" stroke="#bfbfbf" points="1564.5,-62 1564.5,-81 1668.5,-81 1668.5,-62 1564.5,-62"/>
<text text-anchor="middle" x="1616.5" y="-69" font-family="FreeSans.ttf" font-size="10.00">yarp/os/Property.h</text>
</a>
</g>
</g>
<!-- Node2&#45;&gt;Node3 -->
<g id="edge2" class="edge">
<title>Node2&#45;&gt;Node3</title>
<path fill="none" stroke="midnightblue" d="M1616.5,-123.48C1616.5,-115.08 1616.5,-101.98 1616.5,-91.16"/>
<polygon fill="midnightblue" stroke="midnightblue" points="1620,-91.01 1616.5,-81.01 1613,-91.01 1620,-91.01"/>
</g>
<!-- Node4 -->
<g id="node4" class="node">
<title>Node4</title>
<g id="a_node4"><a xlink:title=" ">
<polygon fill="none" stroke="#bfbfbf" points="1686.5,-62 1686.5,-81 1778.5,-81 1778.5,-62 1686.5,-62"/>
<text text-anchor="middle" x="1732.5" y="-69" font-family="FreeSans.ttf" font-size="10.00">yarp/os/Value.h</text>
</a>
</g>
</g>
<!-- Node2&#45;&gt;Node4 -->
<g id="edge3" class="edge">
<title>Node2&#45;&gt;Node4</title>
<path fill="none" stroke="midnightblue" d="M1633.12,-123.48C1652.42,-113.58 1684.46,-97.14 1706.93,-85.62"/>
<polygon fill="midnightblue" stroke="midnightblue" points="1708.61,-88.69 1715.91,-81.01 1705.42,-82.46 1708.61,-88.69"/>
</g>
<!-- Node5 -->
<g id="node5" class="node">
<title>Node5</title>
<g id="a_node5"><a xlink:title=" ">
<polygon fill="none" stroke="#bfbfbf" points="1797,-62 1797,-81 1904,-81 1904,-62 1797,-62"/>
<text text-anchor="middle" x="1850.5" y="-69" font-family="FreeSans.ttf" font-size="10.00">yarp/dev/Drivers.h</text>
</a>
</g>
</g>
<!-- Node2&#45;&gt;Node5 -->
<g id="edge4" class="edge">
<title>Node2&#45;&gt;Node5</title>
<path fill="none" stroke="midnightblue" d="M1650.03,-123.48C1691.38,-112.96 1761.77,-95.06 1807.18,-83.51"/>
<polygon fill="midnightblue" stroke="midnightblue" points="1808.21,-86.87 1817.04,-81.01 1806.48,-80.08 1808.21,-86.87"/>
</g>
<!-- Node6 -->
<g id="node6" class="node">
<title>Node6</title>
<g id="a_node6"><a xlink:title=" ">
<polygon fill="none" stroke="#bfbfbf" points="1922.5,-62 1922.5,-81 2044.5,-81 2044.5,-62 1922.5,-62"/>
<text text-anchor="middle" x="1983.5" y="-69" font-family="FreeSans.ttf" font-size="10.00">yarp/dev/PolyDriver.h</text>
</a>
</g>
</g>
<!-- Node2&#45;&gt;Node6 -->
<g id="edge5" class="edge">
<title>Node2&#45;&gt;Node6</title>
<path fill="none" stroke="midnightblue" d="M1676.18,-123.83C1736.06,-115.42 1830.88,-101.53 1912.5,-87 1919.24,-85.8 1926.32,-84.46 1933.3,-83.08"/>
<polygon fill="midnightblue" stroke="midnightblue" points="1934.27,-86.46 1943.39,-81.06 1932.9,-79.59 1934.27,-86.46"/>
</g>
<!-- Node7 -->
<g id="node7" class="node">
<title>Node7</title>
<g id="a_node7"><a xlink:title=" ">
<polygon fill="none" stroke="#bfbfbf" points="2063,-62 2063,-81 2188,-81 2188,-62 2063,-62"/>
<text text-anchor="middle" x="2125.5" y="-69" font-family="FreeSans.ttf" font-size="10.00">yarp/dev/IPidControl.h</text>
</a>
</g>
</g>
<!-- Node2&#45;&gt;Node7 -->
<g id="edge6" class="edge">
<title>Node2&#45;&gt;Node7</title>
<path fill="none" stroke="midnightblue" d="M1676.1,-127.69C1760.44,-121.17 1919.28,-107.38 2053.5,-87 2061.04,-85.86 2068.98,-84.45 2076.73,-82.98"/>
<polygon fill="midnightblue" stroke="midnightblue" points="2077.62,-86.37 2086.76,-81.01 2076.27,-79.5 2077.62,-86.37"/>
</g>
<!-- Node8 -->
<g id="node8" class="node">
<title>Node8</title>
<g id="a_node8"><a xlink:title=" ">
<polygon fill="none" stroke="#bfbfbf" points="2206.5,-62 2206.5,-81 2340.5,-81 2340.5,-62 2206.5,-62"/>
<text text-anchor="middle" x="2273.5" y="-69" font-family="FreeSans.ttf" font-size="10.00">yarp/dev/IPWMControl.h</text>
</a>
</g>
</g>
<!-- Node2&#45;&gt;Node8 -->
<g id="edge7" class="edge">
<title>Node2&#45;&gt;Node8</title>
<path fill="none" stroke="midnightblue" d="M1676,-129.52C1781.32,-124.66 2007.27,-112.08 2196.5,-87 2205.03,-85.87 2214.04,-84.41 2222.78,-82.86"/>
<polygon fill="midnightblue" stroke="midnightblue" points="2223.67,-86.26 2232.87,-81.01 2222.4,-79.37 2223.67,-86.26"/>
</g>
<!-- Node9 -->
<g id="node9" class="node">
<title>Node9</title>
<g id="a_node9"><a xlink:title=" ">
<polygon fill="none" stroke="#bfbfbf" points="2358.5,-62 2358.5,-81 2504.5,-81 2504.5,-62 2358.5,-62"/>
<text text-anchor="middle" x="2431.5" y="-69" font-family="FreeSans.ttf" font-size="10.00">yarp/dev/ICurrentControl.h</text>
</a>
</g>
</g>
<!-- Node2&#45;&gt;Node9 -->
<g id="edge8" class="edge">
<title>Node2&#45;&gt;Node9</title>
<path fill="none" stroke="midnightblue" d="M1676.09,-130.64C1801.23,-127.27 2100.4,-116.57 2349.5,-87 2358.98,-85.87 2369.03,-84.36 2378.72,-82.74"/>
<polygon fill="midnightblue" stroke="midnightblue" points="2379.4,-86.18 2388.65,-81.02 2378.2,-79.28 2379.4,-86.18"/>
</g>
<!-- Node10 -->
<g id="node10" class="node">
<title>Node10</title>
<g id="a_node10"><a xlink:title=" ">
<polygon fill="none" stroke="#bfbfbf" points="2523,-56.5 2523,-86.5 2698,-86.5 2698,-56.5 2523,-56.5"/>
<text text-anchor="start" x="2531" y="-74.5" font-family="FreeSans.ttf" font-size="10.00">yarp/dev/ControlBoardInterfaces</text>
<text text-anchor="middle" x="2610.5" y="-63.5" font-family="FreeSans.ttf" font-size="10.00">Impl.h</text>
</a>
</g>
</g>
<!-- Node2&#45;&gt;Node10 -->
<g id="edge9" class="edge">
<title>Node2&#45;&gt;Node10</title>
<path fill="none" stroke="midnightblue" d="M1676.22,-131.03C1818.97,-128.28 2191.37,-118.51 2512.81,-86.99"/>
<polygon fill="midnightblue" stroke="midnightblue" points="2513.17,-90.47 2522.78,-86.01 2512.48,-83.51 2513.17,-90.47"/>
</g>
<!-- Node11 -->
<g id="node11" class="node">
<title>Node11</title>
<g id="a_node11"><a xlink:title=" ">
<polygon fill="none" stroke="#bfbfbf" points="2716.5,-62 2716.5,-81 2900.5,-81 2900.5,-62 2716.5,-62"/>
<text text-anchor="middle" x="2808.5" y="-69" font-family="FreeSans.ttf" font-size="10.00">yarp/dev/ControlBoardInterfaces.h</text>
</a>
</g>
</g>
<!-- Node2&#45;&gt;Node11 -->
<g id="edge10" class="edge">
<title>Node2&#45;&gt;Node11</title>
<path fill="none" stroke="midnightblue" d="M1676.01,-131.63C1840.38,-130.16 2314.43,-122.87 2706.5,-87 2719.15,-85.84 2732.63,-84.21 2745.51,-82.46"/>
<polygon fill="midnightblue" stroke="midnightblue" points="2746.26,-85.89 2755.68,-81.03 2745.29,-78.96 2746.26,-85.89"/>
</g>
<!-- Node12 -->
<g id="node12" class="node">
<title>Node12</title>
<g id="a_node12"><a xlink:title=" ">
<polygon fill="none" stroke="#bfbfbf" points="2919,-62 2919,-81 3056,-81 3056,-62 2919,-62"/>
<text text-anchor="middle" x="2987.5" y="-69" font-family="FreeSans.ttf" font-size="10.00">yarp/dev/IControlMode.h</text>
</a>
</g>
</g>
<!-- Node2&#45;&gt;Node12 -->
<g id="edge11" class="edge">
<title>Node2&#45;&gt;Node12</title>
<path fill="none" stroke="midnightblue" d="M1676.28,-131.1C1896.98,-127.61 2665.71,-113.75 2909.5,-87 2918.75,-85.98 2928.55,-84.5 2937.97,-82.85"/>
<polygon fill="midnightblue" stroke="midnightblue" points="2938.78,-86.26 2947.99,-81.03 2937.52,-79.38 2938.78,-86.26"/>
</g>
<!-- Node13 -->
<g id="node13" class="node">
<title>Node13</title>
<g id="a_node13"><a xlink:title=" ">
<polygon fill="none" stroke="#bfbfbf" points="3074.5,-62 3074.5,-81 3228.5,-81 3228.5,-62 3074.5,-62"/>
<text text-anchor="middle" x="3151.5" y="-69" font-family="FreeSans.ttf" font-size="10.00">yarp/dev/IInteractionMode.h</text>
</a>
</g>
</g>
<!-- Node2&#45;&gt;Node13 -->
<g id="edge12" class="edge">
<title>Node2&#45;&gt;Node13</title>
<path fill="none" stroke="midnightblue" d="M1676.39,-131.21C1913.71,-127.92 2788.54,-114.16 3064.5,-87 3075.12,-85.95 3086.41,-84.4 3097.22,-82.7"/>
<polygon fill="midnightblue" stroke="midnightblue" points="3098.09,-86.1 3107.39,-81.03 3096.96,-79.19 3098.09,-86.1"/>
</g>
<!-- Node14 -->
<g id="node14" class="node">
<title>Node14</title>
<g id="a_node14"><a xlink:title=" ">
<polygon fill="none" stroke="#bfbfbf" points="3246.5,-62 3246.5,-81 3404.5,-81 3404.5,-62 3246.5,-62"/>
<text text-anchor="middle" x="3325.5" y="-69" font-family="FreeSans.ttf" font-size="10.00">yarp/dev/IRemoteVariables.h</text>
</a>
</g>
</g>
<!-- Node2&#45;&gt;Node14 -->
<g id="edge13" class="edge">
<title>Node2&#45;&gt;Node14</title>
<path fill="none" stroke="midnightblue" d="M1676.06,-131.43C1930.27,-128.83 2925.55,-116.89 3237.5,-87 3248.36,-85.96 3259.9,-84.39 3270.93,-82.67"/>
<polygon fill="midnightblue" stroke="midnightblue" points="3271.58,-86.11 3280.89,-81.06 3270.45,-79.2 3271.58,-86.11"/>
</g>
<!-- Node15 -->
<g id="node15" class="node">
<title>Node15</title>
<g id="a_node15"><a xlink:title=" ">
<polygon fill="none" stroke="#bfbfbf" points="0,-62 0,-81 173,-81 173,-62 0,-62"/>
<text text-anchor="middle" x="86.5" y="-69" font-family="FreeSans.ttf" font-size="10.00">yarp/dev/IVirtualAnalogSensor.h</text>
</a>
</g>
</g>
<!-- Node2&#45;&gt;Node15 -->
<g id="edge14" class="edge">
<title>Node2&#45;&gt;Node15</title>
<path fill="none" stroke="midnightblue" d="M1556.8,-131.07C1321.23,-127.26 455.83,-111.84 182.5,-87 170.57,-85.92 157.86,-84.31 145.72,-82.57"/>
<polygon fill="midnightblue" stroke="midnightblue" points="146.1,-79.09 135.7,-81.08 145.07,-86.01 146.1,-79.09"/>
</g>
<!-- Node16 -->
<g id="node16" class="node">
<title>Node16</title>
<g id="a_node16"><a xlink:title=" ">
<polygon fill="none" stroke="#bfbfbf" points="191.5,-62 191.5,-81 289.5,-81 289.5,-62 191.5,-62"/>
<text text-anchor="middle" x="240.5" y="-69" font-family="FreeSans.ttf" font-size="10.00">yarp/sig/Vector.h</text>
</a>
</g>
</g>
<!-- Node2&#45;&gt;Node16 -->
<g id="edge15" class="edge">
<title>Node2&#45;&gt;Node16</title>
<path fill="none" stroke="midnightblue" d="M1556.66,-131.63C1333.01,-129.99 546.48,-121.83 298.5,-87 292.23,-86.12 285.65,-84.83 279.27,-83.39"/>
<polygon fill="midnightblue" stroke="midnightblue" points="280.01,-79.97 269.47,-81.02 278.37,-86.77 280.01,-79.97"/>
</g>
<!-- Node17 -->
<g id="node17" class="node">
<title>Node17</title>
<g id="a_node17"><a xlink:title=" ">
<polygon fill="none" stroke="#bfbfbf" points="308,-62 308,-81 397,-81 397,-62 308,-62"/>
<text text-anchor="middle" x="352.5" y="-69" font-family="FreeSans.ttf" font-size="10.00">yarp/os/Time.h</text>
</a>
</g>
</g>
<!-- Node2&#45;&gt;Node17 -->
<g id="edge16" class="edge">
<title>Node2&#45;&gt;Node17</title>
<path fill="none" stroke="midnightblue" d="M1556.88,-131.56C1345.45,-129.71 632.16,-121.05 406.5,-87 400.92,-86.16 395.09,-84.95 389.41,-83.59"/>
<polygon fill="midnightblue" stroke="midnightblue" points="390,-80.12 379.44,-81.01 388.25,-86.9 390,-80.12"/>
</g>
<!-- Node18 -->
<g id="node18" class="node">
<title>Node18</title>
<g id="a_node18"><a xlink:title=" ">
<polygon fill="none" stroke="#bfbfbf" points="415.5,-62 415.5,-81 511.5,-81 511.5,-62 415.5,-62"/>
<text text-anchor="middle" x="463.5" y="-69" font-family="FreeSans.ttf" font-size="10.00">yarp/os/Stamp.h</text>
</a>
</g>
</g>
<!-- Node2&#45;&gt;Node18 -->
<g id="edge17" class="edge">
<title>Node2&#45;&gt;Node18</title>
<path fill="none" stroke="midnightblue" d="M1556.76,-131.18C1358.44,-128.22 723.07,-116.59 520.5,-87 514.55,-86.13 508.31,-84.89 502.24,-83.5"/>
<polygon fill="midnightblue" stroke="midnightblue" points="502.81,-80.04 492.26,-81.06 501.14,-86.84 502.81,-80.04"/>
</g>
<!-- Node19 -->
<g id="node19" class="node">
<title>Node19</title>
<g id="a_node19"><a xlink:title=" ">
<polygon fill="none" stroke="#bfbfbf" points="530,-62 530,-81 649,-81 649,-62 530,-62"/>
<text text-anchor="middle" x="589.5" y="-69" font-family="FreeSans.ttf" font-size="10.00">boost/shared_ptr.hpp</text>
</a>
</g>
</g>
<!-- Node2&#45;&gt;Node19 -->
<g id="edge18" class="edge">
<title>Node2&#45;&gt;Node19</title>
<path fill="none" stroke="midnightblue" d="M1556.87,-132.21C1406.44,-132.07 999.57,-127.64 663.5,-87 655,-85.97 646.01,-84.52 637.34,-82.93"/>
<polygon fill="midnightblue" stroke="midnightblue" points="637.84,-79.47 627.36,-81.02 636.52,-86.34 637.84,-79.47"/>
</g>
<!-- Node20 -->
<g id="node20" class="node">
<title>Node20</title>
<g id="a_node20"><a xlink:href="ControlBoardDriverRange_8h.html" target="_top" xlink:title=" ">
<polygon fill="none" stroke="black" points="602.5,-0.5 602.5,-19.5 752.5,-19.5 752.5,-0.5 602.5,-0.5"/>
<text text-anchor="middle" x="677.5" y="-7.5" font-family="FreeSans.ttf" font-size="10.00">ControlBoardDriverRange.h</text>
</a>
</g>
</g>
<!-- Node2&#45;&gt;Node20 -->
<g id="edge19" class="edge">
<title>Node2&#45;&gt;Node20</title>
<path fill="none" stroke="midnightblue" d="M1556.8,-132.17C1368.57,-132.28 795.75,-129.1 724.5,-87 702.94,-74.26 689.88,-47.37 683.18,-29.24"/>
<polygon fill="midnightblue" stroke="midnightblue" points="686.41,-27.86 679.88,-19.52 679.78,-30.11 686.41,-27.86"/>
</g>
<!-- Node21 -->
<g id="node21" class="node">
<title>Node21</title>
<g id="a_node21"><a xlink:href="ControlBoardDriverTrajectory_8h.html" target="_top" xlink:title=" ">
<polygon fill="none" stroke="black" points="923.5,-62 923.5,-81 1089.5,-81 1089.5,-62 923.5,-62"/>
<text text-anchor="middle" x="1006.5" y="-69" font-family="FreeSans.ttf" font-size="10.00">ControlBoardDriverTrajectory.h</text>
</a>
</g>
</g>
<!-- Node2&#45;&gt;Node21 -->
<g id="edge20" class="edge">
<title>Node2&#45;&gt;Node21</title>
<path fill="none" stroke="midnightblue" d="M1556.93,-128.18C1460.43,-121.69 1264.04,-107.21 1098.5,-87 1088.16,-85.74 1077.2,-84.19 1066.59,-82.59"/>
<polygon fill="midnightblue" stroke="midnightblue" points="1066.96,-79.1 1056.55,-81.04 1065.89,-86.02 1066.96,-79.1"/>
</g>
<!-- Node24 -->
<g id="node24" class="node">
<title>Node24</title>
<g id="a_node24"><a xlink:href="ControlBoardDriverCoupling_8h.html" target="_top" xlink:title=" ">
<polygon fill="none" stroke="black" points="743.5,-62 743.5,-81 905.5,-81 905.5,-62 743.5,-62"/>
<text text-anchor="middle" x="824.5" y="-69" font-family="FreeSans.ttf" font-size="10.00">ControlBoardDriverCoupling.h</text>
</a>
</g>
</g>
<!-- Node2&#45;&gt;Node24 -->
<g id="edge23" class="edge">
<title>Node2&#45;&gt;Node24</title>
<path fill="none" stroke="midnightblue" d="M1556.7,-130.1C1435.32,-125.81 1151.46,-113.62 914.5,-87 904.01,-85.82 892.88,-84.27 882.15,-82.63"/>
<polygon fill="midnightblue" stroke="midnightblue" points="882.45,-79.13 872.03,-81.03 881.36,-86.05 882.45,-79.13"/>
</g>
<!-- Node25 -->
<g id="node25" class="node">
<title>Node25</title>
<g id="a_node25"><a xlink:title=" ">
<polygon fill="none" stroke="#bfbfbf" points="770,-0.5 770,-19.5 863,-19.5 863,-0.5 770,-0.5"/>
<text text-anchor="middle" x="816.5" y="-7.5" font-family="FreeSans.ttf" font-size="10.00">unordered_map</text>
</a>
</g>
</g>
<!-- Node2&#45;&gt;Node25 -->
<g id="edge31" class="edge">
<title>Node2&#45;&gt;Node25</title>
<path fill="none" stroke="midnightblue" d="M1556.71,-131.19C1362.9,-128.25 762.82,-116.8 734.5,-87 725.01,-77.01 727.48,-67.86 734.5,-56 743.47,-40.84 759.57,-30.45 775.13,-23.5"/>
<polygon fill="midnightblue" stroke="midnightblue" points="776.75,-26.63 784.69,-19.62 774.11,-20.14 776.75,-26.63"/>
</g>
<!-- Node26 -->
<g id="node26" class="node">
<title>Node26</title>
<g id="a_node26"><a xlink:title=" ">
<polygon fill="none" stroke="#bfbfbf" points="1107.5,-62 1107.5,-81 1239.5,-81 1239.5,-62 1107.5,-62"/>
<text text-anchor="middle" x="1173.5" y="-69" font-family="FreeSans.ttf" font-size="10.00">gazebo/common/PID.hh</text>
</a>
</g>
</g>
<!-- Node2&#45;&gt;Node26 -->
<g id="edge27" class="edge">
<title>Node2&#45;&gt;Node26</title>
<path fill="none" stroke="midnightblue" d="M1556.73,-125.98C1483.77,-118.33 1356.74,-104.06 1248.5,-87 1240.85,-85.8 1232.8,-84.39 1224.91,-82.93"/>
<polygon fill="midnightblue" stroke="midnightblue" points="1225.54,-79.48 1215.06,-81.07 1224.24,-86.36 1225.54,-79.48"/>
</g>
<!-- Node27 -->
<g id="node27" class="node">
<title>Node27</title>
<g id="a_node27"><a xlink:title=" ">
<polygon fill="none" stroke="#bfbfbf" points="1257.5,-62 1257.5,-81 1397.5,-81 1397.5,-62 1257.5,-62"/>
<text text-anchor="middle" x="1327.5" y="-69" font-family="FreeSans.ttf" font-size="10.00">gazebo/common/Time.hh</text>
</a>
</g>
</g>
<!-- Node2&#45;&gt;Node27 -->
<g id="edge28" class="edge">
<title>Node2&#45;&gt;Node27</title>
<path fill="none" stroke="midnightblue" d="M1575.09,-123.48C1523.37,-112.83 1434.89,-94.61 1378.89,-83.08"/>
<polygon fill="midnightblue" stroke="midnightblue" points="1379.33,-79.6 1368.83,-81.01 1377.92,-86.45 1379.33,-79.6"/>
</g>
<!-- Node28 -->
<g id="node28" class="node">
<title>Node28</title>
<g id="a_node28"><a xlink:title=" ">
<polygon fill="none" stroke="#bfbfbf" points="3422.5,-62 3422.5,-81 3466.5,-81 3466.5,-62 3422.5,-62"/>
<text text-anchor="middle" x="3444.5" y="-69" font-family="FreeSans.ttf" font-size="10.00">string</text>
</a>
</g>
</g>
<!-- Node2&#45;&gt;Node28 -->
<g id="edge29" class="edge">
<title>Node2&#45;&gt;Node28</title>
<path fill="none" stroke="midnightblue" d="M1676.22,-131.96C1968.55,-131.56 3241.59,-127.48 3413.5,-87 3415.71,-86.48 3417.95,-85.79 3420.16,-85"/>
<polygon fill="midnightblue" stroke="midnightblue" points="3421.66,-88.16 3429.5,-81.03 3418.93,-81.72 3421.66,-88.16"/>
</g>
<!-- Node29 -->
<g id="node29" class="node">
<title>Node29</title>
<g id="a_node29"><a xlink:title=" ">
<polygon fill="none" stroke="#bfbfbf" points="1416,-62 1416,-81 1481,-81 1481,-62 1416,-62"/>
<text text-anchor="middle" x="1448.5" y="-69" font-family="FreeSans.ttf" font-size="10.00">functional</text>
</a>
</g>
</g>
<!-- Node2&#45;&gt;Node29 -->
<g id="edge30" class="edge">
<title>Node2&#45;&gt;Node29</title>
<path fill="none" stroke="midnightblue" d="M1592.43,-123.48C1563.49,-113.22 1514.74,-95.96 1482.1,-84.4"/>
<polygon fill="midnightblue" stroke="midnightblue" points="1483.12,-81.05 1472.53,-81.01 1480.78,-87.65 1483.12,-81.05"/>
</g>
<!-- Node30 -->
<g id="node30" class="node">
<title>Node30</title>
<g id="a_node30"><a xlink:title=" ">
<polygon fill="none" stroke="#bfbfbf" points="1499,-62 1499,-81 1546,-81 1546,-62 1499,-62"/>
<text text-anchor="middle" x="1522.5" y="-69" font-family="FreeSans.ttf" font-size="10.00">vector</text>
</a>
</g>
</g>
<!-- Node2&#45;&gt;Node30 -->
<g id="edge32" class="edge">
<title>Node2&#45;&gt;Node30</title>
<path fill="none" stroke="midnightblue" d="M1603.03,-123.48C1587.82,-113.84 1562.81,-98.02 1544.7,-86.55"/>
<polygon fill="midnightblue" stroke="midnightblue" points="1546.26,-83.4 1535.94,-81.01 1542.52,-89.31 1546.26,-83.4"/>
</g>
<!-- Node22 -->
<g id="node22" class="node">
<title>Node22</title>
<g id="a_node22"><a xlink:title=" ">
<polygon fill="none" stroke="#bfbfbf" points="881.5,-0.5 881.5,-19.5 1021.5,-19.5 1021.5,-0.5 881.5,-0.5"/>
<text text-anchor="middle" x="951.5" y="-7.5" font-family="FreeSans.ttf" font-size="10.00">gazebo/physics/Model.hh</text>
</a>
</g>
</g>
<!-- Node21&#45;&gt;Node22 -->
<g id="edge21" class="edge">
<title>Node21&#45;&gt;Node22</title>
<path fill="none" stroke="midnightblue" d="M998.62,-61.98C990.21,-52.87 976.68,-38.24 966.27,-26.98"/>
<polygon fill="midnightblue" stroke="midnightblue" points="968.72,-24.48 959.37,-19.51 963.58,-29.23 968.72,-24.48"/>
</g>
<!-- Node23 -->
<g id="node23" class="node">
<title>Node23</title>
<g id="a_node23"><a xlink:title=" ">
<polygon fill="none" stroke="#bfbfbf" points="1039.5,-0.5 1039.5,-19.5 1087.5,-19.5 1087.5,-0.5 1039.5,-0.5"/>
<text text-anchor="middle" x="1063.5" y="-7.5" font-family="FreeSans.ttf" font-size="10.00">mutex</text>
</a>
</g>
</g>
<!-- Node21&#45;&gt;Node23 -->
<g id="edge22" class="edge">
<title>Node21&#45;&gt;Node23</title>
<path fill="none" stroke="midnightblue" d="M1014.67,-61.98C1023.39,-52.87 1037.4,-38.24 1048.19,-26.98"/>
<polygon fill="midnightblue" stroke="midnightblue" points="1050.96,-29.15 1055.35,-19.51 1045.9,-24.31 1050.96,-29.15"/>
</g>
<!-- Node24&#45;&gt;Node20 -->
<g id="edge24" class="edge">
<title>Node24&#45;&gt;Node20</title>
<path fill="none" stroke="midnightblue" d="M803.44,-61.98C778.44,-51.86 736.56,-34.9 708.01,-23.35"/>
<polygon fill="midnightblue" stroke="midnightblue" points="709.11,-20.02 698.52,-19.51 706.48,-26.51 709.11,-20.02"/>
</g>
<!-- Node24&#45;&gt;Node22 -->
<g id="edge25" class="edge">
<title>Node24&#45;&gt;Node22</title>
<path fill="none" stroke="midnightblue" d="M842.7,-61.98C864.01,-51.99 899.53,-35.35 924.16,-23.81"/>
<polygon fill="midnightblue" stroke="midnightblue" points="925.77,-26.92 933.34,-19.51 922.8,-20.58 925.77,-26.92"/>
</g>
<!-- Node24&#45;&gt;Node25 -->
<g id="edge26" class="edge">
<title>Node24&#45;&gt;Node25</title>
<path fill="none" stroke="midnightblue" d="M823.35,-61.98C822.23,-53.58 820.46,-40.48 819.01,-29.66"/>
<polygon fill="midnightblue" stroke="midnightblue" points="822.45,-28.95 817.64,-19.51 815.51,-29.89 822.45,-28.95"/>
</g>
<!-- Node31&#45;&gt;Node28 -->
<g id="edge34" class="edge">
<title>Node31&#45;&gt;Node28</title>
<path fill="none" stroke="midnightblue" d="M3453.07,-123.48C3451.66,-115.08 3449.45,-101.98 3447.64,-91.16"/>
<polygon fill="midnightblue" stroke="midnightblue" points="3451.04,-90.29 3445.93,-81.01 3444.14,-91.45 3451.04,-90.29"/>
</g>
<!-- Node32 -->
<g id="node32" class="node">
<title>Node32</title>
<g id="a_node32"><a xlink:title=" ">
<polygon fill="none" stroke="#bfbfbf" points="3485,-62 3485,-81 3532,-81 3532,-62 3485,-62"/>
<text text-anchor="middle" x="3508.5" y="-69" font-family="FreeSans.ttf" font-size="10.00">cmath</text>
</a>
</g>
</g>
<!-- Node31&#45;&gt;Node32 -->
<g id="edge35" class="edge">
<title>Node31&#45;&gt;Node32</title>
<path fill="none" stroke="midnightblue" d="M3462.24,-123.48C3470.5,-114.37 3483.78,-99.74 3493.99,-88.48"/>
<polygon fill="midnightblue" stroke="midnightblue" points="3496.65,-90.77 3500.78,-81.01 3491.47,-86.06 3496.65,-90.77"/>
</g>
<!-- Node34 -->
<g id="node34" class="node">
<title>Node34</title>
<g id="a_node34"><a xlink:title=" ">
<polygon fill="none" stroke="#bfbfbf" points="3685.5,-62 3685.5,-81 3823.5,-81 3823.5,-62 3685.5,-62"/>
<text text-anchor="middle" x="3754.5" y="-69" font-family="FreeSans.ttf" font-size="10.00">yarp/os/LogComponent.h</text>
</a>
</g>
</g>
<!-- Node33&#45;&gt;Node34 -->
<g id="edge37" class="edge">
<title>Node33&#45;&gt;Node34</title>
<path fill="none" stroke="midnightblue" d="M3629.42,-123.48C3654.25,-113.36 3695.84,-96.4 3724.19,-84.85"/>
<polygon fill="midnightblue" stroke="midnightblue" points="3725.68,-88.02 3733.62,-81.01 3723.04,-81.54 3725.68,-88.02"/>
</g>
<!-- Node35 -->
<g id="node35" class="node">
<title>Node35</title>
<g id="a_node35"><a xlink:title=" ">
<polygon fill="none" stroke="#bfbfbf" points="3550,-62 3550,-81 3667,-81 3667,-62 3550,-62"/>
<text text-anchor="middle" x="3608.5" y="-69" font-family="FreeSans.ttf" font-size="10.00">yarp/os/LogStream.h</text>
</a>
</g>
</g>
<!-- Node33&#45;&gt;Node35 -->
<g id="edge38" class="edge">
<title>Node33&#45;&gt;Node35</title>
<path fill="none" stroke="midnightblue" d="M3608.5,-123.48C3608.5,-115.08 3608.5,-101.98 3608.5,-91.16"/>
<polygon fill="midnightblue" stroke="midnightblue" points="3612,-91.01 3608.5,-81.01 3605,-91.01 3612,-91.01"/>
</g>
</g>
</svg>
