<?xml version="1.0" encoding="UTF-8" standalone="no"?>
<!DOCTYPE svg PUBLIC "-//W3C//DTD SVG 1.1//EN"
 "http://www.w3.org/Graphics/SVG/1.1/DTD/svg11.dtd">
<!-- Generated by graphviz version 2.49.0 (20210829.0051)
 -->
<!-- Title: ControlBoardDriverControlMode.cpp Pages: 1 -->
<svg width="4081pt" height="218pt"
 viewBox="0.00 0.00 4080.50 218.00" xmlns="http://www.w3.org/2000/svg" xmlns:xlink="http://www.w3.org/1999/xlink">
<g id="graph0" class="graph" transform="scale(1 1) rotate(0) translate(4 214)">
<title>ControlBoardDriverControlMode.cpp</title>
<!-- Node1 -->
<g id="node1" class="node">
<title>Node1</title>
<g id="a_node1"><a xlink:title=" ">
<polygon fill="#bfbfbf" stroke="black" points="3573.5,-179.5 3573.5,-209.5 3719.5,-209.5 3719.5,-179.5 3573.5,-179.5"/>
<text text-anchor="start" x="3581.5" y="-197.5" font-family="FreeSans.ttf" font-size="10.00">ControlBoardDriverControl</text>
<text text-anchor="middle" x="3646.5" y="-186.5" font-family="FreeSans.ttf" font-size="10.00">Mode.cpp</text>
</a>
</g>
</g>
<!-- Node2 -->
<g id="node2" class="node">
<title>Node2</title>
<g id="a_node2"><a xlink:href="ControlBoardDriver_8h.html" target="_top" xlink:title=" ">
<polygon fill="none" stroke="black" points="1710,-123.5 1710,-142.5 1829,-142.5 1829,-123.5 1710,-123.5"/>
<text text-anchor="middle" x="1769.5" y="-130.5" font-family="FreeSans.ttf" font-size="10.00">ControlBoardDriver.h</text>
</a>
</g>
</g>
<!-- Node1&#45;&gt;Node2 -->
<g id="edge1" class="edge">
<title>Node1&#45;&gt;Node2</title>
<path fill="none" stroke="midnightblue" d="M3573.5,-191.19C3272.97,-181.66 2133.45,-145.54 1839.18,-136.21"/>
<polygon fill="midnightblue" stroke="midnightblue" points="1839.18,-132.71 1829.08,-135.89 1838.96,-139.7 1839.18,-132.71"/>
</g>
<!-- Node22 -->
<g id="node22" class="node">
<title>Node22</title>
<g id="a_node22"><a xlink:title=" ">
<polygon fill="none" stroke="#bfbfbf" points="3368.5,-0.5 3368.5,-19.5 3508.5,-19.5 3508.5,-0.5 3368.5,-0.5"/>
<text text-anchor="middle" x="3438.5" y="-7.5" font-family="FreeSans.ttf" font-size="10.00">gazebo/physics/Model.hh</text>
</a>
</g>
</g>
<!-- Node1&#45;&gt;Node22 -->
<g id="edge36" class="edge">
<title>Node1&#45;&gt;Node22</title>
<path fill="none" stroke="midnightblue" d="M3582.91,-179.39C3559.83,-171.73 3534.92,-160.17 3516.5,-143 3485.24,-113.85 3498.36,-92.12 3475.5,-56 3469.16,-45.98 3460.86,-35.7 3453.73,-27.49"/>
<polygon fill="midnightblue" stroke="midnightblue" points="3456.13,-24.92 3446.86,-19.8 3450.91,-29.59 3456.13,-24.92"/>
</g>
<!-- Node31 -->
<g id="node31" class="node">
<title>Node31</title>
<g id="a_node31"><a xlink:href="ControlBoardLog_8h.html" target="_top" xlink:title=" ">
<polygon fill="none" stroke="black" points="3525,-123.5 3525,-142.5 3632,-142.5 3632,-123.5 3525,-123.5"/>
<text text-anchor="middle" x="3578.5" y="-130.5" font-family="FreeSans.ttf" font-size="10.00">ControlBoardLog.h</text>
</a>
</g>
</g>
<!-- Node1&#45;&gt;Node31 -->
<g id="edge33" class="edge">
<title>Node1&#45;&gt;Node31</title>
<path fill="none" stroke="midnightblue" d="M3630.38,-179.4C3620.1,-170.4 3606.75,-158.72 3596.17,-149.47"/>
<polygon fill="midnightblue" stroke="midnightblue" points="3598.23,-146.61 3588.39,-142.66 3593.62,-151.88 3598.23,-146.61"/>
</g>
<!-- Node34 -->
<g id="node34" class="node">
<title>Node34</title>
<g id="a_node34"><a xlink:title=" ">
<polygon fill="none" stroke="#bfbfbf" points="3650,-123.5 3650,-142.5 3781,-142.5 3781,-123.5 3650,-123.5"/>
<text text-anchor="middle" x="3715.5" y="-130.5" font-family="FreeSans.ttf" font-size="10.00">gazebo/physics/Joint.hh</text>
</a>
</g>
</g>
<!-- Node1&#45;&gt;Node34 -->
<g id="edge37" class="edge">
<title>Node1&#45;&gt;Node34</title>
<path fill="none" stroke="midnightblue" d="M3662.85,-179.4C3673.4,-170.31 3687.1,-158.49 3697.88,-149.19"/>
<polygon fill="midnightblue" stroke="midnightblue" points="3700.17,-151.84 3705.46,-142.66 3695.6,-146.54 3700.17,-151.84"/>
</g>
<!-- Node35 -->
<g id="node35" class="node">
<title>Node35</title>
<g id="a_node35"><a xlink:title=" ">
<polygon fill="none" stroke="#bfbfbf" points="3799,-123.5 3799,-142.5 3960,-142.5 3960,-123.5 3799,-123.5"/>
<text text-anchor="middle" x="3879.5" y="-130.5" font-family="FreeSans.ttf" font-size="10.00">gazebo/transport/Publisher.hh</text>
</a>
</g>
</g>
<!-- Node1&#45;&gt;Node35 -->
<g id="edge38" class="edge">
<title>Node1&#45;&gt;Node35</title>
<path fill="none" stroke="midnightblue" d="M3701.42,-179.47C3742.67,-168.94 3798.38,-154.72 3836.43,-145"/>
<polygon fill="midnightblue" stroke="midnightblue" points="3837.37,-148.37 3846.19,-142.51 3835.63,-141.59 3837.37,-148.37"/>
</g>
<!-- Node36 -->
<g id="node36" class="node">
<title>Node36</title>
<g id="a_node36"><a xlink:title=" ">
<polygon fill="none" stroke="#bfbfbf" points="3978.5,-123.5 3978.5,-142.5 4072.5,-142.5 4072.5,-123.5 3978.5,-123.5"/>
<text text-anchor="middle" x="4025.5" y="-130.5" font-family="FreeSans.ttf" font-size="10.00">yarp/os/Vocab.h</text>
</a>
</g>
</g>
<!-- Node1&#45;&gt;Node36 -->
<g id="edge39" class="edge">
<title>Node1&#45;&gt;Node36</title>
<path fill="none" stroke="midnightblue" d="M3719.63,-182.16C3782.81,-172.34 3876.84,-157.67 3968.45,-143.16"/>
<polygon fill="midnightblue" stroke="midnightblue" points="3969.12,-146.6 3978.45,-141.58 3968.02,-139.69 3969.12,-146.6"/>
</g>
<!-- Node3 -->
<g id="node3" class="node">
<title>Node3</title>
<g id="a_node3"><a xlink:title=" ">
<polygon fill="none" stroke="#bfbfbf" points="1247.5,-62 1247.5,-81 1351.5,-81 1351.5,-62 1247.5,-62"/>
<text text-anchor="middle" x="1299.5" y="-69" font-family="FreeSans.ttf" font-size="10.00">yarp/os/Property.h</text>
</a>
</g>
</g>
<!-- Node2&#45;&gt;Node3 -->
<g id="edge2" class="edge">
<title>Node2&#45;&gt;Node3</title>
<path fill="none" stroke="midnightblue" d="M1709.91,-127.77C1629.99,-121.57 1483.85,-108.36 1360.5,-87 1354.52,-85.96 1348.26,-84.69 1342.11,-83.34"/>
<polygon fill="midnightblue" stroke="midnightblue" points="1342.48,-79.83 1331.95,-81 1340.91,-86.65 1342.48,-79.83"/>
</g>
<!-- Node4 -->
<g id="node4" class="node">
<title>Node4</title>
<g id="a_node4"><a xlink:title=" ">
<polygon fill="none" stroke="#bfbfbf" points="2068.5,-62 2068.5,-81 2160.5,-81 2160.5,-62 2068.5,-62"/>
<text text-anchor="middle" x="2114.5" y="-69" font-family="FreeSans.ttf" font-size="10.00">yarp/os/Value.h</text>
</a>
</g>
</g>
<!-- Node2&#45;&gt;Node4 -->
<g id="edge3" class="edge">
<title>Node2&#45;&gt;Node4</title>
<path fill="none" stroke="midnightblue" d="M1829.03,-124.48C1887.68,-116.66 1979.68,-103.3 2058.5,-87 2063.53,-85.96 2068.79,-84.75 2073.99,-83.49"/>
<polygon fill="midnightblue" stroke="midnightblue" points="2074.97,-86.86 2083.82,-81.03 2073.27,-80.07 2074.97,-86.86"/>
</g>
<!-- Node5 -->
<g id="node5" class="node">
<title>Node5</title>
<g id="a_node5"><a xlink:title=" ">
<polygon fill="none" stroke="#bfbfbf" points="2179,-62 2179,-81 2286,-81 2286,-62 2179,-62"/>
<text text-anchor="middle" x="2232.5" y="-69" font-family="FreeSans.ttf" font-size="10.00">yarp/dev/Drivers.h</text>
</a>
</g>
</g>
<!-- Node2&#45;&gt;Node5 -->
<g id="edge4" class="edge">
<title>Node2&#45;&gt;Node5</title>
<path fill="none" stroke="midnightblue" d="M1829.1,-127.43C1907.52,-120.94 2049.47,-107.5 2169.5,-87 2175.74,-85.93 2182.3,-84.63 2188.72,-83.25"/>
<polygon fill="midnightblue" stroke="midnightblue" points="2189.64,-86.63 2198.64,-81.04 2188.12,-79.8 2189.64,-86.63"/>
</g>
<!-- Node6 -->
<g id="node6" class="node">
<title>Node6</title>
<g id="a_node6"><a xlink:title=" ">
<polygon fill="none" stroke="#bfbfbf" points="2304.5,-62 2304.5,-81 2426.5,-81 2426.5,-62 2304.5,-62"/>
<text text-anchor="middle" x="2365.5" y="-69" font-family="FreeSans.ttf" font-size="10.00">yarp/dev/PolyDriver.h</text>
</a>
</g>
</g>
<!-- Node2&#45;&gt;Node6 -->
<g id="edge5" class="edge">
<title>Node2&#45;&gt;Node6</title>
<path fill="none" stroke="midnightblue" d="M1829.2,-129.14C1926.88,-123.96 2126.77,-111.23 2294.5,-87 2302.03,-85.91 2309.97,-84.53 2317.7,-83.05"/>
<polygon fill="midnightblue" stroke="midnightblue" points="2318.56,-86.45 2327.69,-81.07 2317.2,-79.58 2318.56,-86.45"/>
</g>
<!-- Node7 -->
<g id="node7" class="node">
<title>Node7</title>
<g id="a_node7"><a xlink:title=" ">
<polygon fill="none" stroke="#bfbfbf" points="2445,-62 2445,-81 2570,-81 2570,-62 2445,-62"/>
<text text-anchor="middle" x="2507.5" y="-69" font-family="FreeSans.ttf" font-size="10.00">yarp/dev/IPidControl.h</text>
</a>
</g>
</g>
<!-- Node2&#45;&gt;Node7 -->
<g id="edge6" class="edge">
<title>Node2&#45;&gt;Node7</title>
<path fill="none" stroke="midnightblue" d="M1829.01,-130.6C1945.78,-127.27 2212.95,-116.8 2435.5,-87 2443.41,-85.94 2451.75,-84.53 2459.85,-83.01"/>
<polygon fill="midnightblue" stroke="midnightblue" points="2460.78,-86.4 2469.92,-81.04 2459.43,-79.53 2460.78,-86.4"/>
</g>
<!-- Node8 -->
<g id="node8" class="node">
<title>Node8</title>
<g id="a_node8"><a xlink:title=" ">
<polygon fill="none" stroke="#bfbfbf" points="2588.5,-62 2588.5,-81 2722.5,-81 2722.5,-62 2588.5,-62"/>
<text text-anchor="middle" x="2655.5" y="-69" font-family="FreeSans.ttf" font-size="10.00">yarp/dev/IPWMControl.h</text>
</a>
</g>
</g>
<!-- Node2&#45;&gt;Node8 -->
<g id="edge7" class="edge">
<title>Node2&#45;&gt;Node8</title>
<path fill="none" stroke="midnightblue" d="M1829.11,-131.34C1963.38,-129.28 2299.56,-120.87 2578.5,-87 2587.33,-85.93 2596.67,-84.46 2605.69,-82.86"/>
<polygon fill="midnightblue" stroke="midnightblue" points="2606.49,-86.27 2615.69,-81.02 2605.22,-79.39 2606.49,-86.27"/>
</g>
<!-- Node9 -->
<g id="node9" class="node">
<title>Node9</title>
<g id="a_node9"><a xlink:title=" ">
<polygon fill="none" stroke="#bfbfbf" points="2740.5,-62 2740.5,-81 2886.5,-81 2886.5,-62 2740.5,-62"/>
<text text-anchor="middle" x="2813.5" y="-69" font-family="FreeSans.ttf" font-size="10.00">yarp/dev/ICurrentControl.h</text>
</a>
</g>
</g>
<!-- Node2&#45;&gt;Node9 -->
<g id="edge8" class="edge">
<title>Node2&#45;&gt;Node9</title>
<path fill="none" stroke="midnightblue" d="M1829.1,-131.86C1980.4,-130.95 2391.48,-124.86 2731.5,-87 2741.1,-85.93 2751.27,-84.43 2761.06,-82.8"/>
<polygon fill="midnightblue" stroke="midnightblue" points="2761.83,-86.22 2771.09,-81.07 2760.64,-79.32 2761.83,-86.22"/>
</g>
<!-- Node10 -->
<g id="node10" class="node">
<title>Node10</title>
<g id="a_node10"><a xlink:title=" ">
<polygon fill="none" stroke="#bfbfbf" points="2905,-56.5 2905,-86.5 3080,-86.5 3080,-56.5 2905,-56.5"/>
<text text-anchor="start" x="2913" y="-74.5" font-family="FreeSans.ttf" font-size="10.00">yarp/dev/ControlBoardInterfaces</text>
<text text-anchor="middle" x="2992.5" y="-63.5" font-family="FreeSans.ttf" font-size="10.00">Impl.h</text>
</a>
</g>
</g>
<!-- Node2&#45;&gt;Node10 -->
<g id="edge9" class="edge">
<title>Node2&#45;&gt;Node10</title>
<path fill="none" stroke="midnightblue" d="M1829.16,-131.89C1995.94,-131.1 2481.25,-125.47 2894.72,-86.99"/>
<polygon fill="midnightblue" stroke="midnightblue" points="2895.15,-90.47 2904.78,-86.05 2894.5,-83.5 2895.15,-90.47"/>
</g>
<!-- Node11 -->
<g id="node11" class="node">
<title>Node11</title>
<g id="a_node11"><a xlink:title=" ">
<polygon fill="none" stroke="#bfbfbf" points="3098.5,-62 3098.5,-81 3282.5,-81 3282.5,-62 3098.5,-62"/>
<text text-anchor="middle" x="3190.5" y="-69" font-family="FreeSans.ttf" font-size="10.00">yarp/dev/ControlBoardInterfaces.h</text>
</a>
</g>
</g>
<!-- Node2&#45;&gt;Node11 -->
<g id="edge10" class="edge">
<title>Node2&#45;&gt;Node11</title>
<path fill="none" stroke="midnightblue" d="M1829.13,-132.24C2015.53,-132.49 2603.76,-129.6 3088.5,-87 3101.29,-85.88 3114.94,-84.24 3127.94,-82.47"/>
<polygon fill="midnightblue" stroke="midnightblue" points="3128.79,-85.89 3138.21,-81.03 3127.82,-78.95 3128.79,-85.89"/>
</g>
<!-- Node12 -->
<g id="node12" class="node">
<title>Node12</title>
<g id="a_node12"><a xlink:title=" ">
<polygon fill="none" stroke="#bfbfbf" points="0,-62 0,-81 137,-81 137,-62 0,-62"/>
<text text-anchor="middle" x="68.5" y="-69" font-family="FreeSans.ttf" font-size="10.00">yarp/dev/IControlMode.h</text>
</a>
</g>
</g>
<!-- Node2&#45;&gt;Node12 -->
<g id="edge11" class="edge">
<title>Node2&#45;&gt;Node12</title>
<path fill="none" stroke="midnightblue" d="M1709.85,-131.59C1455.26,-129.67 458.51,-120.12 146.5,-87 137.15,-86.01 127.23,-84.51 117.72,-82.85"/>
<polygon fill="midnightblue" stroke="midnightblue" points="118.07,-79.36 107.61,-81 116.81,-86.25 118.07,-79.36"/>
</g>
<!-- Node13 -->
<g id="node13" class="node">
<title>Node13</title>
<g id="a_node13"><a xlink:title=" ">
<polygon fill="none" stroke="#bfbfbf" points="155.5,-62 155.5,-81 309.5,-81 309.5,-62 155.5,-62"/>
<text text-anchor="middle" x="232.5" y="-69" font-family="FreeSans.ttf" font-size="10.00">yarp/dev/IInteractionMode.h</text>
</a>
</g>
</g>
<!-- Node2&#45;&gt;Node13 -->
<g id="edge12" class="edge">
<title>Node2&#45;&gt;Node13</title>
<path fill="none" stroke="midnightblue" d="M1709.89,-131.23C1472.66,-128.02 595.16,-114.48 318.5,-87 308,-85.96 296.83,-84.41 286.15,-82.7"/>
<polygon fill="midnightblue" stroke="midnightblue" points="286.53,-79.22 276.1,-81.03 285.39,-86.12 286.53,-79.22"/>
</g>
<!-- Node14 -->
<g id="node14" class="node">
<title>Node14</title>
<g id="a_node14"><a xlink:title=" ">
<polygon fill="none" stroke="#bfbfbf" points="327.5,-62 327.5,-81 485.5,-81 485.5,-62 327.5,-62"/>
<text text-anchor="middle" x="406.5" y="-69" font-family="FreeSans.ttf" font-size="10.00">yarp/dev/IRemoteVariables.h</text>
</a>
</g>
</g>
<!-- Node2&#45;&gt;Node14 -->
<g id="edge13" class="edge">
<title>Node2&#45;&gt;Node14</title>
<path fill="none" stroke="midnightblue" d="M1709.9,-132.6C1527.49,-133.86 960.92,-133.47 494.5,-87 483.87,-85.94 472.59,-84.4 461.77,-82.72"/>
<polygon fill="midnightblue" stroke="midnightblue" points="462,-79.21 451.57,-81.07 460.89,-86.12 462,-79.21"/>
</g>
<!-- Node15 -->
<g id="node15" class="node">
<title>Node15</title>
<g id="a_node15"><a xlink:title=" ">
<polygon fill="none" stroke="#bfbfbf" points="504,-62 504,-81 677,-81 677,-62 504,-62"/>
<text text-anchor="middle" x="590.5" y="-69" font-family="FreeSans.ttf" font-size="10.00">yarp/dev/IVirtualAnalogSensor.h</text>
</a>
</g>
</g>
<!-- Node2&#45;&gt;Node15 -->
<g id="edge14" class="edge">
<title>Node2&#45;&gt;Node15</title>
<path fill="none" stroke="midnightblue" d="M1709.76,-131.79C1545.86,-130.71 1075.43,-124.34 686.5,-87 674.7,-85.87 662.14,-84.26 650.13,-82.53"/>
<polygon fill="midnightblue" stroke="midnightblue" points="650.6,-79.06 640.2,-81.05 649.58,-85.99 650.6,-79.06"/>
</g>
<!-- Node16 -->
<g id="node16" class="node">
<title>Node16</title>
<g id="a_node16"><a xlink:title=" ">
<polygon fill="none" stroke="#bfbfbf" points="695.5,-62 695.5,-81 793.5,-81 793.5,-62 695.5,-62"/>
<text text-anchor="middle" x="744.5" y="-69" font-family="FreeSans.ttf" font-size="10.00">yarp/sig/Vector.h</text>
</a>
</g>
</g>
<!-- Node2&#45;&gt;Node16 -->
<g id="edge15" class="edge">
<title>Node2&#45;&gt;Node16</title>
<path fill="none" stroke="midnightblue" d="M1709.89,-130.78C1527.54,-126.79 978.97,-112.9 802.5,-87 796.45,-86.11 790.11,-84.86 783.93,-83.47"/>
<polygon fill="midnightblue" stroke="midnightblue" points="784.32,-79.96 773.78,-81.02 782.68,-86.77 784.32,-79.96"/>
</g>
<!-- Node17 -->
<g id="node17" class="node">
<title>Node17</title>
<g id="a_node17"><a xlink:title=" ">
<polygon fill="none" stroke="#bfbfbf" points="812,-62 812,-81 901,-81 901,-62 812,-62"/>
<text text-anchor="middle" x="856.5" y="-69" font-family="FreeSans.ttf" font-size="10.00">yarp/os/Time.h</text>
</a>
</g>
</g>
<!-- Node2&#45;&gt;Node17 -->
<g id="edge16" class="edge">
<title>Node2&#45;&gt;Node17</title>
<path fill="none" stroke="midnightblue" d="M1709.76,-130.5C1541.34,-126.02 1064.91,-111.5 910.5,-87 904.99,-86.13 899.23,-84.91 893.61,-83.56"/>
<polygon fill="midnightblue" stroke="midnightblue" points="894.29,-80.12 883.73,-81.01 892.54,-86.9 894.29,-80.12"/>
</g>
<!-- Node18 -->
<g id="node18" class="node">
<title>Node18</title>
<g id="a_node18"><a xlink:title=" ">
<polygon fill="none" stroke="#bfbfbf" points="919.5,-62 919.5,-81 1015.5,-81 1015.5,-62 919.5,-62"/>
<text text-anchor="middle" x="967.5" y="-69" font-family="FreeSans.ttf" font-size="10.00">yarp/os/Stamp.h</text>
</a>
</g>
</g>
<!-- Node2&#45;&gt;Node18 -->
<g id="edge17" class="edge">
<title>Node2&#45;&gt;Node18</title>
<path fill="none" stroke="midnightblue" d="M1709.7,-132.2C1582.7,-131.79 1277.04,-126.39 1024.5,-87 1018.62,-86.08 1012.46,-84.83 1006.46,-83.45"/>
<polygon fill="midnightblue" stroke="midnightblue" points="1007.12,-80 996.57,-81.02 1005.45,-86.8 1007.12,-80"/>
</g>
<!-- Node19 -->
<g id="node19" class="node">
<title>Node19</title>
<g id="a_node19"><a xlink:title=" ">
<polygon fill="none" stroke="#bfbfbf" points="1034,-62 1034,-81 1153,-81 1153,-62 1034,-62"/>
<text text-anchor="middle" x="1093.5" y="-69" font-family="FreeSans.ttf" font-size="10.00">boost/shared_ptr.hpp</text>
</a>
</g>
</g>
<!-- Node2&#45;&gt;Node19 -->
<g id="edge18" class="edge">
<title>Node2&#45;&gt;Node19</title>
<path fill="none" stroke="midnightblue" d="M1709.87,-129.89C1601.48,-125.54 1365.1,-113.65 1167.5,-87 1159.38,-85.91 1150.81,-84.48 1142.5,-82.95"/>
<polygon fill="midnightblue" stroke="midnightblue" points="1143.01,-79.48 1132.53,-81.05 1141.7,-86.36 1143.01,-79.48"/>
</g>
<!-- Node20 -->
<g id="node20" class="node">
<title>Node20</title>
<g id="a_node20"><a xlink:href="ControlBoardDriverRange_8h.html" target="_top" xlink:title=" ">
<polygon fill="none" stroke="black" points="1139.5,-0.5 1139.5,-19.5 1289.5,-19.5 1289.5,-0.5 1139.5,-0.5"/>
<text text-anchor="middle" x="1214.5" y="-7.5" font-family="FreeSans.ttf" font-size="10.00">ControlBoardDriverRange.h</text>
</a>
</g>
</g>
<!-- Node2&#45;&gt;Node20 -->
<g id="edge19" class="edge">
<title>Node2&#45;&gt;Node20</title>
<path fill="none" stroke="midnightblue" d="M1709.9,-131.14C1576.21,-128.64 1261.33,-119.35 1226.5,-87 1211.08,-72.68 1210.09,-47.22 1211.62,-29.74"/>
<polygon fill="midnightblue" stroke="midnightblue" points="1215.12,-29.95 1212.85,-19.6 1208.17,-29.11 1215.12,-29.95"/>
</g>
<!-- Node21 -->
<g id="node21" class="node">
<title>Node21</title>
<g id="a_node21"><a xlink:href="ControlBoardDriverTrajectory_8h.html" target="_top" xlink:title=" ">
<polygon fill="none" stroke="black" points="3300.5,-62 3300.5,-81 3466.5,-81 3466.5,-62 3300.5,-62"/>
<text text-anchor="middle" x="3383.5" y="-69" font-family="FreeSans.ttf" font-size="10.00">ControlBoardDriverTrajectory.h</text>
</a>
</g>
</g>
<!-- Node2&#45;&gt;Node21 -->
<g id="edge20" class="edge">
<title>Node2&#45;&gt;Node21</title>
<path fill="none" stroke="midnightblue" d="M1829.09,-131.25C2073.51,-128.01 2999.99,-114.17 3291.5,-87 3302.96,-85.93 3315.15,-84.34 3326.79,-82.59"/>
<polygon fill="midnightblue" stroke="midnightblue" points="3327.5,-86.02 3336.84,-81.03 3326.42,-79.11 3327.5,-86.02"/>
</g>
<!-- Node24 -->
<g id="node24" class="node">
<title>Node24</title>
<g id="a_node24"><a xlink:href="ControlBoardDriverCoupling_8h.html" target="_top" xlink:title=" ">
<polygon fill="none" stroke="black" points="1369.5,-62 1369.5,-81 1531.5,-81 1531.5,-62 1369.5,-62"/>
<text text-anchor="middle" x="1450.5" y="-69" font-family="FreeSans.ttf" font-size="10.00">ControlBoardDriverCoupling.h</text>
</a>
</g>
</g>
<!-- Node2&#45;&gt;Node24 -->
<g id="edge23" class="edge">
<title>Node2&#45;&gt;Node24</title>
<path fill="none" stroke="midnightblue" d="M1723.8,-123.48C1666.35,-112.76 1567.82,-94.38 1506.08,-82.87"/>
<polygon fill="midnightblue" stroke="midnightblue" points="1506.59,-79.4 1496.12,-81.01 1505.31,-86.28 1506.59,-79.4"/>
</g>
<!-- Node25 -->
<g id="node25" class="node">
<title>Node25</title>
<g id="a_node25"><a xlink:title=" ">
<polygon fill="none" stroke="#bfbfbf" points="1339,-0.5 1339,-19.5 1432,-19.5 1432,-0.5 1339,-0.5"/>
<text text-anchor="middle" x="1385.5" y="-7.5" font-family="FreeSans.ttf" font-size="10.00">unordered_map</text>
</a>
</g>
</g>
<!-- Node2&#45;&gt;Node25 -->
<g id="edge31" class="edge">
<title>Node2&#45;&gt;Node25</title>
<path fill="none" stroke="midnightblue" d="M1709.87,-131.39C1577.82,-129.41 1269.88,-121.15 1238.5,-87 1206.84,-52.55 1274.96,-31.17 1328.72,-20.18"/>
<polygon fill="midnightblue" stroke="midnightblue" points="1329.42,-23.61 1338.56,-18.24 1328.07,-16.74 1329.42,-23.61"/>
</g>
<!-- Node26 -->
<g id="node26" class="node">
<title>Node26</title>
<g id="a_node26"><a xlink:title=" ">
<polygon fill="none" stroke="#bfbfbf" points="1549.5,-62 1549.5,-81 1681.5,-81 1681.5,-62 1549.5,-62"/>
<text text-anchor="middle" x="1615.5" y="-69" font-family="FreeSans.ttf" font-size="10.00">gazebo/common/PID.hh</text>
</a>
</g>
</g>
<!-- Node2&#45;&gt;Node26 -->
<g id="edge27" class="edge">
<title>Node2&#45;&gt;Node26</title>
<path fill="none" stroke="midnightblue" d="M1747.44,-123.48C1721.13,-113.31 1676.99,-96.26 1647.08,-84.7"/>
<polygon fill="midnightblue" stroke="midnightblue" points="1648.11,-81.35 1637.52,-81.01 1645.59,-87.88 1648.11,-81.35"/>
</g>
<!-- Node27 -->
<g id="node27" class="node">
<title>Node27</title>
<g id="a_node27"><a xlink:title=" ">
<polygon fill="none" stroke="#bfbfbf" points="1699.5,-62 1699.5,-81 1839.5,-81 1839.5,-62 1699.5,-62"/>
<text text-anchor="middle" x="1769.5" y="-69" font-family="FreeSans.ttf" font-size="10.00">gazebo/common/Time.hh</text>
</a>
</g>
</g>
<!-- Node2&#45;&gt;Node27 -->
<g id="edge28" class="edge">
<title>Node2&#45;&gt;Node27</title>
<path fill="none" stroke="midnightblue" d="M1769.5,-123.48C1769.5,-115.08 1769.5,-101.98 1769.5,-91.16"/>
<polygon fill="midnightblue" stroke="midnightblue" points="1773,-91.01 1769.5,-81.01 1766,-91.01 1773,-91.01"/>
</g>
<!-- Node28 -->
<g id="node28" class="node">
<title>Node28</title>
<g id="a_node28"><a xlink:title=" ">
<polygon fill="none" stroke="#bfbfbf" points="1857.5,-62 1857.5,-81 1901.5,-81 1901.5,-62 1857.5,-62"/>
<text text-anchor="middle" x="1879.5" y="-69" font-family="FreeSans.ttf" font-size="10.00">string</text>
</a>
</g>
</g>
<!-- Node2&#45;&gt;Node28 -->
<g id="edge29" class="edge">
<title>Node2&#45;&gt;Node28</title>
<path fill="none" stroke="midnightblue" d="M1785.26,-123.48C1803.48,-113.62 1833.67,-97.29 1854.97,-85.77"/>
<polygon fill="midnightblue" stroke="midnightblue" points="1856.64,-88.85 1863.77,-81.01 1853.31,-82.69 1856.64,-88.85"/>
</g>
<!-- Node29 -->
<g id="node29" class="node">
<title>Node29</title>
<g id="a_node29"><a xlink:title=" ">
<polygon fill="none" stroke="#bfbfbf" points="1920,-62 1920,-81 1985,-81 1985,-62 1920,-62"/>
<text text-anchor="middle" x="1952.5" y="-69" font-family="FreeSans.ttf" font-size="10.00">functional</text>
</a>
</g>
</g>
<!-- Node2&#45;&gt;Node29 -->
<g id="edge30" class="edge">
<title>Node2&#45;&gt;Node29</title>
<path fill="none" stroke="midnightblue" d="M1796.86,-123.48C1825.31,-114.57 1871.12,-100.08 1910.5,-87 1913.09,-86.14 1915.76,-85.24 1918.45,-84.33"/>
<polygon fill="midnightblue" stroke="midnightblue" points="1919.77,-87.58 1928.1,-81.03 1917.51,-80.95 1919.77,-87.58"/>
</g>
<!-- Node30 -->
<g id="node30" class="node">
<title>Node30</title>
<g id="a_node30"><a xlink:title=" ">
<polygon fill="none" stroke="#bfbfbf" points="2003,-62 2003,-81 2050,-81 2050,-62 2003,-62"/>
<text text-anchor="middle" x="2026.5" y="-69" font-family="FreeSans.ttf" font-size="10.00">vector</text>
</a>
</g>
</g>
<!-- Node2&#45;&gt;Node30 -->
<g id="edge32" class="edge">
<title>Node2&#45;&gt;Node30</title>
<path fill="none" stroke="midnightblue" d="M1829.34,-123.58C1874.97,-116.3 1939.04,-104.21 1993.5,-87 1995.42,-86.39 1997.39,-85.71 1999.35,-84.97"/>
<polygon fill="midnightblue" stroke="midnightblue" points="2001.03,-88.07 2008.96,-81.04 1998.38,-81.59 2001.03,-88.07"/>
</g>
<!-- Node21&#45;&gt;Node22 -->
<g id="edge21" class="edge">
<title>Node21&#45;&gt;Node22</title>
<path fill="none" stroke="midnightblue" d="M3391.38,-61.98C3399.79,-52.87 3413.32,-38.24 3423.73,-26.98"/>
<polygon fill="midnightblue" stroke="midnightblue" points="3426.42,-29.23 3430.63,-19.51 3421.28,-24.48 3426.42,-29.23"/>
</g>
<!-- Node23 -->
<g id="node23" class="node">
<title>Node23</title>
<g id="a_node23"><a xlink:title=" ">
<polygon fill="none" stroke="#bfbfbf" points="3302.5,-0.5 3302.5,-19.5 3350.5,-19.5 3350.5,-0.5 3302.5,-0.5"/>
<text text-anchor="middle" x="3326.5" y="-7.5" font-family="FreeSans.ttf" font-size="10.00">mutex</text>
</a>
</g>
</g>
<!-- Node21&#45;&gt;Node23 -->
<g id="edge22" class="edge">
<title>Node21&#45;&gt;Node23</title>
<path fill="none" stroke="midnightblue" d="M3375.33,-61.98C3366.61,-52.87 3352.6,-38.24 3341.81,-26.98"/>
<polygon fill="midnightblue" stroke="midnightblue" points="3344.1,-24.31 3334.65,-19.51 3339.04,-29.15 3344.1,-24.31"/>
</g>
<!-- Node24&#45;&gt;Node20 -->
<g id="edge24" class="edge">
<title>Node24&#45;&gt;Node20</title>
<path fill="none" stroke="midnightblue" d="M1416.69,-61.98C1374.98,-51.46 1303.99,-33.56 1258.19,-22.01"/>
<polygon fill="midnightblue" stroke="midnightblue" points="1258.8,-18.56 1248.25,-19.51 1257.09,-25.35 1258.8,-18.56"/>
</g>
<!-- Node24&#45;&gt;Node22 -->
<g id="edge25" class="edge">
<title>Node24&#45;&gt;Node22</title>
<path fill="none" stroke="midnightblue" d="M1495.67,-61.96C1509.95,-59.59 1525.84,-57.32 1540.5,-56 2342.5,16.18 2550.96,-73.08 3358.2,-20.01"/>
<polygon fill="midnightblue" stroke="midnightblue" points="3358.57,-23.49 3368.32,-19.34 3358.11,-16.51 3358.57,-23.49"/>
</g>
<!-- Node24&#45;&gt;Node25 -->
<g id="edge26" class="edge">
<title>Node24&#45;&gt;Node25</title>
<path fill="none" stroke="midnightblue" d="M1441.19,-61.98C1431.05,-52.7 1414.64,-37.67 1402.25,-26.33"/>
<polygon fill="midnightblue" stroke="midnightblue" points="1404.54,-23.68 1394.8,-19.51 1399.81,-28.84 1404.54,-23.68"/>
</g>
<!-- Node32 -->
<g id="node32" class="node">
<title>Node32</title>
<g id="a_node32"><a xlink:title=" ">
<polygon fill="none" stroke="#bfbfbf" points="3658.5,-62 3658.5,-81 3796.5,-81 3796.5,-62 3658.5,-62"/>
<text text-anchor="middle" x="3727.5" y="-69" font-family="FreeSans.ttf" font-size="10.00">yarp/os/LogComponent.h</text>
</a>
</g>
</g>
<!-- Node31&#45;&gt;Node32 -->
<g id="edge34" class="edge">
<title>Node31&#45;&gt;Node32</title>
<path fill="none" stroke="midnightblue" d="M3599.85,-123.48C3625.19,-113.36 3667.64,-96.4 3696.57,-84.85"/>
<polygon fill="midnightblue" stroke="midnightblue" points="3698.2,-87.97 3706.19,-81.01 3695.61,-81.47 3698.2,-87.97"/>
</g>
<!-- Node33 -->
<g id="node33" class="node">
<title>Node33</title>
<g id="a_node33"><a xlink:title=" ">
<polygon fill="none" stroke="#bfbfbf" points="3523,-62 3523,-81 3640,-81 3640,-62 3523,-62"/>
<text text-anchor="middle" x="3581.5" y="-69" font-family="FreeSans.ttf" font-size="10.00">yarp/os/LogStream.h</text>
</a>
</g>
</g>
<!-- Node31&#45;&gt;Node33 -->
<g id="edge35" class="edge">
<title>Node31&#45;&gt;Node33</title>
<path fill="none" stroke="midnightblue" d="M3578.93,-123.48C3579.35,-115.08 3580.01,-101.98 3580.56,-91.16"/>
<polygon fill="midnightblue" stroke="midnightblue" points="3584.06,-91.17 3581.07,-81.01 3577.07,-90.82 3584.06,-91.17"/>
</g>
</g>
</svg>
