<?xml version="1.0" encoding="UTF-8" standalone="no"?>
<!DOCTYPE svg PUBLIC "-//W3C//DTD SVG 1.1//EN"
 "http://www.w3.org/Graphics/SVG/1.1/DTD/svg11.dtd">
<!-- Generated by graphviz version 2.49.0 (20210829.0051)
 -->
<!-- Title: ControlBoard.cc Pages: 1 -->
<svg width="4756pt" height="207pt"
 viewBox="0.00 0.00 4756.19 207.00" xmlns="http://www.w3.org/2000/svg" xmlns:xlink="http://www.w3.org/1999/xlink">
<g id="graph0" class="graph" transform="scale(1 1) rotate(0) translate(4 203)">
<title>ControlBoard.cc</title>
<!-- Node1 -->
<g id="node1" class="node">
<title>Node1</title>
<g id="a_node1"><a xlink:title=" ">
<polygon fill="#bfbfbf" stroke="black" points="3768.69,-179.5 3768.69,-198.5 3862.69,-198.5 3862.69,-179.5 3768.69,-179.5"/>
<text text-anchor="middle" x="3815.69" y="-186.5" font-family="FreeSans.ttf" font-size="10.00">ControlBoard.cc</text>
</a>
</g>
</g>
<!-- Node2 -->
<g id="node2" class="node">
<title>Node2</title>
<g id="a_node2"><a xlink:href="ControlBoard_8hh.html" target="_top" xlink:title=" ">
<polygon fill="none" stroke="black" points="357.19,-123.5 357.19,-142.5 452.19,-142.5 452.19,-123.5 357.19,-123.5"/>
<text text-anchor="middle" x="404.69" y="-130.5" font-family="FreeSans.ttf" font-size="10.00">ControlBoard.hh</text>
</a>
</g>
</g>
<!-- Node1&#45;&gt;Node2 -->
<g id="edge1" class="edge">
<title>Node1&#45;&gt;Node2</title>
<path fill="none" stroke="midnightblue" d="M3768.45,-187.25C3391.68,-181.29 877.89,-141.49 462.71,-134.92"/>
<polygon fill="midnightblue" stroke="midnightblue" points="462.5,-131.41 452.44,-134.76 462.39,-138.41 462.5,-131.41"/>
</g>
<!-- Node7 -->
<g id="node7" class="node">
<title>Node7</title>
<g id="a_node7"><a xlink:href="ControlBoardDriver_8h.html" target="_top" xlink:title=" ">
<polygon fill="none" stroke="black" points="2179.19,-123.5 2179.19,-142.5 2298.19,-142.5 2298.19,-123.5 2179.19,-123.5"/>
<text text-anchor="middle" x="2238.69" y="-130.5" font-family="FreeSans.ttf" font-size="10.00">ControlBoardDriver.h</text>
</a>
</g>
</g>
<!-- Node1&#45;&gt;Node7 -->
<g id="edge6" class="edge">
<title>Node1&#45;&gt;Node7</title>
<path fill="none" stroke="midnightblue" d="M3768.49,-186.38C3543.21,-178.67 2577.05,-145.59 2308.3,-136.38"/>
<polygon fill="midnightblue" stroke="midnightblue" points="2308.39,-132.88 2298.28,-136.04 2308.15,-139.88 2308.39,-132.88"/>
</g>
<!-- Node26 -->
<g id="node26" class="node">
<title>Node26</title>
<g id="a_node26"><a xlink:title=" ">
<polygon fill="none" stroke="#bfbfbf" points="1560.69,-0.5 1560.69,-19.5 1700.69,-19.5 1700.69,-0.5 1560.69,-0.5"/>
<text text-anchor="middle" x="1630.69" y="-7.5" font-family="FreeSans.ttf" font-size="10.00">gazebo/physics/Model.hh</text>
</a>
</g>
</g>
<!-- Node1&#45;&gt;Node26 -->
<g id="edge56" class="edge">
<title>Node1&#45;&gt;Node26</title>
<path fill="none" stroke="midnightblue" d="M3768.49,-187.86C3354.43,-186.55 351.57,-175.96 165.69,-143 91.92,-129.92 49.98,-148.15 6.69,-87 -1.27,-75.76 -2.92,-65.88 6.69,-56 20.29,-42.01 1224.46,-18.57 1550.22,-12.48"/>
<polygon fill="midnightblue" stroke="midnightblue" points="1550.59,-15.98 1560.52,-12.29 1550.46,-8.98 1550.59,-15.98"/>
</g>
<!-- Node34 -->
<g id="node34" class="node">
<title>Node34</title>
<g id="a_node34"><a xlink:href="ControlBoardLog_8h.html" target="_top" xlink:title=" ">
<polygon fill="none" stroke="black" points="4133.19,-123.5 4133.19,-142.5 4240.19,-142.5 4240.19,-123.5 4133.19,-123.5"/>
<text text-anchor="middle" x="4186.69" y="-130.5" font-family="FreeSans.ttf" font-size="10.00">ControlBoardLog.h</text>
</a>
</g>
</g>
<!-- Node1&#45;&gt;Node34 -->
<g id="edge38" class="edge">
<title>Node1&#45;&gt;Node34</title>
<path fill="none" stroke="midnightblue" d="M3863.06,-181.11C3929.1,-171.49 4049.04,-154.03 4122.9,-143.28"/>
<polygon fill="midnightblue" stroke="midnightblue" points="4123.62,-146.72 4133.01,-141.81 4122.61,-139.79 4123.62,-146.72"/>
</g>
<!-- Node37 -->
<g id="node37" class="node">
<title>Node37</title>
<g id="a_node37"><a xlink:href="common_8h.html" target="_top" xlink:title=" ">
<polygon fill="none" stroke="black" points="174.69,-123.5 174.69,-142.5 338.69,-142.5 338.69,-123.5 174.69,-123.5"/>
<text text-anchor="middle" x="256.69" y="-130.5" font-family="FreeSans.ttf" font-size="10.00">GazeboYarpPlugins/common.h</text>
</a>
</g>
</g>
<!-- Node1&#45;&gt;Node37 -->
<g id="edge41" class="edge">
<title>Node1&#45;&gt;Node37</title>
<path fill="none" stroke="midnightblue" d="M3768.49,-187.94C3407.51,-187.43 1078.85,-182.66 349.1,-143.02"/>
<polygon fill="midnightblue" stroke="midnightblue" points="349.18,-139.52 339.01,-142.46 348.8,-146.5 349.18,-139.52"/>
</g>
<!-- Node39 -->
<g id="node39" class="node">
<title>Node39</title>
<g id="a_node39"><a xlink:href="Handler_8hh.html" target="_top" xlink:title=" ">
<polygon fill="none" stroke="black" points="3733.69,-123.5 3733.69,-142.5 3897.69,-142.5 3897.69,-123.5 3733.69,-123.5"/>
<text text-anchor="middle" x="3815.69" y="-130.5" font-family="FreeSans.ttf" font-size="10.00">GazeboYarpPlugins/Handler.hh</text>
</a>
</g>
</g>
<!-- Node1&#45;&gt;Node39 -->
<g id="edge44" class="edge">
<title>Node1&#45;&gt;Node39</title>
<path fill="none" stroke="midnightblue" d="M3815.69,-179.08C3815.69,-172.01 3815.69,-161.86 3815.69,-152.99"/>
<polygon fill="midnightblue" stroke="midnightblue" points="3819.19,-152.75 3815.69,-142.75 3812.19,-152.75 3819.19,-152.75"/>
</g>
<!-- Node42 -->
<g id="node42" class="node">
<title>Node42</title>
<g id="a_node42"><a xlink:href="ConfHelpers_8hh.html" target="_top" xlink:title=" ">
<polygon fill="none" stroke="black" points="3928.19,-123.5 3928.19,-142.5 4115.19,-142.5 4115.19,-123.5 3928.19,-123.5"/>
<text text-anchor="middle" x="4021.69" y="-130.5" font-family="FreeSans.ttf" font-size="10.00">GazeboYarpPlugins/ConfHelpers.hh</text>
</a>
</g>
</g>
<!-- Node1&#45;&gt;Node42 -->
<g id="edge51" class="edge">
<title>Node1&#45;&gt;Node42</title>
<path fill="none" stroke="midnightblue" d="M3848.33,-179.44C3883.74,-170.16 3940.4,-155.31 3979.24,-145.13"/>
<polygon fill="midnightblue" stroke="midnightblue" points="3980.42,-148.44 3989.2,-142.52 3978.64,-141.67 3980.42,-148.44"/>
</g>
<!-- Node45 -->
<g id="node45" class="node">
<title>Node45</title>
<g id="a_node45"><a xlink:title=" ">
<polygon fill="none" stroke="#bfbfbf" points="4258.19,-123.5 4258.19,-142.5 4413.19,-142.5 4413.19,-123.5 4258.19,-123.5"/>
<text text-anchor="middle" x="4335.69" y="-130.5" font-family="FreeSans.ttf" font-size="10.00">yarp/dev/IMultipleWrapper.h</text>
</a>
</g>
</g>
<!-- Node1&#45;&gt;Node45 -->
<g id="edge57" class="edge">
<title>Node1&#45;&gt;Node45</title>
<path fill="none" stroke="midnightblue" d="M3862.75,-183.11C3949.67,-174.09 4136.6,-154.68 4247.65,-143.14"/>
<polygon fill="midnightblue" stroke="midnightblue" points="4248.24,-146.6 4257.82,-142.09 4247.51,-139.64 4248.24,-146.6"/>
</g>
<!-- Node46 -->
<g id="node46" class="node">
<title>Node46</title>
<g id="a_node46"><a xlink:title=" ">
<polygon fill="none" stroke="#bfbfbf" points="4431.69,-123.5 4431.69,-142.5 4537.69,-142.5 4537.69,-123.5 4431.69,-123.5"/>
<text text-anchor="middle" x="4484.69" y="-130.5" font-family="FreeSans.ttf" font-size="10.00">yarp/os/Network.h</text>
</a>
</g>
</g>
<!-- Node1&#45;&gt;Node46 -->
<g id="edge58" class="edge">
<title>Node1&#45;&gt;Node46</title>
<path fill="none" stroke="midnightblue" d="M3863.02,-185.62C3963.74,-180.32 4206.95,-166.23 4421.43,-143.06"/>
<polygon fill="midnightblue" stroke="midnightblue" points="4422.06,-146.52 4431.62,-141.95 4421.3,-139.56 4422.06,-146.52"/>
</g>
<!-- Node3 -->
<g id="node3" class="node">
<title>Node3</title>
<g id="a_node3"><a xlink:title=" ">
<polygon fill="none" stroke="#bfbfbf" points="81.69,-62 81.69,-81 227.69,-81 227.69,-62 81.69,-62"/>
<text text-anchor="middle" x="154.69" y="-69" font-family="FreeSans.ttf" font-size="10.00">gazebo/common/Plugin.hh</text>
</a>
</g>
</g>
<!-- Node2&#45;&gt;Node3 -->
<g id="edge2" class="edge">
<title>Node2&#45;&gt;Node3</title>
<path fill="none" stroke="midnightblue" d="M368.87,-123.48C324.5,-112.92 248.85,-94.91 200.36,-83.37"/>
<polygon fill="midnightblue" stroke="midnightblue" points="200.98,-79.92 190.44,-81.01 199.36,-86.73 200.98,-79.92"/>
</g>
<!-- Node4 -->
<g id="node4" class="node">
<title>Node4</title>
<g id="a_node4"><a xlink:title=" ">
<polygon fill="none" stroke="#bfbfbf" points="245.69,-62 245.69,-81 289.69,-81 289.69,-62 245.69,-62"/>
<text text-anchor="middle" x="267.69" y="-69" font-family="FreeSans.ttf" font-size="10.00">string</text>
</a>
</g>
</g>
<!-- Node2&#45;&gt;Node4 -->
<g id="edge3" class="edge">
<title>Node2&#45;&gt;Node4</title>
<path fill="none" stroke="midnightblue" d="M383.88,-123.42C362.43,-114.53 328.09,-100.11 298.69,-87 297.5,-86.47 296.29,-85.92 295.06,-85.37"/>
<polygon fill="midnightblue" stroke="midnightblue" points="296.22,-82.05 285.67,-81.04 293.29,-88.41 296.22,-82.05"/>
</g>
<!-- Node5 -->
<g id="node5" class="node">
<title>Node5</title>
<g id="a_node5"><a xlink:title=" ">
<polygon fill="none" stroke="#bfbfbf" points="3413.69,-62 3413.69,-81 3553.69,-81 3553.69,-62 3413.69,-62"/>
<text text-anchor="middle" x="3483.69" y="-69" font-family="FreeSans.ttf" font-size="10.00">yarp/dev/PolyDriverList.h</text>
</a>
</g>
</g>
<!-- Node2&#45;&gt;Node5 -->
<g id="edge4" class="edge">
<title>Node2&#45;&gt;Node5</title>
<path fill="none" stroke="midnightblue" d="M452.3,-131.77C812.19,-129.93 3099.17,-117.12 3404.69,-87 3414.37,-86.05 3424.64,-84.53 3434.47,-82.84"/>
<polygon fill="midnightblue" stroke="midnightblue" points="3435.28,-86.25 3444.49,-81.03 3434.03,-79.36 3435.28,-86.25"/>
</g>
<!-- Node6 -->
<g id="node6" class="node">
<title>Node6</title>
<g id="a_node6"><a xlink:title=" ">
<polygon fill="none" stroke="#bfbfbf" points="308.19,-62 308.19,-81 481.19,-81 481.19,-62 308.19,-62"/>
<text text-anchor="middle" x="394.69" y="-69" font-family="FreeSans.ttf" font-size="10.00">yarp/dev/IVirtualAnalogSensor.h</text>
</a>
</g>
</g>
<!-- Node2&#45;&gt;Node6 -->
<g id="edge5" class="edge">
<title>Node2&#45;&gt;Node6</title>
<path fill="none" stroke="midnightblue" d="M403.26,-123.48C401.85,-115.08 399.65,-101.98 397.83,-91.16"/>
<polygon fill="midnightblue" stroke="midnightblue" points="401.23,-90.29 396.12,-81.01 394.33,-91.45 401.23,-90.29"/>
</g>
<!-- Node7&#45;&gt;Node4 -->
<g id="edge34" class="edge">
<title>Node7&#45;&gt;Node4</title>
<path fill="none" stroke="midnightblue" d="M2179.1,-132.08C1873.08,-132.28 485.29,-130.76 298.69,-87 296.48,-86.48 294.24,-85.8 292.03,-85"/>
<polygon fill="midnightblue" stroke="midnightblue" points="293.26,-81.72 282.69,-81.04 290.53,-88.17 293.26,-81.72"/>
</g>
<!-- Node7&#45;&gt;Node6 -->
<g id="edge19" class="edge">
<title>Node7&#45;&gt;Node6</title>
<path fill="none" stroke="midnightblue" d="M2179.19,-131.4C1913.43,-128.57 833.33,-115.5 495.69,-87 482.68,-85.9 468.79,-84.23 455.6,-82.42"/>
<polygon fill="midnightblue" stroke="midnightblue" points="456.07,-78.95 445.68,-81 455.09,-85.88 456.07,-78.95"/>
</g>
<!-- Node8 -->
<g id="node8" class="node">
<title>Node8</title>
<g id="a_node8"><a xlink:title=" ">
<polygon fill="none" stroke="#bfbfbf" points="3181.69,-62 3181.69,-81 3285.69,-81 3285.69,-62 3181.69,-62"/>
<text text-anchor="middle" x="3233.69" y="-69" font-family="FreeSans.ttf" font-size="10.00">yarp/os/Property.h</text>
</a>
</g>
</g>
<!-- Node7&#45;&gt;Node8 -->
<g id="edge7" class="edge">
<title>Node7&#45;&gt;Node8</title>
<path fill="none" stroke="midnightblue" d="M2298.38,-130.54C2476.44,-125.96 3001.95,-110.74 3171.69,-87 3178.38,-86.06 3185.42,-84.75 3192.25,-83.29"/>
<polygon fill="midnightblue" stroke="midnightblue" points="3193.06,-86.69 3202.04,-81.07 3191.51,-79.86 3193.06,-86.69"/>
</g>
<!-- Node9 -->
<g id="node9" class="node">
<title>Node9</title>
<g id="a_node9"><a xlink:title=" ">
<polygon fill="none" stroke="#bfbfbf" points="3303.69,-62 3303.69,-81 3395.69,-81 3395.69,-62 3303.69,-62"/>
<text text-anchor="middle" x="3349.69" y="-69" font-family="FreeSans.ttf" font-size="10.00">yarp/os/Value.h</text>
</a>
</g>
</g>
<!-- Node7&#45;&gt;Node9 -->
<g id="edge8" class="edge">
<title>Node7&#45;&gt;Node9</title>
<path fill="none" stroke="midnightblue" d="M2298.28,-131.15C2491.65,-128.11 3100.33,-116.41 3294.69,-87 3300.3,-86.15 3306.17,-84.95 3311.89,-83.6"/>
<polygon fill="midnightblue" stroke="midnightblue" points="3313.12,-86.9 3321.95,-81.05 3311.4,-80.12 3313.12,-86.9"/>
</g>
<!-- Node10 -->
<g id="node10" class="node">
<title>Node10</title>
<g id="a_node10"><a xlink:title=" ">
<polygon fill="none" stroke="#bfbfbf" points="3056.19,-62 3056.19,-81 3163.19,-81 3163.19,-62 3056.19,-62"/>
<text text-anchor="middle" x="3109.69" y="-69" font-family="FreeSans.ttf" font-size="10.00">yarp/dev/Drivers.h</text>
</a>
</g>
</g>
<!-- Node7&#45;&gt;Node10 -->
<g id="edge9" class="edge">
<title>Node7&#45;&gt;Node10</title>
<path fill="none" stroke="midnightblue" d="M2298.33,-132.15C2432.65,-131.72 2768.83,-126.42 3046.69,-87 3053.48,-86.04 3060.63,-84.71 3067.56,-83.24"/>
<polygon fill="midnightblue" stroke="midnightblue" points="3068.52,-86.61 3077.52,-81.02 3066.99,-79.78 3068.52,-86.61"/>
</g>
<!-- Node11 -->
<g id="node11" class="node">
<title>Node11</title>
<g id="a_node11"><a xlink:title=" ">
<polygon fill="none" stroke="#bfbfbf" points="3609.69,-62 3609.69,-81 3731.69,-81 3731.69,-62 3609.69,-62"/>
<text text-anchor="middle" x="3670.69" y="-69" font-family="FreeSans.ttf" font-size="10.00">yarp/dev/PolyDriver.h</text>
</a>
</g>
</g>
<!-- Node7&#45;&gt;Node11 -->
<g id="edge10" class="edge">
<title>Node7&#45;&gt;Node11</title>
<path fill="none" stroke="midnightblue" d="M2298.29,-131.28C2525.68,-128.32 3338.76,-115.91 3595.69,-87 3604.5,-86.01 3613.82,-84.55 3622.79,-82.93"/>
<polygon fill="midnightblue" stroke="midnightblue" points="3623.54,-86.35 3632.72,-81.05 3622.24,-79.47 3623.54,-86.35"/>
</g>
<!-- Node12 -->
<g id="node12" class="node">
<title>Node12</title>
<g id="a_node12"><a xlink:title=" ">
<polygon fill="none" stroke="#bfbfbf" points="538.19,-62 538.19,-81 663.19,-81 663.19,-62 538.19,-62"/>
<text text-anchor="middle" x="600.69" y="-69" font-family="FreeSans.ttf" font-size="10.00">yarp/dev/IPidControl.h</text>
</a>
</g>
</g>
<!-- Node7&#45;&gt;Node12 -->
<g id="edge11" class="edge">
<title>Node7&#45;&gt;Node12</title>
<path fill="none" stroke="midnightblue" d="M2179.03,-131.64C1930.02,-129.94 972.65,-121.26 672.69,-87 664.22,-86.03 655.27,-84.58 646.66,-82.97"/>
<polygon fill="midnightblue" stroke="midnightblue" points="647.25,-79.52 636.76,-81.01 645.89,-86.38 647.25,-79.52"/>
</g>
<!-- Node13 -->
<g id="node13" class="node">
<title>Node13</title>
<g id="a_node13"><a xlink:title=" ">
<polygon fill="none" stroke="#bfbfbf" points="681.69,-62 681.69,-81 815.69,-81 815.69,-62 681.69,-62"/>
<text text-anchor="middle" x="748.69" y="-69" font-family="FreeSans.ttf" font-size="10.00">yarp/dev/IPWMControl.h</text>
</a>
</g>
</g>
<!-- Node7&#45;&gt;Node13 -->
<g id="edge12" class="edge">
<title>Node7&#45;&gt;Node13</title>
<path fill="none" stroke="midnightblue" d="M2179,-131.35C1945.46,-128.6 1093.38,-116.72 824.69,-87 815.77,-86.01 806.32,-84.55 797.24,-82.93"/>
<polygon fill="midnightblue" stroke="midnightblue" points="797.65,-79.45 787.18,-81.06 796.36,-86.33 797.65,-79.45"/>
</g>
<!-- Node14 -->
<g id="node14" class="node">
<title>Node14</title>
<g id="a_node14"><a xlink:title=" ">
<polygon fill="none" stroke="#bfbfbf" points="833.69,-62 833.69,-81 979.69,-81 979.69,-62 833.69,-62"/>
<text text-anchor="middle" x="906.69" y="-69" font-family="FreeSans.ttf" font-size="10.00">yarp/dev/ICurrentControl.h</text>
</a>
</g>
</g>
<!-- Node7&#45;&gt;Node14 -->
<g id="edge13" class="edge">
<title>Node7&#45;&gt;Node14</title>
<path fill="none" stroke="midnightblue" d="M2179.06,-130.95C1963.32,-127 1223.8,-111.9 988.69,-87 978.77,-85.95 968.24,-84.41 958.15,-82.73"/>
<polygon fill="midnightblue" stroke="midnightblue" points="958.7,-79.27 948.25,-81 957.5,-86.17 958.7,-79.27"/>
</g>
<!-- Node15 -->
<g id="node15" class="node">
<title>Node15</title>
<g id="a_node15"><a xlink:title=" ">
<polygon fill="none" stroke="#bfbfbf" points="998.19,-56.5 998.19,-86.5 1173.19,-86.5 1173.19,-56.5 998.19,-56.5"/>
<text text-anchor="start" x="1006.19" y="-74.5" font-family="FreeSans.ttf" font-size="10.00">yarp/dev/ControlBoardInterfaces</text>
<text text-anchor="middle" x="1085.69" y="-63.5" font-family="FreeSans.ttf" font-size="10.00">Impl.h</text>
</a>
</g>
</g>
<!-- Node7&#45;&gt;Node15 -->
<g id="edge14" class="edge">
<title>Node7&#45;&gt;Node15</title>
<path fill="none" stroke="midnightblue" d="M2179,-131.67C2019.29,-130.3 1568.82,-123.34 1183.64,-87.01"/>
<polygon fill="midnightblue" stroke="midnightblue" points="1183.7,-83.5 1173.41,-86.04 1183.03,-90.47 1183.7,-83.5"/>
</g>
<!-- Node16 -->
<g id="node16" class="node">
<title>Node16</title>
<g id="a_node16"><a xlink:title=" ">
<polygon fill="none" stroke="#bfbfbf" points="1191.69,-62 1191.69,-81 1375.69,-81 1375.69,-62 1191.69,-62"/>
<text text-anchor="middle" x="1283.69" y="-69" font-family="FreeSans.ttf" font-size="10.00">yarp/dev/ControlBoardInterfaces.h</text>
</a>
</g>
</g>
<!-- Node7&#45;&gt;Node16 -->
<g id="edge15" class="edge">
<title>Node7&#45;&gt;Node16</title>
<path fill="none" stroke="midnightblue" d="M2179.02,-130.7C2039.66,-127.27 1682.06,-116.12 1384.69,-87 1372.38,-85.79 1359.27,-84.17 1346.71,-82.44"/>
<polygon fill="midnightblue" stroke="midnightblue" points="1347.18,-78.97 1336.79,-81.04 1346.2,-85.9 1347.18,-78.97"/>
</g>
<!-- Node17 -->
<g id="node17" class="node">
<title>Node17</title>
<g id="a_node17"><a xlink:title=" ">
<polygon fill="none" stroke="#bfbfbf" points="1394.19,-62 1394.19,-81 1531.19,-81 1531.19,-62 1394.19,-62"/>
<text text-anchor="middle" x="1462.69" y="-69" font-family="FreeSans.ttf" font-size="10.00">yarp/dev/IControlMode.h</text>
</a>
</g>
</g>
<!-- Node7&#45;&gt;Node17 -->
<g id="edge16" class="edge">
<title>Node7&#45;&gt;Node17</title>
<path fill="none" stroke="midnightblue" d="M2179.17,-130.56C2058.38,-127.1 1775.96,-116.35 1540.69,-87 1531.85,-85.9 1522.5,-84.43 1513.46,-82.84"/>
<polygon fill="midnightblue" stroke="midnightblue" points="1513.9,-79.37 1503.43,-81.02 1512.65,-86.25 1513.9,-79.37"/>
</g>
<!-- Node18 -->
<g id="node18" class="node">
<title>Node18</title>
<g id="a_node18"><a xlink:title=" ">
<polygon fill="none" stroke="#bfbfbf" points="1729.69,-62 1729.69,-81 1883.69,-81 1883.69,-62 1729.69,-62"/>
<text text-anchor="middle" x="1806.69" y="-69" font-family="FreeSans.ttf" font-size="10.00">yarp/dev/IInteractionMode.h</text>
</a>
</g>
</g>
<!-- Node7&#45;&gt;Node18 -->
<g id="edge17" class="edge">
<title>Node7&#45;&gt;Node18</title>
<path fill="none" stroke="midnightblue" d="M2178.9,-124.92C2109.85,-116.58 1992.89,-101.96 1892.69,-87 1883.78,-85.67 1874.37,-84.18 1865.17,-82.66"/>
<polygon fill="midnightblue" stroke="midnightblue" points="1865.74,-79.21 1855.3,-81.03 1864.6,-86.12 1865.74,-79.21"/>
</g>
<!-- Node19 -->
<g id="node19" class="node">
<title>Node19</title>
<g id="a_node19"><a xlink:title=" ">
<polygon fill="none" stroke="#bfbfbf" points="1901.69,-62 1901.69,-81 2059.69,-81 2059.69,-62 1901.69,-62"/>
<text text-anchor="middle" x="1980.69" y="-69" font-family="FreeSans.ttf" font-size="10.00">yarp/dev/IRemoteVariables.h</text>
</a>
</g>
</g>
<!-- Node7&#45;&gt;Node19 -->
<g id="edge18" class="edge">
<title>Node7&#45;&gt;Node19</title>
<path fill="none" stroke="midnightblue" d="M2201.73,-123.48C2155.84,-112.89 2077.54,-94.84 2027.51,-83.3"/>
<polygon fill="midnightblue" stroke="midnightblue" points="2028.12,-79.85 2017.59,-81.01 2026.54,-86.67 2028.12,-79.85"/>
</g>
<!-- Node20 -->
<g id="node20" class="node">
<title>Node20</title>
<g id="a_node20"><a xlink:title=" ">
<polygon fill="none" stroke="#bfbfbf" points="2077.69,-62 2077.69,-81 2175.69,-81 2175.69,-62 2077.69,-62"/>
<text text-anchor="middle" x="2126.69" y="-69" font-family="FreeSans.ttf" font-size="10.00">yarp/sig/Vector.h</text>
</a>
</g>
</g>
<!-- Node7&#45;&gt;Node20 -->
<g id="edge20" class="edge">
<title>Node7&#45;&gt;Node20</title>
<path fill="none" stroke="midnightblue" d="M2222.64,-123.48C2204.1,-113.62 2173.35,-97.29 2151.67,-85.77"/>
<polygon fill="midnightblue" stroke="midnightblue" points="2153.18,-82.61 2142.71,-81.01 2149.9,-88.79 2153.18,-82.61"/>
</g>
<!-- Node21 -->
<g id="node21" class="node">
<title>Node21</title>
<g id="a_node21"><a xlink:title=" ">
<polygon fill="none" stroke="#bfbfbf" points="2194.19,-62 2194.19,-81 2283.19,-81 2283.19,-62 2194.19,-62"/>
<text text-anchor="middle" x="2238.69" y="-69" font-family="FreeSans.ttf" font-size="10.00">yarp/os/Time.h</text>
</a>
</g>
</g>
<!-- Node7&#45;&gt;Node21 -->
<g id="edge21" class="edge">
<title>Node7&#45;&gt;Node21</title>
<path fill="none" stroke="midnightblue" d="M2238.69,-123.48C2238.69,-115.08 2238.69,-101.98 2238.69,-91.16"/>
<polygon fill="midnightblue" stroke="midnightblue" points="2242.19,-91.01 2238.69,-81.01 2235.19,-91.01 2242.19,-91.01"/>
</g>
<!-- Node22 -->
<g id="node22" class="node">
<title>Node22</title>
<g id="a_node22"><a xlink:title=" ">
<polygon fill="none" stroke="#bfbfbf" points="2301.69,-62 2301.69,-81 2397.69,-81 2397.69,-62 2301.69,-62"/>
<text text-anchor="middle" x="2349.69" y="-69" font-family="FreeSans.ttf" font-size="10.00">yarp/os/Stamp.h</text>
</a>
</g>
</g>
<!-- Node7&#45;&gt;Node22 -->
<g id="edge22" class="edge">
<title>Node7&#45;&gt;Node22</title>
<path fill="none" stroke="midnightblue" d="M2254.59,-123.48C2272.98,-113.62 2303.45,-97.29 2324.94,-85.77"/>
<polygon fill="midnightblue" stroke="midnightblue" points="2326.66,-88.82 2333.82,-81.01 2323.35,-82.65 2326.66,-88.82"/>
</g>
<!-- Node23 -->
<g id="node23" class="node">
<title>Node23</title>
<g id="a_node23"><a xlink:title=" ">
<polygon fill="none" stroke="#bfbfbf" points="3750.19,-62 3750.19,-81 3869.19,-81 3869.19,-62 3750.19,-62"/>
<text text-anchor="middle" x="3809.69" y="-69" font-family="FreeSans.ttf" font-size="10.00">boost/shared_ptr.hpp</text>
</a>
</g>
</g>
<!-- Node7&#45;&gt;Node23 -->
<g id="edge23" class="edge">
<title>Node7&#45;&gt;Node23</title>
<path fill="none" stroke="midnightblue" d="M2298.36,-131.62C2540.98,-129.88 3454.12,-121.13 3740.69,-87 3748.64,-86.05 3757.03,-84.64 3765.12,-83.07"/>
<polygon fill="midnightblue" stroke="midnightblue" points="3766.05,-86.45 3775.14,-81.01 3764.64,-79.6 3766.05,-86.45"/>
</g>
<!-- Node24 -->
<g id="node24" class="node">
<title>Node24</title>
<g id="a_node24"><a xlink:href="ControlBoardDriverRange_8h.html" target="_top" xlink:title=" ">
<polygon fill="none" stroke="black" points="913.69,-0.5 913.69,-19.5 1063.69,-19.5 1063.69,-0.5 913.69,-0.5"/>
<text text-anchor="middle" x="988.69" y="-7.5" font-family="FreeSans.ttf" font-size="10.00">ControlBoardDriverRange.h</text>
</a>
</g>
</g>
<!-- Node7&#45;&gt;Node24 -->
<g id="edge24" class="edge">
<title>Node7&#45;&gt;Node24</title>
<path fill="none" stroke="midnightblue" d="M2178.96,-131.56C1879.87,-129.22 558.09,-117.18 528.69,-87 519.08,-77.13 519.43,-66.21 528.69,-56 553.33,-28.84 777.33,-17.52 903.41,-13.27"/>
<polygon fill="midnightblue" stroke="midnightblue" points="903.55,-16.77 913.43,-12.94 903.32,-9.77 903.55,-16.77"/>
</g>
<!-- Node25 -->
<g id="node25" class="node">
<title>Node25</title>
<g id="a_node25"><a xlink:href="ControlBoardDriverTrajectory_8h.html" target="_top" xlink:title=" ">
<polygon fill="none" stroke="black" points="2565.69,-62 2565.69,-81 2731.69,-81 2731.69,-62 2565.69,-62"/>
<text text-anchor="middle" x="2648.69" y="-69" font-family="FreeSans.ttf" font-size="10.00">ControlBoardDriverTrajectory.h</text>
</a>
</g>
</g>
<!-- Node7&#45;&gt;Node25 -->
<g id="edge25" class="edge">
<title>Node7&#45;&gt;Node25</title>
<path fill="none" stroke="midnightblue" d="M2298.22,-123.86C2362.14,-115.05 2466.67,-100.46 2556.69,-87 2566.07,-85.6 2575.97,-84.08 2585.68,-82.57"/>
<polygon fill="midnightblue" stroke="midnightblue" points="2586.35,-86 2595.68,-81 2585.26,-79.09 2586.35,-86"/>
</g>
<!-- Node28 -->
<g id="node28" class="node">
<title>Node28</title>
<g id="a_node28"><a xlink:href="ControlBoardDriverCoupling_8h.html" target="_top" xlink:title=" ">
<polygon fill="none" stroke="black" points="1549.69,-62 1549.69,-81 1711.69,-81 1711.69,-62 1549.69,-62"/>
<text text-anchor="middle" x="1630.69" y="-69" font-family="FreeSans.ttf" font-size="10.00">ControlBoardDriverCoupling.h</text>
</a>
</g>
</g>
<!-- Node7&#45;&gt;Node28 -->
<g id="edge28" class="edge">
<title>Node7&#45;&gt;Node28</title>
<path fill="none" stroke="midnightblue" d="M2179.11,-128.25C2082.61,-121.84 1886.2,-107.49 1720.69,-87 1710.68,-85.76 1700.07,-84.24 1689.79,-82.65"/>
<polygon fill="midnightblue" stroke="midnightblue" points="1690.07,-79.15 1679.64,-81.05 1688.98,-86.07 1690.07,-79.15"/>
</g>
<!-- Node29 -->
<g id="node29" class="node">
<title>Node29</title>
<g id="a_node29"><a xlink:title=" ">
<polygon fill="none" stroke="#bfbfbf" points="2740.19,-0.5 2740.19,-19.5 2833.19,-19.5 2833.19,-0.5 2740.19,-0.5"/>
<text text-anchor="middle" x="2786.69" y="-7.5" font-family="FreeSans.ttf" font-size="10.00">unordered_map</text>
</a>
</g>
</g>
<!-- Node7&#45;&gt;Node29 -->
<g id="edge36" class="edge">
<title>Node7&#45;&gt;Node29</title>
<path fill="none" stroke="midnightblue" d="M2298.49,-132.25C2550.9,-133.03 3518.23,-132.99 3562.69,-87 3572.27,-77.09 3572.15,-66.02 3562.69,-56 3538.04,-29.88 3017.77,-16.08 2843.21,-12.18"/>
<polygon fill="midnightblue" stroke="midnightblue" points="2843.28,-8.68 2833.2,-11.96 2843.12,-15.68 2843.28,-8.68"/>
</g>
<!-- Node30 -->
<g id="node30" class="node">
<title>Node30</title>
<g id="a_node30"><a xlink:title=" ">
<polygon fill="none" stroke="#bfbfbf" points="2415.69,-62 2415.69,-81 2547.69,-81 2547.69,-62 2415.69,-62"/>
<text text-anchor="middle" x="2481.69" y="-69" font-family="FreeSans.ttf" font-size="10.00">gazebo/common/PID.hh</text>
</a>
</g>
</g>
<!-- Node7&#45;&gt;Node30 -->
<g id="edge32" class="edge">
<title>Node7&#45;&gt;Node30</title>
<path fill="none" stroke="midnightblue" d="M2273.51,-123.48C2316.54,-112.94 2389.86,-94.99 2437.01,-83.44"/>
<polygon fill="midnightblue" stroke="midnightblue" points="2438.06,-86.79 2446.94,-81.01 2436.39,-79.99 2438.06,-86.79"/>
</g>
<!-- Node31 -->
<g id="node31" class="node">
<title>Node31</title>
<g id="a_node31"><a xlink:title=" ">
<polygon fill="none" stroke="#bfbfbf" points="2749.69,-62 2749.69,-81 2889.69,-81 2889.69,-62 2749.69,-62"/>
<text text-anchor="middle" x="2819.69" y="-69" font-family="FreeSans.ttf" font-size="10.00">gazebo/common/Time.hh</text>
</a>
</g>
</g>
<!-- Node7&#45;&gt;Node31 -->
<g id="edge33" class="edge">
<title>Node7&#45;&gt;Node31</title>
<path fill="none" stroke="midnightblue" d="M2298.39,-128.43C2392.65,-122.4 2581.6,-108.68 2740.69,-87 2749.32,-85.82 2758.45,-84.36 2767.31,-82.81"/>
<polygon fill="midnightblue" stroke="midnightblue" points="2767.94,-86.26 2777.17,-81.05 2766.71,-79.37 2767.94,-86.26"/>
</g>
<!-- Node32 -->
<g id="node32" class="node">
<title>Node32</title>
<g id="a_node32"><a xlink:title=" ">
<polygon fill="none" stroke="#bfbfbf" points="2908.19,-62 2908.19,-81 2973.19,-81 2973.19,-62 2908.19,-62"/>
<text text-anchor="middle" x="2940.69" y="-69" font-family="FreeSans.ttf" font-size="10.00">functional</text>
</a>
</g>
</g>
<!-- Node7&#45;&gt;Node32 -->
<g id="edge35" class="edge">
<title>Node7&#45;&gt;Node32</title>
<path fill="none" stroke="midnightblue" d="M2298.45,-129.95C2438.52,-124.81 2784.8,-110.12 2898.69,-87 2902.2,-86.29 2905.82,-85.36 2909.39,-84.31"/>
<polygon fill="midnightblue" stroke="midnightblue" points="2910.76,-87.55 2919.2,-81.14 2908.6,-80.89 2910.76,-87.55"/>
</g>
<!-- Node33 -->
<g id="node33" class="node">
<title>Node33</title>
<g id="a_node33"><a xlink:title=" ">
<polygon fill="none" stroke="#bfbfbf" points="2991.19,-62 2991.19,-81 3038.19,-81 3038.19,-62 2991.19,-62"/>
<text text-anchor="middle" x="3014.69" y="-69" font-family="FreeSans.ttf" font-size="10.00">vector</text>
</a>
</g>
</g>
<!-- Node7&#45;&gt;Node33 -->
<g id="edge37" class="edge">
<title>Node7&#45;&gt;Node33</title>
<path fill="none" stroke="midnightblue" d="M2298.4,-131.09C2451.02,-128.33 2852.47,-118.25 2981.69,-87 2984.05,-86.43 2986.46,-85.7 2988.83,-84.87"/>
<polygon fill="midnightblue" stroke="midnightblue" points="2990.33,-88.04 2998.3,-81.06 2987.72,-81.54 2990.33,-88.04"/>
</g>
<!-- Node25&#45;&gt;Node26 -->
<g id="edge26" class="edge">
<title>Node25&#45;&gt;Node26</title>
<path fill="none" stroke="midnightblue" d="M2601.07,-61.99C2586.84,-59.72 2571.17,-57.49 2556.69,-56 2245.11,-23.97 1872.15,-14.63 1711.17,-12"/>
<polygon fill="midnightblue" stroke="midnightblue" points="1710.93,-8.49 1700.87,-11.83 1710.82,-15.49 1710.93,-8.49"/>
</g>
<!-- Node27 -->
<g id="node27" class="node">
<title>Node27</title>
<g id="a_node27"><a xlink:title=" ">
<polygon fill="none" stroke="#bfbfbf" points="3248.69,-0.5 3248.69,-19.5 3296.69,-19.5 3296.69,-0.5 3248.69,-0.5"/>
<text text-anchor="middle" x="3272.69" y="-7.5" font-family="FreeSans.ttf" font-size="10.00">mutex</text>
</a>
</g>
</g>
<!-- Node25&#45;&gt;Node27 -->
<g id="edge27" class="edge">
<title>Node25&#45;&gt;Node27</title>
<path fill="none" stroke="midnightblue" d="M2698.73,-61.94C2712.32,-59.8 2727.05,-57.65 2740.69,-56 2927.99,-33.35 3153.77,-18.27 3238.43,-13.04"/>
<polygon fill="midnightblue" stroke="midnightblue" points="3238.73,-16.53 3248.5,-12.42 3238.31,-9.54 3238.73,-16.53"/>
</g>
<!-- Node28&#45;&gt;Node24 -->
<g id="edge29" class="edge">
<title>Node28&#45;&gt;Node24</title>
<path fill="none" stroke="midnightblue" d="M1581.67,-61.98C1568.1,-59.82 1553.35,-57.64 1539.69,-56 1375.37,-36.23 1182.42,-22.68 1073.96,-15.93"/>
<polygon fill="midnightblue" stroke="midnightblue" points="1073.93,-12.43 1063.74,-15.3 1073.5,-19.41 1073.93,-12.43"/>
</g>
<!-- Node28&#45;&gt;Node26 -->
<g id="edge30" class="edge">
<title>Node28&#45;&gt;Node26</title>
<path fill="none" stroke="midnightblue" d="M1630.69,-61.98C1630.69,-53.58 1630.69,-40.48 1630.69,-29.66"/>
<polygon fill="midnightblue" stroke="midnightblue" points="1634.19,-29.51 1630.69,-19.51 1627.19,-29.51 1634.19,-29.51"/>
</g>
<!-- Node28&#45;&gt;Node29 -->
<g id="edge31" class="edge">
<title>Node28&#45;&gt;Node29</title>
<path fill="none" stroke="midnightblue" d="M1677.27,-61.93C1691.19,-59.65 1706.52,-57.44 1720.69,-56 2105.02,-17.06 2570.6,-11.7 2730,-11.05"/>
<polygon fill="midnightblue" stroke="midnightblue" points="2730.07,-14.55 2740.05,-11.02 2730.04,-7.55 2730.07,-14.55"/>
</g>
<!-- Node35 -->
<g id="node35" class="node">
<title>Node35</title>
<g id="a_node35"><a xlink:title=" ">
<polygon fill="none" stroke="#bfbfbf" points="4474.69,-62 4474.69,-81 4612.69,-81 4612.69,-62 4474.69,-62"/>
<text text-anchor="middle" x="4543.69" y="-69" font-family="FreeSans.ttf" font-size="10.00">yarp/os/LogComponent.h</text>
</a>
</g>
</g>
<!-- Node34&#45;&gt;Node35 -->
<g id="edge39" class="edge">
<title>Node34&#45;&gt;Node35</title>
<path fill="none" stroke="midnightblue" d="M4240.24,-123.75C4296.45,-115 4387.38,-100.59 4465.69,-87 4473.15,-85.71 4480.99,-84.3 4488.72,-82.89"/>
<polygon fill="midnightblue" stroke="midnightblue" points="4489.56,-86.29 4498.77,-81.04 4488.3,-79.41 4489.56,-86.29"/>
</g>
<!-- Node36 -->
<g id="node36" class="node">
<title>Node36</title>
<g id="a_node36"><a xlink:title=" ">
<polygon fill="none" stroke="#bfbfbf" points="4631.19,-62 4631.19,-81 4748.19,-81 4748.19,-62 4631.19,-62"/>
<text text-anchor="middle" x="4689.69" y="-69" font-family="FreeSans.ttf" font-size="10.00">yarp/os/LogStream.h</text>
</a>
</g>
</g>
<!-- Node34&#45;&gt;Node36 -->
<g id="edge40" class="edge">
<title>Node34&#45;&gt;Node36</title>
<path fill="none" stroke="midnightblue" d="M4240.29,-124.17C4243.47,-123.76 4246.62,-123.37 4249.69,-123 4414.62,-103.25 4457.53,-112.36 4621.69,-87 4628.83,-85.9 4636.34,-84.52 4643.66,-83.05"/>
<polygon fill="midnightblue" stroke="midnightblue" points="4644.4,-86.47 4653.48,-81.02 4642.98,-79.62 4644.4,-86.47"/>
</g>
<!-- Node37&#45;&gt;Node4 -->
<g id="edge42" class="edge">
<title>Node37&#45;&gt;Node4</title>
<path fill="none" stroke="midnightblue" d="M258.27,-123.48C259.82,-115.08 262.24,-101.98 264.24,-91.16"/>
<polygon fill="midnightblue" stroke="midnightblue" points="267.74,-91.48 266.12,-81.01 260.86,-90.21 267.74,-91.48"/>
</g>
<!-- Node38 -->
<g id="node38" class="node">
<title>Node38</title>
<g id="a_node38"><a xlink:title=" ">
<polygon fill="none" stroke="#bfbfbf" points="16.19,-62 16.19,-81 63.19,-81 63.19,-62 16.19,-62"/>
<text text-anchor="middle" x="39.69" y="-69" font-family="FreeSans.ttf" font-size="10.00">cmath</text>
</a>
</g>
</g>
<!-- Node37&#45;&gt;Node38 -->
<g id="edge43" class="edge">
<title>Node37&#45;&gt;Node38</title>
<path fill="none" stroke="midnightblue" d="M212.58,-123.47C174.92,-115.65 119.56,-102.89 72.69,-87 70.82,-86.37 68.92,-85.67 67.01,-84.93"/>
<polygon fill="midnightblue" stroke="midnightblue" points="68.2,-81.64 57.62,-81.05 65.53,-88.11 68.2,-81.64"/>
</g>
<!-- Node39&#45;&gt;Node5 -->
<g id="edge50" class="edge">
<title>Node39&#45;&gt;Node5</title>
<path fill="none" stroke="midnightblue" d="M3768.12,-123.48C3708.22,-112.74 3605.37,-94.31 3541.13,-82.79"/>
<polygon fill="midnightblue" stroke="midnightblue" points="3541.63,-79.33 3531.17,-81.01 3540.4,-86.22 3541.63,-79.33"/>
</g>
<!-- Node39&#45;&gt;Node11 -->
<g id="edge49" class="edge">
<title>Node39&#45;&gt;Node11</title>
<path fill="none" stroke="midnightblue" d="M3794.92,-123.48C3770.26,-113.36 3728.95,-96.4 3700.79,-84.85"/>
<polygon fill="midnightblue" stroke="midnightblue" points="3702.01,-81.57 3691.43,-81.01 3699.35,-88.04 3702.01,-81.57"/>
</g>
<!-- Node39&#45;&gt;Node23 -->
<g id="edge47" class="edge">
<title>Node39&#45;&gt;Node23</title>
<path fill="none" stroke="midnightblue" d="M3814.83,-123.48C3813.98,-115.08 3812.66,-101.98 3811.57,-91.16"/>
<polygon fill="midnightblue" stroke="midnightblue" points="3815.03,-90.61 3810.55,-81.01 3808.07,-91.31 3815.03,-90.61"/>
</g>
<!-- Node39&#45;&gt;Node27 -->
<g id="edge48" class="edge">
<title>Node39&#45;&gt;Node27</title>
<path fill="none" stroke="midnightblue" d="M3835.91,-123.49C3850.46,-116.17 3868.99,-104.06 3877.69,-87 3883.95,-74.73 3887.06,-66.1 3877.69,-56 3838.74,-14.04 3429.5,-10.89 3307.09,-10.9"/>
<polygon fill="midnightblue" stroke="midnightblue" points="3306.8,-7.4 3296.81,-10.91 3306.81,-14.4 3306.8,-7.4"/>
</g>
<!-- Node40 -->
<g id="node40" class="node">
<title>Node40</title>
<g id="a_node40"><a xlink:title=" ">
<polygon fill="none" stroke="#bfbfbf" points="3925.69,-62 3925.69,-81 3963.69,-81 3963.69,-62 3925.69,-62"/>
<text text-anchor="middle" x="3944.69" y="-69" font-family="FreeSans.ttf" font-size="10.00">map</text>
</a>
</g>
</g>
<!-- Node39&#45;&gt;Node40 -->
<g id="edge45" class="edge">
<title>Node39&#45;&gt;Node40</title>
<path fill="none" stroke="midnightblue" d="M3834.17,-123.48C3855.82,-113.49 3891.9,-96.85 3916.92,-85.31"/>
<polygon fill="midnightblue" stroke="midnightblue" points="3918.63,-88.38 3926.24,-81.01 3915.7,-82.02 3918.63,-88.38"/>
</g>
<!-- Node41 -->
<g id="node41" class="node">
<title>Node41</title>
<g id="a_node41"><a xlink:title=" ">
<polygon fill="none" stroke="#bfbfbf" points="3982.19,-62 3982.19,-81 4075.19,-81 4075.19,-62 3982.19,-62"/>
<text text-anchor="middle" x="4028.69" y="-69" font-family="FreeSans.ttf" font-size="10.00">sdf/sdf_config.h</text>
</a>
</g>
</g>
<!-- Node39&#45;&gt;Node41 -->
<g id="edge46" class="edge">
<title>Node39&#45;&gt;Node41</title>
<path fill="none" stroke="midnightblue" d="M3846.21,-123.48C3883.62,-113.03 3947.12,-95.29 3988.48,-83.73"/>
<polygon fill="midnightblue" stroke="midnightblue" points="3989.54,-87.07 3998.23,-81.01 3987.66,-80.33 3989.54,-87.07"/>
</g>
<!-- Node42&#45;&gt;Node23 -->
<g id="edge53" class="edge">
<title>Node42&#45;&gt;Node23</title>
<path fill="none" stroke="midnightblue" d="M3991.32,-123.48C3954.08,-113.03 3890.88,-95.29 3849.72,-83.73"/>
<polygon fill="midnightblue" stroke="midnightblue" points="3850.58,-80.34 3840.01,-81.01 3848.69,-87.08 3850.58,-80.34"/>
</g>
<!-- Node42&#45;&gt;Node41 -->
<g id="edge52" class="edge">
<title>Node42&#45;&gt;Node41</title>
<path fill="none" stroke="midnightblue" d="M4022.69,-123.48C4023.68,-115.08 4025.22,-101.98 4026.5,-91.16"/>
<polygon fill="midnightblue" stroke="midnightblue" points="4030,-91.35 4027.69,-81.01 4023.05,-90.53 4030,-91.35"/>
</g>
<!-- Node43 -->
<g id="node43" class="node">
<title>Node43</title>
<g id="a_node43"><a xlink:title=" ">
<polygon fill="none" stroke="#bfbfbf" points="4093.19,-62 4093.19,-81 4264.19,-81 4264.19,-62 4093.19,-62"/>
<text text-anchor="middle" x="4178.69" y="-69" font-family="FreeSans.ttf" font-size="10.00">gazebo/sensors/SensorTypes.hh</text>
</a>
</g>
</g>
<!-- Node42&#45;&gt;Node43 -->
<g id="edge54" class="edge">
<title>Node42&#45;&gt;Node43</title>
<path fill="none" stroke="midnightblue" d="M4044.19,-123.48C4071,-113.31 4116.01,-96.26 4146.5,-84.7"/>
<polygon fill="midnightblue" stroke="midnightblue" points="4148.13,-87.83 4156.24,-81.01 4145.65,-81.28 4148.13,-87.83"/>
</g>
<!-- Node44 -->
<g id="node44" class="node">
<title>Node44</title>
<g id="a_node44"><a xlink:title=" ">
<polygon fill="none" stroke="#bfbfbf" points="4282.69,-62 4282.69,-81 4456.69,-81 4456.69,-62 4282.69,-62"/>
<text text-anchor="middle" x="4369.69" y="-69" font-family="FreeSans.ttf" font-size="10.00">gazebo/physics/PhysicsTypes.hh</text>
</a>
</g>
</g>
<!-- Node42&#45;&gt;Node44 -->
<g id="edge55" class="edge">
<title>Node42&#45;&gt;Node44</title>
<path fill="none" stroke="midnightblue" d="M4071.55,-123.48C4134.48,-112.72 4242.6,-94.23 4309.89,-82.72"/>
<polygon fill="midnightblue" stroke="midnightblue" points="4310.66,-86.14 4319.92,-81.01 4309.48,-79.24 4310.66,-86.14"/>
</g>
</g>
</svg>
