<?xml version="1.0" encoding="UTF-8" standalone="no"?>
<!DOCTYPE svg PUBLIC "-//W3C//DTD SVG 1.1//EN"
 "http://www.w3.org/Graphics/SVG/1.1/DTD/svg11.dtd">
<!-- Generated by graphviz version 5.0.1 (20220821.0811)
 -->
<!-- Title: ControlBoard.cc Pages: 1 -->
<svg width="4926pt" height="207pt"
 viewBox="0.00 0.00 4925.58 207.00" xmlns="http://www.w3.org/2000/svg" xmlns:xlink="http://www.w3.org/1999/xlink">
<g id="graph0" class="graph" transform="scale(1 1) rotate(0) translate(4 203)">
<title>ControlBoard.cc</title>
<!-- Node1 -->
<g id="node1" class="node">
<title>Node1</title>
<g id="a_node1"><a xlink:title=" ">
<polygon fill="#bfbfbf" stroke="black" points="3932.08,-179.5 3932.08,-198.5 4026.08,-198.5 4026.08,-179.5 3932.08,-179.5"/>
<text text-anchor="middle" x="3979.08" y="-186.5" font-family="FreeSans.ttf" font-size="10.00">ControlBoard.cc</text>
</a>
</g>
</g>
<!-- Node2 -->
<g id="node2" class="node">
<title>Node2</title>
<g id="a_node2"><a xlink:href="ControlBoard_8hh.html" target="_top" xlink:title=" ">
<polygon fill="none" stroke="black" points="2179.58,-123.5 2179.58,-142.5 2274.58,-142.5 2274.58,-123.5 2179.58,-123.5"/>
<text text-anchor="middle" x="2227.08" y="-130.5" font-family="FreeSans.ttf" font-size="10.00">ControlBoard.hh</text>
</a>
</g>
</g>
<!-- Node1&#45;&gt;Node2 -->
<g id="edge1" class="edge">
<title>Node1&#45;&gt;Node2</title>
<path fill="none" stroke="midnightblue" d="M3931.93,-187.6C3695.53,-185.45 2637.09,-174.26 2284.9,-143.02"/>
<polygon fill="midnightblue" stroke="midnightblue" points="2284.96,-139.51 2274.69,-142.09 2284.33,-146.48 2284.96,-139.51"/>
</g>
<!-- Node7 -->
<g id="node7" class="node">
<title>Node7</title>
<g id="a_node7"><a xlink:href="ControlBoardDriver_8h.html" target="_top" xlink:title=" ">
<polygon fill="none" stroke="black" points="2292.58,-123.5 2292.58,-142.5 2411.58,-142.5 2411.58,-123.5 2292.58,-123.5"/>
<text text-anchor="middle" x="2352.08" y="-130.5" font-family="FreeSans.ttf" font-size="10.00">ControlBoardDriver.h</text>
</a>
</g>
</g>
<!-- Node1&#45;&gt;Node7 -->
<g id="edge6" class="edge">
<title>Node1&#45;&gt;Node7</title>
<path fill="none" stroke="midnightblue" d="M3931.71,-186.43C3701.3,-178.78 2697.73,-145.47 2422.26,-136.33"/>
<polygon fill="midnightblue" stroke="midnightblue" points="2422.11,-132.82 2411.99,-135.99 2421.87,-139.82 2422.11,-132.82"/>
</g>
<!-- Node26 -->
<g id="node26" class="node">
<title>Node26</title>
<g id="a_node26"><a xlink:title=" ">
<polygon fill="none" stroke="#bfbfbf" points="560.08,-0.5 560.08,-19.5 700.08,-19.5 700.08,-0.5 560.08,-0.5"/>
<text text-anchor="middle" x="630.08" y="-7.5" font-family="FreeSans.ttf" font-size="10.00">gazebo/physics/Model.hh</text>
</a>
</g>
</g>
<!-- Node1&#45;&gt;Node26 -->
<g id="edge57" class="edge">
<title>Node1&#45;&gt;Node26</title>
<path fill="none" stroke="midnightblue" d="M3931.95,-187.71C3489.66,-184.9 82.05,-160.86 10.08,-87 -72.25,-2.51 405.39,-29.37 549.67,-19.87"/>
<polygon fill="midnightblue" stroke="midnightblue" points="550.16,-23.34 559.86,-19.08 549.62,-16.36 550.16,-23.34"/>
</g>
<!-- Node34 -->
<g id="node34" class="node">
<title>Node34</title>
<g id="a_node34"><a xlink:href="ControlBoardLog_8h.html" target="_top" xlink:title=" ">
<polygon fill="none" stroke="black" points="4296.58,-123.5 4296.58,-142.5 4403.58,-142.5 4403.58,-123.5 4296.58,-123.5"/>
<text text-anchor="middle" x="4350.08" y="-130.5" font-family="FreeSans.ttf" font-size="10.00">ControlBoardLog.h</text>
</a>
</g>
</g>
<!-- Node1&#45;&gt;Node34 -->
<g id="edge38" class="edge">
<title>Node1&#45;&gt;Node34</title>
<path fill="none" stroke="midnightblue" d="M4026.45,-181.11C4092.49,-171.49 4212.44,-154.03 4286.29,-143.28"/>
<polygon fill="midnightblue" stroke="midnightblue" points="4287.01,-146.72 4296.4,-141.81 4286,-139.79 4287.01,-146.72"/>
</g>
<!-- Node37 -->
<g id="node37" class="node">
<title>Node37</title>
<g id="a_node37"><a xlink:href="common_8h.html" target="_top" xlink:title=" ">
<polygon fill="none" stroke="black" points="3629.08,-123.5 3629.08,-142.5 3793.08,-142.5 3793.08,-123.5 3629.08,-123.5"/>
<text text-anchor="middle" x="3711.08" y="-130.5" font-family="FreeSans.ttf" font-size="10.00">GazeboYarpPlugins/common.h</text>
</a>
</g>
</g>
<!-- Node1&#45;&gt;Node37 -->
<g id="edge41" class="edge">
<title>Node1&#45;&gt;Node37</title>
<path fill="none" stroke="midnightblue" d="M3936.62,-179.44C3889.67,-169.98 3814.01,-154.74 3763.43,-144.55"/>
<polygon fill="midnightblue" stroke="midnightblue" points="3763.84,-141.06 3753.35,-142.52 3762.46,-147.92 3763.84,-141.06"/>
</g>
<!-- Node39 -->
<g id="node39" class="node">
<title>Node39</title>
<g id="a_node39"><a xlink:href="Handler_8hh.html" target="_top" xlink:title=" ">
<polygon fill="none" stroke="black" points="3897.08,-123.5 3897.08,-142.5 4061.08,-142.5 4061.08,-123.5 3897.08,-123.5"/>
<text text-anchor="middle" x="3979.08" y="-130.5" font-family="FreeSans.ttf" font-size="10.00">GazeboYarpPlugins/Handler.hh</text>
</a>
</g>
</g>
<!-- Node1&#45;&gt;Node39 -->
<g id="edge44" class="edge">
<title>Node1&#45;&gt;Node39</title>
<path fill="none" stroke="midnightblue" d="M3979.08,-179.08C3979.08,-172.01 3979.08,-161.86 3979.08,-152.99"/>
<polygon fill="midnightblue" stroke="midnightblue" points="3982.58,-152.75 3979.08,-142.75 3975.58,-152.75 3982.58,-152.75"/>
</g>
<!-- Node43 -->
<g id="node43" class="node">
<title>Node43</title>
<g id="a_node43"><a xlink:href="ConfHelpers_8hh.html" target="_top" xlink:title=" ">
<polygon fill="none" stroke="black" points="4091.58,-123.5 4091.58,-142.5 4278.58,-142.5 4278.58,-123.5 4091.58,-123.5"/>
<text text-anchor="middle" x="4185.08" y="-130.5" font-family="FreeSans.ttf" font-size="10.00">GazeboYarpPlugins/ConfHelpers.hh</text>
</a>
</g>
</g>
<!-- Node1&#45;&gt;Node43 -->
<g id="edge52" class="edge">
<title>Node1&#45;&gt;Node43</title>
<path fill="none" stroke="midnightblue" d="M4011.72,-179.44C4047.13,-170.16 4103.79,-155.31 4142.63,-145.13"/>
<polygon fill="midnightblue" stroke="midnightblue" points="4143.81,-148.44 4152.59,-142.52 4142.03,-141.67 4143.81,-148.44"/>
</g>
<!-- Node46 -->
<g id="node46" class="node">
<title>Node46</title>
<g id="a_node46"><a xlink:title=" ">
<polygon fill="none" stroke="#bfbfbf" points="4421.58,-123.5 4421.58,-142.5 4576.58,-142.5 4576.58,-123.5 4421.58,-123.5"/>
<text text-anchor="middle" x="4499.08" y="-130.5" font-family="FreeSans.ttf" font-size="10.00">yarp/dev/IMultipleWrapper.h</text>
</a>
</g>
</g>
<!-- Node1&#45;&gt;Node46 -->
<g id="edge58" class="edge">
<title>Node1&#45;&gt;Node46</title>
<path fill="none" stroke="midnightblue" d="M4026.15,-183.11C4113.06,-174.09 4299.99,-154.68 4411.04,-143.14"/>
<polygon fill="midnightblue" stroke="midnightblue" points="4411.63,-146.6 4421.21,-142.09 4410.9,-139.64 4411.63,-146.6"/>
</g>
<!-- Node47 -->
<g id="node47" class="node">
<title>Node47</title>
<g id="a_node47"><a xlink:title=" ">
<polygon fill="none" stroke="#bfbfbf" points="4595.08,-123.5 4595.08,-142.5 4701.08,-142.5 4701.08,-123.5 4595.08,-123.5"/>
<text text-anchor="middle" x="4648.08" y="-130.5" font-family="FreeSans.ttf" font-size="10.00">yarp/os/Network.h</text>
</a>
</g>
</g>
<!-- Node1&#45;&gt;Node47 -->
<g id="edge59" class="edge">
<title>Node1&#45;&gt;Node47</title>
<path fill="none" stroke="midnightblue" d="M4026.41,-185.62C4127.13,-180.32 4370.34,-166.23 4584.82,-143.06"/>
<polygon fill="midnightblue" stroke="midnightblue" points="4585.45,-146.52 4595.01,-141.95 4584.69,-139.56 4585.45,-146.52"/>
</g>
<!-- Node3 -->
<g id="node3" class="node">
<title>Node3</title>
<g id="a_node3"><a xlink:title=" ">
<polygon fill="none" stroke="#bfbfbf" points="19.08,-62 19.08,-81 165.08,-81 165.08,-62 19.08,-62"/>
<text text-anchor="middle" x="92.08" y="-69" font-family="FreeSans.ttf" font-size="10.00">gazebo/common/Plugin.hh</text>
</a>
</g>
</g>
<!-- Node2&#45;&gt;Node3 -->
<g id="edge2" class="edge">
<title>Node2&#45;&gt;Node3</title>
<path fill="none" stroke="midnightblue" d="M2179.17,-131.95C1909.78,-131.5 581.42,-127.24 174.08,-87 164.05,-86.01 153.39,-84.48 143.2,-82.78"/>
<polygon fill="midnightblue" stroke="midnightblue" points="143.66,-79.31 133.21,-81.04 142.46,-86.21 143.66,-79.31"/>
</g>
<!-- Node4 -->
<g id="node4" class="node">
<title>Node4</title>
<g id="a_node4"><a xlink:title=" ">
<polygon fill="none" stroke="#bfbfbf" points="2893.08,-62 2893.08,-81 2937.08,-81 2937.08,-62 2893.08,-62"/>
<text text-anchor="middle" x="2915.08" y="-69" font-family="FreeSans.ttf" font-size="10.00">string</text>
</a>
</g>
</g>
<!-- Node2&#45;&gt;Node4 -->
<g id="edge3" class="edge">
<title>Node2&#45;&gt;Node4</title>
<path fill="none" stroke="midnightblue" d="M2274.7,-124.02C2277.53,-123.64 2280.34,-123.3 2283.08,-123 2549.07,-93.73 2624.72,-152.86 2884.08,-87 2886.07,-86.5 2888.08,-85.86 2890.08,-85.15"/>
<polygon fill="midnightblue" stroke="midnightblue" points="2891.89,-88.18 2899.74,-81.07 2889.16,-81.74 2891.89,-88.18"/>
</g>
<!-- Node5 -->
<g id="node5" class="node">
<title>Node5</title>
<g id="a_node5"><a xlink:title=" ">
<polygon fill="none" stroke="#bfbfbf" points="3267.08,-62 3267.08,-81 3407.08,-81 3407.08,-62 3267.08,-62"/>
<text text-anchor="middle" x="3337.08" y="-69" font-family="FreeSans.ttf" font-size="10.00">yarp/dev/PolyDriverList.h</text>
</a>
</g>
</g>
<!-- Node2&#45;&gt;Node5 -->
<g id="edge4" class="edge">
<title>Node2&#45;&gt;Node5</title>
<path fill="none" stroke="midnightblue" d="M2274.69,-123.95C2277.52,-123.59 2280.34,-123.27 2283.08,-123 2697.35,-81.9 2804.12,-120.42 3219.08,-87 3234.27,-85.78 3250.51,-84.05 3265.94,-82.22"/>
<polygon fill="midnightblue" stroke="midnightblue" points="3266.43,-85.69 3275.94,-81 3265.59,-78.74 3266.43,-85.69"/>
</g>
<!-- Node6 -->
<g id="node6" class="node">
<title>Node6</title>
<g id="a_node6"><a xlink:title=" ">
<polygon fill="none" stroke="#bfbfbf" points="183.58,-62 183.58,-81 356.58,-81 356.58,-62 183.58,-62"/>
<text text-anchor="middle" x="270.08" y="-69" font-family="FreeSans.ttf" font-size="10.00">yarp/dev/IVirtualAnalogSensor.h</text>
</a>
</g>
</g>
<!-- Node2&#45;&gt;Node6 -->
<g id="edge5" class="edge">
<title>Node2&#45;&gt;Node6</title>
<path fill="none" stroke="midnightblue" d="M2179.17,-131.66C1925.15,-129.72 733.52,-119.06 366.08,-87 354.01,-85.95 341.15,-84.34 328.9,-82.58"/>
<polygon fill="midnightblue" stroke="midnightblue" points="329.18,-79.08 318.78,-81.07 328.15,-86.01 329.18,-79.08"/>
</g>
<!-- Node7&#45;&gt;Node4 -->
<g id="edge34" class="edge">
<title>Node7&#45;&gt;Node4</title>
<path fill="none" stroke="midnightblue" d="M2411.59,-129.61C2531.09,-124.36 2796.32,-110.44 2884.08,-87 2886.02,-86.48 2887.98,-85.85 2889.94,-85.14"/>
<polygon fill="midnightblue" stroke="midnightblue" points="2891.55,-88.26 2899.4,-81.14 2888.83,-81.81 2891.55,-88.26"/>
</g>
<!-- Node7&#45;&gt;Node6 -->
<g id="edge19" class="edge">
<title>Node7&#45;&gt;Node6</title>
<path fill="none" stroke="midnightblue" d="M2292.28,-123.79C2289.17,-123.49 2286.09,-123.22 2283.08,-123 1433.28,-59.79 1215.2,-158.79 366.08,-87 353.88,-85.97 340.87,-84.35 328.49,-82.57"/>
<polygon fill="midnightblue" stroke="midnightblue" points="328.69,-79.06 318.28,-81.04 327.65,-85.98 328.69,-79.06"/>
</g>
<!-- Node8 -->
<g id="node8" class="node">
<title>Node8</title>
<g id="a_node8"><a xlink:title=" ">
<polygon fill="none" stroke="#bfbfbf" points="3425.08,-62 3425.08,-81 3529.08,-81 3529.08,-62 3425.08,-62"/>
<text text-anchor="middle" x="3477.08" y="-69" font-family="FreeSans.ttf" font-size="10.00">yarp/os/Property.h</text>
</a>
</g>
</g>
<!-- Node7&#45;&gt;Node8 -->
<g id="edge7" class="edge">
<title>Node7&#45;&gt;Node8</title>
<path fill="none" stroke="midnightblue" d="M2411.75,-130.98C2606.12,-127.41 3219.78,-114.23 3416.08,-87 3422.59,-86.1 3429.42,-84.81 3436.06,-83.38"/>
<polygon fill="midnightblue" stroke="midnightblue" points="3437.3,-86.69 3446.27,-81.03 3435.74,-79.86 3437.3,-86.69"/>
</g>
<!-- Node9 -->
<g id="node9" class="node">
<title>Node9</title>
<g id="a_node9"><a xlink:title=" ">
<polygon fill="none" stroke="#bfbfbf" points="375.08,-62 375.08,-81 467.08,-81 467.08,-62 375.08,-62"/>
<text text-anchor="middle" x="421.08" y="-69" font-family="FreeSans.ttf" font-size="10.00">yarp/os/Value.h</text>
</a>
</g>
</g>
<!-- Node7&#45;&gt;Node9 -->
<g id="edge8" class="edge">
<title>Node7&#45;&gt;Node9</title>
<path fill="none" stroke="midnightblue" d="M2292.28,-123.79C2289.17,-123.49 2286.09,-123.23 2283.08,-123 1883.68,-93.05 878.3,-138.34 481.08,-87 474.37,-86.13 467.32,-84.81 460.5,-83.31"/>
<polygon fill="midnightblue" stroke="midnightblue" points="461.29,-79.9 450.75,-81.02 459.69,-86.71 461.29,-79.9"/>
</g>
<!-- Node10 -->
<g id="node10" class="node">
<title>Node10</title>
<g id="a_node10"><a xlink:title=" ">
<polygon fill="none" stroke="#bfbfbf" points="3103.58,-62 3103.58,-81 3210.58,-81 3210.58,-62 3103.58,-62"/>
<text text-anchor="middle" x="3157.08" y="-69" font-family="FreeSans.ttf" font-size="10.00">yarp/dev/Drivers.h</text>
</a>
</g>
</g>
<!-- Node7&#45;&gt;Node10 -->
<g id="edge9" class="edge">
<title>Node7&#45;&gt;Node10</title>
<path fill="none" stroke="midnightblue" d="M2412.05,-131.72C2538.7,-130.39 2842.45,-123.33 3094.08,-87 3100.8,-86.03 3107.86,-84.71 3114.72,-83.26"/>
<polygon fill="midnightblue" stroke="midnightblue" points="3115.58,-86.65 3124.58,-81.06 3114.06,-79.82 3115.58,-86.65"/>
</g>
<!-- Node11 -->
<g id="node11" class="node">
<title>Node11</title>
<g id="a_node11"><a xlink:title=" ">
<polygon fill="none" stroke="#bfbfbf" points="3547.08,-62 3547.08,-81 3669.08,-81 3669.08,-62 3547.08,-62"/>
<text text-anchor="middle" x="3608.08" y="-69" font-family="FreeSans.ttf" font-size="10.00">yarp/dev/PolyDriver.h</text>
</a>
</g>
</g>
<!-- Node7&#45;&gt;Node11 -->
<g id="edge10" class="edge">
<title>Node7&#45;&gt;Node11</title>
<path fill="none" stroke="midnightblue" d="M2411.9,-131.05C2620.71,-127.51 3316.54,-113.96 3538.08,-87 3546.14,-86.02 3554.65,-84.59 3562.85,-83.01"/>
<polygon fill="midnightblue" stroke="midnightblue" points="3563.55,-86.44 3572.66,-81.03 3562.16,-79.58 3563.55,-86.44"/>
</g>
<!-- Node12 -->
<g id="node12" class="node">
<title>Node12</title>
<g id="a_node12"><a xlink:title=" ">
<polygon fill="none" stroke="#bfbfbf" points="703.58,-62 703.58,-81 828.58,-81 828.58,-62 703.58,-62"/>
<text text-anchor="middle" x="766.08" y="-69" font-family="FreeSans.ttf" font-size="10.00">yarp/dev/IPidControl.h</text>
</a>
</g>
</g>
<!-- Node7&#45;&gt;Node12 -->
<g id="edge11" class="edge">
<title>Node7&#45;&gt;Node12</title>
<path fill="none" stroke="midnightblue" d="M2292.28,-123.81C2289.17,-123.51 2286.09,-123.23 2283.08,-123 1642.58,-73.39 1476.49,-158.69 838.08,-87 829.61,-86.05 820.66,-84.61 812.05,-82.99"/>
<polygon fill="midnightblue" stroke="midnightblue" points="812.63,-79.54 802.15,-81.04 811.28,-86.41 812.63,-79.54"/>
</g>
<!-- Node13 -->
<g id="node13" class="node">
<title>Node13</title>
<g id="a_node13"><a xlink:title=" ">
<polygon fill="none" stroke="#bfbfbf" points="847.08,-62 847.08,-81 981.08,-81 981.08,-62 847.08,-62"/>
<text text-anchor="middle" x="914.08" y="-69" font-family="FreeSans.ttf" font-size="10.00">yarp/dev/IPWMControl.h</text>
</a>
</g>
</g>
<!-- Node7&#45;&gt;Node13 -->
<g id="edge12" class="edge">
<title>Node7&#45;&gt;Node13</title>
<path fill="none" stroke="midnightblue" d="M2292.28,-123.82C2289.17,-123.51 2286.09,-123.24 2283.08,-123 1709.97,-77.76 1561.61,-149.07 990.08,-87 980.96,-86.01 971.3,-84.52 962.03,-82.86"/>
<polygon fill="midnightblue" stroke="midnightblue" points="962.65,-79.41 952.17,-81.01 961.36,-86.29 962.65,-79.41"/>
</g>
<!-- Node14 -->
<g id="node14" class="node">
<title>Node14</title>
<g id="a_node14"><a xlink:title=" ">
<polygon fill="none" stroke="#bfbfbf" points="999.08,-62 999.08,-81 1145.08,-81 1145.08,-62 999.08,-62"/>
<text text-anchor="middle" x="1072.08" y="-69" font-family="FreeSans.ttf" font-size="10.00">yarp/dev/ICurrentControl.h</text>
</a>
</g>
</g>
<!-- Node7&#45;&gt;Node14 -->
<g id="edge13" class="edge">
<title>Node7&#45;&gt;Node14</title>
<path fill="none" stroke="midnightblue" d="M2292.28,-123.84C2289.17,-123.53 2286.09,-123.24 2283.08,-123 1782.69,-82.49 1653.43,-138.84 1154.08,-87 1144.16,-85.97 1133.63,-84.44 1123.54,-82.76"/>
<polygon fill="midnightblue" stroke="midnightblue" points="1124.09,-79.3 1113.63,-81.04 1122.89,-86.2 1124.09,-79.3"/>
</g>
<!-- Node15 -->
<g id="node15" class="node">
<title>Node15</title>
<g id="a_node15"><a xlink:title=" ">
<polygon fill="none" stroke="#bfbfbf" points="1163.58,-56.5 1163.58,-86.5 1338.58,-86.5 1338.58,-56.5 1163.58,-56.5"/>
<text text-anchor="start" x="1171.58" y="-74.5" font-family="FreeSans.ttf" font-size="10.00">yarp/dev/ControlBoardInterfaces</text>
<text text-anchor="middle" x="1251.08" y="-63.5" font-family="FreeSans.ttf" font-size="10.00">Impl.h</text>
</a>
</g>
</g>
<!-- Node7&#45;&gt;Node15 -->
<g id="edge14" class="edge">
<title>Node7&#45;&gt;Node15</title>
<path fill="none" stroke="midnightblue" d="M2292.28,-123.86C2289.17,-123.54 2286.09,-123.25 2283.08,-123 1872.03,-88.35 1763.87,-125.2 1348.97,-87"/>
<polygon fill="midnightblue" stroke="midnightblue" points="1349.08,-83.49 1338.8,-86.05 1348.43,-90.46 1349.08,-83.49"/>
</g>
<!-- Node16 -->
<g id="node16" class="node">
<title>Node16</title>
<g id="a_node16"><a xlink:title=" ">
<polygon fill="none" stroke="#bfbfbf" points="1357.08,-62 1357.08,-81 1541.08,-81 1541.08,-62 1357.08,-62"/>
<text text-anchor="middle" x="1449.08" y="-69" font-family="FreeSans.ttf" font-size="10.00">yarp/dev/ControlBoardInterfaces.h</text>
</a>
</g>
</g>
<!-- Node7&#45;&gt;Node16 -->
<g id="edge15" class="edge">
<title>Node7&#45;&gt;Node16</title>
<path fill="none" stroke="midnightblue" d="M2292.27,-123.9C2289.17,-123.57 2286.09,-123.27 2283.08,-123 1958.21,-93.88 1874.76,-118.21 1550.08,-87 1537.7,-85.81 1524.51,-84.18 1511.89,-82.44"/>
<polygon fill="midnightblue" stroke="midnightblue" points="1512.3,-78.97 1501.91,-81.04 1511.32,-85.9 1512.3,-78.97"/>
</g>
<!-- Node17 -->
<g id="node17" class="node">
<title>Node17</title>
<g id="a_node17"><a xlink:title=" ">
<polygon fill="none" stroke="#bfbfbf" points="1743.58,-62 1743.58,-81 1880.58,-81 1880.58,-62 1743.58,-62"/>
<text text-anchor="middle" x="1812.08" y="-69" font-family="FreeSans.ttf" font-size="10.00">yarp/dev/IControlMode.h</text>
</a>
</g>
</g>
<!-- Node7&#45;&gt;Node17 -->
<g id="edge16" class="edge">
<title>Node7&#45;&gt;Node17</title>
<path fill="none" stroke="midnightblue" d="M2292.26,-124.05C2289.16,-123.69 2286.08,-123.33 2283.08,-123 2108.75,-103.65 2063.82,-111.05 1890.08,-87 1881.65,-85.83 1872.74,-84.38 1864.08,-82.86"/>
<polygon fill="midnightblue" stroke="midnightblue" points="1864.53,-79.38 1854.07,-81.04 1863.28,-86.27 1864.53,-79.38"/>
</g>
<!-- Node18 -->
<g id="node18" class="node">
<title>Node18</title>
<g id="a_node18"><a xlink:title=" ">
<polygon fill="none" stroke="#bfbfbf" points="1899.08,-62 1899.08,-81 2053.08,-81 2053.08,-62 1899.08,-62"/>
<text text-anchor="middle" x="1976.08" y="-69" font-family="FreeSans.ttf" font-size="10.00">yarp/dev/IInteractionMode.h</text>
</a>
</g>
</g>
<!-- Node7&#45;&gt;Node18 -->
<g id="edge17" class="edge">
<title>Node7&#45;&gt;Node18</title>
<path fill="none" stroke="midnightblue" d="M2295.64,-123.47C2237.17,-114.57 2143.18,-100.13 2062.08,-87 2053.7,-85.64 2044.87,-84.19 2036.18,-82.74"/>
<polygon fill="midnightblue" stroke="midnightblue" points="2036.53,-79.25 2026.09,-81.04 2035.37,-86.15 2036.53,-79.25"/>
</g>
<!-- Node19 -->
<g id="node19" class="node">
<title>Node19</title>
<g id="a_node19"><a xlink:title=" ">
<polygon fill="none" stroke="#bfbfbf" points="2071.08,-62 2071.08,-81 2229.08,-81 2229.08,-62 2071.08,-62"/>
<text text-anchor="middle" x="2150.08" y="-69" font-family="FreeSans.ttf" font-size="10.00">yarp/dev/IRemoteVariables.h</text>
</a>
</g>
</g>
<!-- Node7&#45;&gt;Node19 -->
<g id="edge18" class="edge">
<title>Node7&#45;&gt;Node19</title>
<path fill="none" stroke="midnightblue" d="M2323.14,-123.48C2287.81,-113.07 2227.95,-95.44 2188.72,-83.88"/>
<polygon fill="midnightblue" stroke="midnightblue" points="2189.55,-80.48 2178.97,-81.01 2187.57,-87.19 2189.55,-80.48"/>
</g>
<!-- Node20 -->
<g id="node20" class="node">
<title>Node20</title>
<g id="a_node20"><a xlink:title=" ">
<polygon fill="none" stroke="#bfbfbf" points="2247.08,-62 2247.08,-81 2345.08,-81 2345.08,-62 2247.08,-62"/>
<text text-anchor="middle" x="2296.08" y="-69" font-family="FreeSans.ttf" font-size="10.00">yarp/sig/Vector.h</text>
</a>
</g>
</g>
<!-- Node7&#45;&gt;Node20 -->
<g id="edge20" class="edge">
<title>Node7&#45;&gt;Node20</title>
<path fill="none" stroke="midnightblue" d="M2344.06,-123.48C2335.49,-114.37 2321.72,-99.74 2311.12,-88.48"/>
<polygon fill="midnightblue" stroke="midnightblue" points="2313.49,-85.89 2304.09,-81.01 2308.39,-90.69 2313.49,-85.89"/>
</g>
<!-- Node21 -->
<g id="node21" class="node">
<title>Node21</title>
<g id="a_node21"><a xlink:title=" ">
<polygon fill="none" stroke="#bfbfbf" points="2363.58,-62 2363.58,-81 2452.58,-81 2452.58,-62 2363.58,-62"/>
<text text-anchor="middle" x="2408.08" y="-69" font-family="FreeSans.ttf" font-size="10.00">yarp/os/Time.h</text>
</a>
</g>
</g>
<!-- Node7&#45;&gt;Node21 -->
<g id="edge21" class="edge">
<title>Node7&#45;&gt;Node21</title>
<path fill="none" stroke="midnightblue" d="M2360.1,-123.48C2368.67,-114.37 2382.44,-99.74 2393.04,-88.48"/>
<polygon fill="midnightblue" stroke="midnightblue" points="2395.77,-90.69 2400.07,-81.01 2390.67,-85.89 2395.77,-90.69"/>
</g>
<!-- Node22 -->
<g id="node22" class="node">
<title>Node22</title>
<g id="a_node22"><a xlink:title=" ">
<polygon fill="none" stroke="#bfbfbf" points="2471.08,-62 2471.08,-81 2567.08,-81 2567.08,-62 2471.08,-62"/>
<text text-anchor="middle" x="2519.08" y="-69" font-family="FreeSans.ttf" font-size="10.00">yarp/os/Stamp.h</text>
</a>
</g>
</g>
<!-- Node7&#45;&gt;Node22 -->
<g id="edge22" class="edge">
<title>Node7&#45;&gt;Node22</title>
<path fill="none" stroke="midnightblue" d="M2376.01,-123.48C2404.78,-113.22 2453.24,-95.96 2485.68,-84.4"/>
<polygon fill="midnightblue" stroke="midnightblue" points="2486.95,-87.66 2495.2,-81.01 2484.6,-81.07 2486.95,-87.66"/>
</g>
<!-- Node23 -->
<g id="node23" class="node">
<title>Node23</title>
<g id="a_node23"><a xlink:title=" ">
<polygon fill="none" stroke="#bfbfbf" points="3919.58,-62 3919.58,-81 4038.58,-81 4038.58,-62 3919.58,-62"/>
<text text-anchor="middle" x="3979.08" y="-69" font-family="FreeSans.ttf" font-size="10.00">boost/shared_ptr.hpp</text>
</a>
</g>
</g>
<!-- Node7&#45;&gt;Node23 -->
<g id="edge23" class="edge">
<title>Node7&#45;&gt;Node23</title>
<path fill="none" stroke="midnightblue" d="M2411.86,-131.7C2660.29,-130.22 3611.97,-122.34 3910.08,-87 3918.03,-86.06 3926.42,-84.65 3934.51,-83.08"/>
<polygon fill="midnightblue" stroke="midnightblue" points="3935.44,-86.46 3944.53,-81.02 3934.03,-79.6 3935.44,-86.46"/>
</g>
<!-- Node24 -->
<g id="node24" class="node">
<title>Node24</title>
<g id="a_node24"><a xlink:href="ControlBoardDriverRange_8h.html" target="_top" xlink:title=" ">
<polygon fill="none" stroke="black" points="2124.08,-0.5 2124.08,-19.5 2274.08,-19.5 2274.08,-0.5 2124.08,-0.5"/>
<text text-anchor="middle" x="2199.08" y="-7.5" font-family="FreeSans.ttf" font-size="10.00">ControlBoardDriverRange.h</text>
</a>
</g>
</g>
<!-- Node7&#45;&gt;Node24 -->
<g id="edge24" class="edge">
<title>Node7&#45;&gt;Node24</title>
<path fill="none" stroke="midnightblue" d="M2411.86,-131.13C2603.43,-128.05 3191.3,-116.26 3219.08,-87 3228.57,-77.01 3228.61,-65.95 3219.08,-56 3203,-39.19 2527.03,-19.68 2284.54,-13.21"/>
<polygon fill="midnightblue" stroke="midnightblue" points="2284.46,-9.71 2274.37,-12.94 2284.27,-16.7 2284.46,-9.71"/>
</g>
<!-- Node25 -->
<g id="node25" class="node">
<title>Node25</title>
<g id="a_node25"><a xlink:href="ControlBoardDriverTrajectory_8h.html" target="_top" xlink:title=" ">
<polygon fill="none" stroke="black" points="1559.08,-62 1559.08,-81 1725.08,-81 1725.08,-62 1559.08,-62"/>
<text text-anchor="middle" x="1642.08" y="-69" font-family="FreeSans.ttf" font-size="10.00">ControlBoardDriverTrajectory.h</text>
</a>
</g>
</g>
<!-- Node7&#45;&gt;Node25 -->
<g id="edge25" class="edge">
<title>Node7&#45;&gt;Node25</title>
<path fill="none" stroke="midnightblue" d="M2292.27,-123.96C2289.16,-123.62 2286.09,-123.29 2283.08,-123 2039.72,-99.17 1977.1,-114.06 1734.08,-87 1723.25,-85.79 1711.75,-84.22 1700.68,-82.55"/>
<polygon fill="midnightblue" stroke="midnightblue" points="1701.09,-79.07 1690.67,-81 1700.02,-85.99 1701.09,-79.07"/>
</g>
<!-- Node28 -->
<g id="node28" class="node">
<title>Node28</title>
<g id="a_node28"><a xlink:href="ControlBoardDriverCoupling_8h.html" target="_top" xlink:title=" ">
<polygon fill="none" stroke="black" points="523.08,-62 523.08,-81 685.08,-81 685.08,-62 523.08,-62"/>
<text text-anchor="middle" x="604.08" y="-69" font-family="FreeSans.ttf" font-size="10.00">ControlBoardDriverCoupling.h</text>
</a>
</g>
</g>
<!-- Node7&#45;&gt;Node28 -->
<g id="edge28" class="edge">
<title>Node7&#45;&gt;Node28</title>
<path fill="none" stroke="midnightblue" d="M2292.28,-123.8C2289.17,-123.5 2286.09,-123.23 2283.08,-123 1578.73,-69.24 1397.55,-151.33 694.08,-87 682.74,-85.96 670.67,-84.36 659.18,-82.6"/>
<polygon fill="midnightblue" stroke="midnightblue" points="659.68,-79.14 649.25,-81.02 658.58,-86.05 659.68,-79.14"/>
</g>
<!-- Node29 -->
<g id="node29" class="node">
<title>Node29</title>
<g id="a_node29"><a xlink:title=" ">
<polygon fill="none" stroke="#bfbfbf" points="448.58,-0.5 448.58,-19.5 541.58,-19.5 541.58,-0.5 448.58,-0.5"/>
<text text-anchor="middle" x="495.08" y="-7.5" font-family="FreeSans.ttf" font-size="10.00">unordered_map</text>
</a>
</g>
</g>
<!-- Node7&#45;&gt;Node29 -->
<g id="edge36" class="edge">
<title>Node7&#45;&gt;Node29</title>
<path fill="none" stroke="midnightblue" d="M2292.28,-123.79C2289.17,-123.49 2286.09,-123.23 2283.08,-123 2234.07,-119.32 552.51,-117.64 514.08,-87 497.25,-73.58 493.97,-47.71 493.92,-29.91"/>
<polygon fill="midnightblue" stroke="midnightblue" points="497.42,-29.92 494.22,-19.82 490.42,-29.71 497.42,-29.92"/>
</g>
<!-- Node30 -->
<g id="node30" class="node">
<title>Node30</title>
<g id="a_node30"><a xlink:title=" ">
<polygon fill="none" stroke="#bfbfbf" points="2585.08,-62 2585.08,-81 2717.08,-81 2717.08,-62 2585.08,-62"/>
<text text-anchor="middle" x="2651.08" y="-69" font-family="FreeSans.ttf" font-size="10.00">gazebo/common/PID.hh</text>
</a>
</g>
</g>
<!-- Node7&#45;&gt;Node30 -->
<g id="edge32" class="edge">
<title>Node7&#45;&gt;Node30</title>
<path fill="none" stroke="midnightblue" d="M2394.92,-123.48C2448.54,-112.8 2540.36,-94.53 2598.27,-83.01"/>
<polygon fill="midnightblue" stroke="midnightblue" points="2599.2,-86.39 2608.32,-81.01 2597.83,-79.53 2599.2,-86.39"/>
</g>
<!-- Node31 -->
<g id="node31" class="node">
<title>Node31</title>
<g id="a_node31"><a xlink:title=" ">
<polygon fill="none" stroke="#bfbfbf" points="2735.08,-62 2735.08,-81 2875.08,-81 2875.08,-62 2735.08,-62"/>
<text text-anchor="middle" x="2805.08" y="-69" font-family="FreeSans.ttf" font-size="10.00">gazebo/common/Time.hh</text>
</a>
</g>
</g>
<!-- Node7&#45;&gt;Node31 -->
<g id="edge33" class="edge">
<title>Node7&#45;&gt;Node31</title>
<path fill="none" stroke="midnightblue" d="M2411.83,-125.96C2485.79,-118.22 2615.52,-103.78 2726.08,-87 2734.22,-85.77 2742.8,-84.33 2751.19,-82.85"/>
<polygon fill="midnightblue" stroke="midnightblue" points="2752.06,-86.25 2761.29,-81.04 2750.83,-79.36 2752.06,-86.25"/>
</g>
<!-- Node32 -->
<g id="node32" class="node">
<title>Node32</title>
<g id="a_node32"><a xlink:title=" ">
<polygon fill="none" stroke="#bfbfbf" points="2955.58,-62 2955.58,-81 3020.58,-81 3020.58,-62 2955.58,-62"/>
<text text-anchor="middle" x="2988.08" y="-69" font-family="FreeSans.ttf" font-size="10.00">functional</text>
</a>
</g>
</g>
<!-- Node7&#45;&gt;Node32 -->
<g id="edge35" class="edge">
<title>Node7&#45;&gt;Node32</title>
<path fill="none" stroke="midnightblue" d="M2411.8,-132.51C2519.66,-132.32 2753.66,-126.81 2946.08,-87 2949.59,-86.27 2953.2,-85.34 2956.77,-84.28"/>
<polygon fill="midnightblue" stroke="midnightblue" points="2958.14,-87.52 2966.58,-81.11 2955.99,-80.86 2958.14,-87.52"/>
</g>
<!-- Node33 -->
<g id="node33" class="node">
<title>Node33</title>
<g id="a_node33"><a xlink:title=" ">
<polygon fill="none" stroke="#bfbfbf" points="3038.58,-62 3038.58,-81 3085.58,-81 3085.58,-62 3038.58,-62"/>
<text text-anchor="middle" x="3062.08" y="-69" font-family="FreeSans.ttf" font-size="10.00">vector</text>
</a>
</g>
</g>
<!-- Node7&#45;&gt;Node33 -->
<g id="edge37" class="edge">
<title>Node7&#45;&gt;Node33</title>
<path fill="none" stroke="midnightblue" d="M2411.66,-130.68C2554.42,-127.1 2912.81,-115.48 3029.08,-87 3031.44,-86.42 3033.84,-85.69 3036.22,-84.85"/>
<polygon fill="midnightblue" stroke="midnightblue" points="3037.72,-88.02 3045.69,-81.04 3035.11,-81.53 3037.72,-88.02"/>
</g>
<!-- Node25&#45;&gt;Node26 -->
<g id="edge26" class="edge">
<title>Node25&#45;&gt;Node26</title>
<path fill="none" stroke="midnightblue" d="M1594.46,-62C1580.23,-59.73 1564.56,-57.49 1550.08,-56 1240.72,-24.15 870.44,-14.72 710.34,-12.03"/>
<polygon fill="midnightblue" stroke="midnightblue" points="710.16,-8.53 700.1,-11.86 710.04,-15.52 710.16,-8.53"/>
</g>
<!-- Node27 -->
<g id="node27" class="node">
<title>Node27</title>
<g id="a_node27"><a xlink:title=" ">
<polygon fill="none" stroke="#bfbfbf" points="2658.08,-0.5 2658.08,-19.5 2706.08,-19.5 2706.08,-0.5 2658.08,-0.5"/>
<text text-anchor="middle" x="2682.08" y="-7.5" font-family="FreeSans.ttf" font-size="10.00">mutex</text>
</a>
</g>
</g>
<!-- Node25&#45;&gt;Node27 -->
<g id="edge27" class="edge">
<title>Node25&#45;&gt;Node27</title>
<path fill="none" stroke="midnightblue" d="M1689.7,-61.98C1703.94,-59.71 1719.6,-57.48 1734.08,-56 2090.05,-19.61 2524.3,-12.58 2647.84,-11.28"/>
<polygon fill="midnightblue" stroke="midnightblue" points="2647.87,-14.78 2657.84,-11.18 2647.8,-7.78 2647.87,-14.78"/>
</g>
<!-- Node28&#45;&gt;Node24 -->
<g id="edge29" class="edge">
<title>Node28&#45;&gt;Node24</title>
<path fill="none" stroke="midnightblue" d="M649.72,-61.97C663.89,-59.64 679.59,-57.38 694.08,-56 972.52,-29.52 1837.11,-15.87 2113.32,-12.1"/>
<polygon fill="midnightblue" stroke="midnightblue" points="2113.73,-15.59 2123.68,-11.96 2113.64,-8.59 2113.73,-15.59"/>
</g>
<!-- Node28&#45;&gt;Node26 -->
<g id="edge30" class="edge">
<title>Node28&#45;&gt;Node26</title>
<path fill="none" stroke="midnightblue" d="M607.81,-61.98C611.55,-53.4 617.44,-39.93 622.22,-28.98"/>
<polygon fill="midnightblue" stroke="midnightblue" points="625.57,-30.07 626.36,-19.51 619.15,-27.27 625.57,-30.07"/>
</g>
<!-- Node28&#45;&gt;Node29 -->
<g id="edge31" class="edge">
<title>Node28&#45;&gt;Node29</title>
<path fill="none" stroke="midnightblue" d="M588.46,-61.98C570.5,-52.17 540.76,-35.93 519.68,-24.42"/>
<polygon fill="midnightblue" stroke="midnightblue" points="521.12,-21.23 510.67,-19.51 517.77,-27.37 521.12,-21.23"/>
</g>
<!-- Node35 -->
<g id="node35" class="node">
<title>Node35</title>
<g id="a_node35"><a xlink:title=" ">
<polygon fill="none" stroke="#bfbfbf" points="4644.08,-62 4644.08,-81 4782.08,-81 4782.08,-62 4644.08,-62"/>
<text text-anchor="middle" x="4713.08" y="-69" font-family="FreeSans.ttf" font-size="10.00">yarp/os/LogComponent.h</text>
</a>
</g>
</g>
<!-- Node34&#45;&gt;Node35 -->
<g id="edge39" class="edge">
<title>Node34&#45;&gt;Node35</title>
<path fill="none" stroke="midnightblue" d="M4403.73,-123.97C4461.07,-115.29 4554.61,-100.83 4635.08,-87 4642.54,-85.72 4650.39,-84.32 4658.11,-82.91"/>
<polygon fill="midnightblue" stroke="midnightblue" points="4658.96,-86.32 4668.16,-81.07 4657.69,-79.43 4658.96,-86.32"/>
</g>
<!-- Node36 -->
<g id="node36" class="node">
<title>Node36</title>
<g id="a_node36"><a xlink:title=" ">
<polygon fill="none" stroke="#bfbfbf" points="4800.58,-62 4800.58,-81 4917.58,-81 4917.58,-62 4800.58,-62"/>
<text text-anchor="middle" x="4859.08" y="-69" font-family="FreeSans.ttf" font-size="10.00">yarp/os/LogStream.h</text>
</a>
</g>
</g>
<!-- Node34&#45;&gt;Node36 -->
<g id="edge40" class="edge">
<title>Node34&#45;&gt;Node36</title>
<path fill="none" stroke="midnightblue" d="M4403.68,-124.17C4406.86,-123.76 4410.01,-123.37 4413.08,-123 4580.66,-103.06 4624.28,-112.64 4791.08,-87 4798.22,-85.9 4805.73,-84.53 4813.06,-83.06"/>
<polygon fill="midnightblue" stroke="midnightblue" points="4813.79,-86.48 4822.87,-81.03 4812.37,-79.63 4813.79,-86.48"/>
</g>
<!-- Node37&#45;&gt;Node4 -->
<g id="edge42" class="edge">
<title>Node37&#45;&gt;Node4</title>
<path fill="none" stroke="midnightblue" d="M3628.8,-131.07C3458.63,-128.51 3073.28,-119.23 2946.08,-87 2944.09,-86.5 2942.08,-85.87 2940.08,-85.15"/>
<polygon fill="midnightblue" stroke="midnightblue" points="2941,-81.74 2930.42,-81.08 2938.28,-88.19 2941,-81.74"/>
</g>
<!-- Node38 -->
<g id="node38" class="node">
<title>Node38</title>
<g id="a_node38"><a xlink:title=" ">
<polygon fill="none" stroke="#bfbfbf" points="3687.58,-62 3687.58,-81 3734.58,-81 3734.58,-62 3687.58,-62"/>
<text text-anchor="middle" x="3711.08" y="-69" font-family="FreeSans.ttf" font-size="10.00">cmath</text>
</a>
</g>
</g>
<!-- Node37&#45;&gt;Node38 -->
<g id="edge43" class="edge">
<title>Node37&#45;&gt;Node38</title>
<path fill="none" stroke="midnightblue" d="M3711.08,-123.48C3711.08,-115.08 3711.08,-101.98 3711.08,-91.16"/>
<polygon fill="midnightblue" stroke="midnightblue" points="3714.58,-91.01 3711.08,-81.01 3707.58,-91.01 3714.58,-91.01"/>
</g>
<!-- Node39&#45;&gt;Node5 -->
<g id="edge50" class="edge">
<title>Node39&#45;&gt;Node5</title>
<path fill="none" stroke="midnightblue" d="M3896.76,-128.05C3786.83,-122.17 3586.22,-109.35 3416.08,-87 3407.34,-85.85 3398.1,-84.39 3389.14,-82.83"/>
<polygon fill="midnightblue" stroke="midnightblue" points="3389.65,-79.37 3379.18,-81.05 3388.41,-86.26 3389.65,-79.37"/>
</g>
<!-- Node39&#45;&gt;Node11 -->
<g id="edge49" class="edge">
<title>Node39&#45;&gt;Node11</title>
<path fill="none" stroke="midnightblue" d="M3914.91,-123.46C3853.85,-115.09 3759.49,-101.51 3678.08,-87 3671.35,-85.8 3664.27,-84.45 3657.31,-83.06"/>
<polygon fill="midnightblue" stroke="midnightblue" points="3657.75,-79.58 3647.25,-81.02 3656.35,-86.44 3657.75,-79.58"/>
</g>
<!-- Node39&#45;&gt;Node23 -->
<g id="edge47" class="edge">
<title>Node39&#45;&gt;Node23</title>
<path fill="none" stroke="midnightblue" d="M3979.08,-123.48C3979.08,-115.08 3979.08,-101.98 3979.08,-91.16"/>
<polygon fill="midnightblue" stroke="midnightblue" points="3982.58,-91.01 3979.08,-81.01 3975.58,-91.01 3982.58,-91.01"/>
</g>
<!-- Node39&#45;&gt;Node27 -->
<g id="edge48" class="edge">
<title>Node39&#45;&gt;Node27</title>
<path fill="none" stroke="midnightblue" d="M4002.54,-123.41C4018.24,-116.28 4037.7,-104.46 4047.08,-87 4053.6,-74.86 4056.66,-65.9 4047.08,-56 3999.42,-6.75 2924.16,-9.76 2716.59,-10.8"/>
<polygon fill="midnightblue" stroke="midnightblue" points="2716.27,-7.3 2706.29,-10.85 2716.31,-14.3 2716.27,-7.3"/>
</g>
<!-- Node40 -->
<g id="node40" class="node">
<title>Node40</title>
<g id="a_node40"><a xlink:title=" ">
<polygon fill="none" stroke="#bfbfbf" points="4095.08,-62 4095.08,-81 4133.08,-81 4133.08,-62 4095.08,-62"/>
<text text-anchor="middle" x="4114.08" y="-69" font-family="FreeSans.ttf" font-size="10.00">map</text>
</a>
</g>
</g>
<!-- Node39&#45;&gt;Node40 -->
<g id="edge45" class="edge">
<title>Node39&#45;&gt;Node40</title>
<path fill="none" stroke="midnightblue" d="M3998.42,-123.48C4021.18,-113.45 4059.17,-96.7 4085.37,-85.15"/>
<polygon fill="midnightblue" stroke="midnightblue" points="4087.04,-88.24 4094.78,-81.01 4084.21,-81.84 4087.04,-88.24"/>
</g>
<!-- Node41 -->
<g id="node41" class="node">
<title>Node41</title>
<g id="a_node41"><a xlink:title=" ">
<polygon fill="none" stroke="#bfbfbf" points="4151.58,-62 4151.58,-81 4244.58,-81 4244.58,-62 4151.58,-62"/>
<text text-anchor="middle" x="4198.08" y="-69" font-family="FreeSans.ttf" font-size="10.00">sdf/sdf_config.h</text>
</a>
</g>
</g>
<!-- Node39&#45;&gt;Node41 -->
<g id="edge46" class="edge">
<title>Node39&#45;&gt;Node41</title>
<path fill="none" stroke="midnightblue" d="M4010.46,-123.48C4049,-113 4114.49,-95.21 4157,-83.66"/>
<polygon fill="midnightblue" stroke="midnightblue" points="4158.03,-87.01 4166.76,-81.01 4156.19,-80.25 4158.03,-87.01"/>
</g>
<!-- Node42 -->
<g id="node42" class="node">
<title>Node42</title>
<g id="a_node42"><a xlink:title=" ">
<polygon fill="none" stroke="#bfbfbf" points="3752.58,-62 3752.58,-81 3901.58,-81 3901.58,-62 3752.58,-62"/>
<text text-anchor="middle" x="3827.08" y="-69" font-family="FreeSans.ttf" font-size="10.00">gazebo/common/Events.hh</text>
</a>
</g>
</g>
<!-- Node39&#45;&gt;Node42 -->
<g id="edge51" class="edge">
<title>Node39&#45;&gt;Node42</title>
<path fill="none" stroke="midnightblue" d="M3957.3,-123.48C3931.34,-113.31 3887.77,-96.26 3858.25,-84.7"/>
<polygon fill="midnightblue" stroke="midnightblue" points="3859.41,-81.4 3848.82,-81.01 3856.86,-87.91 3859.41,-81.4"/>
</g>
<!-- Node43&#45;&gt;Node23 -->
<g id="edge54" class="edge">
<title>Node43&#45;&gt;Node23</title>
<path fill="none" stroke="midnightblue" d="M4155.57,-123.48C4119.47,-113.05 4058.23,-95.36 4018.23,-83.81"/>
<polygon fill="midnightblue" stroke="midnightblue" points="4019.12,-80.42 4008.54,-81.01 4017.18,-87.15 4019.12,-80.42"/>
</g>
<!-- Node43&#45;&gt;Node41 -->
<g id="edge53" class="edge">
<title>Node43&#45;&gt;Node41</title>
<path fill="none" stroke="midnightblue" d="M4186.94,-123.48C4188.8,-114.99 4191.7,-101.7 4194.08,-90.82"/>
<polygon fill="midnightblue" stroke="midnightblue" points="4197.51,-91.53 4196.22,-81.01 4190.67,-90.03 4197.51,-91.53"/>
</g>
<!-- Node44 -->
<g id="node44" class="node">
<title>Node44</title>
<g id="a_node44"><a xlink:title=" ">
<polygon fill="none" stroke="#bfbfbf" points="4262.58,-62 4262.58,-81 4433.58,-81 4433.58,-62 4262.58,-62"/>
<text text-anchor="middle" x="4348.08" y="-69" font-family="FreeSans.ttf" font-size="10.00">gazebo/sensors/SensorTypes.hh</text>
</a>
</g>
</g>
<!-- Node43&#45;&gt;Node44 -->
<g id="edge55" class="edge">
<title>Node43&#45;&gt;Node44</title>
<path fill="none" stroke="midnightblue" d="M4208.44,-123.48C4236.4,-113.27 4283.41,-96.11 4315.07,-84.55"/>
<polygon fill="midnightblue" stroke="midnightblue" points="4316.58,-87.73 4324.77,-81.01 4314.18,-81.15 4316.58,-87.73"/>
</g>
<!-- Node45 -->
<g id="node45" class="node">
<title>Node45</title>
<g id="a_node45"><a xlink:title=" ">
<polygon fill="none" stroke="#bfbfbf" points="4452.08,-62 4452.08,-81 4626.08,-81 4626.08,-62 4452.08,-62"/>
<text text-anchor="middle" x="4539.08" y="-69" font-family="FreeSans.ttf" font-size="10.00">gazebo/physics/PhysicsTypes.hh</text>
</a>
</g>
</g>
<!-- Node43&#45;&gt;Node45 -->
<g id="edge56" class="edge">
<title>Node43&#45;&gt;Node45</title>
<path fill="none" stroke="midnightblue" d="M4235.8,-123.48C4299.81,-112.72 4409.79,-94.23 4478.25,-82.72"/>
<polygon fill="midnightblue" stroke="midnightblue" points="4479.17,-86.12 4488.46,-81.01 4478.01,-79.22 4479.17,-86.12"/>
</g>
</g>
</svg>
