<?xml version="1.0" encoding="UTF-8" standalone="no"?>
<!DOCTYPE svg PUBLIC "-//W3C//DTD SVG 1.1//EN"
 "http://www.w3.org/Graphics/SVG/1.1/DTD/svg11.dtd">
<!-- Generated by graphviz version 2.43.0 (0)
 -->
<!-- Title: ControlBoardDriverRemoteVariables.cpp Pages: 1 -->
<svg width="3475pt" height="218pt"
 viewBox="0.00 0.00 3474.50 218.00" xmlns="http://www.w3.org/2000/svg" xmlns:xlink="http://www.w3.org/1999/xlink">
<g id="graph0" class="graph" transform="scale(1 1) rotate(0) translate(4 214)">
<title>ControlBoardDriverRemoteVariables.cpp</title>
<!-- Node1 -->
<g id="node1" class="node">
<title>Node1</title>
<g id="a_node1"><a xlink:title=" ">
<polygon fill="#bfbfbf" stroke="black" points="2018.5,-179.5 2018.5,-209.5 2167.5,-209.5 2167.5,-179.5 2018.5,-179.5"/>
<text text-anchor="start" x="2026.5" y="-197.5" font-family="FreeSans.ttf" font-size="10.00">ControlBoardDriverRemote</text>
<text text-anchor="middle" x="2093" y="-186.5" font-family="FreeSans.ttf" font-size="10.00">Variables.cpp</text>
</a>
</g>
</g>
<!-- Node2 -->
<g id="node2" class="node">
<title>Node2</title>
<g id="a_node2"><a xlink:href="ControlBoardDriver_8h.html" target="_top" xlink:title=" ">
<polygon fill="none" stroke="black" points="1962.5,-123.5 1962.5,-142.5 2081.5,-142.5 2081.5,-123.5 1962.5,-123.5"/>
<text text-anchor="middle" x="2022" y="-130.5" font-family="FreeSans.ttf" font-size="10.00">ControlBoardDriver.h</text>
</a>
</g>
</g>
<!-- Node1&#45;&gt;Node2 -->
<g id="edge1" class="edge">
<title>Node1&#45;&gt;Node2</title>
<path fill="none" stroke="midnightblue" d="M2076.17,-179.4C2065.33,-170.31 2051.22,-158.49 2040.13,-149.19"/>
<polygon fill="midnightblue" stroke="midnightblue" points="2042.24,-146.4 2032.33,-142.66 2037.75,-151.76 2042.24,-146.4"/>
</g>
<!-- Node31 -->
<g id="node31" class="node">
<title>Node31</title>
<g id="a_node31"><a xlink:title=" ">
<polygon fill="none" stroke="#bfbfbf" points="2099.5,-123.5 2099.5,-142.5 2230.5,-142.5 2230.5,-123.5 2099.5,-123.5"/>
<text text-anchor="middle" x="2165" y="-130.5" font-family="FreeSans.ttf" font-size="10.00">gazebo/physics/Joint.hh</text>
</a>
</g>
</g>
<!-- Node1&#45;&gt;Node31 -->
<g id="edge33" class="edge">
<title>Node1&#45;&gt;Node31</title>
<path fill="none" stroke="midnightblue" d="M2110.06,-179.4C2121.06,-170.31 2135.37,-158.49 2146.62,-149.19"/>
<polygon fill="midnightblue" stroke="midnightblue" points="2149.04,-151.73 2154.52,-142.66 2144.59,-146.33 2149.04,-151.73"/>
</g>
<!-- Node3 -->
<g id="node3" class="node">
<title>Node3</title>
<g id="a_node3"><a xlink:title=" ">
<polygon fill="none" stroke="#bfbfbf" points="0,-62 0,-81 104,-81 104,-62 0,-62"/>
<text text-anchor="middle" x="52" y="-69" font-family="FreeSans.ttf" font-size="10.00">yarp/os/Property.h</text>
</a>
</g>
</g>
<!-- Node2&#45;&gt;Node3 -->
<g id="edge2" class="edge">
<title>Node2&#45;&gt;Node3</title>
<path fill="none" stroke="midnightblue" d="M1962.48,-132.28C1681.22,-133.33 483.5,-134.86 113,-87 106.25,-86.13 99.17,-84.82 92.31,-83.34"/>
<polygon fill="midnightblue" stroke="midnightblue" points="93.02,-79.91 82.49,-81.07 91.45,-86.73 93.02,-79.91"/>
</g>
<!-- Node4 -->
<g id="node4" class="node">
<title>Node4</title>
<g id="a_node4"><a xlink:title=" ">
<polygon fill="none" stroke="#bfbfbf" points="122,-62 122,-81 214,-81 214,-62 122,-62"/>
<text text-anchor="middle" x="168" y="-69" font-family="FreeSans.ttf" font-size="10.00">yarp/os/Value.h</text>
</a>
</g>
</g>
<!-- Node2&#45;&gt;Node4 -->
<g id="edge3" class="edge">
<title>Node2&#45;&gt;Node4</title>
<path fill="none" stroke="midnightblue" d="M1962.31,-132.37C1690.71,-133.77 570,-136.39 223,-87 217.18,-86.17 211.08,-84.94 205.16,-83.55"/>
<polygon fill="midnightblue" stroke="midnightblue" points="205.99,-80.15 195.44,-81.08 204.27,-86.93 205.99,-80.15"/>
</g>
<!-- Node5 -->
<g id="node5" class="node">
<title>Node5</title>
<g id="a_node5"><a xlink:title=" ">
<polygon fill="none" stroke="#bfbfbf" points="232.5,-62 232.5,-81 339.5,-81 339.5,-62 232.5,-62"/>
<text text-anchor="middle" x="286" y="-69" font-family="FreeSans.ttf" font-size="10.00">yarp/dev/Drivers.h</text>
</a>
</g>
</g>
<!-- Node2&#45;&gt;Node5 -->
<g id="edge4" class="edge">
<title>Node2&#45;&gt;Node5</title>
<path fill="none" stroke="midnightblue" d="M1962.23,-131.99C1702.49,-131.69 670.56,-127.91 349,-87 342.04,-86.11 334.73,-84.8 327.65,-83.31"/>
<polygon fill="midnightblue" stroke="midnightblue" points="328.03,-79.81 317.5,-81.05 326.5,-86.64 328.03,-79.81"/>
</g>
<!-- Node6 -->
<g id="node6" class="node">
<title>Node6</title>
<g id="a_node6"><a xlink:title=" ">
<polygon fill="none" stroke="#bfbfbf" points="358,-62 358,-81 480,-81 480,-62 358,-62"/>
<text text-anchor="middle" x="419" y="-69" font-family="FreeSans.ttf" font-size="10.00">yarp/dev/PolyDriver.h</text>
</a>
</g>
</g>
<!-- Node2&#45;&gt;Node6 -->
<g id="edge5" class="edge">
<title>Node2&#45;&gt;Node6</title>
<path fill="none" stroke="midnightblue" d="M1962.35,-131.64C1716.64,-129.96 782.04,-121.38 489,-87 480.85,-86.04 472.24,-84.61 463.95,-83.02"/>
<polygon fill="midnightblue" stroke="midnightblue" points="464.55,-79.57 454.06,-81.01 463.16,-86.43 464.55,-79.57"/>
</g>
<!-- Node7 -->
<g id="node7" class="node">
<title>Node7</title>
<g id="a_node7"><a xlink:title=" ">
<polygon fill="none" stroke="#bfbfbf" points="498.5,-62 498.5,-81 623.5,-81 623.5,-62 498.5,-62"/>
<text text-anchor="middle" x="561" y="-69" font-family="FreeSans.ttf" font-size="10.00">yarp/dev/IPidControl.h</text>
</a>
</g>
</g>
<!-- Node2&#45;&gt;Node7 -->
<g id="edge6" class="edge">
<title>Node2&#45;&gt;Node7</title>
<path fill="none" stroke="midnightblue" d="M1962.18,-131.39C1731.06,-128.81 896.33,-117.57 633,-87 624.72,-86.04 615.96,-84.62 607.53,-83.05"/>
<polygon fill="midnightblue" stroke="midnightblue" points="607.93,-79.56 597.44,-81.06 606.58,-86.43 607.93,-79.56"/>
</g>
<!-- Node8 -->
<g id="node8" class="node">
<title>Node8</title>
<g id="a_node8"><a xlink:title=" ">
<polygon fill="none" stroke="#bfbfbf" points="642,-62 642,-81 776,-81 776,-62 642,-62"/>
<text text-anchor="middle" x="709" y="-69" font-family="FreeSans.ttf" font-size="10.00">yarp/dev/IPWMControl.h</text>
</a>
</g>
</g>
<!-- Node2&#45;&gt;Node8 -->
<g id="edge7" class="edge">
<title>Node2&#45;&gt;Node8</title>
<path fill="none" stroke="midnightblue" d="M1962.24,-131.03C1747.76,-127.37 1017.23,-113.22 785,-87 776.08,-85.99 766.63,-84.52 757.55,-82.9"/>
<polygon fill="midnightblue" stroke="midnightblue" points="757.96,-79.42 747.49,-81.02 756.68,-86.3 757.96,-79.42"/>
</g>
<!-- Node9 -->
<g id="node9" class="node">
<title>Node9</title>
<g id="a_node9"><a xlink:title=" ">
<polygon fill="none" stroke="#bfbfbf" points="794,-62 794,-81 940,-81 940,-62 794,-62"/>
<text text-anchor="middle" x="867" y="-69" font-family="FreeSans.ttf" font-size="10.00">yarp/dev/ICurrentControl.h</text>
</a>
</g>
</g>
<!-- Node2&#45;&gt;Node9 -->
<g id="edge8" class="edge">
<title>Node2&#45;&gt;Node9</title>
<path fill="none" stroke="midnightblue" d="M1962.47,-132.28C1799.68,-132.43 1333.61,-128.88 949,-87 939.29,-85.94 929,-84.43 919.11,-82.79"/>
<polygon fill="midnightblue" stroke="midnightblue" points="919.43,-79.29 908.98,-81.03 918.24,-86.19 919.43,-79.29"/>
</g>
<!-- Node10 -->
<g id="node10" class="node">
<title>Node10</title>
<g id="a_node10"><a xlink:title=" ">
<polygon fill="none" stroke="#bfbfbf" points="958.5,-56.5 958.5,-86.5 1133.5,-86.5 1133.5,-56.5 958.5,-56.5"/>
<text text-anchor="start" x="966.5" y="-74.5" font-family="FreeSans.ttf" font-size="10.00">yarp/dev/ControlBoardInterfaces</text>
<text text-anchor="middle" x="1046" y="-63.5" font-family="FreeSans.ttf" font-size="10.00">Impl.h</text>
</a>
</g>
</g>
<!-- Node2&#45;&gt;Node10 -->
<g id="edge9" class="edge">
<title>Node2&#45;&gt;Node10</title>
<path fill="none" stroke="midnightblue" d="M1962.43,-130.95C1821.84,-128.03 1458.24,-117.98 1143.94,-87.02"/>
<polygon fill="midnightblue" stroke="midnightblue" points="1144.02,-83.51 1133.72,-86 1143.33,-90.48 1144.02,-83.51"/>
</g>
<!-- Node11 -->
<g id="node11" class="node">
<title>Node11</title>
<g id="a_node11"><a xlink:title=" ">
<polygon fill="none" stroke="#bfbfbf" points="1152,-62 1152,-81 1336,-81 1336,-62 1152,-62"/>
<text text-anchor="middle" x="1244" y="-69" font-family="FreeSans.ttf" font-size="10.00">yarp/dev/ControlBoardInterfaces.h</text>
</a>
</g>
</g>
<!-- Node2&#45;&gt;Node11 -->
<g id="edge10" class="edge">
<title>Node2&#45;&gt;Node11</title>
<path fill="none" stroke="midnightblue" d="M1962.1,-129.55C1843.87,-124.39 1572.27,-110.83 1345,-87 1333.03,-85.74 1320.29,-84.13 1308.04,-82.44"/>
<polygon fill="midnightblue" stroke="midnightblue" points="1308.29,-78.94 1297.89,-81.01 1307.31,-85.88 1308.29,-78.94"/>
</g>
<!-- Node12 -->
<g id="node12" class="node">
<title>Node12</title>
<g id="a_node12"><a xlink:title=" ">
<polygon fill="none" stroke="#bfbfbf" points="1354.5,-62 1354.5,-81 1491.5,-81 1491.5,-62 1354.5,-62"/>
<text text-anchor="middle" x="1423" y="-69" font-family="FreeSans.ttf" font-size="10.00">yarp/dev/IControlMode.h</text>
</a>
</g>
</g>
<!-- Node2&#45;&gt;Node12 -->
<g id="edge11" class="edge">
<title>Node2&#45;&gt;Node12</title>
<path fill="none" stroke="midnightblue" d="M1962.41,-128.75C1865.4,-123.04 1667.43,-109.6 1501,-87 1492.47,-85.84 1483.45,-84.38 1474.69,-82.84"/>
<polygon fill="midnightblue" stroke="midnightblue" points="1475.04,-79.35 1464.57,-81.01 1473.79,-86.24 1475.04,-79.35"/>
</g>
<!-- Node13 -->
<g id="node13" class="node">
<title>Node13</title>
<g id="a_node13"><a xlink:title=" ">
<polygon fill="none" stroke="#bfbfbf" points="1510,-62 1510,-81 1664,-81 1664,-62 1510,-62"/>
<text text-anchor="middle" x="1587" y="-69" font-family="FreeSans.ttf" font-size="10.00">yarp/dev/IInteractionMode.h</text>
</a>
</g>
</g>
<!-- Node2&#45;&gt;Node13 -->
<g id="edge12" class="edge">
<title>Node2&#45;&gt;Node13</title>
<path fill="none" stroke="midnightblue" d="M1962.31,-125.02C1892.74,-116.72 1774.37,-102.07 1673,-87 1664.09,-85.68 1654.68,-84.18 1645.48,-82.67"/>
<polygon fill="midnightblue" stroke="midnightblue" points="1646.05,-79.22 1635.61,-81.03 1644.9,-86.13 1646.05,-79.22"/>
</g>
<!-- Node14 -->
<g id="node14" class="node">
<title>Node14</title>
<g id="a_node14"><a xlink:title=" ">
<polygon fill="none" stroke="#bfbfbf" points="1682,-62 1682,-81 1840,-81 1840,-62 1682,-62"/>
<text text-anchor="middle" x="1761" y="-69" font-family="FreeSans.ttf" font-size="10.00">yarp/dev/IRemoteVariables.h</text>
</a>
</g>
</g>
<!-- Node2&#45;&gt;Node14 -->
<g id="edge13" class="edge">
<title>Node2&#45;&gt;Node14</title>
<path fill="none" stroke="midnightblue" d="M1984.61,-123.48C1938.19,-112.89 1858.98,-94.84 1808.36,-83.3"/>
<polygon fill="midnightblue" stroke="midnightblue" points="1808.85,-79.82 1798.33,-81.01 1807.3,-86.64 1808.85,-79.82"/>
</g>
<!-- Node15 -->
<g id="node15" class="node">
<title>Node15</title>
<g id="a_node15"><a xlink:title=" ">
<polygon fill="none" stroke="#bfbfbf" points="1858.5,-62 1858.5,-81 2031.5,-81 2031.5,-62 1858.5,-62"/>
<text text-anchor="middle" x="1945" y="-69" font-family="FreeSans.ttf" font-size="10.00">yarp/dev/IVirtualAnalogSensor.h</text>
</a>
</g>
</g>
<!-- Node2&#45;&gt;Node15 -->
<g id="edge14" class="edge">
<title>Node2&#45;&gt;Node15</title>
<path fill="none" stroke="midnightblue" d="M2010.97,-123.48C1998.73,-114.02 1978.77,-98.6 1964.01,-87.19"/>
<polygon fill="midnightblue" stroke="midnightblue" points="1966.06,-84.35 1956.01,-81.01 1961.78,-89.89 1966.06,-84.35"/>
</g>
<!-- Node16 -->
<g id="node16" class="node">
<title>Node16</title>
<g id="a_node16"><a xlink:title=" ">
<polygon fill="none" stroke="#bfbfbf" points="2050,-62 2050,-81 2148,-81 2148,-62 2050,-62"/>
<text text-anchor="middle" x="2099" y="-69" font-family="FreeSans.ttf" font-size="10.00">yarp/sig/Vector.h</text>
</a>
</g>
</g>
<!-- Node2&#45;&gt;Node16 -->
<g id="edge15" class="edge">
<title>Node2&#45;&gt;Node16</title>
<path fill="none" stroke="midnightblue" d="M2033.03,-123.48C2045.27,-114.02 2065.23,-98.6 2079.99,-87.19"/>
<polygon fill="midnightblue" stroke="midnightblue" points="2082.22,-89.89 2087.99,-81.01 2077.94,-84.35 2082.22,-89.89"/>
</g>
<!-- Node17 -->
<g id="node17" class="node">
<title>Node17</title>
<g id="a_node17"><a xlink:title=" ">
<polygon fill="none" stroke="#bfbfbf" points="2166.5,-62 2166.5,-81 2255.5,-81 2255.5,-62 2166.5,-62"/>
<text text-anchor="middle" x="2211" y="-69" font-family="FreeSans.ttf" font-size="10.00">yarp/os/Time.h</text>
</a>
</g>
</g>
<!-- Node2&#45;&gt;Node17 -->
<g id="edge16" class="edge">
<title>Node2&#45;&gt;Node17</title>
<path fill="none" stroke="midnightblue" d="M2049.08,-123.48C2081.92,-113.14 2137.43,-95.66 2174.15,-84.1"/>
<polygon fill="midnightblue" stroke="midnightblue" points="2175.48,-87.35 2183.97,-81.01 2173.38,-80.67 2175.48,-87.35"/>
</g>
<!-- Node18 -->
<g id="node18" class="node">
<title>Node18</title>
<g id="a_node18"><a xlink:title=" ">
<polygon fill="none" stroke="#bfbfbf" points="2274,-62 2274,-81 2370,-81 2370,-62 2274,-62"/>
<text text-anchor="middle" x="2322" y="-69" font-family="FreeSans.ttf" font-size="10.00">yarp/os/Stamp.h</text>
</a>
</g>
</g>
<!-- Node2&#45;&gt;Node18 -->
<g id="edge17" class="edge">
<title>Node2&#45;&gt;Node18</title>
<path fill="none" stroke="midnightblue" d="M2073.17,-123.42C2122.28,-114.97 2198.44,-101.28 2264,-87 2269.01,-85.91 2274.24,-84.7 2279.42,-83.46"/>
<polygon fill="midnightblue" stroke="midnightblue" points="2280.38,-86.83 2289.26,-81.06 2278.72,-80.03 2280.38,-86.83"/>
</g>
<!-- Node19 -->
<g id="node19" class="node">
<title>Node19</title>
<g id="a_node19"><a xlink:title=" ">
<polygon fill="none" stroke="#bfbfbf" points="2388.5,-62 2388.5,-81 2507.5,-81 2507.5,-62 2388.5,-62"/>
<text text-anchor="middle" x="2448" y="-69" font-family="FreeSans.ttf" font-size="10.00">boost/shared_ptr.hpp</text>
</a>
</g>
</g>
<!-- Node2&#45;&gt;Node19 -->
<g id="edge18" class="edge">
<title>Node2&#45;&gt;Node19</title>
<path fill="none" stroke="midnightblue" d="M2081.7,-124.07C2084.51,-123.71 2087.28,-123.35 2090,-123 2218.38,-106.51 2251.33,-108.33 2379,-87 2385.81,-85.86 2392.98,-84.52 2400,-83.12"/>
<polygon fill="midnightblue" stroke="midnightblue" points="2401.05,-86.48 2410.15,-81.05 2399.65,-79.62 2401.05,-86.48"/>
</g>
<!-- Node20 -->
<g id="node20" class="node">
<title>Node20</title>
<g id="a_node20"><a xlink:href="ControlBoardDriverRange_8h.html" target="_top" xlink:title=" ">
<polygon fill="none" stroke="black" points="2461,-0.5 2461,-19.5 2611,-19.5 2611,-0.5 2461,-0.5"/>
<text text-anchor="middle" x="2536" y="-7.5" font-family="FreeSans.ttf" font-size="10.00">ControlBoardDriverRange.h</text>
</a>
</g>
</g>
<!-- Node2&#45;&gt;Node20 -->
<g id="edge19" class="edge">
<title>Node2&#45;&gt;Node20</title>
<path fill="none" stroke="midnightblue" d="M2081.68,-123.94C2084.49,-123.61 2087.28,-123.3 2090,-123 2137.23,-117.88 2479.63,-117.56 2516,-87 2532.45,-73.17 2536.23,-47.59 2536.7,-29.96"/>
<polygon fill="midnightblue" stroke="midnightblue" points="2540.2,-29.69 2536.64,-19.71 2533.2,-29.74 2540.2,-29.69"/>
</g>
<!-- Node21 -->
<g id="node21" class="node">
<title>Node21</title>
<g id="a_node21"><a xlink:href="ControlBoardDriverTrajectory_8h.html" target="_top" xlink:title=" ">
<polygon fill="none" stroke="black" points="2782,-62 2782,-81 2948,-81 2948,-62 2782,-62"/>
<text text-anchor="middle" x="2865" y="-69" font-family="FreeSans.ttf" font-size="10.00">ControlBoardDriverTrajectory.h</text>
</a>
</g>
</g>
<!-- Node2&#45;&gt;Node21 -->
<g id="edge20" class="edge">
<title>Node2&#45;&gt;Node21</title>
<path fill="none" stroke="midnightblue" d="M2081.67,-123.83C2084.49,-123.53 2087.27,-123.25 2090,-123 2392.69,-95.04 2470.68,-118.71 2773,-87 2783.96,-85.85 2795.6,-84.29 2806.79,-82.61"/>
<polygon fill="midnightblue" stroke="midnightblue" points="2807.55,-86.03 2816.9,-81.04 2806.48,-79.11 2807.55,-86.03"/>
</g>
<!-- Node24 -->
<g id="node24" class="node">
<title>Node24</title>
<g id="a_node24"><a xlink:href="ControlBoardDriverCoupling_8h.html" target="_top" xlink:title=" ">
<polygon fill="none" stroke="black" points="2602,-62 2602,-81 2764,-81 2764,-62 2602,-62"/>
<text text-anchor="middle" x="2683" y="-69" font-family="FreeSans.ttf" font-size="10.00">ControlBoardDriverCoupling.h</text>
</a>
</g>
</g>
<!-- Node2&#45;&gt;Node24 -->
<g id="edge23" class="edge">
<title>Node2&#45;&gt;Node24</title>
<path fill="none" stroke="midnightblue" d="M2081.68,-123.9C2084.49,-123.58 2087.28,-123.28 2090,-123 2310.76,-100.43 2367.47,-111.76 2588,-87 2598.92,-85.77 2610.5,-84.22 2621.69,-82.59"/>
<polygon fill="midnightblue" stroke="midnightblue" points="2622.45,-86.01 2631.82,-81.07 2621.42,-79.09 2622.45,-86.01"/>
</g>
<!-- Node25 -->
<g id="node25" class="node">
<title>Node25</title>
<g id="a_node25"><a xlink:title=" ">
<polygon fill="none" stroke="#bfbfbf" points="2628.5,-0.5 2628.5,-19.5 2721.5,-19.5 2721.5,-0.5 2628.5,-0.5"/>
<text text-anchor="middle" x="2675" y="-7.5" font-family="FreeSans.ttf" font-size="10.00">unordered_map</text>
</a>
</g>
</g>
<!-- Node2&#45;&gt;Node25 -->
<g id="edge31" class="edge">
<title>Node2&#45;&gt;Node25</title>
<path fill="none" stroke="midnightblue" d="M2081.68,-123.92C2084.49,-123.6 2087.28,-123.29 2090,-123 2289.08,-101.86 2347.78,-146.27 2539,-87 2565.43,-78.81 2568.87,-69.55 2593,-56 2612.18,-45.24 2634.01,-33.27 2650.32,-24.38"/>
<polygon fill="midnightblue" stroke="midnightblue" points="2652.12,-27.39 2659.23,-19.54 2648.77,-21.24 2652.12,-27.39"/>
</g>
<!-- Node26 -->
<g id="node26" class="node">
<title>Node26</title>
<g id="a_node26"><a xlink:title=" ">
<polygon fill="none" stroke="#bfbfbf" points="2966,-62 2966,-81 3098,-81 3098,-62 2966,-62"/>
<text text-anchor="middle" x="3032" y="-69" font-family="FreeSans.ttf" font-size="10.00">gazebo/common/PID.hh</text>
</a>
</g>
</g>
<!-- Node2&#45;&gt;Node26 -->
<g id="edge27" class="edge">
<title>Node2&#45;&gt;Node26</title>
<path fill="none" stroke="midnightblue" d="M2081.67,-123.79C2084.48,-123.5 2087.27,-123.24 2090,-123 2474.22,-89.66 2573.94,-131.73 2957,-87 2965.71,-85.98 2974.92,-84.52 2983.8,-82.92"/>
<polygon fill="midnightblue" stroke="midnightblue" points="2984.46,-86.36 2993.63,-81.06 2983.16,-79.48 2984.46,-86.36"/>
</g>
<!-- Node27 -->
<g id="node27" class="node">
<title>Node27</title>
<g id="a_node27"><a xlink:title=" ">
<polygon fill="none" stroke="#bfbfbf" points="3116,-62 3116,-81 3256,-81 3256,-62 3116,-62"/>
<text text-anchor="middle" x="3186" y="-69" font-family="FreeSans.ttf" font-size="10.00">gazebo/common/Time.hh</text>
</a>
</g>
</g>
<!-- Node2&#45;&gt;Node27 -->
<g id="edge28" class="edge">
<title>Node2&#45;&gt;Node27</title>
<path fill="none" stroke="midnightblue" d="M2081.67,-123.77C2084.48,-123.49 2087.27,-123.23 2090,-123 2540.71,-85.28 2657.37,-135.96 3107,-87 3116.47,-85.97 3126.5,-84.46 3136.13,-82.79"/>
<polygon fill="midnightblue" stroke="midnightblue" points="3136.76,-86.24 3145.98,-81.02 3135.52,-79.35 3136.76,-86.24"/>
</g>
<!-- Node28 -->
<g id="node28" class="node">
<title>Node28</title>
<g id="a_node28"><a xlink:title=" ">
<polygon fill="none" stroke="#bfbfbf" points="3274,-62 3274,-81 3318,-81 3318,-62 3274,-62"/>
<text text-anchor="middle" x="3296" y="-69" font-family="FreeSans.ttf" font-size="10.00">string</text>
</a>
</g>
</g>
<!-- Node2&#45;&gt;Node28 -->
<g id="edge29" class="edge">
<title>Node2&#45;&gt;Node28</title>
<path fill="none" stroke="midnightblue" d="M2081.67,-123.76C2084.48,-123.48 2087.27,-123.22 2090,-123 2350.37,-101.83 3010.89,-147.59 3265,-87 3267.21,-86.47 3269.45,-85.78 3271.66,-84.99"/>
<polygon fill="midnightblue" stroke="midnightblue" points="3273.16,-88.15 3281,-81.01 3270.42,-81.71 3273.16,-88.15"/>
</g>
<!-- Node29 -->
<g id="node29" class="node">
<title>Node29</title>
<g id="a_node29"><a xlink:title=" ">
<polygon fill="none" stroke="#bfbfbf" points="3336.5,-62 3336.5,-81 3401.5,-81 3401.5,-62 3336.5,-62"/>
<text text-anchor="middle" x="3369" y="-69" font-family="FreeSans.ttf" font-size="10.00">functional</text>
</a>
</g>
</g>
<!-- Node2&#45;&gt;Node29 -->
<g id="edge30" class="edge">
<title>Node2&#45;&gt;Node29</title>
<path fill="none" stroke="midnightblue" d="M2081.67,-123.75C2084.48,-123.47 2087.27,-123.22 2090,-123 2364.12,-100.93 3056.48,-136.44 3327,-87 3330.9,-86.29 3334.93,-85.28 3338.88,-84.11"/>
<polygon fill="midnightblue" stroke="midnightblue" points="3339.98,-87.44 3348.4,-81 3337.81,-80.78 3339.98,-87.44"/>
</g>
<!-- Node30 -->
<g id="node30" class="node">
<title>Node30</title>
<g id="a_node30"><a xlink:title=" ">
<polygon fill="none" stroke="#bfbfbf" points="3419.5,-62 3419.5,-81 3466.5,-81 3466.5,-62 3419.5,-62"/>
<text text-anchor="middle" x="3443" y="-69" font-family="FreeSans.ttf" font-size="10.00">vector</text>
</a>
</g>
</g>
<!-- Node2&#45;&gt;Node30 -->
<g id="edge32" class="edge">
<title>Node2&#45;&gt;Node30</title>
<path fill="none" stroke="midnightblue" d="M2081.67,-123.74C2084.48,-123.47 2087.27,-123.22 2090,-123 2382.74,-99.7 3124.83,-152.9 3411,-87 3413.36,-86.46 3415.75,-85.73 3418.12,-84.9"/>
<polygon fill="midnightblue" stroke="midnightblue" points="3419.58,-88.08 3427.49,-81.02 3416.91,-81.61 3419.58,-88.08"/>
</g>
<!-- Node22 -->
<g id="node22" class="node">
<title>Node22</title>
<g id="a_node22"><a xlink:title=" ">
<polygon fill="none" stroke="#bfbfbf" points="2740,-0.5 2740,-19.5 2880,-19.5 2880,-0.5 2740,-0.5"/>
<text text-anchor="middle" x="2810" y="-7.5" font-family="FreeSans.ttf" font-size="10.00">gazebo/physics/Model.hh</text>
</a>
</g>
</g>
<!-- Node21&#45;&gt;Node22 -->
<g id="edge21" class="edge">
<title>Node21&#45;&gt;Node22</title>
<path fill="none" stroke="midnightblue" d="M2857.12,-61.98C2848.71,-52.87 2835.18,-38.24 2824.77,-26.98"/>
<polygon fill="midnightblue" stroke="midnightblue" points="2827.22,-24.48 2817.87,-19.51 2822.08,-29.23 2827.22,-24.48"/>
</g>
<!-- Node23 -->
<g id="node23" class="node">
<title>Node23</title>
<g id="a_node23"><a xlink:title=" ">
<polygon fill="none" stroke="#bfbfbf" points="2898,-0.5 2898,-19.5 2946,-19.5 2946,-0.5 2898,-0.5"/>
<text text-anchor="middle" x="2922" y="-7.5" font-family="FreeSans.ttf" font-size="10.00">mutex</text>
</a>
</g>
</g>
<!-- Node21&#45;&gt;Node23 -->
<g id="edge22" class="edge">
<title>Node21&#45;&gt;Node23</title>
<path fill="none" stroke="midnightblue" d="M2873.17,-61.98C2881.89,-52.87 2895.9,-38.24 2906.69,-26.98"/>
<polygon fill="midnightblue" stroke="midnightblue" points="2909.46,-29.15 2913.85,-19.51 2904.4,-24.31 2909.46,-29.15"/>
</g>
<!-- Node24&#45;&gt;Node20 -->
<g id="edge24" class="edge">
<title>Node24&#45;&gt;Node20</title>
<path fill="none" stroke="midnightblue" d="M2661.94,-61.98C2636.94,-51.86 2595.06,-34.9 2566.51,-23.35"/>
<polygon fill="midnightblue" stroke="midnightblue" points="2567.61,-20.02 2557.02,-19.51 2564.98,-26.51 2567.61,-20.02"/>
</g>
<!-- Node24&#45;&gt;Node22 -->
<g id="edge25" class="edge">
<title>Node24&#45;&gt;Node22</title>
<path fill="none" stroke="midnightblue" d="M2701.2,-61.98C2722.51,-51.99 2758.03,-35.35 2782.66,-23.81"/>
<polygon fill="midnightblue" stroke="midnightblue" points="2784.27,-26.92 2791.84,-19.51 2781.3,-20.58 2784.27,-26.92"/>
</g>
<!-- Node24&#45;&gt;Node25 -->
<g id="edge26" class="edge">
<title>Node24&#45;&gt;Node25</title>
<path fill="none" stroke="midnightblue" d="M2681.85,-61.98C2680.73,-53.58 2678.96,-40.48 2677.51,-29.66"/>
<polygon fill="midnightblue" stroke="midnightblue" points="2680.95,-28.95 2676.14,-19.51 2674.01,-29.89 2680.95,-28.95"/>
</g>
</g>
</svg>
