<?xml version="1.0" encoding="UTF-8" standalone="no"?>
<!DOCTYPE svg PUBLIC "-//W3C//DTD SVG 1.1//EN"
 "http://www.w3.org/Graphics/SVG/1.1/DTD/svg11.dtd">
<!-- Generated by graphviz version 2.43.0 (0)
 -->
<!-- Title: ControlBoard.cc Pages: 1 -->
<svg width="4761pt" height="207pt"
 viewBox="0.00 0.00 4760.50 207.00" xmlns="http://www.w3.org/2000/svg" xmlns:xlink="http://www.w3.org/1999/xlink">
<g id="graph0" class="graph" transform="scale(1 1) rotate(0) translate(4 203)">
<title>ControlBoard.cc</title>
<!-- Node1 -->
<g id="node1" class="node">
<title>Node1</title>
<g id="a_node1"><a xlink:title=" ">
<polygon fill="#bfbfbf" stroke="black" points="4101,-179.5 4101,-198.5 4195,-198.5 4195,-179.5 4101,-179.5"/>
<text text-anchor="middle" x="4148" y="-186.5" font-family="FreeSans.ttf" font-size="10.00">ControlBoard.cc</text>
</a>
</g>
</g>
<!-- Node2 -->
<g id="node2" class="node">
<title>Node2</title>
<g id="a_node2"><a xlink:href="ControlBoard_8hh.html" target="_top" xlink:title=" ">
<polygon fill="none" stroke="black" points="2014.5,-123.5 2014.5,-142.5 2109.5,-142.5 2109.5,-123.5 2014.5,-123.5"/>
<text text-anchor="middle" x="2062" y="-130.5" font-family="FreeSans.ttf" font-size="10.00">ControlBoard.hh</text>
</a>
</g>
</g>
<!-- Node1&#45;&gt;Node2 -->
<g id="edge1" class="edge">
<title>Node1&#45;&gt;Node2</title>
<path fill="none" stroke="midnightblue" d="M4100.63,-187.83C3836.46,-186.77 2542.16,-179.8 2119.72,-143.01"/>
<polygon fill="midnightblue" stroke="midnightblue" points="2119.87,-139.51 2109.6,-142.11 2119.25,-146.48 2119.87,-139.51"/>
</g>
<!-- Node7 -->
<g id="node7" class="node">
<title>Node7</title>
<g id="a_node7"><a xlink:href="ControlBoardDriver_8h.html" target="_top" xlink:title=" ">
<polygon fill="none" stroke="black" points="2127.5,-123.5 2127.5,-142.5 2246.5,-142.5 2246.5,-123.5 2127.5,-123.5"/>
<text text-anchor="middle" x="2187" y="-130.5" font-family="FreeSans.ttf" font-size="10.00">ControlBoardDriver.h</text>
</a>
</g>
</g>
<!-- Node1&#45;&gt;Node7 -->
<g id="edge6" class="edge">
<title>Node1&#45;&gt;Node7</title>
<path fill="none" stroke="midnightblue" d="M4100.98,-186.71C3840.09,-179.52 2570.85,-144.57 2257.19,-135.93"/>
<polygon fill="midnightblue" stroke="midnightblue" points="2256.97,-132.43 2246.88,-135.65 2256.78,-139.42 2256.97,-132.43"/>
</g>
<!-- Node26 -->
<g id="node26" class="node">
<title>Node26</title>
<g id="a_node26"><a xlink:title=" ">
<polygon fill="none" stroke="#bfbfbf" points="3077,-0.5 3077,-19.5 3217,-19.5 3217,-0.5 3077,-0.5"/>
<text text-anchor="middle" x="3147" y="-7.5" font-family="FreeSans.ttf" font-size="10.00">gazebo/physics/Model.hh</text>
</a>
</g>
</g>
<!-- Node1&#45;&gt;Node26 -->
<g id="edge53" class="edge">
<title>Node1&#45;&gt;Node26</title>
<path fill="none" stroke="midnightblue" d="M4155.98,-179.14C4169.49,-164.77 4198.36,-136.64 4229,-123 4322.76,-81.26 4521.31,-129.82 4450,-56 4444.66,-50.48 3510.5,-21.93 3227.39,-13.41"/>
<polygon fill="midnightblue" stroke="midnightblue" points="3227.29,-9.9 3217.19,-13.1 3227.08,-16.9 3227.29,-9.9"/>
</g>
<!-- Node34 -->
<g id="node34" class="node">
<title>Node34</title>
<g id="a_node34"><a xlink:href="common_8h.html" target="_top" xlink:title=" ">
<polygon fill="none" stroke="black" points="3470,-123.5 3470,-142.5 3634,-142.5 3634,-123.5 3470,-123.5"/>
<text text-anchor="middle" x="3552" y="-130.5" font-family="FreeSans.ttf" font-size="10.00">GazeboYarpPlugins/common.h</text>
</a>
</g>
</g>
<!-- Node1&#45;&gt;Node34 -->
<g id="edge38" class="edge">
<title>Node1&#45;&gt;Node34</title>
<path fill="none" stroke="midnightblue" d="M4100.98,-183.74C4002.57,-174.82 3773.32,-154.05 3644.36,-142.37"/>
<polygon fill="midnightblue" stroke="midnightblue" points="3644.38,-138.86 3634.1,-141.44 3643.75,-145.83 3644.38,-138.86"/>
</g>
<!-- Node36 -->
<g id="node36" class="node">
<title>Node36</title>
<g id="a_node36"><a xlink:href="Handler_8hh.html" target="_top" xlink:title=" ">
<polygon fill="none" stroke="black" points="3709,-123.5 3709,-142.5 3873,-142.5 3873,-123.5 3709,-123.5"/>
<text text-anchor="middle" x="3791" y="-130.5" font-family="FreeSans.ttf" font-size="10.00">GazeboYarpPlugins/Handler.hh</text>
</a>
</g>
</g>
<!-- Node1&#45;&gt;Node36 -->
<g id="edge41" class="edge">
<title>Node1&#45;&gt;Node36</title>
<path fill="none" stroke="midnightblue" d="M4100.96,-180.88C4038.61,-171.45 3928.24,-154.76 3857.42,-144.05"/>
<polygon fill="midnightblue" stroke="midnightblue" points="3857.68,-140.55 3847.26,-142.51 3856.63,-147.47 3857.68,-140.55"/>
</g>
<!-- Node39 -->
<g id="node39" class="node">
<title>Node39</title>
<g id="a_node39"><a xlink:href="ConfHelpers_8hh.html" target="_top" xlink:title=" ">
<polygon fill="none" stroke="black" points="3994.5,-123.5 3994.5,-142.5 4181.5,-142.5 4181.5,-123.5 3994.5,-123.5"/>
<text text-anchor="middle" x="4088" y="-130.5" font-family="FreeSans.ttf" font-size="10.00">GazeboYarpPlugins/ConfHelpers.hh</text>
</a>
</g>
</g>
<!-- Node1&#45;&gt;Node39 -->
<g id="edge48" class="edge">
<title>Node1&#45;&gt;Node39</title>
<path fill="none" stroke="midnightblue" d="M4138.36,-179.32C4129.49,-171.34 4116.13,-159.31 4105.39,-149.65"/>
<polygon fill="midnightblue" stroke="midnightblue" points="4107.59,-146.92 4097.82,-142.83 4102.91,-152.13 4107.59,-146.92"/>
</g>
<!-- Node42 -->
<g id="node42" class="node">
<title>Node42</title>
<g id="a_node42"><a xlink:title=" ">
<polygon fill="none" stroke="#bfbfbf" points="4237.5,-123.5 4237.5,-142.5 4392.5,-142.5 4392.5,-123.5 4237.5,-123.5"/>
<text text-anchor="middle" x="4315" y="-130.5" font-family="FreeSans.ttf" font-size="10.00">yarp/dev/IMultipleWrapper.h</text>
</a>
</g>
</g>
<!-- Node1&#45;&gt;Node42 -->
<g id="edge54" class="edge">
<title>Node1&#45;&gt;Node42</title>
<path fill="none" stroke="midnightblue" d="M4174.46,-179.44C4202.68,-170.32 4247.54,-155.81 4278.97,-145.65"/>
<polygon fill="midnightblue" stroke="midnightblue" points="4280.22,-148.92 4288.66,-142.52 4278.07,-142.26 4280.22,-148.92"/>
</g>
<!-- Node43 -->
<g id="node43" class="node">
<title>Node43</title>
<g id="a_node43"><a xlink:title=" ">
<polygon fill="none" stroke="#bfbfbf" points="4411,-123.5 4411,-142.5 4517,-142.5 4517,-123.5 4411,-123.5"/>
<text text-anchor="middle" x="4464" y="-130.5" font-family="FreeSans.ttf" font-size="10.00">yarp/os/Network.h</text>
</a>
</g>
</g>
<!-- Node1&#45;&gt;Node43 -->
<g id="edge55" class="edge">
<title>Node1&#45;&gt;Node43</title>
<path fill="none" stroke="midnightblue" d="M4195.31,-179.92C4250.89,-170.42 4343.2,-154.64 4403.83,-144.28"/>
<polygon fill="midnightblue" stroke="midnightblue" points="4404.75,-147.68 4414.02,-142.54 4403.57,-140.78 4404.75,-147.68"/>
</g>
<!-- Node44 -->
<g id="node44" class="node">
<title>Node44</title>
<g id="a_node44"><a xlink:title=" ">
<polygon fill="none" stroke="#bfbfbf" points="4535,-123.5 4535,-142.5 4617,-142.5 4617,-123.5 4535,-123.5"/>
<text text-anchor="middle" x="4576" y="-130.5" font-family="FreeSans.ttf" font-size="10.00">yarp/os/Log.h</text>
</a>
</g>
</g>
<!-- Node1&#45;&gt;Node44 -->
<g id="edge56" class="edge">
<title>Node1&#45;&gt;Node44</title>
<path fill="none" stroke="midnightblue" d="M4195.26,-183.29C4265.06,-176.13 4400.01,-161.52 4524.72,-143.11"/>
<polygon fill="midnightblue" stroke="midnightblue" points="4525.46,-146.54 4534.83,-141.61 4524.43,-139.62 4525.46,-146.54"/>
</g>
<!-- Node45 -->
<g id="node45" class="node">
<title>Node45</title>
<g id="a_node45"><a xlink:title=" ">
<polygon fill="none" stroke="#bfbfbf" points="4635.5,-123.5 4635.5,-142.5 4752.5,-142.5 4752.5,-123.5 4635.5,-123.5"/>
<text text-anchor="middle" x="4694" y="-130.5" font-family="FreeSans.ttf" font-size="10.00">yarp/os/LogStream.h</text>
</a>
</g>
</g>
<!-- Node1&#45;&gt;Node45 -->
<g id="edge57" class="edge">
<title>Node1&#45;&gt;Node45</title>
<path fill="none" stroke="midnightblue" d="M4195.21,-184.15C4279.3,-177.16 4460.79,-161.5 4625.11,-143.06"/>
<polygon fill="midnightblue" stroke="midnightblue" points="4625.87,-146.5 4635.41,-141.9 4625.08,-139.54 4625.87,-146.5"/>
</g>
<!-- Node3 -->
<g id="node3" class="node">
<title>Node3</title>
<g id="a_node3"><a xlink:title=" ">
<polygon fill="none" stroke="#bfbfbf" points="0,-62 0,-81 146,-81 146,-62 0,-62"/>
<text text-anchor="middle" x="73" y="-69" font-family="FreeSans.ttf" font-size="10.00">gazebo/common/Plugin.hh</text>
</a>
</g>
</g>
<!-- Node2&#45;&gt;Node3 -->
<g id="edge2" class="edge">
<title>Node2&#45;&gt;Node3</title>
<path fill="none" stroke="midnightblue" d="M2014.17,-131.85C1756.53,-130.92 531.7,-124.53 155,-87 144.97,-86 134.31,-84.47 124.12,-82.77"/>
<polygon fill="midnightblue" stroke="midnightblue" points="124.58,-79.3 114.13,-81.03 123.38,-86.19 124.58,-79.3"/>
</g>
<!-- Node4 -->
<g id="node4" class="node">
<title>Node4</title>
<g id="a_node4"><a xlink:title=" ">
<polygon fill="none" stroke="#bfbfbf" points="3002,-62 3002,-81 3046,-81 3046,-62 3002,-62"/>
<text text-anchor="middle" x="3024" y="-69" font-family="FreeSans.ttf" font-size="10.00">string</text>
</a>
</g>
</g>
<!-- Node2&#45;&gt;Node4 -->
<g id="edge3" class="edge">
<title>Node2&#45;&gt;Node4</title>
<path fill="none" stroke="midnightblue" d="M2109.61,-123.96C2112.44,-123.6 2115.26,-123.28 2118,-123 2311.41,-103.54 2802.88,-131.94 2992,-87 2994.22,-86.47 2996.47,-85.79 2998.7,-85.01"/>
<polygon fill="midnightblue" stroke="midnightblue" points="3000.23,-88.17 3008.15,-81.13 2997.57,-81.69 3000.23,-88.17"/>
</g>
<!-- Node5 -->
<g id="node5" class="node">
<title>Node5</title>
<g id="a_node5"><a xlink:title=" ">
<polygon fill="none" stroke="#bfbfbf" points="3370,-62 3370,-81 3510,-81 3510,-62 3370,-62"/>
<text text-anchor="middle" x="3440" y="-69" font-family="FreeSans.ttf" font-size="10.00">yarp/dev/PolyDriverList.h</text>
</a>
</g>
</g>
<!-- Node2&#45;&gt;Node5 -->
<g id="edge4" class="edge">
<title>Node2&#45;&gt;Node5</title>
<path fill="none" stroke="midnightblue" d="M2109.6,-123.92C2112.44,-123.57 2115.26,-123.26 2118,-123 2668.23,-71.04 2811.38,-145.06 3361,-87 3370.47,-86 3380.51,-84.5 3390.14,-82.84"/>
<polygon fill="midnightblue" stroke="midnightblue" points="3390.76,-86.29 3399.98,-81.07 3389.52,-79.4 3390.76,-86.29"/>
</g>
<!-- Node6 -->
<g id="node6" class="node">
<title>Node6</title>
<g id="a_node6"><a xlink:title=" ">
<polygon fill="none" stroke="#bfbfbf" points="164.5,-62 164.5,-81 337.5,-81 337.5,-62 164.5,-62"/>
<text text-anchor="middle" x="251" y="-69" font-family="FreeSans.ttf" font-size="10.00">yarp/dev/IVirtualAnalogSensor.h</text>
</a>
</g>
</g>
<!-- Node2&#45;&gt;Node6 -->
<g id="edge5" class="edge">
<title>Node2&#45;&gt;Node6</title>
<path fill="none" stroke="midnightblue" d="M2014.33,-131.55C1772.95,-129.13 683.93,-116.75 347,-87 334.93,-85.93 322.07,-84.32 309.82,-82.56"/>
<polygon fill="midnightblue" stroke="midnightblue" points="310.1,-79.06 299.7,-81.05 309.07,-85.99 310.1,-79.06"/>
</g>
<!-- Node7&#45;&gt;Node4 -->
<g id="edge34" class="edge">
<title>Node7&#45;&gt;Node4</title>
<path fill="none" stroke="midnightblue" d="M2246.67,-131.5C2408.09,-129.71 2850.71,-121.67 2992,-87 2994.21,-86.46 2996.46,-85.76 2998.69,-84.97"/>
<polygon fill="midnightblue" stroke="midnightblue" points="3000.23,-88.13 3008.14,-81.08 2997.56,-81.66 3000.23,-88.13"/>
</g>
<!-- Node7&#45;&gt;Node6 -->
<g id="edge19" class="edge">
<title>Node7&#45;&gt;Node6</title>
<path fill="none" stroke="midnightblue" d="M2127.2,-123.79C2124.09,-123.49 2121.01,-123.23 2118,-123 1332.94,-64 1131.42,-153.93 347,-87 334.8,-85.96 321.79,-84.34 309.41,-82.56"/>
<polygon fill="midnightblue" stroke="midnightblue" points="309.61,-79.05 299.2,-81.03 308.57,-85.97 309.61,-79.05"/>
</g>
<!-- Node8 -->
<g id="node8" class="node">
<title>Node8</title>
<g id="a_node8"><a xlink:title=" ">
<polygon fill="none" stroke="#bfbfbf" points="3248,-62 3248,-81 3352,-81 3352,-62 3248,-62"/>
<text text-anchor="middle" x="3300" y="-69" font-family="FreeSans.ttf" font-size="10.00">yarp/os/Property.h</text>
</a>
</g>
</g>
<!-- Node7&#45;&gt;Node8 -->
<g id="edge7" class="edge">
<title>Node7&#45;&gt;Node8</title>
<path fill="none" stroke="midnightblue" d="M2246.67,-130.94C2439.59,-127.29 3045.15,-113.94 3239,-87 3245.51,-86.1 3252.34,-84.81 3258.98,-83.38"/>
<polygon fill="midnightblue" stroke="midnightblue" points="3260.22,-86.68 3269.18,-81.03 3258.65,-79.86 3260.22,-86.68"/>
</g>
<!-- Node9 -->
<g id="node9" class="node">
<title>Node9</title>
<g id="a_node9"><a xlink:title=" ">
<polygon fill="none" stroke="#bfbfbf" points="356,-62 356,-81 448,-81 448,-62 356,-62"/>
<text text-anchor="middle" x="402" y="-69" font-family="FreeSans.ttf" font-size="10.00">yarp/os/Value.h</text>
</a>
</g>
</g>
<!-- Node7&#45;&gt;Node9 -->
<g id="edge8" class="edge">
<title>Node7&#45;&gt;Node9</title>
<path fill="none" stroke="midnightblue" d="M2127.2,-123.8C2124.09,-123.5 2121.01,-123.23 2118,-123 1750.97,-95.16 827.01,-134.51 462,-87 455.29,-86.13 448.24,-84.8 441.42,-83.3"/>
<polygon fill="midnightblue" stroke="midnightblue" points="442.21,-79.89 431.67,-81.01 440.6,-86.7 442.21,-79.89"/>
</g>
<!-- Node10 -->
<g id="node10" class="node">
<title>Node10</title>
<g id="a_node10"><a xlink:title=" ">
<polygon fill="none" stroke="#bfbfbf" points="2876.5,-62 2876.5,-81 2983.5,-81 2983.5,-62 2876.5,-62"/>
<text text-anchor="middle" x="2930" y="-69" font-family="FreeSans.ttf" font-size="10.00">yarp/dev/Drivers.h</text>
</a>
</g>
</g>
<!-- Node7&#45;&gt;Node10 -->
<g id="edge9" class="edge">
<title>Node7&#45;&gt;Node10</title>
<path fill="none" stroke="midnightblue" d="M2246.92,-131.25C2365.79,-129.06 2639.63,-120.47 2867,-87 2873.71,-86.01 2880.77,-84.68 2887.64,-83.23"/>
<polygon fill="midnightblue" stroke="midnightblue" points="2888.49,-86.62 2897.49,-81.03 2886.97,-79.79 2888.49,-86.62"/>
</g>
<!-- Node11 -->
<g id="node11" class="node">
<title>Node11</title>
<g id="a_node11"><a xlink:title=" ">
<polygon fill="none" stroke="#bfbfbf" points="3594,-62 3594,-81 3716,-81 3716,-62 3594,-62"/>
<text text-anchor="middle" x="3655" y="-69" font-family="FreeSans.ttf" font-size="10.00">yarp/dev/PolyDriver.h</text>
</a>
</g>
</g>
<!-- Node7&#45;&gt;Node11 -->
<g id="edge10" class="edge">
<title>Node7&#45;&gt;Node11</title>
<path fill="none" stroke="midnightblue" d="M2246.78,-131.42C2478.67,-128.97 3319.04,-118.1 3584,-87 3592.17,-86.04 3600.8,-84.63 3609.13,-83.05"/>
<polygon fill="midnightblue" stroke="midnightblue" points="3609.95,-86.45 3619.07,-81.07 3608.58,-79.59 3609.95,-86.45"/>
</g>
<!-- Node12 -->
<g id="node12" class="node">
<title>Node12</title>
<g id="a_node12"><a xlink:title=" ">
<polygon fill="none" stroke="#bfbfbf" points="722.5,-62 722.5,-81 847.5,-81 847.5,-62 722.5,-62"/>
<text text-anchor="middle" x="785" y="-69" font-family="FreeSans.ttf" font-size="10.00">yarp/dev/IPidControl.h</text>
</a>
</g>
</g>
<!-- Node7&#45;&gt;Node12 -->
<g id="edge11" class="edge">
<title>Node7&#45;&gt;Node12</title>
<path fill="none" stroke="midnightblue" d="M2127.2,-123.82C2124.09,-123.52 2121.01,-123.24 2118,-123 1559.08,-78.68 1414.06,-150.58 857,-87 848.53,-86.03 839.58,-84.58 830.97,-82.97"/>
<polygon fill="midnightblue" stroke="midnightblue" points="831.56,-79.52 821.07,-81.01 830.2,-86.38 831.56,-79.52"/>
</g>
<!-- Node13 -->
<g id="node13" class="node">
<title>Node13</title>
<g id="a_node13"><a xlink:title=" ">
<polygon fill="none" stroke="#bfbfbf" points="866,-62 866,-81 1000,-81 1000,-62 866,-62"/>
<text text-anchor="middle" x="933" y="-69" font-family="FreeSans.ttf" font-size="10.00">yarp/dev/IPWMControl.h</text>
</a>
</g>
</g>
<!-- Node7&#45;&gt;Node13 -->
<g id="edge12" class="edge">
<title>Node7&#45;&gt;Node13</title>
<path fill="none" stroke="midnightblue" d="M2127.2,-123.84C2124.09,-123.53 2121.01,-123.24 2118,-123 1626.47,-83.06 1499.14,-141.38 1009,-87 1000.08,-86.01 990.63,-84.55 981.54,-82.93"/>
<polygon fill="midnightblue" stroke="midnightblue" points="981.96,-79.45 971.49,-81.05 980.67,-86.33 981.96,-79.45"/>
</g>
<!-- Node14 -->
<g id="node14" class="node">
<title>Node14</title>
<g id="a_node14"><a xlink:title=" ">
<polygon fill="none" stroke="#bfbfbf" points="1018,-62 1018,-81 1164,-81 1164,-62 1018,-62"/>
<text text-anchor="middle" x="1091" y="-69" font-family="FreeSans.ttf" font-size="10.00">yarp/dev/ICurrentControl.h</text>
</a>
</g>
</g>
<!-- Node7&#45;&gt;Node14 -->
<g id="edge13" class="edge">
<title>Node7&#45;&gt;Node14</title>
<path fill="none" stroke="midnightblue" d="M2127.2,-123.86C2124.09,-123.54 2121.01,-123.25 2118,-123 1699.17,-87.78 1590.92,-131.7 1173,-87 1163.29,-85.96 1153,-84.46 1143.1,-82.82"/>
<polygon fill="midnightblue" stroke="midnightblue" points="1143.43,-79.32 1132.98,-81.06 1142.24,-86.22 1143.43,-79.32"/>
</g>
<!-- Node15 -->
<g id="node15" class="node">
<title>Node15</title>
<g id="a_node15"><a xlink:title=" ">
<polygon fill="none" stroke="#bfbfbf" points="1182.5,-56.5 1182.5,-86.5 1357.5,-86.5 1357.5,-56.5 1182.5,-56.5"/>
<text text-anchor="start" x="1190.5" y="-74.5" font-family="FreeSans.ttf" font-size="10.00">yarp/dev/ControlBoardInterfaces</text>
<text text-anchor="middle" x="1270" y="-63.5" font-family="FreeSans.ttf" font-size="10.00">Impl.h</text>
</a>
</g>
</g>
<!-- Node7&#45;&gt;Node15 -->
<g id="edge14" class="edge">
<title>Node7&#45;&gt;Node15</title>
<path fill="none" stroke="midnightblue" d="M2127.19,-123.89C2124.09,-123.57 2121.01,-123.27 2118,-123 1788.57,-93.67 1701.33,-119.21 1368.15,-87.03"/>
<polygon fill="midnightblue" stroke="midnightblue" points="1368.01,-83.5 1357.72,-86.02 1367.33,-90.47 1368.01,-83.5"/>
</g>
<!-- Node16 -->
<g id="node16" class="node">
<title>Node16</title>
<g id="a_node16"><a xlink:title=" ">
<polygon fill="none" stroke="#bfbfbf" points="1376,-62 1376,-81 1560,-81 1560,-62 1376,-62"/>
<text text-anchor="middle" x="1468" y="-69" font-family="FreeSans.ttf" font-size="10.00">yarp/dev/ControlBoardInterfaces.h</text>
</a>
</g>
</g>
<!-- Node7&#45;&gt;Node16 -->
<g id="edge15" class="edge">
<title>Node7&#45;&gt;Node16</title>
<path fill="none" stroke="midnightblue" d="M2127.19,-123.96C2124.08,-123.62 2121.01,-123.29 2118,-123 1874.64,-99.17 1812.2,-112.39 1569,-87 1557.02,-85.75 1544.29,-84.14 1532.04,-82.45"/>
<polygon fill="midnightblue" stroke="midnightblue" points="1532.28,-78.95 1521.89,-81.02 1531.31,-85.88 1532.28,-78.95"/>
</g>
<!-- Node17 -->
<g id="node17" class="node">
<title>Node17</title>
<g id="a_node17"><a xlink:title=" ">
<polygon fill="none" stroke="#bfbfbf" points="1578.5,-62 1578.5,-81 1715.5,-81 1715.5,-62 1578.5,-62"/>
<text text-anchor="middle" x="1647" y="-69" font-family="FreeSans.ttf" font-size="10.00">yarp/dev/IControlMode.h</text>
</a>
</g>
</g>
<!-- Node7&#45;&gt;Node17 -->
<g id="edge16" class="edge">
<title>Node7&#45;&gt;Node17</title>
<path fill="none" stroke="midnightblue" d="M2127.18,-124.05C2124.08,-123.69 2121,-123.33 2118,-123 1943.67,-103.65 1898.74,-111.05 1725,-87 1716.57,-85.83 1707.66,-84.38 1699,-82.86"/>
<polygon fill="midnightblue" stroke="midnightblue" points="1699.45,-79.38 1688.98,-81.04 1698.2,-86.27 1699.45,-79.38"/>
</g>
<!-- Node18 -->
<g id="node18" class="node">
<title>Node18</title>
<g id="a_node18"><a xlink:title=" ">
<polygon fill="none" stroke="#bfbfbf" points="1734,-62 1734,-81 1888,-81 1888,-62 1734,-62"/>
<text text-anchor="middle" x="1811" y="-69" font-family="FreeSans.ttf" font-size="10.00">yarp/dev/IInteractionMode.h</text>
</a>
</g>
</g>
<!-- Node7&#45;&gt;Node18 -->
<g id="edge17" class="edge">
<title>Node7&#45;&gt;Node18</title>
<path fill="none" stroke="midnightblue" d="M2130.56,-123.47C2072.09,-114.57 1978.1,-100.13 1897,-87 1888.62,-85.64 1879.79,-84.19 1871.1,-82.74"/>
<polygon fill="midnightblue" stroke="midnightblue" points="1871.45,-79.25 1861,-81.04 1870.29,-86.15 1871.45,-79.25"/>
</g>
<!-- Node19 -->
<g id="node19" class="node">
<title>Node19</title>
<g id="a_node19"><a xlink:title=" ">
<polygon fill="none" stroke="#bfbfbf" points="1906,-62 1906,-81 2064,-81 2064,-62 1906,-62"/>
<text text-anchor="middle" x="1985" y="-69" font-family="FreeSans.ttf" font-size="10.00">yarp/dev/IRemoteVariables.h</text>
</a>
</g>
</g>
<!-- Node7&#45;&gt;Node19 -->
<g id="edge18" class="edge">
<title>Node7&#45;&gt;Node19</title>
<path fill="none" stroke="midnightblue" d="M2158.06,-123.48C2122.73,-113.07 2062.87,-95.44 2023.64,-83.88"/>
<polygon fill="midnightblue" stroke="midnightblue" points="2024.47,-80.48 2013.89,-81.01 2022.49,-87.19 2024.47,-80.48"/>
</g>
<!-- Node20 -->
<g id="node20" class="node">
<title>Node20</title>
<g id="a_node20"><a xlink:title=" ">
<polygon fill="none" stroke="#bfbfbf" points="2082,-62 2082,-81 2180,-81 2180,-62 2082,-62"/>
<text text-anchor="middle" x="2131" y="-69" font-family="FreeSans.ttf" font-size="10.00">yarp/sig/Vector.h</text>
</a>
</g>
</g>
<!-- Node7&#45;&gt;Node20 -->
<g id="edge20" class="edge">
<title>Node7&#45;&gt;Node20</title>
<path fill="none" stroke="midnightblue" d="M2178.98,-123.48C2170.41,-114.37 2156.64,-99.74 2146.04,-88.48"/>
<polygon fill="midnightblue" stroke="midnightblue" points="2148.41,-85.89 2139.01,-81.01 2143.31,-90.69 2148.41,-85.89"/>
</g>
<!-- Node21 -->
<g id="node21" class="node">
<title>Node21</title>
<g id="a_node21"><a xlink:title=" ">
<polygon fill="none" stroke="#bfbfbf" points="2198.5,-62 2198.5,-81 2287.5,-81 2287.5,-62 2198.5,-62"/>
<text text-anchor="middle" x="2243" y="-69" font-family="FreeSans.ttf" font-size="10.00">yarp/os/Time.h</text>
</a>
</g>
</g>
<!-- Node7&#45;&gt;Node21 -->
<g id="edge21" class="edge">
<title>Node7&#45;&gt;Node21</title>
<path fill="none" stroke="midnightblue" d="M2195.02,-123.48C2203.59,-114.37 2217.36,-99.74 2227.96,-88.48"/>
<polygon fill="midnightblue" stroke="midnightblue" points="2230.69,-90.69 2234.99,-81.01 2225.59,-85.89 2230.69,-90.69"/>
</g>
<!-- Node22 -->
<g id="node22" class="node">
<title>Node22</title>
<g id="a_node22"><a xlink:title=" ">
<polygon fill="none" stroke="#bfbfbf" points="2306,-62 2306,-81 2402,-81 2402,-62 2306,-62"/>
<text text-anchor="middle" x="2354" y="-69" font-family="FreeSans.ttf" font-size="10.00">yarp/os/Stamp.h</text>
</a>
</g>
</g>
<!-- Node7&#45;&gt;Node22 -->
<g id="edge22" class="edge">
<title>Node7&#45;&gt;Node22</title>
<path fill="none" stroke="midnightblue" d="M2210.93,-123.48C2239.7,-113.22 2288.16,-95.96 2320.6,-84.4"/>
<polygon fill="midnightblue" stroke="midnightblue" points="2321.87,-87.66 2330.12,-81.01 2319.52,-81.07 2321.87,-87.66"/>
</g>
<!-- Node23 -->
<g id="node23" class="node">
<title>Node23</title>
<g id="a_node23"><a xlink:title=" ">
<polygon fill="none" stroke="#bfbfbf" points="3828.5,-62 3828.5,-81 3947.5,-81 3947.5,-62 3828.5,-62"/>
<text text-anchor="middle" x="3888" y="-69" font-family="FreeSans.ttf" font-size="10.00">boost/shared_ptr.hpp</text>
</a>
</g>
</g>
<!-- Node7&#45;&gt;Node23 -->
<g id="edge23" class="edge">
<title>Node7&#45;&gt;Node23</title>
<path fill="none" stroke="midnightblue" d="M2246.58,-131.79C2501.97,-130.67 3505.49,-123.96 3819,-87 3826.95,-86.06 3835.34,-84.66 3843.43,-83.09"/>
<polygon fill="midnightblue" stroke="midnightblue" points="3844.36,-86.47 3853.45,-81.03 3842.95,-79.61 3844.36,-86.47"/>
</g>
<!-- Node24 -->
<g id="node24" class="node">
<title>Node24</title>
<g id="a_node24"><a xlink:href="ControlBoardDriverRange_8h.html" target="_top" xlink:title=" ">
<polygon fill="none" stroke="black" points="421,-0.5 421,-19.5 571,-19.5 571,-0.5 421,-0.5"/>
<text text-anchor="middle" x="496" y="-7.5" font-family="FreeSans.ttf" font-size="10.00">ControlBoardDriverRange.h</text>
</a>
</g>
</g>
<!-- Node7&#45;&gt;Node24 -->
<g id="edge24" class="edge">
<title>Node7&#45;&gt;Node24</title>
<path fill="none" stroke="midnightblue" d="M2127.2,-123.8C2124.09,-123.5 2121.01,-123.23 2118,-123 2073.04,-119.58 526.53,-119.24 495,-87 480.41,-72.08 484.23,-46.58 489.28,-29.28"/>
<polygon fill="midnightblue" stroke="midnightblue" points="492.62,-30.32 492.43,-19.73 485.97,-28.13 492.62,-30.32"/>
</g>
<!-- Node25 -->
<g id="node25" class="node">
<title>Node25</title>
<g id="a_node25"><a xlink:href="ControlBoardDriverTrajectory_8h.html" target="_top" xlink:title=" ">
<polygon fill="none" stroke="black" points="3064,-62 3064,-81 3230,-81 3230,-62 3064,-62"/>
<text text-anchor="middle" x="3147" y="-69" font-family="FreeSans.ttf" font-size="10.00">ControlBoardDriverTrajectory.h</text>
</a>
</g>
</g>
<!-- Node7&#45;&gt;Node25 -->
<g id="edge25" class="edge">
<title>Node7&#45;&gt;Node25</title>
<path fill="none" stroke="midnightblue" d="M2246.63,-131.05C2387.57,-128.35 2752.21,-118.62 3055,-87 3065.96,-85.86 3077.6,-84.29 3088.79,-82.62"/>
<polygon fill="midnightblue" stroke="midnightblue" points="3089.55,-86.04 3098.9,-81.05 3088.48,-79.12 3089.55,-86.04"/>
</g>
<!-- Node28 -->
<g id="node28" class="node">
<title>Node28</title>
<g id="a_node28"><a xlink:href="ControlBoardDriverCoupling_8h.html" target="_top" xlink:title=" ">
<polygon fill="none" stroke="black" points="504,-62 504,-81 666,-81 666,-62 504,-62"/>
<text text-anchor="middle" x="585" y="-69" font-family="FreeSans.ttf" font-size="10.00">ControlBoardDriverCoupling.h</text>
</a>
</g>
</g>
<!-- Node7&#45;&gt;Node28 -->
<g id="edge28" class="edge">
<title>Node7&#45;&gt;Node28</title>
<path fill="none" stroke="midnightblue" d="M2127.2,-123.81C2124.09,-123.51 2121.01,-123.23 2118,-123 1480.6,-73.59 1316.82,-143.34 680,-87 668.05,-85.94 655.33,-84.34 643.2,-82.57"/>
<polygon fill="midnightblue" stroke="midnightblue" points="643.6,-79.09 633.19,-81.06 642.55,-86.01 643.6,-79.09"/>
</g>
<!-- Node29 -->
<g id="node29" class="node">
<title>Node29</title>
<g id="a_node29"><a xlink:title=" ">
<polygon fill="none" stroke="#bfbfbf" points="608.5,-0.5 608.5,-19.5 701.5,-19.5 701.5,-0.5 608.5,-0.5"/>
<text text-anchor="middle" x="655" y="-7.5" font-family="FreeSans.ttf" font-size="10.00">unordered_map</text>
</a>
</g>
</g>
<!-- Node7&#45;&gt;Node29 -->
<g id="edge36" class="edge">
<title>Node7&#45;&gt;Node29</title>
<path fill="none" stroke="midnightblue" d="M2127.2,-123.81C2124.09,-123.51 2121.01,-123.23 2118,-123 2040.15,-116.94 782.53,-122.52 713,-87 688.81,-74.64 671.84,-47.01 662.75,-28.7"/>
<polygon fill="midnightblue" stroke="midnightblue" points="665.92,-27.21 658.51,-19.64 659.58,-30.18 665.92,-27.21"/>
</g>
<!-- Node30 -->
<g id="node30" class="node">
<title>Node30</title>
<g id="a_node30"><a xlink:title=" ">
<polygon fill="none" stroke="#bfbfbf" points="2420,-62 2420,-81 2552,-81 2552,-62 2420,-62"/>
<text text-anchor="middle" x="2486" y="-69" font-family="FreeSans.ttf" font-size="10.00">gazebo/common/PID.hh</text>
</a>
</g>
</g>
<!-- Node7&#45;&gt;Node30 -->
<g id="edge32" class="edge">
<title>Node7&#45;&gt;Node30</title>
<path fill="none" stroke="midnightblue" d="M2229.84,-123.48C2283.46,-112.8 2375.28,-94.53 2433.19,-83.01"/>
<polygon fill="midnightblue" stroke="midnightblue" points="2434.12,-86.39 2443.24,-81.01 2432.75,-79.53 2434.12,-86.39"/>
</g>
<!-- Node31 -->
<g id="node31" class="node">
<title>Node31</title>
<g id="a_node31"><a xlink:title=" ">
<polygon fill="none" stroke="#bfbfbf" points="2570,-62 2570,-81 2710,-81 2710,-62 2570,-62"/>
<text text-anchor="middle" x="2640" y="-69" font-family="FreeSans.ttf" font-size="10.00">gazebo/common/Time.hh</text>
</a>
</g>
</g>
<!-- Node7&#45;&gt;Node31 -->
<g id="edge33" class="edge">
<title>Node7&#45;&gt;Node31</title>
<path fill="none" stroke="midnightblue" d="M2246.75,-125.96C2320.71,-118.22 2450.43,-103.78 2561,-87 2569.14,-85.77 2577.72,-84.33 2586.11,-82.85"/>
<polygon fill="midnightblue" stroke="midnightblue" points="2586.98,-86.25 2596.21,-81.04 2585.74,-79.36 2586.98,-86.25"/>
</g>
<!-- Node32 -->
<g id="node32" class="node">
<title>Node32</title>
<g id="a_node32"><a xlink:title=" ">
<polygon fill="none" stroke="#bfbfbf" points="2728.5,-62 2728.5,-81 2793.5,-81 2793.5,-62 2728.5,-62"/>
<text text-anchor="middle" x="2761" y="-69" font-family="FreeSans.ttf" font-size="10.00">functional</text>
</a>
</g>
</g>
<!-- Node7&#45;&gt;Node32 -->
<g id="edge35" class="edge">
<title>Node7&#45;&gt;Node32</title>
<path fill="none" stroke="midnightblue" d="M2246.74,-131.75C2345.92,-130.26 2550.33,-122.67 2719,-87 2722.5,-86.26 2726.11,-85.31 2729.68,-84.25"/>
<polygon fill="midnightblue" stroke="midnightblue" points="2731.06,-87.49 2739.49,-81.07 2728.9,-80.83 2731.06,-87.49"/>
</g>
<!-- Node33 -->
<g id="node33" class="node">
<title>Node33</title>
<g id="a_node33"><a xlink:title=" ">
<polygon fill="none" stroke="#bfbfbf" points="2811.5,-62 2811.5,-81 2858.5,-81 2858.5,-62 2811.5,-62"/>
<text text-anchor="middle" x="2835" y="-69" font-family="FreeSans.ttf" font-size="10.00">vector</text>
</a>
</g>
</g>
<!-- Node7&#45;&gt;Node33 -->
<g id="edge37" class="edge">
<title>Node7&#45;&gt;Node33</title>
<path fill="none" stroke="midnightblue" d="M2247,-130.2C2380.39,-125.79 2697.97,-112.85 2802,-87 2804.36,-86.41 2806.76,-85.67 2809.14,-84.84"/>
<polygon fill="midnightblue" stroke="midnightblue" points="2810.64,-88.01 2818.6,-81.02 2808.02,-81.51 2810.64,-88.01"/>
</g>
<!-- Node25&#45;&gt;Node26 -->
<g id="edge26" class="edge">
<title>Node25&#45;&gt;Node26</title>
<path fill="none" stroke="midnightblue" d="M3147,-61.98C3147,-53.58 3147,-40.48 3147,-29.66"/>
<polygon fill="midnightblue" stroke="midnightblue" points="3150.5,-29.51 3147,-19.51 3143.5,-29.51 3150.5,-29.51"/>
</g>
<!-- Node27 -->
<g id="node27" class="node">
<title>Node27</title>
<g id="a_node27"><a xlink:title=" ">
<polygon fill="none" stroke="#bfbfbf" points="3477,-0.5 3477,-19.5 3525,-19.5 3525,-0.5 3477,-0.5"/>
<text text-anchor="middle" x="3501" y="-7.5" font-family="FreeSans.ttf" font-size="10.00">mutex</text>
</a>
</g>
</g>
<!-- Node25&#45;&gt;Node27 -->
<g id="edge27" class="edge">
<title>Node25&#45;&gt;Node27</title>
<path fill="none" stroke="midnightblue" d="M3197.72,-61.98C3270.91,-49.67 3404.22,-27.27 3466.82,-16.75"/>
<polygon fill="midnightblue" stroke="midnightblue" points="3467.66,-20.15 3476.94,-15.04 3466.5,-13.25 3467.66,-20.15"/>
</g>
<!-- Node28&#45;&gt;Node24 -->
<g id="edge29" class="edge">
<title>Node28&#45;&gt;Node24</title>
<path fill="none" stroke="midnightblue" d="M572.25,-61.98C557.97,-52.43 534.6,-36.81 517.49,-25.37"/>
<polygon fill="midnightblue" stroke="midnightblue" points="518.99,-22.16 508.73,-19.51 515.1,-27.98 518.99,-22.16"/>
</g>
<!-- Node28&#45;&gt;Node26 -->
<g id="edge30" class="edge">
<title>Node28&#45;&gt;Node26</title>
<path fill="none" stroke="midnightblue" d="M649.68,-61.97C669.92,-59.63 692.36,-57.36 713,-56 1186.19,-24.89 2700.08,-13.74 3066.55,-11.47"/>
<polygon fill="midnightblue" stroke="midnightblue" points="3066.82,-14.96 3076.8,-11.4 3066.78,-7.96 3066.82,-14.96"/>
</g>
<!-- Node28&#45;&gt;Node29 -->
<g id="edge31" class="edge">
<title>Node28&#45;&gt;Node29</title>
<path fill="none" stroke="midnightblue" d="M595.03,-61.98C606.05,-52.61 623.96,-37.38 637.34,-26.01"/>
<polygon fill="midnightblue" stroke="midnightblue" points="639.64,-28.65 644.99,-19.51 635.1,-23.32 639.64,-28.65"/>
</g>
<!-- Node34&#45;&gt;Node4 -->
<g id="edge39" class="edge">
<title>Node34&#45;&gt;Node4</title>
<path fill="none" stroke="midnightblue" d="M3469.51,-128C3349,-121.56 3130.9,-107.51 3055,-87 3053.06,-86.48 3051.1,-85.84 3049.15,-85.13"/>
<polygon fill="midnightblue" stroke="midnightblue" points="3050.26,-81.8 3039.69,-81.12 3047.53,-88.24 3050.26,-81.8"/>
</g>
<!-- Node35 -->
<g id="node35" class="node">
<title>Node35</title>
<g id="a_node35"><a xlink:title=" ">
<polygon fill="none" stroke="#bfbfbf" points="3528.5,-62 3528.5,-81 3575.5,-81 3575.5,-62 3528.5,-62"/>
<text text-anchor="middle" x="3552" y="-69" font-family="FreeSans.ttf" font-size="10.00">cmath</text>
</a>
</g>
</g>
<!-- Node34&#45;&gt;Node35 -->
<g id="edge40" class="edge">
<title>Node34&#45;&gt;Node35</title>
<path fill="none" stroke="midnightblue" d="M3552,-123.48C3552,-115.08 3552,-101.98 3552,-91.16"/>
<polygon fill="midnightblue" stroke="midnightblue" points="3555.5,-91.01 3552,-81.01 3548.5,-91.01 3555.5,-91.01"/>
</g>
<!-- Node36&#45;&gt;Node5 -->
<g id="edge47" class="edge">
<title>Node36&#45;&gt;Node5</title>
<path fill="none" stroke="midnightblue" d="M3737.79,-123.48C3682.92,-114.63 3594.91,-100.25 3519,-87 3511.55,-85.7 3503.71,-84.3 3495.98,-82.9"/>
<polygon fill="midnightblue" stroke="midnightblue" points="3496.39,-79.42 3485.93,-81.07 3495.14,-86.31 3496.39,-79.42"/>
</g>
<!-- Node36&#45;&gt;Node11 -->
<g id="edge46" class="edge">
<title>Node36&#45;&gt;Node11</title>
<path fill="none" stroke="midnightblue" d="M3771.51,-123.48C3748.59,-113.45 3710.31,-96.7 3683.92,-85.15"/>
<polygon fill="midnightblue" stroke="midnightblue" points="3685.01,-81.81 3674.45,-81.01 3682.21,-88.22 3685.01,-81.81"/>
</g>
<!-- Node36&#45;&gt;Node23 -->
<g id="edge44" class="edge">
<title>Node36&#45;&gt;Node23</title>
<path fill="none" stroke="midnightblue" d="M3804.9,-123.48C3820.67,-113.8 3846.64,-97.87 3865.35,-86.39"/>
<polygon fill="midnightblue" stroke="midnightblue" points="3867.43,-89.22 3874.13,-81.01 3863.77,-83.25 3867.43,-89.22"/>
</g>
<!-- Node36&#45;&gt;Node27 -->
<g id="edge45" class="edge">
<title>Node36&#45;&gt;Node27</title>
<path fill="none" stroke="midnightblue" d="M3786.13,-123.29C3776.63,-107.19 3754,-72.87 3725,-56 3664.73,-20.93 3581.6,-12.8 3535.43,-11.16"/>
<polygon fill="midnightblue" stroke="midnightblue" points="3535.43,-7.66 3525.34,-10.88 3535.24,-14.65 3535.43,-7.66"/>
</g>
<!-- Node37 -->
<g id="node37" class="node">
<title>Node37</title>
<g id="a_node37"><a xlink:title=" ">
<polygon fill="none" stroke="#bfbfbf" points="3772,-62 3772,-81 3810,-81 3810,-62 3772,-62"/>
<text text-anchor="middle" x="3791" y="-69" font-family="FreeSans.ttf" font-size="10.00">map</text>
</a>
</g>
</g>
<!-- Node36&#45;&gt;Node37 -->
<g id="edge42" class="edge">
<title>Node36&#45;&gt;Node37</title>
<path fill="none" stroke="midnightblue" d="M3791,-123.48C3791,-115.08 3791,-101.98 3791,-91.16"/>
<polygon fill="midnightblue" stroke="midnightblue" points="3794.5,-91.01 3791,-81.01 3787.5,-91.01 3794.5,-91.01"/>
</g>
<!-- Node38 -->
<g id="node38" class="node">
<title>Node38</title>
<g id="a_node38"><a xlink:title=" ">
<polygon fill="none" stroke="#bfbfbf" points="3965.5,-62 3965.5,-81 4058.5,-81 4058.5,-62 3965.5,-62"/>
<text text-anchor="middle" x="4012" y="-69" font-family="FreeSans.ttf" font-size="10.00">sdf/sdf_config.h</text>
</a>
</g>
</g>
<!-- Node36&#45;&gt;Node38 -->
<g id="edge43" class="edge">
<title>Node36&#45;&gt;Node38</title>
<path fill="none" stroke="midnightblue" d="M3822.66,-123.48C3861.56,-113 3927.64,-95.21 3970.55,-83.66"/>
<polygon fill="midnightblue" stroke="midnightblue" points="3971.65,-86.99 3980.39,-81.01 3969.83,-80.23 3971.65,-86.99"/>
</g>
<!-- Node39&#45;&gt;Node23 -->
<g id="edge50" class="edge">
<title>Node39&#45;&gt;Node23</title>
<path fill="none" stroke="midnightblue" d="M4059.34,-123.48C4024.44,-113.09 3965.35,-95.51 3926.5,-83.95"/>
<polygon fill="midnightblue" stroke="midnightblue" points="3927.18,-80.51 3916.6,-81.01 3925.19,-87.22 3927.18,-80.51"/>
</g>
<!-- Node39&#45;&gt;Node38 -->
<g id="edge49" class="edge">
<title>Node39&#45;&gt;Node38</title>
<path fill="none" stroke="midnightblue" d="M4077.11,-123.48C4065.03,-114.02 4045.33,-98.6 4030.76,-87.19"/>
<polygon fill="midnightblue" stroke="midnightblue" points="4032.9,-84.42 4022.87,-81.01 4028.59,-89.93 4032.9,-84.42"/>
</g>
<!-- Node40 -->
<g id="node40" class="node">
<title>Node40</title>
<g id="a_node40"><a xlink:title=" ">
<polygon fill="none" stroke="#bfbfbf" points="4269.5,-62 4269.5,-81 4440.5,-81 4440.5,-62 4269.5,-62"/>
<text text-anchor="middle" x="4355" y="-69" font-family="FreeSans.ttf" font-size="10.00">gazebo/sensors/SensorTypes.hh</text>
</a>
</g>
</g>
<!-- Node39&#45;&gt;Node40 -->
<g id="edge51" class="edge">
<title>Node39&#45;&gt;Node40</title>
<path fill="none" stroke="midnightblue" d="M4126.25,-123.48C4173.84,-112.87 4255.11,-94.76 4306.88,-83.22"/>
<polygon fill="midnightblue" stroke="midnightblue" points="4307.82,-86.6 4316.82,-81.01 4306.29,-79.77 4307.82,-86.6"/>
</g>
<!-- Node41 -->
<g id="node41" class="node">
<title>Node41</title>
<g id="a_node41"><a xlink:title=" ">
<polygon fill="none" stroke="#bfbfbf" points="4077,-62 4077,-81 4251,-81 4251,-62 4077,-62"/>
<text text-anchor="middle" x="4164" y="-69" font-family="FreeSans.ttf" font-size="10.00">gazebo/physics/PhysicsTypes.hh</text>
</a>
</g>
</g>
<!-- Node39&#45;&gt;Node41 -->
<g id="edge52" class="edge">
<title>Node39&#45;&gt;Node41</title>
<path fill="none" stroke="midnightblue" d="M4098.89,-123.48C4110.97,-114.02 4130.67,-98.6 4145.24,-87.19"/>
<polygon fill="midnightblue" stroke="midnightblue" points="4147.41,-89.93 4153.13,-81.01 4143.1,-84.42 4147.41,-89.93"/>
</g>
</g>
</svg>
