<?xml version="1.0" encoding="UTF-8" standalone="no"?>
<!DOCTYPE svg PUBLIC "-//W3C//DTD SVG 1.1//EN"
 "http://www.w3.org/Graphics/SVG/1.1/DTD/svg11.dtd">
<!-- Generated by graphviz version 2.43.0 (0)
 -->
<!-- Title: ContactLoadCellArrayDriver.cpp Pages: 1 -->
<svg width="4073pt" height="140pt"
 viewBox="0.00 0.00 4073.00 140.00" xmlns="http://www.w3.org/2000/svg" xmlns:xlink="http://www.w3.org/1999/xlink">
<g id="graph0" class="graph" transform="scale(1 1) rotate(0) translate(4 136)">
<title>ContactLoadCellArrayDriver.cpp</title>
<!-- Node1 -->
<g id="node1" class="node">
<title>Node1</title>
<g id="a_node1"><a xlink:title=" ">
<polygon fill="#bfbfbf" stroke="black" points="3523,-112.5 3523,-131.5 3695,-131.5 3695,-112.5 3523,-112.5"/>
<text text-anchor="middle" x="3609" y="-119.5" font-family="FreeSans.ttf" font-size="10.00">ContactLoadCellArrayDriver.cpp</text>
</a>
</g>
</g>
<!-- Node2 -->
<g id="node2" class="node">
<title>Node2</title>
<g id="a_node2"><a xlink:href="ContactLoadCellArrayDriver_8h.html" target="_top" xlink:title=" ">
<polygon fill="none" stroke="black" points="1514.5,-56.5 1514.5,-75.5 1675.5,-75.5 1675.5,-56.5 1514.5,-56.5"/>
<text text-anchor="middle" x="1595" y="-63.5" font-family="FreeSans.ttf" font-size="10.00">ContactLoadCellArrayDriver.h</text>
</a>
</g>
</g>
<!-- Node1&#45;&gt;Node2 -->
<g id="edge1" class="edge">
<title>Node1&#45;&gt;Node2</title>
<path fill="none" stroke="midnightblue" d="M3522.78,-118.69C3194.24,-109.88 2022.3,-78.46 1685.89,-69.44"/>
<polygon fill="midnightblue" stroke="midnightblue" points="1685.8,-65.93 1675.71,-69.16 1685.61,-72.93 1685.8,-65.93"/>
</g>
<!-- Node22 -->
<g id="node22" class="node">
<title>Node22</title>
<g id="a_node22"><a xlink:href="Handler_8hh.html" target="_top" xlink:title=" ">
<polygon fill="none" stroke="black" points="3037,-56.5 3037,-75.5 3201,-75.5 3201,-56.5 3037,-56.5"/>
<text text-anchor="middle" x="3119" y="-63.5" font-family="FreeSans.ttf" font-size="10.00">GazeboYarpPlugins/Handler.hh</text>
</a>
</g>
</g>
<!-- Node1&#45;&gt;Node22 -->
<g id="edge21" class="edge">
<title>Node1&#45;&gt;Node22</title>
<path fill="none" stroke="midnightblue" d="M3531.63,-112.47C3443.25,-102.73 3298.96,-86.83 3206.54,-76.65"/>
<polygon fill="midnightblue" stroke="midnightblue" points="3206.69,-73.14 3196.37,-75.53 3205.93,-80.1 3206.69,-73.14"/>
</g>
<!-- Node28 -->
<g id="node28" class="node">
<title>Node28</title>
<g id="a_node28"><a xlink:href="common_8h.html" target="_top" xlink:title=" ">
<polygon fill="none" stroke="black" points="3327,-56.5 3327,-75.5 3491,-75.5 3491,-56.5 3327,-56.5"/>
<text text-anchor="middle" x="3409" y="-63.5" font-family="FreeSans.ttf" font-size="10.00">GazeboYarpPlugins/common.h</text>
</a>
</g>
</g>
<!-- Node1&#45;&gt;Node28 -->
<g id="edge28" class="edge">
<title>Node1&#45;&gt;Node28</title>
<path fill="none" stroke="midnightblue" d="M3577.31,-112.44C3542.93,-103.16 3487.92,-88.31 3450.21,-78.13"/>
<polygon fill="midnightblue" stroke="midnightblue" points="3451.11,-74.74 3440.54,-75.52 3449.28,-81.5 3451.11,-74.74"/>
</g>
<!-- Node31 -->
<g id="node31" class="node">
<title>Node31</title>
<g id="a_node31"><a xlink:title=" ">
<polygon fill="none" stroke="#bfbfbf" points="3509,-56.5 3509,-75.5 3591,-75.5 3591,-56.5 3509,-56.5"/>
<text text-anchor="middle" x="3550" y="-63.5" font-family="FreeSans.ttf" font-size="10.00">yarp/os/Log.h</text>
</a>
</g>
</g>
<!-- Node1&#45;&gt;Node31 -->
<g id="edge31" class="edge">
<title>Node1&#45;&gt;Node31</title>
<path fill="none" stroke="midnightblue" d="M3599.52,-112.32C3590.8,-104.34 3577.66,-92.31 3567.1,-82.65"/>
<polygon fill="midnightblue" stroke="midnightblue" points="3569.39,-80 3559.65,-75.83 3564.67,-85.17 3569.39,-80"/>
</g>
<!-- Node32 -->
<g id="node32" class="node">
<title>Node32</title>
<g id="a_node32"><a xlink:title=" ">
<polygon fill="none" stroke="#bfbfbf" points="3609.5,-56.5 3609.5,-75.5 3726.5,-75.5 3726.5,-56.5 3609.5,-56.5"/>
<text text-anchor="middle" x="3668" y="-63.5" font-family="FreeSans.ttf" font-size="10.00">yarp/os/LogStream.h</text>
</a>
</g>
</g>
<!-- Node1&#45;&gt;Node32 -->
<g id="edge32" class="edge">
<title>Node1&#45;&gt;Node32</title>
<path fill="none" stroke="midnightblue" d="M3618.48,-112.32C3627.2,-104.34 3640.34,-92.31 3650.9,-82.65"/>
<polygon fill="midnightblue" stroke="midnightblue" points="3653.33,-85.17 3658.35,-75.83 3648.61,-80 3653.33,-85.17"/>
</g>
<!-- Node33 -->
<g id="node33" class="node">
<title>Node33</title>
<g id="a_node33"><a xlink:title=" ">
<polygon fill="none" stroke="#bfbfbf" points="3745,-56.5 3745,-75.5 3849,-75.5 3849,-56.5 3745,-56.5"/>
<text text-anchor="middle" x="3797" y="-63.5" font-family="FreeSans.ttf" font-size="10.00">yarp/math/Math.h</text>
</a>
</g>
</g>
<!-- Node1&#45;&gt;Node33 -->
<g id="edge33" class="edge">
<title>Node1&#45;&gt;Node33</title>
<path fill="none" stroke="midnightblue" d="M3638.79,-112.44C3670.83,-103.24 3721.93,-88.56 3757.35,-78.39"/>
<polygon fill="midnightblue" stroke="midnightblue" points="3758.71,-81.64 3767.35,-75.52 3756.77,-74.91 3758.71,-81.64"/>
</g>
<!-- Node34 -->
<g id="node34" class="node">
<title>Node34</title>
<g id="a_node34"><a xlink:title=" ">
<polygon fill="none" stroke="#bfbfbf" points="3867.5,-56.5 3867.5,-75.5 3966.5,-75.5 3966.5,-56.5 3867.5,-56.5"/>
<text text-anchor="middle" x="3917" y="-63.5" font-family="FreeSans.ttf" font-size="10.00">yarp/math/SVD.h</text>
</a>
</g>
</g>
<!-- Node1&#45;&gt;Node34 -->
<g id="edge34" class="edge">
<title>Node1&#45;&gt;Node34</title>
<path fill="none" stroke="midnightblue" d="M3657.8,-112.44C3712.21,-102.9 3800.17,-87.48 3858.29,-77.29"/>
<polygon fill="midnightblue" stroke="midnightblue" points="3859.18,-80.69 3868.42,-75.52 3857.97,-73.8 3859.18,-80.69"/>
</g>
<!-- Node35 -->
<g id="node35" class="node">
<title>Node35</title>
<g id="a_node35"><a xlink:title=" ">
<polygon fill="none" stroke="#bfbfbf" points="3985,-56.5 3985,-75.5 4065,-75.5 4065,-56.5 3985,-56.5"/>
<text text-anchor="middle" x="4025" y="-63.5" font-family="FreeSans.ttf" font-size="10.00">sdf/Param.hh</text>
</a>
</g>
</g>
<!-- Node1&#45;&gt;Node35 -->
<g id="edge35" class="edge">
<title>Node1&#45;&gt;Node35</title>
<path fill="none" stroke="midnightblue" d="M3690.09,-112.46C3762.26,-104.54 3870.92,-91.83 3974.88,-76.09"/>
<polygon fill="midnightblue" stroke="midnightblue" points="3975.56,-79.53 3984.92,-74.56 3974.51,-72.61 3975.56,-79.53"/>
</g>
<!-- Node3 -->
<g id="node3" class="node">
<title>Node3</title>
<g id="a_node3"><a xlink:title=" ">
<polygon fill="none" stroke="#bfbfbf" points="0,-0.5 0,-19.5 134,-19.5 134,-0.5 0,-0.5"/>
<text text-anchor="middle" x="67" y="-7.5" font-family="FreeSans.ttf" font-size="10.00">yarp/dev/DeviceDriver.h</text>
</a>
</g>
</g>
<!-- Node2&#45;&gt;Node3 -->
<g id="edge2" class="edge">
<title>Node2&#45;&gt;Node3</title>
<path fill="none" stroke="midnightblue" d="M1514.2,-64.96C1295.33,-64.31 672.53,-58.96 144.22,-20.02"/>
<polygon fill="midnightblue" stroke="midnightblue" points="144.34,-16.52 134.11,-19.27 143.82,-23.5 144.34,-16.52"/>
</g>
<!-- Node4 -->
<g id="node4" class="node">
<title>Node4</title>
<g id="a_node4"><a xlink:title=" ">
<polygon fill="none" stroke="#bfbfbf" points="152,-0.5 152,-19.5 292,-19.5 292,-0.5 152,-0.5"/>
<text text-anchor="middle" x="222" y="-7.5" font-family="FreeSans.ttf" font-size="10.00">yarp/dev/IAnalogSensor.h</text>
</a>
</g>
</g>
<!-- Node2&#45;&gt;Node4 -->
<g id="edge3" class="edge">
<title>Node2&#45;&gt;Node4</title>
<path fill="none" stroke="midnightblue" d="M1514.25,-64.4C1312,-62.41 767.21,-54.13 302.46,-20.04"/>
<polygon fill="midnightblue" stroke="midnightblue" points="302.41,-16.53 292.18,-19.29 301.9,-23.51 302.41,-16.53"/>
</g>
<!-- Node5 -->
<g id="node5" class="node">
<title>Node5</title>
<g id="a_node5"><a xlink:title=" ">
<polygon fill="none" stroke="#bfbfbf" points="310.5,-0.5 310.5,-19.5 459.5,-19.5 459.5,-0.5 310.5,-0.5"/>
<text text-anchor="middle" x="385" y="-7.5" font-family="FreeSans.ttf" font-size="10.00">yarp/dev/IPreciselyTimed.h</text>
</a>
</g>
</g>
<!-- Node2&#45;&gt;Node5 -->
<g id="edge4" class="edge">
<title>Node2&#45;&gt;Node5</title>
<path fill="none" stroke="midnightblue" d="M1514.34,-63.62C1330.86,-60.1 867.98,-48.93 469.62,-19.99"/>
<polygon fill="midnightblue" stroke="midnightblue" points="469.86,-16.5 459.63,-19.26 469.35,-23.48 469.86,-16.5"/>
</g>
<!-- Node6 -->
<g id="node6" class="node">
<title>Node6</title>
<g id="a_node6"><a xlink:title=" ">
<polygon fill="none" stroke="#bfbfbf" points="478,-0.5 478,-19.5 574,-19.5 574,-0.5 478,-0.5"/>
<text text-anchor="middle" x="526" y="-7.5" font-family="FreeSans.ttf" font-size="10.00">yarp/os/Stamp.h</text>
</a>
</g>
</g>
<!-- Node2&#45;&gt;Node6 -->
<g id="edge5" class="edge">
<title>Node2&#45;&gt;Node6</title>
<path fill="none" stroke="midnightblue" d="M1514.43,-64.48C1344.38,-62.72 936.24,-54.98 584.29,-20.01"/>
<polygon fill="midnightblue" stroke="midnightblue" points="584.45,-16.51 574.15,-18.99 583.75,-23.47 584.45,-16.51"/>
</g>
<!-- Node7 -->
<g id="node7" class="node">
<title>Node7</title>
<g id="a_node7"><a xlink:title=" ">
<polygon fill="none" stroke="#bfbfbf" points="592.5,-0.5 592.5,-19.5 691.5,-19.5 691.5,-0.5 592.5,-0.5"/>
<text text-anchor="middle" x="642" y="-7.5" font-family="FreeSans.ttf" font-size="10.00">yarp/sig/Matrix.h</text>
</a>
</g>
</g>
<!-- Node2&#45;&gt;Node7 -->
<g id="edge6" class="edge">
<title>Node2&#45;&gt;Node7</title>
<path fill="none" stroke="midnightblue" d="M1514.35,-63.67C1359.07,-60.51 1007.64,-50.47 701.49,-19.93"/>
<polygon fill="midnightblue" stroke="midnightblue" points="701.83,-16.45 691.53,-18.93 701.13,-23.41 701.83,-16.45"/>
</g>
<!-- Node8 -->
<g id="node8" class="node">
<title>Node8</title>
<g id="a_node8"><a xlink:title=" ">
<polygon fill="none" stroke="#bfbfbf" points="710,-0.5 710,-19.5 856,-19.5 856,-0.5 710,-0.5"/>
<text text-anchor="middle" x="783" y="-7.5" font-family="FreeSans.ttf" font-size="10.00">gazebo/common/Plugin.hh</text>
</a>
</g>
</g>
<!-- Node2&#45;&gt;Node8 -->
<g id="edge7" class="edge">
<title>Node2&#45;&gt;Node8</title>
<path fill="none" stroke="midnightblue" d="M1514.43,-61.29C1381.64,-54.91 1108.24,-40.58 866.34,-20.08"/>
<polygon fill="midnightblue" stroke="midnightblue" points="866.56,-16.58 856.3,-19.22 865.97,-23.56 866.56,-16.58"/>
</g>
<!-- Node9 -->
<g id="node9" class="node">
<title>Node9</title>
<g id="a_node9"><a xlink:title=" ">
<polygon fill="none" stroke="#bfbfbf" points="874,-0.5 874,-19.5 1032,-19.5 1032,-0.5 874,-0.5"/>
<text text-anchor="middle" x="953" y="-7.5" font-family="FreeSans.ttf" font-size="10.00">gazebo/common/common.hh</text>
</a>
</g>
</g>
<!-- Node2&#45;&gt;Node9 -->
<g id="edge8" class="edge">
<title>Node2&#45;&gt;Node9</title>
<path fill="none" stroke="midnightblue" d="M1514.22,-58.97C1408.36,-50.95 1216.64,-36.01 1042.28,-20.1"/>
<polygon fill="midnightblue" stroke="midnightblue" points="1042.42,-16.6 1032.15,-19.17 1041.79,-23.57 1042.42,-16.6"/>
</g>
<!-- Node10 -->
<g id="node10" class="node">
<title>Node10</title>
<g id="a_node10"><a xlink:title=" ">
<polygon fill="none" stroke="#bfbfbf" points="1050.5,-0.5 1050.5,-19.5 1193.5,-19.5 1193.5,-0.5 1050.5,-0.5"/>
<text text-anchor="middle" x="1122" y="-7.5" font-family="FreeSans.ttf" font-size="10.00">gazebo/sensors/Sensor.hh</text>
</a>
</g>
</g>
<!-- Node2&#45;&gt;Node10 -->
<g id="edge9" class="edge">
<title>Node2&#45;&gt;Node10</title>
<path fill="none" stroke="midnightblue" d="M1520.31,-56.47C1434.08,-46.63 1292.72,-30.49 1203.64,-20.32"/>
<polygon fill="midnightblue" stroke="midnightblue" points="1203.92,-16.83 1193.59,-19.17 1203.12,-23.78 1203.92,-16.83"/>
</g>
<!-- Node11 -->
<g id="node11" class="node">
<title>Node11</title>
<g id="a_node11"><a xlink:title=" ">
<polygon fill="none" stroke="#bfbfbf" points="1212,-0.5 1212,-19.5 1392,-19.5 1392,-0.5 1212,-0.5"/>
<text text-anchor="middle" x="1302" y="-7.5" font-family="FreeSans.ttf" font-size="10.00">gazebo/sensors/ContactSensor.hh</text>
</a>
</g>
</g>
<!-- Node2&#45;&gt;Node11 -->
<g id="edge10" class="edge">
<title>Node2&#45;&gt;Node11</title>
<path fill="none" stroke="midnightblue" d="M1548.57,-56.44C1496.92,-46.92 1413.49,-31.55 1358.19,-21.36"/>
<polygon fill="midnightblue" stroke="midnightblue" points="1358.68,-17.89 1348.21,-19.52 1357.41,-24.77 1358.68,-17.89"/>
</g>
<!-- Node12 -->
<g id="node12" class="node">
<title>Node12</title>
<g id="a_node12"><a xlink:title=" ">
<polygon fill="none" stroke="#bfbfbf" points="1410.5,-0.5 1410.5,-19.5 1595.5,-19.5 1595.5,-0.5 1410.5,-0.5"/>
<text text-anchor="middle" x="1503" y="-7.5" font-family="FreeSans.ttf" font-size="10.00">gazebo/sensors/SensorManager.hh</text>
</a>
</g>
</g>
<!-- Node2&#45;&gt;Node12 -->
<g id="edge11" class="edge">
<title>Node2&#45;&gt;Node12</title>
<path fill="none" stroke="midnightblue" d="M1580.22,-56.32C1565.73,-47.82 1543.43,-34.73 1526.51,-24.8"/>
<polygon fill="midnightblue" stroke="midnightblue" points="1528.14,-21.7 1517.74,-19.65 1524.6,-27.74 1528.14,-21.7"/>
</g>
<!-- Node13 -->
<g id="node13" class="node">
<title>Node13</title>
<g id="a_node13"><a xlink:title=" ">
<polygon fill="none" stroke="#bfbfbf" points="1613.5,-0.5 1613.5,-19.5 1760.5,-19.5 1760.5,-0.5 1613.5,-0.5"/>
<text text-anchor="middle" x="1687" y="-7.5" font-family="FreeSans.ttf" font-size="10.00">gazebo/physics/Contact.hh</text>
</a>
</g>
</g>
<!-- Node2&#45;&gt;Node13 -->
<g id="edge12" class="edge">
<title>Node2&#45;&gt;Node13</title>
<path fill="none" stroke="midnightblue" d="M1609.78,-56.32C1624.27,-47.82 1646.57,-34.73 1663.49,-24.8"/>
<polygon fill="midnightblue" stroke="midnightblue" points="1665.4,-27.74 1672.26,-19.65 1661.86,-21.7 1665.4,-27.74"/>
</g>
<!-- Node14 -->
<g id="node14" class="node">
<title>Node14</title>
<g id="a_node14"><a xlink:title=" ">
<polygon fill="none" stroke="#bfbfbf" points="1779,-0.5 1779,-19.5 1909,-19.5 1909,-0.5 1779,-0.5"/>
<text text-anchor="middle" x="1844" y="-7.5" font-family="FreeSans.ttf" font-size="10.00">gazebo/physics/Link.hh</text>
</a>
</g>
</g>
<!-- Node2&#45;&gt;Node14 -->
<g id="edge13" class="edge">
<title>Node2&#45;&gt;Node14</title>
<path fill="none" stroke="midnightblue" d="M1634.45,-56.44C1677.89,-47.02 1747.79,-31.87 1794.78,-21.68"/>
<polygon fill="midnightblue" stroke="midnightblue" points="1795.7,-25.06 1804.73,-19.52 1794.22,-18.22 1795.7,-25.06"/>
</g>
<!-- Node15 -->
<g id="node15" class="node">
<title>Node15</title>
<g id="a_node15"><a xlink:title=" ">
<polygon fill="none" stroke="#bfbfbf" points="1927,-0.5 1927,-19.5 2071,-19.5 2071,-0.5 1927,-0.5"/>
<text text-anchor="middle" x="1999" y="-7.5" font-family="FreeSans.ttf" font-size="10.00">gazebo/physics/Inertial.hh</text>
</a>
</g>
</g>
<!-- Node2&#45;&gt;Node15 -->
<g id="edge14" class="edge">
<title>Node2&#45;&gt;Node15</title>
<path fill="none" stroke="midnightblue" d="M1659.02,-56.44C1731.41,-46.77 1849.11,-31.04 1925.28,-20.85"/>
<polygon fill="midnightblue" stroke="midnightblue" points="1925.84,-24.31 1935.28,-19.52 1924.91,-17.37 1925.84,-24.31"/>
</g>
<!-- Node16 -->
<g id="node16" class="node">
<title>Node16</title>
<g id="a_node16"><a xlink:title=" ">
<polygon fill="none" stroke="#bfbfbf" points="2089,-0.5 2089,-19.5 2235,-19.5 2235,-0.5 2089,-0.5"/>
<text text-anchor="middle" x="2162" y="-7.5" font-family="FreeSans.ttf" font-size="10.00">gazebo/physics/physics.hh</text>
</a>
</g>
</g>
<!-- Node2&#45;&gt;Node16 -->
<g id="edge15" class="edge">
<title>Node2&#45;&gt;Node16</title>
<path fill="none" stroke="midnightblue" d="M1675.71,-57.93C1769.83,-49.59 1930.4,-35.07 2078.5,-20.14"/>
<polygon fill="midnightblue" stroke="midnightblue" points="2079.09,-23.6 2088.69,-19.11 2078.39,-16.63 2079.09,-23.6"/>
</g>
<!-- Node17 -->
<g id="node17" class="node">
<title>Node17</title>
<g id="a_node17"><a xlink:title=" ">
<polygon fill="none" stroke="#bfbfbf" points="2253.5,-0.5 2253.5,-19.5 2382.5,-19.5 2382.5,-0.5 2253.5,-0.5"/>
<text text-anchor="middle" x="2318" y="-7.5" font-family="FreeSans.ttf" font-size="10.00">ignition/math/Pose3.hh</text>
</a>
</g>
</g>
<!-- Node2&#45;&gt;Node17 -->
<g id="edge16" class="edge">
<title>Node2&#45;&gt;Node17</title>
<path fill="none" stroke="midnightblue" d="M1675.55,-60.76C1796.42,-54.1 2032.14,-39.95 2243.41,-20"/>
<polygon fill="midnightblue" stroke="midnightblue" points="2243.82,-23.48 2253.45,-19.05 2243.16,-16.51 2243.82,-23.48"/>
</g>
<!-- Node18 -->
<g id="node18" class="node">
<title>Node18</title>
<g id="a_node18"><a xlink:title=" ">
<polygon fill="none" stroke="#bfbfbf" points="2400.5,-0.5 2400.5,-19.5 2537.5,-19.5 2537.5,-0.5 2400.5,-0.5"/>
<text text-anchor="middle" x="2469" y="-7.5" font-family="FreeSans.ttf" font-size="10.00">ignition/math/Vector3.hh</text>
</a>
</g>
</g>
<!-- Node2&#45;&gt;Node18 -->
<g id="edge17" class="edge">
<title>Node2&#45;&gt;Node18</title>
<path fill="none" stroke="midnightblue" d="M1675.61,-62C1817.65,-56.37 2121.98,-42.78 2389.81,-20.05"/>
<polygon fill="midnightblue" stroke="midnightblue" points="2390.45,-23.51 2400.12,-19.17 2389.86,-16.53 2390.45,-23.51"/>
</g>
<!-- Node19 -->
<g id="node19" class="node">
<title>Node19</title>
<g id="a_node19"><a xlink:title=" ">
<polygon fill="none" stroke="#bfbfbf" points="2555.5,-0.5 2555.5,-19.5 2692.5,-19.5 2692.5,-0.5 2555.5,-0.5"/>
<text text-anchor="middle" x="2624" y="-7.5" font-family="FreeSans.ttf" font-size="10.00">ignition/math/Matrix3.hh</text>
</a>
</g>
</g>
<!-- Node2&#45;&gt;Node19 -->
<g id="edge18" class="edge">
<title>Node2&#45;&gt;Node19</title>
<path fill="none" stroke="midnightblue" d="M1675.59,-63.02C1837.96,-58.64 2216.27,-46.41 2544.92,-20.03"/>
<polygon fill="midnightblue" stroke="midnightblue" points="2545.44,-23.5 2555.12,-19.2 2544.87,-16.52 2545.44,-23.5"/>
</g>
<!-- Node20 -->
<g id="node20" class="node">
<title>Node20</title>
<g id="a_node20"><a xlink:title=" ">
<polygon fill="none" stroke="#bfbfbf" points="2710.5,-0.5 2710.5,-19.5 2807.5,-19.5 2807.5,-0.5 2710.5,-0.5"/>
<text text-anchor="middle" x="2759" y="-7.5" font-family="FreeSans.ttf" font-size="10.00">ignition/math.hh</text>
</a>
</g>
</g>
<!-- Node2&#45;&gt;Node20 -->
<g id="edge19" class="edge">
<title>Node2&#45;&gt;Node20</title>
<path fill="none" stroke="midnightblue" d="M1675.7,-64.84C1857.03,-63.81 2310.63,-57.45 2700.26,-19.94"/>
<polygon fill="midnightblue" stroke="midnightblue" points="2700.7,-23.41 2710.32,-18.96 2700.03,-16.45 2700.7,-23.41"/>
</g>
<!-- Node21 -->
<g id="node21" class="node">
<title>Node21</title>
<g id="a_node21"><a xlink:title=" ">
<polygon fill="none" stroke="#bfbfbf" points="2826,-0.5 2826,-19.5 2874,-19.5 2874,-0.5 2826,-0.5"/>
<text text-anchor="middle" x="2850" y="-7.5" font-family="FreeSans.ttf" font-size="10.00">mutex</text>
</a>
</g>
</g>
<!-- Node2&#45;&gt;Node21 -->
<g id="edge20" class="edge">
<title>Node2&#45;&gt;Node21</title>
<path fill="none" stroke="midnightblue" d="M1675.65,-64.36C1911.15,-62.12 2595.04,-52.9 2816,-20 2816.1,-19.98 2816.2,-19.97 2816.31,-19.95"/>
<polygon fill="midnightblue" stroke="midnightblue" points="2816.85,-23.41 2825.99,-18.06 2815.51,-16.54 2816.85,-23.41"/>
</g>
<!-- Node22&#45;&gt;Node21 -->
<g id="edge25" class="edge">
<title>Node22&#45;&gt;Node21</title>
<path fill="none" stroke="midnightblue" d="M3068.12,-56.48C3022.32,-48.54 2952.97,-35.87 2883.85,-20.06"/>
<polygon fill="midnightblue" stroke="midnightblue" points="2884.63,-16.64 2874.1,-17.8 2883.05,-23.46 2884.63,-16.64"/>
</g>
<!-- Node23 -->
<g id="node23" class="node">
<title>Node23</title>
<g id="a_node23"><a xlink:title=" ">
<polygon fill="none" stroke="#bfbfbf" points="2892,-0.5 2892,-19.5 2930,-19.5 2930,-0.5 2892,-0.5"/>
<text text-anchor="middle" x="2911" y="-7.5" font-family="FreeSans.ttf" font-size="10.00">map</text>
</a>
</g>
</g>
<!-- Node22&#45;&gt;Node23 -->
<g id="edge22" class="edge">
<title>Node22&#45;&gt;Node23</title>
<path fill="none" stroke="midnightblue" d="M3081.92,-56.49C3047.47,-48.41 2994.52,-35.57 2940.05,-20.17"/>
<polygon fill="midnightblue" stroke="midnightblue" points="2940.81,-16.74 2930.23,-17.36 2938.89,-23.47 2940.81,-16.74"/>
</g>
<!-- Node24 -->
<g id="node24" class="node">
<title>Node24</title>
<g id="a_node24"><a xlink:title=" ">
<polygon fill="none" stroke="#bfbfbf" points="2948.5,-0.5 2948.5,-19.5 3041.5,-19.5 3041.5,-0.5 2948.5,-0.5"/>
<text text-anchor="middle" x="2995" y="-7.5" font-family="FreeSans.ttf" font-size="10.00">sdf/sdf_config.h</text>
</a>
</g>
</g>
<!-- Node22&#45;&gt;Node24 -->
<g id="edge23" class="edge">
<title>Node22&#45;&gt;Node24</title>
<path fill="none" stroke="midnightblue" d="M3099.35,-56.44C3079.04,-47.6 3047.1,-33.69 3023.9,-23.59"/>
<polygon fill="midnightblue" stroke="midnightblue" points="3025.12,-20.3 3014.56,-19.52 3022.33,-26.72 3025.12,-20.3"/>
</g>
<!-- Node25 -->
<g id="node25" class="node">
<title>Node25</title>
<g id="a_node25"><a xlink:title=" ">
<polygon fill="none" stroke="#bfbfbf" points="3059.5,-0.5 3059.5,-19.5 3178.5,-19.5 3178.5,-0.5 3059.5,-0.5"/>
<text text-anchor="middle" x="3119" y="-7.5" font-family="FreeSans.ttf" font-size="10.00">boost/shared_ptr.hpp</text>
</a>
</g>
</g>
<!-- Node22&#45;&gt;Node25 -->
<g id="edge24" class="edge">
<title>Node22&#45;&gt;Node25</title>
<path fill="none" stroke="midnightblue" d="M3119,-56.08C3119,-49.01 3119,-38.86 3119,-29.99"/>
<polygon fill="midnightblue" stroke="midnightblue" points="3122.5,-29.75 3119,-19.75 3115.5,-29.75 3122.5,-29.75"/>
</g>
<!-- Node26 -->
<g id="node26" class="node">
<title>Node26</title>
<g id="a_node26"><a xlink:title=" ">
<polygon fill="none" stroke="#bfbfbf" points="3197,-0.5 3197,-19.5 3319,-19.5 3319,-0.5 3197,-0.5"/>
<text text-anchor="middle" x="3258" y="-7.5" font-family="FreeSans.ttf" font-size="10.00">yarp/dev/PolyDriver.h</text>
</a>
</g>
</g>
<!-- Node22&#45;&gt;Node26 -->
<g id="edge26" class="edge">
<title>Node22&#45;&gt;Node26</title>
<path fill="none" stroke="midnightblue" d="M3141.02,-56.44C3164.1,-47.48 3200.56,-33.31 3226.64,-23.18"/>
<polygon fill="midnightblue" stroke="midnightblue" points="3228.02,-26.4 3236.08,-19.52 3225.49,-19.88 3228.02,-26.4"/>
</g>
<!-- Node27 -->
<g id="node27" class="node">
<title>Node27</title>
<g id="a_node27"><a xlink:title=" ">
<polygon fill="none" stroke="#bfbfbf" points="3337,-0.5 3337,-19.5 3477,-19.5 3477,-0.5 3337,-0.5"/>
<text text-anchor="middle" x="3407" y="-7.5" font-family="FreeSans.ttf" font-size="10.00">yarp/dev/PolyDriverList.h</text>
</a>
</g>
</g>
<!-- Node22&#45;&gt;Node27 -->
<g id="edge27" class="edge">
<title>Node22&#45;&gt;Node27</title>
<path fill="none" stroke="midnightblue" d="M3164.63,-56.44C3215.3,-46.94 3297.07,-31.61 3351.43,-21.42"/>
<polygon fill="midnightblue" stroke="midnightblue" points="3352.4,-24.8 3361.58,-19.52 3351.11,-17.92 3352.4,-24.8"/>
</g>
<!-- Node29 -->
<g id="node29" class="node">
<title>Node29</title>
<g id="a_node29"><a xlink:title=" ">
<polygon fill="none" stroke="#bfbfbf" points="3495,-0.5 3495,-19.5 3539,-19.5 3539,-0.5 3495,-0.5"/>
<text text-anchor="middle" x="3517" y="-7.5" font-family="FreeSans.ttf" font-size="10.00">string</text>
</a>
</g>
</g>
<!-- Node28&#45;&gt;Node29 -->
<g id="edge29" class="edge">
<title>Node28&#45;&gt;Node29</title>
<path fill="none" stroke="midnightblue" d="M3426.35,-56.32C3443.67,-47.66 3470.52,-34.24 3490.5,-24.25"/>
<polygon fill="midnightblue" stroke="midnightblue" points="3492.31,-27.26 3499.69,-19.65 3489.18,-21 3492.31,-27.26"/>
</g>
<!-- Node30 -->
<g id="node30" class="node">
<title>Node30</title>
<g id="a_node30"><a xlink:title=" ">
<polygon fill="none" stroke="#bfbfbf" points="3557.5,-0.5 3557.5,-19.5 3604.5,-19.5 3604.5,-0.5 3557.5,-0.5"/>
<text text-anchor="middle" x="3581" y="-7.5" font-family="FreeSans.ttf" font-size="10.00">cmath</text>
</a>
</g>
</g>
<!-- Node28&#45;&gt;Node30 -->
<g id="edge30" class="edge">
<title>Node28&#45;&gt;Node30</title>
<path fill="none" stroke="midnightblue" d="M3436.25,-56.44C3466.43,-46.97 3515.08,-31.7 3547.54,-21.5"/>
<polygon fill="midnightblue" stroke="midnightblue" points="3548.97,-24.72 3557.47,-18.39 3546.88,-18.04 3548.97,-24.72"/>
</g>
</g>
</svg>
