<?xml version="1.0" encoding="UTF-8" standalone="no"?>
<!DOCTYPE svg PUBLIC "-//W3C//DTD SVG 1.1//EN"
 "http://www.w3.org/Graphics/SVG/1.1/DTD/svg11.dtd">
<!-- Generated by graphviz version 2.43.0 (0)
 -->
<!-- Title: DepthCamera.hh Pages: 1 -->
<svg width="868pt" height="95pt"
 viewBox="0.00 0.00 868.00 95.00" xmlns="http://www.w3.org/2000/svg" xmlns:xlink="http://www.w3.org/1999/xlink">
<g id="graph0" class="graph" transform="scale(1 1) rotate(0) translate(4 91)">
<title>DepthCamera.hh</title>
<!-- Node1 -->
<g id="node1" class="node">
<title>Node1</title>
<g id="a_node1"><a xlink:title=" ">
<polygon fill="#bfbfbf" stroke="black" points="333.5,-67.5 333.5,-86.5 432.5,-86.5 432.5,-67.5 333.5,-67.5"/>
<text text-anchor="middle" x="383" y="-74.5" font-family="FreeSans.ttf" font-size="10.00">DepthCamera.hh</text>
</a>
</g>
</g>
<!-- Node2 -->
<g id="node2" class="node">
<title>Node2</title>
<g id="a_node2"><a xlink:title=" ">
<polygon fill="none" stroke="#bfbfbf" points="0,-6 0,-25 44,-25 44,-6 0,-6"/>
<text text-anchor="middle" x="22" y="-13" font-family="FreeSans.ttf" font-size="10.00">string</text>
</a>
</g>
</g>
<!-- Node1&#45;&gt;Node2 -->
<g id="edge1" class="edge">
<title>Node1&#45;&gt;Node2</title>
<path fill="none" stroke="midnightblue" d="M333.39,-73.89C267.95,-70.06 149.79,-59.52 53,-31 51.12,-30.45 49.21,-29.79 47.31,-29.08"/>
<polygon fill="midnightblue" stroke="midnightblue" points="48.62,-25.83 38.05,-25.13 45.87,-32.27 48.62,-25.83"/>
</g>
<!-- Node3 -->
<g id="node3" class="node">
<title>Node3</title>
<g id="a_node3"><a xlink:title=" ">
<polygon fill="none" stroke="#bfbfbf" points="62,-6 62,-25 208,-25 208,-6 62,-6"/>
<text text-anchor="middle" x="135" y="-13" font-family="FreeSans.ttf" font-size="10.00">gazebo/common/Plugin.hh</text>
</a>
</g>
</g>
<!-- Node1&#45;&gt;Node3 -->
<g id="edge2" class="edge">
<title>Node1&#45;&gt;Node3</title>
<path fill="none" stroke="midnightblue" d="M347.47,-67.48C303.45,-56.92 228.41,-38.91 180.3,-27.37"/>
<polygon fill="midnightblue" stroke="midnightblue" points="181.01,-23.94 170.47,-25.01 179.37,-30.75 181.01,-23.94"/>
</g>
<!-- Node4 -->
<g id="node4" class="node">
<title>Node4</title>
<g id="a_node4"><a xlink:title=" ">
<polygon fill="none" stroke="#bfbfbf" points="226.5,-0.5 226.5,-30.5 387.5,-30.5 387.5,-0.5 226.5,-0.5"/>
<text text-anchor="start" x="234.5" y="-18.5" font-family="FreeSans.ttf" font-size="10.00">gazebo/plugins/DepthCamera</text>
<text text-anchor="middle" x="307" y="-7.5" font-family="FreeSans.ttf" font-size="10.00">Plugin.hh</text>
</a>
</g>
</g>
<!-- Node1&#45;&gt;Node4 -->
<g id="edge3" class="edge">
<title>Node1&#45;&gt;Node4</title>
<path fill="none" stroke="midnightblue" d="M372.11,-67.48C361.91,-59.49 346.28,-47.25 332.89,-36.77"/>
<polygon fill="midnightblue" stroke="midnightblue" points="334.94,-33.93 324.91,-30.52 330.63,-39.44 334.94,-33.93"/>
</g>
<!-- Node5 -->
<g id="node5" class="node">
<title>Node5</title>
<g id="a_node5"><a xlink:title=" ">
<polygon fill="none" stroke="#bfbfbf" points="406,-6 406,-25 512,-25 512,-6 406,-6"/>
<text text-anchor="middle" x="459" y="-13" font-family="FreeSans.ttf" font-size="10.00">yarp/os/Network.h</text>
</a>
</g>
</g>
<!-- Node1&#45;&gt;Node5 -->
<g id="edge4" class="edge">
<title>Node1&#45;&gt;Node5</title>
<path fill="none" stroke="midnightblue" d="M393.89,-67.48C405.97,-58.02 425.67,-42.6 440.24,-31.19"/>
<polygon fill="midnightblue" stroke="midnightblue" points="442.41,-33.93 448.13,-25.01 438.1,-28.42 442.41,-33.93"/>
</g>
<!-- Node6 -->
<g id="node6" class="node">
<title>Node6</title>
<g id="a_node6"><a xlink:title=" ">
<polygon fill="none" stroke="#bfbfbf" points="530,-6 530,-25 652,-25 652,-6 530,-6"/>
<text text-anchor="middle" x="591" y="-13" font-family="FreeSans.ttf" font-size="10.00">yarp/dev/PolyDriver.h</text>
</a>
</g>
</g>
<!-- Node1&#45;&gt;Node6 -->
<g id="edge5" class="edge">
<title>Node1&#45;&gt;Node6</title>
<path fill="none" stroke="midnightblue" d="M412.8,-67.48C449.25,-57.05 511.08,-39.36 551.47,-27.81"/>
<polygon fill="midnightblue" stroke="midnightblue" points="552.6,-31.12 561.25,-25.01 550.68,-24.39 552.6,-31.12"/>
</g>
<!-- Node7 -->
<g id="node7" class="node">
<title>Node7</title>
<g id="a_node7"><a xlink:title=" ">
<polygon fill="none" stroke="#bfbfbf" points="670,-6 670,-25 860,-25 860,-6 670,-6"/>
<text text-anchor="middle" x="765" y="-13" font-family="FreeSans.ttf" font-size="10.00">yarp/dev/FrameGrabberInterfaces.h</text>
</a>
</g>
</g>
<!-- Node1&#45;&gt;Node7 -->
<g id="edge6" class="edge">
<title>Node1&#45;&gt;Node7</title>
<path fill="none" stroke="midnightblue" d="M432.55,-68.28C501.04,-57.61 624.73,-38.35 700.4,-26.56"/>
<polygon fill="midnightblue" stroke="midnightblue" points="700.95,-30.02 710.29,-25.02 699.87,-23.1 700.95,-30.02"/>
</g>
</g>
</svg>
