<?xml version="1.0" encoding="UTF-8" standalone="no"?>
<!DOCTYPE svg PUBLIC "-//W3C//DTD SVG 1.1//EN"
 "http://www.w3.org/Graphics/SVG/1.1/DTD/svg11.dtd">
<!-- Generated by graphviz version 2.49.0 (20210829.0051)
 -->
<!-- Title: DepthCamera.cc Pages: 1 -->
<svg width="3478pt" height="151pt"
 viewBox="0.00 0.00 3478.00 151.00" xmlns="http://www.w3.org/2000/svg" xmlns:xlink="http://www.w3.org/1999/xlink">
<g id="graph0" class="graph" transform="scale(1 1) rotate(0) translate(4 147)">
<title>DepthCamera.cc</title>
<!-- Node1 -->
<g id="node1" class="node">
<title>Node1</title>
<g id="a_node1"><a xlink:title=" ">
<polygon fill="#bfbfbf" stroke="black" points="2556.5,-123.5 2556.5,-142.5 2654.5,-142.5 2654.5,-123.5 2556.5,-123.5"/>
<text text-anchor="middle" x="2605.5" y="-130.5" font-family="FreeSans.ttf" font-size="10.00">DepthCamera.cc</text>
</a>
</g>
</g>
<!-- Node2 -->
<g id="node2" class="node">
<title>Node2</title>
<g id="a_node2"><a xlink:href="DepthCamera_8hh.html" target="_top" xlink:title=" ">
<polygon fill="none" stroke="black" points="475,-67.5 475,-86.5 574,-86.5 574,-67.5 475,-67.5"/>
<text text-anchor="middle" x="524.5" y="-74.5" font-family="FreeSans.ttf" font-size="10.00">DepthCamera.hh</text>
</a>
</g>
</g>
<!-- Node1&#45;&gt;Node2 -->
<g id="edge1" class="edge">
<title>Node1&#45;&gt;Node2</title>
<path fill="none" stroke="midnightblue" d="M2556.37,-130.73C2277.01,-123.48 890.51,-87.5 584.39,-79.55"/>
<polygon fill="midnightblue" stroke="midnightblue" points="584.46,-76.05 574.38,-79.29 584.28,-83.05 584.46,-76.05"/>
</g>
<!-- Node7 -->
<g id="node7" class="node">
<title>Node7</title>
<g id="a_node7"><a xlink:title=" ">
<polygon fill="none" stroke="#bfbfbf" points="803.5,-6 803.5,-25 925.5,-25 925.5,-6 803.5,-6"/>
<text text-anchor="middle" x="864.5" y="-13" font-family="FreeSans.ttf" font-size="10.00">yarp/dev/PolyDriver.h</text>
</a>
</g>
</g>
<!-- Node1&#45;&gt;Node7 -->
<g id="edge41" class="edge">
<title>Node1&#45;&gt;Node7</title>
<path fill="none" stroke="midnightblue" d="M2556.37,-131.69C2354.75,-129.85 1571.35,-117.24 934.5,-31 926.89,-29.97 918.87,-28.59 911.08,-27.09"/>
<polygon fill="midnightblue" stroke="midnightblue" points="911.52,-23.61 901.03,-25.07 910.14,-30.47 911.52,-23.61"/>
</g>
<!-- Node9 -->
<g id="node9" class="node">
<title>Node9</title>
<g id="a_node9"><a xlink:href="DepthCameraDriver_8h.html" target="_top" xlink:title=" ">
<polygon fill="none" stroke="black" points="1804.5,-67.5 1804.5,-86.5 1926.5,-86.5 1926.5,-67.5 1804.5,-67.5"/>
<text text-anchor="middle" x="1865.5" y="-74.5" font-family="FreeSans.ttf" font-size="10.00">DepthCameraDriver.h</text>
</a>
</g>
</g>
<!-- Node1&#45;&gt;Node9 -->
<g id="edge8" class="edge">
<title>Node1&#45;&gt;Node9</title>
<path fill="none" stroke="midnightblue" d="M2556.37,-128.42C2428.65,-119.09 2085.76,-94.07 1936.52,-83.18"/>
<polygon fill="midnightblue" stroke="midnightblue" points="1936.77,-79.69 1926.54,-82.45 1936.26,-86.67 1936.77,-79.69"/>
</g>
<!-- Node18 -->
<g id="node18" class="node">
<title>Node18</title>
<g id="a_node18"><a xlink:title=" ">
<polygon fill="none" stroke="#bfbfbf" points="2104,-0.5 2104,-30.5 2267,-30.5 2267,-0.5 2104,-0.5"/>
<text text-anchor="start" x="2112" y="-18.5" font-family="FreeSans.ttf" font-size="10.00">gazebo/sensors/DepthCamera</text>
<text text-anchor="middle" x="2185.5" y="-7.5" font-family="FreeSans.ttf" font-size="10.00">Sensor.hh</text>
</a>
</g>
</g>
<!-- Node1&#45;&gt;Node18 -->
<g id="edge40" class="edge">
<title>Node1&#45;&gt;Node18</title>
<path fill="none" stroke="midnightblue" d="M2566.8,-123.45C2528.67,-114.86 2468.84,-100.93 2417.5,-87 2355.68,-70.22 2285.37,-48.48 2238.52,-33.6"/>
<polygon fill="midnightblue" stroke="midnightblue" points="2239.48,-30.24 2228.89,-30.54 2237.36,-36.91 2239.48,-30.24"/>
</g>
<!-- Node20 -->
<g id="node20" class="node">
<title>Node20</title>
<g id="a_node20"><a xlink:href="DepthCameraLog_8h.html" target="_top" xlink:title=" ">
<polygon fill="none" stroke="black" points="2875.5,-67.5 2875.5,-86.5 2985.5,-86.5 2985.5,-67.5 2875.5,-67.5"/>
<text text-anchor="middle" x="2930.5" y="-74.5" font-family="FreeSans.ttf" font-size="10.00">DepthCameraLog.h</text>
</a>
</g>
</g>
<!-- Node1&#45;&gt;Node20 -->
<g id="edge19" class="edge">
<title>Node1&#45;&gt;Node20</title>
<path fill="none" stroke="midnightblue" d="M2654.51,-123.86C2711.87,-114.33 2806.92,-98.53 2869.14,-88.2"/>
<polygon fill="midnightblue" stroke="midnightblue" points="2869.92,-91.61 2879.21,-86.52 2868.77,-84.71 2869.92,-91.61"/>
</g>
<!-- Node21 -->
<g id="node21" class="node">
<title>Node21</title>
<g id="a_node21"><a xlink:title=" ">
<polygon fill="none" stroke="#bfbfbf" points="3196.5,-6 3196.5,-25 3334.5,-25 3334.5,-6 3196.5,-6"/>
<text text-anchor="middle" x="3265.5" y="-13" font-family="FreeSans.ttf" font-size="10.00">yarp/os/LogComponent.h</text>
</a>
</g>
</g>
<!-- Node1&#45;&gt;Node21 -->
<g id="edge39" class="edge">
<title>Node1&#45;&gt;Node21</title>
<path fill="none" stroke="midnightblue" d="M2654.87,-126.16C2700.79,-119.77 2770.64,-107.59 2828.5,-87 2846.48,-80.6 2848.26,-72.61 2866.5,-67 3003.73,-24.84 3045.5,-52.13 3187.5,-31 3195.64,-29.79 3204.22,-28.35 3212.6,-26.87"/>
<polygon fill="midnightblue" stroke="midnightblue" points="3213.47,-30.27 3222.68,-25.03 3212.22,-23.38 3213.47,-30.27"/>
</g>
<!-- Node22 -->
<g id="node22" class="node">
<title>Node22</title>
<g id="a_node22"><a xlink:title=" ">
<polygon fill="none" stroke="#bfbfbf" points="3353,-6 3353,-25 3470,-25 3470,-6 3353,-6"/>
<text text-anchor="middle" x="3411.5" y="-13" font-family="FreeSans.ttf" font-size="10.00">yarp/os/LogStream.h</text>
</a>
</g>
</g>
<!-- Node1&#45;&gt;Node22 -->
<g id="edge38" class="edge">
<title>Node1&#45;&gt;Node22</title>
<path fill="none" stroke="midnightblue" d="M2654.59,-132.05C2729.55,-130.87 2876.29,-123.54 2994.5,-87 3012.73,-81.36 3014.27,-72.64 3032.5,-67 3165.44,-25.9 3206.19,-53.53 3343.5,-31 3350.3,-29.88 3357.45,-28.54 3364.46,-27.14"/>
<polygon fill="midnightblue" stroke="midnightblue" points="3365.48,-30.5 3374.56,-25.04 3364.06,-23.64 3365.48,-30.5"/>
</g>
<!-- Node23 -->
<g id="node23" class="node">
<title>Node23</title>
<g id="a_node23"><a xlink:href="Handler_8hh.html" target="_top" xlink:title=" ">
<polygon fill="none" stroke="black" points="2426.5,-67.5 2426.5,-86.5 2590.5,-86.5 2590.5,-67.5 2426.5,-67.5"/>
<text text-anchor="middle" x="2508.5" y="-74.5" font-family="FreeSans.ttf" font-size="10.00">GazeboYarpPlugins/Handler.hh</text>
</a>
</g>
</g>
<!-- Node1&#45;&gt;Node23 -->
<g id="edge22" class="edge">
<title>Node1&#45;&gt;Node23</title>
<path fill="none" stroke="midnightblue" d="M2589.92,-123.32C2574.5,-114.74 2550.69,-101.49 2532.79,-91.52"/>
<polygon fill="midnightblue" stroke="midnightblue" points="2534.49,-88.46 2524.05,-86.65 2531.08,-94.58 2534.49,-88.46"/>
</g>
<!-- Node27 -->
<g id="node27" class="node">
<title>Node27</title>
<g id="a_node27"><a xlink:href="common_8h.html" target="_top" xlink:title=" ">
<polygon fill="none" stroke="black" points="5.5,-67.5 5.5,-86.5 169.5,-86.5 169.5,-67.5 5.5,-67.5"/>
<text text-anchor="middle" x="87.5" y="-74.5" font-family="FreeSans.ttf" font-size="10.00">GazeboYarpPlugins/common.h</text>
</a>
</g>
</g>
<!-- Node1&#45;&gt;Node27 -->
<g id="edge29" class="edge">
<title>Node1&#45;&gt;Node27</title>
<path fill="none" stroke="midnightblue" d="M2556.12,-131.01C2322.18,-126.32 1301.88,-105.75 465.5,-87 367.99,-84.81 256.34,-82.13 179.81,-80.27"/>
<polygon fill="midnightblue" stroke="midnightblue" points="179.8,-76.77 169.72,-80.02 179.63,-83.77 179.8,-76.77"/>
</g>
<!-- Node29 -->
<g id="node29" class="node">
<title>Node29</title>
<g id="a_node29"><a xlink:href="ConfHelpers_8hh.html" target="_top" xlink:title=" ">
<polygon fill="none" stroke="black" points="2633,-67.5 2633,-86.5 2820,-86.5 2820,-67.5 2633,-67.5"/>
<text text-anchor="middle" x="2726.5" y="-74.5" font-family="FreeSans.ttf" font-size="10.00">GazeboYarpPlugins/ConfHelpers.hh</text>
</a>
</g>
</g>
<!-- Node1&#45;&gt;Node29 -->
<g id="edge32" class="edge">
<title>Node1&#45;&gt;Node29</title>
<path fill="none" stroke="midnightblue" d="M2624.67,-123.44C2644.41,-114.64 2675.39,-100.81 2697.99,-90.72"/>
<polygon fill="midnightblue" stroke="midnightblue" points="2699.71,-93.79 2707.42,-86.52 2696.86,-87.4 2699.71,-93.79"/>
</g>
<!-- Node32 -->
<g id="node32" class="node">
<title>Node32</title>
<g id="a_node32"><a xlink:title=" ">
<polygon fill="none" stroke="#bfbfbf" points="3041.5,-67.5 3041.5,-86.5 3123.5,-86.5 3123.5,-67.5 3041.5,-67.5"/>
<text text-anchor="middle" x="3082.5" y="-74.5" font-family="FreeSans.ttf" font-size="10.00">yarp/os/Log.h</text>
</a>
</g>
</g>
<!-- Node1&#45;&gt;Node32 -->
<g id="edge37" class="edge">
<title>Node1&#45;&gt;Node32</title>
<path fill="none" stroke="midnightblue" d="M2654.66,-127.66C2733.49,-120.49 2892.97,-105.17 3027.5,-87 3028.77,-86.83 3030.05,-86.65 3031.34,-86.47"/>
<polygon fill="midnightblue" stroke="midnightblue" points="3032.01,-89.91 3041.39,-84.98 3030.99,-82.98 3032.01,-89.91"/>
</g>
<!-- Node33 -->
<g id="node33" class="node">
<title>Node33</title>
<g id="a_node33"><a xlink:title=" ">
<polygon fill="none" stroke="#bfbfbf" points="3142,-67.5 3142,-86.5 3297,-86.5 3297,-67.5 3142,-67.5"/>
<text text-anchor="middle" x="3219.5" y="-74.5" font-family="FreeSans.ttf" font-size="10.00">yarp/dev/IMultipleWrapper.h</text>
</a>
</g>
</g>
<!-- Node1&#45;&gt;Node33 -->
<g id="edge42" class="edge">
<title>Node1&#45;&gt;Node33</title>
<path fill="none" stroke="midnightblue" d="M2654.57,-128.11C2746.07,-120.78 2949.23,-104.21 3131.67,-87.06"/>
<polygon fill="midnightblue" stroke="midnightblue" points="3132.09,-90.54 3141.72,-86.12 3131.43,-83.57 3132.09,-90.54"/>
</g>
<!-- Node3 -->
<g id="node3" class="node">
<title>Node3</title>
<g id="a_node3"><a xlink:title=" ">
<polygon fill="none" stroke="#bfbfbf" points="65.5,-6 65.5,-25 109.5,-25 109.5,-6 65.5,-6"/>
<text text-anchor="middle" x="87.5" y="-13" font-family="FreeSans.ttf" font-size="10.00">string</text>
</a>
</g>
</g>
<!-- Node2&#45;&gt;Node3 -->
<g id="edge2" class="edge">
<title>Node2&#45;&gt;Node3</title>
<path fill="none" stroke="midnightblue" d="M474.77,-75.67C397.22,-74.02 243.44,-66.11 118.5,-31 116.57,-30.46 114.61,-29.81 112.66,-29.08"/>
<polygon fill="midnightblue" stroke="midnightblue" points="113.78,-25.76 103.21,-25.06 111.04,-32.2 113.78,-25.76"/>
</g>
<!-- Node4 -->
<g id="node4" class="node">
<title>Node4</title>
<g id="a_node4"><a xlink:title=" ">
<polygon fill="none" stroke="#bfbfbf" points="127.5,-6 127.5,-25 273.5,-25 273.5,-6 127.5,-6"/>
<text text-anchor="middle" x="200.5" y="-13" font-family="FreeSans.ttf" font-size="10.00">gazebo/common/Plugin.hh</text>
</a>
</g>
</g>
<!-- Node2&#45;&gt;Node4 -->
<g id="edge3" class="edge">
<title>Node2&#45;&gt;Node4</title>
<path fill="none" stroke="midnightblue" d="M478.08,-67.48C419.73,-56.76 319.66,-38.38 256.95,-26.87"/>
<polygon fill="midnightblue" stroke="midnightblue" points="257.3,-23.37 246.84,-25.01 256.04,-30.26 257.3,-23.37"/>
</g>
<!-- Node5 -->
<g id="node5" class="node">
<title>Node5</title>
<g id="a_node5"><a xlink:title=" ">
<polygon fill="none" stroke="#bfbfbf" points="292,-0.5 292,-30.5 453,-30.5 453,-0.5 292,-0.5"/>
<text text-anchor="start" x="300" y="-18.5" font-family="FreeSans.ttf" font-size="10.00">gazebo/plugins/DepthCamera</text>
<text text-anchor="middle" x="372.5" y="-7.5" font-family="FreeSans.ttf" font-size="10.00">Plugin.hh</text>
</a>
</g>
</g>
<!-- Node2&#45;&gt;Node5 -->
<g id="edge4" class="edge">
<title>Node2&#45;&gt;Node5</title>
<path fill="none" stroke="midnightblue" d="M502.72,-67.48C480.69,-58.85 445.98,-45.26 417.93,-34.29"/>
<polygon fill="midnightblue" stroke="midnightblue" points="418.91,-30.91 408.32,-30.52 416.36,-37.43 418.91,-30.91"/>
</g>
<!-- Node6 -->
<g id="node6" class="node">
<title>Node6</title>
<g id="a_node6"><a xlink:title=" ">
<polygon fill="none" stroke="#bfbfbf" points="471.5,-6 471.5,-25 577.5,-25 577.5,-6 471.5,-6"/>
<text text-anchor="middle" x="524.5" y="-13" font-family="FreeSans.ttf" font-size="10.00">yarp/os/Network.h</text>
</a>
</g>
</g>
<!-- Node2&#45;&gt;Node6 -->
<g id="edge5" class="edge">
<title>Node2&#45;&gt;Node6</title>
<path fill="none" stroke="midnightblue" d="M524.5,-67.48C524.5,-59.08 524.5,-45.98 524.5,-35.16"/>
<polygon fill="midnightblue" stroke="midnightblue" points="528,-35.01 524.5,-25.01 521,-35.01 528,-35.01"/>
</g>
<!-- Node2&#45;&gt;Node7 -->
<g id="edge6" class="edge">
<title>Node2&#45;&gt;Node7</title>
<path fill="none" stroke="midnightblue" d="M574.37,-68.29C628.63,-59.76 717.89,-45.31 794.5,-31 801.06,-29.77 807.95,-28.43 814.74,-27.06"/>
<polygon fill="midnightblue" stroke="midnightblue" points="815.48,-30.48 824.57,-25.05 814.08,-23.62 815.48,-30.48"/>
</g>
<!-- Node8 -->
<g id="node8" class="node">
<title>Node8</title>
<g id="a_node8"><a xlink:title=" ">
<polygon fill="none" stroke="#bfbfbf" points="595.5,-6 595.5,-25 785.5,-25 785.5,-6 595.5,-6"/>
<text text-anchor="middle" x="690.5" y="-13" font-family="FreeSans.ttf" font-size="10.00">yarp/dev/FrameGrabberInterfaces.h</text>
</a>
</g>
</g>
<!-- Node2&#45;&gt;Node8 -->
<g id="edge7" class="edge">
<title>Node2&#45;&gt;Node8</title>
<path fill="none" stroke="midnightblue" d="M548.28,-67.48C576.88,-57.22 625.05,-39.96 657.3,-28.4"/>
<polygon fill="midnightblue" stroke="midnightblue" points="658.53,-31.68 666.76,-25.01 656.17,-25.09 658.53,-31.68"/>
</g>
<!-- Node10 -->
<g id="node10" class="node">
<title>Node10</title>
<g id="a_node10"><a xlink:title=" ">
<polygon fill="none" stroke="#bfbfbf" points="1798.5,-6 1798.5,-25 1932.5,-25 1932.5,-6 1798.5,-6"/>
<text text-anchor="middle" x="1865.5" y="-13" font-family="FreeSans.ttf" font-size="10.00">yarp/dev/DeviceDriver.h</text>
</a>
</g>
</g>
<!-- Node9&#45;&gt;Node10 -->
<g id="edge9" class="edge">
<title>Node9&#45;&gt;Node10</title>
<path fill="none" stroke="midnightblue" d="M1865.5,-67.48C1865.5,-59.08 1865.5,-45.98 1865.5,-35.16"/>
<polygon fill="midnightblue" stroke="midnightblue" points="1869,-35.01 1865.5,-25.01 1862,-35.01 1869,-35.01"/>
</g>
<!-- Node11 -->
<g id="node11" class="node">
<title>Node11</title>
<g id="a_node11"><a xlink:title=" ">
<polygon fill="none" stroke="#bfbfbf" points="1951,-6 1951,-25 2086,-25 2086,-6 1951,-6"/>
<text text-anchor="middle" x="2018.5" y="-13" font-family="FreeSans.ttf" font-size="10.00">yarp/dev/IRGBDSensor.h</text>
</a>
</g>
</g>
<!-- Node9&#45;&gt;Node11 -->
<g id="edge10" class="edge">
<title>Node9&#45;&gt;Node11</title>
<path fill="none" stroke="midnightblue" d="M1887.42,-67.48C1913.55,-57.31 1957.41,-40.26 1987.13,-28.7"/>
<polygon fill="midnightblue" stroke="midnightblue" points="1988.57,-31.9 1996.62,-25.01 1986.03,-25.37 1988.57,-31.9"/>
</g>
<!-- Node12 -->
<g id="node12" class="node">
<title>Node12</title>
<g id="a_node12"><a xlink:title=" ">
<polygon fill="none" stroke="#bfbfbf" points="944,-6 944,-25 1093,-25 1093,-6 944,-6"/>
<text text-anchor="middle" x="1018.5" y="-13" font-family="FreeSans.ttf" font-size="10.00">yarp/dev/IPreciselyTimed.h</text>
</a>
</g>
</g>
<!-- Node9&#45;&gt;Node12 -->
<g id="edge11" class="edge">
<title>Node9&#45;&gt;Node12</title>
<path fill="none" stroke="midnightblue" d="M1804.39,-74.77C1674.56,-71.63 1361.83,-61.31 1101.5,-31 1091.9,-29.88 1081.73,-28.38 1071.92,-26.76"/>
<polygon fill="midnightblue" stroke="midnightblue" points="1072.32,-23.27 1061.87,-25.04 1071.14,-30.17 1072.32,-23.27"/>
</g>
<!-- Node13 -->
<g id="node13" class="node">
<title>Node13</title>
<g id="a_node13"><a xlink:title=" ">
<polygon fill="none" stroke="#bfbfbf" points="1111,-6 1111,-25 1200,-25 1200,-6 1111,-6"/>
<text text-anchor="middle" x="1155.5" y="-13" font-family="FreeSans.ttf" font-size="10.00">yarp/os/Time.h</text>
</a>
</g>
</g>
<!-- Node9&#45;&gt;Node13 -->
<g id="edge12" class="edge">
<title>Node9&#45;&gt;Node13</title>
<path fill="none" stroke="midnightblue" d="M1804.34,-75.85C1687.64,-74.67 1425.5,-67.74 1208.5,-31 1203.34,-30.13 1197.96,-28.96 1192.69,-27.67"/>
<polygon fill="midnightblue" stroke="midnightblue" points="1193.34,-24.22 1182.78,-25.08 1191.56,-30.99 1193.34,-24.22"/>
</g>
<!-- Node14 -->
<g id="node14" class="node">
<title>Node14</title>
<g id="a_node14"><a xlink:title=" ">
<polygon fill="none" stroke="#bfbfbf" points="2352,-6 2352,-25 2471,-25 2471,-6 2352,-6"/>
<text text-anchor="middle" x="2411.5" y="-13" font-family="FreeSans.ttf" font-size="10.00">boost/shared_ptr.hpp</text>
</a>
</g>
</g>
<!-- Node9&#45;&gt;Node14 -->
<g id="edge13" class="edge">
<title>Node9&#45;&gt;Node14</title>
<path fill="none" stroke="midnightblue" d="M1926.76,-72.44C2017.81,-66.66 2194.06,-53.53 2342.5,-31 2349.74,-29.9 2357.36,-28.52 2364.79,-27.06"/>
<polygon fill="midnightblue" stroke="midnightblue" points="2365.66,-30.46 2374.76,-25.03 2364.26,-23.6 2365.66,-30.46"/>
</g>
<!-- Node15 -->
<g id="node15" class="node">
<title>Node15</title>
<g id="a_node15"><a xlink:title=" ">
<polygon fill="none" stroke="#bfbfbf" points="1217.5,-6 1217.5,-25 1375.5,-25 1375.5,-6 1217.5,-6"/>
<text text-anchor="middle" x="1296.5" y="-13" font-family="FreeSans.ttf" font-size="10.00">gazebo/rendering/Camera.hh</text>
</a>
</g>
</g>
<!-- Node9&#45;&gt;Node15 -->
<g id="edge14" class="edge">
<title>Node9&#45;&gt;Node15</title>
<path fill="none" stroke="midnightblue" d="M1804.23,-71.65C1712.68,-64.84 1534.85,-50.4 1384.5,-31 1374.71,-29.74 1364.34,-28.2 1354.28,-26.61"/>
<polygon fill="midnightblue" stroke="midnightblue" points="1354.8,-23.15 1344.37,-25.01 1353.68,-30.06 1354.8,-23.15"/>
</g>
<!-- Node16 -->
<g id="node16" class="node">
<title>Node16</title>
<g id="a_node16"><a xlink:title=" ">
<polygon fill="none" stroke="#bfbfbf" points="1394,-6 1394,-25 1575,-25 1575,-6 1394,-6"/>
<text text-anchor="middle" x="1484.5" y="-13" font-family="FreeSans.ttf" font-size="10.00">gazebo/sensors/CameraSensor.hh</text>
</a>
</g>
</g>
<!-- Node9&#45;&gt;Node16 -->
<g id="edge15" class="edge">
<title>Node9&#45;&gt;Node16</title>
<path fill="none" stroke="midnightblue" d="M1810.91,-67.48C1741.74,-56.67 1622.67,-38.08 1549.06,-26.58"/>
<polygon fill="midnightblue" stroke="midnightblue" points="1549.41,-23.09 1538.99,-25.01 1548.33,-30.01 1549.41,-23.09"/>
</g>
<!-- Node17 -->
<g id="node17" class="node">
<title>Node17</title>
<g id="a_node17"><a xlink:title=" ">
<polygon fill="none" stroke="#bfbfbf" points="1593,-6 1593,-25 1780,-25 1780,-6 1593,-6"/>
<text text-anchor="middle" x="1686.5" y="-13" font-family="FreeSans.ttf" font-size="10.00">gazebo/rendering/DepthCamera.hh</text>
</a>
</g>
</g>
<!-- Node9&#45;&gt;Node17 -->
<g id="edge16" class="edge">
<title>Node9&#45;&gt;Node17</title>
<path fill="none" stroke="midnightblue" d="M1839.85,-67.48C1808.88,-57.18 1756.63,-39.81 1721.85,-28.25"/>
<polygon fill="midnightblue" stroke="midnightblue" points="1722.69,-24.84 1712.1,-25.01 1720.48,-31.48 1722.69,-24.84"/>
</g>
<!-- Node9&#45;&gt;Node18 -->
<g id="edge17" class="edge">
<title>Node9&#45;&gt;Node18</title>
<path fill="none" stroke="midnightblue" d="M1911.35,-67.48C1960.46,-58.34 2039.51,-43.64 2100.14,-32.37"/>
<polygon fill="midnightblue" stroke="midnightblue" points="2100.89,-35.79 2110.08,-30.52 2099.61,-28.91 2100.89,-35.79"/>
</g>
<!-- Node19 -->
<g id="node19" class="node">
<title>Node19</title>
<g id="a_node19"><a xlink:title=" ">
<polygon fill="none" stroke="#bfbfbf" points="2285.5,-6 2285.5,-25 2333.5,-25 2333.5,-6 2285.5,-6"/>
<text text-anchor="middle" x="2309.5" y="-13" font-family="FreeSans.ttf" font-size="10.00">mutex</text>
</a>
</g>
</g>
<!-- Node9&#45;&gt;Node19 -->
<g id="edge18" class="edge">
<title>Node9&#45;&gt;Node19</title>
<path fill="none" stroke="midnightblue" d="M1926.6,-74.86C2007.62,-72.1 2154.45,-62.71 2275.5,-31 2277.86,-30.38 2280.26,-29.63 2282.65,-28.79"/>
<polygon fill="midnightblue" stroke="midnightblue" points="2284.18,-31.96 2292.2,-25.04 2281.61,-25.44 2284.18,-31.96"/>
</g>
<!-- Node20&#45;&gt;Node21 -->
<g id="edge20" class="edge">
<title>Node20&#45;&gt;Node21</title>
<path fill="none" stroke="midnightblue" d="M2980.28,-67.44C3032.07,-58.5 3115.51,-43.99 3187.5,-31 3194.85,-29.67 3202.59,-28.26 3210.22,-26.85"/>
<polygon fill="midnightblue" stroke="midnightblue" points="3210.95,-30.28 3220.15,-25.01 3209.68,-23.39 3210.95,-30.28"/>
</g>
<!-- Node20&#45;&gt;Node22 -->
<g id="edge21" class="edge">
<title>Node20&#45;&gt;Node22</title>
<path fill="none" stroke="midnightblue" d="M2985.85,-68.66C2990.46,-68.08 2995.06,-67.52 2999.5,-67 3152.17,-49.06 3191.67,-55.06 3343.5,-31 3350.39,-29.91 3357.63,-28.57 3364.72,-27.15"/>
<polygon fill="midnightblue" stroke="midnightblue" points="3365.85,-30.49 3374.93,-25.04 3364.43,-23.64 3365.85,-30.49"/>
</g>
<!-- Node23&#45;&gt;Node7 -->
<g id="edge27" class="edge">
<title>Node23&#45;&gt;Node7</title>
<path fill="none" stroke="midnightblue" d="M2426.36,-74.5C2124,-68.85 1082.78,-48.34 934.5,-31 926.35,-30.05 917.74,-28.62 909.45,-27.02"/>
<polygon fill="midnightblue" stroke="midnightblue" points="910.05,-23.58 899.55,-25.02 908.66,-30.44 910.05,-23.58"/>
</g>
<!-- Node23&#45;&gt;Node14 -->
<g id="edge25" class="edge">
<title>Node23&#45;&gt;Node14</title>
<path fill="none" stroke="midnightblue" d="M2494.6,-67.48C2478.83,-57.8 2452.86,-41.87 2434.15,-30.39"/>
<polygon fill="midnightblue" stroke="midnightblue" points="2435.73,-27.25 2425.37,-25.01 2432.07,-33.22 2435.73,-27.25"/>
</g>
<!-- Node23&#45;&gt;Node19 -->
<g id="edge26" class="edge">
<title>Node23&#45;&gt;Node19</title>
<path fill="none" stroke="midnightblue" d="M2470.76,-67.47C2436.79,-59.4 2385.72,-46.26 2342.5,-31 2340.84,-30.41 2339.14,-29.78 2337.44,-29.12"/>
<polygon fill="midnightblue" stroke="midnightblue" points="2338.38,-25.72 2327.81,-25.12 2335.7,-32.19 2338.38,-25.72"/>
</g>
<!-- Node24 -->
<g id="node24" class="node">
<title>Node24</title>
<g id="a_node24"><a xlink:title=" ">
<polygon fill="none" stroke="#bfbfbf" points="2489.5,-6 2489.5,-25 2527.5,-25 2527.5,-6 2489.5,-6"/>
<text text-anchor="middle" x="2508.5" y="-13" font-family="FreeSans.ttf" font-size="10.00">map</text>
</a>
</g>
</g>
<!-- Node23&#45;&gt;Node24 -->
<g id="edge23" class="edge">
<title>Node23&#45;&gt;Node24</title>
<path fill="none" stroke="midnightblue" d="M2508.5,-67.48C2508.5,-59.08 2508.5,-45.98 2508.5,-35.16"/>
<polygon fill="midnightblue" stroke="midnightblue" points="2512,-35.01 2508.5,-25.01 2505,-35.01 2512,-35.01"/>
</g>
<!-- Node25 -->
<g id="node25" class="node">
<title>Node25</title>
<g id="a_node25"><a xlink:title=" ">
<polygon fill="none" stroke="#bfbfbf" points="2704,-6 2704,-25 2797,-25 2797,-6 2704,-6"/>
<text text-anchor="middle" x="2750.5" y="-13" font-family="FreeSans.ttf" font-size="10.00">sdf/sdf_config.h</text>
</a>
</g>
</g>
<!-- Node23&#45;&gt;Node25 -->
<g id="edge24" class="edge">
<title>Node23&#45;&gt;Node25</title>
<path fill="none" stroke="midnightblue" d="M2544.55,-67.46C2582.05,-58.53 2642.45,-44.03 2694.5,-31 2698.89,-29.9 2703.48,-28.74 2708.05,-27.57"/>
<polygon fill="midnightblue" stroke="midnightblue" points="2709.14,-30.9 2717.95,-25.02 2707.39,-24.12 2709.14,-30.9"/>
</g>
<!-- Node26 -->
<g id="node26" class="node">
<title>Node26</title>
<g id="a_node26"><a xlink:title=" ">
<polygon fill="none" stroke="#bfbfbf" points="2545.5,-6 2545.5,-25 2685.5,-25 2685.5,-6 2545.5,-6"/>
<text text-anchor="middle" x="2615.5" y="-13" font-family="FreeSans.ttf" font-size="10.00">yarp/dev/PolyDriverList.h</text>
</a>
</g>
</g>
<!-- Node23&#45;&gt;Node26 -->
<g id="edge28" class="edge">
<title>Node23&#45;&gt;Node26</title>
<path fill="none" stroke="midnightblue" d="M2523.83,-67.48C2541.47,-57.67 2570.66,-41.43 2591.36,-29.92"/>
<polygon fill="midnightblue" stroke="midnightblue" points="2593.16,-32.93 2600.2,-25.01 2589.76,-26.81 2593.16,-32.93"/>
</g>
<!-- Node27&#45;&gt;Node3 -->
<g id="edge30" class="edge">
<title>Node27&#45;&gt;Node3</title>
<path fill="none" stroke="midnightblue" d="M87.5,-67.48C87.5,-59.08 87.5,-45.98 87.5,-35.16"/>
<polygon fill="midnightblue" stroke="midnightblue" points="91,-35.01 87.5,-25.01 84,-35.01 91,-35.01"/>
</g>
<!-- Node28 -->
<g id="node28" class="node">
<title>Node28</title>
<g id="a_node28"><a xlink:title=" ">
<polygon fill="none" stroke="#bfbfbf" points="0,-6 0,-25 47,-25 47,-6 0,-6"/>
<text text-anchor="middle" x="23.5" y="-13" font-family="FreeSans.ttf" font-size="10.00">cmath</text>
</a>
</g>
</g>
<!-- Node27&#45;&gt;Node28 -->
<g id="edge31" class="edge">
<title>Node27&#45;&gt;Node28</title>
<path fill="none" stroke="midnightblue" d="M78.33,-67.48C68.35,-58.2 52.19,-43.17 39.99,-31.83"/>
<polygon fill="midnightblue" stroke="midnightblue" points="42.36,-29.25 32.65,-25.01 37.59,-34.38 42.36,-29.25"/>
</g>
<!-- Node29&#45;&gt;Node14 -->
<g id="edge34" class="edge">
<title>Node29&#45;&gt;Node14</title>
<path fill="none" stroke="midnightblue" d="M2677.89,-67.49C2628.21,-58.71 2548.88,-44.44 2480.5,-31 2474.27,-29.78 2467.74,-28.45 2461.28,-27.12"/>
<polygon fill="midnightblue" stroke="midnightblue" points="2461.74,-23.64 2451.23,-25.04 2460.31,-30.5 2461.74,-23.64"/>
</g>
<!-- Node29&#45;&gt;Node25 -->
<g id="edge33" class="edge">
<title>Node29&#45;&gt;Node25</title>
<path fill="none" stroke="midnightblue" d="M2729.94,-67.48C2733.4,-58.9 2738.83,-45.43 2743.25,-34.48"/>
<polygon fill="midnightblue" stroke="midnightblue" points="2746.57,-35.59 2747.07,-25.01 2740.08,-32.97 2746.57,-35.59"/>
</g>
<!-- Node30 -->
<g id="node30" class="node">
<title>Node30</title>
<g id="a_node30"><a xlink:title=" ">
<polygon fill="none" stroke="#bfbfbf" points="2815,-6 2815,-25 2986,-25 2986,-6 2815,-6"/>
<text text-anchor="middle" x="2900.5" y="-13" font-family="FreeSans.ttf" font-size="10.00">gazebo/sensors/SensorTypes.hh</text>
</a>
</g>
</g>
<!-- Node29&#45;&gt;Node30 -->
<g id="edge35" class="edge">
<title>Node29&#45;&gt;Node30</title>
<path fill="none" stroke="midnightblue" d="M2751.43,-67.48C2781.54,-57.18 2832.33,-39.81 2866.14,-28.25"/>
<polygon fill="midnightblue" stroke="midnightblue" points="2867.29,-31.56 2875.62,-25.01 2865.02,-24.93 2867.29,-31.56"/>
</g>
<!-- Node31 -->
<g id="node31" class="node">
<title>Node31</title>
<g id="a_node31"><a xlink:title=" ">
<polygon fill="none" stroke="#bfbfbf" points="3004.5,-6 3004.5,-25 3178.5,-25 3178.5,-6 3004.5,-6"/>
<text text-anchor="middle" x="3091.5" y="-13" font-family="FreeSans.ttf" font-size="10.00">gazebo/physics/PhysicsTypes.hh</text>
</a>
</g>
</g>
<!-- Node29&#45;&gt;Node31 -->
<g id="edge36" class="edge">
<title>Node29&#45;&gt;Node31</title>
<path fill="none" stroke="midnightblue" d="M2778.8,-67.48C2844.93,-56.69 2958.66,-38.15 3029.22,-26.65"/>
<polygon fill="midnightblue" stroke="midnightblue" points="3029.99,-30.07 3039.3,-25.01 3028.87,-23.16 3029.99,-30.07"/>
</g>
</g>
</svg>
