<?xml version="1.0" encoding="UTF-8" standalone="no"?>
<!DOCTYPE svg PUBLIC "-//W3C//DTD SVG 1.1//EN"
 "http://www.w3.org/Graphics/SVG/1.1/DTD/svg11.dtd">
<!-- Generated by graphviz version 5.0.1 (20220821.0811)
 -->
<!-- Title: DepthCamera.cc Pages: 1 -->
<svg width="3645pt" height="151pt"
 viewBox="0.00 0.00 3644.50 151.00" xmlns="http://www.w3.org/2000/svg" xmlns:xlink="http://www.w3.org/1999/xlink">
<g id="graph0" class="graph" transform="scale(1 1) rotate(0) translate(4 147)">
<title>DepthCamera.cc</title>
<!-- Node1 -->
<g id="node1" class="node">
<title>Node1</title>
<g id="a_node1"><a xlink:title=" ">
<polygon fill="#bfbfbf" stroke="black" points="2622,-123.5 2622,-142.5 2720,-142.5 2720,-123.5 2622,-123.5"/>
<text text-anchor="middle" x="2671" y="-130.5" font-family="FreeSans.ttf" font-size="10.00">DepthCamera.cc</text>
</a>
</g>
</g>
<!-- Node2 -->
<g id="node2" class="node">
<title>Node2</title>
<g id="a_node2"><a xlink:href="DepthCamera_8hh.html" target="_top" xlink:title=" ">
<polygon fill="none" stroke="black" points="2708.5,-67.5 2708.5,-86.5 2807.5,-86.5 2807.5,-67.5 2708.5,-67.5"/>
<text text-anchor="middle" x="2758" y="-74.5" font-family="FreeSans.ttf" font-size="10.00">DepthCamera.hh</text>
</a>
</g>
</g>
<!-- Node1&#45;&gt;Node2 -->
<g id="edge1" class="edge">
<title>Node1&#45;&gt;Node2</title>
<path fill="none" stroke="midnightblue" d="M2684.98,-123.32C2698.55,-114.9 2719.38,-101.97 2735.32,-92.07"/>
<polygon fill="midnightblue" stroke="midnightblue" points="2737.41,-94.9 2744.06,-86.65 2733.71,-88.95 2737.41,-94.9"/>
</g>
<!-- Node7 -->
<g id="node7" class="node">
<title>Node7</title>
<g id="a_node7"><a xlink:title=" ">
<polygon fill="none" stroke="#bfbfbf" points="2547,-6 2547,-25 2669,-25 2669,-6 2547,-6"/>
<text text-anchor="middle" x="2608" y="-13" font-family="FreeSans.ttf" font-size="10.00">yarp/dev/PolyDriver.h</text>
</a>
</g>
</g>
<!-- Node1&#45;&gt;Node7 -->
<g id="edge43" class="edge">
<title>Node1&#45;&gt;Node7</title>
<path fill="none" stroke="midnightblue" d="M2666.26,-123.32C2655.96,-104.42 2631.32,-59.25 2617.61,-34.12"/>
<polygon fill="midnightblue" stroke="midnightblue" points="2620.65,-32.38 2612.79,-25.28 2614.51,-35.74 2620.65,-32.38"/>
</g>
<!-- Node9 -->
<g id="node9" class="node">
<title>Node9</title>
<g id="a_node9"><a xlink:href="DepthCameraDriver_8h.html" target="_top" xlink:title=" ">
<polygon fill="none" stroke="black" points="969,-67.5 969,-86.5 1091,-86.5 1091,-67.5 969,-67.5"/>
<text text-anchor="middle" x="1030" y="-74.5" font-family="FreeSans.ttf" font-size="10.00">DepthCameraDriver.h</text>
</a>
</g>
</g>
<!-- Node1&#45;&gt;Node9 -->
<g id="edge8" class="edge">
<title>Node1&#45;&gt;Node9</title>
<path fill="none" stroke="midnightblue" d="M2621.89,-130.38C2387.19,-122.66 1379.83,-89.51 1101.49,-80.35"/>
<polygon fill="midnightblue" stroke="midnightblue" points="1101.23,-76.84 1091.12,-80.01 1101,-83.84 1101.23,-76.84"/>
</g>
<!-- Node18 -->
<g id="node18" class="node">
<title>Node18</title>
<g id="a_node18"><a xlink:title=" ">
<polygon fill="none" stroke="#bfbfbf" points="1160.5,-0.5 1160.5,-30.5 1323.5,-30.5 1323.5,-0.5 1160.5,-0.5"/>
<text text-anchor="start" x="1168.5" y="-18.5" font-family="FreeSans.ttf" font-size="10.00">gazebo/sensors/DepthCamera</text>
<text text-anchor="middle" x="1242" y="-7.5" font-family="FreeSans.ttf" font-size="10.00">Sensor.hh</text>
</a>
</g>
</g>
<!-- Node1&#45;&gt;Node18 -->
<g id="edge42" class="edge">
<title>Node1&#45;&gt;Node18</title>
<path fill="none" stroke="midnightblue" d="M2621.92,-131.43C2480.31,-129.41 2058.91,-120.77 1711,-87 1576.78,-73.97 1422.33,-48.76 1328.48,-32.28"/>
<polygon fill="midnightblue" stroke="midnightblue" points="1328.92,-28.81 1318.46,-30.52 1327.7,-35.7 1328.92,-28.81"/>
</g>
<!-- Node21 -->
<g id="node21" class="node">
<title>Node21</title>
<g id="a_node21"><a xlink:href="DepthCameraLog_8h.html" target="_top" xlink:title=" ">
<polygon fill="none" stroke="black" points="2864,-67.5 2864,-86.5 2974,-86.5 2974,-67.5 2864,-67.5"/>
<text text-anchor="middle" x="2919" y="-74.5" font-family="FreeSans.ttf" font-size="10.00">DepthCameraLog.h</text>
</a>
</g>
</g>
<!-- Node1&#45;&gt;Node21 -->
<g id="edge20" class="edge">
<title>Node1&#45;&gt;Node21</title>
<path fill="none" stroke="midnightblue" d="M2710.3,-123.44C2753.56,-114.02 2823.17,-98.87 2869.97,-88.68"/>
<polygon fill="midnightblue" stroke="midnightblue" points="2870.86,-92.06 2879.89,-86.52 2869.37,-85.22 2870.86,-92.06"/>
</g>
<!-- Node22 -->
<g id="node22" class="node">
<title>Node22</title>
<g id="a_node22"><a xlink:title=" ">
<polygon fill="none" stroke="#bfbfbf" points="3363,-6 3363,-25 3501,-25 3501,-6 3363,-6"/>
<text text-anchor="middle" x="3432" y="-13" font-family="FreeSans.ttf" font-size="10.00">yarp/os/LogComponent.h</text>
</a>
</g>
</g>
<!-- Node1&#45;&gt;Node22 -->
<g id="edge41" class="edge">
<title>Node1&#45;&gt;Node22</title>
<path fill="none" stroke="midnightblue" d="M2704.1,-123.49C2733.87,-115.42 2778.54,-102.28 2816,-87 2834.04,-79.64 2836.24,-72.25 2855,-67 3069.12,-7.06 3133.46,-59.36 3354,-31 3362.73,-29.88 3371.97,-28.41 3380.92,-26.84"/>
<polygon fill="midnightblue" stroke="midnightblue" points="3381.63,-30.27 3390.85,-25.04 3380.38,-23.38 3381.63,-30.27"/>
</g>
<!-- Node23 -->
<g id="node23" class="node">
<title>Node23</title>
<g id="a_node23"><a xlink:title=" ">
<polygon fill="none" stroke="#bfbfbf" points="3519.5,-6 3519.5,-25 3636.5,-25 3636.5,-6 3519.5,-6"/>
<text text-anchor="middle" x="3578" y="-13" font-family="FreeSans.ttf" font-size="10.00">yarp/os/LogStream.h</text>
</a>
</g>
</g>
<!-- Node1&#45;&gt;Node23 -->
<g id="edge40" class="edge">
<title>Node1&#45;&gt;Node23</title>
<path fill="none" stroke="midnightblue" d="M2720.27,-130.06C2782.76,-126.45 2893.21,-116.15 2983,-87 3001.15,-81.11 3002.65,-72.26 3021,-67 3230.5,-6.99 3294.27,-61.8 3510,-31 3517.31,-29.96 3525.01,-28.58 3532.5,-27.1"/>
<polygon fill="midnightblue" stroke="midnightblue" points="3533.44,-30.48 3542.52,-25.02 3532.02,-23.62 3533.44,-30.48"/>
</g>
<!-- Node24 -->
<g id="node24" class="node">
<title>Node24</title>
<g id="a_node24"><a xlink:href="Handler_8hh.html" target="_top" xlink:title=" ">
<polygon fill="none" stroke="black" points="2242,-67.5 2242,-86.5 2406,-86.5 2406,-67.5 2242,-67.5"/>
<text text-anchor="middle" x="2324" y="-74.5" font-family="FreeSans.ttf" font-size="10.00">GazeboYarpPlugins/Handler.hh</text>
</a>
</g>
</g>
<!-- Node1&#45;&gt;Node24 -->
<g id="edge23" class="edge">
<title>Node1&#45;&gt;Node24</title>
<path fill="none" stroke="midnightblue" d="M2621.65,-124.32C2560.61,-114.82 2456.5,-98.62 2389,-88.12"/>
<polygon fill="midnightblue" stroke="midnightblue" points="2389.32,-84.62 2378.9,-86.54 2388.25,-91.54 2389.32,-84.62"/>
</g>
<!-- Node29 -->
<g id="node29" class="node">
<title>Node29</title>
<g id="a_node29"><a xlink:href="common_8h.html" target="_top" xlink:title=" ">
<polygon fill="none" stroke="black" points="1720,-67.5 1720,-86.5 1884,-86.5 1884,-67.5 1720,-67.5"/>
<text text-anchor="middle" x="1802" y="-74.5" font-family="FreeSans.ttf" font-size="10.00">GazeboYarpPlugins/common.h</text>
</a>
</g>
</g>
<!-- Node1&#45;&gt;Node29 -->
<g id="edge31" class="edge">
<title>Node1&#45;&gt;Node29</title>
<path fill="none" stroke="midnightblue" d="M2621.8,-129.85C2500.26,-124.4 2175.88,-108.92 1894.32,-87.07"/>
<polygon fill="midnightblue" stroke="midnightblue" points="1894.57,-83.58 1884.33,-86.29 1894.02,-90.56 1894.57,-83.58"/>
</g>
<!-- Node30 -->
<g id="node30" class="node">
<title>Node30</title>
<g id="a_node30"><a xlink:href="ConfHelpers_8hh.html" target="_top" xlink:title=" ">
<polygon fill="none" stroke="black" points="1902.5,-67.5 1902.5,-86.5 2089.5,-86.5 2089.5,-67.5 1902.5,-67.5"/>
<text text-anchor="middle" x="1996" y="-74.5" font-family="FreeSans.ttf" font-size="10.00">GazeboYarpPlugins/ConfHelpers.hh</text>
</a>
</g>
</g>
<!-- Node1&#45;&gt;Node30 -->
<g id="edge34" class="edge">
<title>Node1&#45;&gt;Node30</title>
<path fill="none" stroke="midnightblue" d="M2621.91,-128.07C2512.63,-119.33 2247.3,-98.1 2099.59,-86.29"/>
<polygon fill="midnightblue" stroke="midnightblue" points="2099.84,-82.8 2089.6,-85.49 2099.29,-89.77 2099.84,-82.8"/>
</g>
<!-- Node33 -->
<g id="node33" class="node">
<title>Node33</title>
<g id="a_node33"><a xlink:title=" ">
<polygon fill="none" stroke="#bfbfbf" points="3030,-67.5 3030,-86.5 3112,-86.5 3112,-67.5 3030,-67.5"/>
<text text-anchor="middle" x="3071" y="-74.5" font-family="FreeSans.ttf" font-size="10.00">yarp/os/Log.h</text>
</a>
</g>
</g>
<!-- Node1&#45;&gt;Node33 -->
<g id="edge39" class="edge">
<title>Node1&#45;&gt;Node33</title>
<path fill="none" stroke="midnightblue" d="M2720.2,-126.09C2787.2,-117.93 2910.82,-102.46 3016,-87 3017.27,-86.81 3018.55,-86.62 3019.84,-86.43"/>
<polygon fill="midnightblue" stroke="midnightblue" points="3020.53,-89.86 3029.88,-84.88 3019.46,-82.95 3020.53,-89.86"/>
</g>
<!-- Node34 -->
<g id="node34" class="node">
<title>Node34</title>
<g id="a_node34"><a xlink:title=" ">
<polygon fill="none" stroke="#bfbfbf" points="3130.5,-67.5 3130.5,-86.5 3285.5,-86.5 3285.5,-67.5 3130.5,-67.5"/>
<text text-anchor="middle" x="3208" y="-74.5" font-family="FreeSans.ttf" font-size="10.00">yarp/dev/IMultipleWrapper.h</text>
</a>
</g>
</g>
<!-- Node1&#45;&gt;Node34 -->
<g id="edge44" class="edge">
<title>Node1&#45;&gt;Node34</title>
<path fill="none" stroke="midnightblue" d="M2720.28,-127.13C2801.29,-119.11 2967.96,-102.55 3120.21,-87.08"/>
<polygon fill="midnightblue" stroke="midnightblue" points="3120.62,-90.55 3130.21,-86.06 3119.91,-83.59 3120.62,-90.55"/>
</g>
<!-- Node3 -->
<g id="node3" class="node">
<title>Node3</title>
<g id="a_node3"><a xlink:title=" ">
<polygon fill="none" stroke="#bfbfbf" points="1993,-6 1993,-25 2037,-25 2037,-6 1993,-6"/>
<text text-anchor="middle" x="2015" y="-13" font-family="FreeSans.ttf" font-size="10.00">string</text>
</a>
</g>
</g>
<!-- Node2&#45;&gt;Node3 -->
<g id="edge2" class="edge">
<title>Node2&#45;&gt;Node3</title>
<path fill="none" stroke="midnightblue" d="M2708.25,-75.26C2568.03,-72.8 2171.62,-63.12 2046,-31 2044.01,-30.49 2042,-29.86 2040,-29.14"/>
<polygon fill="midnightblue" stroke="midnightblue" points="2040.92,-25.73 2030.35,-25.06 2038.2,-32.18 2040.92,-25.73"/>
</g>
<!-- Node4 -->
<g id="node4" class="node">
<title>Node4</title>
<g id="a_node4"><a xlink:title=" ">
<polygon fill="none" stroke="#bfbfbf" points="2895,-6 2895,-25 3041,-25 3041,-6 2895,-6"/>
<text text-anchor="middle" x="2968" y="-13" font-family="FreeSans.ttf" font-size="10.00">gazebo/common/Plugin.hh</text>
</a>
</g>
</g>
<!-- Node2&#45;&gt;Node4 -->
<g id="edge3" class="edge">
<title>Node2&#45;&gt;Node4</title>
<path fill="none" stroke="midnightblue" d="M2788.09,-67.48C2824.89,-57.05 2887.31,-39.36 2928.09,-27.81"/>
<polygon fill="midnightblue" stroke="midnightblue" points="2929.3,-31.1 2937.97,-25.01 2927.39,-24.37 2929.3,-31.1"/>
</g>
<!-- Node5 -->
<g id="node5" class="node">
<title>Node5</title>
<g id="a_node5"><a xlink:title=" ">
<polygon fill="none" stroke="#bfbfbf" points="3059.5,-0.5 3059.5,-30.5 3220.5,-30.5 3220.5,-0.5 3059.5,-0.5"/>
<text text-anchor="start" x="3067.5" y="-18.5" font-family="FreeSans.ttf" font-size="10.00">gazebo/plugins/DepthCamera</text>
<text text-anchor="middle" x="3140" y="-7.5" font-family="FreeSans.ttf" font-size="10.00">Plugin.hh</text>
</a>
</g>
</g>
<!-- Node2&#45;&gt;Node5 -->
<g id="edge4" class="edge">
<title>Node2&#45;&gt;Node5</title>
<path fill="none" stroke="midnightblue" d="M2807.62,-68.46C2863.68,-59.91 2957.96,-45.48 3049.1,-31.14"/>
<polygon fill="midnightblue" stroke="midnightblue" points="3049.72,-34.58 3059.05,-29.57 3048.63,-27.67 3049.72,-34.58"/>
</g>
<!-- Node6 -->
<g id="node6" class="node">
<title>Node6</title>
<g id="a_node6"><a xlink:title=" ">
<polygon fill="none" stroke="#bfbfbf" points="3239,-6 3239,-25 3345,-25 3345,-6 3239,-6"/>
<text text-anchor="middle" x="3292" y="-13" font-family="FreeSans.ttf" font-size="10.00">yarp/os/Network.h</text>
</a>
</g>
</g>
<!-- Node2&#45;&gt;Node6 -->
<g id="edge5" class="edge">
<title>Node2&#45;&gt;Node6</title>
<path fill="none" stroke="midnightblue" d="M2807.58,-68.77C2812.45,-68.14 2817.32,-67.54 2822,-67 3002.86,-46.32 3050.25,-59.8 3230,-31 3236.3,-29.99 3242.92,-28.7 3249.38,-27.3"/>
<polygon fill="midnightblue" stroke="midnightblue" points="3250.37,-30.67 3259.35,-25.05 3248.83,-23.84 3250.37,-30.67"/>
</g>
<!-- Node2&#45;&gt;Node7 -->
<g id="edge6" class="edge">
<title>Node2&#45;&gt;Node7</title>
<path fill="none" stroke="midnightblue" d="M2736.51,-67.48C2710.89,-57.31 2667.89,-40.26 2638.76,-28.7"/>
<polygon fill="midnightblue" stroke="midnightblue" points="2640.04,-25.44 2629.45,-25.01 2637.46,-31.95 2640.04,-25.44"/>
</g>
<!-- Node8 -->
<g id="node8" class="node">
<title>Node8</title>
<g id="a_node8"><a xlink:title=" ">
<polygon fill="none" stroke="#bfbfbf" points="2687,-6 2687,-25 2877,-25 2877,-6 2687,-6"/>
<text text-anchor="middle" x="2782" y="-13" font-family="FreeSans.ttf" font-size="10.00">yarp/dev/FrameGrabberInterfaces.h</text>
</a>
</g>
</g>
<!-- Node2&#45;&gt;Node8 -->
<g id="edge7" class="edge">
<title>Node2&#45;&gt;Node8</title>
<path fill="none" stroke="midnightblue" d="M2761.44,-67.48C2764.9,-58.9 2770.33,-45.43 2774.75,-34.48"/>
<polygon fill="midnightblue" stroke="midnightblue" points="2778.07,-35.59 2778.57,-25.01 2771.58,-32.97 2778.07,-35.59"/>
</g>
<!-- Node10 -->
<g id="node10" class="node">
<title>Node10</title>
<g id="a_node10"><a xlink:title=" ">
<polygon fill="none" stroke="#bfbfbf" points="581,-6 581,-25 715,-25 715,-6 581,-6"/>
<text text-anchor="middle" x="648" y="-13" font-family="FreeSans.ttf" font-size="10.00">yarp/dev/DeviceDriver.h</text>
</a>
</g>
</g>
<!-- Node9&#45;&gt;Node10 -->
<g id="edge9" class="edge">
<title>Node9&#45;&gt;Node10</title>
<path fill="none" stroke="midnightblue" d="M968.92,-67.8C907.07,-59.31 808.72,-45.3 724,-31 716.54,-29.74 708.68,-28.33 700.97,-26.9"/>
<polygon fill="midnightblue" stroke="midnightblue" points="701.42,-23.43 690.95,-25.02 700.13,-30.31 701.42,-23.43"/>
</g>
<!-- Node11 -->
<g id="node11" class="node">
<title>Node11</title>
<g id="a_node11"><a xlink:title=" ">
<polygon fill="none" stroke="#bfbfbf" points="733.5,-6 733.5,-25 868.5,-25 868.5,-6 733.5,-6"/>
<text text-anchor="middle" x="801" y="-13" font-family="FreeSans.ttf" font-size="10.00">yarp/dev/IRGBDSensor.h</text>
</a>
</g>
</g>
<!-- Node9&#45;&gt;Node11 -->
<g id="edge10" class="edge">
<title>Node9&#45;&gt;Node11</title>
<path fill="none" stroke="midnightblue" d="M997.19,-67.48C956.8,-56.98 888.12,-39.14 843.67,-27.59"/>
<polygon fill="midnightblue" stroke="midnightblue" points="844.31,-24.14 833.75,-25.01 842.55,-30.91 844.31,-24.14"/>
</g>
<!-- Node12 -->
<g id="node12" class="node">
<title>Node12</title>
<g id="a_node12"><a xlink:title=" ">
<polygon fill="none" stroke="#bfbfbf" points="886.5,-6 886.5,-25 1035.5,-25 1035.5,-6 886.5,-6"/>
<text text-anchor="middle" x="961" y="-13" font-family="FreeSans.ttf" font-size="10.00">yarp/dev/IPreciselyTimed.h</text>
</a>
</g>
</g>
<!-- Node9&#45;&gt;Node12 -->
<g id="edge11" class="edge">
<title>Node9&#45;&gt;Node12</title>
<path fill="none" stroke="midnightblue" d="M1020.11,-67.48C1009.35,-58.2 991.93,-43.17 978.78,-31.83"/>
<polygon fill="midnightblue" stroke="midnightblue" points="980.73,-28.89 970.87,-25.01 976.16,-34.19 980.73,-28.89"/>
</g>
<!-- Node13 -->
<g id="node13" class="node">
<title>Node13</title>
<g id="a_node13"><a xlink:title=" ">
<polygon fill="none" stroke="#bfbfbf" points="1053.5,-6 1053.5,-25 1142.5,-25 1142.5,-6 1053.5,-6"/>
<text text-anchor="middle" x="1098" y="-13" font-family="FreeSans.ttf" font-size="10.00">yarp/os/Time.h</text>
</a>
</g>
</g>
<!-- Node9&#45;&gt;Node13 -->
<g id="edge12" class="edge">
<title>Node9&#45;&gt;Node13</title>
<path fill="none" stroke="midnightblue" d="M1039.74,-67.48C1050.35,-58.2 1067.52,-43.17 1080.48,-31.83"/>
<polygon fill="midnightblue" stroke="midnightblue" points="1083.05,-34.23 1088.28,-25.01 1078.44,-28.96 1083.05,-34.23"/>
</g>
<!-- Node14 -->
<g id="node14" class="node">
<title>Node14</title>
<g id="a_node14"><a xlink:title=" ">
<polygon fill="none" stroke="#bfbfbf" points="1599.5,-6 1599.5,-25 1718.5,-25 1718.5,-6 1599.5,-6"/>
<text text-anchor="middle" x="1659" y="-13" font-family="FreeSans.ttf" font-size="10.00">boost/shared_ptr.hpp</text>
</a>
</g>
</g>
<!-- Node9&#45;&gt;Node14 -->
<g id="edge13" class="edge">
<title>Node9&#45;&gt;Node14</title>
<path fill="none" stroke="midnightblue" d="M1091.19,-73.63C1194.46,-69.06 1409.73,-57.08 1590,-31 1597.41,-29.93 1605.22,-28.54 1612.82,-27.05"/>
<polygon fill="midnightblue" stroke="midnightblue" points="1613.53,-30.48 1622.63,-25.05 1612.13,-23.62 1613.53,-30.48"/>
</g>
<!-- Node15 -->
<g id="node15" class="node">
<title>Node15</title>
<g id="a_node15"><a xlink:title=" ">
<polygon fill="none" stroke="#bfbfbf" points="0,-6 0,-25 158,-25 158,-6 0,-6"/>
<text text-anchor="middle" x="79" y="-13" font-family="FreeSans.ttf" font-size="10.00">gazebo/rendering/Camera.hh</text>
</a>
</g>
</g>
<!-- Node9&#45;&gt;Node15 -->
<g id="edge14" class="edge">
<title>Node9&#45;&gt;Node15</title>
<path fill="none" stroke="midnightblue" d="M968.87,-75.15C827.39,-72.66 466.63,-63.4 167,-31 156.62,-29.88 145.6,-28.34 135,-26.68"/>
<polygon fill="midnightblue" stroke="midnightblue" points="135.43,-23.21 125,-25.07 134.31,-30.12 135.43,-23.21"/>
</g>
<!-- Node16 -->
<g id="node16" class="node">
<title>Node16</title>
<g id="a_node16"><a xlink:title=" ">
<polygon fill="none" stroke="#bfbfbf" points="176.5,-6 176.5,-25 357.5,-25 357.5,-6 176.5,-6"/>
<text text-anchor="middle" x="267" y="-13" font-family="FreeSans.ttf" font-size="10.00">gazebo/sensors/CameraSensor.hh</text>
</a>
</g>
</g>
<!-- Node9&#45;&gt;Node16 -->
<g id="edge15" class="edge">
<title>Node9&#45;&gt;Node16</title>
<path fill="none" stroke="midnightblue" d="M968.98,-73.45C851.85,-68.21 587.44,-54.68 366,-31 354.26,-29.74 341.78,-28.13 329.77,-26.44"/>
<polygon fill="midnightblue" stroke="midnightblue" points="330.22,-22.97 319.82,-25.01 329.22,-29.9 330.22,-22.97"/>
</g>
<!-- Node17 -->
<g id="node17" class="node">
<title>Node17</title>
<g id="a_node17"><a xlink:title=" ">
<polygon fill="none" stroke="#bfbfbf" points="375.5,-6 375.5,-25 562.5,-25 562.5,-6 375.5,-6"/>
<text text-anchor="middle" x="469" y="-13" font-family="FreeSans.ttf" font-size="10.00">gazebo/rendering/DepthCamera.hh</text>
</a>
</g>
</g>
<!-- Node9&#45;&gt;Node17 -->
<g id="edge16" class="edge">
<title>Node9&#45;&gt;Node17</title>
<path fill="none" stroke="midnightblue" d="M968.79,-70.81C880.88,-63.16 713.81,-47.94 572,-31 560.56,-29.63 548.42,-28.05 536.65,-26.44"/>
<polygon fill="midnightblue" stroke="midnightblue" points="536.81,-22.92 526.42,-25.02 535.84,-29.86 536.81,-22.92"/>
</g>
<!-- Node9&#45;&gt;Node18 -->
<g id="edge17" class="edge">
<title>Node9&#45;&gt;Node18</title>
<path fill="none" stroke="midnightblue" d="M1060.37,-67.48C1092.04,-58.59 1142.49,-44.43 1182.19,-33.29"/>
<polygon fill="midnightblue" stroke="midnightblue" points="1183.35,-36.6 1192.04,-30.52 1181.46,-29.86 1183.35,-36.6"/>
</g>
<!-- Node19 -->
<g id="node19" class="node">
<title>Node19</title>
<g id="a_node19"><a xlink:title=" ">
<polygon fill="none" stroke="#bfbfbf" points="1341.5,-6 1341.5,-25 1388.5,-25 1388.5,-6 1341.5,-6"/>
<text text-anchor="middle" x="1365" y="-13" font-family="FreeSans.ttf" font-size="10.00">cmath</text>
</a>
</g>
</g>
<!-- Node9&#45;&gt;Node19 -->
<g id="edge18" class="edge">
<title>Node9&#45;&gt;Node19</title>
<path fill="none" stroke="midnightblue" d="M1091.18,-71.68C1152.91,-66.22 1250.51,-54.52 1332,-31 1334.15,-30.38 1336.34,-29.65 1338.52,-28.85"/>
<polygon fill="midnightblue" stroke="midnightblue" points="1339.9,-32.07 1347.85,-25.07 1337.27,-25.58 1339.9,-32.07"/>
</g>
<!-- Node20 -->
<g id="node20" class="node">
<title>Node20</title>
<g id="a_node20"><a xlink:title=" ">
<polygon fill="none" stroke="#bfbfbf" points="1737,-6 1737,-25 1785,-25 1785,-6 1737,-6"/>
<text text-anchor="middle" x="1761" y="-13" font-family="FreeSans.ttf" font-size="10.00">mutex</text>
</a>
</g>
</g>
<!-- Node9&#45;&gt;Node20 -->
<g id="edge19" class="edge">
<title>Node9&#45;&gt;Node20</title>
<path fill="none" stroke="midnightblue" d="M1091.04,-74.7C1237.79,-71.15 1607.05,-59.57 1727,-31 1729.51,-30.4 1732.08,-29.63 1734.61,-28.76"/>
<polygon fill="midnightblue" stroke="midnightblue" points="1736.06,-31.95 1744.09,-25.04 1733.5,-25.44 1736.06,-31.95"/>
</g>
<!-- Node21&#45;&gt;Node22 -->
<g id="edge21" class="edge">
<title>Node21&#45;&gt;Node22</title>
<path fill="none" stroke="midnightblue" d="M2974.34,-68.62C2978.96,-68.06 2983.56,-67.51 2988,-67 3150.39,-48.43 3192.17,-53.96 3354,-31 3362.33,-29.82 3371.13,-28.37 3379.69,-26.86"/>
<polygon fill="midnightblue" stroke="midnightblue" points="3380.39,-30.29 3389.6,-25.06 3379.14,-23.41 3380.39,-30.29"/>
</g>
<!-- Node21&#45;&gt;Node23 -->
<g id="edge22" class="edge">
<title>Node21&#45;&gt;Node23</title>
<path fill="none" stroke="midnightblue" d="M2974.33,-68.48C2978.95,-67.95 2983.55,-67.44 2988,-67 3219.41,-43.95 3279.71,-63.33 3510,-31 3517.31,-29.97 3525.02,-28.61 3532.5,-27.13"/>
<polygon fill="midnightblue" stroke="midnightblue" points="3533.44,-30.51 3542.52,-25.05 3532.02,-23.65 3533.44,-30.51"/>
</g>
<!-- Node24&#45;&gt;Node7 -->
<g id="edge28" class="edge">
<title>Node24&#45;&gt;Node7</title>
<path fill="none" stroke="midnightblue" d="M2364.69,-67.48C2415.52,-56.83 2502.47,-38.61 2557.5,-27.08"/>
<polygon fill="midnightblue" stroke="midnightblue" points="2558.32,-30.49 2567.39,-25.01 2556.88,-23.63 2558.32,-30.49"/>
</g>
<!-- Node24&#45;&gt;Node14 -->
<g id="edge26" class="edge">
<title>Node24&#45;&gt;Node14</title>
<path fill="none" stroke="midnightblue" d="M2241.68,-73.22C2126.36,-68.54 1910.35,-56.93 1728,-31 1720.5,-29.93 1712.59,-28.54 1704.92,-27.03"/>
<polygon fill="midnightblue" stroke="midnightblue" points="1705.51,-23.58 1695.01,-25 1704.11,-30.43 1705.51,-23.58"/>
</g>
<!-- Node24&#45;&gt;Node20 -->
<g id="edge27" class="edge">
<title>Node24&#45;&gt;Node20</title>
<path fill="none" stroke="midnightblue" d="M2241.87,-72.32C2114.76,-66.08 1876.44,-51.99 1794,-31 1791.7,-30.41 1789.35,-29.68 1787.03,-28.86"/>
<polygon fill="midnightblue" stroke="midnightblue" points="1788.33,-25.61 1777.75,-25.13 1785.72,-32.11 1788.33,-25.61"/>
</g>
<!-- Node25 -->
<g id="node25" class="node">
<title>Node25</title>
<g id="a_node25"><a xlink:title=" ">
<polygon fill="none" stroke="#bfbfbf" points="2333,-6 2333,-25 2371,-25 2371,-6 2333,-6"/>
<text text-anchor="middle" x="2352" y="-13" font-family="FreeSans.ttf" font-size="10.00">map</text>
</a>
</g>
</g>
<!-- Node24&#45;&gt;Node25 -->
<g id="edge24" class="edge">
<title>Node24&#45;&gt;Node25</title>
<path fill="none" stroke="midnightblue" d="M2328.01,-67.48C2332.09,-58.82 2338.52,-45.15 2343.7,-34.15"/>
<polygon fill="midnightblue" stroke="midnightblue" points="2346.9,-35.55 2348,-25.01 2340.57,-32.57 2346.9,-35.55"/>
</g>
<!-- Node26 -->
<g id="node26" class="node">
<title>Node26</title>
<g id="a_node26"><a xlink:title=" ">
<polygon fill="none" stroke="#bfbfbf" points="2055.5,-6 2055.5,-25 2148.5,-25 2148.5,-6 2055.5,-6"/>
<text text-anchor="middle" x="2102" y="-13" font-family="FreeSans.ttf" font-size="10.00">sdf/sdf_config.h</text>
</a>
</g>
</g>
<!-- Node24&#45;&gt;Node26 -->
<g id="edge25" class="edge">
<title>Node24&#45;&gt;Node26</title>
<path fill="none" stroke="midnightblue" d="M2292.19,-67.48C2253.12,-57 2186.74,-39.21 2143.64,-27.66"/>
<polygon fill="midnightblue" stroke="midnightblue" points="2144.31,-24.22 2133.75,-25.01 2142.5,-30.98 2144.31,-24.22"/>
</g>
<!-- Node27 -->
<g id="node27" class="node">
<title>Node27</title>
<g id="a_node27"><a xlink:title=" ">
<polygon fill="none" stroke="#bfbfbf" points="2389,-6 2389,-25 2529,-25 2529,-6 2389,-6"/>
<text text-anchor="middle" x="2459" y="-13" font-family="FreeSans.ttf" font-size="10.00">yarp/dev/PolyDriverList.h</text>
</a>
</g>
</g>
<!-- Node24&#45;&gt;Node27 -->
<g id="edge29" class="edge">
<title>Node24&#45;&gt;Node27</title>
<path fill="none" stroke="midnightblue" d="M2343.34,-67.48C2366.1,-57.45 2404.09,-40.7 2430.29,-29.15"/>
<polygon fill="midnightblue" stroke="midnightblue" points="2431.95,-32.24 2439.69,-25.01 2429.13,-25.84 2431.95,-32.24"/>
</g>
<!-- Node28 -->
<g id="node28" class="node">
<title>Node28</title>
<g id="a_node28"><a xlink:title=" ">
<polygon fill="none" stroke="#bfbfbf" points="2166.5,-6 2166.5,-25 2315.5,-25 2315.5,-6 2166.5,-6"/>
<text text-anchor="middle" x="2241" y="-13" font-family="FreeSans.ttf" font-size="10.00">gazebo/common/Events.hh</text>
</a>
</g>
</g>
<!-- Node24&#45;&gt;Node28 -->
<g id="edge30" class="edge">
<title>Node24&#45;&gt;Node28</title>
<path fill="none" stroke="midnightblue" d="M2312.11,-67.48C2298.8,-57.93 2277,-42.31 2261.04,-30.87"/>
<polygon fill="midnightblue" stroke="midnightblue" points="2263.04,-27.99 2252.87,-25.01 2258.96,-33.68 2263.04,-27.99"/>
</g>
<!-- Node29&#45;&gt;Node3 -->
<g id="edge32" class="edge">
<title>Node29&#45;&gt;Node3</title>
<path fill="none" stroke="midnightblue" d="M1845.8,-67.45C1882.87,-59.66 1937.12,-46.95 1983,-31 1984.66,-30.42 1986.36,-29.79 1988.06,-29.12"/>
<polygon fill="midnightblue" stroke="midnightblue" points="1989.79,-32.19 1997.63,-25.06 1987.06,-25.75 1989.79,-32.19"/>
</g>
<!-- Node29&#45;&gt;Node19 -->
<g id="edge33" class="edge">
<title>Node29&#45;&gt;Node19</title>
<path fill="none" stroke="midnightblue" d="M1719.79,-74.1C1637.19,-70.52 1506.88,-60.25 1398,-31 1395.71,-30.38 1393.37,-29.63 1391.04,-28.8"/>
<polygon fill="midnightblue" stroke="midnightblue" points="1392.35,-25.55 1381.77,-25.04 1389.73,-32.04 1392.35,-25.55"/>
</g>
<!-- Node30&#45;&gt;Node14 -->
<g id="edge36" class="edge">
<title>Node30&#45;&gt;Node14</title>
<path fill="none" stroke="midnightblue" d="M1941.22,-67.47C1886.97,-58.87 1801.59,-44.91 1728,-31 1721.69,-29.81 1715.06,-28.49 1708.51,-27.16"/>
<polygon fill="midnightblue" stroke="midnightblue" points="1708.85,-23.66 1698.35,-25.06 1707.44,-30.51 1708.85,-23.66"/>
</g>
<!-- Node30&#45;&gt;Node26 -->
<g id="edge35" class="edge">
<title>Node30&#45;&gt;Node26</title>
<path fill="none" stroke="midnightblue" d="M2011.19,-67.48C2028.66,-57.67 2057.58,-41.43 2078.08,-29.92"/>
<polygon fill="midnightblue" stroke="midnightblue" points="2079.83,-32.96 2086.84,-25.01 2076.41,-26.85 2079.83,-32.96"/>
</g>
<!-- Node31 -->
<g id="node31" class="node">
<title>Node31</title>
<g id="a_node31"><a xlink:title=" ">
<polygon fill="none" stroke="#bfbfbf" points="1803.5,-6 1803.5,-25 1974.5,-25 1974.5,-6 1803.5,-6"/>
<text text-anchor="middle" x="1889" y="-13" font-family="FreeSans.ttf" font-size="10.00">gazebo/sensors/SensorTypes.hh</text>
</a>
</g>
</g>
<!-- Node30&#45;&gt;Node31 -->
<g id="edge37" class="edge">
<title>Node30&#45;&gt;Node31</title>
<path fill="none" stroke="midnightblue" d="M1980.67,-67.48C1963.03,-57.67 1933.84,-41.43 1913.14,-29.92"/>
<polygon fill="midnightblue" stroke="midnightblue" points="1914.74,-26.81 1904.3,-25.01 1911.34,-32.93 1914.74,-26.81"/>
</g>
<!-- Node32 -->
<g id="node32" class="node">
<title>Node32</title>
<g id="a_node32"><a xlink:title=" ">
<polygon fill="none" stroke="#bfbfbf" points="1407,-6 1407,-25 1581,-25 1581,-6 1407,-6"/>
<text text-anchor="middle" x="1494" y="-13" font-family="FreeSans.ttf" font-size="10.00">gazebo/physics/PhysicsTypes.hh</text>
</a>
</g>
</g>
<!-- Node30&#45;&gt;Node32 -->
<g id="edge38" class="edge">
<title>Node30&#45;&gt;Node32</title>
<path fill="none" stroke="midnightblue" d="M1910.34,-67.5C1828.09,-59.1 1700.4,-45.45 1590,-31 1579.61,-29.64 1568.61,-28.09 1557.91,-26.51"/>
<polygon fill="midnightblue" stroke="midnightblue" points="1558.17,-23.01 1547.77,-25 1557.14,-29.94 1558.17,-23.01"/>
</g>
</g>
</svg>
