<?xml version="1.0" encoding="UTF-8" standalone="no"?>
<!DOCTYPE svg PUBLIC "-//W3C//DTD SVG 1.1//EN"
 "http://www.w3.org/Graphics/SVG/1.1/DTD/svg11.dtd">
<!-- Generated by graphviz version 5.0.1 (20220821.0811)
 -->
<!-- Title: DepthCameraLog.h Pages: 1 -->
<svg width="398pt" height="84pt"
 viewBox="0.00 0.00 398.00 84.00" xmlns="http://www.w3.org/2000/svg" xmlns:xlink="http://www.w3.org/1999/xlink">
<g id="graph0" class="graph" transform="scale(1 1) rotate(0) translate(4 80)">
<title>DepthCameraLog.h</title>
<!-- Node1 -->
<g id="node1" class="node">
<title>Node1</title>
<g id="a_node1"><a xlink:title=" ">
<polygon fill="#bfbfbf" stroke="black" points="128,-56.5 128,-75.5 238,-75.5 238,-56.5 128,-56.5"/>
<text text-anchor="middle" x="183" y="-63.5" font-family="FreeSans.ttf" font-size="10.00">DepthCameraLog.h</text>
</a>
</g>
</g>
<!-- Node2 -->
<g id="node2" class="node">
<title>Node2</title>
<g id="a_node2"><a xlink:href="DepthCamera_8cc.html" target="_top" xlink:title=" ">
<polygon fill="none" stroke="black" points="0,-0.5 0,-19.5 98,-19.5 98,-0.5 0,-0.5"/>
<text text-anchor="middle" x="49" y="-7.5" font-family="FreeSans.ttf" font-size="10.00">DepthCamera.cc</text>
</a>
</g>
</g>
<!-- Node1&#45;&gt;Node2 -->
<g id="edge1" class="edge">
<title>Node1&#45;&gt;Node2</title>
<path fill="none" stroke="midnightblue" d="M152.32,-52.64C127.18,-42.5 92.25,-28.43 70.13,-19.52"/>
<polygon fill="midnightblue" stroke="midnightblue" points="151.18,-55.95 161.77,-56.44 153.8,-49.46 151.18,-55.95"/>
</g>
<!-- Node3 -->
<g id="node3" class="node">
<title>Node3</title>
<g id="a_node3"><a xlink:href="DepthCameraDriver_8cpp.html" target="_top" xlink:title=" ">
<polygon fill="none" stroke="black" points="116,-0.5 116,-19.5 250,-19.5 250,-0.5 116,-0.5"/>
<text text-anchor="middle" x="183" y="-7.5" font-family="FreeSans.ttf" font-size="10.00">DepthCameraDriver.cpp</text>
</a>
</g>
</g>
<!-- Node1&#45;&gt;Node3 -->
<g id="edge2" class="edge">
<title>Node1&#45;&gt;Node3</title>
<path fill="none" stroke="midnightblue" d="M183,-45.8C183,-36.91 183,-26.78 183,-19.75"/>
<polygon fill="midnightblue" stroke="midnightblue" points="179.5,-46.08 183,-56.08 186.5,-46.08 179.5,-46.08"/>
</g>
<!-- Node4 -->
<g id="node4" class="node">
<title>Node4</title>
<g id="a_node4"><a xlink:href="DepthCameraLog_8cpp.html" target="_top" xlink:title=" ">
<polygon fill="none" stroke="black" points="268,-0.5 268,-19.5 390,-19.5 390,-0.5 268,-0.5"/>
<text text-anchor="middle" x="329" y="-7.5" font-family="FreeSans.ttf" font-size="10.00">DepthCameraLog.cpp</text>
</a>
</g>
</g>
<!-- Node1&#45;&gt;Node4 -->
<g id="edge3" class="edge">
<title>Node1&#45;&gt;Node4</title>
<path fill="none" stroke="midnightblue" d="M215.7,-52.91C243.15,-42.75 281.67,-28.51 305.97,-19.52"/>
<polygon fill="midnightblue" stroke="midnightblue" points="214.3,-49.69 206.13,-56.44 216.73,-56.26 214.3,-49.69"/>
</g>
</g>
</svg>
