<?xml version="1.0" encoding="UTF-8" standalone="no"?>
<!DOCTYPE svg PUBLIC "-//W3C//DTD SVG 1.1//EN"
 "http://www.w3.org/Graphics/SVG/1.1/DTD/svg11.dtd">
<!-- Generated by graphviz version 2.49.0 (20210829.0051)
 -->
<!-- Title: DepthCameraDriver.cpp Pages: 1 -->
<svg width="2724pt" height="151pt"
 viewBox="0.00 0.00 2723.50 151.00" xmlns="http://www.w3.org/2000/svg" xmlns:xlink="http://www.w3.org/1999/xlink">
<g id="graph0" class="graph" transform="scale(1 1) rotate(0) translate(4 147)">
<title>DepthCameraDriver.cpp</title>
<!-- Node1 -->
<g id="node1" class="node">
<title>Node1</title>
<g id="a_node1"><a xlink:title=" ">
<polygon fill="#bfbfbf" stroke="black" points="1872.5,-123.5 1872.5,-142.5 2006.5,-142.5 2006.5,-123.5 1872.5,-123.5"/>
<text text-anchor="middle" x="1939.5" y="-130.5" font-family="FreeSans.ttf" font-size="10.00">DepthCameraDriver.cpp</text>
</a>
</g>
</g>
<!-- Node2 -->
<g id="node2" class="node">
<title>Node2</title>
<g id="a_node2"><a xlink:href="DepthCameraDriver_8h.html" target="_top" xlink:title=" ">
<polygon fill="none" stroke="black" points="802.5,-67.5 802.5,-86.5 924.5,-86.5 924.5,-67.5 802.5,-67.5"/>
<text text-anchor="middle" x="863.5" y="-74.5" font-family="FreeSans.ttf" font-size="10.00">DepthCameraDriver.h</text>
</a>
</g>
</g>
<!-- Node1&#45;&gt;Node2 -->
<g id="edge1" class="edge">
<title>Node1&#45;&gt;Node2</title>
<path fill="none" stroke="midnightblue" d="M1872.19,-128.62C1680.32,-118.99 1131.8,-91.46 934.92,-81.58"/>
<polygon fill="midnightblue" stroke="midnightblue" points="934.86,-78.08 924.7,-81.07 934.51,-85.07 934.86,-78.08"/>
</g>
<!-- Node6 -->
<g id="node6" class="node">
<title>Node6</title>
<g id="a_node6"><a xlink:title=" ">
<polygon fill="none" stroke="#bfbfbf" points="0,-6 0,-25 89,-25 89,-6 0,-6"/>
<text text-anchor="middle" x="44.5" y="-13" font-family="FreeSans.ttf" font-size="10.00">yarp/os/Time.h</text>
</a>
</g>
</g>
<!-- Node1&#45;&gt;Node6 -->
<g id="edge18" class="edge">
<title>Node1&#45;&gt;Node6</title>
<path fill="none" stroke="midnightblue" d="M1872.28,-130.32C1695.5,-125.71 1202.94,-111.5 793.5,-87 483.72,-68.46 403.16,-84.62 97.5,-31 92.35,-30.1 86.97,-28.91 81.7,-27.61"/>
<polygon fill="midnightblue" stroke="midnightblue" points="82.35,-24.17 71.79,-25.01 80.57,-30.94 82.35,-24.17"/>
</g>
<!-- Node9 -->
<g id="node9" class="node">
<title>Node9</title>
<g id="a_node9"><a xlink:title=" ">
<polygon fill="none" stroke="#bfbfbf" points="961,-6 961,-25 1142,-25 1142,-6 961,-6"/>
<text text-anchor="middle" x="1051.5" y="-13" font-family="FreeSans.ttf" font-size="10.00">gazebo/sensors/CameraSensor.hh</text>
</a>
</g>
</g>
<!-- Node1&#45;&gt;Node9 -->
<g id="edge29" class="edge">
<title>Node1&#45;&gt;Node9</title>
<path fill="none" stroke="midnightblue" d="M1872.47,-125.71C1789.49,-117.72 1643.87,-103.02 1519.5,-87 1373.55,-68.2 1202.75,-41.2 1113.31,-26.67"/>
<polygon fill="midnightblue" stroke="midnightblue" points="1113.77,-23.2 1103.34,-25.05 1112.65,-30.11 1113.77,-23.2"/>
</g>
<!-- Node11 -->
<g id="node11" class="node">
<title>Node11</title>
<g id="a_node11"><a xlink:title=" ">
<polygon fill="none" stroke="#bfbfbf" points="1160,-0.5 1160,-30.5 1323,-30.5 1323,-0.5 1160,-0.5"/>
<text text-anchor="start" x="1168" y="-18.5" font-family="FreeSans.ttf" font-size="10.00">gazebo/sensors/DepthCamera</text>
<text text-anchor="middle" x="1241.5" y="-7.5" font-family="FreeSans.ttf" font-size="10.00">Sensor.hh</text>
</a>
</g>
</g>
<!-- Node1&#45;&gt;Node11 -->
<g id="edge30" class="edge">
<title>Node1&#45;&gt;Node11</title>
<path fill="none" stroke="midnightblue" d="M1876.37,-123.46C1813.86,-114.85 1715.43,-100.88 1630.5,-87 1524.62,-69.7 1403.01,-47.24 1324.35,-32.38"/>
<polygon fill="midnightblue" stroke="midnightblue" points="1324.98,-28.93 1314.5,-30.51 1323.67,-35.81 1324.98,-28.93"/>
</g>
<!-- Node13 -->
<g id="node13" class="node">
<title>Node13</title>
<g id="a_node13"><a xlink:href="DepthCameraLog_8h.html" target="_top" xlink:title=" ">
<polygon fill="none" stroke="black" points="1843.5,-67.5 1843.5,-86.5 1953.5,-86.5 1953.5,-67.5 1843.5,-67.5"/>
<text text-anchor="middle" x="1898.5" y="-74.5" font-family="FreeSans.ttf" font-size="10.00">DepthCameraLog.h</text>
</a>
</g>
</g>
<!-- Node1&#45;&gt;Node13 -->
<g id="edge12" class="edge">
<title>Node1&#45;&gt;Node13</title>
<path fill="none" stroke="midnightblue" d="M1932.73,-123.08C1926.94,-115.46 1918.44,-104.26 1911.36,-94.94"/>
<polygon fill="midnightblue" stroke="midnightblue" points="1913.98,-92.6 1905.14,-86.75 1908.4,-96.83 1913.98,-92.6"/>
</g>
<!-- Node15 -->
<g id="node15" class="node">
<title>Node15</title>
<g id="a_node15"><a xlink:title=" ">
<polygon fill="none" stroke="#bfbfbf" points="2167,-6 2167,-25 2284,-25 2284,-6 2167,-6"/>
<text text-anchor="middle" x="2225.5" y="-13" font-family="FreeSans.ttf" font-size="10.00">yarp/os/LogStream.h</text>
</a>
</g>
</g>
<!-- Node1&#45;&gt;Node15 -->
<g id="edge17" class="edge">
<title>Node1&#45;&gt;Node15</title>
<path fill="none" stroke="midnightblue" d="M1945.08,-123.28C1954.63,-109.12 1975.51,-81.28 2000.5,-67 2004.36,-64.8 2111.04,-41.37 2176.1,-27.21"/>
<polygon fill="midnightblue" stroke="midnightblue" points="2177.13,-30.57 2186.16,-25.02 2175.64,-23.73 2177.13,-30.57"/>
</g>
<!-- Node16 -->
<g id="node16" class="node">
<title>Node16</title>
<g id="a_node16"><a xlink:title=" ">
<polygon fill="none" stroke="#bfbfbf" points="2009.5,-67.5 2009.5,-86.5 2101.5,-86.5 2101.5,-67.5 2009.5,-67.5"/>
<text text-anchor="middle" x="2055.5" y="-74.5" font-family="FreeSans.ttf" font-size="10.00">yarp/os/Value.h</text>
</a>
</g>
</g>
<!-- Node1&#45;&gt;Node16 -->
<g id="edge15" class="edge">
<title>Node1&#45;&gt;Node16</title>
<path fill="none" stroke="midnightblue" d="M1957.88,-123.44C1976.72,-114.68 2006.23,-100.94 2027.88,-90.86"/>
<polygon fill="midnightblue" stroke="midnightblue" points="2029.62,-93.91 2037.21,-86.52 2026.66,-87.56 2029.62,-93.91"/>
</g>
<!-- Node17 -->
<g id="node17" class="node">
<title>Node17</title>
<g id="a_node17"><a xlink:title=" ">
<polygon fill="none" stroke="#bfbfbf" points="2119.5,-67.5 2119.5,-86.5 2201.5,-86.5 2201.5,-67.5 2119.5,-67.5"/>
<text text-anchor="middle" x="2160.5" y="-74.5" font-family="FreeSans.ttf" font-size="10.00">yarp/os/Log.h</text>
</a>
</g>
</g>
<!-- Node1&#45;&gt;Node17 -->
<g id="edge16" class="edge">
<title>Node1&#45;&gt;Node17</title>
<path fill="none" stroke="midnightblue" d="M1974.52,-123.44C2012.75,-114.1 2074.07,-99.12 2115.76,-88.93"/>
<polygon fill="midnightblue" stroke="midnightblue" points="2116.76,-92.29 2125.65,-86.52 2115.1,-85.49 2116.76,-92.29"/>
</g>
<!-- Node18 -->
<g id="node18" class="node">
<title>Node18</title>
<g id="a_node18"><a xlink:href="Handler_8hh.html" target="_top" xlink:title=" ">
<polygon fill="none" stroke="black" points="1639.5,-67.5 1639.5,-86.5 1803.5,-86.5 1803.5,-67.5 1639.5,-67.5"/>
<text text-anchor="middle" x="1721.5" y="-74.5" font-family="FreeSans.ttf" font-size="10.00">GazeboYarpPlugins/Handler.hh</text>
</a>
</g>
</g>
<!-- Node1&#45;&gt;Node18 -->
<g id="edge19" class="edge">
<title>Node1&#45;&gt;Node18</title>
<path fill="none" stroke="midnightblue" d="M1904.96,-123.44C1867.25,-114.1 1806.76,-99.12 1765.64,-88.93"/>
<polygon fill="midnightblue" stroke="midnightblue" points="1766.43,-85.52 1755.88,-86.52 1764.75,-92.32 1766.43,-85.52"/>
</g>
<!-- Node23 -->
<g id="node23" class="node">
<title>Node23</title>
<g id="a_node23"><a xlink:href="common_8h.html" target="_top" xlink:title=" ">
<polygon fill="none" stroke="black" points="2219.5,-67.5 2219.5,-86.5 2383.5,-86.5 2383.5,-67.5 2219.5,-67.5"/>
<text text-anchor="middle" x="2301.5" y="-74.5" font-family="FreeSans.ttf" font-size="10.00">GazeboYarpPlugins/common.h</text>
</a>
</g>
</g>
<!-- Node1&#45;&gt;Node23 -->
<g id="edge26" class="edge">
<title>Node1&#45;&gt;Node23</title>
<path fill="none" stroke="midnightblue" d="M1996.86,-123.44C2061.33,-113.83 2165.9,-98.23 2234.19,-88.04"/>
<polygon fill="midnightblue" stroke="midnightblue" points="2235.03,-91.45 2244.41,-86.52 2234,-84.53 2235.03,-91.45"/>
</g>
<!-- Node26 -->
<g id="node26" class="node">
<title>Node26</title>
<g id="a_node26"><a xlink:title=" ">
<polygon fill="none" stroke="#bfbfbf" points="2402,-67.5 2402,-86.5 2569,-86.5 2569,-67.5 2402,-67.5"/>
<text text-anchor="middle" x="2485.5" y="-74.5" font-family="FreeSans.ttf" font-size="10.00">gazebo/rendering/Distortion.hh</text>
</a>
</g>
</g>
<!-- Node1&#45;&gt;Node26 -->
<g id="edge31" class="edge">
<title>Node1&#45;&gt;Node26</title>
<path fill="none" stroke="midnightblue" d="M2006.72,-125.35C2103.47,-115.78 2282.34,-98.09 2391.94,-87.25"/>
<polygon fill="midnightblue" stroke="midnightblue" points="2392.39,-90.73 2402,-86.26 2391.7,-83.76 2392.39,-90.73"/>
</g>
<!-- Node27 -->
<g id="node27" class="node">
<title>Node27</title>
<g id="a_node27"><a xlink:title=" ">
<polygon fill="none" stroke="#bfbfbf" points="2587.5,-67.5 2587.5,-86.5 2715.5,-86.5 2715.5,-67.5 2587.5,-67.5"/>
<text text-anchor="middle" x="2651.5" y="-74.5" font-family="FreeSans.ttf" font-size="10.00">ignition/math/Angle.hh</text>
</a>
</g>
</g>
<!-- Node1&#45;&gt;Node27 -->
<g id="edge32" class="edge">
<title>Node1&#45;&gt;Node27</title>
<path fill="none" stroke="midnightblue" d="M2006.76,-128.43C2121.51,-122.07 2362.7,-107.6 2577.23,-87.07"/>
<polygon fill="midnightblue" stroke="midnightblue" points="2577.81,-90.53 2587.43,-86.09 2577.14,-83.57 2577.81,-90.53"/>
</g>
<!-- Node3 -->
<g id="node3" class="node">
<title>Node3</title>
<g id="a_node3"><a xlink:title=" ">
<polygon fill="none" stroke="#bfbfbf" points="312.5,-6 312.5,-25 446.5,-25 446.5,-6 312.5,-6"/>
<text text-anchor="middle" x="379.5" y="-13" font-family="FreeSans.ttf" font-size="10.00">yarp/dev/DeviceDriver.h</text>
</a>
</g>
</g>
<!-- Node2&#45;&gt;Node3 -->
<g id="edge2" class="edge">
<title>Node2&#45;&gt;Node3</title>
<path fill="none" stroke="midnightblue" d="M802.48,-70.78C722.54,-63.6 578.12,-49.43 455.5,-31 447.65,-29.82 439.38,-28.41 431.3,-26.95"/>
<polygon fill="midnightblue" stroke="midnightblue" points="431.68,-23.46 421.21,-25.07 430.4,-30.34 431.68,-23.46"/>
</g>
<!-- Node4 -->
<g id="node4" class="node">
<title>Node4</title>
<g id="a_node4"><a xlink:title=" ">
<polygon fill="none" stroke="#bfbfbf" points="465,-6 465,-25 600,-25 600,-6 465,-6"/>
<text text-anchor="middle" x="532.5" y="-13" font-family="FreeSans.ttf" font-size="10.00">yarp/dev/IRGBDSensor.h</text>
</a>
</g>
</g>
<!-- Node2&#45;&gt;Node4 -->
<g id="edge3" class="edge">
<title>Node2&#45;&gt;Node4</title>
<path fill="none" stroke="midnightblue" d="M814.1,-67.49C762.71,-58.59 679.91,-44.11 608.5,-31 601.42,-29.7 593.96,-28.31 586.61,-26.92"/>
<polygon fill="midnightblue" stroke="midnightblue" points="587.16,-23.46 576.69,-25.04 585.86,-30.34 587.16,-23.46"/>
</g>
<!-- Node5 -->
<g id="node5" class="node">
<title>Node5</title>
<g id="a_node5"><a xlink:title=" ">
<polygon fill="none" stroke="#bfbfbf" points="618,-6 618,-25 767,-25 767,-6 618,-6"/>
<text text-anchor="middle" x="692.5" y="-13" font-family="FreeSans.ttf" font-size="10.00">yarp/dev/IPreciselyTimed.h</text>
</a>
</g>
</g>
<!-- Node2&#45;&gt;Node5 -->
<g id="edge4" class="edge">
<title>Node2&#45;&gt;Node5</title>
<path fill="none" stroke="midnightblue" d="M839,-67.48C809.54,-57.22 759.92,-39.96 726.7,-28.4"/>
<polygon fill="midnightblue" stroke="midnightblue" points="727.55,-24.99 716.95,-25.01 725.25,-31.6 727.55,-24.99"/>
</g>
<!-- Node2&#45;&gt;Node6 -->
<g id="edge5" class="edge">
<title>Node2&#45;&gt;Node6</title>
<path fill="none" stroke="midnightblue" d="M802.45,-76.71C672.07,-77.28 357.12,-73.66 97.5,-31 92.28,-30.14 86.83,-28.98 81.51,-27.67"/>
<polygon fill="midnightblue" stroke="midnightblue" points="82.06,-24.2 71.49,-25.05 80.28,-30.97 82.06,-24.2"/>
</g>
<!-- Node7 -->
<g id="node7" class="node">
<title>Node7</title>
<g id="a_node7"><a xlink:title=" ">
<polygon fill="none" stroke="#bfbfbf" points="1341,-6 1341,-25 1460,-25 1460,-6 1341,-6"/>
<text text-anchor="middle" x="1400.5" y="-13" font-family="FreeSans.ttf" font-size="10.00">boost/shared_ptr.hpp</text>
</a>
</g>
</g>
<!-- Node2&#45;&gt;Node7 -->
<g id="edge6" class="edge">
<title>Node2&#45;&gt;Node7</title>
<path fill="none" stroke="midnightblue" d="M924.72,-72.29C1014.37,-66.38 1186.46,-53.14 1331.5,-31 1338.74,-29.9 1346.36,-28.51 1353.79,-27.05"/>
<polygon fill="midnightblue" stroke="midnightblue" points="1354.66,-30.44 1363.75,-25.01 1353.26,-23.59 1354.66,-30.44"/>
</g>
<!-- Node8 -->
<g id="node8" class="node">
<title>Node8</title>
<g id="a_node8"><a xlink:title=" ">
<polygon fill="none" stroke="#bfbfbf" points="784.5,-6 784.5,-25 942.5,-25 942.5,-6 784.5,-6"/>
<text text-anchor="middle" x="863.5" y="-13" font-family="FreeSans.ttf" font-size="10.00">gazebo/rendering/Camera.hh</text>
</a>
</g>
</g>
<!-- Node2&#45;&gt;Node8 -->
<g id="edge7" class="edge">
<title>Node2&#45;&gt;Node8</title>
<path fill="none" stroke="midnightblue" d="M863.5,-67.48C863.5,-59.08 863.5,-45.98 863.5,-35.16"/>
<polygon fill="midnightblue" stroke="midnightblue" points="867,-35.01 863.5,-25.01 860,-35.01 867,-35.01"/>
</g>
<!-- Node2&#45;&gt;Node9 -->
<g id="edge8" class="edge">
<title>Node2&#45;&gt;Node9</title>
<path fill="none" stroke="midnightblue" d="M890.44,-67.48C923.1,-57.14 978.32,-39.66 1014.84,-28.1"/>
<polygon fill="midnightblue" stroke="midnightblue" points="1016.14,-31.36 1024.61,-25.01 1014.02,-24.69 1016.14,-31.36"/>
</g>
<!-- Node10 -->
<g id="node10" class="node">
<title>Node10</title>
<g id="a_node10"><a xlink:title=" ">
<polygon fill="none" stroke="#bfbfbf" points="107,-6 107,-25 294,-25 294,-6 107,-6"/>
<text text-anchor="middle" x="200.5" y="-13" font-family="FreeSans.ttf" font-size="10.00">gazebo/rendering/DepthCamera.hh</text>
</a>
</g>
</g>
<!-- Node2&#45;&gt;Node10 -->
<g id="edge9" class="edge">
<title>Node2&#45;&gt;Node10</title>
<path fill="none" stroke="midnightblue" d="M802.48,-72.29C699.46,-65.77 484.55,-51 303.5,-31 291.58,-29.68 278.91,-28.07 266.69,-26.41"/>
<polygon fill="midnightblue" stroke="midnightblue" points="266.94,-22.91 256.55,-25.01 265.98,-29.85 266.94,-22.91"/>
</g>
<!-- Node2&#45;&gt;Node11 -->
<g id="edge10" class="edge">
<title>Node2&#45;&gt;Node11</title>
<path fill="none" stroke="midnightblue" d="M917.99,-67.5C973.58,-58.81 1062.63,-44.88 1149.6,-31.14"/>
<polygon fill="midnightblue" stroke="midnightblue" points="1150.32,-34.57 1159.65,-29.55 1149.23,-27.66 1150.32,-34.57"/>
</g>
<!-- Node12 -->
<g id="node12" class="node">
<title>Node12</title>
<g id="a_node12"><a xlink:title=" ">
<polygon fill="none" stroke="#bfbfbf" points="1478.5,-6 1478.5,-25 1526.5,-25 1526.5,-6 1478.5,-6"/>
<text text-anchor="middle" x="1502.5" y="-13" font-family="FreeSans.ttf" font-size="10.00">mutex</text>
</a>
</g>
</g>
<!-- Node2&#45;&gt;Node12 -->
<g id="edge11" class="edge">
<title>Node2&#45;&gt;Node12</title>
<path fill="none" stroke="midnightblue" d="M924.98,-73.99C1057.58,-69.23 1366.67,-55.78 1468.5,-31 1471.01,-30.39 1473.57,-29.61 1476.1,-28.74"/>
<polygon fill="midnightblue" stroke="midnightblue" points="1477.55,-31.93 1485.58,-25.01 1474.99,-25.41 1477.55,-31.93"/>
</g>
<!-- Node14 -->
<g id="node14" class="node">
<title>Node14</title>
<g id="a_node14"><a xlink:title=" ">
<polygon fill="none" stroke="#bfbfbf" points="2010.5,-6 2010.5,-25 2148.5,-25 2148.5,-6 2010.5,-6"/>
<text text-anchor="middle" x="2079.5" y="-13" font-family="FreeSans.ttf" font-size="10.00">yarp/os/LogComponent.h</text>
</a>
</g>
</g>
<!-- Node13&#45;&gt;Node14 -->
<g id="edge13" class="edge">
<title>Node13&#45;&gt;Node14</title>
<path fill="none" stroke="midnightblue" d="M1924.43,-67.48C1955.75,-57.18 2008.59,-39.81 2043.76,-28.25"/>
<polygon fill="midnightblue" stroke="midnightblue" points="2045.21,-31.46 2053.62,-25.01 2043.02,-24.81 2045.21,-31.46"/>
</g>
<!-- Node13&#45;&gt;Node15 -->
<g id="edge14" class="edge">
<title>Node13&#45;&gt;Node15</title>
<path fill="none" stroke="midnightblue" d="M1951.19,-67.45C2003.6,-58.8 2086.25,-44.78 2157.5,-31 2163.72,-29.8 2170.25,-28.48 2176.7,-27.14"/>
<polygon fill="midnightblue" stroke="midnightblue" points="2177.65,-30.52 2186.72,-25.04 2176.21,-23.67 2177.65,-30.52"/>
</g>
<!-- Node18&#45;&gt;Node7 -->
<g id="edge22" class="edge">
<title>Node18&#45;&gt;Node7</title>
<path fill="none" stroke="midnightblue" d="M1671.21,-67.48C1620.29,-58.75 1539.3,-44.56 1469.5,-31 1463.27,-29.79 1456.73,-28.47 1450.27,-27.15"/>
<polygon fill="midnightblue" stroke="midnightblue" points="1450.73,-23.67 1440.23,-25.06 1449.31,-30.52 1450.73,-23.67"/>
</g>
<!-- Node18&#45;&gt;Node12 -->
<g id="edge23" class="edge">
<title>Node18&#45;&gt;Node12</title>
<path fill="none" stroke="midnightblue" d="M1676.53,-67.44C1638.46,-59.65 1582.72,-46.95 1535.5,-31 1533.63,-30.37 1531.72,-29.67 1529.82,-28.94"/>
<polygon fill="midnightblue" stroke="midnightblue" points="1531.01,-25.65 1520.43,-25.06 1528.33,-32.12 1531.01,-25.65"/>
</g>
<!-- Node19 -->
<g id="node19" class="node">
<title>Node19</title>
<g id="a_node19"><a xlink:title=" ">
<polygon fill="none" stroke="#bfbfbf" points="1702.5,-6 1702.5,-25 1740.5,-25 1740.5,-6 1702.5,-6"/>
<text text-anchor="middle" x="1721.5" y="-13" font-family="FreeSans.ttf" font-size="10.00">map</text>
</a>
</g>
</g>
<!-- Node18&#45;&gt;Node19 -->
<g id="edge20" class="edge">
<title>Node18&#45;&gt;Node19</title>
<path fill="none" stroke="midnightblue" d="M1721.5,-67.48C1721.5,-59.08 1721.5,-45.98 1721.5,-35.16"/>
<polygon fill="midnightblue" stroke="midnightblue" points="1725,-35.01 1721.5,-25.01 1718,-35.01 1725,-35.01"/>
</g>
<!-- Node20 -->
<g id="node20" class="node">
<title>Node20</title>
<g id="a_node20"><a xlink:title=" ">
<polygon fill="none" stroke="#bfbfbf" points="1759,-6 1759,-25 1852,-25 1852,-6 1759,-6"/>
<text text-anchor="middle" x="1805.5" y="-13" font-family="FreeSans.ttf" font-size="10.00">sdf/sdf_config.h</text>
</a>
</g>
</g>
<!-- Node18&#45;&gt;Node20 -->
<g id="edge21" class="edge">
<title>Node18&#45;&gt;Node20</title>
<path fill="none" stroke="midnightblue" d="M1733.54,-67.48C1747.01,-57.93 1769.07,-42.31 1785.22,-30.87"/>
<polygon fill="midnightblue" stroke="midnightblue" points="1787.35,-33.65 1793.49,-25.01 1783.3,-27.93 1787.35,-33.65"/>
</g>
<!-- Node21 -->
<g id="node21" class="node">
<title>Node21</title>
<g id="a_node21"><a xlink:title=" ">
<polygon fill="none" stroke="#bfbfbf" points="1870.5,-6 1870.5,-25 1992.5,-25 1992.5,-6 1870.5,-6"/>
<text text-anchor="middle" x="1931.5" y="-13" font-family="FreeSans.ttf" font-size="10.00">yarp/dev/PolyDriver.h</text>
</a>
</g>
</g>
<!-- Node18&#45;&gt;Node21 -->
<g id="edge24" class="edge">
<title>Node18&#45;&gt;Node21</title>
<path fill="none" stroke="midnightblue" d="M1751.59,-67.48C1788.39,-57.05 1850.81,-39.36 1891.59,-27.81"/>
<polygon fill="midnightblue" stroke="midnightblue" points="1892.8,-31.1 1901.47,-25.01 1890.89,-24.37 1892.8,-31.1"/>
</g>
<!-- Node22 -->
<g id="node22" class="node">
<title>Node22</title>
<g id="a_node22"><a xlink:title=" ">
<polygon fill="none" stroke="#bfbfbf" points="1544.5,-6 1544.5,-25 1684.5,-25 1684.5,-6 1544.5,-6"/>
<text text-anchor="middle" x="1614.5" y="-13" font-family="FreeSans.ttf" font-size="10.00">yarp/dev/PolyDriverList.h</text>
</a>
</g>
</g>
<!-- Node18&#45;&gt;Node22 -->
<g id="edge25" class="edge">
<title>Node18&#45;&gt;Node22</title>
<path fill="none" stroke="midnightblue" d="M1706.17,-67.48C1688.53,-57.67 1659.34,-41.43 1638.64,-29.92"/>
<polygon fill="midnightblue" stroke="midnightblue" points="1640.24,-26.81 1629.8,-25.01 1636.84,-32.93 1640.24,-26.81"/>
</g>
<!-- Node24 -->
<g id="node24" class="node">
<title>Node24</title>
<g id="a_node24"><a xlink:title=" ">
<polygon fill="none" stroke="#bfbfbf" points="2302.5,-6 2302.5,-25 2346.5,-25 2346.5,-6 2302.5,-6"/>
<text text-anchor="middle" x="2324.5" y="-13" font-family="FreeSans.ttf" font-size="10.00">string</text>
</a>
</g>
</g>
<!-- Node23&#45;&gt;Node24 -->
<g id="edge27" class="edge">
<title>Node23&#45;&gt;Node24</title>
<path fill="none" stroke="midnightblue" d="M2304.8,-67.48C2308.11,-58.9 2313.32,-45.43 2317.55,-34.48"/>
<polygon fill="midnightblue" stroke="midnightblue" points="2320.87,-35.6 2321.21,-25.01 2314.34,-33.07 2320.87,-35.6"/>
</g>
<!-- Node25 -->
<g id="node25" class="node">
<title>Node25</title>
<g id="a_node25"><a xlink:title=" ">
<polygon fill="none" stroke="#bfbfbf" points="2365,-6 2365,-25 2412,-25 2412,-6 2365,-6"/>
<text text-anchor="middle" x="2388.5" y="-13" font-family="FreeSans.ttf" font-size="10.00">cmath</text>
</a>
</g>
</g>
<!-- Node23&#45;&gt;Node25 -->
<g id="edge28" class="edge">
<title>Node23&#45;&gt;Node25</title>
<path fill="none" stroke="midnightblue" d="M2313.96,-67.48C2327.92,-57.93 2350.76,-42.31 2367.49,-30.87"/>
<polygon fill="midnightblue" stroke="midnightblue" points="2369.78,-33.54 2376.06,-25.01 2365.83,-27.77 2369.78,-33.54"/>
</g>
</g>
</svg>
