<?xml version="1.0" encoding="UTF-8" standalone="no"?>
<!DOCTYPE svg PUBLIC "-//W3C//DTD SVG 1.1//EN"
 "http://www.w3.org/Graphics/SVG/1.1/DTD/svg11.dtd">
<!-- Generated by graphviz version 3.0.0 (20220315.2325)
 -->
<!-- Title: DepthCameraDriver.h Pages: 1 -->
<svg width="1600pt" height="95pt"
 viewBox="0.00 0.00 1600.00 95.00" xmlns="http://www.w3.org/2000/svg" xmlns:xlink="http://www.w3.org/1999/xlink">
<g id="graph0" class="graph" transform="scale(1 1) rotate(0) translate(4 91)">
<title>DepthCameraDriver.h</title>
<!-- Node1 -->
<g id="node1" class="node">
<title>Node1</title>
<g id="a_node1"><a xlink:title=" ">
<polygon fill="#bfbfbf" stroke="black" points="735,-67.5 735,-86.5 857,-86.5 857,-67.5 735,-67.5"/>
<text text-anchor="middle" x="796" y="-74.5" font-family="FreeSans.ttf" font-size="10.00">DepthCameraDriver.h</text>
</a>
</g>
</g>
<!-- Node2 -->
<g id="node2" class="node">
<title>Node2</title>
<g id="a_node2"><a xlink:title=" ">
<polygon fill="none" stroke="#bfbfbf" points="0,-6 0,-25 134,-25 134,-6 0,-6"/>
<text text-anchor="middle" x="67" y="-13" font-family="FreeSans.ttf" font-size="10.00">yarp/dev/DeviceDriver.h</text>
</a>
</g>
</g>
<!-- Node1&#45;&gt;Node2 -->
<g id="edge1" class="edge">
<title>Node1&#45;&gt;Node2</title>
<path fill="none" stroke="midnightblue" d="M734.99,-74.23C619.18,-70.34 359.66,-59.03 143,-31 134.48,-29.9 125.47,-28.44 116.75,-26.88"/>
<polygon fill="midnightblue" stroke="midnightblue" points="117.17,-23.39 106.69,-25 115.88,-30.27 117.17,-23.39"/>
</g>
<!-- Node3 -->
<g id="node3" class="node">
<title>Node3</title>
<g id="a_node3"><a xlink:title=" ">
<polygon fill="none" stroke="#bfbfbf" points="152.5,-6 152.5,-25 287.5,-25 287.5,-6 152.5,-6"/>
<text text-anchor="middle" x="220" y="-13" font-family="FreeSans.ttf" font-size="10.00">yarp/dev/IRGBDSensor.h</text>
</a>
</g>
</g>
<!-- Node1&#45;&gt;Node3 -->
<g id="edge2" class="edge">
<title>Node1&#45;&gt;Node3</title>
<path fill="none" stroke="midnightblue" d="M734.97,-72.46C640.56,-66.54 453.52,-53.06 296,-31 287.87,-29.86 279.28,-28.44 270.93,-26.93"/>
<polygon fill="midnightblue" stroke="midnightblue" points="271.37,-23.46 260.9,-25.07 270.09,-30.34 271.37,-23.46"/>
</g>
<!-- Node4 -->
<g id="node4" class="node">
<title>Node4</title>
<g id="a_node4"><a xlink:title=" ">
<polygon fill="none" stroke="#bfbfbf" points="305.5,-6 305.5,-25 454.5,-25 454.5,-6 305.5,-6"/>
<text text-anchor="middle" x="380" y="-13" font-family="FreeSans.ttf" font-size="10.00">yarp/dev/IPreciselyTimed.h</text>
</a>
</g>
</g>
<!-- Node1&#45;&gt;Node4 -->
<g id="edge3" class="edge">
<title>Node1&#45;&gt;Node4</title>
<path fill="none" stroke="midnightblue" d="M734.83,-68.45C667.95,-60.04 557.69,-45.66 463,-31 454.58,-29.7 445.7,-28.24 437,-26.76"/>
<polygon fill="midnightblue" stroke="midnightblue" points="437.36,-23.27 426.92,-25.02 436.18,-30.17 437.36,-23.27"/>
</g>
<!-- Node5 -->
<g id="node5" class="node">
<title>Node5</title>
<g id="a_node5"><a xlink:title=" ">
<polygon fill="none" stroke="#bfbfbf" points="472.5,-6 472.5,-25 561.5,-25 561.5,-6 472.5,-6"/>
<text text-anchor="middle" x="517" y="-13" font-family="FreeSans.ttf" font-size="10.00">yarp/os/Time.h</text>
</a>
</g>
</g>
<!-- Node1&#45;&gt;Node5 -->
<g id="edge4" class="edge">
<title>Node1&#45;&gt;Node5</title>
<path fill="none" stroke="midnightblue" d="M748.17,-67.49C702.28,-59.09 631.13,-45.43 570,-31 565.65,-29.97 561.12,-28.84 556.62,-27.67"/>
<polygon fill="midnightblue" stroke="midnightblue" points="557.46,-24.27 546.9,-25.08 555.66,-31.03 557.46,-24.27"/>
</g>
<!-- Node6 -->
<g id="node6" class="node">
<title>Node6</title>
<g id="a_node6"><a xlink:title=" ">
<polygon fill="none" stroke="#bfbfbf" points="579.5,-6 579.5,-25 698.5,-25 698.5,-6 579.5,-6"/>
<text text-anchor="middle" x="639" y="-13" font-family="FreeSans.ttf" font-size="10.00">boost/shared_ptr.hpp</text>
</a>
</g>
</g>
<!-- Node1&#45;&gt;Node6 -->
<g id="edge5" class="edge">
<title>Node1&#45;&gt;Node6</title>
<path fill="none" stroke="midnightblue" d="M773.51,-67.48C746.69,-57.31 701.68,-40.26 671.19,-28.7"/>
<polygon fill="midnightblue" stroke="midnightblue" points="672.04,-25.28 661.45,-25.01 669.56,-31.83 672.04,-25.28"/>
</g>
<!-- Node7 -->
<g id="node7" class="node">
<title>Node7</title>
<g id="a_node7"><a xlink:title=" ">
<polygon fill="none" stroke="#bfbfbf" points="717,-6 717,-25 875,-25 875,-6 717,-6"/>
<text text-anchor="middle" x="796" y="-13" font-family="FreeSans.ttf" font-size="10.00">gazebo/rendering/Camera.hh</text>
</a>
</g>
</g>
<!-- Node1&#45;&gt;Node7 -->
<g id="edge6" class="edge">
<title>Node1&#45;&gt;Node7</title>
<path fill="none" stroke="midnightblue" d="M796,-67.48C796,-59.08 796,-45.98 796,-35.16"/>
<polygon fill="midnightblue" stroke="midnightblue" points="799.5,-35.01 796,-25.01 792.5,-35.01 799.5,-35.01"/>
</g>
<!-- Node8 -->
<g id="node8" class="node">
<title>Node8</title>
<g id="a_node8"><a xlink:title=" ">
<polygon fill="none" stroke="#bfbfbf" points="893.5,-6 893.5,-25 1074.5,-25 1074.5,-6 893.5,-6"/>
<text text-anchor="middle" x="984" y="-13" font-family="FreeSans.ttf" font-size="10.00">gazebo/sensors/CameraSensor.hh</text>
</a>
</g>
</g>
<!-- Node1&#45;&gt;Node8 -->
<g id="edge7" class="edge">
<title>Node1&#45;&gt;Node8</title>
<path fill="none" stroke="midnightblue" d="M822.94,-67.48C855.6,-57.14 910.82,-39.66 947.34,-28.1"/>
<polygon fill="midnightblue" stroke="midnightblue" points="948.64,-31.36 957.11,-25.01 946.52,-24.69 948.64,-31.36"/>
</g>
<!-- Node9 -->
<g id="node9" class="node">
<title>Node9</title>
<g id="a_node9"><a xlink:title=" ">
<polygon fill="none" stroke="#bfbfbf" points="1092.5,-6 1092.5,-25 1279.5,-25 1279.5,-6 1092.5,-6"/>
<text text-anchor="middle" x="1186" y="-13" font-family="FreeSans.ttf" font-size="10.00">gazebo/rendering/DepthCamera.hh</text>
</a>
</g>
</g>
<!-- Node1&#45;&gt;Node9 -->
<g id="edge8" class="edge">
<title>Node1&#45;&gt;Node9</title>
<path fill="none" stroke="midnightblue" d="M851.88,-67.48C922.69,-56.67 1044.56,-38.08 1119.91,-26.58"/>
<polygon fill="midnightblue" stroke="midnightblue" points="1120.87,-29.98 1130.23,-25.01 1119.81,-23.06 1120.87,-29.98"/>
</g>
<!-- Node10 -->
<g id="node10" class="node">
<title>Node10</title>
<g id="a_node10"><a xlink:title=" ">
<polygon fill="none" stroke="#bfbfbf" points="1297.5,-0.5 1297.5,-30.5 1460.5,-30.5 1460.5,-0.5 1297.5,-0.5"/>
<text text-anchor="start" x="1305.5" y="-18.5" font-family="FreeSans.ttf" font-size="10.00">gazebo/sensors/DepthCamera</text>
<text text-anchor="middle" x="1379" y="-7.5" font-family="FreeSans.ttf" font-size="10.00">Sensor.hh</text>
</a>
</g>
</g>
<!-- Node1&#45;&gt;Node10 -->
<g id="edge9" class="edge">
<title>Node1&#45;&gt;Node10</title>
<path fill="none" stroke="midnightblue" d="M857.25,-71.77C948.69,-65.15 1126.53,-51.12 1287.06,-31.2"/>
<polygon fill="midnightblue" stroke="midnightblue" points="1287.63,-34.65 1297.12,-29.94 1286.76,-27.71 1287.63,-34.65"/>
</g>
<!-- Node11 -->
<g id="node11" class="node">
<title>Node11</title>
<g id="a_node11"><a xlink:title=" ">
<polygon fill="none" stroke="#bfbfbf" points="1478.5,-6 1478.5,-25 1525.5,-25 1525.5,-6 1478.5,-6"/>
<text text-anchor="middle" x="1502" y="-13" font-family="FreeSans.ttf" font-size="10.00">cmath</text>
</a>
</g>
</g>
<!-- Node1&#45;&gt;Node11 -->
<g id="edge10" class="edge">
<title>Node1&#45;&gt;Node11</title>
<path fill="none" stroke="midnightblue" d="M857.18,-74.71C1000.58,-71.23 1354.91,-59.91 1470,-31 1472.21,-30.44 1474.46,-29.74 1476.68,-28.95"/>
<polygon fill="midnightblue" stroke="midnightblue" points="1478.22,-32.1 1486.13,-25.05 1475.55,-25.63 1478.22,-32.1"/>
</g>
<!-- Node12 -->
<g id="node12" class="node">
<title>Node12</title>
<g id="a_node12"><a xlink:title=" ">
<polygon fill="none" stroke="#bfbfbf" points="1544,-6 1544,-25 1592,-25 1592,-6 1544,-6"/>
<text text-anchor="middle" x="1568" y="-13" font-family="FreeSans.ttf" font-size="10.00">mutex</text>
</a>
</g>
</g>
<!-- Node1&#45;&gt;Node12 -->
<g id="edge11" class="edge">
<title>Node1&#45;&gt;Node12</title>
<path fill="none" stroke="midnightblue" d="M857.06,-75.04C1010.09,-72.2 1406.95,-61.99 1535,-31 1537.36,-30.43 1539.76,-29.7 1542.14,-28.87"/>
<polygon fill="midnightblue" stroke="midnightblue" points="1543.64,-32.04 1551.61,-25.06 1541.03,-25.54 1543.64,-32.04"/>
</g>
</g>
</svg>
