<?xml version="1.0" encoding="UTF-8" standalone="no"?>
<!DOCTYPE svg PUBLIC "-//W3C//DTD SVG 1.1//EN"
 "http://www.w3.org/Graphics/SVG/1.1/DTD/svg11.dtd">
<!-- Generated by graphviz version 2.43.0 (0)
 -->
<!-- Title: DepthCamera.cc Pages: 1 -->
<svg width="3187pt" height="151pt"
 viewBox="0.00 0.00 3186.50 151.00" xmlns="http://www.w3.org/2000/svg" xmlns:xlink="http://www.w3.org/1999/xlink">
<g id="graph0" class="graph" transform="scale(1 1) rotate(0) translate(4 147)">
<title>DepthCamera.cc</title>
<!-- Node1 -->
<g id="node1" class="node">
<title>Node1</title>
<g id="a_node1"><a xlink:title=" ">
<polygon fill="#bfbfbf" stroke="black" points="2205.5,-123.5 2205.5,-142.5 2303.5,-142.5 2303.5,-123.5 2205.5,-123.5"/>
<text text-anchor="middle" x="2254.5" y="-130.5" font-family="FreeSans.ttf" font-size="10.00">DepthCamera.cc</text>
</a>
</g>
</g>
<!-- Node2 -->
<g id="node2" class="node">
<title>Node2</title>
<g id="a_node2"><a xlink:href="DepthCamera_8hh.html" target="_top" xlink:title=" ">
<polygon fill="none" stroke="black" points="483,-67.5 483,-86.5 582,-86.5 582,-67.5 483,-67.5"/>
<text text-anchor="middle" x="532.5" y="-74.5" font-family="FreeSans.ttf" font-size="10.00">DepthCamera.hh</text>
</a>
</g>
</g>
<!-- Node1&#45;&gt;Node2 -->
<g id="edge1" class="edge">
<title>Node1&#45;&gt;Node2</title>
<path fill="none" stroke="midnightblue" d="M2205.28,-130.46C1959.01,-122.73 861.75,-88.32 592.37,-79.88"/>
<polygon fill="midnightblue" stroke="midnightblue" points="592.12,-76.37 582.02,-79.55 591.9,-83.36 592.12,-76.37"/>
</g>
<!-- Node7 -->
<g id="node7" class="node">
<title>Node7</title>
<g id="a_node7"><a xlink:title=" ">
<polygon fill="none" stroke="#bfbfbf" points="803.5,-6 803.5,-25 925.5,-25 925.5,-6 803.5,-6"/>
<text text-anchor="middle" x="864.5" y="-13" font-family="FreeSans.ttf" font-size="10.00">yarp/dev/PolyDriver.h</text>
</a>
</g>
</g>
<!-- Node1&#45;&gt;Node7 -->
<g id="edge37" class="edge">
<title>Node1&#45;&gt;Node7</title>
<path fill="none" stroke="midnightblue" d="M2205.41,-130.51C2031.33,-124.74 1427.49,-100.63 934.5,-31 926.98,-29.94 919.06,-28.56 911.35,-27.07"/>
<polygon fill="midnightblue" stroke="midnightblue" points="911.89,-23.61 901.4,-25.06 910.51,-30.47 911.89,-23.61"/>
</g>
<!-- Node9 -->
<g id="node9" class="node">
<title>Node9</title>
<g id="a_node9"><a xlink:href="DepthCameraDriver_8h.html" target="_top" xlink:title=" ">
<polygon fill="none" stroke="black" points="1790.5,-67.5 1790.5,-86.5 1912.5,-86.5 1912.5,-67.5 1790.5,-67.5"/>
<text text-anchor="middle" x="1851.5" y="-74.5" font-family="FreeSans.ttf" font-size="10.00">DepthCameraDriver.h</text>
</a>
</g>
</g>
<!-- Node1&#45;&gt;Node9 -->
<g id="edge8" class="edge">
<title>Node1&#45;&gt;Node9</title>
<path fill="none" stroke="midnightblue" d="M2205.49,-125.43C2134.88,-115.97 2004.11,-98.45 1922.81,-87.55"/>
<polygon fill="midnightblue" stroke="midnightblue" points="1923.03,-84.05 1912.65,-86.19 1922.1,-90.99 1923.03,-84.05"/>
</g>
<!-- Node18 -->
<g id="node18" class="node">
<title>Node18</title>
<g id="a_node18"><a xlink:title=" ">
<polygon fill="none" stroke="#bfbfbf" points="2104,-0.5 2104,-30.5 2267,-30.5 2267,-0.5 2104,-0.5"/>
<text text-anchor="start" x="2112" y="-18.5" font-family="FreeSans.ttf" font-size="10.00">gazebo/sensors/DepthCamera</text>
<text text-anchor="middle" x="2185.5" y="-7.5" font-family="FreeSans.ttf" font-size="10.00">Sensor.hh</text>
</a>
</g>
</g>
<!-- Node1&#45;&gt;Node18 -->
<g id="edge36" class="edge">
<title>Node1&#45;&gt;Node18</title>
<path fill="none" stroke="midnightblue" d="M2246.68,-123.5C2238.9,-114.77 2226.95,-100.59 2218.5,-87 2209.2,-72.04 2200.81,-54.03 2194.82,-39.96"/>
<polygon fill="midnightblue" stroke="midnightblue" points="2197.97,-38.41 2190.9,-30.52 2191.5,-41.09 2197.97,-38.41"/>
</g>
<!-- Node20 -->
<g id="node20" class="node">
<title>Node20</title>
<g id="a_node20"><a xlink:href="Handler_8hh.html" target="_top" xlink:title=" ">
<polygon fill="none" stroke="black" points="2227.5,-67.5 2227.5,-86.5 2391.5,-86.5 2391.5,-67.5 2227.5,-67.5"/>
<text text-anchor="middle" x="2309.5" y="-74.5" font-family="FreeSans.ttf" font-size="10.00">GazeboYarpPlugins/Handler.hh</text>
</a>
</g>
</g>
<!-- Node1&#45;&gt;Node20 -->
<g id="edge19" class="edge">
<title>Node1&#45;&gt;Node20</title>
<path fill="none" stroke="midnightblue" d="M2263.58,-123.08C2271.67,-115.14 2283.7,-103.34 2293.41,-93.8"/>
<polygon fill="midnightblue" stroke="midnightblue" points="2295.9,-96.25 2300.59,-86.75 2291,-91.26 2295.9,-96.25"/>
</g>
<!-- Node24 -->
<g id="node24" class="node">
<title>Node24</title>
<g id="a_node24"><a xlink:href="common_8h.html" target="_top" xlink:title=" ">
<polygon fill="none" stroke="black" points="5.5,-67.5 5.5,-86.5 169.5,-86.5 169.5,-67.5 5.5,-67.5"/>
<text text-anchor="middle" x="87.5" y="-74.5" font-family="FreeSans.ttf" font-size="10.00">GazeboYarpPlugins/common.h</text>
</a>
</g>
</g>
<!-- Node1&#45;&gt;Node24 -->
<g id="edge26" class="edge">
<title>Node1&#45;&gt;Node24</title>
<path fill="none" stroke="midnightblue" d="M2205.43,-130.78C1927.58,-123.85 551.14,-89.55 179.89,-80.3"/>
<polygon fill="midnightblue" stroke="midnightblue" points="179.82,-76.8 169.73,-80.05 179.64,-83.8 179.82,-76.8"/>
</g>
<!-- Node26 -->
<g id="node26" class="node">
<title>Node26</title>
<g id="a_node26"><a xlink:href="ConfHelpers_8hh.html" target="_top" xlink:title=" ">
<polygon fill="none" stroke="black" points="2410,-67.5 2410,-86.5 2597,-86.5 2597,-67.5 2410,-67.5"/>
<text text-anchor="middle" x="2503.5" y="-74.5" font-family="FreeSans.ttf" font-size="10.00">GazeboYarpPlugins/ConfHelpers.hh</text>
</a>
</g>
</g>
<!-- Node1&#45;&gt;Node26 -->
<g id="edge29" class="edge">
<title>Node1&#45;&gt;Node26</title>
<path fill="none" stroke="midnightblue" d="M2293.95,-123.44C2337.39,-114.02 2407.29,-98.87 2454.28,-88.68"/>
<polygon fill="midnightblue" stroke="midnightblue" points="2455.2,-92.06 2464.23,-86.52 2453.72,-85.22 2455.2,-92.06"/>
</g>
<!-- Node29 -->
<g id="node29" class="node">
<title>Node29</title>
<g id="a_node29"><a xlink:title=" ">
<polygon fill="none" stroke="#bfbfbf" points="2615.5,-67.5 2615.5,-86.5 2697.5,-86.5 2697.5,-67.5 2615.5,-67.5"/>
<text text-anchor="middle" x="2656.5" y="-74.5" font-family="FreeSans.ttf" font-size="10.00">yarp/os/Log.h</text>
</a>
</g>
</g>
<!-- Node1&#45;&gt;Node29 -->
<g id="edge34" class="edge">
<title>Node1&#45;&gt;Node29</title>
<path fill="none" stroke="midnightblue" d="M2303.72,-126.43C2369.79,-118.79 2491.03,-104.2 2605.35,-86.95"/>
<polygon fill="midnightblue" stroke="midnightblue" points="2605.97,-90.4 2615.33,-85.44 2604.92,-83.48 2605.97,-90.4"/>
</g>
<!-- Node30 -->
<g id="node30" class="node">
<title>Node30</title>
<g id="a_node30"><a xlink:title=" ">
<polygon fill="none" stroke="#bfbfbf" points="2716,-67.5 2716,-86.5 2833,-86.5 2833,-67.5 2716,-67.5"/>
<text text-anchor="middle" x="2774.5" y="-74.5" font-family="FreeSans.ttf" font-size="10.00">yarp/os/LogStream.h</text>
</a>
</g>
</g>
<!-- Node1&#45;&gt;Node30 -->
<g id="edge35" class="edge">
<title>Node1&#45;&gt;Node30</title>
<path fill="none" stroke="midnightblue" d="M2303.72,-127.63C2385.03,-120.28 2552.8,-104.65 2705.85,-87.04"/>
<polygon fill="midnightblue" stroke="midnightblue" points="2706.38,-90.5 2715.91,-85.88 2705.57,-83.55 2706.38,-90.5"/>
</g>
<!-- Node31 -->
<g id="node31" class="node">
<title>Node31</title>
<g id="a_node31"><a xlink:title=" ">
<polygon fill="none" stroke="#bfbfbf" points="2851,-67.5 2851,-86.5 3006,-86.5 3006,-67.5 2851,-67.5"/>
<text text-anchor="middle" x="2928.5" y="-74.5" font-family="FreeSans.ttf" font-size="10.00">yarp/dev/IMultipleWrapper.h</text>
</a>
</g>
</g>
<!-- Node1&#45;&gt;Node31 -->
<g id="edge38" class="edge">
<title>Node1&#45;&gt;Node31</title>
<path fill="none" stroke="midnightblue" d="M2303.71,-128.7C2403.13,-121.93 2635.27,-105.61 2840.63,-87.15"/>
<polygon fill="midnightblue" stroke="midnightblue" points="2841.05,-90.63 2850.69,-86.24 2840.42,-83.65 2841.05,-90.63"/>
</g>
<!-- Node3 -->
<g id="node3" class="node">
<title>Node3</title>
<g id="a_node3"><a xlink:title=" ">
<polygon fill="none" stroke="#bfbfbf" points="65.5,-6 65.5,-25 109.5,-25 109.5,-6 65.5,-6"/>
<text text-anchor="middle" x="87.5" y="-13" font-family="FreeSans.ttf" font-size="10.00">string</text>
</a>
</g>
</g>
<!-- Node2&#45;&gt;Node3 -->
<g id="edge2" class="edge">
<title>Node2&#45;&gt;Node3</title>
<path fill="none" stroke="midnightblue" d="M482.76,-75.83C404,-74.39 246.43,-66.8 118.5,-31 116.57,-30.46 114.61,-29.81 112.66,-29.09"/>
<polygon fill="midnightblue" stroke="midnightblue" points="113.78,-25.76 103.2,-25.07 111.04,-32.2 113.78,-25.76"/>
</g>
<!-- Node4 -->
<g id="node4" class="node">
<title>Node4</title>
<g id="a_node4"><a xlink:title=" ">
<polygon fill="none" stroke="#bfbfbf" points="459.5,-6 459.5,-25 605.5,-25 605.5,-6 459.5,-6"/>
<text text-anchor="middle" x="532.5" y="-13" font-family="FreeSans.ttf" font-size="10.00">gazebo/common/Plugin.hh</text>
</a>
</g>
</g>
<!-- Node2&#45;&gt;Node4 -->
<g id="edge3" class="edge">
<title>Node2&#45;&gt;Node4</title>
<path fill="none" stroke="midnightblue" d="M532.5,-67.48C532.5,-59.08 532.5,-45.98 532.5,-35.16"/>
<polygon fill="midnightblue" stroke="midnightblue" points="536,-35.01 532.5,-25.01 529,-35.01 536,-35.01"/>
</g>
<!-- Node5 -->
<g id="node5" class="node">
<title>Node5</title>
<g id="a_node5"><a xlink:title=" ">
<polygon fill="none" stroke="#bfbfbf" points="624,-0.5 624,-30.5 785,-30.5 785,-0.5 624,-0.5"/>
<text text-anchor="start" x="632" y="-18.5" font-family="FreeSans.ttf" font-size="10.00">gazebo/plugins/DepthCamera</text>
<text text-anchor="middle" x="704.5" y="-7.5" font-family="FreeSans.ttf" font-size="10.00">Plugin.hh</text>
</a>
</g>
</g>
<!-- Node2&#45;&gt;Node5 -->
<g id="edge4" class="edge">
<title>Node2&#45;&gt;Node5</title>
<path fill="none" stroke="midnightblue" d="M557.14,-67.48C582.4,-58.74 622.38,-44.91 654.33,-33.86"/>
<polygon fill="midnightblue" stroke="midnightblue" points="655.66,-37.1 663.96,-30.52 653.37,-30.48 655.66,-37.1"/>
</g>
<!-- Node6 -->
<g id="node6" class="node">
<title>Node6</title>
<g id="a_node6"><a xlink:title=" ">
<polygon fill="none" stroke="#bfbfbf" points="127.5,-6 127.5,-25 233.5,-25 233.5,-6 127.5,-6"/>
<text text-anchor="middle" x="180.5" y="-13" font-family="FreeSans.ttf" font-size="10.00">yarp/os/Network.h</text>
</a>
</g>
</g>
<!-- Node2&#45;&gt;Node6 -->
<g id="edge5" class="edge">
<title>Node2&#45;&gt;Node6</title>
<path fill="none" stroke="midnightblue" d="M482.78,-69.45C424.87,-61.56 326.4,-47.3 242.5,-31 236.73,-29.88 230.68,-28.6 224.72,-27.27"/>
<polygon fill="midnightblue" stroke="midnightblue" points="225.36,-23.83 214.83,-25.02 223.81,-30.65 225.36,-23.83"/>
</g>
<!-- Node2&#45;&gt;Node7 -->
<g id="edge6" class="edge">
<title>Node2&#45;&gt;Node7</title>
<path fill="none" stroke="midnightblue" d="M582.13,-67.91C634.7,-59.23 720.07,-44.82 793.5,-31 800.06,-29.76 806.96,-28.42 813.76,-27.06"/>
<polygon fill="midnightblue" stroke="midnightblue" points="814.51,-30.48 823.62,-25.07 813.12,-23.62 814.51,-30.48"/>
</g>
<!-- Node8 -->
<g id="node8" class="node">
<title>Node8</title>
<g id="a_node8"><a xlink:title=" ">
<polygon fill="none" stroke="#bfbfbf" points="251.5,-6 251.5,-25 441.5,-25 441.5,-6 251.5,-6"/>
<text text-anchor="middle" x="346.5" y="-13" font-family="FreeSans.ttf" font-size="10.00">yarp/dev/FrameGrabberInterfaces.h</text>
</a>
</g>
</g>
<!-- Node2&#45;&gt;Node8 -->
<g id="edge7" class="edge">
<title>Node2&#45;&gt;Node8</title>
<path fill="none" stroke="midnightblue" d="M505.85,-67.48C473.53,-57.14 418.9,-39.66 382.77,-28.1"/>
<polygon fill="midnightblue" stroke="midnightblue" points="383.69,-24.72 373.1,-25.01 381.56,-31.39 383.69,-24.72"/>
</g>
<!-- Node10 -->
<g id="node10" class="node">
<title>Node10</title>
<g id="a_node10"><a xlink:title=" ">
<polygon fill="none" stroke="#bfbfbf" points="1631.5,-6 1631.5,-25 1765.5,-25 1765.5,-6 1631.5,-6"/>
<text text-anchor="middle" x="1698.5" y="-13" font-family="FreeSans.ttf" font-size="10.00">yarp/dev/DeviceDriver.h</text>
</a>
</g>
</g>
<!-- Node9&#45;&gt;Node10 -->
<g id="edge9" class="edge">
<title>Node9&#45;&gt;Node10</title>
<path fill="none" stroke="midnightblue" d="M1829.58,-67.48C1803.45,-57.31 1759.59,-40.26 1729.87,-28.7"/>
<polygon fill="midnightblue" stroke="midnightblue" points="1730.97,-25.37 1720.38,-25.01 1728.43,-31.9 1730.97,-25.37"/>
</g>
<!-- Node11 -->
<g id="node11" class="node">
<title>Node11</title>
<g id="a_node11"><a xlink:title=" ">
<polygon fill="none" stroke="#bfbfbf" points="1784,-6 1784,-25 1919,-25 1919,-6 1784,-6"/>
<text text-anchor="middle" x="1851.5" y="-13" font-family="FreeSans.ttf" font-size="10.00">yarp/dev/IRGBDSensor.h</text>
</a>
</g>
</g>
<!-- Node9&#45;&gt;Node11 -->
<g id="edge10" class="edge">
<title>Node9&#45;&gt;Node11</title>
<path fill="none" stroke="midnightblue" d="M1851.5,-67.48C1851.5,-59.08 1851.5,-45.98 1851.5,-35.16"/>
<polygon fill="midnightblue" stroke="midnightblue" points="1855,-35.01 1851.5,-25.01 1848,-35.01 1855,-35.01"/>
</g>
<!-- Node12 -->
<g id="node12" class="node">
<title>Node12</title>
<g id="a_node12"><a xlink:title=" ">
<polygon fill="none" stroke="#bfbfbf" points="1937,-6 1937,-25 2086,-25 2086,-6 1937,-6"/>
<text text-anchor="middle" x="2011.5" y="-13" font-family="FreeSans.ttf" font-size="10.00">yarp/dev/IPreciselyTimed.h</text>
</a>
</g>
</g>
<!-- Node9&#45;&gt;Node12 -->
<g id="edge11" class="edge">
<title>Node9&#45;&gt;Node12</title>
<path fill="none" stroke="midnightblue" d="M1874.42,-67.48C1901.87,-57.27 1948.02,-40.11 1979.1,-28.55"/>
<polygon fill="midnightblue" stroke="midnightblue" points="1980.47,-31.78 1988.62,-25.01 1978.03,-25.21 1980.47,-31.78"/>
</g>
<!-- Node13 -->
<g id="node13" class="node">
<title>Node13</title>
<g id="a_node13"><a xlink:title=" ">
<polygon fill="none" stroke="#bfbfbf" points="944,-6 944,-25 1033,-25 1033,-6 944,-6"/>
<text text-anchor="middle" x="988.5" y="-13" font-family="FreeSans.ttf" font-size="10.00">yarp/os/Time.h</text>
</a>
</g>
</g>
<!-- Node9&#45;&gt;Node13 -->
<g id="edge12" class="edge">
<title>Node9&#45;&gt;Node13</title>
<path fill="none" stroke="midnightblue" d="M1790.24,-74.28C1627.24,-69.42 1185.55,-54.44 1041.5,-31 1036.28,-30.15 1030.83,-28.99 1025.5,-27.69"/>
<polygon fill="midnightblue" stroke="midnightblue" points="1026.05,-24.22 1015.49,-25.07 1024.28,-30.99 1026.05,-24.22"/>
</g>
<!-- Node14 -->
<g id="node14" class="node">
<title>Node14</title>
<g id="a_node14"><a xlink:title=" ">
<polygon fill="none" stroke="#bfbfbf" points="2352,-6 2352,-25 2471,-25 2471,-6 2352,-6"/>
<text text-anchor="middle" x="2411.5" y="-13" font-family="FreeSans.ttf" font-size="10.00">boost/shared_ptr.hpp</text>
</a>
</g>
</g>
<!-- Node9&#45;&gt;Node14 -->
<g id="edge13" class="edge">
<title>Node9&#45;&gt;Node14</title>
<path fill="none" stroke="midnightblue" d="M1912.63,-72.68C2005.77,-67.1 2188.65,-54.14 2342.5,-31 2349.74,-29.91 2357.36,-28.54 2364.8,-27.08"/>
<polygon fill="midnightblue" stroke="midnightblue" points="2365.66,-30.47 2374.76,-25.04 2364.26,-23.61 2365.66,-30.47"/>
</g>
<!-- Node15 -->
<g id="node15" class="node">
<title>Node15</title>
<g id="a_node15"><a xlink:title=" ">
<polygon fill="none" stroke="#bfbfbf" points="1050.5,-6 1050.5,-25 1208.5,-25 1208.5,-6 1050.5,-6"/>
<text text-anchor="middle" x="1129.5" y="-13" font-family="FreeSans.ttf" font-size="10.00">gazebo/rendering/Camera.hh</text>
</a>
</g>
</g>
<!-- Node9&#45;&gt;Node15 -->
<g id="edge14" class="edge">
<title>Node9&#45;&gt;Node15</title>
<path fill="none" stroke="midnightblue" d="M1790.12,-73.53C1676.71,-68.55 1426.82,-55.62 1217.5,-31 1207.47,-29.82 1196.83,-28.3 1186.55,-26.69"/>
<polygon fill="midnightblue" stroke="midnightblue" points="1186.86,-23.19 1176.43,-25.06 1185.74,-30.1 1186.86,-23.19"/>
</g>
<!-- Node16 -->
<g id="node16" class="node">
<title>Node16</title>
<g id="a_node16"><a xlink:title=" ">
<polygon fill="none" stroke="#bfbfbf" points="1227,-6 1227,-25 1408,-25 1408,-6 1227,-6"/>
<text text-anchor="middle" x="1317.5" y="-13" font-family="FreeSans.ttf" font-size="10.00">gazebo/sensors/CameraSensor.hh</text>
</a>
</g>
</g>
<!-- Node9&#45;&gt;Node16 -->
<g id="edge15" class="edge">
<title>Node9&#45;&gt;Node16</title>
<path fill="none" stroke="midnightblue" d="M1790.17,-70.48C1705.86,-62.71 1549.47,-47.61 1416.5,-31 1405.61,-29.64 1394.07,-28.07 1382.86,-26.47"/>
<polygon fill="midnightblue" stroke="midnightblue" points="1383.08,-22.97 1372.69,-25.01 1382.08,-29.9 1383.08,-22.97"/>
</g>
<!-- Node17 -->
<g id="node17" class="node">
<title>Node17</title>
<g id="a_node17"><a xlink:title=" ">
<polygon fill="none" stroke="#bfbfbf" points="1426,-6 1426,-25 1613,-25 1613,-6 1426,-6"/>
<text text-anchor="middle" x="1519.5" y="-13" font-family="FreeSans.ttf" font-size="10.00">gazebo/rendering/DepthCamera.hh</text>
</a>
</g>
</g>
<!-- Node9&#45;&gt;Node17 -->
<g id="edge16" class="edge">
<title>Node9&#45;&gt;Node17</title>
<path fill="none" stroke="midnightblue" d="M1803.93,-67.48C1744.02,-56.74 1641.18,-38.31 1576.94,-26.79"/>
<polygon fill="midnightblue" stroke="midnightblue" points="1577.44,-23.33 1566.98,-25.01 1576.2,-30.22 1577.44,-23.33"/>
</g>
<!-- Node9&#45;&gt;Node18 -->
<g id="edge17" class="edge">
<title>Node9&#45;&gt;Node18</title>
<path fill="none" stroke="midnightblue" d="M1899.35,-67.48C1950.72,-58.32 2033.46,-43.58 2096.79,-32.3"/>
<polygon fill="midnightblue" stroke="midnightblue" points="2097.55,-35.72 2106.78,-30.52 2096.32,-28.83 2097.55,-35.72"/>
</g>
<!-- Node19 -->
<g id="node19" class="node">
<title>Node19</title>
<g id="a_node19"><a xlink:title=" ">
<polygon fill="none" stroke="#bfbfbf" points="2285.5,-6 2285.5,-25 2333.5,-25 2333.5,-6 2285.5,-6"/>
<text text-anchor="middle" x="2309.5" y="-13" font-family="FreeSans.ttf" font-size="10.00">mutex</text>
</a>
</g>
</g>
<!-- Node9&#45;&gt;Node19 -->
<g id="edge18" class="edge">
<title>Node9&#45;&gt;Node19</title>
<path fill="none" stroke="midnightblue" d="M1912.54,-75.18C1995.85,-72.79 2149.23,-63.84 2275.5,-31 2277.86,-30.39 2280.26,-29.64 2282.65,-28.8"/>
<polygon fill="midnightblue" stroke="midnightblue" points="2284.18,-31.97 2292.2,-25.05 2281.62,-25.45 2284.18,-31.97"/>
</g>
<!-- Node20&#45;&gt;Node7 -->
<g id="edge24" class="edge">
<title>Node20&#45;&gt;Node7</title>
<path fill="none" stroke="midnightblue" d="M2227.22,-74.13C1950.31,-67.73 1062.35,-46.22 934.5,-31 926.44,-30.04 917.93,-28.62 909.72,-27.05"/>
<polygon fill="midnightblue" stroke="midnightblue" points="910.41,-23.62 899.92,-25.07 909.03,-30.48 910.41,-23.62"/>
</g>
<!-- Node20&#45;&gt;Node14 -->
<g id="edge22" class="edge">
<title>Node20&#45;&gt;Node14</title>
<path fill="none" stroke="midnightblue" d="M2324.11,-67.48C2340.85,-57.71 2368.5,-41.58 2388.22,-30.08"/>
<polygon fill="midnightblue" stroke="midnightblue" points="2390.04,-33.07 2396.91,-25.01 2386.51,-27.02 2390.04,-33.07"/>
</g>
<!-- Node20&#45;&gt;Node19 -->
<g id="edge23" class="edge">
<title>Node20&#45;&gt;Node19</title>
<path fill="none" stroke="midnightblue" d="M2309.5,-67.48C2309.5,-59.08 2309.5,-45.98 2309.5,-35.16"/>
<polygon fill="midnightblue" stroke="midnightblue" points="2313,-35.01 2309.5,-25.01 2306,-35.01 2313,-35.01"/>
</g>
<!-- Node21 -->
<g id="node21" class="node">
<title>Node21</title>
<g id="a_node21"><a xlink:title=" ">
<polygon fill="none" stroke="#bfbfbf" points="2489.5,-6 2489.5,-25 2527.5,-25 2527.5,-6 2489.5,-6"/>
<text text-anchor="middle" x="2508.5" y="-13" font-family="FreeSans.ttf" font-size="10.00">map</text>
</a>
</g>
</g>
<!-- Node20&#45;&gt;Node21 -->
<g id="edge20" class="edge">
<title>Node20&#45;&gt;Node21</title>
<path fill="none" stroke="midnightblue" d="M2351.12,-67.49C2386,-59.77 2436.8,-47.13 2479.5,-31 2480.88,-30.48 2482.29,-29.91 2483.69,-29.31"/>
<polygon fill="midnightblue" stroke="midnightblue" points="2485.21,-32.46 2492.81,-25.08 2482.26,-26.12 2485.21,-32.46"/>
</g>
<!-- Node22 -->
<g id="node22" class="node">
<title>Node22</title>
<g id="a_node22"><a xlink:title=" ">
<polygon fill="none" stroke="#bfbfbf" points="2704,-6 2704,-25 2797,-25 2797,-6 2704,-6"/>
<text text-anchor="middle" x="2750.5" y="-13" font-family="FreeSans.ttf" font-size="10.00">sdf/sdf_config.h</text>
</a>
</g>
</g>
<!-- Node20&#45;&gt;Node22 -->
<g id="edge21" class="edge">
<title>Node20&#45;&gt;Node22</title>
<path fill="none" stroke="midnightblue" d="M2391.62,-67.74C2486.95,-57.91 2638.27,-41.51 2694.5,-31 2699.87,-30 2705.48,-28.76 2711,-27.45"/>
<polygon fill="midnightblue" stroke="midnightblue" points="2711.88,-30.83 2720.74,-25.01 2710.19,-24.04 2711.88,-30.83"/>
</g>
<!-- Node23 -->
<g id="node23" class="node">
<title>Node23</title>
<g id="a_node23"><a xlink:title=" ">
<polygon fill="none" stroke="#bfbfbf" points="2545.5,-6 2545.5,-25 2685.5,-25 2685.5,-6 2545.5,-6"/>
<text text-anchor="middle" x="2615.5" y="-13" font-family="FreeSans.ttf" font-size="10.00">yarp/dev/PolyDriverList.h</text>
</a>
</g>
</g>
<!-- Node20&#45;&gt;Node23 -->
<g id="edge25" class="edge">
<title>Node20&#45;&gt;Node23</title>
<path fill="none" stroke="midnightblue" d="M2353.34,-67.48C2408.33,-56.78 2502.57,-38.46 2561.82,-26.94"/>
<polygon fill="midnightblue" stroke="midnightblue" points="2562.59,-30.35 2571.74,-25.01 2561.25,-23.48 2562.59,-30.35"/>
</g>
<!-- Node24&#45;&gt;Node3 -->
<g id="edge27" class="edge">
<title>Node24&#45;&gt;Node3</title>
<path fill="none" stroke="midnightblue" d="M87.5,-67.48C87.5,-59.08 87.5,-45.98 87.5,-35.16"/>
<polygon fill="midnightblue" stroke="midnightblue" points="91,-35.01 87.5,-25.01 84,-35.01 91,-35.01"/>
</g>
<!-- Node25 -->
<g id="node25" class="node">
<title>Node25</title>
<g id="a_node25"><a xlink:title=" ">
<polygon fill="none" stroke="#bfbfbf" points="0,-6 0,-25 47,-25 47,-6 0,-6"/>
<text text-anchor="middle" x="23.5" y="-13" font-family="FreeSans.ttf" font-size="10.00">cmath</text>
</a>
</g>
</g>
<!-- Node24&#45;&gt;Node25 -->
<g id="edge28" class="edge">
<title>Node24&#45;&gt;Node25</title>
<path fill="none" stroke="midnightblue" d="M78.33,-67.48C68.35,-58.2 52.19,-43.17 39.99,-31.83"/>
<polygon fill="midnightblue" stroke="midnightblue" points="42.36,-29.25 32.65,-25.01 37.59,-34.38 42.36,-29.25"/>
</g>
<!-- Node26&#45;&gt;Node14 -->
<g id="edge31" class="edge">
<title>Node26&#45;&gt;Node14</title>
<path fill="none" stroke="midnightblue" d="M2490.32,-67.48C2475.43,-57.84 2450.96,-42.02 2433.23,-30.55"/>
<polygon fill="midnightblue" stroke="midnightblue" points="2434.95,-27.5 2424.66,-25.01 2431.15,-33.38 2434.95,-27.5"/>
</g>
<!-- Node26&#45;&gt;Node22 -->
<g id="edge30" class="edge">
<title>Node26&#45;&gt;Node22</title>
<path fill="none" stroke="midnightblue" d="M2540.89,-67.45C2579.44,-58.57 2641.25,-44.16 2694.5,-31 2698.9,-29.91 2703.48,-28.76 2708.05,-27.6"/>
<polygon fill="midnightblue" stroke="midnightblue" points="2709.14,-30.93 2717.96,-25.06 2707.4,-24.15 2709.14,-30.93"/>
</g>
<!-- Node27 -->
<g id="node27" class="node">
<title>Node27</title>
<g id="a_node27"><a xlink:title=" ">
<polygon fill="none" stroke="#bfbfbf" points="2815,-6 2815,-25 2986,-25 2986,-6 2815,-6"/>
<text text-anchor="middle" x="2900.5" y="-13" font-family="FreeSans.ttf" font-size="10.00">gazebo/sensors/SensorTypes.hh</text>
</a>
</g>
</g>
<!-- Node26&#45;&gt;Node27 -->
<g id="edge32" class="edge">
<title>Node26&#45;&gt;Node27</title>
<path fill="none" stroke="midnightblue" d="M2561.6,-67.47C2622.61,-58.49 2721.32,-43.9 2806.5,-31 2815.83,-29.59 2825.68,-28.08 2835.35,-26.6"/>
<polygon fill="midnightblue" stroke="midnightblue" points="2835.98,-30.04 2845.34,-25.06 2834.92,-23.12 2835.98,-30.04"/>
</g>
<!-- Node28 -->
<g id="node28" class="node">
<title>Node28</title>
<g id="a_node28"><a xlink:title=" ">
<polygon fill="none" stroke="#bfbfbf" points="3004.5,-6 3004.5,-25 3178.5,-25 3178.5,-6 3004.5,-6"/>
<text text-anchor="middle" x="3091.5" y="-13" font-family="FreeSans.ttf" font-size="10.00">gazebo/physics/PhysicsTypes.hh</text>
</a>
</g>
</g>
<!-- Node26&#45;&gt;Node28 -->
<g id="edge33" class="edge">
<title>Node26&#45;&gt;Node28</title>
<path fill="none" stroke="midnightblue" d="M2597.16,-67.73C2728.88,-56.06 2957.13,-35.65 2995.5,-31 3006.26,-29.7 3017.67,-28.13 3028.73,-26.52"/>
<polygon fill="midnightblue" stroke="midnightblue" points="3029.38,-29.96 3038.76,-25.03 3028.35,-23.04 3029.38,-29.96"/>
</g>
</g>
</svg>
