<?xml version="1.0" encoding="UTF-8" standalone="no"?>
<!DOCTYPE svg PUBLIC "-//W3C//DTD SVG 1.1//EN"
 "http://www.w3.org/Graphics/SVG/1.1/DTD/svg11.dtd">
<!-- Generated by graphviz version 2.43.0 (0)
 -->
<!-- Title: DepthCameraDriver.h Pages: 1 -->
<svg width="1535pt" height="95pt"
 viewBox="0.00 0.00 1535.00 95.00" xmlns="http://www.w3.org/2000/svg" xmlns:xlink="http://www.w3.org/1999/xlink">
<g id="graph0" class="graph" transform="scale(1 1) rotate(0) translate(4 91)">
<title>DepthCameraDriver.h</title>
<!-- Node1 -->
<g id="node1" class="node">
<title>Node1</title>
<g id="a_node1"><a xlink:title=" ">
<polygon fill="#bfbfbf" stroke="black" points="656,-67.5 656,-86.5 778,-86.5 778,-67.5 656,-67.5"/>
<text text-anchor="middle" x="717" y="-74.5" font-family="FreeSans.ttf" font-size="10.00">DepthCameraDriver.h</text>
</a>
</g>
</g>
<!-- Node2 -->
<g id="node2" class="node">
<title>Node2</title>
<g id="a_node2"><a xlink:title=" ">
<polygon fill="none" stroke="#bfbfbf" points="0,-6 0,-25 134,-25 134,-6 0,-6"/>
<text text-anchor="middle" x="67" y="-13" font-family="FreeSans.ttf" font-size="10.00">yarp/dev/DeviceDriver.h</text>
</a>
</g>
</g>
<!-- Node1&#45;&gt;Node2 -->
<g id="edge1" class="edge">
<title>Node1&#45;&gt;Node2</title>
<path fill="none" stroke="midnightblue" d="M655.6,-73.41C550.33,-68.48 328.76,-55.92 143,-31 134.58,-29.87 125.68,-28.41 117.05,-26.86"/>
<polygon fill="midnightblue" stroke="midnightblue" points="117.57,-23.4 107.1,-25.01 116.29,-30.28 117.57,-23.4"/>
</g>
<!-- Node3 -->
<g id="node3" class="node">
<title>Node3</title>
<g id="a_node3"><a xlink:title=" ">
<polygon fill="none" stroke="#bfbfbf" points="152.5,-6 152.5,-25 287.5,-25 287.5,-6 152.5,-6"/>
<text text-anchor="middle" x="220" y="-13" font-family="FreeSans.ttf" font-size="10.00">yarp/dev/IRGBDSensor.h</text>
</a>
</g>
</g>
<!-- Node1&#45;&gt;Node3 -->
<g id="edge2" class="edge">
<title>Node1&#45;&gt;Node3</title>
<path fill="none" stroke="midnightblue" d="M655.8,-71.04C573.68,-64.03 423.42,-49.93 296,-31 287.97,-29.81 279.5,-28.37 271.24,-26.87"/>
<polygon fill="midnightblue" stroke="midnightblue" points="271.78,-23.41 261.31,-25.02 270.5,-30.29 271.78,-23.41"/>
</g>
<!-- Node4 -->
<g id="node4" class="node">
<title>Node4</title>
<g id="a_node4"><a xlink:title=" ">
<polygon fill="none" stroke="#bfbfbf" points="305.5,-6 305.5,-25 454.5,-25 454.5,-6 305.5,-6"/>
<text text-anchor="middle" x="380" y="-13" font-family="FreeSans.ttf" font-size="10.00">yarp/dev/IPreciselyTimed.h</text>
</a>
</g>
</g>
<!-- Node1&#45;&gt;Node4 -->
<g id="edge3" class="edge">
<title>Node1&#45;&gt;Node4</title>
<path fill="none" stroke="midnightblue" d="M668.72,-67.48C607.91,-56.74 503.51,-38.31 438.31,-26.79"/>
<polygon fill="midnightblue" stroke="midnightblue" points="438.65,-23.3 428.19,-25.01 437.43,-30.19 438.65,-23.3"/>
</g>
<!-- Node5 -->
<g id="node5" class="node">
<title>Node5</title>
<g id="a_node5"><a xlink:title=" ">
<polygon fill="none" stroke="#bfbfbf" points="472.5,-6 472.5,-25 561.5,-25 561.5,-6 472.5,-6"/>
<text text-anchor="middle" x="517" y="-13" font-family="FreeSans.ttf" font-size="10.00">yarp/os/Time.h</text>
</a>
</g>
</g>
<!-- Node1&#45;&gt;Node5 -->
<g id="edge4" class="edge">
<title>Node1&#45;&gt;Node5</title>
<path fill="none" stroke="midnightblue" d="M688.34,-67.48C653.44,-57.09 594.35,-39.51 555.5,-27.95"/>
<polygon fill="midnightblue" stroke="midnightblue" points="556.18,-24.51 545.6,-25.01 554.19,-31.22 556.18,-24.51"/>
</g>
<!-- Node6 -->
<g id="node6" class="node">
<title>Node6</title>
<g id="a_node6"><a xlink:title=" ">
<polygon fill="none" stroke="#bfbfbf" points="579.5,-6 579.5,-25 698.5,-25 698.5,-6 579.5,-6"/>
<text text-anchor="middle" x="639" y="-13" font-family="FreeSans.ttf" font-size="10.00">boost/shared_ptr.hpp</text>
</a>
</g>
</g>
<!-- Node1&#45;&gt;Node6 -->
<g id="edge5" class="edge">
<title>Node1&#45;&gt;Node6</title>
<path fill="none" stroke="midnightblue" d="M705.82,-67.48C693.43,-58.02 673.21,-42.6 658.25,-31.19"/>
<polygon fill="midnightblue" stroke="midnightblue" points="660.23,-28.29 650.15,-25.01 655.98,-33.86 660.23,-28.29"/>
</g>
<!-- Node7 -->
<g id="node7" class="node">
<title>Node7</title>
<g id="a_node7"><a xlink:title=" ">
<polygon fill="none" stroke="#bfbfbf" points="717,-6 717,-25 875,-25 875,-6 717,-6"/>
<text text-anchor="middle" x="796" y="-13" font-family="FreeSans.ttf" font-size="10.00">gazebo/rendering/Camera.hh</text>
</a>
</g>
</g>
<!-- Node1&#45;&gt;Node7 -->
<g id="edge6" class="edge">
<title>Node1&#45;&gt;Node7</title>
<path fill="none" stroke="midnightblue" d="M728.32,-67.48C740.87,-58.02 761.35,-42.6 776.5,-31.19"/>
<polygon fill="midnightblue" stroke="midnightblue" points="778.82,-33.82 784.7,-25.01 774.61,-28.23 778.82,-33.82"/>
</g>
<!-- Node8 -->
<g id="node8" class="node">
<title>Node8</title>
<g id="a_node8"><a xlink:title=" ">
<polygon fill="none" stroke="#bfbfbf" points="893.5,-6 893.5,-25 1074.5,-25 1074.5,-6 893.5,-6"/>
<text text-anchor="middle" x="984" y="-13" font-family="FreeSans.ttf" font-size="10.00">gazebo/sensors/CameraSensor.hh</text>
</a>
</g>
</g>
<!-- Node1&#45;&gt;Node8 -->
<g id="edge7" class="edge">
<title>Node1&#45;&gt;Node8</title>
<path fill="none" stroke="midnightblue" d="M755.25,-67.48C802.84,-56.87 884.11,-38.76 935.88,-27.22"/>
<polygon fill="midnightblue" stroke="midnightblue" points="936.82,-30.6 945.82,-25.01 935.29,-23.77 936.82,-30.6"/>
</g>
<!-- Node9 -->
<g id="node9" class="node">
<title>Node9</title>
<g id="a_node9"><a xlink:title=" ">
<polygon fill="none" stroke="#bfbfbf" points="1092.5,-6 1092.5,-25 1279.5,-25 1279.5,-6 1092.5,-6"/>
<text text-anchor="middle" x="1186" y="-13" font-family="FreeSans.ttf" font-size="10.00">gazebo/rendering/DepthCamera.hh</text>
</a>
</g>
</g>
<!-- Node1&#45;&gt;Node9 -->
<g id="edge8" class="edge">
<title>Node1&#45;&gt;Node9</title>
<path fill="none" stroke="midnightblue" d="M778.09,-68.87C850.96,-60.29 976.45,-45.24 1084,-31 1094.79,-29.57 1106.22,-28 1117.37,-26.44"/>
<polygon fill="midnightblue" stroke="midnightblue" points="1118.09,-29.87 1127.5,-25.01 1117.11,-22.94 1118.09,-29.87"/>
</g>
<!-- Node10 -->
<g id="node10" class="node">
<title>Node10</title>
<g id="a_node10"><a xlink:title=" ">
<polygon fill="none" stroke="#bfbfbf" points="1297.5,-0.5 1297.5,-30.5 1460.5,-30.5 1460.5,-0.5 1297.5,-0.5"/>
<text text-anchor="start" x="1305.5" y="-18.5" font-family="FreeSans.ttf" font-size="10.00">gazebo/sensors/DepthCamera</text>
<text text-anchor="middle" x="1379" y="-7.5" font-family="FreeSans.ttf" font-size="10.00">Sensor.hh</text>
</a>
</g>
</g>
<!-- Node1&#45;&gt;Node10 -->
<g id="edge9" class="edge">
<title>Node1&#45;&gt;Node10</title>
<path fill="none" stroke="midnightblue" d="M778.11,-72.83C881.12,-67.12 1096.04,-53.67 1287.18,-31.16"/>
<polygon fill="midnightblue" stroke="midnightblue" points="1287.61,-34.64 1297.12,-29.98 1286.78,-27.69 1287.61,-34.64"/>
</g>
<!-- Node11 -->
<g id="node11" class="node">
<title>Node11</title>
<g id="a_node11"><a xlink:title=" ">
<polygon fill="none" stroke="#bfbfbf" points="1479,-6 1479,-25 1527,-25 1527,-6 1479,-6"/>
<text text-anchor="middle" x="1503" y="-13" font-family="FreeSans.ttf" font-size="10.00">mutex</text>
</a>
</g>
</g>
<!-- Node1&#45;&gt;Node11 -->
<g id="edge10" class="edge">
<title>Node1&#45;&gt;Node11</title>
<path fill="none" stroke="midnightblue" d="M778.07,-75.12C933.17,-72.45 1339.19,-62.57 1470,-31 1472.36,-30.43 1474.76,-29.7 1477.14,-28.87"/>
<polygon fill="midnightblue" stroke="midnightblue" points="1478.64,-32.04 1486.61,-25.06 1476.03,-25.55 1478.64,-32.04"/>
</g>
</g>
</svg>
