<?xml version="1.0" encoding="UTF-8" standalone="no"?>
<!DOCTYPE svg PUBLIC "-//W3C//DTD SVG 1.1//EN"
 "http://www.w3.org/Graphics/SVG/1.1/DTD/svg11.dtd">
<!-- Generated by graphviz version 2.43.0 (0)
 -->
<!-- Title: DepthCameraDriver.cpp Pages: 1 -->
<svg width="2209pt" height="151pt"
 viewBox="0.00 0.00 2208.50 151.00" xmlns="http://www.w3.org/2000/svg" xmlns:xlink="http://www.w3.org/1999/xlink">
<g id="graph0" class="graph" transform="scale(1 1) rotate(0) translate(4 147)">
<title>DepthCameraDriver.cpp</title>
<!-- Node1 -->
<g id="node1" class="node">
<title>Node1</title>
<g id="a_node1"><a xlink:title=" ">
<polygon fill="#bfbfbf" stroke="black" points="1260.5,-123.5 1260.5,-142.5 1394.5,-142.5 1394.5,-123.5 1260.5,-123.5"/>
<text text-anchor="middle" x="1327.5" y="-130.5" font-family="FreeSans.ttf" font-size="10.00">DepthCameraDriver.cpp</text>
</a>
</g>
</g>
<!-- Node2 -->
<g id="node2" class="node">
<title>Node2</title>
<g id="a_node2"><a xlink:href="DepthCameraDriver_8h.html" target="_top" xlink:title=" ">
<polygon fill="none" stroke="black" points="806.5,-67.5 806.5,-86.5 928.5,-86.5 928.5,-67.5 806.5,-67.5"/>
<text text-anchor="middle" x="867.5" y="-74.5" font-family="FreeSans.ttf" font-size="10.00">DepthCameraDriver.h</text>
</a>
</g>
</g>
<!-- Node1&#45;&gt;Node2 -->
<g id="edge1" class="edge">
<title>Node1&#45;&gt;Node2</title>
<path fill="none" stroke="midnightblue" d="M1260.12,-124.09C1174.3,-114.02 1026.65,-96.68 938.94,-86.39"/>
<polygon fill="midnightblue" stroke="midnightblue" points="939.15,-82.89 928.81,-85.2 938.33,-89.84 939.15,-82.89"/>
</g>
<!-- Node6 -->
<g id="node6" class="node">
<title>Node6</title>
<g id="a_node6"><a xlink:title=" ">
<polygon fill="none" stroke="#bfbfbf" points="0,-6 0,-25 89,-25 89,-6 0,-6"/>
<text text-anchor="middle" x="44.5" y="-13" font-family="FreeSans.ttf" font-size="10.00">yarp/os/Time.h</text>
</a>
</g>
</g>
<!-- Node1&#45;&gt;Node6 -->
<g id="edge15" class="edge">
<title>Node1&#45;&gt;Node6</title>
<path fill="none" stroke="midnightblue" d="M1260.28,-130.84C1074.08,-126.69 536.39,-108.37 97.5,-31 92.35,-30.09 86.97,-28.91 81.7,-27.61"/>
<polygon fill="midnightblue" stroke="midnightblue" points="82.35,-24.16 71.79,-25 80.57,-30.93 82.35,-24.16"/>
</g>
<!-- Node9 -->
<g id="node9" class="node">
<title>Node9</title>
<g id="a_node9"><a xlink:title=" ">
<polygon fill="none" stroke="#bfbfbf" points="960,-6 960,-25 1141,-25 1141,-6 960,-6"/>
<text text-anchor="middle" x="1050.5" y="-13" font-family="FreeSans.ttf" font-size="10.00">gazebo/sensors/CameraSensor.hh</text>
</a>
</g>
</g>
<!-- Node1&#45;&gt;Node9 -->
<g id="edge26" class="edge">
<title>Node1&#45;&gt;Node9</title>
<path fill="none" stroke="midnightblue" d="M1280.17,-123.45C1245.76,-116.26 1198.55,-104.34 1159.5,-87 1125.62,-71.95 1090.27,-47.13 1069.33,-31.31"/>
<polygon fill="midnightblue" stroke="midnightblue" points="1071.35,-28.45 1061.29,-25.14 1067.09,-34.01 1071.35,-28.45"/>
</g>
<!-- Node11 -->
<g id="node11" class="node">
<title>Node11</title>
<g id="a_node11"><a xlink:title=" ">
<polygon fill="none" stroke="#bfbfbf" points="1159,-0.5 1159,-30.5 1322,-30.5 1322,-0.5 1159,-0.5"/>
<text text-anchor="start" x="1167" y="-18.5" font-family="FreeSans.ttf" font-size="10.00">gazebo/sensors/DepthCamera</text>
<text text-anchor="middle" x="1240.5" y="-7.5" font-family="FreeSans.ttf" font-size="10.00">Sensor.hh</text>
</a>
</g>
</g>
<!-- Node1&#45;&gt;Node11 -->
<g id="edge27" class="edge">
<title>Node1&#45;&gt;Node11</title>
<path fill="none" stroke="midnightblue" d="M1270.89,-123.44C1230.13,-115.98 1180.18,-103.73 1167.5,-87 1152.88,-67.7 1175,-48.8 1198.62,-35.44"/>
<polygon fill="midnightblue" stroke="midnightblue" points="1200.51,-38.4 1207.68,-30.6 1197.21,-32.22 1200.51,-38.4"/>
</g>
<!-- Node13 -->
<g id="node13" class="node">
<title>Node13</title>
<g id="a_node13"><a xlink:title=" ">
<polygon fill="none" stroke="#bfbfbf" points="1176.5,-67.5 1176.5,-86.5 1268.5,-86.5 1268.5,-67.5 1176.5,-67.5"/>
<text text-anchor="middle" x="1222.5" y="-74.5" font-family="FreeSans.ttf" font-size="10.00">yarp/os/Value.h</text>
</a>
</g>
</g>
<!-- Node1&#45;&gt;Node13 -->
<g id="edge12" class="edge">
<title>Node1&#45;&gt;Node13</title>
<path fill="none" stroke="midnightblue" d="M1310.63,-123.32C1293.79,-114.66 1267.69,-101.24 1248.26,-91.25"/>
<polygon fill="midnightblue" stroke="midnightblue" points="1249.82,-88.12 1239.33,-86.65 1246.62,-94.34 1249.82,-88.12"/>
</g>
<!-- Node14 -->
<g id="node14" class="node">
<title>Node14</title>
<g id="a_node14"><a xlink:title=" ">
<polygon fill="none" stroke="#bfbfbf" points="1286.5,-67.5 1286.5,-86.5 1368.5,-86.5 1368.5,-67.5 1286.5,-67.5"/>
<text text-anchor="middle" x="1327.5" y="-74.5" font-family="FreeSans.ttf" font-size="10.00">yarp/os/Log.h</text>
</a>
</g>
</g>
<!-- Node1&#45;&gt;Node14 -->
<g id="edge13" class="edge">
<title>Node1&#45;&gt;Node14</title>
<path fill="none" stroke="midnightblue" d="M1327.5,-123.08C1327.5,-116.01 1327.5,-105.86 1327.5,-96.99"/>
<polygon fill="midnightblue" stroke="midnightblue" points="1331,-96.75 1327.5,-86.75 1324,-96.75 1331,-96.75"/>
</g>
<!-- Node15 -->
<g id="node15" class="node">
<title>Node15</title>
<g id="a_node15"><a xlink:title=" ">
<polygon fill="none" stroke="#bfbfbf" points="1387,-67.5 1387,-86.5 1504,-86.5 1504,-67.5 1387,-67.5"/>
<text text-anchor="middle" x="1445.5" y="-74.5" font-family="FreeSans.ttf" font-size="10.00">yarp/os/LogStream.h</text>
</a>
</g>
</g>
<!-- Node1&#45;&gt;Node15 -->
<g id="edge14" class="edge">
<title>Node1&#45;&gt;Node15</title>
<path fill="none" stroke="midnightblue" d="M1346.2,-123.44C1365.44,-114.64 1395.65,-100.81 1417.7,-90.72"/>
<polygon fill="midnightblue" stroke="midnightblue" points="1419.25,-93.86 1426.89,-86.52 1416.34,-87.5 1419.25,-93.86"/>
</g>
<!-- Node16 -->
<g id="node16" class="node">
<title>Node16</title>
<g id="a_node16"><a xlink:href="Handler_8hh.html" target="_top" xlink:title=" ">
<polygon fill="none" stroke="black" points="1522.5,-67.5 1522.5,-86.5 1686.5,-86.5 1686.5,-67.5 1522.5,-67.5"/>
<text text-anchor="middle" x="1604.5" y="-74.5" font-family="FreeSans.ttf" font-size="10.00">GazeboYarpPlugins/Handler.hh</text>
</a>
</g>
</g>
<!-- Node1&#45;&gt;Node16 -->
<g id="edge16" class="edge">
<title>Node1&#45;&gt;Node16</title>
<path fill="none" stroke="midnightblue" d="M1371.39,-123.44C1420.02,-113.96 1498.45,-98.67 1550.72,-88.48"/>
<polygon fill="midnightblue" stroke="midnightblue" points="1551.67,-91.87 1560.81,-86.52 1550.33,-84.99 1551.67,-91.87"/>
</g>
<!-- Node21 -->
<g id="node21" class="node">
<title>Node21</title>
<g id="a_node21"><a xlink:href="common_8h.html" target="_top" xlink:title=" ">
<polygon fill="none" stroke="black" points="1704.5,-67.5 1704.5,-86.5 1868.5,-86.5 1868.5,-67.5 1704.5,-67.5"/>
<text text-anchor="middle" x="1786.5" y="-74.5" font-family="FreeSans.ttf" font-size="10.00">GazeboYarpPlugins/common.h</text>
</a>
</g>
</g>
<!-- Node1&#45;&gt;Node21 -->
<g id="edge23" class="edge">
<title>Node1&#45;&gt;Node21</title>
<path fill="none" stroke="midnightblue" d="M1394.73,-124.09C1476.85,-114.43 1615.72,-98.09 1704.17,-87.69"/>
<polygon fill="midnightblue" stroke="midnightblue" points="1704.64,-91.16 1714.16,-86.51 1703.82,-84.2 1704.64,-91.16"/>
</g>
<!-- Node24 -->
<g id="node24" class="node">
<title>Node24</title>
<g id="a_node24"><a xlink:title=" ">
<polygon fill="none" stroke="#bfbfbf" points="1887,-67.5 1887,-86.5 2054,-86.5 2054,-67.5 1887,-67.5"/>
<text text-anchor="middle" x="1970.5" y="-74.5" font-family="FreeSans.ttf" font-size="10.00">gazebo/rendering/Distortion.hh</text>
</a>
</g>
</g>
<!-- Node1&#45;&gt;Node24 -->
<g id="edge28" class="edge">
<title>Node1&#45;&gt;Node24</title>
<path fill="none" stroke="midnightblue" d="M1394.84,-126.81C1496.62,-118.9 1696.01,-103.13 1876.63,-87.07"/>
<polygon fill="midnightblue" stroke="midnightblue" points="1877.2,-90.53 1886.85,-86.15 1876.58,-83.56 1877.2,-90.53"/>
</g>
<!-- Node25 -->
<g id="node25" class="node">
<title>Node25</title>
<g id="a_node25"><a xlink:title=" ">
<polygon fill="none" stroke="#bfbfbf" points="2072.5,-67.5 2072.5,-86.5 2200.5,-86.5 2200.5,-67.5 2072.5,-67.5"/>
<text text-anchor="middle" x="2136.5" y="-74.5" font-family="FreeSans.ttf" font-size="10.00">ignition/math/Angle.hh</text>
</a>
</g>
</g>
<!-- Node1&#45;&gt;Node25 -->
<g id="edge29" class="edge">
<title>Node1&#45;&gt;Node25</title>
<path fill="none" stroke="midnightblue" d="M1394.58,-129.28C1522.38,-123.81 1809.76,-110.04 2062.33,-87.05"/>
<polygon fill="midnightblue" stroke="midnightblue" points="2062.79,-90.52 2072.43,-86.13 2062.15,-83.55 2062.79,-90.52"/>
</g>
<!-- Node3 -->
<g id="node3" class="node">
<title>Node3</title>
<g id="a_node3"><a xlink:title=" ">
<polygon fill="none" stroke="#bfbfbf" points="487.5,-6 487.5,-25 621.5,-25 621.5,-6 487.5,-6"/>
<text text-anchor="middle" x="554.5" y="-13" font-family="FreeSans.ttf" font-size="10.00">yarp/dev/DeviceDriver.h</text>
</a>
</g>
</g>
<!-- Node2&#45;&gt;Node3 -->
<g id="edge2" class="edge">
<title>Node2&#45;&gt;Node3</title>
<path fill="none" stroke="midnightblue" d="M822.5,-67.47C774.83,-58.43 697.36,-43.72 630.5,-31 623.67,-29.7 616.5,-28.33 609.4,-26.98"/>
<polygon fill="midnightblue" stroke="midnightblue" points="609.59,-23.45 599.11,-25.02 608.27,-30.33 609.59,-23.45"/>
</g>
<!-- Node4 -->
<g id="node4" class="node">
<title>Node4</title>
<g id="a_node4"><a xlink:title=" ">
<polygon fill="none" stroke="#bfbfbf" points="640,-6 640,-25 775,-25 775,-6 640,-6"/>
<text text-anchor="middle" x="707.5" y="-13" font-family="FreeSans.ttf" font-size="10.00">yarp/dev/IRGBDSensor.h</text>
</a>
</g>
</g>
<!-- Node2&#45;&gt;Node4 -->
<g id="edge3" class="edge">
<title>Node2&#45;&gt;Node4</title>
<path fill="none" stroke="midnightblue" d="M844.58,-67.48C817.13,-57.27 770.98,-40.11 739.9,-28.55"/>
<polygon fill="midnightblue" stroke="midnightblue" points="740.97,-25.21 730.38,-25.01 738.53,-31.78 740.97,-25.21"/>
</g>
<!-- Node5 -->
<g id="node5" class="node">
<title>Node5</title>
<g id="a_node5"><a xlink:title=" ">
<polygon fill="none" stroke="#bfbfbf" points="793,-6 793,-25 942,-25 942,-6 793,-6"/>
<text text-anchor="middle" x="867.5" y="-13" font-family="FreeSans.ttf" font-size="10.00">yarp/dev/IPreciselyTimed.h</text>
</a>
</g>
</g>
<!-- Node2&#45;&gt;Node5 -->
<g id="edge4" class="edge">
<title>Node2&#45;&gt;Node5</title>
<path fill="none" stroke="midnightblue" d="M867.5,-67.48C867.5,-59.08 867.5,-45.98 867.5,-35.16"/>
<polygon fill="midnightblue" stroke="midnightblue" points="871,-35.01 867.5,-25.01 864,-35.01 871,-35.01"/>
</g>
<!-- Node2&#45;&gt;Node6 -->
<g id="edge5" class="edge">
<title>Node2&#45;&gt;Node6</title>
<path fill="none" stroke="midnightblue" d="M806.13,-76.74C675.07,-77.36 358.48,-73.84 97.5,-31 92.28,-30.14 86.83,-28.98 81.51,-27.68"/>
<polygon fill="midnightblue" stroke="midnightblue" points="82.05,-24.2 71.49,-25.05 80.28,-30.97 82.05,-24.2"/>
</g>
<!-- Node7 -->
<g id="node7" class="node">
<title>Node7</title>
<g id="a_node7"><a xlink:title=" ">
<polygon fill="none" stroke="#bfbfbf" points="1340,-6 1340,-25 1459,-25 1459,-6 1340,-6"/>
<text text-anchor="middle" x="1399.5" y="-13" font-family="FreeSans.ttf" font-size="10.00">boost/shared_ptr.hpp</text>
</a>
</g>
</g>
<!-- Node2&#45;&gt;Node7 -->
<g id="edge6" class="edge">
<title>Node2&#45;&gt;Node7</title>
<path fill="none" stroke="midnightblue" d="M928.81,-72.2C1017.7,-66.21 1187.41,-52.92 1330.5,-31 1337.74,-29.89 1345.36,-28.51 1352.79,-27.04"/>
<polygon fill="midnightblue" stroke="midnightblue" points="1353.66,-30.44 1362.75,-25.01 1352.26,-23.58 1353.66,-30.44"/>
</g>
<!-- Node8 -->
<g id="node8" class="node">
<title>Node8</title>
<g id="a_node8"><a xlink:title=" ">
<polygon fill="none" stroke="#bfbfbf" points="106.5,-6 106.5,-25 264.5,-25 264.5,-6 106.5,-6"/>
<text text-anchor="middle" x="185.5" y="-13" font-family="FreeSans.ttf" font-size="10.00">gazebo/rendering/Camera.hh</text>
</a>
</g>
</g>
<!-- Node2&#45;&gt;Node8 -->
<g id="edge7" class="edge">
<title>Node2&#45;&gt;Node8</title>
<path fill="none" stroke="midnightblue" d="M806.08,-73.17C697.94,-67.79 466.62,-54.47 272.5,-31 262.58,-29.8 252.07,-28.27 241.9,-26.66"/>
<polygon fill="midnightblue" stroke="midnightblue" points="242.33,-23.18 231.89,-25.02 241.2,-30.09 242.33,-23.18"/>
</g>
<!-- Node2&#45;&gt;Node9 -->
<g id="edge8" class="edge">
<title>Node2&#45;&gt;Node9</title>
<path fill="none" stroke="midnightblue" d="M893.72,-67.48C925.52,-57.14 979.27,-39.66 1014.82,-28.1"/>
<polygon fill="midnightblue" stroke="midnightblue" points="1015.9,-31.43 1024.33,-25.01 1013.74,-24.77 1015.9,-31.43"/>
</g>
<!-- Node10 -->
<g id="node10" class="node">
<title>Node10</title>
<g id="a_node10"><a xlink:title=" ">
<polygon fill="none" stroke="#bfbfbf" points="282,-6 282,-25 469,-25 469,-6 282,-6"/>
<text text-anchor="middle" x="375.5" y="-13" font-family="FreeSans.ttf" font-size="10.00">gazebo/rendering/DepthCamera.hh</text>
</a>
</g>
</g>
<!-- Node2&#45;&gt;Node10 -->
<g id="edge9" class="edge">
<title>Node2&#45;&gt;Node10</title>
<path fill="none" stroke="midnightblue" d="M806.47,-69.41C729.82,-61.03 594.32,-45.85 478.5,-31 467.42,-29.58 455.67,-28 444.24,-26.42"/>
<polygon fill="midnightblue" stroke="midnightblue" points="444.68,-22.94 434.29,-25.03 443.71,-29.88 444.68,-22.94"/>
</g>
<!-- Node2&#45;&gt;Node11 -->
<g id="edge10" class="edge">
<title>Node2&#45;&gt;Node11</title>
<path fill="none" stroke="midnightblue" d="M920.94,-67.48C980.39,-57.99 1077.48,-42.5 1149.06,-31.09"/>
<polygon fill="midnightblue" stroke="midnightblue" points="1149.66,-34.53 1158.99,-29.5 1148.56,-27.62 1149.66,-34.53"/>
</g>
<!-- Node12 -->
<g id="node12" class="node">
<title>Node12</title>
<g id="a_node12"><a xlink:title=" ">
<polygon fill="none" stroke="#bfbfbf" points="1477.5,-6 1477.5,-25 1525.5,-25 1525.5,-6 1477.5,-6"/>
<text text-anchor="middle" x="1501.5" y="-13" font-family="FreeSans.ttf" font-size="10.00">mutex</text>
</a>
</g>
</g>
<!-- Node2&#45;&gt;Node12 -->
<g id="edge11" class="edge">
<title>Node2&#45;&gt;Node12</title>
<path fill="none" stroke="midnightblue" d="M928.97,-73.94C1060.74,-69.11 1366.64,-55.57 1467.5,-31 1470.01,-30.39 1472.57,-29.61 1475.1,-28.73"/>
<polygon fill="midnightblue" stroke="midnightblue" points="1476.55,-31.93 1484.58,-25.01 1473.99,-25.41 1476.55,-31.93"/>
</g>
<!-- Node16&#45;&gt;Node7 -->
<g id="edge19" class="edge">
<title>Node16&#45;&gt;Node7</title>
<path fill="none" stroke="midnightblue" d="M1575.13,-67.48C1539.2,-57.05 1478.27,-39.36 1438.46,-27.81"/>
<polygon fill="midnightblue" stroke="midnightblue" points="1439.4,-24.44 1428.82,-25.01 1437.45,-31.16 1439.4,-24.44"/>
</g>
<!-- Node16&#45;&gt;Node12 -->
<g id="edge20" class="edge">
<title>Node16&#45;&gt;Node12</title>
<path fill="none" stroke="midnightblue" d="M1589.74,-67.48C1572.84,-57.71 1544.92,-41.58 1525.01,-30.08"/>
<polygon fill="midnightblue" stroke="midnightblue" points="1526.64,-26.98 1516.23,-25.01 1523.14,-33.04 1526.64,-26.98"/>
</g>
<!-- Node17 -->
<g id="node17" class="node">
<title>Node17</title>
<g id="a_node17"><a xlink:title=" ">
<polygon fill="none" stroke="#bfbfbf" points="1543.5,-6 1543.5,-25 1581.5,-25 1581.5,-6 1543.5,-6"/>
<text text-anchor="middle" x="1562.5" y="-13" font-family="FreeSans.ttf" font-size="10.00">map</text>
</a>
</g>
</g>
<!-- Node16&#45;&gt;Node17 -->
<g id="edge17" class="edge">
<title>Node16&#45;&gt;Node17</title>
<path fill="none" stroke="midnightblue" d="M1598.48,-67.48C1592.24,-58.64 1582.33,-44.59 1574.48,-33.48"/>
<polygon fill="midnightblue" stroke="midnightblue" points="1577.13,-31.16 1568.51,-25.01 1571.41,-35.2 1577.13,-31.16"/>
</g>
<!-- Node18 -->
<g id="node18" class="node">
<title>Node18</title>
<g id="a_node18"><a xlink:title=" ">
<polygon fill="none" stroke="#bfbfbf" points="1600,-6 1600,-25 1693,-25 1693,-6 1600,-6"/>
<text text-anchor="middle" x="1646.5" y="-13" font-family="FreeSans.ttf" font-size="10.00">sdf/sdf_config.h</text>
</a>
</g>
</g>
<!-- Node16&#45;&gt;Node18 -->
<g id="edge18" class="edge">
<title>Node16&#45;&gt;Node18</title>
<path fill="none" stroke="midnightblue" d="M1610.52,-67.48C1616.76,-58.64 1626.67,-44.59 1634.52,-33.48"/>
<polygon fill="midnightblue" stroke="midnightblue" points="1637.59,-35.2 1640.49,-25.01 1631.87,-31.16 1637.59,-35.2"/>
</g>
<!-- Node19 -->
<g id="node19" class="node">
<title>Node19</title>
<g id="a_node19"><a xlink:title=" ">
<polygon fill="none" stroke="#bfbfbf" points="1711.5,-6 1711.5,-25 1833.5,-25 1833.5,-6 1711.5,-6"/>
<text text-anchor="middle" x="1772.5" y="-13" font-family="FreeSans.ttf" font-size="10.00">yarp/dev/PolyDriver.h</text>
</a>
</g>
</g>
<!-- Node16&#45;&gt;Node19 -->
<g id="edge21" class="edge">
<title>Node16&#45;&gt;Node19</title>
<path fill="none" stroke="midnightblue" d="M1628.57,-67.48C1657.51,-57.22 1706.26,-39.96 1738.9,-28.4"/>
<polygon fill="midnightblue" stroke="midnightblue" points="1740.22,-31.65 1748.47,-25.01 1737.88,-25.05 1740.22,-31.65"/>
</g>
<!-- Node20 -->
<g id="node20" class="node">
<title>Node20</title>
<g id="a_node20"><a xlink:title=" ">
<polygon fill="none" stroke="#bfbfbf" points="1851.5,-6 1851.5,-25 1991.5,-25 1991.5,-6 1851.5,-6"/>
<text text-anchor="middle" x="1921.5" y="-13" font-family="FreeSans.ttf" font-size="10.00">yarp/dev/PolyDriverList.h</text>
</a>
</g>
</g>
<!-- Node16&#45;&gt;Node20 -->
<g id="edge22" class="edge">
<title>Node16&#45;&gt;Node20</title>
<path fill="none" stroke="midnightblue" d="M1649.92,-67.48C1707,-56.76 1804.92,-38.38 1866.27,-26.87"/>
<polygon fill="midnightblue" stroke="midnightblue" points="1866.98,-30.29 1876.17,-25.01 1865.69,-23.41 1866.98,-30.29"/>
</g>
<!-- Node22 -->
<g id="node22" class="node">
<title>Node22</title>
<g id="a_node22"><a xlink:title=" ">
<polygon fill="none" stroke="#bfbfbf" points="2009.5,-6 2009.5,-25 2053.5,-25 2053.5,-6 2009.5,-6"/>
<text text-anchor="middle" x="2031.5" y="-13" font-family="FreeSans.ttf" font-size="10.00">string</text>
</a>
</g>
</g>
<!-- Node21&#45;&gt;Node22 -->
<g id="edge24" class="edge">
<title>Node21&#45;&gt;Node22</title>
<path fill="none" stroke="midnightblue" d="M1844.68,-67.49C1888.27,-60.23 1949.01,-48.2 2000.5,-31 2002.17,-30.44 2003.86,-29.82 2005.56,-29.16"/>
<polygon fill="midnightblue" stroke="midnightblue" points="2007.27,-32.23 2015.06,-25.05 2004.49,-25.81 2007.27,-32.23"/>
</g>
<!-- Node23 -->
<g id="node23" class="node">
<title>Node23</title>
<g id="a_node23"><a xlink:title=" ">
<polygon fill="none" stroke="#bfbfbf" points="2072,-6 2072,-25 2119,-25 2119,-6 2072,-6"/>
<text text-anchor="middle" x="2095.5" y="-13" font-family="FreeSans.ttf" font-size="10.00">cmath</text>
</a>
</g>
</g>
<!-- Node21&#45;&gt;Node23 -->
<g id="edge25" class="edge">
<title>Node21&#45;&gt;Node23</title>
<path fill="none" stroke="midnightblue" d="M1868.63,-68.11C1924.16,-61.44 1998.72,-49.88 2062.5,-31 2064.65,-30.36 2066.83,-29.62 2069.01,-28.82"/>
<polygon fill="midnightblue" stroke="midnightblue" points="2070.4,-32.03 2078.34,-25.02 2067.76,-25.55 2070.4,-32.03"/>
</g>
</g>
</svg>
