<?xml version="1.0" encoding="UTF-8" standalone="no"?>
<!DOCTYPE svg PUBLIC "-//W3C//DTD SVG 1.1//EN"
 "http://www.w3.org/Graphics/SVG/1.1/DTD/svg11.dtd">
<!-- Generated by graphviz version 3.0.0 (20220315.2325)
 -->
<!-- Title: DepthCameraDriver.cpp Pages: 1 -->
<svg width="2587pt" height="151pt"
 viewBox="0.00 0.00 2586.50 151.00" xmlns="http://www.w3.org/2000/svg" xmlns:xlink="http://www.w3.org/1999/xlink">
<g id="graph0" class="graph" transform="scale(1 1) rotate(0) translate(4 147)">
<title>DepthCameraDriver.cpp</title>
<!-- Node1 -->
<g id="node1" class="node">
<title>Node1</title>
<g id="a_node1"><a xlink:title=" ">
<polygon fill="#bfbfbf" stroke="black" points="1621.5,-123.5 1621.5,-142.5 1755.5,-142.5 1755.5,-123.5 1621.5,-123.5"/>
<text text-anchor="middle" x="1688.5" y="-130.5" font-family="FreeSans.ttf" font-size="10.00">DepthCameraDriver.cpp</text>
</a>
</g>
</g>
<!-- Node2 -->
<g id="node2" class="node">
<title>Node2</title>
<g id="a_node2"><a xlink:href="DepthCameraDriver_8h.html" target="_top" xlink:title=" ">
<polygon fill="none" stroke="black" points="901.5,-67.5 901.5,-86.5 1023.5,-86.5 1023.5,-67.5 901.5,-67.5"/>
<text text-anchor="middle" x="962.5" y="-74.5" font-family="FreeSans.ttf" font-size="10.00">DepthCameraDriver.h</text>
</a>
</g>
</g>
<!-- Node1&#45;&gt;Node2 -->
<g id="edge1" class="edge">
<title>Node1&#45;&gt;Node2</title>
<path fill="none" stroke="midnightblue" d="M1621.18,-126.99C1484.17,-116.8 1174.07,-93.74 1033.79,-83.3"/>
<polygon fill="midnightblue" stroke="midnightblue" points="1033.82,-79.8 1023.59,-82.54 1033.3,-86.78 1033.82,-79.8"/>
</g>
<!-- Node6 -->
<g id="node6" class="node">
<title>Node6</title>
<g id="a_node6"><a xlink:title=" ">
<polygon fill="none" stroke="#bfbfbf" points="0,-6 0,-25 89,-25 89,-6 0,-6"/>
<text text-anchor="middle" x="44.5" y="-13" font-family="FreeSans.ttf" font-size="10.00">yarp/os/Time.h</text>
</a>
</g>
</g>
<!-- Node1&#45;&gt;Node6 -->
<g id="edge19" class="edge">
<title>Node1&#45;&gt;Node6</title>
<path fill="none" stroke="midnightblue" d="M1621.23,-132.77C1400.86,-134.21 681.38,-130.44 97.5,-31 92.34,-30.12 86.96,-28.95 81.69,-27.66"/>
<polygon fill="midnightblue" stroke="midnightblue" points="82.34,-24.21 71.78,-25.07 80.56,-30.98 82.34,-24.21"/>
</g>
<!-- Node9 -->
<g id="node9" class="node">
<title>Node9</title>
<g id="a_node9"><a xlink:title=" ">
<polygon fill="none" stroke="#bfbfbf" points="960,-6 960,-25 1141,-25 1141,-6 960,-6"/>
<text text-anchor="middle" x="1050.5" y="-13" font-family="FreeSans.ttf" font-size="10.00">gazebo/sensors/CameraSensor.hh</text>
</a>
</g>
</g>
<!-- Node1&#45;&gt;Node9 -->
<g id="edge31" class="edge">
<title>Node1&#45;&gt;Node9</title>
<path fill="none" stroke="midnightblue" d="M1638.14,-123.48C1585.73,-114.57 1501.32,-100.09 1428.5,-87 1313.35,-66.3 1178.7,-40.9 1105.22,-26.94"/>
<polygon fill="midnightblue" stroke="midnightblue" points="1105.75,-23.47 1095.27,-25.05 1104.44,-30.35 1105.75,-23.47"/>
</g>
<!-- Node11 -->
<g id="node11" class="node">
<title>Node11</title>
<g id="a_node11"><a xlink:title=" ">
<polygon fill="none" stroke="#bfbfbf" points="1159,-0.5 1159,-30.5 1322,-30.5 1322,-0.5 1159,-0.5"/>
<text text-anchor="start" x="1167" y="-18.5" font-family="FreeSans.ttf" font-size="10.00">gazebo/sensors/DepthCamera</text>
<text text-anchor="middle" x="1240.5" y="-7.5" font-family="FreeSans.ttf" font-size="10.00">Sensor.hh</text>
</a>
</g>
</g>
<!-- Node1&#45;&gt;Node11 -->
<g id="edge32" class="edge">
<title>Node1&#45;&gt;Node11</title>
<path fill="none" stroke="midnightblue" d="M1652.48,-123.43C1615.35,-114.54 1555.8,-100.12 1504.5,-87 1434.84,-69.18 1355.13,-47.75 1301.68,-33.23"/>
<polygon fill="midnightblue" stroke="midnightblue" points="1302.58,-29.85 1292.01,-30.6 1300.75,-36.6 1302.58,-29.85"/>
</g>
<!-- Node14 -->
<g id="node14" class="node">
<title>Node14</title>
<g id="a_node14"><a xlink:href="DepthCameraLog_8h.html" target="_top" xlink:title=" ">
<polygon fill="none" stroke="black" points="1513.5,-67.5 1513.5,-86.5 1623.5,-86.5 1623.5,-67.5 1513.5,-67.5"/>
<text text-anchor="middle" x="1568.5" y="-74.5" font-family="FreeSans.ttf" font-size="10.00">DepthCameraLog.h</text>
</a>
</g>
</g>
<!-- Node1&#45;&gt;Node14 -->
<g id="edge13" class="edge">
<title>Node1&#45;&gt;Node14</title>
<path fill="none" stroke="midnightblue" d="M1669.49,-123.44C1649.91,-114.64 1619.19,-100.81 1596.77,-90.72"/>
<polygon fill="midnightblue" stroke="midnightblue" points="1597.98,-87.43 1587.43,-86.52 1595.11,-93.81 1597.98,-87.43"/>
</g>
<!-- Node16 -->
<g id="node16" class="node">
<title>Node16</title>
<g id="a_node16"><a xlink:title=" ">
<polygon fill="none" stroke="#bfbfbf" points="1701,-6 1701,-25 1818,-25 1818,-6 1701,-6"/>
<text text-anchor="middle" x="1759.5" y="-13" font-family="FreeSans.ttf" font-size="10.00">yarp/os/LogStream.h</text>
</a>
</g>
</g>
<!-- Node1&#45;&gt;Node16 -->
<g id="edge18" class="edge">
<title>Node1&#45;&gt;Node16</title>
<path fill="none" stroke="midnightblue" d="M1682.17,-123.46C1673.4,-110.5 1659.78,-85.42 1670.5,-67 1681.08,-48.83 1700.91,-36.66 1719.16,-28.84"/>
<polygon fill="midnightblue" stroke="midnightblue" points="1720.5,-32.07 1728.51,-25.13 1717.92,-25.56 1720.5,-32.07"/>
</g>
<!-- Node17 -->
<g id="node17" class="node">
<title>Node17</title>
<g id="a_node17"><a xlink:title=" ">
<polygon fill="none" stroke="#bfbfbf" points="1679.5,-67.5 1679.5,-86.5 1771.5,-86.5 1771.5,-67.5 1679.5,-67.5"/>
<text text-anchor="middle" x="1725.5" y="-74.5" font-family="FreeSans.ttf" font-size="10.00">yarp/os/Value.h</text>
</a>
</g>
</g>
<!-- Node1&#45;&gt;Node17 -->
<g id="edge16" class="edge">
<title>Node1&#45;&gt;Node17</title>
<path fill="none" stroke="midnightblue" d="M1694.61,-123.08C1699.78,-115.53 1707.35,-104.49 1713.69,-95.23"/>
<polygon fill="midnightblue" stroke="midnightblue" points="1716.74,-96.98 1719.5,-86.75 1710.96,-93.02 1716.74,-96.98"/>
</g>
<!-- Node18 -->
<g id="node18" class="node">
<title>Node18</title>
<g id="a_node18"><a xlink:title=" ">
<polygon fill="none" stroke="#bfbfbf" points="1789.5,-67.5 1789.5,-86.5 1871.5,-86.5 1871.5,-67.5 1789.5,-67.5"/>
<text text-anchor="middle" x="1830.5" y="-74.5" font-family="FreeSans.ttf" font-size="10.00">yarp/os/Log.h</text>
</a>
</g>
</g>
<!-- Node1&#45;&gt;Node18 -->
<g id="edge17" class="edge">
<title>Node1&#45;&gt;Node18</title>
<path fill="none" stroke="midnightblue" d="M1711,-123.44C1734.58,-114.48 1771.82,-100.31 1798.46,-90.18"/>
<polygon fill="midnightblue" stroke="midnightblue" points="1800,-93.34 1808.1,-86.52 1797.51,-86.8 1800,-93.34"/>
</g>
<!-- Node19 -->
<g id="node19" class="node">
<title>Node19</title>
<g id="a_node19"><a xlink:href="Handler_8hh.html" target="_top" xlink:title=" ">
<polygon fill="none" stroke="black" points="1889.5,-67.5 1889.5,-86.5 2053.5,-86.5 2053.5,-67.5 1889.5,-67.5"/>
<text text-anchor="middle" x="1971.5" y="-74.5" font-family="FreeSans.ttf" font-size="10.00">GazeboYarpPlugins/Handler.hh</text>
</a>
</g>
</g>
<!-- Node1&#45;&gt;Node19 -->
<g id="edge20" class="edge">
<title>Node1&#45;&gt;Node19</title>
<path fill="none" stroke="midnightblue" d="M1733.34,-123.44C1783.12,-113.94 1863.48,-98.61 1916.89,-88.42"/>
<polygon fill="midnightblue" stroke="midnightblue" points="1917.7,-91.83 1926.87,-86.52 1916.39,-84.95 1917.7,-91.83"/>
</g>
<!-- Node25 -->
<g id="node25" class="node">
<title>Node25</title>
<g id="a_node25"><a xlink:href="common_8h.html" target="_top" xlink:title=" ">
<polygon fill="none" stroke="black" points="2071.5,-67.5 2071.5,-86.5 2235.5,-86.5 2235.5,-67.5 2071.5,-67.5"/>
<text text-anchor="middle" x="2153.5" y="-74.5" font-family="FreeSans.ttf" font-size="10.00">GazeboYarpPlugins/common.h</text>
</a>
</g>
</g>
<!-- Node1&#45;&gt;Node25 -->
<g id="edge28" class="edge">
<title>Node1&#45;&gt;Node25</title>
<path fill="none" stroke="midnightblue" d="M1755.62,-124.21C1838.68,-114.56 1980.15,-98.13 2070.1,-87.69"/>
<polygon fill="midnightblue" stroke="midnightblue" points="2070.74,-91.13 2080.27,-86.5 2069.93,-84.18 2070.74,-91.13"/>
</g>
<!-- Node27 -->
<g id="node27" class="node">
<title>Node27</title>
<g id="a_node27"><a xlink:title=" ">
<polygon fill="none" stroke="#bfbfbf" points="2254,-67.5 2254,-86.5 2421,-86.5 2421,-67.5 2254,-67.5"/>
<text text-anchor="middle" x="2337.5" y="-74.5" font-family="FreeSans.ttf" font-size="10.00">gazebo/rendering/Distortion.hh</text>
</a>
</g>
</g>
<!-- Node1&#45;&gt;Node27 -->
<g id="edge33" class="edge">
<title>Node1&#45;&gt;Node27</title>
<path fill="none" stroke="midnightblue" d="M1755.71,-126.9C1858.39,-119.04 2060.73,-103.25 2243.77,-87.05"/>
<polygon fill="midnightblue" stroke="midnightblue" points="2244.2,-90.53 2253.85,-86.16 2243.58,-83.55 2244.2,-90.53"/>
</g>
<!-- Node28 -->
<g id="node28" class="node">
<title>Node28</title>
<g id="a_node28"><a xlink:title=" ">
<polygon fill="none" stroke="#bfbfbf" points="2439.5,-67.5 2439.5,-86.5 2567.5,-86.5 2567.5,-67.5 2439.5,-67.5"/>
<text text-anchor="middle" x="2503.5" y="-74.5" font-family="FreeSans.ttf" font-size="10.00">ignition/math/Angle.hh</text>
</a>
</g>
</g>
<!-- Node1&#45;&gt;Node28 -->
<g id="edge34" class="edge">
<title>Node1&#45;&gt;Node28</title>
<path fill="none" stroke="midnightblue" d="M1755.62,-129.33C1884.2,-123.9 2174.36,-110.19 2429.23,-87.06"/>
<polygon fill="midnightblue" stroke="midnightblue" points="2429.79,-90.52 2439.43,-86.13 2429.15,-83.55 2429.79,-90.52"/>
</g>
<!-- Node3 -->
<g id="node3" class="node">
<title>Node3</title>
<g id="a_node3"><a xlink:title=" ">
<polygon fill="none" stroke="#bfbfbf" points="654.5,-6 654.5,-25 788.5,-25 788.5,-6 654.5,-6"/>
<text text-anchor="middle" x="721.5" y="-13" font-family="FreeSans.ttf" font-size="10.00">yarp/dev/DeviceDriver.h</text>
</a>
</g>
</g>
<!-- Node2&#45;&gt;Node3 -->
<g id="edge2" class="edge">
<title>Node2&#45;&gt;Node3</title>
<path fill="none" stroke="midnightblue" d="M927.97,-67.48C885.29,-56.94 812.58,-38.99 765.82,-27.44"/>
<polygon fill="midnightblue" stroke="midnightblue" points="766.51,-24.01 755.97,-25.01 764.83,-30.8 766.51,-24.01"/>
</g>
<!-- Node4 -->
<g id="node4" class="node">
<title>Node4</title>
<g id="a_node4"><a xlink:title=" ">
<polygon fill="none" stroke="#bfbfbf" points="807,-6 807,-25 942,-25 942,-6 807,-6"/>
<text text-anchor="middle" x="874.5" y="-13" font-family="FreeSans.ttf" font-size="10.00">yarp/dev/IRGBDSensor.h</text>
</a>
</g>
</g>
<!-- Node2&#45;&gt;Node4 -->
<g id="edge3" class="edge">
<title>Node2&#45;&gt;Node4</title>
<path fill="none" stroke="midnightblue" d="M949.89,-67.48C935.78,-57.93 912.67,-42.31 895.75,-30.87"/>
<polygon fill="midnightblue" stroke="midnightblue" points="897.33,-27.71 887.08,-25.01 893.41,-33.51 897.33,-27.71"/>
</g>
<!-- Node5 -->
<g id="node5" class="node">
<title>Node5</title>
<g id="a_node5"><a xlink:title=" ">
<polygon fill="none" stroke="#bfbfbf" points="107,-6 107,-25 256,-25 256,-6 107,-6"/>
<text text-anchor="middle" x="181.5" y="-13" font-family="FreeSans.ttf" font-size="10.00">yarp/dev/IPreciselyTimed.h</text>
</a>
</g>
</g>
<!-- Node2&#45;&gt;Node5 -->
<g id="edge4" class="edge">
<title>Node2&#45;&gt;Node5</title>
<path fill="none" stroke="midnightblue" d="M901.14,-74.28C779.38,-70.38 498.72,-58.93 264.5,-31 255.01,-29.87 244.96,-28.37 235.26,-26.77"/>
<polygon fill="midnightblue" stroke="midnightblue" points="235.75,-23.3 225.31,-25.07 234.57,-30.2 235.75,-23.3"/>
</g>
<!-- Node2&#45;&gt;Node6 -->
<g id="edge5" class="edge">
<title>Node2&#45;&gt;Node6</title>
<path fill="none" stroke="midnightblue" d="M901.43,-74.53C731.01,-70.16 252.65,-55.96 97.5,-31 92.08,-30.13 86.43,-28.92 80.91,-27.56"/>
<polygon fill="midnightblue" stroke="midnightblue" points="81.78,-24.17 71.22,-25.01 80,-30.94 81.78,-24.17"/>
</g>
<!-- Node7 -->
<g id="node7" class="node">
<title>Node7</title>
<g id="a_node7"><a xlink:title=" ">
<polygon fill="none" stroke="#bfbfbf" points="1497,-6 1497,-25 1616,-25 1616,-6 1497,-6"/>
<text text-anchor="middle" x="1556.5" y="-13" font-family="FreeSans.ttf" font-size="10.00">boost/shared_ptr.hpp</text>
</a>
</g>
</g>
<!-- Node2&#45;&gt;Node7 -->
<g id="edge6" class="edge">
<title>Node2&#45;&gt;Node7</title>
<path fill="none" stroke="midnightblue" d="M1023.81,-73.17C1122.07,-68.09 1320.75,-55.57 1487.5,-31 1494.91,-29.91 1502.72,-28.51 1510.31,-27.01"/>
<polygon fill="midnightblue" stroke="midnightblue" points="1511.03,-30.44 1520.12,-25.01 1509.62,-23.58 1511.03,-30.44"/>
</g>
<!-- Node8 -->
<g id="node8" class="node">
<title>Node8</title>
<g id="a_node8"><a xlink:title=" ">
<polygon fill="none" stroke="#bfbfbf" points="273.5,-6 273.5,-25 431.5,-25 431.5,-6 273.5,-6"/>
<text text-anchor="middle" x="352.5" y="-13" font-family="FreeSans.ttf" font-size="10.00">gazebo/rendering/Camera.hh</text>
</a>
</g>
</g>
<!-- Node2&#45;&gt;Node8 -->
<g id="edge7" class="edge">
<title>Node2&#45;&gt;Node8</title>
<path fill="none" stroke="midnightblue" d="M901.14,-72.3C803.26,-66.05 605.87,-51.99 439.5,-31 429.7,-29.76 419.32,-28.23 409.26,-26.63"/>
<polygon fill="midnightblue" stroke="midnightblue" points="409.79,-23.17 399.36,-25.01 408.66,-30.08 409.79,-23.17"/>
</g>
<!-- Node2&#45;&gt;Node9 -->
<g id="edge8" class="edge">
<title>Node2&#45;&gt;Node9</title>
<path fill="none" stroke="midnightblue" d="M975.11,-67.48C989.22,-57.93 1012.33,-42.31 1029.25,-30.87"/>
<polygon fill="midnightblue" stroke="midnightblue" points="1031.59,-33.51 1037.92,-25.01 1027.67,-27.71 1031.59,-33.51"/>
</g>
<!-- Node10 -->
<g id="node10" class="node">
<title>Node10</title>
<g id="a_node10"><a xlink:title=" ">
<polygon fill="none" stroke="#bfbfbf" points="449,-6 449,-25 636,-25 636,-6 449,-6"/>
<text text-anchor="middle" x="542.5" y="-13" font-family="FreeSans.ttf" font-size="10.00">gazebo/rendering/DepthCamera.hh</text>
</a>
</g>
</g>
<!-- Node2&#45;&gt;Node10 -->
<g id="edge9" class="edge">
<title>Node2&#45;&gt;Node10</title>
<path fill="none" stroke="midnightblue" d="M902.32,-67.48C825.76,-56.63 693.74,-37.93 612.68,-26.44"/>
<polygon fill="midnightblue" stroke="midnightblue" points="612.96,-22.95 602.56,-25.01 611.97,-29.88 612.96,-22.95"/>
</g>
<!-- Node2&#45;&gt;Node11 -->
<g id="edge10" class="edge">
<title>Node2&#45;&gt;Node11</title>
<path fill="none" stroke="midnightblue" d="M1002.33,-67.48C1044.64,-58.42 1112.54,-43.89 1165.03,-32.65"/>
<polygon fill="midnightblue" stroke="midnightblue" points="1165.93,-36.04 1174.98,-30.52 1164.47,-29.19 1165.93,-36.04"/>
</g>
<!-- Node12 -->
<g id="node12" class="node">
<title>Node12</title>
<g id="a_node12"><a xlink:title=" ">
<polygon fill="none" stroke="#bfbfbf" points="2469,-6 2469,-25 2516,-25 2516,-6 2469,-6"/>
<text text-anchor="middle" x="2492.5" y="-13" font-family="FreeSans.ttf" font-size="10.00">cmath</text>
</a>
</g>
</g>
<!-- Node2&#45;&gt;Node12 -->
<g id="edge11" class="edge">
<title>Node2&#45;&gt;Node12</title>
<path fill="none" stroke="midnightblue" d="M1023.54,-74.84C1295.85,-69.57 2389.53,-47.45 2460.5,-31 2462.86,-30.45 2465.25,-29.73 2467.61,-28.89"/>
<polygon fill="midnightblue" stroke="midnightblue" points="2469.08,-32.07 2476.98,-25.02 2466.41,-25.61 2469.08,-32.07"/>
</g>
<!-- Node13 -->
<g id="node13" class="node">
<title>Node13</title>
<g id="a_node13"><a xlink:title=" ">
<polygon fill="none" stroke="#bfbfbf" points="1634.5,-6 1634.5,-25 1682.5,-25 1682.5,-6 1634.5,-6"/>
<text text-anchor="middle" x="1658.5" y="-13" font-family="FreeSans.ttf" font-size="10.00">mutex</text>
</a>
</g>
</g>
<!-- Node2&#45;&gt;Node13 -->
<g id="edge12" class="edge">
<title>Node2&#45;&gt;Node13</title>
<path fill="none" stroke="midnightblue" d="M1023.71,-74.54C1165.39,-70.73 1512.41,-58.78 1625.5,-31 1627.86,-30.42 1630.26,-29.68 1632.64,-28.85"/>
<polygon fill="midnightblue" stroke="midnightblue" points="1634.14,-32.02 1642.11,-25.04 1631.52,-25.53 1634.14,-32.02"/>
</g>
<!-- Node15 -->
<g id="node15" class="node">
<title>Node15</title>
<g id="a_node15"><a xlink:title=" ">
<polygon fill="none" stroke="#bfbfbf" points="1340.5,-6 1340.5,-25 1478.5,-25 1478.5,-6 1340.5,-6"/>
<text text-anchor="middle" x="1409.5" y="-13" font-family="FreeSans.ttf" font-size="10.00">yarp/os/LogComponent.h</text>
</a>
</g>
</g>
<!-- Node14&#45;&gt;Node15 -->
<g id="edge14" class="edge">
<title>Node14&#45;&gt;Node15</title>
<path fill="none" stroke="midnightblue" d="M1545.72,-67.48C1518.45,-57.27 1472.59,-40.11 1441.7,-28.55"/>
<polygon fill="midnightblue" stroke="midnightblue" points="1442.83,-25.24 1432.24,-25.01 1440.38,-31.79 1442.83,-25.24"/>
</g>
<!-- Node14&#45;&gt;Node16 -->
<g id="edge15" class="edge">
<title>Node14&#45;&gt;Node16</title>
<path fill="none" stroke="midnightblue" d="M1595.87,-67.48C1629.05,-57.14 1685.15,-39.66 1722.26,-28.1"/>
<polygon fill="midnightblue" stroke="midnightblue" points="1723.68,-31.32 1732.19,-25.01 1721.6,-24.64 1723.68,-31.32"/>
</g>
<!-- Node19&#45;&gt;Node7 -->
<g id="edge23" class="edge">
<title>Node19&#45;&gt;Node7</title>
<path fill="none" stroke="midnightblue" d="M1892.22,-67.47C1821.92,-59.48 1716.57,-46.47 1625.5,-31 1618.69,-29.84 1611.53,-28.49 1604.5,-27.09"/>
<polygon fill="midnightblue" stroke="midnightblue" points="1604.86,-23.59 1594.36,-25.01 1603.45,-30.45 1604.86,-23.59"/>
</g>
<!-- Node19&#45;&gt;Node13 -->
<g id="edge24" class="edge">
<title>Node19&#45;&gt;Node13</title>
<path fill="none" stroke="midnightblue" d="M1889.47,-68.08C1833.26,-61.37 1757.42,-49.78 1692.5,-31 1690.21,-30.34 1687.87,-29.56 1685.54,-28.72"/>
<polygon fill="midnightblue" stroke="midnightblue" points="1686.79,-25.45 1676.2,-25.01 1684.2,-31.96 1686.79,-25.45"/>
</g>
<!-- Node20 -->
<g id="node20" class="node">
<title>Node20</title>
<g id="a_node20"><a xlink:title=" ">
<polygon fill="none" stroke="#bfbfbf" points="2301.5,-6 2301.5,-25 2339.5,-25 2339.5,-6 2301.5,-6"/>
<text text-anchor="middle" x="2320.5" y="-13" font-family="FreeSans.ttf" font-size="10.00">map</text>
</a>
</g>
</g>
<!-- Node19&#45;&gt;Node20 -->
<g id="edge21" class="edge">
<title>Node19&#45;&gt;Node20</title>
<path fill="none" stroke="midnightblue" d="M2053.77,-67.84C2134.09,-59.27 2250.31,-45.11 2293.5,-31 2294.92,-30.54 2296.36,-30 2297.79,-29.41"/>
<polygon fill="midnightblue" stroke="midnightblue" points="2299.42,-32.51 2306.91,-25.01 2296.38,-26.2 2299.42,-32.51"/>
</g>
<!-- Node21 -->
<g id="node21" class="node">
<title>Node21</title>
<g id="a_node21"><a xlink:title=" ">
<polygon fill="none" stroke="#bfbfbf" points="2358,-6 2358,-25 2451,-25 2451,-6 2358,-6"/>
<text text-anchor="middle" x="2404.5" y="-13" font-family="FreeSans.ttf" font-size="10.00">sdf/sdf_config.h</text>
</a>
</g>
</g>
<!-- Node19&#45;&gt;Node21 -->
<g id="edge22" class="edge">
<title>Node19&#45;&gt;Node21</title>
<path fill="none" stroke="midnightblue" d="M2053.56,-67.51C2147,-57.62 2293.76,-41.3 2348.5,-31 2353.87,-29.99 2359.48,-28.75 2364.99,-27.44"/>
<polygon fill="midnightblue" stroke="midnightblue" points="2365.88,-30.82 2374.73,-25 2364.18,-24.03 2365.88,-30.82"/>
</g>
<!-- Node22 -->
<g id="node22" class="node">
<title>Node22</title>
<g id="a_node22"><a xlink:title=" ">
<polygon fill="none" stroke="#bfbfbf" points="1836.5,-6 1836.5,-25 1958.5,-25 1958.5,-6 1836.5,-6"/>
<text text-anchor="middle" x="1897.5" y="-13" font-family="FreeSans.ttf" font-size="10.00">yarp/dev/PolyDriver.h</text>
</a>
</g>
</g>
<!-- Node19&#45;&gt;Node22 -->
<g id="edge25" class="edge">
<title>Node19&#45;&gt;Node22</title>
<path fill="none" stroke="midnightblue" d="M1960.9,-67.48C1949.25,-58.11 1930.31,-42.88 1916.17,-31.51"/>
<polygon fill="midnightblue" stroke="midnightblue" points="1918.07,-28.55 1908.08,-25.01 1913.68,-34 1918.07,-28.55"/>
</g>
<!-- Node23 -->
<g id="node23" class="node">
<title>Node23</title>
<g id="a_node23"><a xlink:title=" ">
<polygon fill="none" stroke="#bfbfbf" points="1976.5,-6 1976.5,-25 2116.5,-25 2116.5,-6 1976.5,-6"/>
<text text-anchor="middle" x="2046.5" y="-13" font-family="FreeSans.ttf" font-size="10.00">yarp/dev/PolyDriverList.h</text>
</a>
</g>
</g>
<!-- Node19&#45;&gt;Node23 -->
<g id="edge26" class="edge">
<title>Node19&#45;&gt;Node23</title>
<path fill="none" stroke="midnightblue" d="M1982.25,-67.48C1994.05,-58.11 2013.24,-42.88 2027.58,-31.51"/>
<polygon fill="midnightblue" stroke="midnightblue" points="2030.12,-33.97 2035.77,-25.01 2025.76,-28.48 2030.12,-33.97"/>
</g>
<!-- Node24 -->
<g id="node24" class="node">
<title>Node24</title>
<g id="a_node24"><a xlink:title=" ">
<polygon fill="none" stroke="#bfbfbf" points="2135,-6 2135,-25 2284,-25 2284,-6 2135,-6"/>
<text text-anchor="middle" x="2209.5" y="-13" font-family="FreeSans.ttf" font-size="10.00">gazebo/common/Events.hh</text>
</a>
</g>
</g>
<!-- Node19&#45;&gt;Node24 -->
<g id="edge27" class="edge">
<title>Node19&#45;&gt;Node24</title>
<path fill="none" stroke="midnightblue" d="M2005.6,-67.48C2047.75,-56.94 2119.55,-38.99 2165.73,-27.44"/>
<polygon fill="midnightblue" stroke="midnightblue" points="2166.61,-30.83 2175.46,-25.01 2164.91,-24.04 2166.61,-30.83"/>
</g>
<!-- Node25&#45;&gt;Node12 -->
<g id="edge30" class="edge">
<title>Node25&#45;&gt;Node12</title>
<path fill="none" stroke="midnightblue" d="M2228.23,-67.48C2304.74,-58.32 2418.25,-43.4 2460.5,-31 2462.43,-30.43 2464.4,-29.77 2466.35,-29.05"/>
<polygon fill="midnightblue" stroke="midnightblue" points="2468.01,-32.15 2475.9,-25.08 2465.32,-25.69 2468.01,-32.15"/>
</g>
<!-- Node26 -->
<g id="node26" class="node">
<title>Node26</title>
<g id="a_node26"><a xlink:title=" ">
<polygon fill="none" stroke="#bfbfbf" points="2534.5,-6 2534.5,-25 2578.5,-25 2578.5,-6 2534.5,-6"/>
<text text-anchor="middle" x="2556.5" y="-13" font-family="FreeSans.ttf" font-size="10.00">string</text>
</a>
</g>
</g>
<!-- Node25&#45;&gt;Node26 -->
<g id="edge29" class="edge">
<title>Node25&#45;&gt;Node26</title>
<path fill="none" stroke="midnightblue" d="M2235.61,-67.46C2336.68,-56.73 2498.33,-38.78 2525.5,-31 2527.43,-30.45 2529.39,-29.79 2531.33,-29.06"/>
<polygon fill="midnightblue" stroke="midnightblue" points="2532.96,-32.17 2540.79,-25.03 2530.21,-25.73 2532.96,-32.17"/>
</g>
</g>
</svg>
