<?xml version="1.0" encoding="UTF-8" standalone="no"?>
<!DOCTYPE svg PUBLIC "-//W3C//DTD SVG 1.1//EN"
 "http://www.w3.org/Graphics/SVG/1.1/DTD/svg11.dtd">
<!-- Generated by graphviz version 2.43.0 (0)
 -->
<!-- Title: src Pages: 1 -->
<svg width="167pt" height="167pt"
 viewBox="0.00 0.00 167.00 167.00" xmlns="http://www.w3.org/2000/svg" xmlns:xlink="http://www.w3.org/1999/xlink">
<g id="graph0" class="graph" transform="scale(1 1) rotate(0) translate(4 163)">
<title>src</title>
<g id="clust1" class="cluster">
<title>clusterdir_e8ec0f3129f466169cbba7d2ee236ca6</title>
<g id="a_clust1"><a xlink:href="dir_e8ec0f3129f466169cbba7d2ee236ca6.html" target="_top" xlink:title="robotinterface">
<polygon fill="#ddddee" stroke="black" points="8,-8 8,-151 94,-151 94,-8 8,-8"/>
<text text-anchor="middle" x="51" y="-139" font-family="FreeSans.ttf" font-size="10.00">robotinterface</text>
</a>
</g>
</g>
<!-- dir_10d1785bce240e0d92df2be06dfac1e4 -->
<g id="node1" class="node">
<title>dir_10d1785bce240e0d92df2be06dfac1e4</title>
<g id="a_node1"><a xlink:href="dir_10d1785bce240e0d92df2be06dfac1e4.html" target="_top" xlink:title="include">
<polygon fill="none" stroke="red" points="85,-52 31,-52 31,-16 85,-16 85,-52"/>
<text text-anchor="middle" x="58" y="-31.5" font-family="FreeSans.ttf" font-size="10.00">include</text>
</a>
</g>
</g>
<!-- dir_c98ad360c2784556c7d658363593a3a0 -->
<g id="node2" class="node">
<title>dir_c98ad360c2784556c7d658363593a3a0</title>
<g id="a_node2"><a xlink:href="dir_c98ad360c2784556c7d658363593a3a0.html" target="_top" xlink:title="src">
<polygon fill="#eeeeff" stroke="black" points="85,-124 31,-124 31,-88 85,-88 85,-124"/>
<text text-anchor="middle" x="58" y="-103.5" font-family="FreeSans.ttf" font-size="10.00">src</text>
</a>
</g>
</g>
<!-- dir_c98ad360c2784556c7d658363593a3a0&#45;&gt;dir_10d1785bce240e0d92df2be06dfac1e4 -->
<g id="edge1" class="edge">
<title>dir_c98ad360c2784556c7d658363593a3a0&#45;&gt;dir_10d1785bce240e0d92df2be06dfac1e4</title>
<path fill="none" stroke="black" d="M58,-87.7C58,-79.98 58,-70.71 58,-62.11"/>
<polygon fill="black" stroke="black" points="61.5,-62.1 58,-52.1 54.5,-62.1 61.5,-62.1"/>
<g id="a_edge1&#45;headlabel"><a xlink:href="dir_000088_000089.html" target="_top" xlink:title="1">
<text text-anchor="middle" x="64.34" y="-63.2" font-family="FreeSans.ttf" font-size="10.00">1</text>
</a>
</g>
</g>
<!-- dir_bc0718b08fb2015b8e59c47b2805f60c -->
<g id="node3" class="node">
<title>dir_bc0718b08fb2015b8e59c47b2805f60c</title>
<g id="a_node3"><a xlink:href="dir_bc0718b08fb2015b8e59c47b2805f60c.html" target="_top" xlink:title="libraries">
<polygon fill="none" stroke="red" points="159,-52 103,-52 103,-16 159,-16 159,-52"/>
<text text-anchor="middle" x="131" y="-31.5" font-family="FreeSans.ttf" font-size="10.00">libraries</text>
</a>
</g>
</g>
<!-- dir_c98ad360c2784556c7d658363593a3a0&#45;&gt;dir_bc0718b08fb2015b8e59c47b2805f60c -->
<g id="edge2" class="edge">
<title>dir_c98ad360c2784556c7d658363593a3a0&#45;&gt;dir_bc0718b08fb2015b8e59c47b2805f60c</title>
<path fill="none" stroke="black" d="M76.04,-87.7C85.06,-79.05 96.12,-68.45 105.94,-59.03"/>
<polygon fill="black" stroke="black" points="108.37,-61.55 113.16,-52.1 103.52,-56.5 108.37,-61.55"/>
<g id="a_edge2&#45;headlabel"><a xlink:href="dir_000088_000037.html" target="_top" xlink:title="2">
<text text-anchor="middle" x="107.74" y="-63.59" font-family="FreeSans.ttf" font-size="10.00">2</text>
</a>
</g>
</g>
</g>
</svg>
