<?xml version="1.0" encoding="UTF-8" standalone="no"?>
<!DOCTYPE svg PUBLIC "-//W3C//DTD SVG 1.1//EN"
 "http://www.w3.org/Graphics/SVG/1.1/DTD/svg11.dtd">
<!-- Generated by graphviz version 2.43.0 (0)
 -->
<!-- Title: inertialmtb Pages: 1 -->
<svg width="256pt" height="183pt"
 viewBox="0.00 0.00 256.00 183.00" xmlns="http://www.w3.org/2000/svg" xmlns:xlink="http://www.w3.org/1999/xlink">
<g id="graph0" class="graph" transform="scale(1 1) rotate(0) translate(4 179)">
<title>inertialmtb</title>
<g id="clust1" class="cluster">
<title>clusterdir_38c8d24aef3972a7f87b834274e76e31</title>
<g id="a_clust1"><a xlink:href="dir_38c8d24aef3972a7f87b834274e76e31.html" target="_top" xlink:title="plugins">
<polygon fill="#ddddee" stroke="black" points="8,-8 8,-167 184,-167 184,-8 8,-8"/>
<text text-anchor="middle" x="96" y="-155" font-family="FreeSans.ttf" font-size="10.00">plugins</text>
</a>
</g>
</g>
<g id="clust2" class="cluster">
<title>clusterdir_6f04e49acb188dd6b84dcf25123367d6</title>
<g id="a_clust2"><a xlink:href="dir_6f04e49acb188dd6b84dcf25123367d6.html" target="_top">
<polygon fill="#eeeeff" stroke="black" points="16,-16 16,-140 176,-140 176,-16 16,-16"/>
</a>
</g>
</g>
<!-- dir_6f04e49acb188dd6b84dcf25123367d6 -->
<g id="node1" class="node">
<title>dir_6f04e49acb188dd6b84dcf25123367d6</title>
<text text-anchor="middle" x="132" y="-111.5" font-family="FreeSans.ttf" font-size="10.00">inertialmtb</text>
</g>
<!-- dir_8fd931d6b1b4cb2174e5d43c75577a4f -->
<g id="node2" class="node">
<title>dir_8fd931d6b1b4cb2174e5d43c75577a4f</title>
<g id="a_node2"><a xlink:href="dir_8fd931d6b1b4cb2174e5d43c75577a4f.html" target="_top" xlink:title="include">
<polygon fill="white" stroke="red" points="78,-60 24,-60 24,-24 78,-24 78,-60"/>
<text text-anchor="middle" x="51" y="-39.5" font-family="FreeSans.ttf" font-size="10.00">include</text>
</a>
</g>
</g>
<!-- dir_4ba682ae8baeb7772ad21914679f525a -->
<g id="node3" class="node">
<title>dir_4ba682ae8baeb7772ad21914679f525a</title>
<g id="a_node3"><a xlink:href="dir_4ba682ae8baeb7772ad21914679f525a.html" target="_top" xlink:title="src">
<polygon fill="white" stroke="black" points="78,-132 24,-132 24,-96 78,-96 78,-132"/>
<text text-anchor="middle" x="51" y="-111.5" font-family="FreeSans.ttf" font-size="10.00">src</text>
</a>
</g>
</g>
<!-- dir_4ba682ae8baeb7772ad21914679f525a&#45;&gt;dir_8fd931d6b1b4cb2174e5d43c75577a4f -->
<g id="edge1" class="edge">
<title>dir_4ba682ae8baeb7772ad21914679f525a&#45;&gt;dir_8fd931d6b1b4cb2174e5d43c75577a4f</title>
<path fill="none" stroke="black" d="M51,-95.7C51,-87.98 51,-78.71 51,-70.11"/>
<polygon fill="black" stroke="black" points="54.5,-70.1 51,-60.1 47.5,-70.1 54.5,-70.1"/>
<g id="a_edge1&#45;headlabel"><a xlink:href="dir_000098_000099.html" target="_top" xlink:title="1">
<text text-anchor="middle" x="57.34" y="-71.2" font-family="FreeSans.ttf" font-size="10.00">1</text>
</a>
</g>
</g>
<!-- dir_bc0718b08fb2015b8e59c47b2805f60c -->
<g id="node4" class="node">
<title>dir_bc0718b08fb2015b8e59c47b2805f60c</title>
<g id="a_node4"><a xlink:href="dir_bc0718b08fb2015b8e59c47b2805f60c.html" target="_top" xlink:title="libraries">
<polygon fill="none" stroke="red" points="248,-60 192,-60 192,-24 248,-24 248,-60"/>
<text text-anchor="middle" x="220" y="-39.5" font-family="FreeSans.ttf" font-size="10.00">libraries</text>
</a>
</g>
</g>
<!-- dir_4ba682ae8baeb7772ad21914679f525a&#45;&gt;dir_bc0718b08fb2015b8e59c47b2805f60c -->
<g id="edge2" class="edge">
<title>dir_4ba682ae8baeb7772ad21914679f525a&#45;&gt;dir_bc0718b08fb2015b8e59c47b2805f60c</title>
<path fill="none" stroke="black" d="M78.4,-100.2C81.62,-98.75 84.88,-97.33 88,-96 128.41,-78.83 139.35,-76.59 180,-60 180.71,-59.71 181.42,-59.42 182.14,-59.12"/>
<polygon fill="black" stroke="black" points="183.75,-62.25 191.64,-55.17 181.06,-55.78 183.75,-62.25"/>
<g id="a_edge2&#45;headlabel"><a xlink:href="dir_000098_000037.html" target="_top" xlink:title="3">
<text text-anchor="middle" x="181.52" y="-63.75" font-family="FreeSans.ttf" font-size="10.00">3</text>
</a>
</g>
</g>
</g>
</svg>
