<?xml version="1.0" encoding="UTF-8" standalone="no"?>
<!DOCTYPE svg PUBLIC "-//W3C//DTD SVG 1.1//EN"
 "http://www.w3.org/Graphics/SVG/1.1/DTD/svg11.dtd">
<!-- Generated by graphviz version 2.43.0 (0)
 -->
<!-- Title: controlboard Pages: 1 -->
<svg width="262pt" height="183pt"
 viewBox="0.00 0.00 262.00 183.00" xmlns="http://www.w3.org/2000/svg" xmlns:xlink="http://www.w3.org/1999/xlink">
<g id="graph0" class="graph" transform="scale(1 1) rotate(0) translate(4 179)">
<title>controlboard</title>
<g id="clust1" class="cluster">
<title>clusterdir_38c8d24aef3972a7f87b834274e76e31</title>
<g id="a_clust1"><a xlink:href="dir_38c8d24aef3972a7f87b834274e76e31.html" target="_top" xlink:title="plugins">
<polygon fill="#ddddee" stroke="black" points="8,-8 8,-167 190,-167 190,-8 8,-8"/>
<text text-anchor="middle" x="99" y="-155" font-family="FreeSans.ttf" font-size="10.00">plugins</text>
</a>
</g>
</g>
<g id="clust2" class="cluster">
<title>clusterdir_9089f405ed28af813214a8e12b3cd4bc</title>
<g id="a_clust2"><a xlink:href="dir_9089f405ed28af813214a8e12b3cd4bc.html" target="_top">
<polygon fill="#eeeeff" stroke="black" points="16,-16 16,-140 182,-140 182,-16 16,-16"/>
</a>
</g>
</g>
<!-- dir_9089f405ed28af813214a8e12b3cd4bc -->
<g id="node1" class="node">
<title>dir_9089f405ed28af813214a8e12b3cd4bc</title>
<text text-anchor="middle" x="135" y="-111.5" font-family="FreeSans.ttf" font-size="10.00">controlboard</text>
</g>
<!-- dir_b6a09f68c4111d0d27b8bbb83b80891a -->
<g id="node2" class="node">
<title>dir_b6a09f68c4111d0d27b8bbb83b80891a</title>
<g id="a_node2"><a xlink:href="dir_b6a09f68c4111d0d27b8bbb83b80891a.html" target="_top" xlink:title="include">
<polygon fill="white" stroke="red" points="78,-60 24,-60 24,-24 78,-24 78,-60"/>
<text text-anchor="middle" x="51" y="-39.5" font-family="FreeSans.ttf" font-size="10.00">include</text>
</a>
</g>
</g>
<!-- dir_934a71a13ecf5efa860396dde1838576 -->
<g id="node3" class="node">
<title>dir_934a71a13ecf5efa860396dde1838576</title>
<g id="a_node3"><a xlink:href="dir_934a71a13ecf5efa860396dde1838576.html" target="_top" xlink:title="src">
<polygon fill="white" stroke="black" points="78,-132 24,-132 24,-96 78,-96 78,-132"/>
<text text-anchor="middle" x="51" y="-111.5" font-family="FreeSans.ttf" font-size="10.00">src</text>
</a>
</g>
</g>
<!-- dir_934a71a13ecf5efa860396dde1838576&#45;&gt;dir_b6a09f68c4111d0d27b8bbb83b80891a -->
<g id="edge1" class="edge">
<title>dir_934a71a13ecf5efa860396dde1838576&#45;&gt;dir_b6a09f68c4111d0d27b8bbb83b80891a</title>
<path fill="none" stroke="black" d="M51,-95.7C51,-87.98 51,-78.71 51,-70.11"/>
<polygon fill="black" stroke="black" points="54.5,-70.1 51,-60.1 47.5,-70.1 54.5,-70.1"/>
<g id="a_edge1&#45;headlabel"><a xlink:href="dir_000056_000057.html" target="_top" xlink:title="21">
<text text-anchor="middle" x="57.34" y="-71.2" font-family="FreeSans.ttf" font-size="10.00">21</text>
</a>
</g>
</g>
<!-- dir_bc0718b08fb2015b8e59c47b2805f60c -->
<g id="node4" class="node">
<title>dir_bc0718b08fb2015b8e59c47b2805f60c</title>
<g id="a_node4"><a xlink:href="dir_bc0718b08fb2015b8e59c47b2805f60c.html" target="_top" xlink:title="libraries">
<polygon fill="none" stroke="red" points="254,-60 198,-60 198,-24 254,-24 254,-60"/>
<text text-anchor="middle" x="226" y="-39.5" font-family="FreeSans.ttf" font-size="10.00">libraries</text>
</a>
</g>
</g>
<!-- dir_934a71a13ecf5efa860396dde1838576&#45;&gt;dir_bc0718b08fb2015b8e59c47b2805f60c -->
<g id="edge2" class="edge">
<title>dir_934a71a13ecf5efa860396dde1838576&#45;&gt;dir_bc0718b08fb2015b8e59c47b2805f60c</title>
<path fill="none" stroke="black" d="M78.01,-99.92C81.02,-98.56 84.07,-97.22 87,-96 130.21,-77.98 142.44,-77.16 186,-60 186.71,-59.72 187.43,-59.44 188.15,-59.15"/>
<polygon fill="black" stroke="black" points="189.73,-62.28 197.67,-55.26 187.09,-55.8 189.73,-62.28"/>
<g id="a_edge2&#45;headlabel"><a xlink:href="dir_000056_000037.html" target="_top" xlink:title="8">
<text text-anchor="middle" x="187.48" y="-63.77" font-family="FreeSans.ttf" font-size="10.00">8</text>
</a>
</g>
</g>
</g>
</svg>
