<?xml version="1.0" encoding="UTF-8" standalone="no"?>
<!DOCTYPE svg PUBLIC "-//W3C//DTD SVG 1.1//EN"
 "http://www.w3.org/Graphics/SVG/1.1/DTD/svg11.dtd">
<!-- Generated by graphviz version 2.43.0 (0)
 -->
<!-- Title: basestate Pages: 1 -->
<svg width="194pt" height="231pt"
 viewBox="0.00 0.00 194.00 231.00" xmlns="http://www.w3.org/2000/svg" xmlns:xlink="http://www.w3.org/1999/xlink">
<g id="graph0" class="graph" transform="scale(1 1) rotate(0) translate(4 227)">
<title>basestate</title>
<g id="clust1" class="cluster">
<title>clusterdir_38c8d24aef3972a7f87b834274e76e31</title>
<g id="a_clust1"><a xlink:href="dir_38c8d24aef3972a7f87b834274e76e31.html" target="_top" xlink:title="plugins">
<polygon fill="#ddddee" stroke="black" points="8,-56 8,-215 178,-215 178,-56 8,-56"/>
<text text-anchor="middle" x="93" y="-203" font-family="FreeSans.ttf" font-size="10.00">plugins</text>
</a>
</g>
</g>
<g id="clust2" class="cluster">
<title>clusterdir_7841ec4a99b94e3d79b1689d8465e0e5</title>
<g id="a_clust2"><a xlink:href="dir_7841ec4a99b94e3d79b1689d8465e0e5.html" target="_top">
<polygon fill="#eeeeff" stroke="black" points="16,-64 16,-188 170,-188 170,-64 16,-64"/>
</a>
</g>
</g>
<!-- dir_7841ec4a99b94e3d79b1689d8465e0e5 -->
<g id="node1" class="node">
<title>dir_7841ec4a99b94e3d79b1689d8465e0e5</title>
<text text-anchor="middle" x="129" y="-159.5" font-family="FreeSans.ttf" font-size="10.00">basestate</text>
</g>
<!-- dir_394c1feabf8581d572202b727a0f24a5 -->
<g id="node2" class="node">
<title>dir_394c1feabf8581d572202b727a0f24a5</title>
<g id="a_node2"><a xlink:href="dir_394c1feabf8581d572202b727a0f24a5.html" target="_top" xlink:title="include">
<polygon fill="white" stroke="red" points="78,-108 24,-108 24,-72 78,-72 78,-108"/>
<text text-anchor="middle" x="51" y="-87.5" font-family="FreeSans.ttf" font-size="10.00">include</text>
</a>
</g>
</g>
<!-- dir_bc0718b08fb2015b8e59c47b2805f60c -->
<g id="node4" class="node">
<title>dir_bc0718b08fb2015b8e59c47b2805f60c</title>
<g id="a_node4"><a xlink:href="dir_bc0718b08fb2015b8e59c47b2805f60c.html" target="_top" xlink:title="libraries">
<polygon fill="none" stroke="red" points="79,-36 23,-36 23,0 79,0 79,-36"/>
<text text-anchor="middle" x="51" y="-15.5" font-family="FreeSans.ttf" font-size="10.00">libraries</text>
</a>
</g>
</g>
<!-- dir_394c1feabf8581d572202b727a0f24a5&#45;&gt;dir_bc0718b08fb2015b8e59c47b2805f60c -->
<g id="edge1" class="edge">
<title>dir_394c1feabf8581d572202b727a0f24a5&#45;&gt;dir_bc0718b08fb2015b8e59c47b2805f60c</title>
<path fill="none" stroke="black" d="M51,-71.7C51,-63.98 51,-54.71 51,-46.11"/>
<polygon fill="black" stroke="black" points="54.5,-46.1 51,-36.1 47.5,-46.1 54.5,-46.1"/>
<g id="a_edge1&#45;headlabel"><a xlink:href="dir_000007_000037.html" target="_top" xlink:title="5">
<text text-anchor="middle" x="57.34" y="-47.2" font-family="FreeSans.ttf" font-size="10.00">5</text>
</a>
</g>
</g>
<!-- dir_f4820e60b0517bf9dab778149eb2d088 -->
<g id="node3" class="node">
<title>dir_f4820e60b0517bf9dab778149eb2d088</title>
<g id="a_node3"><a xlink:href="dir_f4820e60b0517bf9dab778149eb2d088.html" target="_top" xlink:title="src">
<polygon fill="white" stroke="black" points="78,-180 24,-180 24,-144 78,-144 78,-180"/>
<text text-anchor="middle" x="51" y="-159.5" font-family="FreeSans.ttf" font-size="10.00">src</text>
</a>
</g>
</g>
<!-- dir_f4820e60b0517bf9dab778149eb2d088&#45;&gt;dir_394c1feabf8581d572202b727a0f24a5 -->
<g id="edge2" class="edge">
<title>dir_f4820e60b0517bf9dab778149eb2d088&#45;&gt;dir_394c1feabf8581d572202b727a0f24a5</title>
<path fill="none" stroke="black" d="M51,-143.7C51,-135.98 51,-126.71 51,-118.11"/>
<polygon fill="black" stroke="black" points="54.5,-118.1 51,-108.1 47.5,-118.1 54.5,-118.1"/>
<g id="a_edge2&#45;headlabel"><a xlink:href="dir_000006_000007.html" target="_top" xlink:title="3">
<text text-anchor="middle" x="57.34" y="-119.2" font-family="FreeSans.ttf" font-size="10.00">3</text>
</a>
</g>
</g>
</g>
</svg>
