<?xml version="1.0" encoding="UTF-8" standalone="no"?>
<!DOCTYPE svg PUBLIC "-//W3C//DTD SVG 1.1//EN"
 "http://www.w3.org/Graphics/SVG/1.1/DTD/svg11.dtd">
<!-- Generated by graphviz version 2.43.0 (0)
 -->
<!-- Title: src Pages: 1 -->
<svg width="160pt" height="167pt"
 viewBox="0.00 0.00 160.00 167.00" xmlns="http://www.w3.org/2000/svg" xmlns:xlink="http://www.w3.org/1999/xlink">
<g id="graph0" class="graph" transform="scale(1 1) rotate(0) translate(4 163)">
<title>src</title>
<g id="clust1" class="cluster">
<title>clusterdir_83dcf6cb8e1f1dde253047ac0989b620</title>
<g id="a_clust1"><a xlink:href="dir_83dcf6cb8e1f1dde253047ac0989b620.html" target="_top" xlink:title="videotexture">
<polygon fill="#ddddee" stroke="black" points="8,-8 8,-151 87,-151 87,-8 8,-8"/>
<text text-anchor="middle" x="47.5" y="-139" font-family="FreeSans.ttf" font-size="10.00">videotexture</text>
</a>
</g>
</g>
<!-- dir_e3cf51a20b2ed04c159bda17832fffa5 -->
<g id="node1" class="node">
<title>dir_e3cf51a20b2ed04c159bda17832fffa5</title>
<g id="a_node1"><a xlink:href="dir_e3cf51a20b2ed04c159bda17832fffa5.html" target="_top" xlink:title="include">
<polygon fill="none" stroke="black" points="78,-52 24,-52 24,-16 78,-16 78,-52"/>
<text text-anchor="middle" x="51" y="-31.5" font-family="FreeSans.ttf" font-size="10.00">include</text>
</a>
</g>
</g>
<!-- dir_8bda3f3a9d5993ad76c991ad22593b61 -->
<g id="node2" class="node">
<title>dir_8bda3f3a9d5993ad76c991ad22593b61</title>
<g id="a_node2"><a xlink:href="dir_8bda3f3a9d5993ad76c991ad22593b61.html" target="_top" xlink:title="src">
<polygon fill="#eeeeff" stroke="black" points="78,-124 24,-124 24,-88 78,-88 78,-124"/>
<text text-anchor="middle" x="51" y="-103.5" font-family="FreeSans.ttf" font-size="10.00">src</text>
</a>
</g>
</g>
<!-- dir_8bda3f3a9d5993ad76c991ad22593b61&#45;&gt;dir_e3cf51a20b2ed04c159bda17832fffa5 -->
<g id="edge2" class="edge">
<title>dir_8bda3f3a9d5993ad76c991ad22593b61&#45;&gt;dir_e3cf51a20b2ed04c159bda17832fffa5</title>
<path fill="none" stroke="black" d="M51,-87.7C51,-79.98 51,-70.71 51,-62.11"/>
<polygon fill="black" stroke="black" points="54.5,-62.1 51,-52.1 47.5,-62.1 54.5,-62.1"/>
<g id="a_edge2&#45;headlabel"><a xlink:href="dir_000153_000154.html" target="_top" xlink:title="1">
<text text-anchor="middle" x="57.34" y="-63.2" font-family="FreeSans.ttf" font-size="10.00">1</text>
</a>
</g>
</g>
<!-- dir_bc0718b08fb2015b8e59c47b2805f60c -->
<g id="node3" class="node">
<title>dir_bc0718b08fb2015b8e59c47b2805f60c</title>
<g id="a_node3"><a xlink:href="dir_bc0718b08fb2015b8e59c47b2805f60c.html" target="_top" xlink:title="libraries">
<polygon fill="none" stroke="red" points="152,-52 96,-52 96,-16 152,-16 152,-52"/>
<text text-anchor="middle" x="124" y="-31.5" font-family="FreeSans.ttf" font-size="10.00">libraries</text>
</a>
</g>
</g>
<!-- dir_8bda3f3a9d5993ad76c991ad22593b61&#45;&gt;dir_bc0718b08fb2015b8e59c47b2805f60c -->
<g id="edge1" class="edge">
<title>dir_8bda3f3a9d5993ad76c991ad22593b61&#45;&gt;dir_bc0718b08fb2015b8e59c47b2805f60c</title>
<path fill="none" stroke="black" d="M69.04,-87.7C78.06,-79.05 89.12,-68.45 98.94,-59.03"/>
<polygon fill="black" stroke="black" points="101.37,-61.55 106.16,-52.1 96.52,-56.5 101.37,-61.55"/>
<g id="a_edge1&#45;headlabel"><a xlink:href="dir_000153_000037.html" target="_top" xlink:title="3">
<text text-anchor="middle" x="100.74" y="-63.59" font-family="FreeSans.ttf" font-size="10.00">3</text>
</a>
</g>
</g>
</g>
</svg>
