<?xml version="1.0" encoding="UTF-8" standalone="no"?>
<!DOCTYPE svg PUBLIC "-//W3C//DTD SVG 1.1//EN"
 "http://www.w3.org/Graphics/SVG/1.1/DTD/svg11.dtd">
<!-- Generated by graphviz version 2.43.0 (0)
 -->
<!-- Title: autogenerated Pages: 1 -->
<svg width="216pt" height="183pt"
 viewBox="0.00 0.00 216.00 183.00" xmlns="http://www.w3.org/2000/svg" xmlns:xlink="http://www.w3.org/1999/xlink">
<g id="graph0" class="graph" transform="scale(1 1) rotate(0) translate(4 179)">
<title>autogenerated</title>
<g id="clust1" class="cluster">
<title>clusterdir_db390886e76f18899d47d0e6e4df6e7c</title>
<g id="a_clust1"><a xlink:href="dir_db390886e76f18899d47d0e6e4df6e7c.html" target="_top" xlink:title="clock">
<polygon fill="#ddddee" stroke="black" points="8,-8 8,-167 200,-167 200,-8 8,-8"/>
<text text-anchor="middle" x="104" y="-155" font-family="FreeSans.ttf" font-size="10.00">clock</text>
</a>
</g>
</g>
<g id="clust2" class="cluster">
<title>clusterdir_651871b98917fdd916038bef74dca5f8</title>
<g id="a_clust2"><a xlink:href="dir_651871b98917fdd916038bef74dca5f8.html" target="_top">
<polygon fill="#eeeeff" stroke="black" points="16,-16 16,-140 192,-140 192,-16 16,-16"/>
</a>
</g>
</g>
<!-- dir_651871b98917fdd916038bef74dca5f8 -->
<g id="node1" class="node">
<title>dir_651871b98917fdd916038bef74dca5f8</title>
<text text-anchor="middle" x="140" y="-111.5" font-family="FreeSans.ttf" font-size="10.00">autogenerated</text>
</g>
<!-- dir_e7baa1b23e6cb217600446c5590c2f79 -->
<g id="node2" class="node">
<title>dir_e7baa1b23e6cb217600446c5590c2f79</title>
<g id="a_node2"><a xlink:href="dir_e7baa1b23e6cb217600446c5590c2f79.html" target="_top" xlink:title="include">
<polygon fill="white" stroke="red" points="78,-60 24,-60 24,-24 78,-24 78,-60"/>
<text text-anchor="middle" x="51" y="-39.5" font-family="FreeSans.ttf" font-size="10.00">include</text>
</a>
</g>
</g>
<!-- dir_db87fd0f93255d985265c310d86c8c95 -->
<g id="node3" class="node">
<title>dir_db87fd0f93255d985265c310d86c8c95</title>
<g id="a_node3"><a xlink:href="dir_db87fd0f93255d985265c310d86c8c95.html" target="_top" xlink:title="src">
<polygon fill="white" stroke="black" points="78,-132 24,-132 24,-96 78,-96 78,-132"/>
<text text-anchor="middle" x="51" y="-111.5" font-family="FreeSans.ttf" font-size="10.00">src</text>
</a>
</g>
</g>
<!-- dir_db87fd0f93255d985265c310d86c8c95&#45;&gt;dir_e7baa1b23e6cb217600446c5590c2f79 -->
<g id="edge1" class="edge">
<title>dir_db87fd0f93255d985265c310d86c8c95&#45;&gt;dir_e7baa1b23e6cb217600446c5590c2f79</title>
<path fill="none" stroke="black" d="M51,-95.7C51,-87.98 51,-78.71 51,-70.11"/>
<polygon fill="black" stroke="black" points="54.5,-70.1 51,-60.1 47.5,-70.1 54.5,-70.1"/>
<g id="a_edge1&#45;headlabel"><a xlink:href="dir_000024_000025.html" target="_top" xlink:title="1">
<text text-anchor="middle" x="57.34" y="-71.2" font-family="FreeSans.ttf" font-size="10.00">1</text>
</a>
</g>
</g>
</g>
</svg>
