<?xml version="1.0" encoding="UTF-8" standalone="no"?>
<!DOCTYPE svg PUBLIC "-//W3C//DTD SVG 1.1//EN"
 "http://www.w3.org/Graphics/SVG/1.1/DTD/svg11.dtd">
<!-- Generated by graphviz version 2.43.0 (0)
 -->
<!-- Title: doublelaser Pages: 1 -->
<svg width="258pt" height="183pt"
 viewBox="0.00 0.00 258.00 183.00" xmlns="http://www.w3.org/2000/svg" xmlns:xlink="http://www.w3.org/1999/xlink">
<g id="graph0" class="graph" transform="scale(1 1) rotate(0) translate(4 179)">
<title>doublelaser</title>
<g id="clust1" class="cluster">
<title>clusterdir_38c8d24aef3972a7f87b834274e76e31</title>
<g id="a_clust1"><a xlink:href="dir_38c8d24aef3972a7f87b834274e76e31.html" target="_top" xlink:title="plugins">
<polygon fill="#ddddee" stroke="black" points="8,-8 8,-167 186,-167 186,-8 8,-8"/>
<text text-anchor="middle" x="97" y="-155" font-family="FreeSans.ttf" font-size="10.00">plugins</text>
</a>
</g>
</g>
<g id="clust2" class="cluster">
<title>clusterdir_a93889490c023186069c9943c08c68cb</title>
<g id="a_clust2"><a xlink:href="dir_a93889490c023186069c9943c08c68cb.html" target="_top">
<polygon fill="#eeeeff" stroke="black" points="16,-16 16,-140 178,-140 178,-16 16,-16"/>
</a>
</g>
</g>
<!-- dir_a93889490c023186069c9943c08c68cb -->
<g id="node1" class="node">
<title>dir_a93889490c023186069c9943c08c68cb</title>
<text text-anchor="middle" x="133" y="-111.5" font-family="FreeSans.ttf" font-size="10.00">doublelaser</text>
</g>
<!-- dir_df4c65ac9db640197a3662c4b8f5b3ba -->
<g id="node2" class="node">
<title>dir_df4c65ac9db640197a3662c4b8f5b3ba</title>
<g id="a_node2"><a xlink:href="dir_df4c65ac9db640197a3662c4b8f5b3ba.html" target="_top" xlink:title="include">
<polygon fill="white" stroke="red" points="78,-60 24,-60 24,-24 78,-24 78,-60"/>
<text text-anchor="middle" x="51" y="-39.5" font-family="FreeSans.ttf" font-size="10.00">include</text>
</a>
</g>
</g>
<!-- dir_9ca8c036a41a6e0319051fd6d7b2165e -->
<g id="node3" class="node">
<title>dir_9ca8c036a41a6e0319051fd6d7b2165e</title>
<g id="a_node3"><a xlink:href="dir_9ca8c036a41a6e0319051fd6d7b2165e.html" target="_top" xlink:title="src">
<polygon fill="white" stroke="black" points="78,-132 24,-132 24,-96 78,-96 78,-132"/>
<text text-anchor="middle" x="51" y="-111.5" font-family="FreeSans.ttf" font-size="10.00">src</text>
</a>
</g>
</g>
<!-- dir_9ca8c036a41a6e0319051fd6d7b2165e&#45;&gt;dir_df4c65ac9db640197a3662c4b8f5b3ba -->
<g id="edge2" class="edge">
<title>dir_9ca8c036a41a6e0319051fd6d7b2165e&#45;&gt;dir_df4c65ac9db640197a3662c4b8f5b3ba</title>
<path fill="none" stroke="black" d="M51,-95.7C51,-87.98 51,-78.71 51,-70.11"/>
<polygon fill="black" stroke="black" points="54.5,-70.1 51,-60.1 47.5,-70.1 54.5,-70.1"/>
<g id="a_edge2&#45;headlabel"><a xlink:href="dir_000068_000069.html" target="_top" xlink:title="1">
<text text-anchor="middle" x="57.34" y="-71.2" font-family="FreeSans.ttf" font-size="10.00">1</text>
</a>
</g>
</g>
<!-- dir_bc0718b08fb2015b8e59c47b2805f60c -->
<g id="node4" class="node">
<title>dir_bc0718b08fb2015b8e59c47b2805f60c</title>
<g id="a_node4"><a xlink:href="dir_bc0718b08fb2015b8e59c47b2805f60c.html" target="_top" xlink:title="libraries">
<polygon fill="none" stroke="red" points="250,-60 194,-60 194,-24 250,-24 250,-60"/>
<text text-anchor="middle" x="222" y="-39.5" font-family="FreeSans.ttf" font-size="10.00">libraries</text>
</a>
</g>
</g>
<!-- dir_9ca8c036a41a6e0319051fd6d7b2165e&#45;&gt;dir_bc0718b08fb2015b8e59c47b2805f60c -->
<g id="edge1" class="edge">
<title>dir_9ca8c036a41a6e0319051fd6d7b2165e&#45;&gt;dir_bc0718b08fb2015b8e59c47b2805f60c</title>
<path fill="none" stroke="black" d="M78.02,-99.96C81.04,-98.59 84.07,-97.24 87,-96 128.56,-78.35 140.1,-76.83 182,-60 182.71,-59.72 183.42,-59.43 184.14,-59.13"/>
<polygon fill="black" stroke="black" points="185.74,-62.26 193.65,-55.21 183.07,-55.79 185.74,-62.26"/>
<g id="a_edge1&#45;headlabel"><a xlink:href="dir_000068_000037.html" target="_top" xlink:title="3">
<text text-anchor="middle" x="183.5" y="-63.76" font-family="FreeSans.ttf" font-size="10.00">3</text>
</a>
</g>
</g>
</g>
</svg>
