<?xml version="1.0" encoding="UTF-8" standalone="no"?>
<!DOCTYPE svg PUBLIC "-//W3C//DTD SVG 1.1//EN"
 "http://www.w3.org/Graphics/SVG/1.1/DTD/svg11.dtd">
<!-- Generated by graphviz version 2.43.0 (0)
 -->
<!-- Title: src Pages: 1 -->
<svg width="170pt" height="167pt"
 viewBox="0.00 0.00 170.00 167.00" xmlns="http://www.w3.org/2000/svg" xmlns:xlink="http://www.w3.org/1999/xlink">
<g id="graph0" class="graph" transform="scale(1 1) rotate(0) translate(4 163)">
<title>src</title>
<g id="clust1" class="cluster">
<title>clusterdir_5c10839133bb912ed17a53c8f723f1e7</title>
<g id="a_clust1"><a xlink:href="dir_5c10839133bb912ed17a53c8f723f1e7.html" target="_top" xlink:title="inertialmtbPart">
<polygon fill="#ddddee" stroke="black" points="8,-8 8,-151 97,-151 97,-8 8,-8"/>
<text text-anchor="middle" x="52.5" y="-139" font-family="FreeSans.ttf" font-size="10.00">inertialmtbPart</text>
</a>
</g>
</g>
<!-- dir_1bd8731d35235fea9d76e60d565b0bdd -->
<g id="node1" class="node">
<title>dir_1bd8731d35235fea9d76e60d565b0bdd</title>
<g id="a_node1"><a xlink:href="dir_1bd8731d35235fea9d76e60d565b0bdd.html" target="_top" xlink:title="include">
<polygon fill="none" stroke="red" points="88,-52 34,-52 34,-16 88,-16 88,-52"/>
<text text-anchor="middle" x="61" y="-31.5" font-family="FreeSans.ttf" font-size="10.00">include</text>
</a>
</g>
</g>
<!-- dir_913de3e50776fcc7030e89b68a0b0565 -->
<g id="node2" class="node">
<title>dir_913de3e50776fcc7030e89b68a0b0565</title>
<g id="a_node2"><a xlink:href="dir_913de3e50776fcc7030e89b68a0b0565.html" target="_top" xlink:title="src">
<polygon fill="#eeeeff" stroke="black" points="88,-124 34,-124 34,-88 88,-88 88,-124"/>
<text text-anchor="middle" x="61" y="-103.5" font-family="FreeSans.ttf" font-size="10.00">src</text>
</a>
</g>
</g>
<!-- dir_913de3e50776fcc7030e89b68a0b0565&#45;&gt;dir_1bd8731d35235fea9d76e60d565b0bdd -->
<g id="edge1" class="edge">
<title>dir_913de3e50776fcc7030e89b68a0b0565&#45;&gt;dir_1bd8731d35235fea9d76e60d565b0bdd</title>
<path fill="none" stroke="black" d="M61,-87.7C61,-79.98 61,-70.71 61,-62.11"/>
<polygon fill="black" stroke="black" points="64.5,-62.1 61,-52.1 57.5,-62.1 64.5,-62.1"/>
<g id="a_edge1&#45;headlabel"><a xlink:href="dir_000102_000103.html" target="_top" xlink:title="3">
<text text-anchor="middle" x="67.34" y="-63.2" font-family="FreeSans.ttf" font-size="10.00">3</text>
</a>
</g>
</g>
<!-- dir_bc0718b08fb2015b8e59c47b2805f60c -->
<g id="node3" class="node">
<title>dir_bc0718b08fb2015b8e59c47b2805f60c</title>
<g id="a_node3"><a xlink:href="dir_bc0718b08fb2015b8e59c47b2805f60c.html" target="_top" xlink:title="libraries">
<polygon fill="none" stroke="red" points="162,-52 106,-52 106,-16 162,-16 162,-52"/>
<text text-anchor="middle" x="134" y="-31.5" font-family="FreeSans.ttf" font-size="10.00">libraries</text>
</a>
</g>
</g>
<!-- dir_913de3e50776fcc7030e89b68a0b0565&#45;&gt;dir_bc0718b08fb2015b8e59c47b2805f60c -->
<g id="edge2" class="edge">
<title>dir_913de3e50776fcc7030e89b68a0b0565&#45;&gt;dir_bc0718b08fb2015b8e59c47b2805f60c</title>
<path fill="none" stroke="black" d="M79.04,-87.7C88.06,-79.05 99.12,-68.45 108.94,-59.03"/>
<polygon fill="black" stroke="black" points="111.37,-61.55 116.16,-52.1 106.52,-56.5 111.37,-61.55"/>
<g id="a_edge2&#45;headlabel"><a xlink:href="dir_000102_000037.html" target="_top" xlink:title="6">
<text text-anchor="middle" x="110.74" y="-63.59" font-family="FreeSans.ttf" font-size="10.00">6</text>
</a>
</g>
</g>
</g>
</svg>
