<?xml version="1.0" encoding="UTF-8" standalone="no"?>
<!DOCTYPE svg PUBLIC "-//W3C//DTD SVG 1.1//EN"
 "http://www.w3.org/Graphics/SVG/1.1/DTD/svg11.dtd">
<!-- Generated by graphviz version 2.43.0 (0)
 -->
<!-- Title: yarp Pages: 1 -->
<svg width="182pt" height="159pt"
 viewBox="0.00 0.00 182.00 159.00" xmlns="http://www.w3.org/2000/svg" xmlns:xlink="http://www.w3.org/1999/xlink">
<g id="graph0" class="graph" transform="scale(1 1) rotate(0) translate(4 155)">
<title>yarp</title>
<g id="clust1" class="cluster">
<title>clusterdir_394c1feabf8581d572202b727a0f24a5</title>
<g id="a_clust1"><a xlink:href="dir_394c1feabf8581d572202b727a0f24a5.html" target="_top" xlink:title="include">
<polygon fill="#ddddee" stroke="black" points="8,-56 8,-143 166,-143 166,-56 8,-56"/>
<text text-anchor="middle" x="87" y="-131" font-family="FreeSans.ttf" font-size="10.00">include</text>
</a>
</g>
</g>
<g id="clust2" class="cluster">
<title>clusterdir_d942f51c06408cf752629ae5a80260d4</title>
<g id="a_clust2"><a xlink:href="dir_d942f51c06408cf752629ae5a80260d4.html" target="_top">
<polygon fill="#eeeeff" stroke="black" points="16,-64 16,-116 158,-116 158,-64 16,-64"/>
</a>
</g>
</g>
<!-- dir_d942f51c06408cf752629ae5a80260d4 -->
<g id="node1" class="node">
<title>dir_d942f51c06408cf752629ae5a80260d4</title>
<text text-anchor="middle" x="123" y="-87.5" font-family="FreeSans.ttf" font-size="10.00">yarp</text>
</g>
<!-- dir_c4d69d4c45840b4b9589dd7fa526344c -->
<g id="node2" class="node">
<title>dir_c4d69d4c45840b4b9589dd7fa526344c</title>
<g id="a_node2"><a xlink:href="dir_c4d69d4c45840b4b9589dd7fa526344c.html" target="_top" xlink:title="dev">
<polygon fill="white" stroke="black" points="78,-108 24,-108 24,-72 78,-72 78,-108"/>
<text text-anchor="middle" x="51" y="-87.5" font-family="FreeSans.ttf" font-size="10.00">dev</text>
</a>
</g>
</g>
<!-- dir_bc0718b08fb2015b8e59c47b2805f60c -->
<g id="node3" class="node">
<title>dir_bc0718b08fb2015b8e59c47b2805f60c</title>
<g id="a_node3"><a xlink:href="dir_bc0718b08fb2015b8e59c47b2805f60c.html" target="_top" xlink:title="libraries">
<polygon fill="none" stroke="red" points="79,-36 23,-36 23,0 79,0 79,-36"/>
<text text-anchor="middle" x="51" y="-15.5" font-family="FreeSans.ttf" font-size="10.00">libraries</text>
</a>
</g>
</g>
<!-- dir_c4d69d4c45840b4b9589dd7fa526344c&#45;&gt;dir_bc0718b08fb2015b8e59c47b2805f60c -->
<g id="edge1" class="edge">
<title>dir_c4d69d4c45840b4b9589dd7fa526344c&#45;&gt;dir_bc0718b08fb2015b8e59c47b2805f60c</title>
<path fill="none" stroke="black" d="M51,-71.7C51,-63.98 51,-54.71 51,-46.11"/>
<polygon fill="black" stroke="black" points="54.5,-46.1 51,-36.1 47.5,-46.1 54.5,-46.1"/>
<g id="a_edge1&#45;headlabel"><a xlink:href="dir_000010_000037.html" target="_top" xlink:title="2">
<text text-anchor="middle" x="57.34" y="-47.2" font-family="FreeSans.ttf" font-size="10.00">2</text>
</a>
</g>
</g>
</g>
</svg>
