<?xml version="1.0" encoding="UTF-8" standalone="no"?>
<!DOCTYPE svg PUBLIC "-//W3C//DTD SVG 1.1//EN"
 "http://www.w3.org/Graphics/SVG/1.1/DTD/svg11.dtd">
<!-- Generated by graphviz version 2.43.0 (0)
 -->
<!-- Title: modelposepublisher Pages: 1 -->
<svg width="300pt" height="183pt"
 viewBox="0.00 0.00 300.00 183.00" xmlns="http://www.w3.org/2000/svg" xmlns:xlink="http://www.w3.org/1999/xlink">
<g id="graph0" class="graph" transform="scale(1 1) rotate(0) translate(4 179)">
<title>modelposepublisher</title>
<g id="clust1" class="cluster">
<title>clusterdir_38c8d24aef3972a7f87b834274e76e31</title>
<g id="a_clust1"><a xlink:href="dir_38c8d24aef3972a7f87b834274e76e31.html" target="_top" xlink:title="plugins">
<polygon fill="#ddddee" stroke="black" points="8,-8 8,-167 228,-167 228,-8 8,-8"/>
<text text-anchor="middle" x="118" y="-155" font-family="FreeSans.ttf" font-size="10.00">plugins</text>
</a>
</g>
</g>
<g id="clust2" class="cluster">
<title>clusterdir_3d12643dece89de1511c41b539e0447c</title>
<g id="a_clust2"><a xlink:href="dir_3d12643dece89de1511c41b539e0447c.html" target="_top">
<polygon fill="#eeeeff" stroke="black" points="16,-16 16,-140 220,-140 220,-16 16,-16"/>
</a>
</g>
</g>
<!-- dir_3d12643dece89de1511c41b539e0447c -->
<g id="node1" class="node">
<title>dir_3d12643dece89de1511c41b539e0447c</title>
<text text-anchor="middle" x="154" y="-111.5" font-family="FreeSans.ttf" font-size="10.00">modelposepublisher</text>
</g>
<!-- dir_49e02ab9d0e37ac9e2fc97edeca04995 -->
<g id="node2" class="node">
<title>dir_49e02ab9d0e37ac9e2fc97edeca04995</title>
<g id="a_node2"><a xlink:href="dir_49e02ab9d0e37ac9e2fc97edeca04995.html" target="_top" xlink:title="include">
<polygon fill="white" stroke="red" points="78,-60 24,-60 24,-24 78,-24 78,-60"/>
<text text-anchor="middle" x="51" y="-39.5" font-family="FreeSans.ttf" font-size="10.00">include</text>
</a>
</g>
</g>
<!-- dir_1a88a86faef4bfc8e8dd2b5fad94c0fa -->
<g id="node3" class="node">
<title>dir_1a88a86faef4bfc8e8dd2b5fad94c0fa</title>
<g id="a_node3"><a xlink:href="dir_1a88a86faef4bfc8e8dd2b5fad94c0fa.html" target="_top" xlink:title="src">
<polygon fill="white" stroke="black" points="78,-132 24,-132 24,-96 78,-96 78,-132"/>
<text text-anchor="middle" x="51" y="-111.5" font-family="FreeSans.ttf" font-size="10.00">src</text>
</a>
</g>
</g>
<!-- dir_1a88a86faef4bfc8e8dd2b5fad94c0fa&#45;&gt;dir_49e02ab9d0e37ac9e2fc97edeca04995 -->
<g id="edge1" class="edge">
<title>dir_1a88a86faef4bfc8e8dd2b5fad94c0fa&#45;&gt;dir_49e02ab9d0e37ac9e2fc97edeca04995</title>
<path fill="none" stroke="black" d="M51,-95.7C51,-87.98 51,-78.71 51,-70.11"/>
<polygon fill="black" stroke="black" points="54.5,-70.1 51,-60.1 47.5,-70.1 54.5,-70.1"/>
<g id="a_edge1&#45;headlabel"><a xlink:href="dir_000138_000139.html" target="_top" xlink:title="1">
<text text-anchor="middle" x="57.34" y="-71.2" font-family="FreeSans.ttf" font-size="10.00">1</text>
</a>
</g>
</g>
<!-- dir_bc0718b08fb2015b8e59c47b2805f60c -->
<g id="node4" class="node">
<title>dir_bc0718b08fb2015b8e59c47b2805f60c</title>
<g id="a_node4"><a xlink:href="dir_bc0718b08fb2015b8e59c47b2805f60c.html" target="_top" xlink:title="libraries">
<polygon fill="none" stroke="red" points="292,-60 236,-60 236,-24 292,-24 292,-60"/>
<text text-anchor="middle" x="264" y="-39.5" font-family="FreeSans.ttf" font-size="10.00">libraries</text>
</a>
</g>
</g>
<!-- dir_1a88a86faef4bfc8e8dd2b5fad94c0fa&#45;&gt;dir_bc0718b08fb2015b8e59c47b2805f60c -->
<g id="edge2" class="edge">
<title>dir_1a88a86faef4bfc8e8dd2b5fad94c0fa&#45;&gt;dir_bc0718b08fb2015b8e59c47b2805f60c</title>
<path fill="none" stroke="black" d="M78.3,-99.47C81.2,-98.22 84.14,-97.04 87,-96 146.16,-74.47 164.43,-80.37 224,-60 224.72,-59.75 225.45,-59.5 226.18,-59.24"/>
<polygon fill="black" stroke="black" points="227.69,-62.41 235.79,-55.59 225.2,-55.87 227.69,-62.41"/>
<g id="a_edge2&#45;headlabel"><a xlink:href="dir_000138_000037.html" target="_top" xlink:title="1">
<text text-anchor="middle" x="225.33" y="-63.84" font-family="FreeSans.ttf" font-size="10.00">1</text>
</a>
</g>
</g>
</g>
</svg>
