<?xml version="1.0" encoding="UTF-8" standalone="no"?>
<!DOCTYPE svg PUBLIC "-//W3C//DTD SVG 1.1//EN"
 "http://www.w3.org/Graphics/SVG/1.1/DTD/svg11.dtd">
<!-- Generated by graphviz version 2.43.0 (0)
 -->
<!-- Title: gazebo Pages: 1 -->
<svg width="150pt" height="167pt"
 viewBox="0.00 0.00 150.00 167.00" xmlns="http://www.w3.org/2000/svg" xmlns:xlink="http://www.w3.org/1999/xlink">
<g id="graph0" class="graph" transform="scale(1 1) rotate(0) translate(4 163)">
<title>gazebo</title>
<g id="clust1" class="cluster">
<title>clusterdir_3fb9c5f9db813756a0a7e2599e0a4437</title>
<g id="a_clust1"><a xlink:href="dir_3fb9c5f9db813756a0a7e2599e0a4437.html" target="_top" xlink:title="include">
<polygon fill="#ddddee" stroke="black" points="8,-8 8,-151 134,-151 134,-8 8,-8"/>
<text text-anchor="middle" x="71" y="-139" font-family="FreeSans.ttf" font-size="10.00">include</text>
</a>
</g>
</g>
<!-- dir_93efb0eec63d7c473fb0c2791f8e5e59 -->
<g id="node1" class="node">
<title>dir_93efb0eec63d7c473fb0c2791f8e5e59</title>
<g id="a_node1"><a xlink:href="dir_93efb0eec63d7c473fb0c2791f8e5e59.html" target="_top" xlink:title="GazeboYarpPlugins">
<polygon fill="none" stroke="black" points="125.5,-52 16.5,-52 16.5,-16 125.5,-16 125.5,-52"/>
<text text-anchor="middle" x="71" y="-31.5" font-family="FreeSans.ttf" font-size="10.00">GazeboYarpPlugins</text>
</a>
</g>
</g>
<!-- dir_f113398f996c80979c7ca584e3e5887b -->
<g id="node2" class="node">
<title>dir_f113398f996c80979c7ca584e3e5887b</title>
<g id="a_node2"><a xlink:href="dir_f113398f996c80979c7ca584e3e5887b.html" target="_top" xlink:title="gazebo">
<polygon fill="#eeeeff" stroke="black" points="98,-124 44,-124 44,-88 98,-88 98,-124"/>
<text text-anchor="middle" x="71" y="-103.5" font-family="FreeSans.ttf" font-size="10.00">gazebo</text>
</a>
</g>
</g>
<!-- dir_f113398f996c80979c7ca584e3e5887b&#45;&gt;dir_93efb0eec63d7c473fb0c2791f8e5e59 -->
<g id="edge1" class="edge">
<title>dir_f113398f996c80979c7ca584e3e5887b&#45;&gt;dir_93efb0eec63d7c473fb0c2791f8e5e59</title>
<path fill="none" stroke="black" d="M71,-87.7C71,-79.98 71,-70.71 71,-62.11"/>
<polygon fill="black" stroke="black" points="74.5,-62.1 71,-52.1 67.5,-62.1 74.5,-62.1"/>
<g id="a_edge1&#45;headlabel"><a xlink:href="dir_000122_000128.html" target="_top" xlink:title="1">
<text text-anchor="middle" x="77.34" y="-63.2" font-family="FreeSans.ttf" font-size="10.00">1</text>
</a>
</g>
</g>
</g>
</svg>
