<?xml version="1.0" encoding="UTF-8" standalone="no"?>
<!DOCTYPE svg PUBLIC "-//W3C//DTD SVG 1.1//EN"
 "http://www.w3.org/Graphics/SVG/1.1/DTD/svg11.dtd">
<!-- Generated by graphviz version 2.43.0 (0)
 -->
<!-- Title: linkattacher Pages: 1 -->
<svg width="202pt" height="231pt"
 viewBox="0.00 0.00 202.00 231.00" xmlns="http://www.w3.org/2000/svg" xmlns:xlink="http://www.w3.org/1999/xlink">
<g id="graph0" class="graph" transform="scale(1 1) rotate(0) translate(4 227)">
<title>linkattacher</title>
<g id="clust1" class="cluster">
<title>clusterdir_38c8d24aef3972a7f87b834274e76e31</title>
<g id="a_clust1"><a xlink:href="dir_38c8d24aef3972a7f87b834274e76e31.html" target="_top" xlink:title="plugins">
<polygon fill="#ddddee" stroke="black" points="8,-56 8,-215 186,-215 186,-56 8,-56"/>
<text text-anchor="middle" x="97" y="-203" font-family="FreeSans.ttf" font-size="10.00">plugins</text>
</a>
</g>
</g>
<g id="clust2" class="cluster">
<title>clusterdir_046a323c23a628228bfd2e9923a84f18</title>
<g id="a_clust2"><a xlink:href="dir_046a323c23a628228bfd2e9923a84f18.html" target="_top">
<polygon fill="#eeeeff" stroke="black" points="16,-64 16,-188 178,-188 178,-64 16,-64"/>
</a>
</g>
</g>
<!-- dir_046a323c23a628228bfd2e9923a84f18 -->
<g id="node1" class="node">
<title>dir_046a323c23a628228bfd2e9923a84f18</title>
<text text-anchor="middle" x="133" y="-159.5" font-family="FreeSans.ttf" font-size="10.00">linkattacher</text>
</g>
<!-- dir_3fb9c5f9db813756a0a7e2599e0a4437 -->
<g id="node2" class="node">
<title>dir_3fb9c5f9db813756a0a7e2599e0a4437</title>
<g id="a_node2"><a xlink:href="dir_3fb9c5f9db813756a0a7e2599e0a4437.html" target="_top" xlink:title="include">
<polygon fill="white" stroke="red" points="78,-108 24,-108 24,-72 78,-72 78,-108"/>
<text text-anchor="middle" x="51" y="-87.5" font-family="FreeSans.ttf" font-size="10.00">include</text>
</a>
</g>
</g>
<!-- dir_bc0718b08fb2015b8e59c47b2805f60c -->
<g id="node4" class="node">
<title>dir_bc0718b08fb2015b8e59c47b2805f60c</title>
<g id="a_node4"><a xlink:href="dir_bc0718b08fb2015b8e59c47b2805f60c.html" target="_top" xlink:title="libraries">
<polygon fill="none" stroke="red" points="79,-36 23,-36 23,0 79,0 79,-36"/>
<text text-anchor="middle" x="51" y="-15.5" font-family="FreeSans.ttf" font-size="10.00">libraries</text>
</a>
</g>
</g>
<!-- dir_3fb9c5f9db813756a0a7e2599e0a4437&#45;&gt;dir_bc0718b08fb2015b8e59c47b2805f60c -->
<g id="edge2" class="edge">
<title>dir_3fb9c5f9db813756a0a7e2599e0a4437&#45;&gt;dir_bc0718b08fb2015b8e59c47b2805f60c</title>
<path fill="none" stroke="black" d="M51,-71.7C51,-63.98 51,-54.71 51,-46.11"/>
<polygon fill="black" stroke="black" points="54.5,-46.1 51,-36.1 47.5,-46.1 54.5,-46.1"/>
<g id="a_edge2&#45;headlabel"><a xlink:href="dir_000121_000037.html" target="_top" xlink:title="2">
<text text-anchor="middle" x="57.34" y="-47.2" font-family="FreeSans.ttf" font-size="10.00">2</text>
</a>
</g>
</g>
<!-- dir_1b44b2c9a93ba3dc8d46bddb10b069b8 -->
<g id="node3" class="node">
<title>dir_1b44b2c9a93ba3dc8d46bddb10b069b8</title>
<g id="a_node3"><a xlink:href="dir_1b44b2c9a93ba3dc8d46bddb10b069b8.html" target="_top" xlink:title="src">
<polygon fill="white" stroke="black" points="78,-180 24,-180 24,-144 78,-144 78,-180"/>
<text text-anchor="middle" x="51" y="-159.5" font-family="FreeSans.ttf" font-size="10.00">src</text>
</a>
</g>
</g>
<!-- dir_1b44b2c9a93ba3dc8d46bddb10b069b8&#45;&gt;dir_3fb9c5f9db813756a0a7e2599e0a4437 -->
<g id="edge1" class="edge">
<title>dir_1b44b2c9a93ba3dc8d46bddb10b069b8&#45;&gt;dir_3fb9c5f9db813756a0a7e2599e0a4437</title>
<path fill="none" stroke="black" d="M51,-143.7C51,-135.98 51,-126.71 51,-118.11"/>
<polygon fill="black" stroke="black" points="54.5,-118.1 51,-108.1 47.5,-118.1 54.5,-118.1"/>
<g id="a_edge1&#45;headlabel"><a xlink:href="dir_000120_000121.html" target="_top" xlink:title="2">
<text text-anchor="middle" x="57.34" y="-119.2" font-family="FreeSans.ttf" font-size="10.00">2</text>
</a>
</g>
</g>
</g>
</svg>
