<?xml version="1.0" encoding="UTF-8" standalone="no"?>
<!DOCTYPE svg PUBLIC "-//W3C//DTD SVG 1.1//EN"
 "http://www.w3.org/Graphics/SVG/1.1/DTD/svg11.dtd">
<!-- Generated by graphviz version 5.0.1 (20220821.0811)
 -->
<!-- Title: src Pages: 1 -->
<svg width="98pt" height="167pt"
 viewBox="0.00 0.00 98.00 167.00" xmlns="http://www.w3.org/2000/svg" xmlns:xlink="http://www.w3.org/1999/xlink">
<g id="graph0" class="graph" transform="scale(1 1) rotate(0) translate(4 163)">
<title>src</title>
<g id="clust1" class="cluster">
<title>clusterdir_046a323c23a628228bfd2e9923a84f18</title>
<g id="a_clust1"><a xlink:href="dir_046a323c23a628228bfd2e9923a84f18.html" target="_top" xlink:title="linkattacher">
<polygon fill="#e8e8fc" stroke="#7f7f7f" stroke-dasharray="5,2" points="8,-8 8,-151 82,-151 82,-8 8,-8"/>
<text text-anchor="middle" x="45" y="-139" font-family="FreeSans.ttf" font-size="10.00">linkattacher</text>
</a>
</g>
</g>
<!-- dir_3fb9c5f9db813756a0a7e2599e0a4437 -->
<g id="node1" class="node">
<title>dir_3fb9c5f9db813756a0a7e2599e0a4437</title>
<g id="a_node1"><a xlink:href="dir_3fb9c5f9db813756a0a7e2599e0a4437.html" target="_top" xlink:title="include">
<polygon fill="#8888f0" stroke="red" points="72,-52 18,-52 18,-16 72,-16 72,-52"/>
<text text-anchor="middle" x="45" y="-31.5" font-family="FreeSans.ttf" font-size="10.00">include</text>
</a>
</g>
</g>
<!-- dir_1b44b2c9a93ba3dc8d46bddb10b069b8 -->
<g id="node2" class="node">
<title>dir_1b44b2c9a93ba3dc8d46bddb10b069b8</title>
<g id="a_node2"><a xlink:href="dir_1b44b2c9a93ba3dc8d46bddb10b069b8.html" target="_top" xlink:title="src">
<polygon fill="#e8e8fc" stroke="#404040" stroke-width="2" points="72,-124 18,-124 18,-88 72,-88 72,-124"/>
<text text-anchor="middle" x="45" y="-103.5" font-family="FreeSans.ttf" font-size="10.00">src</text>
</a>
</g>
</g>
<!-- dir_1b44b2c9a93ba3dc8d46bddb10b069b8&#45;&gt;dir_3fb9c5f9db813756a0a7e2599e0a4437 -->
<g id="edge1" class="edge">
<title>dir_1b44b2c9a93ba3dc8d46bddb10b069b8&#45;&gt;dir_3fb9c5f9db813756a0a7e2599e0a4437</title>
<path fill="none" stroke="black" d="M45,-87.7C45,-79.98 45,-70.71 45,-62.11"/>
<polygon fill="black" stroke="black" points="48.5,-62.1 45,-52.1 41.5,-62.1 48.5,-62.1"/>
<g id="a_edge1&#45;headlabel"><a xlink:href="dir_000129_000087.html" target="_top" xlink:title="2">
<text text-anchor="middle" x="51.34" y="-63.2" font-family="FreeSans.ttf" font-size="10.00">2</text>
</a>
</g>
</g>
</g>
</svg>
