<?xml version="1.0" encoding="UTF-8" standalone="no"?>
<!DOCTYPE svg PUBLIC "-//W3C//DTD SVG 1.1//EN"
 "http://www.w3.org/Graphics/SVG/1.1/DTD/svg11.dtd">
<!-- Generated by graphviz version 2.43.0 (0)
 -->
<!-- Title: include Pages: 1 -->
<svg width="254pt" height="159pt"
 viewBox="0.00 0.00 254.00 159.00" xmlns="http://www.w3.org/2000/svg" xmlns:xlink="http://www.w3.org/1999/xlink">
<g id="graph0" class="graph" transform="scale(1 1) rotate(0) translate(4 155)">
<title>include</title>
<g id="clust1" class="cluster">
<title>clusterdir_7841ec4a99b94e3d79b1689d8465e0e5</title>
<g id="a_clust1"><a xlink:href="dir_7841ec4a99b94e3d79b1689d8465e0e5.html" target="_top" xlink:title="basestate">
<polygon fill="#ddddee" stroke="black" points="8,-56 8,-143 238,-143 238,-56 8,-56"/>
<text text-anchor="middle" x="123" y="-131" font-family="FreeSans.ttf" font-size="10.00">basestate</text>
</a>
</g>
</g>
<g id="clust2" class="cluster">
<title>clusterdir_394c1feabf8581d572202b727a0f24a5</title>
<g id="a_clust2"><a xlink:href="dir_394c1feabf8581d572202b727a0f24a5.html" target="_top">
<polygon fill="#eeeeff" stroke="black" points="16,-64 16,-116 230,-116 230,-64 16,-64"/>
</a>
</g>
</g>
<!-- dir_394c1feabf8581d572202b727a0f24a5 -->
<g id="node1" class="node">
<title>dir_394c1feabf8581d572202b727a0f24a5</title>
<text text-anchor="middle" x="195" y="-87.5" font-family="FreeSans.ttf" font-size="10.00">include</text>
</g>
<!-- dir_12f2d07aa1c001191bcb48ebc473fb4e -->
<g id="node2" class="node">
<title>dir_12f2d07aa1c001191bcb48ebc473fb4e</title>
<g id="a_node2"><a xlink:href="dir_12f2d07aa1c001191bcb48ebc473fb4e.html" target="_top" xlink:title="gazebo">
<polygon fill="white" stroke="black" points="150,-108 96,-108 96,-72 150,-72 150,-108"/>
<text text-anchor="middle" x="123" y="-87.5" font-family="FreeSans.ttf" font-size="10.00">gazebo</text>
</a>
</g>
</g>
<!-- dir_bc0718b08fb2015b8e59c47b2805f60c -->
<g id="node4" class="node">
<title>dir_bc0718b08fb2015b8e59c47b2805f60c</title>
<g id="a_node4"><a xlink:href="dir_bc0718b08fb2015b8e59c47b2805f60c.html" target="_top" xlink:title="libraries">
<polygon fill="none" stroke="red" points="115,-36 59,-36 59,0 115,0 115,-36"/>
<text text-anchor="middle" x="87" y="-15.5" font-family="FreeSans.ttf" font-size="10.00">libraries</text>
</a>
</g>
</g>
<!-- dir_12f2d07aa1c001191bcb48ebc473fb4e&#45;&gt;dir_bc0718b08fb2015b8e59c47b2805f60c -->
<g id="edge1" class="edge">
<title>dir_12f2d07aa1c001191bcb48ebc473fb4e&#45;&gt;dir_bc0718b08fb2015b8e59c47b2805f60c</title>
<path fill="none" stroke="black" d="M114.1,-71.7C110,-63.73 105.05,-54.1 100.51,-45.26"/>
<polygon fill="black" stroke="black" points="103.48,-43.4 95.8,-36.1 97.26,-46.6 103.48,-43.4"/>
<g id="a_edge1&#45;headlabel"><a xlink:href="dir_000008_000037.html" target="_top" xlink:title="3">
<text text-anchor="middle" x="107.65" y="-42.79" font-family="FreeSans.ttf" font-size="10.00">3</text>
</a>
</g>
</g>
<!-- dir_d942f51c06408cf752629ae5a80260d4 -->
<g id="node3" class="node">
<title>dir_d942f51c06408cf752629ae5a80260d4</title>
<g id="a_node3"><a xlink:href="dir_d942f51c06408cf752629ae5a80260d4.html" target="_top" xlink:title="yarp">
<polygon fill="white" stroke="red" points="78,-108 24,-108 24,-72 78,-72 78,-108"/>
<text text-anchor="middle" x="51" y="-87.5" font-family="FreeSans.ttf" font-size="10.00">yarp</text>
</a>
</g>
</g>
<!-- dir_d942f51c06408cf752629ae5a80260d4&#45;&gt;dir_bc0718b08fb2015b8e59c47b2805f60c -->
<g id="edge2" class="edge">
<title>dir_d942f51c06408cf752629ae5a80260d4&#45;&gt;dir_bc0718b08fb2015b8e59c47b2805f60c</title>
<path fill="none" stroke="black" d="M59.9,-71.7C64,-63.73 68.95,-54.1 73.49,-45.26"/>
<polygon fill="black" stroke="black" points="76.74,-46.6 78.2,-36.1 70.52,-43.4 76.74,-46.6"/>
<g id="a_edge2&#45;headlabel"><a xlink:href="dir_000009_000037.html" target="_top" xlink:title="2">
<text text-anchor="middle" x="77.62" y="-48.59" font-family="FreeSans.ttf" font-size="10.00">2</text>
</a>
</g>
</g>
</g>
</svg>
