<?xml version="1.0" encoding="UTF-8" standalone="no"?>
<!DOCTYPE svg PUBLIC "-//W3C//DTD SVG 1.1//EN"
 "http://www.w3.org/Graphics/SVG/1.1/DTD/svg11.dtd">
<!-- Generated by graphviz version 2.43.0 (0)
 -->
<!-- Title: src Pages: 1 -->
<svg width="180pt" height="167pt"
 viewBox="0.00 0.00 180.00 167.00" xmlns="http://www.w3.org/2000/svg" xmlns:xlink="http://www.w3.org/1999/xlink">
<g id="graph0" class="graph" transform="scale(1 1) rotate(0) translate(4 163)">
<title>src</title>
<g id="clust1" class="cluster">
<title>clusterdir_c0e6bc0a9a22a7d45d0f140b2daa5655</title>
<g id="a_clust1"><a xlink:href="dir_c0e6bc0a9a22a7d45d0f140b2daa5655.html" target="_top" xlink:title="fakecontrolboard">
<polygon fill="#ddddee" stroke="black" points="8,-8 8,-151 107,-151 107,-8 8,-8"/>
<text text-anchor="middle" x="57.5" y="-139" font-family="FreeSans.ttf" font-size="10.00">fakecontrolboard</text>
</a>
</g>
</g>
<!-- dir_5eff8a23a528164089eefaf8f4f9a18b -->
<g id="node1" class="node">
<title>dir_5eff8a23a528164089eefaf8f4f9a18b</title>
<g id="a_node1"><a xlink:href="dir_5eff8a23a528164089eefaf8f4f9a18b.html" target="_top" xlink:title="include">
<polygon fill="none" stroke="red" points="98,-52 44,-52 44,-16 98,-16 98,-52"/>
<text text-anchor="middle" x="71" y="-31.5" font-family="FreeSans.ttf" font-size="10.00">include</text>
</a>
</g>
</g>
<!-- dir_fc161603684595c3b55a4ea34b77a4a8 -->
<g id="node2" class="node">
<title>dir_fc161603684595c3b55a4ea34b77a4a8</title>
<g id="a_node2"><a xlink:href="dir_fc161603684595c3b55a4ea34b77a4a8.html" target="_top" xlink:title="src">
<polygon fill="#eeeeff" stroke="black" points="98,-124 44,-124 44,-88 98,-88 98,-124"/>
<text text-anchor="middle" x="71" y="-103.5" font-family="FreeSans.ttf" font-size="10.00">src</text>
</a>
</g>
</g>
<!-- dir_fc161603684595c3b55a4ea34b77a4a8&#45;&gt;dir_5eff8a23a528164089eefaf8f4f9a18b -->
<g id="edge1" class="edge">
<title>dir_fc161603684595c3b55a4ea34b77a4a8&#45;&gt;dir_5eff8a23a528164089eefaf8f4f9a18b</title>
<path fill="none" stroke="black" d="M71,-87.7C71,-79.98 71,-70.71 71,-62.11"/>
<polygon fill="black" stroke="black" points="74.5,-62.1 71,-52.1 67.5,-62.1 74.5,-62.1"/>
<g id="a_edge1&#45;headlabel"><a xlink:href="dir_000076_000077.html" target="_top" xlink:title="11">
<text text-anchor="middle" x="77.34" y="-63.2" font-family="FreeSans.ttf" font-size="10.00">11</text>
</a>
</g>
</g>
<!-- dir_bc0718b08fb2015b8e59c47b2805f60c -->
<g id="node3" class="node">
<title>dir_bc0718b08fb2015b8e59c47b2805f60c</title>
<g id="a_node3"><a xlink:href="dir_bc0718b08fb2015b8e59c47b2805f60c.html" target="_top" xlink:title="libraries">
<polygon fill="none" stroke="red" points="172,-52 116,-52 116,-16 172,-16 172,-52"/>
<text text-anchor="middle" x="144" y="-31.5" font-family="FreeSans.ttf" font-size="10.00">libraries</text>
</a>
</g>
</g>
<!-- dir_fc161603684595c3b55a4ea34b77a4a8&#45;&gt;dir_bc0718b08fb2015b8e59c47b2805f60c -->
<g id="edge2" class="edge">
<title>dir_fc161603684595c3b55a4ea34b77a4a8&#45;&gt;dir_bc0718b08fb2015b8e59c47b2805f60c</title>
<path fill="none" stroke="black" d="M89.04,-87.7C98.06,-79.05 109.12,-68.45 118.94,-59.03"/>
<polygon fill="black" stroke="black" points="121.37,-61.55 126.16,-52.1 116.52,-56.5 121.37,-61.55"/>
<g id="a_edge2&#45;headlabel"><a xlink:href="dir_000076_000037.html" target="_top" xlink:title="5">
<text text-anchor="middle" x="120.74" y="-63.59" font-family="FreeSans.ttf" font-size="10.00">5</text>
</a>
</g>
</g>
</g>
</svg>
