<?xml version="1.0" encoding="UTF-8" standalone="no"?>
<!DOCTYPE svg PUBLIC "-//W3C//DTD SVG 1.1//EN"
 "http://www.w3.org/Graphics/SVG/1.1/DTD/svg11.dtd">
<!-- Generated by graphviz version 2.43.0 (0)
 -->
<!-- Title: showmodelcom Pages: 1 -->
<svg width="222pt" height="183pt"
 viewBox="0.00 0.00 222.00 183.00" xmlns="http://www.w3.org/2000/svg" xmlns:xlink="http://www.w3.org/1999/xlink">
<g id="graph0" class="graph" transform="scale(1 1) rotate(0) translate(4 179)">
<title>showmodelcom</title>
<g id="clust1" class="cluster">
<title>clusterdir_38c8d24aef3972a7f87b834274e76e31</title>
<g id="a_clust1"><a xlink:href="dir_38c8d24aef3972a7f87b834274e76e31.html" target="_top" xlink:title="plugins">
<polygon fill="#ddddee" stroke="black" points="8,-8 8,-167 206,-167 206,-8 8,-8"/>
<text text-anchor="middle" x="107" y="-155" font-family="FreeSans.ttf" font-size="10.00">plugins</text>
</a>
</g>
</g>
<g id="clust2" class="cluster">
<title>clusterdir_d811e81b7967127626ad0b1ca83fd820</title>
<g id="a_clust2"><a xlink:href="dir_d811e81b7967127626ad0b1ca83fd820.html" target="_top">
<polygon fill="#eeeeff" stroke="black" points="16,-16 16,-140 198,-140 198,-16 16,-16"/>
</a>
</g>
</g>
<!-- dir_d811e81b7967127626ad0b1ca83fd820 -->
<g id="node1" class="node">
<title>dir_d811e81b7967127626ad0b1ca83fd820</title>
<text text-anchor="middle" x="143" y="-111.5" font-family="FreeSans.ttf" font-size="10.00">showmodelcom</text>
</g>
<!-- dir_ca59225ccab4d8c80c6a6159a5e474cd -->
<g id="node2" class="node">
<title>dir_ca59225ccab4d8c80c6a6159a5e474cd</title>
<g id="a_node2"><a xlink:href="dir_ca59225ccab4d8c80c6a6159a5e474cd.html" target="_top" xlink:title="include">
<polygon fill="white" stroke="red" points="78,-60 24,-60 24,-24 78,-24 78,-60"/>
<text text-anchor="middle" x="51" y="-39.5" font-family="FreeSans.ttf" font-size="10.00">include</text>
</a>
</g>
</g>
<!-- dir_543ecefd462d95c574351a4cf5cd8535 -->
<g id="node3" class="node">
<title>dir_543ecefd462d95c574351a4cf5cd8535</title>
<g id="a_node3"><a xlink:href="dir_543ecefd462d95c574351a4cf5cd8535.html" target="_top" xlink:title="src">
<polygon fill="white" stroke="black" points="78,-132 24,-132 24,-96 78,-96 78,-132"/>
<text text-anchor="middle" x="51" y="-111.5" font-family="FreeSans.ttf" font-size="10.00">src</text>
</a>
</g>
</g>
<!-- dir_543ecefd462d95c574351a4cf5cd8535&#45;&gt;dir_ca59225ccab4d8c80c6a6159a5e474cd -->
<g id="edge1" class="edge">
<title>dir_543ecefd462d95c574351a4cf5cd8535&#45;&gt;dir_ca59225ccab4d8c80c6a6159a5e474cd</title>
<path fill="none" stroke="black" d="M51,-95.7C51,-87.98 51,-78.71 51,-70.11"/>
<polygon fill="black" stroke="black" points="54.5,-70.1 51,-60.1 47.5,-70.1 54.5,-70.1"/>
<g id="a_edge1&#45;headlabel"><a xlink:href="dir_000149_000150.html" target="_top" xlink:title="1">
<text text-anchor="middle" x="57.34" y="-71.2" font-family="FreeSans.ttf" font-size="10.00">1</text>
</a>
</g>
</g>
</g>
</svg>
