<?xml version="1.0" encoding="UTF-8" standalone="no"?>
<!DOCTYPE svg PUBLIC "-//W3C//DTD SVG 1.1//EN"
 "http://www.w3.org/Graphics/SVG/1.1/DTD/svg11.dtd">
<!-- Generated by graphviz version 2.43.0 (0)
 -->
<!-- Title: src Pages: 1 -->
<svg width="154pt" height="167pt"
 viewBox="0.00 0.00 154.00 167.00" xmlns="http://www.w3.org/2000/svg" xmlns:xlink="http://www.w3.org/1999/xlink">
<g id="graph0" class="graph" transform="scale(1 1) rotate(0) translate(4 163)">
<title>src</title>
<g id="clust1" class="cluster">
<title>clusterdir_29a9676d2f70ac510518fe66bd2cae42</title>
<g id="a_clust1"><a xlink:href="dir_29a9676d2f70ac510518fe66bd2cae42.html" target="_top" xlink:title="maissensor">
<polygon fill="#ddddee" stroke="black" points="8,-8 8,-151 81,-151 81,-8 8,-8"/>
<text text-anchor="middle" x="44.5" y="-139" font-family="FreeSans.ttf" font-size="10.00">maissensor</text>
</a>
</g>
</g>
<!-- dir_b5ec57ef8123f1f291bde7310f87c6e7 -->
<g id="node1" class="node">
<title>dir_b5ec57ef8123f1f291bde7310f87c6e7</title>
<g id="a_node1"><a xlink:href="dir_b5ec57ef8123f1f291bde7310f87c6e7.html" target="_top" xlink:title="include">
<polygon fill="none" stroke="red" points="72,-52 18,-52 18,-16 72,-16 72,-52"/>
<text text-anchor="middle" x="45" y="-31.5" font-family="FreeSans.ttf" font-size="10.00">include</text>
</a>
</g>
</g>
<!-- dir_61d21ea695738ac4da960df7442624fc -->
<g id="node2" class="node">
<title>dir_61d21ea695738ac4da960df7442624fc</title>
<g id="a_node2"><a xlink:href="dir_61d21ea695738ac4da960df7442624fc.html" target="_top" xlink:title="src">
<polygon fill="#eeeeff" stroke="black" points="72,-124 18,-124 18,-88 72,-88 72,-124"/>
<text text-anchor="middle" x="45" y="-103.5" font-family="FreeSans.ttf" font-size="10.00">src</text>
</a>
</g>
</g>
<!-- dir_61d21ea695738ac4da960df7442624fc&#45;&gt;dir_b5ec57ef8123f1f291bde7310f87c6e7 -->
<g id="edge1" class="edge">
<title>dir_61d21ea695738ac4da960df7442624fc&#45;&gt;dir_b5ec57ef8123f1f291bde7310f87c6e7</title>
<path fill="none" stroke="black" d="M45,-87.7C45,-79.98 45,-70.71 45,-62.11"/>
<polygon fill="black" stroke="black" points="48.5,-62.1 45,-52.1 41.5,-62.1 48.5,-62.1"/>
<g id="a_edge1&#45;headlabel"><a xlink:href="dir_000132_000133.html" target="_top" xlink:title="4">
<text text-anchor="middle" x="51.34" y="-63.2" font-family="FreeSans.ttf" font-size="10.00">4</text>
</a>
</g>
</g>
<!-- dir_bc0718b08fb2015b8e59c47b2805f60c -->
<g id="node3" class="node">
<title>dir_bc0718b08fb2015b8e59c47b2805f60c</title>
<g id="a_node3"><a xlink:href="dir_bc0718b08fb2015b8e59c47b2805f60c.html" target="_top" xlink:title="libraries">
<polygon fill="none" stroke="red" points="146,-52 90,-52 90,-16 146,-16 146,-52"/>
<text text-anchor="middle" x="118" y="-31.5" font-family="FreeSans.ttf" font-size="10.00">libraries</text>
</a>
</g>
</g>
<!-- dir_61d21ea695738ac4da960df7442624fc&#45;&gt;dir_bc0718b08fb2015b8e59c47b2805f60c -->
<g id="edge2" class="edge">
<title>dir_61d21ea695738ac4da960df7442624fc&#45;&gt;dir_bc0718b08fb2015b8e59c47b2805f60c</title>
<path fill="none" stroke="black" d="M63.04,-87.7C72.06,-79.05 83.12,-68.45 92.94,-59.03"/>
<polygon fill="black" stroke="black" points="95.37,-61.55 100.16,-52.1 90.52,-56.5 95.37,-61.55"/>
<g id="a_edge2&#45;headlabel"><a xlink:href="dir_000132_000037.html" target="_top" xlink:title="5">
<text text-anchor="middle" x="94.74" y="-63.59" font-family="FreeSans.ttf" font-size="10.00">5</text>
</a>
</g>
</g>
</g>
</svg>
