<?xml version="1.0" encoding="UTF-8" standalone="no"?>
<!DOCTYPE svg PUBLIC "-//W3C//DTD SVG 1.1//EN"
 "http://www.w3.org/Graphics/SVG/1.1/DTD/svg11.dtd">
<!-- Generated by graphviz version 2.43.0 (0)
 -->
<!-- Title: multicamera Pages: 1 -->
<svg width="263pt" height="183pt"
 viewBox="0.00 0.00 263.00 183.00" xmlns="http://www.w3.org/2000/svg" xmlns:xlink="http://www.w3.org/1999/xlink">
<g id="graph0" class="graph" transform="scale(1 1) rotate(0) translate(4 179)">
<title>multicamera</title>
<g id="clust1" class="cluster">
<title>clusterdir_38c8d24aef3972a7f87b834274e76e31</title>
<g id="a_clust1"><a xlink:href="dir_38c8d24aef3972a7f87b834274e76e31.html" target="_top" xlink:title="plugins">
<polygon fill="#ddddee" stroke="black" points="8,-8 8,-167 191,-167 191,-8 8,-8"/>
<text text-anchor="middle" x="99.5" y="-155" font-family="FreeSans.ttf" font-size="10.00">plugins</text>
</a>
</g>
</g>
<g id="clust2" class="cluster">
<title>clusterdir_943024455d8c4d382a65dab7dbea7deb</title>
<g id="a_clust2"><a xlink:href="dir_943024455d8c4d382a65dab7dbea7deb.html" target="_top">
<polygon fill="#eeeeff" stroke="black" points="16,-16 16,-140 183,-140 183,-16 16,-16"/>
</a>
</g>
</g>
<!-- dir_943024455d8c4d382a65dab7dbea7deb -->
<g id="node1" class="node">
<title>dir_943024455d8c4d382a65dab7dbea7deb</title>
<text text-anchor="middle" x="136" y="-111.5" font-family="FreeSans.ttf" font-size="10.00">multicamera</text>
</g>
<!-- dir_53c3aed5a2c085f979c1dfd853eeefaa -->
<g id="node2" class="node">
<title>dir_53c3aed5a2c085f979c1dfd853eeefaa</title>
<g id="a_node2"><a xlink:href="dir_53c3aed5a2c085f979c1dfd853eeefaa.html" target="_top" xlink:title="include">
<polygon fill="white" stroke="red" points="78,-60 24,-60 24,-24 78,-24 78,-60"/>
<text text-anchor="middle" x="51" y="-39.5" font-family="FreeSans.ttf" font-size="10.00">include</text>
</a>
</g>
</g>
<!-- dir_e763dfc9281f2059b6694685bfd253d3 -->
<g id="node3" class="node">
<title>dir_e763dfc9281f2059b6694685bfd253d3</title>
<g id="a_node3"><a xlink:href="dir_e763dfc9281f2059b6694685bfd253d3.html" target="_top" xlink:title="src">
<polygon fill="white" stroke="black" points="78,-132 24,-132 24,-96 78,-96 78,-132"/>
<text text-anchor="middle" x="51" y="-111.5" font-family="FreeSans.ttf" font-size="10.00">src</text>
</a>
</g>
</g>
<!-- dir_e763dfc9281f2059b6694685bfd253d3&#45;&gt;dir_53c3aed5a2c085f979c1dfd853eeefaa -->
<g id="edge1" class="edge">
<title>dir_e763dfc9281f2059b6694685bfd253d3&#45;&gt;dir_53c3aed5a2c085f979c1dfd853eeefaa</title>
<path fill="none" stroke="black" d="M51,-95.7C51,-87.98 51,-78.71 51,-70.11"/>
<polygon fill="black" stroke="black" points="54.5,-70.1 51,-60.1 47.5,-70.1 54.5,-70.1"/>
<g id="a_edge1&#45;headlabel"><a xlink:href="dir_000142_000143.html" target="_top" xlink:title="4">
<text text-anchor="middle" x="57.34" y="-71.2" font-family="FreeSans.ttf" font-size="10.00">4</text>
</a>
</g>
</g>
<!-- dir_bc0718b08fb2015b8e59c47b2805f60c -->
<g id="node4" class="node">
<title>dir_bc0718b08fb2015b8e59c47b2805f60c</title>
<g id="a_node4"><a xlink:href="dir_bc0718b08fb2015b8e59c47b2805f60c.html" target="_top" xlink:title="libraries">
<polygon fill="none" stroke="red" points="255,-60 199,-60 199,-24 255,-24 255,-60"/>
<text text-anchor="middle" x="227" y="-39.5" font-family="FreeSans.ttf" font-size="10.00">libraries</text>
</a>
</g>
</g>
<!-- dir_e763dfc9281f2059b6694685bfd253d3&#45;&gt;dir_bc0718b08fb2015b8e59c47b2805f60c -->
<g id="edge2" class="edge">
<title>dir_e763dfc9281f2059b6694685bfd253d3&#45;&gt;dir_bc0718b08fb2015b8e59c47b2805f60c</title>
<path fill="none" stroke="black" d="M78.37,-100.12C81.6,-98.69 84.86,-97.29 88,-96 131.31,-78.21 143.44,-77.16 187,-60 187.71,-59.72 188.43,-59.44 189.15,-59.15"/>
<polygon fill="black" stroke="black" points="190.73,-62.28 198.67,-55.26 188.09,-55.8 190.73,-62.28"/>
<g id="a_edge2&#45;headlabel"><a xlink:href="dir_000142_000037.html" target="_top" xlink:title="5">
<text text-anchor="middle" x="188.48" y="-63.77" font-family="FreeSans.ttf" font-size="10.00">5</text>
</a>
</g>
</g>
</g>
</svg>
