<?xml version="1.0" encoding="UTF-8" standalone="no"?>
<!DOCTYPE svg PUBLIC "-//W3C//DTD SVG 1.1//EN"
 "http://www.w3.org/Graphics/SVG/1.1/DTD/svg11.dtd">
<!-- Generated by graphviz version 2.43.0 (0)
 -->
<!-- Title: src Pages: 1 -->
<svg width="159pt" height="167pt"
 viewBox="0.00 0.00 159.00 167.00" xmlns="http://www.w3.org/2000/svg" xmlns:xlink="http://www.w3.org/1999/xlink">
<g id="graph0" class="graph" transform="scale(1 1) rotate(0) translate(4 163)">
<title>src</title>
<g id="clust1" class="cluster">
<title>clusterdir_9089f405ed28af813214a8e12b3cd4bc</title>
<g id="a_clust1"><a xlink:href="dir_9089f405ed28af813214a8e12b3cd4bc.html" target="_top" xlink:title="controlboard">
<polygon fill="#ddddee" stroke="black" points="8,-8 8,-151 86,-151 86,-8 8,-8"/>
<text text-anchor="middle" x="47" y="-139" font-family="FreeSans.ttf" font-size="10.00">controlboard</text>
</a>
</g>
</g>
<!-- dir_b6a09f68c4111d0d27b8bbb83b80891a -->
<g id="node1" class="node">
<title>dir_b6a09f68c4111d0d27b8bbb83b80891a</title>
<g id="a_node1"><a xlink:href="dir_b6a09f68c4111d0d27b8bbb83b80891a.html" target="_top" xlink:title="include">
<polygon fill="none" stroke="red" points="77,-52 23,-52 23,-16 77,-16 77,-52"/>
<text text-anchor="middle" x="50" y="-31.5" font-family="FreeSans.ttf" font-size="10.00">include</text>
</a>
</g>
</g>
<!-- dir_934a71a13ecf5efa860396dde1838576 -->
<g id="node2" class="node">
<title>dir_934a71a13ecf5efa860396dde1838576</title>
<g id="a_node2"><a xlink:href="dir_934a71a13ecf5efa860396dde1838576.html" target="_top" xlink:title="src">
<polygon fill="#eeeeff" stroke="black" points="77,-124 23,-124 23,-88 77,-88 77,-124"/>
<text text-anchor="middle" x="50" y="-103.5" font-family="FreeSans.ttf" font-size="10.00">src</text>
</a>
</g>
</g>
<!-- dir_934a71a13ecf5efa860396dde1838576&#45;&gt;dir_b6a09f68c4111d0d27b8bbb83b80891a -->
<g id="edge1" class="edge">
<title>dir_934a71a13ecf5efa860396dde1838576&#45;&gt;dir_b6a09f68c4111d0d27b8bbb83b80891a</title>
<path fill="none" stroke="black" d="M50,-87.7C50,-79.98 50,-70.71 50,-62.11"/>
<polygon fill="black" stroke="black" points="53.5,-62.1 50,-52.1 46.5,-62.1 53.5,-62.1"/>
<g id="a_edge1&#45;headlabel"><a xlink:href="dir_000056_000057.html" target="_top" xlink:title="21">
<text text-anchor="middle" x="56.34" y="-63.2" font-family="FreeSans.ttf" font-size="10.00">21</text>
</a>
</g>
</g>
<!-- dir_bc0718b08fb2015b8e59c47b2805f60c -->
<g id="node3" class="node">
<title>dir_bc0718b08fb2015b8e59c47b2805f60c</title>
<g id="a_node3"><a xlink:href="dir_bc0718b08fb2015b8e59c47b2805f60c.html" target="_top" xlink:title="libraries">
<polygon fill="none" stroke="red" points="151,-52 95,-52 95,-16 151,-16 151,-52"/>
<text text-anchor="middle" x="123" y="-31.5" font-family="FreeSans.ttf" font-size="10.00">libraries</text>
</a>
</g>
</g>
<!-- dir_934a71a13ecf5efa860396dde1838576&#45;&gt;dir_bc0718b08fb2015b8e59c47b2805f60c -->
<g id="edge2" class="edge">
<title>dir_934a71a13ecf5efa860396dde1838576&#45;&gt;dir_bc0718b08fb2015b8e59c47b2805f60c</title>
<path fill="none" stroke="black" d="M68.04,-87.7C77.06,-79.05 88.12,-68.45 97.94,-59.03"/>
<polygon fill="black" stroke="black" points="100.37,-61.55 105.16,-52.1 95.52,-56.5 100.37,-61.55"/>
<g id="a_edge2&#45;headlabel"><a xlink:href="dir_000056_000037.html" target="_top" xlink:title="8">
<text text-anchor="middle" x="99.74" y="-63.59" font-family="FreeSans.ttf" font-size="10.00">8</text>
</a>
</g>
</g>
</g>
</svg>
