<?xml version="1.0" encoding="UTF-8" standalone="no"?>
<!DOCTYPE svg PUBLIC "-//W3C//DTD SVG 1.1//EN"
 "http://www.w3.org/Graphics/SVG/1.1/DTD/svg11.dtd">
<!-- Generated by graphviz version 2.43.0 (0)
 -->
<!-- Title: plugins Pages: 1 -->
<svg width="2494pt" height="132pt"
 viewBox="0.00 0.00 2494.00 132.00" xmlns="http://www.w3.org/2000/svg" xmlns:xlink="http://www.w3.org/1999/xlink">
<g id="graph0" class="graph" transform="scale(1 1) rotate(0) translate(4 128)">
<title>plugins</title>
<g id="clust1" class="cluster">
<title>clusterdir_38c8d24aef3972a7f87b834274e76e31</title>
<g id="a_clust1"><a xlink:href="dir_38c8d24aef3972a7f87b834274e76e31.html" target="_top">
<polygon fill="#eeeeff" stroke="black" points="8,-64 8,-116 2478,-116 2478,-64 8,-64"/>
</a>
</g>
</g>
<!-- dir_38c8d24aef3972a7f87b834274e76e31 -->
<g id="node1" class="node">
<title>dir_38c8d24aef3972a7f87b834274e76e31</title>
<text text-anchor="middle" x="2443" y="-87.5" font-family="FreeSans.ttf" font-size="10.00">plugins</text>
</g>
<!-- dir_7841ec4a99b94e3d79b1689d8465e0e5 -->
<g id="node2" class="node">
<title>dir_7841ec4a99b94e3d79b1689d8465e0e5</title>
<g id="a_node2"><a xlink:href="dir_7841ec4a99b94e3d79b1689d8465e0e5.html" target="_top" xlink:title="basestate">
<polygon fill="white" stroke="red" points="2397.5,-108 2332.5,-108 2332.5,-72 2397.5,-72 2397.5,-108"/>
<text text-anchor="middle" x="2365" y="-87.5" font-family="FreeSans.ttf" font-size="10.00">basestate</text>
</a>
</g>
</g>
<!-- dir_bc0718b08fb2015b8e59c47b2805f60c -->
<g id="node26" class="node">
<title>dir_bc0718b08fb2015b8e59c47b2805f60c</title>
<g id="a_node26"><a xlink:href="dir_bc0718b08fb2015b8e59c47b2805f60c.html" target="_top" xlink:title="libraries">
<polygon fill="none" stroke="red" points="1288,-36 1232,-36 1232,0 1288,0 1288,-36"/>
<text text-anchor="middle" x="1260" y="-15.5" font-family="FreeSans.ttf" font-size="10.00">libraries</text>
</a>
</g>
</g>
<!-- dir_7841ec4a99b94e3d79b1689d8465e0e5&#45;&gt;dir_bc0718b08fb2015b8e59c47b2805f60c -->
<g id="edge15" class="edge">
<title>dir_7841ec4a99b94e3d79b1689d8465e0e5&#45;&gt;dir_bc0718b08fb2015b8e59c47b2805f60c</title>
<path fill="none" stroke="black" d="M2340.62,-71.78C2335.07,-68.64 2329.02,-65.79 2323,-64 2223.36,-34.31 1476.74,-22.04 1298.25,-19.51"/>
<polygon fill="black" stroke="black" points="1298.08,-16.01 1288.03,-19.37 1297.98,-23.01 1298.08,-16.01"/>
<g id="a_edge15&#45;headlabel"><a xlink:href="dir_000005_000037.html" target="_top" xlink:title="5">
<text text-anchor="middle" x="1301.71" y="-10.72" font-family="FreeSans.ttf" font-size="10.00">5</text>
</a>
</g>
</g>
<!-- dir_855d9f51cde680933ebd4a21e4db48bd -->
<g id="node3" class="node">
<title>dir_855d9f51cde680933ebd4a21e4db48bd</title>
<g id="a_node3"><a xlink:href="dir_855d9f51cde680933ebd4a21e4db48bd.html" target="_top" xlink:title="camera">
<polygon fill="white" stroke="red" points="2314,-108 2260,-108 2260,-72 2314,-72 2314,-108"/>
<text text-anchor="middle" x="2287" y="-87.5" font-family="FreeSans.ttf" font-size="10.00">camera</text>
</a>
</g>
</g>
<!-- dir_855d9f51cde680933ebd4a21e4db48bd&#45;&gt;dir_bc0718b08fb2015b8e59c47b2805f60c -->
<g id="edge2" class="edge">
<title>dir_855d9f51cde680933ebd4a21e4db48bd&#45;&gt;dir_bc0718b08fb2015b8e59c47b2805f60c</title>
<path fill="none" stroke="black" d="M2266.37,-71.79C2261.59,-68.65 2256.33,-65.8 2251,-64 2159.61,-33.09 1469.06,-21.81 1298.16,-19.48"/>
<polygon fill="black" stroke="black" points="1298.17,-15.98 1288.12,-19.35 1298.08,-22.98 1298.17,-15.98"/>
<g id="a_edge2&#45;headlabel"><a xlink:href="dir_000011_000037.html" target="_top" xlink:title="5">
<text text-anchor="middle" x="1301.8" y="-10.69" font-family="FreeSans.ttf" font-size="10.00">5</text>
</a>
</g>
</g>
<!-- dir_04c6088db7183ec7094cf602e61089db -->
<g id="node4" class="node">
<title>dir_04c6088db7183ec7094cf602e61089db</title>
<g id="a_node4"><a xlink:href="dir_04c6088db7183ec7094cf602e61089db.html" target="_top" xlink:title="clock">
<polygon fill="white" stroke="red" points="2242,-108 2188,-108 2188,-72 2242,-72 2242,-108"/>
<text text-anchor="middle" x="2215" y="-87.5" font-family="FreeSans.ttf" font-size="10.00">clock</text>
</a>
</g>
</g>
<!-- dir_04c6088db7183ec7094cf602e61089db&#45;&gt;dir_bc0718b08fb2015b8e59c47b2805f60c -->
<g id="edge12" class="edge">
<title>dir_04c6088db7183ec7094cf602e61089db&#45;&gt;dir_bc0718b08fb2015b8e59c47b2805f60c</title>
<path fill="none" stroke="black" d="M2194.37,-71.81C2189.59,-68.67 2184.33,-65.81 2179,-64 2094.84,-35.36 1462.13,-22.5 1298.52,-19.64"/>
<polygon fill="black" stroke="black" points="1298.5,-16.13 1288.44,-19.46 1298.37,-23.13 1298.5,-16.13"/>
<g id="a_edge12&#45;headlabel"><a xlink:href="dir_000017_000037.html" target="_top" xlink:title="1">
<text text-anchor="middle" x="1302.14" y="-10.86" font-family="FreeSans.ttf" font-size="10.00">1</text>
</a>
</g>
</g>
<!-- dir_51774a750b40e0b65e413db1ee212277 -->
<g id="node5" class="node">
<title>dir_51774a750b40e0b65e413db1ee212277</title>
<g id="a_node5"><a xlink:href="dir_51774a750b40e0b65e413db1ee212277.html" target="_top" xlink:title="configurationoverride">
<polygon fill="white" stroke="red" points="2169.5,-108 2048.5,-108 2048.5,-72 2169.5,-72 2169.5,-108"/>
<text text-anchor="middle" x="2109" y="-87.5" font-family="FreeSans.ttf" font-size="10.00">configurationoverride</text>
</a>
</g>
</g>
<!-- dir_51774a750b40e0b65e413db1ee212277&#45;&gt;dir_bc0718b08fb2015b8e59c47b2805f60c -->
<g id="edge19" class="edge">
<title>dir_51774a750b40e0b65e413db1ee212277&#45;&gt;dir_bc0718b08fb2015b8e59c47b2805f60c</title>
<path fill="none" stroke="black" d="M2067.36,-71.94C2058.16,-68.79 2048.36,-65.9 2039,-64 1894.88,-34.73 1434.88,-22.74 1298.47,-19.77"/>
<polygon fill="black" stroke="black" points="1298.19,-16.27 1288.12,-19.55 1298.04,-23.26 1298.19,-16.27"/>
<g id="a_edge19&#45;headlabel"><a xlink:href="dir_000045_000037.html" target="_top" xlink:title="1">
<text text-anchor="middle" x="1301.84" y="-11" font-family="FreeSans.ttf" font-size="10.00">1</text>
</a>
</g>
</g>
<!-- dir_11027470e615656811f6db1ba0d6569d -->
<g id="node6" class="node">
<title>dir_11027470e615656811f6db1ba0d6569d</title>
<g id="a_node6"><a xlink:href="dir_11027470e615656811f6db1ba0d6569d.html" target="_top" xlink:title="contactloadcellarray">
<polygon fill="white" stroke="red" points="2030,-108 1914,-108 1914,-72 2030,-72 2030,-108"/>
<text text-anchor="middle" x="1972" y="-87.5" font-family="FreeSans.ttf" font-size="10.00">contactloadcellarray</text>
</a>
</g>
</g>
<!-- dir_11027470e615656811f6db1ba0d6569d&#45;&gt;dir_bc0718b08fb2015b8e59c47b2805f60c -->
<g id="edge18" class="edge">
<title>dir_11027470e615656811f6db1ba0d6569d&#45;&gt;dir_bc0718b08fb2015b8e59c47b2805f60c</title>
<path fill="none" stroke="black" d="M1931.82,-71.88C1923.11,-68.78 1913.86,-65.92 1905,-64 1788.13,-38.67 1418.99,-24.33 1298.47,-20.24"/>
<polygon fill="black" stroke="black" points="1298.37,-16.73 1288.25,-19.89 1298.13,-23.73 1298.37,-16.73"/>
<g id="a_edge18&#45;headlabel"><a xlink:href="dir_000049_000037.html" target="_top" xlink:title="5">
<text text-anchor="middle" x="1302.05" y="-11.51" font-family="FreeSans.ttf" font-size="10.00">5</text>
</a>
</g>
</g>
<!-- dir_9089f405ed28af813214a8e12b3cd4bc -->
<g id="node7" class="node">
<title>dir_9089f405ed28af813214a8e12b3cd4bc</title>
<g id="a_node7"><a xlink:href="dir_9089f405ed28af813214a8e12b3cd4bc.html" target="_top" xlink:title="controlboard">
<polygon fill="white" stroke="red" points="1896,-108 1818,-108 1818,-72 1896,-72 1896,-108"/>
<text text-anchor="middle" x="1857" y="-87.5" font-family="FreeSans.ttf" font-size="10.00">controlboard</text>
</a>
</g>
</g>
<!-- dir_9089f405ed28af813214a8e12b3cd4bc&#45;&gt;dir_bc0718b08fb2015b8e59c47b2805f60c -->
<g id="edge20" class="edge">
<title>dir_9089f405ed28af813214a8e12b3cd4bc&#45;&gt;dir_bc0718b08fb2015b8e59c47b2805f60c</title>
<path fill="none" stroke="black" d="M1828.84,-71.98C1822.51,-68.83 1815.68,-65.93 1809,-64 1712.74,-36.22 1406.3,-23.77 1298.2,-20.16"/>
<polygon fill="black" stroke="black" points="1298.18,-16.66 1288.07,-19.83 1297.95,-23.66 1298.18,-16.66"/>
<g id="a_edge20&#45;headlabel"><a xlink:href="dir_000055_000037.html" target="_top" xlink:title="8">
<text text-anchor="middle" x="1301.87" y="-11.44" font-family="FreeSans.ttf" font-size="10.00">8</text>
</a>
</g>
</g>
<!-- dir_73a51e8fd8b0c6c6af3ca1a43e5d4b15 -->
<g id="node8" class="node">
<title>dir_73a51e8fd8b0c6c6af3ca1a43e5d4b15</title>
<g id="a_node8"><a xlink:href="dir_73a51e8fd8b0c6c6af3ca1a43e5d4b15.html" target="_top" xlink:title="depthCamera">
<polygon fill="white" stroke="red" points="1799.5,-108 1716.5,-108 1716.5,-72 1799.5,-72 1799.5,-108"/>
<text text-anchor="middle" x="1758" y="-87.5" font-family="FreeSans.ttf" font-size="10.00">depthCamera</text>
</a>
</g>
</g>
<!-- dir_73a51e8fd8b0c6c6af3ca1a43e5d4b15&#45;&gt;dir_bc0718b08fb2015b8e59c47b2805f60c -->
<g id="edge5" class="edge">
<title>dir_73a51e8fd8b0c6c6af3ca1a43e5d4b15&#45;&gt;dir_bc0718b08fb2015b8e59c47b2805f60c</title>
<path fill="none" stroke="black" d="M1727.69,-71.97C1721.04,-68.86 1713.92,-65.98 1707,-64 1560.33,-22.13 1376.91,-17.97 1298.47,-18.34"/>
<polygon fill="black" stroke="black" points="1298.08,-14.84 1288.11,-18.42 1298.13,-21.84 1298.08,-14.84"/>
<g id="a_edge5&#45;headlabel"><a xlink:href="dir_000061_000037.html" target="_top" xlink:title="5">
<text text-anchor="middle" x="1301.65" y="-9.48" font-family="FreeSans.ttf" font-size="10.00">5</text>
</a>
</g>
</g>
<!-- dir_a93889490c023186069c9943c08c68cb -->
<g id="node9" class="node">
<title>dir_a93889490c023186069c9943c08c68cb</title>
<g id="a_node9"><a xlink:href="dir_a93889490c023186069c9943c08c68cb.html" target="_top" xlink:title="doublelaser">
<polygon fill="white" stroke="red" points="1698,-108 1624,-108 1624,-72 1698,-72 1698,-108"/>
<text text-anchor="middle" x="1661" y="-87.5" font-family="FreeSans.ttf" font-size="10.00">doublelaser</text>
</a>
</g>
</g>
<!-- dir_a93889490c023186069c9943c08c68cb&#45;&gt;dir_bc0718b08fb2015b8e59c47b2805f60c -->
<g id="edge14" class="edge">
<title>dir_a93889490c023186069c9943c08c68cb&#45;&gt;dir_bc0718b08fb2015b8e59c47b2805f60c</title>
<path fill="none" stroke="black" d="M1633.52,-71.93C1627.59,-68.86 1621.23,-66.01 1615,-64 1504.1,-28.24 1365.15,-20.72 1298.77,-19.26"/>
<polygon fill="black" stroke="black" points="1298.44,-15.75 1288.38,-19.07 1298.32,-22.75 1298.44,-15.75"/>
<g id="a_edge14&#45;headlabel"><a xlink:href="dir_000067_000037.html" target="_top" xlink:title="3">
<text text-anchor="middle" x="1302.09" y="-10.48" font-family="FreeSans.ttf" font-size="10.00">3</text>
</a>
</g>
</g>
<!-- dir_db85526beb8f1e80be334897ce51d8fa -->
<g id="node10" class="node">
<title>dir_db85526beb8f1e80be334897ce51d8fa</title>
<g id="a_node10"><a xlink:href="dir_db85526beb8f1e80be334897ce51d8fa.html" target="_top" xlink:title="externalwrench">
<polygon fill="white" stroke="red" points="1606,-108 1514,-108 1514,-72 1606,-72 1606,-108"/>
<text text-anchor="middle" x="1560" y="-87.5" font-family="FreeSans.ttf" font-size="10.00">externalwrench</text>
</a>
</g>
</g>
<!-- dir_db85526beb8f1e80be334897ce51d8fa&#45;&gt;dir_bc0718b08fb2015b8e59c47b2805f60c -->
<g id="edge4" class="edge">
<title>dir_db85526beb8f1e80be334897ce51d8fa&#45;&gt;dir_bc0718b08fb2015b8e59c47b2805f60c</title>
<path fill="none" stroke="black" d="M1525.89,-71.94C1519.08,-68.98 1511.91,-66.17 1505,-64 1433.69,-41.62 1347.01,-28.95 1298.2,-23.08"/>
<polygon fill="black" stroke="black" points="1298.43,-19.58 1288.09,-21.89 1297.62,-26.53 1298.43,-19.58"/>
<g id="a_edge4&#45;headlabel"><a xlink:href="dir_000001_000037.html" target="_top" xlink:title="2">
<text text-anchor="middle" x="1302.33" y="-14.68" font-family="FreeSans.ttf" font-size="10.00">2</text>
</a>
</g>
</g>
<!-- dir_c0e6bc0a9a22a7d45d0f140b2daa5655 -->
<g id="node11" class="node">
<title>dir_c0e6bc0a9a22a7d45d0f140b2daa5655</title>
<g id="a_node11"><a xlink:href="dir_c0e6bc0a9a22a7d45d0f140b2daa5655.html" target="_top" xlink:title="fakecontrolboard">
<polygon fill="white" stroke="red" points="1495.5,-108 1396.5,-108 1396.5,-72 1495.5,-72 1495.5,-108"/>
<text text-anchor="middle" x="1446" y="-87.5" font-family="FreeSans.ttf" font-size="10.00">fakecontrolboard</text>
</a>
</g>
</g>
<!-- dir_c0e6bc0a9a22a7d45d0f140b2daa5655&#45;&gt;dir_bc0718b08fb2015b8e59c47b2805f60c -->
<g id="edge13" class="edge">
<title>dir_c0e6bc0a9a22a7d45d0f140b2daa5655&#45;&gt;dir_bc0718b08fb2015b8e59c47b2805f60c</title>
<path fill="none" stroke="black" d="M1407.47,-71.95C1401,-69.22 1394.33,-66.47 1388,-64 1357.98,-52.27 1323.48,-40.22 1297.87,-31.55"/>
<polygon fill="black" stroke="black" points="1298.76,-28.16 1288.17,-28.28 1296.53,-34.79 1298.76,-28.16"/>
<g id="a_edge13&#45;headlabel"><a xlink:href="dir_000075_000037.html" target="_top" xlink:title="5">
<text text-anchor="middle" x="1303.08" y="-24.11" font-family="FreeSans.ttf" font-size="10.00">5</text>
</a>
</g>
</g>
<!-- dir_784426c7a4935761292633b35a0751aa -->
<g id="node12" class="node">
<title>dir_784426c7a4935761292633b35a0751aa</title>
<g id="a_node12"><a xlink:href="dir_784426c7a4935761292633b35a0751aa.html" target="_top" xlink:title="forcetorque">
<polygon fill="white" stroke="red" points="1378.5,-108 1305.5,-108 1305.5,-72 1378.5,-72 1378.5,-108"/>
<text text-anchor="middle" x="1342" y="-87.5" font-family="FreeSans.ttf" font-size="10.00">forcetorque</text>
</a>
</g>
</g>
<!-- dir_784426c7a4935761292633b35a0751aa&#45;&gt;dir_bc0718b08fb2015b8e59c47b2805f60c -->
<g id="edge9" class="edge">
<title>dir_784426c7a4935761292633b35a0751aa&#45;&gt;dir_bc0718b08fb2015b8e59c47b2805f60c</title>
<path fill="none" stroke="black" d="M1321.73,-71.7C1311.5,-62.97 1298.94,-52.24 1287.82,-42.75"/>
<polygon fill="black" stroke="black" points="1289.91,-39.94 1280.04,-36.1 1285.37,-45.26 1289.91,-39.94"/>
<g id="a_edge9&#45;headlabel"><a xlink:href="dir_000081_000037.html" target="_top" xlink:title="4">
<text text-anchor="middle" x="1294.49" y="-37.61" font-family="FreeSans.ttf" font-size="10.00">4</text>
</a>
</g>
</g>
<!-- dir_d9ea6a3302f9b448a9cd2551fef12dbe -->
<g id="node13" class="node">
<title>dir_d9ea6a3302f9b448a9cd2551fef12dbe</title>
<g id="a_node13"><a xlink:href="dir_d9ea6a3302f9b448a9cd2551fef12dbe.html" target="_top" xlink:title="imu">
<polygon fill="white" stroke="red" points="1287,-108 1233,-108 1233,-72 1287,-72 1287,-108"/>
<text text-anchor="middle" x="1260" y="-87.5" font-family="FreeSans.ttf" font-size="10.00">imu</text>
</a>
</g>
</g>
<!-- dir_d9ea6a3302f9b448a9cd2551fef12dbe&#45;&gt;dir_bc0718b08fb2015b8e59c47b2805f60c -->
<g id="edge10" class="edge">
<title>dir_d9ea6a3302f9b448a9cd2551fef12dbe&#45;&gt;dir_bc0718b08fb2015b8e59c47b2805f60c</title>
<path fill="none" stroke="black" d="M1260,-71.7C1260,-63.98 1260,-54.71 1260,-46.11"/>
<polygon fill="black" stroke="black" points="1263.5,-46.1 1260,-36.1 1256.5,-46.1 1263.5,-46.1"/>
<g id="a_edge10&#45;headlabel"><a xlink:href="dir_000091_000037.html" target="_top" xlink:title="5">
<text text-anchor="middle" x="1266.34" y="-47.2" font-family="FreeSans.ttf" font-size="10.00">5</text>
</a>
</g>
</g>
<!-- dir_6f04e49acb188dd6b84dcf25123367d6 -->
<g id="node14" class="node">
<title>dir_6f04e49acb188dd6b84dcf25123367d6</title>
<g id="a_node14"><a xlink:href="dir_6f04e49acb188dd6b84dcf25123367d6.html" target="_top" xlink:title="inertialmtb">
<polygon fill="white" stroke="red" points="1214.5,-108 1143.5,-108 1143.5,-72 1214.5,-72 1214.5,-108"/>
<text text-anchor="middle" x="1179" y="-87.5" font-family="FreeSans.ttf" font-size="10.00">inertialmtb</text>
</a>
</g>
</g>
<!-- dir_6f04e49acb188dd6b84dcf25123367d6&#45;&gt;dir_bc0718b08fb2015b8e59c47b2805f60c -->
<g id="edge1" class="edge">
<title>dir_6f04e49acb188dd6b84dcf25123367d6&#45;&gt;dir_bc0718b08fb2015b8e59c47b2805f60c</title>
<path fill="none" stroke="black" d="M1199.02,-71.7C1209.13,-62.97 1221.54,-52.24 1232.52,-42.75"/>
<polygon fill="black" stroke="black" points="1234.93,-45.29 1240.21,-36.1 1230.35,-39.99 1234.93,-45.29"/>
<g id="a_edge1&#45;headlabel"><a xlink:href="dir_000097_000037.html" target="_top" xlink:title="3">
<text text-anchor="middle" x="1234.07" y="-47.29" font-family="FreeSans.ttf" font-size="10.00">3</text>
</a>
</g>
</g>
<!-- dir_5c10839133bb912ed17a53c8f723f1e7 -->
<g id="node15" class="node">
<title>dir_5c10839133bb912ed17a53c8f723f1e7</title>
<g id="a_node15"><a xlink:href="dir_5c10839133bb912ed17a53c8f723f1e7.html" target="_top" xlink:title="inertialmtbPart">
<polygon fill="white" stroke="red" points="1125.5,-108 1036.5,-108 1036.5,-72 1125.5,-72 1125.5,-108"/>
<text text-anchor="middle" x="1081" y="-87.5" font-family="FreeSans.ttf" font-size="10.00">inertialmtbPart</text>
</a>
</g>
</g>
<!-- dir_5c10839133bb912ed17a53c8f723f1e7&#45;&gt;dir_bc0718b08fb2015b8e59c47b2805f60c -->
<g id="edge23" class="edge">
<title>dir_5c10839133bb912ed17a53c8f723f1e7&#45;&gt;dir_bc0718b08fb2015b8e59c47b2805f60c</title>
<path fill="none" stroke="black" d="M1116.82,-71.88C1122.85,-69.15 1129.07,-66.43 1135,-64 1164.01,-52.09 1197.46,-40.14 1222.45,-31.55"/>
<polygon fill="black" stroke="black" points="1223.6,-34.86 1231.93,-28.31 1221.34,-28.23 1223.6,-34.86"/>
<g id="a_edge23&#45;headlabel"><a xlink:href="dir_000101_000037.html" target="_top" xlink:title="6">
<text text-anchor="middle" x="1221.11" y="-36.21" font-family="FreeSans.ttf" font-size="10.00">6</text>
</a>
</g>
</g>
<!-- dir_bc19c9e3f56d9cd36757b3c0d650fc88 -->
<g id="node16" class="node">
<title>dir_bc19c9e3f56d9cd36757b3c0d650fc88</title>
<g id="a_node16"><a xlink:href="dir_bc19c9e3f56d9cd36757b3c0d650fc88.html" target="_top" xlink:title="jointsensors">
<polygon fill="white" stroke="red" points="1018,-108 942,-108 942,-72 1018,-72 1018,-108"/>
<text text-anchor="middle" x="980" y="-87.5" font-family="FreeSans.ttf" font-size="10.00">jointsensors</text>
</a>
</g>
</g>
<!-- dir_bc19c9e3f56d9cd36757b3c0d650fc88&#45;&gt;dir_bc0718b08fb2015b8e59c47b2805f60c -->
<g id="edge7" class="edge">
<title>dir_bc19c9e3f56d9cd36757b3c0d650fc88&#45;&gt;dir_bc0718b08fb2015b8e59c47b2805f60c</title>
<path fill="none" stroke="black" d="M1009.62,-71.89C1015.57,-68.94 1021.88,-66.14 1028,-64 1094.08,-40.93 1175.12,-28.62 1221.83,-22.98"/>
<polygon fill="black" stroke="black" points="1222.29,-26.45 1231.82,-21.81 1221.48,-19.5 1222.29,-26.45"/>
<g id="a_edge7&#45;headlabel"><a xlink:href="dir_000107_000037.html" target="_top" xlink:title="5">
<text text-anchor="middle" x="1219.05" y="-27.19" font-family="FreeSans.ttf" font-size="10.00">5</text>
</a>
</g>
</g>
<!-- dir_8efcc332a12d3a9edb3db2d4141b9eaa -->
<g id="node17" class="node">
<title>dir_8efcc332a12d3a9edb3db2d4141b9eaa</title>
<g id="a_node17"><a xlink:href="dir_8efcc332a12d3a9edb3db2d4141b9eaa.html" target="_top" xlink:title="lasersensor">
<polygon fill="white" stroke="red" points="923.5,-108 850.5,-108 850.5,-72 923.5,-72 923.5,-108"/>
<text text-anchor="middle" x="887" y="-87.5" font-family="FreeSans.ttf" font-size="10.00">lasersensor</text>
</a>
</g>
</g>
<!-- dir_8efcc332a12d3a9edb3db2d4141b9eaa&#45;&gt;dir_bc0718b08fb2015b8e59c47b2805f60c -->
<g id="edge6" class="edge">
<title>dir_8efcc332a12d3a9edb3db2d4141b9eaa&#45;&gt;dir_bc0718b08fb2015b8e59c47b2805f60c</title>
<path fill="none" stroke="black" d="M914.49,-71.98C920.42,-68.91 926.78,-66.04 933,-64 1033.62,-30.96 1159.38,-22.17 1221.54,-19.84"/>
<polygon fill="black" stroke="black" points="1221.8,-23.33 1231.68,-19.5 1221.56,-16.34 1221.8,-23.33"/>
<g id="a_edge6&#45;headlabel"><a xlink:href="dir_000113_000037.html" target="_top" xlink:title="4">
<text text-anchor="middle" x="1218.3" y="-23.79" font-family="FreeSans.ttf" font-size="10.00">4</text>
</a>
</g>
</g>
<!-- dir_046a323c23a628228bfd2e9923a84f18 -->
<g id="node18" class="node">
<title>dir_046a323c23a628228bfd2e9923a84f18</title>
<g id="a_node18"><a xlink:href="dir_046a323c23a628228bfd2e9923a84f18.html" target="_top" xlink:title="linkattacher">
<polygon fill="white" stroke="red" points="832,-108 758,-108 758,-72 832,-72 832,-108"/>
<text text-anchor="middle" x="795" y="-87.5" font-family="FreeSans.ttf" font-size="10.00">linkattacher</text>
</a>
</g>
</g>
<!-- dir_046a323c23a628228bfd2e9923a84f18&#45;&gt;dir_bc0718b08fb2015b8e59c47b2805f60c -->
<g id="edge17" class="edge">
<title>dir_046a323c23a628228bfd2e9923a84f18&#45;&gt;dir_bc0718b08fb2015b8e59c47b2805f60c</title>
<path fill="none" stroke="black" d="M822.83,-71.98C828.96,-68.87 835.55,-65.98 842,-64 977,-22.53 1146.71,-18.04 1221.54,-18.32"/>
<polygon fill="black" stroke="black" points="1221.86,-21.82 1231.88,-18.39 1221.91,-14.82 1221.86,-21.82"/>
<g id="a_edge17&#45;headlabel"><a xlink:href="dir_000119_000037.html" target="_top" xlink:title="2">
<text text-anchor="middle" x="1218.24" y="-22.14" font-family="FreeSans.ttf" font-size="10.00">2</text>
</a>
</g>
</g>
<!-- dir_29a9676d2f70ac510518fe66bd2cae42 -->
<g id="node19" class="node">
<title>dir_29a9676d2f70ac510518fe66bd2cae42</title>
<g id="a_node19"><a xlink:href="dir_29a9676d2f70ac510518fe66bd2cae42.html" target="_top" xlink:title="maissensor">
<polygon fill="white" stroke="red" points="739.5,-108 666.5,-108 666.5,-72 739.5,-72 739.5,-108"/>
<text text-anchor="middle" x="703" y="-87.5" font-family="FreeSans.ttf" font-size="10.00">maissensor</text>
</a>
</g>
</g>
<!-- dir_29a9676d2f70ac510518fe66bd2cae42&#45;&gt;dir_bc0718b08fb2015b8e59c47b2805f60c -->
<g id="edge11" class="edge">
<title>dir_29a9676d2f70ac510518fe66bd2cae42&#45;&gt;dir_bc0718b08fb2015b8e59c47b2805f60c</title>
<path fill="none" stroke="black" d="M730.42,-71.75C736.35,-68.69 742.73,-65.89 749,-64 837.53,-37.31 1118.65,-24.31 1221.68,-20.35"/>
<polygon fill="black" stroke="black" points="1222.07,-23.84 1231.93,-19.97 1221.81,-16.85 1222.07,-23.84"/>
<g id="a_edge11&#45;headlabel"><a xlink:href="dir_000131_000037.html" target="_top" xlink:title="5">
<text text-anchor="middle" x="1218.58" y="-24.31" font-family="FreeSans.ttf" font-size="10.00">5</text>
</a>
</g>
</g>
<!-- dir_3d12643dece89de1511c41b539e0447c -->
<g id="node20" class="node">
<title>dir_3d12643dece89de1511c41b539e0447c</title>
<g id="a_node20"><a xlink:href="dir_3d12643dece89de1511c41b539e0447c.html" target="_top" xlink:title="modelposepublisher">
<polygon fill="white" stroke="red" points="648,-108 532,-108 532,-72 648,-72 648,-108"/>
<text text-anchor="middle" x="590" y="-87.5" font-family="FreeSans.ttf" font-size="10.00">modelposepublisher</text>
</a>
</g>
</g>
<!-- dir_3d12643dece89de1511c41b539e0447c&#45;&gt;dir_bc0718b08fb2015b8e59c47b2805f60c -->
<g id="edge3" class="edge">
<title>dir_3d12643dece89de1511c41b539e0447c&#45;&gt;dir_bc0718b08fb2015b8e59c47b2805f60c</title>
<path fill="none" stroke="black" d="M630.81,-71.92C639.64,-68.81 649.03,-65.95 658,-64 766.39,-40.51 1107.02,-25.1 1221.8,-20.47"/>
<polygon fill="black" stroke="black" points="1222.03,-23.96 1231.88,-20.07 1221.75,-16.97 1222.03,-23.96"/>
<g id="a_edge3&#45;headlabel"><a xlink:href="dir_000137_000037.html" target="_top" xlink:title="1">
<text text-anchor="middle" x="1218.55" y="-24.44" font-family="FreeSans.ttf" font-size="10.00">1</text>
</a>
</g>
</g>
<!-- dir_943024455d8c4d382a65dab7dbea7deb -->
<g id="node21" class="node">
<title>dir_943024455d8c4d382a65dab7dbea7deb</title>
<g id="a_node21"><a xlink:href="dir_943024455d8c4d382a65dab7dbea7deb.html" target="_top" xlink:title="multicamera">
<polygon fill="white" stroke="red" points="514.5,-108 435.5,-108 435.5,-72 514.5,-72 514.5,-108"/>
<text text-anchor="middle" x="475" y="-87.5" font-family="FreeSans.ttf" font-size="10.00">multicamera</text>
</a>
</g>
</g>
<!-- dir_943024455d8c4d382a65dab7dbea7deb&#45;&gt;dir_bc0718b08fb2015b8e59c47b2805f60c -->
<g id="edge8" class="edge">
<title>dir_943024455d8c4d382a65dab7dbea7deb&#45;&gt;dir_bc0718b08fb2015b8e59c47b2805f60c</title>
<path fill="none" stroke="black" d="M503.13,-71.88C509.46,-68.73 516.3,-65.86 523,-64 656.5,-26.97 1089.96,-20.39 1221.68,-19.24"/>
<polygon fill="black" stroke="black" points="1221.74,-22.74 1231.71,-19.16 1221.68,-15.74 1221.74,-22.74"/>
<g id="a_edge8&#45;headlabel"><a xlink:href="dir_000141_000037.html" target="_top" xlink:title="5">
<text text-anchor="middle" x="1218.17" y="-23.11" font-family="FreeSans.ttf" font-size="10.00">5</text>
</a>
</g>
</g>
<!-- dir_e8ec0f3129f466169cbba7d2ee236ca6 -->
<g id="node22" class="node">
<title>dir_e8ec0f3129f466169cbba7d2ee236ca6</title>
<g id="a_node22"><a xlink:href="dir_e8ec0f3129f466169cbba7d2ee236ca6.html" target="_top" xlink:title="robotinterface">
<polygon fill="white" stroke="red" points="417,-108 331,-108 331,-72 417,-72 417,-108"/>
<text text-anchor="middle" x="374" y="-87.5" font-family="FreeSans.ttf" font-size="10.00">robotinterface</text>
</a>
</g>
</g>
<!-- dir_e8ec0f3129f466169cbba7d2ee236ca6&#45;&gt;dir_bc0718b08fb2015b8e59c47b2805f60c -->
<g id="edge22" class="edge">
<title>dir_e8ec0f3129f466169cbba7d2ee236ca6&#45;&gt;dir_bc0718b08fb2015b8e59c47b2805f60c</title>
<path fill="none" stroke="black" d="M404.92,-71.98C411.99,-68.79 419.6,-65.87 427,-64 580.43,-25.25 1078.92,-19.87 1221.55,-19.12"/>
<polygon fill="black" stroke="black" points="1221.6,-22.62 1231.58,-19.07 1221.56,-15.62 1221.6,-22.62"/>
<g id="a_edge22&#45;headlabel"><a xlink:href="dir_000087_000037.html" target="_top" xlink:title="2">
<text text-anchor="middle" x="1218.01" y="-22.98" font-family="FreeSans.ttf" font-size="10.00">2</text>
</a>
</g>
</g>
<!-- dir_d811e81b7967127626ad0b1ca83fd820 -->
<g id="node23" class="node">
<title>dir_d811e81b7967127626ad0b1ca83fd820</title>
<g id="a_node23"><a xlink:href="dir_d811e81b7967127626ad0b1ca83fd820.html" target="_top" xlink:title="showmodelcom">
<polygon fill="white" stroke="red" points="313,-108 219,-108 219,-72 313,-72 313,-108"/>
<text text-anchor="middle" x="266" y="-87.5" font-family="FreeSans.ttf" font-size="10.00">showmodelcom</text>
</a>
</g>
</g>
<!-- dir_83dcf6cb8e1f1dde253047ac0989b620 -->
<g id="node24" class="node">
<title>dir_83dcf6cb8e1f1dde253047ac0989b620</title>
<g id="a_node24"><a xlink:href="dir_83dcf6cb8e1f1dde253047ac0989b620.html" target="_top" xlink:title="videotexture">
<polygon fill="white" stroke="red" points="200.5,-108 121.5,-108 121.5,-72 200.5,-72 200.5,-108"/>
<text text-anchor="middle" x="161" y="-87.5" font-family="FreeSans.ttf" font-size="10.00">videotexture</text>
</a>
</g>
</g>
<!-- dir_83dcf6cb8e1f1dde253047ac0989b620&#45;&gt;dir_bc0718b08fb2015b8e59c47b2805f60c -->
<g id="edge21" class="edge">
<title>dir_83dcf6cb8e1f1dde253047ac0989b620&#45;&gt;dir_bc0718b08fb2015b8e59c47b2805f60c</title>
<path fill="none" stroke="black" d="M189.46,-71.91C196,-68.72 203.07,-65.82 210,-64 309.21,-37.89 1044.52,-22.93 1221.68,-19.67"/>
<polygon fill="black" stroke="black" points="1221.9,-23.17 1231.83,-19.49 1221.77,-16.17 1221.9,-23.17"/>
<g id="a_edge21&#45;headlabel"><a xlink:href="dir_000152_000037.html" target="_top" xlink:title="3">
<text text-anchor="middle" x="1218.35" y="-23.58" font-family="FreeSans.ttf" font-size="10.00">3</text>
</a>
</g>
</g>
<!-- dir_f76b9bbc479297aa2d4f4065b7ffbc00 -->
<g id="node25" class="node">
<title>dir_f76b9bbc479297aa2d4f4065b7ffbc00</title>
<g id="a_node25"><a xlink:href="dir_f76b9bbc479297aa2d4f4065b7ffbc00.html" target="_top" xlink:title="worldinterface">
<polygon fill="white" stroke="red" points="103.5,-108 16.5,-108 16.5,-72 103.5,-72 103.5,-108"/>
<text text-anchor="middle" x="60" y="-87.5" font-family="FreeSans.ttf" font-size="10.00">worldinterface</text>
</a>
</g>
</g>
<!-- dir_f76b9bbc479297aa2d4f4065b7ffbc00&#45;&gt;dir_bc0718b08fb2015b8e59c47b2805f60c -->
<g id="edge16" class="edge">
<title>dir_f76b9bbc479297aa2d4f4065b7ffbc00&#45;&gt;dir_bc0718b08fb2015b8e59c47b2805f60c</title>
<path fill="none" stroke="black" d="M90.9,-71.9C97.97,-68.71 105.59,-65.81 113,-64 222.54,-37.2 1035.11,-22.61 1221.83,-19.59"/>
<polygon fill="black" stroke="black" points="1222.04,-23.09 1231.98,-19.43 1221.93,-16.09 1222.04,-23.09"/>
<g id="a_edge16&#45;headlabel"><a xlink:href="dir_000155_000037.html" target="_top" xlink:title="2">
<text text-anchor="middle" x="1218.49" y="-23.49" font-family="FreeSans.ttf" font-size="10.00">2</text>
</a>
</g>
</g>
</g>
</svg>
