<?xml version="1.0" encoding="UTF-8" standalone="no"?>
<!DOCTYPE svg PUBLIC "-//W3C//DTD SVG 1.1//EN"
 "http://www.w3.org/Graphics/SVG/1.1/DTD/svg11.dtd">
<!-- Generated by graphviz version 2.43.0 (0)
 -->
<!-- Title: include Pages: 1 -->
<svg width="182pt" height="231pt"
 viewBox="0.00 0.00 182.00 231.00" xmlns="http://www.w3.org/2000/svg" xmlns:xlink="http://www.w3.org/1999/xlink">
<g id="graph0" class="graph" transform="scale(1 1) rotate(0) translate(4 227)">
<title>include</title>
<g id="clust1" class="cluster">
<title>clusterdir_046a323c23a628228bfd2e9923a84f18</title>
<g id="a_clust1"><a xlink:href="dir_046a323c23a628228bfd2e9923a84f18.html" target="_top" xlink:title="linkattacher">
<polygon fill="#ddddee" stroke="black" points="8,-56 8,-215 166,-215 166,-56 8,-56"/>
<text text-anchor="middle" x="87" y="-203" font-family="FreeSans.ttf" font-size="10.00">linkattacher</text>
</a>
</g>
</g>
<g id="clust2" class="cluster">
<title>clusterdir_3fb9c5f9db813756a0a7e2599e0a4437</title>
<g id="a_clust2"><a xlink:href="dir_3fb9c5f9db813756a0a7e2599e0a4437.html" target="_top">
<polygon fill="#eeeeff" stroke="black" points="16,-64 16,-188 158,-188 158,-64 16,-64"/>
</a>
</g>
</g>
<!-- dir_3fb9c5f9db813756a0a7e2599e0a4437 -->
<g id="node1" class="node">
<title>dir_3fb9c5f9db813756a0a7e2599e0a4437</title>
<text text-anchor="middle" x="123" y="-159.5" font-family="FreeSans.ttf" font-size="10.00">include</text>
</g>
<!-- dir_f113398f996c80979c7ca584e3e5887b -->
<g id="node2" class="node">
<title>dir_f113398f996c80979c7ca584e3e5887b</title>
<g id="a_node2"><a xlink:href="dir_f113398f996c80979c7ca584e3e5887b.html" target="_top" xlink:title="gazebo">
<polygon fill="white" stroke="black" points="78,-180 24,-180 24,-144 78,-144 78,-180"/>
<text text-anchor="middle" x="51" y="-159.5" font-family="FreeSans.ttf" font-size="10.00">gazebo</text>
</a>
</g>
</g>
<!-- dir_93efb0eec63d7c473fb0c2791f8e5e59 -->
<g id="node3" class="node">
<title>dir_93efb0eec63d7c473fb0c2791f8e5e59</title>
<g id="a_node3"><a xlink:href="dir_93efb0eec63d7c473fb0c2791f8e5e59.html" target="_top" xlink:title="GazeboYarpPlugins">
<polygon fill="white" stroke="black" points="133.5,-108 24.5,-108 24.5,-72 133.5,-72 133.5,-108"/>
<text text-anchor="middle" x="79" y="-87.5" font-family="FreeSans.ttf" font-size="10.00">GazeboYarpPlugins</text>
</a>
</g>
</g>
<!-- dir_f113398f996c80979c7ca584e3e5887b&#45;&gt;dir_93efb0eec63d7c473fb0c2791f8e5e59 -->
<g id="edge1" class="edge">
<title>dir_f113398f996c80979c7ca584e3e5887b&#45;&gt;dir_93efb0eec63d7c473fb0c2791f8e5e59</title>
<path fill="none" stroke="black" d="M57.92,-143.7C61.07,-135.81 64.88,-126.3 68.38,-117.55"/>
<polygon fill="black" stroke="black" points="71.69,-118.69 72.16,-108.1 65.19,-116.09 71.69,-118.69"/>
<g id="a_edge1&#45;headlabel"><a xlink:href="dir_000122_000128.html" target="_top" xlink:title="1">
<text text-anchor="middle" x="73" y="-120.58" font-family="FreeSans.ttf" font-size="10.00">1</text>
</a>
</g>
</g>
<!-- dir_bc0718b08fb2015b8e59c47b2805f60c -->
<g id="node4" class="node">
<title>dir_bc0718b08fb2015b8e59c47b2805f60c</title>
<g id="a_node4"><a xlink:href="dir_bc0718b08fb2015b8e59c47b2805f60c.html" target="_top" xlink:title="libraries">
<polygon fill="none" stroke="red" points="107,-36 51,-36 51,0 107,0 107,-36"/>
<text text-anchor="middle" x="79" y="-15.5" font-family="FreeSans.ttf" font-size="10.00">libraries</text>
</a>
</g>
</g>
<!-- dir_93efb0eec63d7c473fb0c2791f8e5e59&#45;&gt;dir_bc0718b08fb2015b8e59c47b2805f60c -->
<g id="edge2" class="edge">
<title>dir_93efb0eec63d7c473fb0c2791f8e5e59&#45;&gt;dir_bc0718b08fb2015b8e59c47b2805f60c</title>
<path fill="none" stroke="black" d="M79,-71.7C79,-63.98 79,-54.71 79,-46.11"/>
<polygon fill="black" stroke="black" points="82.5,-46.1 79,-36.1 75.5,-46.1 82.5,-46.1"/>
<g id="a_edge2&#45;headlabel"><a xlink:href="dir_000128_000037.html" target="_top" xlink:title="2">
<text text-anchor="middle" x="85.34" y="-47.2" font-family="FreeSans.ttf" font-size="10.00">2</text>
</a>
</g>
</g>
</g>
</svg>
