<?xml version="1.0" encoding="UTF-8" standalone="no"?>
<!DOCTYPE svg PUBLIC "-//W3C//DTD SVG 1.1//EN"
 "http://www.w3.org/Graphics/SVG/1.1/DTD/svg11.dtd">
<!-- Generated by graphviz version 2.43.0 (0)
 -->
<!-- Title: src Pages: 1 -->
<svg width="197pt" height="167pt"
 viewBox="0.00 0.00 197.00 167.00" xmlns="http://www.w3.org/2000/svg" xmlns:xlink="http://www.w3.org/1999/xlink">
<g id="graph0" class="graph" transform="scale(1 1) rotate(0) translate(4 163)">
<title>src</title>
<g id="clust1" class="cluster">
<title>clusterdir_3d12643dece89de1511c41b539e0447c</title>
<g id="a_clust1"><a xlink:href="dir_3d12643dece89de1511c41b539e0447c.html" target="_top" xlink:title="modelposepublisher">
<polygon fill="#ddddee" stroke="black" points="8,-8 8,-151 124,-151 124,-8 8,-8"/>
<text text-anchor="middle" x="66" y="-139" font-family="FreeSans.ttf" font-size="10.00">modelposepublisher</text>
</a>
</g>
</g>
<!-- dir_49e02ab9d0e37ac9e2fc97edeca04995 -->
<g id="node1" class="node">
<title>dir_49e02ab9d0e37ac9e2fc97edeca04995</title>
<g id="a_node1"><a xlink:href="dir_49e02ab9d0e37ac9e2fc97edeca04995.html" target="_top" xlink:title="include">
<polygon fill="none" stroke="red" points="115,-52 61,-52 61,-16 115,-16 115,-52"/>
<text text-anchor="middle" x="88" y="-31.5" font-family="FreeSans.ttf" font-size="10.00">include</text>
</a>
</g>
</g>
<!-- dir_1a88a86faef4bfc8e8dd2b5fad94c0fa -->
<g id="node2" class="node">
<title>dir_1a88a86faef4bfc8e8dd2b5fad94c0fa</title>
<g id="a_node2"><a xlink:href="dir_1a88a86faef4bfc8e8dd2b5fad94c0fa.html" target="_top" xlink:title="src">
<polygon fill="#eeeeff" stroke="black" points="115,-124 61,-124 61,-88 115,-88 115,-124"/>
<text text-anchor="middle" x="88" y="-103.5" font-family="FreeSans.ttf" font-size="10.00">src</text>
</a>
</g>
</g>
<!-- dir_1a88a86faef4bfc8e8dd2b5fad94c0fa&#45;&gt;dir_49e02ab9d0e37ac9e2fc97edeca04995 -->
<g id="edge1" class="edge">
<title>dir_1a88a86faef4bfc8e8dd2b5fad94c0fa&#45;&gt;dir_49e02ab9d0e37ac9e2fc97edeca04995</title>
<path fill="none" stroke="black" d="M88,-87.7C88,-79.98 88,-70.71 88,-62.11"/>
<polygon fill="black" stroke="black" points="91.5,-62.1 88,-52.1 84.5,-62.1 91.5,-62.1"/>
<g id="a_edge1&#45;headlabel"><a xlink:href="dir_000138_000139.html" target="_top" xlink:title="1">
<text text-anchor="middle" x="94.34" y="-63.2" font-family="FreeSans.ttf" font-size="10.00">1</text>
</a>
</g>
</g>
<!-- dir_bc0718b08fb2015b8e59c47b2805f60c -->
<g id="node3" class="node">
<title>dir_bc0718b08fb2015b8e59c47b2805f60c</title>
<g id="a_node3"><a xlink:href="dir_bc0718b08fb2015b8e59c47b2805f60c.html" target="_top" xlink:title="libraries">
<polygon fill="none" stroke="red" points="189,-52 133,-52 133,-16 189,-16 189,-52"/>
<text text-anchor="middle" x="161" y="-31.5" font-family="FreeSans.ttf" font-size="10.00">libraries</text>
</a>
</g>
</g>
<!-- dir_1a88a86faef4bfc8e8dd2b5fad94c0fa&#45;&gt;dir_bc0718b08fb2015b8e59c47b2805f60c -->
<g id="edge2" class="edge">
<title>dir_1a88a86faef4bfc8e8dd2b5fad94c0fa&#45;&gt;dir_bc0718b08fb2015b8e59c47b2805f60c</title>
<path fill="none" stroke="black" d="M106.04,-87.7C115.06,-79.05 126.12,-68.45 135.94,-59.03"/>
<polygon fill="black" stroke="black" points="138.37,-61.55 143.16,-52.1 133.52,-56.5 138.37,-61.55"/>
<g id="a_edge2&#45;headlabel"><a xlink:href="dir_000138_000037.html" target="_top" xlink:title="1">
<text text-anchor="middle" x="137.74" y="-63.59" font-family="FreeSans.ttf" font-size="10.00">1</text>
</a>
</g>
</g>
</g>
</svg>
