<?xml version="1.0" encoding="UTF-8" standalone="no"?>
<!DOCTYPE svg PUBLIC "-//W3C//DTD SVG 1.1//EN"
 "http://www.w3.org/Graphics/SVG/1.1/DTD/svg11.dtd">
<!-- Generated by graphviz version 2.43.0 (0)
 -->
<!-- Title: src Pages: 1 -->
<svg width="157pt" height="167pt"
 viewBox="0.00 0.00 157.00 167.00" xmlns="http://www.w3.org/2000/svg" xmlns:xlink="http://www.w3.org/1999/xlink">
<g id="graph0" class="graph" transform="scale(1 1) rotate(0) translate(4 163)">
<title>src</title>
<g id="clust1" class="cluster">
<title>clusterdir_bc19c9e3f56d9cd36757b3c0d650fc88</title>
<g id="a_clust1"><a xlink:href="dir_bc19c9e3f56d9cd36757b3c0d650fc88.html" target="_top" xlink:title="jointsensors">
<polygon fill="#ddddee" stroke="black" points="8,-8 8,-151 84,-151 84,-8 8,-8"/>
<text text-anchor="middle" x="46" y="-139" font-family="FreeSans.ttf" font-size="10.00">jointsensors</text>
</a>
</g>
</g>
<!-- dir_2c888d999d46506e367ced7ffe8d48d5 -->
<g id="node1" class="node">
<title>dir_2c888d999d46506e367ced7ffe8d48d5</title>
<g id="a_node1"><a xlink:href="dir_2c888d999d46506e367ced7ffe8d48d5.html" target="_top" xlink:title="include">
<polygon fill="none" stroke="red" points="75,-52 21,-52 21,-16 75,-16 75,-52"/>
<text text-anchor="middle" x="48" y="-31.5" font-family="FreeSans.ttf" font-size="10.00">include</text>
</a>
</g>
</g>
<!-- dir_0122f196c99f0b840941f95ef7efaad8 -->
<g id="node2" class="node">
<title>dir_0122f196c99f0b840941f95ef7efaad8</title>
<g id="a_node2"><a xlink:href="dir_0122f196c99f0b840941f95ef7efaad8.html" target="_top" xlink:title="src">
<polygon fill="#eeeeff" stroke="black" points="75,-124 21,-124 21,-88 75,-88 75,-124"/>
<text text-anchor="middle" x="48" y="-103.5" font-family="FreeSans.ttf" font-size="10.00">src</text>
</a>
</g>
</g>
<!-- dir_0122f196c99f0b840941f95ef7efaad8&#45;&gt;dir_2c888d999d46506e367ced7ffe8d48d5 -->
<g id="edge1" class="edge">
<title>dir_0122f196c99f0b840941f95ef7efaad8&#45;&gt;dir_2c888d999d46506e367ced7ffe8d48d5</title>
<path fill="none" stroke="black" d="M48,-87.7C48,-79.98 48,-70.71 48,-62.11"/>
<polygon fill="black" stroke="black" points="51.5,-62.1 48,-52.1 44.5,-62.1 51.5,-62.1"/>
<g id="a_edge1&#45;headlabel"><a xlink:href="dir_000108_000109.html" target="_top" xlink:title="3">
<text text-anchor="middle" x="54.34" y="-63.2" font-family="FreeSans.ttf" font-size="10.00">3</text>
</a>
</g>
</g>
<!-- dir_bc0718b08fb2015b8e59c47b2805f60c -->
<g id="node3" class="node">
<title>dir_bc0718b08fb2015b8e59c47b2805f60c</title>
<g id="a_node3"><a xlink:href="dir_bc0718b08fb2015b8e59c47b2805f60c.html" target="_top" xlink:title="libraries">
<polygon fill="none" stroke="red" points="149,-52 93,-52 93,-16 149,-16 149,-52"/>
<text text-anchor="middle" x="121" y="-31.5" font-family="FreeSans.ttf" font-size="10.00">libraries</text>
</a>
</g>
</g>
<!-- dir_0122f196c99f0b840941f95ef7efaad8&#45;&gt;dir_bc0718b08fb2015b8e59c47b2805f60c -->
<g id="edge2" class="edge">
<title>dir_0122f196c99f0b840941f95ef7efaad8&#45;&gt;dir_bc0718b08fb2015b8e59c47b2805f60c</title>
<path fill="none" stroke="black" d="M66.04,-87.7C75.06,-79.05 86.12,-68.45 95.94,-59.03"/>
<polygon fill="black" stroke="black" points="98.37,-61.55 103.16,-52.1 93.52,-56.5 98.37,-61.55"/>
<g id="a_edge2&#45;headlabel"><a xlink:href="dir_000108_000037.html" target="_top" xlink:title="5">
<text text-anchor="middle" x="97.74" y="-63.59" font-family="FreeSans.ttf" font-size="10.00">5</text>
</a>
</g>
</g>
</g>
</svg>
