<?xml version="1.0" encoding="UTF-8" standalone="no"?>
<!DOCTYPE svg PUBLIC "-//W3C//DTD SVG 1.1//EN"
 "http://www.w3.org/Graphics/SVG/1.1/DTD/svg11.dtd">
<!-- Generated by graphviz version 2.43.0 (0)
 -->
<!-- Title: src Pages: 1 -->
<svg width="118pt" height="167pt"
 viewBox="0.00 0.00 118.00 167.00" xmlns="http://www.w3.org/2000/svg" xmlns:xlink="http://www.w3.org/1999/xlink">
<g id="graph0" class="graph" transform="scale(1 1) rotate(0) translate(4 163)">
<title>src</title>
<g id="clust1" class="cluster">
<title>clusterdir_d811e81b7967127626ad0b1ca83fd820</title>
<g id="a_clust1"><a xlink:href="dir_d811e81b7967127626ad0b1ca83fd820.html" target="_top" xlink:title="showmodelcom">
<polygon fill="#ddddee" stroke="black" points="8,-8 8,-151 102,-151 102,-8 8,-8"/>
<text text-anchor="middle" x="55" y="-139" font-family="FreeSans.ttf" font-size="10.00">showmodelcom</text>
</a>
</g>
</g>
<!-- dir_ca59225ccab4d8c80c6a6159a5e474cd -->
<g id="node1" class="node">
<title>dir_ca59225ccab4d8c80c6a6159a5e474cd</title>
<g id="a_node1"><a xlink:href="dir_ca59225ccab4d8c80c6a6159a5e474cd.html" target="_top" xlink:title="include">
<polygon fill="none" stroke="red" points="82,-52 28,-52 28,-16 82,-16 82,-52"/>
<text text-anchor="middle" x="55" y="-31.5" font-family="FreeSans.ttf" font-size="10.00">include</text>
</a>
</g>
</g>
<!-- dir_543ecefd462d95c574351a4cf5cd8535 -->
<g id="node2" class="node">
<title>dir_543ecefd462d95c574351a4cf5cd8535</title>
<g id="a_node2"><a xlink:href="dir_543ecefd462d95c574351a4cf5cd8535.html" target="_top" xlink:title="src">
<polygon fill="#eeeeff" stroke="black" points="82,-124 28,-124 28,-88 82,-88 82,-124"/>
<text text-anchor="middle" x="55" y="-103.5" font-family="FreeSans.ttf" font-size="10.00">src</text>
</a>
</g>
</g>
<!-- dir_543ecefd462d95c574351a4cf5cd8535&#45;&gt;dir_ca59225ccab4d8c80c6a6159a5e474cd -->
<g id="edge1" class="edge">
<title>dir_543ecefd462d95c574351a4cf5cd8535&#45;&gt;dir_ca59225ccab4d8c80c6a6159a5e474cd</title>
<path fill="none" stroke="black" d="M55,-87.7C55,-79.98 55,-70.71 55,-62.11"/>
<polygon fill="black" stroke="black" points="58.5,-62.1 55,-52.1 51.5,-62.1 58.5,-62.1"/>
<g id="a_edge1&#45;headlabel"><a xlink:href="dir_000149_000150.html" target="_top" xlink:title="1">
<text text-anchor="middle" x="61.34" y="-63.2" font-family="FreeSans.ttf" font-size="10.00">1</text>
</a>
</g>
</g>
</g>
</svg>
