<?xml version="1.0" encoding="UTF-8" standalone="no"?>
<!DOCTYPE svg PUBLIC "-//W3C//DTD SVG 1.1//EN"
 "http://www.w3.org/Graphics/SVG/1.1/DTD/svg11.dtd">
<!-- Generated by graphviz version 2.43.0 (0)
 -->
<!-- Title: src Pages: 1 -->
<svg width="164pt" height="167pt"
 viewBox="0.00 0.00 164.00 167.00" xmlns="http://www.w3.org/2000/svg" xmlns:xlink="http://www.w3.org/1999/xlink">
<g id="graph0" class="graph" transform="scale(1 1) rotate(0) translate(4 163)">
<title>src</title>
<g id="clust1" class="cluster">
<title>clusterdir_73a51e8fd8b0c6c6af3ca1a43e5d4b15</title>
<g id="a_clust1"><a xlink:href="dir_73a51e8fd8b0c6c6af3ca1a43e5d4b15.html" target="_top" xlink:title="depthCamera">
<polygon fill="#ddddee" stroke="black" points="8,-8 8,-151 91,-151 91,-8 8,-8"/>
<text text-anchor="middle" x="49.5" y="-139" font-family="FreeSans.ttf" font-size="10.00">depthCamera</text>
</a>
</g>
</g>
<!-- dir_f3d349577e9ea21f8ddba98792dcba4a -->
<g id="node1" class="node">
<title>dir_f3d349577e9ea21f8ddba98792dcba4a</title>
<g id="a_node1"><a xlink:href="dir_f3d349577e9ea21f8ddba98792dcba4a.html" target="_top" xlink:title="include">
<polygon fill="none" stroke="red" points="82,-52 28,-52 28,-16 82,-16 82,-52"/>
<text text-anchor="middle" x="55" y="-31.5" font-family="FreeSans.ttf" font-size="10.00">include</text>
</a>
</g>
</g>
<!-- dir_4feeb25ea355a9e85798fbc4fd853e6e -->
<g id="node2" class="node">
<title>dir_4feeb25ea355a9e85798fbc4fd853e6e</title>
<g id="a_node2"><a xlink:href="dir_4feeb25ea355a9e85798fbc4fd853e6e.html" target="_top" xlink:title="src">
<polygon fill="#eeeeff" stroke="black" points="82,-124 28,-124 28,-88 82,-88 82,-124"/>
<text text-anchor="middle" x="55" y="-103.5" font-family="FreeSans.ttf" font-size="10.00">src</text>
</a>
</g>
</g>
<!-- dir_4feeb25ea355a9e85798fbc4fd853e6e&#45;&gt;dir_f3d349577e9ea21f8ddba98792dcba4a -->
<g id="edge2" class="edge">
<title>dir_4feeb25ea355a9e85798fbc4fd853e6e&#45;&gt;dir_f3d349577e9ea21f8ddba98792dcba4a</title>
<path fill="none" stroke="black" d="M55,-87.7C55,-79.98 55,-70.71 55,-62.11"/>
<polygon fill="black" stroke="black" points="58.5,-62.1 55,-52.1 51.5,-62.1 58.5,-62.1"/>
<g id="a_edge2&#45;headlabel"><a xlink:href="dir_000062_000063.html" target="_top" xlink:title="3">
<text text-anchor="middle" x="61.34" y="-63.2" font-family="FreeSans.ttf" font-size="10.00">3</text>
</a>
</g>
</g>
<!-- dir_bc0718b08fb2015b8e59c47b2805f60c -->
<g id="node3" class="node">
<title>dir_bc0718b08fb2015b8e59c47b2805f60c</title>
<g id="a_node3"><a xlink:href="dir_bc0718b08fb2015b8e59c47b2805f60c.html" target="_top" xlink:title="libraries">
<polygon fill="none" stroke="red" points="156,-52 100,-52 100,-16 156,-16 156,-52"/>
<text text-anchor="middle" x="128" y="-31.5" font-family="FreeSans.ttf" font-size="10.00">libraries</text>
</a>
</g>
</g>
<!-- dir_4feeb25ea355a9e85798fbc4fd853e6e&#45;&gt;dir_bc0718b08fb2015b8e59c47b2805f60c -->
<g id="edge1" class="edge">
<title>dir_4feeb25ea355a9e85798fbc4fd853e6e&#45;&gt;dir_bc0718b08fb2015b8e59c47b2805f60c</title>
<path fill="none" stroke="black" d="M73.04,-87.7C82.06,-79.05 93.12,-68.45 102.94,-59.03"/>
<polygon fill="black" stroke="black" points="105.37,-61.55 110.16,-52.1 100.52,-56.5 105.37,-61.55"/>
<g id="a_edge1&#45;headlabel"><a xlink:href="dir_000062_000037.html" target="_top" xlink:title="5">
<text text-anchor="middle" x="104.74" y="-63.59" font-family="FreeSans.ttf" font-size="10.00">5</text>
</a>
</g>
</g>
</g>
</svg>
