<?xml version="1.0" encoding="UTF-8" standalone="no"?>
<!DOCTYPE svg PUBLIC "-//W3C//DTD SVG 1.1//EN"
 "http://www.w3.org/Graphics/SVG/1.1/DTD/svg11.dtd">
<!-- Generated by graphviz version 2.43.0 (0)
 -->
<!-- Title: src Pages: 1 -->
<svg width="145pt" height="167pt"
 viewBox="0.00 0.00 145.00 167.00" xmlns="http://www.w3.org/2000/svg" xmlns:xlink="http://www.w3.org/1999/xlink">
<g id="graph0" class="graph" transform="scale(1 1) rotate(0) translate(4 163)">
<title>src</title>
<g id="clust1" class="cluster">
<title>clusterdir_51774a750b40e0b65e413db1ee212277</title>
<g id="a_clust1"><a xlink:href="dir_51774a750b40e0b65e413db1ee212277.html" target="_top" xlink:title="configurationoverride">
<polygon fill="#ddddee" stroke="black" points="8,-8 8,-151 129,-151 129,-8 8,-8"/>
<text text-anchor="middle" x="68.5" y="-139" font-family="FreeSans.ttf" font-size="10.00">configurationoverride</text>
</a>
</g>
</g>
<!-- dir_aea0e3de9a8f3b474a42d76e40ec193a -->
<g id="node1" class="node">
<title>dir_aea0e3de9a8f3b474a42d76e40ec193a</title>
<g id="a_node1"><a xlink:href="dir_aea0e3de9a8f3b474a42d76e40ec193a.html" target="_top" xlink:title="include">
<polygon fill="none" stroke="red" points="95,-52 41,-52 41,-16 95,-16 95,-52"/>
<text text-anchor="middle" x="68" y="-31.5" font-family="FreeSans.ttf" font-size="10.00">include</text>
</a>
</g>
</g>
<!-- dir_a48e255b9139b7bf88b2956062b30c93 -->
<g id="node2" class="node">
<title>dir_a48e255b9139b7bf88b2956062b30c93</title>
<g id="a_node2"><a xlink:href="dir_a48e255b9139b7bf88b2956062b30c93.html" target="_top" xlink:title="src">
<polygon fill="#eeeeff" stroke="black" points="95,-124 41,-124 41,-88 95,-88 95,-124"/>
<text text-anchor="middle" x="68" y="-103.5" font-family="FreeSans.ttf" font-size="10.00">src</text>
</a>
</g>
</g>
<!-- dir_a48e255b9139b7bf88b2956062b30c93&#45;&gt;dir_aea0e3de9a8f3b474a42d76e40ec193a -->
<g id="edge1" class="edge">
<title>dir_a48e255b9139b7bf88b2956062b30c93&#45;&gt;dir_aea0e3de9a8f3b474a42d76e40ec193a</title>
<path fill="none" stroke="black" d="M68,-87.7C68,-79.98 68,-70.71 68,-62.11"/>
<polygon fill="black" stroke="black" points="71.5,-62.1 68,-52.1 64.5,-62.1 71.5,-62.1"/>
<g id="a_edge1&#45;headlabel"><a xlink:href="dir_000046_000047.html" target="_top" xlink:title="1">
<text text-anchor="middle" x="74.34" y="-63.2" font-family="FreeSans.ttf" font-size="10.00">1</text>
</a>
</g>
</g>
</g>
</svg>
