<?xml version="1.0" encoding="UTF-8" standalone="no"?>
<!DOCTYPE svg PUBLIC "-//W3C//DTD SVG 1.1//EN"
 "http://www.w3.org/Graphics/SVG/1.1/DTD/svg11.dtd">
<!-- Generated by graphviz version 2.43.0 (0)
 -->
<!-- Title: depthCamera Pages: 1 -->
<svg width="268pt" height="183pt"
 viewBox="0.00 0.00 268.00 183.00" xmlns="http://www.w3.org/2000/svg" xmlns:xlink="http://www.w3.org/1999/xlink">
<g id="graph0" class="graph" transform="scale(1 1) rotate(0) translate(4 179)">
<title>depthCamera</title>
<g id="clust1" class="cluster">
<title>clusterdir_38c8d24aef3972a7f87b834274e76e31</title>
<g id="a_clust1"><a xlink:href="dir_38c8d24aef3972a7f87b834274e76e31.html" target="_top" xlink:title="plugins">
<polygon fill="#ddddee" stroke="black" points="8,-8 8,-167 196,-167 196,-8 8,-8"/>
<text text-anchor="middle" x="102" y="-155" font-family="FreeSans.ttf" font-size="10.00">plugins</text>
</a>
</g>
</g>
<g id="clust2" class="cluster">
<title>clusterdir_73a51e8fd8b0c6c6af3ca1a43e5d4b15</title>
<g id="a_clust2"><a xlink:href="dir_73a51e8fd8b0c6c6af3ca1a43e5d4b15.html" target="_top">
<polygon fill="#eeeeff" stroke="black" points="16,-16 16,-140 188,-140 188,-16 16,-16"/>
</a>
</g>
</g>
<!-- dir_73a51e8fd8b0c6c6af3ca1a43e5d4b15 -->
<g id="node1" class="node">
<title>dir_73a51e8fd8b0c6c6af3ca1a43e5d4b15</title>
<text text-anchor="middle" x="138" y="-111.5" font-family="FreeSans.ttf" font-size="10.00">depthCamera</text>
</g>
<!-- dir_f3d349577e9ea21f8ddba98792dcba4a -->
<g id="node2" class="node">
<title>dir_f3d349577e9ea21f8ddba98792dcba4a</title>
<g id="a_node2"><a xlink:href="dir_f3d349577e9ea21f8ddba98792dcba4a.html" target="_top" xlink:title="include">
<polygon fill="white" stroke="red" points="78,-60 24,-60 24,-24 78,-24 78,-60"/>
<text text-anchor="middle" x="51" y="-39.5" font-family="FreeSans.ttf" font-size="10.00">include</text>
</a>
</g>
</g>
<!-- dir_4feeb25ea355a9e85798fbc4fd853e6e -->
<g id="node3" class="node">
<title>dir_4feeb25ea355a9e85798fbc4fd853e6e</title>
<g id="a_node3"><a xlink:href="dir_4feeb25ea355a9e85798fbc4fd853e6e.html" target="_top" xlink:title="src">
<polygon fill="white" stroke="black" points="78,-132 24,-132 24,-96 78,-96 78,-132"/>
<text text-anchor="middle" x="51" y="-111.5" font-family="FreeSans.ttf" font-size="10.00">src</text>
</a>
</g>
</g>
<!-- dir_4feeb25ea355a9e85798fbc4fd853e6e&#45;&gt;dir_f3d349577e9ea21f8ddba98792dcba4a -->
<g id="edge2" class="edge">
<title>dir_4feeb25ea355a9e85798fbc4fd853e6e&#45;&gt;dir_f3d349577e9ea21f8ddba98792dcba4a</title>
<path fill="none" stroke="black" d="M51,-95.7C51,-87.98 51,-78.71 51,-70.11"/>
<polygon fill="black" stroke="black" points="54.5,-70.1 51,-60.1 47.5,-70.1 54.5,-70.1"/>
<g id="a_edge2&#45;headlabel"><a xlink:href="dir_000062_000063.html" target="_top" xlink:title="3">
<text text-anchor="middle" x="57.34" y="-71.2" font-family="FreeSans.ttf" font-size="10.00">3</text>
</a>
</g>
</g>
<!-- dir_bc0718b08fb2015b8e59c47b2805f60c -->
<g id="node4" class="node">
<title>dir_bc0718b08fb2015b8e59c47b2805f60c</title>
<g id="a_node4"><a xlink:href="dir_bc0718b08fb2015b8e59c47b2805f60c.html" target="_top" xlink:title="libraries">
<polygon fill="none" stroke="red" points="260,-60 204,-60 204,-24 260,-24 260,-60"/>
<text text-anchor="middle" x="232" y="-39.5" font-family="FreeSans.ttf" font-size="10.00">libraries</text>
</a>
</g>
</g>
<!-- dir_4feeb25ea355a9e85798fbc4fd853e6e&#45;&gt;dir_bc0718b08fb2015b8e59c47b2805f60c -->
<g id="edge1" class="edge">
<title>dir_4feeb25ea355a9e85798fbc4fd853e6e&#45;&gt;dir_bc0718b08fb2015b8e59c47b2805f60c</title>
<path fill="none" stroke="black" d="M78.35,-100.07C81.58,-98.65 84.85,-97.26 88,-96 133.39,-77.77 146.35,-77.58 192,-60 192.71,-59.73 193.43,-59.45 194.16,-59.16"/>
<polygon fill="black" stroke="black" points="195.73,-62.3 203.69,-55.32 193.11,-55.81 195.73,-62.3"/>
<g id="a_edge1&#45;headlabel"><a xlink:href="dir_000062_000037.html" target="_top" xlink:title="5">
<text text-anchor="middle" x="193.46" y="-63.78" font-family="FreeSans.ttf" font-size="10.00">5</text>
</a>
</g>
</g>
</g>
</svg>
