<?xml version="1.0" encoding="UTF-8" standalone="no"?>
<!DOCTYPE svg PUBLIC "-//W3C//DTD SVG 1.1//EN"
 "http://www.w3.org/Graphics/SVG/1.1/DTD/svg11.dtd">
<!-- Generated by graphviz version 2.43.0 (0)
 -->
<!-- Title: inertialmtbPart Pages: 1 -->
<svg width="273pt" height="183pt"
 viewBox="0.00 0.00 273.00 183.00" xmlns="http://www.w3.org/2000/svg" xmlns:xlink="http://www.w3.org/1999/xlink">
<g id="graph0" class="graph" transform="scale(1 1) rotate(0) translate(4 179)">
<title>inertialmtbPart</title>
<g id="clust1" class="cluster">
<title>clusterdir_38c8d24aef3972a7f87b834274e76e31</title>
<g id="a_clust1"><a xlink:href="dir_38c8d24aef3972a7f87b834274e76e31.html" target="_top" xlink:title="plugins">
<polygon fill="#ddddee" stroke="black" points="8,-8 8,-167 201,-167 201,-8 8,-8"/>
<text text-anchor="middle" x="104.5" y="-155" font-family="FreeSans.ttf" font-size="10.00">plugins</text>
</a>
</g>
</g>
<g id="clust2" class="cluster">
<title>clusterdir_5c10839133bb912ed17a53c8f723f1e7</title>
<g id="a_clust2"><a xlink:href="dir_5c10839133bb912ed17a53c8f723f1e7.html" target="_top">
<polygon fill="#eeeeff" stroke="black" points="16,-16 16,-140 193,-140 193,-16 16,-16"/>
</a>
</g>
</g>
<!-- dir_5c10839133bb912ed17a53c8f723f1e7 -->
<g id="node1" class="node">
<title>dir_5c10839133bb912ed17a53c8f723f1e7</title>
<text text-anchor="middle" x="141" y="-111.5" font-family="FreeSans.ttf" font-size="10.00">inertialmtbPart</text>
</g>
<!-- dir_1bd8731d35235fea9d76e60d565b0bdd -->
<g id="node2" class="node">
<title>dir_1bd8731d35235fea9d76e60d565b0bdd</title>
<g id="a_node2"><a xlink:href="dir_1bd8731d35235fea9d76e60d565b0bdd.html" target="_top" xlink:title="include">
<polygon fill="white" stroke="red" points="78,-60 24,-60 24,-24 78,-24 78,-60"/>
<text text-anchor="middle" x="51" y="-39.5" font-family="FreeSans.ttf" font-size="10.00">include</text>
</a>
</g>
</g>
<!-- dir_913de3e50776fcc7030e89b68a0b0565 -->
<g id="node3" class="node">
<title>dir_913de3e50776fcc7030e89b68a0b0565</title>
<g id="a_node3"><a xlink:href="dir_913de3e50776fcc7030e89b68a0b0565.html" target="_top" xlink:title="src">
<polygon fill="white" stroke="black" points="78,-132 24,-132 24,-96 78,-96 78,-132"/>
<text text-anchor="middle" x="51" y="-111.5" font-family="FreeSans.ttf" font-size="10.00">src</text>
</a>
</g>
</g>
<!-- dir_913de3e50776fcc7030e89b68a0b0565&#45;&gt;dir_1bd8731d35235fea9d76e60d565b0bdd -->
<g id="edge1" class="edge">
<title>dir_913de3e50776fcc7030e89b68a0b0565&#45;&gt;dir_1bd8731d35235fea9d76e60d565b0bdd</title>
<path fill="none" stroke="black" d="M51,-95.7C51,-87.98 51,-78.71 51,-70.11"/>
<polygon fill="black" stroke="black" points="54.5,-70.1 51,-60.1 47.5,-70.1 54.5,-70.1"/>
<g id="a_edge1&#45;headlabel"><a xlink:href="dir_000102_000103.html" target="_top" xlink:title="3">
<text text-anchor="middle" x="57.34" y="-71.2" font-family="FreeSans.ttf" font-size="10.00">3</text>
</a>
</g>
</g>
<!-- dir_bc0718b08fb2015b8e59c47b2805f60c -->
<g id="node4" class="node">
<title>dir_bc0718b08fb2015b8e59c47b2805f60c</title>
<g id="a_node4"><a xlink:href="dir_bc0718b08fb2015b8e59c47b2805f60c.html" target="_top" xlink:title="libraries">
<polygon fill="none" stroke="red" points="265,-60 209,-60 209,-24 265,-24 265,-60"/>
<text text-anchor="middle" x="237" y="-39.5" font-family="FreeSans.ttf" font-size="10.00">libraries</text>
</a>
</g>
</g>
<!-- dir_913de3e50776fcc7030e89b68a0b0565&#45;&gt;dir_bc0718b08fb2015b8e59c47b2805f60c -->
<g id="edge2" class="edge">
<title>dir_913de3e50776fcc7030e89b68a0b0565&#45;&gt;dir_bc0718b08fb2015b8e59c47b2805f60c</title>
<path fill="none" stroke="black" d="M78.33,-100.03C81.57,-98.62 84.84,-97.24 88,-96 135.48,-77.32 149.26,-77.99 197,-60 197.71,-59.73 198.44,-59.46 199.16,-59.18"/>
<polygon fill="black" stroke="black" points="200.72,-62.32 208.71,-55.37 198.13,-55.82 200.72,-62.32"/>
<g id="a_edge2&#45;headlabel"><a xlink:href="dir_000102_000037.html" target="_top" xlink:title="6">
<text text-anchor="middle" x="198.43" y="-63.79" font-family="FreeSans.ttf" font-size="10.00">6</text>
</a>
</g>
</g>
</g>
</svg>
