<?xml version="1.0" encoding="UTF-8" standalone="no"?>
<!DOCTYPE svg PUBLIC "-//W3C//DTD SVG 1.1//EN"
 "http://www.w3.org/Graphics/SVG/1.1/DTD/svg11.dtd">
<!-- Generated by graphviz version 2.43.0 (0)
 -->
<!-- Title: singleton Pages: 1 -->
<svg width="190pt" height="183pt"
 viewBox="0.00 0.00 190.00 183.00" xmlns="http://www.w3.org/2000/svg" xmlns:xlink="http://www.w3.org/1999/xlink">
<g id="graph0" class="graph" transform="scale(1 1) rotate(0) translate(4 179)">
<title>singleton</title>
<g id="clust1" class="cluster">
<title>clusterdir_bc0718b08fb2015b8e59c47b2805f60c</title>
<g id="a_clust1"><a xlink:href="dir_bc0718b08fb2015b8e59c47b2805f60c.html" target="_top" xlink:title="libraries">
<polygon fill="#ddddee" stroke="black" points="8,-8 8,-167 174,-167 174,-8 8,-8"/>
<text text-anchor="middle" x="91" y="-155" font-family="FreeSans.ttf" font-size="10.00">libraries</text>
</a>
</g>
</g>
<g id="clust2" class="cluster">
<title>clusterdir_b7ff290ecd4e1e8c0586c0e9aed9400f</title>
<g id="a_clust2"><a xlink:href="dir_b7ff290ecd4e1e8c0586c0e9aed9400f.html" target="_top">
<polygon fill="#eeeeff" stroke="black" points="16,-16 16,-140 166,-140 166,-16 16,-16"/>
</a>
</g>
</g>
<!-- dir_b7ff290ecd4e1e8c0586c0e9aed9400f -->
<g id="node1" class="node">
<title>dir_b7ff290ecd4e1e8c0586c0e9aed9400f</title>
<text text-anchor="middle" x="127" y="-111.5" font-family="FreeSans.ttf" font-size="10.00">singleton</text>
</g>
<!-- dir_f553f2d343b7d038b4b6a9882fc54c2a -->
<g id="node2" class="node">
<title>dir_f553f2d343b7d038b4b6a9882fc54c2a</title>
<g id="a_node2"><a xlink:href="dir_f553f2d343b7d038b4b6a9882fc54c2a.html" target="_top" xlink:title="include">
<polygon fill="white" stroke="red" points="78,-60 24,-60 24,-24 78,-24 78,-60"/>
<text text-anchor="middle" x="51" y="-39.5" font-family="FreeSans.ttf" font-size="10.00">include</text>
</a>
</g>
</g>
<!-- dir_263223f370629ae1e8d25e908b926ee0 -->
<g id="node3" class="node">
<title>dir_263223f370629ae1e8d25e908b926ee0</title>
<g id="a_node3"><a xlink:href="dir_263223f370629ae1e8d25e908b926ee0.html" target="_top" xlink:title="src">
<polygon fill="white" stroke="black" points="78,-132 24,-132 24,-96 78,-96 78,-132"/>
<text text-anchor="middle" x="51" y="-111.5" font-family="FreeSans.ttf" font-size="10.00">src</text>
</a>
</g>
</g>
<!-- dir_263223f370629ae1e8d25e908b926ee0&#45;&gt;dir_f553f2d343b7d038b4b6a9882fc54c2a -->
<g id="edge1" class="edge">
<title>dir_263223f370629ae1e8d25e908b926ee0&#45;&gt;dir_f553f2d343b7d038b4b6a9882fc54c2a</title>
<path fill="none" stroke="black" d="M51,-95.7C51,-87.98 51,-78.71 51,-70.11"/>
<polygon fill="black" stroke="black" points="54.5,-70.1 51,-60.1 47.5,-70.1 54.5,-70.1"/>
<g id="a_edge1&#45;headlabel"><a xlink:href="dir_000042_000043.html" target="_top" xlink:title="2">
<text text-anchor="middle" x="57.34" y="-71.2" font-family="FreeSans.ttf" font-size="10.00">2</text>
</a>
</g>
</g>
</g>
</svg>
