<?xml version="1.0" encoding="UTF-8" standalone="no"?>
<!DOCTYPE svg PUBLIC "-//W3C//DTD SVG 1.1//EN"
 "http://www.w3.org/Graphics/SVG/1.1/DTD/svg11.dtd">
<!-- Generated by graphviz version 2.43.0 (0)
 -->
<!-- Title: fakecontrolboard Pages: 1 -->
<svg width="284pt" height="183pt"
 viewBox="0.00 0.00 284.00 183.00" xmlns="http://www.w3.org/2000/svg" xmlns:xlink="http://www.w3.org/1999/xlink">
<g id="graph0" class="graph" transform="scale(1 1) rotate(0) translate(4 179)">
<title>fakecontrolboard</title>
<g id="clust1" class="cluster">
<title>clusterdir_38c8d24aef3972a7f87b834274e76e31</title>
<g id="a_clust1"><a xlink:href="dir_38c8d24aef3972a7f87b834274e76e31.html" target="_top" xlink:title="plugins">
<polygon fill="#ddddee" stroke="black" points="8,-8 8,-167 212,-167 212,-8 8,-8"/>
<text text-anchor="middle" x="110" y="-155" font-family="FreeSans.ttf" font-size="10.00">plugins</text>
</a>
</g>
</g>
<g id="clust2" class="cluster">
<title>clusterdir_c0e6bc0a9a22a7d45d0f140b2daa5655</title>
<g id="a_clust2"><a xlink:href="dir_c0e6bc0a9a22a7d45d0f140b2daa5655.html" target="_top">
<polygon fill="#eeeeff" stroke="black" points="16,-16 16,-140 204,-140 204,-16 16,-16"/>
</a>
</g>
</g>
<!-- dir_c0e6bc0a9a22a7d45d0f140b2daa5655 -->
<g id="node1" class="node">
<title>dir_c0e6bc0a9a22a7d45d0f140b2daa5655</title>
<text text-anchor="middle" x="146" y="-111.5" font-family="FreeSans.ttf" font-size="10.00">fakecontrolboard</text>
</g>
<!-- dir_5eff8a23a528164089eefaf8f4f9a18b -->
<g id="node2" class="node">
<title>dir_5eff8a23a528164089eefaf8f4f9a18b</title>
<g id="a_node2"><a xlink:href="dir_5eff8a23a528164089eefaf8f4f9a18b.html" target="_top" xlink:title="include">
<polygon fill="white" stroke="red" points="78,-60 24,-60 24,-24 78,-24 78,-60"/>
<text text-anchor="middle" x="51" y="-39.5" font-family="FreeSans.ttf" font-size="10.00">include</text>
</a>
</g>
</g>
<!-- dir_fc161603684595c3b55a4ea34b77a4a8 -->
<g id="node3" class="node">
<title>dir_fc161603684595c3b55a4ea34b77a4a8</title>
<g id="a_node3"><a xlink:href="dir_fc161603684595c3b55a4ea34b77a4a8.html" target="_top" xlink:title="src">
<polygon fill="white" stroke="black" points="78,-132 24,-132 24,-96 78,-96 78,-132"/>
<text text-anchor="middle" x="51" y="-111.5" font-family="FreeSans.ttf" font-size="10.00">src</text>
</a>
</g>
</g>
<!-- dir_fc161603684595c3b55a4ea34b77a4a8&#45;&gt;dir_5eff8a23a528164089eefaf8f4f9a18b -->
<g id="edge1" class="edge">
<title>dir_fc161603684595c3b55a4ea34b77a4a8&#45;&gt;dir_5eff8a23a528164089eefaf8f4f9a18b</title>
<path fill="none" stroke="black" d="M51,-95.7C51,-87.98 51,-78.71 51,-70.11"/>
<polygon fill="black" stroke="black" points="54.5,-70.1 51,-60.1 47.5,-70.1 54.5,-70.1"/>
<g id="a_edge1&#45;headlabel"><a xlink:href="dir_000076_000077.html" target="_top" xlink:title="11">
<text text-anchor="middle" x="57.34" y="-71.2" font-family="FreeSans.ttf" font-size="10.00">11</text>
</a>
</g>
</g>
<!-- dir_bc0718b08fb2015b8e59c47b2805f60c -->
<g id="node4" class="node">
<title>dir_bc0718b08fb2015b8e59c47b2805f60c</title>
<g id="a_node4"><a xlink:href="dir_bc0718b08fb2015b8e59c47b2805f60c.html" target="_top" xlink:title="libraries">
<polygon fill="none" stroke="red" points="276,-60 220,-60 220,-24 276,-24 276,-60"/>
<text text-anchor="middle" x="248" y="-39.5" font-family="FreeSans.ttf" font-size="10.00">libraries</text>
</a>
</g>
</g>
<!-- dir_fc161603684595c3b55a4ea34b77a4a8&#45;&gt;dir_bc0718b08fb2015b8e59c47b2805f60c -->
<g id="edge2" class="edge">
<title>dir_fc161603684595c3b55a4ea34b77a4a8&#45;&gt;dir_bc0718b08fb2015b8e59c47b2805f60c</title>
<path fill="none" stroke="black" d="M78.3,-99.94C81.54,-98.55 84.83,-97.2 88,-96 140.09,-76.33 155.63,-78.92 208,-60 208.72,-59.74 209.44,-59.47 210.17,-59.2"/>
<polygon fill="black" stroke="black" points="211.71,-62.36 219.75,-55.46 209.16,-55.84 211.71,-62.36"/>
<g id="a_edge2&#45;headlabel"><a xlink:href="dir_000076_000037.html" target="_top" xlink:title="5">
<text text-anchor="middle" x="209.39" y="-63.81" font-family="FreeSans.ttf" font-size="10.00">5</text>
</a>
</g>
</g>
</g>
</svg>
