<?xml version="1.0" encoding="UTF-8" standalone="no"?>
<!DOCTYPE svg PUBLIC "-//W3C//DTD SVG 1.1//EN"
 "http://www.w3.org/Graphics/SVG/1.1/DTD/svg11.dtd">
<!-- Generated by graphviz version 2.49.0 (20210829.0051)
 -->
<!-- Title: plugins Pages: 1 -->
<svg width="2307pt" height="132pt"
 viewBox="0.00 0.00 2307.00 132.00" xmlns="http://www.w3.org/2000/svg" xmlns:xlink="http://www.w3.org/1999/xlink">
<g id="graph0" class="graph" transform="scale(1 1) rotate(0) translate(4 128)">
<title>plugins</title>
<g id="clust1" class="cluster">
<title>clusterdir_38c8d24aef3972a7f87b834274e76e31</title>
<g id="a_clust1"><a xlink:href="dir_38c8d24aef3972a7f87b834274e76e31.html" target="_top">
<polygon fill="#eeeeff" stroke="black" points="8,-64 8,-116 2291,-116 2291,-64 8,-64"/>
</a>
</g>
</g>
<!-- dir_38c8d24aef3972a7f87b834274e76e31 -->
<g id="node1" class="node">
<title>dir_38c8d24aef3972a7f87b834274e76e31</title>
<text text-anchor="middle" x="2256" y="-87.5" font-family="FreeSans.ttf" font-size="10.00">plugins</text>
</g>
<!-- dir_7841ec4a99b94e3d79b1689d8465e0e5 -->
<g id="node2" class="node">
<title>dir_7841ec4a99b94e3d79b1689d8465e0e5</title>
<g id="a_node2"><a xlink:href="dir_7841ec4a99b94e3d79b1689d8465e0e5.html" target="_top" xlink:title="basestate">
<polygon fill="white" stroke="red" points="2210.5,-108 2145.5,-108 2145.5,-72 2210.5,-72 2210.5,-108"/>
<text text-anchor="middle" x="2178" y="-87.5" font-family="FreeSans.ttf" font-size="10.00">basestate</text>
</a>
</g>
</g>
<!-- dir_bc0718b08fb2015b8e59c47b2805f60c -->
<g id="node24" class="node">
<title>dir_bc0718b08fb2015b8e59c47b2805f60c</title>
<g id="a_node24"><a xlink:href="dir_bc0718b08fb2015b8e59c47b2805f60c.html" target="_top" xlink:title="libraries">
<polygon fill="none" stroke="red" points="1193,-36 1137,-36 1137,0 1193,0 1193,-36"/>
<text text-anchor="middle" x="1165" y="-15.5" font-family="FreeSans.ttf" font-size="10.00">libraries</text>
</a>
</g>
</g>
<!-- dir_7841ec4a99b94e3d79b1689d8465e0e5&#45;&gt;dir_bc0718b08fb2015b8e59c47b2805f60c -->
<g id="edge13" class="edge">
<title>dir_7841ec4a99b94e3d79b1689d8465e0e5&#45;&gt;dir_bc0718b08fb2015b8e59c47b2805f60c</title>
<path fill="none" stroke="black" d="M2153.62,-71.8C2148.06,-68.66 2142.01,-65.81 2136,-64 2045.61,-36.87 1371.74,-22.79 1203.15,-19.67"/>
<polygon fill="black" stroke="black" points="1203.07,-16.17 1193.01,-19.49 1202.94,-23.17 1203.07,-16.17"/>
<g id="a_edge13&#45;headlabel"><a xlink:href="dir_000005_000037.html" target="_top" xlink:title="5">
<text text-anchor="middle" x="1206.72" y="-10.9" font-family="FreeSans.ttf" font-size="10.00">5</text>
</a>
</g>
</g>
<!-- dir_855d9f51cde680933ebd4a21e4db48bd -->
<g id="node3" class="node">
<title>dir_855d9f51cde680933ebd4a21e4db48bd</title>
<g id="a_node3"><a xlink:href="dir_855d9f51cde680933ebd4a21e4db48bd.html" target="_top" xlink:title="camera">
<polygon fill="white" stroke="red" points="2127,-108 2073,-108 2073,-72 2127,-72 2127,-108"/>
<text text-anchor="middle" x="2100" y="-87.5" font-family="FreeSans.ttf" font-size="10.00">camera</text>
</a>
</g>
</g>
<!-- dir_855d9f51cde680933ebd4a21e4db48bd&#45;&gt;dir_bc0718b08fb2015b8e59c47b2805f60c -->
<g id="edge2" class="edge">
<title>dir_855d9f51cde680933ebd4a21e4db48bd&#45;&gt;dir_bc0718b08fb2015b8e59c47b2805f60c</title>
<path fill="none" stroke="black" d="M2079.37,-71.81C2074.59,-68.67 2069.33,-65.82 2064,-64 1981.85,-36 1365.32,-22.71 1203.7,-19.68"/>
<polygon fill="black" stroke="black" points="1203.35,-16.18 1193.29,-19.49 1203.22,-23.18 1203.35,-16.18"/>
<g id="a_edge2&#45;headlabel"><a xlink:href="dir_000011_000037.html" target="_top" xlink:title="5">
<text text-anchor="middle" x="1207" y="-10.9" font-family="FreeSans.ttf" font-size="10.00">5</text>
</a>
</g>
</g>
<!-- dir_04c6088db7183ec7094cf602e61089db -->
<g id="node4" class="node">
<title>dir_04c6088db7183ec7094cf602e61089db</title>
<g id="a_node4"><a xlink:href="dir_04c6088db7183ec7094cf602e61089db.html" target="_top" xlink:title="clock">
<polygon fill="white" stroke="red" points="2055,-108 2001,-108 2001,-72 2055,-72 2055,-108"/>
<text text-anchor="middle" x="2028" y="-87.5" font-family="FreeSans.ttf" font-size="10.00">clock</text>
</a>
</g>
</g>
<!-- dir_04c6088db7183ec7094cf602e61089db&#45;&gt;dir_bc0718b08fb2015b8e59c47b2805f60c -->
<g id="edge11" class="edge">
<title>dir_04c6088db7183ec7094cf602e61089db&#45;&gt;dir_bc0718b08fb2015b8e59c47b2805f60c</title>
<path fill="none" stroke="black" d="M2007.36,-71.83C2002.58,-68.69 1997.33,-65.83 1992,-64 1916.96,-38.24 1356.64,-23.45 1203.55,-19.86"/>
<polygon fill="black" stroke="black" points="1203.32,-16.36 1193.24,-19.62 1203.16,-23.35 1203.32,-16.36"/>
<g id="a_edge11&#45;headlabel"><a xlink:href="dir_000017_000037.html" target="_top" xlink:title="1">
<text text-anchor="middle" x="1206.98" y="-11.1" font-family="FreeSans.ttf" font-size="10.00">1</text>
</a>
</g>
</g>
<!-- dir_51774a750b40e0b65e413db1ee212277 -->
<g id="node5" class="node">
<title>dir_51774a750b40e0b65e413db1ee212277</title>
<g id="a_node5"><a xlink:href="dir_51774a750b40e0b65e413db1ee212277.html" target="_top" xlink:title="configurationoverride">
<polygon fill="white" stroke="red" points="1982.5,-108 1861.5,-108 1861.5,-72 1982.5,-72 1982.5,-108"/>
<text text-anchor="middle" x="1922" y="-87.5" font-family="FreeSans.ttf" font-size="10.00">configurationoverride</text>
</a>
</g>
</g>
<!-- dir_51774a750b40e0b65e413db1ee212277&#45;&gt;dir_bc0718b08fb2015b8e59c47b2805f60c -->
<g id="edge17" class="edge">
<title>dir_51774a750b40e0b65e413db1ee212277&#45;&gt;dir_bc0718b08fb2015b8e59c47b2805f60c</title>
<path fill="none" stroke="black" d="M1880.34,-72C1871.14,-68.84 1861.35,-65.94 1852,-64 1726.47,-38 1328.99,-23.98 1203.42,-20.11"/>
<polygon fill="black" stroke="black" points="1203.24,-16.61 1193.14,-19.8 1203.03,-23.6 1203.24,-16.61"/>
<g id="a_edge17&#45;headlabel"><a xlink:href="dir_000045_000037.html" target="_top" xlink:title="1">
<text text-anchor="middle" x="1206.92" y="-11.38" font-family="FreeSans.ttf" font-size="10.00">1</text>
</a>
</g>
</g>
<!-- dir_11027470e615656811f6db1ba0d6569d -->
<g id="node6" class="node">
<title>dir_11027470e615656811f6db1ba0d6569d</title>
<g id="a_node6"><a xlink:href="dir_11027470e615656811f6db1ba0d6569d.html" target="_top" xlink:title="contactloadcellarray">
<polygon fill="white" stroke="red" points="1843,-108 1727,-108 1727,-72 1843,-72 1843,-108"/>
<text text-anchor="middle" x="1785" y="-87.5" font-family="FreeSans.ttf" font-size="10.00">contactloadcellarray</text>
</a>
</g>
</g>
<!-- dir_11027470e615656811f6db1ba0d6569d&#45;&gt;dir_bc0718b08fb2015b8e59c47b2805f60c -->
<g id="edge16" class="edge">
<title>dir_11027470e615656811f6db1ba0d6569d&#45;&gt;dir_bc0718b08fb2015b8e59c47b2805f60c</title>
<path fill="none" stroke="black" d="M1744.8,-71.96C1736.1,-68.85 1726.85,-65.97 1718,-64 1528.08,-21.7 1293.56,-18.14 1203.08,-18.52"/>
<polygon fill="black" stroke="black" points="1203,-15.02 1193.02,-18.58 1203.04,-22.02 1203,-15.02"/>
<g id="a_edge16&#45;headlabel"><a xlink:href="dir_000049_000037.html" target="_top" xlink:title="5">
<text text-anchor="middle" x="1206.58" y="-9.65" font-family="FreeSans.ttf" font-size="10.00">5</text>
</a>
</g>
</g>
<!-- dir_9089f405ed28af813214a8e12b3cd4bc -->
<g id="node7" class="node">
<title>dir_9089f405ed28af813214a8e12b3cd4bc</title>
<g id="a_node7"><a xlink:href="dir_9089f405ed28af813214a8e12b3cd4bc.html" target="_top" xlink:title="controlboard">
<polygon fill="white" stroke="red" points="1709,-108 1631,-108 1631,-72 1709,-72 1709,-108"/>
<text text-anchor="middle" x="1670" y="-87.5" font-family="FreeSans.ttf" font-size="10.00">controlboard</text>
</a>
</g>
</g>
<!-- dir_9089f405ed28af813214a8e12b3cd4bc&#45;&gt;dir_bc0718b08fb2015b8e59c47b2805f60c -->
<g id="edge18" class="edge">
<title>dir_9089f405ed28af813214a8e12b3cd4bc&#45;&gt;dir_bc0718b08fb2015b8e59c47b2805f60c</title>
<path fill="none" stroke="black" d="M1641.56,-71.94C1635.3,-68.83 1628.57,-65.96 1622,-64 1543.74,-40.72 1298.17,-25.89 1203.11,-20.88"/>
<polygon fill="black" stroke="black" points="1203.24,-17.39 1193.07,-20.36 1202.87,-24.38 1203.24,-17.39"/>
<g id="a_edge18&#45;headlabel"><a xlink:href="dir_000055_000037.html" target="_top" xlink:title="8">
<text text-anchor="middle" x="1206.97" y="-12.24" font-family="FreeSans.ttf" font-size="10.00">8</text>
</a>
</g>
</g>
<!-- dir_73a51e8fd8b0c6c6af3ca1a43e5d4b15 -->
<g id="node8" class="node">
<title>dir_73a51e8fd8b0c6c6af3ca1a43e5d4b15</title>
<g id="a_node8"><a xlink:href="dir_73a51e8fd8b0c6c6af3ca1a43e5d4b15.html" target="_top" xlink:title="depthCamera">
<polygon fill="white" stroke="red" points="1612.5,-108 1529.5,-108 1529.5,-72 1612.5,-72 1612.5,-108"/>
<text text-anchor="middle" x="1571" y="-87.5" font-family="FreeSans.ttf" font-size="10.00">depthCamera</text>
</a>
</g>
</g>
<!-- dir_73a51e8fd8b0c6c6af3ca1a43e5d4b15&#45;&gt;dir_bc0718b08fb2015b8e59c47b2805f60c -->
<g id="edge5" class="edge">
<title>dir_73a51e8fd8b0c6c6af3ca1a43e5d4b15&#45;&gt;dir_bc0718b08fb2015b8e59c47b2805f60c</title>
<path fill="none" stroke="black" d="M1540.37,-71.98C1533.81,-68.91 1526.8,-66.04 1520,-64 1408.38,-30.58 1269.76,-21.97 1203.62,-19.76"/>
<polygon fill="black" stroke="black" points="1203.37,-16.25 1193.26,-19.45 1203.15,-23.25 1203.37,-16.25"/>
<g id="a_edge5&#45;headlabel"><a xlink:href="dir_000061_000037.html" target="_top" xlink:title="5">
<text text-anchor="middle" x="1207.04" y="-11.02" font-family="FreeSans.ttf" font-size="10.00">5</text>
</a>
</g>
</g>
<!-- dir_db85526beb8f1e80be334897ce51d8fa -->
<g id="node9" class="node">
<title>dir_db85526beb8f1e80be334897ce51d8fa</title>
<g id="a_node9"><a xlink:href="dir_db85526beb8f1e80be334897ce51d8fa.html" target="_top" xlink:title="externalwrench">
<polygon fill="white" stroke="red" points="1511,-108 1419,-108 1419,-72 1511,-72 1511,-108"/>
<text text-anchor="middle" x="1465" y="-87.5" font-family="FreeSans.ttf" font-size="10.00">externalwrench</text>
</a>
</g>
</g>
<!-- dir_db85526beb8f1e80be334897ce51d8fa&#45;&gt;dir_bc0718b08fb2015b8e59c47b2805f60c -->
<g id="edge4" class="edge">
<title>dir_db85526beb8f1e80be334897ce51d8fa&#45;&gt;dir_bc0718b08fb2015b8e59c47b2805f60c</title>
<path fill="none" stroke="black" d="M1430.89,-71.94C1424.08,-68.98 1416.91,-66.17 1410,-64 1338.69,-41.62 1252.01,-28.95 1203.2,-23.08"/>
<polygon fill="black" stroke="black" points="1203.43,-19.58 1193.09,-21.89 1202.62,-26.53 1203.43,-19.58"/>
<g id="a_edge4&#45;headlabel"><a xlink:href="dir_000001_000037.html" target="_top" xlink:title="2">
<text text-anchor="middle" x="1207.33" y="-14.68" font-family="FreeSans.ttf" font-size="10.00">2</text>
</a>
</g>
</g>
<!-- dir_c0e6bc0a9a22a7d45d0f140b2daa5655 -->
<g id="node10" class="node">
<title>dir_c0e6bc0a9a22a7d45d0f140b2daa5655</title>
<g id="a_node10"><a xlink:href="dir_c0e6bc0a9a22a7d45d0f140b2daa5655.html" target="_top" xlink:title="fakecontrolboard">
<polygon fill="white" stroke="red" points="1400.5,-108 1301.5,-108 1301.5,-72 1400.5,-72 1400.5,-108"/>
<text text-anchor="middle" x="1351" y="-87.5" font-family="FreeSans.ttf" font-size="10.00">fakecontrolboard</text>
</a>
</g>
</g>
<!-- dir_c0e6bc0a9a22a7d45d0f140b2daa5655&#45;&gt;dir_bc0718b08fb2015b8e59c47b2805f60c -->
<g id="edge12" class="edge">
<title>dir_c0e6bc0a9a22a7d45d0f140b2daa5655&#45;&gt;dir_bc0718b08fb2015b8e59c47b2805f60c</title>
<path fill="none" stroke="black" d="M1312.47,-71.95C1306,-69.22 1299.33,-66.47 1293,-64 1262.98,-52.27 1228.48,-40.22 1202.87,-31.55"/>
<polygon fill="black" stroke="black" points="1203.76,-28.16 1193.17,-28.28 1201.53,-34.79 1203.76,-28.16"/>
<g id="a_edge12&#45;headlabel"><a xlink:href="dir_000071_000037.html" target="_top" xlink:title="5">
<text text-anchor="middle" x="1208.08" y="-24.11" font-family="FreeSans.ttf" font-size="10.00">5</text>
</a>
</g>
</g>
<!-- dir_784426c7a4935761292633b35a0751aa -->
<g id="node11" class="node">
<title>dir_784426c7a4935761292633b35a0751aa</title>
<g id="a_node11"><a xlink:href="dir_784426c7a4935761292633b35a0751aa.html" target="_top" xlink:title="forcetorque">
<polygon fill="white" stroke="red" points="1283.5,-108 1210.5,-108 1210.5,-72 1283.5,-72 1283.5,-108"/>
<text text-anchor="middle" x="1247" y="-87.5" font-family="FreeSans.ttf" font-size="10.00">forcetorque</text>
</a>
</g>
</g>
<!-- dir_784426c7a4935761292633b35a0751aa&#45;&gt;dir_bc0718b08fb2015b8e59c47b2805f60c -->
<g id="edge8" class="edge">
<title>dir_784426c7a4935761292633b35a0751aa&#45;&gt;dir_bc0718b08fb2015b8e59c47b2805f60c</title>
<path fill="none" stroke="black" d="M1226.73,-71.7C1216.5,-62.97 1203.94,-52.24 1192.82,-42.75"/>
<polygon fill="black" stroke="black" points="1194.91,-39.94 1185.04,-36.1 1190.37,-45.26 1194.91,-39.94"/>
<g id="a_edge8&#45;headlabel"><a xlink:href="dir_000077_000037.html" target="_top" xlink:title="4">
<text text-anchor="middle" x="1199.49" y="-37.61" font-family="FreeSans.ttf" font-size="10.00">4</text>
</a>
</g>
</g>
<!-- dir_d9ea6a3302f9b448a9cd2551fef12dbe -->
<g id="node12" class="node">
<title>dir_d9ea6a3302f9b448a9cd2551fef12dbe</title>
<g id="a_node12"><a xlink:href="dir_d9ea6a3302f9b448a9cd2551fef12dbe.html" target="_top" xlink:title="imu">
<polygon fill="white" stroke="red" points="1192,-108 1138,-108 1138,-72 1192,-72 1192,-108"/>
<text text-anchor="middle" x="1165" y="-87.5" font-family="FreeSans.ttf" font-size="10.00">imu</text>
</a>
</g>
</g>
<!-- dir_d9ea6a3302f9b448a9cd2551fef12dbe&#45;&gt;dir_bc0718b08fb2015b8e59c47b2805f60c -->
<g id="edge9" class="edge">
<title>dir_d9ea6a3302f9b448a9cd2551fef12dbe&#45;&gt;dir_bc0718b08fb2015b8e59c47b2805f60c</title>
<path fill="none" stroke="black" d="M1165,-71.7C1165,-63.98 1165,-54.71 1165,-46.11"/>
<polygon fill="black" stroke="black" points="1168.5,-46.1 1165,-36.1 1161.5,-46.1 1168.5,-46.1"/>
<g id="a_edge9&#45;headlabel"><a xlink:href="dir_000087_000037.html" target="_top" xlink:title="5">
<text text-anchor="middle" x="1171.34" y="-47.2" font-family="FreeSans.ttf" font-size="10.00">5</text>
</a>
</g>
</g>
<!-- dir_6f04e49acb188dd6b84dcf25123367d6 -->
<g id="node13" class="node">
<title>dir_6f04e49acb188dd6b84dcf25123367d6</title>
<g id="a_node13"><a xlink:href="dir_6f04e49acb188dd6b84dcf25123367d6.html" target="_top" xlink:title="inertialmtb">
<polygon fill="white" stroke="red" points="1119.5,-108 1048.5,-108 1048.5,-72 1119.5,-72 1119.5,-108"/>
<text text-anchor="middle" x="1084" y="-87.5" font-family="FreeSans.ttf" font-size="10.00">inertialmtb</text>
</a>
</g>
</g>
<!-- dir_6f04e49acb188dd6b84dcf25123367d6&#45;&gt;dir_bc0718b08fb2015b8e59c47b2805f60c -->
<g id="edge1" class="edge">
<title>dir_6f04e49acb188dd6b84dcf25123367d6&#45;&gt;dir_bc0718b08fb2015b8e59c47b2805f60c</title>
<path fill="none" stroke="black" d="M1104.02,-71.7C1114.13,-62.97 1126.54,-52.24 1137.52,-42.75"/>
<polygon fill="black" stroke="black" points="1139.93,-45.29 1145.21,-36.1 1135.35,-39.99 1139.93,-45.29"/>
<g id="a_edge1&#45;headlabel"><a xlink:href="dir_000093_000037.html" target="_top" xlink:title="3">
<text text-anchor="middle" x="1139.07" y="-47.29" font-family="FreeSans.ttf" font-size="10.00">3</text>
</a>
</g>
</g>
<!-- dir_5c10839133bb912ed17a53c8f723f1e7 -->
<g id="node14" class="node">
<title>dir_5c10839133bb912ed17a53c8f723f1e7</title>
<g id="a_node14"><a xlink:href="dir_5c10839133bb912ed17a53c8f723f1e7.html" target="_top" xlink:title="inertialmtbPart">
<polygon fill="white" stroke="red" points="1030.5,-108 941.5,-108 941.5,-72 1030.5,-72 1030.5,-108"/>
<text text-anchor="middle" x="986" y="-87.5" font-family="FreeSans.ttf" font-size="10.00">inertialmtbPart</text>
</a>
</g>
</g>
<!-- dir_5c10839133bb912ed17a53c8f723f1e7&#45;&gt;dir_bc0718b08fb2015b8e59c47b2805f60c -->
<g id="edge21" class="edge">
<title>dir_5c10839133bb912ed17a53c8f723f1e7&#45;&gt;dir_bc0718b08fb2015b8e59c47b2805f60c</title>
<path fill="none" stroke="black" d="M1021.82,-71.88C1027.85,-69.15 1034.07,-66.43 1040,-64 1069.01,-52.09 1102.46,-40.14 1127.45,-31.55"/>
<polygon fill="black" stroke="black" points="1128.6,-34.86 1136.93,-28.31 1126.34,-28.23 1128.6,-34.86"/>
<g id="a_edge21&#45;headlabel"><a xlink:href="dir_000097_000037.html" target="_top" xlink:title="6">
<text text-anchor="middle" x="1126.11" y="-36.21" font-family="FreeSans.ttf" font-size="10.00">6</text>
</a>
</g>
</g>
<!-- dir_8efcc332a12d3a9edb3db2d4141b9eaa -->
<g id="node15" class="node">
<title>dir_8efcc332a12d3a9edb3db2d4141b9eaa</title>
<g id="a_node15"><a xlink:href="dir_8efcc332a12d3a9edb3db2d4141b9eaa.html" target="_top" xlink:title="lasersensor">
<polygon fill="white" stroke="red" points="923.5,-108 850.5,-108 850.5,-72 923.5,-72 923.5,-108"/>
<text text-anchor="middle" x="887" y="-87.5" font-family="FreeSans.ttf" font-size="10.00">lasersensor</text>
</a>
</g>
</g>
<!-- dir_8efcc332a12d3a9edb3db2d4141b9eaa&#45;&gt;dir_bc0718b08fb2015b8e59c47b2805f60c -->
<g id="edge6" class="edge">
<title>dir_8efcc332a12d3a9edb3db2d4141b9eaa&#45;&gt;dir_bc0718b08fb2015b8e59c47b2805f60c</title>
<path fill="none" stroke="black" d="M915.08,-71.99C920.86,-68.99 927.01,-66.15 933,-64 998.88,-40.35 1079.98,-28.24 1126.76,-22.79"/>
<polygon fill="black" stroke="black" points="1127.22,-26.26 1136.77,-21.66 1126.44,-19.3 1127.22,-26.26"/>
<g id="a_edge6&#45;headlabel"><a xlink:href="dir_000103_000037.html" target="_top" xlink:title="4">
<text text-anchor="middle" x="1123.97" y="-26.98" font-family="FreeSans.ttf" font-size="10.00">4</text>
</a>
</g>
</g>
<!-- dir_046a323c23a628228bfd2e9923a84f18 -->
<g id="node16" class="node">
<title>dir_046a323c23a628228bfd2e9923a84f18</title>
<g id="a_node16"><a xlink:href="dir_046a323c23a628228bfd2e9923a84f18.html" target="_top" xlink:title="linkattacher">
<polygon fill="white" stroke="red" points="832,-108 758,-108 758,-72 832,-72 832,-108"/>
<text text-anchor="middle" x="795" y="-87.5" font-family="FreeSans.ttf" font-size="10.00">linkattacher</text>
</a>
</g>
</g>
<!-- dir_046a323c23a628228bfd2e9923a84f18&#45;&gt;dir_bc0718b08fb2015b8e59c47b2805f60c -->
<g id="edge15" class="edge">
<title>dir_046a323c23a628228bfd2e9923a84f18&#45;&gt;dir_bc0718b08fb2015b8e59c47b2805f60c</title>
<path fill="none" stroke="black" d="M823.38,-71.87C829.36,-68.85 835.76,-66.02 842,-64 941.28,-31.8 1065.05,-22.64 1126.58,-20.03"/>
<polygon fill="black" stroke="black" points="1126.75,-23.53 1136.61,-19.65 1126.48,-16.54 1126.75,-23.53"/>
<g id="a_edge15&#45;headlabel"><a xlink:href="dir_000109_000037.html" target="_top" xlink:title="2">
<text text-anchor="middle" x="1123.27" y="-24.01" font-family="FreeSans.ttf" font-size="10.00">2</text>
</a>
</g>
</g>
<!-- dir_29a9676d2f70ac510518fe66bd2cae42 -->
<g id="node17" class="node">
<title>dir_29a9676d2f70ac510518fe66bd2cae42</title>
<g id="a_node17"><a xlink:href="dir_29a9676d2f70ac510518fe66bd2cae42.html" target="_top" xlink:title="maissensor">
<polygon fill="white" stroke="red" points="739.5,-108 666.5,-108 666.5,-72 739.5,-72 739.5,-108"/>
<text text-anchor="middle" x="703" y="-87.5" font-family="FreeSans.ttf" font-size="10.00">maissensor</text>
</a>
</g>
</g>
<!-- dir_29a9676d2f70ac510518fe66bd2cae42&#45;&gt;dir_bc0718b08fb2015b8e59c47b2805f60c -->
<g id="edge10" class="edge">
<title>dir_29a9676d2f70ac510518fe66bd2cae42&#45;&gt;dir_bc0718b08fb2015b8e59c47b2805f60c</title>
<path fill="none" stroke="black" d="M730.45,-71.84C736.38,-68.78 742.75,-65.95 749,-64 883.16,-22.09 1052.16,-17.83 1126.69,-18.24"/>
<polygon fill="black" stroke="black" points="1126.96,-21.74 1136.99,-18.33 1127.02,-14.74 1126.96,-21.74"/>
<g id="a_edge10&#45;headlabel"><a xlink:href="dir_000121_000037.html" target="_top" xlink:title="5">
<text text-anchor="middle" x="1123.34" y="-22.05" font-family="FreeSans.ttf" font-size="10.00">5</text>
</a>
</g>
</g>
<!-- dir_3d12643dece89de1511c41b539e0447c -->
<g id="node18" class="node">
<title>dir_3d12643dece89de1511c41b539e0447c</title>
<g id="a_node18"><a xlink:href="dir_3d12643dece89de1511c41b539e0447c.html" target="_top" xlink:title="modelposepublisher">
<polygon fill="white" stroke="red" points="648,-108 532,-108 532,-72 648,-72 648,-108"/>
<text text-anchor="middle" x="590" y="-87.5" font-family="FreeSans.ttf" font-size="10.00">modelposepublisher</text>
</a>
</g>
</g>
<!-- dir_3d12643dece89de1511c41b539e0447c&#45;&gt;dir_bc0718b08fb2015b8e59c47b2805f60c -->
<g id="edge3" class="edge">
<title>dir_3d12643dece89de1511c41b539e0447c&#45;&gt;dir_bc0718b08fb2015b8e59c47b2805f60c</title>
<path fill="none" stroke="black" d="M631.19,-71.89C639.92,-68.82 649.16,-65.98 658,-64 829.79,-25.51 1041.26,-19.67 1126.6,-18.98"/>
<polygon fill="black" stroke="black" points="1126.87,-22.48 1136.85,-18.92 1126.83,-15.48 1126.87,-22.48"/>
<g id="a_edge3&#45;headlabel"><a xlink:href="dir_000127_000037.html" target="_top" xlink:title="1">
<text text-anchor="middle" x="1123.29" y="-22.84" font-family="FreeSans.ttf" font-size="10.00">1</text>
</a>
</g>
</g>
<!-- dir_943024455d8c4d382a65dab7dbea7deb -->
<g id="node19" class="node">
<title>dir_943024455d8c4d382a65dab7dbea7deb</title>
<g id="a_node19"><a xlink:href="dir_943024455d8c4d382a65dab7dbea7deb.html" target="_top" xlink:title="multicamera">
<polygon fill="white" stroke="red" points="514.5,-108 435.5,-108 435.5,-72 514.5,-72 514.5,-108"/>
<text text-anchor="middle" x="475" y="-87.5" font-family="FreeSans.ttf" font-size="10.00">multicamera</text>
</a>
</g>
</g>
<!-- dir_943024455d8c4d382a65dab7dbea7deb&#45;&gt;dir_bc0718b08fb2015b8e59c47b2805f60c -->
<g id="edge7" class="edge">
<title>dir_943024455d8c4d382a65dab7dbea7deb&#45;&gt;dir_bc0718b08fb2015b8e59c47b2805f60c</title>
<path fill="none" stroke="black" d="M503.14,-71.92C509.47,-68.77 516.31,-65.89 523,-64 637.56,-31.67 1006.15,-21.98 1126.56,-19.64"/>
<polygon fill="black" stroke="black" points="1126.83,-23.14 1136.77,-19.45 1126.7,-16.14 1126.83,-23.14"/>
<g id="a_edge7&#45;headlabel"><a xlink:href="dir_000131_000037.html" target="_top" xlink:title="5">
<text text-anchor="middle" x="1123.29" y="-23.55" font-family="FreeSans.ttf" font-size="10.00">5</text>
</a>
</g>
</g>
<!-- dir_e8ec0f3129f466169cbba7d2ee236ca6 -->
<g id="node20" class="node">
<title>dir_e8ec0f3129f466169cbba7d2ee236ca6</title>
<g id="a_node20"><a xlink:href="dir_e8ec0f3129f466169cbba7d2ee236ca6.html" target="_top" xlink:title="robotinterface">
<polygon fill="white" stroke="red" points="417,-108 331,-108 331,-72 417,-72 417,-108"/>
<text text-anchor="middle" x="374" y="-87.5" font-family="FreeSans.ttf" font-size="10.00">robotinterface</text>
</a>
</g>
</g>
<!-- dir_e8ec0f3129f466169cbba7d2ee236ca6&#45;&gt;dir_bc0718b08fb2015b8e59c47b2805f60c -->
<g id="edge20" class="edge">
<title>dir_e8ec0f3129f466169cbba7d2ee236ca6&#45;&gt;dir_bc0718b08fb2015b8e59c47b2805f60c</title>
<path fill="none" stroke="black" d="M405.22,-71.89C412.2,-68.75 419.71,-65.87 427,-64 561.38,-29.57 994.95,-21.2 1126.68,-19.43"/>
<polygon fill="black" stroke="black" points="1126.75,-22.93 1136.71,-19.3 1126.66,-15.93 1126.75,-22.93"/>
<g id="a_edge20&#45;headlabel"><a xlink:href="dir_000083_000037.html" target="_top" xlink:title="2">
<text text-anchor="middle" x="1123.2" y="-23.31" font-family="FreeSans.ttf" font-size="10.00">2</text>
</a>
</g>
</g>
<!-- dir_d811e81b7967127626ad0b1ca83fd820 -->
<g id="node21" class="node">
<title>dir_d811e81b7967127626ad0b1ca83fd820</title>
<g id="a_node21"><a xlink:href="dir_d811e81b7967127626ad0b1ca83fd820.html" target="_top" xlink:title="showmodelcom">
<polygon fill="white" stroke="red" points="313,-108 219,-108 219,-72 313,-72 313,-108"/>
<text text-anchor="middle" x="266" y="-87.5" font-family="FreeSans.ttf" font-size="10.00">showmodelcom</text>
</a>
</g>
</g>
<!-- dir_83dcf6cb8e1f1dde253047ac0989b620 -->
<g id="node22" class="node">
<title>dir_83dcf6cb8e1f1dde253047ac0989b620</title>
<g id="a_node22"><a xlink:href="dir_83dcf6cb8e1f1dde253047ac0989b620.html" target="_top" xlink:title="videotexture">
<polygon fill="white" stroke="red" points="200.5,-108 121.5,-108 121.5,-72 200.5,-72 200.5,-108"/>
<text text-anchor="middle" x="161" y="-87.5" font-family="FreeSans.ttf" font-size="10.00">videotexture</text>
</a>
</g>
</g>
<!-- dir_83dcf6cb8e1f1dde253047ac0989b620&#45;&gt;dir_bc0718b08fb2015b8e59c47b2805f60c -->
<g id="edge19" class="edge">
<title>dir_83dcf6cb8e1f1dde253047ac0989b620&#45;&gt;dir_bc0718b08fb2015b8e59c47b2805f60c</title>
<path fill="none" stroke="black" d="M189.46,-71.94C196,-68.74 203.08,-65.84 210,-64 387.41,-16.91 971.08,-17.6 1126.62,-18.66"/>
<polygon fill="black" stroke="black" points="1126.63,-22.16 1136.66,-18.73 1126.68,-15.16 1126.63,-22.16"/>
<g id="a_edge19&#45;headlabel"><a xlink:href="dir_000142_000037.html" target="_top" xlink:title="3">
<text text-anchor="middle" x="1123.02" y="-22.47" font-family="FreeSans.ttf" font-size="10.00">3</text>
</a>
</g>
</g>
<!-- dir_f76b9bbc479297aa2d4f4065b7ffbc00 -->
<g id="node23" class="node">
<title>dir_f76b9bbc479297aa2d4f4065b7ffbc00</title>
<g id="a_node23"><a xlink:href="dir_f76b9bbc479297aa2d4f4065b7ffbc00.html" target="_top" xlink:title="worldinterface">
<polygon fill="white" stroke="red" points="103.5,-108 16.5,-108 16.5,-72 103.5,-72 103.5,-108"/>
<text text-anchor="middle" x="60" y="-87.5" font-family="FreeSans.ttf" font-size="10.00">worldinterface</text>
</a>
</g>
</g>
<!-- dir_f76b9bbc479297aa2d4f4065b7ffbc00&#45;&gt;dir_bc0718b08fb2015b8e59c47b2805f60c -->
<g id="edge14" class="edge">
<title>dir_f76b9bbc479297aa2d4f4065b7ffbc00&#45;&gt;dir_bc0718b08fb2015b8e59c47b2805f60c</title>
<path fill="none" stroke="black" d="M90.91,-71.92C97.98,-68.73 105.59,-65.83 113,-64 310.77,-15.23 961.45,-17.27 1126.61,-18.62"/>
<polygon fill="black" stroke="black" points="1126.75,-22.12 1136.78,-18.7 1126.81,-15.12 1126.75,-22.12"/>
<g id="a_edge14&#45;headlabel"><a xlink:href="dir_000145_000037.html" target="_top" xlink:title="2">
<text text-anchor="middle" x="1123.13" y="-22.43" font-family="FreeSans.ttf" font-size="10.00">2</text>
</a>
</g>
</g>
</g>
</svg>
