<?xml version="1.0" encoding="UTF-8" standalone="no"?>
<!DOCTYPE svg PUBLIC "-//W3C//DTD SVG 1.1//EN"
 "http://www.w3.org/Graphics/SVG/1.1/DTD/svg11.dtd">
<!-- Generated by graphviz version 2.43.0 (0)
 -->
<!-- Title: src Pages: 1 -->
<svg width="111pt" height="151pt"
 viewBox="0.00 0.00 111.00 151.00" xmlns="http://www.w3.org/2000/svg" xmlns:xlink="http://www.w3.org/1999/xlink">
<g id="graph0" class="graph" transform="scale(1 1) rotate(0) translate(4 147)">
<title>src</title>
<g id="clust1" class="cluster">
<title>clusterdir_f76b9bbc479297aa2d4f4065b7ffbc00</title>
<g id="a_clust1"><a xlink:href="dir_f76b9bbc479297aa2d4f4065b7ffbc00.html" target="_top" xlink:title="worldinterface">
<polygon fill="#ddddee" stroke="black" points="8,-64 8,-135 95,-135 95,-64 8,-64"/>
<text text-anchor="middle" x="51.5" y="-123" font-family="FreeSans.ttf" font-size="10.00">worldinterface</text>
</a>
</g>
</g>
<!-- dir_dbff1a026e25ad2284a32897d60e3c8b -->
<g id="node1" class="node">
<title>dir_dbff1a026e25ad2284a32897d60e3c8b</title>
<g id="a_node1"><a xlink:href="dir_dbff1a026e25ad2284a32897d60e3c8b.html" target="_top" xlink:title="src">
<polygon fill="#eeeeff" stroke="black" points="78,-108 24,-108 24,-72 78,-72 78,-108"/>
<text text-anchor="middle" x="51" y="-87.5" font-family="FreeSans.ttf" font-size="10.00">src</text>
</a>
</g>
</g>
<!-- dir_bc0718b08fb2015b8e59c47b2805f60c -->
<g id="node2" class="node">
<title>dir_bc0718b08fb2015b8e59c47b2805f60c</title>
<g id="a_node2"><a xlink:href="dir_bc0718b08fb2015b8e59c47b2805f60c.html" target="_top" xlink:title="libraries">
<polygon fill="none" stroke="red" points="79,-36 23,-36 23,0 79,0 79,-36"/>
<text text-anchor="middle" x="51" y="-15.5" font-family="FreeSans.ttf" font-size="10.00">libraries</text>
</a>
</g>
</g>
<!-- dir_dbff1a026e25ad2284a32897d60e3c8b&#45;&gt;dir_bc0718b08fb2015b8e59c47b2805f60c -->
<g id="edge1" class="edge">
<title>dir_dbff1a026e25ad2284a32897d60e3c8b&#45;&gt;dir_bc0718b08fb2015b8e59c47b2805f60c</title>
<path fill="none" stroke="black" d="M51,-71.7C51,-63.98 51,-54.71 51,-46.11"/>
<polygon fill="black" stroke="black" points="54.5,-46.1 51,-36.1 47.5,-46.1 54.5,-46.1"/>
<g id="a_edge1&#45;headlabel"><a xlink:href="dir_000156_000037.html" target="_top" xlink:title="2">
<text text-anchor="middle" x="57.34" y="-47.2" font-family="FreeSans.ttf" font-size="10.00">2</text>
</a>
</g>
</g>
</g>
</svg>
