<?xml version="1.0" encoding="UTF-8" standalone="no"?>
<!DOCTYPE svg PUBLIC "-//W3C//DTD SVG 1.1//EN"
 "http://www.w3.org/Graphics/SVG/1.1/DTD/svg11.dtd">
<!-- Generated by graphviz version 2.43.0 (0)
 -->
<!-- Title: src Pages: 1 -->
<svg width="112pt" height="167pt"
 viewBox="0.00 0.00 112.00 167.00" xmlns="http://www.w3.org/2000/svg" xmlns:xlink="http://www.w3.org/1999/xlink">
<g id="graph0" class="graph" transform="scale(1 1) rotate(0) translate(4 163)">
<title>src</title>
<g id="clust1" class="cluster">
<title>clusterdir_d194dc410e9b28642bdb1b9f97caf218</title>
<g id="a_clust1"><a xlink:href="dir_d194dc410e9b28642bdb1b9f97caf218.html" target="_top" xlink:title="autogenerated">
<polygon fill="#ddddee" stroke="black" points="8,-8 8,-151 96,-151 96,-8 8,-8"/>
<text text-anchor="middle" x="52" y="-139" font-family="FreeSans.ttf" font-size="10.00">autogenerated</text>
</a>
</g>
</g>
<!-- dir_aed3e8ae494df7d56726b677d43f79cb -->
<g id="node1" class="node">
<title>dir_aed3e8ae494df7d56726b677d43f79cb</title>
<g id="a_node1"><a xlink:href="dir_aed3e8ae494df7d56726b677d43f79cb.html" target="_top" xlink:title="include">
<polygon fill="none" stroke="red" points="79,-52 25,-52 25,-16 79,-16 79,-52"/>
<text text-anchor="middle" x="52" y="-31.5" font-family="FreeSans.ttf" font-size="10.00">include</text>
</a>
</g>
</g>
<!-- dir_f52ae5bd00441b59b07935f6419e108a -->
<g id="node2" class="node">
<title>dir_f52ae5bd00441b59b07935f6419e108a</title>
<g id="a_node2"><a xlink:href="dir_f52ae5bd00441b59b07935f6419e108a.html" target="_top" xlink:title="src">
<polygon fill="#eeeeff" stroke="black" points="79,-124 25,-124 25,-88 79,-88 79,-124"/>
<text text-anchor="middle" x="52" y="-103.5" font-family="FreeSans.ttf" font-size="10.00">src</text>
</a>
</g>
</g>
<!-- dir_f52ae5bd00441b59b07935f6419e108a&#45;&gt;dir_aed3e8ae494df7d56726b677d43f79cb -->
<g id="edge1" class="edge">
<title>dir_f52ae5bd00441b59b07935f6419e108a&#45;&gt;dir_aed3e8ae494df7d56726b677d43f79cb</title>
<path fill="none" stroke="black" d="M52,-87.7C52,-79.98 52,-70.71 52,-62.11"/>
<polygon fill="black" stroke="black" points="55.5,-62.1 52,-52.1 48.5,-62.1 55.5,-62.1"/>
<g id="a_edge1&#45;headlabel"><a xlink:href="dir_000034_000035.html" target="_top" xlink:title="3">
<text text-anchor="middle" x="58.34" y="-63.2" font-family="FreeSans.ttf" font-size="10.00">3</text>
</a>
</g>
</g>
</g>
</svg>
