<?xml version="1.0" encoding="UTF-8" standalone="no"?>
<!DOCTYPE svg PUBLIC "-//W3C//DTD SVG 1.1//EN"
 "http://www.w3.org/Graphics/SVG/1.1/DTD/svg11.dtd">
<!-- Generated by graphviz version 2.43.0 (0)
 -->
<!-- Title: src Pages: 1 -->
<svg width="155pt" height="167pt"
 viewBox="0.00 0.00 155.00 167.00" xmlns="http://www.w3.org/2000/svg" xmlns:xlink="http://www.w3.org/1999/xlink">
<g id="graph0" class="graph" transform="scale(1 1) rotate(0) translate(4 163)">
<title>src</title>
<g id="clust1" class="cluster">
<title>clusterdir_a93889490c023186069c9943c08c68cb</title>
<g id="a_clust1"><a xlink:href="dir_a93889490c023186069c9943c08c68cb.html" target="_top" xlink:title="doublelaser">
<polygon fill="#ddddee" stroke="black" points="8,-8 8,-151 82,-151 82,-8 8,-8"/>
<text text-anchor="middle" x="45" y="-139" font-family="FreeSans.ttf" font-size="10.00">doublelaser</text>
</a>
</g>
</g>
<!-- dir_df4c65ac9db640197a3662c4b8f5b3ba -->
<g id="node1" class="node">
<title>dir_df4c65ac9db640197a3662c4b8f5b3ba</title>
<g id="a_node1"><a xlink:href="dir_df4c65ac9db640197a3662c4b8f5b3ba.html" target="_top" xlink:title="include">
<polygon fill="none" stroke="red" points="73,-52 19,-52 19,-16 73,-16 73,-52"/>
<text text-anchor="middle" x="46" y="-31.5" font-family="FreeSans.ttf" font-size="10.00">include</text>
</a>
</g>
</g>
<!-- dir_9ca8c036a41a6e0319051fd6d7b2165e -->
<g id="node2" class="node">
<title>dir_9ca8c036a41a6e0319051fd6d7b2165e</title>
<g id="a_node2"><a xlink:href="dir_9ca8c036a41a6e0319051fd6d7b2165e.html" target="_top" xlink:title="src">
<polygon fill="#eeeeff" stroke="black" points="73,-124 19,-124 19,-88 73,-88 73,-124"/>
<text text-anchor="middle" x="46" y="-103.5" font-family="FreeSans.ttf" font-size="10.00">src</text>
</a>
</g>
</g>
<!-- dir_9ca8c036a41a6e0319051fd6d7b2165e&#45;&gt;dir_df4c65ac9db640197a3662c4b8f5b3ba -->
<g id="edge2" class="edge">
<title>dir_9ca8c036a41a6e0319051fd6d7b2165e&#45;&gt;dir_df4c65ac9db640197a3662c4b8f5b3ba</title>
<path fill="none" stroke="black" d="M46,-87.7C46,-79.98 46,-70.71 46,-62.11"/>
<polygon fill="black" stroke="black" points="49.5,-62.1 46,-52.1 42.5,-62.1 49.5,-62.1"/>
<g id="a_edge2&#45;headlabel"><a xlink:href="dir_000068_000069.html" target="_top" xlink:title="1">
<text text-anchor="middle" x="52.34" y="-63.2" font-family="FreeSans.ttf" font-size="10.00">1</text>
</a>
</g>
</g>
<!-- dir_bc0718b08fb2015b8e59c47b2805f60c -->
<g id="node3" class="node">
<title>dir_bc0718b08fb2015b8e59c47b2805f60c</title>
<g id="a_node3"><a xlink:href="dir_bc0718b08fb2015b8e59c47b2805f60c.html" target="_top" xlink:title="libraries">
<polygon fill="none" stroke="red" points="147,-52 91,-52 91,-16 147,-16 147,-52"/>
<text text-anchor="middle" x="119" y="-31.5" font-family="FreeSans.ttf" font-size="10.00">libraries</text>
</a>
</g>
</g>
<!-- dir_9ca8c036a41a6e0319051fd6d7b2165e&#45;&gt;dir_bc0718b08fb2015b8e59c47b2805f60c -->
<g id="edge1" class="edge">
<title>dir_9ca8c036a41a6e0319051fd6d7b2165e&#45;&gt;dir_bc0718b08fb2015b8e59c47b2805f60c</title>
<path fill="none" stroke="black" d="M64.04,-87.7C73.06,-79.05 84.12,-68.45 93.94,-59.03"/>
<polygon fill="black" stroke="black" points="96.37,-61.55 101.16,-52.1 91.52,-56.5 96.37,-61.55"/>
<g id="a_edge1&#45;headlabel"><a xlink:href="dir_000068_000037.html" target="_top" xlink:title="3">
<text text-anchor="middle" x="95.74" y="-63.59" font-family="FreeSans.ttf" font-size="10.00">3</text>
</a>
</g>
</g>
</g>
</svg>
