<?xml version="1.0" encoding="UTF-8" standalone="no"?>
<!DOCTYPE svg PUBLIC "-//W3C//DTD SVG 1.1//EN"
 "http://www.w3.org/Graphics/SVG/1.1/DTD/svg11.dtd">
<!-- Generated by graphviz version 2.43.0 (0)
 -->
<!-- Title: src Pages: 1 -->
<svg width="116pt" height="167pt"
 viewBox="0.00 0.00 116.00 167.00" xmlns="http://www.w3.org/2000/svg" xmlns:xlink="http://www.w3.org/1999/xlink">
<g id="graph0" class="graph" transform="scale(1 1) rotate(0) translate(4 163)">
<title>src</title>
<g id="clust1" class="cluster">
<title>clusterdir_db85526beb8f1e80be334897ce51d8fa</title>
<g id="a_clust1"><a xlink:href="dir_db85526beb8f1e80be334897ce51d8fa.html" target="_top" xlink:title="externalwrench">
<polygon fill="#ddddee" stroke="black" points="8,-8 8,-151 100,-151 100,-8 8,-8"/>
<text text-anchor="middle" x="54" y="-139" font-family="FreeSans.ttf" font-size="10.00">externalwrench</text>
</a>
</g>
</g>
<!-- dir_5abb9c3c98bf3a26cd16c60f10305de7 -->
<g id="node1" class="node">
<title>dir_5abb9c3c98bf3a26cd16c60f10305de7</title>
<g id="a_node1"><a xlink:href="dir_5abb9c3c98bf3a26cd16c60f10305de7.html" target="_top" xlink:title="include">
<polygon fill="none" stroke="red" points="81,-52 27,-52 27,-16 81,-16 81,-52"/>
<text text-anchor="middle" x="54" y="-31.5" font-family="FreeSans.ttf" font-size="10.00">include</text>
</a>
</g>
</g>
<!-- dir_0181effe01026cb82f9d1f463c0a61aa -->
<g id="node2" class="node">
<title>dir_0181effe01026cb82f9d1f463c0a61aa</title>
<g id="a_node2"><a xlink:href="dir_0181effe01026cb82f9d1f463c0a61aa.html" target="_top" xlink:title="src">
<polygon fill="#eeeeff" stroke="black" points="81,-124 27,-124 27,-88 81,-88 81,-124"/>
<text text-anchor="middle" x="54" y="-103.5" font-family="FreeSans.ttf" font-size="10.00">src</text>
</a>
</g>
</g>
<!-- dir_0181effe01026cb82f9d1f463c0a61aa&#45;&gt;dir_5abb9c3c98bf3a26cd16c60f10305de7 -->
<g id="edge1" class="edge">
<title>dir_0181effe01026cb82f9d1f463c0a61aa&#45;&gt;dir_5abb9c3c98bf3a26cd16c60f10305de7</title>
<path fill="none" stroke="black" d="M54,-87.7C54,-79.98 54,-70.71 54,-62.11"/>
<polygon fill="black" stroke="black" points="57.5,-62.1 54,-52.1 50.5,-62.1 57.5,-62.1"/>
<g id="a_edge1&#45;headlabel"><a xlink:href="dir_000002_000003.html" target="_top" xlink:title="2">
<text text-anchor="middle" x="60.34" y="-63.2" font-family="FreeSans.ttf" font-size="10.00">2</text>
</a>
</g>
</g>
</g>
</svg>
