<?xml version="1.0" encoding="UTF-8" standalone="no"?>
<!DOCTYPE svg PUBLIC "-//W3C//DTD SVG 1.1//EN"
 "http://www.w3.org/Graphics/SVG/1.1/DTD/svg11.dtd">
<!-- Generated by graphviz version 2.43.0 (0)
 -->
<!-- Title: robotinterface Pages: 1 -->
<svg width="270pt" height="183pt"
 viewBox="0.00 0.00 270.00 183.00" xmlns="http://www.w3.org/2000/svg" xmlns:xlink="http://www.w3.org/1999/xlink">
<g id="graph0" class="graph" transform="scale(1 1) rotate(0) translate(4 179)">
<title>robotinterface</title>
<g id="clust1" class="cluster">
<title>clusterdir_38c8d24aef3972a7f87b834274e76e31</title>
<g id="a_clust1"><a xlink:href="dir_38c8d24aef3972a7f87b834274e76e31.html" target="_top" xlink:title="plugins">
<polygon fill="#ddddee" stroke="black" points="8,-8 8,-167 198,-167 198,-8 8,-8"/>
<text text-anchor="middle" x="103" y="-155" font-family="FreeSans.ttf" font-size="10.00">plugins</text>
</a>
</g>
</g>
<g id="clust2" class="cluster">
<title>clusterdir_e8ec0f3129f466169cbba7d2ee236ca6</title>
<g id="a_clust2"><a xlink:href="dir_e8ec0f3129f466169cbba7d2ee236ca6.html" target="_top">
<polygon fill="#eeeeff" stroke="black" points="16,-16 16,-140 190,-140 190,-16 16,-16"/>
</a>
</g>
</g>
<!-- dir_e8ec0f3129f466169cbba7d2ee236ca6 -->
<g id="node1" class="node">
<title>dir_e8ec0f3129f466169cbba7d2ee236ca6</title>
<text text-anchor="middle" x="139" y="-111.5" font-family="FreeSans.ttf" font-size="10.00">robotinterface</text>
</g>
<!-- dir_10d1785bce240e0d92df2be06dfac1e4 -->
<g id="node2" class="node">
<title>dir_10d1785bce240e0d92df2be06dfac1e4</title>
<g id="a_node2"><a xlink:href="dir_10d1785bce240e0d92df2be06dfac1e4.html" target="_top" xlink:title="include">
<polygon fill="white" stroke="red" points="78,-60 24,-60 24,-24 78,-24 78,-60"/>
<text text-anchor="middle" x="51" y="-39.5" font-family="FreeSans.ttf" font-size="10.00">include</text>
</a>
</g>
</g>
<!-- dir_c98ad360c2784556c7d658363593a3a0 -->
<g id="node3" class="node">
<title>dir_c98ad360c2784556c7d658363593a3a0</title>
<g id="a_node3"><a xlink:href="dir_c98ad360c2784556c7d658363593a3a0.html" target="_top" xlink:title="src">
<polygon fill="white" stroke="black" points="78,-132 24,-132 24,-96 78,-96 78,-132"/>
<text text-anchor="middle" x="51" y="-111.5" font-family="FreeSans.ttf" font-size="10.00">src</text>
</a>
</g>
</g>
<!-- dir_c98ad360c2784556c7d658363593a3a0&#45;&gt;dir_10d1785bce240e0d92df2be06dfac1e4 -->
<g id="edge1" class="edge">
<title>dir_c98ad360c2784556c7d658363593a3a0&#45;&gt;dir_10d1785bce240e0d92df2be06dfac1e4</title>
<path fill="none" stroke="black" d="M51,-95.7C51,-87.98 51,-78.71 51,-70.11"/>
<polygon fill="black" stroke="black" points="54.5,-70.1 51,-60.1 47.5,-70.1 54.5,-70.1"/>
<g id="a_edge1&#45;headlabel"><a xlink:href="dir_000088_000089.html" target="_top" xlink:title="1">
<text text-anchor="middle" x="57.34" y="-71.2" font-family="FreeSans.ttf" font-size="10.00">1</text>
</a>
</g>
</g>
<!-- dir_bc0718b08fb2015b8e59c47b2805f60c -->
<g id="node4" class="node">
<title>dir_bc0718b08fb2015b8e59c47b2805f60c</title>
<g id="a_node4"><a xlink:href="dir_bc0718b08fb2015b8e59c47b2805f60c.html" target="_top" xlink:title="libraries">
<polygon fill="none" stroke="red" points="262,-60 206,-60 206,-24 262,-24 262,-60"/>
<text text-anchor="middle" x="234" y="-39.5" font-family="FreeSans.ttf" font-size="10.00">libraries</text>
</a>
</g>
</g>
<!-- dir_c98ad360c2784556c7d658363593a3a0&#45;&gt;dir_bc0718b08fb2015b8e59c47b2805f60c -->
<g id="edge2" class="edge">
<title>dir_c98ad360c2784556c7d658363593a3a0&#45;&gt;dir_bc0718b08fb2015b8e59c47b2805f60c</title>
<path fill="none" stroke="black" d="M78.37,-99.67C81.26,-98.38 84.18,-97.14 87,-96 133.54,-77.26 147.1,-77.83 194,-60 194.71,-59.73 195.43,-59.45 196.16,-59.17"/>
<polygon fill="black" stroke="black" points="197.72,-62.32 205.7,-55.35 195.12,-55.82 197.72,-62.32"/>
<g id="a_edge2&#45;headlabel"><a xlink:href="dir_000088_000037.html" target="_top" xlink:title="2">
<text text-anchor="middle" x="195.44" y="-63.79" font-family="FreeSans.ttf" font-size="10.00">2</text>
</a>
</g>
</g>
</g>
</svg>
