<?xml version="1.0" encoding="UTF-8" standalone="no"?>
<!DOCTYPE svg PUBLIC "-//W3C//DTD SVG 1.1//EN"
 "http://www.w3.org/Graphics/SVG/1.1/DTD/svg11.dtd">
<!-- Generated by graphviz version 2.43.0 (0)
 -->
<!-- Title: camera Pages: 1 -->
<svg width="238pt" height="183pt"
 viewBox="0.00 0.00 238.00 183.00" xmlns="http://www.w3.org/2000/svg" xmlns:xlink="http://www.w3.org/1999/xlink">
<g id="graph0" class="graph" transform="scale(1 1) rotate(0) translate(4 179)">
<title>camera</title>
<g id="clust1" class="cluster">
<title>clusterdir_38c8d24aef3972a7f87b834274e76e31</title>
<g id="a_clust1"><a xlink:href="dir_38c8d24aef3972a7f87b834274e76e31.html" target="_top" xlink:title="plugins">
<polygon fill="#ddddee" stroke="black" points="8,-8 8,-167 166,-167 166,-8 8,-8"/>
<text text-anchor="middle" x="87" y="-155" font-family="FreeSans.ttf" font-size="10.00">plugins</text>
</a>
</g>
</g>
<g id="clust2" class="cluster">
<title>clusterdir_855d9f51cde680933ebd4a21e4db48bd</title>
<g id="a_clust2"><a xlink:href="dir_855d9f51cde680933ebd4a21e4db48bd.html" target="_top">
<polygon fill="#eeeeff" stroke="black" points="16,-16 16,-140 158,-140 158,-16 16,-16"/>
</a>
</g>
</g>
<!-- dir_855d9f51cde680933ebd4a21e4db48bd -->
<g id="node1" class="node">
<title>dir_855d9f51cde680933ebd4a21e4db48bd</title>
<text text-anchor="middle" x="123" y="-111.5" font-family="FreeSans.ttf" font-size="10.00">camera</text>
</g>
<!-- dir_a9e9e44991957fc32ca79a3eacb35fbf -->
<g id="node2" class="node">
<title>dir_a9e9e44991957fc32ca79a3eacb35fbf</title>
<g id="a_node2"><a xlink:href="dir_a9e9e44991957fc32ca79a3eacb35fbf.html" target="_top" xlink:title="include">
<polygon fill="white" stroke="red" points="78,-60 24,-60 24,-24 78,-24 78,-60"/>
<text text-anchor="middle" x="51" y="-39.5" font-family="FreeSans.ttf" font-size="10.00">include</text>
</a>
</g>
</g>
<!-- dir_8ee31c42d5ee43a117aec03ab3e87e9e -->
<g id="node3" class="node">
<title>dir_8ee31c42d5ee43a117aec03ab3e87e9e</title>
<g id="a_node3"><a xlink:href="dir_8ee31c42d5ee43a117aec03ab3e87e9e.html" target="_top" xlink:title="src">
<polygon fill="white" stroke="black" points="78,-132 24,-132 24,-96 78,-96 78,-132"/>
<text text-anchor="middle" x="51" y="-111.5" font-family="FreeSans.ttf" font-size="10.00">src</text>
</a>
</g>
</g>
<!-- dir_8ee31c42d5ee43a117aec03ab3e87e9e&#45;&gt;dir_a9e9e44991957fc32ca79a3eacb35fbf -->
<g id="edge1" class="edge">
<title>dir_8ee31c42d5ee43a117aec03ab3e87e9e&#45;&gt;dir_a9e9e44991957fc32ca79a3eacb35fbf</title>
<path fill="none" stroke="black" d="M51,-95.7C51,-87.98 51,-78.71 51,-70.11"/>
<polygon fill="black" stroke="black" points="54.5,-70.1 51,-60.1 47.5,-70.1 54.5,-70.1"/>
<g id="a_edge1&#45;headlabel"><a xlink:href="dir_000012_000013.html" target="_top" xlink:title="3">
<text text-anchor="middle" x="57.34" y="-71.2" font-family="FreeSans.ttf" font-size="10.00">3</text>
</a>
</g>
</g>
<!-- dir_bc0718b08fb2015b8e59c47b2805f60c -->
<g id="node4" class="node">
<title>dir_bc0718b08fb2015b8e59c47b2805f60c</title>
<g id="a_node4"><a xlink:href="dir_bc0718b08fb2015b8e59c47b2805f60c.html" target="_top" xlink:title="libraries">
<polygon fill="none" stroke="red" points="230,-60 174,-60 174,-24 230,-24 230,-60"/>
<text text-anchor="middle" x="202" y="-39.5" font-family="FreeSans.ttf" font-size="10.00">libraries</text>
</a>
</g>
</g>
<!-- dir_8ee31c42d5ee43a117aec03ab3e87e9e&#45;&gt;dir_bc0718b08fb2015b8e59c47b2805f60c -->
<g id="edge2" class="edge">
<title>dir_8ee31c42d5ee43a117aec03ab3e87e9e&#45;&gt;dir_bc0718b08fb2015b8e59c47b2805f60c</title>
<path fill="none" stroke="black" d="M78.11,-100.16C81.11,-98.75 84.12,-97.34 87,-96 112.8,-83.96 141.92,-70.54 164.41,-60.22"/>
<polygon fill="black" stroke="black" points="165.98,-63.35 173.61,-55.99 163.06,-56.99 165.98,-63.35"/>
<g id="a_edge2&#45;headlabel"><a xlink:href="dir_000012_000037.html" target="_top" xlink:title="5">
<text text-anchor="middle" x="163.9" y="-64.93" font-family="FreeSans.ttf" font-size="10.00">5</text>
</a>
</g>
</g>
</g>
</svg>
