<?xml version="1.0" encoding="UTF-8" standalone="no"?>
<!DOCTYPE svg PUBLIC "-//W3C//DTD SVG 1.1//EN"
 "http://www.w3.org/Graphics/SVG/1.1/DTD/svg11.dtd">
<!-- Generated by graphviz version 2.43.0 (0)
 -->
<!-- Title: src Pages: 1 -->
<svg width="152pt" height="167pt"
 viewBox="0.00 0.00 152.00 167.00" xmlns="http://www.w3.org/2000/svg" xmlns:xlink="http://www.w3.org/1999/xlink">
<g id="graph0" class="graph" transform="scale(1 1) rotate(0) translate(4 163)">
<title>src</title>
<g id="clust1" class="cluster">
<title>clusterdir_d9ea6a3302f9b448a9cd2551fef12dbe</title>
<g id="a_clust1"><a xlink:href="dir_d9ea6a3302f9b448a9cd2551fef12dbe.html" target="_top" xlink:title="imu">
<polygon fill="#ddddee" stroke="black" points="8,-8 8,-151 78,-151 78,-8 8,-8"/>
<text text-anchor="middle" x="43" y="-139" font-family="FreeSans.ttf" font-size="10.00">imu</text>
</a>
</g>
</g>
<!-- dir_df1a660f142921a9b097fa578174f3d9 -->
<g id="node1" class="node">
<title>dir_df1a660f142921a9b097fa578174f3d9</title>
<g id="a_node1"><a xlink:href="dir_df1a660f142921a9b097fa578174f3d9.html" target="_top" xlink:title="include">
<polygon fill="none" stroke="red" points="70,-52 16,-52 16,-16 70,-16 70,-52"/>
<text text-anchor="middle" x="43" y="-31.5" font-family="FreeSans.ttf" font-size="10.00">include</text>
</a>
</g>
</g>
<!-- dir_84b2ead98ac30e932b637c103bb4fd4c -->
<g id="node2" class="node">
<title>dir_84b2ead98ac30e932b637c103bb4fd4c</title>
<g id="a_node2"><a xlink:href="dir_84b2ead98ac30e932b637c103bb4fd4c.html" target="_top" xlink:title="src">
<polygon fill="#eeeeff" stroke="black" points="70,-124 16,-124 16,-88 70,-88 70,-124"/>
<text text-anchor="middle" x="43" y="-103.5" font-family="FreeSans.ttf" font-size="10.00">src</text>
</a>
</g>
</g>
<!-- dir_84b2ead98ac30e932b637c103bb4fd4c&#45;&gt;dir_df1a660f142921a9b097fa578174f3d9 -->
<g id="edge2" class="edge">
<title>dir_84b2ead98ac30e932b637c103bb4fd4c&#45;&gt;dir_df1a660f142921a9b097fa578174f3d9</title>
<path fill="none" stroke="black" d="M43,-87.7C43,-79.98 43,-70.71 43,-62.11"/>
<polygon fill="black" stroke="black" points="46.5,-62.1 43,-52.1 39.5,-62.1 46.5,-62.1"/>
<g id="a_edge2&#45;headlabel"><a xlink:href="dir_000092_000093.html" target="_top" xlink:title="3">
<text text-anchor="middle" x="49.34" y="-63.2" font-family="FreeSans.ttf" font-size="10.00">3</text>
</a>
</g>
</g>
<!-- dir_bc0718b08fb2015b8e59c47b2805f60c -->
<g id="node3" class="node">
<title>dir_bc0718b08fb2015b8e59c47b2805f60c</title>
<g id="a_node3"><a xlink:href="dir_bc0718b08fb2015b8e59c47b2805f60c.html" target="_top" xlink:title="libraries">
<polygon fill="none" stroke="red" points="144,-52 88,-52 88,-16 144,-16 144,-52"/>
<text text-anchor="middle" x="116" y="-31.5" font-family="FreeSans.ttf" font-size="10.00">libraries</text>
</a>
</g>
</g>
<!-- dir_84b2ead98ac30e932b637c103bb4fd4c&#45;&gt;dir_bc0718b08fb2015b8e59c47b2805f60c -->
<g id="edge1" class="edge">
<title>dir_84b2ead98ac30e932b637c103bb4fd4c&#45;&gt;dir_bc0718b08fb2015b8e59c47b2805f60c</title>
<path fill="none" stroke="black" d="M61.04,-87.7C70.06,-79.05 81.12,-68.45 90.94,-59.03"/>
<polygon fill="black" stroke="black" points="93.37,-61.55 98.16,-52.1 88.52,-56.5 93.37,-61.55"/>
<g id="a_edge1&#45;headlabel"><a xlink:href="dir_000092_000037.html" target="_top" xlink:title="5">
<text text-anchor="middle" x="92.74" y="-63.59" font-family="FreeSans.ttf" font-size="10.00">5</text>
</a>
</g>
</g>
</g>
</svg>
