<?xml version="1.0" encoding="UTF-8" standalone="no"?>
<!DOCTYPE svg PUBLIC "-//W3C//DTD SVG 1.1//EN"
 "http://www.w3.org/Graphics/SVG/1.1/DTD/svg11.dtd">
<!-- Generated by graphviz version 2.43.0 (0)
 -->
<!-- Title: DoubleLaser.cc Pages: 1 -->
<svg width="1599pt" height="140pt"
 viewBox="0.00 0.00 1598.50 140.00" xmlns="http://www.w3.org/2000/svg" xmlns:xlink="http://www.w3.org/1999/xlink">
<g id="graph0" class="graph" transform="scale(1 1) rotate(0) translate(4 136)">
<title>DoubleLaser.cc</title>
<!-- Node1 -->
<g id="node1" class="node">
<title>Node1</title>
<g id="a_node1"><a xlink:title=" ">
<polygon fill="#bfbfbf" stroke="black" points="942,-112.5 942,-131.5 1032,-131.5 1032,-112.5 942,-112.5"/>
<text text-anchor="middle" x="987" y="-119.5" font-family="FreeSans.ttf" font-size="10.00">DoubleLaser.cc</text>
</a>
</g>
</g>
<!-- Node2 -->
<g id="node2" class="node">
<title>Node2</title>
<g id="a_node2"><a xlink:href="DoubleLaser_8hh.html" target="_top" xlink:title=" ">
<polygon fill="none" stroke="black" points="178,-56.5 178,-75.5 270,-75.5 270,-56.5 178,-56.5"/>
<text text-anchor="middle" x="224" y="-63.5" font-family="FreeSans.ttf" font-size="10.00">DoubleLaser.hh</text>
</a>
</g>
</g>
<!-- Node1&#45;&gt;Node2 -->
<g id="edge1" class="edge">
<title>Node1&#45;&gt;Node2</title>
<path fill="none" stroke="midnightblue" d="M941.87,-118.43C833.87,-112.17 552,-95.26 317,-76 305.13,-75.03 292.41,-73.87 280.32,-72.72"/>
<polygon fill="midnightblue" stroke="midnightblue" points="280.62,-69.23 270.33,-71.75 279.95,-76.2 280.62,-69.23"/>
</g>
<!-- Node6 -->
<g id="node6" class="node">
<title>Node6</title>
<g id="a_node6"><a xlink:href="common_8h.html" target="_top" xlink:title=" ">
<polygon fill="none" stroke="black" points="326,-56.5 326,-75.5 490,-75.5 490,-56.5 326,-56.5"/>
<text text-anchor="middle" x="408" y="-63.5" font-family="FreeSans.ttf" font-size="10.00">GazeboYarpPlugins/common.h</text>
</a>
</g>
</g>
<!-- Node1&#45;&gt;Node6 -->
<g id="edge5" class="edge">
<title>Node1&#45;&gt;Node6</title>
<path fill="none" stroke="midnightblue" d="M941.57,-116.76C846.7,-107.91 625.95,-87.33 500.13,-75.59"/>
<polygon fill="midnightblue" stroke="midnightblue" points="500.4,-72.1 490.12,-74.66 499.75,-79.07 500.4,-72.1"/>
</g>
<!-- Node8 -->
<g id="node8" class="node">
<title>Node8</title>
<g id="a_node8"><a xlink:href="Handler_8hh.html" target="_top" xlink:title=" ">
<polygon fill="none" stroke="black" points="529,-56.5 529,-75.5 693,-75.5 693,-56.5 529,-56.5"/>
<text text-anchor="middle" x="611" y="-63.5" font-family="FreeSans.ttf" font-size="10.00">GazeboYarpPlugins/Handler.hh</text>
</a>
</g>
</g>
<!-- Node1&#45;&gt;Node8 -->
<g id="edge8" class="edge">
<title>Node1&#45;&gt;Node8</title>
<path fill="none" stroke="midnightblue" d="M941.65,-114.49C876.69,-105.16 756.61,-87.91 680.43,-76.97"/>
<polygon fill="midnightblue" stroke="midnightblue" points="680.84,-73.49 670.44,-75.54 679.84,-80.42 680.84,-73.49"/>
</g>
<!-- Node14 -->
<g id="node14" class="node">
<title>Node14</title>
<g id="a_node14"><a xlink:href="ConfHelpers_8hh.html" target="_top" xlink:title=" ">
<polygon fill="none" stroke="black" points="711.5,-56.5 711.5,-75.5 898.5,-75.5 898.5,-56.5 711.5,-56.5"/>
<text text-anchor="middle" x="805" y="-63.5" font-family="FreeSans.ttf" font-size="10.00">GazeboYarpPlugins/ConfHelpers.hh</text>
</a>
</g>
</g>
<!-- Node1&#45;&gt;Node14 -->
<g id="edge15" class="edge">
<title>Node1&#45;&gt;Node14</title>
<path fill="none" stroke="midnightblue" d="M958.16,-112.44C927.14,-103.24 877.67,-88.56 843.38,-78.39"/>
<polygon fill="midnightblue" stroke="midnightblue" points="844.29,-75.01 833.7,-75.52 842.29,-81.72 844.29,-75.01"/>
</g>
<!-- Node17 -->
<g id="node17" class="node">
<title>Node17</title>
<g id="a_node17"><a xlink:title=" ">
<polygon fill="none" stroke="#bfbfbf" points="917,-56.5 917,-75.5 1057,-75.5 1057,-56.5 917,-56.5"/>
<text text-anchor="middle" x="987" y="-63.5" font-family="FreeSans.ttf" font-size="10.00">gazebo/physics/Model.hh</text>
</a>
</g>
</g>
<!-- Node1&#45;&gt;Node17 -->
<g id="edge20" class="edge">
<title>Node1&#45;&gt;Node17</title>
<path fill="none" stroke="midnightblue" d="M987,-112.08C987,-105.01 987,-94.86 987,-85.99"/>
<polygon fill="midnightblue" stroke="midnightblue" points="990.5,-85.75 987,-75.75 983.5,-85.75 990.5,-85.75"/>
</g>
<!-- Node18 -->
<g id="node18" class="node">
<title>Node18</title>
<g id="a_node18"><a xlink:title=" ">
<polygon fill="none" stroke="#bfbfbf" points="1075.5,-56.5 1075.5,-75.5 1230.5,-75.5 1230.5,-56.5 1075.5,-56.5"/>
<text text-anchor="middle" x="1153" y="-63.5" font-family="FreeSans.ttf" font-size="10.00">yarp/dev/IMultipleWrapper.h</text>
</a>
</g>
</g>
<!-- Node1&#45;&gt;Node18 -->
<g id="edge21" class="edge">
<title>Node1&#45;&gt;Node18</title>
<path fill="none" stroke="midnightblue" d="M1013.3,-112.44C1041.35,-103.32 1085.94,-88.81 1117.18,-78.65"/>
<polygon fill="midnightblue" stroke="midnightblue" points="1118.39,-81.94 1126.82,-75.52 1116.23,-75.28 1118.39,-81.94"/>
</g>
<!-- Node19 -->
<g id="node19" class="node">
<title>Node19</title>
<g id="a_node19"><a xlink:title=" ">
<polygon fill="none" stroke="#bfbfbf" points="1249,-56.5 1249,-75.5 1355,-75.5 1355,-56.5 1249,-56.5"/>
<text text-anchor="middle" x="1302" y="-63.5" font-family="FreeSans.ttf" font-size="10.00">yarp/os/Network.h</text>
</a>
</g>
</g>
<!-- Node1&#45;&gt;Node19 -->
<g id="edge22" class="edge">
<title>Node1&#45;&gt;Node19</title>
<path fill="none" stroke="midnightblue" d="M1032.13,-113.26C1087.41,-103.79 1181.2,-87.71 1242.37,-77.22"/>
<polygon fill="midnightblue" stroke="midnightblue" points="1243.01,-80.66 1252.27,-75.52 1241.83,-73.76 1243.01,-80.66"/>
</g>
<!-- Node20 -->
<g id="node20" class="node">
<title>Node20</title>
<g id="a_node20"><a xlink:title=" ">
<polygon fill="none" stroke="#bfbfbf" points="1373,-56.5 1373,-75.5 1455,-75.5 1455,-56.5 1373,-56.5"/>
<text text-anchor="middle" x="1414" y="-63.5" font-family="FreeSans.ttf" font-size="10.00">yarp/os/Log.h</text>
</a>
</g>
</g>
<!-- Node1&#45;&gt;Node20 -->
<g id="edge23" class="edge">
<title>Node1&#45;&gt;Node20</title>
<path fill="none" stroke="midnightblue" d="M1032.09,-116.49C1101.06,-109.4 1237.12,-94.67 1362.66,-76.12"/>
<polygon fill="midnightblue" stroke="midnightblue" points="1363.46,-79.54 1372.83,-74.61 1362.42,-72.62 1363.46,-79.54"/>
</g>
<!-- Node21 -->
<g id="node21" class="node">
<title>Node21</title>
<g id="a_node21"><a xlink:title=" ">
<polygon fill="none" stroke="#bfbfbf" points="1473.5,-56.5 1473.5,-75.5 1590.5,-75.5 1590.5,-56.5 1473.5,-56.5"/>
<text text-anchor="middle" x="1532" y="-63.5" font-family="FreeSans.ttf" font-size="10.00">yarp/os/LogStream.h</text>
</a>
</g>
</g>
<!-- Node1&#45;&gt;Node21 -->
<g id="edge24" class="edge">
<title>Node1&#45;&gt;Node21</title>
<path fill="none" stroke="midnightblue" d="M1032.11,-117.31C1115.1,-110.4 1297.82,-94.62 1463.06,-76.07"/>
<polygon fill="midnightblue" stroke="midnightblue" points="1463.87,-79.5 1473.41,-74.9 1463.08,-72.54 1463.87,-79.5"/>
</g>
<!-- Node3 -->
<g id="node3" class="node">
<title>Node3</title>
<g id="a_node3"><a xlink:title=" ">
<polygon fill="none" stroke="#bfbfbf" points="0,-0.5 0,-19.5 146,-19.5 146,-0.5 0,-0.5"/>
<text text-anchor="middle" x="73" y="-7.5" font-family="FreeSans.ttf" font-size="10.00">gazebo/common/Plugin.hh</text>
</a>
</g>
</g>
<!-- Node2&#45;&gt;Node3 -->
<g id="edge2" class="edge">
<title>Node2&#45;&gt;Node3</title>
<path fill="none" stroke="midnightblue" d="M200.07,-56.44C174.78,-47.4 134.7,-33.06 106.32,-22.92"/>
<polygon fill="midnightblue" stroke="midnightblue" points="107.41,-19.59 96.81,-19.52 105.05,-26.18 107.41,-19.59"/>
</g>
<!-- Node4 -->
<g id="node4" class="node">
<title>Node4</title>
<g id="a_node4"><a xlink:title=" ">
<polygon fill="none" stroke="#bfbfbf" points="164,-0.5 164,-19.5 208,-19.5 208,-0.5 164,-0.5"/>
<text text-anchor="middle" x="186" y="-7.5" font-family="FreeSans.ttf" font-size="10.00">string</text>
</a>
</g>
</g>
<!-- Node2&#45;&gt;Node4 -->
<g id="edge3" class="edge">
<title>Node2&#45;&gt;Node4</title>
<path fill="none" stroke="midnightblue" d="M217.73,-56.08C212.36,-48.46 204.48,-37.26 197.92,-27.94"/>
<polygon fill="midnightblue" stroke="midnightblue" points="200.78,-25.91 192.16,-19.75 195.05,-29.94 200.78,-25.91"/>
</g>
<!-- Node5 -->
<g id="node5" class="node">
<title>Node5</title>
<g id="a_node5"><a xlink:title=" ">
<polygon fill="none" stroke="#bfbfbf" points="226,-0.5 226,-19.5 366,-19.5 366,-0.5 226,-0.5"/>
<text text-anchor="middle" x="296" y="-7.5" font-family="FreeSans.ttf" font-size="10.00">yarp/dev/PolyDriverList.h</text>
</a>
</g>
</g>
<!-- Node2&#45;&gt;Node5 -->
<g id="edge4" class="edge">
<title>Node2&#45;&gt;Node5</title>
<path fill="none" stroke="midnightblue" d="M235.57,-56.32C246.42,-48.18 262.88,-35.84 275.88,-26.09"/>
<polygon fill="midnightblue" stroke="midnightblue" points="278.32,-28.63 284.22,-19.83 274.12,-23.03 278.32,-28.63"/>
</g>
<!-- Node6&#45;&gt;Node4 -->
<g id="edge6" class="edge">
<title>Node6&#45;&gt;Node4</title>
<path fill="none" stroke="midnightblue" d="M369.08,-56.44C332.5,-48.26 275.99,-35.28 218.33,-20.25"/>
<polygon fill="midnightblue" stroke="midnightblue" points="218.87,-16.78 208.31,-17.63 217.1,-23.55 218.87,-16.78"/>
</g>
<!-- Node7 -->
<g id="node7" class="node">
<title>Node7</title>
<g id="a_node7"><a xlink:title=" ">
<polygon fill="none" stroke="#bfbfbf" points="384.5,-0.5 384.5,-19.5 431.5,-19.5 431.5,-0.5 384.5,-0.5"/>
<text text-anchor="middle" x="408" y="-7.5" font-family="FreeSans.ttf" font-size="10.00">cmath</text>
</a>
</g>
</g>
<!-- Node6&#45;&gt;Node7 -->
<g id="edge7" class="edge">
<title>Node6&#45;&gt;Node7</title>
<path fill="none" stroke="midnightblue" d="M408,-56.08C408,-49.01 408,-38.86 408,-29.99"/>
<polygon fill="midnightblue" stroke="midnightblue" points="411.5,-29.75 408,-19.75 404.5,-29.75 411.5,-29.75"/>
</g>
<!-- Node8&#45;&gt;Node5 -->
<g id="edge14" class="edge">
<title>Node8&#45;&gt;Node5</title>
<path fill="none" stroke="midnightblue" d="M561.09,-56.44C505.33,-46.89 415.11,-31.42 355.67,-21.23"/>
<polygon fill="midnightblue" stroke="midnightblue" points="356.13,-17.76 345.68,-19.52 354.94,-24.66 356.13,-17.76"/>
</g>
<!-- Node9 -->
<g id="node9" class="node">
<title>Node9</title>
<g id="a_node9"><a xlink:title=" ">
<polygon fill="none" stroke="#bfbfbf" points="450,-0.5 450,-19.5 488,-19.5 488,-0.5 450,-0.5"/>
<text text-anchor="middle" x="469" y="-7.5" font-family="FreeSans.ttf" font-size="10.00">map</text>
</a>
</g>
</g>
<!-- Node8&#45;&gt;Node9 -->
<g id="edge9" class="edge">
<title>Node8&#45;&gt;Node9</title>
<path fill="none" stroke="midnightblue" d="M588.5,-56.44C563.95,-47.11 524.59,-32.14 497.8,-21.95"/>
<polygon fill="midnightblue" stroke="midnightblue" points="498.8,-18.59 488.21,-18.3 496.31,-25.13 498.8,-18.59"/>
</g>
<!-- Node10 -->
<g id="node10" class="node">
<title>Node10</title>
<g id="a_node10"><a xlink:title=" ">
<polygon fill="none" stroke="#bfbfbf" points="849.5,-0.5 849.5,-19.5 942.5,-19.5 942.5,-0.5 849.5,-0.5"/>
<text text-anchor="middle" x="896" y="-7.5" font-family="FreeSans.ttf" font-size="10.00">sdf/sdf_config.h</text>
</a>
</g>
</g>
<!-- Node8&#45;&gt;Node10 -->
<g id="edge10" class="edge">
<title>Node8&#45;&gt;Node10</title>
<path fill="none" stroke="midnightblue" d="M656.16,-56.44C706.29,-46.94 787.22,-31.61 841.01,-21.42"/>
<polygon fill="midnightblue" stroke="midnightblue" points="841.88,-24.82 851.05,-19.52 840.58,-17.94 841.88,-24.82"/>
</g>
<!-- Node11 -->
<g id="node11" class="node">
<title>Node11</title>
<g id="a_node11"><a xlink:title=" ">
<polygon fill="none" stroke="#bfbfbf" points="712.5,-0.5 712.5,-19.5 831.5,-19.5 831.5,-0.5 712.5,-0.5"/>
<text text-anchor="middle" x="772" y="-7.5" font-family="FreeSans.ttf" font-size="10.00">boost/shared_ptr.hpp</text>
</a>
</g>
</g>
<!-- Node8&#45;&gt;Node11 -->
<g id="edge11" class="edge">
<title>Node8&#45;&gt;Node11</title>
<path fill="none" stroke="midnightblue" d="M636.51,-56.44C663.6,-47.36 706.59,-32.94 736.87,-22.78"/>
<polygon fill="midnightblue" stroke="midnightblue" points="738.24,-26.01 746.61,-19.52 736.01,-19.38 738.24,-26.01"/>
</g>
<!-- Node12 -->
<g id="node12" class="node">
<title>Node12</title>
<g id="a_node12"><a xlink:title=" ">
<polygon fill="none" stroke="#bfbfbf" points="506,-0.5 506,-19.5 554,-19.5 554,-0.5 506,-0.5"/>
<text text-anchor="middle" x="530" y="-7.5" font-family="FreeSans.ttf" font-size="10.00">mutex</text>
</a>
</g>
</g>
<!-- Node8&#45;&gt;Node12 -->
<g id="edge12" class="edge">
<title>Node8&#45;&gt;Node12</title>
<path fill="none" stroke="midnightblue" d="M597.99,-56.32C585.47,-47.98 566.32,-35.21 551.53,-25.35"/>
<polygon fill="midnightblue" stroke="midnightblue" points="553.24,-22.29 542.98,-19.65 549.36,-28.11 553.24,-22.29"/>
</g>
<!-- Node13 -->
<g id="node13" class="node">
<title>Node13</title>
<g id="a_node13"><a xlink:title=" ">
<polygon fill="none" stroke="#bfbfbf" points="572,-0.5 572,-19.5 694,-19.5 694,-0.5 572,-0.5"/>
<text text-anchor="middle" x="633" y="-7.5" font-family="FreeSans.ttf" font-size="10.00">yarp/dev/PolyDriver.h</text>
</a>
</g>
</g>
<!-- Node8&#45;&gt;Node13 -->
<g id="edge13" class="edge">
<title>Node8&#45;&gt;Node13</title>
<path fill="none" stroke="midnightblue" d="M614.63,-56.08C617.61,-48.77 621.93,-38.18 625.62,-29.1"/>
<polygon fill="midnightblue" stroke="midnightblue" points="628.9,-30.33 629.43,-19.75 622.42,-27.69 628.9,-30.33"/>
</g>
<!-- Node14&#45;&gt;Node10 -->
<g id="edge16" class="edge">
<title>Node14&#45;&gt;Node10</title>
<path fill="none" stroke="midnightblue" d="M819.62,-56.32C833.95,-47.82 856.01,-34.73 872.75,-24.8"/>
<polygon fill="midnightblue" stroke="midnightblue" points="874.6,-27.77 881.42,-19.65 871.03,-21.75 874.6,-27.77"/>
</g>
<!-- Node14&#45;&gt;Node11 -->
<g id="edge17" class="edge">
<title>Node14&#45;&gt;Node11</title>
<path fill="none" stroke="midnightblue" d="M799.55,-56.08C794.99,-48.61 788.33,-37.72 782.71,-28.52"/>
<polygon fill="midnightblue" stroke="midnightblue" points="785.55,-26.46 777.35,-19.75 779.58,-30.11 785.55,-26.46"/>
</g>
<!-- Node15 -->
<g id="node15" class="node">
<title>Node15</title>
<g id="a_node15"><a xlink:title=" ">
<polygon fill="none" stroke="#bfbfbf" points="1153.5,-0.5 1153.5,-19.5 1324.5,-19.5 1324.5,-0.5 1153.5,-0.5"/>
<text text-anchor="middle" x="1239" y="-7.5" font-family="FreeSans.ttf" font-size="10.00">gazebo/sensors/SensorTypes.hh</text>
</a>
</g>
</g>
<!-- Node14&#45;&gt;Node15 -->
<g id="edge18" class="edge">
<title>Node14&#45;&gt;Node15</title>
<path fill="none" stroke="midnightblue" d="M873.77,-56.44C951.78,-46.74 1078.75,-30.94 1160.56,-20.76"/>
<polygon fill="midnightblue" stroke="midnightblue" points="1161.06,-24.22 1170.55,-19.52 1160.2,-17.28 1161.06,-24.22"/>
</g>
<!-- Node16 -->
<g id="node16" class="node">
<title>Node16</title>
<g id="a_node16"><a xlink:title=" ">
<polygon fill="none" stroke="#bfbfbf" points="961,-0.5 961,-19.5 1135,-19.5 1135,-0.5 961,-0.5"/>
<text text-anchor="middle" x="1048" y="-7.5" font-family="FreeSans.ttf" font-size="10.00">gazebo/physics/PhysicsTypes.hh</text>
</a>
</g>
</g>
<!-- Node14&#45;&gt;Node16 -->
<g id="edge19" class="edge">
<title>Node14&#45;&gt;Node16</title>
<path fill="none" stroke="midnightblue" d="M843.5,-56.44C885.81,-47.04 953.82,-31.93 999.67,-21.74"/>
<polygon fill="midnightblue" stroke="midnightblue" points="1000.67,-25.1 1009.68,-19.52 999.15,-18.27 1000.67,-25.1"/>
</g>
</g>
</svg>
