<?xml version="1.0" encoding="UTF-8" standalone="no"?>
<!DOCTYPE svg PUBLIC "-//W3C//DTD SVG 1.1//EN"
 "http://www.w3.org/Graphics/SVG/1.1/DTD/svg11.dtd">
<!-- Generated by graphviz version 2.43.0 (0)
 -->
<!-- Title: example.cpp Pages: 1 -->
<svg width="1389pt" height="84pt"
 viewBox="0.00 0.00 1388.50 84.00" xmlns="http://www.w3.org/2000/svg" xmlns:xlink="http://www.w3.org/1999/xlink">
<g id="graph0" class="graph" transform="scale(1 1) rotate(0) translate(4 80)">
<title>example.cpp</title>
<!-- Node1 -->
<g id="node1" class="node">
<title>Node1</title>
<g id="a_node1"><a xlink:title=" ">
<polygon fill="#bfbfbf" stroke="black" points="729.5,-56.5 729.5,-75.5 809.5,-75.5 809.5,-56.5 729.5,-56.5"/>
<text text-anchor="middle" x="769.5" y="-63.5" font-family="FreeSans.ttf" font-size="10.00">example.cpp</text>
</a>
</g>
</g>
<!-- Node2 -->
<g id="node2" class="node">
<title>Node2</title>
<g id="a_node2"><a xlink:title=" ">
<polygon fill="none" stroke="#bfbfbf" points="0,-0.5 0,-19.5 139,-19.5 139,-0.5 0,-0.5"/>
<text text-anchor="middle" x="69.5" y="-7.5" font-family="FreeSans.ttf" font-size="10.00">yarp/os/ResourceFinder.h</text>
</a>
</g>
</g>
<!-- Node1&#45;&gt;Node2 -->
<g id="edge1" class="edge">
<title>Node1&#45;&gt;Node2</title>
<path fill="none" stroke="midnightblue" d="M729.43,-62.7C631.96,-56.96 374.55,-41.06 149.25,-20.13"/>
<polygon fill="midnightblue" stroke="midnightblue" points="149.51,-16.64 139.23,-19.19 148.86,-23.61 149.51,-16.64"/>
</g>
<!-- Node3 -->
<g id="node3" class="node">
<title>Node3</title>
<g id="a_node3"><a xlink:title=" ">
<polygon fill="none" stroke="#bfbfbf" points="157,-0.5 157,-19.5 270,-19.5 270,-0.5 157,-0.5"/>
<text text-anchor="middle" x="213.5" y="-7.5" font-family="FreeSans.ttf" font-size="10.00">yarp/os/RFModule.h</text>
</a>
</g>
</g>
<!-- Node1&#45;&gt;Node3 -->
<g id="edge2" class="edge">
<title>Node1&#45;&gt;Node3</title>
<path fill="none" stroke="midnightblue" d="M729.42,-61.92C647.32,-55.48 453.84,-39.64 280.1,-20.02"/>
<polygon fill="midnightblue" stroke="midnightblue" points="280.34,-16.52 270.01,-18.87 279.55,-23.48 280.34,-16.52"/>
</g>
<!-- Node4 -->
<g id="node4" class="node">
<title>Node4</title>
<g id="a_node4"><a xlink:title=" ">
<polygon fill="none" stroke="#bfbfbf" points="288.5,-0.5 288.5,-19.5 394.5,-19.5 394.5,-0.5 288.5,-0.5"/>
<text text-anchor="middle" x="341.5" y="-7.5" font-family="FreeSans.ttf" font-size="10.00">yarp/os/Network.h</text>
</a>
</g>
</g>
<!-- Node1&#45;&gt;Node4 -->
<g id="edge3" class="edge">
<title>Node1&#45;&gt;Node4</title>
<path fill="none" stroke="midnightblue" d="M729.39,-60.36C663.78,-52.7 529.18,-36.73 404.68,-20.13"/>
<polygon fill="midnightblue" stroke="midnightblue" points="404.97,-16.64 394.59,-18.78 404.04,-23.58 404.97,-16.64"/>
</g>
<!-- Node5 -->
<g id="node5" class="node">
<title>Node5</title>
<g id="a_node5"><a xlink:title=" ">
<polygon fill="none" stroke="#bfbfbf" points="412.5,-0.5 412.5,-19.5 596.5,-19.5 596.5,-0.5 412.5,-0.5"/>
<text text-anchor="middle" x="504.5" y="-7.5" font-family="FreeSans.ttf" font-size="10.00">yarp/dev/ControlBoardInterfaces.h</text>
</a>
</g>
</g>
<!-- Node1&#45;&gt;Node5 -->
<g id="edge4" class="edge">
<title>Node1&#45;&gt;Node5</title>
<path fill="none" stroke="midnightblue" d="M729.25,-56.8C683.06,-47.39 607.17,-31.92 556.53,-21.6"/>
<polygon fill="midnightblue" stroke="midnightblue" points="556.94,-18.11 546.44,-19.55 555.54,-24.97 556.94,-18.11"/>
</g>
<!-- Node6 -->
<g id="node6" class="node">
<title>Node6</title>
<g id="a_node6"><a xlink:title=" ">
<polygon fill="none" stroke="#bfbfbf" points="614.5,-0.5 614.5,-19.5 768.5,-19.5 768.5,-0.5 614.5,-0.5"/>
<text text-anchor="middle" x="691.5" y="-7.5" font-family="FreeSans.ttf" font-size="10.00">yarp/dev/IFrameTransform.h</text>
</a>
</g>
</g>
<!-- Node1&#45;&gt;Node6 -->
<g id="edge5" class="edge">
<title>Node1&#45;&gt;Node6</title>
<path fill="none" stroke="midnightblue" d="M756.97,-56.32C744.91,-47.98 726.47,-35.21 712.23,-25.35"/>
<polygon fill="midnightblue" stroke="midnightblue" points="714.22,-22.47 704,-19.65 710.23,-28.22 714.22,-22.47"/>
</g>
<!-- Node7 -->
<g id="node7" class="node">
<title>Node7</title>
<g id="a_node7"><a xlink:title=" ">
<polygon fill="none" stroke="#bfbfbf" points="786.5,-0.5 786.5,-19.5 908.5,-19.5 908.5,-0.5 786.5,-0.5"/>
<text text-anchor="middle" x="847.5" y="-7.5" font-family="FreeSans.ttf" font-size="10.00">yarp/dev/PolyDriver.h</text>
</a>
</g>
</g>
<!-- Node1&#45;&gt;Node7 -->
<g id="edge6" class="edge">
<title>Node1&#45;&gt;Node7</title>
<path fill="none" stroke="midnightblue" d="M782.03,-56.32C794.09,-47.98 812.53,-35.21 826.77,-25.35"/>
<polygon fill="midnightblue" stroke="midnightblue" points="828.77,-28.22 835,-19.65 824.78,-22.47 828.77,-28.22"/>
</g>
<!-- Node8 -->
<g id="node8" class="node">
<title>Node8</title>
<g id="a_node8"><a xlink:title=" ">
<polygon fill="none" stroke="#bfbfbf" points="926.5,-0.5 926.5,-19.5 1084.5,-19.5 1084.5,-0.5 926.5,-0.5"/>
<text text-anchor="middle" x="1005.5" y="-7.5" font-family="FreeSans.ttf" font-size="10.00">yarp/math/FrameTransform.h</text>
</a>
</g>
</g>
<!-- Node1&#45;&gt;Node8 -->
<g id="edge7" class="edge">
<title>Node1&#45;&gt;Node8</title>
<path fill="none" stroke="midnightblue" d="M806.89,-56.44C847.89,-47.06 913.75,-31.99 958.28,-21.8"/>
<polygon fill="midnightblue" stroke="midnightblue" points="959.31,-25.16 968.28,-19.52 957.75,-18.34 959.31,-25.16"/>
</g>
<!-- Node9 -->
<g id="node9" class="node">
<title>Node9</title>
<g id="a_node9"><a xlink:title=" ">
<polygon fill="none" stroke="#bfbfbf" points="1102.5,-0.5 1102.5,-19.5 1200.5,-19.5 1200.5,-0.5 1102.5,-0.5"/>
<text text-anchor="middle" x="1151.5" y="-7.5" font-family="FreeSans.ttf" font-size="10.00">yarp/sig/Vector.h</text>
</a>
</g>
</g>
<!-- Node1&#45;&gt;Node9 -->
<g id="edge8" class="edge">
<title>Node1&#45;&gt;Node9</title>
<path fill="none" stroke="midnightblue" d="M809.69,-59.63C869.1,-51.64 984.14,-36 1092.35,-20.15"/>
<polygon fill="midnightblue" stroke="midnightblue" points="1093.08,-23.58 1102.46,-18.67 1092.06,-16.66 1093.08,-23.58"/>
</g>
<!-- Node10 -->
<g id="node10" class="node">
<title>Node10</title>
<g id="a_node10"><a xlink:title=" ">
<polygon fill="none" stroke="#bfbfbf" points="1219,-0.5 1219,-19.5 1318,-19.5 1318,-0.5 1219,-0.5"/>
<text text-anchor="middle" x="1268.5" y="-7.5" font-family="FreeSans.ttf" font-size="10.00">yarp/sig/Matrix.h</text>
</a>
</g>
</g>
<!-- Node1&#45;&gt;Node10 -->
<g id="edge9" class="edge">
<title>Node1&#45;&gt;Node10</title>
<path fill="none" stroke="midnightblue" d="M809.62,-61.57C885.39,-54.94 1054.99,-39.41 1208.84,-20.02"/>
<polygon fill="midnightblue" stroke="midnightblue" points="1209.47,-23.47 1218.95,-18.74 1208.59,-16.53 1209.47,-23.47"/>
</g>
<!-- Node11 -->
<g id="node11" class="node">
<title>Node11</title>
<g id="a_node11"><a xlink:title=" ">
<polygon fill="none" stroke="#bfbfbf" points="1336.5,-0.5 1336.5,-19.5 1380.5,-19.5 1380.5,-0.5 1336.5,-0.5"/>
<text text-anchor="middle" x="1358.5" y="-7.5" font-family="FreeSans.ttf" font-size="10.00">string</text>
</a>
</g>
</g>
<!-- Node1&#45;&gt;Node11 -->
<g id="edge10" class="edge">
<title>Node1&#45;&gt;Node11</title>
<path fill="none" stroke="midnightblue" d="M809.78,-64.53C900.58,-62.88 1128.12,-55.43 1326.27,-19.86"/>
<polygon fill="midnightblue" stroke="midnightblue" points="1327.07,-23.27 1336.28,-18.03 1325.81,-16.39 1327.07,-23.27"/>
</g>
</g>
</svg>
