<?xml version="1.0" encoding="UTF-8" standalone="no"?>
<!DOCTYPE svg PUBLIC "-//W3C//DTD SVG 1.1//EN"
 "http://www.w3.org/Graphics/SVG/1.1/DTD/svg11.dtd">
<!-- Generated by graphviz version 2.43.0 (0)
 -->
<!-- Title: ExternalWrench.hh Pages: 1 -->
<svg width="3020pt" height="140pt"
 viewBox="0.00 0.00 3020.00 140.00" xmlns="http://www.w3.org/2000/svg" xmlns:xlink="http://www.w3.org/1999/xlink">
<g id="graph0" class="graph" transform="scale(1 1) rotate(0) translate(4 136)">
<title>ExternalWrench.hh</title>
<!-- Node1 -->
<g id="node1" class="node">
<title>Node1</title>
<g id="a_node1"><a xlink:title=" ">
<polygon fill="#bfbfbf" stroke="black" points="1370.5,-112.5 1370.5,-131.5 1479.5,-131.5 1479.5,-112.5 1370.5,-112.5"/>
<text text-anchor="middle" x="1425" y="-119.5" font-family="FreeSans.ttf" font-size="10.00">ExternalWrench.hh</text>
</a>
</g>
</g>
<!-- Node2 -->
<g id="node2" class="node">
<title>Node2</title>
<g id="a_node2"><a xlink:title=" ">
<polygon fill="none" stroke="#bfbfbf" points="0,-56.5 0,-75.5 60,-75.5 60,-56.5 0,-56.5"/>
<text text-anchor="middle" x="30" y="-63.5" font-family="FreeSans.ttf" font-size="10.00">iostream</text>
</a>
</g>
</g>
<!-- Node1&#45;&gt;Node2 -->
<g id="edge1" class="edge">
<title>Node1&#45;&gt;Node2</title>
<path fill="none" stroke="midnightblue" d="M1370.36,-120.6C1152.82,-118.78 347.09,-109.96 70.15,-75.84"/>
<polygon fill="midnightblue" stroke="midnightblue" points="70.49,-72.35 60.13,-74.56 69.61,-79.3 70.49,-72.35"/>
</g>
<!-- Node3 -->
<g id="node3" class="node">
<title>Node3</title>
<g id="a_node3"><a xlink:title=" ">
<polygon fill="none" stroke="#bfbfbf" points="78.5,-56.5 78.5,-75.5 131.5,-75.5 131.5,-56.5 78.5,-56.5"/>
<text text-anchor="middle" x="105" y="-63.5" font-family="FreeSans.ttf" font-size="10.00">stdlib.h</text>
</a>
</g>
</g>
<!-- Node1&#45;&gt;Node3 -->
<g id="edge2" class="edge">
<title>Node1&#45;&gt;Node3</title>
<path fill="none" stroke="midnightblue" d="M1370.38,-120.61C1160.4,-118.89 404.26,-110.47 141.86,-75.72"/>
<polygon fill="midnightblue" stroke="midnightblue" points="142,-72.21 131.61,-74.31 141.04,-79.14 142,-72.21"/>
</g>
<!-- Node4 -->
<g id="node4" class="node">
<title>Node4</title>
<g id="a_node4"><a xlink:title=" ">
<polygon fill="none" stroke="#bfbfbf" points="150,-56.5 150,-75.5 194,-75.5 194,-56.5 150,-56.5"/>
<text text-anchor="middle" x="172" y="-63.5" font-family="FreeSans.ttf" font-size="10.00">ctime</text>
</a>
</g>
</g>
<!-- Node1&#45;&gt;Node4 -->
<g id="edge3" class="edge">
<title>Node1&#45;&gt;Node4</title>
<path fill="none" stroke="midnightblue" d="M1370.18,-120.77C1166.46,-119.63 452.4,-113.14 204.25,-75.73"/>
<polygon fill="midnightblue" stroke="midnightblue" points="204.62,-72.24 194.2,-74.15 203.54,-79.16 204.62,-72.24"/>
</g>
<!-- Node5 -->
<g id="node5" class="node">
<title>Node5</title>
<g id="a_node5"><a xlink:title=" ">
<polygon fill="none" stroke="#bfbfbf" points="212,-56.5 212,-75.5 262,-75.5 262,-56.5 212,-56.5"/>
<text text-anchor="middle" x="237" y="-63.5" font-family="FreeSans.ttf" font-size="10.00">stdio.h</text>
</a>
</g>
</g>
<!-- Node1&#45;&gt;Node5 -->
<g id="edge4" class="edge">
<title>Node1&#45;&gt;Node5</title>
<path fill="none" stroke="midnightblue" d="M1370.48,-120.22C1172.46,-117.18 491.55,-104.83 276,-76 274.72,-75.83 273.42,-75.64 272.12,-75.42"/>
<polygon fill="midnightblue" stroke="midnightblue" points="272.53,-71.94 262.05,-73.51 271.22,-78.82 272.53,-71.94"/>
</g>
<!-- Node6 -->
<g id="node6" class="node">
<title>Node6</title>
<g id="a_node6"><a xlink:title=" ">
<polygon fill="none" stroke="#bfbfbf" points="967,-0.5 967,-19.5 1011,-19.5 1011,-0.5 967,-0.5"/>
<text text-anchor="middle" x="989" y="-7.5" font-family="FreeSans.ttf" font-size="10.00">string</text>
</a>
</g>
</g>
<!-- Node1&#45;&gt;Node6 -->
<g id="edge5" class="edge">
<title>Node1&#45;&gt;Node6</title>
<path fill="none" stroke="midnightblue" d="M1370.2,-120.87C1150.85,-120.1 346.11,-114.63 309,-76 302.84,-69.59 302.93,-62.49 309,-56 353.68,-8.27 828.14,-9.41 956.91,-10.62"/>
<polygon fill="midnightblue" stroke="midnightblue" points="956.9,-14.12 966.94,-10.72 956.97,-7.12 956.9,-14.12"/>
</g>
<!-- Node7 -->
<g id="node7" class="node">
<title>Node7</title>
<g id="a_node7"><a xlink:title=" ">
<polygon fill="none" stroke="#bfbfbf" points="318,-56.5 318,-75.5 376,-75.5 376,-56.5 318,-56.5"/>
<text text-anchor="middle" x="347" y="-63.5" font-family="FreeSans.ttf" font-size="10.00">memory</text>
</a>
</g>
</g>
<!-- Node1&#45;&gt;Node7 -->
<g id="edge6" class="edge">
<title>Node1&#45;&gt;Node7</title>
<path fill="none" stroke="midnightblue" d="M1370.28,-120C1187.4,-116.45 597.54,-103.23 386.42,-75.89"/>
<polygon fill="midnightblue" stroke="midnightblue" points="386.73,-72.4 376.35,-74.53 385.8,-79.34 386.73,-72.4"/>
</g>
<!-- Node8 -->
<g id="node8" class="node">
<title>Node8</title>
<g id="a_node8"><a xlink:title=" ">
<polygon fill="none" stroke="#bfbfbf" points="394.5,-56.5 394.5,-75.5 499.5,-75.5 499.5,-56.5 394.5,-56.5"/>
<text text-anchor="middle" x="447" y="-63.5" font-family="FreeSans.ttf" font-size="10.00">gazebo/gazebo.hh</text>
</a>
</g>
</g>
<!-- Node1&#45;&gt;Node8 -->
<g id="edge7" class="edge">
<title>Node1&#45;&gt;Node8</title>
<path fill="none" stroke="midnightblue" d="M1370.34,-120.17C1229.45,-117.65 842.24,-108.19 509.85,-76.09"/>
<polygon fill="midnightblue" stroke="midnightblue" points="509.82,-72.57 499.53,-75.08 509.15,-79.54 509.82,-72.57"/>
</g>
<!-- Node9 -->
<g id="node9" class="node">
<title>Node9</title>
<g id="a_node9"><a xlink:title=" ">
<polygon fill="none" stroke="#bfbfbf" points="517.5,-56.5 517.5,-75.5 696.5,-75.5 696.5,-56.5 517.5,-56.5"/>
<text text-anchor="middle" x="607" y="-63.5" font-family="FreeSans.ttf" font-size="10.00">gazebo/physics/PhysicsEngine.hh</text>
</a>
</g>
</g>
<!-- Node1&#45;&gt;Node9 -->
<g id="edge8" class="edge">
<title>Node1&#45;&gt;Node9</title>
<path fill="none" stroke="midnightblue" d="M1370.32,-118.13C1251.57,-111.77 960.98,-95.58 706.88,-76.13"/>
<polygon fill="midnightblue" stroke="midnightblue" points="706.95,-72.62 696.71,-75.34 706.42,-79.6 706.95,-72.62"/>
</g>
<!-- Node10 -->
<g id="node10" class="node">
<title>Node10</title>
<g id="a_node10"><a xlink:title=" ">
<polygon fill="none" stroke="#bfbfbf" points="714.5,-56.5 714.5,-75.5 863.5,-75.5 863.5,-56.5 714.5,-56.5"/>
<text text-anchor="middle" x="789" y="-63.5" font-family="FreeSans.ttf" font-size="10.00">gazebo/common/Events.hh</text>
</a>
</g>
</g>
<!-- Node1&#45;&gt;Node10 -->
<g id="edge9" class="edge">
<title>Node1&#45;&gt;Node10</title>
<path fill="none" stroke="midnightblue" d="M1370.12,-116.99C1272.59,-109.76 1062.44,-93.73 873.75,-76.05"/>
<polygon fill="midnightblue" stroke="midnightblue" points="873.93,-72.55 863.65,-75.1 873.27,-79.52 873.93,-72.55"/>
</g>
<!-- Node11 -->
<g id="node11" class="node">
<title>Node11</title>
<g id="a_node11"><a xlink:title=" ">
<polygon fill="none" stroke="#bfbfbf" points="882,-56.5 882,-75.5 1028,-75.5 1028,-56.5 882,-56.5"/>
<text text-anchor="middle" x="955" y="-63.5" font-family="FreeSans.ttf" font-size="10.00">gazebo/common/Plugin.hh</text>
</a>
</g>
</g>
<!-- Node1&#45;&gt;Node11 -->
<g id="edge10" class="edge">
<title>Node1&#45;&gt;Node11</title>
<path fill="none" stroke="midnightblue" d="M1370.17,-114.7C1288.43,-105.31 1134.01,-87.57 1038.28,-76.57"/>
<polygon fill="midnightblue" stroke="midnightblue" points="1038.67,-73.09 1028.34,-75.43 1037.87,-80.04 1038.67,-73.09"/>
</g>
<!-- Node12 -->
<g id="node12" class="node">
<title>Node12</title>
<g id="a_node12"><a xlink:title=" ">
<polygon fill="none" stroke="#bfbfbf" points="1046.5,-56.5 1046.5,-75.5 1189.5,-75.5 1189.5,-56.5 1046.5,-56.5"/>
<text text-anchor="middle" x="1118" y="-63.5" font-family="FreeSans.ttf" font-size="10.00">gazebo/transport/Node.hh</text>
</a>
</g>
</g>
<!-- Node1&#45;&gt;Node12 -->
<g id="edge11" class="edge">
<title>Node1&#45;&gt;Node12</title>
<path fill="none" stroke="midnightblue" d="M1376.35,-112.44C1322.13,-102.9 1234.45,-87.48 1176.52,-77.29"/>
<polygon fill="midnightblue" stroke="midnightblue" points="1176.87,-73.8 1166.42,-75.52 1175.66,-80.7 1176.87,-73.8"/>
</g>
<!-- Node13 -->
<g id="node13" class="node">
<title>Node13</title>
<g id="a_node13"><a xlink:title=" ">
<polygon fill="none" stroke="#bfbfbf" points="1208,-56.5 1208,-75.5 1338,-75.5 1338,-56.5 1208,-56.5"/>
<text text-anchor="middle" x="1273" y="-63.5" font-family="FreeSans.ttf" font-size="10.00">gazebo/physics/Link.hh</text>
</a>
</g>
</g>
<!-- Node1&#45;&gt;Node13 -->
<g id="edge12" class="edge">
<title>Node1&#45;&gt;Node13</title>
<path fill="none" stroke="midnightblue" d="M1400.92,-112.44C1375.46,-103.4 1335.11,-89.06 1306.54,-78.92"/>
<polygon fill="midnightblue" stroke="midnightblue" points="1307.57,-75.57 1296.97,-75.52 1305.22,-82.16 1307.57,-75.57"/>
</g>
<!-- Node14 -->
<g id="node14" class="node">
<title>Node14</title>
<g id="a_node14"><a xlink:title=" ">
<polygon fill="none" stroke="#bfbfbf" points="1356.5,-56.5 1356.5,-75.5 1493.5,-75.5 1493.5,-56.5 1356.5,-56.5"/>
<text text-anchor="middle" x="1425" y="-63.5" font-family="FreeSans.ttf" font-size="10.00">gazebo/physics/World.hh</text>
</a>
</g>
</g>
<!-- Node1&#45;&gt;Node14 -->
<g id="edge13" class="edge">
<title>Node1&#45;&gt;Node14</title>
<path fill="none" stroke="midnightblue" d="M1425,-112.08C1425,-105.01 1425,-94.86 1425,-85.99"/>
<polygon fill="midnightblue" stroke="midnightblue" points="1428.5,-85.75 1425,-75.75 1421.5,-85.75 1428.5,-85.75"/>
</g>
<!-- Node15 -->
<g id="node15" class="node">
<title>Node15</title>
<g id="a_node15"><a xlink:title=" ">
<polygon fill="none" stroke="#bfbfbf" points="1512,-56.5 1512,-75.5 1652,-75.5 1652,-56.5 1512,-56.5"/>
<text text-anchor="middle" x="1582" y="-63.5" font-family="FreeSans.ttf" font-size="10.00">gazebo/physics/Model.hh</text>
</a>
</g>
</g>
<!-- Node1&#45;&gt;Node15 -->
<g id="edge14" class="edge">
<title>Node1&#45;&gt;Node15</title>
<path fill="none" stroke="midnightblue" d="M1449.88,-112.44C1476.29,-103.36 1518.22,-88.94 1547.74,-78.78"/>
<polygon fill="midnightblue" stroke="midnightblue" points="1548.92,-82.08 1557.24,-75.52 1546.64,-75.46 1548.92,-82.08"/>
</g>
<!-- Node16 -->
<g id="node16" class="node">
<title>Node16</title>
<g id="a_node16"><a xlink:href="common_8h.html" target="_top" xlink:title=" ">
<polygon fill="none" stroke="black" points="1670,-56.5 1670,-75.5 1834,-75.5 1834,-56.5 1670,-56.5"/>
<text text-anchor="middle" x="1752" y="-63.5" font-family="FreeSans.ttf" font-size="10.00">GazeboYarpPlugins/common.h</text>
</a>
</g>
</g>
<!-- Node1&#45;&gt;Node16 -->
<g id="edge15" class="edge">
<title>Node1&#45;&gt;Node16</title>
<path fill="none" stroke="midnightblue" d="M1476.81,-112.44C1534.82,-102.87 1628.74,-87.36 1690.44,-77.17"/>
<polygon fill="midnightblue" stroke="midnightblue" points="1691.13,-80.6 1700.43,-75.52 1689.99,-73.69 1691.13,-80.6"/>
</g>
<!-- Node18 -->
<g id="node18" class="node">
<title>Node18</title>
<g id="a_node18"><a xlink:title=" ">
<polygon fill="none" stroke="#bfbfbf" points="1852,-56.5 1852,-75.5 1958,-75.5 1958,-56.5 1852,-56.5"/>
<text text-anchor="middle" x="1905" y="-63.5" font-family="FreeSans.ttf" font-size="10.00">yarp/os/Network.h</text>
</a>
</g>
</g>
<!-- Node1&#45;&gt;Node18 -->
<g id="edge18" class="edge">
<title>Node1&#45;&gt;Node18</title>
<path fill="none" stroke="midnightblue" d="M1479.52,-115.78C1557.43,-108.17 1705.39,-93.2 1841.71,-76.12"/>
<polygon fill="midnightblue" stroke="midnightblue" points="1842.43,-79.56 1851.92,-74.84 1841.56,-72.61 1842.43,-79.56"/>
</g>
<!-- Node19 -->
<g id="node19" class="node">
<title>Node19</title>
<g id="a_node19"><a xlink:title=" ">
<polygon fill="none" stroke="#bfbfbf" points="1976.5,-56.5 1976.5,-75.5 2089.5,-75.5 2089.5,-56.5 1976.5,-56.5"/>
<text text-anchor="middle" x="2033" y="-63.5" font-family="FreeSans.ttf" font-size="10.00">yarp/os/RpcServer.h</text>
</a>
</g>
</g>
<!-- Node1&#45;&gt;Node19 -->
<g id="edge19" class="edge">
<title>Node1&#45;&gt;Node19</title>
<path fill="none" stroke="midnightblue" d="M1479.71,-117.41C1575.84,-110.91 1781.53,-96.05 1966.32,-76.01"/>
<polygon fill="midnightblue" stroke="midnightblue" points="1966.94,-79.47 1976.5,-74.9 1966.18,-72.51 1966.94,-79.47"/>
</g>
<!-- Node20 -->
<g id="node20" class="node">
<title>Node20</title>
<g id="a_node20"><a xlink:title=" ">
<polygon fill="none" stroke="#bfbfbf" points="2108,-56.5 2108,-75.5 2202,-75.5 2202,-56.5 2108,-56.5"/>
<text text-anchor="middle" x="2155" y="-63.5" font-family="FreeSans.ttf" font-size="10.00">yarp/os/Bottle.h</text>
</a>
</g>
</g>
<!-- Node1&#45;&gt;Node20 -->
<g id="edge20" class="edge">
<title>Node1&#45;&gt;Node20</title>
<path fill="none" stroke="midnightblue" d="M1479.76,-119.07C1593.13,-114.69 1861.98,-102.38 2097.85,-76.02"/>
<polygon fill="midnightblue" stroke="midnightblue" points="2098.45,-79.48 2107.99,-74.88 2097.66,-72.52 2098.45,-79.48"/>
</g>
<!-- Node21 -->
<g id="node21" class="node">
<title>Node21</title>
<g id="a_node21"><a xlink:title=" ">
<polygon fill="none" stroke="#bfbfbf" points="2220,-56.5 2220,-75.5 2318,-75.5 2318,-56.5 2220,-56.5"/>
<text text-anchor="middle" x="2269" y="-63.5" font-family="FreeSans.ttf" font-size="10.00">yarp/sig/Vector.h</text>
</a>
</g>
</g>
<!-- Node1&#45;&gt;Node21 -->
<g id="edge21" class="edge">
<title>Node1&#45;&gt;Node21</title>
<path fill="none" stroke="midnightblue" d="M1479.94,-119.68C1606.74,-116.25 1929.77,-105.25 2210.04,-75.99"/>
<polygon fill="midnightblue" stroke="midnightblue" points="2210.42,-79.47 2220,-74.95 2209.68,-72.51 2210.42,-79.47"/>
</g>
<!-- Node22 -->
<g id="node22" class="node">
<title>Node22</title>
<g id="a_node22"><a xlink:title=" ">
<polygon fill="none" stroke="#bfbfbf" points="2336,-56.5 2336,-75.5 2434,-75.5 2434,-56.5 2336,-56.5"/>
<text text-anchor="middle" x="2385" y="-63.5" font-family="FreeSans.ttf" font-size="10.00">yarp/os/Thread.h</text>
</a>
</g>
</g>
<!-- Node1&#45;&gt;Node22 -->
<g id="edge22" class="edge">
<title>Node1&#45;&gt;Node22</title>
<path fill="none" stroke="midnightblue" d="M1479.55,-120.26C1618.8,-117.93 1998.95,-108.92 2325.86,-76"/>
<polygon fill="midnightblue" stroke="midnightblue" points="2326.4,-79.46 2336,-74.97 2325.7,-72.5 2326.4,-79.46"/>
</g>
<!-- Node23 -->
<g id="node23" class="node">
<title>Node23</title>
<g id="a_node23"><a xlink:title=" ">
<polygon fill="none" stroke="#bfbfbf" points="2452.5,-56.5 2452.5,-75.5 2541.5,-75.5 2541.5,-56.5 2452.5,-56.5"/>
<text text-anchor="middle" x="2497" y="-63.5" font-family="FreeSans.ttf" font-size="10.00">yarp/os/Time.h</text>
</a>
</g>
</g>
<!-- Node1&#45;&gt;Node23 -->
<g id="edge23" class="edge">
<title>Node1&#45;&gt;Node23</title>
<path fill="none" stroke="midnightblue" d="M1479.52,-120.91C1630.75,-120.15 2068.38,-114.61 2442.06,-75.95"/>
<polygon fill="midnightblue" stroke="midnightblue" points="2442.69,-79.4 2452.27,-74.88 2441.96,-72.44 2442.69,-79.4"/>
</g>
<!-- Node24 -->
<g id="node24" class="node">
<title>Node24</title>
<g id="a_node24"><a xlink:title=" ">
<polygon fill="none" stroke="#bfbfbf" points="2560,-56.5 2560,-75.5 2654,-75.5 2654,-56.5 2560,-56.5"/>
<text text-anchor="middle" x="2607" y="-63.5" font-family="FreeSans.ttf" font-size="10.00">yarp/os/Vocab.h</text>
</a>
</g>
</g>
<!-- Node1&#45;&gt;Node24 -->
<g id="edge24" class="edge">
<title>Node1&#45;&gt;Node24</title>
<path fill="none" stroke="midnightblue" d="M1479.65,-121.12C1641.53,-121 2132.73,-117.08 2549.85,-75.98"/>
<polygon fill="midnightblue" stroke="midnightblue" points="2550.39,-79.44 2560,-74.97 2549.7,-72.48 2550.39,-79.44"/>
</g>
<!-- Node25 -->
<g id="node25" class="node">
<title>Node25</title>
<g id="a_node25"><a xlink:title=" ">
<polygon fill="none" stroke="#bfbfbf" points="2672,-56.5 2672,-75.5 2754,-75.5 2754,-56.5 2672,-56.5"/>
<text text-anchor="middle" x="2713" y="-63.5" font-family="FreeSans.ttf" font-size="10.00">yarp/os/Log.h</text>
</a>
</g>
</g>
<!-- Node1&#45;&gt;Node25 -->
<g id="edge25" class="edge">
<title>Node1&#45;&gt;Node25</title>
<path fill="none" stroke="midnightblue" d="M1479.72,-120.04C1684.78,-116.3 2408.42,-101.64 2661.61,-75.96"/>
<polygon fill="midnightblue" stroke="midnightblue" points="2662.29,-79.4 2671.87,-74.88 2661.56,-72.44 2662.29,-79.4"/>
</g>
<!-- Node26 -->
<g id="node26" class="node">
<title>Node26</title>
<g id="a_node26"><a xlink:title=" ">
<polygon fill="none" stroke="#bfbfbf" points="2772.5,-56.5 2772.5,-75.5 2889.5,-75.5 2889.5,-56.5 2772.5,-56.5"/>
<text text-anchor="middle" x="2831" y="-63.5" font-family="FreeSans.ttf" font-size="10.00">yarp/os/LogStream.h</text>
</a>
</g>
</g>
<!-- Node1&#45;&gt;Node26 -->
<g id="edge26" class="edge">
<title>Node1&#45;&gt;Node26</title>
<path fill="none" stroke="midnightblue" d="M1479.6,-121.08C1660.65,-120.93 2257.92,-117.21 2762.4,-75.95"/>
<polygon fill="midnightblue" stroke="midnightblue" points="2762.76,-79.43 2772.43,-75.12 2762.18,-72.45 2762.76,-79.43"/>
</g>
<!-- Node27 -->
<g id="node27" class="node">
<title>Node27</title>
<g id="a_node27"><a xlink:title=" ">
<polygon fill="none" stroke="#bfbfbf" points="2908,-56.5 2908,-75.5 3012,-75.5 3012,-56.5 2908,-56.5"/>
<text text-anchor="middle" x="2960" y="-63.5" font-family="FreeSans.ttf" font-size="10.00">yarp/math/Math.h</text>
</a>
</g>
</g>
<!-- Node1&#45;&gt;Node27 -->
<g id="edge27" class="edge">
<title>Node1&#45;&gt;Node27</title>
<path fill="none" stroke="midnightblue" d="M1479.54,-120.18C1708.68,-116.62 2595.07,-101.52 2897.72,-75.98"/>
<polygon fill="midnightblue" stroke="midnightblue" points="2898.14,-79.46 2907.8,-75.11 2897.54,-72.48 2898.14,-79.46"/>
</g>
<!-- Node16&#45;&gt;Node6 -->
<g id="edge16" class="edge">
<title>Node16&#45;&gt;Node6</title>
<path fill="none" stroke="midnightblue" d="M1669.67,-56.74C1666.75,-56.48 1663.85,-56.24 1661,-56 1415.02,-35.61 1117.8,-18.25 1021.08,-12.79"/>
<polygon fill="midnightblue" stroke="midnightblue" points="1021.24,-9.29 1011.06,-12.22 1020.85,-16.28 1021.24,-9.29"/>
</g>
<!-- Node17 -->
<g id="node17" class="node">
<title>Node17</title>
<g id="a_node17"><a xlink:title=" ">
<polygon fill="none" stroke="#bfbfbf" points="1728.5,-0.5 1728.5,-19.5 1775.5,-19.5 1775.5,-0.5 1728.5,-0.5"/>
<text text-anchor="middle" x="1752" y="-7.5" font-family="FreeSans.ttf" font-size="10.00">cmath</text>
</a>
</g>
</g>
<!-- Node16&#45;&gt;Node17 -->
<g id="edge17" class="edge">
<title>Node16&#45;&gt;Node17</title>
<path fill="none" stroke="midnightblue" d="M1752,-56.08C1752,-49.01 1752,-38.86 1752,-29.99"/>
<polygon fill="midnightblue" stroke="midnightblue" points="1755.5,-29.75 1752,-19.75 1748.5,-29.75 1755.5,-29.75"/>
</g>
</g>
</svg>
