<?xml version="1.0" encoding="UTF-8" standalone="no"?>
<!DOCTYPE svg PUBLIC "-//W3C//DTD SVG 1.1//EN"
 "http://www.w3.org/Graphics/SVG/1.1/DTD/svg11.dtd">
<!-- Generated by graphviz version 3.0.0 (20220315.2325)
 -->
<!-- Title: FakeControlBoard.cc Pages: 1 -->
<svg width="3581pt" height="151pt"
 viewBox="0.00 0.00 3581.00 151.00" xmlns="http://www.w3.org/2000/svg" xmlns:xlink="http://www.w3.org/1999/xlink">
<g id="graph0" class="graph" transform="scale(1 1) rotate(0) translate(4 147)">
<title>FakeControlBoard.cc</title>
<!-- Node1 -->
<g id="node1" class="node">
<title>Node1</title>
<g id="a_node1"><a xlink:title=" ">
<polygon fill="#bfbfbf" stroke="black" points="2820.5,-123.5 2820.5,-142.5 2936.5,-142.5 2936.5,-123.5 2820.5,-123.5"/>
<text text-anchor="middle" x="2878.5" y="-130.5" font-family="FreeSans.ttf" font-size="10.00">FakeControlBoard.cc</text>
</a>
</g>
</g>
<!-- Node2 -->
<g id="node2" class="node">
<title>Node2</title>
<g id="a_node2"><a xlink:href="FakeControlBoard_8hh.html" target="_top" xlink:title=" ">
<polygon fill="none" stroke="black" points="667,-67.5 667,-86.5 784,-86.5 784,-67.5 667,-67.5"/>
<text text-anchor="middle" x="725.5" y="-74.5" font-family="FreeSans.ttf" font-size="10.00">FakeControlBoard.hh</text>
</a>
</g>
</g>
<!-- Node1&#45;&gt;Node2 -->
<g id="edge1" class="edge">
<title>Node1&#45;&gt;Node2</title>
<path fill="none" stroke="midnightblue" d="M2820.36,-130.54C2517.51,-122.95 1122.16,-87.95 794.51,-79.73"/>
<polygon fill="midnightblue" stroke="midnightblue" points="794.3,-76.22 784.21,-79.47 794.12,-83.22 794.3,-76.22"/>
</g>
<!-- Node6 -->
<g id="node6" class="node">
<title>Node6</title>
<g id="a_node6"><a xlink:href="FakeControlBoardDriver_8h.html" target="_top" xlink:title=" ">
<polygon fill="none" stroke="black" points="1195.5,-67.5 1195.5,-86.5 1335.5,-86.5 1335.5,-67.5 1195.5,-67.5"/>
<text text-anchor="middle" x="1265.5" y="-74.5" font-family="FreeSans.ttf" font-size="10.00">FakeControlBoardDriver.h</text>
</a>
</g>
</g>
<!-- Node1&#45;&gt;Node6 -->
<g id="edge5" class="edge">
<title>Node1&#45;&gt;Node6</title>
<path fill="none" stroke="midnightblue" d="M2820.14,-130.05C2575.08,-121.84 1628.9,-90.17 1345.9,-80.69"/>
<polygon fill="midnightblue" stroke="midnightblue" points="1345.83,-77.19 1335.72,-80.35 1345.59,-84.18 1345.83,-77.19"/>
</g>
<!-- Node23 -->
<g id="node23" class="node">
<title>Node23</title>
<g id="a_node23"><a xlink:href="common_8h.html" target="_top" xlink:title=" ">
<polygon fill="none" stroke="black" points="169.5,-67.5 169.5,-86.5 333.5,-86.5 333.5,-67.5 169.5,-67.5"/>
<text text-anchor="middle" x="251.5" y="-74.5" font-family="FreeSans.ttf" font-size="10.00">GazeboYarpPlugins/common.h</text>
</a>
</g>
</g>
<!-- Node1&#45;&gt;Node23 -->
<g id="edge23" class="edge">
<title>Node1&#45;&gt;Node23</title>
<path fill="none" stroke="midnightblue" d="M2820.16,-130.86C2564.48,-125.85 1517.35,-105.24 657.5,-87 549.74,-84.71 425.9,-81.95 343.61,-80.09"/>
<polygon fill="midnightblue" stroke="midnightblue" points="343.61,-76.59 333.54,-79.86 343.46,-83.59 343.61,-76.59"/>
</g>
<!-- Node25 -->
<g id="node25" class="node">
<title>Node25</title>
<g id="a_node25"><a xlink:href="Handler_8hh.html" target="_top" xlink:title=" ">
<polygon fill="none" stroke="black" points="2477.5,-67.5 2477.5,-86.5 2641.5,-86.5 2641.5,-67.5 2477.5,-67.5"/>
<text text-anchor="middle" x="2559.5" y="-74.5" font-family="FreeSans.ttf" font-size="10.00">GazeboYarpPlugins/Handler.hh</text>
</a>
</g>
</g>
<!-- Node1&#45;&gt;Node25 -->
<g id="edge26" class="edge">
<title>Node1&#45;&gt;Node25</title>
<path fill="none" stroke="midnightblue" d="M2827.95,-123.44C2771.49,-113.89 2680.13,-98.42 2619.93,-88.23"/>
<polygon fill="midnightblue" stroke="midnightblue" points="2620.25,-84.73 2609.81,-86.52 2619.09,-91.64 2620.25,-84.73"/>
</g>
<!-- Node29 -->
<g id="node29" class="node">
<title>Node29</title>
<g id="a_node29"><a xlink:href="ConfHelpers_8hh.html" target="_top" xlink:title=" ">
<polygon fill="none" stroke="black" points="2694,-67.5 2694,-86.5 2881,-86.5 2881,-67.5 2694,-67.5"/>
<text text-anchor="middle" x="2787.5" y="-74.5" font-family="FreeSans.ttf" font-size="10.00">GazeboYarpPlugins/ConfHelpers.hh</text>
</a>
</g>
</g>
<!-- Node1&#45;&gt;Node29 -->
<g id="edge34" class="edge">
<title>Node1&#45;&gt;Node29</title>
<path fill="none" stroke="midnightblue" d="M2863.88,-123.32C2849.55,-114.82 2827.49,-101.73 2810.75,-91.8"/>
<polygon fill="midnightblue" stroke="midnightblue" points="2812.47,-88.75 2802.08,-86.65 2808.9,-94.77 2812.47,-88.75"/>
</g>
<!-- Node32 -->
<g id="node32" class="node">
<title>Node32</title>
<g id="a_node32"><a xlink:title=" ">
<polygon fill="none" stroke="#bfbfbf" points="2899.5,-67.5 2899.5,-86.5 3039.5,-86.5 3039.5,-67.5 2899.5,-67.5"/>
<text text-anchor="middle" x="2969.5" y="-74.5" font-family="FreeSans.ttf" font-size="10.00">gazebo/physics/Model.hh</text>
</a>
</g>
</g>
<!-- Node1&#45;&gt;Node32 -->
<g id="edge39" class="edge">
<title>Node1&#45;&gt;Node32</title>
<path fill="none" stroke="midnightblue" d="M2893.12,-123.32C2907.45,-114.82 2929.51,-101.73 2946.25,-91.8"/>
<polygon fill="midnightblue" stroke="midnightblue" points="2948.1,-94.77 2954.92,-86.65 2944.53,-88.75 2948.1,-94.77"/>
</g>
<!-- Node33 -->
<g id="node33" class="node">
<title>Node33</title>
<g id="a_node33"><a xlink:title=" ">
<polygon fill="none" stroke="#bfbfbf" points="3058,-67.5 3058,-86.5 3213,-86.5 3213,-67.5 3058,-67.5"/>
<text text-anchor="middle" x="3135.5" y="-74.5" font-family="FreeSans.ttf" font-size="10.00">yarp/dev/IMultipleWrapper.h</text>
</a>
</g>
</g>
<!-- Node1&#45;&gt;Node33 -->
<g id="edge40" class="edge">
<title>Node1&#45;&gt;Node33</title>
<path fill="none" stroke="midnightblue" d="M2919.22,-123.44C2964.15,-114 3036.5,-98.8 3085,-88.61"/>
<polygon fill="midnightblue" stroke="midnightblue" points="3085.9,-92 3094.97,-86.52 3084.46,-85.15 3085.9,-92"/>
</g>
<!-- Node34 -->
<g id="node34" class="node">
<title>Node34</title>
<g id="a_node34"><a xlink:title=" ">
<polygon fill="none" stroke="#bfbfbf" points="3231.5,-67.5 3231.5,-86.5 3337.5,-86.5 3337.5,-67.5 3231.5,-67.5"/>
<text text-anchor="middle" x="3284.5" y="-74.5" font-family="FreeSans.ttf" font-size="10.00">yarp/os/Network.h</text>
</a>
</g>
</g>
<!-- Node1&#45;&gt;Node34 -->
<g id="edge41" class="edge">
<title>Node1&#45;&gt;Node34</title>
<path fill="none" stroke="midnightblue" d="M2936.66,-124.65C3003.02,-116.2 3115.07,-101.76 3221.46,-87.13"/>
<polygon fill="midnightblue" stroke="midnightblue" points="3221.98,-90.59 3231.41,-85.76 3221.02,-83.66 3221.98,-90.59"/>
</g>
<!-- Node35 -->
<g id="node35" class="node">
<title>Node35</title>
<g id="a_node35"><a xlink:title=" ">
<polygon fill="none" stroke="#bfbfbf" points="3355.5,-67.5 3355.5,-86.5 3437.5,-86.5 3437.5,-67.5 3355.5,-67.5"/>
<text text-anchor="middle" x="3396.5" y="-74.5" font-family="FreeSans.ttf" font-size="10.00">yarp/os/Log.h</text>
</a>
</g>
</g>
<!-- Node1&#45;&gt;Node35 -->
<g id="edge42" class="edge">
<title>Node1&#45;&gt;Node35</title>
<path fill="none" stroke="midnightblue" d="M2936.68,-127.95C3023.45,-121.57 3192.09,-107.86 3345.28,-87.07"/>
<polygon fill="midnightblue" stroke="midnightblue" points="3345.91,-90.51 3355.34,-85.69 3344.96,-83.58 3345.91,-90.51"/>
</g>
<!-- Node36 -->
<g id="node36" class="node">
<title>Node36</title>
<g id="a_node36"><a xlink:title=" ">
<polygon fill="none" stroke="#bfbfbf" points="3456,-67.5 3456,-86.5 3573,-86.5 3573,-67.5 3456,-67.5"/>
<text text-anchor="middle" x="3514.5" y="-74.5" font-family="FreeSans.ttf" font-size="10.00">yarp/os/LogStream.h</text>
</a>
</g>
</g>
<!-- Node1&#45;&gt;Node36 -->
<g id="edge43" class="edge">
<title>Node1&#45;&gt;Node36</title>
<path fill="none" stroke="midnightblue" d="M2936.65,-128.41C3037.83,-121.93 3253.06,-107.17 3445.88,-87.01"/>
<polygon fill="midnightblue" stroke="midnightblue" points="3446.34,-90.48 3455.92,-85.95 3445.61,-83.52 3446.34,-90.48"/>
</g>
<!-- Node3 -->
<g id="node3" class="node">
<title>Node3</title>
<g id="a_node3"><a xlink:title=" ">
<polygon fill="none" stroke="#bfbfbf" points="65.5,-6 65.5,-25 211.5,-25 211.5,-6 65.5,-6"/>
<text text-anchor="middle" x="138.5" y="-13" font-family="FreeSans.ttf" font-size="10.00">gazebo/common/Plugin.hh</text>
</a>
</g>
</g>
<!-- Node2&#45;&gt;Node3 -->
<g id="edge2" class="edge">
<title>Node2&#45;&gt;Node3</title>
<path fill="none" stroke="midnightblue" d="M667,-72.43C572.73,-66.31 381.49,-52.37 220.5,-31 211.45,-29.8 201.87,-28.31 192.58,-26.74"/>
<polygon fill="midnightblue" stroke="midnightblue" points="193.1,-23.28 182.65,-25.03 191.91,-30.18 193.1,-23.28"/>
</g>
<!-- Node4 -->
<g id="node4" class="node">
<title>Node4</title>
<g id="a_node4"><a xlink:title=" ">
<polygon fill="none" stroke="#bfbfbf" points="229.5,-6 229.5,-25 273.5,-25 273.5,-6 229.5,-6"/>
<text text-anchor="middle" x="251.5" y="-13" font-family="FreeSans.ttf" font-size="10.00">string</text>
</a>
</g>
</g>
<!-- Node2&#45;&gt;Node4 -->
<g id="edge3" class="edge">
<title>Node2&#45;&gt;Node4</title>
<path fill="none" stroke="midnightblue" d="M666.66,-76.24C580.7,-75.21 416.45,-67.98 282.5,-31 280.57,-30.47 278.6,-29.82 276.65,-29.1"/>
<polygon fill="midnightblue" stroke="midnightblue" points="277.77,-25.77 267.2,-25.09 275.03,-32.22 277.77,-25.77"/>
</g>
<!-- Node5 -->
<g id="node5" class="node">
<title>Node5</title>
<g id="a_node5"><a xlink:title=" ">
<polygon fill="none" stroke="#bfbfbf" points="2159.5,-6 2159.5,-25 2299.5,-25 2299.5,-6 2159.5,-6"/>
<text text-anchor="middle" x="2229.5" y="-13" font-family="FreeSans.ttf" font-size="10.00">yarp/dev/PolyDriverList.h</text>
</a>
</g>
</g>
<!-- Node2&#45;&gt;Node5 -->
<g id="edge4" class="edge">
<title>Node2&#45;&gt;Node5</title>
<path fill="none" stroke="midnightblue" d="M784.01,-74.67C1034.93,-68.9 2013.37,-45.67 2150.5,-31 2159.97,-29.99 2170,-28.48 2179.63,-26.82"/>
<polygon fill="midnightblue" stroke="midnightblue" points="2180.26,-30.27 2189.48,-25.05 2179.02,-23.38 2180.26,-30.27"/>
</g>
<!-- Node6&#45;&gt;Node4 -->
<g id="edge19" class="edge">
<title>Node6&#45;&gt;Node4</title>
<path fill="none" stroke="midnightblue" d="M1195.41,-74.37C985.4,-69.27 370.31,-52.64 282.5,-31 280.51,-30.51 278.49,-29.89 276.49,-29.18"/>
<polygon fill="midnightblue" stroke="midnightblue" points="277.41,-25.77 266.83,-25.12 274.69,-32.22 277.41,-25.77"/>
</g>
<!-- Node7 -->
<g id="node7" class="node">
<title>Node7</title>
<g id="a_node7"><a xlink:title=" ">
<polygon fill="none" stroke="#bfbfbf" points="871.5,-6 871.5,-25 975.5,-25 975.5,-6 871.5,-6"/>
<text text-anchor="middle" x="923.5" y="-13" font-family="FreeSans.ttf" font-size="10.00">yarp/os/Property.h</text>
</a>
</g>
</g>
<!-- Node6&#45;&gt;Node7 -->
<g id="edge6" class="edge">
<title>Node6&#45;&gt;Node7</title>
<path fill="none" stroke="midnightblue" d="M1204.65,-67.48C1147.79,-59.22 1060.62,-45.8 985.5,-31 979.8,-29.88 973.83,-28.6 967.94,-27.29"/>
<polygon fill="midnightblue" stroke="midnightblue" points="968.69,-23.87 958.17,-25.06 967.14,-30.7 968.69,-23.87"/>
</g>
<!-- Node8 -->
<g id="node8" class="node">
<title>Node8</title>
<g id="a_node8"><a xlink:title=" ">
<polygon fill="none" stroke="#bfbfbf" points="994,-6 994,-25 1101,-25 1101,-6 994,-6"/>
<text text-anchor="middle" x="1047.5" y="-13" font-family="FreeSans.ttf" font-size="10.00">yarp/dev/Drivers.h</text>
</a>
</g>
</g>
<!-- Node6&#45;&gt;Node8 -->
<g id="edge7" class="edge">
<title>Node6&#45;&gt;Node8</title>
<path fill="none" stroke="midnightblue" d="M1234.27,-67.48C1195.9,-57 1130.71,-39.21 1088.39,-27.66"/>
<polygon fill="midnightblue" stroke="midnightblue" points="1089.24,-24.27 1078.68,-25.01 1087.4,-31.02 1089.24,-24.27"/>
</g>
<!-- Node9 -->
<g id="node9" class="node">
<title>Node9</title>
<g id="a_node9"><a xlink:title=" ">
<polygon fill="none" stroke="#bfbfbf" points="2317.5,-6 2317.5,-25 2439.5,-25 2439.5,-6 2317.5,-6"/>
<text text-anchor="middle" x="2378.5" y="-13" font-family="FreeSans.ttf" font-size="10.00">yarp/dev/PolyDriver.h</text>
</a>
</g>
</g>
<!-- Node6&#45;&gt;Node9 -->
<g id="edge8" class="edge">
<title>Node6&#45;&gt;Node9</title>
<path fill="none" stroke="midnightblue" d="M1335.77,-74.45C1538.09,-69.74 2119.53,-54.49 2308.5,-31 2316.38,-30.02 2324.69,-28.62 2332.73,-27.08"/>
<polygon fill="midnightblue" stroke="midnightblue" points="2333.6,-30.48 2342.71,-25.07 2332.22,-23.61 2333.6,-30.48"/>
</g>
<!-- Node10 -->
<g id="node10" class="node">
<title>Node10</title>
<g id="a_node10"><a xlink:title=" ">
<polygon fill="none" stroke="#bfbfbf" points="1119.5,-6 1119.5,-25 1253.5,-25 1253.5,-6 1119.5,-6"/>
<text text-anchor="middle" x="1186.5" y="-13" font-family="FreeSans.ttf" font-size="10.00">yarp/dev/IPWMControl.h</text>
</a>
</g>
</g>
<!-- Node6&#45;&gt;Node10 -->
<g id="edge9" class="edge">
<title>Node6&#45;&gt;Node10</title>
<path fill="none" stroke="midnightblue" d="M1254.18,-67.48C1241.63,-58.02 1221.15,-42.6 1206,-31.19"/>
<polygon fill="midnightblue" stroke="midnightblue" points="1207.89,-28.23 1197.8,-25.01 1203.68,-33.82 1207.89,-28.23"/>
</g>
<!-- Node11 -->
<g id="node11" class="node">
<title>Node11</title>
<g id="a_node11"><a xlink:title=" ">
<polygon fill="none" stroke="#bfbfbf" points="1271.5,-6 1271.5,-25 1417.5,-25 1417.5,-6 1271.5,-6"/>
<text text-anchor="middle" x="1344.5" y="-13" font-family="FreeSans.ttf" font-size="10.00">yarp/dev/ICurrentControl.h</text>
</a>
</g>
</g>
<!-- Node6&#45;&gt;Node11 -->
<g id="edge10" class="edge">
<title>Node6&#45;&gt;Node11</title>
<path fill="none" stroke="midnightblue" d="M1276.82,-67.48C1289.37,-58.02 1309.85,-42.6 1325,-31.19"/>
<polygon fill="midnightblue" stroke="midnightblue" points="1327.32,-33.82 1333.2,-25.01 1323.11,-28.23 1327.32,-33.82"/>
</g>
<!-- Node12 -->
<g id="node12" class="node">
<title>Node12</title>
<g id="a_node12"><a xlink:title=" ">
<polygon fill="none" stroke="#bfbfbf" points="1436,-0.5 1436,-30.5 1611,-30.5 1611,-0.5 1436,-0.5"/>
<text text-anchor="start" x="1444" y="-18.5" font-family="FreeSans.ttf" font-size="10.00">yarp/dev/ControlBoardInterfaces</text>
<text text-anchor="middle" x="1523.5" y="-7.5" font-family="FreeSans.ttf" font-size="10.00">Impl.h</text>
</a>
</g>
</g>
<!-- Node6&#45;&gt;Node12 -->
<g id="edge11" class="edge">
<title>Node6&#45;&gt;Node12</title>
<path fill="none" stroke="midnightblue" d="M1302.47,-67.48C1341.57,-58.46 1404.22,-44.01 1452.86,-32.79"/>
<polygon fill="midnightblue" stroke="midnightblue" points="1453.74,-36.18 1462.69,-30.52 1452.16,-29.36 1453.74,-36.18"/>
</g>
<!-- Node13 -->
<g id="node13" class="node">
<title>Node13</title>
<g id="a_node13"><a xlink:title=" ">
<polygon fill="none" stroke="#bfbfbf" points="1629.5,-6 1629.5,-25 1813.5,-25 1813.5,-6 1629.5,-6"/>
<text text-anchor="middle" x="1721.5" y="-13" font-family="FreeSans.ttf" font-size="10.00">yarp/dev/ControlBoardInterfaces.h</text>
</a>
</g>
</g>
<!-- Node6&#45;&gt;Node13 -->
<g id="edge12" class="edge">
<title>Node6&#45;&gt;Node13</title>
<path fill="none" stroke="midnightblue" d="M1335.6,-67.46C1407.24,-58.65 1521.69,-44.35 1620.5,-31 1631.12,-29.56 1642.36,-28 1653.33,-26.44"/>
<polygon fill="midnightblue" stroke="midnightblue" points="1653.9,-29.9 1663.31,-25.02 1652.91,-22.97 1653.9,-29.9"/>
</g>
<!-- Node14 -->
<g id="node14" class="node">
<title>Node14</title>
<g id="a_node14"><a xlink:title=" ">
<polygon fill="none" stroke="#bfbfbf" points="1832,-6 1832,-25 1969,-25 1969,-6 1832,-6"/>
<text text-anchor="middle" x="1900.5" y="-13" font-family="FreeSans.ttf" font-size="10.00">yarp/dev/IControlMode.h</text>
</a>
</g>
</g>
<!-- Node6&#45;&gt;Node14 -->
<g id="edge13" class="edge">
<title>Node6&#45;&gt;Node14</title>
<path fill="none" stroke="midnightblue" d="M1335.65,-72.66C1441.5,-67.09 1648.19,-54.18 1822.5,-31 1831.04,-29.86 1840.06,-28.42 1848.82,-26.88"/>
<polygon fill="midnightblue" stroke="midnightblue" points="1849.72,-30.28 1858.93,-25.05 1848.47,-23.39 1849.72,-30.28"/>
</g>
<!-- Node15 -->
<g id="node15" class="node">
<title>Node15</title>
<g id="a_node15"><a xlink:title=" ">
<polygon fill="none" stroke="#bfbfbf" points="1987.5,-6 1987.5,-25 2141.5,-25 2141.5,-6 1987.5,-6"/>
<text text-anchor="middle" x="2064.5" y="-13" font-family="FreeSans.ttf" font-size="10.00">yarp/dev/IInteractionMode.h</text>
</a>
</g>
</g>
<!-- Node6&#45;&gt;Node15 -->
<g id="edge14" class="edge">
<title>Node6&#45;&gt;Node15</title>
<path fill="none" stroke="midnightblue" d="M1335.55,-74C1463.57,-69.8 1743.78,-58.12 1978.5,-31 1988.43,-29.85 1998.95,-28.33 2009.11,-26.71"/>
<polygon fill="midnightblue" stroke="midnightblue" points="2009.8,-30.14 2019.1,-25.06 2008.66,-23.24 2009.8,-30.14"/>
</g>
<!-- Node16 -->
<g id="node16" class="node">
<title>Node16</title>
<g id="a_node16"><a xlink:title=" ">
<polygon fill="none" stroke="#bfbfbf" points="291.5,-6 291.5,-25 449.5,-25 449.5,-6 291.5,-6"/>
<text text-anchor="middle" x="370.5" y="-13" font-family="FreeSans.ttf" font-size="10.00">yarp/dev/IRemoteVariables.h</text>
</a>
</g>
</g>
<!-- Node6&#45;&gt;Node16 -->
<g id="edge15" class="edge">
<title>Node6&#45;&gt;Node16</title>
<path fill="none" stroke="midnightblue" d="M1195.4,-74.63C1055.1,-71.32 729.97,-60.85 458.5,-31 448.12,-29.86 437.1,-28.31 426.5,-26.65"/>
<polygon fill="midnightblue" stroke="midnightblue" points="426.93,-23.18 416.5,-25.04 425.81,-30.09 426.93,-23.18"/>
</g>
<!-- Node17 -->
<g id="node17" class="node">
<title>Node17</title>
<g id="a_node17"><a xlink:title=" ">
<polygon fill="none" stroke="#bfbfbf" points="467.5,-6 467.5,-25 565.5,-25 565.5,-6 467.5,-6"/>
<text text-anchor="middle" x="516.5" y="-13" font-family="FreeSans.ttf" font-size="10.00">yarp/sig/Vector.h</text>
</a>
</g>
</g>
<!-- Node6&#45;&gt;Node17 -->
<g id="edge16" class="edge">
<title>Node6&#45;&gt;Node17</title>
<path fill="none" stroke="midnightblue" d="M1195.41,-75.59C1070.07,-73.93 799.58,-66.17 574.5,-31 568.59,-30.08 562.4,-28.83 556.35,-27.46"/>
<polygon fill="midnightblue" stroke="midnightblue" points="556.93,-24 546.39,-25.06 555.3,-30.81 556.93,-24"/>
</g>
<!-- Node18 -->
<g id="node18" class="node">
<title>Node18</title>
<g id="a_node18"><a xlink:title=" ">
<polygon fill="none" stroke="#bfbfbf" points="584,-6 584,-25 673,-25 673,-6 584,-6"/>
<text text-anchor="middle" x="628.5" y="-13" font-family="FreeSans.ttf" font-size="10.00">yarp/os/Time.h</text>
</a>
</g>
</g>
<!-- Node6&#45;&gt;Node18 -->
<g id="edge17" class="edge">
<title>Node6&#45;&gt;Node18</title>
<path fill="none" stroke="midnightblue" d="M1195.44,-74.77C1085.44,-71.91 865.86,-62.41 682.5,-31 677.12,-30.08 671.49,-28.86 665.99,-27.52"/>
<polygon fill="midnightblue" stroke="midnightblue" points="666.87,-24.13 656.31,-25.02 665.12,-30.91 666.87,-24.13"/>
</g>
<!-- Node19 -->
<g id="node19" class="node">
<title>Node19</title>
<g id="a_node19"><a xlink:title=" ">
<polygon fill="none" stroke="#bfbfbf" points="691.5,-6 691.5,-25 787.5,-25 787.5,-6 691.5,-6"/>
<text text-anchor="middle" x="739.5" y="-13" font-family="FreeSans.ttf" font-size="10.00">yarp/os/Stamp.h</text>
</a>
</g>
</g>
<!-- Node6&#45;&gt;Node19 -->
<g id="edge18" class="edge">
<title>Node6&#45;&gt;Node19</title>
<path fill="none" stroke="midnightblue" d="M1195.29,-72.52C1103.37,-67.22 937.47,-55.09 797.5,-31 791.73,-30.01 785.69,-28.75 779.78,-27.39"/>
<polygon fill="midnightblue" stroke="midnightblue" points="780.56,-23.98 770.02,-25.04 778.92,-30.78 780.56,-23.98"/>
</g>
<!-- Node20 -->
<g id="node20" class="node">
<title>Node20</title>
<g id="a_node20"><a xlink:title=" ">
<polygon fill="none" stroke="#bfbfbf" points="806,-6 806,-25 853,-25 853,-6 806,-6"/>
<text text-anchor="middle" x="829.5" y="-13" font-family="FreeSans.ttf" font-size="10.00">vector</text>
</a>
</g>
</g>
<!-- Node6&#45;&gt;Node20 -->
<g id="edge20" class="edge">
<title>Node6&#45;&gt;Node20</title>
<path fill="none" stroke="midnightblue" d="M1195.14,-74.56C1113.76,-71.43 976.38,-61.61 862.5,-31 860.21,-30.38 857.87,-29.63 855.54,-28.8"/>
<polygon fill="midnightblue" stroke="midnightblue" points="856.85,-25.55 846.27,-25.04 854.23,-32.04 856.85,-25.55"/>
</g>
<!-- Node21 -->
<g id="node21" class="node">
<title>Node21</title>
<g id="a_node21"><a xlink:title=" ">
<polygon fill="none" stroke="#bfbfbf" points="2746,-6 2746,-25 2865,-25 2865,-6 2746,-6"/>
<text text-anchor="middle" x="2805.5" y="-13" font-family="FreeSans.ttf" font-size="10.00">boost/shared_ptr.hpp</text>
</a>
</g>
</g>
<!-- Node6&#45;&gt;Node21 -->
<g id="edge21" class="edge">
<title>Node6&#45;&gt;Node21</title>
<path fill="none" stroke="midnightblue" d="M1335.76,-75.52C1589.93,-73.54 2461.15,-64.41 2737.5,-31 2745.34,-30.05 2753.61,-28.64 2761.58,-27.07"/>
<polygon fill="midnightblue" stroke="midnightblue" points="2762.38,-30.48 2771.46,-25.01 2760.95,-23.62 2762.38,-30.48"/>
</g>
<!-- Node22 -->
<g id="node22" class="node">
<title>Node22</title>
<g id="a_node22"><a xlink:title=" ">
<polygon fill="none" stroke="#bfbfbf" points="2457.5,-6 2457.5,-25 2505.5,-25 2505.5,-6 2457.5,-6"/>
<text text-anchor="middle" x="2481.5" y="-13" font-family="FreeSans.ttf" font-size="10.00">mutex</text>
</a>
</g>
</g>
<!-- Node6&#45;&gt;Node22 -->
<g id="edge22" class="edge">
<title>Node6&#45;&gt;Node22</title>
<path fill="none" stroke="midnightblue" d="M1335.61,-74.86C1573.39,-70.79 2340.4,-55.86 2448.5,-31 2450.87,-30.46 2453.27,-29.74 2455.66,-28.93"/>
<polygon fill="midnightblue" stroke="midnightblue" points="2457.14,-32.1 2465.13,-25.14 2454.55,-25.6 2457.14,-32.1"/>
</g>
<!-- Node23&#45;&gt;Node4 -->
<g id="edge24" class="edge">
<title>Node23&#45;&gt;Node4</title>
<path fill="none" stroke="midnightblue" d="M251.5,-67.48C251.5,-59.08 251.5,-45.98 251.5,-35.16"/>
<polygon fill="midnightblue" stroke="midnightblue" points="255,-35.01 251.5,-25.01 248,-35.01 255,-35.01"/>
</g>
<!-- Node24 -->
<g id="node24" class="node">
<title>Node24</title>
<g id="a_node24"><a xlink:title=" ">
<polygon fill="none" stroke="#bfbfbf" points="0,-6 0,-25 47,-25 47,-6 0,-6"/>
<text text-anchor="middle" x="23.5" y="-13" font-family="FreeSans.ttf" font-size="10.00">cmath</text>
</a>
</g>
</g>
<!-- Node23&#45;&gt;Node24 -->
<g id="edge25" class="edge">
<title>Node23&#45;&gt;Node24</title>
<path fill="none" stroke="midnightblue" d="M203.13,-67.46C163.24,-59.79 105.47,-47.25 56.5,-31 54.63,-30.38 52.72,-29.69 50.81,-28.96"/>
<polygon fill="midnightblue" stroke="midnightblue" points="52,-25.67 41.42,-25.1 49.33,-32.14 52,-25.67"/>
</g>
<!-- Node25&#45;&gt;Node5 -->
<g id="edge32" class="edge">
<title>Node25&#45;&gt;Node5</title>
<path fill="none" stroke="midnightblue" d="M2511.37,-67.43C2460.84,-58.42 2379.07,-43.8 2308.5,-31 2301.15,-29.67 2293.43,-28.26 2285.8,-26.86"/>
<polygon fill="midnightblue" stroke="midnightblue" points="2286.33,-23.4 2275.86,-25.04 2285.07,-30.29 2286.33,-23.4"/>
</g>
<!-- Node25&#45;&gt;Node9 -->
<g id="edge31" class="edge">
<title>Node25&#45;&gt;Node9</title>
<path fill="none" stroke="midnightblue" d="M2533.57,-67.48C2502.25,-57.18 2449.41,-39.81 2414.24,-28.25"/>
<polygon fill="midnightblue" stroke="midnightblue" points="2414.98,-24.81 2404.38,-25.01 2412.79,-31.46 2414.98,-24.81"/>
</g>
<!-- Node25&#45;&gt;Node21 -->
<g id="edge29" class="edge">
<title>Node25&#45;&gt;Node21</title>
<path fill="none" stroke="midnightblue" d="M2594.75,-67.48C2638.4,-56.92 2712.84,-38.91 2760.56,-27.37"/>
<polygon fill="midnightblue" stroke="midnightblue" points="2761.42,-30.76 2770.32,-25.01 2759.78,-23.96 2761.42,-30.76"/>
</g>
<!-- Node25&#45;&gt;Node22 -->
<g id="edge30" class="edge">
<title>Node25&#45;&gt;Node22</title>
<path fill="none" stroke="midnightblue" d="M2548.32,-67.48C2535.93,-58.02 2515.71,-42.6 2500.75,-31.19"/>
<polygon fill="midnightblue" stroke="midnightblue" points="2502.73,-28.29 2492.65,-25.01 2498.48,-33.86 2502.73,-28.29"/>
</g>
<!-- Node26 -->
<g id="node26" class="node">
<title>Node26</title>
<g id="a_node26"><a xlink:title=" ">
<polygon fill="none" stroke="#bfbfbf" points="2523.5,-6 2523.5,-25 2561.5,-25 2561.5,-6 2523.5,-6"/>
<text text-anchor="middle" x="2542.5" y="-13" font-family="FreeSans.ttf" font-size="10.00">map</text>
</a>
</g>
</g>
<!-- Node25&#45;&gt;Node26 -->
<g id="edge27" class="edge">
<title>Node25&#45;&gt;Node26</title>
<path fill="none" stroke="midnightblue" d="M2557.06,-67.48C2554.64,-58.99 2550.84,-45.7 2547.73,-34.82"/>
<polygon fill="midnightblue" stroke="midnightblue" points="2551.04,-33.66 2544.93,-25.01 2544.31,-35.59 2551.04,-33.66"/>
</g>
<!-- Node27 -->
<g id="node27" class="node">
<title>Node27</title>
<g id="a_node27"><a xlink:title=" ">
<polygon fill="none" stroke="#bfbfbf" points="2883,-6 2883,-25 2976,-25 2976,-6 2883,-6"/>
<text text-anchor="middle" x="2929.5" y="-13" font-family="FreeSans.ttf" font-size="10.00">sdf/sdf_config.h</text>
</a>
</g>
</g>
<!-- Node25&#45;&gt;Node27 -->
<g id="edge28" class="edge">
<title>Node25&#45;&gt;Node27</title>
<path fill="none" stroke="midnightblue" d="M2636.95,-67.47C2700.98,-59.82 2794.1,-47.28 2874.5,-31 2879.51,-29.98 2884.75,-28.79 2889.91,-27.52"/>
<polygon fill="midnightblue" stroke="midnightblue" points="2890.85,-30.89 2899.68,-25.04 2889.12,-24.11 2890.85,-30.89"/>
</g>
<!-- Node28 -->
<g id="node28" class="node">
<title>Node28</title>
<g id="a_node28"><a xlink:title=" ">
<polygon fill="none" stroke="#bfbfbf" points="2579,-6 2579,-25 2728,-25 2728,-6 2579,-6"/>
<text text-anchor="middle" x="2653.5" y="-13" font-family="FreeSans.ttf" font-size="10.00">gazebo/common/Events.hh</text>
</a>
</g>
</g>
<!-- Node25&#45;&gt;Node28 -->
<g id="edge33" class="edge">
<title>Node25&#45;&gt;Node28</title>
<path fill="none" stroke="midnightblue" d="M2572.97,-67.48C2588.18,-57.84 2613.19,-42.02 2631.3,-30.55"/>
<polygon fill="midnightblue" stroke="midnightblue" points="2633.48,-33.31 2640.06,-25.01 2629.74,-27.4 2633.48,-33.31"/>
</g>
<!-- Node29&#45;&gt;Node21 -->
<g id="edge36" class="edge">
<title>Node29&#45;&gt;Node21</title>
<path fill="none" stroke="midnightblue" d="M2790.08,-67.48C2792.65,-58.99 2796.67,-45.7 2799.96,-34.82"/>
<polygon fill="midnightblue" stroke="midnightblue" points="2803.38,-35.59 2802.93,-25.01 2796.68,-33.57 2803.38,-35.59"/>
</g>
<!-- Node29&#45;&gt;Node27 -->
<g id="edge35" class="edge">
<title>Node29&#45;&gt;Node27</title>
<path fill="none" stroke="midnightblue" d="M2807.85,-67.48C2831.89,-57.4 2872.1,-40.55 2899.66,-29"/>
<polygon fill="midnightblue" stroke="midnightblue" points="2901.32,-32.1 2909.19,-25.01 2898.62,-25.65 2901.32,-32.1"/>
</g>
<!-- Node30 -->
<g id="node30" class="node">
<title>Node30</title>
<g id="a_node30"><a xlink:title=" ">
<polygon fill="none" stroke="#bfbfbf" points="3187,-6 3187,-25 3358,-25 3358,-6 3187,-6"/>
<text text-anchor="middle" x="3272.5" y="-13" font-family="FreeSans.ttf" font-size="10.00">gazebo/sensors/SensorTypes.hh</text>
</a>
</g>
</g>
<!-- Node29&#45;&gt;Node30 -->
<g id="edge37" class="edge">
<title>Node29&#45;&gt;Node30</title>
<path fill="none" stroke="midnightblue" d="M2869.03,-67.47C2948,-59 3071.1,-45.25 3177.5,-31 3187.65,-29.64 3198.4,-28.1 3208.87,-26.54"/>
<polygon fill="midnightblue" stroke="midnightblue" points="3209.42,-30 3218.79,-25.05 3208.38,-23.07 3209.42,-30"/>
</g>
<!-- Node31 -->
<g id="node31" class="node">
<title>Node31</title>
<g id="a_node31"><a xlink:title=" ">
<polygon fill="none" stroke="#bfbfbf" points="2994.5,-6 2994.5,-25 3168.5,-25 3168.5,-6 2994.5,-6"/>
<text text-anchor="middle" x="3081.5" y="-13" font-family="FreeSans.ttf" font-size="10.00">gazebo/physics/PhysicsTypes.hh</text>
</a>
</g>
</g>
<!-- Node29&#45;&gt;Node31 -->
<g id="edge38" class="edge">
<title>Node29&#45;&gt;Node31</title>
<path fill="none" stroke="midnightblue" d="M2829.62,-67.48C2882.35,-56.8 2972.63,-38.53 3029.57,-27.01"/>
<polygon fill="midnightblue" stroke="midnightblue" points="3030.35,-30.42 3039.46,-25.01 3028.96,-23.56 3030.35,-30.42"/>
</g>
</g>
</svg>
