<?xml version="1.0" encoding="UTF-8" standalone="no"?>
<!DOCTYPE svg PUBLIC "-//W3C//DTD SVG 1.1//EN"
 "http://www.w3.org/Graphics/SVG/1.1/DTD/svg11.dtd">
<!-- Generated by graphviz version 2.43.0 (0)
 -->
<!-- Title: FakeControlBoard.cc Pages: 1 -->
<svg width="3469pt" height="151pt"
 viewBox="0.00 0.00 3469.00 151.00" xmlns="http://www.w3.org/2000/svg" xmlns:xlink="http://www.w3.org/1999/xlink">
<g id="graph0" class="graph" transform="scale(1 1) rotate(0) translate(4 147)">
<title>FakeControlBoard.cc</title>
<!-- Node1 -->
<g id="node1" class="node">
<title>Node1</title>
<g id="a_node1"><a xlink:title=" ">
<polygon fill="#bfbfbf" stroke="black" points="2708.5,-123.5 2708.5,-142.5 2824.5,-142.5 2824.5,-123.5 2708.5,-123.5"/>
<text text-anchor="middle" x="2766.5" y="-130.5" font-family="FreeSans.ttf" font-size="10.00">FakeControlBoard.cc</text>
</a>
</g>
</g>
<!-- Node2 -->
<g id="node2" class="node">
<title>Node2</title>
<g id="a_node2"><a xlink:href="FakeControlBoard_8hh.html" target="_top" xlink:title=" ">
<polygon fill="none" stroke="black" points="526,-67.5 526,-86.5 643,-86.5 643,-67.5 526,-67.5"/>
<text text-anchor="middle" x="584.5" y="-74.5" font-family="FreeSans.ttf" font-size="10.00">FakeControlBoard.hh</text>
</a>
</g>
</g>
<!-- Node1&#45;&gt;Node2 -->
<g id="edge1" class="edge">
<title>Node1&#45;&gt;Node2</title>
<path fill="none" stroke="midnightblue" d="M2708.42,-130.56C2402.96,-123 984.01,-87.89 653.45,-79.71"/>
<polygon fill="midnightblue" stroke="midnightblue" points="653.16,-76.2 643.07,-79.45 652.98,-83.2 653.16,-76.2"/>
</g>
<!-- Node6 -->
<g id="node6" class="node">
<title>Node6</title>
<g id="a_node6"><a xlink:href="FakeControlBoardDriver_8h.html" target="_top" xlink:title=" ">
<polygon fill="none" stroke="black" points="1596.5,-67.5 1596.5,-86.5 1736.5,-86.5 1736.5,-67.5 1596.5,-67.5"/>
<text text-anchor="middle" x="1666.5" y="-74.5" font-family="FreeSans.ttf" font-size="10.00">FakeControlBoardDriver.h</text>
</a>
</g>
</g>
<!-- Node1&#45;&gt;Node6 -->
<g id="edge5" class="edge">
<title>Node1&#45;&gt;Node6</title>
<path fill="none" stroke="midnightblue" d="M2708.14,-129.13C2524.38,-120.11 1957.45,-92.28 1746.59,-81.93"/>
<polygon fill="midnightblue" stroke="midnightblue" points="1746.68,-78.43 1736.52,-81.44 1746.33,-85.42 1746.68,-78.43"/>
</g>
<!-- Node23 -->
<g id="node23" class="node">
<title>Node23</title>
<g id="a_node23"><a xlink:href="common_8h.html" target="_top" xlink:title=" ">
<polygon fill="none" stroke="black" points="169.5,-67.5 169.5,-86.5 333.5,-86.5 333.5,-67.5 169.5,-67.5"/>
<text text-anchor="middle" x="251.5" y="-74.5" font-family="FreeSans.ttf" font-size="10.00">GazeboYarpPlugins/common.h</text>
</a>
</g>
</g>
<!-- Node1&#45;&gt;Node23 -->
<g id="edge23" class="edge">
<title>Node1&#45;&gt;Node23</title>
<path fill="none" stroke="midnightblue" d="M2708.26,-131.13C2450.73,-127.24 1388.43,-110.52 516.5,-87 459.02,-85.45 394.53,-83.27 343.57,-81.44"/>
<polygon fill="midnightblue" stroke="midnightblue" points="343.68,-77.94 333.56,-81.08 343.43,-84.94 343.68,-77.94"/>
</g>
<!-- Node25 -->
<g id="node25" class="node">
<title>Node25</title>
<g id="a_node25"><a xlink:href="Handler_8hh.html" target="_top" xlink:title=" ">
<polygon fill="none" stroke="black" points="2399.5,-67.5 2399.5,-86.5 2563.5,-86.5 2563.5,-67.5 2399.5,-67.5"/>
<text text-anchor="middle" x="2481.5" y="-74.5" font-family="FreeSans.ttf" font-size="10.00">GazeboYarpPlugins/Handler.hh</text>
</a>
</g>
</g>
<!-- Node1&#45;&gt;Node25 -->
<g id="edge26" class="edge">
<title>Node1&#45;&gt;Node25</title>
<path fill="none" stroke="midnightblue" d="M2721.34,-123.44C2671.21,-113.94 2590.28,-98.61 2536.49,-88.42"/>
<polygon fill="midnightblue" stroke="midnightblue" points="2536.92,-84.94 2526.45,-86.52 2535.62,-91.82 2536.92,-84.94"/>
</g>
<!-- Node28 -->
<g id="node28" class="node">
<title>Node28</title>
<g id="a_node28"><a xlink:href="ConfHelpers_8hh.html" target="_top" xlink:title=" ">
<polygon fill="none" stroke="black" points="2582,-67.5 2582,-86.5 2769,-86.5 2769,-67.5 2582,-67.5"/>
<text text-anchor="middle" x="2675.5" y="-74.5" font-family="FreeSans.ttf" font-size="10.00">GazeboYarpPlugins/ConfHelpers.hh</text>
</a>
</g>
</g>
<!-- Node1&#45;&gt;Node28 -->
<g id="edge33" class="edge">
<title>Node1&#45;&gt;Node28</title>
<path fill="none" stroke="midnightblue" d="M2751.88,-123.32C2737.55,-114.82 2715.49,-101.73 2698.75,-91.8"/>
<polygon fill="midnightblue" stroke="midnightblue" points="2700.47,-88.75 2690.08,-86.65 2696.9,-94.77 2700.47,-88.75"/>
</g>
<!-- Node31 -->
<g id="node31" class="node">
<title>Node31</title>
<g id="a_node31"><a xlink:title=" ">
<polygon fill="none" stroke="#bfbfbf" points="2787.5,-67.5 2787.5,-86.5 2927.5,-86.5 2927.5,-67.5 2787.5,-67.5"/>
<text text-anchor="middle" x="2857.5" y="-74.5" font-family="FreeSans.ttf" font-size="10.00">gazebo/physics/Model.hh</text>
</a>
</g>
</g>
<!-- Node1&#45;&gt;Node31 -->
<g id="edge38" class="edge">
<title>Node1&#45;&gt;Node31</title>
<path fill="none" stroke="midnightblue" d="M2781.12,-123.32C2795.45,-114.82 2817.51,-101.73 2834.25,-91.8"/>
<polygon fill="midnightblue" stroke="midnightblue" points="2836.1,-94.77 2842.92,-86.65 2832.53,-88.75 2836.1,-94.77"/>
</g>
<!-- Node32 -->
<g id="node32" class="node">
<title>Node32</title>
<g id="a_node32"><a xlink:title=" ">
<polygon fill="none" stroke="#bfbfbf" points="2946,-67.5 2946,-86.5 3101,-86.5 3101,-67.5 2946,-67.5"/>
<text text-anchor="middle" x="3023.5" y="-74.5" font-family="FreeSans.ttf" font-size="10.00">yarp/dev/IMultipleWrapper.h</text>
</a>
</g>
</g>
<!-- Node1&#45;&gt;Node32 -->
<g id="edge39" class="edge">
<title>Node1&#45;&gt;Node32</title>
<path fill="none" stroke="midnightblue" d="M2807.22,-123.44C2852.15,-114 2924.5,-98.8 2973,-88.61"/>
<polygon fill="midnightblue" stroke="midnightblue" points="2973.9,-92 2982.97,-86.52 2972.46,-85.15 2973.9,-92"/>
</g>
<!-- Node33 -->
<g id="node33" class="node">
<title>Node33</title>
<g id="a_node33"><a xlink:title=" ">
<polygon fill="none" stroke="#bfbfbf" points="3119.5,-67.5 3119.5,-86.5 3225.5,-86.5 3225.5,-67.5 3119.5,-67.5"/>
<text text-anchor="middle" x="3172.5" y="-74.5" font-family="FreeSans.ttf" font-size="10.00">yarp/os/Network.h</text>
</a>
</g>
</g>
<!-- Node1&#45;&gt;Node33 -->
<g id="edge40" class="edge">
<title>Node1&#45;&gt;Node33</title>
<path fill="none" stroke="midnightblue" d="M2824.66,-124.65C2891.02,-116.2 3003.07,-101.76 3109.46,-87.13"/>
<polygon fill="midnightblue" stroke="midnightblue" points="3109.98,-90.59 3119.41,-85.76 3109.02,-83.66 3109.98,-90.59"/>
</g>
<!-- Node34 -->
<g id="node34" class="node">
<title>Node34</title>
<g id="a_node34"><a xlink:title=" ">
<polygon fill="none" stroke="#bfbfbf" points="3243.5,-67.5 3243.5,-86.5 3325.5,-86.5 3325.5,-67.5 3243.5,-67.5"/>
<text text-anchor="middle" x="3284.5" y="-74.5" font-family="FreeSans.ttf" font-size="10.00">yarp/os/Log.h</text>
</a>
</g>
</g>
<!-- Node1&#45;&gt;Node34 -->
<g id="edge41" class="edge">
<title>Node1&#45;&gt;Node34</title>
<path fill="none" stroke="midnightblue" d="M2824.68,-127.95C2911.45,-121.57 3080.09,-107.86 3233.28,-87.07"/>
<polygon fill="midnightblue" stroke="midnightblue" points="3233.91,-90.51 3243.34,-85.69 3232.96,-83.58 3233.91,-90.51"/>
</g>
<!-- Node35 -->
<g id="node35" class="node">
<title>Node35</title>
<g id="a_node35"><a xlink:title=" ">
<polygon fill="none" stroke="#bfbfbf" points="3344,-67.5 3344,-86.5 3461,-86.5 3461,-67.5 3344,-67.5"/>
<text text-anchor="middle" x="3402.5" y="-74.5" font-family="FreeSans.ttf" font-size="10.00">yarp/os/LogStream.h</text>
</a>
</g>
</g>
<!-- Node1&#45;&gt;Node35 -->
<g id="edge42" class="edge">
<title>Node1&#45;&gt;Node35</title>
<path fill="none" stroke="midnightblue" d="M2824.65,-128.41C2925.83,-121.93 3141.06,-107.17 3333.88,-87.01"/>
<polygon fill="midnightblue" stroke="midnightblue" points="3334.34,-90.48 3343.92,-85.95 3333.61,-83.52 3334.34,-90.48"/>
</g>
<!-- Node3 -->
<g id="node3" class="node">
<title>Node3</title>
<g id="a_node3"><a xlink:title=" ">
<polygon fill="none" stroke="#bfbfbf" points="65.5,-6 65.5,-25 211.5,-25 211.5,-6 65.5,-6"/>
<text text-anchor="middle" x="138.5" y="-13" font-family="FreeSans.ttf" font-size="10.00">gazebo/common/Plugin.hh</text>
</a>
</g>
</g>
<!-- Node2&#45;&gt;Node3 -->
<g id="edge2" class="edge">
<title>Node2&#45;&gt;Node3</title>
<path fill="none" stroke="midnightblue" d="M525.74,-69.69C453.68,-61.73 327.86,-47.12 220.5,-31 212.07,-29.74 203.18,-28.28 194.48,-26.8"/>
<polygon fill="midnightblue" stroke="midnightblue" points="194.85,-23.31 184.4,-25.05 193.66,-30.21 194.85,-23.31"/>
</g>
<!-- Node4 -->
<g id="node4" class="node">
<title>Node4</title>
<g id="a_node4"><a xlink:title=" ">
<polygon fill="none" stroke="#bfbfbf" points="229.5,-6 229.5,-25 273.5,-25 273.5,-6 229.5,-6"/>
<text text-anchor="middle" x="251.5" y="-13" font-family="FreeSans.ttf" font-size="10.00">string</text>
</a>
</g>
</g>
<!-- Node2&#45;&gt;Node4 -->
<g id="edge3" class="edge">
<title>Node2&#45;&gt;Node4</title>
<path fill="none" stroke="midnightblue" d="M525.79,-72.3C464.12,-67.25 364.85,-55.82 282.5,-31 280.62,-30.43 278.71,-29.77 276.81,-29.05"/>
<polygon fill="midnightblue" stroke="midnightblue" points="278.13,-25.81 267.56,-25.09 275.38,-32.24 278.13,-25.81"/>
</g>
<!-- Node5 -->
<g id="node5" class="node">
<title>Node5</title>
<g id="a_node5"><a xlink:title=" ">
<polygon fill="none" stroke="#bfbfbf" points="687.5,-6 687.5,-25 827.5,-25 827.5,-6 687.5,-6"/>
<text text-anchor="middle" x="757.5" y="-13" font-family="FreeSans.ttf" font-size="10.00">yarp/dev/PolyDriverList.h</text>
</a>
</g>
</g>
<!-- Node2&#45;&gt;Node5 -->
<g id="edge4" class="edge">
<title>Node2&#45;&gt;Node5</title>
<path fill="none" stroke="midnightblue" d="M609.29,-67.48C639.09,-57.22 689.29,-39.96 722.9,-28.4"/>
<polygon fill="midnightblue" stroke="midnightblue" points="724.44,-31.57 732.76,-25.01 722.16,-24.95 724.44,-31.57"/>
</g>
<!-- Node6&#45;&gt;Node4 -->
<g id="edge19" class="edge">
<title>Node6&#45;&gt;Node4</title>
<path fill="none" stroke="midnightblue" d="M1596.15,-75.37C1332.35,-72.79 410.5,-61.65 282.5,-31 280.29,-30.47 278.06,-29.78 275.84,-28.98"/>
<polygon fill="midnightblue" stroke="midnightblue" points="277.08,-25.7 266.51,-25.01 274.34,-32.14 277.08,-25.7"/>
</g>
<!-- Node7 -->
<g id="node7" class="node">
<title>Node7</title>
<g id="a_node7"><a xlink:title=" ">
<polygon fill="none" stroke="#bfbfbf" points="1753.5,-6 1753.5,-25 1857.5,-25 1857.5,-6 1753.5,-6"/>
<text text-anchor="middle" x="1805.5" y="-13" font-family="FreeSans.ttf" font-size="10.00">yarp/os/Property.h</text>
</a>
</g>
</g>
<!-- Node6&#45;&gt;Node7 -->
<g id="edge6" class="edge">
<title>Node6&#45;&gt;Node7</title>
<path fill="none" stroke="midnightblue" d="M1686.42,-67.48C1709.95,-57.4 1749.31,-40.55 1776.29,-29"/>
<polygon fill="midnightblue" stroke="midnightblue" points="1777.81,-32.16 1785.62,-25.01 1775.05,-25.73 1777.81,-32.16"/>
</g>
<!-- Node8 -->
<g id="node8" class="node">
<title>Node8</title>
<g id="a_node8"><a xlink:title=" ">
<polygon fill="none" stroke="#bfbfbf" points="1876,-6 1876,-25 1983,-25 1983,-6 1876,-6"/>
<text text-anchor="middle" x="1929.5" y="-13" font-family="FreeSans.ttf" font-size="10.00">yarp/dev/Drivers.h</text>
</a>
</g>
</g>
<!-- Node6&#45;&gt;Node8 -->
<g id="edge7" class="edge">
<title>Node6&#45;&gt;Node8</title>
<path fill="none" stroke="midnightblue" d="M1704.85,-67.43C1745.12,-58.42 1810.28,-43.79 1866.5,-31 1871.77,-29.8 1877.28,-28.54 1882.76,-27.28"/>
<polygon fill="midnightblue" stroke="midnightblue" points="1883.57,-30.69 1892.53,-25.04 1882,-23.87 1883.57,-30.69"/>
</g>
<!-- Node9 -->
<g id="node9" class="node">
<title>Node9</title>
<g id="a_node9"><a xlink:title=" ">
<polygon fill="none" stroke="#bfbfbf" points="2317.5,-6 2317.5,-25 2439.5,-25 2439.5,-6 2317.5,-6"/>
<text text-anchor="middle" x="2378.5" y="-13" font-family="FreeSans.ttf" font-size="10.00">yarp/dev/PolyDriver.h</text>
</a>
</g>
</g>
<!-- Node6&#45;&gt;Node9 -->
<g id="edge8" class="edge">
<title>Node6&#45;&gt;Node9</title>
<path fill="none" stroke="midnightblue" d="M1736.64,-74.16C1855.03,-70.38 2101.8,-59.52 2308.5,-31 2316.11,-29.95 2324.13,-28.56 2331.92,-27.06"/>
<polygon fill="midnightblue" stroke="midnightblue" points="2332.86,-30.44 2341.97,-25.03 2331.47,-23.58 2332.86,-30.44"/>
</g>
<!-- Node10 -->
<g id="node10" class="node">
<title>Node10</title>
<g id="a_node10"><a xlink:title=" ">
<polygon fill="none" stroke="#bfbfbf" points="2001.5,-6 2001.5,-25 2135.5,-25 2135.5,-6 2001.5,-6"/>
<text text-anchor="middle" x="2068.5" y="-13" font-family="FreeSans.ttf" font-size="10.00">yarp/dev/IPWMControl.h</text>
</a>
</g>
</g>
<!-- Node6&#45;&gt;Node10 -->
<g id="edge9" class="edge">
<title>Node6&#45;&gt;Node10</title>
<path fill="none" stroke="midnightblue" d="M1735.97,-67.46C1802.08,-59.09 1904.27,-45.5 1992.5,-31 2000.14,-29.74 2008.2,-28.32 2016.09,-26.86"/>
<polygon fill="midnightblue" stroke="midnightblue" points="2016.78,-30.3 2025.96,-25.02 2015.49,-23.42 2016.78,-30.3"/>
</g>
<!-- Node11 -->
<g id="node11" class="node">
<title>Node11</title>
<g id="a_node11"><a xlink:title=" ">
<polygon fill="none" stroke="#bfbfbf" points="2153.5,-6 2153.5,-25 2299.5,-25 2299.5,-6 2153.5,-6"/>
<text text-anchor="middle" x="2226.5" y="-13" font-family="FreeSans.ttf" font-size="10.00">yarp/dev/ICurrentControl.h</text>
</a>
</g>
</g>
<!-- Node6&#45;&gt;Node11 -->
<g id="edge10" class="edge">
<title>Node6&#45;&gt;Node11</title>
<path fill="none" stroke="midnightblue" d="M1736.77,-71.18C1830.14,-64.36 2000.15,-50.52 2144.5,-31 2153.35,-29.8 2162.7,-28.34 2171.8,-26.81"/>
<polygon fill="midnightblue" stroke="midnightblue" points="2172.66,-30.21 2181.92,-25.06 2171.47,-23.31 2172.66,-30.21"/>
</g>
<!-- Node12 -->
<g id="node12" class="node">
<title>Node12</title>
<g id="a_node12"><a xlink:title=" ">
<polygon fill="none" stroke="#bfbfbf" points="292,-0.5 292,-30.5 467,-30.5 467,-0.5 292,-0.5"/>
<text text-anchor="start" x="300" y="-18.5" font-family="FreeSans.ttf" font-size="10.00">yarp/dev/ControlBoardInterfaces</text>
<text text-anchor="middle" x="379.5" y="-7.5" font-family="FreeSans.ttf" font-size="10.00">Impl.h</text>
</a>
</g>
</g>
<!-- Node6&#45;&gt;Node12 -->
<g id="edge11" class="edge">
<title>Node6&#45;&gt;Node12</title>
<path fill="none" stroke="midnightblue" d="M1596.24,-76.05C1413.51,-75.6 908.27,-70.64 477.38,-31"/>
<polygon fill="midnightblue" stroke="midnightblue" points="477.5,-27.5 467.22,-30.06 476.85,-34.47 477.5,-27.5"/>
</g>
<!-- Node13 -->
<g id="node13" class="node">
<title>Node13</title>
<g id="a_node13"><a xlink:title=" ">
<polygon fill="none" stroke="#bfbfbf" points="485.5,-6 485.5,-25 669.5,-25 669.5,-6 485.5,-6"/>
<text text-anchor="middle" x="577.5" y="-13" font-family="FreeSans.ttf" font-size="10.00">yarp/dev/ControlBoardInterfaces.h</text>
</a>
</g>
</g>
<!-- Node6&#45;&gt;Node13 -->
<g id="edge12" class="edge">
<title>Node6&#45;&gt;Node13</title>
<path fill="none" stroke="midnightblue" d="M1596.26,-75.14C1434.19,-72.65 1021.68,-63.37 678.5,-31 666.05,-29.83 652.78,-28.19 640.09,-26.45"/>
<polygon fill="midnightblue" stroke="midnightblue" points="640.46,-22.97 630.07,-25.03 639.48,-29.9 640.46,-22.97"/>
</g>
<!-- Node14 -->
<g id="node14" class="node">
<title>Node14</title>
<g id="a_node14"><a xlink:title=" ">
<polygon fill="none" stroke="#bfbfbf" points="846,-6 846,-25 983,-25 983,-6 846,-6"/>
<text text-anchor="middle" x="914.5" y="-13" font-family="FreeSans.ttf" font-size="10.00">yarp/dev/IControlMode.h</text>
</a>
</g>
</g>
<!-- Node6&#45;&gt;Node14 -->
<g id="edge13" class="edge">
<title>Node6&#45;&gt;Node14</title>
<path fill="none" stroke="midnightblue" d="M1596.38,-74.02C1473.59,-69.96 1211.83,-58.61 992.5,-31 983.66,-29.89 974.31,-28.41 965.27,-26.83"/>
<polygon fill="midnightblue" stroke="midnightblue" points="965.71,-23.35 955.25,-25.01 964.46,-30.24 965.71,-23.35"/>
</g>
<!-- Node15 -->
<g id="node15" class="node">
<title>Node15</title>
<g id="a_node15"><a xlink:title=" ">
<polygon fill="none" stroke="#bfbfbf" points="1001.5,-6 1001.5,-25 1155.5,-25 1155.5,-6 1001.5,-6"/>
<text text-anchor="middle" x="1078.5" y="-13" font-family="FreeSans.ttf" font-size="10.00">yarp/dev/IInteractionMode.h</text>
</a>
</g>
</g>
<!-- Node6&#45;&gt;Node15 -->
<g id="edge14" class="edge">
<title>Node6&#45;&gt;Node15</title>
<path fill="none" stroke="midnightblue" d="M1596.47,-71.45C1499.28,-64.73 1318.11,-50.8 1164.5,-31 1155.03,-29.78 1145,-28.28 1135.27,-26.71"/>
<polygon fill="midnightblue" stroke="midnightblue" points="1135.7,-23.24 1125.27,-25.06 1134.56,-30.14 1135.7,-23.24"/>
</g>
<!-- Node16 -->
<g id="node16" class="node">
<title>Node16</title>
<g id="a_node16"><a xlink:title=" ">
<polygon fill="none" stroke="#bfbfbf" points="1173.5,-6 1173.5,-25 1331.5,-25 1331.5,-6 1173.5,-6"/>
<text text-anchor="middle" x="1252.5" y="-13" font-family="FreeSans.ttf" font-size="10.00">yarp/dev/IRemoteVariables.h</text>
</a>
</g>
</g>
<!-- Node6&#45;&gt;Node16 -->
<g id="edge15" class="edge">
<title>Node6&#45;&gt;Node16</title>
<path fill="none" stroke="midnightblue" d="M1601.17,-67.49C1535.3,-58.8 1430.74,-44.66 1340.5,-31 1331.51,-29.64 1322.01,-28.14 1312.7,-26.63"/>
<polygon fill="midnightblue" stroke="midnightblue" points="1313.16,-23.16 1302.72,-25.01 1312.03,-30.07 1313.16,-23.16"/>
</g>
<!-- Node17 -->
<g id="node17" class="node">
<title>Node17</title>
<g id="a_node17"><a xlink:title=" ">
<polygon fill="none" stroke="#bfbfbf" points="1349.5,-6 1349.5,-25 1447.5,-25 1447.5,-6 1349.5,-6"/>
<text text-anchor="middle" x="1398.5" y="-13" font-family="FreeSans.ttf" font-size="10.00">yarp/sig/Vector.h</text>
</a>
</g>
</g>
<!-- Node6&#45;&gt;Node17 -->
<g id="edge16" class="edge">
<title>Node6&#45;&gt;Node17</title>
<path fill="none" stroke="midnightblue" d="M1625.18,-67.47C1582.96,-58.67 1515.55,-44.38 1457.5,-31 1452.55,-29.86 1447.38,-28.64 1442.24,-27.4"/>
<polygon fill="midnightblue" stroke="midnightblue" points="1443.01,-23.98 1432.47,-25.03 1441.36,-30.79 1443.01,-23.98"/>
</g>
<!-- Node18 -->
<g id="node18" class="node">
<title>Node18</title>
<g id="a_node18"><a xlink:title=" ">
<polygon fill="none" stroke="#bfbfbf" points="1466,-6 1466,-25 1555,-25 1555,-6 1466,-6"/>
<text text-anchor="middle" x="1510.5" y="-13" font-family="FreeSans.ttf" font-size="10.00">yarp/os/Time.h</text>
</a>
</g>
</g>
<!-- Node6&#45;&gt;Node18 -->
<g id="edge17" class="edge">
<title>Node6&#45;&gt;Node18</title>
<path fill="none" stroke="midnightblue" d="M1644.15,-67.48C1617.51,-57.31 1572.79,-40.26 1542.49,-28.7"/>
<polygon fill="midnightblue" stroke="midnightblue" points="1543.4,-25.3 1532.81,-25.01 1540.91,-31.84 1543.4,-25.3"/>
</g>
<!-- Node19 -->
<g id="node19" class="node">
<title>Node19</title>
<g id="a_node19"><a xlink:title=" ">
<polygon fill="none" stroke="#bfbfbf" points="1573.5,-6 1573.5,-25 1669.5,-25 1669.5,-6 1573.5,-6"/>
<text text-anchor="middle" x="1621.5" y="-13" font-family="FreeSans.ttf" font-size="10.00">yarp/os/Stamp.h</text>
</a>
</g>
</g>
<!-- Node6&#45;&gt;Node19 -->
<g id="edge18" class="edge">
<title>Node6&#45;&gt;Node19</title>
<path fill="none" stroke="midnightblue" d="M1660.05,-67.48C1653.3,-58.55 1642.53,-44.31 1634.09,-33.14"/>
<polygon fill="midnightblue" stroke="midnightblue" points="1636.76,-30.87 1627.94,-25.01 1631.18,-35.1 1636.76,-30.87"/>
</g>
<!-- Node20 -->
<g id="node20" class="node">
<title>Node20</title>
<g id="a_node20"><a xlink:title=" ">
<polygon fill="none" stroke="#bfbfbf" points="1688,-6 1688,-25 1735,-25 1735,-6 1688,-6"/>
<text text-anchor="middle" x="1711.5" y="-13" font-family="FreeSans.ttf" font-size="10.00">vector</text>
</a>
</g>
</g>
<!-- Node6&#45;&gt;Node20 -->
<g id="edge20" class="edge">
<title>Node6&#45;&gt;Node20</title>
<path fill="none" stroke="midnightblue" d="M1672.95,-67.48C1679.7,-58.55 1690.47,-44.31 1698.91,-33.14"/>
<polygon fill="midnightblue" stroke="midnightblue" points="1701.82,-35.1 1705.06,-25.01 1696.24,-30.87 1701.82,-35.1"/>
</g>
<!-- Node21 -->
<g id="node21" class="node">
<title>Node21</title>
<g id="a_node21"><a xlink:title=" ">
<polygon fill="none" stroke="#bfbfbf" points="2524,-6 2524,-25 2643,-25 2643,-6 2524,-6"/>
<text text-anchor="middle" x="2583.5" y="-13" font-family="FreeSans.ttf" font-size="10.00">boost/shared_ptr.hpp</text>
</a>
</g>
</g>
<!-- Node6&#45;&gt;Node21 -->
<g id="edge21" class="edge">
<title>Node6&#45;&gt;Node21</title>
<path fill="none" stroke="midnightblue" d="M1736.64,-75.92C1882.23,-74.96 2227.61,-68.53 2514.5,-31 2522.27,-29.98 2530.46,-28.57 2538.38,-27.02"/>
<polygon fill="midnightblue" stroke="midnightblue" points="2539.13,-30.44 2548.22,-25.01 2537.72,-23.58 2539.13,-30.44"/>
</g>
<!-- Node22 -->
<g id="node22" class="node">
<title>Node22</title>
<g id="a_node22"><a xlink:title=" ">
<polygon fill="none" stroke="#bfbfbf" points="2457.5,-6 2457.5,-25 2505.5,-25 2505.5,-6 2457.5,-6"/>
<text text-anchor="middle" x="2481.5" y="-13" font-family="FreeSans.ttf" font-size="10.00">mutex</text>
</a>
</g>
</g>
<!-- Node6&#45;&gt;Node22 -->
<g id="edge22" class="edge">
<title>Node6&#45;&gt;Node22</title>
<path fill="none" stroke="midnightblue" d="M1736.53,-75.15C1902.22,-72.62 2314.45,-63.2 2448.5,-31 2450.86,-30.43 2453.27,-29.7 2455.65,-28.88"/>
<polygon fill="midnightblue" stroke="midnightblue" points="2457.14,-32.05 2465.11,-25.07 2454.53,-25.55 2457.14,-32.05"/>
</g>
<!-- Node23&#45;&gt;Node4 -->
<g id="edge24" class="edge">
<title>Node23&#45;&gt;Node4</title>
<path fill="none" stroke="midnightblue" d="M251.5,-67.48C251.5,-59.08 251.5,-45.98 251.5,-35.16"/>
<polygon fill="midnightblue" stroke="midnightblue" points="255,-35.01 251.5,-25.01 248,-35.01 255,-35.01"/>
</g>
<!-- Node24 -->
<g id="node24" class="node">
<title>Node24</title>
<g id="a_node24"><a xlink:title=" ">
<polygon fill="none" stroke="#bfbfbf" points="0,-6 0,-25 47,-25 47,-6 0,-6"/>
<text text-anchor="middle" x="23.5" y="-13" font-family="FreeSans.ttf" font-size="10.00">cmath</text>
</a>
</g>
</g>
<!-- Node23&#45;&gt;Node24 -->
<g id="edge25" class="edge">
<title>Node23&#45;&gt;Node24</title>
<path fill="none" stroke="midnightblue" d="M203.13,-67.46C163.24,-59.79 105.47,-47.25 56.5,-31 54.63,-30.38 52.72,-29.69 50.81,-28.96"/>
<polygon fill="midnightblue" stroke="midnightblue" points="52,-25.67 41.42,-25.1 49.33,-32.14 52,-25.67"/>
</g>
<!-- Node25&#45;&gt;Node5 -->
<g id="edge32" class="edge">
<title>Node25&#45;&gt;Node5</title>
<path fill="none" stroke="midnightblue" d="M2399.12,-75.4C2110.41,-73.05 1145.29,-62.92 837.5,-31 827.81,-30 817.53,-28.48 807.68,-26.8"/>
<polygon fill="midnightblue" stroke="midnightblue" points="808.08,-23.31 797.62,-25 806.85,-30.2 808.08,-23.31"/>
</g>
<!-- Node25&#45;&gt;Node9 -->
<g id="edge31" class="edge">
<title>Node25&#45;&gt;Node9</title>
<path fill="none" stroke="midnightblue" d="M2466.74,-67.48C2449.84,-57.71 2421.92,-41.58 2402.01,-30.08"/>
<polygon fill="midnightblue" stroke="midnightblue" points="2403.64,-26.98 2393.23,-25.01 2400.14,-33.04 2403.64,-26.98"/>
</g>
<!-- Node25&#45;&gt;Node21 -->
<g id="edge29" class="edge">
<title>Node25&#45;&gt;Node21</title>
<path fill="none" stroke="midnightblue" d="M2496.11,-67.48C2512.85,-57.71 2540.5,-41.58 2560.22,-30.08"/>
<polygon fill="midnightblue" stroke="midnightblue" points="2562.04,-33.07 2568.91,-25.01 2558.51,-27.02 2562.04,-33.07"/>
</g>
<!-- Node25&#45;&gt;Node22 -->
<g id="edge30" class="edge">
<title>Node25&#45;&gt;Node22</title>
<path fill="none" stroke="midnightblue" d="M2481.5,-67.48C2481.5,-59.08 2481.5,-45.98 2481.5,-35.16"/>
<polygon fill="midnightblue" stroke="midnightblue" points="2485,-35.01 2481.5,-25.01 2478,-35.01 2485,-35.01"/>
</g>
<!-- Node26 -->
<g id="node26" class="node">
<title>Node26</title>
<g id="a_node26"><a xlink:title=" ">
<polygon fill="none" stroke="#bfbfbf" points="2661.5,-6 2661.5,-25 2699.5,-25 2699.5,-6 2661.5,-6"/>
<text text-anchor="middle" x="2680.5" y="-13" font-family="FreeSans.ttf" font-size="10.00">map</text>
</a>
</g>
</g>
<!-- Node25&#45;&gt;Node26 -->
<g id="edge27" class="edge">
<title>Node25&#45;&gt;Node26</title>
<path fill="none" stroke="midnightblue" d="M2524.49,-67.45C2559.57,-59.82 2610.1,-47.33 2652.5,-31 2653.71,-30.54 2654.93,-30.03 2656.15,-29.5"/>
<polygon fill="midnightblue" stroke="midnightblue" points="2657.86,-32.57 2665.38,-25.1 2654.84,-26.25 2657.86,-32.57"/>
</g>
<!-- Node27 -->
<g id="node27" class="node">
<title>Node27</title>
<g id="a_node27"><a xlink:title=" ">
<polygon fill="none" stroke="#bfbfbf" points="2718,-6 2718,-25 2811,-25 2811,-6 2718,-6"/>
<text text-anchor="middle" x="2764.5" y="-13" font-family="FreeSans.ttf" font-size="10.00">sdf/sdf_config.h</text>
</a>
</g>
</g>
<!-- Node25&#45;&gt;Node27 -->
<g id="edge28" class="edge">
<title>Node25&#45;&gt;Node27</title>
<path fill="none" stroke="midnightblue" d="M2528.62,-67.48C2574.65,-58.96 2646.61,-45.13 2708.5,-31 2713.21,-29.92 2718.12,-28.74 2723,-27.53"/>
<polygon fill="midnightblue" stroke="midnightblue" points="2724.05,-30.87 2732.89,-25.02 2722.34,-24.09 2724.05,-30.87"/>
</g>
<!-- Node28&#45;&gt;Node21 -->
<g id="edge35" class="edge">
<title>Node28&#45;&gt;Node21</title>
<path fill="none" stroke="midnightblue" d="M2662.32,-67.48C2647.43,-57.84 2622.96,-42.02 2605.23,-30.55"/>
<polygon fill="midnightblue" stroke="midnightblue" points="2606.95,-27.5 2596.66,-25.01 2603.15,-33.38 2606.95,-27.5"/>
</g>
<!-- Node28&#45;&gt;Node27 -->
<g id="edge34" class="edge">
<title>Node28&#45;&gt;Node27</title>
<path fill="none" stroke="midnightblue" d="M2688.25,-67.48C2702.53,-57.93 2725.9,-42.31 2743.01,-30.87"/>
<polygon fill="midnightblue" stroke="midnightblue" points="2745.4,-33.48 2751.77,-25.01 2741.51,-27.66 2745.4,-33.48"/>
</g>
<!-- Node29 -->
<g id="node29" class="node">
<title>Node29</title>
<g id="a_node29"><a xlink:title=" ">
<polygon fill="none" stroke="#bfbfbf" points="2829,-6 2829,-25 3000,-25 3000,-6 2829,-6"/>
<text text-anchor="middle" x="2914.5" y="-13" font-family="FreeSans.ttf" font-size="10.00">gazebo/sensors/SensorTypes.hh</text>
</a>
</g>
</g>
<!-- Node28&#45;&gt;Node29 -->
<g id="edge36" class="edge">
<title>Node28&#45;&gt;Node29</title>
<path fill="none" stroke="midnightblue" d="M2709.74,-67.48C2752.07,-56.94 2824.18,-38.99 2870.55,-27.44"/>
<polygon fill="midnightblue" stroke="midnightblue" points="2871.46,-30.82 2880.32,-25.01 2869.77,-24.03 2871.46,-30.82"/>
</g>
<!-- Node30 -->
<g id="node30" class="node">
<title>Node30</title>
<g id="a_node30"><a xlink:title=" ">
<polygon fill="none" stroke="#bfbfbf" points="3018.5,-6 3018.5,-25 3192.5,-25 3192.5,-6 3018.5,-6"/>
<text text-anchor="middle" x="3105.5" y="-13" font-family="FreeSans.ttf" font-size="10.00">gazebo/physics/PhysicsTypes.hh</text>
</a>
</g>
</g>
<!-- Node28&#45;&gt;Node30 -->
<g id="edge37" class="edge">
<title>Node28&#45;&gt;Node30</title>
<path fill="none" stroke="midnightblue" d="M2741.14,-67.47C2808.52,-58.64 2916.39,-44.3 3009.5,-31 3019.39,-29.59 3029.84,-28.05 3040.07,-26.53"/>
<polygon fill="midnightblue" stroke="midnightblue" points="3040.82,-29.95 3050.19,-25.01 3039.78,-23.03 3040.82,-29.95"/>
</g>
</g>
</svg>
