<?xml version="1.0" encoding="UTF-8" standalone="no"?>
<!DOCTYPE svg PUBLIC "-//W3C//DTD SVG 1.1//EN"
 "http://www.w3.org/Graphics/SVG/1.1/DTD/svg11.dtd">
<!-- Generated by graphviz version 2.43.0 (0)
 -->
<!-- Title: FakeControlBoardDriver.h Pages: 1 -->
<svg width="1864pt" height="95pt"
 viewBox="0.00 0.00 1864.00 95.00" xmlns="http://www.w3.org/2000/svg" xmlns:xlink="http://www.w3.org/1999/xlink">
<g id="graph0" class="graph" transform="scale(1 1) rotate(0) translate(4 91)">
<title>FakeControlBoardDriver.h</title>
<!-- Node1 -->
<g id="node1" class="node">
<title>Node1</title>
<g id="a_node1"><a xlink:title=" ">
<polygon fill="#bfbfbf" stroke="black" points="829,-67.5 829,-86.5 969,-86.5 969,-67.5 829,-67.5"/>
<text text-anchor="middle" x="899" y="-74.5" font-family="FreeSans.ttf" font-size="10.00">FakeControlBoardDriver.h</text>
</a>
</g>
</g>
<!-- Node2 -->
<g id="node2" class="node">
<title>Node2</title>
<g id="a_node2"><a xlink:href="FakeControlBoard_8cc.html" target="_top" xlink:title=" ">
<polygon fill="none" stroke="black" points="0,-6 0,-25 116,-25 116,-6 0,-6"/>
<text text-anchor="middle" x="58" y="-13" font-family="FreeSans.ttf" font-size="10.00">FakeControlBoard.cc</text>
</a>
</g>
</g>
<!-- Node1&#45;&gt;Node2 -->
<g id="edge1" class="edge">
<title>Node1&#45;&gt;Node2</title>
<path fill="none" stroke="midnightblue" d="M818.45,-75.42C677.32,-73.49 376.44,-65.31 125,-31 114.39,-29.55 102.96,-27.33 92.59,-25.06"/>
<polygon fill="midnightblue" stroke="midnightblue" points="818.7,-78.92 828.74,-75.55 818.79,-71.92 818.7,-78.92"/>
</g>
<!-- Node3 -->
<g id="node3" class="node">
<title>Node3</title>
<g id="a_node3"><a xlink:href="FakeControlBoardDriver_8cpp.html" target="_top" xlink:title=" ">
<polygon fill="none" stroke="black" points="134,-6 134,-25 286,-25 286,-6 134,-6"/>
<text text-anchor="middle" x="210" y="-13" font-family="FreeSans.ttf" font-size="10.00">FakeControlBoardDriver.cpp</text>
</a>
</g>
</g>
<!-- Node1&#45;&gt;Node3 -->
<g id="edge2" class="edge">
<title>Node1&#45;&gt;Node3</title>
<path fill="none" stroke="midnightblue" d="M818.36,-72.42C702.32,-66.72 481.68,-53.82 295,-31 282.07,-29.42 268.11,-27.24 255.32,-25.05"/>
<polygon fill="midnightblue" stroke="midnightblue" points="818.42,-75.93 828.58,-72.92 818.76,-68.94 818.42,-75.93"/>
</g>
<!-- Node4 -->
<g id="node4" class="node">
<title>Node4</title>
<g id="a_node4"><a xlink:href="FakeControlBoardDriverControl_8cpp.html" target="_top" xlink:title=" ">
<polygon fill="none" stroke="black" points="304,-6 304,-25 492,-25 492,-6 304,-6"/>
<text text-anchor="middle" x="398" y="-13" font-family="FreeSans.ttf" font-size="10.00">FakeControlBoardDriverControl.cpp</text>
</a>
</g>
</g>
<!-- Node1&#45;&gt;Node4 -->
<g id="edge3" class="edge">
<title>Node1&#45;&gt;Node4</title>
<path fill="none" stroke="midnightblue" d="M818.78,-67.58C738.34,-58.98 610.98,-44.96 501,-31 486.58,-29.17 471.04,-27.06 456.52,-25.02"/>
<polygon fill="midnightblue" stroke="midnightblue" points="818.52,-71.07 828.83,-68.65 819.26,-64.11 818.52,-71.07"/>
</g>
<!-- Node5 -->
<g id="node5" class="node">
<title>Node5</title>
<g id="a_node5"><a xlink:href="FakeControlBoardDriverControlMode_8cpp.html" target="_top" xlink:title=" ">
<polygon fill="none" stroke="black" points="510.5,-0.5 510.5,-30.5 677.5,-30.5 677.5,-0.5 510.5,-0.5"/>
<text text-anchor="start" x="518.5" y="-18.5" font-family="FreeSans.ttf" font-size="10.00">FakeControlBoardDriverControl</text>
<text text-anchor="middle" x="594" y="-7.5" font-family="FreeSans.ttf" font-size="10.00">Mode.cpp</text>
</a>
</g>
</g>
<!-- Node1&#45;&gt;Node5 -->
<g id="edge4" class="edge">
<title>Node1&#45;&gt;Node5</title>
<path fill="none" stroke="midnightblue" d="M845.36,-65.54C795.51,-55.81 720.88,-41.25 665.88,-30.52"/>
<polygon fill="midnightblue" stroke="midnightblue" points="844.82,-69 855.3,-67.48 846.16,-62.13 844.82,-69"/>
</g>
<!-- Node6 -->
<g id="node6" class="node">
<title>Node6</title>
<g id="a_node6"><a xlink:href="FakeControlBoardDriverEncoders_8cpp.html" target="_top" xlink:title=" ">
<polygon fill="none" stroke="black" points="695.5,-6 695.5,-25 892.5,-25 892.5,-6 695.5,-6"/>
<text text-anchor="middle" x="794" y="-13" font-family="FreeSans.ttf" font-size="10.00">FakeControlBoardDriverEncoders.cpp</text>
</a>
</g>
</g>
<!-- Node1&#45;&gt;Node6 -->
<g id="edge5" class="edge">
<title>Node1&#45;&gt;Node6</title>
<path fill="none" stroke="midnightblue" d="M875,-62.4C854.7,-50.9 826.24,-34.77 809.02,-25.01"/>
<polygon fill="midnightblue" stroke="midnightblue" points="873.53,-65.59 883.96,-67.48 876.98,-59.5 873.53,-65.59"/>
</g>
<!-- Node7 -->
<g id="node7" class="node">
<title>Node7</title>
<g id="a_node7"><a xlink:href="FakeControlBoardDriverImpedancePositionControl_8cpp.html" target="_top" xlink:title=" ">
<polygon fill="none" stroke="black" points="911,-0.5 911,-30.5 1097,-30.5 1097,-0.5 911,-0.5"/>
<text text-anchor="start" x="919" y="-18.5" font-family="FreeSans.ttf" font-size="10.00">FakeControlBoardDriverImpedance</text>
<text text-anchor="middle" x="1004" y="-7.5" font-family="FreeSans.ttf" font-size="10.00">PositionControl.cpp</text>
</a>
</g>
</g>
<!-- Node1&#45;&gt;Node7 -->
<g id="edge6" class="edge">
<title>Node1&#45;&gt;Node7</title>
<path fill="none" stroke="midnightblue" d="M922.75,-62.54C939.6,-52.99 962.18,-40.2 979.25,-30.52"/>
<polygon fill="midnightblue" stroke="midnightblue" points="921.02,-59.5 914.04,-67.48 924.47,-65.59 921.02,-59.5"/>
</g>
<!-- Node8 -->
<g id="node8" class="node">
<title>Node8</title>
<g id="a_node8"><a xlink:href="FakeControlBoardDriverInteractionMode_8cpp.html" target="_top" xlink:title=" ">
<polygon fill="none" stroke="black" points="1114.5,-0.5 1114.5,-30.5 1299.5,-30.5 1299.5,-0.5 1114.5,-0.5"/>
<text text-anchor="start" x="1122.5" y="-18.5" font-family="FreeSans.ttf" font-size="10.00">FakeControlBoardDriverInteraction</text>
<text text-anchor="middle" x="1207" y="-7.5" font-family="FreeSans.ttf" font-size="10.00">Mode.cpp</text>
</a>
</g>
</g>
<!-- Node1&#45;&gt;Node8 -->
<g id="edge7" class="edge">
<title>Node1&#45;&gt;Node8</title>
<path fill="none" stroke="midnightblue" d="M953.16,-65.54C1003.51,-55.81 1078.87,-41.25 1134.41,-30.52"/>
<polygon fill="midnightblue" stroke="midnightblue" points="952.28,-62.14 943.13,-67.48 953.61,-69.01 952.28,-62.14"/>
</g>
<!-- Node9 -->
<g id="node9" class="node">
<title>Node9</title>
<g id="a_node9"><a xlink:href="FakeControlBoardDriverOthers_8cpp.html" target="_top" xlink:title=" ">
<polygon fill="none" stroke="black" points="1317.5,-6 1317.5,-25 1502.5,-25 1502.5,-6 1317.5,-6"/>
<text text-anchor="middle" x="1410" y="-13" font-family="FreeSans.ttf" font-size="10.00">FakeControlBoardDriverOthers.cpp</text>
</a>
</g>
</g>
<!-- Node1&#45;&gt;Node9 -->
<g id="edge8" class="edge">
<title>Node1&#45;&gt;Node9</title>
<path fill="none" stroke="midnightblue" d="M979.18,-68C1061.89,-59.55 1194.6,-45.49 1309,-31 1323.24,-29.2 1338.57,-27.08 1352.89,-25.04"/>
<polygon fill="midnightblue" stroke="midnightblue" points="978.69,-64.53 969.09,-69.02 979.39,-71.49 978.69,-64.53"/>
</g>
<!-- Node10 -->
<g id="node10" class="node">
<title>Node10</title>
<g id="a_node10"><a xlink:href="FakeControlBoardDriverPidControl_8cpp.html" target="_top" xlink:title=" ">
<polygon fill="none" stroke="black" points="1520.5,-0.5 1520.5,-30.5 1667.5,-30.5 1667.5,-0.5 1520.5,-0.5"/>
<text text-anchor="start" x="1528.5" y="-18.5" font-family="FreeSans.ttf" font-size="10.00">FakeControlBoardDriverPid</text>
<text text-anchor="middle" x="1594" y="-7.5" font-family="FreeSans.ttf" font-size="10.00">Control.cpp</text>
</a>
</g>
</g>
<!-- Node1&#45;&gt;Node10 -->
<g id="edge9" class="edge">
<title>Node1&#45;&gt;Node10</title>
<path fill="none" stroke="midnightblue" d="M979.43,-72.71C1096.83,-67.31 1321.85,-54.73 1512,-31 1514.73,-30.66 1517.5,-30.29 1520.3,-29.9"/>
<polygon fill="midnightblue" stroke="midnightblue" points="978.93,-69.23 969.1,-73.18 979.24,-76.22 978.93,-69.23"/>
</g>
<!-- Node11 -->
<g id="node11" class="node">
<title>Node11</title>
<g id="a_node11"><a xlink:href="FakeControlBoardDriverRemoteVariables_8cpp.html" target="_top" xlink:title=" ">
<polygon fill="none" stroke="black" points="1686,-0.5 1686,-30.5 1856,-30.5 1856,-0.5 1686,-0.5"/>
<text text-anchor="start" x="1694" y="-18.5" font-family="FreeSans.ttf" font-size="10.00">FakeControlBoardDriverRemote</text>
<text text-anchor="middle" x="1771" y="-7.5" font-family="FreeSans.ttf" font-size="10.00">Variables.cpp</text>
</a>
</g>
</g>
<!-- Node1&#45;&gt;Node11 -->
<g id="edge10" class="edge">
<title>Node1&#45;&gt;Node11</title>
<path fill="none" stroke="midnightblue" d="M979.5,-73.87C1120.95,-69.57 1423.18,-57.86 1677,-31 1679.96,-30.69 1682.96,-30.35 1685.99,-29.98"/>
<polygon fill="midnightblue" stroke="midnightblue" points="979.08,-70.38 969.19,-74.18 979.29,-77.38 979.08,-70.38"/>
</g>
</g>
</svg>
