<?xml version="1.0" encoding="UTF-8" standalone="no"?>
<!DOCTYPE svg PUBLIC "-//W3C//DTD SVG 1.1//EN"
 "http://www.w3.org/Graphics/SVG/1.1/DTD/svg11.dtd">
<!-- Generated by graphviz version 2.43.0 (0)
 -->
<!-- Title: FakeControlBoardDriverImpedancePositionControl.cpp Pages: 1 -->
<svg width="2263pt" height="162pt"
 viewBox="0.00 0.00 2263.00 162.00" xmlns="http://www.w3.org/2000/svg" xmlns:xlink="http://www.w3.org/1999/xlink">
<g id="graph0" class="graph" transform="scale(1 1) rotate(0) translate(4 158)">
<title>FakeControlBoardDriverImpedancePositionControl.cpp</title>
<!-- Node1 -->
<g id="node1" class="node">
<title>Node1</title>
<g id="a_node1"><a xlink:title=" ">
<polygon fill="#bfbfbf" stroke="black" points="1240,-123.5 1240,-153.5 1426,-153.5 1426,-123.5 1240,-123.5"/>
<text text-anchor="start" x="1248" y="-141.5" font-family="FreeSans.ttf" font-size="10.00">FakeControlBoardDriverImpedance</text>
<text text-anchor="middle" x="1333" y="-130.5" font-family="FreeSans.ttf" font-size="10.00">PositionControl.cpp</text>
</a>
</g>
</g>
<!-- Node2 -->
<g id="node2" class="node">
<title>Node2</title>
<g id="a_node2"><a xlink:href="FakeControlBoardDriver_8h.html" target="_top" xlink:title=" ">
<polygon fill="none" stroke="black" points="1263,-67.5 1263,-86.5 1403,-86.5 1403,-67.5 1263,-67.5"/>
<text text-anchor="middle" x="1333" y="-74.5" font-family="FreeSans.ttf" font-size="10.00">FakeControlBoardDriver.h</text>
</a>
</g>
</g>
<!-- Node1&#45;&gt;Node2 -->
<g id="edge1" class="edge">
<title>Node1&#45;&gt;Node2</title>
<path fill="none" stroke="midnightblue" d="M1333,-123.4C1333,-115.47 1333,-105.46 1333,-96.86"/>
<polygon fill="midnightblue" stroke="midnightblue" points="1336.5,-96.66 1333,-86.66 1329.5,-96.66 1336.5,-96.66"/>
</g>
<!-- Node3 -->
<g id="node3" class="node">
<title>Node3</title>
<g id="a_node3"><a xlink:title=" ">
<polygon fill="none" stroke="#bfbfbf" points="0,-6 0,-25 104,-25 104,-6 0,-6"/>
<text text-anchor="middle" x="52" y="-13" font-family="FreeSans.ttf" font-size="10.00">yarp/os/Property.h</text>
</a>
</g>
</g>
<!-- Node2&#45;&gt;Node3 -->
<g id="edge2" class="edge">
<title>Node2&#45;&gt;Node3</title>
<path fill="none" stroke="midnightblue" d="M1262.62,-75.22C1037.62,-72.44 337.46,-61.51 113,-31 106.49,-30.11 99.65,-28.84 93.01,-27.41"/>
<polygon fill="midnightblue" stroke="midnightblue" points="93.34,-23.89 82.81,-25.07 91.77,-30.72 93.34,-23.89"/>
</g>
<!-- Node4 -->
<g id="node4" class="node">
<title>Node4</title>
<g id="a_node4"><a xlink:title=" ">
<polygon fill="none" stroke="#bfbfbf" points="122.5,-6 122.5,-25 229.5,-25 229.5,-6 122.5,-6"/>
<text text-anchor="middle" x="176" y="-13" font-family="FreeSans.ttf" font-size="10.00">yarp/dev/Drivers.h</text>
</a>
</g>
</g>
<!-- Node2&#45;&gt;Node4 -->
<g id="edge3" class="edge">
<title>Node2&#45;&gt;Node4</title>
<path fill="none" stroke="midnightblue" d="M1262.64,-74.81C1053.53,-71 437.99,-57.76 239,-31 232.12,-30.08 224.9,-28.75 217.89,-27.28"/>
<polygon fill="midnightblue" stroke="midnightblue" points="218.36,-23.8 207.84,-25.03 216.84,-30.63 218.36,-23.8"/>
</g>
<!-- Node5 -->
<g id="node5" class="node">
<title>Node5</title>
<g id="a_node5"><a xlink:title=" ">
<polygon fill="none" stroke="#bfbfbf" points="248,-6 248,-25 370,-25 370,-6 248,-6"/>
<text text-anchor="middle" x="309" y="-13" font-family="FreeSans.ttf" font-size="10.00">yarp/dev/PolyDriver.h</text>
</a>
</g>
</g>
<!-- Node2&#45;&gt;Node5 -->
<g id="edge4" class="edge">
<title>Node2&#45;&gt;Node5</title>
<path fill="none" stroke="midnightblue" d="M1262.95,-76.45C1104.72,-76.65 707.8,-72.55 379,-31 371.12,-30 362.81,-28.6 354.77,-27.06"/>
<polygon fill="midnightblue" stroke="midnightblue" points="355.28,-23.59 344.79,-25.04 353.9,-30.45 355.28,-23.59"/>
</g>
<!-- Node6 -->
<g id="node6" class="node">
<title>Node6</title>
<g id="a_node6"><a xlink:title=" ">
<polygon fill="none" stroke="#bfbfbf" points="388,-6 388,-25 522,-25 522,-6 388,-6"/>
<text text-anchor="middle" x="455" y="-13" font-family="FreeSans.ttf" font-size="10.00">yarp/dev/IPWMControl.h</text>
</a>
</g>
</g>
<!-- Node2&#45;&gt;Node6 -->
<g id="edge5" class="edge">
<title>Node2&#45;&gt;Node6</title>
<path fill="none" stroke="midnightblue" d="M1262.99,-75.19C1123.3,-72.87 800.21,-64.09 531,-31 522.28,-29.93 513.06,-28.46 504.16,-26.86"/>
<polygon fill="midnightblue" stroke="midnightblue" points="504.76,-23.42 494.29,-25.02 503.48,-30.3 504.76,-23.42"/>
</g>
<!-- Node7 -->
<g id="node7" class="node">
<title>Node7</title>
<g id="a_node7"><a xlink:title=" ">
<polygon fill="none" stroke="#bfbfbf" points="540,-6 540,-25 686,-25 686,-6 540,-6"/>
<text text-anchor="middle" x="613" y="-13" font-family="FreeSans.ttf" font-size="10.00">yarp/dev/ICurrentControl.h</text>
</a>
</g>
</g>
<!-- Node2&#45;&gt;Node7 -->
<g id="edge6" class="edge">
<title>Node2&#45;&gt;Node7</title>
<path fill="none" stroke="midnightblue" d="M1262.91,-73.46C1145.21,-68.65 900.53,-56.35 695,-31 685.73,-29.86 675.91,-28.37 666.42,-26.78"/>
<polygon fill="midnightblue" stroke="midnightblue" points="666.73,-23.28 656.28,-25.03 665.54,-30.18 666.73,-23.28"/>
</g>
<!-- Node8 -->
<g id="node8" class="node">
<title>Node8</title>
<g id="a_node8"><a xlink:title=" ">
<polygon fill="none" stroke="#bfbfbf" points="704.5,-0.5 704.5,-30.5 879.5,-30.5 879.5,-0.5 704.5,-0.5"/>
<text text-anchor="start" x="712.5" y="-18.5" font-family="FreeSans.ttf" font-size="10.00">yarp/dev/ControlBoardInterfaces</text>
<text text-anchor="middle" x="792" y="-7.5" font-family="FreeSans.ttf" font-size="10.00">Impl.h</text>
</a>
</g>
</g>
<!-- Node2&#45;&gt;Node8 -->
<g id="edge7" class="edge">
<title>Node2&#45;&gt;Node8</title>
<path fill="none" stroke="midnightblue" d="M1262.9,-69.93C1177.36,-62.29 1028.05,-48.21 889.69,-31.05"/>
<polygon fill="midnightblue" stroke="midnightblue" points="890.1,-27.57 879.74,-29.81 889.23,-34.52 890.1,-27.57"/>
</g>
<!-- Node9 -->
<g id="node9" class="node">
<title>Node9</title>
<g id="a_node9"><a xlink:title=" ">
<polygon fill="none" stroke="#bfbfbf" points="898,-6 898,-25 1082,-25 1082,-6 898,-6"/>
<text text-anchor="middle" x="990" y="-13" font-family="FreeSans.ttf" font-size="10.00">yarp/dev/ControlBoardInterfaces.h</text>
</a>
</g>
</g>
<!-- Node2&#45;&gt;Node9 -->
<g id="edge8" class="edge">
<title>Node2&#45;&gt;Node9</title>
<path fill="none" stroke="midnightblue" d="M1283.86,-67.48C1221.84,-56.72 1115.27,-38.23 1048.94,-26.72"/>
<polygon fill="midnightblue" stroke="midnightblue" points="1049.5,-23.27 1039.05,-25.01 1048.31,-30.17 1049.5,-23.27"/>
</g>
<!-- Node10 -->
<g id="node10" class="node">
<title>Node10</title>
<g id="a_node10"><a xlink:title=" ">
<polygon fill="none" stroke="#bfbfbf" points="1100.5,-6 1100.5,-25 1237.5,-25 1237.5,-6 1100.5,-6"/>
<text text-anchor="middle" x="1169" y="-13" font-family="FreeSans.ttf" font-size="10.00">yarp/dev/IControlMode.h</text>
</a>
</g>
</g>
<!-- Node2&#45;&gt;Node10 -->
<g id="edge9" class="edge">
<title>Node2&#45;&gt;Node10</title>
<path fill="none" stroke="midnightblue" d="M1309.5,-67.48C1281.37,-57.27 1234.07,-40.11 1202.21,-28.55"/>
<polygon fill="midnightblue" stroke="midnightblue" points="1203.05,-25.13 1192.45,-25.01 1200.66,-31.71 1203.05,-25.13"/>
</g>
<!-- Node11 -->
<g id="node11" class="node">
<title>Node11</title>
<g id="a_node11"><a xlink:title=" ">
<polygon fill="none" stroke="#bfbfbf" points="1256,-6 1256,-25 1410,-25 1410,-6 1256,-6"/>
<text text-anchor="middle" x="1333" y="-13" font-family="FreeSans.ttf" font-size="10.00">yarp/dev/IInteractionMode.h</text>
</a>
</g>
</g>
<!-- Node2&#45;&gt;Node11 -->
<g id="edge10" class="edge">
<title>Node2&#45;&gt;Node11</title>
<path fill="none" stroke="midnightblue" d="M1333,-67.48C1333,-59.08 1333,-45.98 1333,-35.16"/>
<polygon fill="midnightblue" stroke="midnightblue" points="1336.5,-35.01 1333,-25.01 1329.5,-35.01 1336.5,-35.01"/>
</g>
<!-- Node12 -->
<g id="node12" class="node">
<title>Node12</title>
<g id="a_node12"><a xlink:title=" ">
<polygon fill="none" stroke="#bfbfbf" points="1428,-6 1428,-25 1586,-25 1586,-6 1428,-6"/>
<text text-anchor="middle" x="1507" y="-13" font-family="FreeSans.ttf" font-size="10.00">yarp/dev/IRemoteVariables.h</text>
</a>
</g>
</g>
<!-- Node2&#45;&gt;Node12 -->
<g id="edge11" class="edge">
<title>Node2&#45;&gt;Node12</title>
<path fill="none" stroke="midnightblue" d="M1357.93,-67.48C1388.04,-57.18 1438.83,-39.81 1472.64,-28.25"/>
<polygon fill="midnightblue" stroke="midnightblue" points="1473.79,-31.56 1482.12,-25.01 1471.52,-24.93 1473.79,-31.56"/>
</g>
<!-- Node13 -->
<g id="node13" class="node">
<title>Node13</title>
<g id="a_node13"><a xlink:title=" ">
<polygon fill="none" stroke="#bfbfbf" points="1604,-6 1604,-25 1702,-25 1702,-6 1604,-6"/>
<text text-anchor="middle" x="1653" y="-13" font-family="FreeSans.ttf" font-size="10.00">yarp/sig/Vector.h</text>
</a>
</g>
</g>
<!-- Node2&#45;&gt;Node13 -->
<g id="edge12" class="edge">
<title>Node2&#45;&gt;Node13</title>
<path fill="none" stroke="midnightblue" d="M1389.96,-67.48C1443.19,-59.21 1524.77,-45.79 1595,-31 1600.08,-29.93 1605.38,-28.73 1610.63,-27.48"/>
<polygon fill="midnightblue" stroke="midnightblue" points="1611.69,-30.82 1620.58,-25.06 1610.04,-24.02 1611.69,-30.82"/>
</g>
<!-- Node14 -->
<g id="node14" class="node">
<title>Node14</title>
<g id="a_node14"><a xlink:title=" ">
<polygon fill="none" stroke="#bfbfbf" points="1720.5,-6 1720.5,-25 1809.5,-25 1809.5,-6 1720.5,-6"/>
<text text-anchor="middle" x="1765" y="-13" font-family="FreeSans.ttf" font-size="10.00">yarp/os/Time.h</text>
</a>
</g>
</g>
<!-- Node2&#45;&gt;Node14 -->
<g id="edge13" class="edge">
<title>Node2&#45;&gt;Node14</title>
<path fill="none" stroke="midnightblue" d="M1403.13,-70.69C1479.37,-64.21 1604.57,-51.51 1711,-31 1716.05,-30.03 1721.33,-28.83 1726.52,-27.55"/>
<polygon fill="midnightblue" stroke="midnightblue" points="1727.51,-30.91 1736.31,-25.02 1725.76,-24.14 1727.51,-30.91"/>
</g>
<!-- Node15 -->
<g id="node15" class="node">
<title>Node15</title>
<g id="a_node15"><a xlink:title=" ">
<polygon fill="none" stroke="#bfbfbf" points="1828,-6 1828,-25 1924,-25 1924,-6 1828,-6"/>
<text text-anchor="middle" x="1876" y="-13" font-family="FreeSans.ttf" font-size="10.00">yarp/os/Stamp.h</text>
</a>
</g>
</g>
<!-- Node2&#45;&gt;Node15 -->
<g id="edge14" class="edge">
<title>Node2&#45;&gt;Node15</title>
<path fill="none" stroke="midnightblue" d="M1403.07,-72.96C1497.93,-68.07 1672.24,-56.3 1819,-31 1824.53,-30.05 1830.32,-28.83 1836,-27.52"/>
<polygon fill="midnightblue" stroke="midnightblue" points="1837.13,-30.84 1846.02,-25.07 1835.47,-24.04 1837.13,-30.84"/>
</g>
<!-- Node16 -->
<g id="node16" class="node">
<title>Node16</title>
<g id="a_node16"><a xlink:title=" ">
<polygon fill="none" stroke="#bfbfbf" points="1942,-6 1942,-25 1986,-25 1986,-6 1942,-6"/>
<text text-anchor="middle" x="1964" y="-13" font-family="FreeSans.ttf" font-size="10.00">string</text>
</a>
</g>
</g>
<!-- Node2&#45;&gt;Node16 -->
<g id="edge15" class="edge">
<title>Node2&#45;&gt;Node16</title>
<path fill="none" stroke="midnightblue" d="M1403.23,-73.91C1539.44,-69.34 1834.73,-56.74 1933,-31 1934.98,-30.48 1936.99,-29.84 1938.99,-29.11"/>
<polygon fill="midnightblue" stroke="midnightblue" points="1940.8,-32.15 1948.64,-25.02 1938.07,-25.7 1940.8,-32.15"/>
</g>
<!-- Node17 -->
<g id="node17" class="node">
<title>Node17</title>
<g id="a_node17"><a xlink:title=" ">
<polygon fill="none" stroke="#bfbfbf" points="2004.5,-6 2004.5,-25 2051.5,-25 2051.5,-6 2004.5,-6"/>
<text text-anchor="middle" x="2028" y="-13" font-family="FreeSans.ttf" font-size="10.00">vector</text>
</a>
</g>
</g>
<!-- Node2&#45;&gt;Node17 -->
<g id="edge16" class="edge">
<title>Node2&#45;&gt;Node17</title>
<path fill="none" stroke="midnightblue" d="M1403.05,-74.29C1549.65,-70.22 1884.39,-58.18 1995,-31 1997.36,-30.42 1999.76,-29.68 2002.14,-28.85"/>
<polygon fill="midnightblue" stroke="midnightblue" points="2003.64,-32.02 2011.61,-25.04 2001.02,-25.53 2003.64,-32.02"/>
</g>
<!-- Node18 -->
<g id="node18" class="node">
<title>Node18</title>
<g id="a_node18"><a xlink:title=" ">
<polygon fill="none" stroke="#bfbfbf" points="2069.5,-6 2069.5,-25 2188.5,-25 2188.5,-6 2069.5,-6"/>
<text text-anchor="middle" x="2129" y="-13" font-family="FreeSans.ttf" font-size="10.00">boost/shared_ptr.hpp</text>
</a>
</g>
</g>
<!-- Node2&#45;&gt;Node18 -->
<g id="edge17" class="edge">
<title>Node2&#45;&gt;Node18</title>
<path fill="none" stroke="midnightblue" d="M1403.11,-75.12C1533.31,-72.71 1821.05,-63.81 2061,-31 2068.48,-29.98 2076.37,-28.59 2084.02,-27.07"/>
<polygon fill="midnightblue" stroke="midnightblue" points="2084.8,-30.48 2093.88,-25.03 2083.38,-23.63 2084.8,-30.48"/>
</g>
<!-- Node19 -->
<g id="node19" class="node">
<title>Node19</title>
<g id="a_node19"><a xlink:title=" ">
<polygon fill="none" stroke="#bfbfbf" points="2207,-6 2207,-25 2255,-25 2255,-6 2207,-6"/>
<text text-anchor="middle" x="2231" y="-13" font-family="FreeSans.ttf" font-size="10.00">mutex</text>
</a>
</g>
</g>
<!-- Node2&#45;&gt;Node19 -->
<g id="edge18" class="edge">
<title>Node2&#45;&gt;Node19</title>
<path fill="none" stroke="midnightblue" d="M1403.15,-75.6C1581.3,-74.07 2047.66,-66.67 2198,-31 2200.36,-30.44 2202.77,-29.72 2205.15,-28.89"/>
<polygon fill="midnightblue" stroke="midnightblue" points="2206.64,-32.06 2214.62,-25.09 2204.04,-25.57 2206.64,-32.06"/>
</g>
</g>
</svg>
