<?xml version="1.0" encoding="UTF-8" standalone="no"?>
<!DOCTYPE svg PUBLIC "-//W3C//DTD SVG 1.1//EN"
 "http://www.w3.org/Graphics/SVG/1.1/DTD/svg11.dtd">
<!-- Generated by graphviz version 2.43.0 (0)
 -->
<!-- Title: FakeControlBoardDriverPidControl.cpp Pages: 1 -->
<svg width="2652pt" height="162pt"
 viewBox="0.00 0.00 2651.50 162.00" xmlns="http://www.w3.org/2000/svg" xmlns:xlink="http://www.w3.org/1999/xlink">
<g id="graph0" class="graph" transform="scale(1 1) rotate(0) translate(4 158)">
<title>FakeControlBoardDriverPidControl.cpp</title>
<!-- Node1 -->
<g id="node1" class="node">
<title>Node1</title>
<g id="a_node1"><a xlink:title=" ">
<polygon fill="#bfbfbf" stroke="black" points="2242.5,-123.5 2242.5,-153.5 2389.5,-153.5 2389.5,-123.5 2242.5,-123.5"/>
<text text-anchor="start" x="2250.5" y="-141.5" font-family="FreeSans.ttf" font-size="10.00">FakeControlBoardDriverPid</text>
<text text-anchor="middle" x="2316" y="-130.5" font-family="FreeSans.ttf" font-size="10.00">Control.cpp</text>
</a>
</g>
</g>
<!-- Node2 -->
<g id="node2" class="node">
<title>Node2</title>
<g id="a_node2"><a xlink:href="FakeControlBoardDriver_8h.html" target="_top" xlink:title=" ">
<polygon fill="none" stroke="black" points="1350,-67.5 1350,-86.5 1490,-86.5 1490,-67.5 1350,-67.5"/>
<text text-anchor="middle" x="1420" y="-74.5" font-family="FreeSans.ttf" font-size="10.00">FakeControlBoardDriver.h</text>
</a>
</g>
</g>
<!-- Node1&#45;&gt;Node2 -->
<g id="edge1" class="edge">
<title>Node1&#45;&gt;Node2</title>
<path fill="none" stroke="midnightblue" d="M2242.3,-132.61C2075.97,-121.56 1672.57,-94.77 1500.23,-83.33"/>
<polygon fill="midnightblue" stroke="midnightblue" points="1500.42,-79.83 1490.21,-82.66 1499.95,-86.82 1500.42,-79.83"/>
</g>
<!-- Node20 -->
<g id="node20" class="node">
<title>Node20</title>
<g id="a_node20"><a xlink:href="common_8h.html" target="_top" xlink:title=" ">
<polygon fill="none" stroke="black" points="2151,-67.5 2151,-86.5 2315,-86.5 2315,-67.5 2151,-67.5"/>
<text text-anchor="middle" x="2233" y="-74.5" font-family="FreeSans.ttf" font-size="10.00">GazeboYarpPlugins/common.h</text>
</a>
</g>
</g>
<!-- Node1&#45;&gt;Node20 -->
<g id="edge19" class="edge">
<title>Node1&#45;&gt;Node20</title>
<path fill="none" stroke="midnightblue" d="M2296.33,-123.4C2283.4,-114.13 2266.51,-102.03 2253.43,-92.65"/>
<polygon fill="midnightblue" stroke="midnightblue" points="2255.24,-89.64 2245.08,-86.66 2251.17,-95.33 2255.24,-89.64"/>
</g>
<!-- Node22 -->
<g id="node22" class="node">
<title>Node22</title>
<g id="a_node22"><a xlink:title=" ">
<polygon fill="none" stroke="#bfbfbf" points="2333.5,-67.5 2333.5,-86.5 2464.5,-86.5 2464.5,-67.5 2333.5,-67.5"/>
<text text-anchor="middle" x="2399" y="-74.5" font-family="FreeSans.ttf" font-size="10.00">gazebo/physics/Joint.hh</text>
</a>
</g>
</g>
<!-- Node1&#45;&gt;Node22 -->
<g id="edge22" class="edge">
<title>Node1&#45;&gt;Node22</title>
<path fill="none" stroke="midnightblue" d="M2335.67,-123.4C2348.6,-114.13 2365.49,-102.03 2378.57,-92.65"/>
<polygon fill="midnightblue" stroke="midnightblue" points="2380.83,-95.33 2386.92,-86.66 2376.76,-89.64 2380.83,-95.33"/>
</g>
<!-- Node23 -->
<g id="node23" class="node">
<title>Node23</title>
<g id="a_node23"><a xlink:title=" ">
<polygon fill="none" stroke="#bfbfbf" points="2482.5,-67.5 2482.5,-86.5 2643.5,-86.5 2643.5,-67.5 2482.5,-67.5"/>
<text text-anchor="middle" x="2563" y="-74.5" font-family="FreeSans.ttf" font-size="10.00">gazebo/transport/Publisher.hh</text>
</a>
</g>
</g>
<!-- Node1&#45;&gt;Node23 -->
<g id="edge23" class="edge">
<title>Node1&#45;&gt;Node23</title>
<path fill="none" stroke="midnightblue" d="M2374.22,-123.47C2418.14,-112.9 2477.51,-98.59 2517.86,-88.87"/>
<polygon fill="midnightblue" stroke="midnightblue" points="2518.79,-92.25 2527.69,-86.51 2517.15,-85.45 2518.79,-92.25"/>
</g>
<!-- Node3 -->
<g id="node3" class="node">
<title>Node3</title>
<g id="a_node3"><a xlink:title=" ">
<polygon fill="none" stroke="#bfbfbf" points="0,-6 0,-25 104,-25 104,-6 0,-6"/>
<text text-anchor="middle" x="52" y="-13" font-family="FreeSans.ttf" font-size="10.00">yarp/os/Property.h</text>
</a>
</g>
</g>
<!-- Node2&#45;&gt;Node3 -->
<g id="edge2" class="edge">
<title>Node2&#45;&gt;Node3</title>
<path fill="none" stroke="midnightblue" d="M1349.6,-75.42C1114.12,-73.2 355.17,-63.62 113,-31 106.26,-30.09 99.17,-28.76 92.32,-27.27"/>
<polygon fill="midnightblue" stroke="midnightblue" points="93.03,-23.85 82.5,-25.01 91.45,-30.67 93.03,-23.85"/>
</g>
<!-- Node4 -->
<g id="node4" class="node">
<title>Node4</title>
<g id="a_node4"><a xlink:title=" ">
<polygon fill="none" stroke="#bfbfbf" points="122.5,-6 122.5,-25 229.5,-25 229.5,-6 122.5,-6"/>
<text text-anchor="middle" x="176" y="-13" font-family="FreeSans.ttf" font-size="10.00">yarp/dev/Drivers.h</text>
</a>
</g>
</g>
<!-- Node2&#45;&gt;Node4 -->
<g id="edge3" class="edge">
<title>Node2&#45;&gt;Node4</title>
<path fill="none" stroke="midnightblue" d="M1349.95,-75.06C1130.14,-71.84 455.74,-59.81 239,-31 232.12,-30.09 224.89,-28.77 217.88,-27.29"/>
<polygon fill="midnightblue" stroke="midnightblue" points="218.36,-23.81 207.84,-25.05 216.83,-30.65 218.36,-23.81"/>
</g>
<!-- Node5 -->
<g id="node5" class="node">
<title>Node5</title>
<g id="a_node5"><a xlink:title=" ">
<polygon fill="none" stroke="#bfbfbf" points="248,-6 248,-25 370,-25 370,-6 248,-6"/>
<text text-anchor="middle" x="309" y="-13" font-family="FreeSans.ttf" font-size="10.00">yarp/dev/PolyDriver.h</text>
</a>
</g>
</g>
<!-- Node2&#45;&gt;Node5 -->
<g id="edge4" class="edge">
<title>Node2&#45;&gt;Node5</title>
<path fill="none" stroke="midnightblue" d="M1349.86,-74.44C1147.93,-69.72 567.6,-54.46 379,-31 371.12,-30.02 362.81,-28.62 354.77,-27.08"/>
<polygon fill="midnightblue" stroke="midnightblue" points="355.28,-23.61 344.79,-25.07 353.9,-30.48 355.28,-23.61"/>
</g>
<!-- Node6 -->
<g id="node6" class="node">
<title>Node6</title>
<g id="a_node6"><a xlink:title=" ">
<polygon fill="none" stroke="#bfbfbf" points="388,-6 388,-25 522,-25 522,-6 388,-6"/>
<text text-anchor="middle" x="455" y="-13" font-family="FreeSans.ttf" font-size="10.00">yarp/dev/IPWMControl.h</text>
</a>
</g>
</g>
<!-- Node2&#45;&gt;Node6 -->
<g id="edge5" class="edge">
<title>Node2&#45;&gt;Node6</title>
<path fill="none" stroke="midnightblue" d="M1349.99,-75.73C1199.54,-74.44 834.42,-67.45 531,-31 522.28,-29.95 513.05,-28.49 504.15,-26.9"/>
<polygon fill="midnightblue" stroke="midnightblue" points="504.76,-23.46 494.28,-25.06 503.47,-30.34 504.76,-23.46"/>
</g>
<!-- Node7 -->
<g id="node7" class="node">
<title>Node7</title>
<g id="a_node7"><a xlink:title=" ">
<polygon fill="none" stroke="#bfbfbf" points="540,-6 540,-25 686,-25 686,-6 540,-6"/>
<text text-anchor="middle" x="613" y="-13" font-family="FreeSans.ttf" font-size="10.00">yarp/dev/ICurrentControl.h</text>
</a>
</g>
</g>
<!-- Node2&#45;&gt;Node7 -->
<g id="edge6" class="edge">
<title>Node2&#45;&gt;Node7</title>
<path fill="none" stroke="midnightblue" d="M1349.78,-74.28C1220.03,-70.51 934.18,-59.48 695,-31 685.52,-29.87 675.47,-28.36 665.78,-26.74"/>
<polygon fill="midnightblue" stroke="midnightblue" points="666.3,-23.28 655.85,-25.02 665.1,-30.17 666.3,-23.28"/>
</g>
<!-- Node8 -->
<g id="node8" class="node">
<title>Node8</title>
<g id="a_node8"><a xlink:title=" ">
<polygon fill="none" stroke="#bfbfbf" points="704.5,-0.5 704.5,-30.5 879.5,-30.5 879.5,-0.5 704.5,-0.5"/>
<text text-anchor="start" x="712.5" y="-18.5" font-family="FreeSans.ttf" font-size="10.00">yarp/dev/ControlBoardInterfaces</text>
<text text-anchor="middle" x="792" y="-7.5" font-family="FreeSans.ttf" font-size="10.00">Impl.h</text>
</a>
</g>
</g>
<!-- Node2&#45;&gt;Node8 -->
<g id="edge7" class="edge">
<title>Node2&#45;&gt;Node8</title>
<path fill="none" stroke="midnightblue" d="M1349.85,-71.49C1250.04,-64.75 1061.08,-50.81 889.7,-31.03"/>
<polygon fill="midnightblue" stroke="midnightblue" points="890.07,-27.55 879.74,-29.87 889.26,-34.5 890.07,-27.55"/>
</g>
<!-- Node9 -->
<g id="node9" class="node">
<title>Node9</title>
<g id="a_node9"><a xlink:title=" ">
<polygon fill="none" stroke="#bfbfbf" points="898,-6 898,-25 1082,-25 1082,-6 898,-6"/>
<text text-anchor="middle" x="990" y="-13" font-family="FreeSans.ttf" font-size="10.00">yarp/dev/ControlBoardInterfaces.h</text>
</a>
</g>
</g>
<!-- Node2&#45;&gt;Node9 -->
<g id="edge8" class="edge">
<title>Node2&#45;&gt;Node9</title>
<path fill="none" stroke="midnightblue" d="M1356.91,-67.5C1290.67,-58.54 1183.49,-43.96 1091,-31 1080.63,-29.55 1069.66,-27.99 1058.93,-26.46"/>
<polygon fill="midnightblue" stroke="midnightblue" points="1059.13,-22.95 1048.74,-25 1058.14,-29.88 1059.13,-22.95"/>
</g>
<!-- Node10 -->
<g id="node10" class="node">
<title>Node10</title>
<g id="a_node10"><a xlink:title=" ">
<polygon fill="none" stroke="#bfbfbf" points="1100.5,-6 1100.5,-25 1237.5,-25 1237.5,-6 1100.5,-6"/>
<text text-anchor="middle" x="1169" y="-13" font-family="FreeSans.ttf" font-size="10.00">yarp/dev/IControlMode.h</text>
</a>
</g>
</g>
<!-- Node2&#45;&gt;Node10 -->
<g id="edge9" class="edge">
<title>Node2&#45;&gt;Node10</title>
<path fill="none" stroke="midnightblue" d="M1384.04,-67.48C1339.49,-56.92 1263.54,-38.91 1214.85,-27.37"/>
<polygon fill="midnightblue" stroke="midnightblue" points="1215.43,-23.91 1204.9,-25.01 1213.82,-30.72 1215.43,-23.91"/>
</g>
<!-- Node11 -->
<g id="node11" class="node">
<title>Node11</title>
<g id="a_node11"><a xlink:title=" ">
<polygon fill="none" stroke="#bfbfbf" points="1256,-6 1256,-25 1410,-25 1410,-6 1256,-6"/>
<text text-anchor="middle" x="1333" y="-13" font-family="FreeSans.ttf" font-size="10.00">yarp/dev/IInteractionMode.h</text>
</a>
</g>
</g>
<!-- Node2&#45;&gt;Node11 -->
<g id="edge10" class="edge">
<title>Node2&#45;&gt;Node11</title>
<path fill="none" stroke="midnightblue" d="M1407.54,-67.48C1393.58,-57.93 1370.74,-42.31 1354.01,-30.87"/>
<polygon fill="midnightblue" stroke="midnightblue" points="1355.67,-27.77 1345.44,-25.01 1351.72,-33.54 1355.67,-27.77"/>
</g>
<!-- Node12 -->
<g id="node12" class="node">
<title>Node12</title>
<g id="a_node12"><a xlink:title=" ">
<polygon fill="none" stroke="#bfbfbf" points="1428,-6 1428,-25 1586,-25 1586,-6 1428,-6"/>
<text text-anchor="middle" x="1507" y="-13" font-family="FreeSans.ttf" font-size="10.00">yarp/dev/IRemoteVariables.h</text>
</a>
</g>
</g>
<!-- Node2&#45;&gt;Node12 -->
<g id="edge11" class="edge">
<title>Node2&#45;&gt;Node12</title>
<path fill="none" stroke="midnightblue" d="M1432.46,-67.48C1446.42,-57.93 1469.26,-42.31 1485.99,-30.87"/>
<polygon fill="midnightblue" stroke="midnightblue" points="1488.28,-33.54 1494.56,-25.01 1484.33,-27.77 1488.28,-33.54"/>
</g>
<!-- Node13 -->
<g id="node13" class="node">
<title>Node13</title>
<g id="a_node13"><a xlink:title=" ">
<polygon fill="none" stroke="#bfbfbf" points="1604,-6 1604,-25 1702,-25 1702,-6 1604,-6"/>
<text text-anchor="middle" x="1653" y="-13" font-family="FreeSans.ttf" font-size="10.00">yarp/sig/Vector.h</text>
</a>
</g>
</g>
<!-- Node2&#45;&gt;Node13 -->
<g id="edge12" class="edge">
<title>Node2&#45;&gt;Node13</title>
<path fill="none" stroke="midnightblue" d="M1453.38,-67.48C1494.56,-56.96 1564.65,-39.06 1609.87,-27.51"/>
<polygon fill="midnightblue" stroke="midnightblue" points="1610.86,-30.87 1619.68,-25.01 1609.12,-24.09 1610.86,-30.87"/>
</g>
<!-- Node14 -->
<g id="node14" class="node">
<title>Node14</title>
<g id="a_node14"><a xlink:title=" ">
<polygon fill="none" stroke="#bfbfbf" points="1720.5,-6 1720.5,-25 1809.5,-25 1809.5,-6 1720.5,-6"/>
<text text-anchor="middle" x="1765" y="-13" font-family="FreeSans.ttf" font-size="10.00">yarp/os/Time.h</text>
</a>
</g>
</g>
<!-- Node2&#45;&gt;Node14 -->
<g id="edge13" class="edge">
<title>Node2&#45;&gt;Node14</title>
<path fill="none" stroke="midnightblue" d="M1489.17,-67.46C1548.38,-59.64 1635.72,-46.88 1711,-31 1715.74,-30 1720.68,-28.84 1725.56,-27.62"/>
<polygon fill="midnightblue" stroke="midnightblue" points="1726.63,-30.96 1735.43,-25.06 1724.87,-24.18 1726.63,-30.96"/>
</g>
<!-- Node15 -->
<g id="node15" class="node">
<title>Node15</title>
<g id="a_node15"><a xlink:title=" ">
<polygon fill="none" stroke="#bfbfbf" points="1828,-6 1828,-25 1924,-25 1924,-6 1828,-6"/>
<text text-anchor="middle" x="1876" y="-13" font-family="FreeSans.ttf" font-size="10.00">yarp/os/Stamp.h</text>
</a>
</g>
</g>
<!-- Node2&#45;&gt;Node15 -->
<g id="edge14" class="edge">
<title>Node2&#45;&gt;Node15</title>
<path fill="none" stroke="midnightblue" d="M1490.15,-70.89C1569.98,-64.43 1704.07,-51.59 1818,-31 1823.55,-30 1829.36,-28.76 1835.07,-27.45"/>
<polygon fill="midnightblue" stroke="midnightblue" points="1836.26,-30.76 1845.16,-25.01 1834.62,-23.96 1836.26,-30.76"/>
</g>
<!-- Node16 -->
<g id="node16" class="node">
<title>Node16</title>
<g id="a_node16"><a xlink:title=" ">
<polygon fill="none" stroke="#bfbfbf" points="2211,-6 2211,-25 2255,-25 2255,-6 2211,-6"/>
<text text-anchor="middle" x="2233" y="-13" font-family="FreeSans.ttf" font-size="10.00">string</text>
</a>
</g>
</g>
<!-- Node2&#45;&gt;Node16 -->
<g id="edge15" class="edge">
<title>Node2&#45;&gt;Node16</title>
<path fill="none" stroke="midnightblue" d="M1490.08,-75.35C1655.89,-73.28 2068.34,-64.77 2202,-31 2203.99,-30.5 2206,-29.87 2208,-29.15"/>
<polygon fill="midnightblue" stroke="midnightblue" points="2209.8,-32.19 2217.66,-25.08 2207.08,-25.74 2209.8,-32.19"/>
</g>
<!-- Node17 -->
<g id="node17" class="node">
<title>Node17</title>
<g id="a_node17"><a xlink:title=" ">
<polygon fill="none" stroke="#bfbfbf" points="1942.5,-6 1942.5,-25 1989.5,-25 1989.5,-6 1942.5,-6"/>
<text text-anchor="middle" x="1966" y="-13" font-family="FreeSans.ttf" font-size="10.00">vector</text>
</a>
</g>
</g>
<!-- Node2&#45;&gt;Node17 -->
<g id="edge16" class="edge">
<title>Node2&#45;&gt;Node17</title>
<path fill="none" stroke="midnightblue" d="M1490.21,-72.67C1610.54,-66.5 1851.15,-51.96 1933,-31 1935.3,-30.41 1937.65,-29.68 1939.97,-28.85"/>
<polygon fill="midnightblue" stroke="midnightblue" points="1941.28,-32.1 1949.25,-25.12 1938.67,-25.61 1941.28,-32.1"/>
</g>
<!-- Node18 -->
<g id="node18" class="node">
<title>Node18</title>
<g id="a_node18"><a xlink:title=" ">
<polygon fill="none" stroke="#bfbfbf" points="2007.5,-6 2007.5,-25 2126.5,-25 2126.5,-6 2007.5,-6"/>
<text text-anchor="middle" x="2067" y="-13" font-family="FreeSans.ttf" font-size="10.00">boost/shared_ptr.hpp</text>
</a>
</g>
</g>
<!-- Node2&#45;&gt;Node18 -->
<g id="edge17" class="edge">
<title>Node2&#45;&gt;Node18</title>
<path fill="none" stroke="midnightblue" d="M1490.16,-73.47C1599.25,-68.87 1815.92,-57.11 1998,-31 2005.41,-29.94 2013.23,-28.55 2020.82,-27.06"/>
<polygon fill="midnightblue" stroke="midnightblue" points="2021.53,-30.49 2030.63,-25.06 2020.13,-23.63 2021.53,-30.49"/>
</g>
<!-- Node19 -->
<g id="node19" class="node">
<title>Node19</title>
<g id="a_node19"><a xlink:title=" ">
<polygon fill="none" stroke="#bfbfbf" points="2145,-6 2145,-25 2193,-25 2193,-6 2145,-6"/>
<text text-anchor="middle" x="2169" y="-13" font-family="FreeSans.ttf" font-size="10.00">mutex</text>
</a>
</g>
</g>
<!-- Node2&#45;&gt;Node19 -->
<g id="edge18" class="edge">
<title>Node2&#45;&gt;Node19</title>
<path fill="none" stroke="midnightblue" d="M1490.01,-74.61C1645.19,-71.04 2013.91,-59.73 2135,-31 2137.51,-30.4 2140.08,-29.64 2142.61,-28.77"/>
<polygon fill="midnightblue" stroke="midnightblue" points="2144.06,-31.96 2152.09,-25.05 2141.5,-25.44 2144.06,-31.96"/>
</g>
<!-- Node20&#45;&gt;Node16 -->
<g id="edge20" class="edge">
<title>Node20&#45;&gt;Node16</title>
<path fill="none" stroke="midnightblue" d="M2233,-67.48C2233,-59.08 2233,-45.98 2233,-35.16"/>
<polygon fill="midnightblue" stroke="midnightblue" points="2236.5,-35.01 2233,-25.01 2229.5,-35.01 2236.5,-35.01"/>
</g>
<!-- Node21 -->
<g id="node21" class="node">
<title>Node21</title>
<g id="a_node21"><a xlink:title=" ">
<polygon fill="none" stroke="#bfbfbf" points="2273.5,-6 2273.5,-25 2320.5,-25 2320.5,-6 2273.5,-6"/>
<text text-anchor="middle" x="2297" y="-13" font-family="FreeSans.ttf" font-size="10.00">cmath</text>
</a>
</g>
</g>
<!-- Node20&#45;&gt;Node21 -->
<g id="edge21" class="edge">
<title>Node20&#45;&gt;Node21</title>
<path fill="none" stroke="midnightblue" d="M2242.17,-67.48C2252.15,-58.2 2268.31,-43.17 2280.51,-31.83"/>
<polygon fill="midnightblue" stroke="midnightblue" points="2282.91,-34.38 2287.85,-25.01 2278.14,-29.25 2282.91,-34.38"/>
</g>
</g>
</svg>
