<?xml version="1.0" encoding="UTF-8" standalone="no"?>
<!DOCTYPE svg PUBLIC "-//W3C//DTD SVG 1.1//EN"
 "http://www.w3.org/Graphics/SVG/1.1/DTD/svg11.dtd">
<!-- Generated by graphviz version 2.43.0 (0)
 -->
<!-- Title: FakeControlBoardDriverInteractionMode.cpp Pages: 1 -->
<svg width="2263pt" height="162pt"
 viewBox="0.00 0.00 2263.00 162.00" xmlns="http://www.w3.org/2000/svg" xmlns:xlink="http://www.w3.org/1999/xlink">
<g id="graph0" class="graph" transform="scale(1 1) rotate(0) translate(4 158)">
<title>FakeControlBoardDriverInteractionMode.cpp</title>
<!-- Node1 -->
<g id="node1" class="node">
<title>Node1</title>
<g id="a_node1"><a xlink:title=" ">
<polygon fill="#bfbfbf" stroke="black" points="1552.5,-123.5 1552.5,-153.5 1737.5,-153.5 1737.5,-123.5 1552.5,-123.5"/>
<text text-anchor="start" x="1560.5" y="-141.5" font-family="FreeSans.ttf" font-size="10.00">FakeControlBoardDriverInteraction</text>
<text text-anchor="middle" x="1645" y="-130.5" font-family="FreeSans.ttf" font-size="10.00">Mode.cpp</text>
</a>
</g>
</g>
<!-- Node2 -->
<g id="node2" class="node">
<title>Node2</title>
<g id="a_node2"><a xlink:href="FakeControlBoardDriver_8h.html" target="_top" xlink:title=" ">
<polygon fill="none" stroke="black" points="1263,-67.5 1263,-86.5 1403,-86.5 1403,-67.5 1263,-67.5"/>
<text text-anchor="middle" x="1333" y="-74.5" font-family="FreeSans.ttf" font-size="10.00">FakeControlBoardDriver.h</text>
</a>
</g>
</g>
<!-- Node1&#45;&gt;Node2 -->
<g id="edge1" class="edge">
<title>Node1&#45;&gt;Node2</title>
<path fill="none" stroke="midnightblue" d="M1571.46,-123.47C1515.04,-112.72 1438.44,-98.11 1387.45,-88.38"/>
<polygon fill="midnightblue" stroke="midnightblue" points="1388.08,-84.94 1377.6,-86.51 1386.77,-91.82 1388.08,-84.94"/>
</g>
<!-- Node20 -->
<g id="node20" class="node">
<title>Node20</title>
<g id="a_node20"><a xlink:title=" ">
<polygon fill="none" stroke="#bfbfbf" points="1421,-67.5 1421,-86.5 1561,-86.5 1561,-67.5 1421,-67.5"/>
<text text-anchor="middle" x="1491" y="-74.5" font-family="FreeSans.ttf" font-size="10.00">gazebo/physics/Model.hh</text>
</a>
</g>
</g>
<!-- Node1&#45;&gt;Node20 -->
<g id="edge19" class="edge">
<title>Node1&#45;&gt;Node20</title>
<path fill="none" stroke="midnightblue" d="M1608.5,-123.4C1582.43,-113.33 1547.71,-99.91 1522.78,-90.28"/>
<polygon fill="midnightblue" stroke="midnightblue" points="1524,-87 1513.41,-86.66 1521.47,-93.53 1524,-87"/>
</g>
<!-- Node21 -->
<g id="node21" class="node">
<title>Node21</title>
<g id="a_node21"><a xlink:title=" ">
<polygon fill="none" stroke="#bfbfbf" points="1579.5,-67.5 1579.5,-86.5 1710.5,-86.5 1710.5,-67.5 1579.5,-67.5"/>
<text text-anchor="middle" x="1645" y="-74.5" font-family="FreeSans.ttf" font-size="10.00">gazebo/physics/Joint.hh</text>
</a>
</g>
</g>
<!-- Node1&#45;&gt;Node21 -->
<g id="edge20" class="edge">
<title>Node1&#45;&gt;Node21</title>
<path fill="none" stroke="midnightblue" d="M1645,-123.4C1645,-115.47 1645,-105.46 1645,-96.86"/>
<polygon fill="midnightblue" stroke="midnightblue" points="1648.5,-96.66 1645,-86.66 1641.5,-96.66 1648.5,-96.66"/>
</g>
<!-- Node22 -->
<g id="node22" class="node">
<title>Node22</title>
<g id="a_node22"><a xlink:title=" ">
<polygon fill="none" stroke="#bfbfbf" points="1728.5,-67.5 1728.5,-86.5 1889.5,-86.5 1889.5,-67.5 1728.5,-67.5"/>
<text text-anchor="middle" x="1809" y="-74.5" font-family="FreeSans.ttf" font-size="10.00">gazebo/transport/Publisher.hh</text>
</a>
</g>
</g>
<!-- Node1&#45;&gt;Node22 -->
<g id="edge21" class="edge">
<title>Node1&#45;&gt;Node22</title>
<path fill="none" stroke="midnightblue" d="M1683.87,-123.4C1711.75,-113.28 1748.94,-99.79 1775.51,-90.15"/>
<polygon fill="midnightblue" stroke="midnightblue" points="1776.93,-93.36 1785.14,-86.66 1774.54,-86.78 1776.93,-93.36"/>
</g>
<!-- Node23 -->
<g id="node23" class="node">
<title>Node23</title>
<g id="a_node23"><a xlink:title=" ">
<polygon fill="none" stroke="#bfbfbf" points="1907.5,-67.5 1907.5,-86.5 2024.5,-86.5 2024.5,-67.5 1907.5,-67.5"/>
<text text-anchor="middle" x="1966" y="-74.5" font-family="FreeSans.ttf" font-size="10.00">yarp/os/LogStream.h</text>
</a>
</g>
</g>
<!-- Node1&#45;&gt;Node23 -->
<g id="edge22" class="edge">
<title>Node1&#45;&gt;Node23</title>
<path fill="none" stroke="midnightblue" d="M1720.67,-123.47C1778.71,-112.72 1857.51,-98.11 1909.98,-88.38"/>
<polygon fill="midnightblue" stroke="midnightblue" points="1910.91,-91.77 1920.11,-86.51 1909.64,-84.89 1910.91,-91.77"/>
</g>
<!-- Node3 -->
<g id="node3" class="node">
<title>Node3</title>
<g id="a_node3"><a xlink:title=" ">
<polygon fill="none" stroke="#bfbfbf" points="0,-6 0,-25 104,-25 104,-6 0,-6"/>
<text text-anchor="middle" x="52" y="-13" font-family="FreeSans.ttf" font-size="10.00">yarp/os/Property.h</text>
</a>
</g>
</g>
<!-- Node2&#45;&gt;Node3 -->
<g id="edge2" class="edge">
<title>Node2&#45;&gt;Node3</title>
<path fill="none" stroke="midnightblue" d="M1262.62,-75.22C1037.62,-72.44 337.46,-61.51 113,-31 106.49,-30.11 99.65,-28.84 93.01,-27.41"/>
<polygon fill="midnightblue" stroke="midnightblue" points="93.34,-23.89 82.81,-25.07 91.77,-30.72 93.34,-23.89"/>
</g>
<!-- Node4 -->
<g id="node4" class="node">
<title>Node4</title>
<g id="a_node4"><a xlink:title=" ">
<polygon fill="none" stroke="#bfbfbf" points="122.5,-6 122.5,-25 229.5,-25 229.5,-6 122.5,-6"/>
<text text-anchor="middle" x="176" y="-13" font-family="FreeSans.ttf" font-size="10.00">yarp/dev/Drivers.h</text>
</a>
</g>
</g>
<!-- Node2&#45;&gt;Node4 -->
<g id="edge3" class="edge">
<title>Node2&#45;&gt;Node4</title>
<path fill="none" stroke="midnightblue" d="M1262.64,-74.81C1053.53,-71 437.99,-57.76 239,-31 232.12,-30.08 224.9,-28.75 217.89,-27.28"/>
<polygon fill="midnightblue" stroke="midnightblue" points="218.36,-23.8 207.84,-25.03 216.84,-30.63 218.36,-23.8"/>
</g>
<!-- Node5 -->
<g id="node5" class="node">
<title>Node5</title>
<g id="a_node5"><a xlink:title=" ">
<polygon fill="none" stroke="#bfbfbf" points="248,-6 248,-25 370,-25 370,-6 248,-6"/>
<text text-anchor="middle" x="309" y="-13" font-family="FreeSans.ttf" font-size="10.00">yarp/dev/PolyDriver.h</text>
</a>
</g>
</g>
<!-- Node2&#45;&gt;Node5 -->
<g id="edge4" class="edge">
<title>Node2&#45;&gt;Node5</title>
<path fill="none" stroke="midnightblue" d="M1262.95,-76.45C1104.72,-76.65 707.8,-72.55 379,-31 371.12,-30 362.81,-28.6 354.77,-27.06"/>
<polygon fill="midnightblue" stroke="midnightblue" points="355.28,-23.59 344.79,-25.04 353.9,-30.45 355.28,-23.59"/>
</g>
<!-- Node6 -->
<g id="node6" class="node">
<title>Node6</title>
<g id="a_node6"><a xlink:title=" ">
<polygon fill="none" stroke="#bfbfbf" points="388,-6 388,-25 522,-25 522,-6 388,-6"/>
<text text-anchor="middle" x="455" y="-13" font-family="FreeSans.ttf" font-size="10.00">yarp/dev/IPWMControl.h</text>
</a>
</g>
</g>
<!-- Node2&#45;&gt;Node6 -->
<g id="edge5" class="edge">
<title>Node2&#45;&gt;Node6</title>
<path fill="none" stroke="midnightblue" d="M1262.99,-75.19C1123.3,-72.87 800.21,-64.09 531,-31 522.28,-29.93 513.06,-28.46 504.16,-26.86"/>
<polygon fill="midnightblue" stroke="midnightblue" points="504.76,-23.42 494.29,-25.02 503.48,-30.3 504.76,-23.42"/>
</g>
<!-- Node7 -->
<g id="node7" class="node">
<title>Node7</title>
<g id="a_node7"><a xlink:title=" ">
<polygon fill="none" stroke="#bfbfbf" points="540,-6 540,-25 686,-25 686,-6 540,-6"/>
<text text-anchor="middle" x="613" y="-13" font-family="FreeSans.ttf" font-size="10.00">yarp/dev/ICurrentControl.h</text>
</a>
</g>
</g>
<!-- Node2&#45;&gt;Node7 -->
<g id="edge6" class="edge">
<title>Node2&#45;&gt;Node7</title>
<path fill="none" stroke="midnightblue" d="M1262.91,-73.46C1145.21,-68.65 900.53,-56.35 695,-31 685.73,-29.86 675.91,-28.37 666.42,-26.78"/>
<polygon fill="midnightblue" stroke="midnightblue" points="666.73,-23.28 656.28,-25.03 665.54,-30.18 666.73,-23.28"/>
</g>
<!-- Node8 -->
<g id="node8" class="node">
<title>Node8</title>
<g id="a_node8"><a xlink:title=" ">
<polygon fill="none" stroke="#bfbfbf" points="704.5,-0.5 704.5,-30.5 879.5,-30.5 879.5,-0.5 704.5,-0.5"/>
<text text-anchor="start" x="712.5" y="-18.5" font-family="FreeSans.ttf" font-size="10.00">yarp/dev/ControlBoardInterfaces</text>
<text text-anchor="middle" x="792" y="-7.5" font-family="FreeSans.ttf" font-size="10.00">Impl.h</text>
</a>
</g>
</g>
<!-- Node2&#45;&gt;Node8 -->
<g id="edge7" class="edge">
<title>Node2&#45;&gt;Node8</title>
<path fill="none" stroke="midnightblue" d="M1262.9,-69.93C1177.36,-62.29 1028.05,-48.21 889.69,-31.05"/>
<polygon fill="midnightblue" stroke="midnightblue" points="890.1,-27.57 879.74,-29.81 889.23,-34.52 890.1,-27.57"/>
</g>
<!-- Node9 -->
<g id="node9" class="node">
<title>Node9</title>
<g id="a_node9"><a xlink:title=" ">
<polygon fill="none" stroke="#bfbfbf" points="898,-6 898,-25 1082,-25 1082,-6 898,-6"/>
<text text-anchor="middle" x="990" y="-13" font-family="FreeSans.ttf" font-size="10.00">yarp/dev/ControlBoardInterfaces.h</text>
</a>
</g>
</g>
<!-- Node2&#45;&gt;Node9 -->
<g id="edge8" class="edge">
<title>Node2&#45;&gt;Node9</title>
<path fill="none" stroke="midnightblue" d="M1283.86,-67.48C1221.84,-56.72 1115.27,-38.23 1048.94,-26.72"/>
<polygon fill="midnightblue" stroke="midnightblue" points="1049.5,-23.27 1039.05,-25.01 1048.31,-30.17 1049.5,-23.27"/>
</g>
<!-- Node10 -->
<g id="node10" class="node">
<title>Node10</title>
<g id="a_node10"><a xlink:title=" ">
<polygon fill="none" stroke="#bfbfbf" points="1100.5,-6 1100.5,-25 1237.5,-25 1237.5,-6 1100.5,-6"/>
<text text-anchor="middle" x="1169" y="-13" font-family="FreeSans.ttf" font-size="10.00">yarp/dev/IControlMode.h</text>
</a>
</g>
</g>
<!-- Node2&#45;&gt;Node10 -->
<g id="edge9" class="edge">
<title>Node2&#45;&gt;Node10</title>
<path fill="none" stroke="midnightblue" d="M1309.5,-67.48C1281.37,-57.27 1234.07,-40.11 1202.21,-28.55"/>
<polygon fill="midnightblue" stroke="midnightblue" points="1203.05,-25.13 1192.45,-25.01 1200.66,-31.71 1203.05,-25.13"/>
</g>
<!-- Node11 -->
<g id="node11" class="node">
<title>Node11</title>
<g id="a_node11"><a xlink:title=" ">
<polygon fill="none" stroke="#bfbfbf" points="1256,-6 1256,-25 1410,-25 1410,-6 1256,-6"/>
<text text-anchor="middle" x="1333" y="-13" font-family="FreeSans.ttf" font-size="10.00">yarp/dev/IInteractionMode.h</text>
</a>
</g>
</g>
<!-- Node2&#45;&gt;Node11 -->
<g id="edge10" class="edge">
<title>Node2&#45;&gt;Node11</title>
<path fill="none" stroke="midnightblue" d="M1333,-67.48C1333,-59.08 1333,-45.98 1333,-35.16"/>
<polygon fill="midnightblue" stroke="midnightblue" points="1336.5,-35.01 1333,-25.01 1329.5,-35.01 1336.5,-35.01"/>
</g>
<!-- Node12 -->
<g id="node12" class="node">
<title>Node12</title>
<g id="a_node12"><a xlink:title=" ">
<polygon fill="none" stroke="#bfbfbf" points="1428,-6 1428,-25 1586,-25 1586,-6 1428,-6"/>
<text text-anchor="middle" x="1507" y="-13" font-family="FreeSans.ttf" font-size="10.00">yarp/dev/IRemoteVariables.h</text>
</a>
</g>
</g>
<!-- Node2&#45;&gt;Node12 -->
<g id="edge11" class="edge">
<title>Node2&#45;&gt;Node12</title>
<path fill="none" stroke="midnightblue" d="M1357.93,-67.48C1388.04,-57.18 1438.83,-39.81 1472.64,-28.25"/>
<polygon fill="midnightblue" stroke="midnightblue" points="1473.79,-31.56 1482.12,-25.01 1471.52,-24.93 1473.79,-31.56"/>
</g>
<!-- Node13 -->
<g id="node13" class="node">
<title>Node13</title>
<g id="a_node13"><a xlink:title=" ">
<polygon fill="none" stroke="#bfbfbf" points="1604,-6 1604,-25 1702,-25 1702,-6 1604,-6"/>
<text text-anchor="middle" x="1653" y="-13" font-family="FreeSans.ttf" font-size="10.00">yarp/sig/Vector.h</text>
</a>
</g>
</g>
<!-- Node2&#45;&gt;Node13 -->
<g id="edge12" class="edge">
<title>Node2&#45;&gt;Node13</title>
<path fill="none" stroke="midnightblue" d="M1389.96,-67.48C1443.19,-59.21 1524.77,-45.79 1595,-31 1600.08,-29.93 1605.38,-28.73 1610.63,-27.48"/>
<polygon fill="midnightblue" stroke="midnightblue" points="1611.69,-30.82 1620.58,-25.06 1610.04,-24.02 1611.69,-30.82"/>
</g>
<!-- Node14 -->
<g id="node14" class="node">
<title>Node14</title>
<g id="a_node14"><a xlink:title=" ">
<polygon fill="none" stroke="#bfbfbf" points="1720.5,-6 1720.5,-25 1809.5,-25 1809.5,-6 1720.5,-6"/>
<text text-anchor="middle" x="1765" y="-13" font-family="FreeSans.ttf" font-size="10.00">yarp/os/Time.h</text>
</a>
</g>
</g>
<!-- Node2&#45;&gt;Node14 -->
<g id="edge13" class="edge">
<title>Node2&#45;&gt;Node14</title>
<path fill="none" stroke="midnightblue" d="M1403.2,-67.91C1508.35,-55.75 1696.11,-33.87 1711,-31 1716.05,-30.03 1721.33,-28.83 1726.52,-27.55"/>
<polygon fill="midnightblue" stroke="midnightblue" points="1727.51,-30.91 1736.31,-25.02 1725.76,-24.14 1727.51,-30.91"/>
</g>
<!-- Node15 -->
<g id="node15" class="node">
<title>Node15</title>
<g id="a_node15"><a xlink:title=" ">
<polygon fill="none" stroke="#bfbfbf" points="1828,-6 1828,-25 1924,-25 1924,-6 1828,-6"/>
<text text-anchor="middle" x="1876" y="-13" font-family="FreeSans.ttf" font-size="10.00">yarp/os/Stamp.h</text>
</a>
</g>
</g>
<!-- Node2&#45;&gt;Node15 -->
<g id="edge14" class="edge">
<title>Node2&#45;&gt;Node15</title>
<path fill="none" stroke="midnightblue" d="M1403.2,-67.91C1406.17,-67.6 1409.12,-67.29 1412,-67 1592.67,-48.72 1639.98,-61.48 1819,-31 1824.6,-30.05 1830.46,-28.82 1836.19,-27.49"/>
<polygon fill="midnightblue" stroke="midnightblue" points="1837.43,-30.79 1846.32,-25.01 1835.77,-23.99 1837.43,-30.79"/>
</g>
<!-- Node16 -->
<g id="node16" class="node">
<title>Node16</title>
<g id="a_node16"><a xlink:title=" ">
<polygon fill="none" stroke="#bfbfbf" points="1942,-6 1942,-25 1986,-25 1986,-6 1942,-6"/>
<text text-anchor="middle" x="1964" y="-13" font-family="FreeSans.ttf" font-size="10.00">string</text>
</a>
</g>
</g>
<!-- Node2&#45;&gt;Node16 -->
<g id="edge15" class="edge">
<title>Node2&#45;&gt;Node16</title>
<path fill="none" stroke="midnightblue" d="M1403.19,-67.84C1406.17,-67.55 1409.11,-67.26 1412,-67 1643.14,-45.86 1708.3,-89.15 1933,-31 1934.98,-30.49 1937,-29.85 1938.99,-29.13"/>
<polygon fill="midnightblue" stroke="midnightblue" points="1940.8,-32.16 1948.65,-25.04 1938.08,-25.72 1940.8,-32.16"/>
</g>
<!-- Node17 -->
<g id="node17" class="node">
<title>Node17</title>
<g id="a_node17"><a xlink:title=" ">
<polygon fill="none" stroke="#bfbfbf" points="2004.5,-6 2004.5,-25 2051.5,-25 2051.5,-6 2004.5,-6"/>
<text text-anchor="middle" x="2028" y="-13" font-family="FreeSans.ttf" font-size="10.00">vector</text>
</a>
</g>
</g>
<!-- Node2&#45;&gt;Node17 -->
<g id="edge16" class="edge">
<title>Node2&#45;&gt;Node17</title>
<path fill="none" stroke="midnightblue" d="M1403.19,-67.81C1406.17,-67.53 1409.11,-67.25 1412,-67 1670.61,-44.3 1742.7,-92.16 1995,-31 1997.36,-30.43 1999.76,-29.7 2002.14,-28.87"/>
<polygon fill="midnightblue" stroke="midnightblue" points="2003.64,-32.04 2011.61,-25.06 2001.03,-25.54 2003.64,-32.04"/>
</g>
<!-- Node18 -->
<g id="node18" class="node">
<title>Node18</title>
<g id="a_node18"><a xlink:title=" ">
<polygon fill="none" stroke="#bfbfbf" points="2069.5,-6 2069.5,-25 2188.5,-25 2188.5,-6 2069.5,-6"/>
<text text-anchor="middle" x="2129" y="-13" font-family="FreeSans.ttf" font-size="10.00">boost/shared_ptr.hpp</text>
</a>
</g>
</g>
<!-- Node2&#45;&gt;Node18 -->
<g id="edge17" class="edge">
<title>Node2&#45;&gt;Node18</title>
<path fill="none" stroke="midnightblue" d="M1403.19,-67.79C1406.17,-67.51 1409.11,-67.24 1412,-67 1699.86,-42.64 1774.65,-69.24 2061,-31 2068.49,-30 2076.38,-28.62 2084.03,-27.11"/>
<polygon fill="midnightblue" stroke="midnightblue" points="2084.8,-30.53 2093.89,-25.07 2083.39,-23.67 2084.8,-30.53"/>
</g>
<!-- Node19 -->
<g id="node19" class="node">
<title>Node19</title>
<g id="a_node19"><a xlink:title=" ">
<polygon fill="none" stroke="#bfbfbf" points="2207,-6 2207,-25 2255,-25 2255,-6 2207,-6"/>
<text text-anchor="middle" x="2231" y="-13" font-family="FreeSans.ttf" font-size="10.00">mutex</text>
</a>
</g>
</g>
<!-- Node2&#45;&gt;Node19 -->
<g id="edge18" class="edge">
<title>Node2&#45;&gt;Node19</title>
<path fill="none" stroke="midnightblue" d="M1403.19,-67.75C1406.16,-67.48 1409.11,-67.23 1412,-67 1586.3,-53.1 2027.75,-70.84 2198,-31 2200.36,-30.45 2202.77,-29.73 2205.15,-28.91"/>
<polygon fill="midnightblue" stroke="midnightblue" points="2206.64,-32.08 2214.62,-25.11 2204.04,-25.58 2206.64,-32.08"/>
</g>
</g>
</svg>
