<?xml version="1.0" encoding="UTF-8" standalone="no"?>
<!DOCTYPE svg PUBLIC "-//W3C//DTD SVG 1.1//EN"
 "http://www.w3.org/Graphics/SVG/1.1/DTD/svg11.dtd">
<!-- Generated by graphviz version 2.43.0 (0)
 -->
<!-- Title: ForceTorque.cc Pages: 1 -->
<svg width="1980pt" height="151pt"
 viewBox="0.00 0.00 1979.50 151.00" xmlns="http://www.w3.org/2000/svg" xmlns:xlink="http://www.w3.org/1999/xlink">
<g id="graph0" class="graph" transform="scale(1 1) rotate(0) translate(4 147)">
<title>ForceTorque.cc</title>
<!-- Node1 -->
<g id="node1" class="node">
<title>Node1</title>
<g id="a_node1"><a xlink:title=" ">
<polygon fill="#bfbfbf" stroke="black" points="1130.5,-123.5 1130.5,-142.5 1219.5,-142.5 1219.5,-123.5 1130.5,-123.5"/>
<text text-anchor="middle" x="1175" y="-130.5" font-family="FreeSans.ttf" font-size="10.00">ForceTorque.cc</text>
</a>
</g>
</g>
<!-- Node2 -->
<g id="node2" class="node">
<title>Node2</title>
<g id="a_node2"><a xlink:href="ForceTorque_8hh.html" target="_top" xlink:title=" ">
<polygon fill="none" stroke="black" points="172,-62 172,-81 262,-81 262,-62 172,-62"/>
<text text-anchor="middle" x="217" y="-69" font-family="FreeSans.ttf" font-size="10.00">ForceTorque.hh</text>
</a>
</g>
</g>
<!-- Node1&#45;&gt;Node2 -->
<g id="edge1" class="edge">
<title>Node1&#45;&gt;Node2</title>
<path fill="none" stroke="midnightblue" d="M1130.17,-131.65C1000.83,-130.23 615.99,-123.03 299,-87 289.4,-85.91 279.23,-84.4 269.44,-82.77"/>
<polygon fill="midnightblue" stroke="midnightblue" points="269.86,-79.29 259.41,-81.03 268.67,-86.19 269.86,-79.29"/>
</g>
<!-- Node4 -->
<g id="node4" class="node">
<title>Node4</title>
<g id="a_node4"><a xlink:title=" ">
<polygon fill="none" stroke="#bfbfbf" points="0,-0.5 0,-19.5 122,-19.5 122,-0.5 0,-0.5"/>
<text text-anchor="middle" x="61" y="-7.5" font-family="FreeSans.ttf" font-size="10.00">yarp/dev/PolyDriver.h</text>
</a>
</g>
</g>
<!-- Node1&#45;&gt;Node4 -->
<g id="edge29" class="edge">
<title>Node1&#45;&gt;Node4</title>
<path fill="none" stroke="midnightblue" d="M1130.44,-131.56C946.9,-129.52 254.84,-119.73 163,-87 127.85,-74.47 94.66,-45.36 76.16,-27.03"/>
<polygon fill="midnightblue" stroke="midnightblue" points="78.45,-24.37 68.95,-19.68 73.46,-29.27 78.45,-24.37"/>
</g>
<!-- Node6 -->
<g id="node6" class="node">
<title>Node6</title>
<g id="a_node6"><a xlink:href="ForceTorqueDriver_8h.html" target="_top" xlink:title=" ">
<polygon fill="none" stroke="black" points="809.5,-62 809.5,-81 922.5,-81 922.5,-62 809.5,-62"/>
<text text-anchor="middle" x="866" y="-69" font-family="FreeSans.ttf" font-size="10.00">ForceTorqueDriver.h</text>
</a>
</g>
</g>
<!-- Node1&#45;&gt;Node6 -->
<g id="edge5" class="edge">
<title>Node1&#45;&gt;Node6</title>
<path fill="none" stroke="midnightblue" d="M1130.73,-123.48C1075.2,-112.78 980.03,-94.46 920.2,-82.94"/>
<polygon fill="midnightblue" stroke="midnightblue" points="920.67,-79.46 910.19,-81.01 919.35,-86.34 920.67,-79.46"/>
</g>
<!-- Node13 -->
<g id="node13" class="node">
<title>Node13</title>
<g id="a_node13"><a xlink:href="Handler_8hh.html" target="_top" xlink:title=" ">
<polygon fill="none" stroke="black" points="996,-62 996,-81 1160,-81 1160,-62 996,-62"/>
<text text-anchor="middle" x="1078" y="-69" font-family="FreeSans.ttf" font-size="10.00">GazeboYarpPlugins/Handler.hh</text>
</a>
</g>
</g>
<!-- Node1&#45;&gt;Node13 -->
<g id="edge13" class="edge">
<title>Node1&#45;&gt;Node13</title>
<path fill="none" stroke="midnightblue" d="M1161.1,-123.48C1145.33,-113.8 1119.36,-97.87 1100.65,-86.39"/>
<polygon fill="midnightblue" stroke="midnightblue" points="1102.23,-83.25 1091.87,-81.01 1098.57,-89.22 1102.23,-83.25"/>
</g>
<!-- Node17 -->
<g id="node17" class="node">
<title>Node17</title>
<g id="a_node17"><a xlink:href="common_8h.html" target="_top" xlink:title=" ">
<polygon fill="none" stroke="black" points="308,-62 308,-81 472,-81 472,-62 308,-62"/>
<text text-anchor="middle" x="390" y="-69" font-family="FreeSans.ttf" font-size="10.00">GazeboYarpPlugins/common.h</text>
</a>
</g>
</g>
<!-- Node1&#45;&gt;Node17 -->
<g id="edge20" class="edge">
<title>Node1&#45;&gt;Node17</title>
<path fill="none" stroke="midnightblue" d="M1130.26,-128.61C1005.47,-119.15 651.62,-92.33 482.38,-79.5"/>
<polygon fill="midnightblue" stroke="midnightblue" points="482.48,-76 472.25,-78.73 481.95,-82.98 482.48,-76"/>
</g>
<!-- Node19 -->
<g id="node19" class="node">
<title>Node19</title>
<g id="a_node19"><a xlink:href="ConfHelpers_8hh.html" target="_top" xlink:title=" ">
<polygon fill="none" stroke="black" points="1178.5,-62 1178.5,-81 1365.5,-81 1365.5,-62 1178.5,-62"/>
<text text-anchor="middle" x="1272" y="-69" font-family="FreeSans.ttf" font-size="10.00">GazeboYarpPlugins/ConfHelpers.hh</text>
</a>
</g>
</g>
<!-- Node1&#45;&gt;Node19 -->
<g id="edge23" class="edge">
<title>Node1&#45;&gt;Node19</title>
<path fill="none" stroke="midnightblue" d="M1188.9,-123.48C1204.67,-113.8 1230.64,-97.87 1249.35,-86.39"/>
<polygon fill="midnightblue" stroke="midnightblue" points="1251.43,-89.22 1258.13,-81.01 1247.77,-83.25 1251.43,-89.22"/>
</g>
<!-- Node22 -->
<g id="node22" class="node">
<title>Node22</title>
<g id="a_node22"><a xlink:title=" ">
<polygon fill="none" stroke="#bfbfbf" points="1384,-56.5 1384,-86.5 1538,-86.5 1538,-56.5 1384,-56.5"/>
<text text-anchor="start" x="1392" y="-74.5" font-family="FreeSans.ttf" font-size="10.00">gazebo/sensors/ForceTorque</text>
<text text-anchor="middle" x="1461" y="-63.5" font-family="FreeSans.ttf" font-size="10.00">Sensor.hh</text>
</a>
</g>
</g>
<!-- Node1&#45;&gt;Node22 -->
<g id="edge28" class="edge">
<title>Node1&#45;&gt;Node22</title>
<path fill="none" stroke="midnightblue" d="M1215.98,-123.48C1259.6,-114.4 1329.65,-99.83 1383.7,-88.58"/>
<polygon fill="midnightblue" stroke="midnightblue" points="1384.52,-91.99 1393.6,-86.52 1383.09,-85.13 1384.52,-91.99"/>
</g>
<!-- Node23 -->
<g id="node23" class="node">
<title>Node23</title>
<g id="a_node23"><a xlink:title=" ">
<polygon fill="none" stroke="#bfbfbf" points="1556.5,-62 1556.5,-81 1711.5,-81 1711.5,-62 1556.5,-62"/>
<text text-anchor="middle" x="1634" y="-69" font-family="FreeSans.ttf" font-size="10.00">yarp/dev/IMultipleWrapper.h</text>
</a>
</g>
</g>
<!-- Node1&#45;&gt;Node23 -->
<g id="edge30" class="edge">
<title>Node1&#45;&gt;Node23</title>
<path fill="none" stroke="midnightblue" d="M1219.75,-127.24C1289.7,-119.66 1429.16,-103.94 1547,-87 1556.13,-85.69 1565.77,-84.19 1575.19,-82.67"/>
<polygon fill="midnightblue" stroke="midnightblue" points="1575.98,-86.09 1585.29,-81.01 1574.85,-79.18 1575.98,-86.09"/>
</g>
<!-- Node24 -->
<g id="node24" class="node">
<title>Node24</title>
<g id="a_node24"><a xlink:title=" ">
<polygon fill="none" stroke="#bfbfbf" points="1730,-62 1730,-81 1836,-81 1836,-62 1730,-62"/>
<text text-anchor="middle" x="1783" y="-69" font-family="FreeSans.ttf" font-size="10.00">yarp/os/Network.h</text>
</a>
</g>
</g>
<!-- Node1&#45;&gt;Node24 -->
<g id="edge31" class="edge">
<title>Node1&#45;&gt;Node24</title>
<path fill="none" stroke="midnightblue" d="M1219.85,-130.54C1313.49,-127.01 1536.37,-116.04 1721,-87 1727.38,-86 1734.07,-84.7 1740.61,-83.29"/>
<polygon fill="midnightblue" stroke="midnightblue" points="1741.7,-86.63 1750.68,-81.01 1740.15,-79.8 1741.7,-86.63"/>
</g>
<!-- Node25 -->
<g id="node25" class="node">
<title>Node25</title>
<g id="a_node25"><a xlink:title=" ">
<polygon fill="none" stroke="#bfbfbf" points="1854.5,-62 1854.5,-81 1971.5,-81 1971.5,-62 1854.5,-62"/>
<text text-anchor="middle" x="1913" y="-69" font-family="FreeSans.ttf" font-size="10.00">yarp/os/LogStream.h</text>
</a>
</g>
</g>
<!-- Node1&#45;&gt;Node25 -->
<g id="edge32" class="edge">
<title>Node1&#45;&gt;Node25</title>
<path fill="none" stroke="midnightblue" d="M1219.52,-131.21C1327.35,-128.81 1610.9,-119.65 1845,-87 1852.32,-85.98 1860.02,-84.62 1867.51,-83.14"/>
<polygon fill="midnightblue" stroke="midnightblue" points="1868.44,-86.52 1877.53,-81.07 1867.02,-79.66 1868.44,-86.52"/>
</g>
<!-- Node3 -->
<g id="node3" class="node">
<title>Node3</title>
<g id="a_node3"><a xlink:title=" ">
<polygon fill="none" stroke="#bfbfbf" points="202,-0.5 202,-19.5 348,-19.5 348,-0.5 202,-0.5"/>
<text text-anchor="middle" x="275" y="-7.5" font-family="FreeSans.ttf" font-size="10.00">gazebo/common/Plugin.hh</text>
</a>
</g>
</g>
<!-- Node2&#45;&gt;Node3 -->
<g id="edge2" class="edge">
<title>Node2&#45;&gt;Node3</title>
<path fill="none" stroke="midnightblue" d="M225.31,-61.98C234.18,-52.87 248.45,-38.24 259.42,-26.98"/>
<polygon fill="midnightblue" stroke="midnightblue" points="262.23,-29.11 266.71,-19.51 257.22,-24.23 262.23,-29.11"/>
</g>
<!-- Node2&#45;&gt;Node4 -->
<g id="edge3" class="edge">
<title>Node2&#45;&gt;Node4</title>
<path fill="none" stroke="midnightblue" d="M194.65,-61.98C168.01,-51.81 123.29,-34.76 92.99,-23.2"/>
<polygon fill="midnightblue" stroke="midnightblue" points="93.9,-19.8 83.31,-19.51 91.41,-26.34 93.9,-19.8"/>
</g>
<!-- Node5 -->
<g id="node5" class="node">
<title>Node5</title>
<g id="a_node5"><a xlink:title=" ">
<polygon fill="none" stroke="#bfbfbf" points="140,-0.5 140,-19.5 184,-19.5 184,-0.5 140,-0.5"/>
<text text-anchor="middle" x="162" y="-7.5" font-family="FreeSans.ttf" font-size="10.00">string</text>
</a>
</g>
</g>
<!-- Node2&#45;&gt;Node5 -->
<g id="edge4" class="edge">
<title>Node2&#45;&gt;Node5</title>
<path fill="none" stroke="midnightblue" d="M209.12,-61.98C200.71,-52.87 187.18,-38.24 176.77,-26.98"/>
<polygon fill="midnightblue" stroke="midnightblue" points="179.22,-24.48 169.87,-19.51 174.08,-29.23 179.22,-24.48"/>
</g>
<!-- Node6&#45;&gt;Node3 -->
<g id="edge11" class="edge">
<title>Node6&#45;&gt;Node3</title>
<path fill="none" stroke="midnightblue" d="M809.22,-65.02C717.15,-56.1 529.27,-37.75 358.5,-20.04"/>
<polygon fill="midnightblue" stroke="midnightblue" points="358.62,-16.54 348.32,-18.99 357.9,-23.5 358.62,-16.54"/>
</g>
<!-- Node7 -->
<g id="node7" class="node">
<title>Node7</title>
<g id="a_node7"><a xlink:title=" ">
<polygon fill="none" stroke="#bfbfbf" points="714,-0.5 714,-19.5 848,-19.5 848,-0.5 714,-0.5"/>
<text text-anchor="middle" x="781" y="-7.5" font-family="FreeSans.ttf" font-size="10.00">yarp/dev/DeviceDriver.h</text>
</a>
</g>
</g>
<!-- Node6&#45;&gt;Node7 -->
<g id="edge6" class="edge">
<title>Node6&#45;&gt;Node7</title>
<path fill="none" stroke="midnightblue" d="M853.82,-61.98C840.19,-52.43 817.87,-36.81 801.53,-25.37"/>
<polygon fill="midnightblue" stroke="midnightblue" points="803.36,-22.38 793.16,-19.51 799.34,-28.11 803.36,-22.38"/>
</g>
<!-- Node8 -->
<g id="node8" class="node">
<title>Node8</title>
<g id="a_node8"><a xlink:title=" ">
<polygon fill="none" stroke="#bfbfbf" points="866,-0.5 866,-19.5 1006,-19.5 1006,-0.5 866,-0.5"/>
<text text-anchor="middle" x="936" y="-7.5" font-family="FreeSans.ttf" font-size="10.00">yarp/dev/IAnalogSensor.h</text>
</a>
</g>
</g>
<!-- Node6&#45;&gt;Node8 -->
<g id="edge7" class="edge">
<title>Node6&#45;&gt;Node8</title>
<path fill="none" stroke="midnightblue" d="M876.03,-61.98C887.05,-52.61 904.96,-37.38 918.34,-26.01"/>
<polygon fill="midnightblue" stroke="midnightblue" points="920.64,-28.65 925.99,-19.51 916.1,-23.32 920.64,-28.65"/>
</g>
<!-- Node9 -->
<g id="node9" class="node">
<title>Node9</title>
<g id="a_node9"><a xlink:title=" ">
<polygon fill="none" stroke="#bfbfbf" points="432,-0.5 432,-19.5 528,-19.5 528,-0.5 432,-0.5"/>
<text text-anchor="middle" x="480" y="-7.5" font-family="FreeSans.ttf" font-size="10.00">yarp/os/Stamp.h</text>
</a>
</g>
</g>
<!-- Node6&#45;&gt;Node9 -->
<g id="edge8" class="edge">
<title>Node6&#45;&gt;Node9</title>
<path fill="none" stroke="midnightblue" d="M810.57,-61.99C745.35,-51.96 633.8,-34.81 538,-20 537.9,-19.98 537.8,-19.97 537.7,-19.95"/>
<polygon fill="midnightblue" stroke="midnightblue" points="538.52,-16.54 528.11,-18.47 537.45,-23.46 538.52,-16.54"/>
</g>
<!-- Node10 -->
<g id="node10" class="node">
<title>Node10</title>
<g id="a_node10"><a xlink:title=" ">
<polygon fill="none" stroke="#bfbfbf" points="546.5,-0.5 546.5,-19.5 695.5,-19.5 695.5,-0.5 546.5,-0.5"/>
<text text-anchor="middle" x="621" y="-7.5" font-family="FreeSans.ttf" font-size="10.00">yarp/dev/IPreciselyTimed.h</text>
</a>
</g>
</g>
<!-- Node6&#45;&gt;Node10 -->
<g id="edge9" class="edge">
<title>Node6&#45;&gt;Node10</title>
<path fill="none" stroke="midnightblue" d="M830.9,-61.98C787.51,-51.44 713.59,-33.49 666.05,-21.94"/>
<polygon fill="midnightblue" stroke="midnightblue" points="666.58,-18.47 656.04,-19.51 664.93,-25.27 666.58,-18.47"/>
</g>
<!-- Node11 -->
<g id="node11" class="node">
<title>Node11</title>
<g id="a_node11"><a xlink:title=" ">
<polygon fill="none" stroke="#bfbfbf" points="1146.5,-0.5 1146.5,-19.5 1265.5,-19.5 1265.5,-0.5 1146.5,-0.5"/>
<text text-anchor="middle" x="1206" y="-7.5" font-family="FreeSans.ttf" font-size="10.00">boost/shared_ptr.hpp</text>
</a>
</g>
</g>
<!-- Node6&#45;&gt;Node11 -->
<g id="edge10" class="edge">
<title>Node6&#45;&gt;Node11</title>
<path fill="none" stroke="midnightblue" d="M914.71,-61.98C976.07,-51.24 1081.39,-32.81 1147.17,-21.29"/>
<polygon fill="midnightblue" stroke="midnightblue" points="1148.13,-24.68 1157.38,-19.51 1146.92,-17.79 1148.13,-24.68"/>
</g>
<!-- Node12 -->
<g id="node12" class="node">
<title>Node12</title>
<g id="a_node12"><a xlink:title=" ">
<polygon fill="none" stroke="#bfbfbf" points="1024,-0.5 1024,-19.5 1072,-19.5 1072,-0.5 1024,-0.5"/>
<text text-anchor="middle" x="1048" y="-7.5" font-family="FreeSans.ttf" font-size="10.00">mutex</text>
</a>
</g>
</g>
<!-- Node6&#45;&gt;Node12 -->
<g id="edge12" class="edge">
<title>Node6&#45;&gt;Node12</title>
<path fill="none" stroke="midnightblue" d="M892.08,-61.98C924.1,-51.5 978.52,-33.72 1013.85,-22.16"/>
<polygon fill="midnightblue" stroke="midnightblue" points="1015.3,-25.37 1023.72,-18.94 1013.12,-18.72 1015.3,-25.37"/>
</g>
<!-- Node13&#45;&gt;Node4 -->
<g id="edge18" class="edge">
<title>Node13&#45;&gt;Node4</title>
<path fill="none" stroke="midnightblue" d="M1000.02,-61.97C978.05,-59.78 954.1,-57.59 932,-56 579.86,-30.62 487.73,-50.37 132.11,-20.02"/>
<polygon fill="midnightblue" stroke="midnightblue" points="132.31,-16.52 122.05,-19.15 131.71,-23.5 132.31,-16.52"/>
</g>
<!-- Node13&#45;&gt;Node11 -->
<g id="edge16" class="edge">
<title>Node13&#45;&gt;Node11</title>
<path fill="none" stroke="midnightblue" d="M1096.34,-61.98C1117.82,-51.99 1153.62,-35.35 1178.45,-23.81"/>
<polygon fill="midnightblue" stroke="midnightblue" points="1180.1,-26.9 1187.69,-19.51 1177.15,-20.55 1180.1,-26.9"/>
</g>
<!-- Node13&#45;&gt;Node12 -->
<g id="edge17" class="edge">
<title>Node13&#45;&gt;Node12</title>
<path fill="none" stroke="midnightblue" d="M1073.7,-61.98C1069.34,-53.32 1062.44,-39.65 1056.9,-28.65"/>
<polygon fill="midnightblue" stroke="midnightblue" points="1059.92,-26.86 1052.29,-19.51 1053.67,-30.01 1059.92,-26.86"/>
</g>
<!-- Node14 -->
<g id="node14" class="node">
<title>Node14</title>
<g id="a_node14"><a xlink:title=" ">
<polygon fill="none" stroke="#bfbfbf" points="1090,-0.5 1090,-19.5 1128,-19.5 1128,-0.5 1090,-0.5"/>
<text text-anchor="middle" x="1109" y="-7.5" font-family="FreeSans.ttf" font-size="10.00">map</text>
</a>
</g>
</g>
<!-- Node13&#45;&gt;Node14 -->
<g id="edge14" class="edge">
<title>Node13&#45;&gt;Node14</title>
<path fill="none" stroke="midnightblue" d="M1082.44,-61.98C1086.95,-53.32 1094.07,-39.65 1099.81,-28.65"/>
<polygon fill="midnightblue" stroke="midnightblue" points="1103.05,-29.99 1104.57,-19.51 1096.84,-26.76 1103.05,-29.99"/>
</g>
<!-- Node15 -->
<g id="node15" class="node">
<title>Node15</title>
<g id="a_node15"><a xlink:title=" ">
<polygon fill="none" stroke="#bfbfbf" points="1442.5,-0.5 1442.5,-19.5 1535.5,-19.5 1535.5,-0.5 1442.5,-0.5"/>
<text text-anchor="middle" x="1489" y="-7.5" font-family="FreeSans.ttf" font-size="10.00">sdf/sdf_config.h</text>
</a>
</g>
</g>
<!-- Node13&#45;&gt;Node15 -->
<g id="edge15" class="edge">
<title>Node13&#45;&gt;Node15</title>
<path fill="none" stroke="midnightblue" d="M1131,-61.96C1143.76,-59.95 1157.36,-57.86 1170,-56 1283.53,-39.29 1314.62,-37.45 1432.14,-20.1"/>
<polygon fill="midnightblue" stroke="midnightblue" points="1432.88,-23.52 1442.26,-18.6 1431.86,-16.6 1432.88,-23.52"/>
</g>
<!-- Node16 -->
<g id="node16" class="node">
<title>Node16</title>
<g id="a_node16"><a xlink:title=" ">
<polygon fill="none" stroke="#bfbfbf" points="1284,-0.5 1284,-19.5 1424,-19.5 1424,-0.5 1284,-0.5"/>
<text text-anchor="middle" x="1354" y="-7.5" font-family="FreeSans.ttf" font-size="10.00">yarp/dev/PolyDriverList.h</text>
</a>
</g>
</g>
<!-- Node13&#45;&gt;Node16 -->
<g id="edge19" class="edge">
<title>Node13&#45;&gt;Node16</title>
<path fill="none" stroke="midnightblue" d="M1117.54,-61.98C1166.83,-51.35 1251.09,-33.18 1304.59,-21.65"/>
<polygon fill="midnightblue" stroke="midnightblue" points="1305.49,-25.04 1314.53,-19.51 1304.02,-18.2 1305.49,-25.04"/>
</g>
<!-- Node17&#45;&gt;Node5 -->
<g id="edge21" class="edge">
<title>Node17&#45;&gt;Node5</title>
<path fill="none" stroke="midnightblue" d="M355.39,-61.98C317.98,-52.69 256.37,-37.17 194.29,-20.29"/>
<polygon fill="midnightblue" stroke="midnightblue" points="194.9,-16.83 184.33,-17.57 193.05,-23.58 194.9,-16.83"/>
</g>
<!-- Node18 -->
<g id="node18" class="node">
<title>Node18</title>
<g id="a_node18"><a xlink:title=" ">
<polygon fill="none" stroke="#bfbfbf" points="366.5,-0.5 366.5,-19.5 413.5,-19.5 413.5,-0.5 366.5,-0.5"/>
<text text-anchor="middle" x="390" y="-7.5" font-family="FreeSans.ttf" font-size="10.00">cmath</text>
</a>
</g>
</g>
<!-- Node17&#45;&gt;Node18 -->
<g id="edge22" class="edge">
<title>Node17&#45;&gt;Node18</title>
<path fill="none" stroke="midnightblue" d="M390,-61.98C390,-53.58 390,-40.48 390,-29.66"/>
<polygon fill="midnightblue" stroke="midnightblue" points="393.5,-29.51 390,-19.51 386.5,-29.51 393.5,-29.51"/>
</g>
<!-- Node19&#45;&gt;Node11 -->
<g id="edge25" class="edge">
<title>Node19&#45;&gt;Node11</title>
<path fill="none" stroke="midnightblue" d="M1262.54,-61.98C1252.25,-52.7 1235.58,-37.67 1223.01,-26.33"/>
<polygon fill="midnightblue" stroke="midnightblue" points="1225.21,-23.61 1215.44,-19.51 1220.52,-28.8 1225.21,-23.61"/>
</g>
<!-- Node19&#45;&gt;Node15 -->
<g id="edge24" class="edge">
<title>Node19&#45;&gt;Node15</title>
<path fill="none" stroke="midnightblue" d="M1303.09,-61.98C1341.28,-51.5 1406.17,-33.71 1448.3,-22.16"/>
<polygon fill="midnightblue" stroke="midnightblue" points="1449.25,-25.53 1457.97,-19.51 1447.4,-18.78 1449.25,-25.53"/>
</g>
<!-- Node20 -->
<g id="node20" class="node">
<title>Node20</title>
<g id="a_node20"><a xlink:title=" ">
<polygon fill="none" stroke="#bfbfbf" points="1746.5,-0.5 1746.5,-19.5 1917.5,-19.5 1917.5,-0.5 1746.5,-0.5"/>
<text text-anchor="middle" x="1832" y="-7.5" font-family="FreeSans.ttf" font-size="10.00">gazebo/sensors/SensorTypes.hh</text>
</a>
</g>
</g>
<!-- Node19&#45;&gt;Node20 -->
<g id="edge26" class="edge">
<title>Node19&#45;&gt;Node20</title>
<path fill="none" stroke="midnightblue" d="M1329.42,-61.98C1344.25,-59.9 1360.21,-57.77 1375,-56 1409.82,-51.84 1612.61,-32.14 1736.06,-20.23"/>
<polygon fill="midnightblue" stroke="midnightblue" points="1736.66,-23.69 1746.28,-19.25 1735.99,-16.72 1736.66,-23.69"/>
</g>
<!-- Node21 -->
<g id="node21" class="node">
<title>Node21</title>
<g id="a_node21"><a xlink:title=" ">
<polygon fill="none" stroke="#bfbfbf" points="1554,-0.5 1554,-19.5 1728,-19.5 1728,-0.5 1554,-0.5"/>
<text text-anchor="middle" x="1641" y="-7.5" font-family="FreeSans.ttf" font-size="10.00">gazebo/physics/PhysicsTypes.hh</text>
</a>
</g>
</g>
<!-- Node19&#45;&gt;Node21 -->
<g id="edge27" class="edge">
<title>Node19&#45;&gt;Node21</title>
<path fill="none" stroke="midnightblue" d="M1324.87,-61.98C1391.73,-51.19 1506.71,-32.65 1578.03,-21.15"/>
<polygon fill="midnightblue" stroke="midnightblue" points="1578.91,-24.56 1588.23,-19.51 1577.8,-17.65 1578.91,-24.56"/>
</g>
</g>
</svg>
