<?xml version="1.0" encoding="UTF-8" standalone="no"?>
<!DOCTYPE svg PUBLIC "-//W3C//DTD SVG 1.1//EN"
 "http://www.w3.org/Graphics/SVG/1.1/DTD/svg11.dtd">
<!-- Generated by graphviz version 2.43.0 (0)
 -->
<!-- Title: ForceTorqueDriver.h Pages: 1 -->
<svg width="949pt" height="84pt"
 viewBox="0.00 0.00 949.00 84.00" xmlns="http://www.w3.org/2000/svg" xmlns:xlink="http://www.w3.org/1999/xlink">
<g id="graph0" class="graph" transform="scale(1 1) rotate(0) translate(4 80)">
<title>ForceTorqueDriver.h</title>
<!-- Node1 -->
<g id="node1" class="node">
<title>Node1</title>
<g id="a_node1"><a xlink:title=" ">
<polygon fill="#bfbfbf" stroke="black" points="442.5,-56.5 442.5,-75.5 555.5,-75.5 555.5,-56.5 442.5,-56.5"/>
<text text-anchor="middle" x="499" y="-63.5" font-family="FreeSans.ttf" font-size="10.00">ForceTorqueDriver.h</text>
</a>
</g>
</g>
<!-- Node2 -->
<g id="node2" class="node">
<title>Node2</title>
<g id="a_node2"><a xlink:title=" ">
<polygon fill="none" stroke="#bfbfbf" points="0,-0.5 0,-19.5 134,-19.5 134,-0.5 0,-0.5"/>
<text text-anchor="middle" x="67" y="-7.5" font-family="FreeSans.ttf" font-size="10.00">yarp/dev/DeviceDriver.h</text>
</a>
</g>
</g>
<!-- Node1&#45;&gt;Node2 -->
<g id="edge1" class="edge">
<title>Node1&#45;&gt;Node2</title>
<path fill="none" stroke="midnightblue" d="M442.08,-57.88C365.79,-48.35 230.1,-31.39 144.53,-20.69"/>
<polygon fill="midnightblue" stroke="midnightblue" points="144.71,-17.19 134.35,-19.42 143.84,-24.13 144.71,-17.19"/>
</g>
<!-- Node3 -->
<g id="node3" class="node">
<title>Node3</title>
<g id="a_node3"><a xlink:title=" ">
<polygon fill="none" stroke="#bfbfbf" points="152,-0.5 152,-19.5 292,-19.5 292,-0.5 152,-0.5"/>
<text text-anchor="middle" x="222" y="-7.5" font-family="FreeSans.ttf" font-size="10.00">yarp/dev/IAnalogSensor.h</text>
</a>
</g>
</g>
<!-- Node1&#45;&gt;Node3 -->
<g id="edge2" class="edge">
<title>Node1&#45;&gt;Node3</title>
<path fill="none" stroke="midnightblue" d="M455.11,-56.44C406.48,-46.96 328.05,-31.67 275.78,-21.48"/>
<polygon fill="midnightblue" stroke="midnightblue" points="276.17,-17.99 265.69,-19.52 274.83,-24.87 276.17,-17.99"/>
</g>
<!-- Node4 -->
<g id="node4" class="node">
<title>Node4</title>
<g id="a_node4"><a xlink:title=" ">
<polygon fill="none" stroke="#bfbfbf" points="310,-0.5 310,-19.5 406,-19.5 406,-0.5 310,-0.5"/>
<text text-anchor="middle" x="358" y="-7.5" font-family="FreeSans.ttf" font-size="10.00">yarp/os/Stamp.h</text>
</a>
</g>
</g>
<!-- Node1&#45;&gt;Node4 -->
<g id="edge3" class="edge">
<title>Node1&#45;&gt;Node4</title>
<path fill="none" stroke="midnightblue" d="M476.66,-56.44C453.25,-47.48 416.26,-33.31 389.81,-23.18"/>
<polygon fill="midnightblue" stroke="midnightblue" points="390.83,-19.82 380.24,-19.52 388.32,-26.36 390.83,-19.82"/>
</g>
<!-- Node5 -->
<g id="node5" class="node">
<title>Node5</title>
<g id="a_node5"><a xlink:title=" ">
<polygon fill="none" stroke="#bfbfbf" points="424.5,-0.5 424.5,-19.5 573.5,-19.5 573.5,-0.5 424.5,-0.5"/>
<text text-anchor="middle" x="499" y="-7.5" font-family="FreeSans.ttf" font-size="10.00">yarp/dev/IPreciselyTimed.h</text>
</a>
</g>
</g>
<!-- Node1&#45;&gt;Node5 -->
<g id="edge4" class="edge">
<title>Node1&#45;&gt;Node5</title>
<path fill="none" stroke="midnightblue" d="M499,-56.08C499,-49.01 499,-38.86 499,-29.99"/>
<polygon fill="midnightblue" stroke="midnightblue" points="502.5,-29.75 499,-19.75 495.5,-29.75 502.5,-29.75"/>
</g>
<!-- Node6 -->
<g id="node6" class="node">
<title>Node6</title>
<g id="a_node6"><a xlink:title=" ">
<polygon fill="none" stroke="#bfbfbf" points="591.5,-0.5 591.5,-19.5 710.5,-19.5 710.5,-0.5 591.5,-0.5"/>
<text text-anchor="middle" x="651" y="-7.5" font-family="FreeSans.ttf" font-size="10.00">boost/shared_ptr.hpp</text>
</a>
</g>
</g>
<!-- Node1&#45;&gt;Node6 -->
<g id="edge5" class="edge">
<title>Node1&#45;&gt;Node6</title>
<path fill="none" stroke="midnightblue" d="M523.08,-56.44C548.54,-47.4 588.89,-33.06 617.46,-22.92"/>
<polygon fill="midnightblue" stroke="midnightblue" points="618.78,-26.16 627.03,-19.52 616.43,-19.57 618.78,-26.16"/>
</g>
<!-- Node7 -->
<g id="node7" class="node">
<title>Node7</title>
<g id="a_node7"><a xlink:title=" ">
<polygon fill="none" stroke="#bfbfbf" points="729,-0.5 729,-19.5 875,-19.5 875,-0.5 729,-0.5"/>
<text text-anchor="middle" x="802" y="-7.5" font-family="FreeSans.ttf" font-size="10.00">gazebo/common/Plugin.hh</text>
</a>
</g>
</g>
<!-- Node1&#45;&gt;Node7 -->
<g id="edge6" class="edge">
<title>Node1&#45;&gt;Node7</title>
<path fill="none" stroke="midnightblue" d="M547.01,-56.44C600.53,-46.9 687.07,-31.48 744.24,-21.29"/>
<polygon fill="midnightblue" stroke="midnightblue" points="744.98,-24.72 754.21,-19.52 743.75,-17.83 744.98,-24.72"/>
</g>
<!-- Node8 -->
<g id="node8" class="node">
<title>Node8</title>
<g id="a_node8"><a xlink:title=" ">
<polygon fill="none" stroke="#bfbfbf" points="893,-0.5 893,-19.5 941,-19.5 941,-0.5 893,-0.5"/>
<text text-anchor="middle" x="917" y="-7.5" font-family="FreeSans.ttf" font-size="10.00">mutex</text>
</a>
</g>
</g>
<!-- Node1&#45;&gt;Node8 -->
<g id="edge7" class="edge">
<title>Node1&#45;&gt;Node8</title>
<path fill="none" stroke="midnightblue" d="M555.51,-61.06C628.94,-55.35 761.18,-43.06 883.07,-19.91"/>
<polygon fill="midnightblue" stroke="midnightblue" points="883.79,-23.34 892.95,-18.01 882.47,-16.46 883.79,-23.34"/>
</g>
</g>
</svg>
