<?xml version="1.0" encoding="UTF-8" standalone="no"?>
<!DOCTYPE svg PUBLIC "-//W3C//DTD SVG 1.1//EN"
 "http://www.w3.org/Graphics/SVG/1.1/DTD/svg11.dtd">
<!-- Generated by graphviz version 3.0.0 (20220315.2325)
 -->
<!-- Title: ForceTorqueDriver.h Pages: 1 -->
<svg width="1141pt" height="95pt"
 viewBox="0.00 0.00 1141.00 95.00" xmlns="http://www.w3.org/2000/svg" xmlns:xlink="http://www.w3.org/1999/xlink">
<g id="graph0" class="graph" transform="scale(1 1) rotate(0) translate(4 91)">
<title>ForceTorqueDriver.h</title>
<!-- Node1 -->
<g id="node1" class="node">
<title>Node1</title>
<g id="a_node1"><a xlink:title=" ">
<polygon fill="#bfbfbf" stroke="black" points="563.5,-67.5 563.5,-86.5 676.5,-86.5 676.5,-67.5 563.5,-67.5"/>
<text text-anchor="middle" x="620" y="-74.5" font-family="FreeSans.ttf" font-size="10.00">ForceTorqueDriver.h</text>
</a>
</g>
</g>
<!-- Node2 -->
<g id="node2" class="node">
<title>Node2</title>
<g id="a_node2"><a xlink:title=" ">
<polygon fill="none" stroke="#bfbfbf" points="0,-6 0,-25 134,-25 134,-6 0,-6"/>
<text text-anchor="middle" x="67" y="-13" font-family="FreeSans.ttf" font-size="10.00">yarp/dev/DeviceDriver.h</text>
</a>
</g>
</g>
<!-- Node1&#45;&gt;Node2 -->
<g id="edge1" class="edge">
<title>Node1&#45;&gt;Node2</title>
<path fill="none" stroke="midnightblue" d="M563.26,-72.39C473.67,-66.3 294.11,-52.49 143,-31 134.87,-29.84 126.29,-28.41 117.93,-26.9"/>
<polygon fill="midnightblue" stroke="midnightblue" points="118.37,-23.43 107.9,-25.04 117.09,-30.31 118.37,-23.43"/>
</g>
<!-- Node3 -->
<g id="node3" class="node">
<title>Node3</title>
<g id="a_node3"><a xlink:title=" ">
<polygon fill="none" stroke="#bfbfbf" points="152,-6 152,-25 292,-25 292,-6 152,-6"/>
<text text-anchor="middle" x="222" y="-13" font-family="FreeSans.ttf" font-size="10.00">yarp/dev/IAnalogSensor.h</text>
</a>
</g>
</g>
<!-- Node1&#45;&gt;Node3 -->
<g id="edge2" class="edge">
<title>Node1&#45;&gt;Node3</title>
<path fill="none" stroke="midnightblue" d="M563.42,-68.74C499.57,-60.38 392.65,-45.87 301,-31 293.07,-29.71 284.72,-28.27 276.52,-26.81"/>
<polygon fill="midnightblue" stroke="midnightblue" points="277.11,-23.36 266.65,-25.03 275.87,-30.25 277.11,-23.36"/>
</g>
<!-- Node4 -->
<g id="node4" class="node">
<title>Node4</title>
<g id="a_node4"><a xlink:title=" ">
<polygon fill="none" stroke="#bfbfbf" points="310,-0.5 310,-30.5 484,-30.5 484,-0.5 310,-0.5"/>
<text text-anchor="start" x="318" y="-18.5" font-family="FreeSans.ttf" font-size="10.00">yarp/dev/MultipleAnalogSensors</text>
<text text-anchor="middle" x="397" y="-7.5" font-family="FreeSans.ttf" font-size="10.00">Interfaces.h</text>
</a>
</g>
</g>
<!-- Node1&#45;&gt;Node4 -->
<g id="edge3" class="edge">
<title>Node1&#45;&gt;Node4</title>
<path fill="none" stroke="midnightblue" d="M588.05,-67.48C554.6,-58.55 501.22,-44.31 459.38,-33.14"/>
<polygon fill="midnightblue" stroke="midnightblue" points="460.12,-29.72 449.56,-30.52 458.32,-36.48 460.12,-29.72"/>
</g>
<!-- Node5 -->
<g id="node5" class="node">
<title>Node5</title>
<g id="a_node5"><a xlink:title=" ">
<polygon fill="none" stroke="#bfbfbf" points="502,-6 502,-25 598,-25 598,-6 502,-6"/>
<text text-anchor="middle" x="550" y="-13" font-family="FreeSans.ttf" font-size="10.00">yarp/os/Stamp.h</text>
</a>
</g>
</g>
<!-- Node1&#45;&gt;Node5 -->
<g id="edge4" class="edge">
<title>Node1&#45;&gt;Node5</title>
<path fill="none" stroke="midnightblue" d="M609.97,-67.48C598.95,-58.11 581.04,-42.88 567.66,-31.51"/>
<polygon fill="midnightblue" stroke="midnightblue" points="569.9,-28.82 560.01,-25.01 565.36,-34.15 569.9,-28.82"/>
</g>
<!-- Node6 -->
<g id="node6" class="node">
<title>Node6</title>
<g id="a_node6"><a xlink:title=" ">
<polygon fill="none" stroke="#bfbfbf" points="616.5,-6 616.5,-25 765.5,-25 765.5,-6 616.5,-6"/>
<text text-anchor="middle" x="691" y="-13" font-family="FreeSans.ttf" font-size="10.00">yarp/dev/IPreciselyTimed.h</text>
</a>
</g>
</g>
<!-- Node1&#45;&gt;Node6 -->
<g id="edge5" class="edge">
<title>Node1&#45;&gt;Node6</title>
<path fill="none" stroke="midnightblue" d="M630.17,-67.48C641.35,-58.11 659.52,-42.88 673.09,-31.51"/>
<polygon fill="midnightblue" stroke="midnightblue" points="675.43,-34.11 680.85,-25.01 670.93,-28.75 675.43,-34.11"/>
</g>
<!-- Node7 -->
<g id="node7" class="node">
<title>Node7</title>
<g id="a_node7"><a xlink:title=" ">
<polygon fill="none" stroke="#bfbfbf" points="783.5,-6 783.5,-25 902.5,-25 902.5,-6 783.5,-6"/>
<text text-anchor="middle" x="843" y="-13" font-family="FreeSans.ttf" font-size="10.00">boost/shared_ptr.hpp</text>
</a>
</g>
</g>
<!-- Node1&#45;&gt;Node7 -->
<g id="edge6" class="edge">
<title>Node1&#45;&gt;Node7</title>
<path fill="none" stroke="midnightblue" d="M651.95,-67.48C691.2,-57 757.88,-39.21 801.17,-27.66"/>
<polygon fill="midnightblue" stroke="midnightblue" points="802.35,-30.97 811.11,-25.01 800.54,-24.21 802.35,-30.97"/>
</g>
<!-- Node8 -->
<g id="node8" class="node">
<title>Node8</title>
<g id="a_node8"><a xlink:title=" ">
<polygon fill="none" stroke="#bfbfbf" points="921,-6 921,-25 1067,-25 1067,-6 921,-6"/>
<text text-anchor="middle" x="994" y="-13" font-family="FreeSans.ttf" font-size="10.00">gazebo/common/Plugin.hh</text>
</a>
</g>
</g>
<!-- Node1&#45;&gt;Node8 -->
<g id="edge7" class="edge">
<title>Node1&#45;&gt;Node8</title>
<path fill="none" stroke="midnightblue" d="M676.58,-67.66C735.45,-58.89 830.27,-44.52 912,-31 920.01,-29.67 928.45,-28.23 936.75,-26.79"/>
<polygon fill="midnightblue" stroke="midnightblue" points="937.52,-30.21 946.77,-25.04 936.31,-23.31 937.52,-30.21"/>
</g>
<!-- Node9 -->
<g id="node9" class="node">
<title>Node9</title>
<g id="a_node9"><a xlink:title=" ">
<polygon fill="none" stroke="#bfbfbf" points="1085,-6 1085,-25 1133,-25 1133,-6 1085,-6"/>
<text text-anchor="middle" x="1109" y="-13" font-family="FreeSans.ttf" font-size="10.00">mutex</text>
</a>
</g>
</g>
<!-- Node1&#45;&gt;Node9 -->
<g id="edge8" class="edge">
<title>Node1&#45;&gt;Node9</title>
<path fill="none" stroke="midnightblue" d="M676.81,-76.09C764.08,-74.97 935.75,-67.74 1076,-31 1078.3,-30.4 1080.64,-29.66 1082.96,-28.83"/>
<polygon fill="midnightblue" stroke="midnightblue" points="1084.28,-32.07 1092.24,-25.08 1081.66,-25.58 1084.28,-32.07"/>
</g>
</g>
</svg>
