<?xml version="1.0" encoding="UTF-8" standalone="no"?>
<!DOCTYPE svg PUBLIC "-//W3C//DTD SVG 1.1//EN"
 "http://www.w3.org/Graphics/SVG/1.1/DTD/svg11.dtd">
<!-- Generated by graphviz version 3.0.0 (20220315.2325)
 -->
<!-- Title: ForceTorqueDriver.cpp Pages: 1 -->
<svg width="1911pt" height="162pt"
 viewBox="0.00 0.00 1910.50 162.00" xmlns="http://www.w3.org/2000/svg" xmlns:xlink="http://www.w3.org/1999/xlink">
<g id="graph0" class="graph" transform="scale(1 1) rotate(0) translate(4 158)">
<title>ForceTorqueDriver.cpp</title>
<!-- Node1 -->
<g id="node1" class="node">
<title>Node1</title>
<g id="a_node1"><a xlink:title=" ">
<polygon fill="#bfbfbf" stroke="black" points="1451.5,-134.5 1451.5,-153.5 1576.5,-153.5 1576.5,-134.5 1451.5,-134.5"/>
<text text-anchor="middle" x="1514" y="-141.5" font-family="FreeSans.ttf" font-size="10.00">ForceTorqueDriver.cpp</text>
</a>
</g>
</g>
<!-- Node2 -->
<g id="node2" class="node">
<title>Node2</title>
<g id="a_node2"><a xlink:href="ForceTorqueDriver_8h.html" target="_top" xlink:title=" ">
<polygon fill="none" stroke="black" points="611.5,-73 611.5,-92 724.5,-92 724.5,-73 611.5,-73"/>
<text text-anchor="middle" x="668" y="-80" font-family="FreeSans.ttf" font-size="10.00">ForceTorqueDriver.h</text>
</a>
</g>
</g>
<!-- Node1&#45;&gt;Node2 -->
<g id="edge1" class="edge">
<title>Node1&#45;&gt;Node2</title>
<path fill="none" stroke="midnightblue" d="M1451.45,-138.6C1296.22,-127.68 894.39,-99.42 734.78,-88.2"/>
<polygon fill="midnightblue" stroke="midnightblue" points="734.84,-84.69 724.62,-87.48 734.35,-91.68 734.84,-84.69"/>
</g>
<!-- Node11 -->
<g id="node11" class="node">
<title>Node11</title>
<g id="a_node11"><a xlink:href="Handler_8hh.html" target="_top" xlink:title=" ">
<polygon fill="none" stroke="black" points="1199,-73 1199,-92 1363,-92 1363,-73 1199,-73"/>
<text text-anchor="middle" x="1281" y="-80" font-family="FreeSans.ttf" font-size="10.00">GazeboYarpPlugins/Handler.hh</text>
</a>
</g>
</g>
<!-- Node1&#45;&gt;Node11 -->
<g id="edge10" class="edge">
<title>Node1&#45;&gt;Node11</title>
<path fill="none" stroke="midnightblue" d="M1480.62,-134.48C1439.44,-123.96 1369.35,-106.06 1324.13,-94.51"/>
<polygon fill="midnightblue" stroke="midnightblue" points="1324.88,-91.09 1314.32,-92.01 1323.14,-97.87 1324.88,-91.09"/>
</g>
<!-- Node17 -->
<g id="node17" class="node">
<title>Node17</title>
<g id="a_node17"><a xlink:title=" ">
<polygon fill="none" stroke="#bfbfbf" points="1381.5,-73 1381.5,-92 1494.5,-92 1494.5,-73 1381.5,-73"/>
<text text-anchor="middle" x="1438" y="-80" font-family="FreeSans.ttf" font-size="10.00">boost/bind/bind.hpp</text>
</a>
</g>
</g>
<!-- Node1&#45;&gt;Node17 -->
<g id="edge18" class="edge">
<title>Node1&#45;&gt;Node17</title>
<path fill="none" stroke="midnightblue" d="M1503.11,-134.48C1491.03,-125.02 1471.33,-109.6 1456.76,-98.19"/>
<polygon fill="midnightblue" stroke="midnightblue" points="1458.9,-95.42 1448.87,-92.01 1454.59,-100.93 1458.9,-95.42"/>
</g>
<!-- Node18 -->
<g id="node18" class="node">
<title>Node18</title>
<g id="a_node18"><a xlink:title=" ">
<polygon fill="none" stroke="#bfbfbf" points="1513,-67.5 1513,-97.5 1667,-97.5 1667,-67.5 1513,-67.5"/>
<text text-anchor="start" x="1521" y="-85.5" font-family="FreeSans.ttf" font-size="10.00">gazebo/sensors/ForceTorque</text>
<text text-anchor="middle" x="1590" y="-74.5" font-family="FreeSans.ttf" font-size="10.00">Sensor.hh</text>
</a>
</g>
</g>
<!-- Node1&#45;&gt;Node18 -->
<g id="edge19" class="edge">
<title>Node1&#45;&gt;Node18</title>
<path fill="none" stroke="midnightblue" d="M1524.89,-134.48C1535.09,-126.49 1550.72,-114.25 1564.11,-103.77"/>
<polygon fill="midnightblue" stroke="midnightblue" points="1566.37,-106.44 1572.09,-97.52 1562.06,-100.93 1566.37,-106.44"/>
</g>
<!-- Node19 -->
<g id="node19" class="node">
<title>Node19</title>
<g id="a_node19"><a xlink:title=" ">
<polygon fill="none" stroke="#bfbfbf" points="1685,-73 1685,-92 1767,-92 1767,-73 1685,-73"/>
<text text-anchor="middle" x="1726" y="-80" font-family="FreeSans.ttf" font-size="10.00">yarp/os/Log.h</text>
</a>
</g>
</g>
<!-- Node1&#45;&gt;Node19 -->
<g id="edge20" class="edge">
<title>Node1&#45;&gt;Node19</title>
<path fill="none" stroke="midnightblue" d="M1545.09,-134.48C1577.72,-125.5 1630.51,-110.91 1676,-98 1679.56,-96.99 1683.25,-95.93 1686.95,-94.87"/>
<polygon fill="midnightblue" stroke="midnightblue" points="1688.03,-98.2 1696.67,-92.07 1686.09,-91.48 1688.03,-98.2"/>
</g>
<!-- Node20 -->
<g id="node20" class="node">
<title>Node20</title>
<g id="a_node20"><a xlink:title=" ">
<polygon fill="none" stroke="#bfbfbf" points="1785.5,-73 1785.5,-92 1902.5,-92 1902.5,-73 1785.5,-73"/>
<text text-anchor="middle" x="1844" y="-80" font-family="FreeSans.ttf" font-size="10.00">yarp/os/LogStream.h</text>
</a>
</g>
</g>
<!-- Node1&#45;&gt;Node20 -->
<g id="edge21" class="edge">
<title>Node1&#45;&gt;Node20</title>
<path fill="none" stroke="midnightblue" d="M1567.3,-134.49C1620.32,-125.87 1703.94,-111.87 1776,-98 1782.22,-96.8 1788.75,-95.49 1795.2,-94.15"/>
<polygon fill="midnightblue" stroke="midnightblue" points="1796.15,-97.53 1805.22,-92.05 1794.71,-90.68 1796.15,-97.53"/>
</g>
<!-- Node3 -->
<g id="node3" class="node">
<title>Node3</title>
<g id="a_node3"><a xlink:title=" ">
<polygon fill="none" stroke="#bfbfbf" points="446,-6 446,-25 580,-25 580,-6 446,-6"/>
<text text-anchor="middle" x="513" y="-13" font-family="FreeSans.ttf" font-size="10.00">yarp/dev/DeviceDriver.h</text>
</a>
</g>
</g>
<!-- Node2&#45;&gt;Node3 -->
<g id="edge2" class="edge">
<title>Node2&#45;&gt;Node3</title>
<path fill="none" stroke="midnightblue" d="M647.42,-72.87C620.67,-61.65 573.75,-41.98 543.03,-29.09"/>
<polygon fill="midnightblue" stroke="midnightblue" points="544.24,-25.81 533.67,-25.17 541.54,-32.26 544.24,-25.81"/>
</g>
<!-- Node4 -->
<g id="node4" class="node">
<title>Node4</title>
<g id="a_node4"><a xlink:title=" ">
<polygon fill="none" stroke="#bfbfbf" points="598,-6 598,-25 738,-25 738,-6 598,-6"/>
<text text-anchor="middle" x="668" y="-13" font-family="FreeSans.ttf" font-size="10.00">yarp/dev/IAnalogSensor.h</text>
</a>
</g>
</g>
<!-- Node2&#45;&gt;Node4 -->
<g id="edge3" class="edge">
<title>Node2&#45;&gt;Node4</title>
<path fill="none" stroke="midnightblue" d="M668,-72.73C668,-63.18 668,-47.62 668,-35.28"/>
<polygon fill="midnightblue" stroke="midnightblue" points="671.5,-35.13 668,-25.13 664.5,-35.13 671.5,-35.13"/>
</g>
<!-- Node5 -->
<g id="node5" class="node">
<title>Node5</title>
<g id="a_node5"><a xlink:title=" ">
<polygon fill="none" stroke="#bfbfbf" points="756,-0.5 756,-30.5 930,-30.5 930,-0.5 756,-0.5"/>
<text text-anchor="start" x="764" y="-18.5" font-family="FreeSans.ttf" font-size="10.00">yarp/dev/MultipleAnalogSensors</text>
<text text-anchor="middle" x="843" y="-7.5" font-family="FreeSans.ttf" font-size="10.00">Interfaces.h</text>
</a>
</g>
</g>
<!-- Node2&#45;&gt;Node5 -->
<g id="edge4" class="edge">
<title>Node2&#45;&gt;Node5</title>
<path fill="none" stroke="midnightblue" d="M691.24,-72.87C717.73,-63.03 761.72,-46.69 795.54,-34.13"/>
<polygon fill="midnightblue" stroke="midnightblue" points="797.08,-37.29 805.23,-30.53 794.64,-30.73 797.08,-37.29"/>
</g>
<!-- Node6 -->
<g id="node6" class="node">
<title>Node6</title>
<g id="a_node6"><a xlink:title=" ">
<polygon fill="none" stroke="#bfbfbf" points="0,-6 0,-25 96,-25 96,-6 0,-6"/>
<text text-anchor="middle" x="48" y="-13" font-family="FreeSans.ttf" font-size="10.00">yarp/os/Stamp.h</text>
</a>
</g>
</g>
<!-- Node2&#45;&gt;Node6 -->
<g id="edge5" class="edge">
<title>Node2&#45;&gt;Node6</title>
<path fill="none" stroke="midnightblue" d="M611.28,-79.41C509.31,-74.98 288.55,-62.37 105,-31 99.4,-30.04 93.54,-28.82 87.81,-27.49"/>
<polygon fill="midnightblue" stroke="midnightblue" points="88.23,-23.99 77.69,-25.01 86.57,-30.78 88.23,-23.99"/>
</g>
<!-- Node7 -->
<g id="node7" class="node">
<title>Node7</title>
<g id="a_node7"><a xlink:title=" ">
<polygon fill="none" stroke="#bfbfbf" points="114.5,-6 114.5,-25 263.5,-25 263.5,-6 114.5,-6"/>
<text text-anchor="middle" x="189" y="-13" font-family="FreeSans.ttf" font-size="10.00">yarp/dev/IPreciselyTimed.h</text>
</a>
</g>
</g>
<!-- Node2&#45;&gt;Node7 -->
<g id="edge6" class="edge">
<title>Node2&#45;&gt;Node7</title>
<path fill="none" stroke="midnightblue" d="M611.31,-75.04C534.5,-66.11 393.16,-49.04 273,-31 264.39,-29.71 255.29,-28.24 246.4,-26.75"/>
<polygon fill="midnightblue" stroke="midnightblue" points="246.92,-23.29 236.47,-25.07 245.75,-30.19 246.92,-23.29"/>
</g>
<!-- Node8 -->
<g id="node8" class="node">
<title>Node8</title>
<g id="a_node8"><a xlink:title=" ">
<polygon fill="none" stroke="#bfbfbf" points="1014.5,-6 1014.5,-25 1133.5,-25 1133.5,-6 1014.5,-6"/>
<text text-anchor="middle" x="1074" y="-13" font-family="FreeSans.ttf" font-size="10.00">boost/shared_ptr.hpp</text>
</a>
</g>
</g>
<!-- Node2&#45;&gt;Node8 -->
<g id="edge7" class="edge">
<title>Node2&#45;&gt;Node8</title>
<path fill="none" stroke="midnightblue" d="M724.51,-74.06C791.59,-64.99 906.74,-48.67 1005,-31 1011.64,-29.81 1018.61,-28.45 1025.48,-27.07"/>
<polygon fill="midnightblue" stroke="midnightblue" points="1026.31,-30.47 1035.39,-25.03 1024.89,-23.62 1026.31,-30.47"/>
</g>
<!-- Node9 -->
<g id="node9" class="node">
<title>Node9</title>
<g id="a_node9"><a xlink:title=" ">
<polygon fill="none" stroke="#bfbfbf" points="282,-6 282,-25 428,-25 428,-6 282,-6"/>
<text text-anchor="middle" x="355" y="-13" font-family="FreeSans.ttf" font-size="10.00">gazebo/common/Plugin.hh</text>
</a>
</g>
</g>
<!-- Node2&#45;&gt;Node9 -->
<g id="edge8" class="edge">
<title>Node2&#45;&gt;Node9</title>
<path fill="none" stroke="midnightblue" d="M626.76,-72.94C569.99,-61.15 467.83,-39.93 406.23,-27.14"/>
<polygon fill="midnightblue" stroke="midnightblue" points="406.84,-23.69 396.33,-25.08 405.41,-30.54 406.84,-23.69"/>
</g>
<!-- Node10 -->
<g id="node10" class="node">
<title>Node10</title>
<g id="a_node10"><a xlink:title=" ">
<polygon fill="none" stroke="#bfbfbf" points="948,-6 948,-25 996,-25 996,-6 948,-6"/>
<text text-anchor="middle" x="972" y="-13" font-family="FreeSans.ttf" font-size="10.00">mutex</text>
</a>
</g>
</g>
<!-- Node2&#45;&gt;Node10 -->
<g id="edge9" class="edge">
<title>Node2&#45;&gt;Node10</title>
<path fill="none" stroke="midnightblue" d="M724.7,-74.8C780.17,-67.34 866.63,-53.32 939,-31 940.93,-30.41 942.89,-29.73 944.86,-29"/>
<polygon fill="midnightblue" stroke="midnightblue" points="946.53,-32.1 954.47,-25.09 943.89,-25.62 946.53,-32.1"/>
</g>
<!-- Node11&#45;&gt;Node8 -->
<g id="edge13" class="edge">
<title>Node11&#45;&gt;Node8</title>
<path fill="none" stroke="midnightblue" d="M1253.51,-72.87C1216.83,-61.35 1151.77,-40.92 1110.87,-28.08"/>
<polygon fill="midnightblue" stroke="midnightblue" points="1111.86,-24.72 1101.27,-25.06 1109.76,-31.4 1111.86,-24.72"/>
</g>
<!-- Node11&#45;&gt;Node10 -->
<g id="edge14" class="edge">
<title>Node11&#45;&gt;Node10</title>
<path fill="none" stroke="midnightblue" d="M1208.71,-72.97C1152.38,-65.2 1072.65,-51.74 1005,-31 1003.07,-30.41 1001.1,-29.74 999.14,-29.01"/>
<polygon fill="midnightblue" stroke="midnightblue" points="1000.1,-25.63 989.52,-25.1 997.47,-32.11 1000.1,-25.63"/>
</g>
<!-- Node12 -->
<g id="node12" class="node">
<title>Node12</title>
<g id="a_node12"><a xlink:title=" ">
<polygon fill="none" stroke="#bfbfbf" points="1318,-6 1318,-25 1356,-25 1356,-6 1318,-6"/>
<text text-anchor="middle" x="1337" y="-13" font-family="FreeSans.ttf" font-size="10.00">map</text>
</a>
</g>
</g>
<!-- Node11&#45;&gt;Node12 -->
<g id="edge11" class="edge">
<title>Node11&#45;&gt;Node12</title>
<path fill="none" stroke="midnightblue" d="M1288.55,-72.73C1297.28,-62.6 1311.85,-45.69 1322.74,-33.06"/>
<polygon fill="midnightblue" stroke="midnightblue" points="1325.69,-34.99 1329.57,-25.13 1320.39,-30.42 1325.69,-34.99"/>
</g>
<!-- Node13 -->
<g id="node13" class="node">
<title>Node13</title>
<g id="a_node13"><a xlink:title=" ">
<polygon fill="none" stroke="#bfbfbf" points="1374.5,-6 1374.5,-25 1467.5,-25 1467.5,-6 1374.5,-6"/>
<text text-anchor="middle" x="1421" y="-13" font-family="FreeSans.ttf" font-size="10.00">sdf/sdf_config.h</text>
</a>
</g>
</g>
<!-- Node11&#45;&gt;Node13 -->
<g id="edge12" class="edge">
<title>Node11&#45;&gt;Node13</title>
<path fill="none" stroke="midnightblue" d="M1299.59,-72.87C1323.54,-61.75 1365.39,-42.32 1393.15,-29.43"/>
<polygon fill="midnightblue" stroke="midnightblue" points="1394.74,-32.55 1402.33,-25.17 1391.79,-26.2 1394.74,-32.55"/>
</g>
<!-- Node14 -->
<g id="node14" class="node">
<title>Node14</title>
<g id="a_node14"><a xlink:title=" ">
<polygon fill="none" stroke="#bfbfbf" points="1486,-6 1486,-25 1608,-25 1608,-6 1486,-6"/>
<text text-anchor="middle" x="1547" y="-13" font-family="FreeSans.ttf" font-size="10.00">yarp/dev/PolyDriver.h</text>
</a>
</g>
</g>
<!-- Node11&#45;&gt;Node14 -->
<g id="edge15" class="edge">
<title>Node11&#45;&gt;Node14</title>
<path fill="none" stroke="midnightblue" d="M1316.05,-72.94C1363.79,-61.27 1449.33,-40.37 1501.83,-27.54"/>
<polygon fill="midnightblue" stroke="midnightblue" points="1502.99,-30.86 1511.87,-25.08 1501.33,-24.06 1502.99,-30.86"/>
</g>
<!-- Node15 -->
<g id="node15" class="node">
<title>Node15</title>
<g id="a_node15"><a xlink:title=" ">
<polygon fill="none" stroke="#bfbfbf" points="1626,-6 1626,-25 1766,-25 1766,-6 1626,-6"/>
<text text-anchor="middle" x="1696" y="-13" font-family="FreeSans.ttf" font-size="10.00">yarp/dev/PolyDriverList.h</text>
</a>
</g>
</g>
<!-- Node11&#45;&gt;Node15 -->
<g id="edge16" class="edge">
<title>Node11&#45;&gt;Node15</title>
<path fill="none" stroke="midnightblue" d="M1334.5,-72.98C1347.12,-70.99 1360.53,-68.9 1373,-67 1481.36,-50.47 1508.85,-48.9 1617,-31 1624.74,-29.72 1632.89,-28.3 1640.9,-26.87"/>
<polygon fill="midnightblue" stroke="midnightblue" points="1641.71,-30.28 1650.93,-25.05 1640.47,-23.39 1641.71,-30.28"/>
</g>
<!-- Node16 -->
<g id="node16" class="node">
<title>Node16</title>
<g id="a_node16"><a xlink:title=" ">
<polygon fill="none" stroke="#bfbfbf" points="1151.5,-6 1151.5,-25 1300.5,-25 1300.5,-6 1151.5,-6"/>
<text text-anchor="middle" x="1226" y="-13" font-family="FreeSans.ttf" font-size="10.00">gazebo/common/Events.hh</text>
</a>
</g>
</g>
<!-- Node11&#45;&gt;Node16 -->
<g id="edge17" class="edge">
<title>Node11&#45;&gt;Node16</title>
<path fill="none" stroke="midnightblue" d="M1273.58,-72.73C1265.01,-62.6 1250.7,-45.69 1240.01,-33.06"/>
<polygon fill="midnightblue" stroke="midnightblue" points="1242.43,-30.5 1233.3,-25.13 1237.09,-35.02 1242.43,-30.5"/>
</g>
</g>
</svg>
