<?xml version="1.0" encoding="UTF-8" standalone="no"?>
<!DOCTYPE svg PUBLIC "-//W3C//DTD SVG 1.1//EN"
 "http://www.w3.org/Graphics/SVG/1.1/DTD/svg11.dtd">
<!-- Generated by graphviz version 3.0.0 (20220315.2325)
 -->
<!-- Title: ForceTorque.cc Pages: 1 -->
<svg width="2273pt" height="151pt"
 viewBox="0.00 0.00 2272.50 151.00" xmlns="http://www.w3.org/2000/svg" xmlns:xlink="http://www.w3.org/1999/xlink">
<g id="graph0" class="graph" transform="scale(1 1) rotate(0) translate(4 147)">
<title>ForceTorque.cc</title>
<!-- Node1 -->
<g id="node1" class="node">
<title>Node1</title>
<g id="a_node1"><a xlink:title=" ">
<polygon fill="#bfbfbf" stroke="black" points="1423.5,-123.5 1423.5,-142.5 1512.5,-142.5 1512.5,-123.5 1423.5,-123.5"/>
<text text-anchor="middle" x="1468" y="-130.5" font-family="FreeSans.ttf" font-size="10.00">ForceTorque.cc</text>
</a>
</g>
</g>
<!-- Node2 -->
<g id="node2" class="node">
<title>Node2</title>
<g id="a_node2"><a xlink:href="ForceTorque_8hh.html" target="_top" xlink:title=" ">
<polygon fill="none" stroke="black" points="867,-62 867,-81 957,-81 957,-62 867,-62"/>
<text text-anchor="middle" x="912" y="-69" font-family="FreeSans.ttf" font-size="10.00">ForceTorque.hh</text>
</a>
</g>
</g>
<!-- Node1&#45;&gt;Node2 -->
<g id="edge1" class="edge">
<title>Node1&#45;&gt;Node2</title>
<path fill="none" stroke="midnightblue" d="M1423.41,-128.46C1341.01,-121.73 1159.41,-106.06 1007,-87 994.2,-85.4 980.46,-83.44 967.52,-81.49"/>
<polygon fill="midnightblue" stroke="midnightblue" points="967.77,-77.99 957.35,-79.93 966.71,-84.91 967.77,-77.99"/>
</g>
<!-- Node4 -->
<g id="node4" class="node">
<title>Node4</title>
<g id="a_node4"><a xlink:title=" ">
<polygon fill="none" stroke="#bfbfbf" points="822,-0.5 822,-19.5 944,-19.5 944,-0.5 822,-0.5"/>
<text text-anchor="middle" x="883" y="-7.5" font-family="FreeSans.ttf" font-size="10.00">yarp/dev/PolyDriver.h</text>
</a>
</g>
</g>
<!-- Node1&#45;&gt;Node4 -->
<g id="edge30" class="edge">
<title>Node1&#45;&gt;Node4</title>
<path fill="none" stroke="midnightblue" d="M1423.31,-129.72C1353.2,-125.45 1213.45,-114.08 1098,-87 1029.63,-70.96 952.79,-40.66 912.04,-23.57"/>
<polygon fill="midnightblue" stroke="midnightblue" points="913.29,-20.3 902.72,-19.62 910.56,-26.74 913.29,-20.3"/>
</g>
<!-- Node6 -->
<g id="node6" class="node">
<title>Node6</title>
<g id="a_node6"><a xlink:href="ForceTorqueDriver_8h.html" target="_top" xlink:title=" ">
<polygon fill="none" stroke="black" points="525.5,-62 525.5,-81 638.5,-81 638.5,-62 525.5,-62"/>
<text text-anchor="middle" x="582" y="-69" font-family="FreeSans.ttf" font-size="10.00">ForceTorqueDriver.h</text>
</a>
</g>
</g>
<!-- Node1&#45;&gt;Node6 -->
<g id="edge5" class="edge">
<title>Node1&#45;&gt;Node6</title>
<path fill="none" stroke="midnightblue" d="M1423.46,-129.01C1278.77,-119.29 821.4,-88.58 648.8,-76.99"/>
<polygon fill="midnightblue" stroke="midnightblue" points="648.8,-73.48 638.59,-76.3 648.33,-80.46 648.8,-73.48"/>
</g>
<!-- Node13 -->
<g id="node13" class="node">
<title>Node13</title>
<g id="a_node13"><a xlink:href="Handler_8hh.html" target="_top" xlink:title=" ">
<polygon fill="none" stroke="black" points="1107,-62 1107,-81 1271,-81 1271,-62 1107,-62"/>
<text text-anchor="middle" x="1189" y="-69" font-family="FreeSans.ttf" font-size="10.00">GazeboYarpPlugins/Handler.hh</text>
</a>
</g>
</g>
<!-- Node1&#45;&gt;Node13 -->
<g id="edge13" class="edge">
<title>Node1&#45;&gt;Node13</title>
<path fill="none" stroke="midnightblue" d="M1428.03,-123.48C1378.2,-112.85 1293.03,-94.68 1238.95,-83.15"/>
<polygon fill="midnightblue" stroke="midnightblue" points="1239.41,-79.67 1228.9,-81.01 1237.95,-86.52 1239.41,-79.67"/>
</g>
<!-- Node18 -->
<g id="node18" class="node">
<title>Node18</title>
<g id="a_node18"><a xlink:href="common_8h.html" target="_top" xlink:title=" ">
<polygon fill="none" stroke="black" points="1289,-62 1289,-81 1453,-81 1453,-62 1289,-62"/>
<text text-anchor="middle" x="1371" y="-69" font-family="FreeSans.ttf" font-size="10.00">GazeboYarpPlugins/common.h</text>
</a>
</g>
</g>
<!-- Node1&#45;&gt;Node18 -->
<g id="edge21" class="edge">
<title>Node1&#45;&gt;Node18</title>
<path fill="none" stroke="midnightblue" d="M1454.1,-123.48C1438.33,-113.8 1412.36,-97.87 1393.65,-86.39"/>
<polygon fill="midnightblue" stroke="midnightblue" points="1395.23,-83.25 1384.87,-81.01 1391.57,-89.22 1395.23,-83.25"/>
</g>
<!-- Node20 -->
<g id="node20" class="node">
<title>Node20</title>
<g id="a_node20"><a xlink:href="ConfHelpers_8hh.html" target="_top" xlink:title=" ">
<polygon fill="none" stroke="black" points="1471.5,-62 1471.5,-81 1658.5,-81 1658.5,-62 1471.5,-62"/>
<text text-anchor="middle" x="1565" y="-69" font-family="FreeSans.ttf" font-size="10.00">GazeboYarpPlugins/ConfHelpers.hh</text>
</a>
</g>
</g>
<!-- Node1&#45;&gt;Node20 -->
<g id="edge24" class="edge">
<title>Node1&#45;&gt;Node20</title>
<path fill="none" stroke="midnightblue" d="M1481.9,-123.48C1497.67,-113.8 1523.64,-97.87 1542.35,-86.39"/>
<polygon fill="midnightblue" stroke="midnightblue" points="1544.43,-89.22 1551.13,-81.01 1540.77,-83.25 1544.43,-89.22"/>
</g>
<!-- Node23 -->
<g id="node23" class="node">
<title>Node23</title>
<g id="a_node23"><a xlink:title=" ">
<polygon fill="none" stroke="#bfbfbf" points="1677,-56.5 1677,-86.5 1831,-86.5 1831,-56.5 1677,-56.5"/>
<text text-anchor="start" x="1685" y="-74.5" font-family="FreeSans.ttf" font-size="10.00">gazebo/sensors/ForceTorque</text>
<text text-anchor="middle" x="1754" y="-63.5" font-family="FreeSans.ttf" font-size="10.00">Sensor.hh</text>
</a>
</g>
</g>
<!-- Node1&#45;&gt;Node23 -->
<g id="edge29" class="edge">
<title>Node1&#45;&gt;Node23</title>
<path fill="none" stroke="midnightblue" d="M1508.98,-123.48C1552.6,-114.4 1622.65,-99.83 1676.7,-88.58"/>
<polygon fill="midnightblue" stroke="midnightblue" points="1677.52,-91.99 1686.6,-86.52 1676.09,-85.13 1677.52,-91.99"/>
</g>
<!-- Node24 -->
<g id="node24" class="node">
<title>Node24</title>
<g id="a_node24"><a xlink:title=" ">
<polygon fill="none" stroke="#bfbfbf" points="1849.5,-62 1849.5,-81 2004.5,-81 2004.5,-62 1849.5,-62"/>
<text text-anchor="middle" x="1927" y="-69" font-family="FreeSans.ttf" font-size="10.00">yarp/dev/IMultipleWrapper.h</text>
</a>
</g>
</g>
<!-- Node1&#45;&gt;Node24 -->
<g id="edge31" class="edge">
<title>Node1&#45;&gt;Node24</title>
<path fill="none" stroke="midnightblue" d="M1512.75,-127.24C1582.7,-119.66 1722.16,-103.94 1840,-87 1849.13,-85.69 1858.77,-84.19 1868.19,-82.67"/>
<polygon fill="midnightblue" stroke="midnightblue" points="1868.98,-86.09 1878.29,-81.01 1867.85,-79.18 1868.98,-86.09"/>
</g>
<!-- Node25 -->
<g id="node25" class="node">
<title>Node25</title>
<g id="a_node25"><a xlink:title=" ">
<polygon fill="none" stroke="#bfbfbf" points="2023,-62 2023,-81 2129,-81 2129,-62 2023,-62"/>
<text text-anchor="middle" x="2076" y="-69" font-family="FreeSans.ttf" font-size="10.00">yarp/os/Network.h</text>
</a>
</g>
</g>
<!-- Node1&#45;&gt;Node25 -->
<g id="edge32" class="edge">
<title>Node1&#45;&gt;Node25</title>
<path fill="none" stroke="midnightblue" d="M1512.85,-130.54C1606.49,-127.01 1829.37,-116.04 2014,-87 2020.38,-86 2027.07,-84.7 2033.61,-83.29"/>
<polygon fill="midnightblue" stroke="midnightblue" points="2034.7,-86.63 2043.68,-81.01 2033.15,-79.8 2034.7,-86.63"/>
</g>
<!-- Node26 -->
<g id="node26" class="node">
<title>Node26</title>
<g id="a_node26"><a xlink:title=" ">
<polygon fill="none" stroke="#bfbfbf" points="2147.5,-62 2147.5,-81 2264.5,-81 2264.5,-62 2147.5,-62"/>
<text text-anchor="middle" x="2206" y="-69" font-family="FreeSans.ttf" font-size="10.00">yarp/os/LogStream.h</text>
</a>
</g>
</g>
<!-- Node1&#45;&gt;Node26 -->
<g id="edge33" class="edge">
<title>Node1&#45;&gt;Node26</title>
<path fill="none" stroke="midnightblue" d="M1512.52,-131.21C1620.35,-128.81 1903.9,-119.65 2138,-87 2145.32,-85.98 2153.02,-84.62 2160.51,-83.14"/>
<polygon fill="midnightblue" stroke="midnightblue" points="2161.44,-86.52 2170.53,-81.07 2160.02,-79.66 2161.44,-86.52"/>
</g>
<!-- Node3 -->
<g id="node3" class="node">
<title>Node3</title>
<g id="a_node3"><a xlink:title=" ">
<polygon fill="none" stroke="#bfbfbf" points="592,-0.5 592,-19.5 738,-19.5 738,-0.5 592,-0.5"/>
<text text-anchor="middle" x="665" y="-7.5" font-family="FreeSans.ttf" font-size="10.00">gazebo/common/Plugin.hh</text>
</a>
</g>
</g>
<!-- Node2&#45;&gt;Node3 -->
<g id="edge2" class="edge">
<title>Node2&#45;&gt;Node3</title>
<path fill="none" stroke="midnightblue" d="M876.61,-61.98C832.77,-51.42 758.03,-33.41 710.12,-21.87"/>
<polygon fill="midnightblue" stroke="midnightblue" points="710.87,-18.45 700.32,-19.51 709.23,-25.25 710.87,-18.45"/>
</g>
<!-- Node2&#45;&gt;Node4 -->
<g id="edge3" class="edge">
<title>Node2&#45;&gt;Node4</title>
<path fill="none" stroke="midnightblue" d="M907.85,-61.98C903.62,-53.32 896.96,-39.65 891.6,-28.65"/>
<polygon fill="midnightblue" stroke="midnightblue" points="894.67,-26.96 887.15,-19.51 888.38,-30.03 894.67,-26.96"/>
</g>
<!-- Node5 -->
<g id="node5" class="node">
<title>Node5</title>
<g id="a_node5"><a xlink:title=" ">
<polygon fill="none" stroke="#bfbfbf" points="1343,-0.5 1343,-19.5 1387,-19.5 1387,-0.5 1343,-0.5"/>
<text text-anchor="middle" x="1365" y="-7.5" font-family="FreeSans.ttf" font-size="10.00">string</text>
</a>
</g>
</g>
<!-- Node2&#45;&gt;Node5 -->
<g id="edge4" class="edge">
<title>Node2&#45;&gt;Node5</title>
<path fill="none" stroke="midnightblue" d="M957.04,-67.54C1032.82,-62.03 1190.63,-48.3 1332.57,-19.99"/>
<polygon fill="midnightblue" stroke="midnightblue" points="1333.65,-23.34 1342.76,-17.93 1332.26,-16.48 1333.65,-23.34"/>
</g>
<!-- Node6&#45;&gt;Node3 -->
<g id="edge11" class="edge">
<title>Node6&#45;&gt;Node3</title>
<path fill="none" stroke="midnightblue" d="M593.89,-61.98C607.2,-52.43 629,-36.81 644.96,-25.37"/>
<polygon fill="midnightblue" stroke="midnightblue" points="647.04,-28.18 653.13,-19.51 642.96,-22.49 647.04,-28.18"/>
</g>
<!-- Node7 -->
<g id="node7" class="node">
<title>Node7</title>
<g id="a_node7"><a xlink:title=" ">
<polygon fill="none" stroke="#bfbfbf" points="0,-0.5 0,-19.5 134,-19.5 134,-0.5 0,-0.5"/>
<text text-anchor="middle" x="67" y="-7.5" font-family="FreeSans.ttf" font-size="10.00">yarp/dev/DeviceDriver.h</text>
</a>
</g>
</g>
<!-- Node6&#45;&gt;Node7 -->
<g id="edge6" class="edge">
<title>Node6&#45;&gt;Node7</title>
<path fill="none" stroke="midnightblue" d="M525.17,-64.02C443.44,-54.7 287.68,-36.87 144.43,-20.16"/>
<polygon fill="midnightblue" stroke="midnightblue" points="144.47,-16.65 134.14,-18.96 143.66,-23.6 144.47,-16.65"/>
</g>
<!-- Node8 -->
<g id="node8" class="node">
<title>Node8</title>
<g id="a_node8"><a xlink:title=" ">
<polygon fill="none" stroke="#bfbfbf" points="152,-0.5 152,-19.5 292,-19.5 292,-0.5 152,-0.5"/>
<text text-anchor="middle" x="222" y="-7.5" font-family="FreeSans.ttf" font-size="10.00">yarp/dev/IAnalogSensor.h</text>
</a>
</g>
</g>
<!-- Node6&#45;&gt;Node8 -->
<g id="edge7" class="edge">
<title>Node6&#45;&gt;Node8</title>
<path fill="none" stroke="midnightblue" d="M530.42,-61.98C465.19,-51.19 353.02,-32.65 283.43,-21.15"/>
<polygon fill="midnightblue" stroke="midnightblue" points="283.92,-17.69 273.48,-19.51 282.78,-24.59 283.92,-17.69"/>
</g>
<!-- Node9 -->
<g id="node9" class="node">
<title>Node9</title>
<g id="a_node9"><a xlink:title=" ">
<polygon fill="none" stroke="#bfbfbf" points="310,-0.5 310,-19.5 406,-19.5 406,-0.5 310,-0.5"/>
<text text-anchor="middle" x="358" y="-7.5" font-family="FreeSans.ttf" font-size="10.00">yarp/os/Stamp.h</text>
</a>
</g>
</g>
<!-- Node6&#45;&gt;Node9 -->
<g id="edge8" class="edge">
<title>Node6&#45;&gt;Node9</title>
<path fill="none" stroke="midnightblue" d="M549.91,-61.98C510.4,-51.48 443.22,-33.64 399.74,-22.09"/>
<polygon fill="midnightblue" stroke="midnightblue" points="400.6,-18.69 390.03,-19.51 398.8,-25.46 400.6,-18.69"/>
</g>
<!-- Node10 -->
<g id="node10" class="node">
<title>Node10</title>
<g id="a_node10"><a xlink:title=" ">
<polygon fill="none" stroke="#bfbfbf" points="424.5,-0.5 424.5,-19.5 573.5,-19.5 573.5,-0.5 424.5,-0.5"/>
<text text-anchor="middle" x="499" y="-7.5" font-family="FreeSans.ttf" font-size="10.00">yarp/dev/IPreciselyTimed.h</text>
</a>
</g>
</g>
<!-- Node6&#45;&gt;Node10 -->
<g id="edge9" class="edge">
<title>Node6&#45;&gt;Node10</title>
<path fill="none" stroke="midnightblue" d="M570.11,-61.98C556.8,-52.43 535,-36.81 519.04,-25.37"/>
<polygon fill="midnightblue" stroke="midnightblue" points="521.04,-22.49 510.87,-19.51 516.96,-28.18 521.04,-22.49"/>
</g>
<!-- Node11 -->
<g id="node11" class="node">
<title>Node11</title>
<g id="a_node11"><a xlink:title=" ">
<polygon fill="none" stroke="#bfbfbf" points="1405.5,-0.5 1405.5,-19.5 1524.5,-19.5 1524.5,-0.5 1405.5,-0.5"/>
<text text-anchor="middle" x="1465" y="-7.5" font-family="FreeSans.ttf" font-size="10.00">boost/shared_ptr.hpp</text>
</a>
</g>
</g>
<!-- Node6&#45;&gt;Node11 -->
<g id="edge10" class="edge">
<title>Node6&#45;&gt;Node11</title>
<path fill="none" stroke="midnightblue" d="M638.77,-67.48C795.03,-59.09 1230.2,-35.18 1395.19,-20"/>
<polygon fill="midnightblue" stroke="midnightblue" points="1395.56,-23.48 1405.19,-19.05 1394.9,-16.51 1395.56,-23.48"/>
</g>
<!-- Node12 -->
<g id="node12" class="node">
<title>Node12</title>
<g id="a_node12"><a xlink:title=" ">
<polygon fill="none" stroke="#bfbfbf" points="756,-0.5 756,-19.5 804,-19.5 804,-0.5 756,-0.5"/>
<text text-anchor="middle" x="780" y="-7.5" font-family="FreeSans.ttf" font-size="10.00">mutex</text>
</a>
</g>
</g>
<!-- Node6&#45;&gt;Node12 -->
<g id="edge12" class="edge">
<title>Node6&#45;&gt;Node12</title>
<path fill="none" stroke="midnightblue" d="M610.37,-61.98C646.2,-51.21 707.78,-32.7 746.06,-21.2"/>
<polygon fill="midnightblue" stroke="midnightblue" points="747.16,-24.52 755.73,-18.29 745.15,-17.82 747.16,-24.52"/>
</g>
<!-- Node13&#45;&gt;Node4 -->
<g id="edge18" class="edge">
<title>Node13&#45;&gt;Node4</title>
<path fill="none" stroke="midnightblue" d="M1145.16,-61.98C1090.17,-51.28 995.93,-32.96 936.68,-21.44"/>
<polygon fill="midnightblue" stroke="midnightblue" points="937.25,-17.98 926.76,-19.51 935.91,-24.85 937.25,-17.98"/>
</g>
<!-- Node13&#45;&gt;Node11 -->
<g id="edge16" class="edge">
<title>Node13&#45;&gt;Node11</title>
<path fill="none" stroke="midnightblue" d="M1228.54,-61.98C1277.83,-51.35 1362.09,-33.18 1415.59,-21.65"/>
<polygon fill="midnightblue" stroke="midnightblue" points="1416.49,-25.04 1425.53,-19.51 1415.02,-18.2 1416.49,-25.04"/>
</g>
<!-- Node13&#45;&gt;Node12 -->
<g id="edge17" class="edge">
<title>Node13&#45;&gt;Node12</title>
<path fill="none" stroke="midnightblue" d="M1106.7,-62.63C1032.48,-54.8 920.26,-41.16 814,-19.97"/>
<polygon fill="midnightblue" stroke="midnightblue" points="814.56,-16.51 804.06,-17.96 813.17,-23.37 814.56,-16.51"/>
</g>
<!-- Node14 -->
<g id="node14" class="node">
<title>Node14</title>
<g id="a_node14"><a xlink:title=" ">
<polygon fill="none" stroke="#bfbfbf" points="1287,-0.5 1287,-19.5 1325,-19.5 1325,-0.5 1287,-0.5"/>
<text text-anchor="middle" x="1306" y="-7.5" font-family="FreeSans.ttf" font-size="10.00">map</text>
</a>
</g>
</g>
<!-- Node13&#45;&gt;Node14 -->
<g id="edge14" class="edge">
<title>Node13&#45;&gt;Node14</title>
<path fill="none" stroke="midnightblue" d="M1205.76,-61.98C1225.22,-52.08 1257.55,-35.64 1280.21,-24.12"/>
<polygon fill="midnightblue" stroke="midnightblue" points="1281.94,-27.16 1289.27,-19.51 1278.77,-20.92 1281.94,-27.16"/>
</g>
<!-- Node15 -->
<g id="node15" class="node">
<title>Node15</title>
<g id="a_node15"><a xlink:title=" ">
<polygon fill="none" stroke="#bfbfbf" points="1542.5,-0.5 1542.5,-19.5 1635.5,-19.5 1635.5,-0.5 1542.5,-0.5"/>
<text text-anchor="middle" x="1589" y="-7.5" font-family="FreeSans.ttf" font-size="10.00">sdf/sdf_config.h</text>
</a>
</g>
</g>
<!-- Node13&#45;&gt;Node15 -->
<g id="edge15" class="edge">
<title>Node13&#45;&gt;Node15</title>
<path fill="none" stroke="midnightblue" d="M1241.43,-61.99C1254.05,-59.98 1267.5,-57.88 1280,-56 1389.55,-39.51 1419.6,-37.32 1532.15,-20.26"/>
<polygon fill="midnightblue" stroke="midnightblue" points="1532.84,-23.69 1542.2,-18.73 1531.79,-16.77 1532.84,-23.69"/>
</g>
<!-- Node16 -->
<g id="node16" class="node">
<title>Node16</title>
<g id="a_node16"><a xlink:title=" ">
<polygon fill="none" stroke="#bfbfbf" points="962,-0.5 962,-19.5 1102,-19.5 1102,-0.5 962,-0.5"/>
<text text-anchor="middle" x="1032" y="-7.5" font-family="FreeSans.ttf" font-size="10.00">yarp/dev/PolyDriverList.h</text>
</a>
</g>
</g>
<!-- Node13&#45;&gt;Node16 -->
<g id="edge19" class="edge">
<title>Node13&#45;&gt;Node16</title>
<path fill="none" stroke="midnightblue" d="M1166.51,-61.98C1139.69,-51.81 1094.68,-34.76 1064.19,-23.2"/>
<polygon fill="midnightblue" stroke="midnightblue" points="1065.04,-19.78 1054.45,-19.51 1062.56,-26.33 1065.04,-19.78"/>
</g>
<!-- Node17 -->
<g id="node17" class="node">
<title>Node17</title>
<g id="a_node17"><a xlink:title=" ">
<polygon fill="none" stroke="#bfbfbf" points="1120.5,-0.5 1120.5,-19.5 1269.5,-19.5 1269.5,-0.5 1120.5,-0.5"/>
<text text-anchor="middle" x="1195" y="-7.5" font-family="FreeSans.ttf" font-size="10.00">gazebo/common/Events.hh</text>
</a>
</g>
</g>
<!-- Node13&#45;&gt;Node17 -->
<g id="edge20" class="edge">
<title>Node13&#45;&gt;Node17</title>
<path fill="none" stroke="midnightblue" d="M1189.86,-61.98C1190.71,-53.58 1192.03,-40.48 1193.12,-29.66"/>
<polygon fill="midnightblue" stroke="midnightblue" points="1196.62,-29.81 1194.14,-19.51 1189.66,-29.11 1196.62,-29.81"/>
</g>
<!-- Node18&#45;&gt;Node5 -->
<g id="edge22" class="edge">
<title>Node18&#45;&gt;Node5</title>
<path fill="none" stroke="midnightblue" d="M1370.14,-61.98C1369.29,-53.58 1367.97,-40.48 1366.88,-29.66"/>
<polygon fill="midnightblue" stroke="midnightblue" points="1370.34,-29.11 1365.86,-19.51 1363.38,-29.81 1370.34,-29.11"/>
</g>
<!-- Node19 -->
<g id="node19" class="node">
<title>Node19</title>
<g id="a_node19"><a xlink:title=" ">
<polygon fill="none" stroke="#bfbfbf" points="1653.5,-0.5 1653.5,-19.5 1700.5,-19.5 1700.5,-0.5 1653.5,-0.5"/>
<text text-anchor="middle" x="1677" y="-7.5" font-family="FreeSans.ttf" font-size="10.00">cmath</text>
</a>
</g>
</g>
<!-- Node18&#45;&gt;Node19 -->
<g id="edge23" class="edge">
<title>Node18&#45;&gt;Node19</title>
<path fill="none" stroke="midnightblue" d="M1425.37,-61.99C1478.71,-53.31 1562.51,-38.76 1643.44,-20.21"/>
<polygon fill="midnightblue" stroke="midnightblue" points="1644.34,-23.59 1653.3,-17.93 1642.77,-16.77 1644.34,-23.59"/>
</g>
<!-- Node20&#45;&gt;Node11 -->
<g id="edge26" class="edge">
<title>Node20&#45;&gt;Node11</title>
<path fill="none" stroke="midnightblue" d="M1550.67,-61.98C1534.34,-52.25 1507.4,-36.23 1488.09,-24.74"/>
<polygon fill="midnightblue" stroke="midnightblue" points="1489.68,-21.61 1479.3,-19.51 1486.11,-27.63 1489.68,-21.61"/>
</g>
<!-- Node20&#45;&gt;Node15 -->
<g id="edge25" class="edge">
<title>Node20&#45;&gt;Node15</title>
<path fill="none" stroke="midnightblue" d="M1568.44,-61.98C1571.9,-53.4 1577.33,-39.93 1581.75,-28.98"/>
<polygon fill="midnightblue" stroke="midnightblue" points="1585.07,-30.09 1585.57,-19.51 1578.58,-27.47 1585.07,-30.09"/>
</g>
<!-- Node21 -->
<g id="node21" class="node">
<title>Node21</title>
<g id="a_node21"><a xlink:title=" ">
<polygon fill="none" stroke="#bfbfbf" points="1718.5,-0.5 1718.5,-19.5 1889.5,-19.5 1889.5,-0.5 1718.5,-0.5"/>
<text text-anchor="middle" x="1804" y="-7.5" font-family="FreeSans.ttf" font-size="10.00">gazebo/sensors/SensorTypes.hh</text>
</a>
</g>
</g>
<!-- Node20&#45;&gt;Node21 -->
<g id="edge27" class="edge">
<title>Node20&#45;&gt;Node21</title>
<path fill="none" stroke="midnightblue" d="M1599.24,-61.98C1641.57,-51.44 1713.68,-33.49 1760.05,-21.94"/>
<polygon fill="midnightblue" stroke="midnightblue" points="1760.96,-25.32 1769.82,-19.51 1759.27,-18.53 1760.96,-25.32"/>
</g>
<!-- Node22 -->
<g id="node22" class="node">
<title>Node22</title>
<g id="a_node22"><a xlink:title=" ">
<polygon fill="none" stroke="#bfbfbf" points="1908,-0.5 1908,-19.5 2082,-19.5 2082,-0.5 1908,-0.5"/>
<text text-anchor="middle" x="1995" y="-7.5" font-family="FreeSans.ttf" font-size="10.00">gazebo/physics/PhysicsTypes.hh</text>
</a>
</g>
</g>
<!-- Node20&#45;&gt;Node22 -->
<g id="edge28" class="edge">
<title>Node20&#45;&gt;Node22</title>
<path fill="none" stroke="midnightblue" d="M1625.18,-62C1639.23,-60.02 1654.14,-57.93 1668,-56 1755.59,-43.81 1856.42,-29.96 1922.68,-20.89"/>
<polygon fill="midnightblue" stroke="midnightblue" points="1923.18,-24.35 1932.61,-19.53 1922.23,-17.42 1923.18,-24.35"/>
</g>
</g>
</svg>
