<?xml version="1.0" encoding="UTF-8" standalone="no"?>
<!DOCTYPE svg PUBLIC "-//W3C//DTD SVG 1.1//EN"
 "http://www.w3.org/Graphics/SVG/1.1/DTD/svg11.dtd">
<!-- Generated by graphviz version 2.43.0 (0)
 -->
<!-- Title: ForceTorqueDriver.cpp Pages: 1 -->
<svg width="1635pt" height="151pt"
 viewBox="0.00 0.00 1635.00 151.00" xmlns="http://www.w3.org/2000/svg" xmlns:xlink="http://www.w3.org/1999/xlink">
<g id="graph0" class="graph" transform="scale(1 1) rotate(0) translate(4 147)">
<title>ForceTorqueDriver.cpp</title>
<!-- Node1 -->
<g id="node1" class="node">
<title>Node1</title>
<g id="a_node1"><a xlink:title=" ">
<polygon fill="#bfbfbf" stroke="black" points="1176,-123.5 1176,-142.5 1301,-142.5 1301,-123.5 1176,-123.5"/>
<text text-anchor="middle" x="1238.5" y="-130.5" font-family="FreeSans.ttf" font-size="10.00">ForceTorqueDriver.cpp</text>
</a>
</g>
</g>
<!-- Node2 -->
<g id="node2" class="node">
<title>Node2</title>
<g id="a_node2"><a xlink:href="ForceTorqueDriver_8h.html" target="_top" xlink:title=" ">
<polygon fill="none" stroke="black" points="565,-62 565,-81 678,-81 678,-62 565,-62"/>
<text text-anchor="middle" x="621.5" y="-69" font-family="FreeSans.ttf" font-size="10.00">ForceTorqueDriver.h</text>
</a>
</g>
</g>
<!-- Node1&#45;&gt;Node2 -->
<g id="edge1" class="edge">
<title>Node1&#45;&gt;Node2</title>
<path fill="none" stroke="midnightblue" d="M1175.94,-125.97C1059.1,-114.7 808.69,-90.55 688.53,-78.96"/>
<polygon fill="midnightblue" stroke="midnightblue" points="688.65,-75.46 678.36,-77.98 687.98,-82.43 688.65,-75.46"/>
</g>
<!-- Node10 -->
<g id="node10" class="node">
<title>Node10</title>
<g id="a_node10"><a xlink:href="Handler_8hh.html" target="_top" xlink:title=" ">
<polygon fill="none" stroke="black" points="923.5,-62 923.5,-81 1087.5,-81 1087.5,-62 923.5,-62"/>
<text text-anchor="middle" x="1005.5" y="-69" font-family="FreeSans.ttf" font-size="10.00">GazeboYarpPlugins/Handler.hh</text>
</a>
</g>
</g>
<!-- Node1&#45;&gt;Node10 -->
<g id="edge9" class="edge">
<title>Node1&#45;&gt;Node10</title>
<path fill="none" stroke="midnightblue" d="M1205.12,-123.48C1163.94,-112.96 1093.85,-95.06 1048.63,-83.51"/>
<polygon fill="midnightblue" stroke="midnightblue" points="1049.38,-80.09 1038.82,-81.01 1047.64,-86.87 1049.38,-80.09"/>
</g>
<!-- Node15 -->
<g id="node15" class="node">
<title>Node15</title>
<g id="a_node15"><a xlink:title=" ">
<polygon fill="none" stroke="#bfbfbf" points="1106,-62 1106,-81 1219,-81 1219,-62 1106,-62"/>
<text text-anchor="middle" x="1162.5" y="-69" font-family="FreeSans.ttf" font-size="10.00">boost/bind/bind.hpp</text>
</a>
</g>
</g>
<!-- Node1&#45;&gt;Node15 -->
<g id="edge16" class="edge">
<title>Node1&#45;&gt;Node15</title>
<path fill="none" stroke="midnightblue" d="M1227.61,-123.48C1215.53,-114.02 1195.83,-98.6 1181.26,-87.19"/>
<polygon fill="midnightblue" stroke="midnightblue" points="1183.4,-84.42 1173.37,-81.01 1179.09,-89.93 1183.4,-84.42"/>
</g>
<!-- Node16 -->
<g id="node16" class="node">
<title>Node16</title>
<g id="a_node16"><a xlink:title=" ">
<polygon fill="none" stroke="#bfbfbf" points="1237.5,-56.5 1237.5,-86.5 1391.5,-86.5 1391.5,-56.5 1237.5,-56.5"/>
<text text-anchor="start" x="1245.5" y="-74.5" font-family="FreeSans.ttf" font-size="10.00">gazebo/sensors/ForceTorque</text>
<text text-anchor="middle" x="1314.5" y="-63.5" font-family="FreeSans.ttf" font-size="10.00">Sensor.hh</text>
</a>
</g>
</g>
<!-- Node1&#45;&gt;Node16 -->
<g id="edge17" class="edge">
<title>Node1&#45;&gt;Node16</title>
<path fill="none" stroke="midnightblue" d="M1249.39,-123.48C1259.59,-115.49 1275.22,-103.25 1288.61,-92.77"/>
<polygon fill="midnightblue" stroke="midnightblue" points="1290.87,-95.44 1296.59,-86.52 1286.56,-89.93 1290.87,-95.44"/>
</g>
<!-- Node17 -->
<g id="node17" class="node">
<title>Node17</title>
<g id="a_node17"><a xlink:title=" ">
<polygon fill="none" stroke="#bfbfbf" points="1409.5,-62 1409.5,-81 1491.5,-81 1491.5,-62 1409.5,-62"/>
<text text-anchor="middle" x="1450.5" y="-69" font-family="FreeSans.ttf" font-size="10.00">yarp/os/Log.h</text>
</a>
</g>
</g>
<!-- Node1&#45;&gt;Node17 -->
<g id="edge18" class="edge">
<title>Node1&#45;&gt;Node17</title>
<path fill="none" stroke="midnightblue" d="M1269.59,-123.48C1302.22,-114.5 1355.01,-99.91 1400.5,-87 1404.06,-85.99 1407.75,-84.93 1411.45,-83.87"/>
<polygon fill="midnightblue" stroke="midnightblue" points="1412.53,-87.2 1421.17,-81.07 1410.59,-80.48 1412.53,-87.2"/>
</g>
<!-- Node18 -->
<g id="node18" class="node">
<title>Node18</title>
<g id="a_node18"><a xlink:title=" ">
<polygon fill="none" stroke="#bfbfbf" points="1510,-62 1510,-81 1627,-81 1627,-62 1510,-62"/>
<text text-anchor="middle" x="1568.5" y="-69" font-family="FreeSans.ttf" font-size="10.00">yarp/os/LogStream.h</text>
</a>
</g>
</g>
<!-- Node1&#45;&gt;Node18 -->
<g id="edge19" class="edge">
<title>Node1&#45;&gt;Node18</title>
<path fill="none" stroke="midnightblue" d="M1291.8,-123.49C1344.82,-114.87 1428.44,-100.87 1500.5,-87 1506.72,-85.8 1513.25,-84.49 1519.7,-83.15"/>
<polygon fill="midnightblue" stroke="midnightblue" points="1520.65,-86.53 1529.72,-81.05 1519.21,-79.68 1520.65,-86.53"/>
</g>
<!-- Node3 -->
<g id="node3" class="node">
<title>Node3</title>
<g id="a_node3"><a xlink:title=" ">
<polygon fill="none" stroke="#bfbfbf" points="331.5,-0.5 331.5,-19.5 465.5,-19.5 465.5,-0.5 331.5,-0.5"/>
<text text-anchor="middle" x="398.5" y="-7.5" font-family="FreeSans.ttf" font-size="10.00">yarp/dev/DeviceDriver.h</text>
</a>
</g>
</g>
<!-- Node2&#45;&gt;Node3 -->
<g id="edge2" class="edge">
<title>Node2&#45;&gt;Node3</title>
<path fill="none" stroke="midnightblue" d="M589.55,-61.98C550.3,-51.5 483.62,-33.71 440.33,-22.16"/>
<polygon fill="midnightblue" stroke="midnightblue" points="440.96,-18.71 430.39,-19.51 439.15,-25.47 440.96,-18.71"/>
</g>
<!-- Node4 -->
<g id="node4" class="node">
<title>Node4</title>
<g id="a_node4"><a xlink:title=" ">
<polygon fill="none" stroke="#bfbfbf" points="483.5,-0.5 483.5,-19.5 623.5,-19.5 623.5,-0.5 483.5,-0.5"/>
<text text-anchor="middle" x="553.5" y="-7.5" font-family="FreeSans.ttf" font-size="10.00">yarp/dev/IAnalogSensor.h</text>
</a>
</g>
</g>
<!-- Node2&#45;&gt;Node4 -->
<g id="edge3" class="edge">
<title>Node2&#45;&gt;Node4</title>
<path fill="none" stroke="midnightblue" d="M611.76,-61.98C601.15,-52.7 583.98,-37.67 571.02,-26.33"/>
<polygon fill="midnightblue" stroke="midnightblue" points="573.06,-23.46 563.22,-19.51 568.45,-28.73 573.06,-23.46"/>
</g>
<!-- Node5 -->
<g id="node5" class="node">
<title>Node5</title>
<g id="a_node5"><a xlink:title=" ">
<polygon fill="none" stroke="#bfbfbf" points="641.5,-0.5 641.5,-19.5 737.5,-19.5 737.5,-0.5 641.5,-0.5"/>
<text text-anchor="middle" x="689.5" y="-7.5" font-family="FreeSans.ttf" font-size="10.00">yarp/os/Stamp.h</text>
</a>
</g>
</g>
<!-- Node2&#45;&gt;Node5 -->
<g id="edge4" class="edge">
<title>Node2&#45;&gt;Node5</title>
<path fill="none" stroke="midnightblue" d="M631.24,-61.98C641.85,-52.7 659.02,-37.67 671.98,-26.33"/>
<polygon fill="midnightblue" stroke="midnightblue" points="674.55,-28.73 679.78,-19.51 669.94,-23.46 674.55,-28.73"/>
</g>
<!-- Node6 -->
<g id="node6" class="node">
<title>Node6</title>
<g id="a_node6"><a xlink:title=" ">
<polygon fill="none" stroke="#bfbfbf" points="0,-0.5 0,-19.5 149,-19.5 149,-0.5 0,-0.5"/>
<text text-anchor="middle" x="74.5" y="-7.5" font-family="FreeSans.ttf" font-size="10.00">yarp/dev/IPreciselyTimed.h</text>
</a>
</g>
</g>
<!-- Node2&#45;&gt;Node6 -->
<g id="edge5" class="edge">
<title>Node2&#45;&gt;Node6</title>
<path fill="none" stroke="midnightblue" d="M564.77,-64.33C468.33,-53.84 271.97,-32.48 159.21,-20.21"/>
<polygon fill="midnightblue" stroke="midnightblue" points="159.55,-16.73 149.23,-19.13 158.8,-23.69 159.55,-16.73"/>
</g>
<!-- Node7 -->
<g id="node7" class="node">
<title>Node7</title>
<g id="a_node7"><a xlink:title=" ">
<polygon fill="none" stroke="#bfbfbf" points="822,-0.5 822,-19.5 941,-19.5 941,-0.5 822,-0.5"/>
<text text-anchor="middle" x="881.5" y="-7.5" font-family="FreeSans.ttf" font-size="10.00">boost/shared_ptr.hpp</text>
</a>
</g>
</g>
<!-- Node2&#45;&gt;Node7 -->
<g id="edge6" class="edge">
<title>Node2&#45;&gt;Node7</title>
<path fill="none" stroke="midnightblue" d="M658.75,-61.98C704.99,-51.39 783.9,-33.34 834.32,-21.8"/>
<polygon fill="midnightblue" stroke="midnightblue" points="835.35,-25.15 844.32,-19.51 833.79,-18.33 835.35,-25.15"/>
</g>
<!-- Node8 -->
<g id="node8" class="node">
<title>Node8</title>
<g id="a_node8"><a xlink:title=" ">
<polygon fill="none" stroke="#bfbfbf" points="167.5,-0.5 167.5,-19.5 313.5,-19.5 313.5,-0.5 167.5,-0.5"/>
<text text-anchor="middle" x="240.5" y="-7.5" font-family="FreeSans.ttf" font-size="10.00">gazebo/common/Plugin.hh</text>
</a>
</g>
</g>
<!-- Node2&#45;&gt;Node8 -->
<g id="edge7" class="edge">
<title>Node2&#45;&gt;Node8</title>
<path fill="none" stroke="midnightblue" d="M566.91,-61.98C497.74,-51.17 378.67,-32.58 305.06,-21.08"/>
<polygon fill="midnightblue" stroke="midnightblue" points="305.41,-17.59 294.99,-19.51 304.33,-24.51 305.41,-17.59"/>
</g>
<!-- Node9 -->
<g id="node9" class="node">
<title>Node9</title>
<g id="a_node9"><a xlink:title=" ">
<polygon fill="none" stroke="#bfbfbf" points="755.5,-0.5 755.5,-19.5 803.5,-19.5 803.5,-0.5 755.5,-0.5"/>
<text text-anchor="middle" x="779.5" y="-7.5" font-family="FreeSans.ttf" font-size="10.00">mutex</text>
</a>
</g>
</g>
<!-- Node2&#45;&gt;Node9 -->
<g id="edge8" class="edge">
<title>Node2&#45;&gt;Node9</title>
<path fill="none" stroke="midnightblue" d="M644.14,-61.98C671.24,-51.77 716.81,-34.61 747.5,-23.05"/>
<polygon fill="midnightblue" stroke="midnightblue" points="748.78,-26.31 756.9,-19.51 746.31,-19.76 748.78,-26.31"/>
</g>
<!-- Node10&#45;&gt;Node7 -->
<g id="edge12" class="edge">
<title>Node10&#45;&gt;Node7</title>
<path fill="none" stroke="midnightblue" d="M987.73,-61.98C967.02,-52.03 932.55,-35.49 908.51,-23.96"/>
<polygon fill="midnightblue" stroke="midnightblue" points="909.76,-20.68 899.23,-19.51 906.73,-26.99 909.76,-20.68"/>
</g>
<!-- Node10&#45;&gt;Node9 -->
<g id="edge13" class="edge">
<title>Node10&#45;&gt;Node9</title>
<path fill="none" stroke="midnightblue" d="M972.35,-61.94C935.83,-52.48 875.11,-36.68 813.53,-20.26"/>
<polygon fill="midnightblue" stroke="midnightblue" points="814.21,-16.81 803.64,-17.62 812.4,-23.58 814.21,-16.81"/>
</g>
<!-- Node11 -->
<g id="node11" class="node">
<title>Node11</title>
<g id="a_node11"><a xlink:title=" ">
<polygon fill="none" stroke="#bfbfbf" points="1368.5,-0.5 1368.5,-19.5 1406.5,-19.5 1406.5,-0.5 1368.5,-0.5"/>
<text text-anchor="middle" x="1387.5" y="-7.5" font-family="FreeSans.ttf" font-size="10.00">map</text>
</a>
</g>
</g>
<!-- Node10&#45;&gt;Node11 -->
<g id="edge10" class="edge">
<title>Node10&#45;&gt;Node11</title>
<path fill="none" stroke="midnightblue" d="M1058.5,-61.96C1071.26,-59.96 1084.86,-57.86 1097.5,-56 1210.6,-39.32 1243.13,-45.71 1358.42,-19.9"/>
<polygon fill="midnightblue" stroke="midnightblue" points="1359.37,-23.27 1368.34,-17.64 1357.82,-16.45 1359.37,-23.27"/>
</g>
<!-- Node12 -->
<g id="node12" class="node">
<title>Node12</title>
<g id="a_node12"><a xlink:title=" ">
<polygon fill="none" stroke="#bfbfbf" points="959,-0.5 959,-19.5 1052,-19.5 1052,-0.5 959,-0.5"/>
<text text-anchor="middle" x="1005.5" y="-7.5" font-family="FreeSans.ttf" font-size="10.00">sdf/sdf_config.h</text>
</a>
</g>
</g>
<!-- Node10&#45;&gt;Node12 -->
<g id="edge11" class="edge">
<title>Node10&#45;&gt;Node12</title>
<path fill="none" stroke="midnightblue" d="M1005.5,-61.98C1005.5,-53.58 1005.5,-40.48 1005.5,-29.66"/>
<polygon fill="midnightblue" stroke="midnightblue" points="1009,-29.51 1005.5,-19.51 1002,-29.51 1009,-29.51"/>
</g>
<!-- Node13 -->
<g id="node13" class="node">
<title>Node13</title>
<g id="a_node13"><a xlink:title=" ">
<polygon fill="none" stroke="#bfbfbf" points="1070.5,-0.5 1070.5,-19.5 1192.5,-19.5 1192.5,-0.5 1070.5,-0.5"/>
<text text-anchor="middle" x="1131.5" y="-7.5" font-family="FreeSans.ttf" font-size="10.00">yarp/dev/PolyDriver.h</text>
</a>
</g>
</g>
<!-- Node10&#45;&gt;Node13 -->
<g id="edge14" class="edge">
<title>Node10&#45;&gt;Node13</title>
<path fill="none" stroke="midnightblue" d="M1023.55,-61.98C1044.7,-51.99 1079.94,-35.35 1104.38,-23.81"/>
<polygon fill="midnightblue" stroke="midnightblue" points="1105.93,-26.94 1113.48,-19.51 1102.94,-20.61 1105.93,-26.94"/>
</g>
<!-- Node14 -->
<g id="node14" class="node">
<title>Node14</title>
<g id="a_node14"><a xlink:title=" ">
<polygon fill="none" stroke="#bfbfbf" points="1210.5,-0.5 1210.5,-19.5 1350.5,-19.5 1350.5,-0.5 1210.5,-0.5"/>
<text text-anchor="middle" x="1280.5" y="-7.5" font-family="FreeSans.ttf" font-size="10.00">yarp/dev/PolyDriverList.h</text>
</a>
</g>
</g>
<!-- Node10&#45;&gt;Node14 -->
<g id="edge15" class="edge">
<title>Node10&#45;&gt;Node14</title>
<path fill="none" stroke="midnightblue" d="M1044.9,-61.98C1094.01,-51.35 1177.97,-33.18 1231.27,-21.65"/>
<polygon fill="midnightblue" stroke="midnightblue" points="1232.14,-25.04 1241.17,-19.51 1230.66,-18.2 1232.14,-25.04"/>
</g>
</g>
</svg>
