<?xml version="1.0" encoding="UTF-8" standalone="no"?>
<!DOCTYPE svg PUBLIC "-//W3C//DTD SVG 1.1//EN"
 "http://www.w3.org/Graphics/SVG/1.1/DTD/svg11.dtd">
<!-- Generated by graphviz version 3.0.0 (20220315.2325)
 -->
<!-- Title: ForceTorqueDriver.cpp Pages: 1 -->
<svg width="1700pt" height="151pt"
 viewBox="0.00 0.00 1699.50 151.00" xmlns="http://www.w3.org/2000/svg" xmlns:xlink="http://www.w3.org/1999/xlink">
<g id="graph0" class="graph" transform="scale(1 1) rotate(0) translate(4 147)">
<title>ForceTorqueDriver.cpp</title>
<!-- Node1 -->
<g id="node1" class="node">
<title>Node1</title>
<g id="a_node1"><a xlink:title=" ">
<polygon fill="#bfbfbf" stroke="black" points="1240.5,-123.5 1240.5,-142.5 1365.5,-142.5 1365.5,-123.5 1240.5,-123.5"/>
<text text-anchor="middle" x="1303" y="-130.5" font-family="FreeSans.ttf" font-size="10.00">ForceTorqueDriver.cpp</text>
</a>
</g>
</g>
<!-- Node2 -->
<g id="node2" class="node">
<title>Node2</title>
<g id="a_node2"><a xlink:href="ForceTorqueDriver_8h.html" target="_top" xlink:title=" ">
<polygon fill="none" stroke="black" points="535.5,-62 535.5,-81 648.5,-81 648.5,-62 535.5,-62"/>
<text text-anchor="middle" x="592" y="-69" font-family="FreeSans.ttf" font-size="10.00">ForceTorqueDriver.h</text>
</a>
</g>
</g>
<!-- Node1&#45;&gt;Node2 -->
<g id="edge1" class="edge">
<title>Node1&#45;&gt;Node2</title>
<path fill="none" stroke="midnightblue" d="M1240.22,-126.75C1106.76,-115.58 795.9,-89.56 658.89,-78.1"/>
<polygon fill="midnightblue" stroke="midnightblue" points="658.8,-74.58 648.54,-77.23 658.22,-81.55 658.8,-74.58"/>
</g>
<!-- Node10 -->
<g id="node10" class="node">
<title>Node10</title>
<g id="a_node10"><a xlink:href="Handler_8hh.html" target="_top" xlink:title=" ">
<polygon fill="none" stroke="black" points="988,-62 988,-81 1152,-81 1152,-62 988,-62"/>
<text text-anchor="middle" x="1070" y="-69" font-family="FreeSans.ttf" font-size="10.00">GazeboYarpPlugins/Handler.hh</text>
</a>
</g>
</g>
<!-- Node1&#45;&gt;Node10 -->
<g id="edge9" class="edge">
<title>Node1&#45;&gt;Node10</title>
<path fill="none" stroke="midnightblue" d="M1269.62,-123.48C1228.44,-112.96 1158.35,-95.06 1113.13,-83.51"/>
<polygon fill="midnightblue" stroke="midnightblue" points="1113.88,-80.09 1103.32,-81.01 1112.14,-86.87 1113.88,-80.09"/>
</g>
<!-- Node16 -->
<g id="node16" class="node">
<title>Node16</title>
<g id="a_node16"><a xlink:title=" ">
<polygon fill="none" stroke="#bfbfbf" points="1170.5,-62 1170.5,-81 1283.5,-81 1283.5,-62 1170.5,-62"/>
<text text-anchor="middle" x="1227" y="-69" font-family="FreeSans.ttf" font-size="10.00">boost/bind/bind.hpp</text>
</a>
</g>
</g>
<!-- Node1&#45;&gt;Node16 -->
<g id="edge17" class="edge">
<title>Node1&#45;&gt;Node16</title>
<path fill="none" stroke="midnightblue" d="M1292.11,-123.48C1280.03,-114.02 1260.33,-98.6 1245.76,-87.19"/>
<polygon fill="midnightblue" stroke="midnightblue" points="1247.9,-84.42 1237.87,-81.01 1243.59,-89.93 1247.9,-84.42"/>
</g>
<!-- Node17 -->
<g id="node17" class="node">
<title>Node17</title>
<g id="a_node17"><a xlink:title=" ">
<polygon fill="none" stroke="#bfbfbf" points="1302,-56.5 1302,-86.5 1456,-86.5 1456,-56.5 1302,-56.5"/>
<text text-anchor="start" x="1310" y="-74.5" font-family="FreeSans.ttf" font-size="10.00">gazebo/sensors/ForceTorque</text>
<text text-anchor="middle" x="1379" y="-63.5" font-family="FreeSans.ttf" font-size="10.00">Sensor.hh</text>
</a>
</g>
</g>
<!-- Node1&#45;&gt;Node17 -->
<g id="edge18" class="edge">
<title>Node1&#45;&gt;Node17</title>
<path fill="none" stroke="midnightblue" d="M1313.89,-123.48C1324.09,-115.49 1339.72,-103.25 1353.11,-92.77"/>
<polygon fill="midnightblue" stroke="midnightblue" points="1355.37,-95.44 1361.09,-86.52 1351.06,-89.93 1355.37,-95.44"/>
</g>
<!-- Node18 -->
<g id="node18" class="node">
<title>Node18</title>
<g id="a_node18"><a xlink:title=" ">
<polygon fill="none" stroke="#bfbfbf" points="1474,-62 1474,-81 1556,-81 1556,-62 1474,-62"/>
<text text-anchor="middle" x="1515" y="-69" font-family="FreeSans.ttf" font-size="10.00">yarp/os/Log.h</text>
</a>
</g>
</g>
<!-- Node1&#45;&gt;Node18 -->
<g id="edge19" class="edge">
<title>Node1&#45;&gt;Node18</title>
<path fill="none" stroke="midnightblue" d="M1334.09,-123.48C1366.72,-114.5 1419.51,-99.91 1465,-87 1468.56,-85.99 1472.25,-84.93 1475.95,-83.87"/>
<polygon fill="midnightblue" stroke="midnightblue" points="1477.03,-87.2 1485.67,-81.07 1475.09,-80.48 1477.03,-87.2"/>
</g>
<!-- Node19 -->
<g id="node19" class="node">
<title>Node19</title>
<g id="a_node19"><a xlink:title=" ">
<polygon fill="none" stroke="#bfbfbf" points="1574.5,-62 1574.5,-81 1691.5,-81 1691.5,-62 1574.5,-62"/>
<text text-anchor="middle" x="1633" y="-69" font-family="FreeSans.ttf" font-size="10.00">yarp/os/LogStream.h</text>
</a>
</g>
</g>
<!-- Node1&#45;&gt;Node19 -->
<g id="edge20" class="edge">
<title>Node1&#45;&gt;Node19</title>
<path fill="none" stroke="midnightblue" d="M1356.3,-123.49C1409.32,-114.87 1492.94,-100.87 1565,-87 1571.22,-85.8 1577.75,-84.49 1584.2,-83.15"/>
<polygon fill="midnightblue" stroke="midnightblue" points="1585.15,-86.53 1594.22,-81.05 1583.71,-79.68 1585.15,-86.53"/>
</g>
<!-- Node3 -->
<g id="node3" class="node">
<title>Node3</title>
<g id="a_node3"><a xlink:title=" ">
<polygon fill="none" stroke="#bfbfbf" points="604,-0.5 604,-19.5 738,-19.5 738,-0.5 604,-0.5"/>
<text text-anchor="middle" x="671" y="-7.5" font-family="FreeSans.ttf" font-size="10.00">yarp/dev/DeviceDriver.h</text>
</a>
</g>
</g>
<!-- Node2&#45;&gt;Node3 -->
<g id="edge2" class="edge">
<title>Node2&#45;&gt;Node3</title>
<path fill="none" stroke="midnightblue" d="M603.32,-61.98C615.87,-52.52 636.35,-37.1 651.5,-25.69"/>
<polygon fill="midnightblue" stroke="midnightblue" points="653.82,-28.32 659.7,-19.51 649.61,-22.73 653.82,-28.32"/>
</g>
<!-- Node4 -->
<g id="node4" class="node">
<title>Node4</title>
<g id="a_node4"><a xlink:title=" ">
<polygon fill="none" stroke="#bfbfbf" points="0,-0.5 0,-19.5 140,-19.5 140,-0.5 0,-0.5"/>
<text text-anchor="middle" x="70" y="-7.5" font-family="FreeSans.ttf" font-size="10.00">yarp/dev/IAnalogSensor.h</text>
</a>
</g>
</g>
<!-- Node2&#45;&gt;Node4 -->
<g id="edge3" class="edge">
<title>Node2&#45;&gt;Node4</title>
<path fill="none" stroke="midnightblue" d="M535.14,-64.02C441.97,-53.4 256.5,-32.26 150.07,-20.13"/>
<polygon fill="midnightblue" stroke="midnightblue" points="150.35,-16.64 140.02,-18.98 149.56,-23.59 150.35,-16.64"/>
</g>
<!-- Node5 -->
<g id="node5" class="node">
<title>Node5</title>
<g id="a_node5"><a xlink:title=" ">
<polygon fill="none" stroke="#bfbfbf" points="158,-0.5 158,-19.5 254,-19.5 254,-0.5 158,-0.5"/>
<text text-anchor="middle" x="206" y="-7.5" font-family="FreeSans.ttf" font-size="10.00">yarp/os/Stamp.h</text>
</a>
</g>
</g>
<!-- Node2&#45;&gt;Node5 -->
<g id="edge4" class="edge">
<title>Node2&#45;&gt;Node5</title>
<path fill="none" stroke="midnightblue" d="M536.1,-62C472.75,-52.34 366.08,-36.03 264.34,-20.2"/>
<polygon fill="midnightblue" stroke="midnightblue" points="264.62,-16.71 254.2,-18.63 263.54,-23.62 264.62,-16.71"/>
</g>
<!-- Node6 -->
<g id="node6" class="node">
<title>Node6</title>
<g id="a_node6"><a xlink:title=" ">
<polygon fill="none" stroke="#bfbfbf" points="272.5,-0.5 272.5,-19.5 421.5,-19.5 421.5,-0.5 272.5,-0.5"/>
<text text-anchor="middle" x="347" y="-7.5" font-family="FreeSans.ttf" font-size="10.00">yarp/dev/IPreciselyTimed.h</text>
</a>
</g>
</g>
<!-- Node2&#45;&gt;Node6 -->
<g id="edge5" class="edge">
<title>Node2&#45;&gt;Node6</title>
<path fill="none" stroke="midnightblue" d="M556.9,-61.98C513.51,-51.44 439.59,-33.49 392.05,-21.94"/>
<polygon fill="midnightblue" stroke="midnightblue" points="392.58,-18.47 382.04,-19.51 390.93,-25.27 392.58,-18.47"/>
</g>
<!-- Node7 -->
<g id="node7" class="node">
<title>Node7</title>
<g id="a_node7"><a xlink:title=" ">
<polygon fill="none" stroke="#bfbfbf" points="756.5,-0.5 756.5,-19.5 875.5,-19.5 875.5,-0.5 756.5,-0.5"/>
<text text-anchor="middle" x="816" y="-7.5" font-family="FreeSans.ttf" font-size="10.00">boost/shared_ptr.hpp</text>
</a>
</g>
</g>
<!-- Node2&#45;&gt;Node7 -->
<g id="edge6" class="edge">
<title>Node2&#45;&gt;Node7</title>
<path fill="none" stroke="midnightblue" d="M624.09,-61.98C663.6,-51.48 730.78,-33.64 774.26,-22.09"/>
<polygon fill="midnightblue" stroke="midnightblue" points="775.2,-25.46 783.97,-19.51 773.4,-18.69 775.2,-25.46"/>
</g>
<!-- Node8 -->
<g id="node8" class="node">
<title>Node8</title>
<g id="a_node8"><a xlink:title=" ">
<polygon fill="none" stroke="#bfbfbf" points="440,-0.5 440,-19.5 586,-19.5 586,-0.5 440,-0.5"/>
<text text-anchor="middle" x="513" y="-7.5" font-family="FreeSans.ttf" font-size="10.00">gazebo/common/Plugin.hh</text>
</a>
</g>
</g>
<!-- Node2&#45;&gt;Node8 -->
<g id="edge7" class="edge">
<title>Node2&#45;&gt;Node8</title>
<path fill="none" stroke="midnightblue" d="M580.68,-61.98C568.13,-52.52 547.65,-37.1 532.5,-25.69"/>
<polygon fill="midnightblue" stroke="midnightblue" points="534.39,-22.73 524.3,-19.51 530.18,-28.32 534.39,-22.73"/>
</g>
<!-- Node9 -->
<g id="node9" class="node">
<title>Node9</title>
<g id="a_node9"><a xlink:title=" ">
<polygon fill="none" stroke="#bfbfbf" points="894,-0.5 894,-19.5 942,-19.5 942,-0.5 894,-0.5"/>
<text text-anchor="middle" x="918" y="-7.5" font-family="FreeSans.ttf" font-size="10.00">mutex</text>
</a>
</g>
</g>
<!-- Node2&#45;&gt;Node9 -->
<g id="edge8" class="edge">
<title>Node2&#45;&gt;Node9</title>
<path fill="none" stroke="midnightblue" d="M648.53,-62.22C707.57,-53.23 802.7,-37.75 884,-20 884.1,-19.98 884.2,-19.96 884.3,-19.93"/>
<polygon fill="midnightblue" stroke="midnightblue" points="884.99,-23.37 893.92,-17.65 883.38,-16.56 884.99,-23.37"/>
</g>
<!-- Node10&#45;&gt;Node7 -->
<g id="edge12" class="edge">
<title>Node10&#45;&gt;Node7</title>
<path fill="none" stroke="midnightblue" d="M1033.61,-61.98C988.43,-51.39 911.35,-33.34 862.09,-21.8"/>
<polygon fill="midnightblue" stroke="midnightblue" points="862.86,-18.38 852.32,-19.51 861.26,-25.2 862.86,-18.38"/>
</g>
<!-- Node10&#45;&gt;Node9 -->
<g id="edge13" class="edge">
<title>Node10&#45;&gt;Node9</title>
<path fill="none" stroke="midnightblue" d="M1048.22,-61.98C1022.26,-51.81 978.69,-34.76 949.17,-23.2"/>
<polygon fill="midnightblue" stroke="midnightblue" points="950.33,-19.9 939.74,-19.51 947.77,-26.41 950.33,-19.9"/>
</g>
<!-- Node11 -->
<g id="node11" class="node">
<title>Node11</title>
<g id="a_node11"><a xlink:title=" ">
<polygon fill="none" stroke="#bfbfbf" points="1537,-0.5 1537,-19.5 1575,-19.5 1575,-0.5 1537,-0.5"/>
<text text-anchor="middle" x="1556" y="-7.5" font-family="FreeSans.ttf" font-size="10.00">map</text>
</a>
</g>
</g>
<!-- Node10&#45;&gt;Node11 -->
<g id="edge10" class="edge">
<title>Node10&#45;&gt;Node11</title>
<path fill="none" stroke="midnightblue" d="M1120.54,-61.99C1133.99,-59.87 1148.53,-57.72 1162,-56 1321.24,-35.66 1366.84,-53.37 1526.77,-20.09"/>
<polygon fill="midnightblue" stroke="midnightblue" points="1527.91,-23.42 1536.97,-17.93 1526.46,-16.58 1527.91,-23.42"/>
</g>
<!-- Node12 -->
<g id="node12" class="node">
<title>Node12</title>
<g id="a_node12"><a xlink:title=" ">
<polygon fill="none" stroke="#bfbfbf" points="960.5,-0.5 960.5,-19.5 1053.5,-19.5 1053.5,-0.5 960.5,-0.5"/>
<text text-anchor="middle" x="1007" y="-7.5" font-family="FreeSans.ttf" font-size="10.00">sdf/sdf_config.h</text>
</a>
</g>
</g>
<!-- Node10&#45;&gt;Node12 -->
<g id="edge11" class="edge">
<title>Node10&#45;&gt;Node12</title>
<path fill="none" stroke="midnightblue" d="M1060.97,-61.98C1051.24,-52.78 1035.54,-37.96 1023.58,-26.66"/>
<polygon fill="midnightblue" stroke="midnightblue" points="1025.68,-23.83 1016.01,-19.51 1020.88,-28.92 1025.68,-23.83"/>
</g>
<!-- Node13 -->
<g id="node13" class="node">
<title>Node13</title>
<g id="a_node13"><a xlink:title=" ">
<polygon fill="none" stroke="#bfbfbf" points="1072,-0.5 1072,-19.5 1194,-19.5 1194,-0.5 1072,-0.5"/>
<text text-anchor="middle" x="1133" y="-7.5" font-family="FreeSans.ttf" font-size="10.00">yarp/dev/PolyDriver.h</text>
</a>
</g>
</g>
<!-- Node10&#45;&gt;Node13 -->
<g id="edge14" class="edge">
<title>Node10&#45;&gt;Node13</title>
<path fill="none" stroke="midnightblue" d="M1079.03,-61.98C1088.76,-52.78 1104.46,-37.96 1116.42,-26.66"/>
<polygon fill="midnightblue" stroke="midnightblue" points="1119.12,-28.92 1123.99,-19.51 1114.32,-23.83 1119.12,-28.92"/>
</g>
<!-- Node14 -->
<g id="node14" class="node">
<title>Node14</title>
<g id="a_node14"><a xlink:title=" ">
<polygon fill="none" stroke="#bfbfbf" points="1212,-0.5 1212,-19.5 1352,-19.5 1352,-0.5 1212,-0.5"/>
<text text-anchor="middle" x="1282" y="-7.5" font-family="FreeSans.ttf" font-size="10.00">yarp/dev/PolyDriverList.h</text>
</a>
</g>
</g>
<!-- Node10&#45;&gt;Node14 -->
<g id="edge15" class="edge">
<title>Node10&#45;&gt;Node14</title>
<path fill="none" stroke="midnightblue" d="M1100.37,-61.98C1137.61,-51.53 1200.81,-33.79 1241.98,-22.23"/>
<polygon fill="midnightblue" stroke="midnightblue" points="1243,-25.58 1251.68,-19.51 1241.11,-18.84 1243,-25.58"/>
</g>
<!-- Node15 -->
<g id="node15" class="node">
<title>Node15</title>
<g id="a_node15"><a xlink:title=" ">
<polygon fill="none" stroke="#bfbfbf" points="1370.5,-0.5 1370.5,-19.5 1519.5,-19.5 1519.5,-0.5 1370.5,-0.5"/>
<text text-anchor="middle" x="1445" y="-7.5" font-family="FreeSans.ttf" font-size="10.00">gazebo/common/Events.hh</text>
</a>
</g>
</g>
<!-- Node10&#45;&gt;Node15 -->
<g id="edge16" class="edge">
<title>Node10&#45;&gt;Node15</title>
<path fill="none" stroke="midnightblue" d="M1123.73,-61.98C1191.81,-51.17 1309,-32.58 1381.45,-21.08"/>
<polygon fill="midnightblue" stroke="midnightblue" points="1382.04,-24.53 1391.37,-19.51 1380.95,-17.62 1382.04,-24.53"/>
</g>
</g>
</svg>
