<?xml version="1.0" encoding="UTF-8" standalone="no"?>
<!DOCTYPE svg PUBLIC "-//W3C//DTD SVG 1.1//EN"
 "http://www.w3.org/Graphics/SVG/1.1/DTD/svg11.dtd">
<!-- Generated by graphviz version 5.0.1 (20220821.0811)
 -->
<!-- Title: ForceTorque.cc Pages: 1 -->
<svg width="2375pt" height="162pt"
 viewBox="0.00 0.00 2374.50 162.00" xmlns="http://www.w3.org/2000/svg" xmlns:xlink="http://www.w3.org/1999/xlink">
<g id="graph0" class="graph" transform="scale(1 1) rotate(0) translate(4 158)">
<title>ForceTorque.cc</title>
<!-- Node1 -->
<g id="node1" class="node">
<title>Node1</title>
<g id="a_node1"><a xlink:title=" ">
<polygon fill="#bfbfbf" stroke="black" points="1525.5,-134.5 1525.5,-153.5 1614.5,-153.5 1614.5,-134.5 1525.5,-134.5"/>
<text text-anchor="middle" x="1570" y="-141.5" font-family="FreeSans.ttf" font-size="10.00">ForceTorque.cc</text>
</a>
</g>
</g>
<!-- Node2 -->
<g id="node2" class="node">
<title>Node2</title>
<g id="a_node2"><a xlink:href="ForceTorque_8hh.html" target="_top" xlink:title=" ">
<polygon fill="none" stroke="black" points="117,-73 117,-92 207,-92 207,-73 117,-73"/>
<text text-anchor="middle" x="162" y="-80" font-family="FreeSans.ttf" font-size="10.00">ForceTorque.hh</text>
</a>
</g>
</g>
<!-- Node1&#45;&gt;Node2 -->
<g id="edge1" class="edge">
<title>Node1&#45;&gt;Node2</title>
<path fill="none" stroke="midnightblue" d="M1525.41,-142.89C1321.55,-142.17 477.13,-136.87 216,-98 210.42,-97.17 204.59,-95.97 198.91,-94.61"/>
<polygon fill="midnightblue" stroke="midnightblue" points="199.5,-91.14 188.94,-92.03 197.75,-97.92 199.5,-91.14"/>
</g>
<!-- Node4 -->
<g id="node4" class="node">
<title>Node4</title>
<g id="a_node4"><a xlink:title=" ">
<polygon fill="none" stroke="#bfbfbf" points="0,-6 0,-25 122,-25 122,-6 0,-6"/>
<text text-anchor="middle" x="61" y="-13" font-family="FreeSans.ttf" font-size="10.00">yarp/dev/PolyDriver.h</text>
</a>
</g>
</g>
<!-- Node1&#45;&gt;Node4 -->
<g id="edge31" class="edge">
<title>Node1&#45;&gt;Node4</title>
<path fill="none" stroke="midnightblue" d="M1525.17,-142.84C1286.14,-141.85 170.24,-135.24 108,-98 84.93,-84.19 72.09,-54.45 65.87,-34.97"/>
<polygon fill="midnightblue" stroke="midnightblue" points="69.16,-33.75 63.01,-25.12 62.44,-35.7 69.16,-33.75"/>
</g>
<!-- Node6 -->
<g id="node6" class="node">
<title>Node6</title>
<g id="a_node6"><a xlink:href="ForceTorqueDriver_8h.html" target="_top" xlink:title=" ">
<polygon fill="none" stroke="black" points="879.5,-73 879.5,-92 992.5,-92 992.5,-73 879.5,-73"/>
<text text-anchor="middle" x="936" y="-80" font-family="FreeSans.ttf" font-size="10.00">ForceTorqueDriver.h</text>
</a>
</g>
</g>
<!-- Node1&#45;&gt;Node6 -->
<g id="edge5" class="edge">
<title>Node1&#45;&gt;Node6</title>
<path fill="none" stroke="midnightblue" d="M1525.42,-138.82C1415.78,-128.53 1132.55,-101.95 1002.76,-89.77"/>
<polygon fill="midnightblue" stroke="midnightblue" points="1002.84,-86.26 992.56,-88.81 1002.19,-93.23 1002.84,-86.26"/>
</g>
<!-- Node14 -->
<g id="node14" class="node">
<title>Node14</title>
<g id="a_node14"><a xlink:href="Handler_8hh.html" target="_top" xlink:title=" ">
<polygon fill="none" stroke="black" points="1391,-73 1391,-92 1555,-92 1555,-73 1391,-73"/>
<text text-anchor="middle" x="1473" y="-80" font-family="FreeSans.ttf" font-size="10.00">GazeboYarpPlugins/Handler.hh</text>
</a>
</g>
</g>
<!-- Node1&#45;&gt;Node14 -->
<g id="edge14" class="edge">
<title>Node1&#45;&gt;Node14</title>
<path fill="none" stroke="midnightblue" d="M1556.1,-134.48C1540.33,-124.8 1514.36,-108.87 1495.65,-97.39"/>
<polygon fill="midnightblue" stroke="midnightblue" points="1497.23,-94.25 1486.87,-92.01 1493.57,-100.22 1497.23,-94.25"/>
</g>
<!-- Node19 -->
<g id="node19" class="node">
<title>Node19</title>
<g id="a_node19"><a xlink:href="common_8h.html" target="_top" xlink:title=" ">
<polygon fill="none" stroke="black" points="225,-73 225,-92 389,-92 389,-73 225,-73"/>
<text text-anchor="middle" x="307" y="-80" font-family="FreeSans.ttf" font-size="10.00">GazeboYarpPlugins/common.h</text>
</a>
</g>
</g>
<!-- Node1&#45;&gt;Node19 -->
<g id="edge22" class="edge">
<title>Node1&#45;&gt;Node19</title>
<path fill="none" stroke="midnightblue" d="M1525.42,-140.9C1342.99,-132.31 651.16,-99.71 399.36,-87.85"/>
<polygon fill="midnightblue" stroke="midnightblue" points="399.3,-84.34 389.14,-87.37 398.97,-91.34 399.3,-84.34"/>
</g>
<!-- Node21 -->
<g id="node21" class="node">
<title>Node21</title>
<g id="a_node21"><a xlink:href="ConfHelpers_8hh.html" target="_top" xlink:title=" ">
<polygon fill="none" stroke="black" points="1573.5,-73 1573.5,-92 1760.5,-92 1760.5,-73 1573.5,-73"/>
<text text-anchor="middle" x="1667" y="-80" font-family="FreeSans.ttf" font-size="10.00">GazeboYarpPlugins/ConfHelpers.hh</text>
</a>
</g>
</g>
<!-- Node1&#45;&gt;Node21 -->
<g id="edge25" class="edge">
<title>Node1&#45;&gt;Node21</title>
<path fill="none" stroke="midnightblue" d="M1583.9,-134.48C1599.67,-124.8 1625.64,-108.87 1644.35,-97.39"/>
<polygon fill="midnightblue" stroke="midnightblue" points="1646.43,-100.22 1653.13,-92.01 1642.77,-94.25 1646.43,-100.22"/>
</g>
<!-- Node24 -->
<g id="node24" class="node">
<title>Node24</title>
<g id="a_node24"><a xlink:title=" ">
<polygon fill="none" stroke="#bfbfbf" points="1779,-67.5 1779,-97.5 1933,-97.5 1933,-67.5 1779,-67.5"/>
<text text-anchor="start" x="1787" y="-85.5" font-family="FreeSans.ttf" font-size="10.00">gazebo/sensors/ForceTorque</text>
<text text-anchor="middle" x="1856" y="-74.5" font-family="FreeSans.ttf" font-size="10.00">Sensor.hh</text>
</a>
</g>
</g>
<!-- Node1&#45;&gt;Node24 -->
<g id="edge30" class="edge">
<title>Node1&#45;&gt;Node24</title>
<path fill="none" stroke="midnightblue" d="M1610.98,-134.48C1654.6,-125.4 1724.65,-110.83 1778.7,-99.58"/>
<polygon fill="midnightblue" stroke="midnightblue" points="1779.52,-102.99 1788.6,-97.52 1778.09,-96.13 1779.52,-102.99"/>
</g>
<!-- Node25 -->
<g id="node25" class="node">
<title>Node25</title>
<g id="a_node25"><a xlink:title=" ">
<polygon fill="none" stroke="#bfbfbf" points="1951.5,-73 1951.5,-92 2106.5,-92 2106.5,-73 1951.5,-73"/>
<text text-anchor="middle" x="2029" y="-80" font-family="FreeSans.ttf" font-size="10.00">yarp/dev/IMultipleWrapper.h</text>
</a>
</g>
</g>
<!-- Node1&#45;&gt;Node25 -->
<g id="edge32" class="edge">
<title>Node1&#45;&gt;Node25</title>
<path fill="none" stroke="midnightblue" d="M1614.75,-138.24C1684.7,-130.66 1824.16,-114.94 1942,-98 1951.13,-96.69 1960.77,-95.19 1970.19,-93.67"/>
<polygon fill="midnightblue" stroke="midnightblue" points="1970.98,-97.09 1980.29,-92.01 1969.85,-90.18 1970.98,-97.09"/>
</g>
<!-- Node26 -->
<g id="node26" class="node">
<title>Node26</title>
<g id="a_node26"><a xlink:title=" ">
<polygon fill="none" stroke="#bfbfbf" points="2125,-73 2125,-92 2231,-92 2231,-73 2125,-73"/>
<text text-anchor="middle" x="2178" y="-80" font-family="FreeSans.ttf" font-size="10.00">yarp/os/Network.h</text>
</a>
</g>
</g>
<!-- Node1&#45;&gt;Node26 -->
<g id="edge33" class="edge">
<title>Node1&#45;&gt;Node26</title>
<path fill="none" stroke="midnightblue" d="M1614.85,-141.54C1708.49,-138.01 1931.37,-127.04 2116,-98 2122.38,-97 2129.07,-95.7 2135.61,-94.29"/>
<polygon fill="midnightblue" stroke="midnightblue" points="2136.7,-97.63 2145.68,-92.01 2135.15,-90.8 2136.7,-97.63"/>
</g>
<!-- Node27 -->
<g id="node27" class="node">
<title>Node27</title>
<g id="a_node27"><a xlink:title=" ">
<polygon fill="none" stroke="#bfbfbf" points="2249.5,-73 2249.5,-92 2366.5,-92 2366.5,-73 2249.5,-73"/>
<text text-anchor="middle" x="2308" y="-80" font-family="FreeSans.ttf" font-size="10.00">yarp/os/LogStream.h</text>
</a>
</g>
</g>
<!-- Node1&#45;&gt;Node27 -->
<g id="edge34" class="edge">
<title>Node1&#45;&gt;Node27</title>
<path fill="none" stroke="midnightblue" d="M1614.52,-142.21C1722.35,-139.81 2005.9,-130.65 2240,-98 2247.32,-96.98 2255.02,-95.62 2262.51,-94.14"/>
<polygon fill="midnightblue" stroke="midnightblue" points="2263.44,-97.52 2272.53,-92.07 2262.02,-90.66 2263.44,-97.52"/>
</g>
<!-- Node3 -->
<g id="node3" class="node">
<title>Node3</title>
<g id="a_node3"><a xlink:title=" ">
<polygon fill="none" stroke="#bfbfbf" points="268,-6 268,-25 414,-25 414,-6 268,-6"/>
<text text-anchor="middle" x="341" y="-13" font-family="FreeSans.ttf" font-size="10.00">gazebo/common/Plugin.hh</text>
</a>
</g>
</g>
<!-- Node2&#45;&gt;Node3 -->
<g id="edge2" class="edge">
<title>Node2&#45;&gt;Node3</title>
<path fill="none" stroke="midnightblue" d="M185.77,-72.87C217.15,-61.47 272.56,-41.35 307.99,-28.49"/>
<polygon fill="midnightblue" stroke="midnightblue" points="309.21,-31.77 317.42,-25.06 306.82,-25.19 309.21,-31.77"/>
</g>
<!-- Node2&#45;&gt;Node4 -->
<g id="edge3" class="edge">
<title>Node2&#45;&gt;Node4</title>
<path fill="none" stroke="midnightblue" d="M148.38,-72.73C131.57,-61.92 102.77,-43.38 82.86,-30.57"/>
<polygon fill="midnightblue" stroke="midnightblue" points="84.71,-27.6 74.41,-25.13 80.92,-33.48 84.71,-27.6"/>
</g>
<!-- Node5 -->
<g id="node5" class="node">
<title>Node5</title>
<g id="a_node5"><a xlink:title=" ">
<polygon fill="none" stroke="#bfbfbf" points="140,-6 140,-25 184,-25 184,-6 140,-6"/>
<text text-anchor="middle" x="162" y="-13" font-family="FreeSans.ttf" font-size="10.00">string</text>
</a>
</g>
</g>
<!-- Node2&#45;&gt;Node5 -->
<g id="edge4" class="edge">
<title>Node2&#45;&gt;Node5</title>
<path fill="none" stroke="midnightblue" d="M162,-72.73C162,-63.18 162,-47.62 162,-35.28"/>
<polygon fill="midnightblue" stroke="midnightblue" points="165.5,-35.13 162,-25.13 158.5,-35.13 165.5,-35.13"/>
</g>
<!-- Node6&#45;&gt;Node3 -->
<g id="edge12" class="edge">
<title>Node6&#45;&gt;Node3</title>
<path fill="none" stroke="midnightblue" d="M879.28,-77.35C784.52,-70.1 588.13,-53.69 423,-31 414.15,-29.78 404.81,-28.31 395.71,-26.78"/>
<polygon fill="midnightblue" stroke="midnightblue" points="396.04,-23.28 385.59,-25.03 394.85,-30.18 396.04,-23.28"/>
</g>
<!-- Node7 -->
<g id="node7" class="node">
<title>Node7</title>
<g id="a_node7"><a xlink:title=" ">
<polygon fill="none" stroke="#bfbfbf" points="714,-6 714,-25 848,-25 848,-6 714,-6"/>
<text text-anchor="middle" x="781" y="-13" font-family="FreeSans.ttf" font-size="10.00">yarp/dev/DeviceDriver.h</text>
</a>
</g>
</g>
<!-- Node6&#45;&gt;Node7 -->
<g id="edge6" class="edge">
<title>Node6&#45;&gt;Node7</title>
<path fill="none" stroke="midnightblue" d="M915.42,-72.87C888.67,-61.65 841.75,-41.98 811.03,-29.09"/>
<polygon fill="midnightblue" stroke="midnightblue" points="812.24,-25.81 801.67,-25.17 809.54,-32.26 812.24,-25.81"/>
</g>
<!-- Node8 -->
<g id="node8" class="node">
<title>Node8</title>
<g id="a_node8"><a xlink:title=" ">
<polygon fill="none" stroke="#bfbfbf" points="866,-6 866,-25 1006,-25 1006,-6 866,-6"/>
<text text-anchor="middle" x="936" y="-13" font-family="FreeSans.ttf" font-size="10.00">yarp/dev/IAnalogSensor.h</text>
</a>
</g>
</g>
<!-- Node6&#45;&gt;Node8 -->
<g id="edge7" class="edge">
<title>Node6&#45;&gt;Node8</title>
<path fill="none" stroke="midnightblue" d="M936,-72.73C936,-63.18 936,-47.62 936,-35.28"/>
<polygon fill="midnightblue" stroke="midnightblue" points="939.5,-35.13 936,-25.13 932.5,-35.13 939.5,-35.13"/>
</g>
<!-- Node9 -->
<g id="node9" class="node">
<title>Node9</title>
<g id="a_node9"><a xlink:title=" ">
<polygon fill="none" stroke="#bfbfbf" points="1024,-0.5 1024,-30.5 1198,-30.5 1198,-0.5 1024,-0.5"/>
<text text-anchor="start" x="1032" y="-18.5" font-family="FreeSans.ttf" font-size="10.00">yarp/dev/MultipleAnalogSensors</text>
<text text-anchor="middle" x="1111" y="-7.5" font-family="FreeSans.ttf" font-size="10.00">Interfaces.h</text>
</a>
</g>
</g>
<!-- Node6&#45;&gt;Node9 -->
<g id="edge8" class="edge">
<title>Node6&#45;&gt;Node9</title>
<path fill="none" stroke="midnightblue" d="M959.24,-72.87C985.73,-63.03 1029.72,-46.69 1063.54,-34.13"/>
<polygon fill="midnightblue" stroke="midnightblue" points="1065.08,-37.29 1073.23,-30.53 1062.64,-30.73 1065.08,-37.29"/>
</g>
<!-- Node10 -->
<g id="node10" class="node">
<title>Node10</title>
<g id="a_node10"><a xlink:title=" ">
<polygon fill="none" stroke="#bfbfbf" points="432,-6 432,-25 528,-25 528,-6 432,-6"/>
<text text-anchor="middle" x="480" y="-13" font-family="FreeSans.ttf" font-size="10.00">yarp/os/Stamp.h</text>
</a>
</g>
</g>
<!-- Node6&#45;&gt;Node10 -->
<g id="edge9" class="edge">
<title>Node6&#45;&gt;Node10</title>
<path fill="none" stroke="midnightblue" d="M879.32,-76.45C801.82,-69.05 658.65,-53.65 538,-31 532.52,-29.97 526.78,-28.73 521.14,-27.42"/>
<polygon fill="midnightblue" stroke="midnightblue" points="521.7,-23.96 511.16,-25.01 520.05,-30.76 521.7,-23.96"/>
</g>
<!-- Node11 -->
<g id="node11" class="node">
<title>Node11</title>
<g id="a_node11"><a xlink:title=" ">
<polygon fill="none" stroke="#bfbfbf" points="546.5,-6 546.5,-25 695.5,-25 695.5,-6 546.5,-6"/>
<text text-anchor="middle" x="621" y="-13" font-family="FreeSans.ttf" font-size="10.00">yarp/dev/IPreciselyTimed.h</text>
</a>
</g>
</g>
<!-- Node6&#45;&gt;Node11 -->
<g id="edge10" class="edge">
<title>Node6&#45;&gt;Node11</title>
<path fill="none" stroke="midnightblue" d="M894.5,-72.94C837.29,-61.13 734.26,-39.87 672.3,-27.09"/>
<polygon fill="midnightblue" stroke="midnightblue" points="672.85,-23.62 662.35,-25.03 671.43,-30.48 672.85,-23.62"/>
</g>
<!-- Node12 -->
<g id="node12" class="node">
<title>Node12</title>
<g id="a_node12"><a xlink:title=" ">
<polygon fill="none" stroke="#bfbfbf" points="1607.5,-6 1607.5,-25 1726.5,-25 1726.5,-6 1607.5,-6"/>
<text text-anchor="middle" x="1667" y="-13" font-family="FreeSans.ttf" font-size="10.00">boost/shared_ptr.hpp</text>
</a>
</g>
</g>
<!-- Node6&#45;&gt;Node12 -->
<g id="edge11" class="edge">
<title>Node6&#45;&gt;Node12</title>
<path fill="none" stroke="midnightblue" d="M992.6,-79.75C1107.45,-75.63 1375.91,-63.13 1599,-31 1606.31,-29.95 1614.01,-28.57 1621.5,-27.08"/>
<polygon fill="midnightblue" stroke="midnightblue" points="1622.44,-30.46 1631.52,-25.01 1621.01,-23.61 1622.44,-30.46"/>
</g>
<!-- Node13 -->
<g id="node13" class="node">
<title>Node13</title>
<g id="a_node13"><a xlink:title=" ">
<polygon fill="none" stroke="#bfbfbf" points="1216,-6 1216,-25 1264,-25 1264,-6 1216,-6"/>
<text text-anchor="middle" x="1240" y="-13" font-family="FreeSans.ttf" font-size="10.00">mutex</text>
</a>
</g>
</g>
<!-- Node6&#45;&gt;Node13 -->
<g id="edge13" class="edge">
<title>Node6&#45;&gt;Node13</title>
<path fill="none" stroke="midnightblue" d="M992.7,-74.8C1048.17,-67.34 1134.63,-53.32 1207,-31 1208.93,-30.41 1210.89,-29.73 1212.86,-29"/>
<polygon fill="midnightblue" stroke="midnightblue" points="1214.53,-32.1 1222.47,-25.09 1211.89,-25.62 1214.53,-32.1"/>
</g>
<!-- Node14&#45;&gt;Node4 -->
<g id="edge19" class="edge">
<title>Node14&#45;&gt;Node4</title>
<path fill="none" stroke="midnightblue" d="M1391,-78.79C1109.09,-69.43 193.6,-38.61 131,-31 122.94,-30.02 114.43,-28.6 106.23,-27.02"/>
<polygon fill="midnightblue" stroke="midnightblue" points="106.92,-23.58 96.42,-25.03 105.53,-30.45 106.92,-23.58"/>
</g>
<!-- Node14&#45;&gt;Node12 -->
<g id="edge17" class="edge">
<title>Node14&#45;&gt;Node12</title>
<path fill="none" stroke="midnightblue" d="M1498.76,-72.87C1532.92,-61.42 1593.34,-41.18 1631.71,-28.32"/>
<polygon fill="midnightblue" stroke="midnightblue" points="1633.07,-31.56 1641.44,-25.06 1630.85,-24.92 1633.07,-31.56"/>
</g>
<!-- Node14&#45;&gt;Node13 -->
<g id="edge18" class="edge">
<title>Node14&#45;&gt;Node13</title>
<path fill="none" stroke="midnightblue" d="M1430.65,-72.96C1389.76,-64.21 1326.35,-49.31 1273,-31 1271.14,-30.36 1269.23,-29.66 1267.32,-28.92"/>
<polygon fill="midnightblue" stroke="midnightblue" points="1268.52,-25.63 1257.94,-25.03 1265.84,-32.09 1268.52,-25.63"/>
</g>
<!-- Node15 -->
<g id="node15" class="node">
<title>Node15</title>
<g id="a_node15"><a xlink:title=" ">
<polygon fill="none" stroke="#bfbfbf" points="1745,-6 1745,-25 1783,-25 1783,-6 1745,-6"/>
<text text-anchor="middle" x="1764" y="-13" font-family="FreeSans.ttf" font-size="10.00">map</text>
</a>
</g>
</g>
<!-- Node14&#45;&gt;Node15 -->
<g id="edge15" class="edge">
<title>Node14&#45;&gt;Node15</title>
<path fill="none" stroke="midnightblue" d="M1527.16,-72.99C1592.49,-62.39 1698.22,-44.1 1736,-31 1737.25,-30.57 1738.52,-30.08 1739.78,-29.57"/>
<polygon fill="midnightblue" stroke="midnightblue" points="1741.66,-32.55 1749.24,-25.15 1738.7,-26.21 1741.66,-32.55"/>
</g>
<!-- Node16 -->
<g id="node16" class="node">
<title>Node16</title>
<g id="a_node16"><a xlink:title=" ">
<polygon fill="none" stroke="#bfbfbf" points="1801.5,-6 1801.5,-25 1894.5,-25 1894.5,-6 1801.5,-6"/>
<text text-anchor="middle" x="1848" y="-13" font-family="FreeSans.ttf" font-size="10.00">sdf/sdf_config.h</text>
</a>
</g>
</g>
<!-- Node14&#45;&gt;Node16 -->
<g id="edge16" class="edge">
<title>Node14&#45;&gt;Node16</title>
<path fill="none" stroke="midnightblue" d="M1527.16,-72.96C1617.34,-58.73 1788.77,-31.67 1792,-31 1797.03,-29.95 1802.29,-28.74 1807.49,-27.48"/>
<polygon fill="midnightblue" stroke="midnightblue" points="1808.47,-30.84 1817.32,-25.01 1806.76,-24.05 1808.47,-30.84"/>
</g>
<!-- Node17 -->
<g id="node17" class="node">
<title>Node17</title>
<g id="a_node17"><a xlink:title=" ">
<polygon fill="none" stroke="#bfbfbf" points="1282,-6 1282,-25 1422,-25 1422,-6 1282,-6"/>
<text text-anchor="middle" x="1352" y="-13" font-family="FreeSans.ttf" font-size="10.00">yarp/dev/PolyDriverList.h</text>
</a>
</g>
</g>
<!-- Node14&#45;&gt;Node17 -->
<g id="edge20" class="edge">
<title>Node14&#45;&gt;Node17</title>
<path fill="none" stroke="midnightblue" d="M1456.68,-72.73C1436.18,-61.72 1400.8,-42.71 1376.91,-29.88"/>
<polygon fill="midnightblue" stroke="midnightblue" points="1378.53,-26.78 1368.06,-25.13 1375.21,-32.94 1378.53,-26.78"/>
</g>
<!-- Node18 -->
<g id="node18" class="node">
<title>Node18</title>
<g id="a_node18"><a xlink:title=" ">
<polygon fill="none" stroke="#bfbfbf" points="1440.5,-6 1440.5,-25 1589.5,-25 1589.5,-6 1440.5,-6"/>
<text text-anchor="middle" x="1515" y="-13" font-family="FreeSans.ttf" font-size="10.00">gazebo/common/Events.hh</text>
</a>
</g>
</g>
<!-- Node14&#45;&gt;Node18 -->
<g id="edge21" class="edge">
<title>Node14&#45;&gt;Node18</title>
<path fill="none" stroke="midnightblue" d="M1478.66,-72.73C1485.09,-62.79 1495.72,-46.34 1503.83,-33.79"/>
<polygon fill="midnightblue" stroke="midnightblue" points="1506.94,-35.43 1509.43,-25.13 1501.06,-31.63 1506.94,-35.43"/>
</g>
<!-- Node19&#45;&gt;Node5 -->
<g id="edge23" class="edge">
<title>Node19&#45;&gt;Node5</title>
<path fill="none" stroke="midnightblue" d="M287.79,-72.95C265.3,-62.93 226.92,-45.81 194,-31 192.81,-30.46 191.6,-29.92 190.37,-29.37"/>
<polygon fill="midnightblue" stroke="midnightblue" points="191.5,-26.03 180.94,-25.1 188.61,-32.41 191.5,-26.03"/>
</g>
<!-- Node20 -->
<g id="node20" class="node">
<title>Node20</title>
<g id="a_node20"><a xlink:title=" ">
<polygon fill="none" stroke="#bfbfbf" points="202.5,-6 202.5,-25 249.5,-25 249.5,-6 202.5,-6"/>
<text text-anchor="middle" x="226" y="-13" font-family="FreeSans.ttf" font-size="10.00">cmath</text>
</a>
</g>
</g>
<!-- Node19&#45;&gt;Node20 -->
<g id="edge24" class="edge">
<title>Node19&#45;&gt;Node20</title>
<path fill="none" stroke="midnightblue" d="M296.08,-72.73C282.96,-62.21 260.74,-44.38 244.84,-31.62"/>
<polygon fill="midnightblue" stroke="midnightblue" points="246.74,-28.66 236.75,-25.13 242.36,-34.12 246.74,-28.66"/>
</g>
<!-- Node21&#45;&gt;Node12 -->
<g id="edge27" class="edge">
<title>Node21&#45;&gt;Node12</title>
<path fill="none" stroke="midnightblue" d="M1667,-72.73C1667,-63.18 1667,-47.62 1667,-35.28"/>
<polygon fill="midnightblue" stroke="midnightblue" points="1670.5,-35.13 1667,-25.13 1663.5,-35.13 1670.5,-35.13"/>
</g>
<!-- Node21&#45;&gt;Node16 -->
<g id="edge26" class="edge">
<title>Node21&#45;&gt;Node16</title>
<path fill="none" stroke="midnightblue" d="M1691.04,-72.87C1722.77,-61.47 1778.79,-41.35 1814.62,-28.49"/>
<polygon fill="midnightblue" stroke="midnightblue" points="1815.92,-31.74 1824.15,-25.06 1813.56,-25.15 1815.92,-31.74"/>
</g>
<!-- Node22 -->
<g id="node22" class="node">
<title>Node22</title>
<g id="a_node22"><a xlink:title=" ">
<polygon fill="none" stroke="#bfbfbf" points="2105.5,-6 2105.5,-25 2276.5,-25 2276.5,-6 2105.5,-6"/>
<text text-anchor="middle" x="2191" y="-13" font-family="FreeSans.ttf" font-size="10.00">gazebo/sensors/SensorTypes.hh</text>
</a>
</g>
</g>
<!-- Node21&#45;&gt;Node22 -->
<g id="edge28" class="edge">
<title>Node21&#45;&gt;Node22</title>
<path fill="none" stroke="midnightblue" d="M1725.24,-72.99C1739.85,-70.94 1755.49,-68.82 1770,-67 1914.63,-48.84 1951.47,-50 2096,-31 2106.28,-29.65 2117.17,-28.1 2127.76,-26.53"/>
<polygon fill="midnightblue" stroke="midnightblue" points="2128.43,-29.97 2137.8,-25.02 2127.39,-23.04 2128.43,-29.97"/>
</g>
<!-- Node23 -->
<g id="node23" class="node">
<title>Node23</title>
<g id="a_node23"><a xlink:title=" ">
<polygon fill="none" stroke="#bfbfbf" points="1913,-6 1913,-25 2087,-25 2087,-6 1913,-6"/>
<text text-anchor="middle" x="2000" y="-13" font-family="FreeSans.ttf" font-size="10.00">gazebo/physics/PhysicsTypes.hh</text>
</a>
</g>
</g>
<!-- Node21&#45;&gt;Node23 -->
<g id="edge29" class="edge">
<title>Node21&#45;&gt;Node23</title>
<path fill="none" stroke="midnightblue" d="M1710.88,-72.94C1771.48,-61.11 1880.71,-39.78 1946.18,-27.01"/>
<polygon fill="midnightblue" stroke="midnightblue" points="1947.15,-30.38 1956.29,-25.03 1945.81,-23.51 1947.15,-30.38"/>
</g>
</g>
</svg>
