<?xml version="1.0" encoding="UTF-8" standalone="no"?>
<!DOCTYPE svg PUBLIC "-//W3C//DTD SVG 1.1//EN"
 "http://www.w3.org/Graphics/SVG/1.1/DTD/svg11.dtd">
<!-- Generated by graphviz version 5.0.0 (20220707.2338)
 -->
<!-- Title: ForceTorqueDriver.cpp Pages: 1 -->
<svg width="2316pt" height="162pt"
 viewBox="0.00 0.00 2315.50 162.00" xmlns="http://www.w3.org/2000/svg" xmlns:xlink="http://www.w3.org/1999/xlink">
<g id="graph0" class="graph" transform="scale(1 1) rotate(0) translate(4 158)">
<title>ForceTorqueDriver.cpp</title>
<!-- Node1 -->
<g id="node1" class="node">
<title>Node1</title>
<g id="a_node1"><a xlink:title=" ">
<polygon fill="#bfbfbf" stroke="black" points="1780.5,-134.5 1780.5,-153.5 1905.5,-153.5 1905.5,-134.5 1780.5,-134.5"/>
<text text-anchor="middle" x="1843" y="-141.5" font-family="FreeSans.ttf" font-size="10.00">ForceTorqueDriver.cpp</text>
</a>
</g>
</g>
<!-- Node2 -->
<g id="node2" class="node">
<title>Node2</title>
<g id="a_node2"><a xlink:href="ForceTorqueDriver_8h.html" target="_top" xlink:title=" ">
<polygon fill="none" stroke="black" points="611.5,-73 611.5,-92 724.5,-92 724.5,-73 611.5,-73"/>
<text text-anchor="middle" x="668" y="-80" font-family="FreeSans.ttf" font-size="10.00">ForceTorqueDriver.h</text>
</a>
</g>
</g>
<!-- Node1&#45;&gt;Node2 -->
<g id="edge1" class="edge">
<title>Node1&#45;&gt;Node2</title>
<path fill="none" stroke="midnightblue" d="M1780.24,-139.82C1577.74,-129.57 942.77,-97.41 734.73,-86.88"/>
<polygon fill="midnightblue" stroke="midnightblue" points="734.72,-83.37 724.56,-86.36 734.37,-90.37 734.72,-83.37"/>
</g>
<!-- Node11 -->
<g id="node11" class="node">
<title>Node11</title>
<g id="a_node11"><a xlink:href="Handler_8hh.html" target="_top" xlink:title=" ">
<polygon fill="none" stroke="black" points="1236,-73 1236,-92 1400,-92 1400,-73 1236,-73"/>
<text text-anchor="middle" x="1318" y="-80" font-family="FreeSans.ttf" font-size="10.00">GazeboYarpPlugins/Handler.hh</text>
</a>
</g>
</g>
<!-- Node1&#45;&gt;Node11 -->
<g id="edge10" class="edge">
<title>Node1&#45;&gt;Node11</title>
<path fill="none" stroke="midnightblue" d="M1780.45,-135.91C1686.55,-125.27 1508.92,-105.14 1403.23,-93.16"/>
<polygon fill="midnightblue" stroke="midnightblue" points="1403.57,-89.68 1393.24,-92.03 1402.78,-96.63 1403.57,-89.68"/>
</g>
<!-- Node17 -->
<g id="node17" class="node">
<title>Node17</title>
<g id="a_node17"><a xlink:href="common_8h.html" target="_top" xlink:title=" ">
<polygon fill="none" stroke="black" points="1604,-73 1604,-92 1768,-92 1768,-73 1604,-73"/>
<text text-anchor="middle" x="1686" y="-80" font-family="FreeSans.ttf" font-size="10.00">GazeboYarpPlugins/common.h</text>
</a>
</g>
</g>
<!-- Node1&#45;&gt;Node17 -->
<g id="edge18" class="edge">
<title>Node1&#45;&gt;Node17</title>
<path fill="none" stroke="midnightblue" d="M1820.51,-134.48C1793.69,-124.31 1748.68,-107.26 1718.19,-95.7"/>
<polygon fill="midnightblue" stroke="midnightblue" points="1719.04,-92.28 1708.45,-92.01 1716.56,-98.83 1719.04,-92.28"/>
</g>
<!-- Node20 -->
<g id="node20" class="node">
<title>Node20</title>
<g id="a_node20"><a xlink:title=" ">
<polygon fill="none" stroke="#bfbfbf" points="1786.5,-73 1786.5,-92 1899.5,-92 1899.5,-73 1786.5,-73"/>
<text text-anchor="middle" x="1843" y="-80" font-family="FreeSans.ttf" font-size="10.00">boost/bind/bind.hpp</text>
</a>
</g>
</g>
<!-- Node1&#45;&gt;Node20 -->
<g id="edge21" class="edge">
<title>Node1&#45;&gt;Node20</title>
<path fill="none" stroke="midnightblue" d="M1843,-134.48C1843,-126.08 1843,-112.98 1843,-102.16"/>
<polygon fill="midnightblue" stroke="midnightblue" points="1846.5,-102.01 1843,-92.01 1839.5,-102.01 1846.5,-102.01"/>
</g>
<!-- Node21 -->
<g id="node21" class="node">
<title>Node21</title>
<g id="a_node21"><a xlink:title=" ">
<polygon fill="none" stroke="#bfbfbf" points="1918,-67.5 1918,-97.5 2072,-97.5 2072,-67.5 1918,-67.5"/>
<text text-anchor="start" x="1926" y="-85.5" font-family="FreeSans.ttf" font-size="10.00">gazebo/sensors/ForceTorque</text>
<text text-anchor="middle" x="1995" y="-74.5" font-family="FreeSans.ttf" font-size="10.00">Sensor.hh</text>
</a>
</g>
</g>
<!-- Node1&#45;&gt;Node21 -->
<g id="edge22" class="edge">
<title>Node1&#45;&gt;Node21</title>
<path fill="none" stroke="midnightblue" d="M1864.78,-134.48C1886.81,-125.85 1921.52,-112.26 1949.57,-101.29"/>
<polygon fill="midnightblue" stroke="midnightblue" points="1951.14,-104.43 1959.18,-97.52 1948.59,-97.91 1951.14,-104.43"/>
</g>
<!-- Node22 -->
<g id="node22" class="node">
<title>Node22</title>
<g id="a_node22"><a xlink:title=" ">
<polygon fill="none" stroke="#bfbfbf" points="2090,-73 2090,-92 2172,-92 2172,-73 2090,-73"/>
<text text-anchor="middle" x="2131" y="-80" font-family="FreeSans.ttf" font-size="10.00">yarp/os/Log.h</text>
</a>
</g>
</g>
<!-- Node1&#45;&gt;Node22 -->
<g id="edge23" class="edge">
<title>Node1&#45;&gt;Node22</title>
<path fill="none" stroke="midnightblue" d="M1896.24,-134.43C1944.68,-126.28 2018.01,-113.05 2081,-98 2085.1,-97.02 2089.37,-95.91 2093.61,-94.76"/>
<polygon fill="midnightblue" stroke="midnightblue" points="2094.67,-98.1 2103.36,-92.03 2092.78,-91.36 2094.67,-98.1"/>
</g>
<!-- Node23 -->
<g id="node23" class="node">
<title>Node23</title>
<g id="a_node23"><a xlink:title=" ">
<polygon fill="none" stroke="#bfbfbf" points="2190.5,-73 2190.5,-92 2307.5,-92 2307.5,-73 2190.5,-73"/>
<text text-anchor="middle" x="2249" y="-80" font-family="FreeSans.ttf" font-size="10.00">yarp/os/LogStream.h</text>
</a>
</g>
</g>
<!-- Node1&#45;&gt;Node23 -->
<g id="edge24" class="edge">
<title>Node1&#45;&gt;Node23</title>
<path fill="none" stroke="midnightblue" d="M1905.52,-136.15C1973.53,-128.36 2085.33,-114.54 2181,-98 2187.71,-96.84 2194.77,-95.49 2201.7,-94.08"/>
<polygon fill="midnightblue" stroke="midnightblue" points="2202.61,-97.46 2211.69,-92 2201.19,-90.61 2202.61,-97.46"/>
</g>
<!-- Node3 -->
<g id="node3" class="node">
<title>Node3</title>
<g id="a_node3"><a xlink:title=" ">
<polygon fill="none" stroke="#bfbfbf" points="446,-6 446,-25 580,-25 580,-6 446,-6"/>
<text text-anchor="middle" x="513" y="-13" font-family="FreeSans.ttf" font-size="10.00">yarp/dev/DeviceDriver.h</text>
</a>
</g>
</g>
<!-- Node2&#45;&gt;Node3 -->
<g id="edge2" class="edge">
<title>Node2&#45;&gt;Node3</title>
<path fill="none" stroke="midnightblue" d="M647.42,-72.87C620.67,-61.65 573.75,-41.98 543.03,-29.09"/>
<polygon fill="midnightblue" stroke="midnightblue" points="544.24,-25.81 533.67,-25.17 541.54,-32.26 544.24,-25.81"/>
</g>
<!-- Node4 -->
<g id="node4" class="node">
<title>Node4</title>
<g id="a_node4"><a xlink:title=" ">
<polygon fill="none" stroke="#bfbfbf" points="598,-6 598,-25 738,-25 738,-6 598,-6"/>
<text text-anchor="middle" x="668" y="-13" font-family="FreeSans.ttf" font-size="10.00">yarp/dev/IAnalogSensor.h</text>
</a>
</g>
</g>
<!-- Node2&#45;&gt;Node4 -->
<g id="edge3" class="edge">
<title>Node2&#45;&gt;Node4</title>
<path fill="none" stroke="midnightblue" d="M668,-72.73C668,-63.18 668,-47.62 668,-35.28"/>
<polygon fill="midnightblue" stroke="midnightblue" points="671.5,-35.13 668,-25.13 664.5,-35.13 671.5,-35.13"/>
</g>
<!-- Node5 -->
<g id="node5" class="node">
<title>Node5</title>
<g id="a_node5"><a xlink:title=" ">
<polygon fill="none" stroke="#bfbfbf" points="756,-0.5 756,-30.5 930,-30.5 930,-0.5 756,-0.5"/>
<text text-anchor="start" x="764" y="-18.5" font-family="FreeSans.ttf" font-size="10.00">yarp/dev/MultipleAnalogSensors</text>
<text text-anchor="middle" x="843" y="-7.5" font-family="FreeSans.ttf" font-size="10.00">Interfaces.h</text>
</a>
</g>
</g>
<!-- Node2&#45;&gt;Node5 -->
<g id="edge4" class="edge">
<title>Node2&#45;&gt;Node5</title>
<path fill="none" stroke="midnightblue" d="M691.24,-72.87C717.73,-63.03 761.72,-46.69 795.54,-34.13"/>
<polygon fill="midnightblue" stroke="midnightblue" points="797.08,-37.29 805.23,-30.53 794.64,-30.73 797.08,-37.29"/>
</g>
<!-- Node6 -->
<g id="node6" class="node">
<title>Node6</title>
<g id="a_node6"><a xlink:title=" ">
<polygon fill="none" stroke="#bfbfbf" points="0,-6 0,-25 96,-25 96,-6 0,-6"/>
<text text-anchor="middle" x="48" y="-13" font-family="FreeSans.ttf" font-size="10.00">yarp/os/Stamp.h</text>
</a>
</g>
</g>
<!-- Node2&#45;&gt;Node6 -->
<g id="edge5" class="edge">
<title>Node2&#45;&gt;Node6</title>
<path fill="none" stroke="midnightblue" d="M611.28,-79.41C509.31,-74.98 288.55,-62.37 105,-31 99.4,-30.04 93.54,-28.82 87.81,-27.49"/>
<polygon fill="midnightblue" stroke="midnightblue" points="88.23,-23.99 77.69,-25.01 86.57,-30.78 88.23,-23.99"/>
</g>
<!-- Node7 -->
<g id="node7" class="node">
<title>Node7</title>
<g id="a_node7"><a xlink:title=" ">
<polygon fill="none" stroke="#bfbfbf" points="114.5,-6 114.5,-25 263.5,-25 263.5,-6 114.5,-6"/>
<text text-anchor="middle" x="189" y="-13" font-family="FreeSans.ttf" font-size="10.00">yarp/dev/IPreciselyTimed.h</text>
</a>
</g>
</g>
<!-- Node2&#45;&gt;Node7 -->
<g id="edge6" class="edge">
<title>Node2&#45;&gt;Node7</title>
<path fill="none" stroke="midnightblue" d="M611.31,-75.04C534.5,-66.11 393.16,-49.04 273,-31 264.39,-29.71 255.29,-28.24 246.4,-26.75"/>
<polygon fill="midnightblue" stroke="midnightblue" points="246.92,-23.29 236.47,-25.07 245.75,-30.19 246.92,-23.29"/>
</g>
<!-- Node8 -->
<g id="node8" class="node">
<title>Node8</title>
<g id="a_node8"><a xlink:title=" ">
<polygon fill="none" stroke="#bfbfbf" points="1014.5,-6 1014.5,-25 1133.5,-25 1133.5,-6 1014.5,-6"/>
<text text-anchor="middle" x="1074" y="-13" font-family="FreeSans.ttf" font-size="10.00">boost/shared_ptr.hpp</text>
</a>
</g>
</g>
<!-- Node2&#45;&gt;Node8 -->
<g id="edge7" class="edge">
<title>Node2&#45;&gt;Node8</title>
<path fill="none" stroke="midnightblue" d="M724.51,-74.06C791.59,-64.99 906.74,-48.67 1005,-31 1011.64,-29.81 1018.61,-28.45 1025.48,-27.07"/>
<polygon fill="midnightblue" stroke="midnightblue" points="1026.31,-30.47 1035.39,-25.03 1024.89,-23.62 1026.31,-30.47"/>
</g>
<!-- Node9 -->
<g id="node9" class="node">
<title>Node9</title>
<g id="a_node9"><a xlink:title=" ">
<polygon fill="none" stroke="#bfbfbf" points="282,-6 282,-25 428,-25 428,-6 282,-6"/>
<text text-anchor="middle" x="355" y="-13" font-family="FreeSans.ttf" font-size="10.00">gazebo/common/Plugin.hh</text>
</a>
</g>
</g>
<!-- Node2&#45;&gt;Node9 -->
<g id="edge8" class="edge">
<title>Node2&#45;&gt;Node9</title>
<path fill="none" stroke="midnightblue" d="M626.76,-72.94C569.99,-61.15 467.83,-39.93 406.23,-27.14"/>
<polygon fill="midnightblue" stroke="midnightblue" points="406.84,-23.69 396.33,-25.08 405.41,-30.54 406.84,-23.69"/>
</g>
<!-- Node10 -->
<g id="node10" class="node">
<title>Node10</title>
<g id="a_node10"><a xlink:title=" ">
<polygon fill="none" stroke="#bfbfbf" points="948,-6 948,-25 996,-25 996,-6 948,-6"/>
<text text-anchor="middle" x="972" y="-13" font-family="FreeSans.ttf" font-size="10.00">mutex</text>
</a>
</g>
</g>
<!-- Node2&#45;&gt;Node10 -->
<g id="edge9" class="edge">
<title>Node2&#45;&gt;Node10</title>
<path fill="none" stroke="midnightblue" d="M724.7,-74.8C780.17,-67.34 866.63,-53.32 939,-31 940.93,-30.41 942.89,-29.73 944.86,-29"/>
<polygon fill="midnightblue" stroke="midnightblue" points="946.53,-32.1 954.47,-25.09 943.89,-25.62 946.53,-32.1"/>
</g>
<!-- Node11&#45;&gt;Node8 -->
<g id="edge13" class="edge">
<title>Node11&#45;&gt;Node8</title>
<path fill="none" stroke="midnightblue" d="M1285.85,-72.94C1242.24,-61.32 1164.25,-40.54 1116.03,-27.7"/>
<polygon fill="midnightblue" stroke="midnightblue" points="1116.78,-24.28 1106.22,-25.08 1114.98,-31.04 1116.78,-24.28"/>
</g>
<!-- Node11&#45;&gt;Node10 -->
<g id="edge14" class="edge">
<title>Node11&#45;&gt;Node10</title>
<path fill="none" stroke="midnightblue" d="M1236,-74.03C1172.11,-66.84 1081.68,-53.63 1005,-31 1002.85,-30.37 1000.66,-29.63 998.48,-28.82"/>
<polygon fill="midnightblue" stroke="midnightblue" points="999.74,-25.56 989.16,-25.02 997.1,-32.04 999.74,-25.56"/>
</g>
<!-- Node12 -->
<g id="node12" class="node">
<title>Node12</title>
<g id="a_node12"><a xlink:title=" ">
<polygon fill="none" stroke="#bfbfbf" points="1152,-6 1152,-25 1190,-25 1190,-6 1152,-6"/>
<text text-anchor="middle" x="1171" y="-13" font-family="FreeSans.ttf" font-size="10.00">map</text>
</a>
</g>
</g>
<!-- Node11&#45;&gt;Node12 -->
<g id="edge11" class="edge">
<title>Node11&#45;&gt;Node12</title>
<path fill="none" stroke="midnightblue" d="M1296.28,-72.87C1272.26,-63.18 1232.51,-46.76 1199,-31 1198.15,-30.6 1197.3,-30.19 1196.43,-29.78"/>
<polygon fill="midnightblue" stroke="midnightblue" points="1197.69,-26.49 1187.18,-25.15 1194.56,-32.75 1197.69,-26.49"/>
</g>
<!-- Node13 -->
<g id="node13" class="node">
<title>Node13</title>
<g id="a_node13"><a xlink:title=" ">
<polygon fill="none" stroke="#bfbfbf" points="1208.5,-6 1208.5,-25 1301.5,-25 1301.5,-6 1208.5,-6"/>
<text text-anchor="middle" x="1255" y="-13" font-family="FreeSans.ttf" font-size="10.00">sdf/sdf_config.h</text>
</a>
</g>
</g>
<!-- Node11&#45;&gt;Node13 -->
<g id="edge12" class="edge">
<title>Node11&#45;&gt;Node13</title>
<path fill="none" stroke="midnightblue" d="M1309.5,-72.73C1299.49,-62.4 1282.66,-45.04 1270.34,-32.33"/>
<polygon fill="midnightblue" stroke="midnightblue" points="1272.83,-29.87 1263.36,-25.13 1267.81,-34.74 1272.83,-29.87"/>
</g>
<!-- Node14 -->
<g id="node14" class="node">
<title>Node14</title>
<g id="a_node14"><a xlink:title=" ">
<polygon fill="none" stroke="#bfbfbf" points="1320,-6 1320,-25 1442,-25 1442,-6 1320,-6"/>
<text text-anchor="middle" x="1381" y="-13" font-family="FreeSans.ttf" font-size="10.00">yarp/dev/PolyDriver.h</text>
</a>
</g>
</g>
<!-- Node11&#45;&gt;Node14 -->
<g id="edge15" class="edge">
<title>Node11&#45;&gt;Node14</title>
<path fill="none" stroke="midnightblue" d="M1326.5,-72.73C1336.51,-62.4 1353.34,-45.04 1365.66,-32.33"/>
<polygon fill="midnightblue" stroke="midnightblue" points="1368.19,-34.74 1372.64,-25.13 1363.17,-29.87 1368.19,-34.74"/>
</g>
<!-- Node15 -->
<g id="node15" class="node">
<title>Node15</title>
<g id="a_node15"><a xlink:title=" ">
<polygon fill="none" stroke="#bfbfbf" points="1460,-6 1460,-25 1600,-25 1600,-6 1460,-6"/>
<text text-anchor="middle" x="1530" y="-13" font-family="FreeSans.ttf" font-size="10.00">yarp/dev/PolyDriverList.h</text>
</a>
</g>
</g>
<!-- Node11&#45;&gt;Node15 -->
<g id="edge16" class="edge">
<title>Node11&#45;&gt;Node15</title>
<path fill="none" stroke="midnightblue" d="M1346.15,-72.87C1383.79,-61.33 1450.63,-40.84 1492.51,-28"/>
<polygon fill="midnightblue" stroke="midnightblue" points="1493.53,-31.34 1502.07,-25.06 1491.48,-24.65 1493.53,-31.34"/>
</g>
<!-- Node16 -->
<g id="node16" class="node">
<title>Node16</title>
<g id="a_node16"><a xlink:title=" ">
<polygon fill="none" stroke="#bfbfbf" points="1618.5,-6 1618.5,-25 1767.5,-25 1767.5,-6 1618.5,-6"/>
<text text-anchor="middle" x="1693" y="-13" font-family="FreeSans.ttf" font-size="10.00">gazebo/common/Events.hh</text>
</a>
</g>
</g>
<!-- Node11&#45;&gt;Node16 -->
<g id="edge17" class="edge">
<title>Node11&#45;&gt;Node16</title>
<path fill="none" stroke="midnightblue" d="M1367.41,-72.94C1436.08,-61.03 1560.19,-39.52 1633.75,-26.77"/>
<polygon fill="midnightblue" stroke="midnightblue" points="1634.52,-30.19 1643.78,-25.03 1633.33,-23.29 1634.52,-30.19"/>
</g>
<!-- Node18 -->
<g id="node18" class="node">
<title>Node18</title>
<g id="a_node18"><a xlink:title=" ">
<polygon fill="none" stroke="#bfbfbf" points="1851,-6 1851,-25 1895,-25 1895,-6 1851,-6"/>
<text text-anchor="middle" x="1873" y="-13" font-family="FreeSans.ttf" font-size="10.00">string</text>
</a>
</g>
</g>
<!-- Node17&#45;&gt;Node18 -->
<g id="edge19" class="edge">
<title>Node17&#45;&gt;Node18</title>
<path fill="none" stroke="midnightblue" d="M1716,-73C1747.7,-63.73 1798.96,-47.96 1842,-31 1843.42,-30.44 1844.86,-29.85 1846.31,-29.24"/>
<polygon fill="midnightblue" stroke="midnightblue" points="1848.08,-32.28 1855.79,-25.01 1845.23,-25.89 1848.08,-32.28"/>
</g>
<!-- Node19 -->
<g id="node19" class="node">
<title>Node19</title>
<g id="a_node19"><a xlink:title=" ">
<polygon fill="none" stroke="#bfbfbf" points="1785.5,-6 1785.5,-25 1832.5,-25 1832.5,-6 1785.5,-6"/>
<text text-anchor="middle" x="1809" y="-13" font-family="FreeSans.ttf" font-size="10.00">cmath</text>
</a>
</g>
</g>
<!-- Node17&#45;&gt;Node19 -->
<g id="edge20" class="edge">
<title>Node17&#45;&gt;Node19</title>
<path fill="none" stroke="midnightblue" d="M1702.33,-72.87C1723.1,-61.89 1759.19,-42.82 1783.57,-29.94"/>
<polygon fill="midnightblue" stroke="midnightblue" points="1785.39,-32.93 1792.6,-25.17 1782.12,-26.75 1785.39,-32.93"/>
</g>
</g>
</svg>
