<?xml version="1.0" encoding="UTF-8" standalone="no"?>
<!DOCTYPE svg PUBLIC "-//W3C//DTD SVG 1.1//EN"
 "http://www.w3.org/Graphics/SVG/1.1/DTD/svg11.dtd">
<!-- Generated by graphviz version 2.49.0 (20210829.0051)
 -->
<!-- Title: GazeboYarpRobotInterface.cc Pages: 1 -->
<svg width="1714pt" height="151pt"
 viewBox="0.00 0.00 1714.00 151.00" xmlns="http://www.w3.org/2000/svg" xmlns:xlink="http://www.w3.org/1999/xlink">
<g id="graph0" class="graph" transform="scale(1 1) rotate(0) translate(4 147)">
<title>GazeboYarpRobotInterface.cc</title>
<!-- Node1 -->
<g id="node1" class="node">
<title>Node1</title>
<g id="a_node1"><a xlink:title=" ">
<polygon fill="#bfbfbf" stroke="black" points="1141.5,-123.5 1141.5,-142.5 1300.5,-142.5 1300.5,-123.5 1141.5,-123.5"/>
<text text-anchor="middle" x="1221" y="-130.5" font-family="FreeSans.ttf" font-size="10.00">GazeboYarpRobotInterface.cc</text>
</a>
</g>
</g>
<!-- Node2 -->
<g id="node2" class="node">
<title>Node2</title>
<g id="a_node2"><a xlink:href="GazeboYarpRobotInterface_8hh.html" target="_top" xlink:title=" ">
<polygon fill="none" stroke="black" points="225.5,-67.5 225.5,-86.5 386.5,-86.5 386.5,-67.5 225.5,-67.5"/>
<text text-anchor="middle" x="306" y="-74.5" font-family="FreeSans.ttf" font-size="10.00">GazeboYarpRobotInterface.hh</text>
</a>
</g>
</g>
<!-- Node1&#45;&gt;Node2 -->
<g id="edge1" class="edge">
<title>Node1&#45;&gt;Node2</title>
<path fill="none" stroke="midnightblue" d="M1141.4,-127.3C971.86,-117.3 576.02,-93.94 396.91,-83.36"/>
<polygon fill="midnightblue" stroke="midnightblue" points="396.91,-79.86 386.72,-82.76 396.5,-86.85 396.91,-79.86"/>
</g>
<!-- Node6 -->
<g id="node6" class="node">
<title>Node6</title>
<g id="a_node6"><a xlink:href="Handler_8hh.html" target="_top" xlink:title=" ">
<polygon fill="none" stroke="black" points="697,-67.5 697,-86.5 861,-86.5 861,-67.5 697,-67.5"/>
<text text-anchor="middle" x="779" y="-74.5" font-family="FreeSans.ttf" font-size="10.00">GazeboYarpPlugins/Handler.hh</text>
</a>
</g>
</g>
<!-- Node1&#45;&gt;Node6 -->
<g id="edge5" class="edge">
<title>Node1&#45;&gt;Node6</title>
<path fill="none" stroke="midnightblue" d="M1150.96,-123.44C1071.51,-113.74 942.2,-97.94 858.89,-87.76"/>
<polygon fill="midnightblue" stroke="midnightblue" points="859.06,-84.26 848.71,-86.52 858.21,-91.2 859.06,-84.26"/>
</g>
<!-- Node13 -->
<g id="node13" class="node">
<title>Node13</title>
<g id="a_node13"><a xlink:href="common_8h.html" target="_top" xlink:title=" ">
<polygon fill="none" stroke="black" points="969,-67.5 969,-86.5 1133,-86.5 1133,-67.5 969,-67.5"/>
<text text-anchor="middle" x="1051" y="-74.5" font-family="FreeSans.ttf" font-size="10.00">GazeboYarpPlugins/common.h</text>
</a>
</g>
</g>
<!-- Node1&#45;&gt;Node13 -->
<g id="edge12" class="edge">
<title>Node1&#45;&gt;Node13</title>
<path fill="none" stroke="midnightblue" d="M1194.06,-123.44C1165.34,-114.32 1119.67,-99.81 1087.68,-89.65"/>
<polygon fill="midnightblue" stroke="midnightblue" points="1088.4,-86.21 1077.81,-86.52 1086.28,-92.88 1088.4,-86.21"/>
</g>
<!-- Node16 -->
<g id="node16" class="node">
<title>Node16</title>
<g id="a_node16"><a xlink:title=" ">
<polygon fill="none" stroke="#bfbfbf" points="1151,-67.5 1151,-86.5 1291,-86.5 1291,-67.5 1151,-67.5"/>
<text text-anchor="middle" x="1221" y="-74.5" font-family="FreeSans.ttf" font-size="10.00">gazebo/physics/Model.hh</text>
</a>
</g>
</g>
<!-- Node1&#45;&gt;Node16 -->
<g id="edge15" class="edge">
<title>Node1&#45;&gt;Node16</title>
<path fill="none" stroke="midnightblue" d="M1221,-123.08C1221,-116.01 1221,-105.86 1221,-96.99"/>
<polygon fill="midnightblue" stroke="midnightblue" points="1224.5,-96.75 1221,-86.75 1217.5,-96.75 1224.5,-96.75"/>
</g>
<!-- Node17 -->
<g id="node17" class="node">
<title>Node17</title>
<g id="a_node17"><a xlink:title=" ">
<polygon fill="none" stroke="#bfbfbf" points="1309.5,-67.5 1309.5,-86.5 1446.5,-86.5 1446.5,-67.5 1309.5,-67.5"/>
<text text-anchor="middle" x="1378" y="-74.5" font-family="FreeSans.ttf" font-size="10.00">gazebo/physics/World.hh</text>
</a>
</g>
</g>
<!-- Node1&#45;&gt;Node17 -->
<g id="edge16" class="edge">
<title>Node1&#45;&gt;Node17</title>
<path fill="none" stroke="midnightblue" d="M1245.88,-123.44C1272.29,-114.36 1314.22,-99.94 1343.74,-89.78"/>
<polygon fill="midnightblue" stroke="midnightblue" points="1344.92,-93.08 1353.24,-86.52 1342.64,-86.46 1344.92,-93.08"/>
</g>
<!-- Node18 -->
<g id="node18" class="node">
<title>Node18</title>
<g id="a_node18"><a xlink:title=" ">
<polygon fill="none" stroke="#bfbfbf" points="1464.5,-67.5 1464.5,-86.5 1581.5,-86.5 1581.5,-67.5 1464.5,-67.5"/>
<text text-anchor="middle" x="1523" y="-74.5" font-family="FreeSans.ttf" font-size="10.00">yarp/os/LogStream.h</text>
</a>
</g>
</g>
<!-- Node1&#45;&gt;Node18 -->
<g id="edge17" class="edge">
<title>Node1&#45;&gt;Node18</title>
<path fill="none" stroke="midnightblue" d="M1268.85,-123.44C1322.2,-113.9 1408.44,-98.48 1465.44,-88.29"/>
<polygon fill="midnightblue" stroke="midnightblue" points="1466.14,-91.72 1475.37,-86.52 1464.91,-84.83 1466.14,-91.72"/>
</g>
<!-- Node19 -->
<g id="node19" class="node">
<title>Node19</title>
<g id="a_node19"><a xlink:title=" ">
<polygon fill="none" stroke="#bfbfbf" points="1600,-67.5 1600,-86.5 1706,-86.5 1706,-67.5 1600,-67.5"/>
<text text-anchor="middle" x="1653" y="-74.5" font-family="FreeSans.ttf" font-size="10.00">yarp/os/Network.h</text>
</a>
</g>
</g>
<!-- Node1&#45;&gt;Node19 -->
<g id="edge18" class="edge">
<title>Node1&#45;&gt;Node19</title>
<path fill="none" stroke="midnightblue" d="M1295.13,-123.5C1367.61,-115.06 1481.39,-101.52 1589.78,-87.14"/>
<polygon fill="midnightblue" stroke="midnightblue" points="1590.46,-90.58 1599.91,-85.79 1589.54,-83.64 1590.46,-90.58"/>
</g>
<!-- Node3 -->
<g id="node3" class="node">
<title>Node3</title>
<g id="a_node3"><a xlink:title=" ">
<polygon fill="none" stroke="#bfbfbf" points="0,-6 0,-25 146,-25 146,-6 0,-6"/>
<text text-anchor="middle" x="73" y="-13" font-family="FreeSans.ttf" font-size="10.00">gazebo/common/Plugin.hh</text>
</a>
</g>
</g>
<!-- Node2&#45;&gt;Node3 -->
<g id="edge2" class="edge">
<title>Node2&#45;&gt;Node3</title>
<path fill="none" stroke="midnightblue" d="M272.62,-67.48C231.44,-56.96 161.35,-39.06 116.13,-27.51"/>
<polygon fill="midnightblue" stroke="midnightblue" points="116.88,-24.09 106.32,-25.01 115.14,-30.87 116.88,-24.09"/>
</g>
<!-- Node4 -->
<g id="node4" class="node">
<title>Node4</title>
<g id="a_node4"><a xlink:title=" ">
<polygon fill="none" stroke="#bfbfbf" points="164,-6 164,-25 304,-25 304,-6 164,-6"/>
<text text-anchor="middle" x="234" y="-13" font-family="FreeSans.ttf" font-size="10.00">gazebo/common/Time.hh</text>
</a>
</g>
</g>
<!-- Node2&#45;&gt;Node4 -->
<g id="edge3" class="edge">
<title>Node2&#45;&gt;Node4</title>
<path fill="none" stroke="midnightblue" d="M295.68,-67.48C284.35,-58.11 265.93,-42.88 252.16,-31.51"/>
<polygon fill="midnightblue" stroke="midnightblue" points="254.23,-28.68 244.3,-25.01 249.78,-34.08 254.23,-28.68"/>
</g>
<!-- Node5 -->
<g id="node5" class="node">
<title>Node5</title>
<g id="a_node5"><a xlink:title=" ">
<polygon fill="none" stroke="#bfbfbf" points="322,-0.5 322,-30.5 432,-30.5 432,-0.5 322,-0.5"/>
<text text-anchor="start" x="330" y="-18.5" font-family="FreeSans.ttf" font-size="10.00">yarp/robotinterface</text>
<text text-anchor="middle" x="377" y="-7.5" font-family="FreeSans.ttf" font-size="10.00">/XMLReader.h</text>
</a>
</g>
</g>
<!-- Node2&#45;&gt;Node5 -->
<g id="edge4" class="edge">
<title>Node2&#45;&gt;Node5</title>
<path fill="none" stroke="midnightblue" d="M316.17,-67.48C325.61,-59.57 340.03,-47.48 352.46,-37.07"/>
<polygon fill="midnightblue" stroke="midnightblue" points="354.85,-39.63 360.27,-30.52 350.35,-34.26 354.85,-39.63"/>
</g>
<!-- Node7 -->
<g id="node7" class="node">
<title>Node7</title>
<g id="a_node7"><a xlink:title=" ">
<polygon fill="none" stroke="#bfbfbf" points="450,-6 450,-25 488,-25 488,-6 450,-6"/>
<text text-anchor="middle" x="469" y="-13" font-family="FreeSans.ttf" font-size="10.00">map</text>
</a>
</g>
</g>
<!-- Node6&#45;&gt;Node7 -->
<g id="edge6" class="edge">
<title>Node6&#45;&gt;Node7</title>
<path fill="none" stroke="midnightblue" d="M696.84,-69.86C639.69,-63.92 562.34,-52.51 497,-31 495.57,-30.53 494.12,-29.99 492.68,-29.41"/>
<polygon fill="midnightblue" stroke="midnightblue" points="493.98,-26.15 483.44,-25.09 491.02,-32.49 493.98,-26.15"/>
</g>
<!-- Node8 -->
<g id="node8" class="node">
<title>Node8</title>
<g id="a_node8"><a xlink:title=" ">
<polygon fill="none" stroke="#bfbfbf" points="506.5,-6 506.5,-25 599.5,-25 599.5,-6 506.5,-6"/>
<text text-anchor="middle" x="553" y="-13" font-family="FreeSans.ttf" font-size="10.00">sdf/sdf_config.h</text>
</a>
</g>
</g>
<!-- Node6&#45;&gt;Node8 -->
<g id="edge7" class="edge">
<title>Node6&#45;&gt;Node8</title>
<path fill="none" stroke="midnightblue" d="M746.54,-67.46C712.14,-58.41 656.24,-43.71 608,-31 603.86,-29.91 599.55,-28.77 595.25,-27.64"/>
<polygon fill="midnightblue" stroke="midnightblue" points="595.84,-24.18 585.28,-25.01 594.06,-30.95 595.84,-24.18"/>
</g>
<!-- Node9 -->
<g id="node9" class="node">
<title>Node9</title>
<g id="a_node9"><a xlink:title=" ">
<polygon fill="none" stroke="#bfbfbf" points="617.5,-6 617.5,-25 736.5,-25 736.5,-6 617.5,-6"/>
<text text-anchor="middle" x="677" y="-13" font-family="FreeSans.ttf" font-size="10.00">boost/shared_ptr.hpp</text>
</a>
</g>
</g>
<!-- Node6&#45;&gt;Node9 -->
<g id="edge8" class="edge">
<title>Node6&#45;&gt;Node9</title>
<path fill="none" stroke="midnightblue" d="M764.39,-67.48C747.65,-57.71 720,-41.58 700.28,-30.08"/>
<polygon fill="midnightblue" stroke="midnightblue" points="701.99,-27.02 691.59,-25.01 698.46,-33.07 701.99,-27.02"/>
</g>
<!-- Node10 -->
<g id="node10" class="node">
<title>Node10</title>
<g id="a_node10"><a xlink:title=" ">
<polygon fill="none" stroke="#bfbfbf" points="755,-6 755,-25 803,-25 803,-6 755,-6"/>
<text text-anchor="middle" x="779" y="-13" font-family="FreeSans.ttf" font-size="10.00">mutex</text>
</a>
</g>
</g>
<!-- Node6&#45;&gt;Node10 -->
<g id="edge9" class="edge">
<title>Node6&#45;&gt;Node10</title>
<path fill="none" stroke="midnightblue" d="M779,-67.48C779,-59.08 779,-45.98 779,-35.16"/>
<polygon fill="midnightblue" stroke="midnightblue" points="782.5,-35.01 779,-25.01 775.5,-35.01 782.5,-35.01"/>
</g>
<!-- Node11 -->
<g id="node11" class="node">
<title>Node11</title>
<g id="a_node11"><a xlink:title=" ">
<polygon fill="none" stroke="#bfbfbf" points="821,-6 821,-25 943,-25 943,-6 821,-6"/>
<text text-anchor="middle" x="882" y="-13" font-family="FreeSans.ttf" font-size="10.00">yarp/dev/PolyDriver.h</text>
</a>
</g>
</g>
<!-- Node6&#45;&gt;Node11 -->
<g id="edge10" class="edge">
<title>Node6&#45;&gt;Node11</title>
<path fill="none" stroke="midnightblue" d="M793.76,-67.48C810.66,-57.71 838.58,-41.58 858.49,-30.08"/>
<polygon fill="midnightblue" stroke="midnightblue" points="860.36,-33.04 867.27,-25.01 856.86,-26.98 860.36,-33.04"/>
</g>
<!-- Node12 -->
<g id="node12" class="node">
<title>Node12</title>
<g id="a_node12"><a xlink:title=" ">
<polygon fill="none" stroke="#bfbfbf" points="961,-6 961,-25 1101,-25 1101,-6 961,-6"/>
<text text-anchor="middle" x="1031" y="-13" font-family="FreeSans.ttf" font-size="10.00">yarp/dev/PolyDriverList.h</text>
</a>
</g>
</g>
<!-- Node6&#45;&gt;Node12 -->
<g id="edge11" class="edge">
<title>Node6&#45;&gt;Node12</title>
<path fill="none" stroke="midnightblue" d="M815.11,-67.48C859.83,-56.92 936.08,-38.91 984.97,-27.37"/>
<polygon fill="midnightblue" stroke="midnightblue" points="986.03,-30.71 994.96,-25.01 984.42,-23.9 986.03,-30.71"/>
</g>
<!-- Node14 -->
<g id="node14" class="node">
<title>Node14</title>
<g id="a_node14"><a xlink:title=" ">
<polygon fill="none" stroke="#bfbfbf" points="1119,-6 1119,-25 1163,-25 1163,-6 1119,-6"/>
<text text-anchor="middle" x="1141" y="-13" font-family="FreeSans.ttf" font-size="10.00">string</text>
</a>
</g>
</g>
<!-- Node13&#45;&gt;Node14 -->
<g id="edge13" class="edge">
<title>Node13&#45;&gt;Node14</title>
<path fill="none" stroke="midnightblue" d="M1063.89,-67.48C1078.46,-57.84 1102.4,-42.02 1119.75,-30.55"/>
<polygon fill="midnightblue" stroke="midnightblue" points="1121.72,-33.44 1128.13,-25.01 1117.86,-27.6 1121.72,-33.44"/>
</g>
<!-- Node15 -->
<g id="node15" class="node">
<title>Node15</title>
<g id="a_node15"><a xlink:title=" ">
<polygon fill="none" stroke="#bfbfbf" points="1181.5,-6 1181.5,-25 1228.5,-25 1228.5,-6 1181.5,-6"/>
<text text-anchor="middle" x="1205" y="-13" font-family="FreeSans.ttf" font-size="10.00">cmath</text>
</a>
</g>
</g>
<!-- Node13&#45;&gt;Node15 -->
<g id="edge14" class="edge">
<title>Node13&#45;&gt;Node15</title>
<path fill="none" stroke="midnightblue" d="M1075.26,-67.44C1099.81,-58.68 1138.77,-44.47 1172,-31 1173.41,-30.43 1174.86,-29.83 1176.31,-29.22"/>
<polygon fill="midnightblue" stroke="midnightblue" points="1178.07,-32.28 1185.88,-25.12 1175.31,-25.84 1178.07,-32.28"/>
</g>
</g>
</svg>
