<?xml version="1.0" encoding="UTF-8" standalone="no"?>
<!DOCTYPE svg PUBLIC "-//W3C//DTD SVG 1.1//EN"
 "http://www.w3.org/Graphics/SVG/1.1/DTD/svg11.dtd">
<!-- Generated by graphviz version 5.0.0 (20220707.2338)
 -->
<!-- Title: GazeboYarpRobotInterface.cc Pages: 1 -->
<svg width="1848pt" height="151pt"
 viewBox="0.00 0.00 1848.00 151.00" xmlns="http://www.w3.org/2000/svg" xmlns:xlink="http://www.w3.org/1999/xlink">
<g id="graph0" class="graph" transform="scale(1 1) rotate(0) translate(4 147)">
<title>GazeboYarpRobotInterface.cc</title>
<!-- Node1 -->
<g id="node1" class="node">
<title>Node1</title>
<g id="a_node1"><a xlink:title=" ">
<polygon fill="#bfbfbf" stroke="black" points="1275.5,-123.5 1275.5,-142.5 1434.5,-142.5 1434.5,-123.5 1275.5,-123.5"/>
<text text-anchor="middle" x="1355" y="-130.5" font-family="FreeSans.ttf" font-size="10.00">GazeboYarpRobotInterface.cc</text>
</a>
</g>
</g>
<!-- Node2 -->
<g id="node2" class="node">
<title>Node2</title>
<g id="a_node2"><a xlink:href="GazeboYarpRobotInterface_8hh.html" target="_top" xlink:title=" ">
<polygon fill="none" stroke="black" points="225.5,-67.5 225.5,-86.5 386.5,-86.5 386.5,-67.5 225.5,-67.5"/>
<text text-anchor="middle" x="306" y="-74.5" font-family="FreeSans.ttf" font-size="10.00">GazeboYarpRobotInterface.hh</text>
</a>
</g>
</g>
<!-- Node1&#45;&gt;Node2 -->
<g id="edge1" class="edge">
<title>Node1&#45;&gt;Node2</title>
<path fill="none" stroke="midnightblue" d="M1275.29,-127.9C1083.81,-118.04 598.83,-93.07 396.66,-82.67"/>
<polygon fill="midnightblue" stroke="midnightblue" points="396.83,-79.17 386.66,-82.15 396.47,-86.16 396.83,-79.17"/>
</g>
<!-- Node6 -->
<g id="node6" class="node">
<title>Node6</title>
<g id="a_node6"><a xlink:href="Handler_8hh.html" target="_top" xlink:title=" ">
<polygon fill="none" stroke="black" points="748,-67.5 748,-86.5 912,-86.5 912,-67.5 748,-67.5"/>
<text text-anchor="middle" x="830" y="-74.5" font-family="FreeSans.ttf" font-size="10.00">GazeboYarpPlugins/Handler.hh</text>
</a>
</g>
</g>
<!-- Node1&#45;&gt;Node6 -->
<g id="edge5" class="edge">
<title>Node1&#45;&gt;Node6</title>
<path fill="none" stroke="midnightblue" d="M1275.26,-123.8C1180.42,-114.04 1022.38,-97.79 922.32,-87.5"/>
<polygon fill="midnightblue" stroke="midnightblue" points="922.53,-84 912.22,-86.46 921.81,-90.96 922.53,-84"/>
</g>
<!-- Node14 -->
<g id="node14" class="node">
<title>Node14</title>
<g id="a_node14"><a xlink:href="common_8h.html" target="_top" xlink:title=" ">
<polygon fill="none" stroke="black" points="1103,-67.5 1103,-86.5 1267,-86.5 1267,-67.5 1103,-67.5"/>
<text text-anchor="middle" x="1185" y="-74.5" font-family="FreeSans.ttf" font-size="10.00">GazeboYarpPlugins/common.h</text>
</a>
</g>
</g>
<!-- Node1&#45;&gt;Node14 -->
<g id="edge13" class="edge">
<title>Node1&#45;&gt;Node14</title>
<path fill="none" stroke="midnightblue" d="M1328.06,-123.44C1299.34,-114.32 1253.67,-99.81 1221.68,-89.65"/>
<polygon fill="midnightblue" stroke="midnightblue" points="1222.4,-86.21 1211.81,-86.52 1220.28,-92.88 1222.4,-86.21"/>
</g>
<!-- Node17 -->
<g id="node17" class="node">
<title>Node17</title>
<g id="a_node17"><a xlink:title=" ">
<polygon fill="none" stroke="#bfbfbf" points="1285,-67.5 1285,-86.5 1425,-86.5 1425,-67.5 1285,-67.5"/>
<text text-anchor="middle" x="1355" y="-74.5" font-family="FreeSans.ttf" font-size="10.00">gazebo/physics/Model.hh</text>
</a>
</g>
</g>
<!-- Node1&#45;&gt;Node17 -->
<g id="edge16" class="edge">
<title>Node1&#45;&gt;Node17</title>
<path fill="none" stroke="midnightblue" d="M1355,-123.08C1355,-116.01 1355,-105.86 1355,-96.99"/>
<polygon fill="midnightblue" stroke="midnightblue" points="1358.5,-96.75 1355,-86.75 1351.5,-96.75 1358.5,-96.75"/>
</g>
<!-- Node18 -->
<g id="node18" class="node">
<title>Node18</title>
<g id="a_node18"><a xlink:title=" ">
<polygon fill="none" stroke="#bfbfbf" points="1443.5,-67.5 1443.5,-86.5 1580.5,-86.5 1580.5,-67.5 1443.5,-67.5"/>
<text text-anchor="middle" x="1512" y="-74.5" font-family="FreeSans.ttf" font-size="10.00">gazebo/physics/World.hh</text>
</a>
</g>
</g>
<!-- Node1&#45;&gt;Node18 -->
<g id="edge17" class="edge">
<title>Node1&#45;&gt;Node18</title>
<path fill="none" stroke="midnightblue" d="M1379.88,-123.44C1406.29,-114.36 1448.22,-99.94 1477.74,-89.78"/>
<polygon fill="midnightblue" stroke="midnightblue" points="1478.92,-93.08 1487.24,-86.52 1476.64,-86.46 1478.92,-93.08"/>
</g>
<!-- Node19 -->
<g id="node19" class="node">
<title>Node19</title>
<g id="a_node19"><a xlink:title=" ">
<polygon fill="none" stroke="#bfbfbf" points="1598.5,-67.5 1598.5,-86.5 1715.5,-86.5 1715.5,-67.5 1598.5,-67.5"/>
<text text-anchor="middle" x="1657" y="-74.5" font-family="FreeSans.ttf" font-size="10.00">yarp/os/LogStream.h</text>
</a>
</g>
</g>
<!-- Node1&#45;&gt;Node19 -->
<g id="edge18" class="edge">
<title>Node1&#45;&gt;Node19</title>
<path fill="none" stroke="midnightblue" d="M1402.85,-123.44C1456.2,-113.9 1542.44,-98.48 1599.44,-88.29"/>
<polygon fill="midnightblue" stroke="midnightblue" points="1600.14,-91.72 1609.37,-86.52 1598.91,-84.83 1600.14,-91.72"/>
</g>
<!-- Node20 -->
<g id="node20" class="node">
<title>Node20</title>
<g id="a_node20"><a xlink:title=" ">
<polygon fill="none" stroke="#bfbfbf" points="1734,-67.5 1734,-86.5 1840,-86.5 1840,-67.5 1734,-67.5"/>
<text text-anchor="middle" x="1787" y="-74.5" font-family="FreeSans.ttf" font-size="10.00">yarp/os/Network.h</text>
</a>
</g>
</g>
<!-- Node1&#45;&gt;Node20 -->
<g id="edge19" class="edge">
<title>Node1&#45;&gt;Node20</title>
<path fill="none" stroke="midnightblue" d="M1429.13,-123.5C1501.61,-115.06 1615.39,-101.52 1723.78,-87.14"/>
<polygon fill="midnightblue" stroke="midnightblue" points="1724.46,-90.58 1733.91,-85.79 1723.54,-83.64 1724.46,-90.58"/>
</g>
<!-- Node3 -->
<g id="node3" class="node">
<title>Node3</title>
<g id="a_node3"><a xlink:title=" ">
<polygon fill="none" stroke="#bfbfbf" points="0,-6 0,-25 146,-25 146,-6 0,-6"/>
<text text-anchor="middle" x="73" y="-13" font-family="FreeSans.ttf" font-size="10.00">gazebo/common/Plugin.hh</text>
</a>
</g>
</g>
<!-- Node2&#45;&gt;Node3 -->
<g id="edge2" class="edge">
<title>Node2&#45;&gt;Node3</title>
<path fill="none" stroke="midnightblue" d="M272.62,-67.48C231.44,-56.96 161.35,-39.06 116.13,-27.51"/>
<polygon fill="midnightblue" stroke="midnightblue" points="116.88,-24.09 106.32,-25.01 115.14,-30.87 116.88,-24.09"/>
</g>
<!-- Node4 -->
<g id="node4" class="node">
<title>Node4</title>
<g id="a_node4"><a xlink:title=" ">
<polygon fill="none" stroke="#bfbfbf" points="164,-6 164,-25 304,-25 304,-6 164,-6"/>
<text text-anchor="middle" x="234" y="-13" font-family="FreeSans.ttf" font-size="10.00">gazebo/common/Time.hh</text>
</a>
</g>
</g>
<!-- Node2&#45;&gt;Node4 -->
<g id="edge3" class="edge">
<title>Node2&#45;&gt;Node4</title>
<path fill="none" stroke="midnightblue" d="M295.68,-67.48C284.35,-58.11 265.93,-42.88 252.16,-31.51"/>
<polygon fill="midnightblue" stroke="midnightblue" points="254.23,-28.68 244.3,-25.01 249.78,-34.08 254.23,-28.68"/>
</g>
<!-- Node5 -->
<g id="node5" class="node">
<title>Node5</title>
<g id="a_node5"><a xlink:title=" ">
<polygon fill="none" stroke="#bfbfbf" points="322,-0.5 322,-30.5 432,-30.5 432,-0.5 322,-0.5"/>
<text text-anchor="start" x="330" y="-18.5" font-family="FreeSans.ttf" font-size="10.00">yarp/robotinterface</text>
<text text-anchor="middle" x="377" y="-7.5" font-family="FreeSans.ttf" font-size="10.00">/XMLReader.h</text>
</a>
</g>
</g>
<!-- Node2&#45;&gt;Node5 -->
<g id="edge4" class="edge">
<title>Node2&#45;&gt;Node5</title>
<path fill="none" stroke="midnightblue" d="M316.17,-67.48C325.61,-59.57 340.03,-47.48 352.46,-37.07"/>
<polygon fill="midnightblue" stroke="midnightblue" points="354.85,-39.63 360.27,-30.52 350.35,-34.26 354.85,-39.63"/>
</g>
<!-- Node7 -->
<g id="node7" class="node">
<title>Node7</title>
<g id="a_node7"><a xlink:title=" ">
<polygon fill="none" stroke="#bfbfbf" points="450,-6 450,-25 488,-25 488,-6 450,-6"/>
<text text-anchor="middle" x="469" y="-13" font-family="FreeSans.ttf" font-size="10.00">map</text>
</a>
</g>
</g>
<!-- Node6&#45;&gt;Node7 -->
<g id="edge6" class="edge">
<title>Node6&#45;&gt;Node7</title>
<path fill="none" stroke="midnightblue" d="M747.89,-72.74C679.43,-68.18 580.02,-57.24 497,-31 495.53,-30.54 494.05,-30 492.57,-29.41"/>
<polygon fill="midnightblue" stroke="midnightblue" points="493.67,-26.06 483.13,-25.01 490.71,-32.41 493.67,-26.06"/>
</g>
<!-- Node8 -->
<g id="node8" class="node">
<title>Node8</title>
<g id="a_node8"><a xlink:title=" ">
<polygon fill="none" stroke="#bfbfbf" points="506.5,-6 506.5,-25 599.5,-25 599.5,-6 506.5,-6"/>
<text text-anchor="middle" x="553" y="-13" font-family="FreeSans.ttf" font-size="10.00">sdf/sdf_config.h</text>
</a>
</g>
</g>
<!-- Node6&#45;&gt;Node8 -->
<g id="edge7" class="edge">
<title>Node6&#45;&gt;Node8</title>
<path fill="none" stroke="midnightblue" d="M783.91,-67.46C738.9,-58.93 668.51,-45.1 608,-31 603.37,-29.92 598.55,-28.74 593.75,-27.52"/>
<polygon fill="midnightblue" stroke="midnightblue" points="594.6,-24.13 584.04,-25.02 592.85,-30.91 594.6,-24.13"/>
</g>
<!-- Node9 -->
<g id="node9" class="node">
<title>Node9</title>
<g id="a_node9"><a xlink:title=" ">
<polygon fill="none" stroke="#bfbfbf" points="617.5,-6 617.5,-25 736.5,-25 736.5,-6 617.5,-6"/>
<text text-anchor="middle" x="677" y="-13" font-family="FreeSans.ttf" font-size="10.00">boost/shared_ptr.hpp</text>
</a>
</g>
</g>
<!-- Node6&#45;&gt;Node9 -->
<g id="edge8" class="edge">
<title>Node6&#45;&gt;Node9</title>
<path fill="none" stroke="midnightblue" d="M808.08,-67.48C781.95,-57.31 738.09,-40.26 708.37,-28.7"/>
<polygon fill="midnightblue" stroke="midnightblue" points="709.47,-25.37 698.88,-25.01 706.93,-31.9 709.47,-25.37"/>
</g>
<!-- Node10 -->
<g id="node10" class="node">
<title>Node10</title>
<g id="a_node10"><a xlink:title=" ">
<polygon fill="none" stroke="#bfbfbf" points="755,-6 755,-25 803,-25 803,-6 755,-6"/>
<text text-anchor="middle" x="779" y="-13" font-family="FreeSans.ttf" font-size="10.00">mutex</text>
</a>
</g>
</g>
<!-- Node6&#45;&gt;Node10 -->
<g id="edge9" class="edge">
<title>Node6&#45;&gt;Node10</title>
<path fill="none" stroke="midnightblue" d="M822.69,-67.48C814.97,-58.46 802.59,-44.02 792.98,-32.81"/>
<polygon fill="midnightblue" stroke="midnightblue" points="795.46,-30.32 786.29,-25.01 790.14,-34.88 795.46,-30.32"/>
</g>
<!-- Node11 -->
<g id="node11" class="node">
<title>Node11</title>
<g id="a_node11"><a xlink:title=" ">
<polygon fill="none" stroke="#bfbfbf" points="821,-6 821,-25 943,-25 943,-6 821,-6"/>
<text text-anchor="middle" x="882" y="-13" font-family="FreeSans.ttf" font-size="10.00">yarp/dev/PolyDriver.h</text>
</a>
</g>
</g>
<!-- Node6&#45;&gt;Node11 -->
<g id="edge10" class="edge">
<title>Node6&#45;&gt;Node11</title>
<path fill="none" stroke="midnightblue" d="M837.45,-67.48C845.33,-58.46 857.94,-44.02 867.74,-32.81"/>
<polygon fill="midnightblue" stroke="midnightblue" points="870.62,-34.84 874.56,-25.01 865.35,-30.24 870.62,-34.84"/>
</g>
<!-- Node12 -->
<g id="node12" class="node">
<title>Node12</title>
<g id="a_node12"><a xlink:title=" ">
<polygon fill="none" stroke="#bfbfbf" points="961,-6 961,-25 1101,-25 1101,-6 961,-6"/>
<text text-anchor="middle" x="1031" y="-13" font-family="FreeSans.ttf" font-size="10.00">yarp/dev/PolyDriverList.h</text>
</a>
</g>
</g>
<!-- Node6&#45;&gt;Node12 -->
<g id="edge11" class="edge">
<title>Node6&#45;&gt;Node12</title>
<path fill="none" stroke="midnightblue" d="M858.8,-67.48C893.87,-57.09 953.26,-39.51 992.31,-27.95"/>
<polygon fill="midnightblue" stroke="midnightblue" points="993.66,-31.2 1002.26,-25.01 991.67,-24.49 993.66,-31.2"/>
</g>
<!-- Node13 -->
<g id="node13" class="node">
<title>Node13</title>
<g id="a_node13"><a xlink:title=" ">
<polygon fill="none" stroke="#bfbfbf" points="1119.5,-6 1119.5,-25 1268.5,-25 1268.5,-6 1119.5,-6"/>
<text text-anchor="middle" x="1194" y="-13" font-family="FreeSans.ttf" font-size="10.00">gazebo/common/Events.hh</text>
</a>
</g>
</g>
<!-- Node6&#45;&gt;Node13 -->
<g id="edge12" class="edge">
<title>Node6&#45;&gt;Node13</title>
<path fill="none" stroke="midnightblue" d="M884.23,-67.47C940.66,-58.56 1031.57,-44.07 1110,-31 1118.18,-29.64 1126.81,-28.17 1135.3,-26.72"/>
<polygon fill="midnightblue" stroke="midnightblue" points="1135.89,-30.17 1145.16,-25.03 1134.71,-23.27 1135.89,-30.17"/>
</g>
<!-- Node15 -->
<g id="node15" class="node">
<title>Node15</title>
<g id="a_node15"><a xlink:title=" ">
<polygon fill="none" stroke="#bfbfbf" points="1286,-6 1286,-25 1330,-25 1330,-6 1286,-6"/>
<text text-anchor="middle" x="1308" y="-13" font-family="FreeSans.ttf" font-size="10.00">string</text>
</a>
</g>
</g>
<!-- Node14&#45;&gt;Node15 -->
<g id="edge14" class="edge">
<title>Node14&#45;&gt;Node15</title>
<path fill="none" stroke="midnightblue" d="M1202.62,-67.48C1223.17,-57.53 1257.36,-40.99 1281.21,-29.46"/>
<polygon fill="midnightblue" stroke="midnightblue" points="1282.93,-32.51 1290.41,-25.01 1279.88,-26.21 1282.93,-32.51"/>
</g>
<!-- Node16 -->
<g id="node16" class="node">
<title>Node16</title>
<g id="a_node16"><a xlink:title=" ">
<polygon fill="none" stroke="#bfbfbf" points="1348.5,-6 1348.5,-25 1395.5,-25 1395.5,-6 1348.5,-6"/>
<text text-anchor="middle" x="1372" y="-13" font-family="FreeSans.ttf" font-size="10.00">cmath</text>
</a>
</g>
</g>
<!-- Node14&#45;&gt;Node16 -->
<g id="edge15" class="edge">
<title>Node14&#45;&gt;Node16</title>
<path fill="none" stroke="midnightblue" d="M1218.75,-67.49C1250.22,-59.24 1298.3,-45.82 1339,-31 1340.66,-30.4 1342.35,-29.75 1344.05,-29.08"/>
<polygon fill="midnightblue" stroke="midnightblue" points="1345.79,-32.14 1353.67,-25.06 1343.09,-25.68 1345.79,-32.14"/>
</g>
</g>
</svg>
