<?xml version="1.0" encoding="UTF-8" standalone="no"?>
<!DOCTYPE svg PUBLIC "-//W3C//DTD SVG 1.1//EN"
 "http://www.w3.org/Graphics/SVG/1.1/DTD/svg11.dtd">
<!-- Generated by graphviz version 2.43.0 (0)
 -->
<!-- Title: GazeboYarpRobotInterface.cc Pages: 1 -->
<svg width="1601pt" height="151pt"
 viewBox="0.00 0.00 1601.00 151.00" xmlns="http://www.w3.org/2000/svg" xmlns:xlink="http://www.w3.org/1999/xlink">
<g id="graph0" class="graph" transform="scale(1 1) rotate(0) translate(4 147)">
<title>GazeboYarpRobotInterface.cc</title>
<!-- Node1 -->
<g id="node1" class="node">
<title>Node1</title>
<g id="a_node1"><a xlink:title=" ">
<polygon fill="#bfbfbf" stroke="black" points="1098.5,-123.5 1098.5,-142.5 1257.5,-142.5 1257.5,-123.5 1098.5,-123.5"/>
<text text-anchor="middle" x="1178" y="-130.5" font-family="FreeSans.ttf" font-size="10.00">GazeboYarpRobotInterface.cc</text>
</a>
</g>
</g>
<!-- Node2 -->
<g id="node2" class="node">
<title>Node2</title>
<g id="a_node2"><a xlink:href="GazeboYarpRobotInterface_8hh.html" target="_top" xlink:title=" ">
<polygon fill="none" stroke="black" points="235.5,-67.5 235.5,-86.5 396.5,-86.5 396.5,-67.5 235.5,-67.5"/>
<text text-anchor="middle" x="316" y="-74.5" font-family="FreeSans.ttf" font-size="10.00">GazeboYarpRobotInterface.hh</text>
</a>
</g>
</g>
<!-- Node1&#45;&gt;Node2 -->
<g id="edge1" class="edge">
<title>Node1&#45;&gt;Node2</title>
<path fill="none" stroke="midnightblue" d="M1098.45,-127.02C937.93,-116.96 576.17,-94.3 406.75,-83.69"/>
<polygon fill="midnightblue" stroke="midnightblue" points="406.81,-80.18 396.61,-83.05 406.37,-87.17 406.81,-80.18"/>
</g>
<!-- Node6 -->
<g id="node6" class="node">
<title>Node6</title>
<g id="a_node6"><a xlink:href="Handler_8hh.html" target="_top" xlink:title=" ">
<polygon fill="none" stroke="black" points="739,-67.5 739,-86.5 903,-86.5 903,-67.5 739,-67.5"/>
<text text-anchor="middle" x="821" y="-74.5" font-family="FreeSans.ttf" font-size="10.00">GazeboYarpPlugins/Handler.hh</text>
</a>
</g>
</g>
<!-- Node1&#45;&gt;Node6 -->
<g id="edge5" class="edge">
<title>Node1&#45;&gt;Node6</title>
<path fill="none" stroke="midnightblue" d="M1121.43,-123.44C1057.85,-113.83 954.73,-98.23 887.38,-88.04"/>
<polygon fill="midnightblue" stroke="midnightblue" points="887.71,-84.55 877.3,-86.52 886.67,-91.47 887.71,-84.55"/>
</g>
<!-- Node13 -->
<g id="node13" class="node">
<title>Node13</title>
<g id="a_node13"><a xlink:href="common_8h.html" target="_top" xlink:title=" ">
<polygon fill="none" stroke="black" points="1011,-67.5 1011,-86.5 1175,-86.5 1175,-67.5 1011,-67.5"/>
<text text-anchor="middle" x="1093" y="-74.5" font-family="FreeSans.ttf" font-size="10.00">GazeboYarpPlugins/common.h</text>
</a>
</g>
</g>
<!-- Node1&#45;&gt;Node13 -->
<g id="edge12" class="edge">
<title>Node1&#45;&gt;Node13</title>
<path fill="none" stroke="midnightblue" d="M1164.34,-123.32C1151.08,-114.9 1130.73,-101.97 1115.15,-92.07"/>
<polygon fill="midnightblue" stroke="midnightblue" points="1116.94,-89.06 1106.62,-86.65 1113.19,-94.97 1116.94,-89.06"/>
</g>
<!-- Node16 -->
<g id="node16" class="node">
<title>Node16</title>
<g id="a_node16"><a xlink:title=" ">
<polygon fill="none" stroke="#bfbfbf" points="1193,-67.5 1193,-86.5 1333,-86.5 1333,-67.5 1193,-67.5"/>
<text text-anchor="middle" x="1263" y="-74.5" font-family="FreeSans.ttf" font-size="10.00">gazebo/physics/Model.hh</text>
</a>
</g>
</g>
<!-- Node1&#45;&gt;Node16 -->
<g id="edge15" class="edge">
<title>Node1&#45;&gt;Node16</title>
<path fill="none" stroke="midnightblue" d="M1191.66,-123.32C1204.92,-114.9 1225.27,-101.97 1240.85,-92.07"/>
<polygon fill="midnightblue" stroke="midnightblue" points="1242.81,-94.97 1249.38,-86.65 1239.06,-89.06 1242.81,-94.97"/>
</g>
<!-- Node17 -->
<g id="node17" class="node">
<title>Node17</title>
<g id="a_node17"><a xlink:title=" ">
<polygon fill="none" stroke="#bfbfbf" points="1351.5,-67.5 1351.5,-86.5 1468.5,-86.5 1468.5,-67.5 1351.5,-67.5"/>
<text text-anchor="middle" x="1410" y="-74.5" font-family="FreeSans.ttf" font-size="10.00">yarp/os/LogStream.h</text>
</a>
</g>
</g>
<!-- Node1&#45;&gt;Node17 -->
<g id="edge16" class="edge">
<title>Node1&#45;&gt;Node17</title>
<path fill="none" stroke="midnightblue" d="M1214.76,-123.44C1255.06,-114.06 1319.81,-98.99 1363.58,-88.8"/>
<polygon fill="midnightblue" stroke="midnightblue" points="1364.46,-92.19 1373.41,-86.52 1362.88,-85.37 1364.46,-92.19"/>
</g>
<!-- Node18 -->
<g id="node18" class="node">
<title>Node18</title>
<g id="a_node18"><a xlink:title=" ">
<polygon fill="none" stroke="#bfbfbf" points="1487,-67.5 1487,-86.5 1593,-86.5 1593,-67.5 1487,-67.5"/>
<text text-anchor="middle" x="1540" y="-74.5" font-family="FreeSans.ttf" font-size="10.00">yarp/os/Network.h</text>
</a>
</g>
</g>
<!-- Node1&#45;&gt;Node18 -->
<g id="edge17" class="edge">
<title>Node1&#45;&gt;Node18</title>
<path fill="none" stroke="midnightblue" d="M1235.36,-123.44C1301.07,-113.64 1408.41,-97.63 1476.57,-87.46"/>
<polygon fill="midnightblue" stroke="midnightblue" points="1477.37,-90.88 1486.74,-85.94 1476.33,-83.96 1477.37,-90.88"/>
</g>
<!-- Node3 -->
<g id="node3" class="node">
<title>Node3</title>
<g id="a_node3"><a xlink:title=" ">
<polygon fill="none" stroke="#bfbfbf" points="0,-6 0,-25 146,-25 146,-6 0,-6"/>
<text text-anchor="middle" x="73" y="-13" font-family="FreeSans.ttf" font-size="10.00">gazebo/common/Plugin.hh</text>
</a>
</g>
</g>
<!-- Node2&#45;&gt;Node3 -->
<g id="edge2" class="edge">
<title>Node2&#45;&gt;Node3</title>
<path fill="none" stroke="midnightblue" d="M281.18,-67.48C238.15,-56.94 164.83,-38.99 117.69,-27.44"/>
<polygon fill="midnightblue" stroke="midnightblue" points="118.3,-23.99 107.75,-25.01 116.63,-30.79 118.3,-23.99"/>
</g>
<!-- Node4 -->
<g id="node4" class="node">
<title>Node4</title>
<g id="a_node4"><a xlink:title=" ">
<polygon fill="none" stroke="#bfbfbf" points="164,-6 164,-25 304,-25 304,-6 164,-6"/>
<text text-anchor="middle" x="234" y="-13" font-family="FreeSans.ttf" font-size="10.00">gazebo/common/Time.hh</text>
</a>
</g>
</g>
<!-- Node2&#45;&gt;Node4 -->
<g id="edge3" class="edge">
<title>Node2&#45;&gt;Node4</title>
<path fill="none" stroke="midnightblue" d="M304.25,-67.48C291.22,-58.02 269.96,-42.6 254.24,-31.19"/>
<polygon fill="midnightblue" stroke="midnightblue" points="255.88,-28.05 245.73,-25.01 251.77,-33.71 255.88,-28.05"/>
</g>
<!-- Node5 -->
<g id="node5" class="node">
<title>Node5</title>
<g id="a_node5"><a xlink:title=" ">
<polygon fill="none" stroke="#bfbfbf" points="322,-0.5 322,-30.5 474,-30.5 474,-0.5 322,-0.5"/>
<text text-anchor="start" x="330" y="-18.5" font-family="FreeSans.ttf" font-size="10.00">yarp/robotinterface</text>
<text text-anchor="middle" x="398" y="-7.5" font-family="FreeSans.ttf" font-size="10.00">/experimental/XMLReader.h</text>
</a>
</g>
</g>
<!-- Node2&#45;&gt;Node5 -->
<g id="edge4" class="edge">
<title>Node2&#45;&gt;Node5</title>
<path fill="none" stroke="midnightblue" d="M327.75,-67.48C338.85,-59.42 355.93,-47.02 370.47,-36.47"/>
<polygon fill="midnightblue" stroke="midnightblue" points="372.64,-39.23 378.67,-30.52 368.52,-33.56 372.64,-39.23"/>
</g>
<!-- Node7 -->
<g id="node7" class="node">
<title>Node7</title>
<g id="a_node7"><a xlink:title=" ">
<polygon fill="none" stroke="#bfbfbf" points="492,-6 492,-25 530,-25 530,-6 492,-6"/>
<text text-anchor="middle" x="511" y="-13" font-family="FreeSans.ttf" font-size="10.00">map</text>
</a>
</g>
</g>
<!-- Node6&#45;&gt;Node7 -->
<g id="edge6" class="edge">
<title>Node6&#45;&gt;Node7</title>
<path fill="none" stroke="midnightblue" d="M738.84,-69.86C681.69,-63.92 604.34,-52.51 539,-31 537.57,-30.53 536.12,-29.99 534.68,-29.41"/>
<polygon fill="midnightblue" stroke="midnightblue" points="535.98,-26.15 525.44,-25.09 533.02,-32.49 535.98,-26.15"/>
</g>
<!-- Node8 -->
<g id="node8" class="node">
<title>Node8</title>
<g id="a_node8"><a xlink:title=" ">
<polygon fill="none" stroke="#bfbfbf" points="548.5,-6 548.5,-25 641.5,-25 641.5,-6 548.5,-6"/>
<text text-anchor="middle" x="595" y="-13" font-family="FreeSans.ttf" font-size="10.00">sdf/sdf_config.h</text>
</a>
</g>
</g>
<!-- Node6&#45;&gt;Node8 -->
<g id="edge7" class="edge">
<title>Node6&#45;&gt;Node8</title>
<path fill="none" stroke="midnightblue" d="M788.54,-67.46C754.14,-58.41 698.24,-43.71 650,-31 645.86,-29.91 641.55,-28.77 637.25,-27.64"/>
<polygon fill="midnightblue" stroke="midnightblue" points="637.84,-24.18 627.28,-25.01 636.06,-30.95 637.84,-24.18"/>
</g>
<!-- Node9 -->
<g id="node9" class="node">
<title>Node9</title>
<g id="a_node9"><a xlink:title=" ">
<polygon fill="none" stroke="#bfbfbf" points="659.5,-6 659.5,-25 778.5,-25 778.5,-6 659.5,-6"/>
<text text-anchor="middle" x="719" y="-13" font-family="FreeSans.ttf" font-size="10.00">boost/shared_ptr.hpp</text>
</a>
</g>
</g>
<!-- Node6&#45;&gt;Node9 -->
<g id="edge8" class="edge">
<title>Node6&#45;&gt;Node9</title>
<path fill="none" stroke="midnightblue" d="M806.39,-67.48C789.65,-57.71 762,-41.58 742.28,-30.08"/>
<polygon fill="midnightblue" stroke="midnightblue" points="743.99,-27.02 733.59,-25.01 740.46,-33.07 743.99,-27.02"/>
</g>
<!-- Node10 -->
<g id="node10" class="node">
<title>Node10</title>
<g id="a_node10"><a xlink:title=" ">
<polygon fill="none" stroke="#bfbfbf" points="797,-6 797,-25 845,-25 845,-6 797,-6"/>
<text text-anchor="middle" x="821" y="-13" font-family="FreeSans.ttf" font-size="10.00">mutex</text>
</a>
</g>
</g>
<!-- Node6&#45;&gt;Node10 -->
<g id="edge9" class="edge">
<title>Node6&#45;&gt;Node10</title>
<path fill="none" stroke="midnightblue" d="M821,-67.48C821,-59.08 821,-45.98 821,-35.16"/>
<polygon fill="midnightblue" stroke="midnightblue" points="824.5,-35.01 821,-25.01 817.5,-35.01 824.5,-35.01"/>
</g>
<!-- Node11 -->
<g id="node11" class="node">
<title>Node11</title>
<g id="a_node11"><a xlink:title=" ">
<polygon fill="none" stroke="#bfbfbf" points="863,-6 863,-25 985,-25 985,-6 863,-6"/>
<text text-anchor="middle" x="924" y="-13" font-family="FreeSans.ttf" font-size="10.00">yarp/dev/PolyDriver.h</text>
</a>
</g>
</g>
<!-- Node6&#45;&gt;Node11 -->
<g id="edge10" class="edge">
<title>Node6&#45;&gt;Node11</title>
<path fill="none" stroke="midnightblue" d="M835.76,-67.48C852.66,-57.71 880.58,-41.58 900.49,-30.08"/>
<polygon fill="midnightblue" stroke="midnightblue" points="902.36,-33.04 909.27,-25.01 898.86,-26.98 902.36,-33.04"/>
</g>
<!-- Node12 -->
<g id="node12" class="node">
<title>Node12</title>
<g id="a_node12"><a xlink:title=" ">
<polygon fill="none" stroke="#bfbfbf" points="1003,-6 1003,-25 1143,-25 1143,-6 1003,-6"/>
<text text-anchor="middle" x="1073" y="-13" font-family="FreeSans.ttf" font-size="10.00">yarp/dev/PolyDriverList.h</text>
</a>
</g>
</g>
<!-- Node6&#45;&gt;Node12 -->
<g id="edge11" class="edge">
<title>Node6&#45;&gt;Node12</title>
<path fill="none" stroke="midnightblue" d="M857.11,-67.48C901.83,-56.92 978.08,-38.91 1026.97,-27.37"/>
<polygon fill="midnightblue" stroke="midnightblue" points="1028.03,-30.71 1036.96,-25.01 1026.42,-23.9 1028.03,-30.71"/>
</g>
<!-- Node14 -->
<g id="node14" class="node">
<title>Node14</title>
<g id="a_node14"><a xlink:title=" ">
<polygon fill="none" stroke="#bfbfbf" points="1161,-6 1161,-25 1205,-25 1205,-6 1161,-6"/>
<text text-anchor="middle" x="1183" y="-13" font-family="FreeSans.ttf" font-size="10.00">string</text>
</a>
</g>
</g>
<!-- Node13&#45;&gt;Node14 -->
<g id="edge13" class="edge">
<title>Node13&#45;&gt;Node14</title>
<path fill="none" stroke="midnightblue" d="M1105.89,-67.48C1120.46,-57.84 1144.4,-42.02 1161.75,-30.55"/>
<polygon fill="midnightblue" stroke="midnightblue" points="1163.72,-33.44 1170.13,-25.01 1159.86,-27.6 1163.72,-33.44"/>
</g>
<!-- Node15 -->
<g id="node15" class="node">
<title>Node15</title>
<g id="a_node15"><a xlink:title=" ">
<polygon fill="none" stroke="#bfbfbf" points="1223.5,-6 1223.5,-25 1270.5,-25 1270.5,-6 1223.5,-6"/>
<text text-anchor="middle" x="1247" y="-13" font-family="FreeSans.ttf" font-size="10.00">cmath</text>
</a>
</g>
</g>
<!-- Node13&#45;&gt;Node15 -->
<g id="edge14" class="edge">
<title>Node13&#45;&gt;Node15</title>
<path fill="none" stroke="midnightblue" d="M1117.26,-67.44C1141.81,-58.68 1180.77,-44.47 1214,-31 1215.41,-30.43 1216.86,-29.83 1218.31,-29.22"/>
<polygon fill="midnightblue" stroke="midnightblue" points="1220.07,-32.28 1227.88,-25.12 1217.31,-25.84 1220.07,-32.28"/>
</g>
</g>
</svg>
