<?xml version="1.0" encoding="UTF-8" standalone="no"?>
<!DOCTYPE svg PUBLIC "-//W3C//DTD SVG 1.1//EN"
 "http://www.w3.org/Graphics/SVG/1.1/DTD/svg11.dtd">
<!-- Generated by graphviz version 2.43.0 (0)
 -->
<!-- Title: GazeboYarpRobotInterface.hh Pages: 1 -->
<svg width="482pt" height="95pt"
 viewBox="0.00 0.00 482.00 95.00" xmlns="http://www.w3.org/2000/svg" xmlns:xlink="http://www.w3.org/1999/xlink">
<g id="graph0" class="graph" transform="scale(1 1) rotate(0) translate(4 91)">
<title>GazeboYarpRobotInterface.hh</title>
<!-- Node1 -->
<g id="node1" class="node">
<title>Node1</title>
<g id="a_node1"><a xlink:title=" ">
<polygon fill="#bfbfbf" stroke="black" points="153.5,-67.5 153.5,-86.5 314.5,-86.5 314.5,-67.5 153.5,-67.5"/>
<text text-anchor="middle" x="234" y="-74.5" font-family="FreeSans.ttf" font-size="10.00">GazeboYarpRobotInterface.hh</text>
</a>
</g>
</g>
<!-- Node2 -->
<g id="node2" class="node">
<title>Node2</title>
<g id="a_node2"><a xlink:title=" ">
<polygon fill="none" stroke="#bfbfbf" points="0,-6 0,-25 146,-25 146,-6 0,-6"/>
<text text-anchor="middle" x="73" y="-13" font-family="FreeSans.ttf" font-size="10.00">gazebo/common/Plugin.hh</text>
</a>
</g>
</g>
<!-- Node1&#45;&gt;Node2 -->
<g id="edge1" class="edge">
<title>Node1&#45;&gt;Node2</title>
<path fill="none" stroke="midnightblue" d="M210.93,-67.48C183.32,-57.27 136.88,-40.11 105.6,-28.55"/>
<polygon fill="midnightblue" stroke="midnightblue" points="106.62,-25.19 96.02,-25.01 104.19,-31.76 106.62,-25.19"/>
</g>
<!-- Node3 -->
<g id="node3" class="node">
<title>Node3</title>
<g id="a_node3"><a xlink:title=" ">
<polygon fill="none" stroke="#bfbfbf" points="164,-6 164,-25 304,-25 304,-6 164,-6"/>
<text text-anchor="middle" x="234" y="-13" font-family="FreeSans.ttf" font-size="10.00">gazebo/common/Time.hh</text>
</a>
</g>
</g>
<!-- Node1&#45;&gt;Node3 -->
<g id="edge2" class="edge">
<title>Node1&#45;&gt;Node3</title>
<path fill="none" stroke="midnightblue" d="M234,-67.48C234,-59.08 234,-45.98 234,-35.16"/>
<polygon fill="midnightblue" stroke="midnightblue" points="237.5,-35.01 234,-25.01 230.5,-35.01 237.5,-35.01"/>
</g>
<!-- Node4 -->
<g id="node4" class="node">
<title>Node4</title>
<g id="a_node4"><a xlink:title=" ">
<polygon fill="none" stroke="#bfbfbf" points="322,-0.5 322,-30.5 474,-30.5 474,-0.5 322,-0.5"/>
<text text-anchor="start" x="330" y="-18.5" font-family="FreeSans.ttf" font-size="10.00">yarp/robotinterface</text>
<text text-anchor="middle" x="398" y="-7.5" font-family="FreeSans.ttf" font-size="10.00">/experimental/XMLReader.h</text>
</a>
</g>
</g>
<!-- Node1&#45;&gt;Node4 -->
<g id="edge3" class="edge">
<title>Node1&#45;&gt;Node4</title>
<path fill="none" stroke="midnightblue" d="M257.5,-67.48C281.47,-58.78 319.37,-45.03 349.77,-34"/>
<polygon fill="midnightblue" stroke="midnightblue" points="351.14,-37.22 359.35,-30.52 348.75,-30.64 351.14,-37.22"/>
</g>
</g>
</svg>
