<?xml version="1.0" encoding="UTF-8" standalone="no"?>
<!DOCTYPE svg PUBLIC "-//W3C//DTD SVG 1.1//EN"
 "http://www.w3.org/Graphics/SVG/1.1/DTD/svg11.dtd">
<!-- Generated by graphviz version 2.43.0 (0)
 -->
<!-- Title: Pose.h Pages: 1 -->
<svg width="366pt" height="140pt"
 viewBox="0.00 0.00 365.50 140.00" xmlns="http://www.w3.org/2000/svg" xmlns:xlink="http://www.w3.org/1999/xlink">
<g id="graph0" class="graph" transform="scale(1 1) rotate(0) translate(4 136)">
<title>Pose.h</title>
<!-- Node1 -->
<g id="node1" class="node">
<title>Node1</title>
<g id="a_node1"><a xlink:title=" ">
<polygon fill="#bfbfbf" stroke="black" points="191,-112.5 191,-131.5 240,-131.5 240,-112.5 191,-112.5"/>
<text text-anchor="middle" x="215.5" y="-119.5" font-family="FreeSans.ttf" font-size="10.00">Pose.h</text>
</a>
</g>
</g>
<!-- Node2 -->
<g id="node2" class="node">
<title>Node2</title>
<g id="a_node2"><a xlink:href="GazeboYarpPlugins_2WorldInterfaceServer_8h.html" target="_top" xlink:title=" ">
<polygon fill="none" stroke="black" points="5.5,-56.5 5.5,-75.5 133.5,-75.5 133.5,-56.5 5.5,-56.5"/>
<text text-anchor="middle" x="69.5" y="-63.5" font-family="FreeSans.ttf" font-size="10.00">WorldInterfaceServer.h</text>
</a>
</g>
</g>
<!-- Node1&#45;&gt;Node2 -->
<g id="edge1" class="edge">
<title>Node1&#45;&gt;Node2</title>
<path fill="none" stroke="midnightblue" d="M182.8,-108.91C155.35,-98.75 116.83,-84.51 92.53,-75.52"/>
<polygon fill="midnightblue" stroke="midnightblue" points="181.77,-112.26 192.37,-112.44 184.2,-105.69 181.77,-112.26"/>
</g>
<!-- Node4 -->
<g id="node4" class="node">
<title>Node4</title>
<g id="a_node4"><a xlink:href="WorldInterfaceServer_8h.html" target="_top" xlink:title=" ">
<polygon fill="none" stroke="black" points="151.5,-56.5 151.5,-75.5 279.5,-75.5 279.5,-56.5 151.5,-56.5"/>
<text text-anchor="middle" x="215.5" y="-63.5" font-family="FreeSans.ttf" font-size="10.00">WorldInterfaceServer.h</text>
</a>
</g>
</g>
<!-- Node1&#45;&gt;Node4 -->
<g id="edge3" class="edge">
<title>Node1&#45;&gt;Node4</title>
<path fill="none" stroke="midnightblue" d="M215.5,-101.8C215.5,-92.91 215.5,-82.78 215.5,-75.75"/>
<polygon fill="midnightblue" stroke="midnightblue" points="212,-102.08 215.5,-112.08 219,-102.08 212,-102.08"/>
</g>
<!-- Node5 -->
<g id="node5" class="node">
<title>Node5</title>
<g id="a_node5"><a xlink:href="Pose_8cpp.html" target="_top" xlink:title=" ">
<polygon fill="none" stroke="black" points="297.5,-56.5 297.5,-75.5 357.5,-75.5 357.5,-56.5 297.5,-56.5"/>
<text text-anchor="middle" x="327.5" y="-63.5" font-family="FreeSans.ttf" font-size="10.00">Pose.cpp</text>
</a>
</g>
</g>
<!-- Node1&#45;&gt;Node5 -->
<g id="edge4" class="edge">
<title>Node1&#45;&gt;Node5</title>
<path fill="none" stroke="midnightblue" d="M242.75,-107.86C263.52,-97.85 291.52,-84.35 309.55,-75.65"/>
<polygon fill="midnightblue" stroke="midnightblue" points="240.98,-104.83 233.49,-112.32 244.02,-111.13 240.98,-104.83"/>
</g>
<!-- Node3 -->
<g id="node3" class="node">
<title>Node3</title>
<g id="a_node3"><a xlink:href="WorldInterfaceServer_8cpp.html" target="_top" xlink:title=" ">
<polygon fill="none" stroke="black" points="0,-0.5 0,-19.5 139,-19.5 139,-0.5 0,-0.5"/>
<text text-anchor="middle" x="69.5" y="-7.5" font-family="FreeSans.ttf" font-size="10.00">WorldInterfaceServer.cpp</text>
</a>
</g>
</g>
<!-- Node2&#45;&gt;Node3 -->
<g id="edge2" class="edge">
<title>Node2&#45;&gt;Node3</title>
<path fill="none" stroke="midnightblue" d="M69.5,-45.8C69.5,-36.91 69.5,-26.78 69.5,-19.75"/>
<polygon fill="midnightblue" stroke="midnightblue" points="66,-46.08 69.5,-56.08 73,-46.08 66,-46.08"/>
</g>
</g>
</svg>
