<?xml version="1.0" encoding="UTF-8" standalone="no"?>
<!DOCTYPE svg PUBLIC "-//W3C//DTD SVG 1.1//EN"
 "http://www.w3.org/Graphics/SVG/1.1/DTD/svg11.dtd">
<!-- Generated by graphviz version 3.0.0 (20220315.2325)
 -->
<!-- Title: Handler.hh Pages: 1 -->
<svg width="3410pt" height="151pt"
 viewBox="0.00 0.00 3410.00 151.00" xmlns="http://www.w3.org/2000/svg" xmlns:xlink="http://www.w3.org/1999/xlink">
<g id="graph0" class="graph" transform="scale(1 1) rotate(0) translate(4 147)">
<title>Handler.hh</title>
<!-- Node1 -->
<g id="node1" class="node">
<title>Node1</title>
<g id="a_node1"><a xlink:title=" ">
<polygon fill="#bfbfbf" stroke="black" points="1743,-123.5 1743,-142.5 1812,-142.5 1812,-123.5 1743,-123.5"/>
<text text-anchor="middle" x="1777.5" y="-130.5" font-family="FreeSans.ttf" font-size="10.00">Handler.hh</text>
</a>
</g>
</g>
<!-- Node2 -->
<g id="node2" class="node">
<title>Node2</title>
<g id="a_node2"><a xlink:href="BaseState_8hh.html" target="_top" xlink:title=" ">
<polygon fill="none" stroke="black" points="0,-62 0,-81 81,-81 81,-62 0,-62"/>
<text text-anchor="middle" x="40.5" y="-69" font-family="FreeSans.ttf" font-size="10.00">BaseState.hh</text>
</a>
</g>
</g>
<!-- Node1&#45;&gt;Node2 -->
<g id="edge1" class="edge">
<title>Node1&#45;&gt;Node2</title>
<path fill="none" stroke="midnightblue" d="M1732.61,-131.49C1481.53,-128.53 256.66,-112.87 90.5,-87 82.11,-85.69 73.13,-83.39 65.14,-81"/>
<polygon fill="midnightblue" stroke="midnightblue" points="1732.78,-134.99 1742.82,-131.61 1732.86,-127.99 1732.78,-134.99"/>
</g>
<!-- Node4 -->
<g id="node4" class="node">
<title>Node4</title>
<g id="a_node4"><a xlink:href="BaseStateDriver_8h.html" target="_top" xlink:title=" ">
<polygon fill="none" stroke="black" points="99.5,-62 99.5,-81 203.5,-81 203.5,-62 99.5,-62"/>
<text text-anchor="middle" x="151.5" y="-69" font-family="FreeSans.ttf" font-size="10.00">BaseStateDriver.h</text>
</a>
</g>
</g>
<!-- Node1&#45;&gt;Node4 -->
<g id="edge3" class="edge">
<title>Node1&#45;&gt;Node4</title>
<path fill="none" stroke="midnightblue" d="M1732.92,-131.95C1510.34,-131.51 518.06,-127.28 212.5,-87 202.46,-85.68 191.67,-83.4 181.99,-81.04"/>
<polygon fill="midnightblue" stroke="midnightblue" points="1732.92,-135.45 1742.93,-131.97 1732.93,-128.45 1732.92,-135.45"/>
</g>
<!-- Node6 -->
<g id="node6" class="node">
<title>Node6</title>
<g id="a_node6"><a xlink:href="Camera_8cc.html" target="_top" xlink:title=" ">
<polygon fill="none" stroke="black" points="221.5,-62 221.5,-81 289.5,-81 289.5,-62 221.5,-62"/>
<text text-anchor="middle" x="255.5" y="-69" font-family="FreeSans.ttf" font-size="10.00">Camera.cc</text>
</a>
</g>
</g>
<!-- Node1&#45;&gt;Node6 -->
<g id="edge6" class="edge">
<title>Node1&#45;&gt;Node6</title>
<path fill="none" stroke="midnightblue" d="M1732.7,-131.42C1500.86,-128.33 442.46,-112.87 298.5,-87 291.37,-85.72 283.81,-83.48 277.05,-81.15"/>
<polygon fill="midnightblue" stroke="midnightblue" points="1732.75,-134.92 1742.8,-131.56 1732.85,-127.92 1732.75,-134.92"/>
</g>
<!-- Node7 -->
<g id="node7" class="node">
<title>Node7</title>
<g id="a_node7"><a xlink:href="CameraDriver_8cpp.html" target="_top" xlink:title=" ">
<polygon fill="none" stroke="black" points="307.5,-62 307.5,-81 411.5,-81 411.5,-62 307.5,-62"/>
<text text-anchor="middle" x="359.5" y="-69" font-family="FreeSans.ttf" font-size="10.00">CameraDriver.cpp</text>
</a>
</g>
</g>
<!-- Node1&#45;&gt;Node7 -->
<g id="edge7" class="edge">
<title>Node1&#45;&gt;Node7</title>
<path fill="none" stroke="midnightblue" d="M1732.75,-131.72C1528.42,-130.26 682.72,-122.15 420.5,-87 410.47,-85.65 399.67,-83.37 389.99,-81.01"/>
<polygon fill="midnightblue" stroke="midnightblue" points="1732.8,-135.22 1742.82,-131.79 1732.85,-128.22 1732.8,-135.22"/>
</g>
<!-- Node8 -->
<g id="node8" class="node">
<title>Node8</title>
<g id="a_node8"><a xlink:href="ContactLoadCellArray_8cc.html" target="_top" xlink:title=" ">
<polygon fill="none" stroke="black" points="429.5,-62 429.5,-81 563.5,-81 563.5,-62 429.5,-62"/>
<text text-anchor="middle" x="496.5" y="-69" font-family="FreeSans.ttf" font-size="10.00">ContactLoadCellArray.cc</text>
</a>
</g>
</g>
<!-- Node1&#45;&gt;Node8 -->
<g id="edge8" class="edge">
<title>Node1&#45;&gt;Node8</title>
<path fill="none" stroke="midnightblue" d="M1732.68,-131.23C1542.8,-127.85 803.83,-113.23 572.5,-87 560.22,-85.61 546.95,-83.34 534.99,-81.01"/>
<polygon fill="midnightblue" stroke="midnightblue" points="1732.79,-134.74 1742.85,-131.41 1732.92,-127.74 1732.79,-134.74"/>
</g>
<!-- Node9 -->
<g id="node9" class="node">
<title>Node9</title>
<g id="a_node9"><a xlink:href="ContactLoadCellArrayDriver_8cpp.html" target="_top" xlink:title=" ">
<polygon fill="none" stroke="black" points="581.5,-62 581.5,-81 753.5,-81 753.5,-62 581.5,-62"/>
<text text-anchor="middle" x="667.5" y="-69" font-family="FreeSans.ttf" font-size="10.00">ContactLoadCellArrayDriver.cpp</text>
</a>
</g>
</g>
<!-- Node1&#45;&gt;Node9 -->
<g id="edge9" class="edge">
<title>Node1&#45;&gt;Node9</title>
<path fill="none" stroke="midnightblue" d="M1732.7,-131.72C1590.44,-130.48 1136.27,-123.7 762.5,-87 747.56,-85.53 731.38,-83.3 716.68,-81.03"/>
<polygon fill="midnightblue" stroke="midnightblue" points="1732.76,-135.22 1742.79,-131.81 1732.82,-128.22 1732.76,-135.22"/>
</g>
<!-- Node10 -->
<g id="node10" class="node">
<title>Node10</title>
<g id="a_node10"><a xlink:href="ControlBoard_8cc.html" target="_top" xlink:title=" ">
<polygon fill="none" stroke="black" points="771.5,-62 771.5,-81 865.5,-81 865.5,-62 771.5,-62"/>
<text text-anchor="middle" x="818.5" y="-69" font-family="FreeSans.ttf" font-size="10.00">ControlBoard.cc</text>
</a>
</g>
</g>
<!-- Node1&#45;&gt;Node10 -->
<g id="edge10" class="edge">
<title>Node1&#45;&gt;Node10</title>
<path fill="none" stroke="midnightblue" d="M1732.23,-130.96C1573.49,-127.14 1042.68,-112.69 874.5,-87 865.37,-85.6 855.57,-83.34 846.76,-81.01"/>
<polygon fill="midnightblue" stroke="midnightblue" points="1732.49,-134.47 1742.57,-131.21 1732.66,-127.47 1732.49,-134.47"/>
</g>
<!-- Node11 -->
<g id="node11" class="node">
<title>Node11</title>
<g id="a_node11"><a xlink:href="ControlBoardDriverDeviceDriver_8cpp.html" target="_top" xlink:title=" ">
<polygon fill="none" stroke="black" points="883.5,-56.5 883.5,-86.5 1027.5,-86.5 1027.5,-56.5 883.5,-56.5"/>
<text text-anchor="start" x="891.5" y="-74.5" font-family="FreeSans.ttf" font-size="10.00">ControlBoardDriverDevice</text>
<text text-anchor="middle" x="955.5" y="-63.5" font-family="FreeSans.ttf" font-size="10.00">Driver.cpp</text>
</a>
</g>
</g>
<!-- Node1&#45;&gt;Node11 -->
<g id="edge11" class="edge">
<title>Node1&#45;&gt;Node11</title>
<path fill="none" stroke="midnightblue" d="M1732.39,-131.09C1616.5,-128.35 1298.97,-118.35 1036.5,-87 1033.66,-86.66 1030.77,-86.29 1027.86,-85.88"/>
<polygon fill="midnightblue" stroke="midnightblue" points="1732.57,-134.59 1742.65,-131.32 1732.73,-127.6 1732.57,-134.59"/>
</g>
<!-- Node12 -->
<g id="node12" class="node">
<title>Node12</title>
<g id="a_node12"><a xlink:href="DepthCamera_8cc.html" target="_top" xlink:title=" ">
<polygon fill="none" stroke="black" points="1045.5,-62 1045.5,-81 1143.5,-81 1143.5,-62 1045.5,-62"/>
<text text-anchor="middle" x="1094.5" y="-69" font-family="FreeSans.ttf" font-size="10.00">DepthCamera.cc</text>
</a>
</g>
</g>
<!-- Node1&#45;&gt;Node12 -->
<g id="edge12" class="edge">
<title>Node1&#45;&gt;Node12</title>
<path fill="none" stroke="midnightblue" d="M1732.65,-131.43C1629.56,-129.53 1368.01,-121.43 1152.5,-87 1143.28,-85.53 1133.37,-83.3 1124.4,-81.02"/>
<polygon fill="midnightblue" stroke="midnightblue" points="1732.64,-134.93 1742.7,-131.6 1732.77,-127.93 1732.64,-134.93"/>
</g>
<!-- Node13 -->
<g id="node13" class="node">
<title>Node13</title>
<g id="a_node13"><a xlink:href="DepthCameraDriver_8cpp.html" target="_top" xlink:title=" ">
<polygon fill="none" stroke="black" points="1161.5,-62 1161.5,-81 1295.5,-81 1295.5,-62 1161.5,-62"/>
<text text-anchor="middle" x="1228.5" y="-69" font-family="FreeSans.ttf" font-size="10.00">DepthCameraDriver.cpp</text>
</a>
</g>
</g>
<!-- Node1&#45;&gt;Node13 -->
<g id="edge13" class="edge">
<title>Node1&#45;&gt;Node13</title>
<path fill="none" stroke="midnightblue" d="M1732.73,-129.14C1648.56,-123.47 1461.13,-109.34 1304.5,-87 1293.06,-85.37 1280.73,-83.2 1269.4,-81.03"/>
<polygon fill="midnightblue" stroke="midnightblue" points="1732.74,-132.65 1742.95,-129.83 1733.2,-125.67 1732.74,-132.65"/>
</g>
<!-- Node14 -->
<g id="node14" class="node">
<title>Node14</title>
<g id="a_node14"><a xlink:href="FakeControlBoard_8cc.html" target="_top" xlink:title=" ">
<polygon fill="none" stroke="black" points="1313.5,-62 1313.5,-81 1429.5,-81 1429.5,-62 1313.5,-62"/>
<text text-anchor="middle" x="1371.5" y="-69" font-family="FreeSans.ttf" font-size="10.00">FakeControlBoard.cc</text>
</a>
</g>
</g>
<!-- Node1&#45;&gt;Node14 -->
<g id="edge14" class="edge">
<title>Node1&#45;&gt;Node14</title>
<path fill="none" stroke="midnightblue" d="M1732.53,-127.14C1667.61,-119.87 1543.93,-105.06 1439.5,-87 1429.51,-85.27 1418.75,-83.12 1408.81,-81"/>
<polygon fill="midnightblue" stroke="midnightblue" points="1732.49,-130.66 1742.82,-128.28 1733.27,-123.7 1732.49,-130.66"/>
</g>
<!-- Node15 -->
<g id="node15" class="node">
<title>Node15</title>
<g id="a_node15"><a xlink:href="ForceTorque_8cc.html" target="_top" xlink:title=" ">
<polygon fill="none" stroke="black" points="1448,-62 1448,-81 1537,-81 1537,-62 1448,-62"/>
<text text-anchor="middle" x="1492.5" y="-69" font-family="FreeSans.ttf" font-size="10.00">ForceTorque.cc</text>
</a>
</g>
</g>
<!-- Node1&#45;&gt;Node15 -->
<g id="edge15" class="edge">
<title>Node1&#45;&gt;Node15</title>
<path fill="none" stroke="midnightblue" d="M1732.82,-124.25C1686.14,-115.94 1610.89,-101.9 1546.5,-87 1538.75,-85.21 1530.42,-83.07 1522.68,-81"/>
<polygon fill="midnightblue" stroke="midnightblue" points="1732.44,-127.74 1742.9,-126.04 1733.66,-120.85 1732.44,-127.74"/>
</g>
<!-- Node16 -->
<g id="node16" class="node">
<title>Node16</title>
<g id="a_node16"><a xlink:href="ForceTorqueDriver_8cpp.html" target="_top" xlink:title=" ">
<polygon fill="none" stroke="black" points="1555,-62 1555,-81 1680,-81 1680,-62 1555,-62"/>
<text text-anchor="middle" x="1617.5" y="-69" font-family="FreeSans.ttf" font-size="10.00">ForceTorqueDriver.cpp</text>
</a>
</g>
</g>
<!-- Node1&#45;&gt;Node16 -->
<g id="edge16" class="edge">
<title>Node1&#45;&gt;Node16</title>
<path fill="none" stroke="midnightblue" d="M1745.05,-119.93C1713.95,-108.37 1667.81,-91.21 1640.38,-81.01"/>
<polygon fill="midnightblue" stroke="midnightblue" points="1743.98,-123.27 1754.58,-123.48 1746.42,-116.71 1743.98,-123.27"/>
</g>
<!-- Node17 -->
<g id="node17" class="node">
<title>Node17</title>
<g id="a_node17"><a xlink:href="GazeboYarpRobotInterface_8cc.html" target="_top" xlink:title=" ">
<polygon fill="none" stroke="black" points="1698,-62 1698,-81 1857,-81 1857,-62 1698,-62"/>
<text text-anchor="middle" x="1777.5" y="-69" font-family="FreeSans.ttf" font-size="10.00">GazeboYarpRobotInterface.cc</text>
</a>
</g>
</g>
<!-- Node1&#45;&gt;Node17 -->
<g id="edge17" class="edge">
<title>Node1&#45;&gt;Node17</title>
<path fill="none" stroke="midnightblue" d="M1777.5,-113.32C1777.5,-102.5 1777.5,-89.4 1777.5,-81.01"/>
<polygon fill="midnightblue" stroke="midnightblue" points="1774,-113.48 1777.5,-123.48 1781,-113.48 1774,-113.48"/>
</g>
<!-- Node18 -->
<g id="node18" class="node">
<title>Node18</title>
<g id="a_node18"><a xlink:href="Handler_8cc.html" target="_top" xlink:title=" ">
<polygon fill="none" stroke="black" points="1875.5,-62 1875.5,-81 1943.5,-81 1943.5,-62 1875.5,-62"/>
<text text-anchor="middle" x="1909.5" y="-69" font-family="FreeSans.ttf" font-size="10.00">Handler.cc</text>
</a>
</g>
</g>
<!-- Node1&#45;&gt;Node18 -->
<g id="edge18" class="edge">
<title>Node1&#45;&gt;Node18</title>
<path fill="none" stroke="midnightblue" d="M1805.61,-119.33C1831.24,-107.78 1868.39,-91.03 1890.62,-81.01"/>
<polygon fill="midnightblue" stroke="midnightblue" points="1804.09,-116.17 1796.41,-123.48 1806.97,-122.56 1804.09,-116.17"/>
</g>
<!-- Node19 -->
<g id="node19" class="node">
<title>Node19</title>
<g id="a_node19"><a xlink:href="IMU_8cc.html" target="_top" xlink:title=" ">
<polygon fill="none" stroke="black" points="1961.5,-62 1961.5,-81 2011.5,-81 2011.5,-62 1961.5,-62"/>
<text text-anchor="middle" x="1986.5" y="-69" font-family="FreeSans.ttf" font-size="10.00">IMU.cc</text>
</a>
</g>
</g>
<!-- Node1&#45;&gt;Node19 -->
<g id="edge19" class="edge">
<title>Node1&#45;&gt;Node19</title>
<path fill="none" stroke="midnightblue" d="M1822.25,-122.46C1857.94,-114.39 1908.97,-101.78 1952.5,-87 1957.48,-85.31 1962.76,-83.21 1967.64,-81.14"/>
<polygon fill="midnightblue" stroke="midnightblue" points="1821.15,-119.12 1812.15,-124.72 1822.68,-125.95 1821.15,-119.12"/>
</g>
<!-- Node20 -->
<g id="node20" class="node">
<title>Node20</title>
<g id="a_node20"><a xlink:href="IMUDriver_8cpp.html" target="_top" xlink:title=" ">
<polygon fill="none" stroke="black" points="2029.5,-62 2029.5,-81 2115.5,-81 2115.5,-62 2029.5,-62"/>
<text text-anchor="middle" x="2072.5" y="-69" font-family="FreeSans.ttf" font-size="10.00">IMUDriver.cpp</text>
</a>
</g>
</g>
<!-- Node1&#45;&gt;Node20 -->
<g id="edge20" class="edge">
<title>Node1&#45;&gt;Node20</title>
<path fill="none" stroke="midnightblue" d="M1822.25,-124.94C1871.2,-116.93 1951.82,-102.9 2020.5,-87 2028.08,-85.25 2036.21,-83.1 2043.74,-81.01"/>
<polygon fill="midnightblue" stroke="midnightblue" points="1821.62,-121.49 1812.31,-126.55 1822.74,-128.4 1821.62,-121.49"/>
</g>
<!-- Node21 -->
<g id="node21" class="node">
<title>Node21</title>
<g id="a_node21"><a xlink:href="LaserSensor_8cc.html" target="_top" xlink:title=" ">
<polygon fill="none" stroke="black" points="2134,-62 2134,-81 2223,-81 2223,-62 2134,-62"/>
<text text-anchor="middle" x="2178.5" y="-69" font-family="FreeSans.ttf" font-size="10.00">LaserSensor.cc</text>
</a>
</g>
</g>
<!-- Node1&#45;&gt;Node21 -->
<g id="edge21" class="edge">
<title>Node1&#45;&gt;Node21</title>
<path fill="none" stroke="midnightblue" d="M1822.34,-128.11C1888.76,-121.92 2017.03,-108.3 2124.5,-87 2132.69,-85.38 2141.47,-83.21 2149.52,-81.04"/>
<polygon fill="midnightblue" stroke="midnightblue" points="1821.86,-124.64 1812.22,-129.04 1822.5,-131.61 1821.86,-124.64"/>
</g>
<!-- Node22 -->
<g id="node22" class="node">
<title>Node22</title>
<g id="a_node22"><a xlink:href="LaserSensorDriver_8cpp.html" target="_top" xlink:title=" ">
<polygon fill="none" stroke="black" points="2241,-62 2241,-81 2366,-81 2366,-62 2241,-62"/>
<text text-anchor="middle" x="2303.5" y="-69" font-family="FreeSans.ttf" font-size="10.00">LaserSensorDriver.cpp</text>
</a>
</g>
</g>
<!-- Node1&#45;&gt;Node22 -->
<g id="edge22" class="edge">
<title>Node1&#45;&gt;Node22</title>
<path fill="none" stroke="midnightblue" d="M1822.38,-129.1C1904.22,-123.47 2083.06,-109.59 2232.5,-87 2243.2,-85.38 2254.72,-83.22 2265.31,-81.05"/>
<polygon fill="midnightblue" stroke="midnightblue" points="1821.92,-125.62 1812.18,-129.79 1822.4,-132.61 1821.92,-125.62"/>
</g>
<!-- Node23 -->
<g id="node23" class="node">
<title>Node23</title>
<g id="a_node23"><a xlink:href="MaisSensor_8cc.html" target="_top" xlink:title=" ">
<polygon fill="none" stroke="black" points="2384.5,-62 2384.5,-81 2470.5,-81 2470.5,-62 2384.5,-62"/>
<text text-anchor="middle" x="2427.5" y="-69" font-family="FreeSans.ttf" font-size="10.00">MaisSensor.cc</text>
</a>
</g>
</g>
<!-- Node1&#45;&gt;Node23 -->
<g id="edge23" class="edge">
<title>Node1&#45;&gt;Node23</title>
<path fill="none" stroke="midnightblue" d="M1822.22,-131.63C1922.17,-130.15 2170.97,-122.85 2375.5,-87 2383.81,-85.54 2392.7,-83.32 2400.74,-81.05"/>
<polygon fill="midnightblue" stroke="midnightblue" points="1822.13,-128.13 1812.18,-131.77 1822.22,-135.13 1822.13,-128.13"/>
</g>
<!-- Node24 -->
<g id="node24" class="node">
<title>Node24</title>
<g id="a_node24"><a xlink:href="MaisSensorDeviceDriver_8cpp.html" target="_top" xlink:title=" ">
<polygon fill="none" stroke="black" points="2488.5,-62 2488.5,-81 2644.5,-81 2644.5,-62 2488.5,-62"/>
<text text-anchor="middle" x="2566.5" y="-69" font-family="FreeSans.ttf" font-size="10.00">MaisSensorDeviceDriver.cpp</text>
</a>
</g>
</g>
<!-- Node1&#45;&gt;Node24 -->
<g id="edge24" class="edge">
<title>Node1&#45;&gt;Node24</title>
<path fill="none" stroke="midnightblue" d="M1822.52,-130.69C1934.11,-127.11 2232.39,-115.44 2479.5,-87 2492.89,-85.46 2507.35,-83.26 2520.57,-81.05"/>
<polygon fill="midnightblue" stroke="midnightblue" points="1822.19,-127.2 1812.31,-131.01 1822.41,-134.2 1822.19,-127.2"/>
</g>
<!-- Node25 -->
<g id="node25" class="node">
<title>Node25</title>
<g id="a_node25"><a xlink:href="MultiCamera_8cc.html" target="_top" xlink:title=" ">
<polygon fill="none" stroke="black" points="2663,-62 2663,-81 2756,-81 2756,-62 2663,-62"/>
<text text-anchor="middle" x="2709.5" y="-69" font-family="FreeSans.ttf" font-size="10.00">MultiCamera.cc</text>
</a>
</g>
</g>
<!-- Node1&#45;&gt;Node25 -->
<g id="edge25" class="edge">
<title>Node1&#45;&gt;Node25</title>
<path fill="none" stroke="midnightblue" d="M1822.46,-130.89C1977.73,-126.87 2490.73,-111.99 2653.5,-87 2662.63,-85.6 2672.43,-83.33 2681.24,-81"/>
<polygon fill="midnightblue" stroke="midnightblue" points="1822.24,-127.4 1812.34,-131.15 1822.42,-134.39 1822.24,-127.4"/>
</g>
<!-- Node26 -->
<g id="node26" class="node">
<title>Node26</title>
<g id="a_node26"><a xlink:href="MultiCameraDriver_8cpp.html" target="_top" xlink:title=" ">
<polygon fill="none" stroke="black" points="2774,-62 2774,-81 2903,-81 2903,-62 2774,-62"/>
<text text-anchor="middle" x="2838.5" y="-69" font-family="FreeSans.ttf" font-size="10.00">MultiCameraDriver.cpp</text>
</a>
</g>
</g>
<!-- Node1&#45;&gt;Node26 -->
<g id="edge26" class="edge">
<title>Node1&#45;&gt;Node26</title>
<path fill="none" stroke="midnightblue" d="M1822.56,-132.35C1962.8,-132.94 2403.76,-130.91 2765.5,-87 2777.17,-85.58 2789.77,-83.34 2801.16,-81.04"/>
<polygon fill="midnightblue" stroke="midnightblue" points="1822.24,-128.85 1812.22,-132.3 1822.2,-135.85 1822.24,-128.85"/>
</g>
<!-- Node27 -->
<g id="node27" class="node">
<title>Node27</title>
<g id="a_node27"><a xlink:href="VideoTexture_8cc.html" target="_top" xlink:title=" ">
<polygon fill="none" stroke="black" points="2921.5,-62 2921.5,-81 3015.5,-81 3015.5,-62 2921.5,-62"/>
<text text-anchor="middle" x="2968.5" y="-69" font-family="FreeSans.ttf" font-size="10.00">VideoTexture.cc</text>
</a>
</g>
</g>
<!-- Node1&#45;&gt;Node27 -->
<g id="edge27" class="edge">
<title>Node1&#45;&gt;Node27</title>
<path fill="none" stroke="midnightblue" d="M1822.13,-131.5C2004.87,-129.28 2696.48,-118.87 2912.5,-87 2921.64,-85.65 2931.44,-83.4 2940.25,-81.07"/>
<polygon fill="midnightblue" stroke="midnightblue" points="1822.03,-128 1812.07,-131.62 1822.11,-135 1822.03,-128"/>
</g>
<!-- Node28 -->
<g id="node28" class="node">
<title>Node28</title>
<g id="a_node28"><a xlink:href="inertialMTB_8cc.html" target="_top" xlink:title=" ">
<polygon fill="none" stroke="black" points="3033.5,-62 3033.5,-81 3119.5,-81 3119.5,-62 3033.5,-62"/>
<text text-anchor="middle" x="3076.5" y="-69" font-family="FreeSans.ttf" font-size="10.00">inertialMTB.cc</text>
</a>
</g>
</g>
<!-- Node1&#45;&gt;Node28 -->
<g id="edge28" class="edge">
<title>Node1&#45;&gt;Node28</title>
<path fill="none" stroke="midnightblue" d="M1822.37,-131.8C2016.58,-130.7 2785.79,-124.06 3024.5,-87 3033.11,-85.66 3042.33,-83.38 3050.58,-81.02"/>
<polygon fill="midnightblue" stroke="midnightblue" points="1822.22,-128.3 1812.24,-131.85 1822.26,-135.3 1822.22,-128.3"/>
</g>
<!-- Node29 -->
<g id="node29" class="node">
<title>Node29</title>
<g id="a_node29"><a xlink:href="inertialMTBPart_8cc.html" target="_top" xlink:title=" ">
<polygon fill="none" stroke="black" points="3138,-62 3138,-81 3243,-81 3243,-62 3138,-62"/>
<text text-anchor="middle" x="3190.5" y="-69" font-family="FreeSans.ttf" font-size="10.00">inertialMTBPart.cc</text>
</a>
</g>
</g>
<!-- Node1&#45;&gt;Node29 -->
<g id="edge29" class="edge">
<title>Node1&#45;&gt;Node29</title>
<path fill="none" stroke="midnightblue" d="M1822.04,-131.69C2025.46,-130.11 2867.38,-121.54 3128.5,-87 3138.69,-85.65 3149.66,-83.37 3159.5,-81.01"/>
<polygon fill="midnightblue" stroke="midnightblue" points="1821.99,-128.19 1812.02,-131.77 1822.05,-135.19 1821.99,-128.19"/>
</g>
<!-- Node30 -->
<g id="node30" class="node">
<title>Node30</title>
<g id="a_node30"><a xlink:href="inertialMTBPartDriver_8cpp.html" target="_top" xlink:title=" ">
<polygon fill="none" stroke="black" points="3261,-62 3261,-81 3402,-81 3402,-62 3261,-62"/>
<text text-anchor="middle" x="3331.5" y="-69" font-family="FreeSans.ttf" font-size="10.00">inertialMTBPartDriver.cpp</text>
</a>
</g>
</g>
<!-- Node1&#45;&gt;Node30 -->
<g id="edge30" class="edge">
<title>Node1&#45;&gt;Node30</title>
<path fill="none" stroke="midnightblue" d="M1822.54,-131.54C2038.02,-129.22 2965.02,-117.59 3252.5,-87 3265.26,-85.64 3279.05,-83.39 3291.48,-81.06"/>
<polygon fill="midnightblue" stroke="midnightblue" points="1822.21,-128.05 1812.25,-131.65 1822.28,-135.05 1822.21,-128.05"/>
</g>
<!-- Node3 -->
<g id="node3" class="node">
<title>Node3</title>
<g id="a_node3"><a xlink:href="BaseState_8cc.html" target="_top" xlink:title=" ">
<polygon fill="none" stroke="black" points="0.5,-0.5 0.5,-19.5 80.5,-19.5 80.5,-0.5 0.5,-0.5"/>
<text text-anchor="middle" x="40.5" y="-7.5" font-family="FreeSans.ttf" font-size="10.00">BaseState.cc</text>
</a>
</g>
</g>
<!-- Node2&#45;&gt;Node3 -->
<g id="edge2" class="edge">
<title>Node2&#45;&gt;Node3</title>
<path fill="none" stroke="midnightblue" d="M40.5,-51.82C40.5,-41 40.5,-27.9 40.5,-19.51"/>
<polygon fill="midnightblue" stroke="midnightblue" points="37,-51.98 40.5,-61.98 44,-51.98 37,-51.98"/>
</g>
<!-- Node4&#45;&gt;Node3 -->
<g id="edge4" class="edge">
<title>Node4&#45;&gt;Node3</title>
<path fill="none" stroke="midnightblue" d="M126.71,-57.21C105.21,-45.69 74.74,-29.36 56.37,-19.51"/>
<polygon fill="midnightblue" stroke="midnightblue" points="125.13,-60.34 135.6,-61.98 128.44,-54.17 125.13,-60.34"/>
</g>
<!-- Node5 -->
<g id="node5" class="node">
<title>Node5</title>
<g id="a_node5"><a xlink:href="BaseStateDriver_8cpp.html" target="_top" xlink:title=" ">
<polygon fill="none" stroke="black" points="98.5,-0.5 98.5,-19.5 214.5,-19.5 214.5,-0.5 98.5,-0.5"/>
<text text-anchor="middle" x="156.5" y="-7.5" font-family="FreeSans.ttf" font-size="10.00">BaseStateDriver.cpp</text>
</a>
</g>
</g>
<!-- Node4&#45;&gt;Node5 -->
<g id="edge5" class="edge">
<title>Node4&#45;&gt;Node5</title>
<path fill="none" stroke="midnightblue" d="M153.07,-51.82C153.98,-41 155.08,-27.9 155.78,-19.51"/>
<polygon fill="midnightblue" stroke="midnightblue" points="149.57,-51.72 152.22,-61.98 156.54,-52.3 149.57,-51.72"/>
</g>
</g>
</svg>
