<?xml version="1.0" encoding="UTF-8" standalone="no"?>
<!DOCTYPE svg PUBLIC "-//W3C//DTD SVG 1.1//EN"
 "http://www.w3.org/Graphics/SVG/1.1/DTD/svg11.dtd">
<!-- Generated by graphviz version 2.49.0 (20210829.0051)
 -->
<!-- Title: Handler.hh Pages: 1 -->
<svg width="3410pt" height="151pt"
 viewBox="0.00 0.00 3410.00 151.00" xmlns="http://www.w3.org/2000/svg" xmlns:xlink="http://www.w3.org/1999/xlink">
<g id="graph0" class="graph" transform="scale(1 1) rotate(0) translate(4 147)">
<title>Handler.hh</title>
<!-- Node1 -->
<g id="node1" class="node">
<title>Node1</title>
<g id="a_node1"><a xlink:title=" ">
<polygon fill="#bfbfbf" stroke="black" points="1669.5,-123.5 1669.5,-142.5 1738.5,-142.5 1738.5,-123.5 1669.5,-123.5"/>
<text text-anchor="middle" x="1704" y="-130.5" font-family="FreeSans.ttf" font-size="10.00">Handler.hh</text>
</a>
</g>
</g>
<!-- Node2 -->
<g id="node2" class="node">
<title>Node2</title>
<g id="a_node2"><a xlink:href="Handler_8cc.html" target="_top" xlink:title=" ">
<polygon fill="none" stroke="black" points="0,-62 0,-81 68,-81 68,-62 0,-62"/>
<text text-anchor="middle" x="34" y="-69" font-family="FreeSans.ttf" font-size="10.00">Handler.cc</text>
</a>
</g>
</g>
<!-- Node1&#45;&gt;Node2 -->
<g id="edge1" class="edge">
<title>Node1&#45;&gt;Node2</title>
<path fill="none" stroke="midnightblue" d="M1659.14,-131.55C1413.47,-129.01 236.33,-115.41 77,-87 69.71,-85.7 61.98,-83.4 55.11,-81.01"/>
<polygon fill="midnightblue" stroke="midnightblue" points="1659.44,-135.06 1669.47,-131.66 1659.51,-128.06 1659.44,-135.06"/>
</g>
<!-- Node3 -->
<g id="node3" class="node">
<title>Node3</title>
<g id="a_node3"><a xlink:href="BaseState_8hh.html" target="_top" xlink:title=" ">
<polygon fill="none" stroke="black" points="86.5,-62 86.5,-81 167.5,-81 167.5,-62 86.5,-62"/>
<text text-anchor="middle" x="127" y="-69" font-family="FreeSans.ttf" font-size="10.00">BaseState.hh</text>
</a>
</g>
</g>
<!-- Node1&#45;&gt;Node3 -->
<g id="edge2" class="edge">
<title>Node1&#45;&gt;Node3</title>
<path fill="none" stroke="midnightblue" d="M1659.06,-132.2C1438.98,-132.97 473.45,-133.58 177,-87 168.7,-85.7 159.83,-83.42 151.9,-81.06"/>
<polygon fill="midnightblue" stroke="midnightblue" points="1659.28,-135.7 1669.27,-132.17 1659.26,-128.7 1659.28,-135.7"/>
</g>
<!-- Node5 -->
<g id="node5" class="node">
<title>Node5</title>
<g id="a_node5"><a xlink:href="BaseStateDriver_8h.html" target="_top" xlink:title=" ">
<polygon fill="none" stroke="black" points="186,-62 186,-81 290,-81 290,-62 186,-62"/>
<text text-anchor="middle" x="238" y="-69" font-family="FreeSans.ttf" font-size="10.00">BaseStateDriver.h</text>
</a>
</g>
</g>
<!-- Node1&#45;&gt;Node5 -->
<g id="edge4" class="edge">
<title>Node1&#45;&gt;Node5</title>
<path fill="none" stroke="midnightblue" d="M1659.05,-131.78C1449.95,-130.56 571.1,-123.32 299,-87 288.97,-85.66 278.17,-83.38 268.49,-81.02"/>
<polygon fill="midnightblue" stroke="midnightblue" points="1659.33,-135.28 1669.35,-131.84 1659.37,-128.28 1659.33,-135.28"/>
</g>
<!-- Node7 -->
<g id="node7" class="node">
<title>Node7</title>
<g id="a_node7"><a xlink:href="Camera_8cc.html" target="_top" xlink:title=" ">
<polygon fill="none" stroke="black" points="308,-62 308,-81 376,-81 376,-62 308,-62"/>
<text text-anchor="middle" x="342" y="-69" font-family="FreeSans.ttf" font-size="10.00">Camera.cc</text>
</a>
</g>
</g>
<!-- Node1&#45;&gt;Node7 -->
<g id="edge7" class="edge">
<title>Node1&#45;&gt;Node7</title>
<path fill="none" stroke="midnightblue" d="M1659.14,-132.22C1457.92,-132.92 637.48,-132.86 385,-87 377.87,-85.7 370.31,-83.47 363.55,-81.13"/>
<polygon fill="midnightblue" stroke="midnightblue" points="1659.35,-135.72 1669.34,-132.18 1659.32,-128.72 1659.35,-135.72"/>
</g>
<!-- Node8 -->
<g id="node8" class="node">
<title>Node8</title>
<g id="a_node8"><a xlink:href="CameraDriver_8cpp.html" target="_top" xlink:title=" ">
<polygon fill="none" stroke="black" points="394,-62 394,-81 498,-81 498,-62 394,-62"/>
<text text-anchor="middle" x="446" y="-69" font-family="FreeSans.ttf" font-size="10.00">CameraDriver.cpp</text>
</a>
</g>
</g>
<!-- Node1&#45;&gt;Node8 -->
<g id="edge8" class="edge">
<title>Node1&#45;&gt;Node8</title>
<path fill="none" stroke="midnightblue" d="M1659.13,-131.49C1469.88,-129.15 736.03,-118.22 507,-87 497.08,-85.65 486.41,-83.39 476.81,-81.06"/>
<polygon fill="midnightblue" stroke="midnightblue" points="1659.23,-134.99 1669.27,-131.61 1659.32,-127.99 1659.23,-134.99"/>
</g>
<!-- Node9 -->
<g id="node9" class="node">
<title>Node9</title>
<g id="a_node9"><a xlink:href="ContactLoadCellArray_8cc.html" target="_top" xlink:title=" ">
<polygon fill="none" stroke="black" points="516,-62 516,-81 650,-81 650,-62 516,-62"/>
<text text-anchor="middle" x="583" y="-69" font-family="FreeSans.ttf" font-size="10.00">ContactLoadCellArray.cc</text>
</a>
</g>
</g>
<!-- Node1&#45;&gt;Node9 -->
<g id="edge9" class="edge">
<title>Node1&#45;&gt;Node9</title>
<path fill="none" stroke="midnightblue" d="M1658.82,-132.4C1513.3,-133.17 1043.94,-131.77 659,-87 646.86,-85.59 633.75,-83.35 621.89,-81.05"/>
<polygon fill="midnightblue" stroke="midnightblue" points="1659.15,-135.89 1669.13,-132.33 1659.1,-128.89 1659.15,-135.89"/>
</g>
<!-- Node10 -->
<g id="node10" class="node">
<title>Node10</title>
<g id="a_node10"><a xlink:href="ContactLoadCellArrayDriver_8cpp.html" target="_top" xlink:title=" ">
<polygon fill="none" stroke="black" points="668,-62 668,-81 840,-81 840,-62 668,-62"/>
<text text-anchor="middle" x="754" y="-69" font-family="FreeSans.ttf" font-size="10.00">ContactLoadCellArrayDriver.cpp</text>
</a>
</g>
</g>
<!-- Node1&#45;&gt;Node10 -->
<g id="edge10" class="edge">
<title>Node1&#45;&gt;Node10</title>
<path fill="none" stroke="midnightblue" d="M1659.15,-131.2C1531.92,-128.6 1157.87,-118.62 849,-87 834.23,-85.49 818.25,-83.27 803.68,-81.03"/>
<polygon fill="midnightblue" stroke="midnightblue" points="1659.22,-134.7 1669.29,-131.4 1659.36,-127.7 1659.22,-134.7"/>
</g>
<!-- Node11 -->
<g id="node11" class="node">
<title>Node11</title>
<g id="a_node11"><a xlink:href="ControlBoard_8cc.html" target="_top" xlink:title=" ">
<polygon fill="none" stroke="black" points="858,-62 858,-81 952,-81 952,-62 858,-62"/>
<text text-anchor="middle" x="905" y="-69" font-family="FreeSans.ttf" font-size="10.00">ControlBoard.cc</text>
</a>
</g>
</g>
<!-- Node1&#45;&gt;Node11 -->
<g id="edge11" class="edge">
<title>Node1&#45;&gt;Node11</title>
<path fill="none" stroke="midnightblue" d="M1659.02,-132.28C1542.76,-132.37 1223.1,-128.47 961,-87 951.97,-85.57 942.29,-83.33 933.55,-81.03"/>
<polygon fill="midnightblue" stroke="midnightblue" points="1659.31,-135.78 1669.3,-132.26 1659.3,-128.78 1659.31,-135.78"/>
</g>
<!-- Node12 -->
<g id="node12" class="node">
<title>Node12</title>
<g id="a_node12"><a xlink:href="ControlBoardDriverDeviceDriver_8cpp.html" target="_top" xlink:title=" ">
<polygon fill="none" stroke="black" points="970,-56.5 970,-86.5 1114,-86.5 1114,-56.5 970,-56.5"/>
<text text-anchor="start" x="978" y="-74.5" font-family="FreeSans.ttf" font-size="10.00">ControlBoardDriverDevice</text>
<text text-anchor="middle" x="1042" y="-63.5" font-family="FreeSans.ttf" font-size="10.00">Driver.cpp</text>
</a>
</g>
</g>
<!-- Node1&#45;&gt;Node12 -->
<g id="edge12" class="edge">
<title>Node1&#45;&gt;Node12</title>
<path fill="none" stroke="midnightblue" d="M1659.41,-130.07C1561.84,-125.5 1322.22,-112.48 1123,-87 1120.17,-86.64 1117.28,-86.24 1114.37,-85.82"/>
<polygon fill="midnightblue" stroke="midnightblue" points="1659.35,-133.57 1669.5,-130.53 1659.67,-126.57 1659.35,-133.57"/>
</g>
<!-- Node13 -->
<g id="node13" class="node">
<title>Node13</title>
<g id="a_node13"><a xlink:href="DepthCamera_8cc.html" target="_top" xlink:title=" ">
<polygon fill="none" stroke="black" points="1132,-62 1132,-81 1230,-81 1230,-62 1132,-62"/>
<text text-anchor="middle" x="1181" y="-69" font-family="FreeSans.ttf" font-size="10.00">DepthCamera.cc</text>
</a>
</g>
</g>
<!-- Node1&#45;&gt;Node13 -->
<g id="edge13" class="edge">
<title>Node1&#45;&gt;Node13</title>
<path fill="none" stroke="midnightblue" d="M1659.23,-129.88C1575.98,-125.46 1391.91,-113.36 1239,-87 1230,-85.45 1220.33,-83.25 1211.52,-81.03"/>
<polygon fill="midnightblue" stroke="midnightblue" points="1659.18,-133.38 1669.35,-130.41 1659.54,-126.39 1659.18,-133.38"/>
</g>
<!-- Node14 -->
<g id="node14" class="node">
<title>Node14</title>
<g id="a_node14"><a xlink:href="DepthCameraDriver_8cpp.html" target="_top" xlink:title=" ">
<polygon fill="none" stroke="black" points="1248,-62 1248,-81 1382,-81 1382,-62 1248,-62"/>
<text text-anchor="middle" x="1315" y="-69" font-family="FreeSans.ttf" font-size="10.00">DepthCameraDriver.cpp</text>
</a>
</g>
</g>
<!-- Node1&#45;&gt;Node14 -->
<g id="edge14" class="edge">
<title>Node1&#45;&gt;Node14</title>
<path fill="none" stroke="midnightblue" d="M1659.15,-126.21C1598.28,-118.2 1486.21,-102.92 1391,-87 1380.27,-85.21 1368.72,-83.1 1357.94,-81.05"/>
<polygon fill="midnightblue" stroke="midnightblue" points="1658.81,-129.69 1669.18,-127.52 1659.72,-122.75 1658.81,-129.69"/>
</g>
<!-- Node15 -->
<g id="node15" class="node">
<title>Node15</title>
<g id="a_node15"><a xlink:href="FakeControlBoard_8cc.html" target="_top" xlink:title=" ">
<polygon fill="none" stroke="black" points="1400,-62 1400,-81 1516,-81 1516,-62 1400,-62"/>
<text text-anchor="middle" x="1458" y="-69" font-family="FreeSans.ttf" font-size="10.00">FakeControlBoard.cc</text>
</a>
</g>
</g>
<!-- Node1&#45;&gt;Node15 -->
<g id="edge15" class="edge">
<title>Node1&#45;&gt;Node15</title>
<path fill="none" stroke="midnightblue" d="M1659.54,-121.25C1611.87,-109.72 1537.16,-91.65 1493.34,-81.05"/>
<polygon fill="midnightblue" stroke="midnightblue" points="1658.73,-124.65 1669.28,-123.6 1660.38,-117.85 1658.73,-124.65"/>
</g>
<!-- Node16 -->
<g id="node16" class="node">
<title>Node16</title>
<g id="a_node16"><a xlink:href="ForceTorque_8cc.html" target="_top" xlink:title=" ">
<polygon fill="none" stroke="black" points="1534.5,-62 1534.5,-81 1623.5,-81 1623.5,-62 1534.5,-62"/>
<text text-anchor="middle" x="1579" y="-69" font-family="FreeSans.ttf" font-size="10.00">ForceTorque.cc</text>
</a>
</g>
</g>
<!-- Node1&#45;&gt;Node16 -->
<g id="edge16" class="edge">
<title>Node1&#45;&gt;Node16</title>
<path fill="none" stroke="midnightblue" d="M1677.06,-119.17C1652.8,-107.63 1617.84,-90.99 1596.88,-81.01"/>
<polygon fill="midnightblue" stroke="midnightblue" points="1675.56,-122.34 1686.09,-123.48 1678.57,-116.02 1675.56,-122.34"/>
</g>
<!-- Node17 -->
<g id="node17" class="node">
<title>Node17</title>
<g id="a_node17"><a xlink:href="ForceTorqueDriver_8cpp.html" target="_top" xlink:title=" ">
<polygon fill="none" stroke="black" points="1641.5,-62 1641.5,-81 1766.5,-81 1766.5,-62 1641.5,-62"/>
<text text-anchor="middle" x="1704" y="-69" font-family="FreeSans.ttf" font-size="10.00">ForceTorqueDriver.cpp</text>
</a>
</g>
</g>
<!-- Node1&#45;&gt;Node17 -->
<g id="edge17" class="edge">
<title>Node1&#45;&gt;Node17</title>
<path fill="none" stroke="midnightblue" d="M1704,-113.32C1704,-102.5 1704,-89.4 1704,-81.01"/>
<polygon fill="midnightblue" stroke="midnightblue" points="1700.5,-113.48 1704,-123.48 1707.5,-113.48 1700.5,-113.48"/>
</g>
<!-- Node18 -->
<g id="node18" class="node">
<title>Node18</title>
<g id="a_node18"><a xlink:href="IMU_8cc.html" target="_top" xlink:title=" ">
<polygon fill="none" stroke="black" points="1785,-62 1785,-81 1835,-81 1835,-62 1785,-62"/>
<text text-anchor="middle" x="1810" y="-69" font-family="FreeSans.ttf" font-size="10.00">IMU.cc</text>
</a>
</g>
</g>
<!-- Node1&#45;&gt;Node18 -->
<g id="edge18" class="edge">
<title>Node1&#45;&gt;Node18</title>
<path fill="none" stroke="midnightblue" d="M1727.95,-118.56C1748.46,-107.04 1777.38,-90.81 1794.84,-81.01"/>
<polygon fill="midnightblue" stroke="midnightblue" points="1726.19,-115.53 1719.19,-123.48 1729.62,-121.63 1726.19,-115.53"/>
</g>
<!-- Node19 -->
<g id="node19" class="node">
<title>Node19</title>
<g id="a_node19"><a xlink:href="IMUDriver_8cpp.html" target="_top" xlink:title=" ">
<polygon fill="none" stroke="black" points="1853,-62 1853,-81 1939,-81 1939,-62 1853,-62"/>
<text text-anchor="middle" x="1896" y="-69" font-family="FreeSans.ttf" font-size="10.00">IMUDriver.cpp</text>
</a>
</g>
</g>
<!-- Node1&#45;&gt;Node19 -->
<g id="edge19" class="edge">
<title>Node1&#45;&gt;Node19</title>
<path fill="none" stroke="midnightblue" d="M1741.49,-120.38C1778.81,-108.82 1835.2,-91.34 1868.54,-81.01"/>
<polygon fill="midnightblue" stroke="midnightblue" points="1740.02,-117.17 1731.51,-123.48 1742.1,-123.86 1740.02,-117.17"/>
</g>
<!-- Node20 -->
<g id="node20" class="node">
<title>Node20</title>
<g id="a_node20"><a xlink:href="inertialMTB_8cc.html" target="_top" xlink:title=" ">
<polygon fill="none" stroke="black" points="1957,-62 1957,-81 2043,-81 2043,-62 1957,-62"/>
<text text-anchor="middle" x="2000" y="-69" font-family="FreeSans.ttf" font-size="10.00">inertialMTB.cc</text>
</a>
</g>
</g>
<!-- Node1&#45;&gt;Node20 -->
<g id="edge20" class="edge">
<title>Node1&#45;&gt;Node20</title>
<path fill="none" stroke="midnightblue" d="M1748.52,-125.02C1797.62,-117.04 1878.84,-102.99 1948,-87 1955.58,-85.25 1963.71,-83.11 1971.24,-81.02"/>
<polygon fill="midnightblue" stroke="midnightblue" points="1747.86,-121.58 1738.55,-126.63 1748.98,-128.49 1747.86,-121.58"/>
</g>
<!-- Node21 -->
<g id="node21" class="node">
<title>Node21</title>
<g id="a_node21"><a xlink:href="inertialMTBPart_8cc.html" target="_top" xlink:title=" ">
<polygon fill="none" stroke="black" points="2061.5,-62 2061.5,-81 2166.5,-81 2166.5,-62 2061.5,-62"/>
<text text-anchor="middle" x="2114" y="-69" font-family="FreeSans.ttf" font-size="10.00">inertialMTBPart.cc</text>
</a>
</g>
</g>
<!-- Node1&#45;&gt;Node21 -->
<g id="edge21" class="edge">
<title>Node1&#45;&gt;Node21</title>
<path fill="none" stroke="midnightblue" d="M1748.88,-127.66C1815.39,-120.91 1943.89,-106.58 2052,-87 2061.25,-85.33 2071.19,-83.16 2080.34,-81.02"/>
<polygon fill="midnightblue" stroke="midnightblue" points="1748.35,-124.2 1738.75,-128.68 1749.05,-131.16 1748.35,-124.2"/>
</g>
<!-- Node22 -->
<g id="node22" class="node">
<title>Node22</title>
<g id="a_node22"><a xlink:href="inertialMTBPartDriver_8cpp.html" target="_top" xlink:title=" ">
<polygon fill="none" stroke="black" points="2184.5,-62 2184.5,-81 2325.5,-81 2325.5,-62 2184.5,-62"/>
<text text-anchor="middle" x="2255" y="-69" font-family="FreeSans.ttf" font-size="10.00">inertialMTBPartDriver.cpp</text>
</a>
</g>
</g>
<!-- Node1&#45;&gt;Node22 -->
<g id="edge22" class="edge">
<title>Node1&#45;&gt;Node22</title>
<path fill="none" stroke="midnightblue" d="M1748.98,-129.01C1833.09,-123.14 2019.82,-108.74 2176,-87 2187.88,-85.35 2200.69,-83.17 2212.47,-81"/>
<polygon fill="midnightblue" stroke="midnightblue" points="1748.5,-125.54 1738.76,-129.72 1748.98,-132.52 1748.5,-125.54"/>
</g>
<!-- Node23 -->
<g id="node23" class="node">
<title>Node23</title>
<g id="a_node23"><a xlink:href="LaserSensor_8cc.html" target="_top" xlink:title=" ">
<polygon fill="none" stroke="black" points="2343.5,-62 2343.5,-81 2432.5,-81 2432.5,-62 2343.5,-62"/>
<text text-anchor="middle" x="2388" y="-69" font-family="FreeSans.ttf" font-size="10.00">LaserSensor.cc</text>
</a>
</g>
</g>
<!-- Node1&#45;&gt;Node23 -->
<g id="edge23" class="edge">
<title>Node1&#45;&gt;Node23</title>
<path fill="none" stroke="midnightblue" d="M1748.96,-131.8C1852.9,-130.7 2117.56,-124.13 2335,-87 2343.46,-85.55 2352.53,-83.33 2360.72,-81.06"/>
<polygon fill="midnightblue" stroke="midnightblue" points="1748.79,-128.31 1738.83,-131.9 1748.86,-135.3 1748.79,-128.31"/>
</g>
<!-- Node24 -->
<g id="node24" class="node">
<title>Node24</title>
<g id="a_node24"><a xlink:href="LaserSensorDriver_8cpp.html" target="_top" xlink:title=" ">
<polygon fill="none" stroke="black" points="2450.5,-62 2450.5,-81 2575.5,-81 2575.5,-62 2450.5,-62"/>
<text text-anchor="middle" x="2513" y="-69" font-family="FreeSans.ttf" font-size="10.00">LaserSensorDriver.cpp</text>
</a>
</g>
</g>
<!-- Node1&#45;&gt;Node24 -->
<g id="edge24" class="edge">
<title>Node1&#45;&gt;Node24</title>
<path fill="none" stroke="midnightblue" d="M1748.97,-131.45C1864.51,-129.58 2180.99,-121.44 2442,-87 2453.23,-85.52 2465.33,-83.29 2476.32,-81.02"/>
<polygon fill="midnightblue" stroke="midnightblue" points="1748.69,-127.96 1738.75,-131.61 1748.8,-134.96 1748.69,-127.96"/>
</g>
<!-- Node25 -->
<g id="node25" class="node">
<title>Node25</title>
<g id="a_node25"><a xlink:href="MaisSensor_8cc.html" target="_top" xlink:title=" ">
<polygon fill="none" stroke="black" points="2594,-62 2594,-81 2680,-81 2680,-62 2594,-62"/>
<text text-anchor="middle" x="2637" y="-69" font-family="FreeSans.ttf" font-size="10.00">MaisSensor.cc</text>
</a>
</g>
</g>
<!-- Node1&#45;&gt;Node25 -->
<g id="edge25" class="edge">
<title>Node1&#45;&gt;Node25</title>
<path fill="none" stroke="midnightblue" d="M1748.71,-131.02C1904.28,-127.41 2421.35,-113.66 2585,-87 2593.51,-85.61 2602.62,-83.35 2610.8,-81.02"/>
<polygon fill="midnightblue" stroke="midnightblue" points="1748.48,-127.53 1738.57,-131.25 1748.65,-134.52 1748.48,-127.53"/>
</g>
<!-- Node26 -->
<g id="node26" class="node">
<title>Node26</title>
<g id="a_node26"><a xlink:href="MaisSensorDeviceDriver_8cpp.html" target="_top" xlink:title=" ">
<polygon fill="none" stroke="black" points="2698,-62 2698,-81 2854,-81 2854,-62 2698,-62"/>
<text text-anchor="middle" x="2776" y="-69" font-family="FreeSans.ttf" font-size="10.00">MaisSensorDeviceDriver.cpp</text>
</a>
</g>
</g>
<!-- Node1&#45;&gt;Node26 -->
<g id="edge26" class="edge">
<title>Node1&#45;&gt;Node26</title>
<path fill="none" stroke="midnightblue" d="M1748.87,-131.86C1888.52,-131 2327.72,-125.22 2689,-87 2702.7,-85.55 2717.53,-83.33 2730.99,-81.05"/>
<polygon fill="midnightblue" stroke="midnightblue" points="1748.55,-128.36 1738.57,-131.91 1748.59,-135.36 1748.55,-128.36"/>
</g>
<!-- Node27 -->
<g id="node27" class="node">
<title>Node27</title>
<g id="a_node27"><a xlink:href="MultiCamera_8cc.html" target="_top" xlink:title=" ">
<polygon fill="none" stroke="black" points="2872.5,-62 2872.5,-81 2965.5,-81 2965.5,-62 2872.5,-62"/>
<text text-anchor="middle" x="2919" y="-69" font-family="FreeSans.ttf" font-size="10.00">MultiCamera.cc</text>
</a>
</g>
</g>
<!-- Node1&#45;&gt;Node27 -->
<g id="edge27" class="edge">
<title>Node1&#45;&gt;Node27</title>
<path fill="none" stroke="midnightblue" d="M1748.96,-131.54C1934.62,-129.46 2642.17,-119.49 2863,-87 2872.14,-85.66 2881.94,-83.4 2890.75,-81.07"/>
<polygon fill="midnightblue" stroke="midnightblue" points="1748.7,-128.05 1738.74,-131.66 1748.78,-135.04 1748.7,-128.05"/>
</g>
<!-- Node28 -->
<g id="node28" class="node">
<title>Node28</title>
<g id="a_node28"><a xlink:href="MultiCameraDriver_8cpp.html" target="_top" xlink:title=" ">
<polygon fill="none" stroke="black" points="2983.5,-62 2983.5,-81 3112.5,-81 3112.5,-62 2983.5,-62"/>
<text text-anchor="middle" x="3048" y="-69" font-family="FreeSans.ttf" font-size="10.00">MultiCameraDriver.cpp</text>
</a>
</g>
</g>
<!-- Node1&#45;&gt;Node28 -->
<g id="edge28" class="edge">
<title>Node1&#45;&gt;Node28</title>
<path fill="none" stroke="midnightblue" d="M1749.02,-131.38C1945.64,-128.51 2730.16,-115.46 2975,-87 2986.81,-85.63 2999.56,-83.37 3011.05,-81.04"/>
<polygon fill="midnightblue" stroke="midnightblue" points="1748.72,-127.88 1738.77,-131.53 1748.82,-134.88 1748.72,-127.88"/>
</g>
<!-- Node29 -->
<g id="node29" class="node">
<title>Node29</title>
<g id="a_node29"><a xlink:href="GazeboYarpRobotInterface_8cc.html" target="_top" xlink:title=" ">
<polygon fill="none" stroke="black" points="3130.5,-62 3130.5,-81 3289.5,-81 3289.5,-62 3130.5,-62"/>
<text text-anchor="middle" x="3210" y="-69" font-family="FreeSans.ttf" font-size="10.00">GazeboYarpRobotInterface.cc</text>
</a>
</g>
</g>
<!-- Node1&#45;&gt;Node29 -->
<g id="edge29" class="edge">
<title>Node1&#45;&gt;Node29</title>
<path fill="none" stroke="midnightblue" d="M1748.66,-131.38C1958.28,-128.32 2845.98,-114 3122,-87 3136.18,-85.61 3151.53,-83.35 3165.38,-81.02"/>
<polygon fill="midnightblue" stroke="midnightblue" points="1748.57,-127.88 1738.63,-131.52 1748.68,-134.88 1748.57,-127.88"/>
</g>
<!-- Node30 -->
<g id="node30" class="node">
<title>Node30</title>
<g id="a_node30"><a xlink:href="VideoTexture_8cc.html" target="_top" xlink:title=" ">
<polygon fill="none" stroke="black" points="3308,-62 3308,-81 3402,-81 3402,-62 3308,-62"/>
<text text-anchor="middle" x="3355" y="-69" font-family="FreeSans.ttf" font-size="10.00">VideoTexture.cc</text>
</a>
</g>
</g>
<!-- Node1&#45;&gt;Node30 -->
<g id="edge30" class="edge">
<title>Node1&#45;&gt;Node30</title>
<path fill="none" stroke="midnightblue" d="M1748.72,-132.1C1974.18,-132.38 2987.66,-131.12 3299,-87 3308.25,-85.69 3318.17,-83.42 3327.05,-81.06"/>
<polygon fill="midnightblue" stroke="midnightblue" points="1748.59,-128.6 1738.58,-132.08 1748.58,-135.6 1748.59,-128.6"/>
</g>
<!-- Node4 -->
<g id="node4" class="node">
<title>Node4</title>
<g id="a_node4"><a xlink:href="BaseState_8cc.html" target="_top" xlink:title=" ">
<polygon fill="none" stroke="black" points="87,-0.5 87,-19.5 167,-19.5 167,-0.5 87,-0.5"/>
<text text-anchor="middle" x="127" y="-7.5" font-family="FreeSans.ttf" font-size="10.00">BaseState.cc</text>
</a>
</g>
</g>
<!-- Node3&#45;&gt;Node4 -->
<g id="edge3" class="edge">
<title>Node3&#45;&gt;Node4</title>
<path fill="none" stroke="midnightblue" d="M127,-51.82C127,-41 127,-27.9 127,-19.51"/>
<polygon fill="midnightblue" stroke="midnightblue" points="123.5,-51.98 127,-61.98 130.5,-51.98 123.5,-51.98"/>
</g>
<!-- Node5&#45;&gt;Node4 -->
<g id="edge5" class="edge">
<title>Node5&#45;&gt;Node4</title>
<path fill="none" stroke="midnightblue" d="M213.21,-57.21C191.71,-45.69 161.24,-29.36 142.87,-19.51"/>
<polygon fill="midnightblue" stroke="midnightblue" points="211.63,-60.34 222.1,-61.98 214.94,-54.17 211.63,-60.34"/>
</g>
<!-- Node6 -->
<g id="node6" class="node">
<title>Node6</title>
<g id="a_node6"><a xlink:href="BaseStateDriver_8cpp.html" target="_top" xlink:title=" ">
<polygon fill="none" stroke="black" points="185,-0.5 185,-19.5 301,-19.5 301,-0.5 185,-0.5"/>
<text text-anchor="middle" x="243" y="-7.5" font-family="FreeSans.ttf" font-size="10.00">BaseStateDriver.cpp</text>
</a>
</g>
</g>
<!-- Node5&#45;&gt;Node6 -->
<g id="edge6" class="edge">
<title>Node5&#45;&gt;Node6</title>
<path fill="none" stroke="midnightblue" d="M239.57,-51.82C240.48,-41 241.58,-27.9 242.28,-19.51"/>
<polygon fill="midnightblue" stroke="midnightblue" points="236.07,-51.72 238.72,-61.98 243.04,-52.3 236.07,-51.72"/>
</g>
</g>
</svg>
