<?xml version="1.0" encoding="UTF-8" standalone="no"?>
<!DOCTYPE svg PUBLIC "-//W3C//DTD SVG 1.1//EN"
 "http://www.w3.org/Graphics/SVG/1.1/DTD/svg11.dtd">
<!-- Generated by graphviz version 2.43.0 (0)
 -->
<!-- Title: Handler.hh Pages: 1 -->
<svg width="3771pt" height="151pt"
 viewBox="0.00 0.00 3771.00 151.00" xmlns="http://www.w3.org/2000/svg" xmlns:xlink="http://www.w3.org/1999/xlink">
<g id="graph0" class="graph" transform="scale(1 1) rotate(0) translate(4 147)">
<title>Handler.hh</title>
<!-- Node1 -->
<g id="node1" class="node">
<title>Node1</title>
<g id="a_node1"><a xlink:title=" ">
<polygon fill="#bfbfbf" stroke="black" points="1830.5,-123.5 1830.5,-142.5 1899.5,-142.5 1899.5,-123.5 1830.5,-123.5"/>
<text text-anchor="middle" x="1865" y="-130.5" font-family="FreeSans.ttf" font-size="10.00">Handler.hh</text>
</a>
</g>
</g>
<!-- Node2 -->
<g id="node2" class="node">
<title>Node2</title>
<g id="a_node2"><a xlink:href="Handler_8cc.html" target="_top" xlink:title=" ">
<polygon fill="none" stroke="black" points="0,-62 0,-81 68,-81 68,-62 0,-62"/>
<text text-anchor="middle" x="34" y="-69" font-family="FreeSans.ttf" font-size="10.00">Handler.cc</text>
</a>
</g>
</g>
<!-- Node1&#45;&gt;Node2 -->
<g id="edge1" class="edge">
<title>Node1&#45;&gt;Node2</title>
<path fill="none" stroke="midnightblue" d="M1819.91,-131.67C1559.46,-129.68 253.05,-118.16 77,-87 69.71,-85.71 61.97,-83.41 55.1,-81.02"/>
<polygon fill="midnightblue" stroke="midnightblue" points="1820.1,-135.17 1830.13,-131.75 1820.16,-128.17 1820.1,-135.17"/>
</g>
<!-- Node3 -->
<g id="node3" class="node">
<title>Node3</title>
<g id="a_node3"><a xlink:href="BaseState_8hh.html" target="_top" xlink:title=" ">
<polygon fill="none" stroke="black" points="86.5,-62 86.5,-81 167.5,-81 167.5,-62 86.5,-62"/>
<text text-anchor="middle" x="127" y="-69" font-family="FreeSans.ttf" font-size="10.00">BaseState.hh</text>
</a>
</g>
</g>
<!-- Node1&#45;&gt;Node3 -->
<g id="edge2" class="edge">
<title>Node1&#45;&gt;Node3</title>
<path fill="none" stroke="midnightblue" d="M1820.08,-131.49C1568.85,-128.53 343.25,-112.88 177,-87 168.61,-85.69 159.63,-83.39 151.64,-81"/>
<polygon fill="midnightblue" stroke="midnightblue" points="1820.25,-134.99 1830.3,-131.61 1820.34,-127.99 1820.25,-134.99"/>
</g>
<!-- Node5 -->
<g id="node5" class="node">
<title>Node5</title>
<g id="a_node5"><a xlink:href="BaseStateDriver_8h.html" target="_top" xlink:title=" ">
<polygon fill="none" stroke="black" points="186,-62 186,-81 290,-81 290,-62 186,-62"/>
<text text-anchor="middle" x="238" y="-69" font-family="FreeSans.ttf" font-size="10.00">BaseStateDriver.h</text>
</a>
</g>
</g>
<!-- Node1&#45;&gt;Node5 -->
<g id="edge4" class="edge">
<title>Node1&#45;&gt;Node5</title>
<path fill="none" stroke="midnightblue" d="M1820.39,-131.95C1597.67,-131.51 604.76,-127.3 299,-87 288.96,-85.68 278.17,-83.4 268.49,-81.04"/>
<polygon fill="midnightblue" stroke="midnightblue" points="1820.4,-135.45 1830.41,-131.97 1820.41,-128.45 1820.4,-135.45"/>
</g>
<!-- Node7 -->
<g id="node7" class="node">
<title>Node7</title>
<g id="a_node7"><a xlink:href="Camera_8cc.html" target="_top" xlink:title=" ">
<polygon fill="none" stroke="black" points="308,-62 308,-81 376,-81 376,-62 308,-62"/>
<text text-anchor="middle" x="342" y="-69" font-family="FreeSans.ttf" font-size="10.00">Camera.cc</text>
</a>
</g>
</g>
<!-- Node1&#45;&gt;Node7 -->
<g id="edge7" class="edge">
<title>Node1&#45;&gt;Node7</title>
<path fill="none" stroke="midnightblue" d="M1820.17,-131.42C1588.17,-128.33 529.06,-112.89 385,-87 377.87,-85.72 370.31,-83.48 363.55,-81.15"/>
<polygon fill="midnightblue" stroke="midnightblue" points="1820.23,-134.92 1830.28,-131.56 1820.32,-127.92 1820.23,-134.92"/>
</g>
<!-- Node8 -->
<g id="node8" class="node">
<title>Node8</title>
<g id="a_node8"><a xlink:href="CameraDriver_8cpp.html" target="_top" xlink:title=" ">
<polygon fill="none" stroke="black" points="394,-62 394,-81 498,-81 498,-62 394,-62"/>
<text text-anchor="middle" x="446" y="-69" font-family="FreeSans.ttf" font-size="10.00">CameraDriver.cpp</text>
</a>
</g>
</g>
<!-- Node1&#45;&gt;Node8 -->
<g id="edge8" class="edge">
<title>Node1&#45;&gt;Node8</title>
<path fill="none" stroke="midnightblue" d="M1820.22,-131.72C1615.74,-130.26 769.41,-122.17 507,-87 496.97,-85.66 486.17,-83.37 476.49,-81.01"/>
<polygon fill="midnightblue" stroke="midnightblue" points="1820.27,-135.22 1830.3,-131.79 1820.32,-128.22 1820.27,-135.22"/>
</g>
<!-- Node9 -->
<g id="node9" class="node">
<title>Node9</title>
<g id="a_node9"><a xlink:href="ContactLoadCellArray_8cc.html" target="_top" xlink:title=" ">
<polygon fill="none" stroke="black" points="516,-62 516,-81 650,-81 650,-62 516,-62"/>
<text text-anchor="middle" x="583" y="-69" font-family="FreeSans.ttf" font-size="10.00">ContactLoadCellArray.cc</text>
</a>
</g>
</g>
<!-- Node1&#45;&gt;Node9 -->
<g id="edge9" class="edge">
<title>Node1&#45;&gt;Node9</title>
<path fill="none" stroke="midnightblue" d="M1820.14,-131.24C1630.1,-127.86 890.52,-113.25 659,-87 646.72,-85.61 633.45,-83.34 621.49,-81.01"/>
<polygon fill="midnightblue" stroke="midnightblue" points="1820.26,-134.74 1830.33,-131.42 1820.39,-127.74 1820.26,-134.74"/>
</g>
<!-- Node10 -->
<g id="node10" class="node">
<title>Node10</title>
<g id="a_node10"><a xlink:href="ContactLoadCellArrayDriver_8cpp.html" target="_top" xlink:title=" ">
<polygon fill="none" stroke="black" points="668,-62 668,-81 840,-81 840,-62 668,-62"/>
<text text-anchor="middle" x="754" y="-69" font-family="FreeSans.ttf" font-size="10.00">ContactLoadCellArrayDriver.cpp</text>
</a>
</g>
</g>
<!-- Node1&#45;&gt;Node10 -->
<g id="edge10" class="edge">
<title>Node1&#45;&gt;Node10</title>
<path fill="none" stroke="midnightblue" d="M1820.16,-131.73C1677.75,-130.49 1223.14,-123.73 849,-87 834.06,-85.53 817.88,-83.31 803.18,-81.03"/>
<polygon fill="midnightblue" stroke="midnightblue" points="1820.23,-135.23 1830.26,-131.81 1820.28,-128.23 1820.23,-135.23"/>
</g>
<!-- Node11 -->
<g id="node11" class="node">
<title>Node11</title>
<g id="a_node11"><a xlink:href="ControlBoard_8cc.html" target="_top" xlink:title=" ">
<polygon fill="none" stroke="black" points="858,-62 858,-81 952,-81 952,-62 858,-62"/>
<text text-anchor="middle" x="905" y="-69" font-family="FreeSans.ttf" font-size="10.00">ControlBoard.cc</text>
</a>
</g>
</g>
<!-- Node1&#45;&gt;Node11 -->
<g id="edge11" class="edge">
<title>Node1&#45;&gt;Node11</title>
<path fill="none" stroke="midnightblue" d="M1819.68,-130.97C1660.76,-127.15 1129.36,-112.71 961,-87 951.87,-85.61 942.07,-83.34 933.26,-81.01"/>
<polygon fill="midnightblue" stroke="midnightblue" points="1819.95,-134.47 1830.03,-131.21 1820.12,-127.47 1819.95,-134.47"/>
</g>
<!-- Node12 -->
<g id="node12" class="node">
<title>Node12</title>
<g id="a_node12"><a xlink:href="ControlBoardDriverDeviceDriver_8cpp.html" target="_top" xlink:title=" ">
<polygon fill="none" stroke="black" points="970,-56.5 970,-86.5 1114,-86.5 1114,-56.5 970,-56.5"/>
<text text-anchor="start" x="978" y="-74.5" font-family="FreeSans.ttf" font-size="10.00">ControlBoardDriverDevice</text>
<text text-anchor="middle" x="1042" y="-63.5" font-family="FreeSans.ttf" font-size="10.00">Driver.cpp</text>
</a>
</g>
</g>
<!-- Node1&#45;&gt;Node12 -->
<g id="edge12" class="edge">
<title>Node1&#45;&gt;Node12</title>
<path fill="none" stroke="midnightblue" d="M1820.24,-131.1C1704.53,-128.39 1386.13,-118.42 1123,-87 1120.16,-86.66 1117.27,-86.29 1114.36,-85.88"/>
<polygon fill="midnightblue" stroke="midnightblue" points="1820.4,-134.61 1830.48,-131.34 1820.56,-127.61 1820.4,-134.61"/>
</g>
<!-- Node13 -->
<g id="node13" class="node">
<title>Node13</title>
<g id="a_node13"><a xlink:href="DepthCamera_8cc.html" target="_top" xlink:title=" ">
<polygon fill="none" stroke="black" points="1132,-62 1132,-81 1230,-81 1230,-62 1132,-62"/>
<text text-anchor="middle" x="1181" y="-69" font-family="FreeSans.ttf" font-size="10.00">DepthCamera.cc</text>
</a>
</g>
</g>
<!-- Node1&#45;&gt;Node13 -->
<g id="edge13" class="edge">
<title>Node1&#45;&gt;Node13</title>
<path fill="none" stroke="midnightblue" d="M1820.45,-131.44C1717.45,-129.57 1455.11,-121.51 1239,-87 1229.78,-85.53 1219.87,-83.3 1210.9,-81.03"/>
<polygon fill="midnightblue" stroke="midnightblue" points="1820.43,-134.94 1830.49,-131.61 1820.55,-127.94 1820.43,-134.94"/>
</g>
<!-- Node14 -->
<g id="node14" class="node">
<title>Node14</title>
<g id="a_node14"><a xlink:href="DepthCameraDriver_8cpp.html" target="_top" xlink:title=" ">
<polygon fill="none" stroke="black" points="1248,-62 1248,-81 1382,-81 1382,-62 1248,-62"/>
<text text-anchor="middle" x="1315" y="-69" font-family="FreeSans.ttf" font-size="10.00">DepthCameraDriver.cpp</text>
</a>
</g>
</g>
<!-- Node1&#45;&gt;Node14 -->
<g id="edge14" class="edge">
<title>Node1&#45;&gt;Node14</title>
<path fill="none" stroke="midnightblue" d="M1820.39,-129.17C1736.17,-123.51 1548.12,-109.4 1391,-87 1379.56,-85.37 1367.23,-83.2 1355.9,-81.03"/>
<polygon fill="midnightblue" stroke="midnightblue" points="1820.16,-132.66 1830.37,-129.83 1820.63,-125.68 1820.16,-132.66"/>
</g>
<!-- Node15 -->
<g id="node15" class="node">
<title>Node15</title>
<g id="a_node15"><a xlink:href="DoubleLaser_8cc.html" target="_top" xlink:title=" ">
<polygon fill="none" stroke="black" points="1400,-62 1400,-81 1490,-81 1490,-62 1400,-62"/>
<text text-anchor="middle" x="1445" y="-69" font-family="FreeSans.ttf" font-size="10.00">DoubleLaser.cc</text>
</a>
</g>
</g>
<!-- Node1&#45;&gt;Node15 -->
<g id="edge15" class="edge">
<title>Node1&#45;&gt;Node15</title>
<path fill="none" stroke="midnightblue" d="M1820.32,-128.54C1751.05,-122.71 1613.76,-109.35 1499,-87 1490.71,-85.39 1481.82,-83.19 1473.69,-81"/>
<polygon fill="midnightblue" stroke="midnightblue" points="1820.18,-132.04 1830.43,-129.37 1820.76,-125.06 1820.18,-132.04"/>
</g>
<!-- Node16 -->
<g id="node16" class="node">
<title>Node16</title>
<g id="a_node16"><a xlink:href="FakeControlBoard_8cc.html" target="_top" xlink:title=" ">
<polygon fill="none" stroke="black" points="1508,-62 1508,-81 1624,-81 1624,-62 1508,-62"/>
<text text-anchor="middle" x="1566" y="-69" font-family="FreeSans.ttf" font-size="10.00">FakeControlBoard.cc</text>
</a>
</g>
</g>
<!-- Node1&#45;&gt;Node16 -->
<g id="edge16" class="edge">
<title>Node1&#45;&gt;Node16</title>
<path fill="none" stroke="midnightblue" d="M1820.07,-123.49C1773.48,-114.61 1698.57,-100.17 1634,-87 1624.77,-85.12 1614.86,-83.04 1605.53,-81.05"/>
<polygon fill="midnightblue" stroke="midnightblue" points="1819.65,-126.97 1830.13,-125.41 1820.96,-120.1 1819.65,-126.97"/>
</g>
<!-- Node17 -->
<g id="node17" class="node">
<title>Node17</title>
<g id="a_node17"><a xlink:href="ForceTorque_8cc.html" target="_top" xlink:title=" ">
<polygon fill="none" stroke="black" points="1642.5,-62 1642.5,-81 1731.5,-81 1731.5,-62 1642.5,-62"/>
<text text-anchor="middle" x="1687" y="-69" font-family="FreeSans.ttf" font-size="10.00">ForceTorque.cc</text>
</a>
</g>
</g>
<!-- Node1&#45;&gt;Node17 -->
<g id="edge17" class="edge">
<title>Node1&#45;&gt;Node17</title>
<path fill="none" stroke="midnightblue" d="M1829.79,-120.23C1795.19,-108.67 1743.23,-91.3 1712.46,-81.01"/>
<polygon fill="midnightblue" stroke="midnightblue" points="1828.9,-123.62 1839.5,-123.48 1831.12,-116.99 1828.9,-123.62"/>
</g>
<!-- Node18 -->
<g id="node18" class="node">
<title>Node18</title>
<g id="a_node18"><a xlink:href="ForceTorqueDriver_8cpp.html" target="_top" xlink:title=" ">
<polygon fill="none" stroke="black" points="1749.5,-62 1749.5,-81 1874.5,-81 1874.5,-62 1749.5,-62"/>
<text text-anchor="middle" x="1812" y="-69" font-family="FreeSans.ttf" font-size="10.00">ForceTorqueDriver.cpp</text>
</a>
</g>
</g>
<!-- Node1&#45;&gt;Node18 -->
<g id="edge18" class="edge">
<title>Node1&#45;&gt;Node18</title>
<path fill="none" stroke="midnightblue" d="M1850.75,-116C1840.71,-104.74 1827.68,-90.1 1819.58,-81.01"/>
<polygon fill="midnightblue" stroke="midnightblue" points="1848.14,-118.34 1857.41,-123.48 1853.37,-113.68 1848.14,-118.34"/>
</g>
<!-- Node19 -->
<g id="node19" class="node">
<title>Node19</title>
<g id="a_node19"><a xlink:href="IMU_8cc.html" target="_top" xlink:title=" ">
<polygon fill="none" stroke="black" points="1893,-62 1893,-81 1943,-81 1943,-62 1893,-62"/>
<text text-anchor="middle" x="1918" y="-69" font-family="FreeSans.ttf" font-size="10.00">IMU.cc</text>
</a>
</g>
</g>
<!-- Node1&#45;&gt;Node19 -->
<g id="edge19" class="edge">
<title>Node1&#45;&gt;Node19</title>
<path fill="none" stroke="midnightblue" d="M1879.25,-116C1889.29,-104.74 1902.32,-90.1 1910.42,-81.01"/>
<polygon fill="midnightblue" stroke="midnightblue" points="1876.63,-113.68 1872.59,-123.48 1881.86,-118.34 1876.63,-113.68"/>
</g>
<!-- Node20 -->
<g id="node20" class="node">
<title>Node20</title>
<g id="a_node20"><a xlink:href="IMUDriver_8cpp.html" target="_top" xlink:title=" ">
<polygon fill="none" stroke="black" points="1961,-62 1961,-81 2047,-81 2047,-62 1961,-62"/>
<text text-anchor="middle" x="2004" y="-69" font-family="FreeSans.ttf" font-size="10.00">IMUDriver.cpp</text>
</a>
</g>
</g>
<!-- Node1&#45;&gt;Node20 -->
<g id="edge20" class="edge">
<title>Node1&#45;&gt;Node20</title>
<path fill="none" stroke="midnightblue" d="M1894.25,-119.48C1921.25,-107.92 1960.6,-91.08 1984.12,-81.01"/>
<polygon fill="midnightblue" stroke="midnightblue" points="1892.73,-116.32 1884.92,-123.48 1895.49,-122.76 1892.73,-116.32"/>
</g>
<!-- Node21 -->
<g id="node21" class="node">
<title>Node21</title>
<g id="a_node21"><a xlink:href="inertialMTB_8cc.html" target="_top" xlink:title=" ">
<polygon fill="none" stroke="black" points="2065,-62 2065,-81 2151,-81 2151,-62 2065,-62"/>
<text text-anchor="middle" x="2108" y="-69" font-family="FreeSans.ttf" font-size="10.00">inertialMTB.cc</text>
</a>
</g>
</g>
<!-- Node1&#45;&gt;Node21 -->
<g id="edge21" class="edge">
<title>Node1&#45;&gt;Node21</title>
<path fill="none" stroke="midnightblue" d="M1909.53,-122.05C1948.32,-113.25 2006.02,-99.85 2056,-87 2063.17,-85.16 2070.87,-83.07 2078.08,-81.07"/>
<polygon fill="midnightblue" stroke="midnightblue" points="1908.59,-118.67 1899.61,-124.29 1910.13,-125.5 1908.59,-118.67"/>
</g>
<!-- Node22 -->
<g id="node22" class="node">
<title>Node22</title>
<g id="a_node22"><a xlink:href="inertialMTBPart_8cc.html" target="_top" xlink:title=" ">
<polygon fill="none" stroke="black" points="2169.5,-62 2169.5,-81 2274.5,-81 2274.5,-62 2169.5,-62"/>
<text text-anchor="middle" x="2222" y="-69" font-family="FreeSans.ttf" font-size="10.00">inertialMTBPart.cc</text>
</a>
</g>
</g>
<!-- Node1&#45;&gt;Node22 -->
<g id="edge22" class="edge">
<title>Node1&#45;&gt;Node22</title>
<path fill="none" stroke="midnightblue" d="M1909.59,-126.31C1967.52,-118.66 2071.7,-104.03 2160,-87 2169.01,-85.26 2178.69,-83.13 2187.67,-81.03"/>
<polygon fill="midnightblue" stroke="midnightblue" points="1909.13,-122.84 1899.67,-127.61 1910.04,-129.78 1909.13,-122.84"/>
</g>
<!-- Node23 -->
<g id="node23" class="node">
<title>Node23</title>
<g id="a_node23"><a xlink:href="inertialMTBPartDriver_8cpp.html" target="_top" xlink:title=" ">
<polygon fill="none" stroke="black" points="2292.5,-62 2292.5,-81 2433.5,-81 2433.5,-62 2292.5,-62"/>
<text text-anchor="middle" x="2363" y="-69" font-family="FreeSans.ttf" font-size="10.00">inertialMTBPartDriver.cpp</text>
</a>
</g>
</g>
<!-- Node1&#45;&gt;Node23 -->
<g id="edge23" class="edge">
<title>Node1&#45;&gt;Node23</title>
<path fill="none" stroke="midnightblue" d="M1909.87,-128.29C1986.7,-121.68 2148.29,-106.71 2284,-87 2295.59,-85.32 2308.08,-83.18 2319.63,-81.06"/>
<polygon fill="midnightblue" stroke="midnightblue" points="1909.27,-124.83 1899.6,-129.16 1909.86,-131.8 1909.27,-124.83"/>
</g>
<!-- Node24 -->
<g id="node24" class="node">
<title>Node24</title>
<g id="a_node24"><a xlink:href="JointSensors_8cc.html" target="_top" xlink:title=" ">
<polygon fill="none" stroke="black" points="2452,-62 2452,-81 2542,-81 2542,-62 2452,-62"/>
<text text-anchor="middle" x="2497" y="-69" font-family="FreeSans.ttf" font-size="10.00">JointSensors.cc</text>
</a>
</g>
</g>
<!-- Node1&#45;&gt;Node24 -->
<g id="edge24" class="edge">
<title>Node1&#45;&gt;Node24</title>
<path fill="none" stroke="midnightblue" d="M1909.91,-131.32C2007.57,-129.22 2246.31,-120.77 2443,-87 2451.61,-85.52 2460.84,-83.29 2469.19,-81.02"/>
<polygon fill="midnightblue" stroke="midnightblue" points="1909.73,-127.82 1899.8,-131.52 1909.87,-134.82 1909.73,-127.82"/>
</g>
<!-- Node25 -->
<g id="node25" class="node">
<title>Node25</title>
<g id="a_node25"><a xlink:href="JointSensorsDriver_8cpp.html" target="_top" xlink:title=" ">
<polygon fill="none" stroke="black" points="2560,-62 2560,-81 2686,-81 2686,-62 2560,-62"/>
<text text-anchor="middle" x="2623" y="-69" font-family="FreeSans.ttf" font-size="10.00">JointSensorsDriver.cpp</text>
</a>
</g>
</g>
<!-- Node1&#45;&gt;Node25 -->
<g id="edge25" class="edge">
<title>Node1&#45;&gt;Node25</title>
<path fill="none" stroke="midnightblue" d="M1909.83,-131.12C2019.64,-128.53 2310.59,-118.95 2551,-87 2562.25,-85.51 2574.38,-83.3 2585.42,-81.05"/>
<polygon fill="midnightblue" stroke="midnightblue" points="1909.7,-127.63 1899.78,-131.35 1909.86,-134.62 1909.7,-127.63"/>
</g>
<!-- Node26 -->
<g id="node26" class="node">
<title>Node26</title>
<g id="a_node26"><a xlink:href="LaserSensor_8cc.html" target="_top" xlink:title=" ">
<polygon fill="none" stroke="black" points="2704.5,-62 2704.5,-81 2793.5,-81 2793.5,-62 2704.5,-62"/>
<text text-anchor="middle" x="2749" y="-69" font-family="FreeSans.ttf" font-size="10.00">LaserSensor.cc</text>
</a>
</g>
</g>
<!-- Node1&#45;&gt;Node26 -->
<g id="edge26" class="edge">
<title>Node1&#45;&gt;Node26</title>
<path fill="none" stroke="midnightblue" d="M1910.08,-130.79C2060.11,-126.58 2541.74,-111.46 2695,-87 2703.72,-85.61 2713.07,-83.37 2721.49,-81.07"/>
<polygon fill="midnightblue" stroke="midnightblue" points="1909.76,-127.3 1899.86,-131.08 1909.95,-134.3 1909.76,-127.3"/>
</g>
<!-- Node27 -->
<g id="node27" class="node">
<title>Node27</title>
<g id="a_node27"><a xlink:href="LaserSensorDriver_8cpp.html" target="_top" xlink:title=" ">
<polygon fill="none" stroke="black" points="2811.5,-62 2811.5,-81 2936.5,-81 2936.5,-62 2811.5,-62"/>
<text text-anchor="middle" x="2874" y="-69" font-family="FreeSans.ttf" font-size="10.00">LaserSensorDriver.cpp</text>
</a>
</g>
</g>
<!-- Node1&#45;&gt;Node27 -->
<g id="edge27" class="edge">
<title>Node1&#45;&gt;Node27</title>
<path fill="none" stroke="midnightblue" d="M1910.05,-132.28C2045.65,-132.61 2461.61,-129.79 2803,-87 2814.36,-85.58 2826.61,-83.33 2837.69,-81.03"/>
<polygon fill="midnightblue" stroke="midnightblue" points="1909.67,-128.78 1899.66,-132.25 1909.65,-135.78 1909.67,-128.78"/>
</g>
<!-- Node28 -->
<g id="node28" class="node">
<title>Node28</title>
<g id="a_node28"><a xlink:href="MaisSensor_8cc.html" target="_top" xlink:title=" ">
<polygon fill="none" stroke="black" points="2955,-62 2955,-81 3041,-81 3041,-62 2955,-62"/>
<text text-anchor="middle" x="2998" y="-69" font-family="FreeSans.ttf" font-size="10.00">MaisSensor.cc</text>
</a>
</g>
</g>
<!-- Node1&#45;&gt;Node28 -->
<g id="edge28" class="edge">
<title>Node1&#45;&gt;Node28</title>
<path fill="none" stroke="midnightblue" d="M1909.54,-131.51C2086.66,-129.36 2741.35,-119.35 2946,-87 2954.52,-85.65 2963.63,-83.4 2971.81,-81.07"/>
<polygon fill="midnightblue" stroke="midnightblue" points="1909.49,-128.01 1899.53,-131.63 1909.57,-135.01 1909.49,-128.01"/>
</g>
<!-- Node29 -->
<g id="node29" class="node">
<title>Node29</title>
<g id="a_node29"><a xlink:href="MaisSensorDeviceDriver_8cpp.html" target="_top" xlink:title=" ">
<polygon fill="none" stroke="black" points="3059,-62 3059,-81 3215,-81 3215,-62 3059,-62"/>
<text text-anchor="middle" x="3137" y="-69" font-family="FreeSans.ttf" font-size="10.00">MaisSensorDeviceDriver.cpp</text>
</a>
</g>
</g>
<!-- Node1&#45;&gt;Node29 -->
<g id="edge29" class="edge">
<title>Node1&#45;&gt;Node29</title>
<path fill="none" stroke="midnightblue" d="M1909.74,-132.35C2066.73,-133.13 2607.02,-132.14 3050,-87 3063.86,-85.59 3078.86,-83.35 3092.44,-81.05"/>
<polygon fill="midnightblue" stroke="midnightblue" points="1909.55,-128.85 1899.53,-132.29 1909.51,-135.85 1909.55,-128.85"/>
</g>
<!-- Node30 -->
<g id="node30" class="node">
<title>Node30</title>
<g id="a_node30"><a xlink:href="MultiCamera_8cc.html" target="_top" xlink:title=" ">
<polygon fill="none" stroke="black" points="3233.5,-62 3233.5,-81 3326.5,-81 3326.5,-62 3233.5,-62"/>
<text text-anchor="middle" x="3280" y="-69" font-family="FreeSans.ttf" font-size="10.00">MultiCamera.cc</text>
</a>
</g>
</g>
<!-- Node1&#45;&gt;Node30 -->
<g id="edge30" class="edge">
<title>Node1&#45;&gt;Node30</title>
<path fill="none" stroke="midnightblue" d="M1909.83,-131.84C2114.53,-130.91 2961.76,-124.82 3224,-87 3233.24,-85.67 3243.16,-83.39 3252.04,-81.03"/>
<polygon fill="midnightblue" stroke="midnightblue" points="1909.72,-128.34 1899.74,-131.89 1909.75,-135.34 1909.72,-128.34"/>
</g>
<!-- Node31 -->
<g id="node31" class="node">
<title>Node31</title>
<g id="a_node31"><a xlink:href="MultiCameraDriver_8cpp.html" target="_top" xlink:title=" ">
<polygon fill="none" stroke="black" points="3344.5,-62 3344.5,-81 3473.5,-81 3473.5,-62 3344.5,-62"/>
<text text-anchor="middle" x="3409" y="-69" font-family="FreeSans.ttf" font-size="10.00">MultiCameraDriver.cpp</text>
</a>
</g>
</g>
<!-- Node1&#45;&gt;Node31 -->
<g id="edge31" class="edge">
<title>Node1&#45;&gt;Node31</title>
<path fill="none" stroke="midnightblue" d="M1909.93,-131.63C2124.87,-129.7 3049.53,-119.61 3336,-87 3347.81,-85.66 3360.56,-83.4 3372.05,-81.07"/>
<polygon fill="midnightblue" stroke="midnightblue" points="1909.63,-128.13 1899.66,-131.72 1909.69,-135.13 1909.63,-128.13"/>
</g>
<!-- Node32 -->
<g id="node32" class="node">
<title>Node32</title>
<g id="a_node32"><a xlink:href="GazeboYarpRobotInterface_8cc.html" target="_top" xlink:title=" ">
<polygon fill="none" stroke="black" points="3491.5,-62 3491.5,-81 3650.5,-81 3650.5,-62 3491.5,-62"/>
<text text-anchor="middle" x="3571" y="-69" font-family="FreeSans.ttf" font-size="10.00">GazeboYarpRobotInterface.cc</text>
</a>
</g>
</g>
<!-- Node1&#45;&gt;Node32 -->
<g id="edge32" class="edge">
<title>Node1&#45;&gt;Node32</title>
<path fill="none" stroke="midnightblue" d="M1909.93,-131.57C2137.58,-129.29 3165.3,-117.45 3483,-87 3497.18,-85.64 3512.53,-83.39 3526.39,-81.05"/>
<polygon fill="midnightblue" stroke="midnightblue" points="1909.66,-128.08 1899.7,-131.68 1909.73,-135.08 1909.66,-128.08"/>
</g>
<!-- Node33 -->
<g id="node33" class="node">
<title>Node33</title>
<g id="a_node33"><a xlink:href="VideoTexture_8cc.html" target="_top" xlink:title=" ">
<polygon fill="none" stroke="black" points="3669,-62 3669,-81 3763,-81 3763,-62 3669,-62"/>
<text text-anchor="middle" x="3716" y="-69" font-family="FreeSans.ttf" font-size="10.00">VideoTexture.cc</text>
</a>
</g>
</g>
<!-- Node1&#45;&gt;Node33 -->
<g id="edge33" class="edge">
<title>Node1&#45;&gt;Node33</title>
<path fill="none" stroke="midnightblue" d="M1909.76,-132.26C2151.89,-133.46 3306.95,-136.47 3660,-87 3669.25,-85.7 3679.17,-83.44 3688.05,-81.07"/>
<polygon fill="midnightblue" stroke="midnightblue" points="1909.59,-128.76 1899.58,-132.21 1909.56,-135.76 1909.59,-128.76"/>
</g>
<!-- Node4 -->
<g id="node4" class="node">
<title>Node4</title>
<g id="a_node4"><a xlink:href="BaseState_8cc.html" target="_top" xlink:title=" ">
<polygon fill="none" stroke="black" points="87,-0.5 87,-19.5 167,-19.5 167,-0.5 87,-0.5"/>
<text text-anchor="middle" x="127" y="-7.5" font-family="FreeSans.ttf" font-size="10.00">BaseState.cc</text>
</a>
</g>
</g>
<!-- Node3&#45;&gt;Node4 -->
<g id="edge3" class="edge">
<title>Node3&#45;&gt;Node4</title>
<path fill="none" stroke="midnightblue" d="M127,-51.82C127,-41 127,-27.9 127,-19.51"/>
<polygon fill="midnightblue" stroke="midnightblue" points="123.5,-51.98 127,-61.98 130.5,-51.98 123.5,-51.98"/>
</g>
<!-- Node5&#45;&gt;Node4 -->
<g id="edge5" class="edge">
<title>Node5&#45;&gt;Node4</title>
<path fill="none" stroke="midnightblue" d="M213.21,-57.21C191.71,-45.69 161.24,-29.36 142.87,-19.51"/>
<polygon fill="midnightblue" stroke="midnightblue" points="211.63,-60.34 222.1,-61.98 214.94,-54.17 211.63,-60.34"/>
</g>
<!-- Node6 -->
<g id="node6" class="node">
<title>Node6</title>
<g id="a_node6"><a xlink:href="BaseStateDriver_8cpp.html" target="_top" xlink:title=" ">
<polygon fill="none" stroke="black" points="185,-0.5 185,-19.5 301,-19.5 301,-0.5 185,-0.5"/>
<text text-anchor="middle" x="243" y="-7.5" font-family="FreeSans.ttf" font-size="10.00">BaseStateDriver.cpp</text>
</a>
</g>
</g>
<!-- Node5&#45;&gt;Node6 -->
<g id="edge6" class="edge">
<title>Node5&#45;&gt;Node6</title>
<path fill="none" stroke="midnightblue" d="M239.57,-51.82C240.48,-41 241.58,-27.9 242.28,-19.51"/>
<polygon fill="midnightblue" stroke="midnightblue" points="236.07,-51.72 238.72,-61.98 243.04,-52.3 236.07,-51.72"/>
</g>
</g>
</svg>
