<?xml version="1.0" encoding="UTF-8" standalone="no"?>
<!DOCTYPE svg PUBLIC "-//W3C//DTD SVG 1.1//EN"
 "http://www.w3.org/Graphics/SVG/1.1/DTD/svg11.dtd">
<!-- Generated by graphviz version 2.43.0 (0)
 -->
<!-- Title: Handler.cc Pages: 1 -->
<svg width="1178pt" height="140pt"
 viewBox="0.00 0.00 1177.50 140.00" xmlns="http://www.w3.org/2000/svg" xmlns:xlink="http://www.w3.org/1999/xlink">
<g id="graph0" class="graph" transform="scale(1 1) rotate(0) translate(4 136)">
<title>Handler.cc</title>
<!-- Node1 -->
<g id="node1" class="node">
<title>Node1</title>
<g id="a_node1"><a xlink:title=" ">
<polygon fill="#bfbfbf" stroke="black" points="644,-112.5 644,-131.5 712,-131.5 712,-112.5 644,-112.5"/>
<text text-anchor="middle" x="678" y="-119.5" font-family="FreeSans.ttf" font-size="10.00">Handler.cc</text>
</a>
</g>
</g>
<!-- Node2 -->
<g id="node2" class="node">
<title>Node2</title>
<g id="a_node2"><a xlink:href="Handler_8hh.html" target="_top" xlink:title=" ">
<polygon fill="none" stroke="black" points="294.5,-56.5 294.5,-75.5 363.5,-75.5 363.5,-56.5 294.5,-56.5"/>
<text text-anchor="middle" x="329" y="-63.5" font-family="FreeSans.ttf" font-size="10.00">Handler.hh</text>
</a>
</g>
</g>
<!-- Node1&#45;&gt;Node2 -->
<g id="edge1" class="edge">
<title>Node1&#45;&gt;Node2</title>
<path fill="none" stroke="midnightblue" d="M643.9,-115.72C580.47,-105.91 444.39,-84.85 373.69,-73.92"/>
<polygon fill="midnightblue" stroke="midnightblue" points="374.17,-70.45 363.75,-72.38 373.1,-77.37 374.17,-70.45"/>
</g>
<!-- Node7 -->
<g id="node7" class="node">
<title>Node7</title>
<g id="a_node7"><a xlink:title=" ">
<polygon fill="none" stroke="#bfbfbf" points="529,-0.5 529,-19.5 651,-19.5 651,-0.5 529,-0.5"/>
<text text-anchor="middle" x="590" y="-7.5" font-family="FreeSans.ttf" font-size="10.00">yarp/dev/PolyDriver.h</text>
</a>
</g>
</g>
<!-- Node1&#45;&gt;Node7 -->
<g id="edge8" class="edge">
<title>Node1&#45;&gt;Node7</title>
<path fill="none" stroke="midnightblue" d="M643.77,-116.74C599.52,-110.44 526.18,-97.08 510,-76 493.16,-54.06 525.8,-34.92 554.32,-23.2"/>
<polygon fill="midnightblue" stroke="midnightblue" points="555.72,-26.41 563.76,-19.52 553.17,-19.89 555.72,-26.41"/>
</g>
<!-- Node9 -->
<g id="node9" class="node">
<title>Node9</title>
<g id="a_node9"><a xlink:title=" ">
<polygon fill="none" stroke="#bfbfbf" points="519,-56.5 519,-75.5 601,-75.5 601,-56.5 519,-56.5"/>
<text text-anchor="middle" x="560" y="-63.5" font-family="FreeSans.ttf" font-size="10.00">yarp/os/Log.h</text>
</a>
</g>
</g>
<!-- Node1&#45;&gt;Node9 -->
<g id="edge9" class="edge">
<title>Node1&#45;&gt;Node9</title>
<path fill="none" stroke="midnightblue" d="M659.3,-112.44C640.06,-103.64 609.85,-89.81 587.8,-79.72"/>
<polygon fill="midnightblue" stroke="midnightblue" points="589.16,-76.5 578.61,-75.52 586.25,-82.86 589.16,-76.5"/>
</g>
<!-- Node10 -->
<g id="node10" class="node">
<title>Node10</title>
<g id="a_node10"><a xlink:title=" ">
<polygon fill="none" stroke="#bfbfbf" points="619.5,-56.5 619.5,-75.5 736.5,-75.5 736.5,-56.5 619.5,-56.5"/>
<text text-anchor="middle" x="678" y="-63.5" font-family="FreeSans.ttf" font-size="10.00">yarp/os/LogStream.h</text>
</a>
</g>
</g>
<!-- Node1&#45;&gt;Node10 -->
<g id="edge10" class="edge">
<title>Node1&#45;&gt;Node10</title>
<path fill="none" stroke="midnightblue" d="M678,-112.08C678,-105.01 678,-94.86 678,-85.99"/>
<polygon fill="midnightblue" stroke="midnightblue" points="681.5,-85.75 678,-75.75 674.5,-85.75 681.5,-85.75"/>
</g>
<!-- Node11 -->
<g id="node11" class="node">
<title>Node11</title>
<g id="a_node11"><a xlink:title=" ">
<polygon fill="none" stroke="#bfbfbf" points="754.5,-56.5 754.5,-75.5 891.5,-75.5 891.5,-56.5 754.5,-56.5"/>
<text text-anchor="middle" x="823" y="-63.5" font-family="FreeSans.ttf" font-size="10.00">gazebo/physics/Entity.hh</text>
</a>
</g>
</g>
<!-- Node1&#45;&gt;Node11 -->
<g id="edge11" class="edge">
<title>Node1&#45;&gt;Node11</title>
<path fill="none" stroke="midnightblue" d="M700.98,-112.44C725.16,-103.44 763.42,-89.19 790.65,-79.05"/>
<polygon fill="midnightblue" stroke="midnightblue" points="791.98,-82.29 800.13,-75.52 789.54,-75.73 791.98,-82.29"/>
</g>
<!-- Node12 -->
<g id="node12" class="node">
<title>Node12</title>
<g id="a_node12"><a xlink:title=" ">
<polygon fill="none" stroke="#bfbfbf" points="910,-56.5 910,-75.5 1058,-75.5 1058,-56.5 910,-56.5"/>
<text text-anchor="middle" x="984" y="-63.5" font-family="FreeSans.ttf" font-size="10.00">gazebo/sensors/sensors.hh</text>
</a>
</g>
</g>
<!-- Node1&#45;&gt;Node12 -->
<g id="edge12" class="edge">
<title>Node1&#45;&gt;Node12</title>
<path fill="none" stroke="midnightblue" d="M712.21,-114.96C763.84,-105.85 862.34,-88.47 925.51,-77.32"/>
<polygon fill="midnightblue" stroke="midnightblue" points="926.48,-80.71 935.72,-75.52 925.26,-73.81 926.48,-80.71"/>
</g>
<!-- Node13 -->
<g id="node13" class="node">
<title>Node13</title>
<g id="a_node13"><a xlink:title=" ">
<polygon fill="none" stroke="#bfbfbf" points="1076.5,-56.5 1076.5,-75.5 1169.5,-75.5 1169.5,-56.5 1076.5,-56.5"/>
<text text-anchor="middle" x="1123" y="-63.5" font-family="FreeSans.ttf" font-size="10.00">unordered_map</text>
</a>
</g>
</g>
<!-- Node1&#45;&gt;Node13 -->
<g id="edge13" class="edge">
<title>Node1&#45;&gt;Node13</title>
<path fill="none" stroke="midnightblue" d="M712.15,-117.56C778.26,-110.8 928.6,-94.87 1065.98,-76.08"/>
<polygon fill="midnightblue" stroke="midnightblue" points="1066.84,-79.5 1076.27,-74.67 1065.89,-72.56 1066.84,-79.5"/>
</g>
<!-- Node3 -->
<g id="node3" class="node">
<title>Node3</title>
<g id="a_node3"><a xlink:title=" ">
<polygon fill="none" stroke="#bfbfbf" points="0,-0.5 0,-19.5 38,-19.5 38,-0.5 0,-0.5"/>
<text text-anchor="middle" x="19" y="-7.5" font-family="FreeSans.ttf" font-size="10.00">map</text>
</a>
</g>
</g>
<!-- Node2&#45;&gt;Node3 -->
<g id="edge2" class="edge">
<title>Node2&#45;&gt;Node3</title>
<path fill="none" stroke="midnightblue" d="M294.37,-61.2C242.68,-55.16 142.18,-41.98 48.13,-19.96"/>
<polygon fill="midnightblue" stroke="midnightblue" points="48.71,-16.5 38.17,-17.59 47.09,-23.31 48.71,-16.5"/>
</g>
<!-- Node4 -->
<g id="node4" class="node">
<title>Node4</title>
<g id="a_node4"><a xlink:title=" ">
<polygon fill="none" stroke="#bfbfbf" points="56.5,-0.5 56.5,-19.5 149.5,-19.5 149.5,-0.5 56.5,-0.5"/>
<text text-anchor="middle" x="103" y="-7.5" font-family="FreeSans.ttf" font-size="10.00">sdf/sdf_config.h</text>
</a>
</g>
</g>
<!-- Node2&#45;&gt;Node4 -->
<g id="edge3" class="edge">
<title>Node2&#45;&gt;Node4</title>
<path fill="none" stroke="midnightblue" d="M294.18,-56.68C255.09,-47.34 191.53,-32.15 148.53,-21.88"/>
<polygon fill="midnightblue" stroke="midnightblue" points="149.14,-18.43 138.6,-19.51 147.52,-25.24 149.14,-18.43"/>
</g>
<!-- Node5 -->
<g id="node5" class="node">
<title>Node5</title>
<g id="a_node5"><a xlink:title=" ">
<polygon fill="none" stroke="#bfbfbf" points="167.5,-0.5 167.5,-19.5 286.5,-19.5 286.5,-0.5 167.5,-0.5"/>
<text text-anchor="middle" x="227" y="-7.5" font-family="FreeSans.ttf" font-size="10.00">boost/shared_ptr.hpp</text>
</a>
</g>
</g>
<!-- Node2&#45;&gt;Node5 -->
<g id="edge4" class="edge">
<title>Node2&#45;&gt;Node5</title>
<path fill="none" stroke="midnightblue" d="M312.61,-56.32C296.33,-47.7 271.13,-34.36 252.28,-24.39"/>
<polygon fill="midnightblue" stroke="midnightblue" points="253.82,-21.24 243.35,-19.65 250.55,-27.43 253.82,-21.24"/>
</g>
<!-- Node6 -->
<g id="node6" class="node">
<title>Node6</title>
<g id="a_node6"><a xlink:title=" ">
<polygon fill="none" stroke="#bfbfbf" points="305,-0.5 305,-19.5 353,-19.5 353,-0.5 305,-0.5"/>
<text text-anchor="middle" x="329" y="-7.5" font-family="FreeSans.ttf" font-size="10.00">mutex</text>
</a>
</g>
</g>
<!-- Node2&#45;&gt;Node6 -->
<g id="edge5" class="edge">
<title>Node2&#45;&gt;Node6</title>
<path fill="none" stroke="midnightblue" d="M329,-56.08C329,-49.01 329,-38.86 329,-29.99"/>
<polygon fill="midnightblue" stroke="midnightblue" points="332.5,-29.75 329,-19.75 325.5,-29.75 332.5,-29.75"/>
</g>
<!-- Node2&#45;&gt;Node7 -->
<g id="edge6" class="edge">
<title>Node2&#45;&gt;Node7</title>
<path fill="none" stroke="midnightblue" d="M363.66,-57.83C408.51,-48.55 487.02,-32.31 538.76,-21.6"/>
<polygon fill="midnightblue" stroke="midnightblue" points="539.65,-24.99 548.74,-19.54 538.24,-18.14 539.65,-24.99"/>
</g>
<!-- Node8 -->
<g id="node8" class="node">
<title>Node8</title>
<g id="a_node8"><a xlink:title=" ">
<polygon fill="none" stroke="#bfbfbf" points="371,-0.5 371,-19.5 511,-19.5 511,-0.5 371,-0.5"/>
<text text-anchor="middle" x="441" y="-7.5" font-family="FreeSans.ttf" font-size="10.00">yarp/dev/PolyDriverList.h</text>
</a>
</g>
</g>
<!-- Node2&#45;&gt;Node8 -->
<g id="edge7" class="edge">
<title>Node2&#45;&gt;Node8</title>
<path fill="none" stroke="midnightblue" d="M346.99,-56.32C365.04,-47.62 393.05,-34.12 413.8,-24.11"/>
<polygon fill="midnightblue" stroke="midnightblue" points="415.56,-27.15 423.05,-19.65 412.52,-20.84 415.56,-27.15"/>
</g>
</g>
</svg>
