<?xml version="1.0" encoding="UTF-8" standalone="no"?>
<!DOCTYPE svg PUBLIC "-//W3C//DTD SVG 1.1//EN"
 "http://www.w3.org/Graphics/SVG/1.1/DTD/svg11.dtd">
<!-- Generated by graphviz version 5.0.1 (20220821.0811)
 -->
<!-- Title: Handler.cc Pages: 1 -->
<svg width="1290pt" height="140pt"
 viewBox="0.00 0.00 1289.50 140.00" xmlns="http://www.w3.org/2000/svg" xmlns:xlink="http://www.w3.org/1999/xlink">
<g id="graph0" class="graph" transform="scale(1 1) rotate(0) translate(4 136)">
<title>Handler.cc</title>
<!-- Node1 -->
<g id="node1" class="node">
<title>Node1</title>
<g id="a_node1"><a xlink:title=" ">
<polygon fill="#bfbfbf" stroke="black" points="756,-112.5 756,-131.5 824,-131.5 824,-112.5 756,-112.5"/>
<text text-anchor="middle" x="790" y="-119.5" font-family="FreeSans.ttf" font-size="10.00">Handler.cc</text>
</a>
</g>
</g>
<!-- Node2 -->
<g id="node2" class="node">
<title>Node2</title>
<g id="a_node2"><a xlink:href="Handler_8hh.html" target="_top" xlink:title=" ">
<polygon fill="none" stroke="black" points="350.5,-56.5 350.5,-75.5 419.5,-75.5 419.5,-56.5 350.5,-56.5"/>
<text text-anchor="middle" x="385" y="-63.5" font-family="FreeSans.ttf" font-size="10.00">Handler.hh</text>
</a>
</g>
</g>
<!-- Node1&#45;&gt;Node2 -->
<g id="edge1" class="edge">
<title>Node1&#45;&gt;Node2</title>
<path fill="none" stroke="midnightblue" d="M755.82,-116.44C682.67,-106.69 510.98,-83.8 429.47,-72.93"/>
<polygon fill="midnightblue" stroke="midnightblue" points="429.89,-69.45 419.52,-71.6 428.97,-76.39 429.89,-69.45"/>
</g>
<!-- Node7 -->
<g id="node7" class="node">
<title>Node7</title>
<g id="a_node7"><a xlink:title=" ">
<polygon fill="none" stroke="#bfbfbf" points="697,-0.5 697,-19.5 819,-19.5 819,-0.5 697,-0.5"/>
<text text-anchor="middle" x="758" y="-7.5" font-family="FreeSans.ttf" font-size="10.00">yarp/dev/PolyDriver.h</text>
</a>
</g>
</g>
<!-- Node1&#45;&gt;Node7 -->
<g id="edge9" class="edge">
<title>Node1&#45;&gt;Node7</title>
<path fill="none" stroke="midnightblue" d="M755.77,-116.74C711.52,-110.44 638.18,-97.08 622,-76 599.49,-46.66 643.27,-29.91 687.01,-20.78"/>
<polygon fill="midnightblue" stroke="midnightblue" points="687.77,-24.2 696.91,-18.84 686.42,-17.33 687.77,-24.2"/>
</g>
<!-- Node10 -->
<g id="node10" class="node">
<title>Node10</title>
<g id="a_node10"><a xlink:title=" ">
<polygon fill="none" stroke="#bfbfbf" points="631,-56.5 631,-75.5 713,-75.5 713,-56.5 631,-56.5"/>
<text text-anchor="middle" x="672" y="-63.5" font-family="FreeSans.ttf" font-size="10.00">yarp/os/Log.h</text>
</a>
</g>
</g>
<!-- Node1&#45;&gt;Node10 -->
<g id="edge10" class="edge">
<title>Node1&#45;&gt;Node10</title>
<path fill="none" stroke="midnightblue" d="M771.3,-112.44C752.06,-103.64 721.85,-89.81 699.8,-79.72"/>
<polygon fill="midnightblue" stroke="midnightblue" points="701.16,-76.5 690.61,-75.52 698.25,-82.86 701.16,-76.5"/>
</g>
<!-- Node11 -->
<g id="node11" class="node">
<title>Node11</title>
<g id="a_node11"><a xlink:title=" ">
<polygon fill="none" stroke="#bfbfbf" points="731.5,-56.5 731.5,-75.5 848.5,-75.5 848.5,-56.5 731.5,-56.5"/>
<text text-anchor="middle" x="790" y="-63.5" font-family="FreeSans.ttf" font-size="10.00">yarp/os/LogStream.h</text>
</a>
</g>
</g>
<!-- Node1&#45;&gt;Node11 -->
<g id="edge11" class="edge">
<title>Node1&#45;&gt;Node11</title>
<path fill="none" stroke="midnightblue" d="M790,-112.08C790,-105.01 790,-94.86 790,-85.99"/>
<polygon fill="midnightblue" stroke="midnightblue" points="793.5,-85.75 790,-75.75 786.5,-85.75 793.5,-85.75"/>
</g>
<!-- Node12 -->
<g id="node12" class="node">
<title>Node12</title>
<g id="a_node12"><a xlink:title=" ">
<polygon fill="none" stroke="#bfbfbf" points="866.5,-56.5 866.5,-75.5 1003.5,-75.5 1003.5,-56.5 866.5,-56.5"/>
<text text-anchor="middle" x="935" y="-63.5" font-family="FreeSans.ttf" font-size="10.00">gazebo/physics/Entity.hh</text>
</a>
</g>
</g>
<!-- Node1&#45;&gt;Node12 -->
<g id="edge12" class="edge">
<title>Node1&#45;&gt;Node12</title>
<path fill="none" stroke="midnightblue" d="M812.98,-112.44C837.16,-103.44 875.42,-89.19 902.65,-79.05"/>
<polygon fill="midnightblue" stroke="midnightblue" points="903.98,-82.29 912.13,-75.52 901.54,-75.73 903.98,-82.29"/>
</g>
<!-- Node13 -->
<g id="node13" class="node">
<title>Node13</title>
<g id="a_node13"><a xlink:title=" ">
<polygon fill="none" stroke="#bfbfbf" points="1022,-56.5 1022,-75.5 1170,-75.5 1170,-56.5 1022,-56.5"/>
<text text-anchor="middle" x="1096" y="-63.5" font-family="FreeSans.ttf" font-size="10.00">gazebo/sensors/sensors.hh</text>
</a>
</g>
</g>
<!-- Node1&#45;&gt;Node13 -->
<g id="edge13" class="edge">
<title>Node1&#45;&gt;Node13</title>
<path fill="none" stroke="midnightblue" d="M824.21,-114.96C875.84,-105.85 974.34,-88.47 1037.51,-77.32"/>
<polygon fill="midnightblue" stroke="midnightblue" points="1038.48,-80.71 1047.72,-75.52 1037.26,-73.81 1038.48,-80.71"/>
</g>
<!-- Node14 -->
<g id="node14" class="node">
<title>Node14</title>
<g id="a_node14"><a xlink:title=" ">
<polygon fill="none" stroke="#bfbfbf" points="1188.5,-56.5 1188.5,-75.5 1281.5,-75.5 1281.5,-56.5 1188.5,-56.5"/>
<text text-anchor="middle" x="1235" y="-63.5" font-family="FreeSans.ttf" font-size="10.00">unordered_map</text>
</a>
</g>
</g>
<!-- Node1&#45;&gt;Node14 -->
<g id="edge14" class="edge">
<title>Node1&#45;&gt;Node14</title>
<path fill="none" stroke="midnightblue" d="M824.15,-117.56C890.26,-110.8 1040.6,-94.87 1177.98,-76.08"/>
<polygon fill="midnightblue" stroke="midnightblue" points="1178.84,-79.5 1188.27,-74.67 1177.89,-72.56 1178.84,-79.5"/>
</g>
<!-- Node3 -->
<g id="node3" class="node">
<title>Node3</title>
<g id="a_node3"><a xlink:title=" ">
<polygon fill="none" stroke="#bfbfbf" points="0,-0.5 0,-19.5 38,-19.5 38,-0.5 0,-0.5"/>
<text text-anchor="middle" x="19" y="-7.5" font-family="FreeSans.ttf" font-size="10.00">map</text>
</a>
</g>
</g>
<!-- Node2&#45;&gt;Node3 -->
<g id="edge2" class="edge">
<title>Node2&#45;&gt;Node3</title>
<path fill="none" stroke="midnightblue" d="M350.09,-62.42C290.11,-57.55 163.58,-45.32 48.21,-19.91"/>
<polygon fill="midnightblue" stroke="midnightblue" points="48.68,-16.43 38.15,-17.65 47.15,-23.26 48.68,-16.43"/>
</g>
<!-- Node4 -->
<g id="node4" class="node">
<title>Node4</title>
<g id="a_node4"><a xlink:title=" ">
<polygon fill="none" stroke="#bfbfbf" points="56.5,-0.5 56.5,-19.5 149.5,-19.5 149.5,-0.5 56.5,-0.5"/>
<text text-anchor="middle" x="103" y="-7.5" font-family="FreeSans.ttf" font-size="10.00">sdf/sdf_config.h</text>
</a>
</g>
</g>
<!-- Node2&#45;&gt;Node4 -->
<g id="edge3" class="edge">
<title>Node2&#45;&gt;Node4</title>
<path fill="none" stroke="midnightblue" d="M350.42,-58.38C302.28,-49.16 214.56,-32.36 157.55,-21.45"/>
<polygon fill="midnightblue" stroke="midnightblue" points="158.11,-17.99 147.63,-19.55 156.79,-24.86 158.11,-17.99"/>
</g>
<!-- Node5 -->
<g id="node5" class="node">
<title>Node5</title>
<g id="a_node5"><a xlink:title=" ">
<polygon fill="none" stroke="#bfbfbf" points="167.5,-0.5 167.5,-19.5 286.5,-19.5 286.5,-0.5 167.5,-0.5"/>
<text text-anchor="middle" x="227" y="-7.5" font-family="FreeSans.ttf" font-size="10.00">boost/shared_ptr.hpp</text>
</a>
</g>
</g>
<!-- Node2&#45;&gt;Node5 -->
<g id="edge4" class="edge">
<title>Node2&#45;&gt;Node5</title>
<path fill="none" stroke="midnightblue" d="M359.96,-56.44C333.38,-47.36 291.19,-32.94 261.48,-22.78"/>
<polygon fill="midnightblue" stroke="midnightblue" points="262.51,-19.44 251.92,-19.52 260.25,-26.06 262.51,-19.44"/>
</g>
<!-- Node6 -->
<g id="node6" class="node">
<title>Node6</title>
<g id="a_node6"><a xlink:title=" ">
<polygon fill="none" stroke="#bfbfbf" points="305,-0.5 305,-19.5 353,-19.5 353,-0.5 305,-0.5"/>
<text text-anchor="middle" x="329" y="-7.5" font-family="FreeSans.ttf" font-size="10.00">mutex</text>
</a>
</g>
</g>
<!-- Node2&#45;&gt;Node6 -->
<g id="edge5" class="edge">
<title>Node2&#45;&gt;Node6</title>
<path fill="none" stroke="midnightblue" d="M376,-56.32C367.81,-48.42 355.49,-36.55 345.53,-26.94"/>
<polygon fill="midnightblue" stroke="midnightblue" points="347.79,-24.26 338.16,-19.83 342.93,-29.29 347.79,-24.26"/>
</g>
<!-- Node2&#45;&gt;Node7 -->
<g id="edge6" class="edge">
<title>Node2&#45;&gt;Node7</title>
<path fill="none" stroke="midnightblue" d="M419.76,-59.97C481.07,-51.09 609.47,-32.5 689.24,-20.95"/>
<polygon fill="midnightblue" stroke="midnightblue" points="689.81,-24.41 699.2,-19.51 688.81,-17.48 689.81,-24.41"/>
</g>
<!-- Node8 -->
<g id="node8" class="node">
<title>Node8</title>
<g id="a_node8"><a xlink:title=" ">
<polygon fill="none" stroke="#bfbfbf" points="371,-0.5 371,-19.5 511,-19.5 511,-0.5 371,-0.5"/>
<text text-anchor="middle" x="441" y="-7.5" font-family="FreeSans.ttf" font-size="10.00">yarp/dev/PolyDriverList.h</text>
</a>
</g>
</g>
<!-- Node2&#45;&gt;Node8 -->
<g id="edge7" class="edge">
<title>Node2&#45;&gt;Node8</title>
<path fill="none" stroke="midnightblue" d="M394,-56.32C402.19,-48.42 414.51,-36.55 424.47,-26.94"/>
<polygon fill="midnightblue" stroke="midnightblue" points="427.07,-29.29 431.84,-19.83 422.21,-24.26 427.07,-29.29"/>
</g>
<!-- Node9 -->
<g id="node9" class="node">
<title>Node9</title>
<g id="a_node9"><a xlink:title=" ">
<polygon fill="none" stroke="#bfbfbf" points="529.5,-0.5 529.5,-19.5 678.5,-19.5 678.5,-0.5 529.5,-0.5"/>
<text text-anchor="middle" x="604" y="-7.5" font-family="FreeSans.ttf" font-size="10.00">gazebo/common/Events.hh</text>
</a>
</g>
</g>
<!-- Node2&#45;&gt;Node9 -->
<g id="edge8" class="edge">
<title>Node2&#45;&gt;Node9</title>
<path fill="none" stroke="midnightblue" d="M419.7,-56.44C457.58,-47.1 518.35,-32.12 559.66,-21.93"/>
<polygon fill="midnightblue" stroke="midnightblue" points="560.59,-25.31 569.46,-19.52 558.91,-18.51 560.59,-25.31"/>
</g>
</g>
</svg>
