<?xml version="1.0" encoding="UTF-8" standalone="no"?>
<!DOCTYPE svg PUBLIC "-//W3C//DTD SVG 1.1//EN"
 "http://www.w3.org/Graphics/SVG/1.1/DTD/svg11.dtd">
<!-- Generated by graphviz version 2.43.0 (0)
 -->
<!-- Title: Handler.hh Pages: 1 -->
<svg width="659pt" height="84pt"
 viewBox="0.00 0.00 659.00 84.00" xmlns="http://www.w3.org/2000/svg" xmlns:xlink="http://www.w3.org/1999/xlink">
<g id="graph0" class="graph" transform="scale(1 1) rotate(0) translate(4 80)">
<title>Handler.hh</title>
<!-- Node1 -->
<g id="node1" class="node">
<title>Node1</title>
<g id="a_node1"><a xlink:title=" ">
<polygon fill="#bfbfbf" stroke="black" points="243.5,-56.5 243.5,-75.5 312.5,-75.5 312.5,-56.5 243.5,-56.5"/>
<text text-anchor="middle" x="278" y="-63.5" font-family="FreeSans.ttf" font-size="10.00">Handler.hh</text>
</a>
</g>
</g>
<!-- Node2 -->
<g id="node2" class="node">
<title>Node2</title>
<g id="a_node2"><a xlink:title=" ">
<polygon fill="none" stroke="#bfbfbf" points="0,-0.5 0,-19.5 38,-19.5 38,-0.5 0,-0.5"/>
<text text-anchor="middle" x="19" y="-7.5" font-family="FreeSans.ttf" font-size="10.00">map</text>
</a>
</g>
</g>
<!-- Node1&#45;&gt;Node2 -->
<g id="edge1" class="edge">
<title>Node1&#45;&gt;Node2</title>
<path fill="none" stroke="midnightblue" d="M243.27,-59.56C199.78,-52.45 122.83,-38.93 48.22,-20.07"/>
<polygon fill="midnightblue" stroke="midnightblue" points="48.75,-16.59 38.19,-17.5 47.01,-23.37 48.75,-16.59"/>
</g>
<!-- Node3 -->
<g id="node3" class="node">
<title>Node3</title>
<g id="a_node3"><a xlink:title=" ">
<polygon fill="none" stroke="#bfbfbf" points="56.5,-0.5 56.5,-19.5 149.5,-19.5 149.5,-0.5 56.5,-0.5"/>
<text text-anchor="middle" x="103" y="-7.5" font-family="FreeSans.ttf" font-size="10.00">sdf/sdf_config.h</text>
</a>
</g>
</g>
<!-- Node1&#45;&gt;Node3 -->
<g id="edge2" class="edge">
<title>Node1&#45;&gt;Node3</title>
<path fill="none" stroke="midnightblue" d="M250.27,-56.44C220.57,-47.28 173.28,-32.69 140.33,-22.52"/>
<polygon fill="midnightblue" stroke="midnightblue" points="141.19,-19.12 130.6,-19.52 139.12,-25.81 141.19,-19.12"/>
</g>
<!-- Node4 -->
<g id="node4" class="node">
<title>Node4</title>
<g id="a_node4"><a xlink:title=" ">
<polygon fill="none" stroke="#bfbfbf" points="167.5,-0.5 167.5,-19.5 286.5,-19.5 286.5,-0.5 167.5,-0.5"/>
<text text-anchor="middle" x="227" y="-7.5" font-family="FreeSans.ttf" font-size="10.00">boost/shared_ptr.hpp</text>
</a>
</g>
</g>
<!-- Node1&#45;&gt;Node4 -->
<g id="edge3" class="edge">
<title>Node1&#45;&gt;Node4</title>
<path fill="none" stroke="midnightblue" d="M269.58,-56.08C262.15,-48.22 251.15,-36.57 242.19,-27.08"/>
<polygon fill="midnightblue" stroke="midnightblue" points="244.68,-24.62 235.26,-19.75 239.59,-29.42 244.68,-24.62"/>
</g>
<!-- Node5 -->
<g id="node5" class="node">
<title>Node5</title>
<g id="a_node5"><a xlink:title=" ">
<polygon fill="none" stroke="#bfbfbf" points="305,-0.5 305,-19.5 353,-19.5 353,-0.5 305,-0.5"/>
<text text-anchor="middle" x="329" y="-7.5" font-family="FreeSans.ttf" font-size="10.00">mutex</text>
</a>
</g>
</g>
<!-- Node1&#45;&gt;Node5 -->
<g id="edge4" class="edge">
<title>Node1&#45;&gt;Node5</title>
<path fill="none" stroke="midnightblue" d="M286.42,-56.08C293.85,-48.22 304.85,-36.57 313.81,-27.08"/>
<polygon fill="midnightblue" stroke="midnightblue" points="316.41,-29.42 320.74,-19.75 311.32,-24.62 316.41,-29.42"/>
</g>
<!-- Node6 -->
<g id="node6" class="node">
<title>Node6</title>
<g id="a_node6"><a xlink:title=" ">
<polygon fill="none" stroke="#bfbfbf" points="371,-0.5 371,-19.5 493,-19.5 493,-0.5 371,-0.5"/>
<text text-anchor="middle" x="432" y="-7.5" font-family="FreeSans.ttf" font-size="10.00">yarp/dev/PolyDriver.h</text>
</a>
</g>
</g>
<!-- Node1&#45;&gt;Node6 -->
<g id="edge5" class="edge">
<title>Node1&#45;&gt;Node6</title>
<path fill="none" stroke="midnightblue" d="M302.4,-56.44C328.2,-47.4 369.08,-33.06 398.02,-22.92"/>
<polygon fill="midnightblue" stroke="midnightblue" points="399.43,-26.13 407.71,-19.52 397.12,-19.52 399.43,-26.13"/>
</g>
<!-- Node7 -->
<g id="node7" class="node">
<title>Node7</title>
<g id="a_node7"><a xlink:title=" ">
<polygon fill="none" stroke="#bfbfbf" points="511,-0.5 511,-19.5 651,-19.5 651,-0.5 511,-0.5"/>
<text text-anchor="middle" x="581" y="-7.5" font-family="FreeSans.ttf" font-size="10.00">yarp/dev/PolyDriverList.h</text>
</a>
</g>
</g>
<!-- Node1&#45;&gt;Node7 -->
<g id="edge6" class="edge">
<title>Node1&#45;&gt;Node7</title>
<path fill="none" stroke="midnightblue" d="M312.76,-58.81C364.15,-49.65 461.01,-32.38 523.2,-21.3"/>
<polygon fill="midnightblue" stroke="midnightblue" points="524.01,-24.71 533.24,-19.51 522.79,-17.82 524.01,-24.71"/>
</g>
</g>
</svg>
