<?xml version="1.0" encoding="UTF-8" standalone="no"?>
<!DOCTYPE svg PUBLIC "-//W3C//DTD SVG 1.1//EN"
 "http://www.w3.org/Graphics/SVG/1.1/DTD/svg11.dtd">
<!-- Generated by graphviz version 3.0.0 (20220315.2325)
 -->
<!-- Title: Handler.hh Pages: 1 -->
<svg width="827pt" height="84pt"
 viewBox="0.00 0.00 826.50 84.00" xmlns="http://www.w3.org/2000/svg" xmlns:xlink="http://www.w3.org/1999/xlink">
<g id="graph0" class="graph" transform="scale(1 1) rotate(0) translate(4 80)">
<title>Handler.hh</title>
<!-- Node1 -->
<g id="node1" class="node">
<title>Node1</title>
<g id="a_node1"><a xlink:title=" ">
<polygon fill="#bfbfbf" stroke="black" points="294.5,-56.5 294.5,-75.5 363.5,-75.5 363.5,-56.5 294.5,-56.5"/>
<text text-anchor="middle" x="329" y="-63.5" font-family="FreeSans.ttf" font-size="10.00">Handler.hh</text>
</a>
</g>
</g>
<!-- Node2 -->
<g id="node2" class="node">
<title>Node2</title>
<g id="a_node2"><a xlink:title=" ">
<polygon fill="none" stroke="#bfbfbf" points="0,-0.5 0,-19.5 38,-19.5 38,-0.5 0,-0.5"/>
<text text-anchor="middle" x="19" y="-7.5" font-family="FreeSans.ttf" font-size="10.00">map</text>
</a>
</g>
</g>
<!-- Node1&#45;&gt;Node2 -->
<g id="edge1" class="edge">
<title>Node1&#45;&gt;Node2</title>
<path fill="none" stroke="midnightblue" d="M294.37,-61.2C242.68,-55.16 142.18,-41.98 48.13,-19.96"/>
<polygon fill="midnightblue" stroke="midnightblue" points="48.71,-16.5 38.17,-17.59 47.09,-23.31 48.71,-16.5"/>
</g>
<!-- Node3 -->
<g id="node3" class="node">
<title>Node3</title>
<g id="a_node3"><a xlink:title=" ">
<polygon fill="none" stroke="#bfbfbf" points="56.5,-0.5 56.5,-19.5 149.5,-19.5 149.5,-0.5 56.5,-0.5"/>
<text text-anchor="middle" x="103" y="-7.5" font-family="FreeSans.ttf" font-size="10.00">sdf/sdf_config.h</text>
</a>
</g>
</g>
<!-- Node1&#45;&gt;Node3 -->
<g id="edge2" class="edge">
<title>Node1&#45;&gt;Node3</title>
<path fill="none" stroke="midnightblue" d="M294.18,-56.68C255.09,-47.34 191.53,-32.15 148.53,-21.88"/>
<polygon fill="midnightblue" stroke="midnightblue" points="149.14,-18.43 138.6,-19.51 147.52,-25.24 149.14,-18.43"/>
</g>
<!-- Node4 -->
<g id="node4" class="node">
<title>Node4</title>
<g id="a_node4"><a xlink:title=" ">
<polygon fill="none" stroke="#bfbfbf" points="167.5,-0.5 167.5,-19.5 286.5,-19.5 286.5,-0.5 167.5,-0.5"/>
<text text-anchor="middle" x="227" y="-7.5" font-family="FreeSans.ttf" font-size="10.00">boost/shared_ptr.hpp</text>
</a>
</g>
</g>
<!-- Node1&#45;&gt;Node4 -->
<g id="edge3" class="edge">
<title>Node1&#45;&gt;Node4</title>
<path fill="none" stroke="midnightblue" d="M312.61,-56.32C296.33,-47.7 271.13,-34.36 252.28,-24.39"/>
<polygon fill="midnightblue" stroke="midnightblue" points="253.82,-21.24 243.35,-19.65 250.55,-27.43 253.82,-21.24"/>
</g>
<!-- Node5 -->
<g id="node5" class="node">
<title>Node5</title>
<g id="a_node5"><a xlink:title=" ">
<polygon fill="none" stroke="#bfbfbf" points="305,-0.5 305,-19.5 353,-19.5 353,-0.5 305,-0.5"/>
<text text-anchor="middle" x="329" y="-7.5" font-family="FreeSans.ttf" font-size="10.00">mutex</text>
</a>
</g>
</g>
<!-- Node1&#45;&gt;Node5 -->
<g id="edge4" class="edge">
<title>Node1&#45;&gt;Node5</title>
<path fill="none" stroke="midnightblue" d="M329,-56.08C329,-49.01 329,-38.86 329,-29.99"/>
<polygon fill="midnightblue" stroke="midnightblue" points="332.5,-29.75 329,-19.75 325.5,-29.75 332.5,-29.75"/>
</g>
<!-- Node6 -->
<g id="node6" class="node">
<title>Node6</title>
<g id="a_node6"><a xlink:title=" ">
<polygon fill="none" stroke="#bfbfbf" points="371,-0.5 371,-19.5 493,-19.5 493,-0.5 371,-0.5"/>
<text text-anchor="middle" x="432" y="-7.5" font-family="FreeSans.ttf" font-size="10.00">yarp/dev/PolyDriver.h</text>
</a>
</g>
</g>
<!-- Node1&#45;&gt;Node6 -->
<g id="edge5" class="edge">
<title>Node1&#45;&gt;Node6</title>
<path fill="none" stroke="midnightblue" d="M345.55,-56.32C361.99,-47.7 387.43,-34.36 406.47,-24.39"/>
<polygon fill="midnightblue" stroke="midnightblue" points="408.26,-27.4 415.49,-19.65 405.01,-21.2 408.26,-27.4"/>
</g>
<!-- Node7 -->
<g id="node7" class="node">
<title>Node7</title>
<g id="a_node7"><a xlink:title=" ">
<polygon fill="none" stroke="#bfbfbf" points="511,-0.5 511,-19.5 651,-19.5 651,-0.5 511,-0.5"/>
<text text-anchor="middle" x="581" y="-7.5" font-family="FreeSans.ttf" font-size="10.00">yarp/dev/PolyDriverList.h</text>
</a>
</g>
</g>
<!-- Node1&#45;&gt;Node7 -->
<g id="edge6" class="edge">
<title>Node1&#45;&gt;Node7</title>
<path fill="none" stroke="midnightblue" d="M363.51,-57.6C406.89,-48.31 481.67,-32.29 531.23,-21.67"/>
<polygon fill="midnightblue" stroke="midnightblue" points="532.05,-25.07 541.1,-19.55 530.58,-18.22 532.05,-25.07"/>
</g>
<!-- Node8 -->
<g id="node8" class="node">
<title>Node8</title>
<g id="a_node8"><a xlink:title=" ">
<polygon fill="none" stroke="#bfbfbf" points="669.5,-0.5 669.5,-19.5 818.5,-19.5 818.5,-0.5 669.5,-0.5"/>
<text text-anchor="middle" x="744" y="-7.5" font-family="FreeSans.ttf" font-size="10.00">gazebo/common/Events.hh</text>
</a>
</g>
</g>
<!-- Node1&#45;&gt;Node8 -->
<g id="edge7" class="edge">
<title>Node1&#45;&gt;Node8</title>
<path fill="none" stroke="midnightblue" d="M363.67,-60.49C430.42,-51.8 578.17,-32.58 668.61,-20.81"/>
<polygon fill="midnightblue" stroke="midnightblue" points="669.07,-24.28 678.53,-19.52 668.16,-17.34 669.07,-24.28"/>
</g>
</g>
</svg>
