<?xml version="1.0" encoding="UTF-8" standalone="no"?>
<!DOCTYPE svg PUBLIC "-//W3C//DTD SVG 1.1//EN"
 "http://www.w3.org/Graphics/SVG/1.1/DTD/svg11.dtd">
<!-- Generated by graphviz version 2.43.0 (0)
 -->
<!-- Title: IMU.cc Pages: 1 -->
<svg width="2417pt" height="151pt"
 viewBox="0.00 0.00 2417.00 151.00" xmlns="http://www.w3.org/2000/svg" xmlns:xlink="http://www.w3.org/1999/xlink">
<g id="graph0" class="graph" transform="scale(1 1) rotate(0) translate(4 147)">
<title>IMU.cc</title>
<!-- Node1 -->
<g id="node1" class="node">
<title>Node1</title>
<g id="a_node1"><a xlink:title=" ">
<polygon fill="#bfbfbf" stroke="black" points="1654.5,-123.5 1654.5,-142.5 1704.5,-142.5 1704.5,-123.5 1654.5,-123.5"/>
<text text-anchor="middle" x="1679.5" y="-130.5" font-family="FreeSans.ttf" font-size="10.00">IMU.cc</text>
</a>
</g>
</g>
<!-- Node2 -->
<g id="node2" class="node">
<title>Node2</title>
<g id="a_node2"><a xlink:href="IMU_8hh.html" target="_top" xlink:title=" ">
<polygon fill="none" stroke="black" points="303,-67.5 303,-86.5 354,-86.5 354,-67.5 303,-67.5"/>
<text text-anchor="middle" x="328.5" y="-74.5" font-family="FreeSans.ttf" font-size="10.00">IMU.hh</text>
</a>
</g>
</g>
<!-- Node1&#45;&gt;Node2 -->
<g id="edge1" class="edge">
<title>Node1&#45;&gt;Node2</title>
<path fill="none" stroke="midnightblue" d="M1654.41,-131.89C1497.34,-131.06 647.37,-124.97 364.59,-86.75"/>
<polygon fill="midnightblue" stroke="midnightblue" points="364.76,-83.24 354.37,-85.32 363.78,-90.17 364.76,-83.24"/>
</g>
<!-- Node5 -->
<g id="node5" class="node">
<title>Node5</title>
<g id="a_node5"><a xlink:title=" ">
<polygon fill="none" stroke="#bfbfbf" points="465.5,-6 465.5,-25 587.5,-25 587.5,-6 465.5,-6"/>
<text text-anchor="middle" x="526.5" y="-13" font-family="FreeSans.ttf" font-size="10.00">yarp/dev/PolyDriver.h</text>
</a>
</g>
</g>
<!-- Node1&#45;&gt;Node5 -->
<g id="edge30" class="edge">
<title>Node1&#45;&gt;Node5</title>
<path fill="none" stroke="midnightblue" d="M1654.19,-130.69C1534.85,-124.31 1016.67,-94.13 596.5,-31 589.08,-29.88 581.25,-28.49 573.63,-27"/>
<polygon fill="midnightblue" stroke="midnightblue" points="574.28,-23.56 563.78,-25.02 572.89,-30.42 574.28,-23.56"/>
</g>
<!-- Node7 -->
<g id="node7" class="node">
<title>Node7</title>
<g id="a_node7"><a xlink:href="IMUDriver_8h.html" target="_top" xlink:title=" ">
<polygon fill="none" stroke="black" points="1199.5,-67.5 1199.5,-86.5 1273.5,-86.5 1273.5,-67.5 1199.5,-67.5"/>
<text text-anchor="middle" x="1236.5" y="-74.5" font-family="FreeSans.ttf" font-size="10.00">IMUDriver.h</text>
</a>
</g>
</g>
<!-- Node1&#45;&gt;Node7 -->
<g id="edge6" class="edge">
<title>Node1&#45;&gt;Node7</title>
<path fill="none" stroke="midnightblue" d="M1654.41,-128.94C1582.87,-120.22 1377.02,-95.13 1283.61,-83.74"/>
<polygon fill="midnightblue" stroke="midnightblue" points="1283.94,-80.26 1273.59,-82.52 1283.09,-87.21 1283.94,-80.26"/>
</g>
<!-- Node15 -->
<g id="node15" class="node">
<title>Node15</title>
<g id="a_node15"><a xlink:href="Handler_8hh.html" target="_top" xlink:title=" ">
<polygon fill="none" stroke="black" points="1500.5,-67.5 1500.5,-86.5 1664.5,-86.5 1664.5,-67.5 1500.5,-67.5"/>
<text text-anchor="middle" x="1582.5" y="-74.5" font-family="FreeSans.ttf" font-size="10.00">GazeboYarpPlugins/Handler.hh</text>
</a>
</g>
</g>
<!-- Node1&#45;&gt;Node15 -->
<g id="edge14" class="edge">
<title>Node1&#45;&gt;Node15</title>
<path fill="none" stroke="midnightblue" d="M1663.92,-123.32C1648.5,-114.74 1624.69,-101.49 1606.79,-91.52"/>
<polygon fill="midnightblue" stroke="midnightblue" points="1608.49,-88.46 1598.05,-86.65 1605.08,-94.58 1608.49,-88.46"/>
</g>
<!-- Node19 -->
<g id="node19" class="node">
<title>Node19</title>
<g id="a_node19"><a xlink:href="common_8h.html" target="_top" xlink:title=" ">
<polygon fill="none" stroke="black" points="372.5,-67.5 372.5,-86.5 536.5,-86.5 536.5,-67.5 372.5,-67.5"/>
<text text-anchor="middle" x="454.5" y="-74.5" font-family="FreeSans.ttf" font-size="10.00">GazeboYarpPlugins/common.h</text>
</a>
</g>
</g>
<!-- Node1&#45;&gt;Node19 -->
<g id="edge21" class="edge">
<title>Node1&#45;&gt;Node19</title>
<path fill="none" stroke="midnightblue" d="M1654.48,-130.9C1512.21,-124.63 802.7,-93.35 546.75,-82.07"/>
<polygon fill="midnightblue" stroke="midnightblue" points="546.89,-78.57 536.74,-81.63 546.58,-85.56 546.89,-78.57"/>
</g>
<!-- Node21 -->
<g id="node21" class="node">
<title>Node21</title>
<g id="a_node21"><a xlink:href="ConfHelpers_8hh.html" target="_top" xlink:title=" ">
<polygon fill="none" stroke="black" points="1683,-67.5 1683,-86.5 1870,-86.5 1870,-67.5 1683,-67.5"/>
<text text-anchor="middle" x="1776.5" y="-74.5" font-family="FreeSans.ttf" font-size="10.00">GazeboYarpPlugins/ConfHelpers.hh</text>
</a>
</g>
</g>
<!-- Node1&#45;&gt;Node21 -->
<g id="edge24" class="edge">
<title>Node1&#45;&gt;Node21</title>
<path fill="none" stroke="midnightblue" d="M1695.08,-123.32C1710.5,-114.74 1734.31,-101.49 1752.21,-91.52"/>
<polygon fill="midnightblue" stroke="midnightblue" points="1753.92,-94.58 1760.95,-86.65 1750.51,-88.46 1753.92,-94.58"/>
</g>
<!-- Node24 -->
<g id="node24" class="node">
<title>Node24</title>
<g id="a_node24"><a xlink:title=" ">
<polygon fill="none" stroke="#bfbfbf" points="1888,-67.5 1888,-86.5 2049,-86.5 2049,-67.5 1888,-67.5"/>
<text text-anchor="middle" x="1968.5" y="-74.5" font-family="FreeSans.ttf" font-size="10.00">gazebo/sensors/ImuSensor.hh</text>
</a>
</g>
</g>
<!-- Node1&#45;&gt;Node24 -->
<g id="edge29" class="edge">
<title>Node1&#45;&gt;Node24</title>
<path fill="none" stroke="midnightblue" d="M1704.64,-127.3C1750.76,-118.69 1849.88,-100.16 1912.65,-88.44"/>
<polygon fill="midnightblue" stroke="midnightblue" points="1913.59,-91.82 1922.78,-86.54 1912.3,-84.94 1913.59,-91.82"/>
</g>
<!-- Node25 -->
<g id="node25" class="node">
<title>Node25</title>
<g id="a_node25"><a xlink:title=" ">
<polygon fill="none" stroke="#bfbfbf" points="2067.5,-67.5 2067.5,-86.5 2173.5,-86.5 2173.5,-67.5 2067.5,-67.5"/>
<text text-anchor="middle" x="2120.5" y="-74.5" font-family="FreeSans.ttf" font-size="10.00">yarp/os/Network.h</text>
</a>
</g>
</g>
<!-- Node1&#45;&gt;Node25 -->
<g id="edge31" class="edge">
<title>Node1&#45;&gt;Node25</title>
<path fill="none" stroke="midnightblue" d="M1704.81,-129.22C1764.33,-122.65 1918.04,-105.38 2057.4,-87.12"/>
<polygon fill="midnightblue" stroke="midnightblue" points="2057.95,-90.57 2067.41,-85.8 2057.04,-83.63 2057.95,-90.57"/>
</g>
<!-- Node26 -->
<g id="node26" class="node">
<title>Node26</title>
<g id="a_node26"><a xlink:title=" ">
<polygon fill="none" stroke="#bfbfbf" points="2191.5,-67.5 2191.5,-86.5 2273.5,-86.5 2273.5,-67.5 2191.5,-67.5"/>
<text text-anchor="middle" x="2232.5" y="-74.5" font-family="FreeSans.ttf" font-size="10.00">yarp/os/Log.h</text>
</a>
</g>
</g>
<!-- Node1&#45;&gt;Node26 -->
<g id="edge32" class="edge">
<title>Node1&#45;&gt;Node26</title>
<path fill="none" stroke="midnightblue" d="M1704.71,-130.54C1777.15,-126.18 1992.28,-112.04 2181.23,-87.06"/>
<polygon fill="midnightblue" stroke="midnightblue" points="2181.9,-90.5 2191.34,-85.71 2180.97,-83.56 2181.9,-90.5"/>
</g>
<!-- Node27 -->
<g id="node27" class="node">
<title>Node27</title>
<g id="a_node27"><a xlink:title=" ">
<polygon fill="none" stroke="#bfbfbf" points="2292,-67.5 2292,-86.5 2409,-86.5 2409,-67.5 2292,-67.5"/>
<text text-anchor="middle" x="2350.5" y="-74.5" font-family="FreeSans.ttf" font-size="10.00">yarp/os/LogStream.h</text>
</a>
</g>
</g>
<!-- Node1&#45;&gt;Node27 -->
<g id="edge33" class="edge">
<title>Node1&#45;&gt;Node27</title>
<path fill="none" stroke="midnightblue" d="M1704.53,-130.65C1785.96,-126.13 2050.86,-110.6 2281.65,-87.03"/>
<polygon fill="midnightblue" stroke="midnightblue" points="2282.33,-90.47 2291.92,-85.97 2281.61,-83.51 2282.33,-90.47"/>
</g>
<!-- Node3 -->
<g id="node3" class="node">
<title>Node3</title>
<g id="a_node3"><a xlink:title=" ">
<polygon fill="none" stroke="#bfbfbf" points="173.5,-6 173.5,-25 319.5,-25 319.5,-6 173.5,-6"/>
<text text-anchor="middle" x="246.5" y="-13" font-family="FreeSans.ttf" font-size="10.00">gazebo/common/Plugin.hh</text>
</a>
</g>
</g>
<!-- Node2&#45;&gt;Node3 -->
<g id="edge2" class="edge">
<title>Node2&#45;&gt;Node3</title>
<path fill="none" stroke="midnightblue" d="M316.75,-67.48C303.72,-58.02 282.46,-42.6 266.74,-31.19"/>
<polygon fill="midnightblue" stroke="midnightblue" points="268.38,-28.05 258.23,-25.01 264.27,-33.71 268.38,-28.05"/>
</g>
<!-- Node4 -->
<g id="node4" class="node">
<title>Node4</title>
<g id="a_node4"><a xlink:title=" ">
<polygon fill="none" stroke="#bfbfbf" points="0,-6 0,-25 155,-25 155,-6 0,-6"/>
<text text-anchor="middle" x="77.5" y="-13" font-family="FreeSans.ttf" font-size="10.00">yarp/dev/IMultipleWrapper.h</text>
</a>
</g>
</g>
<!-- Node2&#45;&gt;Node4 -->
<g id="edge3" class="edge">
<title>Node2&#45;&gt;Node4</title>
<path fill="none" stroke="midnightblue" d="M302.58,-69.86C260.34,-59.84 176.08,-39.87 123.49,-27.4"/>
<polygon fill="midnightblue" stroke="midnightblue" points="124.28,-23.99 113.74,-25.09 122.66,-30.8 124.28,-23.99"/>
</g>
<!-- Node2&#45;&gt;Node5 -->
<g id="edge4" class="edge">
<title>Node2&#45;&gt;Node5</title>
<path fill="none" stroke="midnightblue" d="M354.39,-68.22C388.52,-57.96 448.86,-39.83 488.26,-27.99"/>
<polygon fill="midnightblue" stroke="midnightblue" points="489.48,-31.28 498.05,-25.05 487.46,-24.58 489.48,-31.28"/>
</g>
<!-- Node6 -->
<g id="node6" class="node">
<title>Node6</title>
<g id="a_node6"><a xlink:title=" ">
<polygon fill="none" stroke="#bfbfbf" points="337.5,-6 337.5,-25 381.5,-25 381.5,-6 337.5,-6"/>
<text text-anchor="middle" x="359.5" y="-13" font-family="FreeSans.ttf" font-size="10.00">string</text>
</a>
</g>
</g>
<!-- Node2&#45;&gt;Node6 -->
<g id="edge5" class="edge">
<title>Node2&#45;&gt;Node6</title>
<path fill="none" stroke="midnightblue" d="M332.94,-67.48C337.45,-58.82 344.57,-45.15 350.31,-34.15"/>
<polygon fill="midnightblue" stroke="midnightblue" points="353.55,-35.49 355.07,-25.01 347.34,-32.26 353.55,-35.49"/>
</g>
<!-- Node8 -->
<g id="node8" class="node">
<title>Node8</title>
<g id="a_node8"><a xlink:title=" ">
<polygon fill="none" stroke="#bfbfbf" points="887.5,-6 887.5,-25 1021.5,-25 1021.5,-6 887.5,-6"/>
<text text-anchor="middle" x="954.5" y="-13" font-family="FreeSans.ttf" font-size="10.00">yarp/dev/DeviceDriver.h</text>
</a>
</g>
</g>
<!-- Node7&#45;&gt;Node8 -->
<g id="edge7" class="edge">
<title>Node7&#45;&gt;Node8</title>
<path fill="none" stroke="midnightblue" d="M1199.34,-68.16C1149.5,-57.64 1060.81,-38.93 1004.96,-27.15"/>
<polygon fill="midnightblue" stroke="midnightblue" points="1005.44,-23.67 994.93,-25.03 1004,-30.52 1005.44,-23.67"/>
</g>
<!-- Node9 -->
<g id="node9" class="node">
<title>Node9</title>
<g id="a_node9"><a xlink:title=" ">
<polygon fill="none" stroke="#bfbfbf" points="1040,-6 1040,-25 1231,-25 1231,-6 1040,-6"/>
<text text-anchor="middle" x="1135.5" y="-13" font-family="FreeSans.ttf" font-size="10.00">yarp/dev/GenericSensorInterfaces.h</text>
</a>
</g>
</g>
<!-- Node7&#45;&gt;Node9 -->
<g id="edge8" class="edge">
<title>Node7&#45;&gt;Node9</title>
<path fill="none" stroke="midnightblue" d="M1222.03,-67.48C1205.53,-57.75 1178.32,-41.73 1158.82,-30.24"/>
<polygon fill="midnightblue" stroke="midnightblue" points="1160.34,-27.07 1149.94,-25.01 1156.78,-33.1 1160.34,-27.07"/>
</g>
<!-- Node10 -->
<g id="node10" class="node">
<title>Node10</title>
<g id="a_node10"><a xlink:title=" ">
<polygon fill="none" stroke="#bfbfbf" points="1249.5,-0.5 1249.5,-30.5 1423.5,-30.5 1423.5,-0.5 1249.5,-0.5"/>
<text text-anchor="start" x="1257.5" y="-18.5" font-family="FreeSans.ttf" font-size="10.00">yarp/dev/MultipleAnalogSensors</text>
<text text-anchor="middle" x="1336.5" y="-7.5" font-family="FreeSans.ttf" font-size="10.00">Interfaces.h</text>
</a>
</g>
</g>
<!-- Node7&#45;&gt;Node10 -->
<g id="edge9" class="edge">
<title>Node7&#45;&gt;Node10</title>
<path fill="none" stroke="midnightblue" d="M1250.83,-67.48C1264.62,-59.27 1285.98,-46.56 1303.92,-35.88"/>
<polygon fill="midnightblue" stroke="midnightblue" points="1306.13,-38.64 1312.93,-30.52 1302.55,-32.63 1306.13,-38.64"/>
</g>
<!-- Node11 -->
<g id="node11" class="node">
<title>Node11</title>
<g id="a_node11"><a xlink:title=" ">
<polygon fill="none" stroke="#bfbfbf" points="605.5,-6 605.5,-25 701.5,-25 701.5,-6 605.5,-6"/>
<text text-anchor="middle" x="653.5" y="-13" font-family="FreeSans.ttf" font-size="10.00">yarp/os/Stamp.h</text>
</a>
</g>
</g>
<!-- Node7&#45;&gt;Node11 -->
<g id="edge10" class="edge">
<title>Node7&#45;&gt;Node11</title>
<path fill="none" stroke="midnightblue" d="M1199.33,-74.85C1113.08,-71.74 892.87,-61.25 711.5,-31 705.66,-30.03 699.55,-28.77 693.57,-27.4"/>
<polygon fill="midnightblue" stroke="midnightblue" points="694.25,-23.96 683.71,-25.02 692.61,-30.77 694.25,-23.96"/>
</g>
<!-- Node12 -->
<g id="node12" class="node">
<title>Node12</title>
<g id="a_node12"><a xlink:title=" ">
<polygon fill="none" stroke="#bfbfbf" points="720,-6 720,-25 869,-25 869,-6 720,-6"/>
<text text-anchor="middle" x="794.5" y="-13" font-family="FreeSans.ttf" font-size="10.00">yarp/dev/IPreciselyTimed.h</text>
</a>
</g>
</g>
<!-- Node7&#45;&gt;Node12 -->
<g id="edge11" class="edge">
<title>Node7&#45;&gt;Node12</title>
<path fill="none" stroke="midnightblue" d="M1199.32,-71.9C1134.19,-64.58 995.29,-48.41 878.5,-31 869.78,-29.7 860.57,-28.22 851.57,-26.71"/>
<polygon fill="midnightblue" stroke="midnightblue" points="851.98,-23.23 841.53,-25.01 850.8,-30.13 851.98,-23.23"/>
</g>
<!-- Node13 -->
<g id="node13" class="node">
<title>Node13</title>
<g id="a_node13"><a xlink:title=" ">
<polygon fill="none" stroke="#bfbfbf" points="1722,-6 1722,-25 1841,-25 1841,-6 1722,-6"/>
<text text-anchor="middle" x="1781.5" y="-13" font-family="FreeSans.ttf" font-size="10.00">boost/shared_ptr.hpp</text>
</a>
</g>
</g>
<!-- Node7&#45;&gt;Node13 -->
<g id="edge12" class="edge">
<title>Node7&#45;&gt;Node13</title>
<path fill="none" stroke="midnightblue" d="M1273.71,-73.92C1354.12,-69.1 1550.01,-55.67 1712.5,-31 1719.74,-29.9 1727.36,-28.52 1734.79,-27.06"/>
<polygon fill="midnightblue" stroke="midnightblue" points="1735.66,-30.45 1744.76,-25.02 1734.26,-23.6 1735.66,-30.45"/>
</g>
<!-- Node14 -->
<g id="node14" class="node">
<title>Node14</title>
<g id="a_node14"><a xlink:title=" ">
<polygon fill="none" stroke="#bfbfbf" points="1441.5,-6 1441.5,-25 1489.5,-25 1489.5,-6 1441.5,-6"/>
<text text-anchor="middle" x="1465.5" y="-13" font-family="FreeSans.ttf" font-size="10.00">mutex</text>
</a>
</g>
</g>
<!-- Node7&#45;&gt;Node14 -->
<g id="edge13" class="edge">
<title>Node7&#45;&gt;Node14</title>
<path fill="none" stroke="midnightblue" d="M1273.55,-69.65C1313.39,-62.33 1378.31,-48.95 1432.5,-31 1434.37,-30.38 1436.28,-29.69 1438.19,-28.97"/>
<polygon fill="midnightblue" stroke="midnightblue" points="1439.67,-32.14 1447.58,-25.1 1437.01,-25.67 1439.67,-32.14"/>
</g>
<!-- Node15&#45;&gt;Node5 -->
<g id="edge19" class="edge">
<title>Node15&#45;&gt;Node5</title>
<path fill="none" stroke="midnightblue" d="M1500.43,-73C1279.85,-64.84 684.86,-42.1 596.5,-31 588.62,-30.01 580.31,-28.61 572.27,-27.07"/>
<polygon fill="midnightblue" stroke="midnightblue" points="572.78,-23.6 562.29,-25.05 571.4,-30.46 572.78,-23.6"/>
</g>
<!-- Node15&#45;&gt;Node13 -->
<g id="edge17" class="edge">
<title>Node15&#45;&gt;Node13</title>
<path fill="none" stroke="midnightblue" d="M1611.01,-67.48C1645.74,-57.09 1704.54,-39.51 1743.19,-27.95"/>
<polygon fill="midnightblue" stroke="midnightblue" points="1744.46,-31.23 1753.04,-25.01 1742.46,-24.52 1744.46,-31.23"/>
</g>
<!-- Node15&#45;&gt;Node14 -->
<g id="edge18" class="edge">
<title>Node15&#45;&gt;Node14</title>
<path fill="none" stroke="midnightblue" d="M1565.74,-67.48C1546.28,-57.58 1513.95,-41.14 1491.29,-29.62"/>
<polygon fill="midnightblue" stroke="midnightblue" points="1492.73,-26.42 1482.23,-25.01 1489.56,-32.66 1492.73,-26.42"/>
</g>
<!-- Node16 -->
<g id="node16" class="node">
<title>Node16</title>
<g id="a_node16"><a xlink:title=" ">
<polygon fill="none" stroke="#bfbfbf" points="1665.5,-6 1665.5,-25 1703.5,-25 1703.5,-6 1665.5,-6"/>
<text text-anchor="middle" x="1684.5" y="-13" font-family="FreeSans.ttf" font-size="10.00">map</text>
</a>
</g>
</g>
<!-- Node15&#45;&gt;Node16 -->
<g id="edge15" class="edge">
<title>Node15&#45;&gt;Node16</title>
<path fill="none" stroke="midnightblue" d="M1597.11,-67.48C1613.85,-57.71 1641.5,-41.58 1661.22,-30.08"/>
<polygon fill="midnightblue" stroke="midnightblue" points="1663.04,-33.07 1669.91,-25.01 1659.51,-27.02 1663.04,-33.07"/>
</g>
<!-- Node17 -->
<g id="node17" class="node">
<title>Node17</title>
<g id="a_node17"><a xlink:title=" ">
<polygon fill="none" stroke="#bfbfbf" points="1859,-6 1859,-25 1952,-25 1952,-6 1859,-6"/>
<text text-anchor="middle" x="1905.5" y="-13" font-family="FreeSans.ttf" font-size="10.00">sdf/sdf_config.h</text>
</a>
</g>
</g>
<!-- Node15&#45;&gt;Node17 -->
<g id="edge16" class="edge">
<title>Node15&#45;&gt;Node17</title>
<path fill="none" stroke="midnightblue" d="M1642.94,-67.47C1697.45,-59.39 1779.7,-46.24 1850.5,-31 1855.26,-29.98 1860.22,-28.81 1865.14,-27.59"/>
<polygon fill="midnightblue" stroke="midnightblue" points="1866.25,-30.92 1875.07,-25.05 1864.52,-24.14 1866.25,-30.92"/>
</g>
<!-- Node18 -->
<g id="node18" class="node">
<title>Node18</title>
<g id="a_node18"><a xlink:title=" ">
<polygon fill="none" stroke="#bfbfbf" points="1507.5,-6 1507.5,-25 1647.5,-25 1647.5,-6 1507.5,-6"/>
<text text-anchor="middle" x="1577.5" y="-13" font-family="FreeSans.ttf" font-size="10.00">yarp/dev/PolyDriverList.h</text>
</a>
</g>
</g>
<!-- Node15&#45;&gt;Node18 -->
<g id="edge20" class="edge">
<title>Node15&#45;&gt;Node18</title>
<path fill="none" stroke="midnightblue" d="M1581.78,-67.48C1581.08,-59.08 1579.98,-45.98 1579.07,-35.16"/>
<polygon fill="midnightblue" stroke="midnightblue" points="1582.54,-34.68 1578.22,-25.01 1575.56,-35.27 1582.54,-34.68"/>
</g>
<!-- Node19&#45;&gt;Node6 -->
<g id="edge22" class="edge">
<title>Node19&#45;&gt;Node6</title>
<path fill="none" stroke="midnightblue" d="M440.89,-67.48C425.44,-57.8 400.01,-41.87 381.68,-30.39"/>
<polygon fill="midnightblue" stroke="midnightblue" points="383.42,-27.35 373.09,-25.01 379.7,-33.28 383.42,-27.35"/>
</g>
<!-- Node20 -->
<g id="node20" class="node">
<title>Node20</title>
<g id="a_node20"><a xlink:title=" ">
<polygon fill="none" stroke="#bfbfbf" points="400,-6 400,-25 447,-25 447,-6 400,-6"/>
<text text-anchor="middle" x="423.5" y="-13" font-family="FreeSans.ttf" font-size="10.00">cmath</text>
</a>
</g>
</g>
<!-- Node19&#45;&gt;Node20 -->
<g id="edge23" class="edge">
<title>Node19&#45;&gt;Node20</title>
<path fill="none" stroke="midnightblue" d="M450.06,-67.48C445.55,-58.82 438.43,-45.15 432.69,-34.15"/>
<polygon fill="midnightblue" stroke="midnightblue" points="435.66,-32.26 427.93,-25.01 429.45,-35.49 435.66,-32.26"/>
</g>
<!-- Node21&#45;&gt;Node13 -->
<g id="edge26" class="edge">
<title>Node21&#45;&gt;Node13</title>
<path fill="none" stroke="midnightblue" d="M1777.22,-67.48C1777.92,-59.08 1779.02,-45.98 1779.93,-35.16"/>
<polygon fill="midnightblue" stroke="midnightblue" points="1783.44,-35.27 1780.78,-25.01 1776.46,-34.68 1783.44,-35.27"/>
</g>
<!-- Node21&#45;&gt;Node17 -->
<g id="edge25" class="edge">
<title>Node21&#45;&gt;Node17</title>
<path fill="none" stroke="midnightblue" d="M1794.98,-67.48C1816.63,-57.49 1852.71,-40.85 1877.73,-29.31"/>
<polygon fill="midnightblue" stroke="midnightblue" points="1879.44,-32.38 1887.05,-25.01 1876.51,-26.02 1879.44,-32.38"/>
</g>
<!-- Node22 -->
<g id="node22" class="node">
<title>Node22</title>
<g id="a_node22"><a xlink:title=" ">
<polygon fill="none" stroke="#bfbfbf" points="2163,-6 2163,-25 2334,-25 2334,-6 2163,-6"/>
<text text-anchor="middle" x="2248.5" y="-13" font-family="FreeSans.ttf" font-size="10.00">gazebo/sensors/SensorTypes.hh</text>
</a>
</g>
</g>
<!-- Node21&#45;&gt;Node22 -->
<g id="edge27" class="edge">
<title>Node21&#45;&gt;Node22</title>
<path fill="none" stroke="midnightblue" d="M1854.21,-67.47C1930.5,-58.93 2050.14,-45.05 2153.5,-31 2163.65,-29.62 2174.39,-28.07 2184.86,-26.51"/>
<polygon fill="midnightblue" stroke="midnightblue" points="2185.42,-29.96 2194.79,-25.01 2184.38,-23.04 2185.42,-29.96"/>
</g>
<!-- Node23 -->
<g id="node23" class="node">
<title>Node23</title>
<g id="a_node23"><a xlink:title=" ">
<polygon fill="none" stroke="#bfbfbf" points="1970.5,-6 1970.5,-25 2144.5,-25 2144.5,-6 1970.5,-6"/>
<text text-anchor="middle" x="2057.5" y="-13" font-family="FreeSans.ttf" font-size="10.00">gazebo/physics/PhysicsTypes.hh</text>
</a>
</g>
</g>
<!-- Node21&#45;&gt;Node23 -->
<g id="edge28" class="edge">
<title>Node21&#45;&gt;Node23</title>
<path fill="none" stroke="midnightblue" d="M1816.76,-67.48C1866.94,-56.85 1952.73,-38.68 2007.19,-27.15"/>
<polygon fill="midnightblue" stroke="midnightblue" points="2008.26,-30.5 2017.31,-25.01 2006.81,-23.66 2008.26,-30.5"/>
</g>
</g>
</svg>
