<?xml version="1.0" encoding="UTF-8" standalone="no"?>
<!DOCTYPE svg PUBLIC "-//W3C//DTD SVG 1.1//EN"
 "http://www.w3.org/Graphics/SVG/1.1/DTD/svg11.dtd">
<!-- Generated by graphviz version 3.0.0 (20220315.2325)
 -->
<!-- Title: IMU.cc Pages: 1 -->
<svg width="2576pt" height="151pt"
 viewBox="0.00 0.00 2575.50 151.00" xmlns="http://www.w3.org/2000/svg" xmlns:xlink="http://www.w3.org/1999/xlink">
<g id="graph0" class="graph" transform="scale(1 1) rotate(0) translate(4 147)">
<title>IMU.cc</title>
<!-- Node1 -->
<g id="node1" class="node">
<title>Node1</title>
<g id="a_node1"><a xlink:title=" ">
<polygon fill="#bfbfbf" stroke="black" points="1813,-123.5 1813,-142.5 1863,-142.5 1863,-123.5 1813,-123.5"/>
<text text-anchor="middle" x="1838" y="-130.5" font-family="FreeSans.ttf" font-size="10.00">IMU.cc</text>
</a>
</g>
</g>
<!-- Node2 -->
<g id="node2" class="node">
<title>Node2</title>
<g id="a_node2"><a xlink:href="IMU_8hh.html" target="_top" xlink:title=" ">
<polygon fill="none" stroke="black" points="303.5,-67.5 303.5,-86.5 354.5,-86.5 354.5,-67.5 303.5,-67.5"/>
<text text-anchor="middle" x="329" y="-74.5" font-family="FreeSans.ttf" font-size="10.00">IMU.hh</text>
</a>
</g>
</g>
<!-- Node1&#45;&gt;Node2 -->
<g id="edge1" class="edge">
<title>Node1&#45;&gt;Node2</title>
<path fill="none" stroke="midnightblue" d="M1812.97,-131.99C1645.18,-131.83 681.12,-129.12 364.93,-86.73"/>
<polygon fill="midnightblue" stroke="midnightblue" points="365.25,-83.24 354.87,-85.33 364.29,-90.17 365.25,-83.24"/>
</g>
<!-- Node5 -->
<g id="node5" class="node">
<title>Node5</title>
<g id="a_node5"><a xlink:title=" ">
<polygon fill="none" stroke="#bfbfbf" points="466,-6 466,-25 588,-25 588,-6 466,-6"/>
<text text-anchor="middle" x="527" y="-13" font-family="FreeSans.ttf" font-size="10.00">yarp/dev/PolyDriver.h</text>
</a>
</g>
</g>
<!-- Node1&#45;&gt;Node5 -->
<g id="edge31" class="edge">
<title>Node1&#45;&gt;Node5</title>
<path fill="none" stroke="midnightblue" d="M1812.94,-131.22C1684.02,-126.97 1082.79,-103.95 597,-31 589.58,-29.89 581.75,-28.49 574.13,-27"/>
<polygon fill="midnightblue" stroke="midnightblue" points="574.78,-23.56 564.28,-25.02 573.39,-30.42 574.78,-23.56"/>
</g>
<!-- Node7 -->
<g id="node7" class="node">
<title>Node7</title>
<g id="a_node7"><a xlink:href="IMUDriver_8h.html" target="_top" xlink:title=" ">
<polygon fill="none" stroke="black" points="1201,-67.5 1201,-86.5 1275,-86.5 1275,-67.5 1201,-67.5"/>
<text text-anchor="middle" x="1238" y="-74.5" font-family="FreeSans.ttf" font-size="10.00">IMUDriver.h</text>
</a>
</g>
</g>
<!-- Node1&#45;&gt;Node7 -->
<g id="edge6" class="edge">
<title>Node1&#45;&gt;Node7</title>
<path fill="none" stroke="midnightblue" d="M1812.98,-129.75C1721.72,-121.53 1405.73,-93.1 1285.21,-82.25"/>
<polygon fill="midnightblue" stroke="midnightblue" points="1285.45,-78.76 1275.18,-81.35 1284.83,-85.73 1285.45,-78.76"/>
</g>
<!-- Node15 -->
<g id="node15" class="node">
<title>Node15</title>
<g id="a_node15"><a xlink:href="Handler_8hh.html" target="_top" xlink:title=" ">
<polygon fill="none" stroke="black" points="1659,-67.5 1659,-86.5 1823,-86.5 1823,-67.5 1659,-67.5"/>
<text text-anchor="middle" x="1741" y="-74.5" font-family="FreeSans.ttf" font-size="10.00">GazeboYarpPlugins/Handler.hh</text>
</a>
</g>
</g>
<!-- Node1&#45;&gt;Node15 -->
<g id="edge14" class="edge">
<title>Node1&#45;&gt;Node15</title>
<path fill="none" stroke="midnightblue" d="M1822.42,-123.32C1807,-114.74 1783.19,-101.49 1765.29,-91.52"/>
<polygon fill="midnightblue" stroke="midnightblue" points="1766.99,-88.46 1756.55,-86.65 1763.58,-94.58 1766.99,-88.46"/>
</g>
<!-- Node20 -->
<g id="node20" class="node">
<title>Node20</title>
<g id="a_node20"><a xlink:href="common_8h.html" target="_top" xlink:title=" ">
<polygon fill="none" stroke="black" points="373,-67.5 373,-86.5 537,-86.5 537,-67.5 373,-67.5"/>
<text text-anchor="middle" x="455" y="-74.5" font-family="FreeSans.ttf" font-size="10.00">GazeboYarpPlugins/common.h</text>
</a>
</g>
</g>
<!-- Node1&#45;&gt;Node20 -->
<g id="edge22" class="edge">
<title>Node1&#45;&gt;Node20</title>
<path fill="none" stroke="midnightblue" d="M1812.81,-131.02C1657.49,-124.95 827.27,-92.54 547.28,-81.6"/>
<polygon fill="midnightblue" stroke="midnightblue" points="547.28,-78.1 537.15,-81.21 547.01,-85.1 547.28,-78.1"/>
</g>
<!-- Node22 -->
<g id="node22" class="node">
<title>Node22</title>
<g id="a_node22"><a xlink:href="ConfHelpers_8hh.html" target="_top" xlink:title=" ">
<polygon fill="none" stroke="black" points="1841.5,-67.5 1841.5,-86.5 2028.5,-86.5 2028.5,-67.5 1841.5,-67.5"/>
<text text-anchor="middle" x="1935" y="-74.5" font-family="FreeSans.ttf" font-size="10.00">GazeboYarpPlugins/ConfHelpers.hh</text>
</a>
</g>
</g>
<!-- Node1&#45;&gt;Node22 -->
<g id="edge25" class="edge">
<title>Node1&#45;&gt;Node22</title>
<path fill="none" stroke="midnightblue" d="M1853.58,-123.32C1869,-114.74 1892.81,-101.49 1910.71,-91.52"/>
<polygon fill="midnightblue" stroke="midnightblue" points="1912.42,-94.58 1919.45,-86.65 1909.01,-88.46 1912.42,-94.58"/>
</g>
<!-- Node25 -->
<g id="node25" class="node">
<title>Node25</title>
<g id="a_node25"><a xlink:title=" ">
<polygon fill="none" stroke="#bfbfbf" points="2046.5,-67.5 2046.5,-86.5 2207.5,-86.5 2207.5,-67.5 2046.5,-67.5"/>
<text text-anchor="middle" x="2127" y="-74.5" font-family="FreeSans.ttf" font-size="10.00">gazebo/sensors/ImuSensor.hh</text>
</a>
</g>
</g>
<!-- Node1&#45;&gt;Node25 -->
<g id="edge30" class="edge">
<title>Node1&#45;&gt;Node25</title>
<path fill="none" stroke="midnightblue" d="M1863.14,-127.3C1909.26,-118.69 2008.38,-100.16 2071.15,-88.44"/>
<polygon fill="midnightblue" stroke="midnightblue" points="2072.09,-91.82 2081.28,-86.54 2070.8,-84.94 2072.09,-91.82"/>
</g>
<!-- Node26 -->
<g id="node26" class="node">
<title>Node26</title>
<g id="a_node26"><a xlink:title=" ">
<polygon fill="none" stroke="#bfbfbf" points="2226,-67.5 2226,-86.5 2332,-86.5 2332,-67.5 2226,-67.5"/>
<text text-anchor="middle" x="2279" y="-74.5" font-family="FreeSans.ttf" font-size="10.00">yarp/os/Network.h</text>
</a>
</g>
</g>
<!-- Node1&#45;&gt;Node26 -->
<g id="edge32" class="edge">
<title>Node1&#45;&gt;Node26</title>
<path fill="none" stroke="midnightblue" d="M1863.31,-129.22C1922.83,-122.65 2076.54,-105.38 2215.9,-87.12"/>
<polygon fill="midnightblue" stroke="midnightblue" points="2216.45,-90.57 2225.91,-85.8 2215.54,-83.63 2216.45,-90.57"/>
</g>
<!-- Node27 -->
<g id="node27" class="node">
<title>Node27</title>
<g id="a_node27"><a xlink:title=" ">
<polygon fill="none" stroke="#bfbfbf" points="2350,-67.5 2350,-86.5 2432,-86.5 2432,-67.5 2350,-67.5"/>
<text text-anchor="middle" x="2391" y="-74.5" font-family="FreeSans.ttf" font-size="10.00">yarp/os/Log.h</text>
</a>
</g>
</g>
<!-- Node1&#45;&gt;Node27 -->
<g id="edge33" class="edge">
<title>Node1&#45;&gt;Node27</title>
<path fill="none" stroke="midnightblue" d="M1863.21,-130.54C1935.65,-126.18 2150.78,-112.04 2339.73,-87.06"/>
<polygon fill="midnightblue" stroke="midnightblue" points="2340.4,-90.5 2349.84,-85.71 2339.47,-83.56 2340.4,-90.5"/>
</g>
<!-- Node28 -->
<g id="node28" class="node">
<title>Node28</title>
<g id="a_node28"><a xlink:title=" ">
<polygon fill="none" stroke="#bfbfbf" points="2450.5,-67.5 2450.5,-86.5 2567.5,-86.5 2567.5,-67.5 2450.5,-67.5"/>
<text text-anchor="middle" x="2509" y="-74.5" font-family="FreeSans.ttf" font-size="10.00">yarp/os/LogStream.h</text>
</a>
</g>
</g>
<!-- Node1&#45;&gt;Node28 -->
<g id="edge34" class="edge">
<title>Node1&#45;&gt;Node28</title>
<path fill="none" stroke="midnightblue" d="M1863.03,-130.65C1944.46,-126.13 2209.36,-110.6 2440.15,-87.03"/>
<polygon fill="midnightblue" stroke="midnightblue" points="2440.83,-90.47 2450.42,-85.97 2440.11,-83.51 2440.83,-90.47"/>
</g>
<!-- Node3 -->
<g id="node3" class="node">
<title>Node3</title>
<g id="a_node3"><a xlink:title=" ">
<polygon fill="none" stroke="#bfbfbf" points="0,-6 0,-25 146,-25 146,-6 0,-6"/>
<text text-anchor="middle" x="73" y="-13" font-family="FreeSans.ttf" font-size="10.00">gazebo/common/Plugin.hh</text>
</a>
</g>
</g>
<!-- Node2&#45;&gt;Node3 -->
<g id="edge2" class="edge">
<title>Node2&#45;&gt;Node3</title>
<path fill="none" stroke="midnightblue" d="M303.04,-69.97C260.05,-59.98 173.48,-39.85 119.66,-27.35"/>
<polygon fill="midnightblue" stroke="midnightblue" points="120.22,-23.88 109.69,-25.03 118.64,-30.7 120.22,-23.88"/>
</g>
<!-- Node4 -->
<g id="node4" class="node">
<title>Node4</title>
<g id="a_node4"><a xlink:title=" ">
<polygon fill="none" stroke="#bfbfbf" points="164.5,-6 164.5,-25 319.5,-25 319.5,-6 164.5,-6"/>
<text text-anchor="middle" x="242" y="-13" font-family="FreeSans.ttf" font-size="10.00">yarp/dev/IMultipleWrapper.h</text>
</a>
</g>
</g>
<!-- Node2&#45;&gt;Node4 -->
<g id="edge3" class="edge">
<title>Node2&#45;&gt;Node4</title>
<path fill="none" stroke="midnightblue" d="M316.54,-67.48C302.58,-57.93 279.74,-42.31 263.01,-30.87"/>
<polygon fill="midnightblue" stroke="midnightblue" points="264.67,-27.77 254.44,-25.01 260.72,-33.54 264.67,-27.77"/>
</g>
<!-- Node2&#45;&gt;Node5 -->
<g id="edge4" class="edge">
<title>Node2&#45;&gt;Node5</title>
<path fill="none" stroke="midnightblue" d="M354.89,-68.22C389.02,-57.96 449.36,-39.83 488.76,-27.99"/>
<polygon fill="midnightblue" stroke="midnightblue" points="489.98,-31.28 498.55,-25.05 487.96,-24.58 489.98,-31.28"/>
</g>
<!-- Node6 -->
<g id="node6" class="node">
<title>Node6</title>
<g id="a_node6"><a xlink:title=" ">
<polygon fill="none" stroke="#bfbfbf" points="338,-6 338,-25 382,-25 382,-6 338,-6"/>
<text text-anchor="middle" x="360" y="-13" font-family="FreeSans.ttf" font-size="10.00">string</text>
</a>
</g>
</g>
<!-- Node2&#45;&gt;Node6 -->
<g id="edge5" class="edge">
<title>Node2&#45;&gt;Node6</title>
<path fill="none" stroke="midnightblue" d="M333.44,-67.48C337.95,-58.82 345.07,-45.15 350.81,-34.15"/>
<polygon fill="midnightblue" stroke="midnightblue" points="354.05,-35.49 355.57,-25.01 347.84,-32.26 354.05,-35.49"/>
</g>
<!-- Node8 -->
<g id="node8" class="node">
<title>Node8</title>
<g id="a_node8"><a xlink:title=" ">
<polygon fill="none" stroke="#bfbfbf" points="1080,-6 1080,-25 1214,-25 1214,-6 1080,-6"/>
<text text-anchor="middle" x="1147" y="-13" font-family="FreeSans.ttf" font-size="10.00">yarp/dev/DeviceDriver.h</text>
</a>
</g>
</g>
<!-- Node7&#45;&gt;Node8 -->
<g id="edge7" class="edge">
<title>Node7&#45;&gt;Node8</title>
<path fill="none" stroke="midnightblue" d="M1224.96,-67.48C1210.23,-57.84 1186.03,-42.02 1168.49,-30.55"/>
<polygon fill="midnightblue" stroke="midnightblue" points="1170.3,-27.55 1160.01,-25.01 1166.47,-33.41 1170.3,-27.55"/>
</g>
<!-- Node9 -->
<g id="node9" class="node">
<title>Node9</title>
<g id="a_node9"><a xlink:title=" ">
<polygon fill="none" stroke="#bfbfbf" points="1232.5,-6 1232.5,-25 1423.5,-25 1423.5,-6 1232.5,-6"/>
<text text-anchor="middle" x="1328" y="-13" font-family="FreeSans.ttf" font-size="10.00">yarp/dev/GenericSensorInterfaces.h</text>
</a>
</g>
</g>
<!-- Node7&#45;&gt;Node9 -->
<g id="edge8" class="edge">
<title>Node7&#45;&gt;Node9</title>
<path fill="none" stroke="midnightblue" d="M1250.89,-67.48C1265.46,-57.84 1289.4,-42.02 1306.75,-30.55"/>
<polygon fill="midnightblue" stroke="midnightblue" points="1308.72,-33.44 1315.13,-25.01 1304.86,-27.6 1308.72,-33.44"/>
</g>
<!-- Node10 -->
<g id="node10" class="node">
<title>Node10</title>
<g id="a_node10"><a xlink:title=" ">
<polygon fill="none" stroke="#bfbfbf" points="606,-0.5 606,-30.5 780,-30.5 780,-0.5 606,-0.5"/>
<text text-anchor="start" x="614" y="-18.5" font-family="FreeSans.ttf" font-size="10.00">yarp/dev/MultipleAnalogSensors</text>
<text text-anchor="middle" x="693" y="-7.5" font-family="FreeSans.ttf" font-size="10.00">Interfaces.h</text>
</a>
</g>
</g>
<!-- Node7&#45;&gt;Node10 -->
<g id="edge9" class="edge">
<title>Node7&#45;&gt;Node10</title>
<path fill="none" stroke="midnightblue" d="M1200.97,-72.92C1125.65,-66.52 948.99,-50.81 790.05,-31.09"/>
<polygon fill="midnightblue" stroke="midnightblue" points="790.45,-27.62 780.09,-29.85 789.58,-34.56 790.45,-27.62"/>
</g>
<!-- Node11 -->
<g id="node11" class="node">
<title>Node11</title>
<g id="a_node11"><a xlink:title=" ">
<polygon fill="none" stroke="#bfbfbf" points="798,-6 798,-25 894,-25 894,-6 798,-6"/>
<text text-anchor="middle" x="846" y="-13" font-family="FreeSans.ttf" font-size="10.00">yarp/os/Stamp.h</text>
</a>
</g>
</g>
<!-- Node7&#45;&gt;Node11 -->
<g id="edge10" class="edge">
<title>Node7&#45;&gt;Node11</title>
<path fill="none" stroke="midnightblue" d="M1200.71,-72.34C1138.77,-65.96 1010.88,-51.49 904,-31 898.58,-29.96 892.92,-28.73 887.34,-27.43"/>
<polygon fill="midnightblue" stroke="midnightblue" points="888.01,-23.99 877.47,-25.04 886.36,-30.79 888.01,-23.99"/>
</g>
<!-- Node12 -->
<g id="node12" class="node">
<title>Node12</title>
<g id="a_node12"><a xlink:title=" ">
<polygon fill="none" stroke="#bfbfbf" points="912.5,-6 912.5,-25 1061.5,-25 1061.5,-6 912.5,-6"/>
<text text-anchor="middle" x="987" y="-13" font-family="FreeSans.ttf" font-size="10.00">yarp/dev/IPreciselyTimed.h</text>
</a>
</g>
</g>
<!-- Node7&#45;&gt;Node12 -->
<g id="edge11" class="edge">
<title>Node7&#45;&gt;Node12</title>
<path fill="none" stroke="midnightblue" d="M1202.04,-67.48C1157.49,-56.92 1081.54,-38.91 1032.85,-27.37"/>
<polygon fill="midnightblue" stroke="midnightblue" points="1033.43,-23.91 1022.9,-25.01 1031.82,-30.72 1033.43,-23.91"/>
</g>
<!-- Node13 -->
<g id="node13" class="node">
<title>Node13</title>
<g id="a_node13"><a xlink:title=" ">
<polygon fill="none" stroke="#bfbfbf" points="1889.5,-6 1889.5,-25 2008.5,-25 2008.5,-6 1889.5,-6"/>
<text text-anchor="middle" x="1949" y="-13" font-family="FreeSans.ttf" font-size="10.00">boost/shared_ptr.hpp</text>
</a>
</g>
</g>
<!-- Node7&#45;&gt;Node13 -->
<g id="edge12" class="edge">
<title>Node7&#45;&gt;Node13</title>
<path fill="none" stroke="midnightblue" d="M1275.1,-75.18C1373.9,-72.6 1651.48,-62.87 1880,-31 1887.5,-29.95 1895.41,-28.57 1903.09,-27.06"/>
<polygon fill="midnightblue" stroke="midnightblue" points="1903.9,-30.47 1913,-25.04 1902.5,-23.61 1903.9,-30.47"/>
</g>
<!-- Node14 -->
<g id="node14" class="node">
<title>Node14</title>
<g id="a_node14"><a xlink:title=" ">
<polygon fill="none" stroke="#bfbfbf" points="1442,-6 1442,-25 1490,-25 1490,-6 1442,-6"/>
<text text-anchor="middle" x="1466" y="-13" font-family="FreeSans.ttf" font-size="10.00">mutex</text>
</a>
</g>
</g>
<!-- Node7&#45;&gt;Node14 -->
<g id="edge13" class="edge">
<title>Node7&#45;&gt;Node14</title>
<path fill="none" stroke="midnightblue" d="M1275.23,-69.56C1314.89,-62.2 1379.25,-48.84 1433,-31 1434.87,-30.38 1436.78,-29.69 1438.69,-28.96"/>
<polygon fill="midnightblue" stroke="midnightblue" points="1440.17,-32.14 1448.08,-25.1 1437.5,-25.67 1440.17,-32.14"/>
</g>
<!-- Node15&#45;&gt;Node5 -->
<g id="edge19" class="edge">
<title>Node15&#45;&gt;Node5</title>
<path fill="none" stroke="midnightblue" d="M1658.7,-74.53C1432.18,-70.19 802.68,-56.17 597,-31 588.94,-30.01 580.43,-28.59 572.23,-27"/>
<polygon fill="midnightblue" stroke="midnightblue" points="572.92,-23.57 562.42,-25.02 571.53,-30.43 572.92,-23.57"/>
</g>
<!-- Node15&#45;&gt;Node13 -->
<g id="edge17" class="edge">
<title>Node15&#45;&gt;Node13</title>
<path fill="none" stroke="midnightblue" d="M1770.8,-67.48C1807.25,-57.05 1869.08,-39.36 1909.47,-27.81"/>
<polygon fill="midnightblue" stroke="midnightblue" points="1910.6,-31.12 1919.25,-25.01 1908.68,-24.39 1910.6,-31.12"/>
</g>
<!-- Node15&#45;&gt;Node14 -->
<g id="edge18" class="edge">
<title>Node15&#45;&gt;Node14</title>
<path fill="none" stroke="midnightblue" d="M1671.92,-67.47C1622.95,-60.38 1556.07,-48.59 1499,-31 1497.07,-30.41 1495.1,-29.73 1493.14,-29.01"/>
<polygon fill="midnightblue" stroke="midnightblue" points="1494.11,-25.62 1483.53,-25.09 1491.47,-32.1 1494.11,-25.62"/>
</g>
<!-- Node16 -->
<g id="node16" class="node">
<title>Node16</title>
<g id="a_node16"><a xlink:title=" ">
<polygon fill="none" stroke="#bfbfbf" points="1833,-6 1833,-25 1871,-25 1871,-6 1833,-6"/>
<text text-anchor="middle" x="1852" y="-13" font-family="FreeSans.ttf" font-size="10.00">map</text>
</a>
</g>
</g>
<!-- Node15&#45;&gt;Node16 -->
<g id="edge15" class="edge">
<title>Node15&#45;&gt;Node16</title>
<path fill="none" stroke="midnightblue" d="M1757.11,-67.38C1774.02,-58.32 1801.38,-43.67 1825,-31 1825.67,-30.64 1826.35,-30.28 1827.03,-29.91"/>
<polygon fill="midnightblue" stroke="midnightblue" points="1828.86,-32.9 1836.01,-25.09 1825.54,-26.74 1828.86,-32.9"/>
</g>
<!-- Node17 -->
<g id="node17" class="node">
<title>Node17</title>
<g id="a_node17"><a xlink:title=" ">
<polygon fill="none" stroke="#bfbfbf" points="2026.5,-6 2026.5,-25 2119.5,-25 2119.5,-6 2026.5,-6"/>
<text text-anchor="middle" x="2073" y="-13" font-family="FreeSans.ttf" font-size="10.00">sdf/sdf_config.h</text>
</a>
</g>
</g>
<!-- Node15&#45;&gt;Node17 -->
<g id="edge16" class="edge">
<title>Node15&#45;&gt;Node17</title>
<path fill="none" stroke="midnightblue" d="M1804.31,-67.49C1860.66,-59.5 1945.2,-46.47 2018,-31 2022.82,-29.98 2027.85,-28.8 2032.82,-27.57"/>
<polygon fill="midnightblue" stroke="midnightblue" points="2034.04,-30.87 2042.87,-25.01 2032.31,-24.09 2034.04,-30.87"/>
</g>
<!-- Node18 -->
<g id="node18" class="node">
<title>Node18</title>
<g id="a_node18"><a xlink:title=" ">
<polygon fill="none" stroke="#bfbfbf" points="1508,-6 1508,-25 1648,-25 1648,-6 1508,-6"/>
<text text-anchor="middle" x="1578" y="-13" font-family="FreeSans.ttf" font-size="10.00">yarp/dev/PolyDriverList.h</text>
</a>
</g>
</g>
<!-- Node15&#45;&gt;Node18 -->
<g id="edge20" class="edge">
<title>Node15&#45;&gt;Node18</title>
<path fill="none" stroke="midnightblue" d="M1717.65,-67.48C1689.69,-57.27 1642.67,-40.11 1611.01,-28.55"/>
<polygon fill="midnightblue" stroke="midnightblue" points="1611.9,-25.15 1601.31,-25.01 1609.5,-31.73 1611.9,-25.15"/>
</g>
<!-- Node19 -->
<g id="node19" class="node">
<title>Node19</title>
<g id="a_node19"><a xlink:title=" ">
<polygon fill="none" stroke="#bfbfbf" points="1666.5,-6 1666.5,-25 1815.5,-25 1815.5,-6 1666.5,-6"/>
<text text-anchor="middle" x="1741" y="-13" font-family="FreeSans.ttf" font-size="10.00">gazebo/common/Events.hh</text>
</a>
</g>
</g>
<!-- Node15&#45;&gt;Node19 -->
<g id="edge21" class="edge">
<title>Node15&#45;&gt;Node19</title>
<path fill="none" stroke="midnightblue" d="M1741,-67.48C1741,-59.08 1741,-45.98 1741,-35.16"/>
<polygon fill="midnightblue" stroke="midnightblue" points="1744.5,-35.01 1741,-25.01 1737.5,-35.01 1744.5,-35.01"/>
</g>
<!-- Node20&#45;&gt;Node6 -->
<g id="edge23" class="edge">
<title>Node20&#45;&gt;Node6</title>
<path fill="none" stroke="midnightblue" d="M441.39,-67.48C425.94,-57.8 400.51,-41.87 382.18,-30.39"/>
<polygon fill="midnightblue" stroke="midnightblue" points="383.92,-27.35 373.59,-25.01 380.2,-33.28 383.92,-27.35"/>
</g>
<!-- Node21 -->
<g id="node21" class="node">
<title>Node21</title>
<g id="a_node21"><a xlink:title=" ">
<polygon fill="none" stroke="#bfbfbf" points="400.5,-6 400.5,-25 447.5,-25 447.5,-6 400.5,-6"/>
<text text-anchor="middle" x="424" y="-13" font-family="FreeSans.ttf" font-size="10.00">cmath</text>
</a>
</g>
</g>
<!-- Node20&#45;&gt;Node21 -->
<g id="edge24" class="edge">
<title>Node20&#45;&gt;Node21</title>
<path fill="none" stroke="midnightblue" d="M450.56,-67.48C446.05,-58.82 438.93,-45.15 433.19,-34.15"/>
<polygon fill="midnightblue" stroke="midnightblue" points="436.16,-32.26 428.43,-25.01 429.95,-35.49 436.16,-32.26"/>
</g>
<!-- Node22&#45;&gt;Node13 -->
<g id="edge27" class="edge">
<title>Node22&#45;&gt;Node13</title>
<path fill="none" stroke="midnightblue" d="M1937.01,-67.48C1939,-58.99 1942.13,-45.7 1944.69,-34.82"/>
<polygon fill="midnightblue" stroke="midnightblue" points="1948.11,-35.54 1947,-25.01 1941.3,-33.94 1948.11,-35.54"/>
</g>
<!-- Node22&#45;&gt;Node17 -->
<g id="edge26" class="edge">
<title>Node22&#45;&gt;Node17</title>
<path fill="none" stroke="midnightblue" d="M1954.77,-67.48C1978.14,-57.4 2017.21,-40.55 2044,-29"/>
<polygon fill="midnightblue" stroke="midnightblue" points="2045.47,-32.18 2053.26,-25.01 2042.7,-25.75 2045.47,-32.18"/>
</g>
<!-- Node23 -->
<g id="node23" class="node">
<title>Node23</title>
<g id="a_node23"><a xlink:title=" ">
<polygon fill="none" stroke="#bfbfbf" points="2137.5,-6 2137.5,-25 2308.5,-25 2308.5,-6 2137.5,-6"/>
<text text-anchor="middle" x="2223" y="-13" font-family="FreeSans.ttf" font-size="10.00">gazebo/sensors/SensorTypes.hh</text>
</a>
</g>
</g>
<!-- Node22&#45;&gt;Node23 -->
<g id="edge28" class="edge">
<title>Node22&#45;&gt;Node23</title>
<path fill="none" stroke="midnightblue" d="M1976.26,-67.48C2027.8,-56.83 2115.98,-38.61 2171.79,-27.08"/>
<polygon fill="midnightblue" stroke="midnightblue" points="2172.73,-30.46 2181.81,-25.01 2171.31,-23.6 2172.73,-30.46"/>
</g>
<!-- Node24 -->
<g id="node24" class="node">
<title>Node24</title>
<g id="a_node24"><a xlink:title=" ">
<polygon fill="none" stroke="#bfbfbf" points="2327,-6 2327,-25 2501,-25 2501,-6 2327,-6"/>
<text text-anchor="middle" x="2414" y="-13" font-family="FreeSans.ttf" font-size="10.00">gazebo/physics/PhysicsTypes.hh</text>
</a>
</g>
</g>
<!-- Node22&#45;&gt;Node24 -->
<g id="edge29" class="edge">
<title>Node22&#45;&gt;Node24</title>
<path fill="none" stroke="midnightblue" d="M2013.95,-67.49C2091.45,-58.96 2212.99,-45.1 2318,-31 2328.25,-29.62 2339.11,-28.07 2349.69,-26.51"/>
<polygon fill="midnightblue" stroke="midnightblue" points="2350.35,-29.95 2359.72,-25.02 2349.31,-23.03 2350.35,-29.95"/>
</g>
</g>
</svg>
