<?xml version="1.0" encoding="UTF-8" standalone="no"?>
<!DOCTYPE svg PUBLIC "-//W3C//DTD SVG 1.1//EN"
 "http://www.w3.org/Graphics/SVG/1.1/DTD/svg11.dtd">
<!-- Generated by graphviz version 5.0.0 (20220707.2338)
 -->
<!-- Title: IMUDriver.cpp Pages: 1 -->
<svg width="2265pt" height="151pt"
 viewBox="0.00 0.00 2264.50 151.00" xmlns="http://www.w3.org/2000/svg" xmlns:xlink="http://www.w3.org/1999/xlink">
<g id="graph0" class="graph" transform="scale(1 1) rotate(0) translate(4 147)">
<title>IMUDriver.cpp</title>
<!-- Node1 -->
<g id="node1" class="node">
<title>Node1</title>
<g id="a_node1"><a xlink:title=" ">
<polygon fill="#bfbfbf" stroke="black" points="1742,-123.5 1742,-142.5 1828,-142.5 1828,-123.5 1742,-123.5"/>
<text text-anchor="middle" x="1785" y="-130.5" font-family="FreeSans.ttf" font-size="10.00">IMUDriver.cpp</text>
</a>
</g>
</g>
<!-- Node2 -->
<g id="node2" class="node">
<title>Node2</title>
<g id="a_node2"><a xlink:href="IMUDriver_8h.html" target="_top" xlink:title=" ">
<polygon fill="none" stroke="black" points="595,-67.5 595,-86.5 669,-86.5 669,-67.5 595,-67.5"/>
<text text-anchor="middle" x="632" y="-74.5" font-family="FreeSans.ttf" font-size="10.00">IMUDriver.h</text>
</a>
</g>
</g>
<!-- Node1&#45;&gt;Node2 -->
<g id="edge1" class="edge">
<title>Node1&#45;&gt;Node2</title>
<path fill="none" stroke="midnightblue" d="M1741.91,-129.98C1561.45,-121.53 867.21,-89.02 679.19,-80.21"/>
<polygon fill="midnightblue" stroke="midnightblue" points="679.23,-76.71 669.08,-79.74 678.9,-83.7 679.23,-76.71"/>
</g>
<!-- Node10 -->
<g id="node10" class="node">
<title>Node10</title>
<g id="a_node10"><a xlink:href="Handler_8hh.html" target="_top" xlink:title=" ">
<polygon fill="none" stroke="black" points="1233,-67.5 1233,-86.5 1397,-86.5 1397,-67.5 1233,-67.5"/>
<text text-anchor="middle" x="1315" y="-74.5" font-family="FreeSans.ttf" font-size="10.00">GazeboYarpPlugins/Handler.hh</text>
</a>
</g>
</g>
<!-- Node1&#45;&gt;Node10 -->
<g id="edge9" class="edge">
<title>Node1&#45;&gt;Node10</title>
<path fill="none" stroke="midnightblue" d="M1741.63,-127.02C1663.96,-118.09 1499.89,-99.24 1399.37,-87.69"/>
<polygon fill="midnightblue" stroke="midnightblue" points="1399.58,-84.19 1389.25,-86.53 1398.78,-91.15 1399.58,-84.19"/>
</g>
<!-- Node16 -->
<g id="node16" class="node">
<title>Node16</title>
<g id="a_node16"><a xlink:href="common_8h.html" target="_top" xlink:title=" ">
<polygon fill="none" stroke="black" points="1546,-67.5 1546,-86.5 1710,-86.5 1710,-67.5 1546,-67.5"/>
<text text-anchor="middle" x="1628" y="-74.5" font-family="FreeSans.ttf" font-size="10.00">GazeboYarpPlugins/common.h</text>
</a>
</g>
</g>
<!-- Node1&#45;&gt;Node16 -->
<g id="edge17" class="edge">
<title>Node1&#45;&gt;Node16</title>
<path fill="none" stroke="midnightblue" d="M1760.12,-123.44C1733.71,-114.36 1691.78,-99.94 1662.26,-89.78"/>
<polygon fill="midnightblue" stroke="midnightblue" points="1663.36,-86.46 1652.76,-86.52 1661.08,-93.08 1663.36,-86.46"/>
</g>
<!-- Node19 -->
<g id="node19" class="node">
<title>Node19</title>
<g id="a_node19"><a xlink:title=" ">
<polygon fill="none" stroke="#bfbfbf" points="1728.5,-67.5 1728.5,-86.5 1841.5,-86.5 1841.5,-67.5 1728.5,-67.5"/>
<text text-anchor="middle" x="1785" y="-74.5" font-family="FreeSans.ttf" font-size="10.00">boost/bind/bind.hpp</text>
</a>
</g>
</g>
<!-- Node1&#45;&gt;Node19 -->
<g id="edge20" class="edge">
<title>Node1&#45;&gt;Node19</title>
<path fill="none" stroke="midnightblue" d="M1785,-123.08C1785,-116.01 1785,-105.86 1785,-96.99"/>
<polygon fill="midnightblue" stroke="midnightblue" points="1788.5,-96.75 1785,-86.75 1781.5,-96.75 1788.5,-96.75"/>
</g>
<!-- Node20 -->
<g id="node20" class="node">
<title>Node20</title>
<g id="a_node20"><a xlink:title=" ">
<polygon fill="none" stroke="#bfbfbf" points="1859.5,-67.5 1859.5,-86.5 2020.5,-86.5 2020.5,-67.5 1859.5,-67.5"/>
<text text-anchor="middle" x="1940" y="-74.5" font-family="FreeSans.ttf" font-size="10.00">gazebo/sensors/ImuSensor.hh</text>
</a>
</g>
</g>
<!-- Node1&#45;&gt;Node20 -->
<g id="edge21" class="edge">
<title>Node1&#45;&gt;Node20</title>
<path fill="none" stroke="midnightblue" d="M1809.56,-123.44C1835.52,-114.4 1876.67,-100.06 1905.8,-89.92"/>
<polygon fill="midnightblue" stroke="midnightblue" points="1907.26,-93.11 1915.55,-86.52 1904.96,-86.5 1907.26,-93.11"/>
</g>
<!-- Node21 -->
<g id="node21" class="node">
<title>Node21</title>
<g id="a_node21"><a xlink:title=" ">
<polygon fill="none" stroke="#bfbfbf" points="2039,-67.5 2039,-86.5 2121,-86.5 2121,-67.5 2039,-67.5"/>
<text text-anchor="middle" x="2080" y="-74.5" font-family="FreeSans.ttf" font-size="10.00">yarp/os/Log.h</text>
</a>
</g>
</g>
<!-- Node1&#45;&gt;Node21 -->
<g id="edge22" class="edge">
<title>Node1&#45;&gt;Node21</title>
<path fill="none" stroke="midnightblue" d="M1828.21,-124.09C1881.5,-114.33 1971.99,-97.77 2028.74,-87.38"/>
<polygon fill="midnightblue" stroke="midnightblue" points="2029.37,-90.83 2038.58,-85.58 2028.11,-83.94 2029.37,-90.83"/>
</g>
<!-- Node22 -->
<g id="node22" class="node">
<title>Node22</title>
<g id="a_node22"><a xlink:title=" ">
<polygon fill="none" stroke="#bfbfbf" points="2139.5,-67.5 2139.5,-86.5 2256.5,-86.5 2256.5,-67.5 2139.5,-67.5"/>
<text text-anchor="middle" x="2198" y="-74.5" font-family="FreeSans.ttf" font-size="10.00">yarp/os/LogStream.h</text>
</a>
</g>
</g>
<!-- Node1&#45;&gt;Node22 -->
<g id="edge23" class="edge">
<title>Node1&#45;&gt;Node22</title>
<path fill="none" stroke="midnightblue" d="M1828.03,-126.41C1891.47,-118.17 2014.1,-102.22 2129.34,-87.08"/>
<polygon fill="midnightblue" stroke="midnightblue" points="2129.94,-90.54 2139.4,-85.76 2129.02,-83.6 2129.94,-90.54"/>
</g>
<!-- Node3 -->
<g id="node3" class="node">
<title>Node3</title>
<g id="a_node3"><a xlink:title=" ">
<polygon fill="none" stroke="#bfbfbf" points="474,-6 474,-25 608,-25 608,-6 474,-6"/>
<text text-anchor="middle" x="541" y="-13" font-family="FreeSans.ttf" font-size="10.00">yarp/dev/DeviceDriver.h</text>
</a>
</g>
</g>
<!-- Node2&#45;&gt;Node3 -->
<g id="edge2" class="edge">
<title>Node2&#45;&gt;Node3</title>
<path fill="none" stroke="midnightblue" d="M618.96,-67.48C604.23,-57.84 580.03,-42.02 562.49,-30.55"/>
<polygon fill="midnightblue" stroke="midnightblue" points="564.3,-27.55 554.01,-25.01 560.47,-33.41 564.3,-27.55"/>
</g>
<!-- Node4 -->
<g id="node4" class="node">
<title>Node4</title>
<g id="a_node4"><a xlink:title=" ">
<polygon fill="none" stroke="#bfbfbf" points="626.5,-6 626.5,-25 817.5,-25 817.5,-6 626.5,-6"/>
<text text-anchor="middle" x="722" y="-13" font-family="FreeSans.ttf" font-size="10.00">yarp/dev/GenericSensorInterfaces.h</text>
</a>
</g>
</g>
<!-- Node2&#45;&gt;Node4 -->
<g id="edge3" class="edge">
<title>Node2&#45;&gt;Node4</title>
<path fill="none" stroke="midnightblue" d="M644.89,-67.48C659.46,-57.84 683.4,-42.02 700.75,-30.55"/>
<polygon fill="midnightblue" stroke="midnightblue" points="702.72,-33.44 709.13,-25.01 698.86,-27.6 702.72,-33.44"/>
</g>
<!-- Node5 -->
<g id="node5" class="node">
<title>Node5</title>
<g id="a_node5"><a xlink:title=" ">
<polygon fill="none" stroke="#bfbfbf" points="0,-0.5 0,-30.5 174,-30.5 174,-0.5 0,-0.5"/>
<text text-anchor="start" x="8" y="-18.5" font-family="FreeSans.ttf" font-size="10.00">yarp/dev/MultipleAnalogSensors</text>
<text text-anchor="middle" x="87" y="-7.5" font-family="FreeSans.ttf" font-size="10.00">Interfaces.h</text>
</a>
</g>
</g>
<!-- Node2&#45;&gt;Node5 -->
<g id="edge4" class="edge">
<title>Node2&#45;&gt;Node5</title>
<path fill="none" stroke="midnightblue" d="M594.97,-72.92C519.65,-66.52 342.99,-50.81 184.05,-31.09"/>
<polygon fill="midnightblue" stroke="midnightblue" points="184.45,-27.62 174.09,-29.85 183.58,-34.56 184.45,-27.62"/>
</g>
<!-- Node6 -->
<g id="node6" class="node">
<title>Node6</title>
<g id="a_node6"><a xlink:title=" ">
<polygon fill="none" stroke="#bfbfbf" points="192,-6 192,-25 288,-25 288,-6 192,-6"/>
<text text-anchor="middle" x="240" y="-13" font-family="FreeSans.ttf" font-size="10.00">yarp/os/Stamp.h</text>
</a>
</g>
</g>
<!-- Node2&#45;&gt;Node6 -->
<g id="edge5" class="edge">
<title>Node2&#45;&gt;Node6</title>
<path fill="none" stroke="midnightblue" d="M594.59,-72.4C532.45,-66.11 404.16,-51.75 297,-31 291.81,-29.99 286.38,-28.8 281.03,-27.54"/>
<polygon fill="midnightblue" stroke="midnightblue" points="281.46,-24.04 270.92,-25.06 279.79,-30.84 281.46,-24.04"/>
</g>
<!-- Node7 -->
<g id="node7" class="node">
<title>Node7</title>
<g id="a_node7"><a xlink:title=" ">
<polygon fill="none" stroke="#bfbfbf" points="306.5,-6 306.5,-25 455.5,-25 455.5,-6 306.5,-6"/>
<text text-anchor="middle" x="381" y="-13" font-family="FreeSans.ttf" font-size="10.00">yarp/dev/IPreciselyTimed.h</text>
</a>
</g>
</g>
<!-- Node2&#45;&gt;Node7 -->
<g id="edge6" class="edge">
<title>Node2&#45;&gt;Node7</title>
<path fill="none" stroke="midnightblue" d="M596.04,-67.48C551.49,-56.92 475.54,-38.91 426.85,-27.37"/>
<polygon fill="midnightblue" stroke="midnightblue" points="427.43,-23.91 416.9,-25.01 425.82,-30.72 427.43,-23.91"/>
</g>
<!-- Node8 -->
<g id="node8" class="node">
<title>Node8</title>
<g id="a_node8"><a xlink:title=" ">
<polygon fill="none" stroke="#bfbfbf" points="835.5,-6 835.5,-25 954.5,-25 954.5,-6 835.5,-6"/>
<text text-anchor="middle" x="895" y="-13" font-family="FreeSans.ttf" font-size="10.00">boost/shared_ptr.hpp</text>
</a>
</g>
</g>
<!-- Node2&#45;&gt;Node8 -->
<g id="edge7" class="edge">
<title>Node2&#45;&gt;Node8</title>
<path fill="none" stroke="midnightblue" d="M669.12,-67.6C715.85,-57.03 796.18,-38.86 847.38,-27.27"/>
<polygon fill="midnightblue" stroke="midnightblue" points="848.23,-30.67 857.21,-25.05 846.69,-23.84 848.23,-30.67"/>
</g>
<!-- Node9 -->
<g id="node9" class="node">
<title>Node9</title>
<g id="a_node9"><a xlink:title=" ">
<polygon fill="none" stroke="#bfbfbf" points="973,-6 973,-25 1021,-25 1021,-6 973,-6"/>
<text text-anchor="middle" x="997" y="-13" font-family="FreeSans.ttf" font-size="10.00">mutex</text>
</a>
</g>
</g>
<!-- Node2&#45;&gt;Node9 -->
<g id="edge8" class="edge">
<title>Node2&#45;&gt;Node9</title>
<path fill="none" stroke="midnightblue" d="M669.39,-74.18C731.4,-70.44 859.01,-59.68 963,-31 965.3,-30.37 967.64,-29.61 969.97,-28.78"/>
<polygon fill="midnightblue" stroke="midnightblue" points="971.3,-32.02 979.32,-25.1 968.74,-25.51 971.3,-32.02"/>
</g>
<!-- Node10&#45;&gt;Node8 -->
<g id="edge12" class="edge">
<title>Node10&#45;&gt;Node8</title>
<path fill="none" stroke="midnightblue" d="M1234.22,-67.49C1162.91,-59.54 1056.23,-46.58 964,-31 957.19,-29.85 950.03,-28.5 943,-27.1"/>
<polygon fill="midnightblue" stroke="midnightblue" points="943.36,-23.6 932.86,-25.02 941.95,-30.46 943.36,-23.6"/>
</g>
<!-- Node10&#45;&gt;Node9 -->
<g id="edge13" class="edge">
<title>Node10&#45;&gt;Node9</title>
<path fill="none" stroke="midnightblue" d="M1232.69,-68.67C1175.09,-62.18 1096.81,-50.6 1030,-31 1027.85,-30.37 1025.66,-29.63 1023.48,-28.83"/>
<polygon fill="midnightblue" stroke="midnightblue" points="1024.74,-25.56 1014.16,-25.04 1022.1,-32.05 1024.74,-25.56"/>
</g>
<!-- Node11 -->
<g id="node11" class="node">
<title>Node11</title>
<g id="a_node11"><a xlink:title=" ">
<polygon fill="none" stroke="#bfbfbf" points="1504,-6 1504,-25 1542,-25 1542,-6 1504,-6"/>
<text text-anchor="middle" x="1523" y="-13" font-family="FreeSans.ttf" font-size="10.00">map</text>
</a>
</g>
</g>
<!-- Node10&#45;&gt;Node11 -->
<g id="edge10" class="edge">
<title>Node10&#45;&gt;Node11</title>
<path fill="none" stroke="midnightblue" d="M1361.77,-67.43C1398.65,-59.93 1451.01,-47.63 1495,-31 1496.21,-30.54 1497.43,-30.05 1498.66,-29.52"/>
<polygon fill="midnightblue" stroke="midnightblue" points="1500.36,-32.59 1507.89,-25.14 1497.36,-26.27 1500.36,-32.59"/>
</g>
<!-- Node12 -->
<g id="node12" class="node">
<title>Node12</title>
<g id="a_node12"><a xlink:title=" ">
<polygon fill="none" stroke="#bfbfbf" points="1560.5,-6 1560.5,-25 1653.5,-25 1653.5,-6 1560.5,-6"/>
<text text-anchor="middle" x="1607" y="-13" font-family="FreeSans.ttf" font-size="10.00">sdf/sdf_config.h</text>
</a>
</g>
</g>
<!-- Node10&#45;&gt;Node12 -->
<g id="edge11" class="edge">
<title>Node10&#45;&gt;Node12</title>
<path fill="none" stroke="midnightblue" d="M1364.92,-67.45C1412.82,-59.02 1487.11,-45.35 1551,-31 1555.71,-29.94 1560.63,-28.77 1565.51,-27.56"/>
<polygon fill="midnightblue" stroke="midnightblue" points="1566.56,-30.91 1575.4,-25.07 1564.85,-24.12 1566.56,-30.91"/>
</g>
<!-- Node13 -->
<g id="node13" class="node">
<title>Node13</title>
<g id="a_node13"><a xlink:title=" ">
<polygon fill="none" stroke="#bfbfbf" points="1039,-6 1039,-25 1161,-25 1161,-6 1039,-6"/>
<text text-anchor="middle" x="1100" y="-13" font-family="FreeSans.ttf" font-size="10.00">yarp/dev/PolyDriver.h</text>
</a>
</g>
</g>
<!-- Node10&#45;&gt;Node13 -->
<g id="edge14" class="edge">
<title>Node10&#45;&gt;Node13</title>
<path fill="none" stroke="midnightblue" d="M1284.2,-67.48C1246.44,-57.03 1182.34,-39.29 1140.59,-27.73"/>
<polygon fill="midnightblue" stroke="midnightblue" points="1141.32,-24.3 1130.75,-25.01 1139.45,-31.05 1141.32,-24.3"/>
</g>
<!-- Node14 -->
<g id="node14" class="node">
<title>Node14</title>
<g id="a_node14"><a xlink:title=" ">
<polygon fill="none" stroke="#bfbfbf" points="1179,-6 1179,-25 1319,-25 1319,-6 1179,-6"/>
<text text-anchor="middle" x="1249" y="-13" font-family="FreeSans.ttf" font-size="10.00">yarp/dev/PolyDriverList.h</text>
</a>
</g>
</g>
<!-- Node10&#45;&gt;Node14 -->
<g id="edge15" class="edge">
<title>Node10&#45;&gt;Node14</title>
<path fill="none" stroke="midnightblue" d="M1305.54,-67.48C1295.25,-58.2 1278.58,-43.17 1266.01,-31.83"/>
<polygon fill="midnightblue" stroke="midnightblue" points="1268.21,-29.11 1258.44,-25.01 1263.52,-34.3 1268.21,-29.11"/>
</g>
<!-- Node15 -->
<g id="node15" class="node">
<title>Node15</title>
<g id="a_node15"><a xlink:title=" ">
<polygon fill="none" stroke="#bfbfbf" points="1337.5,-6 1337.5,-25 1486.5,-25 1486.5,-6 1337.5,-6"/>
<text text-anchor="middle" x="1412" y="-13" font-family="FreeSans.ttf" font-size="10.00">gazebo/common/Events.hh</text>
</a>
</g>
</g>
<!-- Node10&#45;&gt;Node15 -->
<g id="edge16" class="edge">
<title>Node10&#45;&gt;Node15</title>
<path fill="none" stroke="midnightblue" d="M1328.9,-67.48C1344.67,-57.8 1370.64,-41.87 1389.35,-30.39"/>
<polygon fill="midnightblue" stroke="midnightblue" points="1391.43,-33.22 1398.13,-25.01 1387.77,-27.25 1391.43,-33.22"/>
</g>
<!-- Node17 -->
<g id="node17" class="node">
<title>Node17</title>
<g id="a_node17"><a xlink:title=" ">
<polygon fill="none" stroke="#bfbfbf" points="1672,-6 1672,-25 1716,-25 1716,-6 1672,-6"/>
<text text-anchor="middle" x="1694" y="-13" font-family="FreeSans.ttf" font-size="10.00">string</text>
</a>
</g>
</g>
<!-- Node16&#45;&gt;Node17 -->
<g id="edge18" class="edge">
<title>Node16&#45;&gt;Node17</title>
<path fill="none" stroke="midnightblue" d="M1637.46,-67.48C1647.75,-58.2 1664.42,-43.17 1676.99,-31.83"/>
<polygon fill="midnightblue" stroke="midnightblue" points="1679.48,-34.3 1684.56,-25.01 1674.79,-29.11 1679.48,-34.3"/>
</g>
<!-- Node18 -->
<g id="node18" class="node">
<title>Node18</title>
<g id="a_node18"><a xlink:title=" ">
<polygon fill="none" stroke="#bfbfbf" points="1734.5,-6 1734.5,-25 1781.5,-25 1781.5,-6 1734.5,-6"/>
<text text-anchor="middle" x="1758" y="-13" font-family="FreeSans.ttf" font-size="10.00">cmath</text>
</a>
</g>
</g>
<!-- Node16&#45;&gt;Node18 -->
<g id="edge19" class="edge">
<title>Node16&#45;&gt;Node18</title>
<path fill="none" stroke="midnightblue" d="M1646.63,-67.48C1668.44,-57.49 1704.8,-40.85 1730.02,-29.31"/>
<polygon fill="midnightblue" stroke="midnightblue" points="1731.77,-32.35 1739.41,-25.01 1728.86,-25.99 1731.77,-32.35"/>
</g>
</g>
</svg>
