<?xml version="1.0" encoding="UTF-8" standalone="no"?>
<!DOCTYPE svg PUBLIC "-//W3C//DTD SVG 1.1//EN"
 "http://www.w3.org/Graphics/SVG/1.1/DTD/svg11.dtd">
<!-- Generated by graphviz version 2.43.0 (0)
 -->
<!-- Title: IMUDriver.cpp Pages: 1 -->
<svg width="2100pt" height="151pt"
 viewBox="0.00 0.00 2100.00 151.00" xmlns="http://www.w3.org/2000/svg" xmlns:xlink="http://www.w3.org/1999/xlink">
<g id="graph0" class="graph" transform="scale(1 1) rotate(0) translate(4 147)">
<title>IMUDriver.cpp</title>
<!-- Node1 -->
<g id="node1" class="node">
<title>Node1</title>
<g id="a_node1"><a xlink:title=" ">
<polygon fill="#bfbfbf" stroke="black" points="1577.5,-123.5 1577.5,-142.5 1663.5,-142.5 1663.5,-123.5 1577.5,-123.5"/>
<text text-anchor="middle" x="1620.5" y="-130.5" font-family="FreeSans.ttf" font-size="10.00">IMUDriver.cpp</text>
</a>
</g>
</g>
<!-- Node2 -->
<g id="node2" class="node">
<title>Node2</title>
<g id="a_node2"><a xlink:href="IMUDriver_8h.html" target="_top" xlink:title=" ">
<polygon fill="none" stroke="black" points="656.5,-67.5 656.5,-86.5 730.5,-86.5 730.5,-67.5 656.5,-67.5"/>
<text text-anchor="middle" x="693.5" y="-74.5" font-family="FreeSans.ttf" font-size="10.00">IMUDriver.h</text>
</a>
</g>
</g>
<!-- Node1&#45;&gt;Node2 -->
<g id="edge1" class="edge">
<title>Node1&#45;&gt;Node2</title>
<path fill="none" stroke="midnightblue" d="M1577.34,-129.49C1423.28,-120.51 901.07,-90.09 740.72,-80.75"/>
<polygon fill="midnightblue" stroke="midnightblue" points="740.88,-77.25 730.69,-80.17 740.47,-84.24 740.88,-77.25"/>
</g>
<!-- Node10 -->
<g id="node10" class="node">
<title>Node10</title>
<g id="a_node10"><a xlink:href="Handler_8hh.html" target="_top" xlink:title=" ">
<polygon fill="none" stroke="black" points="1134.5,-67.5 1134.5,-86.5 1298.5,-86.5 1298.5,-67.5 1134.5,-67.5"/>
<text text-anchor="middle" x="1216.5" y="-74.5" font-family="FreeSans.ttf" font-size="10.00">GazeboYarpPlugins/Handler.hh</text>
</a>
</g>
</g>
<!-- Node1&#45;&gt;Node10 -->
<g id="edge9" class="edge">
<title>Node1&#45;&gt;Node10</title>
<path fill="none" stroke="midnightblue" d="M1577.26,-126.22C1508.71,-117.06 1374.23,-99.08 1290.23,-87.85"/>
<polygon fill="midnightblue" stroke="midnightblue" points="1290.62,-84.38 1280.24,-86.52 1289.69,-91.31 1290.62,-84.38"/>
</g>
<!-- Node15 -->
<g id="node15" class="node">
<title>Node15</title>
<g id="a_node15"><a xlink:href="common_8h.html" target="_top" xlink:title=" ">
<polygon fill="none" stroke="black" points="1381.5,-67.5 1381.5,-86.5 1545.5,-86.5 1545.5,-67.5 1381.5,-67.5"/>
<text text-anchor="middle" x="1463.5" y="-74.5" font-family="FreeSans.ttf" font-size="10.00">GazeboYarpPlugins/common.h</text>
</a>
</g>
</g>
<!-- Node1&#45;&gt;Node15 -->
<g id="edge16" class="edge">
<title>Node1&#45;&gt;Node15</title>
<path fill="none" stroke="midnightblue" d="M1595.62,-123.44C1569.21,-114.36 1527.28,-99.94 1497.76,-89.78"/>
<polygon fill="midnightblue" stroke="midnightblue" points="1498.86,-86.46 1488.26,-86.52 1496.58,-93.08 1498.86,-86.46"/>
</g>
<!-- Node18 -->
<g id="node18" class="node">
<title>Node18</title>
<g id="a_node18"><a xlink:title=" ">
<polygon fill="none" stroke="#bfbfbf" points="1564,-67.5 1564,-86.5 1677,-86.5 1677,-67.5 1564,-67.5"/>
<text text-anchor="middle" x="1620.5" y="-74.5" font-family="FreeSans.ttf" font-size="10.00">boost/bind/bind.hpp</text>
</a>
</g>
</g>
<!-- Node1&#45;&gt;Node18 -->
<g id="edge19" class="edge">
<title>Node1&#45;&gt;Node18</title>
<path fill="none" stroke="midnightblue" d="M1620.5,-123.08C1620.5,-116.01 1620.5,-105.86 1620.5,-96.99"/>
<polygon fill="midnightblue" stroke="midnightblue" points="1624,-96.75 1620.5,-86.75 1617,-96.75 1624,-96.75"/>
</g>
<!-- Node19 -->
<g id="node19" class="node">
<title>Node19</title>
<g id="a_node19"><a xlink:title=" ">
<polygon fill="none" stroke="#bfbfbf" points="1695,-67.5 1695,-86.5 1856,-86.5 1856,-67.5 1695,-67.5"/>
<text text-anchor="middle" x="1775.5" y="-74.5" font-family="FreeSans.ttf" font-size="10.00">gazebo/sensors/ImuSensor.hh</text>
</a>
</g>
</g>
<!-- Node1&#45;&gt;Node19 -->
<g id="edge20" class="edge">
<title>Node1&#45;&gt;Node19</title>
<path fill="none" stroke="midnightblue" d="M1645.06,-123.44C1671.02,-114.4 1712.17,-100.06 1741.3,-89.92"/>
<polygon fill="midnightblue" stroke="midnightblue" points="1742.76,-93.11 1751.05,-86.52 1740.46,-86.5 1742.76,-93.11"/>
</g>
<!-- Node20 -->
<g id="node20" class="node">
<title>Node20</title>
<g id="a_node20"><a xlink:title=" ">
<polygon fill="none" stroke="#bfbfbf" points="1874.5,-67.5 1874.5,-86.5 1956.5,-86.5 1956.5,-67.5 1874.5,-67.5"/>
<text text-anchor="middle" x="1915.5" y="-74.5" font-family="FreeSans.ttf" font-size="10.00">yarp/os/Log.h</text>
</a>
</g>
</g>
<!-- Node1&#45;&gt;Node20 -->
<g id="edge21" class="edge">
<title>Node1&#45;&gt;Node20</title>
<path fill="none" stroke="midnightblue" d="M1663.71,-124.09C1717,-114.33 1807.49,-97.77 1864.24,-87.38"/>
<polygon fill="midnightblue" stroke="midnightblue" points="1864.87,-90.83 1874.08,-85.58 1863.61,-83.94 1864.87,-90.83"/>
</g>
<!-- Node21 -->
<g id="node21" class="node">
<title>Node21</title>
<g id="a_node21"><a xlink:title=" ">
<polygon fill="none" stroke="#bfbfbf" points="1975,-67.5 1975,-86.5 2092,-86.5 2092,-67.5 1975,-67.5"/>
<text text-anchor="middle" x="2033.5" y="-74.5" font-family="FreeSans.ttf" font-size="10.00">yarp/os/LogStream.h</text>
</a>
</g>
</g>
<!-- Node1&#45;&gt;Node21 -->
<g id="edge22" class="edge">
<title>Node1&#45;&gt;Node21</title>
<path fill="none" stroke="midnightblue" d="M1663.53,-126.41C1726.97,-118.17 1849.6,-102.22 1964.84,-87.08"/>
<polygon fill="midnightblue" stroke="midnightblue" points="1965.44,-90.54 1974.9,-85.76 1964.52,-83.6 1965.44,-90.54"/>
</g>
<!-- Node3 -->
<g id="node3" class="node">
<title>Node3</title>
<g id="a_node3"><a xlink:title=" ">
<polygon fill="none" stroke="#bfbfbf" points="167.5,-6 167.5,-25 301.5,-25 301.5,-6 167.5,-6"/>
<text text-anchor="middle" x="234.5" y="-13" font-family="FreeSans.ttf" font-size="10.00">yarp/dev/DeviceDriver.h</text>
</a>
</g>
</g>
<!-- Node2&#45;&gt;Node3 -->
<g id="edge2" class="edge">
<title>Node2&#45;&gt;Node3</title>
<path fill="none" stroke="midnightblue" d="M656.41,-72.53C587.88,-65.93 436.89,-50.46 310.5,-31 302.66,-29.79 294.39,-28.37 286.31,-26.9"/>
<polygon fill="midnightblue" stroke="midnightblue" points="286.69,-23.41 276.22,-25.02 285.41,-30.29 286.69,-23.41"/>
</g>
<!-- Node4 -->
<g id="node4" class="node">
<title>Node4</title>
<g id="a_node4"><a xlink:title=" ">
<polygon fill="none" stroke="#bfbfbf" points="320,-6 320,-25 511,-25 511,-6 320,-6"/>
<text text-anchor="middle" x="415.5" y="-13" font-family="FreeSans.ttf" font-size="10.00">yarp/dev/GenericSensorInterfaces.h</text>
</a>
</g>
</g>
<!-- Node2&#45;&gt;Node4 -->
<g id="edge3" class="edge">
<title>Node2&#45;&gt;Node4</title>
<path fill="none" stroke="midnightblue" d="M656.3,-68.04C607.13,-57.51 520.35,-38.94 465.49,-27.2"/>
<polygon fill="midnightblue" stroke="midnightblue" points="466.14,-23.76 455.63,-25.09 464.68,-30.61 466.14,-23.76"/>
</g>
<!-- Node5 -->
<g id="node5" class="node">
<title>Node5</title>
<g id="a_node5"><a xlink:title=" ">
<polygon fill="none" stroke="#bfbfbf" points="529.5,-0.5 529.5,-30.5 703.5,-30.5 703.5,-0.5 529.5,-0.5"/>
<text text-anchor="start" x="537.5" y="-18.5" font-family="FreeSans.ttf" font-size="10.00">yarp/dev/MultipleAnalogSensors</text>
<text text-anchor="middle" x="616.5" y="-7.5" font-family="FreeSans.ttf" font-size="10.00">Interfaces.h</text>
</a>
</g>
</g>
<!-- Node2&#45;&gt;Node5 -->
<g id="edge4" class="edge">
<title>Node2&#45;&gt;Node5</title>
<path fill="none" stroke="midnightblue" d="M682.47,-67.48C672.14,-59.49 656.3,-47.25 642.73,-36.77"/>
<polygon fill="midnightblue" stroke="midnightblue" points="644.7,-33.87 634.65,-30.52 640.42,-39.41 644.7,-33.87"/>
</g>
<!-- Node6 -->
<g id="node6" class="node">
<title>Node6</title>
<g id="a_node6"><a xlink:title=" ">
<polygon fill="none" stroke="#bfbfbf" points="721.5,-6 721.5,-25 817.5,-25 817.5,-6 721.5,-6"/>
<text text-anchor="middle" x="769.5" y="-13" font-family="FreeSans.ttf" font-size="10.00">yarp/os/Stamp.h</text>
</a>
</g>
</g>
<!-- Node2&#45;&gt;Node6 -->
<g id="edge5" class="edge">
<title>Node2&#45;&gt;Node6</title>
<path fill="none" stroke="midnightblue" d="M704.39,-67.48C716.47,-58.02 736.17,-42.6 750.74,-31.19"/>
<polygon fill="midnightblue" stroke="midnightblue" points="752.91,-33.93 758.63,-25.01 748.6,-28.42 752.91,-33.93"/>
</g>
<!-- Node7 -->
<g id="node7" class="node">
<title>Node7</title>
<g id="a_node7"><a xlink:title=" ">
<polygon fill="none" stroke="#bfbfbf" points="0,-6 0,-25 149,-25 149,-6 0,-6"/>
<text text-anchor="middle" x="74.5" y="-13" font-family="FreeSans.ttf" font-size="10.00">yarp/dev/IPreciselyTimed.h</text>
</a>
</g>
</g>
<!-- Node2&#45;&gt;Node7 -->
<g id="edge6" class="edge">
<title>Node2&#45;&gt;Node7</title>
<path fill="none" stroke="midnightblue" d="M656.41,-74C569.28,-69.04 344.8,-54.87 158.5,-31 149.13,-29.8 139.21,-28.3 129.6,-26.72"/>
<polygon fill="midnightblue" stroke="midnightblue" points="130.17,-23.26 119.73,-25.05 129.01,-30.17 130.17,-23.26"/>
</g>
<!-- Node8 -->
<g id="node8" class="node">
<title>Node8</title>
<g id="a_node8"><a xlink:title=" ">
<polygon fill="none" stroke="#bfbfbf" points="902,-6 902,-25 1021,-25 1021,-6 902,-6"/>
<text text-anchor="middle" x="961.5" y="-13" font-family="FreeSans.ttf" font-size="10.00">boost/shared_ptr.hpp</text>
</a>
</g>
</g>
<!-- Node2&#45;&gt;Node8 -->
<g id="edge7" class="edge">
<title>Node2&#45;&gt;Node8</title>
<path fill="none" stroke="midnightblue" d="M730.76,-67.73C778.23,-57.19 860.36,-38.95 912.75,-27.32"/>
<polygon fill="midnightblue" stroke="midnightblue" points="913.81,-30.67 922.82,-25.09 912.3,-23.84 913.81,-30.67"/>
</g>
<!-- Node9 -->
<g id="node9" class="node">
<title>Node9</title>
<g id="a_node9"><a xlink:title=" ">
<polygon fill="none" stroke="#bfbfbf" points="835.5,-6 835.5,-25 883.5,-25 883.5,-6 835.5,-6"/>
<text text-anchor="middle" x="859.5" y="-13" font-family="FreeSans.ttf" font-size="10.00">mutex</text>
</a>
</g>
</g>
<!-- Node2&#45;&gt;Node9 -->
<g id="edge8" class="edge">
<title>Node2&#45;&gt;Node9</title>
<path fill="none" stroke="midnightblue" d="M721.01,-67.47C748.08,-58.9 790.48,-44.98 826.5,-31 828.1,-30.38 829.74,-29.72 831.4,-29.05"/>
<polygon fill="midnightblue" stroke="midnightblue" points="832.93,-32.2 840.77,-25.07 830.2,-25.75 832.93,-32.2"/>
</g>
<!-- Node10&#45;&gt;Node8 -->
<g id="edge12" class="edge">
<title>Node10&#45;&gt;Node8</title>
<path fill="none" stroke="midnightblue" d="M1179.96,-67.48C1134.61,-56.89 1057.22,-38.84 1007.77,-27.3"/>
<polygon fill="midnightblue" stroke="midnightblue" points="1008.5,-23.87 997.97,-25.01 1006.91,-30.69 1008.5,-23.87"/>
</g>
<!-- Node10&#45;&gt;Node9 -->
<g id="edge13" class="edge">
<title>Node10&#45;&gt;Node9</title>
<path fill="none" stroke="midnightblue" d="M1134.33,-70.87C1068.05,-65.25 972.96,-53.79 892.5,-31 890.35,-30.39 888.15,-29.67 885.97,-28.88"/>
<polygon fill="midnightblue" stroke="midnightblue" points="887.22,-25.61 876.64,-25.1 884.59,-32.1 887.22,-25.61"/>
</g>
<!-- Node11 -->
<g id="node11" class="node">
<title>Node11</title>
<g id="a_node11"><a xlink:title=" ">
<polygon fill="none" stroke="#bfbfbf" points="1197.5,-6 1197.5,-25 1235.5,-25 1235.5,-6 1197.5,-6"/>
<text text-anchor="middle" x="1216.5" y="-13" font-family="FreeSans.ttf" font-size="10.00">map</text>
</a>
</g>
</g>
<!-- Node10&#45;&gt;Node11 -->
<g id="edge10" class="edge">
<title>Node10&#45;&gt;Node11</title>
<path fill="none" stroke="midnightblue" d="M1216.5,-67.48C1216.5,-59.08 1216.5,-45.98 1216.5,-35.16"/>
<polygon fill="midnightblue" stroke="midnightblue" points="1220,-35.01 1216.5,-25.01 1213,-35.01 1220,-35.01"/>
</g>
<!-- Node12 -->
<g id="node12" class="node">
<title>Node12</title>
<g id="a_node12"><a xlink:title=" ">
<polygon fill="none" stroke="#bfbfbf" points="1254,-6 1254,-25 1347,-25 1347,-6 1254,-6"/>
<text text-anchor="middle" x="1300.5" y="-13" font-family="FreeSans.ttf" font-size="10.00">sdf/sdf_config.h</text>
</a>
</g>
</g>
<!-- Node10&#45;&gt;Node12 -->
<g id="edge11" class="edge">
<title>Node10&#45;&gt;Node12</title>
<path fill="none" stroke="midnightblue" d="M1228.54,-67.48C1242.01,-57.93 1264.07,-42.31 1280.22,-30.87"/>
<polygon fill="midnightblue" stroke="midnightblue" points="1282.35,-33.65 1288.49,-25.01 1278.3,-27.93 1282.35,-33.65"/>
</g>
<!-- Node13 -->
<g id="node13" class="node">
<title>Node13</title>
<g id="a_node13"><a xlink:title=" ">
<polygon fill="none" stroke="#bfbfbf" points="1365.5,-6 1365.5,-25 1487.5,-25 1487.5,-6 1365.5,-6"/>
<text text-anchor="middle" x="1426.5" y="-13" font-family="FreeSans.ttf" font-size="10.00">yarp/dev/PolyDriver.h</text>
</a>
</g>
</g>
<!-- Node10&#45;&gt;Node13 -->
<g id="edge14" class="edge">
<title>Node10&#45;&gt;Node13</title>
<path fill="none" stroke="midnightblue" d="M1246.59,-67.48C1283.39,-57.05 1345.81,-39.36 1386.59,-27.81"/>
<polygon fill="midnightblue" stroke="midnightblue" points="1387.8,-31.1 1396.47,-25.01 1385.89,-24.37 1387.8,-31.1"/>
</g>
<!-- Node14 -->
<g id="node14" class="node">
<title>Node14</title>
<g id="a_node14"><a xlink:title=" ">
<polygon fill="none" stroke="#bfbfbf" points="1039.5,-6 1039.5,-25 1179.5,-25 1179.5,-6 1039.5,-6"/>
<text text-anchor="middle" x="1109.5" y="-13" font-family="FreeSans.ttf" font-size="10.00">yarp/dev/PolyDriverList.h</text>
</a>
</g>
</g>
<!-- Node10&#45;&gt;Node14 -->
<g id="edge15" class="edge">
<title>Node10&#45;&gt;Node14</title>
<path fill="none" stroke="midnightblue" d="M1201.17,-67.48C1183.53,-57.67 1154.34,-41.43 1133.64,-29.92"/>
<polygon fill="midnightblue" stroke="midnightblue" points="1135.24,-26.81 1124.8,-25.01 1131.84,-32.93 1135.24,-26.81"/>
</g>
<!-- Node16 -->
<g id="node16" class="node">
<title>Node16</title>
<g id="a_node16"><a xlink:title=" ">
<polygon fill="none" stroke="#bfbfbf" points="1571.5,-6 1571.5,-25 1615.5,-25 1615.5,-6 1571.5,-6"/>
<text text-anchor="middle" x="1593.5" y="-13" font-family="FreeSans.ttf" font-size="10.00">string</text>
</a>
</g>
</g>
<!-- Node15&#45;&gt;Node16 -->
<g id="edge17" class="edge">
<title>Node15&#45;&gt;Node16</title>
<path fill="none" stroke="midnightblue" d="M1482.51,-67.43C1502.46,-58.43 1534.73,-43.81 1562.5,-31 1563.65,-30.47 1564.83,-29.92 1566.02,-29.37"/>
<polygon fill="midnightblue" stroke="midnightblue" points="1567.57,-32.51 1575.16,-25.12 1564.61,-26.17 1567.57,-32.51"/>
</g>
<!-- Node17 -->
<g id="node17" class="node">
<title>Node17</title>
<g id="a_node17"><a xlink:title=" ">
<polygon fill="none" stroke="#bfbfbf" points="1506,-6 1506,-25 1553,-25 1553,-6 1506,-6"/>
<text text-anchor="middle" x="1529.5" y="-13" font-family="FreeSans.ttf" font-size="10.00">cmath</text>
</a>
</g>
</g>
<!-- Node15&#45;&gt;Node17 -->
<g id="edge18" class="edge">
<title>Node15&#45;&gt;Node17</title>
<path fill="none" stroke="midnightblue" d="M1472.96,-67.48C1483.25,-58.2 1499.92,-43.17 1512.49,-31.83"/>
<polygon fill="midnightblue" stroke="midnightblue" points="1514.98,-34.3 1520.06,-25.01 1510.29,-29.11 1514.98,-34.3"/>
</g>
</g>
</svg>
