<?xml version="1.0" encoding="UTF-8" standalone="no"?>
<!DOCTYPE svg PUBLIC "-//W3C//DTD SVG 1.1//EN"
 "http://www.w3.org/Graphics/SVG/1.1/DTD/svg11.dtd">
<!-- Generated by graphviz version 2.43.0 (0)
 -->
<!-- Title: IMUDriver.h Pages: 1 -->
<svg width="1029pt" height="95pt"
 viewBox="0.00 0.00 1029.00 95.00" xmlns="http://www.w3.org/2000/svg" xmlns:xlink="http://www.w3.org/1999/xlink">
<g id="graph0" class="graph" transform="scale(1 1) rotate(0) translate(4 91)">
<title>IMUDriver.h</title>
<!-- Node1 -->
<g id="node1" class="node">
<title>Node1</title>
<g id="a_node1"><a xlink:title=" ">
<polygon fill="#bfbfbf" stroke="black" points="565,-67.5 565,-86.5 639,-86.5 639,-67.5 565,-67.5"/>
<text text-anchor="middle" x="602" y="-74.5" font-family="FreeSans.ttf" font-size="10.00">IMUDriver.h</text>
</a>
</g>
</g>
<!-- Node2 -->
<g id="node2" class="node">
<title>Node2</title>
<g id="a_node2"><a xlink:title=" ">
<polygon fill="none" stroke="#bfbfbf" points="0,-6 0,-25 134,-25 134,-6 0,-6"/>
<text text-anchor="middle" x="67" y="-13" font-family="FreeSans.ttf" font-size="10.00">yarp/dev/DeviceDriver.h</text>
</a>
</g>
</g>
<!-- Node1&#45;&gt;Node2 -->
<g id="edge1" class="edge">
<title>Node1&#45;&gt;Node2</title>
<path fill="none" stroke="midnightblue" d="M564.98,-73.52C486.77,-68.02 299.12,-53.5 143,-31 134.87,-29.83 126.29,-28.39 117.94,-26.88"/>
<polygon fill="midnightblue" stroke="midnightblue" points="118.38,-23.4 107.91,-25.01 117.1,-30.28 118.38,-23.4"/>
</g>
<!-- Node3 -->
<g id="node3" class="node">
<title>Node3</title>
<g id="a_node3"><a xlink:title=" ">
<polygon fill="none" stroke="#bfbfbf" points="152.5,-6 152.5,-25 343.5,-25 343.5,-6 152.5,-6"/>
<text text-anchor="middle" x="248" y="-13" font-family="FreeSans.ttf" font-size="10.00">yarp/dev/GenericSensorInterfaces.h</text>
</a>
</g>
</g>
<!-- Node1&#45;&gt;Node3 -->
<g id="edge2" class="edge">
<title>Node1&#45;&gt;Node3</title>
<path fill="none" stroke="midnightblue" d="M564.78,-69.74C503.83,-59.5 382.17,-39.05 308.63,-26.69"/>
<polygon fill="midnightblue" stroke="midnightblue" points="309.03,-23.21 298.59,-25 307.87,-30.11 309.03,-23.21"/>
</g>
<!-- Node4 -->
<g id="node4" class="node">
<title>Node4</title>
<g id="a_node4"><a xlink:title=" ">
<polygon fill="none" stroke="#bfbfbf" points="362,-0.5 362,-30.5 536,-30.5 536,-0.5 362,-0.5"/>
<text text-anchor="start" x="370" y="-18.5" font-family="FreeSans.ttf" font-size="10.00">yarp/dev/MultipleAnalogSensors</text>
<text text-anchor="middle" x="449" y="-7.5" font-family="FreeSans.ttf" font-size="10.00">Interfaces.h</text>
</a>
</g>
</g>
<!-- Node1&#45;&gt;Node4 -->
<g id="edge3" class="edge">
<title>Node1&#45;&gt;Node4</title>
<path fill="none" stroke="midnightblue" d="M580.08,-67.48C557.9,-58.85 522.96,-45.26 494.73,-34.29"/>
<polygon fill="midnightblue" stroke="midnightblue" points="495.65,-30.89 485.06,-30.52 493.11,-37.41 495.65,-30.89"/>
</g>
<!-- Node5 -->
<g id="node5" class="node">
<title>Node5</title>
<g id="a_node5"><a xlink:title=" ">
<polygon fill="none" stroke="#bfbfbf" points="554,-6 554,-25 650,-25 650,-6 554,-6"/>
<text text-anchor="middle" x="602" y="-13" font-family="FreeSans.ttf" font-size="10.00">yarp/os/Stamp.h</text>
</a>
</g>
</g>
<!-- Node1&#45;&gt;Node5 -->
<g id="edge4" class="edge">
<title>Node1&#45;&gt;Node5</title>
<path fill="none" stroke="midnightblue" d="M602,-67.48C602,-59.08 602,-45.98 602,-35.16"/>
<polygon fill="midnightblue" stroke="midnightblue" points="605.5,-35.01 602,-25.01 598.5,-35.01 605.5,-35.01"/>
</g>
<!-- Node6 -->
<g id="node6" class="node">
<title>Node6</title>
<g id="a_node6"><a xlink:title=" ">
<polygon fill="none" stroke="#bfbfbf" points="668.5,-6 668.5,-25 817.5,-25 817.5,-6 668.5,-6"/>
<text text-anchor="middle" x="743" y="-13" font-family="FreeSans.ttf" font-size="10.00">yarp/dev/IPreciselyTimed.h</text>
</a>
</g>
</g>
<!-- Node1&#45;&gt;Node6 -->
<g id="edge5" class="edge">
<title>Node1&#45;&gt;Node6</title>
<path fill="none" stroke="midnightblue" d="M622.2,-67.48C646.07,-57.4 686,-40.55 713.37,-29"/>
<polygon fill="midnightblue" stroke="midnightblue" points="714.98,-32.12 722.84,-25.01 712.26,-25.67 714.98,-32.12"/>
</g>
<!-- Node7 -->
<g id="node7" class="node">
<title>Node7</title>
<g id="a_node7"><a xlink:title=" ">
<polygon fill="none" stroke="#bfbfbf" points="835.5,-6 835.5,-25 954.5,-25 954.5,-6 835.5,-6"/>
<text text-anchor="middle" x="895" y="-13" font-family="FreeSans.ttf" font-size="10.00">boost/shared_ptr.hpp</text>
</a>
</g>
</g>
<!-- Node1&#45;&gt;Node7 -->
<g id="edge6" class="edge">
<title>Node1&#45;&gt;Node7</title>
<path fill="none" stroke="midnightblue" d="M639.06,-68.74C683.68,-59.96 760.87,-44.66 827,-31 832.91,-29.78 839.1,-28.48 845.24,-27.19"/>
<polygon fill="midnightblue" stroke="midnightblue" points="846.41,-30.52 855.46,-25.02 844.96,-23.67 846.41,-30.52"/>
</g>
<!-- Node8 -->
<g id="node8" class="node">
<title>Node8</title>
<g id="a_node8"><a xlink:title=" ">
<polygon fill="none" stroke="#bfbfbf" points="973,-6 973,-25 1021,-25 1021,-6 973,-6"/>
<text text-anchor="middle" x="997" y="-13" font-family="FreeSans.ttf" font-size="10.00">mutex</text>
</a>
</g>
</g>
<!-- Node1&#45;&gt;Node8 -->
<g id="edge7" class="edge">
<title>Node1&#45;&gt;Node8</title>
<path fill="none" stroke="midnightblue" d="M639.17,-74.92C705.53,-72.22 848.3,-62.88 964,-31 966.16,-30.41 968.35,-29.69 970.54,-28.91"/>
<polygon fill="midnightblue" stroke="midnightblue" points="971.91,-32.13 979.88,-25.15 969.29,-25.64 971.91,-32.13"/>
</g>
</g>
</svg>
