<?xml version="1.0" encoding="UTF-8" standalone="no"?>
<!DOCTYPE svg PUBLIC "-//W3C//DTD SVG 1.1//EN"
 "http://www.w3.org/Graphics/SVG/1.1/DTD/svg11.dtd">
<!-- Generated by graphviz version 2.43.0 (0)
 -->
<!-- Title: IMUDriver.h Pages: 1 -->
<svg width="162pt" height="84pt"
 viewBox="0.00 0.00 162.00 84.00" xmlns="http://www.w3.org/2000/svg" xmlns:xlink="http://www.w3.org/1999/xlink">
<g id="graph0" class="graph" transform="scale(1 1) rotate(0) translate(4 80)">
<title>IMUDriver.h</title>
<!-- Node1 -->
<g id="node1" class="node">
<title>Node1</title>
<g id="a_node1"><a xlink:title=" ">
<polygon fill="#bfbfbf" stroke="black" points="31,-56.5 31,-75.5 105,-75.5 105,-56.5 31,-56.5"/>
<text text-anchor="middle" x="68" y="-63.5" font-family="FreeSans.ttf" font-size="10.00">IMUDriver.h</text>
</a>
</g>
</g>
<!-- Node2 -->
<g id="node2" class="node">
<title>Node2</title>
<g id="a_node2"><a xlink:href="IMU_8cc.html" target="_top" xlink:title=" ">
<polygon fill="none" stroke="black" points="0,-0.5 0,-19.5 50,-19.5 50,-0.5 0,-0.5"/>
<text text-anchor="middle" x="25" y="-7.5" font-family="FreeSans.ttf" font-size="10.00">IMU.cc</text>
</a>
</g>
</g>
<!-- Node1&#45;&gt;Node2 -->
<g id="edge1" class="edge">
<title>Node1&#45;&gt;Node2</title>
<path fill="none" stroke="midnightblue" d="M54.58,-48.14C47.09,-38.74 38.06,-27.4 31.97,-19.75"/>
<polygon fill="midnightblue" stroke="midnightblue" points="51.93,-50.44 60.9,-56.08 57.41,-46.08 51.93,-50.44"/>
</g>
<!-- Node3 -->
<g id="node3" class="node">
<title>Node3</title>
<g id="a_node3"><a xlink:href="IMUDriver_8cpp.html" target="_top" xlink:title=" ">
<polygon fill="none" stroke="black" points="68,-0.5 68,-19.5 154,-19.5 154,-0.5 68,-0.5"/>
<text text-anchor="middle" x="111" y="-7.5" font-family="FreeSans.ttf" font-size="10.00">IMUDriver.cpp</text>
</a>
</g>
</g>
<!-- Node1&#45;&gt;Node3 -->
<g id="edge2" class="edge">
<title>Node1&#45;&gt;Node3</title>
<path fill="none" stroke="midnightblue" d="M81.42,-48.14C88.91,-38.74 97.94,-27.4 104.03,-19.75"/>
<polygon fill="midnightblue" stroke="midnightblue" points="78.59,-46.08 75.1,-56.08 84.07,-50.44 78.59,-46.08"/>
</g>
</g>
</svg>
