<?xml version="1.0" encoding="UTF-8" standalone="no"?>
<!DOCTYPE svg PUBLIC "-//W3C//DTD SVG 1.1//EN"
 "http://www.w3.org/Graphics/SVG/1.1/DTD/svg11.dtd">
<!-- Generated by graphviz version 2.43.0 (0)
 -->
<!-- Title: inertialMTBPartDriver.cpp Pages: 1 -->
<svg width="1930pt" height="140pt"
 viewBox="0.00 0.00 1929.50 140.00" xmlns="http://www.w3.org/2000/svg" xmlns:xlink="http://www.w3.org/1999/xlink">
<g id="graph0" class="graph" transform="scale(1 1) rotate(0) translate(4 136)">
<title>inertialMTBPartDriver.cpp</title>
<!-- Node1 -->
<g id="node1" class="node">
<title>Node1</title>
<g id="a_node1"><a xlink:title=" ">
<polygon fill="#bfbfbf" stroke="black" points="1300.5,-112.5 1300.5,-131.5 1441.5,-131.5 1441.5,-112.5 1300.5,-112.5"/>
<text text-anchor="middle" x="1371" y="-119.5" font-family="FreeSans.ttf" font-size="10.00">inertialMTBPartDriver.cpp</text>
</a>
</g>
</g>
<!-- Node2 -->
<g id="node2" class="node">
<title>Node2</title>
<g id="a_node2"><a xlink:href="inertialMTBPartDriver_8h.html" target="_top" xlink:title=" ">
<polygon fill="none" stroke="black" points="1063,-56.5 1063,-75.5 1193,-75.5 1193,-56.5 1063,-56.5"/>
<text text-anchor="middle" x="1128" y="-63.5" font-family="FreeSans.ttf" font-size="10.00">inertialMTBPartDriver.h</text>
</a>
</g>
</g>
<!-- Node1&#45;&gt;Node2 -->
<g id="edge1" class="edge">
<title>Node1&#45;&gt;Node2</title>
<path fill="none" stroke="midnightblue" d="M1332.5,-112.44C1290.19,-103.04 1222.18,-87.93 1176.33,-77.74"/>
<polygon fill="midnightblue" stroke="midnightblue" points="1176.85,-74.27 1166.32,-75.52 1175.33,-81.1 1176.85,-74.27"/>
</g>
<!-- Node11 -->
<g id="node11" class="node">
<title>Node11</title>
<g id="a_node11"><a xlink:href="ConfHelpers_8hh.html" target="_top" xlink:title=" ">
<polygon fill="none" stroke="black" points="334.5,-56.5 334.5,-75.5 521.5,-75.5 521.5,-56.5 334.5,-56.5"/>
<text text-anchor="middle" x="428" y="-63.5" font-family="FreeSans.ttf" font-size="10.00">GazeboYarpPlugins/ConfHelpers.hh</text>
</a>
</g>
</g>
<!-- Node1&#45;&gt;Node11 -->
<g id="edge10" class="edge">
<title>Node1&#45;&gt;Node11</title>
<path fill="none" stroke="midnightblue" d="M1300.12,-116.94C1135.17,-107.5 724.95,-84 531.75,-72.94"/>
<polygon fill="midnightblue" stroke="midnightblue" points="531.78,-69.44 521.59,-72.36 531.38,-76.43 531.78,-69.44"/>
</g>
<!-- Node15 -->
<g id="node15" class="node">
<title>Node15</title>
<g id="a_node15"><a xlink:href="Handler_8hh.html" target="_top" xlink:title=" ">
<polygon fill="none" stroke="black" points="758,-56.5 758,-75.5 922,-75.5 922,-56.5 758,-56.5"/>
<text text-anchor="middle" x="840" y="-63.5" font-family="FreeSans.ttf" font-size="10.00">GazeboYarpPlugins/Handler.hh</text>
</a>
</g>
</g>
<!-- Node1&#45;&gt;Node15 -->
<g id="edge15" class="edge">
<title>Node1&#45;&gt;Node15</title>
<path fill="none" stroke="midnightblue" d="M1300.49,-113.83C1205.75,-104.19 1037.19,-87.05 932.4,-76.4"/>
<polygon fill="midnightblue" stroke="midnightblue" points="932.45,-72.88 922.15,-75.35 931.74,-79.85 932.45,-72.88"/>
</g>
<!-- Node18 -->
<g id="node18" class="node">
<title>Node18</title>
<g id="a_node18"><a xlink:href="common_8h.html" target="_top" xlink:title=" ">
<polygon fill="none" stroke="black" points="1211,-56.5 1211,-75.5 1375,-75.5 1375,-56.5 1211,-56.5"/>
<text text-anchor="middle" x="1293" y="-63.5" font-family="FreeSans.ttf" font-size="10.00">GazeboYarpPlugins/common.h</text>
</a>
</g>
</g>
<!-- Node1&#45;&gt;Node18 -->
<g id="edge22" class="edge">
<title>Node1&#45;&gt;Node18</title>
<path fill="none" stroke="midnightblue" d="M1358.47,-112.32C1346.41,-103.98 1327.97,-91.21 1313.73,-81.35"/>
<polygon fill="midnightblue" stroke="midnightblue" points="1315.72,-78.47 1305.5,-75.65 1311.73,-84.22 1315.72,-78.47"/>
</g>
<!-- Node21 -->
<g id="node21" class="node">
<title>Node21</title>
<g id="a_node21"><a xlink:title=" ">
<polygon fill="none" stroke="#bfbfbf" points="1393.5,-56.5 1393.5,-75.5 1506.5,-75.5 1506.5,-56.5 1393.5,-56.5"/>
<text text-anchor="middle" x="1450" y="-63.5" font-family="FreeSans.ttf" font-size="10.00">boost/bind/bind.hpp</text>
</a>
</g>
</g>
<!-- Node1&#45;&gt;Node21 -->
<g id="edge25" class="edge">
<title>Node1&#45;&gt;Node21</title>
<path fill="none" stroke="midnightblue" d="M1383.69,-112.32C1395.9,-103.98 1414.58,-91.21 1429,-81.35"/>
<polygon fill="midnightblue" stroke="midnightblue" points="1431.06,-84.19 1437.34,-75.65 1427.11,-78.41 1431.06,-84.19"/>
</g>
<!-- Node22 -->
<g id="node22" class="node">
<title>Node22</title>
<g id="a_node22"><a xlink:title=" ">
<polygon fill="none" stroke="#bfbfbf" points="1524.5,-56.5 1524.5,-75.5 1685.5,-75.5 1685.5,-56.5 1524.5,-56.5"/>
<text text-anchor="middle" x="1605" y="-63.5" font-family="FreeSans.ttf" font-size="10.00">gazebo/sensors/ImuSensor.hh</text>
</a>
</g>
</g>
<!-- Node1&#45;&gt;Node22 -->
<g id="edge26" class="edge">
<title>Node1&#45;&gt;Node22</title>
<path fill="none" stroke="midnightblue" d="M1408.08,-112.44C1448.73,-103.06 1514.03,-87.99 1558.18,-77.8"/>
<polygon fill="midnightblue" stroke="midnightblue" points="1559.14,-81.18 1568.1,-75.52 1557.56,-74.35 1559.14,-81.18"/>
</g>
<!-- Node23 -->
<g id="node23" class="node">
<title>Node23</title>
<g id="a_node23"><a xlink:title=" ">
<polygon fill="none" stroke="#bfbfbf" points="1704,-56.5 1704,-75.5 1786,-75.5 1786,-56.5 1704,-56.5"/>
<text text-anchor="middle" x="1745" y="-63.5" font-family="FreeSans.ttf" font-size="10.00">yarp/os/Log.h</text>
</a>
</g>
</g>
<!-- Node1&#45;&gt;Node23 -->
<g id="edge27" class="edge">
<title>Node1&#45;&gt;Node23</title>
<path fill="none" stroke="midnightblue" d="M1438.13,-112.47C1501.5,-104.25 1599.42,-91.06 1693.81,-76.14"/>
<polygon fill="midnightblue" stroke="midnightblue" points="1694.5,-79.57 1703.82,-74.55 1693.4,-72.66 1694.5,-79.57"/>
</g>
<!-- Node24 -->
<g id="node24" class="node">
<title>Node24</title>
<g id="a_node24"><a xlink:title=" ">
<polygon fill="none" stroke="#bfbfbf" points="1804.5,-56.5 1804.5,-75.5 1921.5,-75.5 1921.5,-56.5 1804.5,-56.5"/>
<text text-anchor="middle" x="1863" y="-63.5" font-family="FreeSans.ttf" font-size="10.00">yarp/os/LogStream.h</text>
</a>
</g>
</g>
<!-- Node1&#45;&gt;Node24 -->
<g id="edge28" class="edge">
<title>Node1&#45;&gt;Node24</title>
<path fill="none" stroke="midnightblue" d="M1441.58,-114.07C1523.65,-105.89 1663.45,-91.56 1794.21,-76.07"/>
<polygon fill="midnightblue" stroke="midnightblue" points="1794.89,-79.51 1804.41,-74.85 1794.06,-72.56 1794.89,-79.51"/>
</g>
<!-- Node3 -->
<g id="node3" class="node">
<title>Node3</title>
<g id="a_node3"><a xlink:title=" ">
<polygon fill="none" stroke="#bfbfbf" points="1050.5,-0.5 1050.5,-19.5 1097.5,-19.5 1097.5,-0.5 1050.5,-0.5"/>
<text text-anchor="middle" x="1074" y="-7.5" font-family="FreeSans.ttf" font-size="10.00">vector</text>
</a>
</g>
</g>
<!-- Node2&#45;&gt;Node3 -->
<g id="edge2" class="edge">
<title>Node2&#45;&gt;Node3</title>
<path fill="none" stroke="midnightblue" d="M1119.08,-56.08C1111.22,-48.22 1099.57,-36.57 1090.08,-27.08"/>
<polygon fill="midnightblue" stroke="midnightblue" points="1092.3,-24.35 1082.75,-19.75 1087.35,-29.3 1092.3,-24.35"/>
</g>
<!-- Node4 -->
<g id="node4" class="node">
<title>Node4</title>
<g id="a_node4"><a xlink:title=" ">
<polygon fill="none" stroke="#bfbfbf" points="994,-0.5 994,-19.5 1032,-19.5 1032,-0.5 994,-0.5"/>
<text text-anchor="middle" x="1013" y="-7.5" font-family="FreeSans.ttf" font-size="10.00">map</text>
</a>
</g>
</g>
<!-- Node2&#45;&gt;Node4 -->
<g id="edge3" class="edge">
<title>Node2&#45;&gt;Node4</title>
<path fill="none" stroke="midnightblue" d="M1109.78,-56.44C1091.1,-47.68 1061.84,-33.94 1040.38,-23.86"/>
<polygon fill="midnightblue" stroke="midnightblue" points="1041.68,-20.6 1031.14,-19.52 1038.7,-26.93 1041.68,-20.6"/>
</g>
<!-- Node5 -->
<g id="node5" class="node">
<title>Node5</title>
<g id="a_node5"><a xlink:title=" ">
<polygon fill="none" stroke="#bfbfbf" points="1116,-0.5 1116,-19.5 1250,-19.5 1250,-0.5 1116,-0.5"/>
<text text-anchor="middle" x="1183" y="-7.5" font-family="FreeSans.ttf" font-size="10.00">yarp/dev/DeviceDriver.h</text>
</a>
</g>
</g>
<!-- Node2&#45;&gt;Node5 -->
<g id="edge4" class="edge">
<title>Node2&#45;&gt;Node5</title>
<path fill="none" stroke="midnightblue" d="M1137.08,-56.08C1145.17,-48.14 1157.2,-36.34 1166.91,-26.8"/>
<polygon fill="midnightblue" stroke="midnightblue" points="1169.4,-29.25 1174.09,-19.75 1164.5,-24.26 1169.4,-29.25"/>
</g>
<!-- Node6 -->
<g id="node6" class="node">
<title>Node6</title>
<g id="a_node6"><a xlink:title=" ">
<polygon fill="none" stroke="#bfbfbf" points="1268,-0.5 1268,-19.5 1408,-19.5 1408,-0.5 1268,-0.5"/>
<text text-anchor="middle" x="1338" y="-7.5" font-family="FreeSans.ttf" font-size="10.00">yarp/dev/IAnalogSensor.h</text>
</a>
</g>
</g>
<!-- Node2&#45;&gt;Node6 -->
<g id="edge5" class="edge">
<title>Node2&#45;&gt;Node6</title>
<path fill="none" stroke="midnightblue" d="M1161.28,-56.44C1197.45,-47.14 1255.38,-32.25 1294.98,-22.06"/>
<polygon fill="midnightblue" stroke="midnightblue" points="1296.07,-25.4 1304.88,-19.52 1294.32,-18.62 1296.07,-25.4"/>
</g>
<!-- Node7 -->
<g id="node7" class="node">
<title>Node7</title>
<g id="a_node7"><a xlink:title=" ">
<polygon fill="none" stroke="#bfbfbf" points="1426,-0.5 1426,-19.5 1522,-19.5 1522,-0.5 1426,-0.5"/>
<text text-anchor="middle" x="1474" y="-7.5" font-family="FreeSans.ttf" font-size="10.00">yarp/os/Stamp.h</text>
</a>
</g>
</g>
<!-- Node2&#45;&gt;Node7 -->
<g id="edge6" class="edge">
<title>Node2&#45;&gt;Node7</title>
<path fill="none" stroke="midnightblue" d="M1182.87,-56.49C1238.85,-47.8 1328.52,-33.86 1415.73,-20.2"/>
<polygon fill="midnightblue" stroke="midnightblue" points="1416.46,-23.62 1425.8,-18.62 1415.38,-16.71 1416.46,-23.62"/>
</g>
<!-- Node8 -->
<g id="node8" class="node">
<title>Node8</title>
<g id="a_node8"><a xlink:title=" ">
<polygon fill="none" stroke="#bfbfbf" points="1540.5,-0.5 1540.5,-19.5 1689.5,-19.5 1689.5,-0.5 1540.5,-0.5"/>
<text text-anchor="middle" x="1615" y="-7.5" font-family="FreeSans.ttf" font-size="10.00">yarp/dev/IPreciselyTimed.h</text>
</a>
</g>
</g>
<!-- Node2&#45;&gt;Node8 -->
<g id="edge7" class="edge">
<title>Node2&#45;&gt;Node8</title>
<path fill="none" stroke="midnightblue" d="M1193.36,-57.01C1196.28,-56.66 1199.17,-56.33 1202,-56 1263.54,-48.91 1428.45,-31.07 1530.29,-20.1"/>
<polygon fill="midnightblue" stroke="midnightblue" points="1530.68,-23.58 1540.25,-19.03 1529.94,-16.62 1530.68,-23.58"/>
</g>
<!-- Node9 -->
<g id="node9" class="node">
<title>Node9</title>
<g id="a_node9"><a xlink:title=" ">
<polygon fill="none" stroke="#bfbfbf" points="492.5,-0.5 492.5,-19.5 611.5,-19.5 611.5,-0.5 492.5,-0.5"/>
<text text-anchor="middle" x="552" y="-7.5" font-family="FreeSans.ttf" font-size="10.00">boost/shared_ptr.hpp</text>
</a>
</g>
</g>
<!-- Node2&#45;&gt;Node9 -->
<g id="edge8" class="edge">
<title>Node2&#45;&gt;Node9</title>
<path fill="none" stroke="midnightblue" d="M1062.69,-60.07C968.03,-52.73 786.95,-37.97 622.15,-20.08"/>
<polygon fill="midnightblue" stroke="midnightblue" points="622.14,-16.56 611.82,-18.96 621.38,-23.52 622.14,-16.56"/>
</g>
<!-- Node10 -->
<g id="node10" class="node">
<title>Node10</title>
<g id="a_node10"><a xlink:title=" ">
<polygon fill="none" stroke="#bfbfbf" points="928,-0.5 928,-19.5 976,-19.5 976,-0.5 928,-0.5"/>
<text text-anchor="middle" x="952" y="-7.5" font-family="FreeSans.ttf" font-size="10.00">mutex</text>
</a>
</g>
</g>
<!-- Node2&#45;&gt;Node10 -->
<g id="edge9" class="edge">
<title>Node2&#45;&gt;Node10</title>
<path fill="none" stroke="midnightblue" d="M1100.11,-56.44C1069.1,-46.93 1019.02,-31.56 985.81,-21.37"/>
<polygon fill="midnightblue" stroke="midnightblue" points="986.67,-17.98 976.08,-18.39 984.61,-24.67 986.67,-17.98"/>
</g>
<!-- Node11&#45;&gt;Node9 -->
<g id="edge12" class="edge">
<title>Node11&#45;&gt;Node9</title>
<path fill="none" stroke="midnightblue" d="M447.65,-56.44C467.96,-47.6 499.9,-33.69 523.1,-23.59"/>
<polygon fill="midnightblue" stroke="midnightblue" points="524.67,-26.72 532.44,-19.52 521.88,-20.3 524.67,-26.72"/>
</g>
<!-- Node12 -->
<g id="node12" class="node">
<title>Node12</title>
<g id="a_node12"><a xlink:title=" ">
<polygon fill="none" stroke="#bfbfbf" points="381.5,-0.5 381.5,-19.5 474.5,-19.5 474.5,-0.5 381.5,-0.5"/>
<text text-anchor="middle" x="428" y="-7.5" font-family="FreeSans.ttf" font-size="10.00">sdf/sdf_config.h</text>
</a>
</g>
</g>
<!-- Node11&#45;&gt;Node12 -->
<g id="edge11" class="edge">
<title>Node11&#45;&gt;Node12</title>
<path fill="none" stroke="midnightblue" d="M428,-56.08C428,-49.01 428,-38.86 428,-29.99"/>
<polygon fill="midnightblue" stroke="midnightblue" points="431.5,-29.75 428,-19.75 424.5,-29.75 431.5,-29.75"/>
</g>
<!-- Node13 -->
<g id="node13" class="node">
<title>Node13</title>
<g id="a_node13"><a xlink:title=" ">
<polygon fill="none" stroke="#bfbfbf" points="192.5,-0.5 192.5,-19.5 363.5,-19.5 363.5,-0.5 192.5,-0.5"/>
<text text-anchor="middle" x="278" y="-7.5" font-family="FreeSans.ttf" font-size="10.00">gazebo/sensors/SensorTypes.hh</text>
</a>
</g>
</g>
<!-- Node11&#45;&gt;Node13 -->
<g id="edge13" class="edge">
<title>Node11&#45;&gt;Node13</title>
<path fill="none" stroke="midnightblue" d="M404.23,-56.44C379.11,-47.4 339.29,-33.06 311.1,-22.92"/>
<polygon fill="midnightblue" stroke="midnightblue" points="312.25,-19.61 301.66,-19.52 309.88,-26.2 312.25,-19.61"/>
</g>
<!-- Node14 -->
<g id="node14" class="node">
<title>Node14</title>
<g id="a_node14"><a xlink:title=" ">
<polygon fill="none" stroke="#bfbfbf" points="0,-0.5 0,-19.5 174,-19.5 174,-0.5 0,-0.5"/>
<text text-anchor="middle" x="87" y="-7.5" font-family="FreeSans.ttf" font-size="10.00">gazebo/physics/PhysicsTypes.hh</text>
</a>
</g>
</g>
<!-- Node11&#45;&gt;Node14 -->
<g id="edge14" class="edge">
<title>Node11&#45;&gt;Node14</title>
<path fill="none" stroke="midnightblue" d="M373.97,-56.44C313.36,-46.85 215.14,-31.29 150.8,-21.1"/>
<polygon fill="midnightblue" stroke="midnightblue" points="151.2,-17.62 140.78,-19.52 150.11,-24.54 151.2,-17.62"/>
</g>
<!-- Node15&#45;&gt;Node4 -->
<g id="edge16" class="edge">
<title>Node15&#45;&gt;Node4</title>
<path fill="none" stroke="midnightblue" d="M867.82,-56.46C895.09,-48.06 938.09,-34.78 983.91,-20.32"/>
<polygon fill="midnightblue" stroke="midnightblue" points="985.25,-23.57 993.73,-17.22 983.14,-16.9 985.25,-23.57"/>
</g>
<!-- Node15&#45;&gt;Node9 -->
<g id="edge18" class="edge">
<title>Node15&#45;&gt;Node9</title>
<path fill="none" stroke="midnightblue" d="M794.37,-56.44C743.7,-46.94 661.93,-31.61 607.57,-21.42"/>
<polygon fill="midnightblue" stroke="midnightblue" points="607.89,-17.92 597.42,-19.52 606.6,-24.8 607.89,-17.92"/>
</g>
<!-- Node15&#45;&gt;Node10 -->
<g id="edge19" class="edge">
<title>Node15&#45;&gt;Node10</title>
<path fill="none" stroke="midnightblue" d="M857.99,-56.32C876.04,-47.62 904.05,-34.12 924.8,-24.11"/>
<polygon fill="midnightblue" stroke="midnightblue" points="926.56,-27.15 934.05,-19.65 923.52,-20.84 926.56,-27.15"/>
</g>
<!-- Node15&#45;&gt;Node12 -->
<g id="edge17" class="edge">
<title>Node15&#45;&gt;Node12</title>
<path fill="none" stroke="midnightblue" d="M766.05,-56.48C696.04,-48.24 587.71,-35 484.74,-20.21"/>
<polygon fill="midnightblue" stroke="midnightblue" points="485.19,-16.74 474.79,-18.78 484.19,-23.67 485.19,-16.74"/>
</g>
<!-- Node16 -->
<g id="node16" class="node">
<title>Node16</title>
<g id="a_node16"><a xlink:title=" ">
<polygon fill="none" stroke="#bfbfbf" points="630,-0.5 630,-19.5 752,-19.5 752,-0.5 630,-0.5"/>
<text text-anchor="middle" x="691" y="-7.5" font-family="FreeSans.ttf" font-size="10.00">yarp/dev/PolyDriver.h</text>
</a>
</g>
</g>
<!-- Node15&#45;&gt;Node16 -->
<g id="edge20" class="edge">
<title>Node15&#45;&gt;Node16</title>
<path fill="none" stroke="midnightblue" d="M816.39,-56.44C791.54,-47.44 752.23,-33.19 724.25,-23.05"/>
<polygon fill="midnightblue" stroke="midnightblue" points="725.09,-19.63 714.5,-19.52 722.71,-26.21 725.09,-19.63"/>
</g>
<!-- Node17 -->
<g id="node17" class="node">
<title>Node17</title>
<g id="a_node17"><a xlink:title=" ">
<polygon fill="none" stroke="#bfbfbf" points="770,-0.5 770,-19.5 910,-19.5 910,-0.5 770,-0.5"/>
<text text-anchor="middle" x="840" y="-7.5" font-family="FreeSans.ttf" font-size="10.00">yarp/dev/PolyDriverList.h</text>
</a>
</g>
</g>
<!-- Node15&#45;&gt;Node17 -->
<g id="edge21" class="edge">
<title>Node15&#45;&gt;Node17</title>
<path fill="none" stroke="midnightblue" d="M840,-56.08C840,-49.01 840,-38.86 840,-29.99"/>
<polygon fill="midnightblue" stroke="midnightblue" points="843.5,-29.75 840,-19.75 836.5,-29.75 843.5,-29.75"/>
</g>
<!-- Node19 -->
<g id="node19" class="node">
<title>Node19</title>
<g id="a_node19"><a xlink:title=" ">
<polygon fill="none" stroke="#bfbfbf" points="1773,-0.5 1773,-19.5 1817,-19.5 1817,-0.5 1773,-0.5"/>
<text text-anchor="middle" x="1795" y="-7.5" font-family="FreeSans.ttf" font-size="10.00">string</text>
</a>
</g>
</g>
<!-- Node18&#45;&gt;Node19 -->
<g id="edge23" class="edge">
<title>Node18&#45;&gt;Node19</title>
<path fill="none" stroke="midnightblue" d="M1375.26,-56.94C1378.55,-56.62 1381.81,-56.31 1385,-56 1550.13,-40.08 1596.02,-51.27 1762.67,-19.92"/>
<polygon fill="midnightblue" stroke="midnightblue" points="1763.6,-23.31 1772.77,-18 1762.29,-16.43 1763.6,-23.31"/>
</g>
<!-- Node20 -->
<g id="node20" class="node">
<title>Node20</title>
<g id="a_node20"><a xlink:title=" ">
<polygon fill="none" stroke="#bfbfbf" points="1707.5,-0.5 1707.5,-19.5 1754.5,-19.5 1754.5,-0.5 1707.5,-0.5"/>
<text text-anchor="middle" x="1731" y="-7.5" font-family="FreeSans.ttf" font-size="10.00">cmath</text>
</a>
</g>
</g>
<!-- Node18&#45;&gt;Node20 -->
<g id="edge24" class="edge">
<title>Node18&#45;&gt;Node20</title>
<path fill="none" stroke="midnightblue" d="M1375.4,-56.6C1477.39,-46.09 1643.4,-28.62 1697.34,-19.89"/>
<polygon fill="midnightblue" stroke="midnightblue" points="1698.1,-23.31 1707.34,-18.12 1696.88,-16.42 1698.1,-23.31"/>
</g>
</g>
</svg>
