<?xml version="1.0" encoding="UTF-8" standalone="no"?>
<!DOCTYPE svg PUBLIC "-//W3C//DTD SVG 1.1//EN"
 "http://www.w3.org/Graphics/SVG/1.1/DTD/svg11.dtd">
<!-- Generated by graphviz version 2.43.0 (0)
 -->
<!-- Title: inertialMTBPart.cc Pages: 1 -->
<svg width="2163pt" height="140pt"
 viewBox="0.00 0.00 2163.00 140.00" xmlns="http://www.w3.org/2000/svg" xmlns:xlink="http://www.w3.org/1999/xlink">
<g id="graph0" class="graph" transform="scale(1 1) rotate(0) translate(4 136)">
<title>inertialMTBPart.cc</title>
<!-- Node1 -->
<g id="node1" class="node">
<title>Node1</title>
<g id="a_node1"><a xlink:title=" ">
<polygon fill="#bfbfbf" stroke="black" points="1226.5,-112.5 1226.5,-131.5 1331.5,-131.5 1331.5,-112.5 1226.5,-112.5"/>
<text text-anchor="middle" x="1279" y="-119.5" font-family="FreeSans.ttf" font-size="10.00">inertialMTBPart.cc</text>
</a>
</g>
</g>
<!-- Node2 -->
<g id="node2" class="node">
<title>Node2</title>
<g id="a_node2"><a xlink:href="inertialMTBPart_8hh.html" target="_top" xlink:title=" ">
<polygon fill="none" stroke="black" points="261.5,-56.5 261.5,-75.5 368.5,-75.5 368.5,-56.5 261.5,-56.5"/>
<text text-anchor="middle" x="315" y="-63.5" font-family="FreeSans.ttf" font-size="10.00">inertialMTBPart.hh</text>
</a>
</g>
</g>
<!-- Node1&#45;&gt;Node2 -->
<g id="edge1" class="edge">
<title>Node1&#45;&gt;Node2</title>
<path fill="none" stroke="midnightblue" d="M1226.32,-120.06C1088.76,-117.25 707.28,-107.12 378.77,-75.97"/>
<polygon fill="midnightblue" stroke="midnightblue" points="378.86,-72.46 368.58,-75 378.2,-79.43 378.86,-72.46"/>
</g>
<!-- Node4 -->
<g id="node4" class="node">
<title>Node4</title>
<g id="a_node4"><a xlink:title=" ">
<polygon fill="none" stroke="#bfbfbf" points="466,-0.5 466,-19.5 588,-19.5 588,-0.5 466,-0.5"/>
<text text-anchor="middle" x="527" y="-7.5" font-family="FreeSans.ttf" font-size="10.00">yarp/dev/PolyDriver.h</text>
</a>
</g>
</g>
<!-- Node1&#45;&gt;Node4 -->
<g id="edge31" class="edge">
<title>Node1&#45;&gt;Node4</title>
<path fill="none" stroke="midnightblue" d="M1226.32,-113.75C1162.88,-104.98 1053.1,-89.7 959,-76 829,-57.08 677.15,-34.01 592.53,-21.06"/>
<polygon fill="midnightblue" stroke="midnightblue" points="592.97,-17.59 582.55,-19.53 591.91,-24.51 592.97,-17.59"/>
</g>
<!-- Node7 -->
<g id="node7" class="node">
<title>Node7</title>
<g id="a_node7"><a xlink:href="inertialMTBPartDriver_8h.html" target="_top" xlink:title=" ">
<polygon fill="none" stroke="black" points="1132,-56.5 1132,-75.5 1262,-75.5 1262,-56.5 1132,-56.5"/>
<text text-anchor="middle" x="1197" y="-63.5" font-family="FreeSans.ttf" font-size="10.00">inertialMTBPartDriver.h</text>
</a>
</g>
</g>
<!-- Node1&#45;&gt;Node7 -->
<g id="edge6" class="edge">
<title>Node1&#45;&gt;Node7</title>
<path fill="none" stroke="midnightblue" d="M1265.83,-112.32C1253.15,-103.98 1233.77,-91.21 1218.79,-81.35"/>
<polygon fill="midnightblue" stroke="midnightblue" points="1220.42,-78.23 1210.14,-75.65 1216.57,-84.08 1220.42,-78.23"/>
</g>
<!-- Node16 -->
<g id="node16" class="node">
<title>Node16</title>
<g id="a_node16"><a xlink:title=" ">
<polygon fill="none" stroke="#bfbfbf" points="968,-56.5 968,-75.5 1114,-75.5 1114,-56.5 968,-56.5"/>
<text text-anchor="middle" x="1041" y="-63.5" font-family="FreeSans.ttf" font-size="10.00">gazebo/physics/physics.hh</text>
</a>
</g>
</g>
<!-- Node1&#45;&gt;Node16 -->
<g id="edge15" class="edge">
<title>Node1&#45;&gt;Node16</title>
<path fill="none" stroke="midnightblue" d="M1241.29,-112.44C1199.86,-103.04 1133.24,-87.93 1088.33,-77.74"/>
<polygon fill="midnightblue" stroke="midnightblue" points="1089.06,-74.32 1078.54,-75.52 1087.51,-81.14 1089.06,-74.32"/>
</g>
<!-- Node17 -->
<g id="node17" class="node">
<title>Node17</title>
<g id="a_node17"><a xlink:href="Handler_8hh.html" target="_top" xlink:title=" ">
<polygon fill="none" stroke="black" points="1280,-56.5 1280,-75.5 1444,-75.5 1444,-56.5 1280,-56.5"/>
<text text-anchor="middle" x="1362" y="-63.5" font-family="FreeSans.ttf" font-size="10.00">GazeboYarpPlugins/Handler.hh</text>
</a>
</g>
</g>
<!-- Node1&#45;&gt;Node17 -->
<g id="edge16" class="edge">
<title>Node1&#45;&gt;Node17</title>
<path fill="none" stroke="midnightblue" d="M1292.34,-112.32C1305.16,-103.98 1324.78,-91.21 1339.94,-81.35"/>
<polygon fill="midnightblue" stroke="midnightblue" points="1342.22,-84.04 1348.7,-75.65 1338.41,-78.17 1342.22,-84.04"/>
</g>
<!-- Node20 -->
<g id="node20" class="node">
<title>Node20</title>
<g id="a_node20"><a xlink:href="common_8h.html" target="_top" xlink:title=" ">
<polygon fill="none" stroke="black" points="387,-56.5 387,-75.5 551,-75.5 551,-56.5 387,-56.5"/>
<text text-anchor="middle" x="469" y="-63.5" font-family="FreeSans.ttf" font-size="10.00">GazeboYarpPlugins/common.h</text>
</a>
</g>
</g>
<!-- Node1&#45;&gt;Node20 -->
<g id="edge23" class="edge">
<title>Node1&#45;&gt;Node20</title>
<path fill="none" stroke="midnightblue" d="M1226.48,-117.5C1091.63,-108.51 731.89,-84.53 561.26,-73.15"/>
<polygon fill="midnightblue" stroke="midnightblue" points="561.25,-69.64 551.04,-72.47 560.79,-76.63 561.25,-69.64"/>
</g>
<!-- Node22 -->
<g id="node22" class="node">
<title>Node22</title>
<g id="a_node22"><a xlink:href="ConfHelpers_8hh.html" target="_top" xlink:title=" ">
<polygon fill="none" stroke="black" points="1485.5,-56.5 1485.5,-75.5 1672.5,-75.5 1672.5,-56.5 1485.5,-56.5"/>
<text text-anchor="middle" x="1579" y="-63.5" font-family="FreeSans.ttf" font-size="10.00">GazeboYarpPlugins/ConfHelpers.hh</text>
</a>
</g>
</g>
<!-- Node1&#45;&gt;Node22 -->
<g id="edge26" class="edge">
<title>Node1&#45;&gt;Node22</title>
<path fill="none" stroke="midnightblue" d="M1326.54,-112.44C1379.53,-102.9 1465.2,-87.48 1521.82,-77.29"/>
<polygon fill="midnightblue" stroke="midnightblue" points="1522.46,-80.73 1531.69,-75.52 1521.22,-73.84 1522.46,-80.73"/>
</g>
<!-- Node25 -->
<g id="node25" class="node">
<title>Node25</title>
<g id="a_node25"><a xlink:title=" ">
<polygon fill="none" stroke="#bfbfbf" points="1690,-56.5 1690,-75.5 1796,-75.5 1796,-56.5 1690,-56.5"/>
<text text-anchor="middle" x="1743" y="-63.5" font-family="FreeSans.ttf" font-size="10.00">yarp/os/Network.h</text>
</a>
</g>
</g>
<!-- Node1&#45;&gt;Node25 -->
<g id="edge32" class="edge">
<title>Node1&#45;&gt;Node25</title>
<path fill="none" stroke="midnightblue" d="M1331.56,-115.73C1406.6,-108.07 1549.04,-93.05 1679.61,-76.28"/>
<polygon fill="midnightblue" stroke="midnightblue" points="1680.32,-79.72 1689.79,-74.96 1679.42,-72.77 1680.32,-79.72"/>
</g>
<!-- Node26 -->
<g id="node26" class="node">
<title>Node26</title>
<g id="a_node26"><a xlink:title=" ">
<polygon fill="none" stroke="#bfbfbf" points="1814,-56.5 1814,-75.5 1896,-75.5 1896,-56.5 1814,-56.5"/>
<text text-anchor="middle" x="1855" y="-63.5" font-family="FreeSans.ttf" font-size="10.00">yarp/os/Log.h</text>
</a>
</g>
</g>
<!-- Node1&#45;&gt;Node26 -->
<g id="edge33" class="edge">
<title>Node1&#45;&gt;Node26</title>
<path fill="none" stroke="midnightblue" d="M1331.81,-118.11C1425.02,-112.65 1625,-99.35 1803.73,-76.05"/>
<polygon fill="midnightblue" stroke="midnightblue" points="1804.39,-79.5 1813.85,-74.72 1803.48,-72.56 1804.39,-79.5"/>
</g>
<!-- Node27 -->
<g id="node27" class="node">
<title>Node27</title>
<g id="a_node27"><a xlink:title=" ">
<polygon fill="none" stroke="#bfbfbf" points="1914.5,-56.5 1914.5,-75.5 2031.5,-75.5 2031.5,-56.5 1914.5,-56.5"/>
<text text-anchor="middle" x="1973" y="-63.5" font-family="FreeSans.ttf" font-size="10.00">yarp/os/LogStream.h</text>
</a>
</g>
</g>
<!-- Node1&#45;&gt;Node27 -->
<g id="edge34" class="edge">
<title>Node1&#45;&gt;Node27</title>
<path fill="none" stroke="midnightblue" d="M1331.86,-118.27C1438.12,-112.55 1685.45,-98.07 1904.35,-76"/>
<polygon fill="midnightblue" stroke="midnightblue" points="1904.83,-79.47 1914.42,-74.98 1904.12,-72.51 1904.83,-79.47"/>
</g>
<!-- Node3 -->
<g id="node3" class="node">
<title>Node3</title>
<g id="a_node3"><a xlink:title=" ">
<polygon fill="none" stroke="#bfbfbf" points="0,-0.5 0,-19.5 146,-19.5 146,-0.5 0,-0.5"/>
<text text-anchor="middle" x="73" y="-7.5" font-family="FreeSans.ttf" font-size="10.00">gazebo/common/Plugin.hh</text>
</a>
</g>
</g>
<!-- Node2&#45;&gt;Node3 -->
<g id="edge2" class="edge">
<title>Node2&#45;&gt;Node3</title>
<path fill="none" stroke="midnightblue" d="M276.65,-56.44C234.53,-47.04 166.79,-31.93 121.13,-21.74"/>
<polygon fill="midnightblue" stroke="midnightblue" points="121.69,-18.28 111.17,-19.52 120.16,-25.11 121.69,-18.28"/>
</g>
<!-- Node2&#45;&gt;Node4 -->
<g id="edge3" class="edge">
<title>Node2&#45;&gt;Node4</title>
<path fill="none" stroke="midnightblue" d="M348.59,-56.44C385.19,-47.12 443.84,-32.18 483.83,-22"/>
<polygon fill="midnightblue" stroke="midnightblue" points="484.74,-25.38 493.57,-19.52 483.01,-18.59 484.74,-25.38"/>
</g>
<!-- Node5 -->
<g id="node5" class="node">
<title>Node5</title>
<g id="a_node5"><a xlink:title=" ">
<polygon fill="none" stroke="#bfbfbf" points="164.5,-0.5 164.5,-19.5 319.5,-19.5 319.5,-0.5 164.5,-0.5"/>
<text text-anchor="middle" x="242" y="-7.5" font-family="FreeSans.ttf" font-size="10.00">yarp/dev/IMultipleWrapper.h</text>
</a>
</g>
</g>
<!-- Node2&#45;&gt;Node5 -->
<g id="edge4" class="edge">
<title>Node2&#45;&gt;Node5</title>
<path fill="none" stroke="midnightblue" d="M303.27,-56.32C292.16,-48.11 275.26,-35.6 262.02,-25.81"/>
<polygon fill="midnightblue" stroke="midnightblue" points="264.06,-22.97 253.94,-19.83 259.9,-28.59 264.06,-22.97"/>
</g>
<!-- Node6 -->
<g id="node6" class="node">
<title>Node6</title>
<g id="a_node6"><a xlink:title=" ">
<polygon fill="none" stroke="#bfbfbf" points="338,-0.5 338,-19.5 382,-19.5 382,-0.5 338,-0.5"/>
<text text-anchor="middle" x="360" y="-7.5" font-family="FreeSans.ttf" font-size="10.00">string</text>
</a>
</g>
</g>
<!-- Node2&#45;&gt;Node6 -->
<g id="edge5" class="edge">
<title>Node2&#45;&gt;Node6</title>
<path fill="none" stroke="midnightblue" d="M322.43,-56.08C328.85,-48.38 338.31,-37.03 346.12,-27.65"/>
<polygon fill="midnightblue" stroke="midnightblue" points="348.99,-29.67 352.71,-19.75 343.62,-25.19 348.99,-29.67"/>
</g>
<!-- Node8 -->
<g id="node8" class="node">
<title>Node8</title>
<g id="a_node8"><a xlink:title=" ">
<polygon fill="none" stroke="#bfbfbf" points="773.5,-0.5 773.5,-19.5 820.5,-19.5 820.5,-0.5 773.5,-0.5"/>
<text text-anchor="middle" x="797" y="-7.5" font-family="FreeSans.ttf" font-size="10.00">vector</text>
</a>
</g>
</g>
<!-- Node7&#45;&gt;Node8 -->
<g id="edge7" class="edge">
<title>Node7&#45;&gt;Node8</title>
<path fill="none" stroke="midnightblue" d="M1131.77,-57.06C1038.51,-45.7 874.24,-25.67 830.8,-19.49"/>
<polygon fill="midnightblue" stroke="midnightblue" points="831.12,-16 820.7,-17.9 830.03,-22.91 831.12,-16"/>
</g>
<!-- Node9 -->
<g id="node9" class="node">
<title>Node9</title>
<g id="a_node9"><a xlink:title=" ">
<polygon fill="none" stroke="#bfbfbf" points="1263,-0.5 1263,-19.5 1301,-19.5 1301,-0.5 1263,-0.5"/>
<text text-anchor="middle" x="1282" y="-7.5" font-family="FreeSans.ttf" font-size="10.00">map</text>
</a>
</g>
</g>
<!-- Node7&#45;&gt;Node9 -->
<g id="edge8" class="edge">
<title>Node7&#45;&gt;Node9</title>
<path fill="none" stroke="midnightblue" d="M1210.66,-56.32C1223.92,-47.9 1244.27,-34.97 1259.85,-25.07"/>
<polygon fill="midnightblue" stroke="midnightblue" points="1261.81,-27.97 1268.38,-19.65 1258.06,-22.06 1261.81,-27.97"/>
</g>
<!-- Node10 -->
<g id="node10" class="node">
<title>Node10</title>
<g id="a_node10"><a xlink:title=" ">
<polygon fill="none" stroke="#bfbfbf" points="839,-0.5 839,-19.5 973,-19.5 973,-0.5 839,-0.5"/>
<text text-anchor="middle" x="906" y="-7.5" font-family="FreeSans.ttf" font-size="10.00">yarp/dev/DeviceDriver.h</text>
</a>
</g>
</g>
<!-- Node7&#45;&gt;Node10 -->
<g id="edge9" class="edge">
<title>Node7&#45;&gt;Node10</title>
<path fill="none" stroke="midnightblue" d="M1150.89,-56.44C1099.59,-46.92 1016.73,-31.55 961.81,-21.36"/>
<polygon fill="midnightblue" stroke="midnightblue" points="962.36,-17.9 951.89,-19.52 961.09,-24.78 962.36,-17.9"/>
</g>
<!-- Node11 -->
<g id="node11" class="node">
<title>Node11</title>
<g id="a_node11"><a xlink:title=" ">
<polygon fill="none" stroke="#bfbfbf" points="991,-0.5 991,-19.5 1131,-19.5 1131,-0.5 991,-0.5"/>
<text text-anchor="middle" x="1061" y="-7.5" font-family="FreeSans.ttf" font-size="10.00">yarp/dev/IAnalogSensor.h</text>
</a>
</g>
</g>
<!-- Node7&#45;&gt;Node11 -->
<g id="edge10" class="edge">
<title>Node7&#45;&gt;Node11</title>
<path fill="none" stroke="midnightblue" d="M1175.45,-56.44C1152.97,-47.52 1117.51,-33.44 1092.02,-23.32"/>
<polygon fill="midnightblue" stroke="midnightblue" points="1093.03,-19.95 1082.45,-19.52 1090.45,-26.46 1093.03,-19.95"/>
</g>
<!-- Node12 -->
<g id="node12" class="node">
<title>Node12</title>
<g id="a_node12"><a xlink:title=" ">
<polygon fill="none" stroke="#bfbfbf" points="1149,-0.5 1149,-19.5 1245,-19.5 1245,-0.5 1149,-0.5"/>
<text text-anchor="middle" x="1197" y="-7.5" font-family="FreeSans.ttf" font-size="10.00">yarp/os/Stamp.h</text>
</a>
</g>
</g>
<!-- Node7&#45;&gt;Node12 -->
<g id="edge11" class="edge">
<title>Node7&#45;&gt;Node12</title>
<path fill="none" stroke="midnightblue" d="M1197,-56.08C1197,-49.01 1197,-38.86 1197,-29.99"/>
<polygon fill="midnightblue" stroke="midnightblue" points="1200.5,-29.75 1197,-19.75 1193.5,-29.75 1200.5,-29.75"/>
</g>
<!-- Node13 -->
<g id="node13" class="node">
<title>Node13</title>
<g id="a_node13"><a xlink:title=" ">
<polygon fill="none" stroke="#bfbfbf" points="606.5,-0.5 606.5,-19.5 755.5,-19.5 755.5,-0.5 606.5,-0.5"/>
<text text-anchor="middle" x="681" y="-7.5" font-family="FreeSans.ttf" font-size="10.00">yarp/dev/IPreciselyTimed.h</text>
</a>
</g>
</g>
<!-- Node7&#45;&gt;Node13 -->
<g id="edge12" class="edge">
<title>Node7&#45;&gt;Node13</title>
<path fill="none" stroke="midnightblue" d="M1131.64,-56.98C1128.72,-56.64 1125.83,-56.31 1123,-56 967.32,-38.71 925.75,-36.6 765.85,-20.08"/>
<polygon fill="midnightblue" stroke="midnightblue" points="765.96,-16.57 755.65,-19.02 765.24,-23.54 765.96,-16.57"/>
</g>
<!-- Node14 -->
<g id="node14" class="node">
<title>Node14</title>
<g id="a_node14"><a xlink:title=" ">
<polygon fill="none" stroke="#bfbfbf" points="1543.5,-0.5 1543.5,-19.5 1662.5,-19.5 1662.5,-0.5 1543.5,-0.5"/>
<text text-anchor="middle" x="1603" y="-7.5" font-family="FreeSans.ttf" font-size="10.00">boost/shared_ptr.hpp</text>
</a>
</g>
</g>
<!-- Node7&#45;&gt;Node14 -->
<g id="edge13" class="edge">
<title>Node7&#45;&gt;Node14</title>
<path fill="none" stroke="midnightblue" d="M1261.33,-56.44C1335.48,-46.58 1456.9,-30.43 1533.26,-20.28"/>
<polygon fill="midnightblue" stroke="midnightblue" points="1533.82,-23.73 1543.27,-18.94 1532.89,-16.79 1533.82,-23.73"/>
</g>
<!-- Node15 -->
<g id="node15" class="node">
<title>Node15</title>
<g id="a_node15"><a xlink:title=" ">
<polygon fill="none" stroke="#bfbfbf" points="1319,-0.5 1319,-19.5 1367,-19.5 1367,-0.5 1319,-0.5"/>
<text text-anchor="middle" x="1343" y="-7.5" font-family="FreeSans.ttf" font-size="10.00">mutex</text>
</a>
</g>
</g>
<!-- Node7&#45;&gt;Node15 -->
<g id="edge14" class="edge">
<title>Node7&#45;&gt;Node15</title>
<path fill="none" stroke="midnightblue" d="M1220.13,-56.44C1244.48,-47.44 1283.01,-33.19 1310.42,-23.05"/>
<polygon fill="midnightblue" stroke="midnightblue" points="1311.81,-26.27 1319.97,-19.52 1309.38,-19.7 1311.81,-26.27"/>
</g>
<!-- Node17&#45;&gt;Node4 -->
<g id="edge21" class="edge">
<title>Node17&#45;&gt;Node4</title>
<path fill="none" stroke="midnightblue" d="M1279.67,-56.69C1276.75,-56.45 1273.85,-56.22 1271,-56 975.68,-33.51 898.07,-46.55 598.46,-19.96"/>
<polygon fill="midnightblue" stroke="midnightblue" points="598.43,-16.44 588.16,-19.04 597.81,-23.42 598.43,-16.44"/>
</g>
<!-- Node17&#45;&gt;Node9 -->
<g id="edge17" class="edge">
<title>Node17&#45;&gt;Node9</title>
<path fill="none" stroke="midnightblue" d="M1349.15,-56.32C1336.78,-47.98 1317.87,-35.21 1303.26,-25.35"/>
<polygon fill="midnightblue" stroke="midnightblue" points="1305.07,-22.35 1294.82,-19.65 1301.15,-28.15 1305.07,-22.35"/>
</g>
<!-- Node17&#45;&gt;Node14 -->
<g id="edge19" class="edge">
<title>Node17&#45;&gt;Node14</title>
<path fill="none" stroke="midnightblue" d="M1400.19,-56.44C1442.14,-47.04 1509.59,-31.93 1555.07,-21.74"/>
<polygon fill="midnightblue" stroke="midnightblue" points="1556,-25.12 1564.99,-19.52 1554.47,-18.29 1556,-25.12"/>
</g>
<!-- Node17&#45;&gt;Node15 -->
<g id="edge20" class="edge">
<title>Node17&#45;&gt;Node15</title>
<path fill="none" stroke="midnightblue" d="M1358.86,-56.08C1356.32,-48.85 1352.64,-38.41 1349.47,-29.4"/>
<polygon fill="midnightblue" stroke="midnightblue" points="1352.7,-28.02 1346.08,-19.75 1346.1,-30.35 1352.7,-28.02"/>
</g>
<!-- Node18 -->
<g id="node18" class="node">
<title>Node18</title>
<g id="a_node18"><a xlink:title=" ">
<polygon fill="none" stroke="#bfbfbf" points="1680.5,-0.5 1680.5,-19.5 1773.5,-19.5 1773.5,-0.5 1680.5,-0.5"/>
<text text-anchor="middle" x="1727" y="-7.5" font-family="FreeSans.ttf" font-size="10.00">sdf/sdf_config.h</text>
</a>
</g>
</g>
<!-- Node17&#45;&gt;Node18 -->
<g id="edge18" class="edge">
<title>Node17&#45;&gt;Node18</title>
<path fill="none" stroke="midnightblue" d="M1422.93,-56.49C1483.28,-47.98 1578.61,-34.34 1670.47,-20.22"/>
<polygon fill="midnightblue" stroke="midnightblue" points="1671.15,-23.65 1680.5,-18.67 1670.08,-16.73 1671.15,-23.65"/>
</g>
<!-- Node19 -->
<g id="node19" class="node">
<title>Node19</title>
<g id="a_node19"><a xlink:title=" ">
<polygon fill="none" stroke="#bfbfbf" points="1385,-0.5 1385,-19.5 1525,-19.5 1525,-0.5 1385,-0.5"/>
<text text-anchor="middle" x="1455" y="-7.5" font-family="FreeSans.ttf" font-size="10.00">yarp/dev/PolyDriverList.h</text>
</a>
</g>
</g>
<!-- Node17&#45;&gt;Node19 -->
<g id="edge22" class="edge">
<title>Node17&#45;&gt;Node19</title>
<path fill="none" stroke="midnightblue" d="M1376.94,-56.32C1391.59,-47.82 1414.13,-34.73 1431.24,-24.8"/>
<polygon fill="midnightblue" stroke="midnightblue" points="1433.2,-27.7 1440.1,-19.65 1429.69,-21.65 1433.2,-27.7"/>
</g>
<!-- Node20&#45;&gt;Node6 -->
<g id="edge24" class="edge">
<title>Node20&#45;&gt;Node6</title>
<path fill="none" stroke="midnightblue" d="M451.49,-56.32C433.93,-47.62 406.67,-34.12 386.47,-24.11"/>
<polygon fill="midnightblue" stroke="midnightblue" points="387.98,-20.96 377.47,-19.65 384.88,-27.23 387.98,-20.96"/>
</g>
<!-- Node21 -->
<g id="node21" class="node">
<title>Node21</title>
<g id="a_node21"><a xlink:title=" ">
<polygon fill="none" stroke="#bfbfbf" points="400.5,-0.5 400.5,-19.5 447.5,-19.5 447.5,-0.5 400.5,-0.5"/>
<text text-anchor="middle" x="424" y="-7.5" font-family="FreeSans.ttf" font-size="10.00">cmath</text>
</a>
</g>
</g>
<!-- Node20&#45;&gt;Node21 -->
<g id="edge25" class="edge">
<title>Node20&#45;&gt;Node21</title>
<path fill="none" stroke="midnightblue" d="M461.57,-56.08C455.15,-48.38 445.69,-37.03 437.88,-27.65"/>
<polygon fill="midnightblue" stroke="midnightblue" points="440.38,-25.19 431.29,-19.75 435.01,-29.67 440.38,-25.19"/>
</g>
<!-- Node22&#45;&gt;Node14 -->
<g id="edge28" class="edge">
<title>Node22&#45;&gt;Node14</title>
<path fill="none" stroke="midnightblue" d="M1582.96,-56.08C1586.21,-48.77 1590.92,-38.18 1594.95,-29.1"/>
<polygon fill="midnightblue" stroke="midnightblue" points="1598.25,-30.31 1599.11,-19.75 1591.85,-27.47 1598.25,-30.31"/>
</g>
<!-- Node22&#45;&gt;Node18 -->
<g id="edge27" class="edge">
<title>Node22&#45;&gt;Node18</title>
<path fill="none" stroke="midnightblue" d="M1602.45,-56.44C1627.13,-47.44 1666.19,-33.19 1693.98,-23.05"/>
<polygon fill="midnightblue" stroke="midnightblue" points="1695.46,-26.23 1703.66,-19.52 1693.06,-19.66 1695.46,-26.23"/>
</g>
<!-- Node23 -->
<g id="node23" class="node">
<title>Node23</title>
<g id="a_node23"><a xlink:title=" ">
<polygon fill="none" stroke="#bfbfbf" points="1791.5,-0.5 1791.5,-19.5 1962.5,-19.5 1962.5,-0.5 1791.5,-0.5"/>
<text text-anchor="middle" x="1877" y="-7.5" font-family="FreeSans.ttf" font-size="10.00">gazebo/sensors/SensorTypes.hh</text>
</a>
</g>
</g>
<!-- Node22&#45;&gt;Node23 -->
<g id="edge29" class="edge">
<title>Node22&#45;&gt;Node23</title>
<path fill="none" stroke="midnightblue" d="M1626.22,-56.44C1678.75,-46.92 1763.61,-31.55 1819.85,-21.36"/>
<polygon fill="midnightblue" stroke="midnightblue" points="1820.79,-24.74 1830,-19.52 1819.54,-17.86 1820.79,-24.74"/>
</g>
<!-- Node24 -->
<g id="node24" class="node">
<title>Node24</title>
<g id="a_node24"><a xlink:title=" ">
<polygon fill="none" stroke="#bfbfbf" points="1981,-0.5 1981,-19.5 2155,-19.5 2155,-0.5 1981,-0.5"/>
<text text-anchor="middle" x="2068" y="-7.5" font-family="FreeSans.ttf" font-size="10.00">gazebo/physics/PhysicsTypes.hh</text>
</a>
</g>
</g>
<!-- Node22&#45;&gt;Node24 -->
<g id="edge30" class="edge">
<title>Node22&#45;&gt;Node24</title>
<path fill="none" stroke="midnightblue" d="M1656.21,-56.47C1744.41,-46.73 1888.41,-30.83 1980.64,-20.65"/>
<polygon fill="midnightblue" stroke="midnightblue" points="1981.23,-24.1 1990.79,-19.53 1980.46,-17.15 1981.23,-24.1"/>
</g>
</g>
</svg>
