<?xml version="1.0" encoding="UTF-8" standalone="no"?>
<!DOCTYPE svg PUBLIC "-//W3C//DTD SVG 1.1//EN"
 "http://www.w3.org/Graphics/SVG/1.1/DTD/svg11.dtd">
<!-- Generated by graphviz version 5.0.0 (20220707.2338)
 -->
<!-- Title: inertialMTB.cc Pages: 1 -->
<svg width="1499pt" height="140pt"
 viewBox="0.00 0.00 1499.00 140.00" xmlns="http://www.w3.org/2000/svg" xmlns:xlink="http://www.w3.org/1999/xlink">
<g id="graph0" class="graph" transform="scale(1 1) rotate(0) translate(4 136)">
<title>inertialMTB.cc</title>
<!-- Node1 -->
<g id="node1" class="node">
<title>Node1</title>
<g id="a_node1"><a xlink:title=" ">
<polygon fill="#bfbfbf" stroke="black" points="887,-112.5 887,-131.5 973,-131.5 973,-112.5 887,-112.5"/>
<text text-anchor="middle" x="930" y="-119.5" font-family="FreeSans.ttf" font-size="10.00">inertialMTB.cc</text>
</a>
</g>
</g>
<!-- Node2 -->
<g id="node2" class="node">
<title>Node2</title>
<g id="a_node2"><a xlink:href="inertialMTB_8hh.html" target="_top" xlink:title=" ">
<polygon fill="none" stroke="black" points="102,-56.5 102,-75.5 190,-75.5 190,-56.5 102,-56.5"/>
<text text-anchor="middle" x="146" y="-63.5" font-family="FreeSans.ttf" font-size="10.00">inertialMTB.hh</text>
</a>
</g>
</g>
<!-- Node1&#45;&gt;Node2 -->
<g id="edge1" class="edge">
<title>Node1&#45;&gt;Node2</title>
<path fill="none" stroke="midnightblue" d="M886.6,-119.94C774.66,-116.88 466.84,-106.25 200.45,-76.04"/>
<polygon fill="midnightblue" stroke="midnightblue" points="200.53,-72.53 190.2,-74.87 199.73,-79.48 200.53,-72.53"/>
</g>
<!-- Node5 -->
<g id="node5" class="node">
<title>Node5</title>
<g id="a_node5"><a xlink:href="Handler_8hh.html" target="_top" xlink:title=" ">
<polygon fill="none" stroke="black" points="848,-56.5 848,-75.5 1012,-75.5 1012,-56.5 848,-56.5"/>
<text text-anchor="middle" x="930" y="-63.5" font-family="FreeSans.ttf" font-size="10.00">GazeboYarpPlugins/Handler.hh</text>
</a>
</g>
</g>
<!-- Node1&#45;&gt;Node5 -->
<g id="edge4" class="edge">
<title>Node1&#45;&gt;Node5</title>
<path fill="none" stroke="midnightblue" d="M930,-112.08C930,-105.01 930,-94.86 930,-85.99"/>
<polygon fill="midnightblue" stroke="midnightblue" points="933.5,-85.75 930,-75.75 926.5,-85.75 933.5,-85.75"/>
</g>
<!-- Node13 -->
<g id="node13" class="node">
<title>Node13</title>
<g id="a_node13"><a xlink:href="common_8h.html" target="_top" xlink:title=" ">
<polygon fill="none" stroke="black" points="208,-56.5 208,-75.5 372,-75.5 372,-56.5 208,-56.5"/>
<text text-anchor="middle" x="290" y="-63.5" font-family="FreeSans.ttf" font-size="10.00">GazeboYarpPlugins/common.h</text>
</a>
</g>
</g>
<!-- Node1&#45;&gt;Node13 -->
<g id="edge12" class="edge">
<title>Node1&#45;&gt;Node13</title>
<path fill="none" stroke="midnightblue" d="M886.76,-117.35C783.9,-108.67 522.73,-86.64 382.45,-74.8"/>
<polygon fill="midnightblue" stroke="midnightblue" points="382.41,-71.28 372.15,-73.93 381.82,-78.26 382.41,-71.28"/>
</g>
<!-- Node15 -->
<g id="node15" class="node">
<title>Node15</title>
<g id="a_node15"><a xlink:href="ConfHelpers_8hh.html" target="_top" xlink:title=" ">
<polygon fill="none" stroke="black" points="626.5,-56.5 626.5,-75.5 813.5,-75.5 813.5,-56.5 626.5,-56.5"/>
<text text-anchor="middle" x="720" y="-63.5" font-family="FreeSans.ttf" font-size="10.00">GazeboYarpPlugins/ConfHelpers.hh</text>
</a>
</g>
</g>
<!-- Node1&#45;&gt;Node15 -->
<g id="edge15" class="edge">
<title>Node1&#45;&gt;Node15</title>
<path fill="none" stroke="midnightblue" d="M896.72,-112.44C860.55,-103.14 802.62,-88.25 763.02,-78.06"/>
<polygon fill="midnightblue" stroke="midnightblue" points="763.68,-74.62 753.12,-75.52 761.93,-81.4 763.68,-74.62"/>
</g>
<!-- Node18 -->
<g id="node18" class="node">
<title>Node18</title>
<g id="a_node18"><a xlink:title=" ">
<polygon fill="none" stroke="#bfbfbf" points="1030.5,-56.5 1030.5,-75.5 1191.5,-75.5 1191.5,-56.5 1030.5,-56.5"/>
<text text-anchor="middle" x="1111" y="-63.5" font-family="FreeSans.ttf" font-size="10.00">gazebo/sensors/ImuSensor.hh</text>
</a>
</g>
</g>
<!-- Node1&#45;&gt;Node18 -->
<g id="edge20" class="edge">
<title>Node1&#45;&gt;Node18</title>
<path fill="none" stroke="midnightblue" d="M958.68,-112.44C989.53,-103.24 1038.73,-88.56 1072.83,-78.39"/>
<polygon fill="midnightblue" stroke="midnightblue" points="1073.87,-81.73 1082.45,-75.52 1071.87,-75.02 1073.87,-81.73"/>
</g>
<!-- Node19 -->
<g id="node19" class="node">
<title>Node19</title>
<g id="a_node19"><a xlink:title=" ">
<polygon fill="none" stroke="#bfbfbf" points="1210,-56.5 1210,-75.5 1292,-75.5 1292,-56.5 1210,-56.5"/>
<text text-anchor="middle" x="1251" y="-63.5" font-family="FreeSans.ttf" font-size="10.00">yarp/os/Log.h</text>
</a>
</g>
</g>
<!-- Node1&#45;&gt;Node19 -->
<g id="edge21" class="edge">
<title>Node1&#45;&gt;Node19</title>
<path fill="none" stroke="midnightblue" d="M973.21,-114.01C1024.73,-105.63 1113.72,-91.04 1199.86,-76.18"/>
<polygon fill="midnightblue" stroke="midnightblue" points="1200.55,-79.61 1209.81,-74.46 1199.36,-72.71 1200.55,-79.61"/>
</g>
<!-- Node20 -->
<g id="node20" class="node">
<title>Node20</title>
<g id="a_node20"><a xlink:title=" ">
<polygon fill="none" stroke="#bfbfbf" points="1310.5,-56.5 1310.5,-75.5 1427.5,-75.5 1427.5,-56.5 1310.5,-56.5"/>
<text text-anchor="middle" x="1369" y="-63.5" font-family="FreeSans.ttf" font-size="10.00">yarp/os/LogStream.h</text>
</a>
</g>
</g>
<!-- Node1&#45;&gt;Node20 -->
<g id="edge22" class="edge">
<title>Node1&#45;&gt;Node20</title>
<path fill="none" stroke="midnightblue" d="M973.15,-115.92C1040.52,-107.96 1175.07,-91.91 1300.25,-76.08"/>
<polygon fill="midnightblue" stroke="midnightblue" points="1300.92,-79.53 1310.4,-74.8 1300.04,-72.58 1300.92,-79.53"/>
</g>
<!-- Node3 -->
<g id="node3" class="node">
<title>Node3</title>
<g id="a_node3"><a xlink:title=" ">
<polygon fill="none" stroke="#bfbfbf" points="0,-0.5 0,-19.5 146,-19.5 146,-0.5 0,-0.5"/>
<text text-anchor="middle" x="73" y="-7.5" font-family="FreeSans.ttf" font-size="10.00">gazebo/common/Plugin.hh</text>
</a>
</g>
</g>
<!-- Node2&#45;&gt;Node3 -->
<g id="edge2" class="edge">
<title>Node2&#45;&gt;Node3</title>
<path fill="none" stroke="midnightblue" d="M134.27,-56.32C123.16,-48.11 106.26,-35.6 93.02,-25.81"/>
<polygon fill="midnightblue" stroke="midnightblue" points="95.06,-22.97 84.94,-19.83 90.9,-28.59 95.06,-22.97"/>
</g>
<!-- Node4 -->
<g id="node4" class="node">
<title>Node4</title>
<g id="a_node4"><a xlink:title=" ">
<polygon fill="none" stroke="#bfbfbf" points="164,-0.5 164,-19.5 208,-19.5 208,-0.5 164,-0.5"/>
<text text-anchor="middle" x="186" y="-7.5" font-family="FreeSans.ttf" font-size="10.00">string</text>
</a>
</g>
</g>
<!-- Node2&#45;&gt;Node4 -->
<g id="edge3" class="edge">
<title>Node2&#45;&gt;Node4</title>
<path fill="none" stroke="midnightblue" d="M152.61,-56.08C158.26,-48.46 166.54,-37.26 173.45,-27.94"/>
<polygon fill="midnightblue" stroke="midnightblue" points="176.38,-29.87 179.52,-19.75 170.75,-25.7 176.38,-29.87"/>
</g>
<!-- Node6 -->
<g id="node6" class="node">
<title>Node6</title>
<g id="a_node6"><a xlink:title=" ">
<polygon fill="none" stroke="#bfbfbf" points="1453,-0.5 1453,-19.5 1491,-19.5 1491,-0.5 1453,-0.5"/>
<text text-anchor="middle" x="1472" y="-7.5" font-family="FreeSans.ttf" font-size="10.00">map</text>
</a>
</g>
</g>
<!-- Node5&#45;&gt;Node6 -->
<g id="edge5" class="edge">
<title>Node5&#45;&gt;Node6</title>
<path fill="none" stroke="midnightblue" d="M1012.25,-56.9C1015.55,-56.59 1018.8,-56.29 1022,-56 1206.59,-39.12 1258.4,-57.43 1442.94,-20.02"/>
<polygon fill="midnightblue" stroke="midnightblue" points="1443.89,-23.4 1452.98,-17.96 1442.48,-16.55 1443.89,-23.4"/>
</g>
<!-- Node7 -->
<g id="node7" class="node">
<title>Node7</title>
<g id="a_node7"><a xlink:title=" ">
<polygon fill="none" stroke="#bfbfbf" points="673.5,-0.5 673.5,-19.5 766.5,-19.5 766.5,-0.5 673.5,-0.5"/>
<text text-anchor="middle" x="720" y="-7.5" font-family="FreeSans.ttf" font-size="10.00">sdf/sdf_config.h</text>
</a>
</g>
</g>
<!-- Node5&#45;&gt;Node7 -->
<g id="edge6" class="edge">
<title>Node5&#45;&gt;Node7</title>
<path fill="none" stroke="midnightblue" d="M896.72,-56.44C860.55,-47.14 802.62,-32.25 763.02,-22.06"/>
<polygon fill="midnightblue" stroke="midnightblue" points="763.68,-18.62 753.12,-19.52 761.93,-25.4 763.68,-18.62"/>
</g>
<!-- Node8 -->
<g id="node8" class="node">
<title>Node8</title>
<g id="a_node8"><a xlink:title=" ">
<polygon fill="none" stroke="#bfbfbf" points="784.5,-0.5 784.5,-19.5 903.5,-19.5 903.5,-0.5 784.5,-0.5"/>
<text text-anchor="middle" x="844" y="-7.5" font-family="FreeSans.ttf" font-size="10.00">boost/shared_ptr.hpp</text>
</a>
</g>
</g>
<!-- Node5&#45;&gt;Node8 -->
<g id="edge7" class="edge">
<title>Node5&#45;&gt;Node8</title>
<path fill="none" stroke="midnightblue" d="M916.18,-56.32C902.77,-47.9 882.18,-34.97 866.41,-25.07"/>
<polygon fill="midnightblue" stroke="midnightblue" points="868.11,-22.01 857.78,-19.65 864.39,-27.94 868.11,-22.01"/>
</g>
<!-- Node9 -->
<g id="node9" class="node">
<title>Node9</title>
<g id="a_node9"><a xlink:title=" ">
<polygon fill="none" stroke="#bfbfbf" points="922,-0.5 922,-19.5 970,-19.5 970,-0.5 922,-0.5"/>
<text text-anchor="middle" x="946" y="-7.5" font-family="FreeSans.ttf" font-size="10.00">mutex</text>
</a>
</g>
</g>
<!-- Node5&#45;&gt;Node9 -->
<g id="edge8" class="edge">
<title>Node5&#45;&gt;Node9</title>
<path fill="none" stroke="midnightblue" d="M932.64,-56.08C934.79,-48.85 937.88,-38.41 940.55,-29.4"/>
<polygon fill="midnightblue" stroke="midnightblue" points="943.92,-30.33 943.41,-19.75 937.21,-28.34 943.92,-30.33"/>
</g>
<!-- Node10 -->
<g id="node10" class="node">
<title>Node10</title>
<g id="a_node10"><a xlink:title=" ">
<polygon fill="none" stroke="#bfbfbf" points="988,-0.5 988,-19.5 1110,-19.5 1110,-0.5 988,-0.5"/>
<text text-anchor="middle" x="1049" y="-7.5" font-family="FreeSans.ttf" font-size="10.00">yarp/dev/PolyDriver.h</text>
</a>
</g>
</g>
<!-- Node5&#45;&gt;Node10 -->
<g id="edge9" class="edge">
<title>Node5&#45;&gt;Node10</title>
<path fill="none" stroke="midnightblue" d="M948.86,-56.44C968.27,-47.64 998.73,-33.81 1020.96,-23.72"/>
<polygon fill="midnightblue" stroke="midnightblue" points="1022.57,-26.84 1030.23,-19.52 1019.68,-20.46 1022.57,-26.84"/>
</g>
<!-- Node11 -->
<g id="node11" class="node">
<title>Node11</title>
<g id="a_node11"><a xlink:title=" ">
<polygon fill="none" stroke="#bfbfbf" points="1128,-0.5 1128,-19.5 1268,-19.5 1268,-0.5 1128,-0.5"/>
<text text-anchor="middle" x="1198" y="-7.5" font-family="FreeSans.ttf" font-size="10.00">yarp/dev/PolyDriverList.h</text>
</a>
</g>
</g>
<!-- Node5&#45;&gt;Node11 -->
<g id="edge10" class="edge">
<title>Node5&#45;&gt;Node11</title>
<path fill="none" stroke="midnightblue" d="M972.47,-56.44C1019.41,-46.98 1095.08,-31.74 1145.65,-21.55"/>
<polygon fill="midnightblue" stroke="midnightblue" points="1146.62,-24.92 1155.73,-19.52 1145.24,-18.06 1146.62,-24.92"/>
</g>
<!-- Node12 -->
<g id="node12" class="node">
<title>Node12</title>
<g id="a_node12"><a xlink:title=" ">
<polygon fill="none" stroke="#bfbfbf" points="1286.5,-0.5 1286.5,-19.5 1435.5,-19.5 1435.5,-0.5 1286.5,-0.5"/>
<text text-anchor="middle" x="1361" y="-7.5" font-family="FreeSans.ttf" font-size="10.00">gazebo/common/Events.hh</text>
</a>
</g>
</g>
<!-- Node5&#45;&gt;Node12 -->
<g id="edge11" class="edge">
<title>Node5&#45;&gt;Node12</title>
<path fill="none" stroke="midnightblue" d="M998.29,-56.44C1075.69,-46.75 1201.6,-30.97 1282.85,-20.79"/>
<polygon fill="midnightblue" stroke="midnightblue" points="1283.54,-24.23 1293.03,-19.52 1282.67,-17.29 1283.54,-24.23"/>
</g>
<!-- Node13&#45;&gt;Node4 -->
<g id="edge13" class="edge">
<title>Node13&#45;&gt;Node4</title>
<path fill="none" stroke="midnightblue" d="M273.29,-56.32C256.69,-47.7 231,-34.36 211.78,-24.39"/>
<polygon fill="midnightblue" stroke="midnightblue" points="213.16,-21.16 202.67,-19.65 209.93,-27.37 213.16,-21.16"/>
</g>
<!-- Node14 -->
<g id="node14" class="node">
<title>Node14</title>
<g id="a_node14"><a xlink:title=" ">
<polygon fill="none" stroke="#bfbfbf" points="226.5,-0.5 226.5,-19.5 273.5,-19.5 273.5,-0.5 226.5,-0.5"/>
<text text-anchor="middle" x="250" y="-7.5" font-family="FreeSans.ttf" font-size="10.00">cmath</text>
</a>
</g>
</g>
<!-- Node13&#45;&gt;Node14 -->
<g id="edge14" class="edge">
<title>Node13&#45;&gt;Node14</title>
<path fill="none" stroke="midnightblue" d="M283.39,-56.08C277.74,-48.46 269.46,-37.26 262.55,-27.94"/>
<polygon fill="midnightblue" stroke="midnightblue" points="265.25,-25.7 256.48,-19.75 259.62,-29.87 265.25,-25.7"/>
</g>
<!-- Node15&#45;&gt;Node7 -->
<g id="edge16" class="edge">
<title>Node15&#45;&gt;Node7</title>
<path fill="none" stroke="midnightblue" d="M720,-56.08C720,-49.01 720,-38.86 720,-29.99"/>
<polygon fill="midnightblue" stroke="midnightblue" points="723.5,-29.75 720,-19.75 716.5,-29.75 723.5,-29.75"/>
</g>
<!-- Node15&#45;&gt;Node8 -->
<g id="edge17" class="edge">
<title>Node15&#45;&gt;Node8</title>
<path fill="none" stroke="midnightblue" d="M739.65,-56.44C759.96,-47.6 791.9,-33.69 815.1,-23.59"/>
<polygon fill="midnightblue" stroke="midnightblue" points="816.67,-26.72 824.44,-19.52 813.88,-20.3 816.67,-26.72"/>
</g>
<!-- Node16 -->
<g id="node16" class="node">
<title>Node16</title>
<g id="a_node16"><a xlink:title=" ">
<polygon fill="none" stroke="#bfbfbf" points="291.5,-0.5 291.5,-19.5 462.5,-19.5 462.5,-0.5 291.5,-0.5"/>
<text text-anchor="middle" x="377" y="-7.5" font-family="FreeSans.ttf" font-size="10.00">gazebo/sensors/SensorTypes.hh</text>
</a>
</g>
</g>
<!-- Node15&#45;&gt;Node16 -->
<g id="edge18" class="edge">
<title>Node15&#45;&gt;Node16</title>
<path fill="none" stroke="midnightblue" d="M665.65,-56.44C604.69,-46.85 505.89,-31.29 441.18,-21.1"/>
<polygon fill="midnightblue" stroke="midnightblue" points="441.52,-17.61 431.1,-19.52 440.43,-24.53 441.52,-17.61"/>
</g>
<!-- Node17 -->
<g id="node17" class="node">
<title>Node17</title>
<g id="a_node17"><a xlink:title=" ">
<polygon fill="none" stroke="#bfbfbf" points="481,-0.5 481,-19.5 655,-19.5 655,-0.5 481,-0.5"/>
<text text-anchor="middle" x="568" y="-7.5" font-family="FreeSans.ttf" font-size="10.00">gazebo/physics/PhysicsTypes.hh</text>
</a>
</g>
</g>
<!-- Node15&#45;&gt;Node17 -->
<g id="edge19" class="edge">
<title>Node15&#45;&gt;Node17</title>
<path fill="none" stroke="midnightblue" d="M695.92,-56.44C670.46,-47.4 630.11,-33.06 601.54,-22.92"/>
<polygon fill="midnightblue" stroke="midnightblue" points="602.57,-19.57 591.97,-19.52 600.22,-26.16 602.57,-19.57"/>
</g>
</g>
</svg>
