<?xml version="1.0" encoding="UTF-8" standalone="no"?>
<!DOCTYPE svg PUBLIC "-//W3C//DTD SVG 1.1//EN"
 "http://www.w3.org/Graphics/SVG/1.1/DTD/svg11.dtd">
<!-- Generated by graphviz version 2.43.0 (0)
 -->
<!-- Title: inertialMTBPart.hh Pages: 1 -->
<svg width="530pt" height="84pt"
 viewBox="0.00 0.00 530.00 84.00" xmlns="http://www.w3.org/2000/svg" xmlns:xlink="http://www.w3.org/1999/xlink">
<g id="graph0" class="graph" transform="scale(1 1) rotate(0) translate(4 80)">
<title>inertialMTBPart.hh</title>
<!-- Node1 -->
<g id="node1" class="node">
<title>Node1</title>
<g id="a_node1"><a xlink:title=" ">
<polygon fill="#bfbfbf" stroke="black" points="249.5,-56.5 249.5,-75.5 356.5,-75.5 356.5,-56.5 249.5,-56.5"/>
<text text-anchor="middle" x="303" y="-63.5" font-family="FreeSans.ttf" font-size="10.00">inertialMTBPart.hh</text>
</a>
</g>
</g>
<!-- Node2 -->
<g id="node2" class="node">
<title>Node2</title>
<g id="a_node2"><a xlink:title=" ">
<polygon fill="none" stroke="#bfbfbf" points="0,-0.5 0,-19.5 146,-19.5 146,-0.5 0,-0.5"/>
<text text-anchor="middle" x="73" y="-7.5" font-family="FreeSans.ttf" font-size="10.00">gazebo/common/Plugin.hh</text>
</a>
</g>
</g>
<!-- Node1&#45;&gt;Node2 -->
<g id="edge1" class="edge">
<title>Node1&#45;&gt;Node2</title>
<path fill="none" stroke="midnightblue" d="M266.56,-56.44C226.6,-47.06 162.41,-31.99 119.02,-21.8"/>
<polygon fill="midnightblue" stroke="midnightblue" points="119.81,-18.39 109.27,-19.52 118.21,-25.21 119.81,-18.39"/>
</g>
<!-- Node3 -->
<g id="node3" class="node">
<title>Node3</title>
<g id="a_node3"><a xlink:title=" ">
<polygon fill="none" stroke="#bfbfbf" points="164,-0.5 164,-19.5 286,-19.5 286,-0.5 164,-0.5"/>
<text text-anchor="middle" x="225" y="-7.5" font-family="FreeSans.ttf" font-size="10.00">yarp/dev/PolyDriver.h</text>
</a>
</g>
</g>
<!-- Node1&#45;&gt;Node3 -->
<g id="edge2" class="edge">
<title>Node1&#45;&gt;Node3</title>
<path fill="none" stroke="midnightblue" d="M290.47,-56.32C278.41,-47.98 259.97,-35.21 245.73,-25.35"/>
<polygon fill="midnightblue" stroke="midnightblue" points="247.72,-22.47 237.5,-19.65 243.73,-28.22 247.72,-22.47"/>
</g>
<!-- Node4 -->
<g id="node4" class="node">
<title>Node4</title>
<g id="a_node4"><a xlink:title=" ">
<polygon fill="none" stroke="#bfbfbf" points="304.5,-0.5 304.5,-19.5 459.5,-19.5 459.5,-0.5 304.5,-0.5"/>
<text text-anchor="middle" x="382" y="-7.5" font-family="FreeSans.ttf" font-size="10.00">yarp/dev/IMultipleWrapper.h</text>
</a>
</g>
</g>
<!-- Node1&#45;&gt;Node4 -->
<g id="edge3" class="edge">
<title>Node1&#45;&gt;Node4</title>
<path fill="none" stroke="midnightblue" d="M315.69,-56.32C327.9,-47.98 346.58,-35.21 361,-25.35"/>
<polygon fill="midnightblue" stroke="midnightblue" points="363.06,-28.19 369.34,-19.65 359.11,-22.41 363.06,-28.19"/>
</g>
<!-- Node5 -->
<g id="node5" class="node">
<title>Node5</title>
<g id="a_node5"><a xlink:title=" ">
<polygon fill="none" stroke="#bfbfbf" points="478,-0.5 478,-19.5 522,-19.5 522,-0.5 478,-0.5"/>
<text text-anchor="middle" x="500" y="-7.5" font-family="FreeSans.ttf" font-size="10.00">string</text>
</a>
</g>
</g>
<!-- Node1&#45;&gt;Node5 -->
<g id="edge4" class="edge">
<title>Node1&#45;&gt;Node5</title>
<path fill="none" stroke="midnightblue" d="M335.18,-56.46C366.7,-48.05 416.32,-34.71 468.27,-20.17"/>
<polygon fill="midnightblue" stroke="midnightblue" points="469.32,-23.51 478,-17.44 467.42,-16.77 469.32,-23.51"/>
</g>
</g>
</svg>
