<?xml version="1.0" encoding="UTF-8" standalone="no"?>
<!DOCTYPE svg PUBLIC "-//W3C//DTD SVG 1.1//EN"
 "http://www.w3.org/Graphics/SVG/1.1/DTD/svg11.dtd">
<!-- Generated by graphviz version 2.43.0 (0)
 -->
<!-- Title: inertialMTB.cc Pages: 1 -->
<svg width="1398pt" height="140pt"
 viewBox="0.00 0.00 1397.50 140.00" xmlns="http://www.w3.org/2000/svg" xmlns:xlink="http://www.w3.org/1999/xlink">
<g id="graph0" class="graph" transform="scale(1 1) rotate(0) translate(4 136)">
<title>inertialMTB.cc</title>
<!-- Node1 -->
<g id="node1" class="node">
<title>Node1</title>
<g id="a_node1"><a xlink:title=" ">
<polygon fill="#bfbfbf" stroke="black" points="849,-112.5 849,-131.5 935,-131.5 935,-112.5 849,-112.5"/>
<text text-anchor="middle" x="892" y="-119.5" font-family="FreeSans.ttf" font-size="10.00">inertialMTB.cc</text>
</a>
</g>
</g>
<!-- Node2 -->
<g id="node2" class="node">
<title>Node2</title>
<g id="a_node2"><a xlink:href="inertialMTB_8hh.html" target="_top" xlink:title=" ">
<polygon fill="none" stroke="black" points="102,-56.5 102,-75.5 190,-75.5 190,-56.5 102,-56.5"/>
<text text-anchor="middle" x="146" y="-63.5" font-family="FreeSans.ttf" font-size="10.00">inertialMTB.hh</text>
</a>
</g>
</g>
<!-- Node1&#45;&gt;Node2 -->
<g id="edge1" class="edge">
<title>Node1&#45;&gt;Node2</title>
<path fill="none" stroke="midnightblue" d="M848.88,-119.75C741.19,-116.3 451.65,-104.97 200.25,-76.03"/>
<polygon fill="midnightblue" stroke="midnightblue" points="200.53,-72.54 190.2,-74.86 199.73,-79.49 200.53,-72.54"/>
</g>
<!-- Node5 -->
<g id="node5" class="node">
<title>Node5</title>
<g id="a_node5"><a xlink:href="Handler_8hh.html" target="_top" xlink:title=" ">
<polygon fill="none" stroke="black" points="810,-56.5 810,-75.5 974,-75.5 974,-56.5 810,-56.5"/>
<text text-anchor="middle" x="892" y="-63.5" font-family="FreeSans.ttf" font-size="10.00">GazeboYarpPlugins/Handler.hh</text>
</a>
</g>
</g>
<!-- Node1&#45;&gt;Node5 -->
<g id="edge4" class="edge">
<title>Node1&#45;&gt;Node5</title>
<path fill="none" stroke="midnightblue" d="M892,-112.08C892,-105.01 892,-94.86 892,-85.99"/>
<polygon fill="midnightblue" stroke="midnightblue" points="895.5,-85.75 892,-75.75 888.5,-85.75 895.5,-85.75"/>
</g>
<!-- Node12 -->
<g id="node12" class="node">
<title>Node12</title>
<g id="a_node12"><a xlink:href="common_8h.html" target="_top" xlink:title=" ">
<polygon fill="none" stroke="black" points="208,-56.5 208,-75.5 372,-75.5 372,-56.5 208,-56.5"/>
<text text-anchor="middle" x="290" y="-63.5" font-family="FreeSans.ttf" font-size="10.00">GazeboYarpPlugins/common.h</text>
</a>
</g>
</g>
<!-- Node1&#45;&gt;Node12 -->
<g id="edge11" class="edge">
<title>Node1&#45;&gt;Node12</title>
<path fill="none" stroke="midnightblue" d="M848.71,-117.12C751.49,-108.4 514.07,-87.1 382.16,-75.27"/>
<polygon fill="midnightblue" stroke="midnightblue" points="382.34,-71.77 372.07,-74.36 381.72,-78.74 382.34,-71.77"/>
</g>
<!-- Node14 -->
<g id="node14" class="node">
<title>Node14</title>
<g id="a_node14"><a xlink:href="ConfHelpers_8hh.html" target="_top" xlink:title=" ">
<polygon fill="none" stroke="black" points="604.5,-56.5 604.5,-75.5 791.5,-75.5 791.5,-56.5 604.5,-56.5"/>
<text text-anchor="middle" x="698" y="-63.5" font-family="FreeSans.ttf" font-size="10.00">GazeboYarpPlugins/ConfHelpers.hh</text>
</a>
</g>
</g>
<!-- Node1&#45;&gt;Node14 -->
<g id="edge14" class="edge">
<title>Node1&#45;&gt;Node14</title>
<path fill="none" stroke="midnightblue" d="M861.26,-112.44C828.06,-103.2 775.01,-88.44 738.44,-78.26"/>
<polygon fill="midnightblue" stroke="midnightblue" points="739.17,-74.83 728.6,-75.52 737.29,-81.57 739.17,-74.83"/>
</g>
<!-- Node17 -->
<g id="node17" class="node">
<title>Node17</title>
<g id="a_node17"><a xlink:title=" ">
<polygon fill="none" stroke="#bfbfbf" points="992.5,-56.5 992.5,-75.5 1153.5,-75.5 1153.5,-56.5 992.5,-56.5"/>
<text text-anchor="middle" x="1073" y="-63.5" font-family="FreeSans.ttf" font-size="10.00">gazebo/sensors/ImuSensor.hh</text>
</a>
</g>
</g>
<!-- Node1&#45;&gt;Node17 -->
<g id="edge19" class="edge">
<title>Node1&#45;&gt;Node17</title>
<path fill="none" stroke="midnightblue" d="M920.68,-112.44C951.53,-103.24 1000.73,-88.56 1034.83,-78.39"/>
<polygon fill="midnightblue" stroke="midnightblue" points="1035.87,-81.73 1044.45,-75.52 1033.87,-75.02 1035.87,-81.73"/>
</g>
<!-- Node18 -->
<g id="node18" class="node">
<title>Node18</title>
<g id="a_node18"><a xlink:title=" ">
<polygon fill="none" stroke="#bfbfbf" points="1172,-56.5 1172,-75.5 1254,-75.5 1254,-56.5 1172,-56.5"/>
<text text-anchor="middle" x="1213" y="-63.5" font-family="FreeSans.ttf" font-size="10.00">yarp/os/Log.h</text>
</a>
</g>
</g>
<!-- Node1&#45;&gt;Node18 -->
<g id="edge20" class="edge">
<title>Node1&#45;&gt;Node18</title>
<path fill="none" stroke="midnightblue" d="M935.21,-114.01C986.73,-105.63 1075.72,-91.04 1161.86,-76.18"/>
<polygon fill="midnightblue" stroke="midnightblue" points="1162.55,-79.61 1171.81,-74.46 1161.36,-72.71 1162.55,-79.61"/>
</g>
<!-- Node19 -->
<g id="node19" class="node">
<title>Node19</title>
<g id="a_node19"><a xlink:title=" ">
<polygon fill="none" stroke="#bfbfbf" points="1272.5,-56.5 1272.5,-75.5 1389.5,-75.5 1389.5,-56.5 1272.5,-56.5"/>
<text text-anchor="middle" x="1331" y="-63.5" font-family="FreeSans.ttf" font-size="10.00">yarp/os/LogStream.h</text>
</a>
</g>
</g>
<!-- Node1&#45;&gt;Node19 -->
<g id="edge21" class="edge">
<title>Node1&#45;&gt;Node19</title>
<path fill="none" stroke="midnightblue" d="M935.15,-115.92C1002.52,-107.96 1137.07,-91.91 1262.25,-76.08"/>
<polygon fill="midnightblue" stroke="midnightblue" points="1262.92,-79.53 1272.4,-74.8 1262.04,-72.58 1262.92,-79.53"/>
</g>
<!-- Node3 -->
<g id="node3" class="node">
<title>Node3</title>
<g id="a_node3"><a xlink:title=" ">
<polygon fill="none" stroke="#bfbfbf" points="0,-0.5 0,-19.5 146,-19.5 146,-0.5 0,-0.5"/>
<text text-anchor="middle" x="73" y="-7.5" font-family="FreeSans.ttf" font-size="10.00">gazebo/common/Plugin.hh</text>
</a>
</g>
</g>
<!-- Node2&#45;&gt;Node3 -->
<g id="edge2" class="edge">
<title>Node2&#45;&gt;Node3</title>
<path fill="none" stroke="midnightblue" d="M134.27,-56.32C123.16,-48.11 106.26,-35.6 93.02,-25.81"/>
<polygon fill="midnightblue" stroke="midnightblue" points="95.06,-22.97 84.94,-19.83 90.9,-28.59 95.06,-22.97"/>
</g>
<!-- Node4 -->
<g id="node4" class="node">
<title>Node4</title>
<g id="a_node4"><a xlink:title=" ">
<polygon fill="none" stroke="#bfbfbf" points="164,-0.5 164,-19.5 208,-19.5 208,-0.5 164,-0.5"/>
<text text-anchor="middle" x="186" y="-7.5" font-family="FreeSans.ttf" font-size="10.00">string</text>
</a>
</g>
</g>
<!-- Node2&#45;&gt;Node4 -->
<g id="edge3" class="edge">
<title>Node2&#45;&gt;Node4</title>
<path fill="none" stroke="midnightblue" d="M152.61,-56.08C158.26,-48.46 166.54,-37.26 173.45,-27.94"/>
<polygon fill="midnightblue" stroke="midnightblue" points="176.38,-29.87 179.52,-19.75 170.75,-25.7 176.38,-29.87"/>
</g>
<!-- Node6 -->
<g id="node6" class="node">
<title>Node6</title>
<g id="a_node6"><a xlink:title=" ">
<polygon fill="none" stroke="#bfbfbf" points="1286,-0.5 1286,-19.5 1324,-19.5 1324,-0.5 1286,-0.5"/>
<text text-anchor="middle" x="1305" y="-7.5" font-family="FreeSans.ttf" font-size="10.00">map</text>
</a>
</g>
</g>
<!-- Node5&#45;&gt;Node6 -->
<g id="edge5" class="edge">
<title>Node5&#45;&gt;Node6</title>
<path fill="none" stroke="midnightblue" d="M971.93,-56.5C1068.65,-46.09 1224.13,-28.93 1275.95,-19.66"/>
<polygon fill="midnightblue" stroke="midnightblue" points="1276.72,-23.07 1285.85,-17.7 1275.36,-16.21 1276.72,-23.07"/>
</g>
<!-- Node7 -->
<g id="node7" class="node">
<title>Node7</title>
<g id="a_node7"><a xlink:title=" ">
<polygon fill="none" stroke="#bfbfbf" points="810.5,-0.5 810.5,-19.5 903.5,-19.5 903.5,-0.5 810.5,-0.5"/>
<text text-anchor="middle" x="857" y="-7.5" font-family="FreeSans.ttf" font-size="10.00">sdf/sdf_config.h</text>
</a>
</g>
</g>
<!-- Node5&#45;&gt;Node7 -->
<g id="edge6" class="edge">
<title>Node5&#45;&gt;Node7</title>
<path fill="none" stroke="midnightblue" d="M886.22,-56.08C881.33,-48.53 874.17,-37.49 868.17,-28.23"/>
<polygon fill="midnightblue" stroke="midnightblue" points="871.05,-26.24 862.67,-19.75 865.17,-30.05 871.05,-26.24"/>
</g>
<!-- Node8 -->
<g id="node8" class="node">
<title>Node8</title>
<g id="a_node8"><a xlink:title=" ">
<polygon fill="none" stroke="#bfbfbf" points="673.5,-0.5 673.5,-19.5 792.5,-19.5 792.5,-0.5 673.5,-0.5"/>
<text text-anchor="middle" x="733" y="-7.5" font-family="FreeSans.ttf" font-size="10.00">boost/shared_ptr.hpp</text>
</a>
</g>
</g>
<!-- Node5&#45;&gt;Node8 -->
<g id="edge7" class="edge">
<title>Node5&#45;&gt;Node8</title>
<path fill="none" stroke="midnightblue" d="M866.81,-56.44C840.06,-47.36 797.6,-32.94 767.69,-22.78"/>
<polygon fill="midnightblue" stroke="midnightblue" points="768.67,-19.42 758.08,-19.52 766.42,-26.05 768.67,-19.42"/>
</g>
<!-- Node9 -->
<g id="node9" class="node">
<title>Node9</title>
<g id="a_node9"><a xlink:title=" ">
<polygon fill="none" stroke="#bfbfbf" points="922,-0.5 922,-19.5 970,-19.5 970,-0.5 922,-0.5"/>
<text text-anchor="middle" x="946" y="-7.5" font-family="FreeSans.ttf" font-size="10.00">mutex</text>
</a>
</g>
</g>
<!-- Node5&#45;&gt;Node9 -->
<g id="edge8" class="edge">
<title>Node5&#45;&gt;Node9</title>
<path fill="none" stroke="midnightblue" d="M900.92,-56.08C908.78,-48.22 920.43,-36.57 929.92,-27.08"/>
<polygon fill="midnightblue" stroke="midnightblue" points="932.65,-29.3 937.25,-19.75 927.7,-24.35 932.65,-29.3"/>
</g>
<!-- Node10 -->
<g id="node10" class="node">
<title>Node10</title>
<g id="a_node10"><a xlink:title=" ">
<polygon fill="none" stroke="#bfbfbf" points="988,-0.5 988,-19.5 1110,-19.5 1110,-0.5 988,-0.5"/>
<text text-anchor="middle" x="1049" y="-7.5" font-family="FreeSans.ttf" font-size="10.00">yarp/dev/PolyDriver.h</text>
</a>
</g>
</g>
<!-- Node5&#45;&gt;Node10 -->
<g id="edge9" class="edge">
<title>Node5&#45;&gt;Node10</title>
<path fill="none" stroke="midnightblue" d="M916.88,-56.44C943.29,-47.36 985.22,-32.94 1014.74,-22.78"/>
<polygon fill="midnightblue" stroke="midnightblue" points="1015.92,-26.08 1024.24,-19.52 1013.64,-19.46 1015.92,-26.08"/>
</g>
<!-- Node11 -->
<g id="node11" class="node">
<title>Node11</title>
<g id="a_node11"><a xlink:title=" ">
<polygon fill="none" stroke="#bfbfbf" points="1128,-0.5 1128,-19.5 1268,-19.5 1268,-0.5 1128,-0.5"/>
<text text-anchor="middle" x="1198" y="-7.5" font-family="FreeSans.ttf" font-size="10.00">yarp/dev/PolyDriverList.h</text>
</a>
</g>
</g>
<!-- Node5&#45;&gt;Node11 -->
<g id="edge10" class="edge">
<title>Node5&#45;&gt;Node11</title>
<path fill="none" stroke="midnightblue" d="M940.49,-56.44C994.54,-46.9 1081.93,-31.48 1139.67,-21.29"/>
<polygon fill="midnightblue" stroke="midnightblue" points="1140.5,-24.7 1149.74,-19.52 1139.28,-17.81 1140.5,-24.7"/>
</g>
<!-- Node12&#45;&gt;Node4 -->
<g id="edge12" class="edge">
<title>Node12&#45;&gt;Node4</title>
<path fill="none" stroke="midnightblue" d="M273.29,-56.32C256.69,-47.7 231,-34.36 211.78,-24.39"/>
<polygon fill="midnightblue" stroke="midnightblue" points="213.16,-21.16 202.67,-19.65 209.93,-27.37 213.16,-21.16"/>
</g>
<!-- Node13 -->
<g id="node13" class="node">
<title>Node13</title>
<g id="a_node13"><a xlink:title=" ">
<polygon fill="none" stroke="#bfbfbf" points="226.5,-0.5 226.5,-19.5 273.5,-19.5 273.5,-0.5 226.5,-0.5"/>
<text text-anchor="middle" x="250" y="-7.5" font-family="FreeSans.ttf" font-size="10.00">cmath</text>
</a>
</g>
</g>
<!-- Node12&#45;&gt;Node13 -->
<g id="edge13" class="edge">
<title>Node12&#45;&gt;Node13</title>
<path fill="none" stroke="midnightblue" d="M283.39,-56.08C277.74,-48.46 269.46,-37.26 262.55,-27.94"/>
<polygon fill="midnightblue" stroke="midnightblue" points="265.25,-25.7 256.48,-19.75 259.62,-29.87 265.25,-25.7"/>
</g>
<!-- Node14&#45;&gt;Node7 -->
<g id="edge15" class="edge">
<title>Node14&#45;&gt;Node7</title>
<path fill="none" stroke="midnightblue" d="M723.19,-56.44C749.94,-47.36 792.4,-32.94 822.31,-22.78"/>
<polygon fill="midnightblue" stroke="midnightblue" points="823.58,-26.05 831.92,-19.52 821.33,-19.42 823.58,-26.05"/>
</g>
<!-- Node14&#45;&gt;Node8 -->
<g id="edge16" class="edge">
<title>Node14&#45;&gt;Node8</title>
<path fill="none" stroke="midnightblue" d="M703.78,-56.08C708.67,-48.53 715.83,-37.49 721.83,-28.23"/>
<polygon fill="midnightblue" stroke="midnightblue" points="724.83,-30.05 727.33,-19.75 718.95,-26.24 724.83,-30.05"/>
</g>
<!-- Node15 -->
<g id="node15" class="node">
<title>Node15</title>
<g id="a_node15"><a xlink:title=" ">
<polygon fill="none" stroke="#bfbfbf" points="484.5,-0.5 484.5,-19.5 655.5,-19.5 655.5,-0.5 484.5,-0.5"/>
<text text-anchor="middle" x="570" y="-7.5" font-family="FreeSans.ttf" font-size="10.00">gazebo/sensors/SensorTypes.hh</text>
</a>
</g>
</g>
<!-- Node14&#45;&gt;Node15 -->
<g id="edge17" class="edge">
<title>Node14&#45;&gt;Node15</title>
<path fill="none" stroke="midnightblue" d="M677.72,-56.44C656.65,-47.56 623.48,-33.56 599.51,-23.45"/>
<polygon fill="midnightblue" stroke="midnightblue" points="600.76,-20.18 590.19,-19.52 598.04,-26.63 600.76,-20.18"/>
</g>
<!-- Node16 -->
<g id="node16" class="node">
<title>Node16</title>
<g id="a_node16"><a xlink:title=" ">
<polygon fill="none" stroke="#bfbfbf" points="292,-0.5 292,-19.5 466,-19.5 466,-0.5 292,-0.5"/>
<text text-anchor="middle" x="379" y="-7.5" font-family="FreeSans.ttf" font-size="10.00">gazebo/physics/PhysicsTypes.hh</text>
</a>
</g>
</g>
<!-- Node14&#45;&gt;Node16 -->
<g id="edge18" class="edge">
<title>Node14&#45;&gt;Node16</title>
<path fill="none" stroke="midnightblue" d="M647.45,-56.44C590.99,-46.89 499.63,-31.42 439.43,-21.23"/>
<polygon fill="midnightblue" stroke="midnightblue" points="439.75,-17.73 429.31,-19.52 438.59,-24.64 439.75,-17.73"/>
</g>
</g>
</svg>
