<?xml version="1.0" encoding="UTF-8" standalone="no"?>
<!DOCTYPE svg PUBLIC "-//W3C//DTD SVG 1.1//EN"
 "http://www.w3.org/Graphics/SVG/1.1/DTD/svg11.dtd">
<!-- Generated by graphviz version 5.0.1 (20220821.0811)
 -->
<!-- Title: inertialMTBPartDriver.cpp Pages: 1 -->
<svg width="2137pt" height="140pt"
 viewBox="0.00 0.00 2137.00 140.00" xmlns="http://www.w3.org/2000/svg" xmlns:xlink="http://www.w3.org/1999/xlink">
<g id="graph0" class="graph" transform="scale(1 1) rotate(0) translate(4 136)">
<title>inertialMTBPartDriver.cpp</title>
<!-- Node1 -->
<g id="node1" class="node">
<title>Node1</title>
<g id="a_node1"><a xlink:title=" ">
<polygon fill="#bfbfbf" stroke="black" points="1508,-112.5 1508,-131.5 1649,-131.5 1649,-112.5 1508,-112.5"/>
<text text-anchor="middle" x="1578.5" y="-119.5" font-family="FreeSans.ttf" font-size="10.00">inertialMTBPartDriver.cpp</text>
</a>
</g>
</g>
<!-- Node2 -->
<g id="node2" class="node">
<title>Node2</title>
<g id="a_node2"><a xlink:href="inertialMTBPartDriver_8h.html" target="_top" xlink:title=" ">
<polygon fill="none" stroke="black" points="1270.5,-56.5 1270.5,-75.5 1400.5,-75.5 1400.5,-56.5 1270.5,-56.5"/>
<text text-anchor="middle" x="1335.5" y="-63.5" font-family="FreeSans.ttf" font-size="10.00">inertialMTBPartDriver.h</text>
</a>
</g>
</g>
<!-- Node1&#45;&gt;Node2 -->
<g id="edge1" class="edge">
<title>Node1&#45;&gt;Node2</title>
<path fill="none" stroke="midnightblue" d="M1540,-112.44C1497.69,-103.04 1429.68,-87.93 1383.83,-77.74"/>
<polygon fill="midnightblue" stroke="midnightblue" points="1384.35,-74.27 1373.82,-75.52 1382.83,-81.1 1384.35,-74.27"/>
</g>
<!-- Node11 -->
<g id="node11" class="node">
<title>Node11</title>
<g id="a_node11"><a xlink:href="ConfHelpers_8hh.html" target="_top" xlink:title=" ">
<polygon fill="none" stroke="black" points="335,-56.5 335,-75.5 522,-75.5 522,-56.5 335,-56.5"/>
<text text-anchor="middle" x="428.5" y="-63.5" font-family="FreeSans.ttf" font-size="10.00">GazeboYarpPlugins/ConfHelpers.hh</text>
</a>
</g>
</g>
<!-- Node1&#45;&gt;Node11 -->
<g id="edge10" class="edge">
<title>Node1&#45;&gt;Node11</title>
<path fill="none" stroke="midnightblue" d="M1507.86,-117.68C1312.24,-108.5 762.73,-82.69 532.27,-71.87"/>
<polygon fill="midnightblue" stroke="midnightblue" points="532.36,-68.37 522.21,-71.4 532.03,-75.37 532.36,-68.37"/>
</g>
<!-- Node15 -->
<g id="node15" class="node">
<title>Node15</title>
<g id="a_node15"><a xlink:href="Handler_8hh.html" target="_top" xlink:title=" ">
<polygon fill="none" stroke="black" points="845.5,-56.5 845.5,-75.5 1009.5,-75.5 1009.5,-56.5 845.5,-56.5"/>
<text text-anchor="middle" x="927.5" y="-63.5" font-family="FreeSans.ttf" font-size="10.00">GazeboYarpPlugins/Handler.hh</text>
</a>
</g>
</g>
<!-- Node1&#45;&gt;Node15 -->
<g id="edge15" class="edge">
<title>Node1&#45;&gt;Node15</title>
<path fill="none" stroke="midnightblue" d="M1507.9,-115.14C1389.53,-105.32 1151.09,-85.55 1019.66,-74.64"/>
<polygon fill="midnightblue" stroke="midnightblue" points="1019.87,-71.15 1009.61,-73.81 1019.29,-78.13 1019.87,-71.15"/>
</g>
<!-- Node19 -->
<g id="node19" class="node">
<title>Node19</title>
<g id="a_node19"><a xlink:href="common_8h.html" target="_top" xlink:title=" ">
<polygon fill="none" stroke="black" points="1418.5,-56.5 1418.5,-75.5 1582.5,-75.5 1582.5,-56.5 1418.5,-56.5"/>
<text text-anchor="middle" x="1500.5" y="-63.5" font-family="FreeSans.ttf" font-size="10.00">GazeboYarpPlugins/common.h</text>
</a>
</g>
</g>
<!-- Node1&#45;&gt;Node19 -->
<g id="edge23" class="edge">
<title>Node1&#45;&gt;Node19</title>
<path fill="none" stroke="midnightblue" d="M1565.97,-112.32C1553.91,-103.98 1535.47,-91.21 1521.23,-81.35"/>
<polygon fill="midnightblue" stroke="midnightblue" points="1523.22,-78.47 1513,-75.65 1519.23,-84.22 1523.22,-78.47"/>
</g>
<!-- Node22 -->
<g id="node22" class="node">
<title>Node22</title>
<g id="a_node22"><a xlink:title=" ">
<polygon fill="none" stroke="#bfbfbf" points="1601,-56.5 1601,-75.5 1714,-75.5 1714,-56.5 1601,-56.5"/>
<text text-anchor="middle" x="1657.5" y="-63.5" font-family="FreeSans.ttf" font-size="10.00">boost/bind/bind.hpp</text>
</a>
</g>
</g>
<!-- Node1&#45;&gt;Node22 -->
<g id="edge26" class="edge">
<title>Node1&#45;&gt;Node22</title>
<path fill="none" stroke="midnightblue" d="M1591.19,-112.32C1603.4,-103.98 1622.08,-91.21 1636.5,-81.35"/>
<polygon fill="midnightblue" stroke="midnightblue" points="1638.56,-84.19 1644.84,-75.65 1634.61,-78.41 1638.56,-84.19"/>
</g>
<!-- Node23 -->
<g id="node23" class="node">
<title>Node23</title>
<g id="a_node23"><a xlink:title=" ">
<polygon fill="none" stroke="#bfbfbf" points="1732,-56.5 1732,-75.5 1893,-75.5 1893,-56.5 1732,-56.5"/>
<text text-anchor="middle" x="1812.5" y="-63.5" font-family="FreeSans.ttf" font-size="10.00">gazebo/sensors/ImuSensor.hh</text>
</a>
</g>
</g>
<!-- Node1&#45;&gt;Node23 -->
<g id="edge27" class="edge">
<title>Node1&#45;&gt;Node23</title>
<path fill="none" stroke="midnightblue" d="M1615.58,-112.44C1656.23,-103.06 1721.53,-87.99 1765.68,-77.8"/>
<polygon fill="midnightblue" stroke="midnightblue" points="1766.64,-81.18 1775.6,-75.52 1765.06,-74.35 1766.64,-81.18"/>
</g>
<!-- Node24 -->
<g id="node24" class="node">
<title>Node24</title>
<g id="a_node24"><a xlink:title=" ">
<polygon fill="none" stroke="#bfbfbf" points="1911.5,-56.5 1911.5,-75.5 1993.5,-75.5 1993.5,-56.5 1911.5,-56.5"/>
<text text-anchor="middle" x="1952.5" y="-63.5" font-family="FreeSans.ttf" font-size="10.00">yarp/os/Log.h</text>
</a>
</g>
</g>
<!-- Node1&#45;&gt;Node24 -->
<g id="edge28" class="edge">
<title>Node1&#45;&gt;Node24</title>
<path fill="none" stroke="midnightblue" d="M1645.63,-112.47C1709,-104.25 1806.92,-91.06 1901.31,-76.14"/>
<polygon fill="midnightblue" stroke="midnightblue" points="1902,-79.57 1911.32,-74.55 1900.9,-72.66 1902,-79.57"/>
</g>
<!-- Node25 -->
<g id="node25" class="node">
<title>Node25</title>
<g id="a_node25"><a xlink:title=" ">
<polygon fill="none" stroke="#bfbfbf" points="2012,-56.5 2012,-75.5 2129,-75.5 2129,-56.5 2012,-56.5"/>
<text text-anchor="middle" x="2070.5" y="-63.5" font-family="FreeSans.ttf" font-size="10.00">yarp/os/LogStream.h</text>
</a>
</g>
</g>
<!-- Node1&#45;&gt;Node25 -->
<g id="edge29" class="edge">
<title>Node1&#45;&gt;Node25</title>
<path fill="none" stroke="midnightblue" d="M1649.08,-114.07C1731.15,-105.89 1870.95,-91.56 2001.71,-76.07"/>
<polygon fill="midnightblue" stroke="midnightblue" points="2002.39,-79.51 2011.91,-74.85 2001.56,-72.56 2002.39,-79.51"/>
</g>
<!-- Node3 -->
<g id="node3" class="node">
<title>Node3</title>
<g id="a_node3"><a xlink:title=" ">
<polygon fill="none" stroke="#bfbfbf" points="1499,-0.5 1499,-19.5 1546,-19.5 1546,-0.5 1499,-0.5"/>
<text text-anchor="middle" x="1522.5" y="-7.5" font-family="FreeSans.ttf" font-size="10.00">vector</text>
</a>
</g>
</g>
<!-- Node2&#45;&gt;Node3 -->
<g id="edge2" class="edge">
<title>Node2&#45;&gt;Node3</title>
<path fill="none" stroke="midnightblue" d="M1365.13,-56.44C1398.87,-46.7 1453.88,-30.82 1489.11,-20.64"/>
<polygon fill="midnightblue" stroke="midnightblue" points="1490.29,-23.94 1498.93,-17.81 1488.35,-17.22 1490.29,-23.94"/>
</g>
<!-- Node4 -->
<g id="node4" class="node">
<title>Node4</title>
<g id="a_node4"><a xlink:title=" ">
<polygon fill="none" stroke="#bfbfbf" points="1095.5,-0.5 1095.5,-19.5 1133.5,-19.5 1133.5,-0.5 1095.5,-0.5"/>
<text text-anchor="middle" x="1114.5" y="-7.5" font-family="FreeSans.ttf" font-size="10.00">map</text>
</a>
</g>
</g>
<!-- Node2&#45;&gt;Node4 -->
<g id="edge3" class="edge">
<title>Node2&#45;&gt;Node4</title>
<path fill="none" stroke="midnightblue" d="M1294.59,-56.48C1257.5,-48.53 1201.14,-35.89 1143.7,-20.17"/>
<polygon fill="midnightblue" stroke="midnightblue" points="1144.29,-16.7 1133.72,-17.41 1142.42,-23.44 1144.29,-16.7"/>
</g>
<!-- Node5 -->
<g id="node5" class="node">
<title>Node5</title>
<g id="a_node5"><a xlink:title=" ">
<polygon fill="none" stroke="#bfbfbf" points="1564.5,-0.5 1564.5,-19.5 1698.5,-19.5 1698.5,-0.5 1564.5,-0.5"/>
<text text-anchor="middle" x="1631.5" y="-7.5" font-family="FreeSans.ttf" font-size="10.00">yarp/dev/DeviceDriver.h</text>
</a>
</g>
</g>
<!-- Node2&#45;&gt;Node5 -->
<g id="edge4" class="edge">
<title>Node2&#45;&gt;Node5</title>
<path fill="none" stroke="midnightblue" d="M1382.4,-56.44C1434.58,-46.92 1518.87,-31.55 1574.73,-21.36"/>
<polygon fill="midnightblue" stroke="midnightblue" points="1575.61,-24.75 1584.82,-19.52 1574.35,-17.87 1575.61,-24.75"/>
</g>
<!-- Node6 -->
<g id="node6" class="node">
<title>Node6</title>
<g id="a_node6"><a xlink:title=" ">
<polygon fill="none" stroke="#bfbfbf" points="1716.5,-0.5 1716.5,-19.5 1856.5,-19.5 1856.5,-0.5 1716.5,-0.5"/>
<text text-anchor="middle" x="1786.5" y="-7.5" font-family="FreeSans.ttf" font-size="10.00">yarp/dev/IAnalogSensor.h</text>
</a>
</g>
</g>
<!-- Node2&#45;&gt;Node6 -->
<g id="edge5" class="edge">
<title>Node2&#45;&gt;Node6</title>
<path fill="none" stroke="midnightblue" d="M1400.87,-57.04C1403.79,-56.69 1406.67,-56.34 1409.5,-56 1511.9,-43.66 1629.97,-29.59 1706.29,-20.52"/>
<polygon fill="midnightblue" stroke="midnightblue" points="1706.8,-23.99 1716.32,-19.33 1705.97,-17.03 1706.8,-23.99"/>
</g>
<!-- Node7 -->
<g id="node7" class="node">
<title>Node7</title>
<g id="a_node7"><a xlink:title=" ">
<polygon fill="none" stroke="#bfbfbf" points="1217.5,-0.5 1217.5,-19.5 1313.5,-19.5 1313.5,-0.5 1217.5,-0.5"/>
<text text-anchor="middle" x="1265.5" y="-7.5" font-family="FreeSans.ttf" font-size="10.00">yarp/os/Stamp.h</text>
</a>
</g>
</g>
<!-- Node2&#45;&gt;Node7 -->
<g id="edge6" class="edge">
<title>Node2&#45;&gt;Node7</title>
<path fill="none" stroke="midnightblue" d="M1324.25,-56.32C1313.7,-48.18 1297.7,-35.84 1285.06,-26.09"/>
<polygon fill="midnightblue" stroke="midnightblue" points="1287.01,-23.17 1276.95,-19.83 1282.73,-28.71 1287.01,-23.17"/>
</g>
<!-- Node8 -->
<g id="node8" class="node">
<title>Node8</title>
<g id="a_node8"><a xlink:title=" ">
<polygon fill="none" stroke="#bfbfbf" points="1332,-0.5 1332,-19.5 1481,-19.5 1481,-0.5 1332,-0.5"/>
<text text-anchor="middle" x="1406.5" y="-7.5" font-family="FreeSans.ttf" font-size="10.00">yarp/dev/IPreciselyTimed.h</text>
</a>
</g>
</g>
<!-- Node2&#45;&gt;Node8 -->
<g id="edge7" class="edge">
<title>Node2&#45;&gt;Node8</title>
<path fill="none" stroke="midnightblue" d="M1346.91,-56.32C1357.61,-48.18 1373.84,-35.84 1386.66,-26.09"/>
<polygon fill="midnightblue" stroke="midnightblue" points="1389.04,-28.67 1394.89,-19.83 1384.81,-23.1 1389.04,-28.67"/>
</g>
<!-- Node9 -->
<g id="node9" class="node">
<title>Node9</title>
<g id="a_node9"><a xlink:title=" ">
<polygon fill="none" stroke="#bfbfbf" points="792,-0.5 792,-19.5 911,-19.5 911,-0.5 792,-0.5"/>
<text text-anchor="middle" x="851.5" y="-7.5" font-family="FreeSans.ttf" font-size="10.00">boost/shared_ptr.hpp</text>
</a>
</g>
</g>
<!-- Node2&#45;&gt;Node9 -->
<g id="edge8" class="edge">
<title>Node2&#45;&gt;Node9</title>
<path fill="none" stroke="midnightblue" d="M1270.24,-58.43C1190.36,-50.27 1050.69,-35.66 921.29,-20.19"/>
<polygon fill="midnightblue" stroke="midnightblue" points="921.54,-16.7 911.19,-18.98 920.71,-23.65 921.54,-16.7"/>
</g>
<!-- Node10 -->
<g id="node10" class="node">
<title>Node10</title>
<g id="a_node10"><a xlink:title=" ">
<polygon fill="none" stroke="#bfbfbf" points="1151.5,-0.5 1151.5,-19.5 1199.5,-19.5 1199.5,-0.5 1151.5,-0.5"/>
<text text-anchor="middle" x="1175.5" y="-7.5" font-family="FreeSans.ttf" font-size="10.00">mutex</text>
</a>
</g>
</g>
<!-- Node2&#45;&gt;Node10 -->
<g id="edge9" class="edge">
<title>Node2&#45;&gt;Node10</title>
<path fill="none" stroke="midnightblue" d="M1310.15,-56.44C1282.91,-47.25 1239.5,-32.6 1209.36,-22.43"/>
<polygon fill="midnightblue" stroke="midnightblue" points="1210.28,-19.04 1199.69,-19.16 1208.04,-25.68 1210.28,-19.04"/>
</g>
<!-- Node11&#45;&gt;Node9 -->
<g id="edge12" class="edge">
<title>Node11&#45;&gt;Node9</title>
<path fill="none" stroke="midnightblue" d="M496.04,-56.48C565.06,-47.76 675.63,-33.75 781.44,-20.13"/>
<polygon fill="midnightblue" stroke="midnightblue" points="782.19,-23.57 791.66,-18.82 781.3,-16.62 782.19,-23.57"/>
</g>
<!-- Node12 -->
<g id="node12" class="node">
<title>Node12</title>
<g id="a_node12"><a xlink:title=" ">
<polygon fill="none" stroke="#bfbfbf" points="382,-0.5 382,-19.5 475,-19.5 475,-0.5 382,-0.5"/>
<text text-anchor="middle" x="428.5" y="-7.5" font-family="FreeSans.ttf" font-size="10.00">sdf/sdf_config.h</text>
</a>
</g>
</g>
<!-- Node11&#45;&gt;Node12 -->
<g id="edge11" class="edge">
<title>Node11&#45;&gt;Node12</title>
<path fill="none" stroke="midnightblue" d="M428.5,-56.08C428.5,-49.01 428.5,-38.86 428.5,-29.99"/>
<polygon fill="midnightblue" stroke="midnightblue" points="432,-29.75 428.5,-19.75 425,-29.75 432,-29.75"/>
</g>
<!-- Node13 -->
<g id="node13" class="node">
<title>Node13</title>
<g id="a_node13"><a xlink:title=" ">
<polygon fill="none" stroke="#bfbfbf" points="0,-0.5 0,-19.5 171,-19.5 171,-0.5 0,-0.5"/>
<text text-anchor="middle" x="85.5" y="-7.5" font-family="FreeSans.ttf" font-size="10.00">gazebo/sensors/SensorTypes.hh</text>
</a>
</g>
</g>
<!-- Node11&#45;&gt;Node13 -->
<g id="edge13" class="edge">
<title>Node11&#45;&gt;Node13</title>
<path fill="none" stroke="midnightblue" d="M374.15,-56.44C313.19,-46.85 214.39,-31.29 149.68,-21.1"/>
<polygon fill="midnightblue" stroke="midnightblue" points="150.02,-17.61 139.6,-19.52 148.93,-24.53 150.02,-17.61"/>
</g>
<!-- Node14 -->
<g id="node14" class="node">
<title>Node14</title>
<g id="a_node14"><a xlink:title=" ">
<polygon fill="none" stroke="#bfbfbf" points="189.5,-0.5 189.5,-19.5 363.5,-19.5 363.5,-0.5 189.5,-0.5"/>
<text text-anchor="middle" x="276.5" y="-7.5" font-family="FreeSans.ttf" font-size="10.00">gazebo/physics/PhysicsTypes.hh</text>
</a>
</g>
</g>
<!-- Node11&#45;&gt;Node14 -->
<g id="edge14" class="edge">
<title>Node11&#45;&gt;Node14</title>
<path fill="none" stroke="midnightblue" d="M404.42,-56.44C378.96,-47.4 338.61,-33.06 310.04,-22.92"/>
<polygon fill="midnightblue" stroke="midnightblue" points="311.07,-19.57 300.47,-19.52 308.72,-26.16 311.07,-19.57"/>
</g>
<!-- Node15&#45;&gt;Node4 -->
<g id="edge16" class="edge">
<title>Node15&#45;&gt;Node4</title>
<path fill="none" stroke="midnightblue" d="M958.97,-56.44C989.17,-48.16 1036.28,-35.03 1085.67,-20.18"/>
<polygon fill="midnightblue" stroke="midnightblue" points="1086.69,-23.53 1095.25,-17.29 1084.66,-16.83 1086.69,-23.53"/>
</g>
<!-- Node15&#45;&gt;Node9 -->
<g id="edge18" class="edge">
<title>Node15&#45;&gt;Node9</title>
<path fill="none" stroke="midnightblue" d="M915.29,-56.32C903.72,-48.11 886.12,-35.6 872.34,-25.81"/>
<polygon fill="midnightblue" stroke="midnightblue" points="874.11,-22.77 863.93,-19.83 870.06,-28.48 874.11,-22.77"/>
</g>
<!-- Node15&#45;&gt;Node10 -->
<g id="edge19" class="edge">
<title>Node15&#45;&gt;Node10</title>
<path fill="none" stroke="midnightblue" d="M972.15,-56.47C1013.62,-48.36 1077.32,-35.44 1141.51,-20.13"/>
<polygon fill="midnightblue" stroke="midnightblue" points="1142.49,-23.49 1151.39,-17.75 1140.85,-16.69 1142.49,-23.49"/>
</g>
<!-- Node15&#45;&gt;Node12 -->
<g id="edge17" class="edge">
<title>Node15&#45;&gt;Node12</title>
<path fill="none" stroke="midnightblue" d="M845.28,-58.09C758.47,-50.46 617.4,-37.14 485.51,-20.06"/>
<polygon fill="midnightblue" stroke="midnightblue" points="485.59,-16.54 475.22,-18.72 484.68,-23.48 485.59,-16.54"/>
</g>
<!-- Node16 -->
<g id="node16" class="node">
<title>Node16</title>
<g id="a_node16"><a xlink:title=" ">
<polygon fill="none" stroke="#bfbfbf" points="493.5,-0.5 493.5,-19.5 615.5,-19.5 615.5,-0.5 493.5,-0.5"/>
<text text-anchor="middle" x="554.5" y="-7.5" font-family="FreeSans.ttf" font-size="10.00">yarp/dev/PolyDriver.h</text>
</a>
</g>
</g>
<!-- Node15&#45;&gt;Node16 -->
<g id="edge20" class="edge">
<title>Node15&#45;&gt;Node16</title>
<path fill="none" stroke="midnightblue" d="M868.4,-56.44C801.83,-46.81 693.78,-31.16 623.42,-20.98"/>
<polygon fill="midnightblue" stroke="midnightblue" points="623.72,-17.49 613.33,-19.52 622.72,-24.41 623.72,-17.49"/>
</g>
<!-- Node17 -->
<g id="node17" class="node">
<title>Node17</title>
<g id="a_node17"><a xlink:title=" ">
<polygon fill="none" stroke="#bfbfbf" points="633.5,-0.5 633.5,-19.5 773.5,-19.5 773.5,-0.5 633.5,-0.5"/>
<text text-anchor="middle" x="703.5" y="-7.5" font-family="FreeSans.ttf" font-size="10.00">yarp/dev/PolyDriverList.h</text>
</a>
</g>
</g>
<!-- Node15&#45;&gt;Node17 -->
<g id="edge21" class="edge">
<title>Node15&#45;&gt;Node17</title>
<path fill="none" stroke="midnightblue" d="M892.01,-56.44C853.18,-47.08 790.84,-32.06 748.58,-21.87"/>
<polygon fill="midnightblue" stroke="midnightblue" points="749.37,-18.46 738.83,-19.52 747.73,-25.26 749.37,-18.46"/>
</g>
<!-- Node18 -->
<g id="node18" class="node">
<title>Node18</title>
<g id="a_node18"><a xlink:title=" ">
<polygon fill="none" stroke="#bfbfbf" points="929,-0.5 929,-19.5 1078,-19.5 1078,-0.5 929,-0.5"/>
<text text-anchor="middle" x="1003.5" y="-7.5" font-family="FreeSans.ttf" font-size="10.00">gazebo/common/Events.hh</text>
</a>
</g>
</g>
<!-- Node15&#45;&gt;Node18 -->
<g id="edge22" class="edge">
<title>Node15&#45;&gt;Node18</title>
<path fill="none" stroke="midnightblue" d="M939.71,-56.32C951.28,-48.11 968.88,-35.6 982.66,-25.81"/>
<polygon fill="midnightblue" stroke="midnightblue" points="984.94,-28.48 991.07,-19.83 980.89,-22.77 984.94,-28.48"/>
</g>
<!-- Node20 -->
<g id="node20" class="node">
<title>Node20</title>
<g id="a_node20"><a xlink:title=" ">
<polygon fill="none" stroke="#bfbfbf" points="1874.5,-0.5 1874.5,-19.5 1918.5,-19.5 1918.5,-0.5 1874.5,-0.5"/>
<text text-anchor="middle" x="1896.5" y="-7.5" font-family="FreeSans.ttf" font-size="10.00">string</text>
</a>
</g>
</g>
<!-- Node19&#45;&gt;Node20 -->
<g id="edge24" class="edge">
<title>Node19&#45;&gt;Node20</title>
<path fill="none" stroke="midnightblue" d="M1582.02,-56.49C1668.01,-47.25 1798.91,-32.38 1864.33,-19.9"/>
<polygon fill="midnightblue" stroke="midnightblue" points="1865.13,-23.31 1874.26,-17.92 1863.76,-16.45 1865.13,-23.31"/>
</g>
<!-- Node21 -->
<g id="node21" class="node">
<title>Node21</title>
<g id="a_node21"><a xlink:title=" ">
<polygon fill="none" stroke="#bfbfbf" points="1937,-0.5 1937,-19.5 1984,-19.5 1984,-0.5 1937,-0.5"/>
<text text-anchor="middle" x="1960.5" y="-7.5" font-family="FreeSans.ttf" font-size="10.00">cmath</text>
</a>
</g>
</g>
<!-- Node19&#45;&gt;Node21 -->
<g id="edge25" class="edge">
<title>Node19&#45;&gt;Node21</title>
<path fill="none" stroke="midnightblue" d="M1582.73,-56.68C1692.26,-45.55 1877.18,-26.58 1926.88,-19.54"/>
<polygon fill="midnightblue" stroke="midnightblue" points="1927.49,-22.99 1936.81,-17.95 1926.39,-16.07 1927.49,-22.99"/>
</g>
</g>
</svg>
