<?xml version="1.0" encoding="UTF-8" standalone="no"?>
<!DOCTYPE svg PUBLIC "-//W3C//DTD SVG 1.1//EN"
 "http://www.w3.org/Graphics/SVG/1.1/DTD/svg11.dtd">
<!-- Generated by graphviz version 2.43.0 (0)
 -->
<!-- Title: inertialMTBPartDriver.h Pages: 1 -->
<svg width="907pt" height="84pt"
 viewBox="0.00 0.00 906.50 84.00" xmlns="http://www.w3.org/2000/svg" xmlns:xlink="http://www.w3.org/1999/xlink">
<g id="graph0" class="graph" transform="scale(1 1) rotate(0) translate(4 80)">
<title>inertialMTBPartDriver.h</title>
<!-- Node1 -->
<g id="node1" class="node">
<title>Node1</title>
<g id="a_node1"><a xlink:title=" ">
<polygon fill="#bfbfbf" stroke="black" points="346.5,-56.5 346.5,-75.5 476.5,-75.5 476.5,-56.5 346.5,-56.5"/>
<text text-anchor="middle" x="411.5" y="-63.5" font-family="FreeSans.ttf" font-size="10.00">inertialMTBPartDriver.h</text>
</a>
</g>
</g>
<!-- Node2 -->
<g id="node2" class="node">
<title>Node2</title>
<g id="a_node2"><a xlink:title=" ">
<polygon fill="none" stroke="#bfbfbf" points="0,-0.5 0,-19.5 47,-19.5 47,-0.5 0,-0.5"/>
<text text-anchor="middle" x="23.5" y="-7.5" font-family="FreeSans.ttf" font-size="10.00">vector</text>
</a>
</g>
</g>
<!-- Node1&#45;&gt;Node2 -->
<g id="edge1" class="edge">
<title>Node1&#45;&gt;Node2</title>
<path fill="none" stroke="midnightblue" d="M346.28,-59.5C276.9,-53.02 163.84,-40.69 57.17,-19.87"/>
<polygon fill="midnightblue" stroke="midnightblue" points="57.69,-16.4 47.2,-17.89 56.33,-23.27 57.69,-16.4"/>
</g>
<!-- Node3 -->
<g id="node3" class="node">
<title>Node3</title>
<g id="a_node3"><a xlink:title=" ">
<polygon fill="none" stroke="#bfbfbf" points="65.5,-0.5 65.5,-19.5 103.5,-19.5 103.5,-0.5 65.5,-0.5"/>
<text text-anchor="middle" x="84.5" y="-7.5" font-family="FreeSans.ttf" font-size="10.00">map</text>
</a>
</g>
</g>
<!-- Node1&#45;&gt;Node3 -->
<g id="edge2" class="edge">
<title>Node1&#45;&gt;Node3</title>
<path fill="none" stroke="midnightblue" d="M346.48,-58.28C287.78,-51.53 198.99,-39.58 113.53,-19.92"/>
<polygon fill="midnightblue" stroke="midnightblue" points="114.2,-16.48 103.66,-17.61 112.6,-23.3 114.2,-16.48"/>
</g>
<!-- Node4 -->
<g id="node4" class="node">
<title>Node4</title>
<g id="a_node4"><a xlink:title=" ">
<polygon fill="none" stroke="#bfbfbf" points="121.5,-0.5 121.5,-19.5 255.5,-19.5 255.5,-0.5 121.5,-0.5"/>
<text text-anchor="middle" x="188.5" y="-7.5" font-family="FreeSans.ttf" font-size="10.00">yarp/dev/DeviceDriver.h</text>
</a>
</g>
</g>
<!-- Node1&#45;&gt;Node4 -->
<g id="edge3" class="edge">
<title>Node1&#45;&gt;Node4</title>
<path fill="none" stroke="midnightblue" d="M376.16,-56.44C337.59,-47.1 275.72,-32.12 233.65,-21.93"/>
<polygon fill="midnightblue" stroke="midnightblue" points="234.21,-18.47 223.67,-19.52 232.57,-25.27 234.21,-18.47"/>
</g>
<!-- Node5 -->
<g id="node5" class="node">
<title>Node5</title>
<g id="a_node5"><a xlink:title=" ">
<polygon fill="none" stroke="#bfbfbf" points="273.5,-0.5 273.5,-19.5 413.5,-19.5 413.5,-0.5 273.5,-0.5"/>
<text text-anchor="middle" x="343.5" y="-7.5" font-family="FreeSans.ttf" font-size="10.00">yarp/dev/IAnalogSensor.h</text>
</a>
</g>
</g>
<!-- Node1&#45;&gt;Node5 -->
<g id="edge4" class="edge">
<title>Node1&#45;&gt;Node5</title>
<path fill="none" stroke="midnightblue" d="M400.57,-56.32C390.33,-48.18 374.78,-35.84 362.5,-26.09"/>
<polygon fill="midnightblue" stroke="midnightblue" points="364.63,-23.31 354.62,-19.83 360.28,-28.79 364.63,-23.31"/>
</g>
<!-- Node6 -->
<g id="node6" class="node">
<title>Node6</title>
<g id="a_node6"><a xlink:title=" ">
<polygon fill="none" stroke="#bfbfbf" points="431.5,-0.5 431.5,-19.5 527.5,-19.5 527.5,-0.5 431.5,-0.5"/>
<text text-anchor="middle" x="479.5" y="-7.5" font-family="FreeSans.ttf" font-size="10.00">yarp/os/Stamp.h</text>
</a>
</g>
</g>
<!-- Node1&#45;&gt;Node6 -->
<g id="edge5" class="edge">
<title>Node1&#45;&gt;Node6</title>
<path fill="none" stroke="midnightblue" d="M422.43,-56.32C432.67,-48.18 448.22,-35.84 460.5,-26.09"/>
<polygon fill="midnightblue" stroke="midnightblue" points="462.72,-28.79 468.38,-19.83 458.37,-23.31 462.72,-28.79"/>
</g>
<!-- Node7 -->
<g id="node7" class="node">
<title>Node7</title>
<g id="a_node7"><a xlink:title=" ">
<polygon fill="none" stroke="#bfbfbf" points="546,-0.5 546,-19.5 695,-19.5 695,-0.5 546,-0.5"/>
<text text-anchor="middle" x="620.5" y="-7.5" font-family="FreeSans.ttf" font-size="10.00">yarp/dev/IPreciselyTimed.h</text>
</a>
</g>
</g>
<!-- Node1&#45;&gt;Node7 -->
<g id="edge6" class="edge">
<title>Node1&#45;&gt;Node7</title>
<path fill="none" stroke="midnightblue" d="M444.62,-56.44C480.62,-47.14 538.27,-32.25 577.69,-22.06"/>
<polygon fill="midnightblue" stroke="midnightblue" points="578.73,-25.41 587.54,-19.52 576.98,-18.63 578.73,-25.41"/>
</g>
<!-- Node8 -->
<g id="node8" class="node">
<title>Node8</title>
<g id="a_node8"><a xlink:title=" ">
<polygon fill="none" stroke="#bfbfbf" points="713,-0.5 713,-19.5 832,-19.5 832,-0.5 713,-0.5"/>
<text text-anchor="middle" x="772.5" y="-7.5" font-family="FreeSans.ttf" font-size="10.00">boost/shared_ptr.hpp</text>
</a>
</g>
</g>
<!-- Node1&#45;&gt;Node8 -->
<g id="edge7" class="edge">
<title>Node1&#45;&gt;Node8</title>
<path fill="none" stroke="midnightblue" d="M468.7,-56.44C533,-46.83 637.28,-31.23 705.37,-21.04"/>
<polygon fill="midnightblue" stroke="midnightblue" points="706.19,-24.46 715.57,-19.52 705.16,-17.53 706.19,-24.46"/>
</g>
<!-- Node9 -->
<g id="node9" class="node">
<title>Node9</title>
<g id="a_node9"><a xlink:title=" ">
<polygon fill="none" stroke="#bfbfbf" points="850.5,-0.5 850.5,-19.5 898.5,-19.5 898.5,-0.5 850.5,-0.5"/>
<text text-anchor="middle" x="874.5" y="-7.5" font-family="FreeSans.ttf" font-size="10.00">mutex</text>
</a>
</g>
</g>
<!-- Node1&#45;&gt;Node9 -->
<g id="edge8" class="edge">
<title>Node1&#45;&gt;Node9</title>
<path fill="none" stroke="midnightblue" d="M476.81,-61.47C559.42,-56.26 706.12,-44.58 840.4,-19.92"/>
<polygon fill="midnightblue" stroke="midnightblue" points="841.27,-23.32 850.45,-18.04 839.98,-16.43 841.27,-23.32"/>
</g>
</g>
</svg>
