<?xml version="1.0" encoding="UTF-8" standalone="no"?>
<!DOCTYPE svg PUBLIC "-//W3C//DTD SVG 1.1//EN"
 "http://www.w3.org/Graphics/SVG/1.1/DTD/svg11.dtd">
<!-- Generated by graphviz version 5.0.1 (20220821.0811)
 -->
<!-- Title: inertialMTBPart.cc Pages: 1 -->
<svg width="2330pt" height="140pt"
 viewBox="0.00 0.00 2330.00 140.00" xmlns="http://www.w3.org/2000/svg" xmlns:xlink="http://www.w3.org/1999/xlink">
<g id="graph0" class="graph" transform="scale(1 1) rotate(0) translate(4 136)">
<title>inertialMTBPart.cc</title>
<!-- Node1 -->
<g id="node1" class="node">
<title>Node1</title>
<g id="a_node1"><a xlink:title=" ">
<polygon fill="#bfbfbf" stroke="black" points="1413.5,-112.5 1413.5,-131.5 1518.5,-131.5 1518.5,-112.5 1413.5,-112.5"/>
<text text-anchor="middle" x="1466" y="-119.5" font-family="FreeSans.ttf" font-size="10.00">inertialMTBPart.cc</text>
</a>
</g>
</g>
<!-- Node2 -->
<g id="node2" class="node">
<title>Node2</title>
<g id="a_node2"><a xlink:href="inertialMTBPart_8hh.html" target="_top" xlink:title=" ">
<polygon fill="none" stroke="black" points="345.5,-56.5 345.5,-75.5 452.5,-75.5 452.5,-56.5 345.5,-56.5"/>
<text text-anchor="middle" x="399" y="-63.5" font-family="FreeSans.ttf" font-size="10.00">inertialMTBPart.hh</text>
</a>
</g>
</g>
<!-- Node1&#45;&gt;Node2 -->
<g id="edge1" class="edge">
<title>Node1&#45;&gt;Node2</title>
<path fill="none" stroke="midnightblue" d="M1413.45,-118.34C1235.54,-109.34 656.18,-80.02 462.62,-70.22"/>
<polygon fill="midnightblue" stroke="midnightblue" points="462.77,-66.72 452.61,-69.71 462.42,-73.71 462.77,-66.72"/>
</g>
<!-- Node4 -->
<g id="node4" class="node">
<title>Node4</title>
<g id="a_node4"><a xlink:title=" ">
<polygon fill="none" stroke="#bfbfbf" points="338,-0.5 338,-19.5 460,-19.5 460,-0.5 338,-0.5"/>
<text text-anchor="middle" x="399" y="-7.5" font-family="FreeSans.ttf" font-size="10.00">yarp/dev/PolyDriver.h</text>
</a>
</g>
</g>
<!-- Node1&#45;&gt;Node4 -->
<g id="edge32" class="edge">
<title>Node1&#45;&gt;Node4</title>
<path fill="none" stroke="midnightblue" d="M1413.37,-116.6C1322.61,-108.94 1130.83,-92.39 969,-76 749.78,-53.8 692.67,-46.9 470.11,-20.12"/>
<polygon fill="midnightblue" stroke="midnightblue" points="470.42,-16.63 460.08,-18.91 469.59,-23.58 470.42,-16.63"/>
</g>
<!-- Node7 -->
<g id="node7" class="node">
<title>Node7</title>
<g id="a_node7"><a xlink:href="inertialMTBPartDriver_8h.html" target="_top" xlink:title=" ">
<polygon fill="none" stroke="black" points="978,-56.5 978,-75.5 1108,-75.5 1108,-56.5 978,-56.5"/>
<text text-anchor="middle" x="1043" y="-63.5" font-family="FreeSans.ttf" font-size="10.00">inertialMTBPartDriver.h</text>
</a>
</g>
</g>
<!-- Node1&#45;&gt;Node7 -->
<g id="edge6" class="edge">
<title>Node1&#45;&gt;Node7</title>
<path fill="none" stroke="midnightblue" d="M1413.28,-114.27C1339.01,-104.79 1203.17,-87.45 1118.28,-76.61"/>
<polygon fill="midnightblue" stroke="midnightblue" points="1118.55,-73.12 1108.19,-75.32 1117.67,-80.06 1118.55,-73.12"/>
</g>
<!-- Node16 -->
<g id="node16" class="node">
<title>Node16</title>
<g id="a_node16"><a xlink:title=" ">
<polygon fill="none" stroke="#bfbfbf" points="1129,-56.5 1129,-75.5 1275,-75.5 1275,-56.5 1129,-56.5"/>
<text text-anchor="middle" x="1202" y="-63.5" font-family="FreeSans.ttf" font-size="10.00">gazebo/physics/physics.hh</text>
</a>
</g>
</g>
<!-- Node1&#45;&gt;Node16 -->
<g id="edge15" class="edge">
<title>Node1&#45;&gt;Node16</title>
<path fill="none" stroke="midnightblue" d="M1424.17,-112.44C1377.92,-102.98 1303.39,-87.74 1253.56,-77.55"/>
<polygon fill="midnightblue" stroke="midnightblue" points="1254.13,-74.09 1243.64,-75.52 1252.73,-80.95 1254.13,-74.09"/>
</g>
<!-- Node17 -->
<g id="node17" class="node">
<title>Node17</title>
<g id="a_node17"><a xlink:href="Handler_8hh.html" target="_top" xlink:title=" ">
<polygon fill="none" stroke="black" points="1293,-56.5 1293,-75.5 1457,-75.5 1457,-56.5 1293,-56.5"/>
<text text-anchor="middle" x="1375" y="-63.5" font-family="FreeSans.ttf" font-size="10.00">GazeboYarpPlugins/Handler.hh</text>
</a>
</g>
</g>
<!-- Node1&#45;&gt;Node17 -->
<g id="edge16" class="edge">
<title>Node1&#45;&gt;Node17</title>
<path fill="none" stroke="midnightblue" d="M1451.38,-112.32C1437.05,-103.82 1414.99,-90.73 1398.25,-80.8"/>
<polygon fill="midnightblue" stroke="midnightblue" points="1399.97,-77.75 1389.58,-75.65 1396.4,-83.77 1399.97,-77.75"/>
</g>
<!-- Node21 -->
<g id="node21" class="node">
<title>Node21</title>
<g id="a_node21"><a xlink:href="common_8h.html" target="_top" xlink:title=" ">
<polygon fill="none" stroke="black" points="1475,-56.5 1475,-75.5 1639,-75.5 1639,-56.5 1475,-56.5"/>
<text text-anchor="middle" x="1557" y="-63.5" font-family="FreeSans.ttf" font-size="10.00">GazeboYarpPlugins/common.h</text>
</a>
</g>
</g>
<!-- Node1&#45;&gt;Node21 -->
<g id="edge24" class="edge">
<title>Node1&#45;&gt;Node21</title>
<path fill="none" stroke="midnightblue" d="M1480.62,-112.32C1494.95,-103.82 1517.01,-90.73 1533.75,-80.8"/>
<polygon fill="midnightblue" stroke="midnightblue" points="1535.6,-83.77 1542.42,-75.65 1532.03,-77.75 1535.6,-83.77"/>
</g>
<!-- Node23 -->
<g id="node23" class="node">
<title>Node23</title>
<g id="a_node23"><a xlink:href="ConfHelpers_8hh.html" target="_top" xlink:title=" ">
<polygon fill="none" stroke="black" points="1657.5,-56.5 1657.5,-75.5 1844.5,-75.5 1844.5,-56.5 1657.5,-56.5"/>
<text text-anchor="middle" x="1751" y="-63.5" font-family="FreeSans.ttf" font-size="10.00">GazeboYarpPlugins/ConfHelpers.hh</text>
</a>
</g>
</g>
<!-- Node1&#45;&gt;Node23 -->
<g id="edge27" class="edge">
<title>Node1&#45;&gt;Node23</title>
<path fill="none" stroke="midnightblue" d="M1511.16,-112.44C1561.29,-102.94 1642.22,-87.61 1696.01,-77.42"/>
<polygon fill="midnightblue" stroke="midnightblue" points="1696.88,-80.82 1706.05,-75.52 1695.58,-73.94 1696.88,-80.82"/>
</g>
<!-- Node26 -->
<g id="node26" class="node">
<title>Node26</title>
<g id="a_node26"><a xlink:title=" ">
<polygon fill="none" stroke="#bfbfbf" points="1862,-56.5 1862,-75.5 1968,-75.5 1968,-56.5 1862,-56.5"/>
<text text-anchor="middle" x="1915" y="-63.5" font-family="FreeSans.ttf" font-size="10.00">yarp/os/Network.h</text>
</a>
</g>
</g>
<!-- Node1&#45;&gt;Node26 -->
<g id="edge33" class="edge">
<title>Node1&#45;&gt;Node26</title>
<path fill="none" stroke="midnightblue" d="M1518.78,-115.4C1591.52,-107.57 1726.95,-92.58 1851.68,-76.28"/>
<polygon fill="midnightblue" stroke="midnightblue" points="1852.32,-79.72 1861.78,-74.95 1851.41,-72.78 1852.32,-79.72"/>
</g>
<!-- Node27 -->
<g id="node27" class="node">
<title>Node27</title>
<g id="a_node27"><a xlink:title=" ">
<polygon fill="none" stroke="#bfbfbf" points="1986,-56.5 1986,-75.5 2068,-75.5 2068,-56.5 1986,-56.5"/>
<text text-anchor="middle" x="2027" y="-63.5" font-family="FreeSans.ttf" font-size="10.00">yarp/os/Log.h</text>
</a>
</g>
</g>
<!-- Node1&#45;&gt;Node27 -->
<g id="edge34" class="edge">
<title>Node1&#45;&gt;Node27</title>
<path fill="none" stroke="midnightblue" d="M1518.77,-117.93C1609.9,-112.28 1802.86,-98.81 1975.8,-76.05"/>
<polygon fill="midnightblue" stroke="midnightblue" points="1976.39,-79.5 1985.85,-74.71 1975.47,-72.56 1976.39,-79.5"/>
</g>
<!-- Node28 -->
<g id="node28" class="node">
<title>Node28</title>
<g id="a_node28"><a xlink:title=" ">
<polygon fill="none" stroke="#bfbfbf" points="2086.5,-56.5 2086.5,-75.5 2203.5,-75.5 2203.5,-56.5 2086.5,-56.5"/>
<text text-anchor="middle" x="2145" y="-63.5" font-family="FreeSans.ttf" font-size="10.00">yarp/os/LogStream.h</text>
</a>
</g>
</g>
<!-- Node1&#45;&gt;Node28 -->
<g id="edge35" class="edge">
<title>Node1&#45;&gt;Node28</title>
<path fill="none" stroke="midnightblue" d="M1518.81,-118.15C1623.14,-112.28 1863.29,-97.67 2076.3,-76.01"/>
<polygon fill="midnightblue" stroke="midnightblue" points="2076.83,-79.47 2086.42,-74.97 2076.12,-72.51 2076.83,-79.47"/>
</g>
<!-- Node3 -->
<g id="node3" class="node">
<title>Node3</title>
<g id="a_node3"><a xlink:title=" ">
<polygon fill="none" stroke="#bfbfbf" points="0,-0.5 0,-19.5 146,-19.5 146,-0.5 0,-0.5"/>
<text text-anchor="middle" x="73" y="-7.5" font-family="FreeSans.ttf" font-size="10.00">gazebo/common/Plugin.hh</text>
</a>
</g>
</g>
<!-- Node2&#45;&gt;Node3 -->
<g id="edge2" class="edge">
<title>Node2&#45;&gt;Node3</title>
<path fill="none" stroke="midnightblue" d="M347.34,-56.44C289.52,-46.87 195.89,-31.36 134.38,-21.17"/>
<polygon fill="midnightblue" stroke="midnightblue" points="134.85,-17.7 124.41,-19.52 133.71,-24.6 134.85,-17.7"/>
</g>
<!-- Node2&#45;&gt;Node4 -->
<g id="edge3" class="edge">
<title>Node2&#45;&gt;Node4</title>
<path fill="none" stroke="midnightblue" d="M399,-56.08C399,-49.01 399,-38.86 399,-29.99"/>
<polygon fill="midnightblue" stroke="midnightblue" points="402.5,-29.75 399,-19.75 395.5,-29.75 402.5,-29.75"/>
</g>
<!-- Node5 -->
<g id="node5" class="node">
<title>Node5</title>
<g id="a_node5"><a xlink:title=" ">
<polygon fill="none" stroke="#bfbfbf" points="164.5,-0.5 164.5,-19.5 319.5,-19.5 319.5,-0.5 164.5,-0.5"/>
<text text-anchor="middle" x="242" y="-7.5" font-family="FreeSans.ttf" font-size="10.00">yarp/dev/IMultipleWrapper.h</text>
</a>
</g>
</g>
<!-- Node2&#45;&gt;Node5 -->
<g id="edge4" class="edge">
<title>Node2&#45;&gt;Node5</title>
<path fill="none" stroke="midnightblue" d="M374.12,-56.44C347.71,-47.36 305.78,-32.94 276.26,-22.78"/>
<polygon fill="midnightblue" stroke="midnightblue" points="277.36,-19.46 266.76,-19.52 275.08,-26.08 277.36,-19.46"/>
</g>
<!-- Node6 -->
<g id="node6" class="node">
<title>Node6</title>
<g id="a_node6"><a xlink:title=" ">
<polygon fill="none" stroke="#bfbfbf" points="1135,-0.5 1135,-19.5 1179,-19.5 1179,-0.5 1135,-0.5"/>
<text text-anchor="middle" x="1157" y="-7.5" font-family="FreeSans.ttf" font-size="10.00">string</text>
</a>
</g>
</g>
<!-- Node2&#45;&gt;Node6 -->
<g id="edge5" class="edge">
<title>Node2&#45;&gt;Node6</title>
<path fill="none" stroke="midnightblue" d="M452.83,-65.71C572.42,-66.41 869.18,-63.36 1124.57,-19.85"/>
<polygon fill="midnightblue" stroke="midnightblue" points="1125.53,-23.24 1134.79,-18.09 1124.34,-16.34 1125.53,-23.24"/>
</g>
<!-- Node8 -->
<g id="node8" class="node">
<title>Node8</title>
<g id="a_node8"><a xlink:title=" ">
<polygon fill="none" stroke="#bfbfbf" points="636.5,-0.5 636.5,-19.5 683.5,-19.5 683.5,-0.5 636.5,-0.5"/>
<text text-anchor="middle" x="660" y="-7.5" font-family="FreeSans.ttf" font-size="10.00">vector</text>
</a>
</g>
</g>
<!-- Node7&#45;&gt;Node8 -->
<g id="edge7" class="edge">
<title>Node7&#45;&gt;Node8</title>
<path fill="none" stroke="midnightblue" d="M977.73,-59.33C909.31,-52.78 798.57,-40.44 693.82,-19.9"/>
<polygon fill="midnightblue" stroke="midnightblue" points="694.19,-16.4 683.7,-17.89 692.82,-23.27 694.19,-16.4"/>
</g>
<!-- Node9 -->
<g id="node9" class="node">
<title>Node9</title>
<g id="a_node9"><a xlink:title=" ">
<polygon fill="none" stroke="#bfbfbf" points="1197,-0.5 1197,-19.5 1235,-19.5 1235,-0.5 1197,-0.5"/>
<text text-anchor="middle" x="1216" y="-7.5" font-family="FreeSans.ttf" font-size="10.00">map</text>
</a>
</g>
</g>
<!-- Node7&#45;&gt;Node9 -->
<g id="edge8" class="edge">
<title>Node7&#45;&gt;Node9</title>
<path fill="none" stroke="midnightblue" d="M1070.82,-56.46C1098.09,-48.06 1141.09,-34.78 1186.91,-20.32"/>
<polygon fill="midnightblue" stroke="midnightblue" points="1188.25,-23.57 1196.73,-17.22 1186.14,-16.9 1188.25,-23.57"/>
</g>
<!-- Node10 -->
<g id="node10" class="node">
<title>Node10</title>
<g id="a_node10"><a xlink:title=" ">
<polygon fill="none" stroke="#bfbfbf" points="702,-0.5 702,-19.5 836,-19.5 836,-0.5 702,-0.5"/>
<text text-anchor="middle" x="769" y="-7.5" font-family="FreeSans.ttf" font-size="10.00">yarp/dev/DeviceDriver.h</text>
</a>
</g>
</g>
<!-- Node7&#45;&gt;Node10 -->
<g id="edge9" class="edge">
<title>Node7&#45;&gt;Node10</title>
<path fill="none" stroke="midnightblue" d="M999.58,-56.44C951.48,-46.96 873.91,-31.67 822.19,-21.48"/>
<polygon fill="midnightblue" stroke="midnightblue" points="822.7,-18.02 812.21,-19.52 821.35,-24.88 822.7,-18.02"/>
</g>
<!-- Node11 -->
<g id="node11" class="node">
<title>Node11</title>
<g id="a_node11"><a xlink:title=" ">
<polygon fill="none" stroke="#bfbfbf" points="478,-0.5 478,-19.5 618,-19.5 618,-0.5 478,-0.5"/>
<text text-anchor="middle" x="548" y="-7.5" font-family="FreeSans.ttf" font-size="10.00">yarp/dev/IAnalogSensor.h</text>
</a>
</g>
</g>
<!-- Node7&#45;&gt;Node11 -->
<g id="edge10" class="edge">
<title>Node7&#45;&gt;Node11</title>
<path fill="none" stroke="midnightblue" d="M977.78,-58.06C897.94,-49.54 758.32,-34.56 628.35,-20.14"/>
<polygon fill="midnightblue" stroke="midnightblue" points="628.53,-16.64 618.21,-19.02 627.76,-23.6 628.53,-16.64"/>
</g>
<!-- Node12 -->
<g id="node12" class="node">
<title>Node12</title>
<g id="a_node12"><a xlink:title=" ">
<polygon fill="none" stroke="#bfbfbf" points="854,-0.5 854,-19.5 950,-19.5 950,-0.5 854,-0.5"/>
<text text-anchor="middle" x="902" y="-7.5" font-family="FreeSans.ttf" font-size="10.00">yarp/os/Stamp.h</text>
</a>
</g>
</g>
<!-- Node7&#45;&gt;Node12 -->
<g id="edge11" class="edge">
<title>Node7&#45;&gt;Node12</title>
<path fill="none" stroke="midnightblue" d="M1020.66,-56.44C997.25,-47.48 960.26,-33.31 933.81,-23.18"/>
<polygon fill="midnightblue" stroke="midnightblue" points="934.83,-19.82 924.24,-19.52 932.32,-26.36 934.83,-19.82"/>
</g>
<!-- Node13 -->
<g id="node13" class="node">
<title>Node13</title>
<g id="a_node13"><a xlink:title=" ">
<polygon fill="none" stroke="#bfbfbf" points="968.5,-0.5 968.5,-19.5 1117.5,-19.5 1117.5,-0.5 968.5,-0.5"/>
<text text-anchor="middle" x="1043" y="-7.5" font-family="FreeSans.ttf" font-size="10.00">yarp/dev/IPreciselyTimed.h</text>
</a>
</g>
</g>
<!-- Node7&#45;&gt;Node13 -->
<g id="edge12" class="edge">
<title>Node7&#45;&gt;Node13</title>
<path fill="none" stroke="midnightblue" d="M1043,-56.08C1043,-49.01 1043,-38.86 1043,-29.99"/>
<polygon fill="midnightblue" stroke="midnightblue" points="1046.5,-29.75 1043,-19.75 1039.5,-29.75 1046.5,-29.75"/>
</g>
<!-- Node14 -->
<g id="node14" class="node">
<title>Node14</title>
<g id="a_node14"><a xlink:title=" ">
<polygon fill="none" stroke="#bfbfbf" points="1319.5,-0.5 1319.5,-19.5 1438.5,-19.5 1438.5,-0.5 1319.5,-0.5"/>
<text text-anchor="middle" x="1379" y="-7.5" font-family="FreeSans.ttf" font-size="10.00">boost/shared_ptr.hpp</text>
</a>
</g>
</g>
<!-- Node7&#45;&gt;Node14 -->
<g id="edge13" class="edge">
<title>Node7&#45;&gt;Node14</title>
<path fill="none" stroke="midnightblue" d="M1096.24,-56.44C1155.96,-46.85 1252.74,-31.29 1316.13,-21.1"/>
<polygon fill="midnightblue" stroke="midnightblue" points="1316.69,-24.56 1326.01,-19.52 1315.58,-17.65 1316.69,-24.56"/>
</g>
<!-- Node15 -->
<g id="node15" class="node">
<title>Node15</title>
<g id="a_node15"><a xlink:title=" ">
<polygon fill="none" stroke="#bfbfbf" points="1253,-0.5 1253,-19.5 1301,-19.5 1301,-0.5 1253,-0.5"/>
<text text-anchor="middle" x="1277" y="-7.5" font-family="FreeSans.ttf" font-size="10.00">mutex</text>
</a>
</g>
</g>
<!-- Node7&#45;&gt;Node15 -->
<g id="edge14" class="edge">
<title>Node7&#45;&gt;Node15</title>
<path fill="none" stroke="midnightblue" d="M1083.55,-56.49C1122.17,-48.27 1182.16,-35.15 1243.1,-20.14"/>
<polygon fill="midnightblue" stroke="midnightblue" points="1244.02,-23.52 1252.88,-17.71 1242.33,-16.72 1244.02,-23.52"/>
</g>
<!-- Node17&#45;&gt;Node4 -->
<g id="edge21" class="edge">
<title>Node17&#45;&gt;Node4</title>
<path fill="none" stroke="midnightblue" d="M1292.68,-56.66C1289.75,-56.42 1286.85,-56.2 1284,-56 925.61,-30.38 831.92,-50.77 470.02,-20.01"/>
<polygon fill="midnightblue" stroke="midnightblue" points="470.31,-16.52 460.05,-19.16 469.72,-23.5 470.31,-16.52"/>
</g>
<!-- Node17&#45;&gt;Node9 -->
<g id="edge17" class="edge">
<title>Node17&#45;&gt;Node9</title>
<path fill="none" stroke="midnightblue" d="M1349.81,-56.44C1321.17,-46.72 1274.52,-30.88 1244.56,-20.7"/>
<polygon fill="midnightblue" stroke="midnightblue" points="1245.68,-17.38 1235.09,-17.48 1243.43,-24.01 1245.68,-17.38"/>
</g>
<!-- Node17&#45;&gt;Node14 -->
<g id="edge19" class="edge">
<title>Node17&#45;&gt;Node14</title>
<path fill="none" stroke="midnightblue" d="M1375.66,-56.08C1376.18,-49.01 1376.94,-38.86 1377.59,-29.99"/>
<polygon fill="midnightblue" stroke="midnightblue" points="1381.1,-29.98 1378.35,-19.75 1374.12,-29.47 1381.1,-29.98"/>
</g>
<!-- Node17&#45;&gt;Node15 -->
<g id="edge20" class="edge">
<title>Node17&#45;&gt;Node15</title>
<path fill="none" stroke="midnightblue" d="M1359.25,-56.32C1343.68,-47.74 1319.62,-34.49 1301.54,-24.52"/>
<polygon fill="midnightblue" stroke="midnightblue" points="1303.15,-21.42 1292.71,-19.65 1299.78,-27.55 1303.15,-21.42"/>
</g>
<!-- Node18 -->
<g id="node18" class="node">
<title>Node18</title>
<g id="a_node18"><a xlink:title=" ">
<polygon fill="none" stroke="#bfbfbf" points="1782.5,-0.5 1782.5,-19.5 1875.5,-19.5 1875.5,-0.5 1782.5,-0.5"/>
<text text-anchor="middle" x="1829" y="-7.5" font-family="FreeSans.ttf" font-size="10.00">sdf/sdf_config.h</text>
</a>
</g>
</g>
<!-- Node17&#45;&gt;Node18 -->
<g id="edge18" class="edge">
<title>Node17&#45;&gt;Node18</title>
<path fill="none" stroke="midnightblue" d="M1454.79,-56.48C1548.45,-46.4 1699.29,-29.89 1772.06,-20.2"/>
<polygon fill="midnightblue" stroke="midnightblue" points="1772.78,-23.63 1782.22,-18.82 1771.84,-16.7 1772.78,-23.63"/>
</g>
<!-- Node19 -->
<g id="node19" class="node">
<title>Node19</title>
<g id="a_node19"><a xlink:title=" ">
<polygon fill="none" stroke="#bfbfbf" points="1457,-0.5 1457,-19.5 1597,-19.5 1597,-0.5 1457,-0.5"/>
<text text-anchor="middle" x="1527" y="-7.5" font-family="FreeSans.ttf" font-size="10.00">yarp/dev/PolyDriverList.h</text>
</a>
</g>
</g>
<!-- Node17&#45;&gt;Node19 -->
<g id="edge22" class="edge">
<title>Node17&#45;&gt;Node19</title>
<path fill="none" stroke="midnightblue" d="M1399.08,-56.44C1424.54,-47.4 1464.89,-33.06 1493.46,-22.92"/>
<polygon fill="midnightblue" stroke="midnightblue" points="1494.78,-26.16 1503.03,-19.52 1492.43,-19.57 1494.78,-26.16"/>
</g>
<!-- Node20 -->
<g id="node20" class="node">
<title>Node20</title>
<g id="a_node20"><a xlink:title=" ">
<polygon fill="none" stroke="#bfbfbf" points="1615.5,-0.5 1615.5,-19.5 1764.5,-19.5 1764.5,-0.5 1615.5,-0.5"/>
<text text-anchor="middle" x="1690" y="-7.5" font-family="FreeSans.ttf" font-size="10.00">gazebo/common/Events.hh</text>
</a>
</g>
</g>
<!-- Node17&#45;&gt;Node20 -->
<g id="edge23" class="edge">
<title>Node17&#45;&gt;Node20</title>
<path fill="none" stroke="midnightblue" d="M1424.91,-56.44C1480.67,-46.89 1570.89,-31.42 1630.33,-21.23"/>
<polygon fill="midnightblue" stroke="midnightblue" points="1631.06,-24.66 1640.32,-19.52 1629.87,-17.76 1631.06,-24.66"/>
</g>
<!-- Node21&#45;&gt;Node6 -->
<g id="edge25" class="edge">
<title>Node21&#45;&gt;Node6</title>
<path fill="none" stroke="midnightblue" d="M1475,-56.56C1388.08,-47.35 1255.43,-32.48 1189.27,-19.92"/>
<polygon fill="midnightblue" stroke="midnightblue" points="1189.73,-16.44 1179.24,-17.92 1188.37,-23.31 1189.73,-16.44"/>
</g>
<!-- Node22 -->
<g id="node22" class="node">
<title>Node22</title>
<g id="a_node22"><a xlink:title=" ">
<polygon fill="none" stroke="#bfbfbf" points="1893.5,-0.5 1893.5,-19.5 1940.5,-19.5 1940.5,-0.5 1893.5,-0.5"/>
<text text-anchor="middle" x="1917" y="-7.5" font-family="FreeSans.ttf" font-size="10.00">cmath</text>
</a>
</g>
</g>
<!-- Node21&#45;&gt;Node22 -->
<g id="edge26" class="edge">
<title>Node21&#45;&gt;Node22</title>
<path fill="none" stroke="midnightblue" d="M1639.09,-56.91C1703.35,-49.85 1795.08,-38.16 1883.41,-20.11"/>
<polygon fill="midnightblue" stroke="midnightblue" points="1884.24,-23.51 1893.32,-18.05 1882.82,-16.66 1884.24,-23.51"/>
</g>
<!-- Node23&#45;&gt;Node14 -->
<g id="edge29" class="edge">
<title>Node23&#45;&gt;Node14</title>
<path fill="none" stroke="midnightblue" d="M1692.06,-56.44C1625.66,-46.81 1517.9,-31.16 1447.74,-20.98"/>
<polygon fill="midnightblue" stroke="midnightblue" points="1448.07,-17.49 1437.67,-19.52 1447.06,-24.42 1448.07,-17.49"/>
</g>
<!-- Node23&#45;&gt;Node18 -->
<g id="edge28" class="edge">
<title>Node23&#45;&gt;Node18</title>
<path fill="none" stroke="midnightblue" d="M1763.53,-56.32C1775.59,-47.98 1794.03,-35.21 1808.27,-25.35"/>
<polygon fill="midnightblue" stroke="midnightblue" points="1810.27,-28.22 1816.5,-19.65 1806.28,-22.47 1810.27,-28.22"/>
</g>
<!-- Node24 -->
<g id="node24" class="node">
<title>Node24</title>
<g id="a_node24"><a xlink:title=" ">
<polygon fill="none" stroke="#bfbfbf" points="1958.5,-0.5 1958.5,-19.5 2129.5,-19.5 2129.5,-0.5 1958.5,-0.5"/>
<text text-anchor="middle" x="2044" y="-7.5" font-family="FreeSans.ttf" font-size="10.00">gazebo/sensors/SensorTypes.hh</text>
</a>
</g>
</g>
<!-- Node23&#45;&gt;Node24 -->
<g id="edge30" class="edge">
<title>Node23&#45;&gt;Node24</title>
<path fill="none" stroke="midnightblue" d="M1797.43,-56.44C1849.08,-46.92 1932.51,-31.55 1987.81,-21.36"/>
<polygon fill="midnightblue" stroke="midnightblue" points="1988.59,-24.77 1997.79,-19.52 1987.32,-17.89 1988.59,-24.77"/>
</g>
<!-- Node25 -->
<g id="node25" class="node">
<title>Node25</title>
<g id="a_node25"><a xlink:title=" ">
<polygon fill="none" stroke="#bfbfbf" points="2148,-0.5 2148,-19.5 2322,-19.5 2322,-0.5 2148,-0.5"/>
<text text-anchor="middle" x="2235" y="-7.5" font-family="FreeSans.ttf" font-size="10.00">gazebo/physics/PhysicsTypes.hh</text>
</a>
</g>
</g>
<!-- Node23&#45;&gt;Node25 -->
<g id="edge31" class="edge">
<title>Node23&#45;&gt;Node25</title>
<path fill="none" stroke="midnightblue" d="M1827.42,-56.47C1914.72,-46.73 2057.25,-30.83 2148.53,-20.65"/>
<polygon fill="midnightblue" stroke="midnightblue" points="2149.03,-24.11 2158.58,-19.53 2148.25,-17.16 2149.03,-24.11"/>
</g>
</g>
</svg>
