<?xml version="1.0" encoding="UTF-8" standalone="no"?>
<!DOCTYPE svg PUBLIC "-//W3C//DTD SVG 1.1//EN"
 "http://www.w3.org/Graphics/SVG/1.1/DTD/svg11.dtd">
<!-- Generated by graphviz version 2.43.0 (0)
 -->
<!-- Title: Graphical Class Hierarchy Pages: 1 -->
<svg width="296pt" height="476pt"
 viewBox="0.00 0.00 296.00 475.50" xmlns="http://www.w3.org/2000/svg" xmlns:xlink="http://www.w3.org/1999/xlink">
<g id="graph0" class="graph" transform="scale(1 1) rotate(0) translate(4 471.5)">
<title>Graphical Class Hierarchy</title>
<!-- Node67 -->
<g id="node1" class="node">
<title>Node67</title>
<g id="a_node1"><a xlink:title=" ">
<polygon fill="none" stroke="#bfbfbf" points="0,-230 0,-249 77,-249 77,-230 0,-230"/>
<text text-anchor="middle" x="38.5" y="-237" font-family="FreeSans.ttf" font-size="10.00">ModelPlugin</text>
</a>
</g>
</g>
<!-- Node0 -->
<g id="node2" class="node">
<title>Node0</title>
<g id="a_node2"><a xlink:href="classgazebo_1_1ApplyExternalWrench.html" target="_top" xlink:title=" ">
<polygon fill="none" stroke="black" points="119,-448 119,-467 282,-467 282,-448 119,-448"/>
<text text-anchor="middle" x="200.5" y="-455" font-family="FreeSans.ttf" font-size="10.00">gazebo::ApplyExternalWrench</text>
</a>
</g>
</g>
<!-- Node67&#45;&gt;Node0 -->
<g id="edge1" class="edge">
<title>Node67&#45;&gt;Node0</title>
<path fill="none" stroke="midnightblue" d="M40.74,-259.29C44.39,-299.53 58.54,-391.06 113,-438.5 117.41,-442.34 122.41,-445.45 127.74,-447.98"/>
<polygon fill="midnightblue" stroke="midnightblue" points="44.22,-258.87 39.96,-249.18 37.24,-259.42 44.22,-258.87"/>
</g>
<!-- Node69 -->
<g id="node3" class="node">
<title>Node69</title>
<g id="a_node3"><a xlink:href="classgazebo_1_1ConfigurationOverride.html" target="_top" xlink:title=" ">
<polygon fill="none" stroke="black" points="118,-410 118,-429 283,-429 283,-410 118,-410"/>
<text text-anchor="middle" x="200.5" y="-417" font-family="FreeSans.ttf" font-size="10.00">gazebo::ConfigurationOverride</text>
</a>
</g>
</g>
<!-- Node67&#45;&gt;Node69 -->
<g id="edge2" class="edge">
<title>Node67&#45;&gt;Node69</title>
<path fill="none" stroke="midnightblue" d="M42.72,-259.49C49.35,-293.89 67.9,-364.08 113,-400.5 117.78,-404.36 123.19,-407.48 128.89,-410"/>
<polygon fill="midnightblue" stroke="midnightblue" points="46.1,-258.53 40.9,-249.3 39.21,-259.76 46.1,-258.53"/>
</g>
<!-- Node70 -->
<g id="node4" class="node">
<title>Node70</title>
<g id="a_node4"><a xlink:href="classgazebo_1_1GazeboYarpBaseState.html" target="_top" xlink:title=" ">
<polygon fill="none" stroke="black" points="118.5,-372 118.5,-391 282.5,-391 282.5,-372 118.5,-372"/>
<text text-anchor="middle" x="200.5" y="-379" font-family="FreeSans.ttf" font-size="10.00">gazebo::GazeboYarpBaseState</text>
</a>
</g>
</g>
<!-- Node67&#45;&gt;Node70 -->
<g id="edge3" class="edge">
<title>Node67&#45;&gt;Node70</title>
<path fill="none" stroke="midnightblue" d="M45.61,-259.03C55.28,-286.59 76.83,-336.44 113,-362.5 118.36,-366.36 124.37,-369.47 130.64,-371.95"/>
<polygon fill="midnightblue" stroke="midnightblue" points="48.86,-257.72 42.38,-249.34 42.22,-259.93 48.86,-257.72"/>
</g>
<!-- Node71 -->
<g id="node5" class="node">
<title>Node71</title>
<g id="a_node5"><a xlink:href="classgazebo_1_1GazeboYarpContactLoadCellArray.html" target="_top" xlink:title=" ">
<polygon fill="none" stroke="black" points="124.5,-322.5 124.5,-352.5 276.5,-352.5 276.5,-322.5 124.5,-322.5"/>
<text text-anchor="start" x="132.5" y="-340.5" font-family="FreeSans.ttf" font-size="10.00">gazebo::GazeboYarpContact</text>
<text text-anchor="middle" x="200.5" y="-329.5" font-family="FreeSans.ttf" font-size="10.00">LoadCellArray</text>
</a>
</g>
</g>
<!-- Node67&#45;&gt;Node71 -->
<g id="edge4" class="edge">
<title>Node67&#45;&gt;Node71</title>
<path fill="none" stroke="midnightblue" d="M52.4,-256.98C65.75,-273.85 88.12,-298.93 113,-313.5 118.78,-316.89 125.06,-319.81 131.51,-322.34"/>
<polygon fill="midnightblue" stroke="midnightblue" points="55.14,-254.8 46.27,-249 49.59,-259.06 55.14,-254.8"/>
</g>
<!-- Node72 -->
<g id="node6" class="node">
<title>Node72</title>
<g id="a_node6"><a xlink:href="classgazebo_1_1GazeboYarpControlBoard.html" target="_top" xlink:title="Gazebo Plugin emulating the yarp controlBoard device in Gazebo.">
<polygon fill="none" stroke="black" points="125.5,-273.5 125.5,-303.5 275.5,-303.5 275.5,-273.5 125.5,-273.5"/>
<text text-anchor="start" x="133.5" y="-291.5" font-family="FreeSans.ttf" font-size="10.00">gazebo::GazeboYarpControl</text>
<text text-anchor="middle" x="200.5" y="-280.5" font-family="FreeSans.ttf" font-size="10.00">Board</text>
</a>
</g>
</g>
<!-- Node67&#45;&gt;Node72 -->
<g id="edge5" class="edge">
<title>Node67&#45;&gt;Node72</title>
<path fill="none" stroke="midnightblue" d="M75.8,-252.31C87.62,-256.35 100.83,-260.74 113,-264.5 122.83,-267.53 133.34,-270.6 143.53,-273.47"/>
<polygon fill="midnightblue" stroke="midnightblue" points="76.86,-248.97 66.26,-249.01 74.57,-255.58 76.86,-248.97"/>
</g>
<!-- Node73 -->
<g id="node7" class="node">
<title>Node73</title>
<g id="a_node7"><a xlink:href="classgazebo_1_1GazeboYarpDoubleLaser.html" target="_top" xlink:title="Gazebo Plugin emulating the yarp double laser device in Gazebo.">
<polygon fill="none" stroke="black" points="126,-224.5 126,-254.5 275,-254.5 275,-224.5 126,-224.5"/>
<text text-anchor="start" x="134" y="-242.5" font-family="FreeSans.ttf" font-size="10.00">gazebo::GazeboYarpDouble</text>
<text text-anchor="middle" x="200.5" y="-231.5" font-family="FreeSans.ttf" font-size="10.00">Laser</text>
</a>
</g>
</g>
<!-- Node67&#45;&gt;Node73 -->
<g id="edge6" class="edge">
<title>Node67&#45;&gt;Node73</title>
<path fill="none" stroke="midnightblue" d="M87.31,-239.5C99.4,-239.5 112.68,-239.5 125.74,-239.5"/>
<polygon fill="midnightblue" stroke="midnightblue" points="87.01,-236 77.01,-239.5 87.01,-243 87.01,-236"/>
</g>
<!-- Node74 -->
<g id="node8" class="node">
<title>Node74</title>
<g id="a_node8"><a xlink:href="classgazebo_1_1GazeboYarpFakeControlBoard.html" target="_top" xlink:title="Gazebo Plugin emulating a fake yarp controlboard in Gazebo.">
<polygon fill="none" stroke="black" points="114.5,-175.5 114.5,-205.5 286.5,-205.5 286.5,-175.5 114.5,-175.5"/>
<text text-anchor="start" x="122.5" y="-193.5" font-family="FreeSans.ttf" font-size="10.00">gazebo::GazeboYarpFakeControl</text>
<text text-anchor="middle" x="200.5" y="-182.5" font-family="FreeSans.ttf" font-size="10.00">Board</text>
</a>
</g>
</g>
<!-- Node67&#45;&gt;Node74 -->
<g id="edge7" class="edge">
<title>Node67&#45;&gt;Node74</title>
<path fill="none" stroke="midnightblue" d="M77.68,-226.76C89.02,-223.05 101.49,-219.04 113,-215.5 123.76,-212.19 135.31,-208.76 146.35,-205.55"/>
<polygon fill="midnightblue" stroke="midnightblue" points="76.46,-223.48 68.05,-229.93 78.64,-230.13 76.46,-223.48"/>
</g>
<!-- Node75 -->
<g id="node9" class="node">
<title>Node75</title>
<g id="a_node9"><a xlink:href="classgazebo_1_1GazeboYarpInertialMTBPart.html" target="_top" xlink:title="Gazebo Plugin emulating the yarp inertial MTB sensors device in Gazebo.">
<polygon fill="none" stroke="black" points="126,-126.5 126,-156.5 275,-156.5 275,-126.5 126,-126.5"/>
<text text-anchor="start" x="134" y="-144.5" font-family="FreeSans.ttf" font-size="10.00">gazebo::GazeboYarpInertial</text>
<text text-anchor="middle" x="200.5" y="-133.5" font-family="FreeSans.ttf" font-size="10.00">MTBPart</text>
</a>
</g>
</g>
<!-- Node67&#45;&gt;Node75 -->
<g id="edge8" class="edge">
<title>Node67&#45;&gt;Node75</title>
<path fill="none" stroke="midnightblue" d="M52.7,-222.05C66.14,-205.46 88.45,-180.94 113,-166.5 119.47,-162.7 126.55,-159.44 133.79,-156.66"/>
<polygon fill="midnightblue" stroke="midnightblue" points="49.95,-219.89 46.51,-229.91 55.45,-224.22 49.95,-219.89"/>
</g>
<!-- Node76 -->
<g id="node10" class="node">
<title>Node76</title>
<g id="a_node10"><a xlink:href="classgazebo_1_1GazeboYarpJointSensors.html" target="_top" xlink:title="Gazebo plugin that creates a yarp streaming sensors (IAnalogSensor) for streaming joint sensor measur...">
<polygon fill="none" stroke="black" points="113,-88 113,-107 288,-107 288,-88 113,-88"/>
<text text-anchor="middle" x="200.5" y="-95" font-family="FreeSans.ttf" font-size="10.00">gazebo::GazeboYarpJointSensors</text>
</a>
</g>
</g>
<!-- Node67&#45;&gt;Node76 -->
<g id="edge9" class="edge">
<title>Node67&#45;&gt;Node76</title>
<path fill="none" stroke="midnightblue" d="M45.69,-220.18C55.47,-192.9 77.14,-143.53 113,-117.5 118.99,-113.15 125.77,-109.73 132.84,-107.05"/>
<polygon fill="midnightblue" stroke="midnightblue" points="42.34,-219.17 42.42,-229.77 48.96,-221.43 42.34,-219.17"/>
</g>
<!-- Node77 -->
<g id="node11" class="node">
<title>Node77</title>
<g id="a_node11"><a xlink:href="classgazebo_1_1GazeboYarpMaisSensor.html" target="_top" xlink:title="Gazebo Plugin emulating the yarp mais sensor (IAnalogSensor) in Gazebo.">
<polygon fill="none" stroke="black" points="115,-50 115,-69 286,-69 286,-50 115,-50"/>
<text text-anchor="middle" x="200.5" y="-57" font-family="FreeSans.ttf" font-size="10.00">gazebo::GazeboYarpMaisSensor</text>
</a>
</g>
</g>
<!-- Node67&#45;&gt;Node77 -->
<g id="edge10" class="edge">
<title>Node67&#45;&gt;Node77</title>
<path fill="none" stroke="midnightblue" d="M42.72,-219.51C49.35,-185.11 67.9,-114.92 113,-78.5 117.78,-74.64 123.19,-71.52 128.89,-69"/>
<polygon fill="midnightblue" stroke="midnightblue" points="39.21,-219.24 40.9,-229.7 46.1,-220.47 39.21,-219.24"/>
</g>
<!-- Node78 -->
<g id="node12" class="node">
<title>Node78</title>
<g id="a_node12"><a xlink:href="classgazebo_1_1GazeboYarpModelPosePublisher.html" target="_top" xlink:title="Gazebo Plugin that publishes the pose of the root link of a model with respect to the Gazebo world fr...">
<polygon fill="none" stroke="black" points="116.5,-0.5 116.5,-30.5 284.5,-30.5 284.5,-0.5 116.5,-0.5"/>
<text text-anchor="start" x="124.5" y="-18.5" font-family="FreeSans.ttf" font-size="10.00">gazebo::GazeboYarpModelPose</text>
<text text-anchor="middle" x="200.5" y="-7.5" font-family="FreeSans.ttf" font-size="10.00">Publisher</text>
</a>
</g>
</g>
<!-- Node67&#45;&gt;Node78 -->
<g id="edge11" class="edge">
<title>Node67&#45;&gt;Node78</title>
<path fill="none" stroke="midnightblue" d="M41,-219.99C45.12,-180.29 60.11,-89.69 113,-40.5 117.12,-36.67 121.79,-33.42 126.78,-30.66"/>
<polygon fill="midnightblue" stroke="midnightblue" points="37.52,-219.69 40.09,-229.97 44.49,-220.33 37.52,-219.69"/>
</g>
</g>
</svg>
