<?xml version="1.0" encoding="UTF-8" standalone="no"?>
<!DOCTYPE svg PUBLIC "-//W3C//DTD SVG 1.1//EN"
 "http://www.w3.org/Graphics/SVG/1.1/DTD/svg11.dtd">
<!-- Generated by graphviz version 2.43.0 (0)
 -->
<!-- Title: Graphical Class Hierarchy Pages: 1 -->
<svg width="415pt" height="1254pt"
 viewBox="0.00 0.00 415.00 1253.50" xmlns="http://www.w3.org/2000/svg" xmlns:xlink="http://www.w3.org/1999/xlink">
<g id="graph0" class="graph" transform="scale(1 1) rotate(0) translate(4 1249.5)">
<title>Graphical Class Hierarchy</title>
<!-- Node17 -->
<g id="node1" class="node">
<title>Node17</title>
<g id="a_node1"><a xlink:title=" ">
<polygon fill="none" stroke="#bfbfbf" points="33,-962.5 33,-981.5 164,-981.5 164,-962.5 33,-962.5"/>
<text text-anchor="middle" x="98.5" y="-969.5" font-family="FreeSans.ttf" font-size="10.00">yarp::dev::DeviceDriver</text>
</a>
</g>
</g>
<!-- Node0 -->
<g id="node2" class="node">
<title>Node0</title>
<g id="a_node2"><a xlink:href="classyarp_1_1dev_1_1GazeboYarpBaseStateDriver.html" target="_top" xlink:title="YARP device driver to give the gazebo state information of a desired base link of the robot The state...">
<polygon fill="none" stroke="black" points="245.5,-1117 245.5,-1147 394.5,-1147 394.5,-1117 245.5,-1117"/>
<text text-anchor="start" x="253.5" y="-1135" font-family="FreeSans.ttf" font-size="10.00">yarp::dev::GazeboYarpBase</text>
<text text-anchor="middle" x="320" y="-1124" font-family="FreeSans.ttf" font-size="10.00">StateDriver</text>
</a>
</g>
</g>
<!-- Node17&#45;&gt;Node0 -->
<g id="edge1" class="edge">
<title>Node17&#45;&gt;Node0</title>
<path fill="none" stroke="midnightblue" d="M173.89,-977.55C182.37,-980.67 190.34,-985.01 197,-991 237.46,-1027.38 194.03,-1070.04 233,-1108 236.66,-1111.57 240.81,-1114.62 245.26,-1117.22"/>
<polygon fill="midnightblue" stroke="midnightblue" points="174.73,-974.15 164.14,-974.53 172.66,-980.84 174.73,-974.15"/>
</g>
<!-- Node19 -->
<g id="node3" class="node">
<title>Node19</title>
<g id="a_node3"><a xlink:href="classyarp_1_1dev_1_1GazeboYarpCameraDriver.html" target="_top" xlink:title=" ">
<polygon fill="none" stroke="black" points="238.5,-1166 238.5,-1196 401.5,-1196 401.5,-1166 238.5,-1166"/>
<text text-anchor="start" x="246.5" y="-1184" font-family="FreeSans.ttf" font-size="10.00">yarp::dev::GazeboYarpCamera</text>
<text text-anchor="middle" x="320" y="-1173" font-family="FreeSans.ttf" font-size="10.00">Driver</text>
</a>
</g>
</g>
<!-- Node17&#45;&gt;Node19 -->
<g id="edge2" class="edge">
<title>Node17&#45;&gt;Node19</title>
<path fill="none" stroke="midnightblue" d="M173.76,-976.79C182.39,-980 190.44,-984.58 197,-991 250.94,-1043.82 181.2,-1102.08 233,-1157 236.19,-1160.38 239.81,-1163.3 243.73,-1165.82"/>
<polygon fill="midnightblue" stroke="midnightblue" points="174.79,-973.44 164.2,-973.81 172.7,-980.13 174.79,-973.44"/>
</g>
<!-- Node20 -->
<g id="node4" class="node">
<title>Node20</title>
<g id="a_node4"><a xlink:href="classyarp_1_1dev_1_1GazeboYarpContactLoadCellArrayDriver.html" target="_top" xlink:title="YARP Device Driver for an array of contact load cells giving 1&#45;axis force at different locations.">
<polygon fill="none" stroke="black" points="239,-1068 239,-1098 401,-1098 401,-1068 239,-1068"/>
<text text-anchor="start" x="247" y="-1086" font-family="FreeSans.ttf" font-size="10.00">yarp::dev::GazeboYarpContact</text>
<text text-anchor="middle" x="320" y="-1075" font-family="FreeSans.ttf" font-size="10.00">LoadCellArrayDriver</text>
</a>
</g>
</g>
<!-- Node17&#45;&gt;Node20 -->
<g id="edge3" class="edge">
<title>Node17&#45;&gt;Node20</title>
<path fill="none" stroke="midnightblue" d="M173.86,-979.14C182.15,-982.02 190.08,-985.87 197,-991 224.47,-1011.37 206.37,-1037.55 233,-1059 237.23,-1062.4 241.9,-1065.32 246.83,-1067.83"/>
<polygon fill="midnightblue" stroke="midnightblue" points="174.6,-975.7 164.02,-976.19 172.59,-982.41 174.6,-975.7"/>
</g>
<!-- Node21 -->
<g id="node5" class="node">
<title>Node21</title>
<g id="a_node5"><a xlink:href="classyarp_1_1dev_1_1GazeboYarpControlBoardDriver.html" target="_top" xlink:title=" ">
<polygon fill="none" stroke="black" points="240,-348 240,-378 400,-378 400,-348 240,-348"/>
<text text-anchor="start" x="248" y="-366" font-family="FreeSans.ttf" font-size="10.00">yarp::dev::GazeboYarpControl</text>
<text text-anchor="middle" x="320" y="-355" font-family="FreeSans.ttf" font-size="10.00">BoardDriver</text>
</a>
</g>
</g>
<!-- Node17&#45;&gt;Node21 -->
<g id="edge4" class="edge">
<title>Node17&#45;&gt;Node21</title>
<path fill="none" stroke="midnightblue" d="M173.88,-967.81C182.57,-964.52 190.6,-959.76 197,-953 237.38,-910.3 221.53,-748.64 233,-691 257.31,-568.89 300.15,-424.67 314.31,-378.22"/>
<polygon fill="midnightblue" stroke="midnightblue" points="172.72,-964.51 164.23,-970.84 174.82,-971.19 172.72,-964.51"/>
</g>
<!-- Node22 -->
<g id="node6" class="node">
<title>Node22</title>
<g id="a_node6"><a xlink:href="classyarp_1_1dev_1_1GazeboYarpDepthCameraDriver.html" target="_top" xlink:title=" ">
<polygon fill="none" stroke="black" points="243,-700 243,-730 397,-730 397,-700 243,-700"/>
<text text-anchor="start" x="251" y="-718" font-family="FreeSans.ttf" font-size="10.00">yarp::dev::GazeboYarpDepth</text>
<text text-anchor="middle" x="320" y="-707" font-family="FreeSans.ttf" font-size="10.00">CameraDriver</text>
</a>
</g>
</g>
<!-- Node17&#45;&gt;Node22 -->
<g id="edge5" class="edge">
<title>Node17&#45;&gt;Node22</title>
<path fill="none" stroke="midnightblue" d="M173.66,-967.37C182.35,-964.13 190.44,-959.51 197,-953 254.27,-896.13 188.73,-842.49 233,-775 245.88,-755.36 267.62,-740.28 286.01,-730.15"/>
<polygon fill="midnightblue" stroke="midnightblue" points="172.55,-964.04 164.04,-970.35 174.63,-970.73 172.55,-964.04"/>
</g>
<!-- Node23 -->
<g id="node7" class="node">
<title>Node23</title>
<g id="a_node7"><a xlink:href="classyarp_1_1dev_1_1GazeboYarpFakeControlBoardDriver.html" target="_top" xlink:title=" ">
<polygon fill="none" stroke="black" points="247,-299 247,-329 393,-329 393,-299 247,-299"/>
<text text-anchor="start" x="255" y="-317" font-family="FreeSans.ttf" font-size="10.00">yarp::dev::GazeboYarpFake</text>
<text text-anchor="middle" x="320" y="-306" font-family="FreeSans.ttf" font-size="10.00">ControlBoardDriver</text>
</a>
</g>
</g>
<!-- Node17&#45;&gt;Node23 -->
<g id="edge6" class="edge">
<title>Node17&#45;&gt;Node23</title>
<path fill="none" stroke="midnightblue" d="M173.85,-968.47C182.67,-965.1 190.75,-960.15 197,-953 287.11,-849.93 147.07,-444.57 233,-338 236.89,-333.17 241.67,-329.27 246.95,-326.12"/>
<polygon fill="midnightblue" stroke="midnightblue" points="172.53,-965.22 164.03,-971.54 174.62,-971.9 172.53,-965.22"/>
</g>
<!-- Node24 -->
<g id="node8" class="node">
<title>Node24</title>
<g id="a_node8"><a xlink:href="classyarp_1_1dev_1_1GazeboYarpForceTorqueDriver.html" target="_top" xlink:title="YARP Force Torque Driver for Gazebo.">
<polygon fill="none" stroke="black" points="244.5,-1019 244.5,-1049 395.5,-1049 395.5,-1019 244.5,-1019"/>
<text text-anchor="start" x="252.5" y="-1037" font-family="FreeSans.ttf" font-size="10.00">yarp::dev::GazeboYarpForce</text>
<text text-anchor="middle" x="320" y="-1026" font-family="FreeSans.ttf" font-size="10.00">TorqueDriver</text>
</a>
</g>
</g>
<!-- Node17&#45;&gt;Node24 -->
<g id="edge7" class="edge">
<title>Node17&#45;&gt;Node24</title>
<path fill="none" stroke="midnightblue" d="M172.65,-983.82C180.96,-985.88 189.23,-988.26 197,-991 214.06,-997.02 216.19,-1003.31 233,-1010 241.21,-1013.27 250.03,-1016.27 258.77,-1018.96"/>
<polygon fill="midnightblue" stroke="midnightblue" points="173.44,-980.41 162.9,-981.55 171.85,-987.23 173.44,-980.41"/>
</g>
<!-- Node25 -->
<g id="node9" class="node">
<title>Node25</title>
<g id="a_node9"><a xlink:href="classyarp_1_1dev_1_1GazeboYarpIMUDriver.html" target="_top" xlink:title=" ">
<polygon fill="none" stroke="black" points="233,-784.5 233,-803.5 407,-803.5 407,-784.5 233,-784.5"/>
<text text-anchor="middle" x="320" y="-791.5" font-family="FreeSans.ttf" font-size="10.00">yarp::dev::GazeboYarpIMUDriver</text>
</a>
</g>
</g>
<!-- Node17&#45;&gt;Node25 -->
<g id="edge8" class="edge">
<title>Node17&#45;&gt;Node25</title>
<path fill="none" stroke="midnightblue" d="M173.97,-966.8C182.47,-963.63 190.43,-959.18 197,-953 243.48,-909.27 187.32,-858.56 233,-814 237.39,-809.72 242.51,-806.29 248.02,-803.54"/>
<polygon fill="midnightblue" stroke="midnightblue" points="172.69,-963.53 164.19,-969.85 174.77,-970.21 172.69,-963.53"/>
</g>
<!-- Node26 -->
<g id="node10" class="node">
<title>Node26</title>
<g id="a_node10"><a xlink:href="classyarp_1_1dev_1_1GazeboYarpInertialMTBPartDriver.html" target="_top" xlink:title=" ">
<polygon fill="none" stroke="black" points="240.5,-970 240.5,-1000 399.5,-1000 399.5,-970 240.5,-970"/>
<text text-anchor="start" x="248.5" y="-988" font-family="FreeSans.ttf" font-size="10.00">yarp::dev::GazeboYarpInertial</text>
<text text-anchor="middle" x="320" y="-977" font-family="FreeSans.ttf" font-size="10.00">MTBPartDriver</text>
</a>
</g>
</g>
<!-- Node17&#45;&gt;Node26 -->
<g id="edge9" class="edge">
<title>Node17&#45;&gt;Node26</title>
<path fill="none" stroke="midnightblue" d="M174.44,-976.44C195.72,-977.7 218.94,-979.07 240.42,-980.35"/>
<polygon fill="midnightblue" stroke="midnightblue" points="174.36,-972.93 164.17,-975.83 173.95,-979.92 174.36,-972.93"/>
</g>
<!-- Node27 -->
<g id="node11" class="node">
<title>Node27</title>
<g id="a_node11"><a xlink:href="classyarp_1_1dev_1_1GazeboYarpJointSensorsDriver.html" target="_top" xlink:title=" ">
<polygon fill="none" stroke="black" points="247,-921 247,-951 393,-951 393,-921 247,-921"/>
<text text-anchor="start" x="255" y="-939" font-family="FreeSans.ttf" font-size="10.00">yarp::dev::GazeboYarpJoint</text>
<text text-anchor="middle" x="320" y="-928" font-family="FreeSans.ttf" font-size="10.00">SensorsDriver</text>
</a>
</g>
</g>
<!-- Node17&#45;&gt;Node27 -->
<g id="edge10" class="edge">
<title>Node17&#45;&gt;Node27</title>
<path fill="none" stroke="midnightblue" d="M167.65,-960.82C192.84,-956.69 221.45,-952 246.96,-947.82"/>
<polygon fill="midnightblue" stroke="midnightblue" points="166.76,-957.42 157.46,-962.49 167.89,-964.33 166.76,-957.42"/>
</g>
<!-- Node28 -->
<g id="node12" class="node">
<title>Node28</title>
<g id="a_node12"><a xlink:href="classyarp_1_1dev_1_1GazeboYarpLaserSensorDriver.html" target="_top" xlink:title=" ">
<polygon fill="none" stroke="black" points="244.5,-872 244.5,-902 395.5,-902 395.5,-872 244.5,-872"/>
<text text-anchor="start" x="252.5" y="-890" font-family="FreeSans.ttf" font-size="10.00">yarp::dev::GazeboYarpLaser</text>
<text text-anchor="middle" x="320" y="-879" font-family="FreeSans.ttf" font-size="10.00">SensorDriver</text>
</a>
</g>
</g>
<!-- Node17&#45;&gt;Node28 -->
<g id="edge11" class="edge">
<title>Node17&#45;&gt;Node28</title>
<path fill="none" stroke="midnightblue" d="M173.97,-962.86C182.03,-960.32 189.88,-957.09 197,-953 218.03,-940.92 212.54,-925.02 233,-912 239.03,-908.16 245.68,-904.89 252.51,-902.12"/>
<polygon fill="midnightblue" stroke="midnightblue" points="172.76,-959.56 164.08,-965.63 174.65,-966.3 172.76,-959.56"/>
</g>
<!-- Node29 -->
<g id="node13" class="node">
<title>Node29</title>
<g id="a_node13"><a xlink:href="classyarp_1_1dev_1_1GazeboYarpMaisSensorDriver.html" target="_top" xlink:title=" ">
<polygon fill="none" stroke="black" points="246,-823 246,-853 394,-853 394,-823 246,-823"/>
<text text-anchor="start" x="254" y="-841" font-family="FreeSans.ttf" font-size="10.00">yarp::dev::GazeboYarpMais</text>
<text text-anchor="middle" x="320" y="-830" font-family="FreeSans.ttf" font-size="10.00">SensorDriver</text>
</a>
</g>
</g>
<!-- Node17&#45;&gt;Node29 -->
<g id="edge12" class="edge">
<title>Node17&#45;&gt;Node29</title>
<path fill="none" stroke="midnightblue" d="M173.79,-965.79C182.21,-962.77 190.19,-958.63 197,-953 230.19,-925.53 201.09,-891.94 233,-863 237.26,-859.14 242.09,-855.87 247.23,-853.1"/>
<polygon fill="midnightblue" stroke="midnightblue" points="172.68,-962.47 164.14,-968.74 174.72,-969.16 172.68,-962.47"/>
</g>
<!-- Node30 -->
<g id="node14" class="node">
<title>Node30</title>
<g id="a_node14"><a xlink:href="classyarp_1_1dev_1_1GazeboYarpMultiCameraDriver.html" target="_top" xlink:title=" ">
<polygon fill="none" stroke="black" points="245.5,-1215 245.5,-1245 394.5,-1245 394.5,-1215 245.5,-1215"/>
<text text-anchor="start" x="253.5" y="-1233" font-family="FreeSans.ttf" font-size="10.00">yarp::dev::GazeboYarpMulti</text>
<text text-anchor="middle" x="320" y="-1222" font-family="FreeSans.ttf" font-size="10.00">CameraDriver</text>
</a>
</g>
</g>
<!-- Node17&#45;&gt;Node30 -->
<g id="edge13" class="edge">
<title>Node17&#45;&gt;Node30</title>
<path fill="none" stroke="midnightblue" d="M173.69,-976.36C182.42,-979.63 190.51,-984.33 197,-991 264.59,-1060.41 168.23,-1133.95 233,-1206 236.63,-1210.03 240.87,-1213.41 245.49,-1216.24"/>
<polygon fill="midnightblue" stroke="midnightblue" points="174.61,-972.98 164.02,-973.36 172.53,-979.67 174.61,-972.98"/>
</g>
<!-- Node31 -->
<g id="node15" class="node">
<title>Node31</title>
<g id="a_node15"><a xlink:title=" ">
<polygon fill="none" stroke="#bfbfbf" points="47.5,-608.5 47.5,-627.5 149.5,-627.5 149.5,-608.5 47.5,-608.5"/>
<text text-anchor="middle" x="98.5" y="-615.5" font-family="FreeSans.ttf" font-size="10.00">DeviceResponder</text>
</a>
</g>
</g>
<!-- Node31&#45;&gt;Node21 -->
<g id="edge14" class="edge">
<title>Node31&#45;&gt;Node21</title>
<path fill="none" stroke="midnightblue" d="M159.7,-614.93C172.95,-611.99 186.22,-607.08 197,-599 274.14,-541.19 306.64,-420.48 315.97,-378.1"/>
<polygon fill="midnightblue" stroke="midnightblue" points="158.81,-611.53 149.62,-616.8 160.09,-618.41 158.81,-611.53"/>
</g>
<!-- Node31&#45;&gt;Node23 -->
<g id="edge15" class="edge">
<title>Node31&#45;&gt;Node23</title>
<path fill="none" stroke="midnightblue" d="M159.69,-617.89C173.63,-614.98 187.22,-609.33 197,-599 277.48,-513.94 155.98,-426.2 233,-338 236.98,-333.45 241.74,-329.72 246.95,-326.68"/>
<polygon fill="midnightblue" stroke="midnightblue" points="158.83,-614.48 149.52,-619.55 159.96,-621.39 158.83,-614.48"/>
</g>
<!-- Node31&#45;&gt;Node29 -->
<g id="edge16" class="edge">
<title>Node31&#45;&gt;Node29</title>
<path fill="none" stroke="midnightblue" d="M159.64,-618.64C173.45,-621.56 186.99,-627.09 197,-637 253.72,-693.19 178.88,-754.3 233,-813 236.69,-817 240.98,-820.38 245.63,-823.22"/>
<polygon fill="midnightblue" stroke="midnightblue" points="160.03,-615.16 149.59,-616.95 158.86,-622.06 160.03,-615.16"/>
</g>
<!-- Node35 -->
<g id="node16" class="node">
<title>Node35</title>
<g id="a_node16"><a xlink:title=" ">
<polygon fill="none" stroke="#bfbfbf" points="49,-76.5 49,-95.5 148,-95.5 148,-76.5 49,-76.5"/>
<text text-anchor="middle" x="98.5" y="-83.5" font-family="FreeSans.ttf" font-size="10.00">IAmplifierControl</text>
</a>
</g>
</g>
<!-- Node35&#45;&gt;Node21 -->
<g id="edge17" class="edge">
<title>Node35&#45;&gt;Node21</title>
<path fill="none" stroke="midnightblue" d="M158.13,-85.93C172.57,-88.75 186.8,-94.39 197,-105 269.63,-180.53 163.86,-259.26 233,-338 236.39,-341.86 240.33,-345.13 244.63,-347.92"/>
<polygon fill="midnightblue" stroke="midnightblue" points="158.56,-82.46 148.15,-84.41 157.51,-89.38 158.56,-82.46"/>
</g>
<!-- Node35&#45;&gt;Node23 -->
<g id="edge18" class="edge">
<title>Node35&#45;&gt;Node23</title>
<path fill="none" stroke="midnightblue" d="M158.2,-89.22C171.85,-92.11 185.69,-96.97 197,-105 267.57,-155.11 303.56,-259.91 314.93,-298.93"/>
<polygon fill="midnightblue" stroke="midnightblue" points="158.79,-85.77 148.33,-87.44 157.55,-92.66 158.79,-85.77"/>
</g>
<!-- Node36 -->
<g id="node17" class="node">
<title>Node36</title>
<g id="a_node17"><a xlink:title=" ">
<polygon fill="none" stroke="#bfbfbf" points="30,-1000.5 30,-1019.5 167,-1019.5 167,-1000.5 30,-1000.5"/>
<text text-anchor="middle" x="98.5" y="-1007.5" font-family="FreeSans.ttf" font-size="10.00">yarp::dev::IAnalogSensor</text>
</a>
</g>
</g>
<!-- Node36&#45;&gt;Node0 -->
<g id="edge19" class="edge">
<title>Node36&#45;&gt;Node0</title>
<path fill="none" stroke="midnightblue" d="M177.09,-1017.84C184.25,-1020.66 191.04,-1024.3 197,-1029 227.3,-1052.9 203.68,-1082.92 233,-1108 237,-1111.43 241.46,-1114.37 246.18,-1116.89"/>
<polygon fill="midnightblue" stroke="midnightblue" points="177.74,-1014.37 167.14,-1014.5 175.51,-1021 177.74,-1014.37"/>
</g>
<!-- Node36&#45;&gt;Node20 -->
<g id="edge20" class="edge">
<title>Node36&#45;&gt;Node20</title>
<path fill="none" stroke="midnightblue" d="M176.66,-1021.23C183.69,-1023.38 190.57,-1025.95 197,-1029 215.81,-1037.94 214.56,-1049.32 233,-1059 239.45,-1062.39 246.43,-1065.34 253.53,-1067.9"/>
<polygon fill="midnightblue" stroke="midnightblue" points="177.58,-1017.86 167.01,-1018.55 175.7,-1024.6 177.58,-1017.86"/>
</g>
<!-- Node36&#45;&gt;Node24 -->
<g id="edge21" class="edge">
<title>Node36&#45;&gt;Node24</title>
<path fill="none" stroke="midnightblue" d="M177.34,-1018.51C199.11,-1020.89 222.72,-1023.47 244.31,-1025.83"/>
<polygon fill="midnightblue" stroke="midnightblue" points="177.47,-1015 167.15,-1017.4 176.71,-1021.96 177.47,-1015"/>
</g>
<!-- Node36&#45;&gt;Node26 -->
<g id="edge22" class="edge">
<title>Node36&#45;&gt;Node26</title>
<path fill="none" stroke="midnightblue" d="M177.09,-1001.16C197.63,-998.82 219.83,-996.3 240.42,-993.95"/>
<polygon fill="midnightblue" stroke="midnightblue" points="176.69,-997.69 167.15,-1002.3 177.48,-1004.64 176.69,-997.69"/>
</g>
<!-- Node36&#45;&gt;Node27 -->
<g id="edge23" class="edge">
<title>Node36&#45;&gt;Node27</title>
<path fill="none" stroke="midnightblue" d="M176.66,-998.77C183.69,-996.62 190.57,-994.05 197,-991 215.81,-982.06 214.61,-970.78 233,-961 240.14,-957.2 247.93,-953.92 255.8,-951.09"/>
<polygon fill="midnightblue" stroke="midnightblue" points="175.7,-995.4 167.01,-1001.45 177.58,-1002.14 175.7,-995.4"/>
</g>
<!-- Node36&#45;&gt;Node29 -->
<g id="edge24" class="edge">
<title>Node36&#45;&gt;Node29</title>
<path fill="none" stroke="midnightblue" d="M176.71,-1003.55C184.16,-1000.5 191.11,-996.42 197,-991 240.46,-950.95 191.4,-904.97 233,-863 236.83,-859.14 241.22,-855.86 245.95,-853.08"/>
<polygon fill="midnightblue" stroke="midnightblue" points="175.38,-1000.31 167.07,-1006.88 177.66,-1006.93 175.38,-1000.31"/>
</g>
<!-- Node37 -->
<g id="node18" class="node">
<title>Node37</title>
<g id="a_node18"><a xlink:title=" ">
<polygon fill="none" stroke="#bfbfbf" points="69,-38.5 69,-57.5 128,-57.5 128,-38.5 69,-38.5"/>
<text text-anchor="middle" x="98.5" y="-45.5" font-family="FreeSans.ttf" font-size="10.00">IAxisInfo</text>
</a>
</g>
</g>
<!-- Node37&#45;&gt;Node21 -->
<g id="edge25" class="edge">
<title>Node37&#45;&gt;Node21</title>
<path fill="none" stroke="midnightblue" d="M138.27,-45.5C158.56,-46.39 182.2,-51.28 197,-67 280.28,-155.47 153.8,-245.86 233,-338 236.34,-341.89 240.26,-345.19 244.53,-348"/>
<polygon fill="midnightblue" stroke="midnightblue" points="138.07,-42 128.02,-45.36 137.98,-49 138.07,-42"/>
</g>
<!-- Node37&#45;&gt;Node23 -->
<g id="edge26" class="edge">
<title>Node37&#45;&gt;Node23</title>
<path fill="none" stroke="midnightblue" d="M138.31,-47.7C157.65,-49.38 180.39,-54.31 197,-67 276.82,-127.96 307.78,-255.12 316.33,-298.85"/>
<polygon fill="midnightblue" stroke="midnightblue" points="138.46,-44.21 128.26,-47.09 138.03,-51.19 138.46,-44.21"/>
</g>
<!-- Node38 -->
<g id="node19" class="node">
<title>Node38</title>
<g id="a_node19"><a xlink:title=" ">
<polygon fill="none" stroke="#bfbfbf" points="41.5,-0.5 41.5,-19.5 155.5,-19.5 155.5,-0.5 41.5,-0.5"/>
<text text-anchor="middle" x="98.5" y="-7.5" font-family="FreeSans.ttf" font-size="10.00">IControlCalibration2</text>
</a>
</g>
</g>
<!-- Node38&#45;&gt;Node21 -->
<g id="edge27" class="edge">
<title>Node38&#45;&gt;Node21</title>
<path fill="none" stroke="midnightblue" d="M165.58,-11.34C177.44,-14.54 188.67,-20.01 197,-29 290.96,-130.43 143.72,-232.42 233,-338 236.21,-341.8 239.97,-345.04 244.07,-347.8"/>
<polygon fill="midnightblue" stroke="midnightblue" points="166.02,-7.86 155.51,-9.16 164.54,-14.7 166.02,-7.86"/>
</g>
<!-- Node38&#45;&gt;Node23 -->
<g id="edge28" class="edge">
<title>Node38&#45;&gt;Node23</title>
<path fill="none" stroke="midnightblue" d="M165.62,-13.87C176.95,-16.94 187.97,-21.71 197,-29 286.19,-101.03 311.42,-250.5 317.38,-298.68"/>
<polygon fill="midnightblue" stroke="midnightblue" points="166.14,-10.4 155.61,-11.58 164.58,-17.22 166.14,-10.4"/>
</g>
<!-- Node39 -->
<g id="node20" class="node">
<title>Node39</title>
<g id="a_node20"><a xlink:title=" ">
<polygon fill="none" stroke="#bfbfbf" points="56,-570.5 56,-589.5 141,-589.5 141,-570.5 56,-570.5"/>
<text text-anchor="middle" x="98.5" y="-577.5" font-family="FreeSans.ttf" font-size="10.00">IControlLimits</text>
</a>
</g>
</g>
<!-- Node39&#45;&gt;Node21 -->
<g id="edge29" class="edge">
<title>Node39&#45;&gt;Node21</title>
<path fill="none" stroke="midnightblue" d="M151.45,-577.85C167.16,-575.19 183.74,-570.18 197,-561 264.89,-514 302.17,-415.74 314.42,-378.11"/>
<polygon fill="midnightblue" stroke="midnightblue" points="150.71,-574.42 141.3,-579.28 151.69,-581.35 150.71,-574.42"/>
</g>
<!-- Node39&#45;&gt;Node23 -->
<g id="edge30" class="edge">
<title>Node39&#45;&gt;Node23</title>
<path fill="none" stroke="midnightblue" d="M151.36,-581.14C168.01,-578.84 185.18,-573.21 197,-561 266.83,-488.87 166.1,-412.85 233,-338 236.93,-333.61 241.58,-329.99 246.66,-327.02"/>
<polygon fill="midnightblue" stroke="midnightblue" points="150.72,-577.68 141.12,-582.17 151.42,-584.65 150.72,-577.68"/>
</g>
<!-- Node40 -->
<g id="node21" class="node">
<title>Node40</title>
<g id="a_node21"><a xlink:title=" ">
<polygon fill="none" stroke="#bfbfbf" points="57.5,-532.5 57.5,-551.5 139.5,-551.5 139.5,-532.5 57.5,-532.5"/>
<text text-anchor="middle" x="98.5" y="-539.5" font-family="FreeSans.ttf" font-size="10.00">IControlMode</text>
</a>
</g>
</g>
<!-- Node40&#45;&gt;Node21 -->
<g id="edge31" class="edge">
<title>Node40&#45;&gt;Node21</title>
<path fill="none" stroke="midnightblue" d="M150.09,-539.18C166.01,-536.51 183.06,-531.66 197,-523 255.75,-486.5 296.6,-410.75 312.1,-378.3"/>
<polygon fill="midnightblue" stroke="midnightblue" points="149.25,-535.76 139.84,-540.64 150.23,-542.69 149.25,-535.76"/>
</g>
<!-- Node40&#45;&gt;Node23 -->
<g id="edge32" class="edge">
<title>Node40&#45;&gt;Node23</title>
<path fill="none" stroke="midnightblue" d="M150.31,-543.03C167.19,-540.79 184.78,-535.22 197,-523 256.22,-463.76 176.18,-399.55 233,-338 237,-333.67 241.7,-330.1 246.81,-327.15"/>
<polygon fill="midnightblue" stroke="midnightblue" points="149.55,-539.59 139.94,-544.03 150.23,-546.56 149.55,-539.59"/>
</g>
<!-- Node41 -->
<g id="node22" class="node">
<title>Node41</title>
<g id="a_node22"><a xlink:title=" ">
<polygon fill="none" stroke="#bfbfbf" points="53,-494.5 53,-513.5 144,-513.5 144,-494.5 53,-494.5"/>
<text text-anchor="middle" x="98.5" y="-501.5" font-family="FreeSans.ttf" font-size="10.00">ICurrentControl</text>
</a>
</g>
</g>
<!-- Node41&#45;&gt;Node21 -->
<g id="edge33" class="edge">
<title>Node41&#45;&gt;Node21</title>
<path fill="none" stroke="midnightblue" d="M154,-499.22C168.56,-496.41 183.89,-491.98 197,-485 246.98,-458.41 289.66,-404.58 308.57,-378.23"/>
<polygon fill="midnightblue" stroke="midnightblue" points="153.34,-495.78 144.07,-500.92 154.52,-502.68 153.34,-495.78"/>
</g>
<!-- Node41&#45;&gt;Node23 -->
<g id="edge34" class="edge">
<title>Node41&#45;&gt;Node23</title>
<path fill="none" stroke="midnightblue" d="M154.2,-504.07C169.74,-501.47 185.53,-495.93 197,-485 245.68,-438.59 186.2,-386.32 233,-338 236.99,-333.88 241.62,-330.45 246.63,-327.6"/>
<polygon fill="midnightblue" stroke="midnightblue" points="153.54,-500.62 144.07,-505.38 154.44,-507.56 153.54,-500.62"/>
</g>
<!-- Node42 -->
<g id="node23" class="node">
<title>Node42</title>
<g id="a_node23"><a xlink:title=" ">
<polygon fill="none" stroke="#bfbfbf" points="51,-456.5 51,-475.5 146,-475.5 146,-456.5 51,-456.5"/>
<text text-anchor="middle" x="98.5" y="-463.5" font-family="FreeSans.ttf" font-size="10.00">IEncodersTimed</text>
</a>
</g>
</g>
<!-- Node42&#45;&gt;Node21 -->
<g id="edge35" class="edge">
<title>Node42&#45;&gt;Node21</title>
<path fill="none" stroke="midnightblue" d="M156.11,-459.03C169.82,-456.25 184.21,-452.37 197,-447 238.02,-429.77 279.31,-397.47 301.78,-378.33"/>
<polygon fill="midnightblue" stroke="midnightblue" points="155.46,-455.59 146.28,-460.87 156.75,-462.47 155.46,-455.59"/>
</g>
<!-- Node42&#45;&gt;Node23 -->
<g id="edge36" class="edge">
<title>Node42&#45;&gt;Node23</title>
<path fill="none" stroke="midnightblue" d="M156.18,-465.05C170.9,-462.28 185.75,-456.91 197,-447 235.28,-413.28 196.09,-373.22 233,-338 237.15,-334.04 241.9,-330.72 246.98,-327.95"/>
<polygon fill="midnightblue" stroke="midnightblue" points="155.43,-461.63 146.07,-466.58 156.48,-468.55 155.43,-461.63"/>
</g>
<!-- Node43 -->
<g id="node24" class="node">
<title>Node43</title>
<g id="a_node24"><a xlink:title=" ">
<polygon fill="none" stroke="#bfbfbf" points="28.5,-1191 28.5,-1221 168.5,-1221 168.5,-1191 28.5,-1191"/>
<text text-anchor="start" x="36.5" y="-1209" font-family="FreeSans.ttf" font-size="10.00">yarp::dev::IFrameGrabber</text>
<text text-anchor="middle" x="98.5" y="-1198" font-family="FreeSans.ttf" font-size="10.00">Image</text>
</a>
</g>
</g>
<!-- Node43&#45;&gt;Node19 -->
<g id="edge37" class="edge">
<title>Node43&#45;&gt;Node19</title>
<path fill="none" stroke="midnightblue" d="M178.65,-1196.98C198.05,-1194.78 218.84,-1192.41 238.31,-1190.19"/>
<polygon fill="midnightblue" stroke="midnightblue" points="178.19,-1193.51 168.65,-1198.12 178.98,-1200.47 178.19,-1193.51"/>
</g>
<!-- Node43&#45;&gt;Node30 -->
<g id="edge38" class="edge">
<title>Node43&#45;&gt;Node30</title>
<path fill="none" stroke="midnightblue" d="M178.81,-1214.67C200.49,-1217.04 223.9,-1219.6 245.26,-1221.94"/>
<polygon fill="midnightblue" stroke="midnightblue" points="178.97,-1211.17 168.65,-1213.56 178.21,-1218.13 178.97,-1211.17"/>
</g>
<!-- Node44 -->
<g id="node25" class="node">
<title>Node44</title>
<g id="a_node25"><a xlink:title=" ">
<polygon fill="none" stroke="#bfbfbf" points="28,-798.5 28,-817.5 169,-817.5 169,-798.5 28,-798.5"/>
<text text-anchor="middle" x="98.5" y="-805.5" font-family="FreeSans.ttf" font-size="10.00">yarp::dev::IGenericSensor</text>
</a>
</g>
</g>
<!-- Node44&#45;&gt;Node25 -->
<g id="edge39" class="edge">
<title>Node44&#45;&gt;Node25</title>
<path fill="none" stroke="midnightblue" d="M179.35,-802.91C196.75,-801.8 215.23,-800.62 232.86,-799.49"/>
<polygon fill="midnightblue" stroke="midnightblue" points="179.01,-799.42 169.25,-803.55 179.46,-806.41 179.01,-799.42"/>
</g>
<!-- Node45 -->
<g id="node26" class="node">
<title>Node45</title>
<g id="a_node26"><a xlink:title=" ">
<polygon fill="none" stroke="#bfbfbf" points="44,-418.5 44,-437.5 153,-437.5 153,-418.5 44,-418.5"/>
<text text-anchor="middle" x="98.5" y="-425.5" font-family="FreeSans.ttf" font-size="10.00">IImpedanceControl</text>
</a>
</g>
</g>
<!-- Node45&#45;&gt;Node21 -->
<g id="edge40" class="edge">
<title>Node45&#45;&gt;Node21</title>
<path fill="none" stroke="midnightblue" d="M162.94,-417.24C174.36,-414.85 186.09,-412.1 197,-409 226.83,-400.53 259.68,-387.96 283.76,-378.09"/>
<polygon fill="midnightblue" stroke="midnightblue" points="162.12,-413.84 153.02,-419.25 163.51,-420.7 162.12,-413.84"/>
</g>
<!-- Node45&#45;&gt;Node23 -->
<g id="edge41" class="edge">
<title>Node45&#45;&gt;Node23</title>
<path fill="none" stroke="midnightblue" d="M163.31,-424.15C175.35,-421.14 187.22,-416.39 197,-409 225.23,-387.67 205.64,-360.43 233,-338 237.2,-334.56 241.85,-331.61 246.76,-329.09"/>
<polygon fill="midnightblue" stroke="midnightblue" points="162.25,-420.79 153.19,-426.29 163.7,-427.64 162.25,-420.79"/>
</g>
<!-- Node46 -->
<g id="node27" class="node">
<title>Node46</title>
<g id="a_node27"><a xlink:title=" ">
<polygon fill="none" stroke="#bfbfbf" points="49,-380.5 49,-399.5 148,-399.5 148,-380.5 49,-380.5"/>
<text text-anchor="middle" x="98.5" y="-387.5" font-family="FreeSans.ttf" font-size="10.00">IInteractionMode</text>
</a>
</g>
</g>
<!-- Node46&#45;&gt;Node21 -->
<g id="edge42" class="edge">
<title>Node46&#45;&gt;Node21</title>
<path fill="none" stroke="midnightblue" d="M158.28,-382.77C183.32,-379.69 212.9,-376.05 239.82,-372.74"/>
<polygon fill="midnightblue" stroke="midnightblue" points="157.71,-379.31 148.21,-384.01 158.57,-386.26 157.71,-379.31"/>
</g>
<!-- Node46&#45;&gt;Node23 -->
<g id="edge43" class="edge">
<title>Node46&#45;&gt;Node23</title>
<path fill="none" stroke="midnightblue" d="M158.3,-383.93C171.49,-381.11 185.1,-377 197,-371 216.38,-361.22 214.03,-348.54 233,-338 239.1,-334.61 245.71,-331.67 252.47,-329.13"/>
<polygon fill="midnightblue" stroke="midnightblue" points="157.49,-380.52 148.33,-385.84 158.81,-387.39 157.49,-380.52"/>
</g>
<!-- Node47 -->
<g id="node28" class="node">
<title>Node47</title>
<g id="a_node28"><a xlink:title=" ">
<polygon fill="none" stroke="#bfbfbf" points="16.5,-760.5 16.5,-779.5 180.5,-779.5 180.5,-760.5 16.5,-760.5"/>
<text text-anchor="middle" x="98.5" y="-767.5" font-family="FreeSans.ttf" font-size="10.00">yarp::dev::IOrientationSensors</text>
</a>
</g>
</g>
<!-- Node47&#45;&gt;Node25 -->
<g id="edge44" class="edge">
<title>Node47&#45;&gt;Node25</title>
<path fill="none" stroke="midnightblue" d="M190.66,-779.97C204.57,-781.49 218.89,-783.05 232.7,-784.56"/>
<polygon fill="midnightblue" stroke="midnightblue" points="190.93,-776.48 180.61,-778.87 190.17,-783.43 190.93,-776.48"/>
</g>
<!-- Node48 -->
<g id="node29" class="node">
<title>Node48</title>
<g id="a_node29"><a xlink:title=" ">
<polygon fill="none" stroke="#bfbfbf" points="63.5,-342.5 63.5,-361.5 133.5,-361.5 133.5,-342.5 63.5,-342.5"/>
<text text-anchor="middle" x="98.5" y="-349.5" font-family="FreeSans.ttf" font-size="10.00">IPidControl</text>
</a>
</g>
</g>
<!-- Node48&#45;&gt;Node21 -->
<g id="edge45" class="edge">
<title>Node48&#45;&gt;Node21</title>
<path fill="none" stroke="midnightblue" d="M143.9,-354.23C171.44,-355.6 207.6,-357.42 239.91,-359.04"/>
<polygon fill="midnightblue" stroke="midnightblue" points="143.96,-350.72 133.8,-353.72 143.61,-357.71 143.96,-350.72"/>
</g>
<!-- Node48&#45;&gt;Node23 -->
<g id="edge46" class="edge">
<title>Node48&#45;&gt;Node23</title>
<path fill="none" stroke="midnightblue" d="M143.8,-344.33C173.33,-339.22 212.81,-332.38 246.82,-326.5"/>
<polygon fill="midnightblue" stroke="midnightblue" points="143.05,-340.91 133.8,-346.06 144.25,-347.81 143.05,-340.91"/>
</g>
<!-- Node49 -->
<g id="node30" class="node">
<title>Node49</title>
<g id="a_node30"><a xlink:title=" ">
<polygon fill="none" stroke="#bfbfbf" points="51.5,-304.5 51.5,-323.5 145.5,-323.5 145.5,-304.5 51.5,-304.5"/>
<text text-anchor="middle" x="98.5" y="-311.5" font-family="FreeSans.ttf" font-size="10.00">IPositionControl</text>
</a>
</g>
</g>
<!-- Node49&#45;&gt;Node21 -->
<g id="edge47" class="edge">
<title>Node49&#45;&gt;Node21</title>
<path fill="none" stroke="midnightblue" d="M155.85,-324.5C169.36,-327.15 183.71,-330.07 197,-333 217.66,-337.55 240.18,-342.96 260.18,-347.92"/>
<polygon fill="midnightblue" stroke="midnightblue" points="156.2,-321 145.72,-322.53 154.87,-327.87 156.2,-321"/>
</g>
<!-- Node49&#45;&gt;Node23 -->
<g id="edge48" class="edge">
<title>Node49&#45;&gt;Node23</title>
<path fill="none" stroke="midnightblue" d="M155.8,-314C183.47,-314 217.14,-314 246.69,-314"/>
<polygon fill="midnightblue" stroke="midnightblue" points="155.51,-310.5 145.51,-314 155.51,-317.5 155.51,-310.5"/>
</g>
<!-- Node50 -->
<g id="node31" class="node">
<title>Node50</title>
<g id="a_node31"><a xlink:title=" ">
<polygon fill="none" stroke="#bfbfbf" points="54.5,-266.5 54.5,-285.5 142.5,-285.5 142.5,-266.5 54.5,-266.5"/>
<text text-anchor="middle" x="98.5" y="-273.5" font-family="FreeSans.ttf" font-size="10.00">IPositionDirect</text>
</a>
</g>
</g>
<!-- Node50&#45;&gt;Node21 -->
<g id="edge49" class="edge">
<title>Node50&#45;&gt;Node21</title>
<path fill="none" stroke="midnightblue" d="M152.78,-279.71C167.84,-282.49 183.73,-287.17 197,-295 218.47,-307.67 212.13,-324.38 233,-338 238.86,-341.82 245.32,-345.08 251.98,-347.84"/>
<polygon fill="midnightblue" stroke="midnightblue" points="152.95,-276.2 142.52,-278.08 151.85,-283.11 152.95,-276.2"/>
</g>
<!-- Node50&#45;&gt;Node23 -->
<g id="edge50" class="edge">
<title>Node50&#45;&gt;Node23</title>
<path fill="none" stroke="midnightblue" d="M152.67,-285.2C180.88,-290.09 215.95,-296.16 246.61,-301.47"/>
<polygon fill="midnightblue" stroke="midnightblue" points="153.05,-281.72 142.6,-283.46 151.86,-288.62 153.05,-281.72"/>
</g>
<!-- Node51 -->
<g id="node32" class="node">
<title>Node51</title>
<g id="a_node32"><a xlink:title=" ">
<polygon fill="none" stroke="#bfbfbf" points="25.5,-1038.5 25.5,-1057.5 171.5,-1057.5 171.5,-1038.5 25.5,-1038.5"/>
<text text-anchor="middle" x="98.5" y="-1045.5" font-family="FreeSans.ttf" font-size="10.00">yarp::dev::IPreciselyTimed</text>
</a>
</g>
</g>
<!-- Node51&#45;&gt;Node0 -->
<g id="edge51" class="edge">
<title>Node51&#45;&gt;Node0</title>
<path fill="none" stroke="midnightblue" d="M127.71,-1062.17C154.38,-1075.21 195.76,-1094.52 233,-1108 241.75,-1111.17 251.12,-1114.17 260.34,-1116.9"/>
<polygon fill="midnightblue" stroke="midnightblue" points="129.1,-1058.96 118.58,-1057.67 126,-1065.23 129.1,-1058.96"/>
</g>
<!-- Node51&#45;&gt;Node19 -->
<g id="edge52" class="edge">
<title>Node51&#45;&gt;Node19</title>
<path fill="none" stroke="midnightblue" d="M115.65,-1065.04C139.24,-1088.98 185.51,-1132.37 233,-1157 239.61,-1160.43 246.76,-1163.41 254.02,-1166"/>
<polygon fill="midnightblue" stroke="midnightblue" points="118.02,-1062.47 108.55,-1057.73 113,-1067.34 118.02,-1062.47"/>
</g>
<!-- Node51&#45;&gt;Node20 -->
<g id="edge53" class="edge">
<title>Node51&#45;&gt;Node20</title>
<path fill="none" stroke="midnightblue" d="M169.16,-1059.11C191.28,-1062.63 215.92,-1066.56 238.73,-1070.2"/>
<polygon fill="midnightblue" stroke="midnightblue" points="169.62,-1055.64 159.19,-1057.52 168.51,-1062.55 169.62,-1055.64"/>
</g>
<!-- Node51&#45;&gt;Node24 -->
<g id="edge54" class="edge">
<title>Node51&#45;&gt;Node24</title>
<path fill="none" stroke="midnightblue" d="M181.9,-1042.74C202.33,-1041.44 224.1,-1040.05 244.15,-1038.77"/>
<polygon fill="midnightblue" stroke="midnightblue" points="181.43,-1039.27 171.68,-1043.4 181.88,-1046.25 181.43,-1039.27"/>
</g>
<!-- Node51&#45;&gt;Node25 -->
<g id="edge55" class="edge">
<title>Node51&#45;&gt;Node25</title>
<path fill="none" stroke="midnightblue" d="M181.22,-1040.36C187.05,-1037.43 192.42,-1033.7 197,-1029 264.59,-959.59 166.67,-884.62 233,-814 236.99,-809.75 241.69,-806.33 246.8,-803.57"/>
<polygon fill="midnightblue" stroke="midnightblue" points="179.6,-1037.25 171.73,-1044.34 182.31,-1043.7 179.6,-1037.25"/>
</g>
<!-- Node51&#45;&gt;Node26 -->
<g id="edge56" class="edge">
<title>Node51&#45;&gt;Node26</title>
<path fill="none" stroke="midnightblue" d="M172.65,-1036.18C180.96,-1034.12 189.23,-1031.74 197,-1029 214.06,-1022.98 216.23,-1016.78 233,-1010 241.94,-1006.39 251.59,-1003.06 261.09,-1000.09"/>
<polygon fill="midnightblue" stroke="midnightblue" points="171.85,-1032.77 162.9,-1038.45 173.44,-1039.59 171.85,-1032.77"/>
</g>
<!-- Node51&#45;&gt;Node27 -->
<g id="edge57" class="edge">
<title>Node51&#45;&gt;Node27</title>
<path fill="none" stroke="midnightblue" d="M181.23,-1037.99C186.83,-1035.55 192.16,-1032.59 197,-1029 224.47,-1008.63 206.48,-982.59 233,-961 237.7,-957.17 242.97,-953.93 248.52,-951.18"/>
<polygon fill="midnightblue" stroke="midnightblue" points="179.72,-1034.82 171.59,-1041.62 182.19,-1041.37 179.72,-1034.82"/>
</g>
<!-- Node51&#45;&gt;Node28 -->
<g id="edge58" class="edge">
<title>Node51&#45;&gt;Node28</title>
<path fill="none" stroke="midnightblue" d="M181.18,-1039.39C186.92,-1036.65 192.29,-1033.24 197,-1029 237.46,-992.62 194.23,-950.17 233,-912 236.88,-908.18 241.3,-904.94 246.05,-902.19"/>
<polygon fill="midnightblue" stroke="midnightblue" points="179.85,-1036.15 171.9,-1043.15 182.48,-1042.64 179.85,-1036.15"/>
</g>
<!-- Node51&#45;&gt;Node30 -->
<g id="edge59" class="edge">
<title>Node51&#45;&gt;Node30</title>
<path fill="none" stroke="midnightblue" d="M110,-1066.58C129.71,-1099.73 175.49,-1169.08 233,-1206 238.35,-1209.43 244.19,-1212.38 250.23,-1214.91"/>
<polygon fill="midnightblue" stroke="midnightblue" points="112.79,-1064.41 104.74,-1057.52 106.74,-1067.93 112.79,-1064.41"/>
</g>
<!-- Node52 -->
<g id="node33" class="node">
<title>Node52</title>
<g id="a_node33"><a xlink:title=" ">
<polygon fill="none" stroke="#bfbfbf" points="58.5,-228.5 58.5,-247.5 138.5,-247.5 138.5,-228.5 58.5,-228.5"/>
<text text-anchor="middle" x="98.5" y="-235.5" font-family="FreeSans.ttf" font-size="10.00">IPWMControl</text>
</a>
</g>
</g>
<!-- Node52&#45;&gt;Node21 -->
<g id="edge60" class="edge">
<title>Node52&#45;&gt;Node21</title>
<path fill="none" stroke="midnightblue" d="M148.86,-238.58C165.61,-240.99 183.48,-246.23 197,-257 227.82,-281.54 203.32,-312.09 233,-338 237.45,-341.89 242.48,-345.17 247.8,-347.94"/>
<polygon fill="midnightblue" stroke="midnightblue" points="148.96,-235.07 138.63,-237.43 148.17,-242.03 148.96,-235.07"/>
</g>
<!-- Node52&#45;&gt;Node23 -->
<g id="edge61" class="edge">
<title>Node52&#45;&gt;Node23</title>
<path fill="none" stroke="midnightblue" d="M148.94,-245.21C164.52,-248.13 181.67,-252.01 197,-257 230.79,-268 267.46,-286.03 291.68,-298.87"/>
<polygon fill="midnightblue" stroke="midnightblue" points="149.42,-241.74 138.96,-243.43 148.19,-248.63 149.42,-241.74"/>
</g>
<!-- Node53 -->
<g id="node34" class="node">
<title>Node53</title>
<g id="a_node34"><a xlink:title=" ">
<polygon fill="none" stroke="#bfbfbf" points="47,-190.5 47,-209.5 150,-209.5 150,-190.5 47,-190.5"/>
<text text-anchor="middle" x="98.5" y="-197.5" font-family="FreeSans.ttf" font-size="10.00">IRemoteVariables</text>
</a>
</g>
</g>
<!-- Node53&#45;&gt;Node21 -->
<g id="edge62" class="edge">
<title>Node53&#45;&gt;Node21</title>
<path fill="none" stroke="midnightblue" d="M160.43,-201.6C173.77,-204.58 186.91,-209.88 197,-219 238,-256.04 193.72,-299.14 233,-338 236.87,-341.83 241.29,-345.08 246.03,-347.83"/>
<polygon fill="midnightblue" stroke="midnightblue" points="160.7,-198.09 150.24,-199.76 159.46,-204.98 160.7,-198.09"/>
</g>
<!-- Node53&#45;&gt;Node23 -->
<g id="edge63" class="edge">
<title>Node53&#45;&gt;Node23</title>
<path fill="none" stroke="midnightblue" d="M160.18,-207.25C172.69,-210 185.54,-213.79 197,-219 240.74,-238.9 282.96,-277.42 304.4,-298.79"/>
<polygon fill="midnightblue" stroke="midnightblue" points="160.74,-203.8 150.24,-205.27 159.36,-210.66 160.74,-203.8"/>
</g>
<!-- Node54 -->
<g id="node35" class="node">
<title>Node54</title>
<g id="a_node35"><a xlink:title=" ">
<polygon fill="none" stroke="#bfbfbf" points="32.5,-684.5 32.5,-703.5 164.5,-703.5 164.5,-684.5 32.5,-684.5"/>
<text text-anchor="middle" x="98.5" y="-691.5" font-family="FreeSans.ttf" font-size="10.00">yarp::dev::IRGBDSensor</text>
</a>
</g>
</g>
<!-- Node54&#45;&gt;Node22 -->
<g id="edge64" class="edge">
<title>Node54&#45;&gt;Node22</title>
<path fill="none" stroke="midnightblue" d="M175,-701.22C196.91,-703.32 220.84,-705.61 242.79,-707.71"/>
<polygon fill="midnightblue" stroke="midnightblue" points="175.05,-697.71 164.76,-700.24 174.38,-704.68 175.05,-697.71"/>
</g>
<!-- Node55 -->
<g id="node36" class="node">
<title>Node55</title>
<g id="a_node36"><a xlink:title=" ">
<polygon fill="none" stroke="#bfbfbf" points="10.5,-722.5 10.5,-741.5 186.5,-741.5 186.5,-722.5 10.5,-722.5"/>
<text text-anchor="middle" x="98.5" y="-729.5" font-family="FreeSans.ttf" font-size="10.00">yarp::dev::IThreeAxisGyroscopes</text>
</a>
</g>
</g>
<!-- Node55&#45;&gt;Node25 -->
<g id="edge65" class="edge">
<title>Node55&#45;&gt;Node25</title>
<path fill="none" stroke="midnightblue" d="M165.76,-743.55C176.27,-745.78 186.97,-748.27 197,-751 231.67,-760.43 270.66,-774.87 295.03,-784.37"/>
<polygon fill="midnightblue" stroke="midnightblue" points="166.27,-740.09 155.77,-741.51 164.86,-746.94 166.27,-740.09"/>
</g>
<!-- Node56 -->
<g id="node37" class="node">
<title>Node56</title>
<g id="a_node37"><a xlink:title=" ">
<polygon fill="none" stroke="#bfbfbf" points="24,-875 24,-905 173,-905 173,-875 24,-875"/>
<text text-anchor="start" x="32" y="-893" font-family="FreeSans.ttf" font-size="10.00">yarp::dev::IThreeAxisLinear</text>
<text text-anchor="middle" x="98.5" y="-882" font-family="FreeSans.ttf" font-size="10.00">Accelerometers</text>
</a>
</g>
</g>
<!-- Node56&#45;&gt;Node25 -->
<g id="edge66" class="edge">
<title>Node56&#45;&gt;Node25</title>
<path fill="none" stroke="midnightblue" d="M182.45,-873.26C187.56,-870.87 192.46,-868.13 197,-865 219.84,-849.25 209.98,-829.49 233,-814 239.49,-809.64 246.8,-806.22 254.36,-803.54"/>
<polygon fill="midnightblue" stroke="midnightblue" points="180.93,-870.11 173.07,-877.22 183.64,-876.56 180.93,-870.11"/>
</g>
<!-- Node57 -->
<g id="node38" class="node">
<title>Node57</title>
<g id="a_node38"><a xlink:title=" ">
<polygon fill="none" stroke="#bfbfbf" points="0,-836.5 0,-855.5 197,-855.5 197,-836.5 0,-836.5"/>
<text text-anchor="middle" x="98.5" y="-843.5" font-family="FreeSans.ttf" font-size="10.00">yarp::dev::IThreeAxisMagnetometers</text>
</a>
</g>
</g>
<!-- Node57&#45;&gt;Node25 -->
<g id="edge67" class="edge">
<title>Node57&#45;&gt;Node25</title>
<path fill="none" stroke="midnightblue" d="M166.17,-834.43C176.55,-832.22 187.11,-829.73 197,-827 213.4,-822.47 216.69,-818.82 233,-814 245.94,-810.17 260.14,-806.62 273.21,-803.59"/>
<polygon fill="midnightblue" stroke="midnightblue" points="165.39,-831.02 156.3,-836.46 166.8,-837.87 165.39,-831.02"/>
</g>
<!-- Node58 -->
<g id="node39" class="node">
<title>Node58</title>
<g id="a_node39"><a xlink:title=" ">
<polygon fill="none" stroke="#bfbfbf" points="55,-152.5 55,-171.5 142,-171.5 142,-152.5 55,-152.5"/>
<text text-anchor="middle" x="98.5" y="-159.5" font-family="FreeSans.ttf" font-size="10.00">ITorqueControl</text>
</a>
</g>
</g>
<!-- Node58&#45;&gt;Node21 -->
<g id="edge68" class="edge">
<title>Node58&#45;&gt;Node21</title>
<path fill="none" stroke="midnightblue" d="M152.18,-161.49C168.4,-163.93 185.09,-169.48 197,-181 248.45,-230.78 183.86,-285.94 233,-338 236.63,-341.84 240.81,-345.11 245.34,-347.88"/>
<polygon fill="midnightblue" stroke="midnightblue" points="152.52,-158.01 142.19,-160.35 151.72,-164.96 152.52,-158.01"/>
</g>
<!-- Node58&#45;&gt;Node23 -->
<g id="edge69" class="edge">
<title>Node58&#45;&gt;Node23</title>
<path fill="none" stroke="midnightblue" d="M152.55,-166.1C167.61,-168.88 183.55,-173.47 197,-181 249.49,-210.39 291.87,-270.51 309.78,-298.73"/>
<polygon fill="midnightblue" stroke="midnightblue" points="152.74,-162.58 142.31,-164.45 151.63,-169.49 152.74,-162.58"/>
</g>
<!-- Node59 -->
<g id="node40" class="node">
<title>Node59</title>
<g id="a_node40"><a xlink:title=" ">
<polygon fill="none" stroke="#bfbfbf" points="51.5,-114.5 51.5,-133.5 145.5,-133.5 145.5,-114.5 51.5,-114.5"/>
<text text-anchor="middle" x="98.5" y="-121.5" font-family="FreeSans.ttf" font-size="10.00">IVelocityControl</text>
</a>
</g>
</g>
<!-- Node59&#45;&gt;Node21 -->
<g id="edge70" class="edge">
<title>Node59&#45;&gt;Node21</title>
<path fill="none" stroke="midnightblue" d="M155.64,-123.71C170.85,-126.37 186.1,-131.99 197,-143 259.01,-205.63 173.89,-272.64 233,-338 236.44,-341.81 240.43,-345.05 244.75,-347.8"/>
<polygon fill="midnightblue" stroke="midnightblue" points="156.07,-120.24 145.69,-122.36 155.13,-127.17 156.07,-120.24"/>
</g>
<!-- Node59&#45;&gt;Node23 -->
<g id="edge71" class="edge">
<title>Node59&#45;&gt;Node23</title>
<path fill="none" stroke="midnightblue" d="M156.06,-127.62C170.24,-130.46 184.86,-135.19 197,-143 258.49,-182.57 298.5,-265.05 312.95,-298.95"/>
<polygon fill="midnightblue" stroke="midnightblue" points="156.3,-124.11 145.85,-125.88 155.12,-131.01 156.3,-124.11"/>
</g>
<!-- Node60 -->
<g id="node41" class="node">
<title>Node60</title>
<g id="a_node41"><a xlink:title=" ">
<polygon fill="none" stroke="#bfbfbf" points="39,-646.5 39,-665.5 158,-665.5 158,-646.5 39,-646.5"/>
<text text-anchor="middle" x="98.5" y="-653.5" font-family="FreeSans.ttf" font-size="10.00">IVirtualAnalogSensor</text>
</a>
</g>
</g>
<!-- Node60&#45;&gt;Node21 -->
<g id="edge72" class="edge">
<title>Node60&#45;&gt;Node21</title>
<path fill="none" stroke="midnightblue" d="M167.81,-651.39C178.35,-648.32 188.53,-643.74 197,-637 283.58,-568.1 310.49,-424.79 317.13,-378.08"/>
<polygon fill="midnightblue" stroke="midnightblue" points="166.93,-648 158.06,-653.8 168.61,-654.8 166.93,-648"/>
</g>
<!-- Node61 -->
<g id="node42" class="node">
<title>Node61</title>
<g id="a_node42"><a xlink:title=" ">
<polygon fill="none" stroke="#bfbfbf" points="17,-924.5 17,-943.5 180,-943.5 180,-924.5 17,-924.5"/>
<text text-anchor="middle" x="98.5" y="-931.5" font-family="FreeSans.ttf" font-size="10.00">yarp::dev::Lidar2DDeviceBase</text>
</a>
</g>
</g>
<!-- Node61&#45;&gt;Node28 -->
<g id="edge73" class="edge">
<title>Node61&#45;&gt;Node28</title>
<path fill="none" stroke="midnightblue" d="M160.25,-922.48C172.44,-920.08 185.14,-917.52 197,-915 216.03,-910.96 236.66,-906.33 255.45,-902"/>
<polygon fill="midnightblue" stroke="midnightblue" points="159.31,-919.1 150.17,-924.46 160.65,-925.97 159.31,-919.1"/>
</g>
</g>
</svg>
