<?xml version="1.0" encoding="UTF-8" standalone="no"?>
<!DOCTYPE svg PUBLIC "-//W3C//DTD SVG 1.1//EN"
 "http://www.w3.org/Graphics/SVG/1.1/DTD/svg11.dtd">
<!-- Generated by graphviz version 3.0.0 (20220315.2325)
 -->
<!-- Title: Graphical Class Hierarchy Pages: 1 -->
<svg width="293pt" height="389pt"
 viewBox="0.00 0.00 293.00 388.50" xmlns="http://www.w3.org/2000/svg" xmlns:xlink="http://www.w3.org/1999/xlink">
<g id="graph0" class="graph" transform="scale(1 1) rotate(0) translate(4 384.5)">
<title>Graphical Class Hierarchy</title>
<!-- Node0 -->
<g id="node1" class="node">
<title>Node0</title>
<g id="a_node1"><a xlink:title=" ">
<polygon fill="none" stroke="#bfbfbf" points="0,-192 0,-211 77,-211 77,-192 0,-192"/>
<text text-anchor="middle" x="38.5" y="-199" font-family="FreeSans.ttf" font-size="10.00">ModelPlugin</text>
</a>
</g>
</g>
<!-- Node1 -->
<g id="node2" class="node">
<title>Node1</title>
<g id="a_node2"><a xlink:href="classgazebo_1_1ApplyExternalWrench.html" target="_top" xlink:title=" ">
<polygon fill="none" stroke="black" points="117.5,-361 117.5,-380 280.5,-380 280.5,-361 117.5,-361"/>
<text text-anchor="middle" x="199" y="-368" font-family="FreeSans.ttf" font-size="10.00">gazebo::ApplyExternalWrench</text>
</a>
</g>
</g>
<!-- Node0&#45;&gt;Node1 -->
<g id="edge1" class="edge">
<title>Node0&#45;&gt;Node1</title>
<path fill="none" stroke="midnightblue" d="M43.36,-221.02C50.83,-253.39 70.42,-317.94 113,-351.5 117.87,-355.34 123.36,-358.43 129.14,-360.93"/>
<polygon fill="midnightblue" stroke="midnightblue" points="46.74,-220.06 41.21,-211.02 39.89,-221.53 46.74,-220.06"/>
</g>
<!-- Node2 -->
<g id="node3" class="node">
<title>Node2</title>
<g id="a_node3"><a xlink:href="classgazebo_1_1ConfigurationOverride.html" target="_top" xlink:title=" ">
<polygon fill="none" stroke="black" points="116.5,-323 116.5,-342 281.5,-342 281.5,-323 116.5,-323"/>
<text text-anchor="middle" x="199" y="-330" font-family="FreeSans.ttf" font-size="10.00">gazebo::ConfigurationOverride</text>
</a>
</g>
</g>
<!-- Node0&#45;&gt;Node2 -->
<g id="edge2" class="edge">
<title>Node0&#45;&gt;Node2</title>
<path fill="none" stroke="midnightblue" d="M46.71,-220.71C57.25,-246.07 79.36,-290.24 113,-313.5 118.6,-317.37 124.85,-320.47 131.36,-322.94"/>
<polygon fill="midnightblue" stroke="midnightblue" points="49.84,-219.11 42.9,-211.11 43.33,-221.69 49.84,-219.11"/>
</g>
<!-- Node3 -->
<g id="node4" class="node">
<title>Node3</title>
<g id="a_node4"><a xlink:href="classgazebo_1_1GazeboYarpBaseState.html" target="_top" xlink:title=" ">
<polygon fill="none" stroke="black" points="117,-285 117,-304 281,-304 281,-285 117,-285"/>
<text text-anchor="middle" x="199" y="-292" font-family="FreeSans.ttf" font-size="10.00">gazebo::GazeboYarpBaseState</text>
</a>
</g>
</g>
<!-- Node0&#45;&gt;Node3 -->
<g id="edge3" class="edge">
<title>Node0&#45;&gt;Node3</title>
<path fill="none" stroke="midnightblue" d="M52.24,-219.25C65.48,-236.33 87.76,-261.57 113,-275.5 120.02,-279.37 127.77,-282.46 135.66,-284.91"/>
<polygon fill="midnightblue" stroke="midnightblue" points="54.98,-217.06 46.18,-211.16 49.38,-221.26 54.98,-217.06"/>
</g>
<!-- Node4 -->
<g id="node5" class="node">
<title>Node4</title>
<g id="a_node5"><a xlink:href="classgazebo_1_1GazeboYarpContactLoadCellArray.html" target="_top" xlink:title=" ">
<polygon fill="none" stroke="black" points="123,-235.5 123,-265.5 275,-265.5 275,-235.5 123,-235.5"/>
<text text-anchor="start" x="131" y="-253.5" font-family="FreeSans.ttf" font-size="10.00">gazebo::GazeboYarpContact</text>
<text text-anchor="middle" x="199" y="-242.5" font-family="FreeSans.ttf" font-size="10.00">LoadCellArray</text>
</a>
</g>
</g>
<!-- Node0&#45;&gt;Node4 -->
<g id="edge4" class="edge">
<title>Node0&#45;&gt;Node4</title>
<path fill="none" stroke="midnightblue" d="M76.11,-214.38C87.85,-218.39 100.93,-222.75 113,-226.5 122.66,-229.51 132.99,-232.56 143.01,-235.43"/>
<polygon fill="midnightblue" stroke="midnightblue" points="77.21,-211.05 66.61,-211.1 74.93,-217.67 77.21,-211.05"/>
</g>
<!-- Node5 -->
<g id="node6" class="node">
<title>Node5</title>
<g id="a_node6"><a xlink:href="classgazebo_1_1GazeboYarpControlBoard.html" target="_top" xlink:title="Gazebo Plugin emulating the yarp controlBoard device in Gazebo.">
<polygon fill="none" stroke="black" points="124,-186.5 124,-216.5 274,-216.5 274,-186.5 124,-186.5"/>
<text text-anchor="start" x="132" y="-204.5" font-family="FreeSans.ttf" font-size="10.00">gazebo::GazeboYarpControl</text>
<text text-anchor="middle" x="199" y="-193.5" font-family="FreeSans.ttf" font-size="10.00">Board</text>
</a>
</g>
</g>
<!-- Node0&#45;&gt;Node5 -->
<g id="edge5" class="edge">
<title>Node0&#45;&gt;Node5</title>
<path fill="none" stroke="midnightblue" d="M87.34,-201.5C98.91,-201.5 111.53,-201.5 123.98,-201.5"/>
<polygon fill="midnightblue" stroke="midnightblue" points="87.06,-198 77.06,-201.5 87.06,-205 87.06,-198"/>
</g>
<!-- Node6 -->
<g id="node7" class="node">
<title>Node6</title>
<g id="a_node7"><a xlink:href="classgazebo_1_1GazeboYarpFakeControlBoard.html" target="_top" xlink:title="Gazebo Plugin emulating a fake yarp controlboard in Gazebo.">
<polygon fill="none" stroke="black" points="113,-137.5 113,-167.5 285,-167.5 285,-137.5 113,-137.5"/>
<text text-anchor="start" x="121" y="-155.5" font-family="FreeSans.ttf" font-size="10.00">gazebo::GazeboYarpFakeControl</text>
<text text-anchor="middle" x="199" y="-144.5" font-family="FreeSans.ttf" font-size="10.00">Board</text>
</a>
</g>
</g>
<!-- Node0&#45;&gt;Node6 -->
<g id="edge6" class="edge">
<title>Node0&#45;&gt;Node6</title>
<path fill="none" stroke="midnightblue" d="M77.69,-188.79C89.03,-185.08 101.5,-181.07 113,-177.5 123.58,-174.22 134.93,-170.8 145.78,-167.59"/>
<polygon fill="midnightblue" stroke="midnightblue" points="76.47,-185.51 68.06,-191.96 78.65,-192.16 76.47,-185.51"/>
</g>
<!-- Node7 -->
<g id="node8" class="node">
<title>Node7</title>
<g id="a_node8"><a xlink:href="classgazebo_1_1GazeboYarpInertialMTBPart.html" target="_top" xlink:title="Gazebo Plugin emulating the yarp inertial MTB sensors device in Gazebo.">
<polygon fill="none" stroke="black" points="124.5,-88.5 124.5,-118.5 273.5,-118.5 273.5,-88.5 124.5,-88.5"/>
<text text-anchor="start" x="132.5" y="-106.5" font-family="FreeSans.ttf" font-size="10.00">gazebo::GazeboYarpInertial</text>
<text text-anchor="middle" x="199" y="-95.5" font-family="FreeSans.ttf" font-size="10.00">MTBPart</text>
</a>
</g>
</g>
<!-- Node0&#45;&gt;Node7 -->
<g id="edge7" class="edge">
<title>Node0&#45;&gt;Node7</title>
<path fill="none" stroke="midnightblue" d="M53.09,-183.62C66.58,-167.05 88.71,-142.87 113,-128.5 119.49,-124.66 126.61,-121.38 133.88,-118.58"/>
<polygon fill="midnightblue" stroke="midnightblue" points="49.97,-181.91 46.52,-191.93 55.47,-186.25 49.97,-181.91"/>
</g>
<!-- Node8 -->
<g id="node9" class="node">
<title>Node8</title>
<g id="a_node9"><a xlink:href="classgazebo_1_1GazeboYarpMaisSensor.html" target="_top" xlink:title="Gazebo Plugin emulating the yarp mais sensor (IAnalogSensor) in Gazebo.">
<polygon fill="none" stroke="black" points="113.5,-50 113.5,-69 284.5,-69 284.5,-50 113.5,-50"/>
<text text-anchor="middle" x="199" y="-57" font-family="FreeSans.ttf" font-size="10.00">gazebo::GazeboYarpMaisSensor</text>
</a>
</g>
</g>
<!-- Node0&#45;&gt;Node8 -->
<g id="edge8" class="edge">
<title>Node0&#45;&gt;Node8</title>
<path fill="none" stroke="midnightblue" d="M45.71,-182.2C55.5,-154.95 77.19,-105.6 113,-79.5 119,-75.12 125.82,-71.69 132.93,-69"/>
<polygon fill="midnightblue" stroke="midnightblue" points="42.35,-181.18 42.43,-191.78 48.98,-183.45 42.35,-181.18"/>
</g>
<!-- Node9 -->
<g id="node10" class="node">
<title>Node9</title>
<g id="a_node10"><a xlink:href="classgazebo_1_1GazeboYarpModelPosePublisher.html" target="_top" xlink:title="Gazebo Plugin that publishes the pose of the root link of a model with respect to the Gazebo world fr...">
<polygon fill="none" stroke="black" points="115,-0.5 115,-30.5 283,-30.5 283,-0.5 115,-0.5"/>
<text text-anchor="start" x="123" y="-18.5" font-family="FreeSans.ttf" font-size="10.00">gazebo::GazeboYarpModelPose</text>
<text text-anchor="middle" x="199" y="-7.5" font-family="FreeSans.ttf" font-size="10.00">Publisher</text>
</a>
</g>
</g>
<!-- Node0&#45;&gt;Node9 -->
<g id="edge9" class="edge">
<title>Node0&#45;&gt;Node9</title>
<path fill="none" stroke="midnightblue" d="M42.99,-181.83C50.04,-147.93 69.2,-78.48 113,-40.5 117.42,-36.67 122.39,-33.43 127.67,-30.68"/>
<polygon fill="midnightblue" stroke="midnightblue" points="39.51,-181.38 41.04,-191.87 46.38,-182.72 39.51,-181.38"/>
</g>
</g>
</svg>
