<?xml version="1.0" encoding="UTF-8" standalone="no"?>
<!DOCTYPE svg PUBLIC "-//W3C//DTD SVG 1.1//EN"
 "http://www.w3.org/Graphics/SVG/1.1/DTD/svg11.dtd">
<!-- Generated by graphviz version 2.43.0 (0)
 -->
<!-- Title: Graphical Class Hierarchy Pages: 1 -->
<svg width="349pt" height="142pt"
 viewBox="0.00 0.00 349.00 142.00" xmlns="http://www.w3.org/2000/svg" xmlns:xlink="http://www.w3.org/1999/xlink">
<g id="graph0" class="graph" transform="scale(1 1) rotate(0) translate(4 138)">
<title>Graphical Class Hierarchy</title>
<!-- Node62 -->
<g id="node1" class="node">
<title>Node62</title>
<g id="a_node1"><a xlink:title=" ">
<polygon fill="none" stroke="#bfbfbf" points="0,-57.5 0,-76.5 118,-76.5 118,-57.5 0,-57.5"/>
<text text-anchor="middle" x="59" y="-64.5" font-family="FreeSans.ttf" font-size="10.00">gazebo::ModelPlugin</text>
</a>
</g>
</g>
<!-- Node0 -->
<g id="node2" class="node">
<title>Node0</title>
<g id="a_node2"><a xlink:href="classgazebo_1_1GazeboYarpRobotInterface.html" target="_top" xlink:title="See gazebo&#45;yarp&#45;plugins/plugins/robotinterface/README.md for documentation on this plugin.">
<polygon fill="none" stroke="black" points="154,-114.5 154,-133.5 341,-133.5 341,-114.5 154,-114.5"/>
<text text-anchor="middle" x="247.5" y="-121.5" font-family="FreeSans.ttf" font-size="10.00">gazebo::GazeboYarpRobotInterface</text>
</a>
</g>
</g>
<!-- Node62&#45;&gt;Node0 -->
<g id="edge1" class="edge">
<title>Node62&#45;&gt;Node0</title>
<path fill="none" stroke="midnightblue" d="M89.75,-80.65C108,-88.61 132,-98.36 154,-105 166.08,-108.65 179.27,-111.82 191.8,-114.48"/>
<polygon fill="midnightblue" stroke="midnightblue" points="91.08,-77.41 80.52,-76.56 88.24,-83.81 91.08,-77.41"/>
</g>
<!-- Node64 -->
<g id="node3" class="node">
<title>Node64</title>
<g id="a_node3"><a xlink:href="classgazebo_1_1LinkAttacher.html" target="_top" xlink:title=" ">
<polygon fill="none" stroke="black" points="188,-76.5 188,-95.5 307,-95.5 307,-76.5 188,-76.5"/>
<text text-anchor="middle" x="247.5" y="-83.5" font-family="FreeSans.ttf" font-size="10.00">gazebo::LinkAttacher</text>
</a>
</g>
</g>
<!-- Node62&#45;&gt;Node64 -->
<g id="edge2" class="edge">
<title>Node62&#45;&gt;Node64</title>
<path fill="none" stroke="midnightblue" d="M128.28,-73.96C147.78,-75.94 168.86,-78.09 187.74,-80.01"/>
<polygon fill="midnightblue" stroke="midnightblue" points="128.55,-70.47 118.24,-72.93 127.84,-77.43 128.55,-70.47"/>
</g>
<!-- Node65 -->
<g id="node4" class="node">
<title>Node65</title>
<g id="a_node4"><a xlink:href="classgazebo_1_1ShowModelCoM.html" target="_top" xlink:title=" ">
<polygon fill="none" stroke="black" points="179.5,-38.5 179.5,-57.5 315.5,-57.5 315.5,-38.5 179.5,-38.5"/>
<text text-anchor="middle" x="247.5" y="-45.5" font-family="FreeSans.ttf" font-size="10.00">gazebo::ShowModelCoM</text>
</a>
</g>
</g>
<!-- Node62&#45;&gt;Node65 -->
<g id="edge3" class="edge">
<title>Node62&#45;&gt;Node65</title>
<path fill="none" stroke="midnightblue" d="M128.4,-60.03C144.99,-58.34 162.72,-56.54 179.25,-54.85"/>
<polygon fill="midnightblue" stroke="midnightblue" points="127.84,-56.57 118.24,-61.07 128.55,-63.53 127.84,-56.57"/>
</g>
<!-- Node66 -->
<g id="node5" class="node">
<title>Node66</title>
<g id="a_node5"><a xlink:href="classgazebo_1_1WorldInterface.html" target="_top" xlink:title=" ">
<polygon fill="none" stroke="black" points="183,-0.5 183,-19.5 312,-19.5 312,-0.5 183,-0.5"/>
<text text-anchor="middle" x="247.5" y="-7.5" font-family="FreeSans.ttf" font-size="10.00">gazebo::WorldInterface</text>
</a>
</g>
</g>
<!-- Node62&#45;&gt;Node66 -->
<g id="edge4" class="edge">
<title>Node62&#45;&gt;Node66</title>
<path fill="none" stroke="midnightblue" d="M89.75,-53.35C108,-45.39 132,-35.64 154,-29 166.08,-25.35 179.27,-22.18 191.8,-19.52"/>
<polygon fill="midnightblue" stroke="midnightblue" points="88.24,-50.19 80.52,-57.44 91.08,-56.59 88.24,-50.19"/>
</g>
</g>
</svg>
