<?xml version="1.0" encoding="UTF-8" standalone="no"?>
<!DOCTYPE svg PUBLIC "-//W3C//DTD SVG 1.1//EN"
 "http://www.w3.org/Graphics/SVG/1.1/DTD/svg11.dtd">
<!-- Generated by graphviz version 5.0.1 (20220821.0811)
 -->
<!-- Title: Graphical Class Hierarchy Pages: 1 -->
<svg width="424pt" height="164pt"
 viewBox="0.00 0.00 424.00 163.50" xmlns="http://www.w3.org/2000/svg" xmlns:xlink="http://www.w3.org/1999/xlink">
<g id="graph0" class="graph" transform="scale(1 1) rotate(0) translate(4 159.5)">
<title>Graphical Class Hierarchy</title>
<!-- Node0 -->
<g id="node1" class="node">
<title>Node0</title>
<g id="a_node1"><a xlink:title=" ">
<polygon fill="none" stroke="#bfbfbf" points="0,-81.5 0,-100.5 84,-100.5 84,-81.5 0,-81.5"/>
<text text-anchor="middle" x="42" y="-88.5" font-family="FreeSans.ttf" font-size="10.00">yarp::os::Wire</text>
</a>
</g>
</g>
<!-- Node1 -->
<g id="node2" class="node">
<title>Node1</title>
<g id="a_node2"><a xlink:href="classGazeboYarpPlugins_1_1ClockServer.html" target="_top" xlink:title=" ">
<polygon fill="none" stroke="black" points="122,-125 122,-155 237,-155 237,-125 122,-125"/>
<text text-anchor="start" x="130" y="-143" font-family="FreeSans.ttf" font-size="10.00">GazeboYarpPlugins::</text>
<text text-anchor="middle" x="179.5" y="-132" font-family="FreeSans.ttf" font-size="10.00">ClockServer</text>
</a>
</g>
</g>
<!-- Node0&#45;&gt;Node1 -->
<g id="edge1" class="edge">
<title>Node0&#45;&gt;Node1</title>
<path fill="none" stroke="midnightblue" d="M78.92,-103.99C96.74,-110.43 118.38,-118.26 136.92,-124.96"/>
<polygon fill="midnightblue" stroke="midnightblue" points="80.04,-100.67 69.45,-100.56 77.66,-107.26 80.04,-100.67"/>
</g>
<!-- Node3 -->
<g id="node4" class="node">
<title>Node3</title>
<g id="a_node4"><a xlink:href="classGazeboYarpPlugins_1_1LinkAttacherServer.html" target="_top" xlink:title=" ">
<polygon fill="none" stroke="black" points="122,-76 122,-106 237,-106 237,-76 122,-76"/>
<text text-anchor="start" x="130" y="-94" font-family="FreeSans.ttf" font-size="10.00">GazeboYarpPlugins::</text>
<text text-anchor="middle" x="179.5" y="-83" font-family="FreeSans.ttf" font-size="10.00">LinkAttacherServer</text>
</a>
</g>
</g>
<!-- Node0&#45;&gt;Node3 -->
<g id="edge3" class="edge">
<title>Node0&#45;&gt;Node3</title>
<path fill="none" stroke="midnightblue" d="M94.28,-91C103.21,-91 112.55,-91 121.62,-91"/>
<polygon fill="midnightblue" stroke="midnightblue" points="94.02,-87.5 84.02,-91 94.02,-94.5 94.02,-87.5"/>
</g>
<!-- Node5 -->
<g id="node6" class="node">
<title>Node5</title>
<g id="a_node6"><a xlink:href="classGazeboYarpPlugins_1_1WorldInterfaceServer.html" target="_top" xlink:title=" ">
<polygon fill="none" stroke="black" points="120,-27 120,-57 239,-57 239,-27 120,-27"/>
<text text-anchor="start" x="128" y="-45" font-family="FreeSans.ttf" font-size="10.00">GazeboYarpPlugins::</text>
<text text-anchor="middle" x="179.5" y="-34" font-family="FreeSans.ttf" font-size="10.00">WorldInterfaceServer</text>
</a>
</g>
</g>
<!-- Node0&#45;&gt;Node5 -->
<g id="edge5" class="edge">
<title>Node0&#45;&gt;Node5</title>
<path fill="none" stroke="midnightblue" d="M78.92,-78.01C96.74,-71.57 118.38,-63.74 136.92,-57.04"/>
<polygon fill="midnightblue" stroke="midnightblue" points="77.66,-74.74 69.45,-81.44 80.04,-81.33 77.66,-74.74"/>
</g>
<!-- Node2 -->
<g id="node3" class="node">
<title>Node2</title>
<g id="a_node3"><a xlink:href="classGazeboYarpPlugins_1_1ClockServerImpl.html" target="_top" xlink:title=" ">
<polygon fill="none" stroke="black" points="288,-125 288,-155 403,-155 403,-125 288,-125"/>
<text text-anchor="start" x="296" y="-143" font-family="FreeSans.ttf" font-size="10.00">GazeboYarpPlugins::</text>
<text text-anchor="middle" x="345.5" y="-132" font-family="FreeSans.ttf" font-size="10.00">ClockServerImpl</text>
</a>
</g>
</g>
<!-- Node1&#45;&gt;Node2 -->
<g id="edge2" class="edge">
<title>Node1&#45;&gt;Node2</title>
<path fill="none" stroke="midnightblue" d="M247.54,-140C260.96,-140 274.95,-140 287.98,-140"/>
<polygon fill="midnightblue" stroke="midnightblue" points="247.4,-136.5 237.4,-140 247.4,-143.5 247.4,-136.5"/>
</g>
<!-- Node4 -->
<g id="node5" class="node">
<title>Node4</title>
<g id="a_node5"><a xlink:href="classLinkAttacherServerImpl.html" target="_top" xlink:title=" ">
<polygon fill="none" stroke="black" points="280,-81.5 280,-100.5 411,-100.5 411,-81.5 280,-81.5"/>
<text text-anchor="middle" x="345.5" y="-88.5" font-family="FreeSans.ttf" font-size="10.00">LinkAttacherServerImpl</text>
</a>
</g>
</g>
<!-- Node3&#45;&gt;Node4 -->
<g id="edge4" class="edge">
<title>Node3&#45;&gt;Node4</title>
<path fill="none" stroke="midnightblue" d="M247.5,-91C258.18,-91 269.21,-91 279.83,-91"/>
<polygon fill="midnightblue" stroke="midnightblue" points="247.4,-87.5 237.4,-91 247.4,-94.5 247.4,-87.5"/>
</g>
<!-- Node6 -->
<g id="node7" class="node">
<title>Node6</title>
<g id="a_node7"><a xlink:href="classWorldInterfaceServerImpl.html" target="_top" xlink:title=" ">
<polygon fill="none" stroke="black" points="275,-38.5 275,-57.5 416,-57.5 416,-38.5 275,-38.5"/>
<text text-anchor="middle" x="345.5" y="-45.5" font-family="FreeSans.ttf" font-size="10.00">WorldInterfaceServerImpl</text>
</a>
</g>
</g>
<!-- Node5&#45;&gt;Node6 -->
<g id="edge6" class="edge">
<title>Node5&#45;&gt;Node6</title>
<path fill="none" stroke="midnightblue" d="M249.43,-44.52C257.88,-44.83 266.52,-45.15 274.98,-45.46"/>
<polygon fill="midnightblue" stroke="midnightblue" points="249.37,-41.02 239.24,-44.15 249.11,-48.01 249.37,-41.02"/>
</g>
<!-- Node7 -->
<g id="node8" class="node">
<title>Node7</title>
<g id="a_node8"><a xlink:href="classWorldProxy.html" target="_top" xlink:title=" ">
<polygon fill="none" stroke="black" points="309.5,-0.5 309.5,-19.5 381.5,-19.5 381.5,-0.5 309.5,-0.5"/>
<text text-anchor="middle" x="345.5" y="-7.5" font-family="FreeSans.ttf" font-size="10.00">WorldProxy</text>
</a>
</g>
</g>
<!-- Node5&#45;&gt;Node7 -->
<g id="edge7" class="edge">
<title>Node5&#45;&gt;Node7</title>
<path fill="none" stroke="midnightblue" d="M249.23,-28.59C269.81,-24.57 291.54,-20.33 309.04,-16.92"/>
<polygon fill="midnightblue" stroke="midnightblue" points="248.39,-25.19 239.24,-30.54 249.73,-32.06 248.39,-25.19"/>
</g>
</g>
</svg>
