<?xml version="1.0" encoding="UTF-8" standalone="no"?>
<!DOCTYPE svg PUBLIC "-//W3C//DTD SVG 1.1//EN"
 "http://www.w3.org/Graphics/SVG/1.1/DTD/svg11.dtd">
<!-- Generated by graphviz version 2.43.0 (0)
 -->
<!-- Title: Graphical Class Hierarchy Pages: 1 -->
<svg width="325pt" height="78pt"
 viewBox="0.00 0.00 325.00 77.50" xmlns="http://www.w3.org/2000/svg" xmlns:xlink="http://www.w3.org/1999/xlink">
<g id="graph0" class="graph" transform="scale(1 1) rotate(0) translate(4 73.5)">
<title>Graphical Class Hierarchy</title>
<!-- Node144 -->
<g id="node1" class="node">
<title>Node144</title>
<g id="a_node1"><a xlink:title=" ">
<polygon fill="none" stroke="#bfbfbf" points="0,-22.5 0,-41.5 143,-41.5 143,-22.5 0,-22.5"/>
<text text-anchor="middle" x="71.5" y="-29.5" font-family="FreeSans.ttf" font-size="10.00">yarp::os::idl::WirePortable</text>
</a>
</g>
</g>
<!-- Node0 -->
<g id="node2" class="node">
<title>Node0</title>
<g id="a_node2"><a xlink:href="classGazeboYarpPlugins_1_1Color.html" target="_top" xlink:title=" ">
<polygon fill="none" stroke="black" points="190.5,-39 190.5,-69 305.5,-69 305.5,-39 190.5,-39"/>
<text text-anchor="start" x="198.5" y="-57" font-family="FreeSans.ttf" font-size="10.00">GazeboYarpPlugins::</text>
<text text-anchor="middle" x="248" y="-46" font-family="FreeSans.ttf" font-size="10.00">Color</text>
</a>
</g>
</g>
<!-- Node144&#45;&gt;Node0 -->
<g id="edge1" class="edge">
<title>Node144&#45;&gt;Node0</title>
<path fill="none" stroke="midnightblue" d="M153.23,-42.18C165.77,-43.76 178.5,-45.36 190.36,-46.86"/>
<polygon fill="midnightblue" stroke="midnightblue" points="153.58,-38.69 143.22,-40.92 152.71,-45.64 153.58,-38.69"/>
</g>
<!-- Node146 -->
<g id="node3" class="node">
<title>Node146</title>
<g id="a_node3"><a xlink:href="classGazeboYarpPlugins_1_1Pose.html" target="_top" xlink:title=" ">
<polygon fill="none" stroke="black" points="179,-0.5 179,-19.5 317,-19.5 317,-0.5 179,-0.5"/>
<text text-anchor="middle" x="248" y="-7.5" font-family="FreeSans.ttf" font-size="10.00">GazeboYarpPlugins::Pose</text>
</a>
</g>
</g>
<!-- Node144&#45;&gt;Node146 -->
<g id="edge2" class="edge">
<title>Node144&#45;&gt;Node146</title>
<path fill="none" stroke="midnightblue" d="M153.19,-21.83C161.72,-20.75 170.34,-19.66 178.72,-18.61"/>
<polygon fill="midnightblue" stroke="midnightblue" points="152.71,-18.36 143.22,-23.08 153.58,-25.31 152.71,-18.36"/>
</g>
</g>
</svg>
