<?xml version="1.0" encoding="UTF-8" standalone="no"?>
<!DOCTYPE svg PUBLIC "-//W3C//DTD SVG 1.1//EN"
 "http://www.w3.org/Graphics/SVG/1.1/DTD/svg11.dtd">
<!-- Generated by graphviz version 2.43.0 (0)
 -->
<!-- Title: Graphical Class Hierarchy Pages: 1 -->
<svg width="512pt" height="180pt"
 viewBox="0.00 0.00 512.00 180.00" xmlns="http://www.w3.org/2000/svg" xmlns:xlink="http://www.w3.org/1999/xlink">
<g id="graph0" class="graph" transform="scale(1 1) rotate(0) translate(4 176)">
<title>Graphical Class Hierarchy</title>
<!-- Node117 -->
<g id="node1" class="node">
<title>Node117</title>
<g id="a_node1"><a xlink:title=" ">
<polygon fill="none" stroke="#bfbfbf" points="0,-76.5 0,-95.5 80,-95.5 80,-76.5 0,-76.5"/>
<text text-anchor="middle" x="40" y="-83.5" font-family="FreeSans.ttf" font-size="10.00">SensorPlugin</text>
</a>
</g>
</g>
<!-- Node0 -->
<g id="node2" class="node">
<title>Node0</title>
<g id="a_node2"><a xlink:href="classgazebo_1_1GazeboYarpForceTorque.html" target="_top" xlink:title="Gazebo Plugin emulating the yarp device exposing a 6 axis force&#45;torque sensor.">
<polygon fill="none" stroke="black" points="116.5,-152.5 116.5,-171.5 289.5,-171.5 289.5,-152.5 116.5,-152.5"/>
<text text-anchor="middle" x="203" y="-159.5" font-family="FreeSans.ttf" font-size="10.00">gazebo::GazeboYarpForceTorque</text>
</a>
</g>
</g>
<!-- Node117&#45;&gt;Node0 -->
<g id="edge1" class="edge">
<title>Node117&#45;&gt;Node0</title>
<path fill="none" stroke="midnightblue" d="M58.31,-102.67C72.66,-115.57 94.17,-132.89 116,-143 124.33,-146.85 133.47,-149.95 142.6,-152.42"/>
<polygon fill="midnightblue" stroke="midnightblue" points="60.46,-99.9 50.74,-95.68 55.71,-105.04 60.46,-99.9"/>
</g>
<!-- Node119 -->
<g id="node3" class="node">
<title>Node119</title>
<g id="a_node3"><a xlink:href="classgazebo_1_1GazeboYarpIMU.html" target="_top" xlink:title="Gazebo Plugin emulating the yarp imu device in Gazebo.">
<polygon fill="none" stroke="black" points="136,-114.5 136,-133.5 270,-133.5 270,-114.5 136,-114.5"/>
<text text-anchor="middle" x="203" y="-121.5" font-family="FreeSans.ttf" font-size="10.00">gazebo::GazeboYarpIMU</text>
</a>
</g>
</g>
<!-- Node117&#45;&gt;Node119 -->
<g id="edge2" class="edge">
<title>Node117&#45;&gt;Node119</title>
<path fill="none" stroke="midnightblue" d="M87.55,-98.03C96.96,-100.39 106.79,-102.82 116,-105 129.54,-108.21 144.32,-111.54 157.75,-114.5"/>
<polygon fill="midnightblue" stroke="midnightblue" points="88.12,-94.56 77.57,-95.5 86.4,-101.35 88.12,-94.56"/>
</g>
<!-- Node120 -->
<g id="node4" class="node">
<title>Node120</title>
<g id="a_node4"><a xlink:href="classgazebo_1_1GazeboYarpInertialMTB.html" target="_top" xlink:title="Gazebo Plugin for the emulation of the yarp inertial MTB device in Gazebo.">
<polygon fill="none" stroke="black" points="117.5,-76.5 117.5,-95.5 288.5,-95.5 288.5,-76.5 117.5,-76.5"/>
<text text-anchor="middle" x="203" y="-83.5" font-family="FreeSans.ttf" font-size="10.00">gazebo::GazeboYarpInertialMTB</text>
</a>
</g>
</g>
<!-- Node117&#45;&gt;Node120 -->
<g id="edge3" class="edge">
<title>Node117&#45;&gt;Node120</title>
<path fill="none" stroke="midnightblue" d="M90.49,-86C99.02,-86 108.1,-86 117.26,-86"/>
<polygon fill="midnightblue" stroke="midnightblue" points="90.39,-82.5 80.39,-86 90.38,-89.5 90.39,-82.5"/>
</g>
<!-- Node121 -->
<g id="node5" class="node">
<title>Node121</title>
<g id="a_node5"><a xlink:href="classgazebo_1_1GazeboYarpLaserSensor.html" target="_top" xlink:title="Gazebo Plugin emulating the yarp device exposing a 6 axis force&#45;torque sensor.">
<polygon fill="none" stroke="black" points="116,-38.5 116,-57.5 290,-57.5 290,-38.5 116,-38.5"/>
<text text-anchor="middle" x="203" y="-45.5" font-family="FreeSans.ttf" font-size="10.00">gazebo::GazeboYarpLaserSensor</text>
</a>
</g>
</g>
<!-- Node117&#45;&gt;Node121 -->
<g id="edge4" class="edge">
<title>Node117&#45;&gt;Node121</title>
<path fill="none" stroke="midnightblue" d="M87.55,-73.97C96.96,-71.61 106.79,-69.18 116,-67 129.54,-63.79 144.32,-60.46 157.75,-57.5"/>
<polygon fill="midnightblue" stroke="midnightblue" points="86.4,-70.65 77.57,-76.5 88.12,-77.44 86.4,-70.65"/>
</g>
<!-- Node122 -->
<g id="node6" class="node">
<title>Node122</title>
<g id="a_node6"><a xlink:href="classgazebo_1_1MultiCameraPlugin.html" target="_top" xlink:title=" ">
<polygon fill="none" stroke="black" points="127.5,-0.5 127.5,-19.5 278.5,-19.5 278.5,-0.5 127.5,-0.5"/>
<text text-anchor="middle" x="203" y="-7.5" font-family="FreeSans.ttf" font-size="10.00">gazebo::MultiCameraPlugin</text>
</a>
</g>
</g>
<!-- Node117&#45;&gt;Node122 -->
<g id="edge5" class="edge">
<title>Node117&#45;&gt;Node122</title>
<path fill="none" stroke="midnightblue" d="M58.31,-69.33C72.66,-56.43 94.17,-39.11 116,-29 124.33,-25.15 133.47,-22.05 142.6,-19.58"/>
<polygon fill="midnightblue" stroke="midnightblue" points="55.71,-66.96 50.74,-76.32 60.46,-72.1 55.71,-66.96"/>
</g>
<!-- Node123 -->
<g id="node7" class="node">
<title>Node123</title>
<g id="a_node7"><a xlink:href="classgazebo_1_1GazeboYarpMultiCamera.html" target="_top" xlink:title="Gazebo Plugin reading from the Gazebo MultiCamera plugin.">
<polygon fill="none" stroke="black" points="326,-0.5 326,-19.5 504,-19.5 504,-0.5 326,-0.5"/>
<text text-anchor="middle" x="415" y="-7.5" font-family="FreeSans.ttf" font-size="10.00">gazebo::GazeboYarpMultiCamera</text>
</a>
</g>
</g>
<!-- Node122&#45;&gt;Node123 -->
<g id="edge6" class="edge">
<title>Node122&#45;&gt;Node123</title>
<path fill="none" stroke="midnightblue" d="M288.81,-10C301.05,-10 313.67,-10 325.97,-10"/>
<polygon fill="midnightblue" stroke="midnightblue" points="288.63,-6.5 278.63,-10 288.63,-13.5 288.63,-6.5"/>
</g>
</g>
</svg>
