<?xml version="1.0" encoding="UTF-8" standalone="no"?>
<!DOCTYPE svg PUBLIC "-//W3C//DTD SVG 1.1//EN"
 "http://www.w3.org/Graphics/SVG/1.1/DTD/svg11.dtd">
<!-- Generated by graphviz version 2.49.0 (20210829.0051)
 -->
<!-- Title: Graphical Class Hierarchy Pages: 1 -->
<svg width="415pt" height="1205pt"
 viewBox="0.00 0.00 415.00 1204.50" xmlns="http://www.w3.org/2000/svg" xmlns:xlink="http://www.w3.org/1999/xlink">
<g id="graph0" class="graph" transform="scale(1 1) rotate(0) translate(4 1200.5)">
<title>Graphical Class Hierarchy</title>
<!-- Node17 -->
<g id="node1" class="node">
<title>Node17</title>
<g id="a_node1"><a xlink:title=" ">
<polygon fill="none" stroke="#bfbfbf" points="33,-962.5 33,-981.5 164,-981.5 164,-962.5 33,-962.5"/>
<text text-anchor="middle" x="98.5" y="-969.5" font-family="FreeSans.ttf" font-size="10.00">yarp::dev::DeviceDriver</text>
</a>
</g>
</g>
<!-- Node0 -->
<g id="node2" class="node">
<title>Node0</title>
<g id="a_node2"><a xlink:href="classyarp_1_1dev_1_1GazeboYarpBaseStateDriver.html" target="_top" xlink:title="YARP device driver to give the gazebo state information of a desired base link of the robot The state...">
<polygon fill="none" stroke="black" points="245.5,-921 245.5,-951 394.5,-951 394.5,-921 245.5,-921"/>
<text text-anchor="start" x="253.5" y="-939" font-family="FreeSans.ttf" font-size="10.00">yarp::dev::GazeboYarpBase</text>
<text text-anchor="middle" x="320" y="-928" font-family="FreeSans.ttf" font-size="10.00">StateDriver</text>
</a>
</g>
</g>
<!-- Node17&#45;&gt;Node0 -->
<g id="edge1" class="edge">
<title>Node17&#45;&gt;Node0</title>
<path fill="none" stroke="midnightblue" d="M167.46,-960.85C192.16,-956.8 220.18,-952.21 245.34,-948.08"/>
<polygon fill="midnightblue" stroke="midnightblue" points="166.76,-957.42 157.46,-962.49 167.89,-964.33 166.76,-957.42"/>
</g>
<!-- Node19 -->
<g id="node3" class="node">
<title>Node19</title>
<g id="a_node3"><a xlink:href="classyarp_1_1dev_1_1GazeboYarpCameraDriver.html" target="_top" xlink:title=" ">
<polygon fill="none" stroke="black" points="238.5,-1117 238.5,-1147 401.5,-1147 401.5,-1117 238.5,-1117"/>
<text text-anchor="start" x="246.5" y="-1135" font-family="FreeSans.ttf" font-size="10.00">yarp::dev::GazeboYarpCamera</text>
<text text-anchor="middle" x="320" y="-1124" font-family="FreeSans.ttf" font-size="10.00">Driver</text>
</a>
</g>
</g>
<!-- Node17&#45;&gt;Node19 -->
<g id="edge2" class="edge">
<title>Node17&#45;&gt;Node19</title>
<path fill="none" stroke="midnightblue" d="M173.89,-977.55C182.37,-980.67 190.34,-985.01 197,-991 237.46,-1027.38 194.03,-1070.04 233,-1108 236.55,-1111.46 240.56,-1114.43 244.86,-1116.98"/>
<polygon fill="midnightblue" stroke="midnightblue" points="174.73,-974.15 164.14,-974.53 172.66,-980.84 174.73,-974.15"/>
</g>
<!-- Node20 -->
<g id="node4" class="node">
<title>Node20</title>
<g id="a_node4"><a xlink:href="classyarp_1_1dev_1_1GazeboYarpContactLoadCellArrayDriver.html" target="_top" xlink:title="YARP Device Driver for an array of contact load cells giving 1&#45;axis force at different locations.">
<polygon fill="none" stroke="black" points="239,-1068 239,-1098 401,-1098 401,-1068 239,-1068"/>
<text text-anchor="start" x="247" y="-1086" font-family="FreeSans.ttf" font-size="10.00">yarp::dev::GazeboYarpContact</text>
<text text-anchor="middle" x="320" y="-1075" font-family="FreeSans.ttf" font-size="10.00">LoadCellArrayDriver</text>
</a>
</g>
</g>
<!-- Node17&#45;&gt;Node20 -->
<g id="edge3" class="edge">
<title>Node17&#45;&gt;Node20</title>
<path fill="none" stroke="midnightblue" d="M173.86,-979.14C182.15,-982.02 190.08,-985.87 197,-991 224.47,-1011.37 206.37,-1037.55 233,-1059 237.23,-1062.4 241.9,-1065.32 246.83,-1067.83"/>
<polygon fill="midnightblue" stroke="midnightblue" points="174.6,-975.7 164.02,-976.19 172.59,-982.41 174.6,-975.7"/>
</g>
<!-- Node21 -->
<g id="node5" class="node">
<title>Node21</title>
<g id="a_node5"><a xlink:href="classyarp_1_1dev_1_1GazeboYarpControlBoardDriver.html" target="_top" xlink:title=" ">
<polygon fill="none" stroke="black" points="240,-348 240,-378 400,-378 400,-348 240,-348"/>
<text text-anchor="start" x="248" y="-366" font-family="FreeSans.ttf" font-size="10.00">yarp::dev::GazeboYarpControl</text>
<text text-anchor="middle" x="320" y="-355" font-family="FreeSans.ttf" font-size="10.00">BoardDriver</text>
</a>
</g>
</g>
<!-- Node17&#45;&gt;Node21 -->
<g id="edge4" class="edge">
<title>Node17&#45;&gt;Node21</title>
<path fill="none" stroke="midnightblue" d="M173.73,-967.91C182.49,-964.61 190.58,-959.83 197,-953 238.92,-908.42 220.96,-740 233,-680 256.67,-562.03 299.74,-423.18 314.16,-378.01"/>
<polygon fill="midnightblue" stroke="midnightblue" points="172.52,-964.63 164.01,-970.94 174.6,-971.31 172.52,-964.63"/>
</g>
<!-- Node22 -->
<g id="node6" class="node">
<title>Node22</title>
<g id="a_node6"><a xlink:href="classyarp_1_1dev_1_1GazeboYarpDepthCameraDriver.html" target="_top" xlink:title=" ">
<polygon fill="none" stroke="black" points="243,-763 243,-793 397,-793 397,-763 243,-763"/>
<text text-anchor="start" x="251" y="-781" font-family="FreeSans.ttf" font-size="10.00">yarp::dev::GazeboYarpDepth</text>
<text text-anchor="middle" x="320" y="-770" font-family="FreeSans.ttf" font-size="10.00">CameraDriver</text>
</a>
</g>
</g>
<!-- Node17&#45;&gt;Node22 -->
<g id="edge5" class="edge">
<title>Node17&#45;&gt;Node22</title>
<path fill="none" stroke="midnightblue" d="M173.86,-966.68C182.38,-963.53 190.37,-959.12 197,-953 240.73,-912.62 195.76,-870.44 233,-824 243.91,-810.39 259.96,-800.29 275.25,-793.07"/>
<polygon fill="midnightblue" stroke="midnightblue" points="172.58,-963.41 164.06,-969.72 174.65,-970.1 172.58,-963.41"/>
</g>
<!-- Node23 -->
<g id="node7" class="node">
<title>Node23</title>
<g id="a_node7"><a xlink:href="classyarp_1_1dev_1_1GazeboYarpFakeControlBoardDriver.html" target="_top" xlink:title=" ">
<polygon fill="none" stroke="black" points="247,-299 247,-329 393,-329 393,-299 247,-299"/>
<text text-anchor="start" x="255" y="-317" font-family="FreeSans.ttf" font-size="10.00">yarp::dev::GazeboYarpFake</text>
<text text-anchor="middle" x="320" y="-306" font-family="FreeSans.ttf" font-size="10.00">ControlBoardDriver</text>
</a>
</g>
</g>
<!-- Node17&#45;&gt;Node23 -->
<g id="edge6" class="edge">
<title>Node17&#45;&gt;Node23</title>
<path fill="none" stroke="midnightblue" d="M173.85,-968.47C182.67,-965.1 190.75,-960.15 197,-953 287.11,-849.93 147.07,-444.57 233,-338 236.89,-333.17 241.67,-329.27 246.95,-326.12"/>
<polygon fill="midnightblue" stroke="midnightblue" points="172.53,-965.22 164.03,-971.54 174.62,-971.9 172.53,-965.22"/>
</g>
<!-- Node24 -->
<g id="node8" class="node">
<title>Node24</title>
<g id="a_node8"><a xlink:href="classyarp_1_1dev_1_1GazeboYarpForceTorqueDriver.html" target="_top" xlink:title="YARP Force Torque Driver for Gazebo.">
<polygon fill="none" stroke="black" points="244.5,-1019 244.5,-1049 395.5,-1049 395.5,-1019 244.5,-1019"/>
<text text-anchor="start" x="252.5" y="-1037" font-family="FreeSans.ttf" font-size="10.00">yarp::dev::GazeboYarpForce</text>
<text text-anchor="middle" x="320" y="-1026" font-family="FreeSans.ttf" font-size="10.00">TorqueDriver</text>
</a>
</g>
</g>
<!-- Node17&#45;&gt;Node24 -->
<g id="edge7" class="edge">
<title>Node17&#45;&gt;Node24</title>
<path fill="none" stroke="midnightblue" d="M172.65,-983.82C180.96,-985.88 189.23,-988.26 197,-991 214.06,-997.02 216.19,-1003.31 233,-1010 241.21,-1013.27 250.03,-1016.27 258.77,-1018.96"/>
<polygon fill="midnightblue" stroke="midnightblue" points="173.44,-980.41 162.9,-981.55 171.85,-987.23 173.44,-980.41"/>
</g>
<!-- Node25 -->
<g id="node9" class="node">
<title>Node25</title>
<g id="a_node9"><a xlink:href="classyarp_1_1dev_1_1GazeboYarpIMUDriver.html" target="_top" xlink:title=" ">
<polygon fill="none" stroke="black" points="233,-833.5 233,-852.5 407,-852.5 407,-833.5 233,-833.5"/>
<text text-anchor="middle" x="320" y="-840.5" font-family="FreeSans.ttf" font-size="10.00">yarp::dev::GazeboYarpIMUDriver</text>
</a>
</g>
</g>
<!-- Node17&#45;&gt;Node25 -->
<g id="edge8" class="edge">
<title>Node17&#45;&gt;Node25</title>
<path fill="none" stroke="midnightblue" d="M173.79,-965.79C182.21,-962.77 190.19,-958.63 197,-953 230.19,-925.53 200.31,-891.06 233,-863 238,-858.71 243.75,-855.29 249.85,-852.58"/>
<polygon fill="midnightblue" stroke="midnightblue" points="172.68,-962.47 164.14,-968.74 174.72,-969.16 172.68,-962.47"/>
</g>
<!-- Node26 -->
<g id="node10" class="node">
<title>Node26</title>
<g id="a_node10"><a xlink:href="classyarp_1_1dev_1_1GazeboYarpInertialMTBPartDriver.html" target="_top" xlink:title=" ">
<polygon fill="none" stroke="black" points="240.5,-970 240.5,-1000 399.5,-1000 399.5,-970 240.5,-970"/>
<text text-anchor="start" x="248.5" y="-988" font-family="FreeSans.ttf" font-size="10.00">yarp::dev::GazeboYarpInertial</text>
<text text-anchor="middle" x="320" y="-977" font-family="FreeSans.ttf" font-size="10.00">MTBPartDriver</text>
</a>
</g>
</g>
<!-- Node17&#45;&gt;Node26 -->
<g id="edge9" class="edge">
<title>Node17&#45;&gt;Node26</title>
<path fill="none" stroke="midnightblue" d="M174.44,-976.44C195.72,-977.7 218.94,-979.07 240.42,-980.35"/>
<polygon fill="midnightblue" stroke="midnightblue" points="174.36,-972.93 164.17,-975.83 173.95,-979.92 174.36,-972.93"/>
</g>
<!-- Node27 -->
<g id="node11" class="node">
<title>Node27</title>
<g id="a_node11"><a xlink:href="classyarp_1_1dev_1_1GazeboYarpLaserSensorDriver.html" target="_top" xlink:title=" ">
<polygon fill="none" stroke="black" points="244.5,-690 244.5,-720 395.5,-720 395.5,-690 244.5,-690"/>
<text text-anchor="start" x="252.5" y="-708" font-family="FreeSans.ttf" font-size="10.00">yarp::dev::GazeboYarpLaser</text>
<text text-anchor="middle" x="320" y="-697" font-family="FreeSans.ttf" font-size="10.00">SensorDriver</text>
</a>
</g>
</g>
<!-- Node17&#45;&gt;Node27 -->
<g id="edge10" class="edge">
<title>Node17&#45;&gt;Node27</title>
<path fill="none" stroke="midnightblue" d="M173.79,-967.49C182.46,-964.24 190.51,-959.58 197,-953 260.12,-889.02 181.07,-827.36 233,-754 243.72,-738.85 260.7,-727.76 276.75,-720.01"/>
<polygon fill="midnightblue" stroke="midnightblue" points="172.68,-964.17 164.18,-970.49 174.77,-970.85 172.68,-964.17"/>
</g>
<!-- Node28 -->
<g id="node12" class="node">
<title>Node28</title>
<g id="a_node12"><a xlink:href="classyarp_1_1dev_1_1GazeboYarpMaisSensorDriver.html" target="_top" xlink:title=" ">
<polygon fill="none" stroke="black" points="246,-872 246,-902 394,-902 394,-872 246,-872"/>
<text text-anchor="start" x="254" y="-890" font-family="FreeSans.ttf" font-size="10.00">yarp::dev::GazeboYarpMais</text>
<text text-anchor="middle" x="320" y="-879" font-family="FreeSans.ttf" font-size="10.00">SensorDriver</text>
</a>
</g>
</g>
<!-- Node17&#45;&gt;Node28 -->
<g id="edge11" class="edge">
<title>Node17&#45;&gt;Node28</title>
<path fill="none" stroke="midnightblue" d="M173.97,-962.86C182.03,-960.32 189.88,-957.09 197,-953 218.03,-940.92 212.54,-925.02 233,-912 239.03,-908.16 245.68,-904.89 252.51,-902.12"/>
<polygon fill="midnightblue" stroke="midnightblue" points="172.76,-959.56 164.08,-965.63 174.65,-966.3 172.76,-959.56"/>
</g>
<!-- Node29 -->
<g id="node13" class="node">
<title>Node29</title>
<g id="a_node13"><a xlink:href="classyarp_1_1dev_1_1GazeboYarpMultiCameraDriver.html" target="_top" xlink:title=" ">
<polygon fill="none" stroke="black" points="245.5,-1166 245.5,-1196 394.5,-1196 394.5,-1166 245.5,-1166"/>
<text text-anchor="start" x="253.5" y="-1184" font-family="FreeSans.ttf" font-size="10.00">yarp::dev::GazeboYarpMulti</text>
<text text-anchor="middle" x="320" y="-1173" font-family="FreeSans.ttf" font-size="10.00">CameraDriver</text>
</a>
</g>
</g>
<!-- Node17&#45;&gt;Node29 -->
<g id="edge12" class="edge">
<title>Node17&#45;&gt;Node29</title>
<path fill="none" stroke="midnightblue" d="M173.76,-976.79C182.39,-980 190.44,-984.58 197,-991 250.94,-1043.82 181.2,-1102.08 233,-1157 236.62,-1160.83 240.79,-1164.07 245.31,-1166.81"/>
<polygon fill="midnightblue" stroke="midnightblue" points="174.79,-973.44 164.2,-973.81 172.7,-980.13 174.79,-973.44"/>
</g>
<!-- Node30 -->
<g id="node14" class="node">
<title>Node30</title>
<g id="a_node14"><a xlink:title=" ">
<polygon fill="none" stroke="#bfbfbf" points="47.5,-646.5 47.5,-665.5 149.5,-665.5 149.5,-646.5 47.5,-646.5"/>
<text text-anchor="middle" x="98.5" y="-653.5" font-family="FreeSans.ttf" font-size="10.00">DeviceResponder</text>
</a>
</g>
</g>
<!-- Node30&#45;&gt;Node21 -->
<g id="edge13" class="edge">
<title>Node30&#45;&gt;Node21</title>
<path fill="none" stroke="midnightblue" d="M159.85,-653.42C173.15,-650.48 186.41,-645.43 197,-637 283.58,-568.1 310.49,-424.79 317.13,-378.08"/>
<polygon fill="midnightblue" stroke="midnightblue" points="158.91,-650.03 149.71,-655.29 160.18,-656.92 158.91,-650.03"/>
</g>
<!-- Node30&#45;&gt;Node23 -->
<g id="edge14" class="edge">
<title>Node30&#45;&gt;Node23</title>
<path fill="none" stroke="midnightblue" d="M159.81,-656C173.75,-653.09 187.31,-647.42 197,-637 288.15,-538.98 145.83,-439.57 233,-338 236.94,-333.41 241.67,-329.67 246.87,-326.61"/>
<polygon fill="midnightblue" stroke="midnightblue" points="158.95,-652.6 149.64,-657.66 160.07,-659.51 158.95,-652.6"/>
</g>
<!-- Node30&#45;&gt;Node28 -->
<g id="edge15" class="edge">
<title>Node30&#45;&gt;Node28</title>
<path fill="none" stroke="midnightblue" d="M159.72,-656.56C173.53,-659.49 187.05,-665.03 197,-675 256.78,-734.92 175.99,-799.44 233,-862 236.77,-866.14 241.18,-869.61 245.98,-872.51"/>
<polygon fill="midnightblue" stroke="midnightblue" points="160.11,-653.08 149.66,-654.87 158.94,-659.98 160.11,-653.08"/>
</g>
<!-- Node34 -->
<g id="node15" class="node">
<title>Node34</title>
<g id="a_node15"><a xlink:title=" ">
<polygon fill="none" stroke="#bfbfbf" points="49,-570.5 49,-589.5 148,-589.5 148,-570.5 49,-570.5"/>
<text text-anchor="middle" x="98.5" y="-577.5" font-family="FreeSans.ttf" font-size="10.00">IAmplifierControl</text>
</a>
</g>
</g>
<!-- Node34&#45;&gt;Node21 -->
<g id="edge16" class="edge">
<title>Node34&#45;&gt;Node21</title>
<path fill="none" stroke="midnightblue" d="M158.06,-576.59C171.72,-573.71 185.59,-568.9 197,-561 264.89,-514 302.17,-415.74 314.42,-378.11"/>
<polygon fill="midnightblue" stroke="midnightblue" points="157.42,-573.15 148.19,-578.37 158.66,-580.04 157.42,-573.15"/>
</g>
<!-- Node34&#45;&gt;Node23 -->
<g id="edge17" class="edge">
<title>Node34&#45;&gt;Node23</title>
<path fill="none" stroke="midnightblue" d="M158.08,-580.02C172.53,-577.21 186.77,-571.57 197,-561 266.83,-488.87 166.1,-412.85 233,-338 236.93,-333.61 241.58,-329.99 246.66,-327.02"/>
<polygon fill="midnightblue" stroke="midnightblue" points="157.46,-576.58 148.1,-581.55 158.52,-583.5 157.46,-576.58"/>
</g>
<!-- Node35 -->
<g id="node16" class="node">
<title>Node35</title>
<g id="a_node16"><a xlink:title=" ">
<polygon fill="none" stroke="#bfbfbf" points="30,-1000.5 30,-1019.5 167,-1019.5 167,-1000.5 30,-1000.5"/>
<text text-anchor="middle" x="98.5" y="-1007.5" font-family="FreeSans.ttf" font-size="10.00">yarp::dev::IAnalogSensor</text>
</a>
</g>
</g>
<!-- Node35&#45;&gt;Node0 -->
<g id="edge18" class="edge">
<title>Node35&#45;&gt;Node0</title>
<path fill="none" stroke="midnightblue" d="M176.66,-998.77C183.69,-996.62 190.57,-994.05 197,-991 215.81,-982.06 214.61,-970.78 233,-961 240.14,-957.2 247.93,-953.92 255.8,-951.09"/>
<polygon fill="midnightblue" stroke="midnightblue" points="175.7,-995.4 167.01,-1001.45 177.58,-1002.14 175.7,-995.4"/>
</g>
<!-- Node35&#45;&gt;Node20 -->
<g id="edge19" class="edge">
<title>Node35&#45;&gt;Node20</title>
<path fill="none" stroke="midnightblue" d="M176.66,-1021.23C183.69,-1023.38 190.57,-1025.95 197,-1029 215.81,-1037.94 214.56,-1049.32 233,-1059 239.45,-1062.39 246.43,-1065.34 253.53,-1067.9"/>
<polygon fill="midnightblue" stroke="midnightblue" points="177.58,-1017.86 167.01,-1018.55 175.7,-1024.6 177.58,-1017.86"/>
</g>
<!-- Node35&#45;&gt;Node24 -->
<g id="edge20" class="edge">
<title>Node35&#45;&gt;Node24</title>
<path fill="none" stroke="midnightblue" d="M177.34,-1018.51C199.11,-1020.89 222.72,-1023.47 244.31,-1025.83"/>
<polygon fill="midnightblue" stroke="midnightblue" points="177.47,-1015 167.15,-1017.4 176.71,-1021.96 177.47,-1015"/>
</g>
<!-- Node35&#45;&gt;Node26 -->
<g id="edge21" class="edge">
<title>Node35&#45;&gt;Node26</title>
<path fill="none" stroke="midnightblue" d="M177.09,-1001.16C197.63,-998.82 219.83,-996.3 240.42,-993.95"/>
<polygon fill="midnightblue" stroke="midnightblue" points="176.69,-997.69 167.15,-1002.3 177.48,-1004.64 176.69,-997.69"/>
</g>
<!-- Node35&#45;&gt;Node28 -->
<g id="edge22" class="edge">
<title>Node35&#45;&gt;Node28</title>
<path fill="none" stroke="midnightblue" d="M177.09,-1002.16C184.25,-999.34 191.04,-995.7 197,-991 227.3,-967.1 203.82,-937.24 233,-912 237.47,-908.13 242.51,-904.87 247.84,-902.1"/>
<polygon fill="midnightblue" stroke="midnightblue" points="175.51,-999 167.14,-1005.5 177.74,-1005.63 175.51,-999"/>
</g>
<!-- Node36 -->
<g id="node17" class="node">
<title>Node36</title>
<g id="a_node17"><a xlink:title=" ">
<polygon fill="none" stroke="#bfbfbf" points="69,-532.5 69,-551.5 128,-551.5 128,-532.5 69,-532.5"/>
<text text-anchor="middle" x="98.5" y="-539.5" font-family="FreeSans.ttf" font-size="10.00">IAxisInfo</text>
</a>
</g>
</g>
<!-- Node36&#45;&gt;Node21 -->
<g id="edge23" class="edge">
<title>Node36&#45;&gt;Node21</title>
<path fill="none" stroke="midnightblue" d="M138.42,-540.8C157.29,-538.69 179.57,-533.83 197,-523 255.75,-486.5 296.6,-410.75 312.1,-378.3"/>
<polygon fill="midnightblue" stroke="midnightblue" points="137.99,-537.33 128.34,-541.71 138.62,-544.3 137.99,-537.33"/>
</g>
<!-- Node36&#45;&gt;Node23 -->
<g id="edge24" class="edge">
<title>Node36&#45;&gt;Node23</title>
<path fill="none" stroke="midnightblue" d="M138.32,-544.13C158.41,-543.08 181.84,-538.16 197,-523 256.22,-463.76 176.18,-399.55 233,-338 237,-333.67 241.7,-330.1 246.81,-327.15"/>
<polygon fill="midnightblue" stroke="midnightblue" points="138.09,-540.63 128.17,-544.35 138.25,-547.63 138.09,-540.63"/>
</g>
<!-- Node37 -->
<g id="node18" class="node">
<title>Node37</title>
<g id="a_node18"><a xlink:title=" ">
<polygon fill="none" stroke="#bfbfbf" points="41.5,-494.5 41.5,-513.5 155.5,-513.5 155.5,-494.5 41.5,-494.5"/>
<text text-anchor="middle" x="98.5" y="-501.5" font-family="FreeSans.ttf" font-size="10.00">IControlCalibration2</text>
</a>
</g>
</g>
<!-- Node37&#45;&gt;Node21 -->
<g id="edge25" class="edge">
<title>Node37&#45;&gt;Node21</title>
<path fill="none" stroke="midnightblue" d="M165.56,-496.66C176.45,-493.91 187.33,-490.15 197,-485 246.98,-458.41 289.66,-404.58 308.57,-378.23"/>
<polygon fill="midnightblue" stroke="midnightblue" points="164.57,-493.29 155.59,-498.91 166.11,-500.12 164.57,-493.29"/>
</g>
<!-- Node37&#45;&gt;Node23 -->
<g id="edge26" class="edge">
<title>Node37&#45;&gt;Node23</title>
<path fill="none" stroke="midnightblue" d="M165.52,-501.61C177.16,-498.46 188.32,-493.27 197,-485 245.68,-438.59 186.2,-386.32 233,-338 236.99,-333.88 241.62,-330.45 246.63,-327.6"/>
<polygon fill="midnightblue" stroke="midnightblue" points="164.66,-498.22 155.66,-503.81 166.18,-505.05 164.66,-498.22"/>
</g>
<!-- Node38 -->
<g id="node19" class="node">
<title>Node38</title>
<g id="a_node19"><a xlink:title=" ">
<polygon fill="none" stroke="#bfbfbf" points="56,-456.5 56,-475.5 141,-475.5 141,-456.5 56,-456.5"/>
<text text-anchor="middle" x="98.5" y="-463.5" font-family="FreeSans.ttf" font-size="10.00">IControlLimits</text>
</a>
</g>
</g>
<!-- Node38&#45;&gt;Node21 -->
<g id="edge27" class="edge">
<title>Node38&#45;&gt;Node21</title>
<path fill="none" stroke="midnightblue" d="M151.59,-459.92C166.62,-457.09 182.79,-452.97 197,-447 238.02,-429.77 279.31,-397.47 301.78,-378.33"/>
<polygon fill="midnightblue" stroke="midnightblue" points="150.66,-456.53 141.4,-461.68 151.85,-463.42 150.66,-456.53"/>
</g>
<!-- Node38&#45;&gt;Node23 -->
<g id="edge28" class="edge">
<title>Node38&#45;&gt;Node23</title>
<path fill="none" stroke="midnightblue" d="M151.14,-465.9C167.45,-463.45 184.46,-458.04 197,-447 235.28,-413.28 196.09,-373.22 233,-338 237.15,-334.04 241.9,-330.72 246.98,-327.95"/>
<polygon fill="midnightblue" stroke="midnightblue" points="150.65,-462.44 141.13,-467.07 151.47,-469.39 150.65,-462.44"/>
</g>
<!-- Node39 -->
<g id="node20" class="node">
<title>Node39</title>
<g id="a_node20"><a xlink:title=" ">
<polygon fill="none" stroke="#bfbfbf" points="57.5,-418.5 57.5,-437.5 139.5,-437.5 139.5,-418.5 57.5,-418.5"/>
<text text-anchor="middle" x="98.5" y="-425.5" font-family="FreeSans.ttf" font-size="10.00">IControlMode</text>
</a>
</g>
</g>
<!-- Node39&#45;&gt;Node21 -->
<g id="edge29" class="edge">
<title>Node39&#45;&gt;Node21</title>
<path fill="none" stroke="midnightblue" d="M149.54,-419.92C164.9,-416.99 181.76,-413.33 197,-409 226.83,-400.53 259.68,-387.96 283.76,-378.09"/>
<polygon fill="midnightblue" stroke="midnightblue" points="148.9,-416.48 139.71,-421.73 150.17,-423.36 148.9,-416.48"/>
</g>
<!-- Node39&#45;&gt;Node23 -->
<g id="edge30" class="edge">
<title>Node39&#45;&gt;Node23</title>
<path fill="none" stroke="midnightblue" d="M149.81,-426.84C166.17,-424.33 183.55,-419.16 197,-409 225.23,-387.67 205.64,-360.43 233,-338 237.2,-334.56 241.85,-331.61 246.76,-329.09"/>
<polygon fill="midnightblue" stroke="midnightblue" points="149.29,-423.38 139.8,-428.08 150.15,-430.33 149.29,-423.38"/>
</g>
<!-- Node40 -->
<g id="node21" class="node">
<title>Node40</title>
<g id="a_node21"><a xlink:title=" ">
<polygon fill="none" stroke="#bfbfbf" points="53,-380.5 53,-399.5 144,-399.5 144,-380.5 53,-380.5"/>
<text text-anchor="middle" x="98.5" y="-387.5" font-family="FreeSans.ttf" font-size="10.00">ICurrentControl</text>
</a>
</g>
</g>
<!-- Node40&#45;&gt;Node21 -->
<g id="edge31" class="edge">
<title>Node40&#45;&gt;Node21</title>
<path fill="none" stroke="midnightblue" d="M154.16,-383.28C180.01,-380.1 211.35,-376.24 239.74,-372.75"/>
<polygon fill="midnightblue" stroke="midnightblue" points="153.68,-379.81 144.18,-384.5 154.54,-386.76 153.68,-379.81"/>
</g>
<!-- Node40&#45;&gt;Node23 -->
<g id="edge32" class="edge">
<title>Node40&#45;&gt;Node23</title>
<path fill="none" stroke="midnightblue" d="M154.63,-384.68C168.95,-381.86 183.99,-377.56 197,-371 216.38,-361.22 214.03,-348.54 233,-338 239.1,-334.61 245.71,-331.67 252.47,-329.13"/>
<polygon fill="midnightblue" stroke="midnightblue" points="153.62,-381.3 144.37,-386.48 154.83,-388.2 153.62,-381.3"/>
</g>
<!-- Node41 -->
<g id="node22" class="node">
<title>Node41</title>
<g id="a_node22"><a xlink:title=" ">
<polygon fill="none" stroke="#bfbfbf" points="51,-342.5 51,-361.5 146,-361.5 146,-342.5 51,-342.5"/>
<text text-anchor="middle" x="98.5" y="-349.5" font-family="FreeSans.ttf" font-size="10.00">IEncodersTimed</text>
</a>
</g>
</g>
<!-- Node41&#45;&gt;Node21 -->
<g id="edge33" class="edge">
<title>Node41&#45;&gt;Node21</title>
<path fill="none" stroke="midnightblue" d="M156.25,-354.84C181.66,-356.12 212.07,-357.64 239.68,-359.02"/>
<polygon fill="midnightblue" stroke="midnightblue" points="156.21,-351.34 146.05,-354.33 155.86,-358.33 156.21,-351.34"/>
</g>
<!-- Node41&#45;&gt;Node23 -->
<g id="edge34" class="edge">
<title>Node41&#45;&gt;Node23</title>
<path fill="none" stroke="midnightblue" d="M155.94,-342.23C183.55,-337.45 217.11,-331.64 246.6,-326.53"/>
<polygon fill="midnightblue" stroke="midnightblue" points="155.31,-338.79 146.05,-343.94 156.5,-345.68 155.31,-338.79"/>
</g>
<!-- Node42 -->
<g id="node23" class="node">
<title>Node42</title>
<g id="a_node23"><a xlink:title=" ">
<polygon fill="none" stroke="#bfbfbf" points="28.5,-1120 28.5,-1150 168.5,-1150 168.5,-1120 28.5,-1120"/>
<text text-anchor="start" x="36.5" y="-1138" font-family="FreeSans.ttf" font-size="10.00">yarp::dev::IFrameGrabber</text>
<text text-anchor="middle" x="98.5" y="-1127" font-family="FreeSans.ttf" font-size="10.00">Image</text>
</a>
</g>
</g>
<!-- Node42&#45;&gt;Node19 -->
<g id="edge35" class="edge">
<title>Node42&#45;&gt;Node19</title>
<path fill="none" stroke="midnightblue" d="M178.65,-1133.92C198.05,-1133.65 218.84,-1133.37 238.31,-1133.1"/>
<polygon fill="midnightblue" stroke="midnightblue" points="178.6,-1130.42 168.65,-1134.05 178.7,-1137.42 178.6,-1130.42"/>
</g>
<!-- Node42&#45;&gt;Node29 -->
<g id="edge36" class="edge">
<title>Node42&#45;&gt;Node29</title>
<path fill="none" stroke="midnightblue" d="M178.47,-1151.55C200.9,-1156.25 225.19,-1161.34 247.17,-1165.95"/>
<polygon fill="midnightblue" stroke="midnightblue" points="179.16,-1148.12 168.65,-1149.49 177.72,-1154.97 179.16,-1148.12"/>
</g>
<!-- Node43 -->
<g id="node24" class="node">
<title>Node43</title>
<g id="a_node24"><a xlink:title=" ">
<polygon fill="none" stroke="#bfbfbf" points="28,-924.5 28,-943.5 169,-943.5 169,-924.5 28,-924.5"/>
<text text-anchor="middle" x="98.5" y="-931.5" font-family="FreeSans.ttf" font-size="10.00">yarp::dev::IGenericSensor</text>
</a>
</g>
</g>
<!-- Node43&#45;&gt;Node25 -->
<g id="edge37" class="edge">
<title>Node43&#45;&gt;Node25</title>
<path fill="none" stroke="midnightblue" d="M178.78,-924.11C185.2,-921.67 191.37,-918.68 197,-915 220.53,-899.62 209.75,-878.8 233,-863 239.34,-858.69 246.48,-855.3 253.87,-852.64"/>
<polygon fill="midnightblue" stroke="midnightblue" points="177.6,-920.82 169.23,-927.3 179.82,-927.46 177.6,-920.82"/>
</g>
<!-- Node44 -->
<g id="node25" class="node">
<title>Node44</title>
<g id="a_node25"><a xlink:title=" ">
<polygon fill="none" stroke="#bfbfbf" points="44,-304.5 44,-323.5 153,-323.5 153,-304.5 44,-304.5"/>
<text text-anchor="middle" x="98.5" y="-311.5" font-family="FreeSans.ttf" font-size="10.00">IImpedanceControl</text>
</a>
</g>
</g>
<!-- Node44&#45;&gt;Node21 -->
<g id="edge38" class="edge">
<title>Node44&#45;&gt;Node21</title>
<path fill="none" stroke="midnightblue" d="M160.89,-325.49C172.89,-327.87 185.36,-330.44 197,-333 217.66,-337.55 240.18,-342.96 260.18,-347.92"/>
<polygon fill="midnightblue" stroke="midnightblue" points="161.44,-322.03 150.96,-323.54 160.1,-328.9 161.44,-322.03"/>
</g>
<!-- Node44&#45;&gt;Node23 -->
<g id="edge39" class="edge">
<title>Node44&#45;&gt;Node23</title>
<path fill="none" stroke="midnightblue" d="M163.36,-314C189.49,-314 219.86,-314 246.8,-314"/>
<polygon fill="midnightblue" stroke="midnightblue" points="163.2,-310.5 153.2,-314 163.2,-317.5 163.2,-310.5"/>
</g>
<!-- Node45 -->
<g id="node26" class="node">
<title>Node45</title>
<g id="a_node26"><a xlink:title=" ">
<polygon fill="none" stroke="#bfbfbf" points="49,-266.5 49,-285.5 148,-285.5 148,-266.5 49,-266.5"/>
<text text-anchor="middle" x="98.5" y="-273.5" font-family="FreeSans.ttf" font-size="10.00">IInteractionMode</text>
</a>
</g>
</g>
<!-- Node45&#45;&gt;Node21 -->
<g id="edge40" class="edge">
<title>Node45&#45;&gt;Node21</title>
<path fill="none" stroke="midnightblue" d="M158.51,-280.86C171.81,-283.72 185.4,-288.16 197,-295 218.47,-307.67 212.13,-324.38 233,-338 238.86,-341.82 245.32,-345.08 251.98,-347.84"/>
<polygon fill="midnightblue" stroke="midnightblue" points="158.92,-277.37 148.44,-278.96 157.62,-284.25 158.92,-277.37"/>
</g>
<!-- Node45&#45;&gt;Node23 -->
<g id="edge41" class="edge">
<title>Node45&#45;&gt;Node23</title>
<path fill="none" stroke="midnightblue" d="M158.34,-286.19C185.51,-290.89 218.01,-296.52 246.66,-301.48"/>
<polygon fill="midnightblue" stroke="midnightblue" points="158.66,-282.69 148.21,-284.43 157.47,-289.59 158.66,-282.69"/>
</g>
<!-- Node46 -->
<g id="node27" class="node">
<title>Node46</title>
<g id="a_node27"><a xlink:title=" ">
<polygon fill="none" stroke="#bfbfbf" points="16.5,-886.5 16.5,-905.5 180.5,-905.5 180.5,-886.5 16.5,-886.5"/>
<text text-anchor="middle" x="98.5" y="-893.5" font-family="FreeSans.ttf" font-size="10.00">yarp::dev::IOrientationSensors</text>
</a>
</g>
</g>
<!-- Node46&#45;&gt;Node25 -->
<g id="edge42" class="edge">
<title>Node46&#45;&gt;Node25</title>
<path fill="none" stroke="midnightblue" d="M167.34,-884.4C177.35,-882.22 187.5,-879.75 197,-877 213.49,-872.23 216.6,-868.07 233,-863 245.6,-859.11 259.43,-855.57 272.26,-852.6"/>
<polygon fill="midnightblue" stroke="midnightblue" points="166.46,-881.01 157.39,-886.48 167.9,-887.86 166.46,-881.01"/>
</g>
<!-- Node47 -->
<g id="node28" class="node">
<title>Node47</title>
<g id="a_node28"><a xlink:title=" ">
<polygon fill="none" stroke="#bfbfbf" points="63.5,-228.5 63.5,-247.5 133.5,-247.5 133.5,-228.5 63.5,-228.5"/>
<text text-anchor="middle" x="98.5" y="-235.5" font-family="FreeSans.ttf" font-size="10.00">IPidControl</text>
</a>
</g>
</g>
<!-- Node47&#45;&gt;Node21 -->
<g id="edge43" class="edge">
<title>Node47&#45;&gt;Node21</title>
<path fill="none" stroke="midnightblue" d="M143.98,-237.96C162.07,-240.01 182.16,-245.18 197,-257 227.82,-281.54 203.32,-312.09 233,-338 237.45,-341.89 242.48,-345.17 247.8,-347.94"/>
<polygon fill="midnightblue" stroke="midnightblue" points="144.16,-234.46 133.9,-237.1 143.56,-241.44 144.16,-234.46"/>
</g>
<!-- Node47&#45;&gt;Node23 -->
<g id="edge44" class="edge">
<title>Node47&#45;&gt;Node23</title>
<path fill="none" stroke="midnightblue" d="M144,-244.31C160.84,-247.31 180.03,-251.47 197,-257 230.79,-268 267.46,-286.03 291.68,-298.87"/>
<polygon fill="midnightblue" stroke="midnightblue" points="144.31,-240.81 133.86,-242.59 143.14,-247.71 144.31,-240.81"/>
</g>
<!-- Node48 -->
<g id="node29" class="node">
<title>Node48</title>
<g id="a_node29"><a xlink:title=" ">
<polygon fill="none" stroke="#bfbfbf" points="51.5,-190.5 51.5,-209.5 145.5,-209.5 145.5,-190.5 51.5,-190.5"/>
<text text-anchor="middle" x="98.5" y="-197.5" font-family="FreeSans.ttf" font-size="10.00">IPositionControl</text>
</a>
</g>
</g>
<!-- Node48&#45;&gt;Node21 -->
<g id="edge45" class="edge">
<title>Node48&#45;&gt;Node21</title>
<path fill="none" stroke="midnightblue" d="M155.94,-200.69C170.78,-203.43 185.77,-208.85 197,-219 238,-256.04 193.72,-299.14 233,-338 236.87,-341.83 241.29,-345.08 246.03,-347.83"/>
<polygon fill="midnightblue" stroke="midnightblue" points="156.13,-197.18 145.73,-199.19 155.11,-204.1 156.13,-197.18"/>
</g>
<!-- Node48&#45;&gt;Node23 -->
<g id="edge46" class="edge">
<title>Node48&#45;&gt;Node23</title>
<path fill="none" stroke="midnightblue" d="M155.52,-206.28C169.47,-209.08 184.12,-213.14 197,-219 240.74,-238.9 282.96,-277.42 304.4,-298.79"/>
<polygon fill="midnightblue" stroke="midnightblue" points="155.98,-202.8 145.52,-204.45 154.72,-209.69 155.98,-202.8"/>
</g>
<!-- Node49 -->
<g id="node30" class="node">
<title>Node49</title>
<g id="a_node30"><a xlink:title=" ">
<polygon fill="none" stroke="#bfbfbf" points="54.5,-152.5 54.5,-171.5 142.5,-171.5 142.5,-152.5 54.5,-152.5"/>
<text text-anchor="middle" x="98.5" y="-159.5" font-family="FreeSans.ttf" font-size="10.00">IPositionDirect</text>
</a>
</g>
</g>
<!-- Node49&#45;&gt;Node21 -->
<g id="edge47" class="edge">
<title>Node49&#45;&gt;Node21</title>
<path fill="none" stroke="midnightblue" d="M153.05,-161.63C168.99,-164.13 185.31,-169.69 197,-181 248.45,-230.78 183.86,-285.94 233,-338 236.63,-341.84 240.81,-345.11 245.34,-347.88"/>
<polygon fill="midnightblue" stroke="midnightblue" points="153.02,-158.1 142.68,-160.39 152.2,-165.05 153.02,-158.1"/>
</g>
<!-- Node49&#45;&gt;Node23 -->
<g id="edge48" class="edge">
<title>Node49&#45;&gt;Node23</title>
<path fill="none" stroke="midnightblue" d="M152.97,-166.17C167.9,-168.96 183.67,-173.54 197,-181 249.49,-210.39 291.87,-270.51 309.78,-298.73"/>
<polygon fill="midnightblue" stroke="midnightblue" points="153.23,-162.67 142.8,-164.51 152.11,-169.58 153.23,-162.67"/>
</g>
<!-- Node50 -->
<g id="node31" class="node">
<title>Node50</title>
<g id="a_node31"><a xlink:title=" ">
<polygon fill="none" stroke="#bfbfbf" points="25.5,-1038.5 25.5,-1057.5 171.5,-1057.5 171.5,-1038.5 25.5,-1038.5"/>
<text text-anchor="middle" x="98.5" y="-1045.5" font-family="FreeSans.ttf" font-size="10.00">yarp::dev::IPreciselyTimed</text>
</a>
</g>
</g>
<!-- Node50&#45;&gt;Node0 -->
<g id="edge49" class="edge">
<title>Node50&#45;&gt;Node0</title>
<path fill="none" stroke="midnightblue" d="M181.23,-1037.99C186.83,-1035.55 192.16,-1032.59 197,-1029 224.47,-1008.63 206.48,-982.59 233,-961 237.7,-957.17 242.97,-953.93 248.52,-951.18"/>
<polygon fill="midnightblue" stroke="midnightblue" points="179.72,-1034.82 171.59,-1041.62 182.19,-1041.37 179.72,-1034.82"/>
</g>
<!-- Node50&#45;&gt;Node19 -->
<g id="edge50" class="edge">
<title>Node50&#45;&gt;Node19</title>
<path fill="none" stroke="midnightblue" d="M127.71,-1062.17C154.38,-1075.21 195.76,-1094.52 233,-1108 241.75,-1111.17 251.12,-1114.17 260.34,-1116.9"/>
<polygon fill="midnightblue" stroke="midnightblue" points="129.1,-1058.96 118.58,-1057.67 126,-1065.23 129.1,-1058.96"/>
</g>
<!-- Node50&#45;&gt;Node20 -->
<g id="edge51" class="edge">
<title>Node50&#45;&gt;Node20</title>
<path fill="none" stroke="midnightblue" d="M169.16,-1059.11C191.28,-1062.63 215.92,-1066.56 238.73,-1070.2"/>
<polygon fill="midnightblue" stroke="midnightblue" points="169.62,-1055.64 159.19,-1057.52 168.51,-1062.55 169.62,-1055.64"/>
</g>
<!-- Node50&#45;&gt;Node24 -->
<g id="edge52" class="edge">
<title>Node50&#45;&gt;Node24</title>
<path fill="none" stroke="midnightblue" d="M181.9,-1042.74C202.33,-1041.44 224.1,-1040.05 244.15,-1038.77"/>
<polygon fill="midnightblue" stroke="midnightblue" points="181.43,-1039.27 171.68,-1043.4 181.88,-1046.25 181.43,-1039.27"/>
</g>
<!-- Node50&#45;&gt;Node25 -->
<g id="edge53" class="edge">
<title>Node50&#45;&gt;Node25</title>
<path fill="none" stroke="midnightblue" d="M181.28,-1039.97C187.05,-1037.11 192.39,-1033.51 197,-1029 250.94,-976.18 180.02,-916.78 233,-863 237.2,-858.74 242.11,-855.32 247.42,-852.57"/>
<polygon fill="midnightblue" stroke="midnightblue" points="179.8,-1036.79 171.92,-1043.87 182.5,-1043.26 179.8,-1036.79"/>
</g>
<!-- Node50&#45;&gt;Node26 -->
<g id="edge54" class="edge">
<title>Node50&#45;&gt;Node26</title>
<path fill="none" stroke="midnightblue" d="M172.65,-1036.18C180.96,-1034.12 189.23,-1031.74 197,-1029 214.06,-1022.98 216.23,-1016.78 233,-1010 241.94,-1006.39 251.59,-1003.06 261.09,-1000.09"/>
<polygon fill="midnightblue" stroke="midnightblue" points="171.85,-1032.77 162.9,-1038.45 173.44,-1039.59 171.85,-1032.77"/>
</g>
<!-- Node50&#45;&gt;Node29 -->
<g id="edge55" class="edge">
<title>Node50&#45;&gt;Node29</title>
<path fill="none" stroke="midnightblue" d="M126.87,-1062.4C147.42,-1073.95 175.58,-1091.43 197,-1111 216.17,-1128.51 211.42,-1142.57 233,-1157 238.15,-1160.45 243.8,-1163.4 249.65,-1165.94"/>
<polygon fill="midnightblue" stroke="midnightblue" points="128.47,-1059.28 118.02,-1057.52 125.09,-1065.41 128.47,-1059.28"/>
</g>
<!-- Node51 -->
<g id="node32" class="node">
<title>Node51</title>
<g id="a_node32"><a xlink:title=" ">
<polygon fill="none" stroke="#bfbfbf" points="58.5,-114.5 58.5,-133.5 138.5,-133.5 138.5,-114.5 58.5,-114.5"/>
<text text-anchor="middle" x="98.5" y="-121.5" font-family="FreeSans.ttf" font-size="10.00">IPWMControl</text>
</a>
</g>
</g>
<!-- Node51&#45;&gt;Node21 -->
<g id="edge56" class="edge">
<title>Node51&#45;&gt;Node21</title>
<path fill="none" stroke="midnightblue" d="M148.63,-122.68C166.05,-124.77 184.42,-130.3 197,-143 259.01,-205.63 173.89,-272.64 233,-338 236.44,-341.81 240.43,-345.05 244.75,-347.8"/>
<polygon fill="midnightblue" stroke="midnightblue" points="148.79,-119.18 138.53,-121.82 148.2,-126.16 148.79,-119.18"/>
</g>
<!-- Node51&#45;&gt;Node23 -->
<g id="edge57" class="edge">
<title>Node51&#45;&gt;Node23</title>
<path fill="none" stroke="midnightblue" d="M148.56,-126.28C164.97,-128.87 182.71,-133.8 197,-143 258.49,-182.57 298.5,-265.05 312.95,-298.95"/>
<polygon fill="midnightblue" stroke="midnightblue" points="148.93,-122.8 138.56,-124.96 148.01,-129.74 148.93,-122.8"/>
</g>
<!-- Node52 -->
<g id="node33" class="node">
<title>Node52</title>
<g id="a_node33"><a xlink:title=" ">
<polygon fill="none" stroke="#bfbfbf" points="47,-76.5 47,-95.5 150,-95.5 150,-76.5 47,-76.5"/>
<text text-anchor="middle" x="98.5" y="-83.5" font-family="FreeSans.ttf" font-size="10.00">IRemoteVariables</text>
</a>
</g>
</g>
<!-- Node52&#45;&gt;Node21 -->
<g id="edge58" class="edge">
<title>Node52&#45;&gt;Node21</title>
<path fill="none" stroke="midnightblue" d="M160.18,-86.35C173.91,-89.29 187.29,-94.9 197,-105 269.63,-180.53 163.86,-259.26 233,-338 236.39,-341.86 240.33,-345.13 244.63,-347.92"/>
<polygon fill="midnightblue" stroke="midnightblue" points="160.61,-82.87 150.17,-84.65 159.44,-89.78 160.61,-82.87"/>
</g>
<!-- Node52&#45;&gt;Node23 -->
<g id="edge59" class="edge">
<title>Node52&#45;&gt;Node23</title>
<path fill="none" stroke="midnightblue" d="M160.02,-89.61C173.07,-92.54 186.19,-97.32 197,-105 267.57,-155.11 303.56,-259.91 314.93,-298.93"/>
<polygon fill="midnightblue" stroke="midnightblue" points="160.56,-86.15 150.08,-87.72 159.25,-93.03 160.56,-86.15"/>
</g>
<!-- Node53 -->
<g id="node34" class="node">
<title>Node53</title>
<g id="a_node34"><a xlink:title=" ">
<polygon fill="none" stroke="#bfbfbf" points="32.5,-722.5 32.5,-741.5 164.5,-741.5 164.5,-722.5 32.5,-722.5"/>
<text text-anchor="middle" x="98.5" y="-729.5" font-family="FreeSans.ttf" font-size="10.00">yarp::dev::IRGBDSensor</text>
</a>
</g>
</g>
<!-- Node53&#45;&gt;Node22 -->
<g id="edge60" class="edge">
<title>Node53&#45;&gt;Node22</title>
<path fill="none" stroke="midnightblue" d="M159.83,-743.51C172.14,-745.93 185,-748.5 197,-751 215.05,-754.76 234.57,-758.99 252.58,-762.98"/>
<polygon fill="midnightblue" stroke="midnightblue" points="160.14,-740 149.65,-741.52 158.79,-746.87 160.14,-740"/>
</g>
<!-- Node54 -->
<g id="node35" class="node">
<title>Node54</title>
<g id="a_node35"><a xlink:title=" ">
<polygon fill="none" stroke="#bfbfbf" points="21,-1171.5 21,-1190.5 176,-1190.5 176,-1171.5 21,-1171.5"/>
<text text-anchor="middle" x="98.5" y="-1178.5" font-family="FreeSans.ttf" font-size="10.00">yarp::dev::IRgbVisualParams</text>
</a>
</g>
</g>
<!-- Node54&#45;&gt;Node29 -->
<g id="edge61" class="edge">
<title>Node54&#45;&gt;Node29</title>
<path fill="none" stroke="midnightblue" d="M186.35,-1181C205.84,-1181 226.33,-1181 245.23,-1181"/>
<polygon fill="midnightblue" stroke="midnightblue" points="186.27,-1177.5 176.27,-1181 186.27,-1184.5 186.27,-1177.5"/>
</g>
<!-- Node55 -->
<g id="node36" class="node">
<title>Node55</title>
<g id="a_node36"><a xlink:title=" ">
<polygon fill="none" stroke="#bfbfbf" points="10.5,-848.5 10.5,-867.5 186.5,-867.5 186.5,-848.5 10.5,-848.5"/>
<text text-anchor="middle" x="98.5" y="-855.5" font-family="FreeSans.ttf" font-size="10.00">yarp::dev::IThreeAxisGyroscopes</text>
</a>
</g>
</g>
<!-- Node55&#45;&gt;Node25 -->
<g id="edge62" class="edge">
<title>Node55&#45;&gt;Node25</title>
<path fill="none" stroke="midnightblue" d="M196.62,-851.36C208.65,-850.54 220.9,-849.7 232.76,-848.89"/>
<polygon fill="midnightblue" stroke="midnightblue" points="196.31,-847.88 186.57,-852.05 196.78,-854.86 196.31,-847.88"/>
</g>
<!-- Node56 -->
<g id="node37" class="node">
<title>Node56</title>
<g id="a_node37"><a xlink:title=" ">
<polygon fill="none" stroke="#bfbfbf" points="24,-799 24,-829 173,-829 173,-799 24,-799"/>
<text text-anchor="start" x="32" y="-817" font-family="FreeSans.ttf" font-size="10.00">yarp::dev::IThreeAxisLinear</text>
<text text-anchor="middle" x="98.5" y="-806" font-family="FreeSans.ttf" font-size="10.00">Accelerometers</text>
</a>
</g>
</g>
<!-- Node56&#45;&gt;Node25 -->
<g id="edge63" class="edge">
<title>Node56&#45;&gt;Node25</title>
<path fill="none" stroke="midnightblue" d="M183.37,-825.08C204.34,-827.85 226.65,-830.8 246.98,-833.49"/>
<polygon fill="midnightblue" stroke="midnightblue" points="183.57,-821.58 173.2,-823.74 182.66,-828.52 183.57,-821.58"/>
</g>
<!-- Node57 -->
<g id="node38" class="node">
<title>Node57</title>
<g id="a_node38"><a xlink:title=" ">
<polygon fill="none" stroke="#bfbfbf" points="0,-760.5 0,-779.5 197,-779.5 197,-760.5 0,-760.5"/>
<text text-anchor="middle" x="98.5" y="-767.5" font-family="FreeSans.ttf" font-size="10.00">yarp::dev::IThreeAxisMagnetometers</text>
</a>
</g>
</g>
<!-- Node57&#45;&gt;Node25 -->
<g id="edge64" class="edge">
<title>Node57&#45;&gt;Node25</title>
<path fill="none" stroke="midnightblue" d="M165.93,-781.7C176.42,-784.1 187.07,-786.86 197,-790 234.87,-801.97 276.93,-821.78 300.45,-833.49"/>
<polygon fill="midnightblue" stroke="midnightblue" points="166.47,-778.23 155.95,-779.51 164.97,-785.07 166.47,-778.23"/>
</g>
<!-- Node58 -->
<g id="node39" class="node">
<title>Node58</title>
<g id="a_node39"><a xlink:title=" ">
<polygon fill="none" stroke="#bfbfbf" points="55,-38.5 55,-57.5 142,-57.5 142,-38.5 55,-38.5"/>
<text text-anchor="middle" x="98.5" y="-45.5" font-family="FreeSans.ttf" font-size="10.00">ITorqueControl</text>
</a>
</g>
</g>
<!-- Node58&#45;&gt;Node21 -->
<g id="edge65" class="edge">
<title>Node58&#45;&gt;Node21</title>
<path fill="none" stroke="midnightblue" d="M152.4,-46.8C168.8,-49.15 185.55,-54.83 197,-67 280.28,-155.47 153.8,-245.86 233,-338 236.34,-341.89 240.26,-345.19 244.53,-348"/>
<polygon fill="midnightblue" stroke="midnightblue" points="152.6,-43.3 142.29,-45.73 151.86,-50.26 152.6,-43.3"/>
</g>
<!-- Node58&#45;&gt;Node23 -->
<g id="edge66" class="edge">
<title>Node58&#45;&gt;Node23</title>
<path fill="none" stroke="midnightblue" d="M152.4,-49.49C168.01,-52.13 184.3,-57.3 197,-67 276.82,-127.96 307.78,-255.12 316.33,-298.85"/>
<polygon fill="midnightblue" stroke="midnightblue" points="152.67,-45.99 142.28,-48.09 151.71,-52.92 152.67,-45.99"/>
</g>
<!-- Node59 -->
<g id="node40" class="node">
<title>Node59</title>
<g id="a_node40"><a xlink:title=" ">
<polygon fill="none" stroke="#bfbfbf" points="51.5,-0.5 51.5,-19.5 145.5,-19.5 145.5,-0.5 51.5,-0.5"/>
<text text-anchor="middle" x="98.5" y="-7.5" font-family="FreeSans.ttf" font-size="10.00">IVelocityControl</text>
</a>
</g>
</g>
<!-- Node59&#45;&gt;Node21 -->
<g id="edge67" class="edge">
<title>Node59&#45;&gt;Node21</title>
<path fill="none" stroke="midnightblue" d="M155.69,-9.19C171.05,-11.8 186.38,-17.53 197,-29 290.96,-130.43 143.72,-232.42 233,-338 236.21,-341.8 239.97,-345.04 244.07,-347.8"/>
<polygon fill="midnightblue" stroke="midnightblue" points="156,-5.7 145.64,-7.89 155.1,-12.64 156,-5.7"/>
</g>
<!-- Node59&#45;&gt;Node23 -->
<g id="edge68" class="edge">
<title>Node59&#45;&gt;Node23</title>
<path fill="none" stroke="midnightblue" d="M155.64,-11.59C170.35,-14.37 185.34,-19.58 197,-29 286.19,-101.03 311.42,-250.5 317.38,-298.68"/>
<polygon fill="midnightblue" stroke="midnightblue" points="155.97,-8.1 145.55,-10.03 154.9,-15.02 155.97,-8.1"/>
</g>
<!-- Node60 -->
<g id="node41" class="node">
<title>Node60</title>
<g id="a_node41"><a xlink:title=" ">
<polygon fill="none" stroke="#bfbfbf" points="39,-608.5 39,-627.5 158,-627.5 158,-608.5 39,-608.5"/>
<text text-anchor="middle" x="98.5" y="-615.5" font-family="FreeSans.ttf" font-size="10.00">IVirtualAnalogSensor</text>
</a>
</g>
</g>
<!-- Node60&#45;&gt;Node21 -->
<g id="edge69" class="edge">
<title>Node60&#45;&gt;Node21</title>
<path fill="none" stroke="midnightblue" d="M168.18,-612.76C178.51,-609.74 188.53,-605.35 197,-599 274.14,-541.19 306.64,-420.48 315.97,-378.1"/>
<polygon fill="midnightblue" stroke="midnightblue" points="167.08,-609.43 158.22,-615.25 168.77,-616.22 167.08,-609.43"/>
</g>
<!-- Node61 -->
<g id="node42" class="node">
<title>Node61</title>
<g id="a_node42"><a xlink:title=" ">
<polygon fill="none" stroke="#bfbfbf" points="17,-684.5 17,-703.5 180,-703.5 180,-684.5 17,-684.5"/>
<text text-anchor="middle" x="98.5" y="-691.5" font-family="FreeSans.ttf" font-size="10.00">yarp::dev::Lidar2DDeviceBase</text>
</a>
</g>
</g>
<!-- Node61&#45;&gt;Node27 -->
<g id="edge70" class="edge">
<title>Node61&#45;&gt;Node27</title>
<path fill="none" stroke="midnightblue" d="M190.69,-698.57C208.51,-699.46 226.99,-700.39 244.19,-701.25"/>
<polygon fill="midnightblue" stroke="midnightblue" points="190.46,-695.05 180.3,-698.05 190.11,-702.05 190.46,-695.05"/>
</g>
</g>
</svg>
