<?xml version="1.0" encoding="UTF-8" standalone="no"?>
<!DOCTYPE svg PUBLIC "-//W3C//DTD SVG 1.1//EN"
 "http://www.w3.org/Graphics/SVG/1.1/DTD/svg11.dtd">
<!-- Generated by graphviz version 2.43.0 (0)
 -->
<!-- Title: Graphical Class Hierarchy Pages: 1 -->
<svg width="342pt" height="1742pt"
 viewBox="0.00 0.00 342.00 1742.00" xmlns="http://www.w3.org/2000/svg" xmlns:xlink="http://www.w3.org/1999/xlink">
<g id="graph0" class="graph" transform="scale(1 1) rotate(0) translate(4 1738)">
<title>Graphical Class Hierarchy</title>
<!-- Node80 -->
<g id="node1" class="node">
<title>Node80</title>
<g id="a_node1"><a xlink:title=" ">
<polygon fill="none" stroke="#bfbfbf" points="0,-863.5 0,-882.5 102,-882.5 102,-863.5 0,-863.5"/>
<text text-anchor="middle" x="51" y="-870.5" font-family="FreeSans.ttf" font-size="10.00">yarp::os::Portable</text>
</a>
</g>
</g>
<!-- Node0 -->
<g id="node2" class="node">
<title>Node0</title>
<g id="a_node2"><a xlink:href="classGazeboYarpPlugins_1_1ClockServer__continueSimulation__helper.html" target="_top" xlink:title=" ">
<polygon fill="none" stroke="black" points="148.5,-1692.5 148.5,-1733.5 323.5,-1733.5 323.5,-1692.5 148.5,-1692.5"/>
<text text-anchor="start" x="156.5" y="-1721.5" font-family="FreeSans.ttf" font-size="10.00">GazeboYarpPlugins::</text>
<text text-anchor="start" x="156.5" y="-1710.5" font-family="FreeSans.ttf" font-size="10.00">ClockServer_continueSimulation</text>
<text text-anchor="middle" x="236" y="-1699.5" font-family="FreeSans.ttf" font-size="10.00">_helper</text>
</a>
</g>
</g>
<!-- Node80&#45;&gt;Node0 -->
<g id="edge1" class="edge">
<title>Node80&#45;&gt;Node0</title>
<path fill="none" stroke="midnightblue" d="M52.81,-892.78C57.83,-1010.86 86.11,-1619.91 138,-1683 141.02,-1686.68 144.49,-1689.91 148.27,-1692.75"/>
<polygon fill="midnightblue" stroke="midnightblue" points="56.3,-892.49 52.39,-882.65 49.31,-892.79 56.3,-892.49"/>
</g>
<!-- Node82 -->
<g id="node3" class="node">
<title>Node82</title>
<g id="a_node3"><a xlink:href="classGazeboYarpPlugins_1_1ClockServer__getSimulationTime__helper.html" target="_top" xlink:title=" ">
<polygon fill="none" stroke="black" points="149.5,-1632.5 149.5,-1673.5 322.5,-1673.5 322.5,-1632.5 149.5,-1632.5"/>
<text text-anchor="start" x="157.5" y="-1661.5" font-family="FreeSans.ttf" font-size="10.00">GazeboYarpPlugins::</text>
<text text-anchor="start" x="157.5" y="-1650.5" font-family="FreeSans.ttf" font-size="10.00">ClockServer_getSimulationTime</text>
<text text-anchor="middle" x="236" y="-1639.5" font-family="FreeSans.ttf" font-size="10.00">_helper</text>
</a>
</g>
</g>
<!-- Node80&#45;&gt;Node82 -->
<g id="edge2" class="edge">
<title>Node80&#45;&gt;Node82</title>
<path fill="none" stroke="midnightblue" d="M53,-893.04C58.84,-1006.48 89.91,-1565.03 138,-1623 141.26,-1626.93 145.03,-1630.36 149.15,-1633.35"/>
<polygon fill="midnightblue" stroke="midnightblue" points="56.48,-892.52 52.48,-882.71 49.49,-892.88 56.48,-892.52"/>
</g>
<!-- Node83 -->
<g id="node4" class="node">
<title>Node83</title>
<g id="a_node4"><a xlink:href="classGazeboYarpPlugins_1_1ClockServer__getStepSize__helper.html" target="_top" xlink:title=" ">
<polygon fill="none" stroke="black" points="167,-1572.5 167,-1613.5 305,-1613.5 305,-1572.5 167,-1572.5"/>
<text text-anchor="start" x="175" y="-1601.5" font-family="FreeSans.ttf" font-size="10.00">GazeboYarpPlugins::</text>
<text text-anchor="start" x="175" y="-1590.5" font-family="FreeSans.ttf" font-size="10.00">ClockServer_getStepSize</text>
<text text-anchor="middle" x="236" y="-1579.5" font-family="FreeSans.ttf" font-size="10.00">_helper</text>
</a>
</g>
</g>
<!-- Node80&#45;&gt;Node83 -->
<g id="edge3" class="edge">
<title>Node80&#45;&gt;Node83</title>
<path fill="none" stroke="midnightblue" d="M51.68,-893.19C50.44,-995.69 49.91,-1457.87 138,-1563 145.59,-1572.05 155.84,-1578.42 166.86,-1582.89"/>
<polygon fill="midnightblue" stroke="midnightblue" points="55.18,-893.02 51.82,-882.98 48.18,-892.93 55.18,-893.02"/>
</g>
<!-- Node84 -->
<g id="node5" class="node">
<title>Node84</title>
<g id="a_node5"><a xlink:href="classGazeboYarpPlugins_1_1ClockServer__pauseSimulation__helper.html" target="_top" xlink:title=" ">
<polygon fill="none" stroke="black" points="155,-1512.5 155,-1553.5 317,-1553.5 317,-1512.5 155,-1512.5"/>
<text text-anchor="start" x="163" y="-1541.5" font-family="FreeSans.ttf" font-size="10.00">GazeboYarpPlugins::</text>
<text text-anchor="start" x="163" y="-1530.5" font-family="FreeSans.ttf" font-size="10.00">ClockServer_pauseSimulation</text>
<text text-anchor="middle" x="236" y="-1519.5" font-family="FreeSans.ttf" font-size="10.00">_helper</text>
</a>
</g>
</g>
<!-- Node80&#45;&gt;Node84 -->
<g id="edge4" class="edge">
<title>Node80&#45;&gt;Node84</title>
<path fill="none" stroke="midnightblue" d="M51.94,-892.62C52.05,-988.59 57.22,-1407.73 138,-1503 142.67,-1508.51 148.34,-1513.03 154.56,-1516.73"/>
<polygon fill="midnightblue" stroke="midnightblue" points="55.44,-892.57 51.95,-882.57 48.44,-892.56 55.44,-892.57"/>
</g>
<!-- Node85 -->
<g id="node6" class="node">
<title>Node85</title>
<g id="a_node6"><a xlink:href="classGazeboYarpPlugins_1_1ClockServer__resetSimulationState__helper.html" target="_top" xlink:title=" ">
<polygon fill="none" stroke="black" points="157,-1452.5 157,-1493.5 315,-1493.5 315,-1452.5 157,-1452.5"/>
<text text-anchor="start" x="165" y="-1481.5" font-family="FreeSans.ttf" font-size="10.00">GazeboYarpPlugins::</text>
<text text-anchor="start" x="165" y="-1470.5" font-family="FreeSans.ttf" font-size="10.00">ClockServer_resetSimulation</text>
<text text-anchor="middle" x="236" y="-1459.5" font-family="FreeSans.ttf" font-size="10.00">State_helper</text>
</a>
</g>
</g>
<!-- Node80&#45;&gt;Node85 -->
<g id="edge5" class="edge">
<title>Node80&#45;&gt;Node85</title>
<path fill="none" stroke="midnightblue" d="M52.26,-892.71C53.82,-983.17 64.7,-1357.77 138,-1443 143.29,-1449.15 149.81,-1454.05 156.94,-1457.97"/>
<polygon fill="midnightblue" stroke="midnightblue" points="55.75,-892.45 52.1,-882.5 48.75,-892.56 55.75,-892.45"/>
</g>
<!-- Node86 -->
<g id="node7" class="node">
<title>Node86</title>
<g id="a_node7"><a xlink:href="classGazeboYarpPlugins_1_1ClockServer__resetSimulationTime__helper.html" target="_top" xlink:title=" ">
<polygon fill="none" stroke="black" points="157,-1392.5 157,-1433.5 315,-1433.5 315,-1392.5 157,-1392.5"/>
<text text-anchor="start" x="165" y="-1421.5" font-family="FreeSans.ttf" font-size="10.00">GazeboYarpPlugins::</text>
<text text-anchor="start" x="165" y="-1410.5" font-family="FreeSans.ttf" font-size="10.00">ClockServer_resetSimulation</text>
<text text-anchor="middle" x="236" y="-1399.5" font-family="FreeSans.ttf" font-size="10.00">Time_helper</text>
</a>
</g>
</g>
<!-- Node80&#45;&gt;Node86 -->
<g id="edge6" class="edge">
<title>Node80&#45;&gt;Node86</title>
<path fill="none" stroke="midnightblue" d="M52.64,-892.75C55.78,-977.3 72.13,-1307.74 138,-1383 143.22,-1388.97 149.61,-1393.77 156.58,-1397.62"/>
<polygon fill="midnightblue" stroke="midnightblue" points="56.14,-892.58 52.29,-882.7 49.14,-892.82 56.14,-892.58"/>
</g>
<!-- Node87 -->
<g id="node8" class="node">
<title>Node87</title>
<g id="a_node8"><a xlink:href="classGazeboYarpPlugins_1_1ClockServer__resetSimulation__helper.html" target="_top" xlink:title=" ">
<polygon fill="none" stroke="black" points="157,-1332.5 157,-1373.5 315,-1373.5 315,-1332.5 157,-1332.5"/>
<text text-anchor="start" x="165" y="-1361.5" font-family="FreeSans.ttf" font-size="10.00">GazeboYarpPlugins::</text>
<text text-anchor="start" x="165" y="-1350.5" font-family="FreeSans.ttf" font-size="10.00">ClockServer_resetSimulation</text>
<text text-anchor="middle" x="236" y="-1339.5" font-family="FreeSans.ttf" font-size="10.00">_helper</text>
</a>
</g>
</g>
<!-- Node80&#45;&gt;Node87 -->
<g id="edge7" class="edge">
<title>Node80&#45;&gt;Node87</title>
<path fill="none" stroke="midnightblue" d="M53.15,-893.11C58.04,-971.81 79.61,-1257.74 138,-1323 143.29,-1328.91 149.72,-1333.67 156.72,-1337.5"/>
<polygon fill="midnightblue" stroke="midnightblue" points="56.62,-892.46 52.53,-882.69 49.63,-892.88 56.62,-892.46"/>
</g>
<!-- Node88 -->
<g id="node9" class="node">
<title>Node88</title>
<g id="a_node9"><a xlink:href="classGazeboYarpPlugins_1_1ClockServer__stepSimulationAndWait__helper.html" target="_top" xlink:title=" ">
<polygon fill="none" stroke="black" points="159,-1272.5 159,-1313.5 313,-1313.5 313,-1272.5 159,-1272.5"/>
<text text-anchor="start" x="167" y="-1301.5" font-family="FreeSans.ttf" font-size="10.00">GazeboYarpPlugins::</text>
<text text-anchor="start" x="167" y="-1290.5" font-family="FreeSans.ttf" font-size="10.00">ClockServer_stepSimulation</text>
<text text-anchor="middle" x="236" y="-1279.5" font-family="FreeSans.ttf" font-size="10.00">AndWait_helper</text>
</a>
</g>
</g>
<!-- Node80&#45;&gt;Node88 -->
<g id="edge8" class="edge">
<title>Node80&#45;&gt;Node88</title>
<path fill="none" stroke="midnightblue" d="M53.8,-893.15C60.59,-965.03 86.96,-1207.55 138,-1263 143.85,-1269.36 151.01,-1274.38 158.77,-1278.34"/>
<polygon fill="midnightblue" stroke="midnightblue" points="57.24,-892.43 52.84,-882.79 50.27,-893.07 57.24,-892.43"/>
</g>
<!-- Node89 -->
<g id="node10" class="node">
<title>Node89</title>
<g id="a_node10"><a xlink:href="classGazeboYarpPlugins_1_1ClockServer__stepSimulation__helper.html" target="_top" xlink:title=" ">
<polygon fill="none" stroke="black" points="159,-1212.5 159,-1253.5 313,-1253.5 313,-1212.5 159,-1212.5"/>
<text text-anchor="start" x="167" y="-1241.5" font-family="FreeSans.ttf" font-size="10.00">GazeboYarpPlugins::</text>
<text text-anchor="start" x="167" y="-1230.5" font-family="FreeSans.ttf" font-size="10.00">ClockServer_stepSimulation</text>
<text text-anchor="middle" x="236" y="-1219.5" font-family="FreeSans.ttf" font-size="10.00">_helper</text>
</a>
</g>
</g>
<!-- Node80&#45;&gt;Node89 -->
<g id="edge9" class="edge">
<title>Node80&#45;&gt;Node89</title>
<path fill="none" stroke="midnightblue" d="M54.57,-892.48C63.36,-956.22 94.1,-1157.08 138,-1203 143.85,-1209.12 150.91,-1213.99 158.53,-1217.88"/>
<polygon fill="midnightblue" stroke="midnightblue" points="58.04,-891.99 53.23,-882.55 51.1,-892.93 58.04,-891.99"/>
</g>
<!-- Node90 -->
<g id="node11" class="node">
<title>Node90</title>
<g id="a_node11"><a xlink:href="classGazeboYarpPlugins_1_1LinkAttacherServer__attachUnscoped__helper.html" target="_top" xlink:title=" ">
<polygon fill="none" stroke="black" points="139,-1152.5 139,-1193.5 333,-1193.5 333,-1152.5 139,-1152.5"/>
<text text-anchor="start" x="147" y="-1181.5" font-family="FreeSans.ttf" font-size="10.00">GazeboYarpPlugins::</text>
<text text-anchor="start" x="147" y="-1170.5" font-family="FreeSans.ttf" font-size="10.00">LinkAttacherServer_attachUnscoped</text>
<text text-anchor="middle" x="236" y="-1159.5" font-family="FreeSans.ttf" font-size="10.00">_helper</text>
</a>
</g>
</g>
<!-- Node80&#45;&gt;Node90 -->
<g id="edge10" class="edge">
<title>Node80&#45;&gt;Node90</title>
<path fill="none" stroke="midnightblue" d="M52.37,-892.74C54.37,-942.12 66.54,-1072.14 138,-1143 141.5,-1146.48 145.4,-1149.55 149.57,-1152.27"/>
<polygon fill="midnightblue" stroke="midnightblue" points="55.86,-892.62 52.06,-882.73 48.87,-892.83 55.86,-892.62"/>
</g>
<!-- Node91 -->
<g id="node12" class="node">
<title>Node91</title>
<g id="a_node12"><a xlink:href="classGazeboYarpPlugins_1_1LinkAttacherServer__detachUnscoped__helper.html" target="_top" xlink:title=" ">
<polygon fill="none" stroke="black" points="138,-1092.5 138,-1133.5 334,-1133.5 334,-1092.5 138,-1092.5"/>
<text text-anchor="start" x="146" y="-1121.5" font-family="FreeSans.ttf" font-size="10.00">GazeboYarpPlugins::</text>
<text text-anchor="start" x="146" y="-1110.5" font-family="FreeSans.ttf" font-size="10.00">LinkAttacherServer_detachUnscoped</text>
<text text-anchor="middle" x="236" y="-1099.5" font-family="FreeSans.ttf" font-size="10.00">_helper</text>
</a>
</g>
</g>
<!-- Node80&#45;&gt;Node91 -->
<g id="edge11" class="edge">
<title>Node80&#45;&gt;Node91</title>
<path fill="none" stroke="midnightblue" d="M54.43,-892.7C60.59,-934.07 80.61,-1030.49 138,-1083 141.9,-1086.57 146.22,-1089.71 150.81,-1092.49"/>
<polygon fill="midnightblue" stroke="midnightblue" points="57.87,-892 53.04,-882.57 50.94,-892.95 57.87,-892"/>
</g>
<!-- Node92 -->
<g id="node13" class="node">
<title>Node92</title>
<g id="a_node13"><a xlink:href="classGazeboYarpPlugins_1_1LinkAttacherServer__enableGravity__helper.html" target="_top" xlink:title=" ">
<polygon fill="none" stroke="black" points="144,-1032.5 144,-1073.5 328,-1073.5 328,-1032.5 144,-1032.5"/>
<text text-anchor="start" x="152" y="-1061.5" font-family="FreeSans.ttf" font-size="10.00">GazeboYarpPlugins::</text>
<text text-anchor="start" x="152" y="-1050.5" font-family="FreeSans.ttf" font-size="10.00">LinkAttacherServer_enableGravity</text>
<text text-anchor="middle" x="236" y="-1039.5" font-family="FreeSans.ttf" font-size="10.00">_helper</text>
</a>
</g>
</g>
<!-- Node80&#45;&gt;Node92 -->
<g id="edge12" class="edge">
<title>Node80&#45;&gt;Node92</title>
<path fill="none" stroke="midnightblue" d="M57.99,-892.65C68.75,-924.69 94.4,-988.09 138,-1023 142.4,-1026.53 147.22,-1029.64 152.28,-1032.39"/>
<polygon fill="midnightblue" stroke="midnightblue" points="61.19,-891.18 54.8,-882.73 54.52,-893.32 61.19,-891.18"/>
</g>
<!-- Node93 -->
<g id="node14" class="node">
<title>Node93</title>
<g id="a_node14"><a xlink:href="classGazeboYarpPlugins_1_1WorldInterfaceServer__attach__helper.html" target="_top" xlink:title=" ">
<polygon fill="none" stroke="black" points="176.5,-972.5 176.5,-1013.5 295.5,-1013.5 295.5,-972.5 176.5,-972.5"/>
<text text-anchor="start" x="184.5" y="-1001.5" font-family="FreeSans.ttf" font-size="10.00">GazeboYarpPlugins::</text>
<text text-anchor="start" x="184.5" y="-990.5" font-family="FreeSans.ttf" font-size="10.00">WorldInterfaceServer</text>
<text text-anchor="middle" x="236" y="-979.5" font-family="FreeSans.ttf" font-size="10.00">_attach_helper</text>
</a>
</g>
</g>
<!-- Node80&#45;&gt;Node93 -->
<g id="edge13" class="edge">
<title>Node80&#45;&gt;Node93</title>
<path fill="none" stroke="midnightblue" d="M64.52,-890.78C79.7,-911.06 107.1,-943.88 138,-963 149.69,-970.23 163.26,-975.84 176.49,-980.15"/>
<polygon fill="midnightblue" stroke="midnightblue" points="67.34,-888.7 58.62,-882.68 61.68,-892.82 67.34,-888.7"/>
</g>
<!-- Node94 -->
<g id="node15" class="node">
<title>Node94</title>
<g id="a_node15"><a xlink:href="classGazeboYarpPlugins_1_1WorldInterfaceServer__changeColor__helper.html" target="_top" xlink:title=" ">
<polygon fill="none" stroke="black" points="176.5,-912.5 176.5,-953.5 295.5,-953.5 295.5,-912.5 176.5,-912.5"/>
<text text-anchor="start" x="184.5" y="-941.5" font-family="FreeSans.ttf" font-size="10.00">GazeboYarpPlugins::</text>
<text text-anchor="start" x="184.5" y="-930.5" font-family="FreeSans.ttf" font-size="10.00">WorldInterfaceServer</text>
<text text-anchor="middle" x="236" y="-919.5" font-family="FreeSans.ttf" font-size="10.00">_changeColor_helper</text>
</a>
</g>
</g>
<!-- Node80&#45;&gt;Node94 -->
<g id="edge14" class="edge">
<title>Node80&#45;&gt;Node94</title>
<path fill="none" stroke="midnightblue" d="M88.27,-885.97C103.57,-891.36 121.61,-897.61 138,-903 150.39,-907.08 163.72,-911.3 176.42,-915.25"/>
<polygon fill="midnightblue" stroke="midnightblue" points="89.24,-882.61 78.65,-882.57 86.91,-889.2 89.24,-882.61"/>
</g>
<!-- Node95 -->
<g id="node16" class="node">
<title>Node95</title>
<g id="a_node16"><a xlink:href="classGazeboYarpPlugins_1_1WorldInterfaceServer__deleteAll__helper.html" target="_top" xlink:title=" ">
<polygon fill="none" stroke="black" points="176.5,-852.5 176.5,-893.5 295.5,-893.5 295.5,-852.5 176.5,-852.5"/>
<text text-anchor="start" x="184.5" y="-881.5" font-family="FreeSans.ttf" font-size="10.00">GazeboYarpPlugins::</text>
<text text-anchor="start" x="184.5" y="-870.5" font-family="FreeSans.ttf" font-size="10.00">WorldInterfaceServer</text>
<text text-anchor="middle" x="236" y="-859.5" font-family="FreeSans.ttf" font-size="10.00">_deleteAll_helper</text>
</a>
</g>
</g>
<!-- Node80&#45;&gt;Node95 -->
<g id="edge15" class="edge">
<title>Node80&#45;&gt;Node95</title>
<path fill="none" stroke="midnightblue" d="M112.22,-873C132.81,-873 155.82,-873 176.3,-873"/>
<polygon fill="midnightblue" stroke="midnightblue" points="112.01,-869.5 102.01,-873 112.01,-876.5 112.01,-869.5"/>
</g>
<!-- Node96 -->
<g id="node17" class="node">
<title>Node96</title>
<g id="a_node17"><a xlink:href="classGazeboYarpPlugins_1_1WorldInterfaceServer__deleteObject__helper.html" target="_top" xlink:title=" ">
<polygon fill="none" stroke="black" points="176,-792.5 176,-833.5 296,-833.5 296,-792.5 176,-792.5"/>
<text text-anchor="start" x="184" y="-821.5" font-family="FreeSans.ttf" font-size="10.00">GazeboYarpPlugins::</text>
<text text-anchor="start" x="184" y="-810.5" font-family="FreeSans.ttf" font-size="10.00">WorldInterfaceServer</text>
<text text-anchor="middle" x="236" y="-799.5" font-family="FreeSans.ttf" font-size="10.00">_deleteObject_helper</text>
</a>
</g>
</g>
<!-- Node80&#45;&gt;Node96 -->
<g id="edge16" class="edge">
<title>Node80&#45;&gt;Node96</title>
<path fill="none" stroke="midnightblue" d="M88.27,-860.03C103.57,-854.64 121.61,-848.39 138,-843 150.22,-838.98 163.36,-834.81 175.9,-830.91"/>
<polygon fill="midnightblue" stroke="midnightblue" points="86.91,-856.8 78.65,-863.43 89.24,-863.39 86.91,-856.8"/>
</g>
<!-- Node97 -->
<g id="node18" class="node">
<title>Node97</title>
<g id="a_node18"><a xlink:href="classGazeboYarpPlugins_1_1WorldInterfaceServer__detach__helper.html" target="_top" xlink:title=" ">
<polygon fill="none" stroke="black" points="176.5,-732.5 176.5,-773.5 295.5,-773.5 295.5,-732.5 176.5,-732.5"/>
<text text-anchor="start" x="184.5" y="-761.5" font-family="FreeSans.ttf" font-size="10.00">GazeboYarpPlugins::</text>
<text text-anchor="start" x="184.5" y="-750.5" font-family="FreeSans.ttf" font-size="10.00">WorldInterfaceServer</text>
<text text-anchor="middle" x="236" y="-739.5" font-family="FreeSans.ttf" font-size="10.00">_detach_helper</text>
</a>
</g>
</g>
<!-- Node80&#45;&gt;Node97 -->
<g id="edge17" class="edge">
<title>Node80&#45;&gt;Node97</title>
<path fill="none" stroke="midnightblue" d="M64.52,-855.22C79.7,-834.94 107.1,-802.12 138,-783 149.69,-775.77 163.26,-770.16 176.49,-765.85"/>
<polygon fill="midnightblue" stroke="midnightblue" points="61.68,-853.18 58.62,-863.32 67.34,-857.3 61.68,-853.18"/>
</g>
<!-- Node98 -->
<g id="node19" class="node">
<title>Node98</title>
<g id="a_node19"><a xlink:href="classGazeboYarpPlugins_1_1WorldInterfaceServer__enableCollision__helper.html" target="_top" xlink:title=" ">
<polygon fill="none" stroke="black" points="169.5,-672.5 169.5,-713.5 302.5,-713.5 302.5,-672.5 169.5,-672.5"/>
<text text-anchor="start" x="177.5" y="-701.5" font-family="FreeSans.ttf" font-size="10.00">GazeboYarpPlugins::</text>
<text text-anchor="start" x="177.5" y="-690.5" font-family="FreeSans.ttf" font-size="10.00">WorldInterfaceServer</text>
<text text-anchor="middle" x="236" y="-679.5" font-family="FreeSans.ttf" font-size="10.00">_enableCollision_helper</text>
</a>
</g>
</g>
<!-- Node80&#45;&gt;Node98 -->
<g id="edge18" class="edge">
<title>Node80&#45;&gt;Node98</title>
<path fill="none" stroke="midnightblue" d="M57.99,-853.35C68.75,-821.31 94.4,-757.91 138,-723 147.15,-715.67 158.09,-710.13 169.28,-705.94"/>
<polygon fill="midnightblue" stroke="midnightblue" points="54.52,-852.68 54.8,-863.27 61.19,-854.82 54.52,-852.68"/>
</g>
<!-- Node99 -->
<g id="node20" class="node">
<title>Node99</title>
<g id="a_node20"><a xlink:href="classGazeboYarpPlugins_1_1WorldInterfaceServer__enableGravity__helper.html" target="_top" xlink:title=" ">
<polygon fill="none" stroke="black" points="172.5,-612.5 172.5,-653.5 299.5,-653.5 299.5,-612.5 172.5,-612.5"/>
<text text-anchor="start" x="180.5" y="-641.5" font-family="FreeSans.ttf" font-size="10.00">GazeboYarpPlugins::</text>
<text text-anchor="start" x="180.5" y="-630.5" font-family="FreeSans.ttf" font-size="10.00">WorldInterfaceServer</text>
<text text-anchor="middle" x="236" y="-619.5" font-family="FreeSans.ttf" font-size="10.00">_enableGravity_helper</text>
</a>
</g>
</g>
<!-- Node80&#45;&gt;Node99 -->
<g id="edge19" class="edge">
<title>Node80&#45;&gt;Node99</title>
<path fill="none" stroke="midnightblue" d="M54.43,-853.3C60.59,-811.93 80.61,-715.51 138,-663 147.69,-654.14 159.95,-647.89 172.47,-643.49"/>
<polygon fill="midnightblue" stroke="midnightblue" points="50.94,-853.05 53.04,-863.43 57.87,-854 50.94,-853.05"/>
</g>
<!-- Node100 -->
<g id="node21" class="node">
<title>Node100</title>
<g id="a_node21"><a xlink:href="classGazeboYarpPlugins_1_1WorldInterfaceServer__getList__helper.html" target="_top" xlink:title=" ">
<polygon fill="none" stroke="black" points="176.5,-552.5 176.5,-593.5 295.5,-593.5 295.5,-552.5 176.5,-552.5"/>
<text text-anchor="start" x="184.5" y="-581.5" font-family="FreeSans.ttf" font-size="10.00">GazeboYarpPlugins::</text>
<text text-anchor="start" x="184.5" y="-570.5" font-family="FreeSans.ttf" font-size="10.00">WorldInterfaceServer</text>
<text text-anchor="middle" x="236" y="-559.5" font-family="FreeSans.ttf" font-size="10.00">_getList_helper</text>
</a>
</g>
</g>
<!-- Node80&#45;&gt;Node100 -->
<g id="edge20" class="edge">
<title>Node80&#45;&gt;Node100</title>
<path fill="none" stroke="midnightblue" d="M52.37,-853.26C54.37,-803.88 66.54,-673.86 138,-603 148.45,-592.64 162.4,-585.84 176.46,-581.39"/>
<polygon fill="midnightblue" stroke="midnightblue" points="48.87,-853.17 52.06,-863.27 55.86,-853.38 48.87,-853.17"/>
</g>
<!-- Node101 -->
<g id="node22" class="node">
<title>Node101</title>
<g id="a_node22"><a xlink:href="classGazeboYarpPlugins_1_1WorldInterfaceServer__getPose__helper.html" target="_top" xlink:title=" ">
<polygon fill="none" stroke="black" points="176.5,-492.5 176.5,-533.5 295.5,-533.5 295.5,-492.5 176.5,-492.5"/>
<text text-anchor="start" x="184.5" y="-521.5" font-family="FreeSans.ttf" font-size="10.00">GazeboYarpPlugins::</text>
<text text-anchor="start" x="184.5" y="-510.5" font-family="FreeSans.ttf" font-size="10.00">WorldInterfaceServer</text>
<text text-anchor="middle" x="236" y="-499.5" font-family="FreeSans.ttf" font-size="10.00">_getPose_helper</text>
</a>
</g>
</g>
<!-- Node80&#45;&gt;Node101 -->
<g id="edge21" class="edge">
<title>Node80&#45;&gt;Node101</title>
<path fill="none" stroke="midnightblue" d="M54.57,-853.52C63.36,-789.78 94.1,-588.92 138,-543 148.23,-532.3 162.19,-525.39 176.33,-520.94"/>
<polygon fill="midnightblue" stroke="midnightblue" points="51.1,-853.07 53.23,-863.45 58.04,-854.01 51.1,-853.07"/>
</g>
<!-- Node102 -->
<g id="node23" class="node">
<title>Node102</title>
<g id="a_node23"><a xlink:href="classGazeboYarpPlugins_1_1WorldInterfaceServer__loadModelFromFileWithPose__helper.html" target="_top" xlink:title=" ">
<polygon fill="none" stroke="black" points="155.5,-421 155.5,-473 316.5,-473 316.5,-421 155.5,-421"/>
<text text-anchor="start" x="163.5" y="-461" font-family="FreeSans.ttf" font-size="10.00">GazeboYarpPlugins::</text>
<text text-anchor="start" x="163.5" y="-450" font-family="FreeSans.ttf" font-size="10.00">WorldInterfaceServer</text>
<text text-anchor="start" x="163.5" y="-439" font-family="FreeSans.ttf" font-size="10.00">_loadModelFromFileWithPose</text>
<text text-anchor="middle" x="236" y="-428" font-family="FreeSans.ttf" font-size="10.00">_helper</text>
</a>
</g>
</g>
<!-- Node80&#45;&gt;Node102 -->
<g id="edge22" class="edge">
<title>Node80&#45;&gt;Node102</title>
<path fill="none" stroke="midnightblue" d="M53.9,-852.95C61.06,-781.39 88.52,-539.85 138,-483 142.95,-477.31 148.89,-472.52 155.36,-468.48"/>
<polygon fill="midnightblue" stroke="midnightblue" points="50.38,-852.96 52.89,-863.26 57.35,-853.64 50.38,-852.96"/>
</g>
<!-- Node103 -->
<g id="node24" class="node">
<title>Node103</title>
<g id="a_node24"><a xlink:href="classGazeboYarpPlugins_1_1WorldInterfaceServer__loadModelFromFile__helper.html" target="_top" xlink:title=" ">
<polygon fill="none" stroke="black" points="160.5,-360.5 160.5,-401.5 311.5,-401.5 311.5,-360.5 160.5,-360.5"/>
<text text-anchor="start" x="168.5" y="-389.5" font-family="FreeSans.ttf" font-size="10.00">GazeboYarpPlugins::</text>
<text text-anchor="start" x="168.5" y="-378.5" font-family="FreeSans.ttf" font-size="10.00">WorldInterfaceServer</text>
<text text-anchor="middle" x="236" y="-367.5" font-family="FreeSans.ttf" font-size="10.00">_loadModelFromFile_helper</text>
</a>
</g>
</g>
<!-- Node80&#45;&gt;Node103 -->
<g id="edge23" class="edge">
<title>Node80&#45;&gt;Node103</title>
<path fill="none" stroke="midnightblue" d="M53.04,-853.42C57.61,-774.34 78.45,-479.5 138,-412 144.2,-404.97 151.99,-399.53 160.45,-395.31"/>
<polygon fill="midnightblue" stroke="midnightblue" points="49.54,-853.29 52.48,-863.47 56.53,-853.68 49.54,-853.29"/>
</g>
<!-- Node104 -->
<g id="node25" class="node">
<title>Node104</title>
<g id="a_node25"><a xlink:href="classGazeboYarpPlugins_1_1WorldInterfaceServer__makeBox__helper.html" target="_top" xlink:title=" ">
<polygon fill="none" stroke="black" points="176.5,-300.5 176.5,-341.5 295.5,-341.5 295.5,-300.5 176.5,-300.5"/>
<text text-anchor="start" x="184.5" y="-329.5" font-family="FreeSans.ttf" font-size="10.00">GazeboYarpPlugins::</text>
<text text-anchor="start" x="184.5" y="-318.5" font-family="FreeSans.ttf" font-size="10.00">WorldInterfaceServer</text>
<text text-anchor="middle" x="236" y="-307.5" font-family="FreeSans.ttf" font-size="10.00">_makeBox_helper</text>
</a>
</g>
</g>
<!-- Node80&#45;&gt;Node104 -->
<g id="edge24" class="edge">
<title>Node80&#45;&gt;Node104</title>
<path fill="none" stroke="midnightblue" d="M52.55,-853.34C55.36,-767.72 70.63,-428.27 138,-351 147.9,-339.64 162.01,-332.52 176.41,-328.08"/>
<polygon fill="midnightblue" stroke="midnightblue" points="49.05,-853.38 52.24,-863.48 56.05,-853.6 49.05,-853.38"/>
</g>
<!-- Node105 -->
<g id="node26" class="node">
<title>Node105</title>
<g id="a_node26"><a xlink:href="classGazeboYarpPlugins_1_1WorldInterfaceServer__makeCylinder__helper.html" target="_top" xlink:title=" ">
<polygon fill="none" stroke="black" points="173.5,-240.5 173.5,-281.5 298.5,-281.5 298.5,-240.5 173.5,-240.5"/>
<text text-anchor="start" x="181.5" y="-269.5" font-family="FreeSans.ttf" font-size="10.00">GazeboYarpPlugins::</text>
<text text-anchor="start" x="181.5" y="-258.5" font-family="FreeSans.ttf" font-size="10.00">WorldInterfaceServer</text>
<text text-anchor="middle" x="236" y="-247.5" font-family="FreeSans.ttf" font-size="10.00">_makeCylinder_helper</text>
</a>
</g>
</g>
<!-- Node80&#45;&gt;Node105 -->
<g id="edge25" class="edge">
<title>Node80&#45;&gt;Node105</title>
<path fill="none" stroke="midnightblue" d="M52.19,-853.16C53.46,-761.3 63.25,-378.19 138,-291 147.12,-280.36 159.93,-273.44 173.26,-268.95"/>
<polygon fill="midnightblue" stroke="midnightblue" points="48.69,-853.26 52.07,-863.3 55.69,-853.34 48.69,-853.26"/>
</g>
<!-- Node106 -->
<g id="node27" class="node">
<title>Node106</title>
<g id="a_node27"><a xlink:href="classGazeboYarpPlugins_1_1WorldInterfaceServer__makeFrame__helper.html" target="_top" xlink:title=" ">
<polygon fill="none" stroke="black" points="176.5,-180.5 176.5,-221.5 295.5,-221.5 295.5,-180.5 176.5,-180.5"/>
<text text-anchor="start" x="184.5" y="-209.5" font-family="FreeSans.ttf" font-size="10.00">GazeboYarpPlugins::</text>
<text text-anchor="start" x="184.5" y="-198.5" font-family="FreeSans.ttf" font-size="10.00">WorldInterfaceServer</text>
<text text-anchor="middle" x="236" y="-187.5" font-family="FreeSans.ttf" font-size="10.00">_makeFrame_helper</text>
</a>
</g>
</g>
<!-- Node80&#45;&gt;Node106 -->
<g id="edge26" class="edge">
<title>Node80&#45;&gt;Node106</title>
<path fill="none" stroke="midnightblue" d="M51.89,-853.01C51.73,-755.22 55.83,-328.16 138,-231 147.79,-219.43 161.95,-212.24 176.44,-207.8"/>
<polygon fill="midnightblue" stroke="midnightblue" points="48.39,-853.27 51.92,-863.25 55.39,-853.24 48.39,-853.27"/>
</g>
<!-- Node107 -->
<g id="node28" class="node">
<title>Node107</title>
<g id="a_node28"><a xlink:href="classGazeboYarpPlugins_1_1WorldInterfaceServer__makeSphere__helper.html" target="_top" xlink:title=" ">
<polygon fill="none" stroke="black" points="176.5,-120.5 176.5,-161.5 295.5,-161.5 295.5,-120.5 176.5,-120.5"/>
<text text-anchor="start" x="184.5" y="-149.5" font-family="FreeSans.ttf" font-size="10.00">GazeboYarpPlugins::</text>
<text text-anchor="start" x="184.5" y="-138.5" font-family="FreeSans.ttf" font-size="10.00">WorldInterfaceServer</text>
<text text-anchor="middle" x="236" y="-127.5" font-family="FreeSans.ttf" font-size="10.00">_makeSphere_helper</text>
</a>
</g>
</g>
<!-- Node80&#45;&gt;Node107 -->
<g id="edge27" class="edge">
<title>Node80&#45;&gt;Node107</title>
<path fill="none" stroke="midnightblue" d="M51.63,-853.12C50.14,-750.18 48.32,-278.26 138,-171 147.72,-159.37 161.86,-152.17 176.35,-147.73"/>
<polygon fill="midnightblue" stroke="midnightblue" points="48.14,-853.4 51.8,-863.34 55.14,-853.28 48.14,-853.4"/>
</g>
<!-- Node108 -->
<g id="node29" class="node">
<title>Node108</title>
<g id="a_node29"><a xlink:href="classGazeboYarpPlugins_1_1WorldInterfaceServer__rename__helper.html" target="_top" xlink:title=" ">
<polygon fill="none" stroke="black" points="176.5,-60.5 176.5,-101.5 295.5,-101.5 295.5,-60.5 176.5,-60.5"/>
<text text-anchor="start" x="184.5" y="-89.5" font-family="FreeSans.ttf" font-size="10.00">GazeboYarpPlugins::</text>
<text text-anchor="start" x="184.5" y="-78.5" font-family="FreeSans.ttf" font-size="10.00">WorldInterfaceServer</text>
<text text-anchor="middle" x="236" y="-67.5" font-family="FreeSans.ttf" font-size="10.00">_rename_helper</text>
</a>
</g>
</g>
<!-- Node80&#45;&gt;Node108 -->
<g id="edge28" class="edge">
<title>Node80&#45;&gt;Node108</title>
<path fill="none" stroke="midnightblue" d="M52.95,-853.35C58.57,-739.73 89.11,-170.05 138,-111 147.67,-99.32 161.79,-92.11 176.28,-87.67"/>
<polygon fill="midnightblue" stroke="midnightblue" points="49.45,-853.24 52.45,-863.4 56.44,-853.58 49.45,-853.24"/>
</g>
<!-- Node109 -->
<g id="node30" class="node">
<title>Node109</title>
<g id="a_node30"><a xlink:href="classGazeboYarpPlugins_1_1WorldInterfaceServer__setPose__helper.html" target="_top" xlink:title=" ">
<polygon fill="none" stroke="black" points="176.5,-0.5 176.5,-41.5 295.5,-41.5 295.5,-0.5 176.5,-0.5"/>
<text text-anchor="start" x="184.5" y="-29.5" font-family="FreeSans.ttf" font-size="10.00">GazeboYarpPlugins::</text>
<text text-anchor="start" x="184.5" y="-18.5" font-family="FreeSans.ttf" font-size="10.00">WorldInterfaceServer</text>
<text text-anchor="middle" x="236" y="-7.5" font-family="FreeSans.ttf" font-size="10.00">_setPose_helper</text>
</a>
</g>
</g>
<!-- Node80&#45;&gt;Node109 -->
<g id="edge29" class="edge">
<title>Node80&#45;&gt;Node109</title>
<path fill="none" stroke="midnightblue" d="M52.78,-853.31C57.63,-734.39 85.34,-115.12 138,-51 147.68,-39.22 161.89,-31.97 176.47,-27.54"/>
<polygon fill="midnightblue" stroke="midnightblue" points="49.27,-853.35 52.37,-863.48 56.27,-853.63 49.27,-853.35"/>
</g>
</g>
</svg>
