<?xml version="1.0" encoding="UTF-8" standalone="no"?>
<!DOCTYPE svg PUBLIC "-//W3C//DTD SVG 1.1//EN"
 "http://www.w3.org/Graphics/SVG/1.1/DTD/svg11.dtd">
<!-- Generated by graphviz version 2.43.0 (0)
 -->
<!-- Title: Graphical Class Hierarchy Pages: 1 -->
<svg width="451pt" height="262pt"
 viewBox="0.00 0.00 451.00 261.50" xmlns="http://www.w3.org/2000/svg" xmlns:xlink="http://www.w3.org/1999/xlink">
<g id="graph0" class="graph" transform="scale(1 1) rotate(0) translate(4 257.5)">
<title>Graphical Class Hierarchy</title>
<!-- Node110 -->
<g id="node1" class="node">
<title>Node110</title>
<g id="a_node1"><a xlink:title=" ">
<polygon fill="none" stroke="#bfbfbf" points="0,-203.5 0,-222.5 111,-222.5 111,-203.5 0,-203.5"/>
<text text-anchor="middle" x="55.5" y="-210.5" font-family="FreeSans.ttf" font-size="10.00">yarp::os::PortWriter</text>
</a>
</g>
</g>
<!-- Node0 -->
<g id="node2" class="node">
<title>Node0</title>
<g id="a_node2"><a xlink:href="classGazeboYarpPlugins_1_1Color_1_1Editor.html" target="_top" xlink:title=" ">
<polygon fill="none" stroke="black" points="149,-174 149,-204 264,-204 264,-174 149,-174"/>
<text text-anchor="start" x="157" y="-192" font-family="FreeSans.ttf" font-size="10.00">GazeboYarpPlugins::</text>
<text text-anchor="middle" x="206.5" y="-181" font-family="FreeSans.ttf" font-size="10.00">Color::Editor</text>
</a>
</g>
</g>
<!-- Node110&#45;&gt;Node0 -->
<g id="edge1" class="edge">
<title>Node110&#45;&gt;Node0</title>
<path fill="none" stroke="midnightblue" d="M121.07,-202.6C130.32,-201.11 139.79,-199.58 148.87,-198.12"/>
<polygon fill="midnightblue" stroke="midnightblue" points="120.45,-199.15 111.14,-204.2 121.57,-206.06 120.45,-199.15"/>
</g>
<!-- Node112 -->
<g id="node3" class="node">
<title>Node112</title>
<g id="a_node3"><a xlink:href="classGazeboYarpPlugins_1_1Pose_1_1Editor.html" target="_top" xlink:title=" ">
<polygon fill="none" stroke="black" points="149,-223 149,-253 264,-253 264,-223 149,-223"/>
<text text-anchor="start" x="157" y="-241" font-family="FreeSans.ttf" font-size="10.00">GazeboYarpPlugins::</text>
<text text-anchor="middle" x="206.5" y="-230" font-family="FreeSans.ttf" font-size="10.00">Pose::Editor</text>
</a>
</g>
</g>
<!-- Node110&#45;&gt;Node112 -->
<g id="edge2" class="edge">
<title>Node110&#45;&gt;Node112</title>
<path fill="none" stroke="midnightblue" d="M121.07,-223.83C130.32,-225.39 139.79,-226.97 148.87,-228.5"/>
<polygon fill="midnightblue" stroke="midnightblue" points="121.58,-220.37 111.14,-222.17 120.42,-227.27 121.58,-220.37"/>
</g>
<!-- Node136 -->
<g id="node4" class="node">
<title>Node136</title>
<g id="a_node4"><a xlink:title=" ">
<polygon fill="none" stroke="#bfbfbf" points="13.5,-130.5 13.5,-149.5 97.5,-149.5 97.5,-130.5 13.5,-130.5"/>
<text text-anchor="middle" x="55.5" y="-137.5" font-family="FreeSans.ttf" font-size="10.00">yarp::os::Wire</text>
</a>
</g>
</g>
<!-- Node136&#45;&gt;Node0 -->
<g id="edge5" class="edge">
<title>Node136&#45;&gt;Node0</title>
<path fill="none" stroke="midnightblue" d="M95.18,-152.72C114.94,-159.22 139.1,-167.16 159.78,-173.96"/>
<polygon fill="midnightblue" stroke="midnightblue" points="96.18,-149.36 85.58,-149.56 93.99,-156.01 96.18,-149.36"/>
</g>
<!-- Node136&#45;&gt;Node112 -->
<g id="edge8" class="edge">
<title>Node136&#45;&gt;Node112</title>
<path fill="none" stroke="midnightblue" d="M73.98,-156.98C91.39,-173.21 119.43,-197.57 147,-214 152.47,-217.26 158.46,-220.27 164.46,-222.99"/>
<polygon fill="midnightblue" stroke="midnightblue" points="76,-154.07 66.34,-149.73 71.19,-159.15 76,-154.07"/>
</g>
<!-- Node137 -->
<g id="node5" class="node">
<title>Node137</title>
<g id="a_node5"><a xlink:href="classGazeboYarpPlugins_1_1ClockServer.html" target="_top" xlink:title=" ">
<polygon fill="none" stroke="black" points="149,-125 149,-155 264,-155 264,-125 149,-125"/>
<text text-anchor="start" x="157" y="-143" font-family="FreeSans.ttf" font-size="10.00">GazeboYarpPlugins::</text>
<text text-anchor="middle" x="206.5" y="-132" font-family="FreeSans.ttf" font-size="10.00">ClockServer</text>
</a>
</g>
</g>
<!-- Node136&#45;&gt;Node137 -->
<g id="edge3" class="edge">
<title>Node136&#45;&gt;Node137</title>
<path fill="none" stroke="midnightblue" d="M107.94,-140C121.16,-140 135.45,-140 148.91,-140"/>
<polygon fill="midnightblue" stroke="midnightblue" points="107.61,-136.5 97.61,-140 107.61,-143.5 107.61,-136.5"/>
</g>
<!-- Node139 -->
<g id="node7" class="node">
<title>Node139</title>
<g id="a_node7"><a xlink:href="classGazeboYarpPlugins_1_1LinkAttacherServer.html" target="_top" xlink:title=" ">
<polygon fill="none" stroke="black" points="149,-76 149,-106 264,-106 264,-76 149,-76"/>
<text text-anchor="start" x="157" y="-94" font-family="FreeSans.ttf" font-size="10.00">GazeboYarpPlugins::</text>
<text text-anchor="middle" x="206.5" y="-83" font-family="FreeSans.ttf" font-size="10.00">LinkAttacherServer</text>
</a>
</g>
</g>
<!-- Node136&#45;&gt;Node139 -->
<g id="edge6" class="edge">
<title>Node136&#45;&gt;Node139</title>
<path fill="none" stroke="midnightblue" d="M95.18,-127.28C114.94,-120.78 139.1,-112.84 159.78,-106.04"/>
<polygon fill="midnightblue" stroke="midnightblue" points="93.99,-123.99 85.58,-130.44 96.18,-130.64 93.99,-123.99"/>
</g>
<!-- Node141 -->
<g id="node9" class="node">
<title>Node141</title>
<g id="a_node9"><a xlink:href="classGazeboYarpPlugins_1_1WorldInterfaceServer.html" target="_top" xlink:title=" ">
<polygon fill="none" stroke="black" points="147,-27 147,-57 266,-57 266,-27 147,-27"/>
<text text-anchor="start" x="155" y="-45" font-family="FreeSans.ttf" font-size="10.00">GazeboYarpPlugins::</text>
<text text-anchor="middle" x="206.5" y="-34" font-family="FreeSans.ttf" font-size="10.00">WorldInterfaceServer</text>
</a>
</g>
</g>
<!-- Node136&#45;&gt;Node141 -->
<g id="edge9" class="edge">
<title>Node136&#45;&gt;Node141</title>
<path fill="none" stroke="midnightblue" d="M74.07,-123.36C91.55,-107.43 119.64,-83.45 147,-67 152.96,-63.41 159.53,-60.08 166.05,-57.09"/>
<polygon fill="midnightblue" stroke="midnightblue" points="71.36,-121.11 66.4,-130.47 76.11,-126.24 71.36,-121.11"/>
</g>
<!-- Node138 -->
<g id="node6" class="node">
<title>Node138</title>
<g id="a_node6"><a xlink:href="classGazeboYarpPlugins_1_1ClockServerImpl.html" target="_top" xlink:title=" ">
<polygon fill="none" stroke="black" points="315,-125 315,-155 430,-155 430,-125 315,-125"/>
<text text-anchor="start" x="323" y="-143" font-family="FreeSans.ttf" font-size="10.00">GazeboYarpPlugins::</text>
<text text-anchor="middle" x="372.5" y="-132" font-family="FreeSans.ttf" font-size="10.00">ClockServerImpl</text>
</a>
</g>
</g>
<!-- Node137&#45;&gt;Node138 -->
<g id="edge4" class="edge">
<title>Node137&#45;&gt;Node138</title>
<path fill="none" stroke="midnightblue" d="M274.54,-140C287.96,-140 301.95,-140 314.98,-140"/>
<polygon fill="midnightblue" stroke="midnightblue" points="274.4,-136.5 264.4,-140 274.4,-143.5 274.4,-136.5"/>
</g>
<!-- Node140 -->
<g id="node8" class="node">
<title>Node140</title>
<g id="a_node8"><a xlink:href="classLinkAttacherServerImpl.html" target="_top" xlink:title=" ">
<polygon fill="none" stroke="black" points="307,-81.5 307,-100.5 438,-100.5 438,-81.5 307,-81.5"/>
<text text-anchor="middle" x="372.5" y="-88.5" font-family="FreeSans.ttf" font-size="10.00">LinkAttacherServerImpl</text>
</a>
</g>
</g>
<!-- Node139&#45;&gt;Node140 -->
<g id="edge7" class="edge">
<title>Node139&#45;&gt;Node140</title>
<path fill="none" stroke="midnightblue" d="M274.5,-91C285.18,-91 296.21,-91 306.83,-91"/>
<polygon fill="midnightblue" stroke="midnightblue" points="274.4,-87.5 264.4,-91 274.4,-94.5 274.4,-87.5"/>
</g>
<!-- Node142 -->
<g id="node10" class="node">
<title>Node142</title>
<g id="a_node10"><a xlink:href="classWorldInterfaceServerImpl.html" target="_top" xlink:title=" ">
<polygon fill="none" stroke="black" points="302,-38.5 302,-57.5 443,-57.5 443,-38.5 302,-38.5"/>
<text text-anchor="middle" x="372.5" y="-45.5" font-family="FreeSans.ttf" font-size="10.00">WorldInterfaceServerImpl</text>
</a>
</g>
</g>
<!-- Node141&#45;&gt;Node142 -->
<g id="edge10" class="edge">
<title>Node141&#45;&gt;Node142</title>
<path fill="none" stroke="midnightblue" d="M276.43,-44.52C284.88,-44.83 293.52,-45.15 301.98,-45.46"/>
<polygon fill="midnightblue" stroke="midnightblue" points="276.37,-41.02 266.24,-44.15 276.11,-48.01 276.37,-41.02"/>
</g>
<!-- Node143 -->
<g id="node11" class="node">
<title>Node143</title>
<g id="a_node11"><a xlink:href="classWorldProxy.html" target="_top" xlink:title=" ">
<polygon fill="none" stroke="black" points="336.5,-0.5 336.5,-19.5 408.5,-19.5 408.5,-0.5 336.5,-0.5"/>
<text text-anchor="middle" x="372.5" y="-7.5" font-family="FreeSans.ttf" font-size="10.00">WorldProxy</text>
</a>
</g>
</g>
<!-- Node141&#45;&gt;Node143 -->
<g id="edge11" class="edge">
<title>Node141&#45;&gt;Node143</title>
<path fill="none" stroke="midnightblue" d="M276.23,-28.59C296.81,-24.57 318.54,-20.33 336.04,-16.92"/>
<polygon fill="midnightblue" stroke="midnightblue" points="275.39,-25.19 266.24,-30.54 276.73,-32.06 275.39,-25.19"/>
</g>
</g>
</svg>
