<?xml version="1.0" encoding="UTF-8" standalone="no"?>
<!DOCTYPE svg PUBLIC "-//W3C//DTD SVG 1.1//EN"
 "http://www.w3.org/Graphics/SVG/1.1/DTD/svg11.dtd">
<!-- Generated by graphviz version 3.0.0 (20220315.2325)
 -->
<!-- Title: Graphical Class Hierarchy Pages: 1 -->
<svg width="310pt" height="344pt"
 viewBox="0.00 0.00 310.00 344.00" xmlns="http://www.w3.org/2000/svg" xmlns:xlink="http://www.w3.org/1999/xlink">
<g id="graph0" class="graph" transform="scale(1 1) rotate(0) translate(4 340)">
<title>Graphical Class Hierarchy</title>
<!-- Node0 -->
<g id="node1" class="node">
<title>Node0</title>
<g id="a_node1"><a xlink:href="classBaseCouplingHandler.html" target="_top" xlink:title=" ">
<polygon fill="none" stroke="black" points="0,-152.5 0,-171.5 122,-171.5 122,-152.5 0,-152.5"/>
<text text-anchor="middle" x="61" y="-159.5" font-family="FreeSans.ttf" font-size="10.00">BaseCouplingHandler</text>
</a>
</g>
</g>
<!-- Node1 -->
<g id="node2" class="node">
<title>Node1</title>
<g id="a_node2"><a xlink:href="classCerHandCouplingHandler.html" target="_top" xlink:title=" ">
<polygon fill="none" stroke="black" points="160,-316.5 160,-335.5 300,-335.5 300,-316.5 160,-316.5"/>
<text text-anchor="middle" x="230" y="-323.5" font-family="FreeSans.ttf" font-size="10.00">CerHandCouplingHandler</text>
</a>
</g>
</g>
<!-- Node0&#45;&gt;Node1 -->
<g id="edge1" class="edge">
<title>Node0&#45;&gt;Node1</title>
<path fill="none" stroke="midnightblue" d="M69.2,-180.8C82.11,-211.94 112.2,-274.05 158,-307 163.39,-310.88 169.51,-313.96 175.86,-316.42"/>
<polygon fill="midnightblue" stroke="midnightblue" points="72.45,-179.5 65.48,-171.51 65.95,-182.1 72.45,-179.5"/>
</g>
<!-- Node2 -->
<g id="node3" class="node">
<title>Node2</title>
<g id="a_node3"><a xlink:href="classEyesCouplingHandler.html" target="_top" xlink:title=" ">
<polygon fill="none" stroke="black" points="169.5,-278.5 169.5,-297.5 290.5,-297.5 290.5,-278.5 169.5,-278.5"/>
<text text-anchor="middle" x="230" y="-285.5" font-family="FreeSans.ttf" font-size="10.00">EyesCouplingHandler</text>
</a>
</g>
</g>
<!-- Node0&#45;&gt;Node2 -->
<g id="edge2" class="edge">
<title>Node0&#45;&gt;Node2</title>
<path fill="none" stroke="midnightblue" d="M73.39,-180.22C89.34,-204.22 120.63,-246.06 158,-269 164.31,-272.87 171.4,-275.96 178.6,-278.43"/>
<polygon fill="midnightblue" stroke="midnightblue" points="76.24,-178.18 67.86,-171.69 70.36,-181.98 76.24,-178.18"/>
</g>
<!-- Node3 -->
<g id="node4" class="node">
<title>Node3</title>
<g id="a_node4"><a xlink:href="classFingersAbductionCouplingHandler.html" target="_top" xlink:title=" ">
<polygon fill="none" stroke="black" points="158.5,-229 158.5,-259 301.5,-259 301.5,-229 158.5,-229"/>
<text text-anchor="start" x="166.5" y="-247" font-family="FreeSans.ttf" font-size="10.00">FingersAbductionCoupling</text>
<text text-anchor="middle" x="230" y="-236" font-family="FreeSans.ttf" font-size="10.00">Handler</text>
</a>
</g>
</g>
<!-- Node0&#45;&gt;Node3 -->
<g id="edge3" class="edge">
<title>Node0&#45;&gt;Node3</title>
<path fill="none" stroke="midnightblue" d="M84.71,-177.22C103.73,-189.55 131.89,-206.8 158,-219 165.58,-222.54 173.8,-225.87 181.88,-228.88"/>
<polygon fill="midnightblue" stroke="midnightblue" points="86.43,-174.17 76.15,-171.61 82.59,-180.02 86.43,-174.17"/>
</g>
<!-- Node4 -->
<g id="node5" class="node">
<title>Node4</title>
<g id="a_node5"><a xlink:href="classHandMk3CouplingHandler.html" target="_top" xlink:title=" ">
<polygon fill="none" stroke="black" points="158,-190.5 158,-209.5 302,-209.5 302,-190.5 158,-190.5"/>
<text text-anchor="middle" x="230" y="-197.5" font-family="FreeSans.ttf" font-size="10.00">HandMk3CouplingHandler</text>
</a>
</g>
</g>
<!-- Node0&#45;&gt;Node4 -->
<g id="edge4" class="edge">
<title>Node0&#45;&gt;Node4</title>
<path fill="none" stroke="midnightblue" d="M113.96,-173.82C137.51,-179.18 164.97,-185.43 187.16,-190.48"/>
<polygon fill="midnightblue" stroke="midnightblue" points="114.67,-170.4 104.14,-171.59 113.12,-177.22 114.67,-170.4"/>
</g>
<!-- Node5 -->
<g id="node6" class="node">
<title>Node5</title>
<g id="a_node6"><a xlink:href="classHandMk4CouplingHandler.html" target="_top" xlink:title=" ">
<polygon fill="none" stroke="black" points="158,-152.5 158,-171.5 302,-171.5 302,-152.5 158,-152.5"/>
<text text-anchor="middle" x="230" y="-159.5" font-family="FreeSans.ttf" font-size="10.00">HandMk4CouplingHandler</text>
</a>
</g>
</g>
<!-- Node0&#45;&gt;Node5 -->
<g id="edge5" class="edge">
<title>Node0&#45;&gt;Node5</title>
<path fill="none" stroke="midnightblue" d="M132.48,-162C140.92,-162 149.54,-162 158,-162"/>
<polygon fill="midnightblue" stroke="midnightblue" points="132.29,-158.5 122.29,-162 132.29,-165.5 132.29,-158.5"/>
</g>
<!-- Node6 -->
<g id="node7" class="node">
<title>Node6</title>
<g id="a_node7"><a xlink:href="classIndexCouplingHandler.html" target="_top" xlink:title=" ">
<polygon fill="none" stroke="black" points="167.5,-114.5 167.5,-133.5 292.5,-133.5 292.5,-114.5 167.5,-114.5"/>
<text text-anchor="middle" x="230" y="-121.5" font-family="FreeSans.ttf" font-size="10.00">IndexCouplingHandler</text>
</a>
</g>
</g>
<!-- Node0&#45;&gt;Node6 -->
<g id="edge6" class="edge">
<title>Node0&#45;&gt;Node6</title>
<path fill="none" stroke="midnightblue" d="M113.96,-150.18C137.51,-144.82 164.97,-138.57 187.16,-133.52"/>
<polygon fill="midnightblue" stroke="midnightblue" points="113.12,-146.78 104.14,-152.41 114.67,-153.6 113.12,-146.78"/>
</g>
<!-- Node7 -->
<g id="node8" class="node">
<title>Node7</title>
<g id="a_node8"><a xlink:href="classMiddleCouplingHandler.html" target="_top" xlink:title=" ">
<polygon fill="none" stroke="black" points="164.5,-76.5 164.5,-95.5 295.5,-95.5 295.5,-76.5 164.5,-76.5"/>
<text text-anchor="middle" x="230" y="-83.5" font-family="FreeSans.ttf" font-size="10.00">MiddleCouplingHandler</text>
</a>
</g>
</g>
<!-- Node0&#45;&gt;Node7 -->
<g id="edge7" class="edge">
<title>Node0&#45;&gt;Node7</title>
<path fill="none" stroke="midnightblue" d="M83.82,-146.68C102.7,-134.01 131.14,-116.32 158,-105 166.7,-101.33 176.31,-98.2 185.56,-95.6"/>
<polygon fill="midnightblue" stroke="midnightblue" points="81.65,-143.92 75.36,-152.45 85.6,-149.7 81.65,-143.92"/>
</g>
<!-- Node8 -->
<g id="node9" class="node">
<title>Node8</title>
<g id="a_node9"><a xlink:href="classPinkyCouplingHandler.html" target="_top" xlink:title=" ">
<polygon fill="none" stroke="black" points="168,-38.5 168,-57.5 292,-57.5 292,-38.5 168,-38.5"/>
<text text-anchor="middle" x="230" y="-45.5" font-family="FreeSans.ttf" font-size="10.00">PinkyCouplingHandler</text>
</a>
</g>
</g>
<!-- Node0&#45;&gt;Node8 -->
<g id="edge8" class="edge">
<title>Node0&#45;&gt;Node8</title>
<path fill="none" stroke="midnightblue" d="M75.11,-144.28C91.93,-122.8 123.14,-87 158,-67 164.75,-63.13 172.32,-60.02 179.92,-57.54"/>
<polygon fill="midnightblue" stroke="midnightblue" points="72.29,-142.19 69,-152.26 77.85,-146.45 72.29,-142.19"/>
</g>
<!-- Node9 -->
<g id="node10" class="node">
<title>Node9</title>
<g id="a_node10"><a xlink:href="classThumbCouplingHandler.html" target="_top" xlink:title=" ">
<polygon fill="none" stroke="black" points="164.5,-0.5 164.5,-19.5 295.5,-19.5 295.5,-0.5 164.5,-0.5"/>
<text text-anchor="middle" x="230" y="-7.5" font-family="FreeSans.ttf" font-size="10.00">ThumbCouplingHandler</text>
</a>
</g>
</g>
<!-- Node0&#45;&gt;Node9 -->
<g id="edge9" class="edge">
<title>Node0&#45;&gt;Node9</title>
<path fill="none" stroke="midnightblue" d="M70.41,-143.12C84.35,-114.06 115,-58.64 158,-29 163.67,-25.09 170.11,-21.98 176.74,-19.52"/>
<polygon fill="midnightblue" stroke="midnightblue" points="67.23,-141.67 66.19,-152.21 73.58,-144.62 67.23,-141.67"/>
</g>
</g>
</svg>
