<?xml version="1.0" encoding="UTF-8" standalone="no"?>
<!DOCTYPE svg PUBLIC "-//W3C//DTD SVG 1.1//EN"
 "http://www.w3.org/Graphics/SVG/1.1/DTD/svg11.dtd">
<!-- Generated by graphviz version 3.0.0 (20220315.2325)
 -->
<!-- Title: Graphical Class Hierarchy Pages: 1 -->
<svg width="415pt" height="1231pt"
 viewBox="0.00 0.00 415.00 1230.50" xmlns="http://www.w3.org/2000/svg" xmlns:xlink="http://www.w3.org/1999/xlink">
<g id="graph0" class="graph" transform="scale(1 1) rotate(0) translate(4 1226.5)">
<title>Graphical Class Hierarchy</title>
<!-- Node0 -->
<g id="node1" class="node">
<title>Node0</title>
<g id="a_node1"><a xlink:title=" ">
<polygon fill="none" stroke="#bfbfbf" points="33,-962.5 33,-981.5 164,-981.5 164,-962.5 33,-962.5"/>
<text text-anchor="middle" x="98.5" y="-969.5" font-family="FreeSans.ttf" font-size="10.00">yarp::dev::DeviceDriver</text>
</a>
</g>
</g>
<!-- Node1 -->
<g id="node2" class="node">
<title>Node1</title>
<g id="a_node2"><a xlink:href="classyarp_1_1dev_1_1GazeboYarpBaseStateDriver.html" target="_top" xlink:title="YARP device driver to give the gazebo state information of a desired base link of the robot The state...">
<polygon fill="none" stroke="black" points="245.5,-1045 245.5,-1075 394.5,-1075 394.5,-1045 245.5,-1045"/>
<text text-anchor="start" x="253.5" y="-1063" font-family="FreeSans.ttf" font-size="10.00">yarp::dev::GazeboYarpBase</text>
<text text-anchor="middle" x="320" y="-1052" font-family="FreeSans.ttf" font-size="10.00">StateDriver</text>
</a>
</g>
</g>
<!-- Node0&#45;&gt;Node1 -->
<g id="edge1" class="edge">
<title>Node0&#45;&gt;Node1</title>
<path fill="none" stroke="midnightblue" d="M173.68,-981.57C181.87,-984.25 189.83,-987.66 197,-992 218.62,-1005.07 211.85,-1022.18 233,-1036 238.19,-1039.39 243.86,-1042.31 249.73,-1044.82"/>
<polygon fill="midnightblue" stroke="midnightblue" points="174.58,-978.19 164,-978.75 172.62,-984.91 174.58,-978.19"/>
</g>
<!-- Node5 -->
<g id="node3" class="node">
<title>Node5</title>
<g id="a_node3"><a xlink:href="classyarp_1_1dev_1_1GazeboYarpCameraDriver.html" target="_top" xlink:title=" ">
<polygon fill="none" stroke="black" points="238.5,-1143 238.5,-1173 401.5,-1173 401.5,-1143 238.5,-1143"/>
<text text-anchor="start" x="246.5" y="-1161" font-family="FreeSans.ttf" font-size="10.00">yarp::dev::GazeboYarpCamera</text>
<text text-anchor="middle" x="320" y="-1150" font-family="FreeSans.ttf" font-size="10.00">Driver</text>
</a>
</g>
</g>
<!-- Node0&#45;&gt;Node5 -->
<g id="edge2" class="edge">
<title>Node0&#45;&gt;Node5</title>
<path fill="none" stroke="midnightblue" d="M173.58,-977.81C182.24,-981.07 190.35,-985.65 197,-992 244.08,-1036.97 187.51,-1087.42 233,-1134 236.36,-1137.44 240.16,-1140.4 244.26,-1142.94"/>
<polygon fill="midnightblue" stroke="midnightblue" points="174.6,-974.46 164.01,-974.76 172.47,-981.13 174.6,-974.46"/>
</g>
<!-- Node3 -->
<g id="node4" class="node">
<title>Node3</title>
<g id="a_node4"><a xlink:href="classyarp_1_1dev_1_1GazeboYarpContactLoadCellArrayDriver.html" target="_top" xlink:title="YARP Device Driver for an array of contact load cells giving 1&#45;axis force at different locations.">
<polygon fill="none" stroke="black" points="239,-996 239,-1026 401,-1026 401,-996 239,-996"/>
<text text-anchor="start" x="247" y="-1014" font-family="FreeSans.ttf" font-size="10.00">yarp::dev::GazeboYarpContact</text>
<text text-anchor="middle" x="320" y="-1003" font-family="FreeSans.ttf" font-size="10.00">LoadCellArrayDriver</text>
</a>
</g>
</g>
<!-- Node0&#45;&gt;Node3 -->
<g id="edge3" class="edge">
<title>Node0&#45;&gt;Node3</title>
<path fill="none" stroke="midnightblue" d="M163.1,-983.3C186.76,-987.5 213.92,-992.33 238.87,-996.76"/>
<polygon fill="midnightblue" stroke="midnightblue" points="163.65,-979.84 153.2,-981.54 162.43,-986.74 163.65,-979.84"/>
</g>
<!-- Node20 -->
<g id="node5" class="node">
<title>Node20</title>
<g id="a_node5"><a xlink:href="classyarp_1_1dev_1_1GazeboYarpControlBoardDriver.html" target="_top" xlink:title=" ">
<polygon fill="none" stroke="black" points="240,-348 240,-378 400,-378 400,-348 240,-348"/>
<text text-anchor="start" x="248" y="-366" font-family="FreeSans.ttf" font-size="10.00">yarp::dev::GazeboYarpControl</text>
<text text-anchor="middle" x="320" y="-355" font-family="FreeSans.ttf" font-size="10.00">BoardDriver</text>
</a>
</g>
</g>
<!-- Node0&#45;&gt;Node20 -->
<g id="edge4" class="edge">
<title>Node0&#45;&gt;Node20</title>
<path fill="none" stroke="midnightblue" d="M173.88,-967.82C182.58,-964.52 190.61,-959.77 197,-953 237.66,-909.96 221.43,-747.07 233,-689 257.2,-567.59 300.11,-424.28 314.3,-378.12"/>
<polygon fill="midnightblue" stroke="midnightblue" points="172.73,-964.51 164.23,-970.85 174.82,-971.19 172.73,-964.51"/>
</g>
<!-- Node39 -->
<g id="node6" class="node">
<title>Node39</title>
<g id="a_node6"><a xlink:href="classyarp_1_1dev_1_1GazeboYarpDepthCameraDriver.html" target="_top" xlink:title=" ">
<polygon fill="none" stroke="black" points="243,-769 243,-799 397,-799 397,-769 243,-769"/>
<text text-anchor="start" x="251" y="-787" font-family="FreeSans.ttf" font-size="10.00">yarp::dev::GazeboYarpDepth</text>
<text text-anchor="middle" x="320" y="-776" font-family="FreeSans.ttf" font-size="10.00">CameraDriver</text>
</a>
</g>
</g>
<!-- Node0&#45;&gt;Node39 -->
<g id="edge5" class="edge">
<title>Node0&#45;&gt;Node39</title>
<path fill="none" stroke="midnightblue" d="M173.85,-966.14C182.3,-963.07 190.27,-958.82 197,-953 233.66,-921.26 204.58,-889.29 233,-850 248.44,-828.65 272.72,-810.91 291.54,-799.22"/>
<polygon fill="midnightblue" stroke="midnightblue" points="172.68,-962.84 164.16,-969.13 174.74,-969.53 172.68,-962.84"/>
</g>
<!-- Node22 -->
<g id="node7" class="node">
<title>Node22</title>
<g id="a_node7"><a xlink:href="classyarp_1_1dev_1_1GazeboYarpFakeControlBoardDriver.html" target="_top" xlink:title=" ">
<polygon fill="none" stroke="black" points="247,-299 247,-329 393,-329 393,-299 247,-299"/>
<text text-anchor="start" x="255" y="-317" font-family="FreeSans.ttf" font-size="10.00">yarp::dev::GazeboYarpFake</text>
<text text-anchor="middle" x="320" y="-306" font-family="FreeSans.ttf" font-size="10.00">ControlBoardDriver</text>
</a>
</g>
</g>
<!-- Node0&#45;&gt;Node22 -->
<g id="edge6" class="edge">
<title>Node0&#45;&gt;Node22</title>
<path fill="none" stroke="midnightblue" d="M173.85,-968.47C182.67,-965.1 190.75,-960.15 197,-953 287.11,-849.93 147.07,-444.57 233,-338 236.89,-333.17 241.67,-329.27 246.95,-326.12"/>
<polygon fill="midnightblue" stroke="midnightblue" points="172.53,-965.22 164.03,-971.54 174.62,-971.9 172.53,-965.22"/>
</g>
<!-- Node9 -->
<g id="node8" class="node">
<title>Node9</title>
<g id="a_node8"><a xlink:href="classyarp_1_1dev_1_1GazeboYarpForceTorqueDriver.html" target="_top" xlink:title="YARP Force Torque Driver for Gazebo.">
<polygon fill="none" stroke="black" points="244.5,-947 244.5,-977 395.5,-977 395.5,-947 244.5,-947"/>
<text text-anchor="start" x="252.5" y="-965" font-family="FreeSans.ttf" font-size="10.00">yarp::dev::GazeboYarpForce</text>
<text text-anchor="middle" x="320" y="-954" font-family="FreeSans.ttf" font-size="10.00">TorqueDriver</text>
</a>
</g>
</g>
<!-- Node0&#45;&gt;Node9 -->
<g id="edge7" class="edge">
<title>Node0&#45;&gt;Node9</title>
<path fill="none" stroke="midnightblue" d="M174.38,-968.59C196.98,-967.56 221.79,-966.43 244.37,-965.4"/>
<polygon fill="midnightblue" stroke="midnightblue" points="174,-965.1 164.17,-969.05 174.32,-972.09 174,-965.1"/>
</g>
<!-- Node11 -->
<g id="node9" class="node">
<title>Node11</title>
<g id="a_node9"><a xlink:href="classyarp_1_1dev_1_1GazeboYarpIMUDriver.html" target="_top" xlink:title=" ">
<polygon fill="none" stroke="black" points="233,-859.5 233,-878.5 407,-878.5 407,-859.5 233,-859.5"/>
<text text-anchor="middle" x="320" y="-866.5" font-family="FreeSans.ttf" font-size="10.00">yarp::dev::GazeboYarpIMUDriver</text>
</a>
</g>
</g>
<!-- Node0&#45;&gt;Node11 -->
<g id="edge8" class="edge">
<title>Node0&#45;&gt;Node11</title>
<path fill="none" stroke="midnightblue" d="M173.92,-964.63C182.16,-961.79 190.07,-958.01 197,-953 223.46,-933.89 206.89,-908.58 233,-889 238.76,-884.68 245.31,-881.27 252.16,-878.58"/>
<polygon fill="midnightblue" stroke="midnightblue" points="172.71,-961.34 164.13,-967.55 174.71,-968.04 172.71,-961.34"/>
</g>
<!-- Node17 -->
<g id="node10" class="node">
<title>Node17</title>
<g id="a_node10"><a xlink:href="classyarp_1_1dev_1_1GazeboYarpInertialMTBPartDriver.html" target="_top" xlink:title=" ">
<polygon fill="none" stroke="black" points="240.5,-1094 240.5,-1124 399.5,-1124 399.5,-1094 240.5,-1094"/>
<text text-anchor="start" x="248.5" y="-1112" font-family="FreeSans.ttf" font-size="10.00">yarp::dev::GazeboYarpInertial</text>
<text text-anchor="middle" x="320" y="-1101" font-family="FreeSans.ttf" font-size="10.00">MTBPartDriver</text>
</a>
</g>
</g>
<!-- Node0&#45;&gt;Node17 -->
<g id="edge9" class="edge">
<title>Node0&#45;&gt;Node17</title>
<path fill="none" stroke="midnightblue" d="M173.88,-978.95C182.28,-982.06 190.24,-986.29 197,-992 230.85,-1020.62 200.17,-1055.22 233,-1085 236.79,-1088.44 241.03,-1091.39 245.54,-1093.92"/>
<polygon fill="midnightblue" stroke="midnightblue" points="174.83,-975.58 164.24,-975.9 172.71,-982.25 174.83,-975.58"/>
</g>
<!-- Node41 -->
<g id="node11" class="node">
<title>Node41</title>
<g id="a_node11"><a xlink:href="classyarp_1_1dev_1_1GazeboYarpLaserSensorDriver.html" target="_top" xlink:title=" ">
<polygon fill="none" stroke="black" points="244.5,-699 244.5,-729 395.5,-729 395.5,-699 244.5,-699"/>
<text text-anchor="start" x="252.5" y="-717" font-family="FreeSans.ttf" font-size="10.00">yarp::dev::GazeboYarpLaser</text>
<text text-anchor="middle" x="320" y="-706" font-family="FreeSans.ttf" font-size="10.00">SensorDriver</text>
</a>
</g>
</g>
<!-- Node0&#45;&gt;Node41 -->
<g id="edge10" class="edge">
<title>Node0&#45;&gt;Node41</title>
<path fill="none" stroke="midnightblue" d="M173.76,-967.46C182.43,-964.21 190.49,-959.56 197,-953 258.45,-891.05 181.45,-830.4 233,-760 243,-746.34 258.31,-736.33 273.26,-729.21"/>
<polygon fill="midnightblue" stroke="midnightblue" points="172.65,-964.14 164.15,-970.46 174.73,-970.82 172.65,-964.14"/>
</g>
<!-- Node18 -->
<g id="node12" class="node">
<title>Node18</title>
<g id="a_node12"><a xlink:href="classyarp_1_1dev_1_1GazeboYarpMaisSensorDriver.html" target="_top" xlink:title=" ">
<polygon fill="none" stroke="black" points="246,-898 246,-928 394,-928 394,-898 246,-898"/>
<text text-anchor="start" x="254" y="-916" font-family="FreeSans.ttf" font-size="10.00">yarp::dev::GazeboYarpMais</text>
<text text-anchor="middle" x="320" y="-905" font-family="FreeSans.ttf" font-size="10.00">SensorDriver</text>
</a>
</g>
</g>
<!-- Node0&#45;&gt;Node18 -->
<g id="edge11" class="edge">
<title>Node0&#45;&gt;Node18</title>
<path fill="none" stroke="midnightblue" d="M168.49,-960.37C178.14,-958.21 187.87,-955.76 197,-953 213.59,-947.98 216.65,-943.76 233,-938 242.83,-934.54 253.4,-931.17 263.65,-928.1"/>
<polygon fill="midnightblue" stroke="midnightblue" points="167.54,-956.99 158.49,-962.5 169,-963.84 167.54,-956.99"/>
</g>
<!-- Node7 -->
<g id="node13" class="node">
<title>Node7</title>
<g id="a_node13"><a xlink:href="classyarp_1_1dev_1_1GazeboYarpMultiCameraDriver.html" target="_top" xlink:title=" ">
<polygon fill="none" stroke="black" points="245.5,-1192 245.5,-1222 394.5,-1222 394.5,-1192 245.5,-1192"/>
<text text-anchor="start" x="253.5" y="-1210" font-family="FreeSans.ttf" font-size="10.00">yarp::dev::GazeboYarpMulti</text>
<text text-anchor="middle" x="320" y="-1199" font-family="FreeSans.ttf" font-size="10.00">CameraDriver</text>
</a>
</g>
</g>
<!-- Node0&#45;&gt;Node7 -->
<g id="edge12" class="edge">
<title>Node0&#45;&gt;Node7</title>
<path fill="none" stroke="midnightblue" d="M173.78,-977.36C182.45,-980.68 190.5,-985.4 197,-992 257.59,-1053.57 174.59,-1119.35 233,-1183 236.56,-1186.88 240.7,-1190.16 245.19,-1192.92"/>
<polygon fill="midnightblue" stroke="midnightblue" points="174.76,-974 164.17,-974.27 172.62,-980.66 174.76,-974"/>
</g>
<!-- Node19 -->
<g id="node14" class="node">
<title>Node19</title>
<g id="a_node14"><a xlink:title=" ">
<polygon fill="none" stroke="#bfbfbf" points="47.5,-608.5 47.5,-627.5 149.5,-627.5 149.5,-608.5 47.5,-608.5"/>
<text text-anchor="middle" x="98.5" y="-615.5" font-family="FreeSans.ttf" font-size="10.00">DeviceResponder</text>
</a>
</g>
</g>
<!-- Node19&#45;&gt;Node20 -->
<g id="edge13" class="edge">
<title>Node19&#45;&gt;Node20</title>
<path fill="none" stroke="midnightblue" d="M159.7,-614.93C172.95,-611.99 186.22,-607.08 197,-599 274.14,-541.19 306.64,-420.48 315.97,-378.1"/>
<polygon fill="midnightblue" stroke="midnightblue" points="158.81,-611.53 149.62,-616.8 160.09,-618.41 158.81,-611.53"/>
</g>
<!-- Node19&#45;&gt;Node22 -->
<g id="edge14" class="edge">
<title>Node19&#45;&gt;Node22</title>
<path fill="none" stroke="midnightblue" d="M159.69,-617.89C173.63,-614.98 187.22,-609.33 197,-599 277.48,-513.94 155.98,-426.2 233,-338 236.98,-333.45 241.74,-329.72 246.95,-326.68"/>
<polygon fill="midnightblue" stroke="midnightblue" points="158.83,-614.48 149.52,-619.55 159.96,-621.39 158.83,-614.48"/>
</g>
<!-- Node19&#45;&gt;Node18 -->
<g id="edge15" class="edge">
<title>Node19&#45;&gt;Node18</title>
<path fill="none" stroke="midnightblue" d="M159.85,-618.19C173.72,-621.11 187.24,-626.74 197,-637 274.67,-718.66 159.1,-802.92 233,-888 236.67,-892.23 241.01,-895.76 245.76,-898.71"/>
<polygon fill="midnightblue" stroke="midnightblue" points="160.17,-614.7 149.74,-616.52 159.03,-621.6 160.17,-614.7"/>
</g>
<!-- Node21 -->
<g id="node15" class="node">
<title>Node21</title>
<g id="a_node15"><a xlink:title=" ">
<polygon fill="none" stroke="#bfbfbf" points="49,-456.5 49,-475.5 148,-475.5 148,-456.5 49,-456.5"/>
<text text-anchor="middle" x="98.5" y="-463.5" font-family="FreeSans.ttf" font-size="10.00">IAmplifierControl</text>
</a>
</g>
</g>
<!-- Node21&#45;&gt;Node20 -->
<g id="edge16" class="edge">
<title>Node21&#45;&gt;Node20</title>
<path fill="none" stroke="midnightblue" d="M158.14,-458.61C171.24,-455.86 184.84,-452.11 197,-447 238.02,-429.77 279.31,-397.47 301.78,-378.33"/>
<polygon fill="midnightblue" stroke="midnightblue" points="157.42,-455.19 148.26,-460.53 158.75,-462.06 157.42,-455.19"/>
</g>
<!-- Node21&#45;&gt;Node22 -->
<g id="edge17" class="edge">
<title>Node21&#45;&gt;Node22</title>
<path fill="none" stroke="midnightblue" d="M158.24,-464.65C172.27,-461.77 186.27,-456.45 197,-447 235.28,-413.28 196.09,-373.22 233,-338 237.15,-334.04 241.9,-330.72 246.98,-327.95"/>
<polygon fill="midnightblue" stroke="midnightblue" points="157.36,-461.25 148.07,-466.33 158.51,-468.15 157.36,-461.25"/>
</g>
<!-- Node2 -->
<g id="node16" class="node">
<title>Node2</title>
<g id="a_node16"><a xlink:title=" ">
<polygon fill="none" stroke="#bfbfbf" points="30,-1050.5 30,-1069.5 167,-1069.5 167,-1050.5 30,-1050.5"/>
<text text-anchor="middle" x="98.5" y="-1057.5" font-family="FreeSans.ttf" font-size="10.00">yarp::dev::IAnalogSensor</text>
</a>
</g>
</g>
<!-- Node2&#45;&gt;Node1 -->
<g id="edge18" class="edge">
<title>Node2&#45;&gt;Node1</title>
<path fill="none" stroke="midnightblue" d="M177.2,-1060C199.4,-1060 223.52,-1060 245.47,-1060"/>
<polygon fill="midnightblue" stroke="midnightblue" points="177.15,-1056.5 167.15,-1060 177.15,-1063.5 177.15,-1056.5"/>
</g>
<!-- Node2&#45;&gt;Node3 -->
<g id="edge19" class="edge">
<title>Node2&#45;&gt;Node3</title>
<path fill="none" stroke="midnightblue" d="M160.89,-1048.51C172.89,-1046.13 185.36,-1043.56 197,-1041 217.66,-1036.45 240.18,-1031.04 260.18,-1026.08"/>
<polygon fill="midnightblue" stroke="midnightblue" points="160.1,-1045.1 150.96,-1050.46 161.44,-1051.97 160.1,-1045.1"/>
</g>
<!-- Node2&#45;&gt;Node9 -->
<g id="edge20" class="edge">
<title>Node2&#45;&gt;Node9</title>
<path fill="none" stroke="midnightblue" d="M176.87,-1050.96C183.99,-1048.37 190.83,-1045.11 197,-1041 221.01,-1025.01 209.74,-1004.06 233,-987 238.27,-983.14 244.12,-979.87 250.22,-977.11"/>
<polygon fill="midnightblue" stroke="midnightblue" points="175.5,-1047.72 167.03,-1054.09 177.62,-1054.39 175.5,-1047.72"/>
</g>
<!-- Node2&#45;&gt;Node17 -->
<g id="edge21" class="edge">
<title>Node2&#45;&gt;Node17</title>
<path fill="none" stroke="midnightblue" d="M160.89,-1071.49C172.89,-1073.87 185.36,-1076.44 197,-1079 217.66,-1083.55 240.18,-1088.96 260.18,-1093.92"/>
<polygon fill="midnightblue" stroke="midnightblue" points="161.44,-1068.03 150.96,-1069.54 160.1,-1074.9 161.44,-1068.03"/>
</g>
<!-- Node2&#45;&gt;Node18 -->
<g id="edge22" class="edge">
<title>Node2&#45;&gt;Node18</title>
<path fill="none" stroke="midnightblue" d="M176.72,-1053.04C184.1,-1050.08 191.04,-1046.16 197,-1041 233.66,-1009.26 197.81,-971.36 233,-938 237.06,-934.15 241.68,-930.89 246.62,-928.12"/>
<polygon fill="midnightblue" stroke="midnightblue" points="175.51,-1049.76 167.18,-1056.3 177.78,-1056.38 175.51,-1049.76"/>
</g>
<!-- Node23 -->
<g id="node17" class="node">
<title>Node23</title>
<g id="a_node17"><a xlink:title=" ">
<polygon fill="none" stroke="#bfbfbf" points="69,-418.5 69,-437.5 128,-437.5 128,-418.5 69,-418.5"/>
<text text-anchor="middle" x="98.5" y="-425.5" font-family="FreeSans.ttf" font-size="10.00">IAxisInfo</text>
</a>
</g>
</g>
<!-- Node23&#45;&gt;Node20 -->
<g id="edge23" class="edge">
<title>Node23&#45;&gt;Node20</title>
<path fill="none" stroke="midnightblue" d="M138.26,-421.99C156.29,-418.8 177.91,-414.42 197,-409 226.83,-400.53 259.68,-387.96 283.76,-378.09"/>
<polygon fill="midnightblue" stroke="midnightblue" points="137.65,-418.54 128.38,-423.68 138.83,-425.44 137.65,-418.54"/>
</g>
<!-- Node23&#45;&gt;Node22 -->
<g id="edge24" class="edge">
<title>Node23&#45;&gt;Node22</title>
<path fill="none" stroke="midnightblue" d="M138.25,-428.22C157.58,-426.53 180.32,-421.6 197,-409 225.23,-387.67 205.64,-360.43 233,-338 237.2,-334.56 241.85,-331.61 246.76,-329.09"/>
<polygon fill="midnightblue" stroke="midnightblue" points="137.98,-424.73 128.22,-428.85 138.42,-431.72 137.98,-424.73"/>
</g>
<!-- Node24 -->
<g id="node18" class="node">
<title>Node24</title>
<g id="a_node18"><a xlink:title=" ">
<polygon fill="none" stroke="#bfbfbf" points="41.5,-380.5 41.5,-399.5 155.5,-399.5 155.5,-380.5 41.5,-380.5"/>
<text text-anchor="middle" x="98.5" y="-387.5" font-family="FreeSans.ttf" font-size="10.00">IControlCalibration2</text>
</a>
</g>
</g>
<!-- Node24&#45;&gt;Node20 -->
<g id="edge25" class="edge">
<title>Node24&#45;&gt;Node20</title>
<path fill="none" stroke="midnightblue" d="M165.85,-381.84C189.13,-378.98 215.5,-375.73 239.73,-372.75"/>
<polygon fill="midnightblue" stroke="midnightblue" points="165.24,-378.39 155.74,-383.08 166.09,-385.33 165.24,-378.39"/>
</g>
<!-- Node24&#45;&gt;Node22 -->
<g id="edge26" class="edge">
<title>Node24&#45;&gt;Node22</title>
<path fill="none" stroke="midnightblue" d="M165.57,-382.25C176.41,-379.55 187.27,-375.91 197,-371 216.38,-361.22 214.03,-348.54 233,-338 239.1,-334.61 245.71,-331.67 252.47,-329.13"/>
<polygon fill="midnightblue" stroke="midnightblue" points="164.64,-378.87 155.64,-384.48 166.17,-385.7 164.64,-378.87"/>
</g>
<!-- Node25 -->
<g id="node19" class="node">
<title>Node25</title>
<g id="a_node19"><a xlink:title=" ">
<polygon fill="none" stroke="#bfbfbf" points="56,-342.5 56,-361.5 141,-361.5 141,-342.5 56,-342.5"/>
<text text-anchor="middle" x="98.5" y="-349.5" font-family="FreeSans.ttf" font-size="10.00">IControlLimits</text>
</a>
</g>
</g>
<!-- Node25&#45;&gt;Node20 -->
<g id="edge27" class="edge">
<title>Node25&#45;&gt;Node20</title>
<path fill="none" stroke="midnightblue" d="M151.21,-354.59C177.63,-355.92 210.34,-357.55 239.85,-359.03"/>
<polygon fill="midnightblue" stroke="midnightblue" points="151.21,-351.09 141.04,-354.08 150.86,-358.08 151.21,-351.09"/>
</g>
<!-- Node25&#45;&gt;Node22 -->
<g id="edge28" class="edge">
<title>Node25&#45;&gt;Node22</title>
<path fill="none" stroke="midnightblue" d="M151.21,-343.05C179.76,-338.1 215.68,-331.89 246.95,-326.47"/>
<polygon fill="midnightblue" stroke="midnightblue" points="150.3,-339.65 141.04,-344.81 151.49,-346.55 150.3,-339.65"/>
</g>
<!-- Node26 -->
<g id="node20" class="node">
<title>Node26</title>
<g id="a_node20"><a xlink:title=" ">
<polygon fill="none" stroke="#bfbfbf" points="57.5,-304.5 57.5,-323.5 139.5,-323.5 139.5,-304.5 57.5,-304.5"/>
<text text-anchor="middle" x="98.5" y="-311.5" font-family="FreeSans.ttf" font-size="10.00">IControlMode</text>
</a>
</g>
</g>
<!-- Node26&#45;&gt;Node20 -->
<g id="edge29" class="edge">
<title>Node26&#45;&gt;Node20</title>
<path fill="none" stroke="midnightblue" d="M150.11,-323.38C165.22,-326.31 181.81,-329.65 197,-333 217.66,-337.55 240.18,-342.96 260.18,-347.92"/>
<polygon fill="midnightblue" stroke="midnightblue" points="150.39,-319.87 139.91,-321.42 149.07,-326.74 150.39,-319.87"/>
</g>
<!-- Node26&#45;&gt;Node22 -->
<g id="edge30" class="edge">
<title>Node26&#45;&gt;Node22</title>
<path fill="none" stroke="midnightblue" d="M149.72,-314C178.49,-314 215.07,-314 246.86,-314"/>
<polygon fill="midnightblue" stroke="midnightblue" points="149.5,-310.5 139.5,-314 149.5,-317.5 149.5,-310.5"/>
</g>
<!-- Node27 -->
<g id="node21" class="node">
<title>Node27</title>
<g id="a_node21"><a xlink:title=" ">
<polygon fill="none" stroke="#bfbfbf" points="53,-266.5 53,-285.5 144,-285.5 144,-266.5 53,-266.5"/>
<text text-anchor="middle" x="98.5" y="-273.5" font-family="FreeSans.ttf" font-size="10.00">ICurrentControl</text>
</a>
</g>
</g>
<!-- Node27&#45;&gt;Node20 -->
<g id="edge31" class="edge">
<title>Node27&#45;&gt;Node20</title>
<path fill="none" stroke="midnightblue" d="M154.42,-280.02C168.99,-282.83 184.21,-287.45 197,-295 218.47,-307.67 212.13,-324.38 233,-338 238.86,-341.82 245.32,-345.08 251.98,-347.84"/>
<polygon fill="midnightblue" stroke="midnightblue" points="154.92,-276.56 144.48,-278.36 153.76,-283.46 154.92,-276.56"/>
</g>
<!-- Node27&#45;&gt;Node22 -->
<g id="edge32" class="edge">
<title>Node27&#45;&gt;Node22</title>
<path fill="none" stroke="midnightblue" d="M154.18,-285.47C182.16,-290.31 216.59,-296.27 246.73,-301.49"/>
<polygon fill="midnightblue" stroke="midnightblue" points="154.63,-281.99 144.18,-283.74 153.44,-288.89 154.63,-281.99"/>
</g>
<!-- Node28 -->
<g id="node22" class="node">
<title>Node28</title>
<g id="a_node22"><a xlink:title=" ">
<polygon fill="none" stroke="#bfbfbf" points="51,-228.5 51,-247.5 146,-247.5 146,-228.5 51,-228.5"/>
<text text-anchor="middle" x="98.5" y="-235.5" font-family="FreeSans.ttf" font-size="10.00">IEncodersTimed</text>
</a>
</g>
</g>
<!-- Node28&#45;&gt;Node20 -->
<g id="edge33" class="edge">
<title>Node28&#45;&gt;Node20</title>
<path fill="none" stroke="midnightblue" d="M156.38,-239.85C170.82,-242.67 185.49,-247.83 197,-257 227.82,-281.54 203.32,-312.09 233,-338 237.45,-341.89 242.48,-345.17 247.8,-347.94"/>
<polygon fill="midnightblue" stroke="midnightblue" points="156.89,-236.39 146.46,-238.26 155.78,-243.3 156.89,-236.39"/>
</g>
<!-- Node28&#45;&gt;Node22 -->
<g id="edge34" class="edge">
<title>Node28&#45;&gt;Node22</title>
<path fill="none" stroke="midnightblue" d="M156.35,-246.65C169.84,-249.37 184.06,-252.79 197,-257 230.79,-268 267.46,-286.03 291.68,-298.87"/>
<polygon fill="midnightblue" stroke="midnightblue" points="156.7,-243.15 146.22,-244.71 155.38,-250.03 156.7,-243.15"/>
</g>
<!-- Node6 -->
<g id="node23" class="node">
<title>Node6</title>
<g id="a_node23"><a xlink:title=" ">
<polygon fill="none" stroke="#bfbfbf" points="28.5,-1146 28.5,-1176 168.5,-1176 168.5,-1146 28.5,-1146"/>
<text text-anchor="start" x="36.5" y="-1164" font-family="FreeSans.ttf" font-size="10.00">yarp::dev::IFrameGrabber</text>
<text text-anchor="middle" x="98.5" y="-1153" font-family="FreeSans.ttf" font-size="10.00">Image</text>
</a>
</g>
</g>
<!-- Node6&#45;&gt;Node5 -->
<g id="edge35" class="edge">
<title>Node6&#45;&gt;Node5</title>
<path fill="none" stroke="midnightblue" d="M178.65,-1159.92C198.05,-1159.65 218.84,-1159.37 238.31,-1159.1"/>
<polygon fill="midnightblue" stroke="midnightblue" points="178.6,-1156.42 168.65,-1160.05 178.7,-1163.42 178.6,-1156.42"/>
</g>
<!-- Node6&#45;&gt;Node7 -->
<g id="edge36" class="edge">
<title>Node6&#45;&gt;Node7</title>
<path fill="none" stroke="midnightblue" d="M178.47,-1177.55C200.9,-1182.25 225.19,-1187.34 247.17,-1191.95"/>
<polygon fill="midnightblue" stroke="midnightblue" points="179.16,-1174.12 168.65,-1175.49 177.72,-1180.97 179.16,-1174.12"/>
</g>
<!-- Node12 -->
<g id="node24" class="node">
<title>Node12</title>
<g id="a_node24"><a xlink:title=" ">
<polygon fill="none" stroke="#bfbfbf" points="28,-798.5 28,-817.5 169,-817.5 169,-798.5 28,-798.5"/>
<text text-anchor="middle" x="98.5" y="-805.5" font-family="FreeSans.ttf" font-size="10.00">yarp::dev::IGenericSensor</text>
</a>
</g>
</g>
<!-- Node12&#45;&gt;Node11 -->
<g id="edge37" class="edge">
<title>Node12&#45;&gt;Node11</title>
<path fill="none" stroke="midnightblue" d="M165.54,-819.58C176.12,-821.8 186.9,-824.29 197,-827 231.4,-836.23 270.13,-850.19 294.54,-859.45"/>
<polygon fill="midnightblue" stroke="midnightblue" points="165.99,-816.1 155.49,-817.53 164.59,-822.95 165.99,-816.1"/>
</g>
<!-- Node29 -->
<g id="node25" class="node">
<title>Node29</title>
<g id="a_node25"><a xlink:title=" ">
<polygon fill="none" stroke="#bfbfbf" points="44,-190.5 44,-209.5 153,-209.5 153,-190.5 44,-190.5"/>
<text text-anchor="middle" x="98.5" y="-197.5" font-family="FreeSans.ttf" font-size="10.00">IImpedanceControl</text>
</a>
</g>
</g>
<!-- Node29&#45;&gt;Node20 -->
<g id="edge38" class="edge">
<title>Node29&#45;&gt;Node20</title>
<path fill="none" stroke="midnightblue" d="M163.02,-202.21C175.46,-205.28 187.56,-210.47 197,-219 238,-256.04 193.72,-299.14 233,-338 236.87,-341.83 241.29,-345.08 246.03,-347.83"/>
<polygon fill="midnightblue" stroke="midnightblue" points="163.52,-198.74 153.02,-200.18 162.12,-205.6 163.52,-198.74"/>
</g>
<!-- Node29&#45;&gt;Node22 -->
<g id="edge39" class="edge">
<title>Node29&#45;&gt;Node22</title>
<path fill="none" stroke="midnightblue" d="M163.11,-207.92C174.69,-210.6 186.44,-214.19 197,-219 240.74,-238.9 282.96,-277.42 304.4,-298.79"/>
<polygon fill="midnightblue" stroke="midnightblue" points="163.52,-204.43 153.02,-205.78 162.08,-211.28 163.52,-204.43"/>
</g>
<!-- Node30 -->
<g id="node26" class="node">
<title>Node30</title>
<g id="a_node26"><a xlink:title=" ">
<polygon fill="none" stroke="#bfbfbf" points="49,-152.5 49,-171.5 148,-171.5 148,-152.5 49,-152.5"/>
<text text-anchor="middle" x="98.5" y="-159.5" font-family="FreeSans.ttf" font-size="10.00">IInteractionMode</text>
</a>
</g>
</g>
<!-- Node30&#45;&gt;Node20 -->
<g id="edge40" class="edge">
<title>Node30&#45;&gt;Node20</title>
<path fill="none" stroke="midnightblue" d="M158.46,-162.6C172.62,-165.46 186.63,-170.96 197,-181 248.45,-230.78 183.86,-285.94 233,-338 236.63,-341.84 240.81,-345.11 245.34,-347.88"/>
<polygon fill="midnightblue" stroke="midnightblue" points="158.6,-159.07 148.17,-160.95 157.49,-165.99 158.6,-159.07"/>
</g>
<!-- Node30&#45;&gt;Node22 -->
<g id="edge41" class="edge">
<title>Node30&#45;&gt;Node22</title>
<path fill="none" stroke="midnightblue" d="M158.29,-167.24C171.59,-170.09 185.25,-174.42 197,-181 249.49,-210.39 291.87,-270.51 309.78,-298.73"/>
<polygon fill="midnightblue" stroke="midnightblue" points="158.7,-163.76 148.22,-165.34 157.4,-170.63 158.7,-163.76"/>
</g>
<!-- Node13 -->
<g id="node27" class="node">
<title>Node13</title>
<g id="a_node27"><a xlink:title=" ">
<polygon fill="none" stroke="#bfbfbf" points="16.5,-760.5 16.5,-779.5 180.5,-779.5 180.5,-760.5 16.5,-760.5"/>
<text text-anchor="middle" x="98.5" y="-767.5" font-family="FreeSans.ttf" font-size="10.00">yarp::dev::IOrientationSensors</text>
</a>
</g>
</g>
<!-- Node13&#45;&gt;Node11 -->
<g id="edge42" class="edge">
<title>Node13&#45;&gt;Node11</title>
<path fill="none" stroke="midnightblue" d="M176.31,-782.02C183.41,-784.01 190.41,-786.32 197,-789 219.99,-798.35 279.29,-840.28 305.83,-859.42"/>
<polygon fill="midnightblue" stroke="midnightblue" points="177.15,-778.62 166.59,-779.5 175.39,-785.4 177.15,-778.62"/>
</g>
<!-- Node31 -->
<g id="node28" class="node">
<title>Node31</title>
<g id="a_node28"><a xlink:title=" ">
<polygon fill="none" stroke="#bfbfbf" points="63.5,-114.5 63.5,-133.5 133.5,-133.5 133.5,-114.5 63.5,-114.5"/>
<text text-anchor="middle" x="98.5" y="-121.5" font-family="FreeSans.ttf" font-size="10.00">IPidControl</text>
</a>
</g>
</g>
<!-- Node31&#45;&gt;Node20 -->
<g id="edge43" class="edge">
<title>Node31&#45;&gt;Node20</title>
<path fill="none" stroke="midnightblue" d="M143.91,-122.2C162.66,-123.82 183.28,-129.14 197,-143 259.01,-205.63 173.89,-272.64 233,-338 236.44,-341.81 240.43,-345.05 244.75,-347.8"/>
<polygon fill="midnightblue" stroke="midnightblue" points="143.92,-118.69 133.75,-121.64 143.54,-125.68 143.92,-118.69"/>
</g>
<!-- Node31&#45;&gt;Node22 -->
<g id="edge44" class="edge">
<title>Node31&#45;&gt;Node22</title>
<path fill="none" stroke="midnightblue" d="M143.96,-125.61C161.6,-127.98 181.36,-132.94 197,-143 258.49,-182.57 298.5,-265.05 312.95,-298.95"/>
<polygon fill="midnightblue" stroke="midnightblue" points="144.19,-122.12 133.87,-124.5 143.42,-129.08 144.19,-122.12"/>
</g>
<!-- Node32 -->
<g id="node29" class="node">
<title>Node32</title>
<g id="a_node29"><a xlink:title=" ">
<polygon fill="none" stroke="#bfbfbf" points="51.5,-76.5 51.5,-95.5 145.5,-95.5 145.5,-76.5 51.5,-76.5"/>
<text text-anchor="middle" x="98.5" y="-83.5" font-family="FreeSans.ttf" font-size="10.00">IPositionControl</text>
</a>
</g>
</g>
<!-- Node32&#45;&gt;Node20 -->
<g id="edge45" class="edge">
<title>Node32&#45;&gt;Node20</title>
<path fill="none" stroke="midnightblue" d="M155.63,-85.47C170.92,-88.11 186.21,-93.78 197,-105 269.63,-180.53 163.86,-259.26 233,-338 236.39,-341.86 240.33,-345.13 244.63,-347.92"/>
<polygon fill="midnightblue" stroke="midnightblue" points="156.01,-81.99 145.64,-84.15 155.09,-88.93 156.01,-81.99"/>
</g>
<!-- Node32&#45;&gt;Node22 -->
<g id="edge46" class="edge">
<title>Node32&#45;&gt;Node22</title>
<path fill="none" stroke="midnightblue" d="M155.73,-88.72C170.18,-91.53 185,-96.48 197,-105 267.57,-155.11 303.56,-259.91 314.93,-298.93"/>
<polygon fill="midnightblue" stroke="midnightblue" points="156.27,-85.26 145.84,-87.09 155.14,-92.17 156.27,-85.26"/>
</g>
<!-- Node33 -->
<g id="node30" class="node">
<title>Node33</title>
<g id="a_node30"><a xlink:title=" ">
<polygon fill="none" stroke="#bfbfbf" points="54.5,-38.5 54.5,-57.5 142.5,-57.5 142.5,-38.5 54.5,-38.5"/>
<text text-anchor="middle" x="98.5" y="-45.5" font-family="FreeSans.ttf" font-size="10.00">IPositionDirect</text>
</a>
</g>
</g>
<!-- Node33&#45;&gt;Node20 -->
<g id="edge47" class="edge">
<title>Node33&#45;&gt;Node20</title>
<path fill="none" stroke="midnightblue" d="M152.82,-46.86C169.08,-49.25 185.64,-54.94 197,-67 280.28,-155.47 153.8,-245.86 233,-338 236.34,-341.89 240.26,-345.19 244.53,-348"/>
<polygon fill="midnightblue" stroke="midnightblue" points="153.1,-43.37 142.78,-45.76 152.34,-50.33 153.1,-43.37"/>
</g>
<!-- Node33&#45;&gt;Node22 -->
<g id="edge48" class="edge">
<title>Node33&#45;&gt;Node22</title>
<path fill="none" stroke="midnightblue" d="M152.81,-49.56C168.3,-52.22 184.41,-57.38 197,-67 276.82,-127.96 307.78,-255.12 316.33,-298.85"/>
<polygon fill="midnightblue" stroke="midnightblue" points="153.16,-46.07 142.77,-48.14 152.19,-53 153.16,-46.07"/>
</g>
<!-- Node4 -->
<g id="node31" class="node">
<title>Node4</title>
<g id="a_node31"><a xlink:title=" ">
<polygon fill="none" stroke="#bfbfbf" points="25.5,-1088.5 25.5,-1107.5 171.5,-1107.5 171.5,-1088.5 25.5,-1088.5"/>
<text text-anchor="middle" x="98.5" y="-1095.5" font-family="FreeSans.ttf" font-size="10.00">yarp::dev::IPreciselyTimed</text>
</a>
</g>
</g>
<!-- Node4&#45;&gt;Node1 -->
<g id="edge49" class="edge">
<title>Node4&#45;&gt;Node1</title>
<path fill="none" stroke="midnightblue" d="M164.49,-1086.75C189.84,-1082.36 219.05,-1077.3 245.2,-1072.78"/>
<polygon fill="midnightblue" stroke="midnightblue" points="163.86,-1083.31 154.61,-1088.46 165.06,-1090.2 163.86,-1083.31"/>
</g>
<!-- Node4&#45;&gt;Node5 -->
<g id="edge50" class="edge">
<title>Node4&#45;&gt;Node5</title>
<path fill="none" stroke="midnightblue" d="M144.11,-1110.19C178.71,-1119.65 226.84,-1132.81 263.86,-1142.93"/>
<polygon fill="midnightblue" stroke="midnightblue" points="144.85,-1106.77 134.28,-1107.51 143,-1113.52 144.85,-1106.77"/>
</g>
<!-- Node4&#45;&gt;Node3 -->
<g id="edge51" class="edge">
<title>Node4&#45;&gt;Node3</title>
<path fill="none" stroke="midnightblue" d="M181.09,-1086.57C186.64,-1084.45 192,-1081.95 197,-1079 218.47,-1066.33 212.13,-1049.62 233,-1036 238.86,-1032.18 245.32,-1028.92 251.98,-1026.16"/>
<polygon fill="midnightblue" stroke="midnightblue" points="179.94,-1083.26 171.6,-1089.79 182.19,-1089.89 179.94,-1083.26"/>
</g>
<!-- Node4&#45;&gt;Node9 -->
<g id="edge52" class="edge">
<title>Node4&#45;&gt;Node9</title>
<path fill="none" stroke="midnightblue" d="M181.56,-1088.66C187.1,-1086.07 192.33,-1082.89 197,-1079 230.72,-1050.88 200.59,-1016.62 233,-987 237.25,-983.12 242.06,-979.84 247.19,-977.06"/>
<polygon fill="midnightblue" stroke="midnightblue" points="179.95,-1085.53 171.96,-1092.49 182.55,-1092.04 179.95,-1085.53"/>
</g>
<!-- Node4&#45;&gt;Node11 -->
<g id="edge53" class="edge">
<title>Node4&#45;&gt;Node11</title>
<path fill="none" stroke="midnightblue" d="M181.11,-1090.25C186.96,-1087.34 192.37,-1083.65 197,-1079 257.62,-1018.07 173.49,-951.01 233,-889 237.03,-884.8 241.76,-881.4 246.9,-878.67"/>
<polygon fill="midnightblue" stroke="midnightblue" points="179.48,-1087.14 171.59,-1094.21 182.17,-1093.6 179.48,-1087.14"/>
</g>
<!-- Node4&#45;&gt;Node17 -->
<g id="edge54" class="edge">
<title>Node4&#45;&gt;Node17</title>
<path fill="none" stroke="midnightblue" d="M181.87,-1102.13C201.02,-1103.09 221.36,-1104.11 240.35,-1105.06"/>
<polygon fill="midnightblue" stroke="midnightblue" points="181.84,-1098.62 171.68,-1101.62 181.49,-1105.61 181.84,-1098.62"/>
</g>
<!-- Node4&#45;&gt;Node7 -->
<g id="edge55" class="edge">
<title>Node4&#45;&gt;Node7</title>
<path fill="none" stroke="midnightblue" d="M145.93,-1110.95C163.02,-1117.11 181.88,-1125.66 197,-1137 217.77,-1152.58 211.42,-1168.57 233,-1183 238.15,-1186.45 243.8,-1189.4 249.65,-1191.94"/>
<polygon fill="midnightblue" stroke="midnightblue" points="146.71,-1107.51 136.11,-1107.59 144.44,-1114.14 146.71,-1107.51"/>
</g>
<!-- Node34 -->
<g id="node32" class="node">
<title>Node34</title>
<g id="a_node32"><a xlink:title=" ">
<polygon fill="none" stroke="#bfbfbf" points="58.5,-0.5 58.5,-19.5 138.5,-19.5 138.5,-0.5 58.5,-0.5"/>
<text text-anchor="middle" x="98.5" y="-7.5" font-family="FreeSans.ttf" font-size="10.00">IPWMControl</text>
</a>
</g>
</g>
<!-- Node34&#45;&gt;Node20 -->
<g id="edge56" class="edge">
<title>Node34&#45;&gt;Node20</title>
<path fill="none" stroke="midnightblue" d="M149.08,-8.24C166.56,-10.28 184.85,-15.89 197,-29 290.96,-130.43 143.72,-232.42 233,-338 236.21,-341.8 239.97,-345.04 244.07,-347.8"/>
<polygon fill="midnightblue" stroke="midnightblue" points="149.19,-4.74 138.94,-7.43 148.63,-11.72 149.19,-4.74"/>
</g>
<!-- Node34&#45;&gt;Node22 -->
<g id="edge57" class="edge">
<title>Node34&#45;&gt;Node22</title>
<path fill="none" stroke="midnightblue" d="M148.94,-10.48C165.7,-12.87 183.56,-18.14 197,-29 286.19,-101.03 311.42,-250.5 317.38,-298.68"/>
<polygon fill="midnightblue" stroke="midnightblue" points="149.03,-6.97 138.7,-9.34 148.25,-13.93 149.03,-6.97"/>
</g>
<!-- Node35 -->
<g id="node33" class="node">
<title>Node35</title>
<g id="a_node33"><a xlink:title=" ">
<polygon fill="none" stroke="#bfbfbf" points="47,-570.5 47,-589.5 150,-589.5 150,-570.5 47,-570.5"/>
<text text-anchor="middle" x="98.5" y="-577.5" font-family="FreeSans.ttf" font-size="10.00">IRemoteVariables</text>
</a>
</g>
</g>
<!-- Node35&#45;&gt;Node20 -->
<g id="edge58" class="edge">
<title>Node35&#45;&gt;Node20</title>
<path fill="none" stroke="midnightblue" d="M160.08,-576.15C173.08,-573.23 186.15,-568.51 197,-561 264.89,-514 302.17,-415.74 314.42,-378.11"/>
<polygon fill="midnightblue" stroke="midnightblue" points="159.36,-572.73 150.2,-578.05 160.68,-579.6 159.36,-572.73"/>
</g>
<!-- Node35&#45;&gt;Node22 -->
<g id="edge59" class="edge">
<title>Node35&#45;&gt;Node22</title>
<path fill="none" stroke="midnightblue" d="M160.13,-579.6C173.87,-576.66 187.25,-571.07 197,-561 266.83,-488.87 166.1,-412.85 233,-338 236.93,-333.61 241.58,-329.99 246.66,-327.02"/>
<polygon fill="midnightblue" stroke="midnightblue" points="159.4,-576.18 150.12,-581.3 160.57,-583.08 159.4,-576.18"/>
</g>
<!-- Node40 -->
<g id="node34" class="node">
<title>Node40</title>
<g id="a_node34"><a xlink:title=" ">
<polygon fill="none" stroke="#bfbfbf" points="32.5,-722.5 32.5,-741.5 164.5,-741.5 164.5,-722.5 32.5,-722.5"/>
<text text-anchor="middle" x="98.5" y="-729.5" font-family="FreeSans.ttf" font-size="10.00">yarp::dev::IRGBDSensor</text>
</a>
</g>
</g>
<!-- Node40&#45;&gt;Node39 -->
<g id="edge60" class="edge">
<title>Node40&#45;&gt;Node39</title>
<path fill="none" stroke="midnightblue" d="M162.11,-743.51C173.74,-745.84 185.76,-748.39 197,-751 219.98,-756.34 245.17,-763.01 266.66,-768.96"/>
<polygon fill="midnightblue" stroke="midnightblue" points="162.51,-740.02 152.02,-741.52 161.15,-746.89 162.51,-740.02"/>
</g>
<!-- Node8 -->
<g id="node35" class="node">
<title>Node8</title>
<g id="a_node35"><a xlink:title=" ">
<polygon fill="none" stroke="#bfbfbf" points="21,-1197.5 21,-1216.5 176,-1216.5 176,-1197.5 21,-1197.5"/>
<text text-anchor="middle" x="98.5" y="-1204.5" font-family="FreeSans.ttf" font-size="10.00">yarp::dev::IRgbVisualParams</text>
</a>
</g>
</g>
<!-- Node8&#45;&gt;Node7 -->
<g id="edge61" class="edge">
<title>Node8&#45;&gt;Node7</title>
<path fill="none" stroke="midnightblue" d="M186.35,-1207C205.84,-1207 226.33,-1207 245.23,-1207"/>
<polygon fill="midnightblue" stroke="midnightblue" points="186.27,-1203.5 176.27,-1207 186.27,-1210.5 186.27,-1203.5"/>
</g>
<!-- Node10 -->
<g id="node36" class="node">
<title>Node10</title>
<g id="a_node36"><a xlink:title=" ">
<polygon fill="none" stroke="#bfbfbf" points="32,-1001 32,-1031 165,-1031 165,-1001 32,-1001"/>
<text text-anchor="start" x="40" y="-1019" font-family="FreeSans.ttf" font-size="10.00">yarp::dev::ISixAxisForce</text>
<text text-anchor="middle" x="98.5" y="-1008" font-family="FreeSans.ttf" font-size="10.00">TorqueSensors</text>
</a>
</g>
</g>
<!-- Node10&#45;&gt;Node9 -->
<g id="edge62" class="edge">
<title>Node10&#45;&gt;Node9</title>
<path fill="none" stroke="midnightblue" d="M170.43,-998.55C198.59,-991.62 230.68,-983.73 257.8,-977.05"/>
<polygon fill="midnightblue" stroke="midnightblue" points="169.52,-995.17 160.64,-1000.96 171.19,-1001.97 169.52,-995.17"/>
</g>
<!-- Node14 -->
<g id="node37" class="node">
<title>Node14</title>
<g id="a_node37"><a xlink:title=" ">
<polygon fill="none" stroke="#bfbfbf" points="10.5,-924.5 10.5,-943.5 186.5,-943.5 186.5,-924.5 10.5,-924.5"/>
<text text-anchor="middle" x="98.5" y="-931.5" font-family="FreeSans.ttf" font-size="10.00">yarp::dev::IThreeAxisGyroscopes</text>
</a>
</g>
</g>
<!-- Node14&#45;&gt;Node11 -->
<g id="edge63" class="edge">
<title>Node14&#45;&gt;Node11</title>
<path fill="none" stroke="midnightblue" d="M177.96,-921.85C184.51,-919.89 190.94,-917.63 197,-915 215.11,-907.15 215.04,-897.17 233,-889 242.49,-884.68 253,-881.25 263.33,-878.53"/>
<polygon fill="midnightblue" stroke="midnightblue" points="177.02,-918.47 168.3,-924.49 178.87,-925.23 177.02,-918.47"/>
</g>
<!-- Node15 -->
<g id="node38" class="node">
<title>Node15</title>
<g id="a_node38"><a xlink:title=" ">
<polygon fill="none" stroke="#bfbfbf" points="24,-875 24,-905 173,-905 173,-875 24,-875"/>
<text text-anchor="start" x="32" y="-893" font-family="FreeSans.ttf" font-size="10.00">yarp::dev::IThreeAxisLinear</text>
<text text-anchor="middle" x="98.5" y="-882" font-family="FreeSans.ttf" font-size="10.00">Accelerometers</text>
</a>
</g>
</g>
<!-- Node15&#45;&gt;Node11 -->
<g id="edge64" class="edge">
<title>Node15&#45;&gt;Node11</title>
<path fill="none" stroke="midnightblue" d="M183.22,-881.99C199.51,-880.43 216.61,-878.8 232.97,-877.23"/>
<polygon fill="midnightblue" stroke="midnightblue" points="182.82,-878.51 173.2,-882.95 183.49,-885.48 182.82,-878.51"/>
</g>
<!-- Node16 -->
<g id="node39" class="node">
<title>Node16</title>
<g id="a_node39"><a xlink:title=" ">
<polygon fill="none" stroke="#bfbfbf" points="0,-836.5 0,-855.5 197,-855.5 197,-836.5 0,-836.5"/>
<text text-anchor="middle" x="98.5" y="-843.5" font-family="FreeSans.ttf" font-size="10.00">yarp::dev::IThreeAxisMagnetometers</text>
</a>
</g>
</g>
<!-- Node16&#45;&gt;Node11 -->
<g id="edge65" class="edge">
<title>Node16&#45;&gt;Node11</title>
<path fill="none" stroke="midnightblue" d="M200.62,-856.6C211.37,-857.72 222.23,-858.86 232.79,-859.97"/>
<polygon fill="midnightblue" stroke="midnightblue" points="200.67,-853.08 190.36,-855.52 199.94,-860.04 200.67,-853.08"/>
</g>
<!-- Node36 -->
<g id="node40" class="node">
<title>Node36</title>
<g id="a_node40"><a xlink:title=" ">
<polygon fill="none" stroke="#bfbfbf" points="55,-532.5 55,-551.5 142,-551.5 142,-532.5 55,-532.5"/>
<text text-anchor="middle" x="98.5" y="-539.5" font-family="FreeSans.ttf" font-size="10.00">ITorqueControl</text>
</a>
</g>
</g>
<!-- Node36&#45;&gt;Node20 -->
<g id="edge66" class="edge">
<title>Node36&#45;&gt;Node20</title>
<path fill="none" stroke="midnightblue" d="M152.16,-538.82C167.48,-536.08 183.66,-531.29 197,-523 255.75,-486.5 296.6,-410.75 312.1,-378.3"/>
<polygon fill="midnightblue" stroke="midnightblue" points="151.61,-535.36 142.26,-540.34 152.67,-542.28 151.61,-535.36"/>
</g>
<!-- Node36&#45;&gt;Node22 -->
<g id="edge67" class="edge">
<title>Node36&#45;&gt;Node22</title>
<path fill="none" stroke="midnightblue" d="M152.4,-542.74C168.64,-540.31 185.29,-534.72 197,-523 256.22,-463.76 176.18,-399.55 233,-338 237,-333.67 241.7,-330.1 246.81,-327.15"/>
<polygon fill="midnightblue" stroke="midnightblue" points="151.94,-539.27 142.4,-543.86 152.72,-546.22 151.94,-539.27"/>
</g>
<!-- Node37 -->
<g id="node41" class="node">
<title>Node37</title>
<g id="a_node41"><a xlink:title=" ">
<polygon fill="none" stroke="#bfbfbf" points="51.5,-494.5 51.5,-513.5 145.5,-513.5 145.5,-494.5 51.5,-494.5"/>
<text text-anchor="middle" x="98.5" y="-501.5" font-family="FreeSans.ttf" font-size="10.00">IVelocityControl</text>
</a>
</g>
</g>
<!-- Node37&#45;&gt;Node20 -->
<g id="edge68" class="edge">
<title>Node37&#45;&gt;Node20</title>
<path fill="none" stroke="midnightblue" d="M155.65,-498.9C169.71,-496.07 184.38,-491.71 197,-485 246.98,-458.41 289.66,-404.58 308.57,-378.23"/>
<polygon fill="midnightblue" stroke="midnightblue" points="154.78,-495.49 145.55,-500.69 156,-502.39 154.78,-495.49"/>
</g>
<!-- Node37&#45;&gt;Node22 -->
<g id="edge69" class="edge">
<title>Node37&#45;&gt;Node22</title>
<path fill="none" stroke="midnightblue" d="M155.88,-503.77C170.87,-501.06 185.95,-495.54 197,-485 245.68,-438.59 186.2,-386.32 233,-338 236.99,-333.88 241.62,-330.45 246.63,-327.6"/>
<polygon fill="midnightblue" stroke="midnightblue" points="154.98,-500.37 145.57,-505.23 155.96,-507.3 154.98,-500.37"/>
</g>
<!-- Node38 -->
<g id="node42" class="node">
<title>Node38</title>
<g id="a_node42"><a xlink:title=" ">
<polygon fill="none" stroke="#bfbfbf" points="39,-646.5 39,-665.5 158,-665.5 158,-646.5 39,-646.5"/>
<text text-anchor="middle" x="98.5" y="-653.5" font-family="FreeSans.ttf" font-size="10.00">IVirtualAnalogSensor</text>
</a>
</g>
</g>
<!-- Node38&#45;&gt;Node20 -->
<g id="edge70" class="edge">
<title>Node38&#45;&gt;Node20</title>
<path fill="none" stroke="midnightblue" d="M167.81,-651.39C178.35,-648.32 188.53,-643.74 197,-637 283.58,-568.1 310.49,-424.79 317.13,-378.08"/>
<polygon fill="midnightblue" stroke="midnightblue" points="166.93,-648 158.06,-653.8 168.61,-654.8 166.93,-648"/>
</g>
<!-- Node42 -->
<g id="node43" class="node">
<title>Node42</title>
<g id="a_node43"><a xlink:title=" ">
<polygon fill="none" stroke="#bfbfbf" points="17,-684.5 17,-703.5 180,-703.5 180,-684.5 17,-684.5"/>
<text text-anchor="middle" x="98.5" y="-691.5" font-family="FreeSans.ttf" font-size="10.00">yarp::dev::Lidar2DDeviceBase</text>
</a>
</g>
</g>
<!-- Node42&#45;&gt;Node41 -->
<g id="edge71" class="edge">
<title>Node42&#45;&gt;Node41</title>
<path fill="none" stroke="midnightblue" d="M190.69,-702.31C208.51,-703.93 226.99,-705.62 244.19,-707.18"/>
<polygon fill="midnightblue" stroke="midnightblue" points="190.57,-698.78 180.3,-701.36 189.94,-705.76 190.57,-698.78"/>
</g>
</g>
</svg>
