<?xml version="1.0" encoding="UTF-8" standalone="no"?>
<!DOCTYPE svg PUBLIC "-//W3C//DTD SVG 1.1//EN"
 "http://www.w3.org/Graphics/SVG/1.1/DTD/svg11.dtd">
<!-- Generated by graphviz version 2.43.0 (0)
 -->
<!-- Title: JointSensorsDriver.h Pages: 1 -->
<svg width="1054pt" height="84pt"
 viewBox="0.00 0.00 1053.50 84.00" xmlns="http://www.w3.org/2000/svg" xmlns:xlink="http://www.w3.org/1999/xlink">
<g id="graph0" class="graph" transform="scale(1 1) rotate(0) translate(4 80)">
<title>JointSensorsDriver.h</title>
<!-- Node1 -->
<g id="node1" class="node">
<title>Node1</title>
<g id="a_node1"><a xlink:title=" ">
<polygon fill="#bfbfbf" stroke="black" points="441.5,-56.5 441.5,-75.5 556.5,-75.5 556.5,-56.5 441.5,-56.5"/>
<text text-anchor="middle" x="499" y="-63.5" font-family="FreeSans.ttf" font-size="10.00">JointSensorsDriver.h</text>
</a>
</g>
</g>
<!-- Node2 -->
<g id="node2" class="node">
<title>Node2</title>
<g id="a_node2"><a xlink:title=" ">
<polygon fill="none" stroke="#bfbfbf" points="0,-0.5 0,-19.5 134,-19.5 134,-0.5 0,-0.5"/>
<text text-anchor="middle" x="67" y="-7.5" font-family="FreeSans.ttf" font-size="10.00">yarp/dev/DeviceDriver.h</text>
</a>
</g>
</g>
<!-- Node1&#45;&gt;Node2 -->
<g id="edge1" class="edge">
<title>Node1&#45;&gt;Node2</title>
<path fill="none" stroke="midnightblue" d="M441.19,-57.77C364.63,-48.2 229.4,-31.3 144.18,-20.65"/>
<polygon fill="midnightblue" stroke="midnightblue" points="144.4,-17.15 134.04,-19.38 143.53,-24.09 144.4,-17.15"/>
</g>
<!-- Node3 -->
<g id="node3" class="node">
<title>Node3</title>
<g id="a_node3"><a xlink:title=" ">
<polygon fill="none" stroke="#bfbfbf" points="152,-0.5 152,-19.5 292,-19.5 292,-0.5 152,-0.5"/>
<text text-anchor="middle" x="222" y="-7.5" font-family="FreeSans.ttf" font-size="10.00">yarp/dev/IAnalogSensor.h</text>
</a>
</g>
</g>
<!-- Node1&#45;&gt;Node3 -->
<g id="edge2" class="edge">
<title>Node1&#45;&gt;Node3</title>
<path fill="none" stroke="midnightblue" d="M455.11,-56.44C406.48,-46.96 328.05,-31.67 275.78,-21.48"/>
<polygon fill="midnightblue" stroke="midnightblue" points="276.17,-17.99 265.69,-19.52 274.83,-24.87 276.17,-17.99"/>
</g>
<!-- Node4 -->
<g id="node4" class="node">
<title>Node4</title>
<g id="a_node4"><a xlink:title=" ">
<polygon fill="none" stroke="#bfbfbf" points="310,-0.5 310,-19.5 406,-19.5 406,-0.5 310,-0.5"/>
<text text-anchor="middle" x="358" y="-7.5" font-family="FreeSans.ttf" font-size="10.00">yarp/os/Stamp.h</text>
</a>
</g>
</g>
<!-- Node1&#45;&gt;Node4 -->
<g id="edge3" class="edge">
<title>Node1&#45;&gt;Node4</title>
<path fill="none" stroke="midnightblue" d="M476.66,-56.44C453.25,-47.48 416.26,-33.31 389.81,-23.18"/>
<polygon fill="midnightblue" stroke="midnightblue" points="390.83,-19.82 380.24,-19.52 388.32,-26.36 390.83,-19.82"/>
</g>
<!-- Node5 -->
<g id="node5" class="node">
<title>Node5</title>
<g id="a_node5"><a xlink:title=" ">
<polygon fill="none" stroke="#bfbfbf" points="424.5,-0.5 424.5,-19.5 573.5,-19.5 573.5,-0.5 424.5,-0.5"/>
<text text-anchor="middle" x="499" y="-7.5" font-family="FreeSans.ttf" font-size="10.00">yarp/dev/IPreciselyTimed.h</text>
</a>
</g>
</g>
<!-- Node1&#45;&gt;Node5 -->
<g id="edge4" class="edge">
<title>Node1&#45;&gt;Node5</title>
<path fill="none" stroke="midnightblue" d="M499,-56.08C499,-49.01 499,-38.86 499,-29.99"/>
<polygon fill="midnightblue" stroke="midnightblue" points="502.5,-29.75 499,-19.75 495.5,-29.75 502.5,-29.75"/>
</g>
<!-- Node6 -->
<g id="node6" class="node">
<title>Node6</title>
<g id="a_node6"><a xlink:title=" ">
<polygon fill="none" stroke="#bfbfbf" points="592,-0.5 592,-19.5 738,-19.5 738,-0.5 592,-0.5"/>
<text text-anchor="middle" x="665" y="-7.5" font-family="FreeSans.ttf" font-size="10.00">gazebo/common/Plugin.hh</text>
</a>
</g>
</g>
<!-- Node1&#45;&gt;Node6 -->
<g id="edge5" class="edge">
<title>Node1&#45;&gt;Node6</title>
<path fill="none" stroke="midnightblue" d="M525.3,-56.44C553.35,-47.32 597.94,-32.81 629.18,-22.65"/>
<polygon fill="midnightblue" stroke="midnightblue" points="630.39,-25.94 638.82,-19.52 628.23,-19.28 630.39,-25.94"/>
</g>
<!-- Node7 -->
<g id="node7" class="node">
<title>Node7</title>
<g id="a_node7"><a xlink:title=" ">
<polygon fill="none" stroke="#bfbfbf" points="756,-0.5 756,-19.5 896,-19.5 896,-0.5 756,-0.5"/>
<text text-anchor="middle" x="826" y="-7.5" font-family="FreeSans.ttf" font-size="10.00">gazebo/physics/Model.hh</text>
</a>
</g>
</g>
<!-- Node1&#45;&gt;Node7 -->
<g id="edge6" class="edge">
<title>Node1&#45;&gt;Node7</title>
<path fill="none" stroke="midnightblue" d="M550.81,-56.44C608.82,-46.87 702.74,-31.36 764.44,-21.17"/>
<polygon fill="midnightblue" stroke="midnightblue" points="765.13,-24.6 774.43,-19.52 763.99,-17.69 765.13,-24.6"/>
</g>
<!-- Node8 -->
<g id="node8" class="node">
<title>Node8</title>
<g id="a_node8"><a xlink:title=" ">
<polygon fill="none" stroke="#bfbfbf" points="914.5,-0.5 914.5,-19.5 1045.5,-19.5 1045.5,-0.5 914.5,-0.5"/>
<text text-anchor="middle" x="980" y="-7.5" font-family="FreeSans.ttf" font-size="10.00">gazebo/physics/Joint.hh</text>
</a>
</g>
</g>
<!-- Node1&#45;&gt;Node8 -->
<g id="edge7" class="edge">
<title>Node1&#45;&gt;Node8</title>
<path fill="none" stroke="midnightblue" d="M556.5,-58.79C633.2,-50.48 773.48,-35.14 903.98,-20.11"/>
<polygon fill="midnightblue" stroke="midnightblue" points="904.62,-23.56 914.15,-18.94 903.82,-16.6 904.62,-23.56"/>
</g>
</g>
</svg>
