<?xml version="1.0" encoding="UTF-8" standalone="no"?>
<!DOCTYPE svg PUBLIC "-//W3C//DTD SVG 1.1//EN"
 "http://www.w3.org/Graphics/SVG/1.1/DTD/svg11.dtd">
<!-- Generated by graphviz version 2.43.0 (0)
 -->
<!-- Title: JointSensors.cc Pages: 1 -->
<svg width="2306pt" height="140pt"
 viewBox="0.00 0.00 2306.00 140.00" xmlns="http://www.w3.org/2000/svg" xmlns:xlink="http://www.w3.org/1999/xlink">
<g id="graph0" class="graph" transform="scale(1 1) rotate(0) translate(4 136)">
<title>JointSensors.cc</title>
<!-- Node1 -->
<g id="node1" class="node">
<title>Node1</title>
<g id="a_node1"><a xlink:title=" ">
<polygon fill="#bfbfbf" stroke="black" points="1565.5,-112.5 1565.5,-131.5 1655.5,-131.5 1655.5,-112.5 1565.5,-112.5"/>
<text text-anchor="middle" x="1610.5" y="-119.5" font-family="FreeSans.ttf" font-size="10.00">JointSensors.cc</text>
</a>
</g>
</g>
<!-- Node2 -->
<g id="node2" class="node">
<title>Node2</title>
<g id="a_node2"><a xlink:href="JointSensorsDriver_8h.html" target="_top" xlink:title=" ">
<polygon fill="none" stroke="black" points="563,-56.5 563,-75.5 678,-75.5 678,-56.5 563,-56.5"/>
<text text-anchor="middle" x="620.5" y="-63.5" font-family="FreeSans.ttf" font-size="10.00">JointSensorsDriver.h</text>
</a>
</g>
</g>
<!-- Node1&#45;&gt;Node2 -->
<g id="edge1" class="edge">
<title>Node1&#45;&gt;Node2</title>
<path fill="none" stroke="midnightblue" d="M1565.39,-118.54C1407.25,-109.91 877.4,-81.01 688.28,-70.7"/>
<polygon fill="midnightblue" stroke="midnightblue" points="688.37,-67.2 678.2,-70.15 687.99,-74.19 688.37,-67.2"/>
</g>
<!-- Node10 -->
<g id="node10" class="node">
<title>Node10</title>
<g id="a_node10"><a xlink:href="JointSensors_8hh.html" target="_top" xlink:title=" ">
<polygon fill="none" stroke="black" points="1052.5,-56.5 1052.5,-75.5 1144.5,-75.5 1144.5,-56.5 1052.5,-56.5"/>
<text text-anchor="middle" x="1098.5" y="-63.5" font-family="FreeSans.ttf" font-size="10.00">JointSensors.hh</text>
</a>
</g>
</g>
<!-- Node1&#45;&gt;Node10 -->
<g id="edge9" class="edge">
<title>Node1&#45;&gt;Node10</title>
<path fill="none" stroke="midnightblue" d="M1565.49,-116.86C1485.39,-109.38 1312.83,-92.86 1167.5,-76 1163.31,-75.51 1158.99,-74.99 1154.64,-74.46"/>
<polygon fill="midnightblue" stroke="midnightblue" points="1154.86,-70.96 1144.5,-73.19 1153.99,-77.9 1154.86,-70.96"/>
</g>
<!-- Node13 -->
<g id="node13" class="node">
<title>Node13</title>
<g id="a_node13"><a xlink:href="Handler_8hh.html" target="_top" xlink:title=" ">
<polygon fill="none" stroke="black" points="1358.5,-56.5 1358.5,-75.5 1522.5,-75.5 1522.5,-56.5 1358.5,-56.5"/>
<text text-anchor="middle" x="1440.5" y="-63.5" font-family="FreeSans.ttf" font-size="10.00">GazeboYarpPlugins/Handler.hh</text>
</a>
</g>
</g>
<!-- Node1&#45;&gt;Node13 -->
<g id="edge13" class="edge">
<title>Node1&#45;&gt;Node13</title>
<path fill="none" stroke="midnightblue" d="M1583.56,-112.44C1554.84,-103.32 1509.17,-88.81 1477.18,-78.65"/>
<polygon fill="midnightblue" stroke="midnightblue" points="1477.9,-75.21 1467.31,-75.52 1475.78,-81.88 1477.9,-75.21"/>
</g>
<!-- Node18 -->
<g id="node18" class="node">
<title>Node18</title>
<g id="a_node18"><a xlink:title=" ">
<polygon fill="none" stroke="#bfbfbf" points="1471.5,-0.5 1471.5,-19.5 1593.5,-19.5 1593.5,-0.5 1471.5,-0.5"/>
<text text-anchor="middle" x="1532.5" y="-7.5" font-family="FreeSans.ttf" font-size="10.00">yarp/dev/PolyDriver.h</text>
</a>
</g>
</g>
<!-- Node1&#45;&gt;Node18 -->
<g id="edge28" class="edge">
<title>Node1&#45;&gt;Node18</title>
<path fill="none" stroke="midnightblue" d="M1601.39,-112.21C1592.63,-103.49 1579.31,-89.51 1569.5,-76 1558.55,-60.93 1548.26,-42.34 1541.32,-28.91"/>
<polygon fill="midnightblue" stroke="midnightblue" points="1544.35,-27.13 1536.71,-19.78 1538.1,-30.29 1544.35,-27.13"/>
</g>
<!-- Node19 -->
<g id="node19" class="node">
<title>Node19</title>
<g id="a_node19"><a xlink:href="common_8h.html" target="_top" xlink:title=" ">
<polygon fill="none" stroke="black" points="1176.5,-56.5 1176.5,-75.5 1340.5,-75.5 1340.5,-56.5 1176.5,-56.5"/>
<text text-anchor="middle" x="1258.5" y="-63.5" font-family="FreeSans.ttf" font-size="10.00">GazeboYarpPlugins/common.h</text>
</a>
</g>
</g>
<!-- Node1&#45;&gt;Node19 -->
<g id="edge20" class="edge">
<title>Node1&#45;&gt;Node19</title>
<path fill="none" stroke="midnightblue" d="M1565.2,-114.05C1503.97,-104.66 1394.37,-87.84 1324.12,-77.07"/>
<polygon fill="midnightblue" stroke="midnightblue" points="1324.47,-73.58 1314.05,-75.52 1323.41,-80.5 1324.47,-73.58"/>
</g>
<!-- Node21 -->
<g id="node21" class="node">
<title>Node21</title>
<g id="a_node21"><a xlink:href="ConfHelpers_8hh.html" target="_top" xlink:title=" ">
<polygon fill="none" stroke="black" points="1578,-56.5 1578,-75.5 1765,-75.5 1765,-56.5 1578,-56.5"/>
<text text-anchor="middle" x="1671.5" y="-63.5" font-family="FreeSans.ttf" font-size="10.00">GazeboYarpPlugins/ConfHelpers.hh</text>
</a>
</g>
</g>
<!-- Node1&#45;&gt;Node21 -->
<g id="edge23" class="edge">
<title>Node1&#45;&gt;Node21</title>
<path fill="none" stroke="midnightblue" d="M1620.3,-112.32C1629.32,-104.34 1642.91,-92.31 1653.82,-82.65"/>
<polygon fill="midnightblue" stroke="midnightblue" points="1656.35,-85.08 1661.52,-75.83 1651.71,-79.84 1656.35,-85.08"/>
</g>
<!-- Node24 -->
<g id="node24" class="node">
<title>Node24</title>
<g id="a_node24"><a xlink:title=" ">
<polygon fill="none" stroke="#bfbfbf" points="1783,-56.5 1783,-75.5 1938,-75.5 1938,-56.5 1783,-56.5"/>
<text text-anchor="middle" x="1860.5" y="-63.5" font-family="FreeSans.ttf" font-size="10.00">yarp/dev/IMultipleWrapper.h</text>
</a>
</g>
</g>
<!-- Node1&#45;&gt;Node24 -->
<g id="edge29" class="edge">
<title>Node1&#45;&gt;Node24</title>
<path fill="none" stroke="midnightblue" d="M1650.11,-112.44C1693.73,-103.02 1763.9,-87.87 1811.08,-77.68"/>
<polygon fill="midnightblue" stroke="midnightblue" points="1812.04,-81.05 1821.07,-75.52 1810.56,-74.21 1812.04,-81.05"/>
</g>
<!-- Node25 -->
<g id="node25" class="node">
<title>Node25</title>
<g id="a_node25"><a xlink:title=" ">
<polygon fill="none" stroke="#bfbfbf" points="1956.5,-56.5 1956.5,-75.5 2062.5,-75.5 2062.5,-56.5 1956.5,-56.5"/>
<text text-anchor="middle" x="2009.5" y="-63.5" font-family="FreeSans.ttf" font-size="10.00">yarp/os/Network.h</text>
</a>
</g>
</g>
<!-- Node1&#45;&gt;Node25 -->
<g id="edge30" class="edge">
<title>Node1&#45;&gt;Node25</title>
<path fill="none" stroke="midnightblue" d="M1655.76,-115.12C1718.58,-106.93 1836.01,-91.48 1946.43,-76.14"/>
<polygon fill="midnightblue" stroke="midnightblue" points="1946.98,-79.59 1956.41,-74.75 1946.02,-72.66 1946.98,-79.59"/>
</g>
<!-- Node26 -->
<g id="node26" class="node">
<title>Node26</title>
<g id="a_node26"><a xlink:title=" ">
<polygon fill="none" stroke="#bfbfbf" points="2080.5,-56.5 2080.5,-75.5 2162.5,-75.5 2162.5,-56.5 2080.5,-56.5"/>
<text text-anchor="middle" x="2121.5" y="-63.5" font-family="FreeSans.ttf" font-size="10.00">yarp/os/Log.h</text>
</a>
</g>
</g>
<!-- Node1&#45;&gt;Node26 -->
<g id="edge31" class="edge">
<title>Node1&#45;&gt;Node26</title>
<path fill="none" stroke="midnightblue" d="M1655.79,-117.8C1736.8,-111.81 1912.02,-97.65 2069.96,-76.11"/>
<polygon fill="midnightblue" stroke="midnightblue" points="2070.91,-79.51 2080.34,-74.68 2069.96,-72.58 2070.91,-79.51"/>
</g>
<!-- Node27 -->
<g id="node27" class="node">
<title>Node27</title>
<g id="a_node27"><a xlink:title=" ">
<polygon fill="none" stroke="#bfbfbf" points="2181,-56.5 2181,-75.5 2298,-75.5 2298,-56.5 2181,-56.5"/>
<text text-anchor="middle" x="2239.5" y="-63.5" font-family="FreeSans.ttf" font-size="10.00">yarp/os/LogStream.h</text>
</a>
</g>
</g>
<!-- Node1&#45;&gt;Node27 -->
<g id="edge32" class="edge">
<title>Node1&#45;&gt;Node27</title>
<path fill="none" stroke="midnightblue" d="M1655.66,-118.17C1749.48,-112.12 1972.52,-96.85 2170.89,-76.01"/>
<polygon fill="midnightblue" stroke="midnightblue" points="2171.34,-79.48 2180.92,-74.95 2170.6,-72.52 2171.34,-79.48"/>
</g>
<!-- Node3 -->
<g id="node3" class="node">
<title>Node3</title>
<g id="a_node3"><a xlink:title=" ">
<polygon fill="none" stroke="#bfbfbf" points="475.5,-0.5 475.5,-19.5 609.5,-19.5 609.5,-0.5 475.5,-0.5"/>
<text text-anchor="middle" x="542.5" y="-7.5" font-family="FreeSans.ttf" font-size="10.00">yarp/dev/DeviceDriver.h</text>
</a>
</g>
</g>
<!-- Node2&#45;&gt;Node3 -->
<g id="edge2" class="edge">
<title>Node2&#45;&gt;Node3</title>
<path fill="none" stroke="midnightblue" d="M607.97,-56.32C595.91,-47.98 577.47,-35.21 563.23,-25.35"/>
<polygon fill="midnightblue" stroke="midnightblue" points="565.22,-22.47 555,-19.65 561.23,-28.22 565.22,-22.47"/>
</g>
<!-- Node4 -->
<g id="node4" class="node">
<title>Node4</title>
<g id="a_node4"><a xlink:title=" ">
<polygon fill="none" stroke="#bfbfbf" points="627.5,-0.5 627.5,-19.5 767.5,-19.5 767.5,-0.5 627.5,-0.5"/>
<text text-anchor="middle" x="697.5" y="-7.5" font-family="FreeSans.ttf" font-size="10.00">yarp/dev/IAnalogSensor.h</text>
</a>
</g>
</g>
<!-- Node2&#45;&gt;Node4 -->
<g id="edge3" class="edge">
<title>Node2&#45;&gt;Node4</title>
<path fill="none" stroke="midnightblue" d="M632.87,-56.32C644.66,-48.06 662.63,-35.45 676.64,-25.63"/>
<polygon fill="midnightblue" stroke="midnightblue" points="678.98,-28.26 685.16,-19.65 674.96,-22.53 678.98,-28.26"/>
</g>
<!-- Node5 -->
<g id="node5" class="node">
<title>Node5</title>
<g id="a_node5"><a xlink:title=" ">
<polygon fill="none" stroke="#bfbfbf" points="785.5,-0.5 785.5,-19.5 881.5,-19.5 881.5,-0.5 785.5,-0.5"/>
<text text-anchor="middle" x="833.5" y="-7.5" font-family="FreeSans.ttf" font-size="10.00">yarp/os/Stamp.h</text>
</a>
</g>
</g>
<!-- Node2&#45;&gt;Node5 -->
<g id="edge4" class="edge">
<title>Node2&#45;&gt;Node5</title>
<path fill="none" stroke="midnightblue" d="M654.25,-56.44C691.02,-47.12 749.95,-32.18 790.12,-22"/>
<polygon fill="midnightblue" stroke="midnightblue" points="791.07,-25.37 799.91,-19.52 789.35,-18.58 791.07,-25.37"/>
</g>
<!-- Node6 -->
<g id="node6" class="node">
<title>Node6</title>
<g id="a_node6"><a xlink:title=" ">
<polygon fill="none" stroke="#bfbfbf" points="0,-0.5 0,-19.5 149,-19.5 149,-0.5 0,-0.5"/>
<text text-anchor="middle" x="74.5" y="-7.5" font-family="FreeSans.ttf" font-size="10.00">yarp/dev/IPreciselyTimed.h</text>
</a>
</g>
</g>
<!-- Node2&#45;&gt;Node6 -->
<g id="edge5" class="edge">
<title>Node2&#45;&gt;Node6</title>
<path fill="none" stroke="midnightblue" d="M562.86,-59.57C477.3,-51.46 311.33,-35.58 159.15,-20.06"/>
<polygon fill="midnightblue" stroke="midnightblue" points="159.46,-16.57 149.15,-19.04 158.74,-23.53 159.46,-16.57"/>
</g>
<!-- Node7 -->
<g id="node7" class="node">
<title>Node7</title>
<g id="a_node7"><a xlink:title=" ">
<polygon fill="none" stroke="#bfbfbf" points="899.5,-0.5 899.5,-19.5 1045.5,-19.5 1045.5,-0.5 899.5,-0.5"/>
<text text-anchor="middle" x="972.5" y="-7.5" font-family="FreeSans.ttf" font-size="10.00">gazebo/common/Plugin.hh</text>
</a>
</g>
</g>
<!-- Node2&#45;&gt;Node7 -->
<g id="edge6" class="edge">
<title>Node2&#45;&gt;Node7</title>
<path fill="none" stroke="midnightblue" d="M676.28,-56.44C738.97,-46.83 840.65,-31.23 907.05,-21.04"/>
<polygon fill="midnightblue" stroke="midnightblue" points="907.63,-24.49 916.99,-19.52 906.57,-17.57 907.63,-24.49"/>
</g>
<!-- Node8 -->
<g id="node8" class="node">
<title>Node8</title>
<g id="a_node8"><a xlink:title=" ">
<polygon fill="none" stroke="#bfbfbf" points="167.5,-0.5 167.5,-19.5 307.5,-19.5 307.5,-0.5 167.5,-0.5"/>
<text text-anchor="middle" x="237.5" y="-7.5" font-family="FreeSans.ttf" font-size="10.00">gazebo/physics/Model.hh</text>
</a>
</g>
</g>
<!-- Node2&#45;&gt;Node8 -->
<g id="edge7" class="edge">
<title>Node2&#45;&gt;Node8</title>
<path fill="none" stroke="midnightblue" d="M562.75,-56.86C494.59,-47.25 381.28,-31.27 308.01,-20.94"/>
<polygon fill="midnightblue" stroke="midnightblue" points="308.33,-17.45 297.94,-19.52 307.35,-24.38 308.33,-17.45"/>
</g>
<!-- Node9 -->
<g id="node9" class="node">
<title>Node9</title>
<g id="a_node9"><a xlink:title=" ">
<polygon fill="none" stroke="#bfbfbf" points="326,-0.5 326,-19.5 457,-19.5 457,-0.5 326,-0.5"/>
<text text-anchor="middle" x="391.5" y="-7.5" font-family="FreeSans.ttf" font-size="10.00">gazebo/physics/Joint.hh</text>
</a>
</g>
</g>
<!-- Node2&#45;&gt;Node9 -->
<g id="edge8" class="edge">
<title>Node2&#45;&gt;Node9</title>
<path fill="none" stroke="midnightblue" d="M584.21,-56.44C544.52,-47.08 480.79,-32.06 437.59,-21.87"/>
<polygon fill="midnightblue" stroke="midnightblue" points="438.15,-18.41 427.62,-19.52 436.55,-25.22 438.15,-18.41"/>
</g>
<!-- Node10&#45;&gt;Node7 -->
<g id="edge10" class="edge">
<title>Node10&#45;&gt;Node7</title>
<path fill="none" stroke="midnightblue" d="M1078.53,-56.44C1057.89,-47.6 1025.44,-33.69 1001.87,-23.59"/>
<polygon fill="midnightblue" stroke="midnightblue" points="1002.94,-20.24 992.37,-19.52 1000.18,-26.67 1002.94,-20.24"/>
</g>
<!-- Node11 -->
<g id="node11" class="node">
<title>Node11</title>
<g id="a_node11"><a xlink:title=" ">
<polygon fill="none" stroke="#bfbfbf" points="1063.5,-0.5 1063.5,-19.5 1107.5,-19.5 1107.5,-0.5 1063.5,-0.5"/>
<text text-anchor="middle" x="1085.5" y="-7.5" font-family="FreeSans.ttf" font-size="10.00">string</text>
</a>
</g>
</g>
<!-- Node10&#45;&gt;Node11 -->
<g id="edge11" class="edge">
<title>Node10&#45;&gt;Node11</title>
<path fill="none" stroke="midnightblue" d="M1096.35,-56.08C1094.63,-48.93 1092.15,-38.64 1090,-29.69"/>
<polygon fill="midnightblue" stroke="midnightblue" points="1093.35,-28.65 1087.61,-19.75 1086.54,-30.29 1093.35,-28.65"/>
</g>
<!-- Node12 -->
<g id="node12" class="node">
<title>Node12</title>
<g id="a_node12"><a xlink:title=" ">
<polygon fill="none" stroke="#bfbfbf" points="1125.5,-0.5 1125.5,-19.5 1265.5,-19.5 1265.5,-0.5 1125.5,-0.5"/>
<text text-anchor="middle" x="1195.5" y="-7.5" font-family="FreeSans.ttf" font-size="10.00">yarp/dev/PolyDriverList.h</text>
</a>
</g>
</g>
<!-- Node10&#45;&gt;Node12 -->
<g id="edge12" class="edge">
<title>Node10&#45;&gt;Node12</title>
<path fill="none" stroke="midnightblue" d="M1114.08,-56.32C1129.5,-47.74 1153.31,-34.49 1171.21,-24.52"/>
<polygon fill="midnightblue" stroke="midnightblue" points="1172.92,-27.58 1179.95,-19.65 1169.51,-21.46 1172.92,-27.58"/>
</g>
<!-- Node13&#45;&gt;Node12 -->
<g id="edge19" class="edge">
<title>Node13&#45;&gt;Node12</title>
<path fill="none" stroke="midnightblue" d="M1401.68,-56.44C1358.94,-47.02 1290.17,-31.87 1243.93,-21.68"/>
<polygon fill="midnightblue" stroke="midnightblue" points="1244.66,-18.25 1234.14,-19.52 1243.15,-25.09 1244.66,-18.25"/>
</g>
<!-- Node14 -->
<g id="node14" class="node">
<title>Node14</title>
<g id="a_node14"><a xlink:title=" ">
<polygon fill="none" stroke="#bfbfbf" points="1415.5,-0.5 1415.5,-19.5 1453.5,-19.5 1453.5,-0.5 1415.5,-0.5"/>
<text text-anchor="middle" x="1434.5" y="-7.5" font-family="FreeSans.ttf" font-size="10.00">map</text>
</a>
</g>
</g>
<!-- Node13&#45;&gt;Node14 -->
<g id="edge14" class="edge">
<title>Node13&#45;&gt;Node14</title>
<path fill="none" stroke="midnightblue" d="M1439.51,-56.08C1438.71,-48.93 1437.57,-38.64 1436.58,-29.69"/>
<polygon fill="midnightblue" stroke="midnightblue" points="1440.06,-29.3 1435.47,-19.75 1433.1,-30.08 1440.06,-29.3"/>
</g>
<!-- Node15 -->
<g id="node15" class="node">
<title>Node15</title>
<g id="a_node15"><a xlink:title=" ">
<polygon fill="none" stroke="#bfbfbf" points="1749,-0.5 1749,-19.5 1842,-19.5 1842,-0.5 1749,-0.5"/>
<text text-anchor="middle" x="1795.5" y="-7.5" font-family="FreeSans.ttf" font-size="10.00">sdf/sdf_config.h</text>
</a>
</g>
</g>
<!-- Node13&#45;&gt;Node15 -->
<g id="edge15" class="edge">
<title>Node13&#45;&gt;Node15</title>
<path fill="none" stroke="midnightblue" d="M1498.89,-56.48C1557.18,-47.91 1649.62,-34.19 1738.96,-20.23"/>
<polygon fill="midnightblue" stroke="midnightblue" points="1739.66,-23.66 1749,-18.65 1738.58,-16.74 1739.66,-23.66"/>
</g>
<!-- Node16 -->
<g id="node16" class="node">
<title>Node16</title>
<g id="a_node16"><a xlink:title=" ">
<polygon fill="none" stroke="#bfbfbf" points="1612,-0.5 1612,-19.5 1731,-19.5 1731,-0.5 1612,-0.5"/>
<text text-anchor="middle" x="1671.5" y="-7.5" font-family="FreeSans.ttf" font-size="10.00">boost/shared_ptr.hpp</text>
</a>
</g>
</g>
<!-- Node13&#45;&gt;Node16 -->
<g id="edge16" class="edge">
<title>Node13&#45;&gt;Node16</title>
<path fill="none" stroke="midnightblue" d="M1477.1,-56.44C1517.23,-47.06 1581.7,-31.99 1625.28,-21.8"/>
<polygon fill="midnightblue" stroke="midnightblue" points="1626.13,-25.2 1635.07,-19.52 1624.53,-18.38 1626.13,-25.2"/>
</g>
<!-- Node17 -->
<g id="node17" class="node">
<title>Node17</title>
<g id="a_node17"><a xlink:title=" ">
<polygon fill="none" stroke="#bfbfbf" points="1349.5,-0.5 1349.5,-19.5 1397.5,-19.5 1397.5,-0.5 1349.5,-0.5"/>
<text text-anchor="middle" x="1373.5" y="-7.5" font-family="FreeSans.ttf" font-size="10.00">mutex</text>
</a>
</g>
</g>
<!-- Node13&#45;&gt;Node17 -->
<g id="edge17" class="edge">
<title>Node13&#45;&gt;Node17</title>
<path fill="none" stroke="midnightblue" d="M1429.74,-56.32C1419.73,-48.26 1404.61,-36.08 1392.57,-26.37"/>
<polygon fill="midnightblue" stroke="midnightblue" points="1394.44,-23.38 1384.46,-19.83 1390.05,-28.83 1394.44,-23.38"/>
</g>
<!-- Node13&#45;&gt;Node18 -->
<g id="edge18" class="edge">
<title>Node13&#45;&gt;Node18</title>
<path fill="none" stroke="midnightblue" d="M1455.28,-56.32C1469.77,-47.82 1492.07,-34.73 1508.99,-24.8"/>
<polygon fill="midnightblue" stroke="midnightblue" points="1510.9,-27.74 1517.76,-19.65 1507.36,-21.7 1510.9,-27.74"/>
</g>
<!-- Node19&#45;&gt;Node11 -->
<g id="edge21" class="edge">
<title>Node19&#45;&gt;Node11</title>
<path fill="none" stroke="midnightblue" d="M1231.09,-56.44C1200.22,-46.81 1150.14,-31.18 1117.5,-20.99"/>
<polygon fill="midnightblue" stroke="midnightblue" points="1118.16,-17.53 1107.57,-17.89 1116.07,-24.21 1118.16,-17.53"/>
</g>
<!-- Node20 -->
<g id="node20" class="node">
<title>Node20</title>
<g id="a_node20"><a xlink:title=" ">
<polygon fill="none" stroke="#bfbfbf" points="1284,-0.5 1284,-19.5 1331,-19.5 1331,-0.5 1284,-0.5"/>
<text text-anchor="middle" x="1307.5" y="-7.5" font-family="FreeSans.ttf" font-size="10.00">cmath</text>
</a>
</g>
</g>
<!-- Node19&#45;&gt;Node20 -->
<g id="edge22" class="edge">
<title>Node19&#45;&gt;Node20</title>
<path fill="none" stroke="midnightblue" d="M1266.59,-56.08C1273.66,-48.3 1284.09,-36.8 1292.65,-27.37"/>
<polygon fill="midnightblue" stroke="midnightblue" points="1295.43,-29.51 1299.56,-19.75 1290.25,-24.8 1295.43,-29.51"/>
</g>
<!-- Node21&#45;&gt;Node15 -->
<g id="edge24" class="edge">
<title>Node21&#45;&gt;Node15</title>
<path fill="none" stroke="midnightblue" d="M1691.15,-56.44C1711.46,-47.6 1743.4,-33.69 1766.6,-23.59"/>
<polygon fill="midnightblue" stroke="midnightblue" points="1768.17,-26.72 1775.94,-19.52 1765.38,-20.3 1768.17,-26.72"/>
</g>
<!-- Node21&#45;&gt;Node16 -->
<g id="edge25" class="edge">
<title>Node21&#45;&gt;Node16</title>
<path fill="none" stroke="midnightblue" d="M1671.5,-56.08C1671.5,-49.01 1671.5,-38.86 1671.5,-29.99"/>
<polygon fill="midnightblue" stroke="midnightblue" points="1675,-29.75 1671.5,-19.75 1668,-29.75 1675,-29.75"/>
</g>
<!-- Node22 -->
<g id="node22" class="node">
<title>Node22</title>
<g id="a_node22"><a xlink:title=" ">
<polygon fill="none" stroke="#bfbfbf" points="1860,-0.5 1860,-19.5 2031,-19.5 2031,-0.5 1860,-0.5"/>
<text text-anchor="middle" x="1945.5" y="-7.5" font-family="FreeSans.ttf" font-size="10.00">gazebo/sensors/SensorTypes.hh</text>
</a>
</g>
</g>
<!-- Node21&#45;&gt;Node22 -->
<g id="edge26" class="edge">
<title>Node21&#45;&gt;Node22</title>
<path fill="none" stroke="midnightblue" d="M1714.92,-56.44C1763.02,-46.96 1840.59,-31.67 1892.31,-21.48"/>
<polygon fill="midnightblue" stroke="midnightblue" points="1893.15,-24.88 1902.29,-19.52 1891.8,-18.02 1893.15,-24.88"/>
</g>
<!-- Node23 -->
<g id="node23" class="node">
<title>Node23</title>
<g id="a_node23"><a xlink:title=" ">
<polygon fill="none" stroke="#bfbfbf" points="2049.5,-0.5 2049.5,-19.5 2223.5,-19.5 2223.5,-0.5 2049.5,-0.5"/>
<text text-anchor="middle" x="2136.5" y="-7.5" font-family="FreeSans.ttf" font-size="10.00">gazebo/physics/PhysicsTypes.hh</text>
</a>
</g>
</g>
<!-- Node21&#45;&gt;Node23 -->
<g id="edge27" class="edge">
<title>Node21&#45;&gt;Node23</title>
<path fill="none" stroke="midnightblue" d="M1744.92,-56.47C1828.62,-46.75 1965.17,-30.9 2052.89,-20.71"/>
<polygon fill="midnightblue" stroke="midnightblue" points="2053.55,-24.16 2063.08,-19.53 2052.74,-17.2 2053.55,-24.16"/>
</g>
</g>
</svg>
