<?xml version="1.0" encoding="UTF-8" standalone="no"?>
<!DOCTYPE svg PUBLIC "-//W3C//DTD SVG 1.1//EN"
 "http://www.w3.org/Graphics/SVG/1.1/DTD/svg11.dtd">
<!-- Generated by graphviz version 2.43.0 (0)
 -->
<!-- Title: JointSensorsDriver.cpp Pages: 1 -->
<svg width="1991pt" height="140pt"
 viewBox="0.00 0.00 1990.50 140.00" xmlns="http://www.w3.org/2000/svg" xmlns:xlink="http://www.w3.org/1999/xlink">
<g id="graph0" class="graph" transform="scale(1 1) rotate(0) translate(4 136)">
<title>JointSensorsDriver.cpp</title>
<!-- Node1 -->
<g id="node1" class="node">
<title>Node1</title>
<g id="a_node1"><a xlink:title=" ">
<polygon fill="#bfbfbf" stroke="black" points="1602,-112.5 1602,-131.5 1728,-131.5 1728,-112.5 1602,-112.5"/>
<text text-anchor="middle" x="1665" y="-119.5" font-family="FreeSans.ttf" font-size="10.00">JointSensorsDriver.cpp</text>
</a>
</g>
</g>
<!-- Node2 -->
<g id="node2" class="node">
<title>Node2</title>
<g id="a_node2"><a xlink:href="JointSensorsDriver_8h.html" target="_top" xlink:title=" ">
<polygon fill="none" stroke="black" points="524.5,-56.5 524.5,-75.5 639.5,-75.5 639.5,-56.5 524.5,-56.5"/>
<text text-anchor="middle" x="582" y="-63.5" font-family="FreeSans.ttf" font-size="10.00">JointSensorsDriver.h</text>
</a>
</g>
</g>
<!-- Node1&#45;&gt;Node2 -->
<g id="edge1" class="edge">
<title>Node1&#45;&gt;Node2</title>
<path fill="none" stroke="midnightblue" d="M1601.69,-117.84C1411.46,-108.36 845.96,-80.16 649.86,-70.38"/>
<polygon fill="midnightblue" stroke="midnightblue" points="649.86,-66.88 639.7,-69.88 649.51,-73.87 649.86,-66.88"/>
</g>
<!-- Node10 -->
<g id="node10" class="node">
<title>Node10</title>
<g id="a_node10"><a xlink:href="Handler_8hh.html" target="_top" xlink:title=" ">
<polygon fill="none" stroke="black" points="1311,-56.5 1311,-75.5 1475,-75.5 1475,-56.5 1311,-56.5"/>
<text text-anchor="middle" x="1393" y="-63.5" font-family="FreeSans.ttf" font-size="10.00">GazeboYarpPlugins/Handler.hh</text>
</a>
</g>
</g>
<!-- Node1&#45;&gt;Node10 -->
<g id="edge9" class="edge">
<title>Node1&#45;&gt;Node10</title>
<path fill="none" stroke="midnightblue" d="M1621.9,-112.44C1574.15,-102.96 1497.14,-87.67 1445.81,-77.48"/>
<polygon fill="midnightblue" stroke="midnightblue" points="1446.39,-74.03 1435.9,-75.52 1445.02,-80.9 1446.39,-74.03"/>
</g>
<!-- Node17 -->
<g id="node17" class="node">
<title>Node17</title>
<g id="a_node17"><a xlink:href="common_8h.html" target="_top" xlink:title=" ">
<polygon fill="none" stroke="black" points="1583,-56.5 1583,-75.5 1747,-75.5 1747,-56.5 1583,-56.5"/>
<text text-anchor="middle" x="1665" y="-63.5" font-family="FreeSans.ttf" font-size="10.00">GazeboYarpPlugins/common.h</text>
</a>
</g>
</g>
<!-- Node1&#45;&gt;Node17 -->
<g id="edge16" class="edge">
<title>Node1&#45;&gt;Node17</title>
<path fill="none" stroke="midnightblue" d="M1665,-112.08C1665,-105.01 1665,-94.86 1665,-85.99"/>
<polygon fill="midnightblue" stroke="midnightblue" points="1668.5,-85.75 1665,-75.75 1661.5,-85.75 1668.5,-85.75"/>
</g>
<!-- Node20 -->
<g id="node20" class="node">
<title>Node20</title>
<g id="a_node20"><a xlink:title=" ">
<polygon fill="none" stroke="#bfbfbf" points="1765,-56.5 1765,-75.5 1847,-75.5 1847,-56.5 1765,-56.5"/>
<text text-anchor="middle" x="1806" y="-63.5" font-family="FreeSans.ttf" font-size="10.00">yarp/os/Log.h</text>
</a>
</g>
</g>
<!-- Node1&#45;&gt;Node20 -->
<g id="edge19" class="edge">
<title>Node1&#45;&gt;Node20</title>
<path fill="none" stroke="midnightblue" d="M1687.34,-112.44C1710.75,-103.48 1747.74,-89.31 1774.19,-79.18"/>
<polygon fill="midnightblue" stroke="midnightblue" points="1775.68,-82.36 1783.76,-75.52 1773.17,-75.82 1775.68,-82.36"/>
</g>
<!-- Node21 -->
<g id="node21" class="node">
<title>Node21</title>
<g id="a_node21"><a xlink:title=" ">
<polygon fill="none" stroke="#bfbfbf" points="1865.5,-56.5 1865.5,-75.5 1982.5,-75.5 1982.5,-56.5 1865.5,-56.5"/>
<text text-anchor="middle" x="1924" y="-63.5" font-family="FreeSans.ttf" font-size="10.00">yarp/os/LogStream.h</text>
</a>
</g>
</g>
<!-- Node1&#45;&gt;Node21 -->
<g id="edge20" class="edge">
<title>Node1&#45;&gt;Node21</title>
<path fill="none" stroke="midnightblue" d="M1706.04,-112.44C1751.32,-103 1824.23,-87.8 1873.11,-77.61"/>
<polygon fill="midnightblue" stroke="midnightblue" points="1874.08,-80.98 1883.15,-75.52 1872.65,-74.13 1874.08,-80.98"/>
</g>
<!-- Node3 -->
<g id="node3" class="node">
<title>Node3</title>
<g id="a_node3"><a xlink:title=" ">
<polygon fill="none" stroke="#bfbfbf" points="0,-0.5 0,-19.5 134,-19.5 134,-0.5 0,-0.5"/>
<text text-anchor="middle" x="67" y="-7.5" font-family="FreeSans.ttf" font-size="10.00">yarp/dev/DeviceDriver.h</text>
</a>
</g>
</g>
<!-- Node2&#45;&gt;Node3 -->
<g id="edge2" class="edge">
<title>Node2&#45;&gt;Node3</title>
<path fill="none" stroke="midnightblue" d="M524.44,-59.39C442.49,-51.34 287.19,-35.85 144.39,-20.14"/>
<polygon fill="midnightblue" stroke="midnightblue" points="144.45,-16.62 134.13,-19.01 143.69,-23.58 144.45,-16.62"/>
</g>
<!-- Node4 -->
<g id="node4" class="node">
<title>Node4</title>
<g id="a_node4"><a xlink:title=" ">
<polygon fill="none" stroke="#bfbfbf" points="152,-0.5 152,-19.5 292,-19.5 292,-0.5 152,-0.5"/>
<text text-anchor="middle" x="222" y="-7.5" font-family="FreeSans.ttf" font-size="10.00">yarp/dev/IAnalogSensor.h</text>
</a>
</g>
</g>
<!-- Node2&#45;&gt;Node4 -->
<g id="edge3" class="edge">
<title>Node2&#45;&gt;Node4</title>
<path fill="none" stroke="midnightblue" d="M524.96,-56.44C460.84,-46.83 356.85,-31.23 288.94,-21.04"/>
<polygon fill="midnightblue" stroke="midnightblue" points="289.18,-17.54 278.78,-19.52 288.15,-24.46 289.18,-17.54"/>
</g>
<!-- Node5 -->
<g id="node5" class="node">
<title>Node5</title>
<g id="a_node5"><a xlink:title=" ">
<polygon fill="none" stroke="#bfbfbf" points="310,-0.5 310,-19.5 406,-19.5 406,-0.5 310,-0.5"/>
<text text-anchor="middle" x="358" y="-7.5" font-family="FreeSans.ttf" font-size="10.00">yarp/os/Stamp.h</text>
</a>
</g>
</g>
<!-- Node2&#45;&gt;Node5 -->
<g id="edge4" class="edge">
<title>Node2&#45;&gt;Node5</title>
<path fill="none" stroke="midnightblue" d="M546.51,-56.44C507.68,-47.08 445.34,-32.06 403.08,-21.87"/>
<polygon fill="midnightblue" stroke="midnightblue" points="403.87,-18.46 393.33,-19.52 402.23,-25.26 403.87,-18.46"/>
</g>
<!-- Node6 -->
<g id="node6" class="node">
<title>Node6</title>
<g id="a_node6"><a xlink:title=" ">
<polygon fill="none" stroke="#bfbfbf" points="424.5,-0.5 424.5,-19.5 573.5,-19.5 573.5,-0.5 424.5,-0.5"/>
<text text-anchor="middle" x="499" y="-7.5" font-family="FreeSans.ttf" font-size="10.00">yarp/dev/IPreciselyTimed.h</text>
</a>
</g>
</g>
<!-- Node2&#45;&gt;Node6 -->
<g id="edge5" class="edge">
<title>Node2&#45;&gt;Node6</title>
<path fill="none" stroke="midnightblue" d="M568.66,-56.32C555.84,-47.98 536.22,-35.21 521.06,-25.35"/>
<polygon fill="midnightblue" stroke="midnightblue" points="522.59,-22.17 512.3,-19.65 518.78,-28.04 522.59,-22.17"/>
</g>
<!-- Node7 -->
<g id="node7" class="node">
<title>Node7</title>
<g id="a_node7"><a xlink:title=" ">
<polygon fill="none" stroke="#bfbfbf" points="592,-0.5 592,-19.5 738,-19.5 738,-0.5 592,-0.5"/>
<text text-anchor="middle" x="665" y="-7.5" font-family="FreeSans.ttf" font-size="10.00">gazebo/common/Plugin.hh</text>
</a>
</g>
</g>
<!-- Node2&#45;&gt;Node7 -->
<g id="edge6" class="edge">
<title>Node2&#45;&gt;Node7</title>
<path fill="none" stroke="midnightblue" d="M595.34,-56.32C608.16,-47.98 627.78,-35.21 642.94,-25.35"/>
<polygon fill="midnightblue" stroke="midnightblue" points="645.22,-28.04 651.7,-19.65 641.41,-22.17 645.22,-28.04"/>
</g>
<!-- Node8 -->
<g id="node8" class="node">
<title>Node8</title>
<g id="a_node8"><a xlink:title=" ">
<polygon fill="none" stroke="#bfbfbf" points="756,-0.5 756,-19.5 896,-19.5 896,-0.5 756,-0.5"/>
<text text-anchor="middle" x="826" y="-7.5" font-family="FreeSans.ttf" font-size="10.00">gazebo/physics/Model.hh</text>
</a>
</g>
</g>
<!-- Node2&#45;&gt;Node8 -->
<g id="edge7" class="edge">
<title>Node2&#45;&gt;Node8</title>
<path fill="none" stroke="midnightblue" d="M620.66,-56.44C663.14,-47.04 731.43,-31.93 777.47,-21.74"/>
<polygon fill="midnightblue" stroke="midnightblue" points="778.51,-25.09 787.52,-19.52 777,-18.26 778.51,-25.09"/>
</g>
<!-- Node9 -->
<g id="node9" class="node">
<title>Node9</title>
<g id="a_node9"><a xlink:title=" ">
<polygon fill="none" stroke="#bfbfbf" points="914.5,-0.5 914.5,-19.5 1045.5,-19.5 1045.5,-0.5 914.5,-0.5"/>
<text text-anchor="middle" x="980" y="-7.5" font-family="FreeSans.ttf" font-size="10.00">gazebo/physics/Joint.hh</text>
</a>
</g>
</g>
<!-- Node2&#45;&gt;Node9 -->
<g id="edge8" class="edge">
<title>Node2&#45;&gt;Node9</title>
<path fill="none" stroke="midnightblue" d="M639.87,-57.15C710.54,-47.56 830.13,-31.33 907.04,-20.9"/>
<polygon fill="midnightblue" stroke="midnightblue" points="907.69,-24.34 917.13,-19.53 906.75,-17.41 907.69,-24.34"/>
</g>
<!-- Node11 -->
<g id="node11" class="node">
<title>Node11</title>
<g id="a_node11"><a xlink:title=" ">
<polygon fill="none" stroke="#bfbfbf" points="1064,-0.5 1064,-19.5 1102,-19.5 1102,-0.5 1064,-0.5"/>
<text text-anchor="middle" x="1083" y="-7.5" font-family="FreeSans.ttf" font-size="10.00">map</text>
</a>
</g>
</g>
<!-- Node10&#45;&gt;Node11 -->
<g id="edge10" class="edge">
<title>Node10&#45;&gt;Node11</title>
<path fill="none" stroke="midnightblue" d="M1320.25,-56.5C1265.29,-49.36 1187.94,-37.8 1111.92,-19.92"/>
<polygon fill="midnightblue" stroke="midnightblue" points="1112.71,-16.51 1102.17,-17.59 1111.08,-23.32 1112.71,-16.51"/>
</g>
<!-- Node12 -->
<g id="node12" class="node">
<title>Node12</title>
<g id="a_node12"><a xlink:title=" ">
<polygon fill="none" stroke="#bfbfbf" points="1120.5,-0.5 1120.5,-19.5 1213.5,-19.5 1213.5,-0.5 1120.5,-0.5"/>
<text text-anchor="middle" x="1167" y="-7.5" font-family="FreeSans.ttf" font-size="10.00">sdf/sdf_config.h</text>
</a>
</g>
</g>
<!-- Node10&#45;&gt;Node12 -->
<g id="edge11" class="edge">
<title>Node10&#45;&gt;Node12</title>
<path fill="none" stroke="midnightblue" d="M1357.19,-56.44C1318.01,-47.08 1255.12,-32.06 1212.48,-21.87"/>
<polygon fill="midnightblue" stroke="midnightblue" points="1213.18,-18.44 1202.64,-19.52 1211.56,-25.24 1213.18,-18.44"/>
</g>
<!-- Node13 -->
<g id="node13" class="node">
<title>Node13</title>
<g id="a_node13"><a xlink:title=" ">
<polygon fill="none" stroke="#bfbfbf" points="1231.5,-0.5 1231.5,-19.5 1350.5,-19.5 1350.5,-0.5 1231.5,-0.5"/>
<text text-anchor="middle" x="1291" y="-7.5" font-family="FreeSans.ttf" font-size="10.00">boost/shared_ptr.hpp</text>
</a>
</g>
</g>
<!-- Node10&#45;&gt;Node13 -->
<g id="edge12" class="edge">
<title>Node10&#45;&gt;Node13</title>
<path fill="none" stroke="midnightblue" d="M1376.61,-56.32C1360.33,-47.7 1335.13,-34.36 1316.28,-24.39"/>
<polygon fill="midnightblue" stroke="midnightblue" points="1317.82,-21.24 1307.35,-19.65 1314.55,-27.43 1317.82,-21.24"/>
</g>
<!-- Node14 -->
<g id="node14" class="node">
<title>Node14</title>
<g id="a_node14"><a xlink:title=" ">
<polygon fill="none" stroke="#bfbfbf" points="1369,-0.5 1369,-19.5 1417,-19.5 1417,-0.5 1369,-0.5"/>
<text text-anchor="middle" x="1393" y="-7.5" font-family="FreeSans.ttf" font-size="10.00">mutex</text>
</a>
</g>
</g>
<!-- Node10&#45;&gt;Node14 -->
<g id="edge13" class="edge">
<title>Node10&#45;&gt;Node14</title>
<path fill="none" stroke="midnightblue" d="M1393,-56.08C1393,-49.01 1393,-38.86 1393,-29.99"/>
<polygon fill="midnightblue" stroke="midnightblue" points="1396.5,-29.75 1393,-19.75 1389.5,-29.75 1396.5,-29.75"/>
</g>
<!-- Node15 -->
<g id="node15" class="node">
<title>Node15</title>
<g id="a_node15"><a xlink:title=" ">
<polygon fill="none" stroke="#bfbfbf" points="1435,-0.5 1435,-19.5 1557,-19.5 1557,-0.5 1435,-0.5"/>
<text text-anchor="middle" x="1496" y="-7.5" font-family="FreeSans.ttf" font-size="10.00">yarp/dev/PolyDriver.h</text>
</a>
</g>
</g>
<!-- Node10&#45;&gt;Node15 -->
<g id="edge14" class="edge">
<title>Node10&#45;&gt;Node15</title>
<path fill="none" stroke="midnightblue" d="M1409.55,-56.32C1425.99,-47.7 1451.43,-34.36 1470.47,-24.39"/>
<polygon fill="midnightblue" stroke="midnightblue" points="1472.26,-27.4 1479.49,-19.65 1469.01,-21.2 1472.26,-27.4"/>
</g>
<!-- Node16 -->
<g id="node16" class="node">
<title>Node16</title>
<g id="a_node16"><a xlink:title=" ">
<polygon fill="none" stroke="#bfbfbf" points="1575,-0.5 1575,-19.5 1715,-19.5 1715,-0.5 1575,-0.5"/>
<text text-anchor="middle" x="1645" y="-7.5" font-family="FreeSans.ttf" font-size="10.00">yarp/dev/PolyDriverList.h</text>
</a>
</g>
</g>
<!-- Node10&#45;&gt;Node16 -->
<g id="edge15" class="edge">
<title>Node10&#45;&gt;Node16</title>
<path fill="none" stroke="midnightblue" d="M1432.93,-56.44C1476.89,-47.02 1547.63,-31.87 1595.18,-21.68"/>
<polygon fill="midnightblue" stroke="midnightblue" points="1596.21,-25.03 1605.26,-19.52 1594.75,-18.19 1596.21,-25.03"/>
</g>
<!-- Node18 -->
<g id="node18" class="node">
<title>Node18</title>
<g id="a_node18"><a xlink:title=" ">
<polygon fill="none" stroke="#bfbfbf" points="1733,-0.5 1733,-19.5 1777,-19.5 1777,-0.5 1733,-0.5"/>
<text text-anchor="middle" x="1755" y="-7.5" font-family="FreeSans.ttf" font-size="10.00">string</text>
</a>
</g>
</g>
<!-- Node17&#45;&gt;Node18 -->
<g id="edge17" class="edge">
<title>Node17&#45;&gt;Node18</title>
<path fill="none" stroke="midnightblue" d="M1679.46,-56.32C1693.5,-47.9 1715.05,-34.97 1731.54,-25.07"/>
<polygon fill="midnightblue" stroke="midnightblue" points="1733.8,-27.8 1740.58,-19.65 1730.2,-21.8 1733.8,-27.8"/>
</g>
<!-- Node19 -->
<g id="node19" class="node">
<title>Node19</title>
<g id="a_node19"><a xlink:title=" ">
<polygon fill="none" stroke="#bfbfbf" points="1795.5,-0.5 1795.5,-19.5 1842.5,-19.5 1842.5,-0.5 1795.5,-0.5"/>
<text text-anchor="middle" x="1819" y="-7.5" font-family="FreeSans.ttf" font-size="10.00">cmath</text>
</a>
</g>
</g>
<!-- Node17&#45;&gt;Node19 -->
<g id="edge18" class="edge">
<title>Node17&#45;&gt;Node19</title>
<path fill="none" stroke="midnightblue" d="M1689.4,-56.44C1715.42,-47.32 1756.8,-32.81 1785.78,-22.65"/>
<polygon fill="midnightblue" stroke="midnightblue" points="1787.19,-25.86 1795.47,-19.25 1784.88,-19.26 1787.19,-25.86"/>
</g>
</g>
</svg>
