<?xml version="1.0" encoding="UTF-8" standalone="no"?>
<!DOCTYPE svg PUBLIC "-//W3C//DTD SVG 1.1//EN"
 "http://www.w3.org/Graphics/SVG/1.1/DTD/svg11.dtd">
<!-- Generated by graphviz version 2.49.0 (20210829.0051)
 -->
<!-- Title: LaserSensorLog.h Pages: 1 -->
<svg width="371pt" height="84pt"
 viewBox="0.00 0.00 371.00 84.00" xmlns="http://www.w3.org/2000/svg" xmlns:xlink="http://www.w3.org/1999/xlink">
<g id="graph0" class="graph" transform="scale(1 1) rotate(0) translate(4 80)">
<title>LaserSensorLog.h</title>
<!-- Node1 -->
<g id="node1" class="node">
<title>Node1</title>
<g id="a_node1"><a xlink:title=" ">
<polygon fill="#bfbfbf" stroke="black" points="118.5,-56.5 118.5,-75.5 220.5,-75.5 220.5,-56.5 118.5,-56.5"/>
<text text-anchor="middle" x="169.5" y="-63.5" font-family="FreeSans.ttf" font-size="10.00">LaserSensorLog.h</text>
</a>
</g>
</g>
<!-- Node2 -->
<g id="node2" class="node">
<title>Node2</title>
<g id="a_node2"><a xlink:href="LaserSensor_8cc.html" target="_top" xlink:title=" ">
<polygon fill="none" stroke="black" points="0,-0.5 0,-19.5 89,-19.5 89,-0.5 0,-0.5"/>
<text text-anchor="middle" x="44.5" y="-7.5" font-family="FreeSans.ttf" font-size="10.00">LaserSensor.cc</text>
</a>
</g>
</g>
<!-- Node1&#45;&gt;Node2 -->
<g id="edge1" class="edge">
<title>Node1&#45;&gt;Node2</title>
<path fill="none" stroke="midnightblue" d="M140.26,-52.37C116.85,-42.26 84.66,-28.35 64.21,-19.52"/>
<polygon fill="midnightblue" stroke="midnightblue" points="139.13,-55.69 149.69,-56.44 141.9,-49.26 139.13,-55.69"/>
</g>
<!-- Node3 -->
<g id="node3" class="node">
<title>Node3</title>
<g id="a_node3"><a xlink:href="LaserSensorDriver_8cpp.html" target="_top" xlink:title=" ">
<polygon fill="none" stroke="black" points="107,-0.5 107,-19.5 232,-19.5 232,-0.5 107,-0.5"/>
<text text-anchor="middle" x="169.5" y="-7.5" font-family="FreeSans.ttf" font-size="10.00">LaserSensorDriver.cpp</text>
</a>
</g>
</g>
<!-- Node1&#45;&gt;Node3 -->
<g id="edge2" class="edge">
<title>Node1&#45;&gt;Node3</title>
<path fill="none" stroke="midnightblue" d="M169.5,-45.8C169.5,-36.91 169.5,-26.78 169.5,-19.75"/>
<polygon fill="midnightblue" stroke="midnightblue" points="166,-46.08 169.5,-56.08 173,-46.08 166,-46.08"/>
</g>
<!-- Node4 -->
<g id="node4" class="node">
<title>Node4</title>
<g id="a_node4"><a xlink:href="LaserSensorLog_8cpp.html" target="_top" xlink:title=" ">
<polygon fill="none" stroke="black" points="250,-0.5 250,-19.5 363,-19.5 363,-0.5 250,-0.5"/>
<text text-anchor="middle" x="306.5" y="-7.5" font-family="FreeSans.ttf" font-size="10.00">LaserSensorLog.cpp</text>
</a>
</g>
</g>
<!-- Node1&#45;&gt;Node4 -->
<g id="edge3" class="edge">
<title>Node1&#45;&gt;Node4</title>
<path fill="none" stroke="midnightblue" d="M200.52,-52.77C226.26,-42.63 262.19,-28.47 284.89,-19.52"/>
<polygon fill="midnightblue" stroke="midnightblue" points="199.23,-49.52 191.21,-56.44 201.79,-56.03 199.23,-49.52"/>
</g>
</g>
</svg>
