<?xml version="1.0" encoding="UTF-8" standalone="no"?>
<!DOCTYPE svg PUBLIC "-//W3C//DTD SVG 1.1//EN"
 "http://www.w3.org/Graphics/SVG/1.1/DTD/svg11.dtd">
<!-- Generated by graphviz version 5.0.0 (20220707.2338)
 -->
<!-- Title: LaserSensorDriver.h Pages: 1 -->
<svg width="1148pt" height="95pt"
 viewBox="0.00 0.00 1148.00 95.00" xmlns="http://www.w3.org/2000/svg" xmlns:xlink="http://www.w3.org/1999/xlink">
<g id="graph0" class="graph" transform="scale(1 1) rotate(0) translate(4 91)">
<title>LaserSensorDriver.h</title>
<!-- Node1 -->
<g id="node1" class="node">
<title>Node1</title>
<g id="a_node1"><a xlink:title=" ">
<polygon fill="#bfbfbf" stroke="black" points="592,-67.5 592,-86.5 706,-86.5 706,-67.5 592,-67.5"/>
<text text-anchor="middle" x="649" y="-74.5" font-family="FreeSans.ttf" font-size="10.00">LaserSensorDriver.h</text>
</a>
</g>
</g>
<!-- Node2 -->
<g id="node2" class="node">
<title>Node2</title>
<g id="a_node2"><a xlink:title=" ">
<polygon fill="none" stroke="#bfbfbf" points="0,-6 0,-25 134,-25 134,-6 0,-6"/>
<text text-anchor="middle" x="67" y="-13" font-family="FreeSans.ttf" font-size="10.00">yarp/dev/DeviceDriver.h</text>
</a>
</g>
</g>
<!-- Node1&#45;&gt;Node2 -->
<g id="edge1" class="edge">
<title>Node1&#45;&gt;Node2</title>
<path fill="none" stroke="midnightblue" d="M591.88,-72.78C497.92,-67.08 305.03,-53.6 143,-31 134.68,-29.84 125.89,-28.38 117.36,-26.84"/>
<polygon fill="midnightblue" stroke="midnightblue" points="117.97,-23.39 107.5,-25 116.69,-30.27 117.97,-23.39"/>
</g>
<!-- Node3 -->
<g id="node3" class="node">
<title>Node3</title>
<g id="a_node3"><a xlink:title=" ">
<polygon fill="none" stroke="#bfbfbf" points="152,-6 152,-25 298,-25 298,-6 152,-6"/>
<text text-anchor="middle" x="225" y="-13" font-family="FreeSans.ttf" font-size="10.00">yarp/dev/IRangefinder2D.h</text>
</a>
</g>
</g>
<!-- Node1&#45;&gt;Node3 -->
<g id="edge2" class="edge">
<title>Node1&#45;&gt;Node3</title>
<path fill="none" stroke="midnightblue" d="M591.71,-69.25C523.69,-61.05 406.88,-46.39 307,-31 298.68,-29.72 289.91,-28.27 281.31,-26.8"/>
<polygon fill="midnightblue" stroke="midnightblue" points="281.79,-23.33 271.34,-25.06 280.6,-30.22 281.79,-23.33"/>
</g>
<!-- Node4 -->
<g id="node4" class="node">
<title>Node4</title>
<g id="a_node4"><a xlink:title=" ">
<polygon fill="none" stroke="#bfbfbf" points="316,-0.5 316,-30.5 472,-30.5 472,-0.5 316,-0.5"/>
<text text-anchor="start" x="324" y="-18.5" font-family="FreeSans.ttf" font-size="10.00">yarp/dev/LaserMeasurement</text>
<text text-anchor="middle" x="394" y="-7.5" font-family="FreeSans.ttf" font-size="10.00">Data.h</text>
</a>
</g>
</g>
<!-- Node1&#45;&gt;Node4 -->
<g id="edge3" class="edge">
<title>Node1&#45;&gt;Node4</title>
<path fill="none" stroke="midnightblue" d="M612.46,-67.48C573.89,-58.48 512.15,-44.07 464.12,-32.86"/>
<polygon fill="midnightblue" stroke="midnightblue" points="464.63,-29.39 454.1,-30.52 463.04,-36.2 464.63,-29.39"/>
</g>
<!-- Node5 -->
<g id="node5" class="node">
<title>Node5</title>
<g id="a_node5"><a xlink:title=" ">
<polygon fill="none" stroke="#bfbfbf" points="490.5,-6 490.5,-25 657.5,-25 657.5,-6 490.5,-6"/>
<text text-anchor="middle" x="574" y="-13" font-family="FreeSans.ttf" font-size="10.00">yarp/dev/Lidar2DDeviceBase.h</text>
</a>
</g>
</g>
<!-- Node1&#45;&gt;Node5 -->
<g id="edge4" class="edge">
<title>Node1&#45;&gt;Node5</title>
<path fill="none" stroke="midnightblue" d="M638.25,-67.48C626.45,-58.11 607.26,-42.88 592.92,-31.51"/>
<polygon fill="midnightblue" stroke="midnightblue" points="594.74,-28.48 584.73,-25.01 590.38,-33.97 594.74,-28.48"/>
</g>
<!-- Node6 -->
<g id="node6" class="node">
<title>Node6</title>
<g id="a_node6"><a xlink:title=" ">
<polygon fill="none" stroke="#bfbfbf" points="676,-6 676,-25 772,-25 772,-6 676,-6"/>
<text text-anchor="middle" x="724" y="-13" font-family="FreeSans.ttf" font-size="10.00">yarp/os/Stamp.h</text>
</a>
</g>
</g>
<!-- Node1&#45;&gt;Node6 -->
<g id="edge5" class="edge">
<title>Node1&#45;&gt;Node6</title>
<path fill="none" stroke="midnightblue" d="M659.75,-67.48C671.55,-58.11 690.74,-42.88 705.08,-31.51"/>
<polygon fill="midnightblue" stroke="midnightblue" points="707.62,-33.97 713.27,-25.01 703.26,-28.48 707.62,-33.97"/>
</g>
<!-- Node7 -->
<g id="node7" class="node">
<title>Node7</title>
<g id="a_node7"><a xlink:title=" ">
<polygon fill="none" stroke="#bfbfbf" points="790.5,-6 790.5,-25 909.5,-25 909.5,-6 790.5,-6"/>
<text text-anchor="middle" x="850" y="-13" font-family="FreeSans.ttf" font-size="10.00">boost/shared_ptr.hpp</text>
</a>
</g>
</g>
<!-- Node1&#45;&gt;Node7 -->
<g id="edge6" class="edge">
<title>Node1&#45;&gt;Node7</title>
<path fill="none" stroke="midnightblue" d="M677.8,-67.48C712.87,-57.09 772.26,-39.51 811.31,-27.95"/>
<polygon fill="midnightblue" stroke="midnightblue" points="812.66,-31.2 821.26,-25.01 810.67,-24.49 812.66,-31.2"/>
</g>
<!-- Node8 -->
<g id="node8" class="node">
<title>Node8</title>
<g id="a_node8"><a xlink:title=" ">
<polygon fill="none" stroke="#bfbfbf" points="928,-6 928,-25 1074,-25 1074,-6 928,-6"/>
<text text-anchor="middle" x="1001" y="-13" font-family="FreeSans.ttf" font-size="10.00">gazebo/common/Plugin.hh</text>
</a>
</g>
</g>
<!-- Node1&#45;&gt;Node8 -->
<g id="edge7" class="edge">
<title>Node1&#45;&gt;Node8</title>
<path fill="none" stroke="midnightblue" d="M701.04,-67.48C755.43,-58.54 843.24,-44.01 919,-31 926.9,-29.64 935.23,-28.19 943.42,-26.76"/>
<polygon fill="midnightblue" stroke="midnightblue" points="944.08,-30.19 953.32,-25.01 942.86,-23.3 944.08,-30.19"/>
</g>
<!-- Node9 -->
<g id="node9" class="node">
<title>Node9</title>
<g id="a_node9"><a xlink:title=" ">
<polygon fill="none" stroke="#bfbfbf" points="1092,-6 1092,-25 1140,-25 1140,-6 1092,-6"/>
<text text-anchor="middle" x="1116" y="-13" font-family="FreeSans.ttf" font-size="10.00">mutex</text>
</a>
</g>
</g>
<!-- Node1&#45;&gt;Node9 -->
<g id="edge8" class="edge">
<title>Node1&#45;&gt;Node9</title>
<path fill="none" stroke="midnightblue" d="M706.19,-75.68C790.17,-73.96 951.18,-65.88 1083,-31 1085.3,-30.39 1087.64,-29.65 1089.96,-28.82"/>
<polygon fill="midnightblue" stroke="midnightblue" points="1091.28,-32.06 1099.24,-25.07 1088.65,-25.57 1091.28,-32.06"/>
</g>
</g>
</svg>
