<?xml version="1.0" encoding="UTF-8" standalone="no"?>
<!DOCTYPE svg PUBLIC "-//W3C//DTD SVG 1.1//EN"
 "http://www.w3.org/Graphics/SVG/1.1/DTD/svg11.dtd">
<!-- Generated by graphviz version 2.43.0 (0)
 -->
<!-- Title: LaserSensorDriver.cpp Pages: 1 -->
<svg width="1919pt" height="151pt"
 viewBox="0.00 0.00 1918.50 151.00" xmlns="http://www.w3.org/2000/svg" xmlns:xlink="http://www.w3.org/1999/xlink">
<g id="graph0" class="graph" transform="scale(1 1) rotate(0) translate(4 147)">
<title>LaserSensorDriver.cpp</title>
<!-- Node1 -->
<g id="node1" class="node">
<title>Node1</title>
<g id="a_node1"><a xlink:title=" ">
<polygon fill="#bfbfbf" stroke="black" points="1489.5,-123.5 1489.5,-142.5 1614.5,-142.5 1614.5,-123.5 1489.5,-123.5"/>
<text text-anchor="middle" x="1552" y="-130.5" font-family="FreeSans.ttf" font-size="10.00">LaserSensorDriver.cpp</text>
</a>
</g>
</g>
<!-- Node2 -->
<g id="node2" class="node">
<title>Node2</title>
<g id="a_node2"><a xlink:href="LaserSensorDriver_8h.html" target="_top" xlink:title=" ">
<polygon fill="none" stroke="black" points="699,-67.5 699,-86.5 813,-86.5 813,-67.5 699,-67.5"/>
<text text-anchor="middle" x="756" y="-74.5" font-family="FreeSans.ttf" font-size="10.00">LaserSensorDriver.h</text>
</a>
</g>
</g>
<!-- Node1&#45;&gt;Node2 -->
<g id="edge1" class="edge">
<title>Node1&#45;&gt;Node2</title>
<path fill="none" stroke="midnightblue" d="M1489.21,-127.74C1341.89,-117.75 975.11,-92.86 823.37,-82.57"/>
<polygon fill="midnightblue" stroke="midnightblue" points="823.47,-79.07 813.25,-81.88 822.99,-86.05 823.47,-79.07"/>
</g>
<!-- Node12 -->
<g id="node12" class="node">
<title>Node12</title>
<g id="a_node12"><a xlink:href="Handler_8hh.html" target="_top" xlink:title=" ">
<polygon fill="none" stroke="black" points="1313,-67.5 1313,-86.5 1477,-86.5 1477,-67.5 1313,-67.5"/>
<text text-anchor="middle" x="1395" y="-74.5" font-family="FreeSans.ttf" font-size="10.00">GazeboYarpPlugins/Handler.hh</text>
</a>
</g>
</g>
<!-- Node1&#45;&gt;Node12 -->
<g id="edge11" class="edge">
<title>Node1&#45;&gt;Node12</title>
<path fill="none" stroke="midnightblue" d="M1527.12,-123.44C1500.71,-114.36 1458.78,-99.94 1429.26,-89.78"/>
<polygon fill="midnightblue" stroke="midnightblue" points="1430.36,-86.46 1419.76,-86.52 1428.08,-93.08 1430.36,-86.46"/>
</g>
<!-- Node17 -->
<g id="node17" class="node">
<title>Node17</title>
<g id="a_node17"><a xlink:title=" ">
<polygon fill="none" stroke="#bfbfbf" points="1495.5,-67.5 1495.5,-86.5 1608.5,-86.5 1608.5,-67.5 1495.5,-67.5"/>
<text text-anchor="middle" x="1552" y="-74.5" font-family="FreeSans.ttf" font-size="10.00">boost/bind/bind.hpp</text>
</a>
</g>
</g>
<!-- Node1&#45;&gt;Node17 -->
<g id="edge18" class="edge">
<title>Node1&#45;&gt;Node17</title>
<path fill="none" stroke="midnightblue" d="M1552,-123.08C1552,-116.01 1552,-105.86 1552,-96.99"/>
<polygon fill="midnightblue" stroke="midnightblue" points="1555.5,-96.75 1552,-86.75 1548.5,-96.75 1555.5,-96.75"/>
</g>
<!-- Node18 -->
<g id="node18" class="node">
<title>Node18</title>
<g id="a_node18"><a xlink:title=" ">
<polygon fill="none" stroke="#bfbfbf" points="1627,-67.5 1627,-86.5 1775,-86.5 1775,-67.5 1627,-67.5"/>
<text text-anchor="middle" x="1701" y="-74.5" font-family="FreeSans.ttf" font-size="10.00">gazebo/sensors/sensors.hh</text>
</a>
</g>
</g>
<!-- Node1&#45;&gt;Node18 -->
<g id="edge19" class="edge">
<title>Node1&#45;&gt;Node18</title>
<path fill="none" stroke="midnightblue" d="M1575.61,-123.44C1600.46,-114.44 1639.77,-100.19 1667.75,-90.05"/>
<polygon fill="midnightblue" stroke="midnightblue" points="1669.29,-93.21 1677.5,-86.52 1666.91,-86.63 1669.29,-93.21"/>
</g>
<!-- Node19 -->
<g id="node19" class="node">
<title>Node19</title>
<g id="a_node19"><a xlink:title=" ">
<polygon fill="none" stroke="#bfbfbf" points="1793.5,-67.5 1793.5,-86.5 1910.5,-86.5 1910.5,-67.5 1793.5,-67.5"/>
<text text-anchor="middle" x="1852" y="-74.5" font-family="FreeSans.ttf" font-size="10.00">yarp/os/LogStream.h</text>
</a>
</g>
</g>
<!-- Node1&#45;&gt;Node19 -->
<g id="edge20" class="edge">
<title>Node1&#45;&gt;Node19</title>
<path fill="none" stroke="midnightblue" d="M1599.54,-123.44C1652.53,-113.9 1738.2,-98.48 1794.82,-88.29"/>
<polygon fill="midnightblue" stroke="midnightblue" points="1795.46,-91.73 1804.69,-86.52 1794.22,-84.84 1795.46,-91.73"/>
</g>
<!-- Node3 -->
<g id="node3" class="node">
<title>Node3</title>
<g id="a_node3"><a xlink:title=" ">
<polygon fill="none" stroke="#bfbfbf" points="446,-6 446,-25 580,-25 580,-6 446,-6"/>
<text text-anchor="middle" x="513" y="-13" font-family="FreeSans.ttf" font-size="10.00">yarp/dev/DeviceDriver.h</text>
</a>
</g>
</g>
<!-- Node2&#45;&gt;Node3 -->
<g id="edge2" class="edge">
<title>Node2&#45;&gt;Node3</title>
<path fill="none" stroke="midnightblue" d="M721.18,-67.48C678.15,-56.94 604.83,-38.99 557.69,-27.44"/>
<polygon fill="midnightblue" stroke="midnightblue" points="558.3,-23.99 547.75,-25.01 556.63,-30.79 558.3,-23.99"/>
</g>
<!-- Node4 -->
<g id="node4" class="node">
<title>Node4</title>
<g id="a_node4"><a xlink:title=" ">
<polygon fill="none" stroke="#bfbfbf" points="598,-6 598,-25 744,-25 744,-6 598,-6"/>
<text text-anchor="middle" x="671" y="-13" font-family="FreeSans.ttf" font-size="10.00">yarp/dev/IRangefinder2D.h</text>
</a>
</g>
</g>
<!-- Node2&#45;&gt;Node4 -->
<g id="edge3" class="edge">
<title>Node2&#45;&gt;Node4</title>
<path fill="none" stroke="midnightblue" d="M743.82,-67.48C730.19,-57.93 707.87,-42.31 691.53,-30.87"/>
<polygon fill="midnightblue" stroke="midnightblue" points="693.36,-27.88 683.16,-25.01 689.34,-33.61 693.36,-27.88"/>
</g>
<!-- Node5 -->
<g id="node5" class="node">
<title>Node5</title>
<g id="a_node5"><a xlink:title=" ">
<polygon fill="none" stroke="#bfbfbf" points="762,-0.5 762,-30.5 918,-30.5 918,-0.5 762,-0.5"/>
<text text-anchor="start" x="770" y="-18.5" font-family="FreeSans.ttf" font-size="10.00">yarp/dev/LaserMeasurement</text>
<text text-anchor="middle" x="840" y="-7.5" font-family="FreeSans.ttf" font-size="10.00">Data.h</text>
</a>
</g>
</g>
<!-- Node2&#45;&gt;Node5 -->
<g id="edge4" class="edge">
<title>Node2&#45;&gt;Node5</title>
<path fill="none" stroke="midnightblue" d="M768.04,-67.48C779.41,-59.42 796.91,-47.02 811.8,-36.47"/>
<polygon fill="midnightblue" stroke="midnightblue" points="814.07,-39.16 820.2,-30.52 810.02,-33.45 814.07,-39.16"/>
</g>
<!-- Node6 -->
<g id="node6" class="node">
<title>Node6</title>
<g id="a_node6"><a xlink:title=" ">
<polygon fill="none" stroke="#bfbfbf" points="936.5,-6 936.5,-25 1103.5,-25 1103.5,-6 936.5,-6"/>
<text text-anchor="middle" x="1020" y="-13" font-family="FreeSans.ttf" font-size="10.00">yarp/dev/Lidar2DDeviceBase.h</text>
</a>
</g>
</g>
<!-- Node2&#45;&gt;Node6 -->
<g id="edge5" class="edge">
<title>Node2&#45;&gt;Node6</title>
<path fill="none" stroke="midnightblue" d="M793.82,-67.48C840.87,-56.87 921.23,-38.76 972.42,-27.22"/>
<polygon fill="midnightblue" stroke="midnightblue" points="973.26,-30.62 982.25,-25.01 971.72,-23.79 973.26,-30.62"/>
</g>
<!-- Node7 -->
<g id="node7" class="node">
<title>Node7</title>
<g id="a_node7"><a xlink:title=" ">
<polygon fill="none" stroke="#bfbfbf" points="0,-6 0,-25 96,-25 96,-6 0,-6"/>
<text text-anchor="middle" x="48" y="-13" font-family="FreeSans.ttf" font-size="10.00">yarp/os/Stamp.h</text>
</a>
</g>
</g>
<!-- Node2&#45;&gt;Node7 -->
<g id="edge6" class="edge">
<title>Node2&#45;&gt;Node7</title>
<path fill="none" stroke="midnightblue" d="M698.57,-75.49C584.65,-73.72 322.29,-65.86 105,-31 99.19,-30.07 93.1,-28.82 87.16,-27.45"/>
<polygon fill="midnightblue" stroke="midnightblue" points="87.92,-24.03 77.37,-25.05 86.25,-30.83 87.92,-24.03"/>
</g>
<!-- Node8 -->
<g id="node8" class="node">
<title>Node8</title>
<g id="a_node8"><a xlink:title=" ">
<polygon fill="none" stroke="#bfbfbf" points="114.5,-6 114.5,-25 263.5,-25 263.5,-6 114.5,-6"/>
<text text-anchor="middle" x="189" y="-13" font-family="FreeSans.ttf" font-size="10.00">yarp/dev/IPreciselyTimed.h</text>
</a>
</g>
</g>
<!-- Node2&#45;&gt;Node8 -->
<g id="edge7" class="edge">
<title>Node2&#45;&gt;Node8</title>
<path fill="none" stroke="midnightblue" d="M698.96,-72.13C608.43,-65.67 426.4,-51.35 273,-31 263.84,-29.78 254.16,-28.3 244.74,-26.75"/>
<polygon fill="midnightblue" stroke="midnightblue" points="245.12,-23.26 234.68,-25.05 243.95,-30.17 245.12,-23.26"/>
</g>
<!-- Node9 -->
<g id="node9" class="node">
<title>Node9</title>
<g id="a_node9"><a xlink:title=" ">
<polygon fill="none" stroke="#bfbfbf" points="1187.5,-6 1187.5,-25 1306.5,-25 1306.5,-6 1187.5,-6"/>
<text text-anchor="middle" x="1247" y="-13" font-family="FreeSans.ttf" font-size="10.00">boost/shared_ptr.hpp</text>
</a>
</g>
</g>
<!-- Node2&#45;&gt;Node9 -->
<g id="edge8" class="edge">
<title>Node2&#45;&gt;Node9</title>
<path fill="none" stroke="midnightblue" d="M813.23,-71.74C894.61,-65.27 1048.28,-51.49 1178,-31 1185.15,-29.87 1192.68,-28.49 1200.03,-27.03"/>
<polygon fill="midnightblue" stroke="midnightblue" points="1200.79,-30.45 1209.89,-25.02 1199.39,-23.59 1200.79,-30.45"/>
</g>
<!-- Node10 -->
<g id="node10" class="node">
<title>Node10</title>
<g id="a_node10"><a xlink:title=" ">
<polygon fill="none" stroke="#bfbfbf" points="282,-6 282,-25 428,-25 428,-6 282,-6"/>
<text text-anchor="middle" x="355" y="-13" font-family="FreeSans.ttf" font-size="10.00">gazebo/common/Plugin.hh</text>
</a>
</g>
</g>
<!-- Node2&#45;&gt;Node10 -->
<g id="edge9" class="edge">
<title>Node2&#45;&gt;Node10</title>
<path fill="none" stroke="midnightblue" d="M698.86,-68.55C634.96,-60.08 528.42,-45.53 437,-31 428.79,-29.7 420.13,-28.25 411.64,-26.78"/>
<polygon fill="midnightblue" stroke="midnightblue" points="412.24,-23.33 401.79,-25.06 411.04,-30.23 412.24,-23.33"/>
</g>
<!-- Node11 -->
<g id="node11" class="node">
<title>Node11</title>
<g id="a_node11"><a xlink:title=" ">
<polygon fill="none" stroke="#bfbfbf" points="1121,-6 1121,-25 1169,-25 1169,-6 1121,-6"/>
<text text-anchor="middle" x="1145" y="-13" font-family="FreeSans.ttf" font-size="10.00">mutex</text>
</a>
</g>
</g>
<!-- Node2&#45;&gt;Node11 -->
<g id="edge10" class="edge">
<title>Node2&#45;&gt;Node11</title>
<path fill="none" stroke="midnightblue" d="M813.1,-73.84C884.25,-70 1009.03,-59.48 1112,-31 1114.16,-30.4 1116.35,-29.69 1118.54,-28.91"/>
<polygon fill="midnightblue" stroke="midnightblue" points="1119.91,-32.13 1127.87,-25.14 1117.29,-25.64 1119.91,-32.13"/>
</g>
<!-- Node12&#45;&gt;Node9 -->
<g id="edge14" class="edge">
<title>Node12&#45;&gt;Node9</title>
<path fill="none" stroke="midnightblue" d="M1373.8,-67.48C1348.63,-57.36 1306.46,-40.4 1277.72,-28.85"/>
<polygon fill="midnightblue" stroke="midnightblue" points="1278.75,-25.49 1268.17,-25.01 1276.14,-31.99 1278.75,-25.49"/>
</g>
<!-- Node12&#45;&gt;Node11 -->
<g id="edge15" class="edge">
<title>Node12&#45;&gt;Node11</title>
<path fill="none" stroke="midnightblue" d="M1337.5,-67.46C1293.27,-60.08 1230.96,-47.92 1178,-31 1176.08,-30.39 1174.12,-29.7 1172.16,-28.96"/>
<polygon fill="midnightblue" stroke="midnightblue" points="1173.13,-25.58 1162.55,-25.02 1170.47,-32.05 1173.13,-25.58"/>
</g>
<!-- Node13 -->
<g id="node13" class="node">
<title>Node13</title>
<g id="a_node13"><a xlink:title=" ">
<polygon fill="none" stroke="#bfbfbf" points="1483,-6 1483,-25 1521,-25 1521,-6 1483,-6"/>
<text text-anchor="middle" x="1502" y="-13" font-family="FreeSans.ttf" font-size="10.00">map</text>
</a>
</g>
</g>
<!-- Node12&#45;&gt;Node13 -->
<g id="edge12" class="edge">
<title>Node12&#45;&gt;Node13</title>
<path fill="none" stroke="midnightblue" d="M1410.33,-67.48C1427.97,-57.67 1457.16,-41.43 1477.86,-29.92"/>
<polygon fill="midnightblue" stroke="midnightblue" points="1479.66,-32.93 1486.7,-25.01 1476.26,-26.81 1479.66,-32.93"/>
</g>
<!-- Node14 -->
<g id="node14" class="node">
<title>Node14</title>
<g id="a_node14"><a xlink:title=" ">
<polygon fill="none" stroke="#bfbfbf" points="1539.5,-6 1539.5,-25 1632.5,-25 1632.5,-6 1539.5,-6"/>
<text text-anchor="middle" x="1586" y="-13" font-family="FreeSans.ttf" font-size="10.00">sdf/sdf_config.h</text>
</a>
</g>
</g>
<!-- Node12&#45;&gt;Node14 -->
<g id="edge13" class="edge">
<title>Node12&#45;&gt;Node14</title>
<path fill="none" stroke="midnightblue" d="M1422.37,-67.48C1455.55,-57.14 1511.65,-39.66 1548.76,-28.1"/>
<polygon fill="midnightblue" stroke="midnightblue" points="1550.18,-31.32 1558.69,-25.01 1548.1,-24.64 1550.18,-31.32"/>
</g>
<!-- Node15 -->
<g id="node15" class="node">
<title>Node15</title>
<g id="a_node15"><a xlink:title=" ">
<polygon fill="none" stroke="#bfbfbf" points="1651,-6 1651,-25 1773,-25 1773,-6 1651,-6"/>
<text text-anchor="middle" x="1712" y="-13" font-family="FreeSans.ttf" font-size="10.00">yarp/dev/PolyDriver.h</text>
</a>
</g>
</g>
<!-- Node12&#45;&gt;Node15 -->
<g id="edge16" class="edge">
<title>Node12&#45;&gt;Node15</title>
<path fill="none" stroke="midnightblue" d="M1443.81,-67.47C1493.68,-58.66 1573.33,-44.37 1642,-31 1648.32,-29.77 1654.94,-28.44 1661.5,-27.11"/>
<polygon fill="midnightblue" stroke="midnightblue" points="1662.59,-30.46 1671.69,-25.02 1661.19,-23.6 1662.59,-30.46"/>
</g>
<!-- Node16 -->
<g id="node16" class="node">
<title>Node16</title>
<g id="a_node16"><a xlink:title=" ">
<polygon fill="none" stroke="#bfbfbf" points="1325,-6 1325,-25 1465,-25 1465,-6 1325,-6"/>
<text text-anchor="middle" x="1395" y="-13" font-family="FreeSans.ttf" font-size="10.00">yarp/dev/PolyDriverList.h</text>
</a>
</g>
</g>
<!-- Node12&#45;&gt;Node16 -->
<g id="edge17" class="edge">
<title>Node12&#45;&gt;Node16</title>
<path fill="none" stroke="midnightblue" d="M1395,-67.48C1395,-59.08 1395,-45.98 1395,-35.16"/>
<polygon fill="midnightblue" stroke="midnightblue" points="1398.5,-35.01 1395,-25.01 1391.5,-35.01 1398.5,-35.01"/>
</g>
</g>
</svg>
