<?xml version="1.0" encoding="UTF-8" standalone="no"?>
<!DOCTYPE svg PUBLIC "-//W3C//DTD SVG 1.1//EN"
 "http://www.w3.org/Graphics/SVG/1.1/DTD/svg11.dtd">
<!-- Generated by graphviz version 2.49.0 (20210829.0051)
 -->
<!-- Title: LaserSensor.cc Pages: 1 -->
<svg width="2731pt" height="151pt"
 viewBox="0.00 0.00 2730.50 151.00" xmlns="http://www.w3.org/2000/svg" xmlns:xlink="http://www.w3.org/1999/xlink">
<g id="graph0" class="graph" transform="scale(1 1) rotate(0) translate(4 147)">
<title>LaserSensor.cc</title>
<!-- Node1 -->
<g id="node1" class="node">
<title>Node1</title>
<g id="a_node1"><a xlink:title=" ">
<polygon fill="#bfbfbf" stroke="black" points="1961,-123.5 1961,-142.5 2050,-142.5 2050,-123.5 1961,-123.5"/>
<text text-anchor="middle" x="2005.5" y="-130.5" font-family="FreeSans.ttf" font-size="10.00">LaserSensor.cc</text>
</a>
</g>
</g>
<!-- Node2 -->
<g id="node2" class="node">
<title>Node2</title>
<g id="a_node2"><a xlink:href="LaserSensor_8hh.html" target="_top" xlink:title=" ">
<polygon fill="none" stroke="black" points="1229.5,-67.5 1229.5,-86.5 1319.5,-86.5 1319.5,-67.5 1229.5,-67.5"/>
<text text-anchor="middle" x="1274.5" y="-74.5" font-family="FreeSans.ttf" font-size="10.00">LaserSensor.hh</text>
</a>
</g>
</g>
<!-- Node1&#45;&gt;Node2 -->
<g id="edge1" class="edge">
<title>Node1&#45;&gt;Node2</title>
<path fill="none" stroke="midnightblue" d="M1960.81,-129.44C1855.81,-123.31 1585.17,-106.8 1359.5,-87 1349.95,-86.16 1339.82,-85.17 1329.99,-84.17"/>
<polygon fill="midnightblue" stroke="midnightblue" points="1330.22,-80.67 1319.91,-83.11 1329.49,-87.63 1330.22,-80.67"/>
</g>
<!-- Node4 -->
<g id="node4" class="node">
<title>Node4</title>
<g id="a_node4"><a xlink:title=" ">
<polygon fill="none" stroke="#bfbfbf" points="1187.5,-6 1187.5,-25 1309.5,-25 1309.5,-6 1187.5,-6"/>
<text text-anchor="middle" x="1248.5" y="-13" font-family="FreeSans.ttf" font-size="10.00">yarp/dev/PolyDriver.h</text>
</a>
</g>
</g>
<!-- Node1&#45;&gt;Node4 -->
<g id="edge34" class="edge">
<title>Node1&#45;&gt;Node4</title>
<path fill="none" stroke="midnightblue" d="M1960.92,-132.41C1865.2,-132.41 1633.37,-127.78 1444.5,-87 1382.52,-73.62 1313.5,-45.5 1276.16,-29.1"/>
<polygon fill="midnightblue" stroke="midnightblue" points="1277.49,-25.87 1266.93,-25.01 1274.65,-32.26 1277.49,-25.87"/>
</g>
<!-- Node6 -->
<g id="node6" class="node">
<title>Node6</title>
<g id="a_node6"><a xlink:href="LaserSensorDriver_8h.html" target="_top" xlink:title=" ">
<polygon fill="none" stroke="black" points="720.5,-67.5 720.5,-86.5 834.5,-86.5 834.5,-67.5 720.5,-67.5"/>
<text text-anchor="middle" x="777.5" y="-74.5" font-family="FreeSans.ttf" font-size="10.00">LaserSensorDriver.h</text>
</a>
</g>
</g>
<!-- Node1&#45;&gt;Node6 -->
<g id="edge5" class="edge">
<title>Node1&#45;&gt;Node6</title>
<path fill="none" stroke="midnightblue" d="M1960.7,-130.03C1775.36,-121.88 1067.79,-90.77 845.05,-80.97"/>
<polygon fill="midnightblue" stroke="midnightblue" points="844.96,-77.46 834.81,-80.52 844.65,-84.46 844.96,-77.46"/>
</g>
<!-- Node15 -->
<g id="node15" class="node">
<title>Node15</title>
<g id="a_node15"><a xlink:href="LaserSensorLog_8h.html" target="_top" xlink:title=" ">
<polygon fill="none" stroke="black" points="2105.5,-67.5 2105.5,-86.5 2207.5,-86.5 2207.5,-67.5 2105.5,-67.5"/>
<text text-anchor="middle" x="2156.5" y="-74.5" font-family="FreeSans.ttf" font-size="10.00">LaserSensorLog.h</text>
</a>
</g>
</g>
<!-- Node1&#45;&gt;Node15 -->
<g id="edge15" class="edge">
<title>Node1&#45;&gt;Node15</title>
<path fill="none" stroke="midnightblue" d="M2029.43,-123.44C2054.72,-114.4 2094.8,-100.06 2123.18,-89.92"/>
<polygon fill="midnightblue" stroke="midnightblue" points="2124.45,-93.18 2132.69,-86.52 2122.09,-86.59 2124.45,-93.18"/>
</g>
<!-- Node17 -->
<g id="node17" class="node">
<title>Node17</title>
<g id="a_node17"><a xlink:title=" ">
<polygon fill="none" stroke="#bfbfbf" points="2457,-6 2457,-25 2574,-25 2574,-6 2457,-6"/>
<text text-anchor="middle" x="2515.5" y="-13" font-family="FreeSans.ttf" font-size="10.00">yarp/os/LogStream.h</text>
</a>
</g>
</g>
<!-- Node1&#45;&gt;Node17 -->
<g id="edge37" class="edge">
<title>Node1&#45;&gt;Node17</title>
<path fill="none" stroke="midnightblue" d="M2050.08,-125.99C2093.44,-119.34 2160.75,-106.85 2216.5,-87 2234.85,-80.47 2237.07,-73.3 2255.5,-67 2337.65,-38.9 2362.37,-48.05 2447.5,-31 2453.64,-29.77 2460.08,-28.44 2466.44,-27.11"/>
<polygon fill="midnightblue" stroke="midnightblue" points="2467.28,-30.51 2476.34,-25.02 2465.83,-23.66 2467.28,-30.51"/>
</g>
<!-- Node18 -->
<g id="node18" class="node">
<title>Node18</title>
<g id="a_node18"><a xlink:href="Handler_8hh.html" target="_top" xlink:title=" ">
<polygon fill="none" stroke="black" points="1453.5,-67.5 1453.5,-86.5 1617.5,-86.5 1617.5,-67.5 1453.5,-67.5"/>
<text text-anchor="middle" x="1535.5" y="-74.5" font-family="FreeSans.ttf" font-size="10.00">GazeboYarpPlugins/Handler.hh</text>
</a>
</g>
</g>
<!-- Node1&#45;&gt;Node18 -->
<g id="edge18" class="edge">
<title>Node1&#45;&gt;Node18</title>
<path fill="none" stroke="midnightblue" d="M1960.86,-126.87C1882.66,-117.89 1719.72,-99.17 1619.75,-87.68"/>
<polygon fill="midnightblue" stroke="midnightblue" points="1620.02,-84.19 1609.68,-86.52 1619.22,-91.14 1620.02,-84.19"/>
</g>
<!-- Node22 -->
<g id="node22" class="node">
<title>Node22</title>
<g id="a_node22"><a xlink:href="common_8h.html" target="_top" xlink:title=" ">
<polygon fill="none" stroke="black" points="1923.5,-67.5 1923.5,-86.5 2087.5,-86.5 2087.5,-67.5 1923.5,-67.5"/>
<text text-anchor="middle" x="2005.5" y="-74.5" font-family="FreeSans.ttf" font-size="10.00">GazeboYarpPlugins/common.h</text>
</a>
</g>
</g>
<!-- Node1&#45;&gt;Node22 -->
<g id="edge25" class="edge">
<title>Node1&#45;&gt;Node22</title>
<path fill="none" stroke="midnightblue" d="M2005.5,-123.08C2005.5,-116.01 2005.5,-105.86 2005.5,-96.99"/>
<polygon fill="midnightblue" stroke="midnightblue" points="2009,-96.75 2005.5,-86.75 2002,-96.75 2009,-96.75"/>
</g>
<!-- Node24 -->
<g id="node24" class="node">
<title>Node24</title>
<g id="a_node24"><a xlink:href="ConfHelpers_8hh.html" target="_top" xlink:title=" ">
<polygon fill="none" stroke="black" points="1718,-67.5 1718,-86.5 1905,-86.5 1905,-67.5 1718,-67.5"/>
<text text-anchor="middle" x="1811.5" y="-74.5" font-family="FreeSans.ttf" font-size="10.00">GazeboYarpPlugins/ConfHelpers.hh</text>
</a>
</g>
</g>
<!-- Node1&#45;&gt;Node24 -->
<g id="edge28" class="edge">
<title>Node1&#45;&gt;Node24</title>
<path fill="none" stroke="midnightblue" d="M1974.76,-123.44C1941.56,-114.2 1888.51,-99.44 1851.94,-89.26"/>
<polygon fill="midnightblue" stroke="midnightblue" points="1852.67,-85.83 1842.1,-86.52 1850.79,-92.57 1852.67,-85.83"/>
</g>
<!-- Node27 -->
<g id="node27" class="node">
<title>Node27</title>
<g id="a_node27"><a xlink:title=" ">
<polygon fill="none" stroke="#bfbfbf" points="2264,-67.5 2264,-86.5 2425,-86.5 2425,-67.5 2264,-67.5"/>
<text text-anchor="middle" x="2344.5" y="-74.5" font-family="FreeSans.ttf" font-size="10.00">gazebo/sensors/RaySensor.hh</text>
</a>
</g>
</g>
<!-- Node1&#45;&gt;Node27 -->
<g id="edge33" class="edge">
<title>Node1&#45;&gt;Node27</title>
<path fill="none" stroke="midnightblue" d="M2050.17,-124.88C2109.25,-115.47 2213.75,-98.83 2281.02,-88.11"/>
<polygon fill="midnightblue" stroke="midnightblue" points="2281.75,-91.54 2291.07,-86.51 2280.65,-84.63 2281.75,-91.54"/>
</g>
<!-- Node28 -->
<g id="node28" class="node">
<title>Node28</title>
<g id="a_node28"><a xlink:title=" ">
<polygon fill="none" stroke="#bfbfbf" points="2443,-67.5 2443,-86.5 2598,-86.5 2598,-67.5 2443,-67.5"/>
<text text-anchor="middle" x="2520.5" y="-74.5" font-family="FreeSans.ttf" font-size="10.00">yarp/dev/IMultipleWrapper.h</text>
</a>
</g>
</g>
<!-- Node1&#45;&gt;Node28 -->
<g id="edge35" class="edge">
<title>Node1&#45;&gt;Node28</title>
<path fill="none" stroke="midnightblue" d="M2050.3,-127.3C2135.38,-118.38 2321.7,-98.85 2432.55,-87.22"/>
<polygon fill="midnightblue" stroke="midnightblue" points="2433.13,-90.68 2442.71,-86.16 2432.4,-83.72 2433.13,-90.68"/>
</g>
<!-- Node29 -->
<g id="node29" class="node">
<title>Node29</title>
<g id="a_node29"><a xlink:title=" ">
<polygon fill="none" stroke="#bfbfbf" points="2616.5,-67.5 2616.5,-86.5 2722.5,-86.5 2722.5,-67.5 2616.5,-67.5"/>
<text text-anchor="middle" x="2669.5" y="-74.5" font-family="FreeSans.ttf" font-size="10.00">yarp/os/Network.h</text>
</a>
</g>
</g>
<!-- Node1&#45;&gt;Node29 -->
<g id="edge36" class="edge">
<title>Node1&#45;&gt;Node29</title>
<path fill="none" stroke="midnightblue" d="M2050.16,-129.73C2148.6,-124.49 2391.9,-110.28 2606.25,-87.06"/>
<polygon fill="midnightblue" stroke="midnightblue" points="2606.87,-90.52 2616.43,-85.95 2606.11,-83.56 2606.87,-90.52"/>
</g>
<!-- Node3 -->
<g id="node3" class="node">
<title>Node3</title>
<g id="a_node3"><a xlink:title=" ">
<polygon fill="none" stroke="#bfbfbf" points="957.5,-6 957.5,-25 1103.5,-25 1103.5,-6 957.5,-6"/>
<text text-anchor="middle" x="1030.5" y="-13" font-family="FreeSans.ttf" font-size="10.00">gazebo/common/Plugin.hh</text>
</a>
</g>
</g>
<!-- Node2&#45;&gt;Node3 -->
<g id="edge2" class="edge">
<title>Node2&#45;&gt;Node3</title>
<path fill="none" stroke="midnightblue" d="M1239.54,-67.48C1196.33,-56.94 1122.71,-38.99 1075.37,-27.44"/>
<polygon fill="midnightblue" stroke="midnightblue" points="1075.94,-23.98 1065.39,-25.01 1074.28,-30.78 1075.94,-23.98"/>
</g>
<!-- Node2&#45;&gt;Node4 -->
<g id="edge3" class="edge">
<title>Node2&#45;&gt;Node4</title>
<path fill="none" stroke="midnightblue" d="M1270.77,-67.48C1267.03,-58.9 1261.14,-45.43 1256.36,-34.48"/>
<polygon fill="midnightblue" stroke="midnightblue" points="1259.43,-32.77 1252.22,-25.01 1253.02,-35.57 1259.43,-32.77"/>
</g>
<!-- Node5 -->
<g id="node5" class="node">
<title>Node5</title>
<g id="a_node5"><a xlink:title=" ">
<polygon fill="none" stroke="#bfbfbf" points="1983.5,-6 1983.5,-25 2027.5,-25 2027.5,-6 1983.5,-6"/>
<text text-anchor="middle" x="2005.5" y="-13" font-family="FreeSans.ttf" font-size="10.00">string</text>
</a>
</g>
</g>
<!-- Node2&#45;&gt;Node5 -->
<g id="edge4" class="edge">
<title>Node2&#45;&gt;Node5</title>
<path fill="none" stroke="midnightblue" d="M1319.65,-73.56C1469.51,-65.4 1942.76,-39.13 1974.5,-31 1976.49,-30.49 1978.5,-29.86 1980.5,-29.14"/>
<polygon fill="midnightblue" stroke="midnightblue" points="1982.3,-32.17 1990.15,-25.06 1979.58,-25.73 1982.3,-32.17"/>
</g>
<!-- Node6&#45;&gt;Node3 -->
<g id="edge13" class="edge">
<title>Node6&#45;&gt;Node3</title>
<path fill="none" stroke="midnightblue" d="M813.75,-67.48C858.65,-56.92 935.21,-38.91 984.28,-27.37"/>
<polygon fill="midnightblue" stroke="midnightblue" points="985.39,-30.71 994.32,-25.01 983.78,-23.89 985.39,-30.71"/>
</g>
<!-- Node7 -->
<g id="node7" class="node">
<title>Node7</title>
<g id="a_node7"><a xlink:title=" ">
<polygon fill="none" stroke="#bfbfbf" points="467.5,-6 467.5,-25 601.5,-25 601.5,-6 467.5,-6"/>
<text text-anchor="middle" x="534.5" y="-13" font-family="FreeSans.ttf" font-size="10.00">yarp/dev/DeviceDriver.h</text>
</a>
</g>
</g>
<!-- Node6&#45;&gt;Node7 -->
<g id="edge6" class="edge">
<title>Node6&#45;&gt;Node7</title>
<path fill="none" stroke="midnightblue" d="M742.68,-67.48C699.65,-56.94 626.33,-38.99 579.19,-27.44"/>
<polygon fill="midnightblue" stroke="midnightblue" points="579.8,-23.99 569.25,-25.01 578.13,-30.79 579.8,-23.99"/>
</g>
<!-- Node8 -->
<g id="node8" class="node">
<title>Node8</title>
<g id="a_node8"><a xlink:title=" ">
<polygon fill="none" stroke="#bfbfbf" points="619.5,-6 619.5,-25 765.5,-25 765.5,-6 619.5,-6"/>
<text text-anchor="middle" x="692.5" y="-13" font-family="FreeSans.ttf" font-size="10.00">yarp/dev/IRangefinder2D.h</text>
</a>
</g>
</g>
<!-- Node6&#45;&gt;Node8 -->
<g id="edge7" class="edge">
<title>Node6&#45;&gt;Node8</title>
<path fill="none" stroke="midnightblue" d="M765.32,-67.48C751.69,-57.93 729.37,-42.31 713.03,-30.87"/>
<polygon fill="midnightblue" stroke="midnightblue" points="714.86,-27.88 704.66,-25.01 710.84,-33.61 714.86,-27.88"/>
</g>
<!-- Node9 -->
<g id="node9" class="node">
<title>Node9</title>
<g id="a_node9"><a xlink:title=" ">
<polygon fill="none" stroke="#bfbfbf" points="783.5,-0.5 783.5,-30.5 939.5,-30.5 939.5,-0.5 783.5,-0.5"/>
<text text-anchor="start" x="791.5" y="-18.5" font-family="FreeSans.ttf" font-size="10.00">yarp/dev/LaserMeasurement</text>
<text text-anchor="middle" x="861.5" y="-7.5" font-family="FreeSans.ttf" font-size="10.00">Data.h</text>
</a>
</g>
</g>
<!-- Node6&#45;&gt;Node9 -->
<g id="edge8" class="edge">
<title>Node6&#45;&gt;Node9</title>
<path fill="none" stroke="midnightblue" d="M789.54,-67.48C800.91,-59.42 818.41,-47.02 833.3,-36.47"/>
<polygon fill="midnightblue" stroke="midnightblue" points="835.57,-39.16 841.7,-30.52 831.52,-33.45 835.57,-39.16"/>
</g>
<!-- Node10 -->
<g id="node10" class="node">
<title>Node10</title>
<g id="a_node10"><a xlink:title=" ">
<polygon fill="none" stroke="#bfbfbf" points="0,-6 0,-25 167,-25 167,-6 0,-6"/>
<text text-anchor="middle" x="83.5" y="-13" font-family="FreeSans.ttf" font-size="10.00">yarp/dev/Lidar2DDeviceBase.h</text>
</a>
</g>
</g>
<!-- Node6&#45;&gt;Node10 -->
<g id="edge9" class="edge">
<title>Node6&#45;&gt;Node10</title>
<path fill="none" stroke="midnightblue" d="M720.18,-73.24C613.11,-67.74 375.55,-53.93 176.5,-31 165.81,-29.77 154.47,-28.21 143.52,-26.58"/>
<polygon fill="midnightblue" stroke="midnightblue" points="144.01,-23.11 133.6,-25.06 142.95,-30.03 144.01,-23.11"/>
</g>
<!-- Node11 -->
<g id="node11" class="node">
<title>Node11</title>
<g id="a_node11"><a xlink:title=" ">
<polygon fill="none" stroke="#bfbfbf" points="185.5,-6 185.5,-25 281.5,-25 281.5,-6 185.5,-6"/>
<text text-anchor="middle" x="233.5" y="-13" font-family="FreeSans.ttf" font-size="10.00">yarp/os/Stamp.h</text>
</a>
</g>
</g>
<!-- Node6&#45;&gt;Node11 -->
<g id="edge10" class="edge">
<title>Node6&#45;&gt;Node11</title>
<path fill="none" stroke="midnightblue" d="M720.14,-73.62C628.69,-69.17 444.46,-57.53 290.5,-31 284.97,-30.05 279.18,-28.83 273.5,-27.52"/>
<polygon fill="midnightblue" stroke="midnightblue" points="274.03,-24.04 263.48,-25.07 272.37,-30.84 274.03,-24.04"/>
</g>
<!-- Node12 -->
<g id="node12" class="node">
<title>Node12</title>
<g id="a_node12"><a xlink:title=" ">
<polygon fill="none" stroke="#bfbfbf" points="300,-6 300,-25 449,-25 449,-6 300,-6"/>
<text text-anchor="middle" x="374.5" y="-13" font-family="FreeSans.ttf" font-size="10.00">yarp/dev/IPreciselyTimed.h</text>
</a>
</g>
</g>
<!-- Node6&#45;&gt;Node12 -->
<g id="edge11" class="edge">
<title>Node6&#45;&gt;Node12</title>
<path fill="none" stroke="midnightblue" d="M720.37,-68.48C656.48,-59.95 549.95,-45.34 458.5,-31 450.09,-29.68 441.23,-28.22 432.53,-26.76"/>
<polygon fill="midnightblue" stroke="midnightblue" points="432.88,-23.27 422.43,-25.04 431.7,-30.17 432.88,-23.27"/>
</g>
<!-- Node13 -->
<g id="node13" class="node">
<title>Node13</title>
<g id="a_node13"><a xlink:title=" ">
<polygon fill="none" stroke="#bfbfbf" points="1328,-6 1328,-25 1447,-25 1447,-6 1328,-6"/>
<text text-anchor="middle" x="1387.5" y="-13" font-family="FreeSans.ttf" font-size="10.00">boost/shared_ptr.hpp</text>
</a>
</g>
</g>
<!-- Node6&#45;&gt;Node13 -->
<g id="edge12" class="edge">
<title>Node6&#45;&gt;Node13</title>
<path fill="none" stroke="midnightblue" d="M834.62,-73.58C933.59,-68.88 1143.17,-56.61 1318.5,-31 1325.91,-29.92 1333.72,-28.52 1341.32,-27.03"/>
<polygon fill="midnightblue" stroke="midnightblue" points="1342.03,-30.46 1351.13,-25.03 1340.63,-23.6 1342.03,-30.46"/>
</g>
<!-- Node14 -->
<g id="node14" class="node">
<title>Node14</title>
<g id="a_node14"><a xlink:title=" ">
<polygon fill="none" stroke="#bfbfbf" points="1121.5,-6 1121.5,-25 1169.5,-25 1169.5,-6 1121.5,-6"/>
<text text-anchor="middle" x="1145.5" y="-13" font-family="FreeSans.ttf" font-size="10.00">mutex</text>
</a>
</g>
</g>
<!-- Node6&#45;&gt;Node14 -->
<g id="edge14" class="edge">
<title>Node6&#45;&gt;Node14</title>
<path fill="none" stroke="midnightblue" d="M834.79,-73.19C902.29,-68.77 1017.3,-57.73 1112.5,-31 1114.65,-30.4 1116.85,-29.68 1119.03,-28.89"/>
<polygon fill="midnightblue" stroke="midnightblue" points="1120.41,-32.11 1128.37,-25.11 1117.78,-25.62 1120.41,-32.11"/>
</g>
<!-- Node16 -->
<g id="node16" class="node">
<title>Node16</title>
<g id="a_node16"><a xlink:title=" ">
<polygon fill="none" stroke="#bfbfbf" points="2300.5,-6 2300.5,-25 2438.5,-25 2438.5,-6 2300.5,-6"/>
<text text-anchor="middle" x="2369.5" y="-13" font-family="FreeSans.ttf" font-size="10.00">yarp/os/LogComponent.h</text>
</a>
</g>
</g>
<!-- Node15&#45;&gt;Node16 -->
<g id="edge16" class="edge">
<title>Node15&#45;&gt;Node16</title>
<path fill="none" stroke="midnightblue" d="M2187.02,-67.48C2224.42,-57.03 2287.93,-39.29 2329.29,-27.73"/>
<polygon fill="midnightblue" stroke="midnightblue" points="2330.35,-31.07 2339.04,-25.01 2328.47,-24.33 2330.35,-31.07"/>
</g>
<!-- Node15&#45;&gt;Node17 -->
<g id="edge17" class="edge">
<title>Node15&#45;&gt;Node17</title>
<path fill="none" stroke="midnightblue" d="M2207.73,-68.44C2278.51,-57.92 2402.56,-39.26 2447.5,-31 2453.89,-29.83 2460.6,-28.5 2467.21,-27.15"/>
<polygon fill="midnightblue" stroke="midnightblue" points="2468.38,-30.48 2477.45,-25.01 2466.95,-23.63 2468.38,-30.48"/>
</g>
<!-- Node18&#45;&gt;Node4 -->
<g id="edge23" class="edge">
<title>Node18&#45;&gt;Node4</title>
<path fill="none" stroke="midnightblue" d="M1494.38,-67.48C1443.02,-56.83 1355.14,-38.61 1299.54,-27.08"/>
<polygon fill="midnightblue" stroke="midnightblue" points="1300.05,-23.61 1289.54,-25.01 1298.63,-30.47 1300.05,-23.61"/>
</g>
<!-- Node18&#45;&gt;Node13 -->
<g id="edge21" class="edge">
<title>Node18&#45;&gt;Node13</title>
<path fill="none" stroke="midnightblue" d="M1514.3,-67.48C1489.13,-57.36 1446.96,-40.4 1418.22,-28.85"/>
<polygon fill="midnightblue" stroke="midnightblue" points="1419.25,-25.49 1408.67,-25.01 1416.64,-31.99 1419.25,-25.49"/>
</g>
<!-- Node18&#45;&gt;Node14 -->
<g id="edge22" class="edge">
<title>Node18&#45;&gt;Node14</title>
<path fill="none" stroke="midnightblue" d="M1453.37,-72.38C1380.15,-67.57 1270.62,-56.47 1178.5,-31 1176.34,-30.4 1174.15,-29.69 1171.96,-28.91"/>
<polygon fill="midnightblue" stroke="midnightblue" points="1173.21,-25.64 1162.62,-25.14 1170.59,-32.13 1173.21,-25.64"/>
</g>
<!-- Node19 -->
<g id="node19" class="node">
<title>Node19</title>
<g id="a_node19"><a xlink:title=" ">
<polygon fill="none" stroke="#bfbfbf" points="1623.5,-6 1623.5,-25 1661.5,-25 1661.5,-6 1623.5,-6"/>
<text text-anchor="middle" x="1642.5" y="-13" font-family="FreeSans.ttf" font-size="10.00">map</text>
</a>
</g>
</g>
<!-- Node18&#45;&gt;Node19 -->
<g id="edge19" class="edge">
<title>Node18&#45;&gt;Node19</title>
<path fill="none" stroke="midnightblue" d="M1550.83,-67.48C1568.47,-57.67 1597.66,-41.43 1618.36,-29.92"/>
<polygon fill="midnightblue" stroke="midnightblue" points="1620.16,-32.93 1627.2,-25.01 1616.76,-26.81 1620.16,-32.93"/>
</g>
<!-- Node20 -->
<g id="node20" class="node">
<title>Node20</title>
<g id="a_node20"><a xlink:title=" ">
<polygon fill="none" stroke="#bfbfbf" points="1680,-6 1680,-25 1773,-25 1773,-6 1680,-6"/>
<text text-anchor="middle" x="1726.5" y="-13" font-family="FreeSans.ttf" font-size="10.00">sdf/sdf_config.h</text>
</a>
</g>
</g>
<!-- Node18&#45;&gt;Node20 -->
<g id="edge20" class="edge">
<title>Node18&#45;&gt;Node20</title>
<path fill="none" stroke="midnightblue" d="M1562.87,-67.48C1596.05,-57.14 1652.15,-39.66 1689.26,-28.1"/>
<polygon fill="midnightblue" stroke="midnightblue" points="1690.68,-31.32 1699.19,-25.01 1688.6,-24.64 1690.68,-31.32"/>
</g>
<!-- Node21 -->
<g id="node21" class="node">
<title>Node21</title>
<g id="a_node21"><a xlink:title=" ">
<polygon fill="none" stroke="#bfbfbf" points="1465.5,-6 1465.5,-25 1605.5,-25 1605.5,-6 1465.5,-6"/>
<text text-anchor="middle" x="1535.5" y="-13" font-family="FreeSans.ttf" font-size="10.00">yarp/dev/PolyDriverList.h</text>
</a>
</g>
</g>
<!-- Node18&#45;&gt;Node21 -->
<g id="edge24" class="edge">
<title>Node18&#45;&gt;Node21</title>
<path fill="none" stroke="midnightblue" d="M1535.5,-67.48C1535.5,-59.08 1535.5,-45.98 1535.5,-35.16"/>
<polygon fill="midnightblue" stroke="midnightblue" points="1539,-35.01 1535.5,-25.01 1532,-35.01 1539,-35.01"/>
</g>
<!-- Node22&#45;&gt;Node5 -->
<g id="edge26" class="edge">
<title>Node22&#45;&gt;Node5</title>
<path fill="none" stroke="midnightblue" d="M2005.5,-67.48C2005.5,-59.08 2005.5,-45.98 2005.5,-35.16"/>
<polygon fill="midnightblue" stroke="midnightblue" points="2009,-35.01 2005.5,-25.01 2002,-35.01 2009,-35.01"/>
</g>
<!-- Node23 -->
<g id="node23" class="node">
<title>Node23</title>
<g id="a_node23"><a xlink:title=" ">
<polygon fill="none" stroke="#bfbfbf" points="2235,-6 2235,-25 2282,-25 2282,-6 2235,-6"/>
<text text-anchor="middle" x="2258.5" y="-13" font-family="FreeSans.ttf" font-size="10.00">cmath</text>
</a>
</g>
</g>
<!-- Node22&#45;&gt;Node23 -->
<g id="edge27" class="edge">
<title>Node22&#45;&gt;Node23</title>
<path fill="none" stroke="midnightblue" d="M2066,-67.44C2110.95,-60.19 2173.42,-48.19 2226.5,-31 2228.37,-30.39 2230.28,-29.71 2232.18,-28.98"/>
<polygon fill="midnightblue" stroke="midnightblue" points="2233.65,-32.16 2241.51,-25.05 2230.93,-25.71 2233.65,-32.16"/>
</g>
<!-- Node24&#45;&gt;Node13 -->
<g id="edge30" class="edge">
<title>Node24&#45;&gt;Node13</title>
<path fill="none" stroke="midnightblue" d="M1729.09,-67.47C1656.96,-59.55 1549.47,-46.63 1456.5,-31 1449.69,-29.85 1442.52,-28.51 1435.5,-27.11"/>
<polygon fill="midnightblue" stroke="midnightblue" points="1435.86,-23.61 1425.36,-25.03 1434.45,-30.47 1435.86,-23.61"/>
</g>
<!-- Node24&#45;&gt;Node20 -->
<g id="edge29" class="edge">
<title>Node24&#45;&gt;Node20</title>
<path fill="none" stroke="midnightblue" d="M1799.32,-67.48C1785.69,-57.93 1763.37,-42.31 1747.03,-30.87"/>
<polygon fill="midnightblue" stroke="midnightblue" points="1748.86,-27.88 1738.66,-25.01 1744.84,-33.61 1748.86,-27.88"/>
</g>
<!-- Node25 -->
<g id="node25" class="node">
<title>Node25</title>
<g id="a_node25"><a xlink:title=" ">
<polygon fill="none" stroke="#bfbfbf" points="2046,-6 2046,-25 2217,-25 2217,-6 2046,-6"/>
<text text-anchor="middle" x="2131.5" y="-13" font-family="FreeSans.ttf" font-size="10.00">gazebo/sensors/SensorTypes.hh</text>
</a>
</g>
</g>
<!-- Node24&#45;&gt;Node25 -->
<g id="edge31" class="edge">
<title>Node24&#45;&gt;Node25</title>
<path fill="none" stroke="midnightblue" d="M1857.35,-67.48C1914.97,-56.76 2013.81,-38.38 2075.75,-26.87"/>
<polygon fill="midnightblue" stroke="midnightblue" points="2076.55,-30.28 2085.74,-25.01 2075.27,-23.4 2076.55,-30.28"/>
</g>
<!-- Node26 -->
<g id="node26" class="node">
<title>Node26</title>
<g id="a_node26"><a xlink:title=" ">
<polygon fill="none" stroke="#bfbfbf" points="1791.5,-6 1791.5,-25 1965.5,-25 1965.5,-6 1791.5,-6"/>
<text text-anchor="middle" x="1878.5" y="-13" font-family="FreeSans.ttf" font-size="10.00">gazebo/physics/PhysicsTypes.hh</text>
</a>
</g>
</g>
<!-- Node24&#45;&gt;Node26 -->
<g id="edge32" class="edge">
<title>Node24&#45;&gt;Node26</title>
<path fill="none" stroke="midnightblue" d="M1821.1,-67.48C1831.55,-58.2 1848.47,-43.17 1861.24,-31.83"/>
<polygon fill="midnightblue" stroke="midnightblue" points="1863.77,-34.27 1868.92,-25.01 1859.12,-29.03 1863.77,-34.27"/>
</g>
</g>
</svg>
