<?xml version="1.0" encoding="UTF-8" standalone="no"?>
<!DOCTYPE svg PUBLIC "-//W3C//DTD SVG 1.1//EN"
 "http://www.w3.org/Graphics/SVG/1.1/DTD/svg11.dtd">
<!-- Generated by graphviz version 2.49.0 (20210829.0051)
 -->
<!-- Title: LaserSensorDriver.cpp Pages: 1 -->
<svg width="2255pt" height="151pt"
 viewBox="0.00 0.00 2254.50 151.00" xmlns="http://www.w3.org/2000/svg" xmlns:xlink="http://www.w3.org/1999/xlink">
<g id="graph0" class="graph" transform="scale(1 1) rotate(0) translate(4 147)">
<title>LaserSensorDriver.cpp</title>
<!-- Node1 -->
<g id="node1" class="node">
<title>Node1</title>
<g id="a_node1"><a xlink:title=" ">
<polygon fill="#bfbfbf" stroke="black" points="1836,-123.5 1836,-142.5 1961,-142.5 1961,-123.5 1836,-123.5"/>
<text text-anchor="middle" x="1898.5" y="-130.5" font-family="FreeSans.ttf" font-size="10.00">LaserSensorDriver.cpp</text>
</a>
</g>
</g>
<!-- Node2 -->
<g id="node2" class="node">
<title>Node2</title>
<g id="a_node2"><a xlink:href="LaserSensorDriver_8h.html" target="_top" xlink:title=" ">
<polygon fill="none" stroke="black" points="720.5,-67.5 720.5,-86.5 834.5,-86.5 834.5,-67.5 720.5,-67.5"/>
<text text-anchor="middle" x="777.5" y="-74.5" font-family="FreeSans.ttf" font-size="10.00">LaserSensorDriver.h</text>
</a>
</g>
</g>
<!-- Node1&#45;&gt;Node2 -->
<g id="edge1" class="edge">
<title>Node1&#45;&gt;Node2</title>
<path fill="none" stroke="midnightblue" d="M1835.83,-128.98C1640.84,-119.59 1045.94,-90.93 844.79,-81.24"/>
<polygon fill="midnightblue" stroke="midnightblue" points="844.81,-77.74 834.65,-80.75 844.47,-84.73 844.81,-77.74"/>
</g>
<!-- Node12 -->
<g id="node12" class="node">
<title>Node12</title>
<g id="a_node12"><a xlink:href="Handler_8hh.html" target="_top" xlink:title=" ">
<polygon fill="none" stroke="black" points="1415.5,-67.5 1415.5,-86.5 1579.5,-86.5 1579.5,-67.5 1415.5,-67.5"/>
<text text-anchor="middle" x="1497.5" y="-74.5" font-family="FreeSans.ttf" font-size="10.00">GazeboYarpPlugins/Handler.hh</text>
</a>
</g>
</g>
<!-- Node1&#45;&gt;Node12 -->
<g id="edge11" class="edge">
<title>Node1&#45;&gt;Node12</title>
<path fill="none" stroke="midnightblue" d="M1835.84,-123.56C1764.06,-113.9 1646.6,-98.08 1570.67,-87.85"/>
<polygon fill="midnightblue" stroke="midnightblue" points="1571.09,-84.38 1560.71,-86.51 1570.15,-91.32 1571.09,-84.38"/>
</g>
<!-- Node17 -->
<g id="node17" class="node">
<title>Node17</title>
<g id="a_node17"><a xlink:href="LaserSensorLog_8h.html" target="_top" xlink:title=" ">
<polygon fill="none" stroke="black" points="1808.5,-67.5 1808.5,-86.5 1910.5,-86.5 1910.5,-67.5 1808.5,-67.5"/>
<text text-anchor="middle" x="1859.5" y="-74.5" font-family="FreeSans.ttf" font-size="10.00">LaserSensorLog.h</text>
</a>
</g>
</g>
<!-- Node1&#45;&gt;Node17 -->
<g id="edge18" class="edge">
<title>Node1&#45;&gt;Node17</title>
<path fill="none" stroke="midnightblue" d="M1892.06,-123.08C1886.55,-115.46 1878.47,-104.26 1871.74,-94.94"/>
<polygon fill="midnightblue" stroke="midnightblue" points="1874.51,-92.81 1865.82,-86.75 1868.84,-96.91 1874.51,-92.81"/>
</g>
<!-- Node19 -->
<g id="node19" class="node">
<title>Node19</title>
<g id="a_node19"><a xlink:title=" ">
<polygon fill="none" stroke="#bfbfbf" points="1947,-6 1947,-25 2064,-25 2064,-6 1947,-6"/>
<text text-anchor="middle" x="2005.5" y="-13" font-family="FreeSans.ttf" font-size="10.00">yarp/os/LogStream.h</text>
</a>
</g>
</g>
<!-- Node1&#45;&gt;Node19 -->
<g id="edge23" class="edge">
<title>Node1&#45;&gt;Node19</title>
<path fill="none" stroke="midnightblue" d="M1906.64,-123.16C1918.17,-110.64 1939.92,-87.05 1958.5,-67 1969.19,-55.47 1981.27,-42.49 1990.51,-32.58"/>
<polygon fill="midnightblue" stroke="midnightblue" points="1993.25,-34.77 1997.51,-25.07 1988.13,-30 1993.25,-34.77"/>
</g>
<!-- Node20 -->
<g id="node20" class="node">
<title>Node20</title>
<g id="a_node20"><a xlink:title=" ">
<polygon fill="none" stroke="#bfbfbf" points="1967,-67.5 1967,-86.5 2080,-86.5 2080,-67.5 1967,-67.5"/>
<text text-anchor="middle" x="2023.5" y="-74.5" font-family="FreeSans.ttf" font-size="10.00">boost/bind/bind.hpp</text>
</a>
</g>
</g>
<!-- Node1&#45;&gt;Node20 -->
<g id="edge21" class="edge">
<title>Node1&#45;&gt;Node20</title>
<path fill="none" stroke="midnightblue" d="M1918.31,-123.44C1938.79,-114.6 1970.98,-100.69 1994.36,-90.59"/>
<polygon fill="midnightblue" stroke="midnightblue" points="1995.99,-93.7 2003.79,-86.52 1993.22,-87.27 1995.99,-93.7"/>
</g>
<!-- Node21 -->
<g id="node21" class="node">
<title>Node21</title>
<g id="a_node21"><a xlink:title=" ">
<polygon fill="none" stroke="#bfbfbf" points="2098.5,-67.5 2098.5,-86.5 2246.5,-86.5 2246.5,-67.5 2098.5,-67.5"/>
<text text-anchor="middle" x="2172.5" y="-74.5" font-family="FreeSans.ttf" font-size="10.00">gazebo/sensors/sensors.hh</text>
</a>
</g>
</g>
<!-- Node1&#45;&gt;Node21 -->
<g id="edge22" class="edge">
<title>Node1&#45;&gt;Node21</title>
<path fill="none" stroke="midnightblue" d="M1941.92,-123.44C1990.02,-113.96 2067.59,-98.67 2119.31,-88.48"/>
<polygon fill="midnightblue" stroke="midnightblue" points="2120.15,-91.88 2129.29,-86.52 2118.8,-85.02 2120.15,-91.88"/>
</g>
<!-- Node3 -->
<g id="node3" class="node">
<title>Node3</title>
<g id="a_node3"><a xlink:title=" ">
<polygon fill="none" stroke="#bfbfbf" points="631.5,-6 631.5,-25 765.5,-25 765.5,-6 631.5,-6"/>
<text text-anchor="middle" x="698.5" y="-13" font-family="FreeSans.ttf" font-size="10.00">yarp/dev/DeviceDriver.h</text>
</a>
</g>
</g>
<!-- Node2&#45;&gt;Node3 -->
<g id="edge2" class="edge">
<title>Node2&#45;&gt;Node3</title>
<path fill="none" stroke="midnightblue" d="M766.18,-67.48C753.63,-58.02 733.15,-42.6 718,-31.19"/>
<polygon fill="midnightblue" stroke="midnightblue" points="719.89,-28.23 709.8,-25.01 715.68,-33.82 719.89,-28.23"/>
</g>
<!-- Node4 -->
<g id="node4" class="node">
<title>Node4</title>
<g id="a_node4"><a xlink:title=" ">
<polygon fill="none" stroke="#bfbfbf" points="783.5,-6 783.5,-25 929.5,-25 929.5,-6 783.5,-6"/>
<text text-anchor="middle" x="856.5" y="-13" font-family="FreeSans.ttf" font-size="10.00">yarp/dev/IRangefinder2D.h</text>
</a>
</g>
</g>
<!-- Node2&#45;&gt;Node4 -->
<g id="edge3" class="edge">
<title>Node2&#45;&gt;Node4</title>
<path fill="none" stroke="midnightblue" d="M788.82,-67.48C801.37,-58.02 821.85,-42.6 837,-31.19"/>
<polygon fill="midnightblue" stroke="midnightblue" points="839.32,-33.82 845.2,-25.01 835.11,-28.23 839.32,-33.82"/>
</g>
<!-- Node5 -->
<g id="node5" class="node">
<title>Node5</title>
<g id="a_node5"><a xlink:title=" ">
<polygon fill="none" stroke="#bfbfbf" points="947.5,-0.5 947.5,-30.5 1103.5,-30.5 1103.5,-0.5 947.5,-0.5"/>
<text text-anchor="start" x="955.5" y="-18.5" font-family="FreeSans.ttf" font-size="10.00">yarp/dev/LaserMeasurement</text>
<text text-anchor="middle" x="1025.5" y="-7.5" font-family="FreeSans.ttf" font-size="10.00">Data.h</text>
</a>
</g>
</g>
<!-- Node2&#45;&gt;Node5 -->
<g id="edge4" class="edge">
<title>Node2&#45;&gt;Node5</title>
<path fill="none" stroke="midnightblue" d="M813.03,-67.48C850.54,-58.48 910.59,-44.07 957.3,-32.86"/>
<polygon fill="midnightblue" stroke="midnightblue" points="958.14,-36.26 967.05,-30.52 956.51,-29.45 958.14,-36.26"/>
</g>
<!-- Node6 -->
<g id="node6" class="node">
<title>Node6</title>
<g id="a_node6"><a xlink:title=" ">
<polygon fill="none" stroke="#bfbfbf" points="0,-6 0,-25 167,-25 167,-6 0,-6"/>
<text text-anchor="middle" x="83.5" y="-13" font-family="FreeSans.ttf" font-size="10.00">yarp/dev/Lidar2DDeviceBase.h</text>
</a>
</g>
</g>
<!-- Node2&#45;&gt;Node6 -->
<g id="edge5" class="edge">
<title>Node2&#45;&gt;Node6</title>
<path fill="none" stroke="midnightblue" d="M720.18,-73.24C613.11,-67.74 375.55,-53.93 176.5,-31 165.81,-29.77 154.47,-28.21 143.52,-26.58"/>
<polygon fill="midnightblue" stroke="midnightblue" points="144.01,-23.11 133.6,-25.06 142.95,-30.03 144.01,-23.11"/>
</g>
<!-- Node7 -->
<g id="node7" class="node">
<title>Node7</title>
<g id="a_node7"><a xlink:title=" ">
<polygon fill="none" stroke="#bfbfbf" points="185.5,-6 185.5,-25 281.5,-25 281.5,-6 185.5,-6"/>
<text text-anchor="middle" x="233.5" y="-13" font-family="FreeSans.ttf" font-size="10.00">yarp/os/Stamp.h</text>
</a>
</g>
</g>
<!-- Node2&#45;&gt;Node7 -->
<g id="edge6" class="edge">
<title>Node2&#45;&gt;Node7</title>
<path fill="none" stroke="midnightblue" d="M720.14,-73.62C628.69,-69.17 444.46,-57.53 290.5,-31 284.97,-30.05 279.18,-28.83 273.5,-27.52"/>
<polygon fill="midnightblue" stroke="midnightblue" points="274.03,-24.04 263.48,-25.07 272.37,-30.84 274.03,-24.04"/>
</g>
<!-- Node8 -->
<g id="node8" class="node">
<title>Node8</title>
<g id="a_node8"><a xlink:title=" ">
<polygon fill="none" stroke="#bfbfbf" points="300,-6 300,-25 449,-25 449,-6 300,-6"/>
<text text-anchor="middle" x="374.5" y="-13" font-family="FreeSans.ttf" font-size="10.00">yarp/dev/IPreciselyTimed.h</text>
</a>
</g>
</g>
<!-- Node2&#45;&gt;Node8 -->
<g id="edge7" class="edge">
<title>Node2&#45;&gt;Node8</title>
<path fill="none" stroke="midnightblue" d="M720.37,-68.48C656.48,-59.95 549.95,-45.34 458.5,-31 450.09,-29.68 441.23,-28.22 432.53,-26.76"/>
<polygon fill="midnightblue" stroke="midnightblue" points="432.88,-23.27 422.43,-25.04 431.7,-30.17 432.88,-23.27"/>
</g>
<!-- Node9 -->
<g id="node9" class="node">
<title>Node9</title>
<g id="a_node9"><a xlink:title=" ">
<polygon fill="none" stroke="#bfbfbf" points="1188,-6 1188,-25 1307,-25 1307,-6 1188,-6"/>
<text text-anchor="middle" x="1247.5" y="-13" font-family="FreeSans.ttf" font-size="10.00">boost/shared_ptr.hpp</text>
</a>
</g>
</g>
<!-- Node2&#45;&gt;Node9 -->
<g id="edge8" class="edge">
<title>Node2&#45;&gt;Node9</title>
<path fill="none" stroke="midnightblue" d="M834.51,-71.33C912.47,-64.54 1056.59,-50.6 1178.5,-31 1185.4,-29.89 1192.66,-28.55 1199.77,-27.15"/>
<polygon fill="midnightblue" stroke="midnightblue" points="1200.92,-30.48 1210.02,-25.05 1199.52,-23.63 1200.92,-30.48"/>
</g>
<!-- Node10 -->
<g id="node10" class="node">
<title>Node10</title>
<g id="a_node10"><a xlink:title=" ">
<polygon fill="none" stroke="#bfbfbf" points="467.5,-6 467.5,-25 613.5,-25 613.5,-6 467.5,-6"/>
<text text-anchor="middle" x="540.5" y="-13" font-family="FreeSans.ttf" font-size="10.00">gazebo/common/Plugin.hh</text>
</a>
</g>
</g>
<!-- Node2&#45;&gt;Node10 -->
<g id="edge9" class="edge">
<title>Node2&#45;&gt;Node10</title>
<path fill="none" stroke="midnightblue" d="M743.54,-67.48C701.66,-56.96 630.37,-39.06 584.37,-27.51"/>
<polygon fill="midnightblue" stroke="midnightblue" points="584.94,-24.05 574.39,-25.01 583.24,-30.84 584.94,-24.05"/>
</g>
<!-- Node11 -->
<g id="node11" class="node">
<title>Node11</title>
<g id="a_node11"><a xlink:title=" ">
<polygon fill="none" stroke="#bfbfbf" points="1121.5,-6 1121.5,-25 1169.5,-25 1169.5,-6 1121.5,-6"/>
<text text-anchor="middle" x="1145.5" y="-13" font-family="FreeSans.ttf" font-size="10.00">mutex</text>
</a>
</g>
</g>
<!-- Node2&#45;&gt;Node11 -->
<g id="edge10" class="edge">
<title>Node2&#45;&gt;Node11</title>
<path fill="none" stroke="midnightblue" d="M834.79,-73.19C902.29,-68.77 1017.3,-57.73 1112.5,-31 1114.65,-30.4 1116.85,-29.68 1119.03,-28.89"/>
<polygon fill="midnightblue" stroke="midnightblue" points="1120.41,-32.11 1128.37,-25.11 1117.78,-25.62 1120.41,-32.11"/>
</g>
<!-- Node12&#45;&gt;Node9 -->
<g id="edge14" class="edge">
<title>Node12&#45;&gt;Node9</title>
<path fill="none" stroke="midnightblue" d="M1461.68,-67.48C1417.31,-56.92 1341.66,-38.91 1293.17,-27.37"/>
<polygon fill="midnightblue" stroke="midnightblue" points="1293.79,-23.92 1283.25,-25.01 1292.17,-30.73 1293.79,-23.92"/>
</g>
<!-- Node12&#45;&gt;Node11 -->
<g id="edge15" class="edge">
<title>Node12&#45;&gt;Node11</title>
<path fill="none" stroke="midnightblue" d="M1415.26,-70.62C1350.07,-64.87 1257.18,-53.37 1178.5,-31 1176.35,-30.39 1174.15,-29.66 1171.97,-28.87"/>
<polygon fill="midnightblue" stroke="midnightblue" points="1173.22,-25.6 1162.64,-25.09 1170.59,-32.09 1173.22,-25.6"/>
</g>
<!-- Node13 -->
<g id="node13" class="node">
<title>Node13</title>
<g id="a_node13"><a xlink:title=" ">
<polygon fill="none" stroke="#bfbfbf" points="1734.5,-6 1734.5,-25 1772.5,-25 1772.5,-6 1734.5,-6"/>
<text text-anchor="middle" x="1753.5" y="-13" font-family="FreeSans.ttf" font-size="10.00">map</text>
</a>
</g>
</g>
<!-- Node12&#45;&gt;Node13 -->
<g id="edge12" class="edge">
<title>Node12&#45;&gt;Node13</title>
<path fill="none" stroke="midnightblue" d="M1567.19,-67.47C1613.04,-60.59 1673.89,-49.04 1725.5,-31 1726.75,-30.56 1728.01,-30.08 1729.28,-29.56"/>
<polygon fill="midnightblue" stroke="midnightblue" points="1731.16,-32.54 1738.74,-25.13 1728.2,-26.2 1731.16,-32.54"/>
</g>
<!-- Node14 -->
<g id="node14" class="node">
<title>Node14</title>
<g id="a_node14"><a xlink:title=" ">
<polygon fill="none" stroke="#bfbfbf" points="1325,-6 1325,-25 1418,-25 1418,-6 1325,-6"/>
<text text-anchor="middle" x="1371.5" y="-13" font-family="FreeSans.ttf" font-size="10.00">sdf/sdf_config.h</text>
</a>
</g>
</g>
<!-- Node12&#45;&gt;Node14 -->
<g id="edge13" class="edge">
<title>Node12&#45;&gt;Node14</title>
<path fill="none" stroke="midnightblue" d="M1479.45,-67.48C1458.3,-57.49 1423.06,-40.85 1398.62,-29.31"/>
<polygon fill="midnightblue" stroke="midnightblue" points="1400.06,-26.11 1389.52,-25.01 1397.07,-32.44 1400.06,-26.11"/>
</g>
<!-- Node15 -->
<g id="node15" class="node">
<title>Node15</title>
<g id="a_node15"><a xlink:title=" ">
<polygon fill="none" stroke="#bfbfbf" points="1436.5,-6 1436.5,-25 1558.5,-25 1558.5,-6 1436.5,-6"/>
<text text-anchor="middle" x="1497.5" y="-13" font-family="FreeSans.ttf" font-size="10.00">yarp/dev/PolyDriver.h</text>
</a>
</g>
</g>
<!-- Node12&#45;&gt;Node15 -->
<g id="edge16" class="edge">
<title>Node12&#45;&gt;Node15</title>
<path fill="none" stroke="midnightblue" d="M1497.5,-67.48C1497.5,-59.08 1497.5,-45.98 1497.5,-35.16"/>
<polygon fill="midnightblue" stroke="midnightblue" points="1501,-35.01 1497.5,-25.01 1494,-35.01 1501,-35.01"/>
</g>
<!-- Node16 -->
<g id="node16" class="node">
<title>Node16</title>
<g id="a_node16"><a xlink:title=" ">
<polygon fill="none" stroke="#bfbfbf" points="1576.5,-6 1576.5,-25 1716.5,-25 1716.5,-6 1576.5,-6"/>
<text text-anchor="middle" x="1646.5" y="-13" font-family="FreeSans.ttf" font-size="10.00">yarp/dev/PolyDriverList.h</text>
</a>
</g>
</g>
<!-- Node12&#45;&gt;Node16 -->
<g id="edge17" class="edge">
<title>Node12&#45;&gt;Node16</title>
<path fill="none" stroke="midnightblue" d="M1518.85,-67.48C1544.19,-57.36 1586.64,-40.4 1615.57,-28.85"/>
<polygon fill="midnightblue" stroke="midnightblue" points="1617.2,-31.97 1625.19,-25.01 1614.61,-25.47 1617.2,-31.97"/>
</g>
<!-- Node18 -->
<g id="node18" class="node">
<title>Node18</title>
<g id="a_node18"><a xlink:title=" ">
<polygon fill="none" stroke="#bfbfbf" points="1790.5,-6 1790.5,-25 1928.5,-25 1928.5,-6 1790.5,-6"/>
<text text-anchor="middle" x="1859.5" y="-13" font-family="FreeSans.ttf" font-size="10.00">yarp/os/LogComponent.h</text>
</a>
</g>
</g>
<!-- Node17&#45;&gt;Node18 -->
<g id="edge19" class="edge">
<title>Node17&#45;&gt;Node18</title>
<path fill="none" stroke="midnightblue" d="M1859.5,-67.48C1859.5,-59.08 1859.5,-45.98 1859.5,-35.16"/>
<polygon fill="midnightblue" stroke="midnightblue" points="1863,-35.01 1859.5,-25.01 1856,-35.01 1863,-35.01"/>
</g>
<!-- Node17&#45;&gt;Node19 -->
<g id="edge20" class="edge">
<title>Node17&#45;&gt;Node19</title>
<path fill="none" stroke="midnightblue" d="M1880.42,-67.48C1905.25,-57.36 1946.84,-40.4 1975.19,-28.85"/>
<polygon fill="midnightblue" stroke="midnightblue" points="1976.68,-32.02 1984.62,-25.01 1974.04,-25.54 1976.68,-32.02"/>
</g>
</g>
</svg>
