<?xml version="1.0" encoding="UTF-8" standalone="no"?>
<!DOCTYPE svg PUBLIC "-//W3C//DTD SVG 1.1//EN"
 "http://www.w3.org/Graphics/SVG/1.1/DTD/svg11.dtd">
<!-- Generated by graphviz version 2.43.0 (0)
 -->
<!-- Title: LaserSensorDriver.h Pages: 1 -->
<svg width="1315pt" height="95pt"
 viewBox="0.00 0.00 1315.00 95.00" xmlns="http://www.w3.org/2000/svg" xmlns:xlink="http://www.w3.org/1999/xlink">
<g id="graph0" class="graph" transform="scale(1 1) rotate(0) translate(4 91)">
<title>LaserSensorDriver.h</title>
<!-- Node1 -->
<g id="node1" class="node">
<title>Node1</title>
<g id="a_node1"><a xlink:title=" ">
<polygon fill="#bfbfbf" stroke="black" points="667,-67.5 667,-86.5 781,-86.5 781,-67.5 667,-67.5"/>
<text text-anchor="middle" x="724" y="-74.5" font-family="FreeSans.ttf" font-size="10.00">LaserSensorDriver.h</text>
</a>
</g>
</g>
<!-- Node2 -->
<g id="node2" class="node">
<title>Node2</title>
<g id="a_node2"><a xlink:title=" ">
<polygon fill="none" stroke="#bfbfbf" points="0,-6 0,-25 134,-25 134,-6 0,-6"/>
<text text-anchor="middle" x="67" y="-13" font-family="FreeSans.ttf" font-size="10.00">yarp/dev/DeviceDriver.h</text>
</a>
</g>
</g>
<!-- Node1&#45;&gt;Node2 -->
<g id="edge1" class="edge">
<title>Node1&#45;&gt;Node2</title>
<path fill="none" stroke="midnightblue" d="M666.88,-73.69C562.48,-68.99 334.03,-56.54 143,-31 134.58,-29.87 125.68,-28.42 117.05,-26.87"/>
<polygon fill="midnightblue" stroke="midnightblue" points="117.57,-23.4 107.1,-25.01 116.29,-30.28 117.57,-23.4"/>
</g>
<!-- Node3 -->
<g id="node3" class="node">
<title>Node3</title>
<g id="a_node3"><a xlink:title=" ">
<polygon fill="none" stroke="#bfbfbf" points="152,-6 152,-25 298,-25 298,-6 152,-6"/>
<text text-anchor="middle" x="225" y="-13" font-family="FreeSans.ttf" font-size="10.00">yarp/dev/IRangefinder2D.h</text>
</a>
</g>
</g>
<!-- Node1&#45;&gt;Node3 -->
<g id="edge2" class="edge">
<title>Node1&#45;&gt;Node3</title>
<path fill="none" stroke="midnightblue" d="M666.85,-71.06C586.37,-63.83 435.14,-49.22 307,-31 298.26,-29.76 289.03,-28.28 280.04,-26.76"/>
<polygon fill="midnightblue" stroke="midnightblue" points="280.48,-23.28 270.03,-25.03 279.28,-30.18 280.48,-23.28"/>
</g>
<!-- Node4 -->
<g id="node4" class="node">
<title>Node4</title>
<g id="a_node4"><a xlink:title=" ">
<polygon fill="none" stroke="#bfbfbf" points="316,-0.5 316,-30.5 472,-30.5 472,-0.5 316,-0.5"/>
<text text-anchor="start" x="324" y="-18.5" font-family="FreeSans.ttf" font-size="10.00">yarp/dev/LaserMeasurement</text>
<text text-anchor="middle" x="394" y="-7.5" font-family="FreeSans.ttf" font-size="10.00">Data.h</text>
</a>
</g>
</g>
<!-- Node1&#45;&gt;Node4 -->
<g id="edge3" class="edge">
<title>Node1&#45;&gt;Node4</title>
<path fill="none" stroke="midnightblue" d="M676.72,-67.48C625.97,-58.32 544.21,-43.58 481.64,-32.3"/>
<polygon fill="midnightblue" stroke="midnightblue" points="482.24,-28.85 471.77,-30.52 480.99,-35.74 482.24,-28.85"/>
</g>
<!-- Node5 -->
<g id="node5" class="node">
<title>Node5</title>
<g id="a_node5"><a xlink:title=" ">
<polygon fill="none" stroke="#bfbfbf" points="490.5,-6 490.5,-25 657.5,-25 657.5,-6 490.5,-6"/>
<text text-anchor="middle" x="574" y="-13" font-family="FreeSans.ttf" font-size="10.00">yarp/dev/Lidar2DDeviceBase.h</text>
</a>
</g>
</g>
<!-- Node1&#45;&gt;Node5 -->
<g id="edge4" class="edge">
<title>Node1&#45;&gt;Node5</title>
<path fill="none" stroke="midnightblue" d="M702.51,-67.48C676.89,-57.31 633.89,-40.26 604.76,-28.7"/>
<polygon fill="midnightblue" stroke="midnightblue" points="606.04,-25.44 595.45,-25.01 603.46,-31.95 606.04,-25.44"/>
</g>
<!-- Node6 -->
<g id="node6" class="node">
<title>Node6</title>
<g id="a_node6"><a xlink:title=" ">
<polygon fill="none" stroke="#bfbfbf" points="676,-6 676,-25 772,-25 772,-6 676,-6"/>
<text text-anchor="middle" x="724" y="-13" font-family="FreeSans.ttf" font-size="10.00">yarp/os/Stamp.h</text>
</a>
</g>
</g>
<!-- Node1&#45;&gt;Node6 -->
<g id="edge5" class="edge">
<title>Node1&#45;&gt;Node6</title>
<path fill="none" stroke="midnightblue" d="M724,-67.48C724,-59.08 724,-45.98 724,-35.16"/>
<polygon fill="midnightblue" stroke="midnightblue" points="727.5,-35.01 724,-25.01 720.5,-35.01 727.5,-35.01"/>
</g>
<!-- Node7 -->
<g id="node7" class="node">
<title>Node7</title>
<g id="a_node7"><a xlink:title=" ">
<polygon fill="none" stroke="#bfbfbf" points="790.5,-6 790.5,-25 939.5,-25 939.5,-6 790.5,-6"/>
<text text-anchor="middle" x="865" y="-13" font-family="FreeSans.ttf" font-size="10.00">yarp/dev/IPreciselyTimed.h</text>
</a>
</g>
</g>
<!-- Node1&#45;&gt;Node7 -->
<g id="edge6" class="edge">
<title>Node1&#45;&gt;Node7</title>
<path fill="none" stroke="midnightblue" d="M744.2,-67.48C768.07,-57.4 808,-40.55 835.37,-29"/>
<polygon fill="midnightblue" stroke="midnightblue" points="836.98,-32.12 844.84,-25.01 834.26,-25.67 836.98,-32.12"/>
</g>
<!-- Node8 -->
<g id="node8" class="node">
<title>Node8</title>
<g id="a_node8"><a xlink:title=" ">
<polygon fill="none" stroke="#bfbfbf" points="957.5,-6 957.5,-25 1076.5,-25 1076.5,-6 957.5,-6"/>
<text text-anchor="middle" x="1017" y="-13" font-family="FreeSans.ttf" font-size="10.00">boost/shared_ptr.hpp</text>
</a>
</g>
</g>
<!-- Node1&#45;&gt;Node8 -->
<g id="edge7" class="edge">
<title>Node1&#45;&gt;Node8</title>
<path fill="none" stroke="midnightblue" d="M767.59,-67.45C812.94,-58.52 886,-44.02 949,-31 954.91,-29.78 961.1,-28.48 967.24,-27.19"/>
<polygon fill="midnightblue" stroke="midnightblue" points="968.41,-30.52 977.46,-25.02 966.96,-23.67 968.41,-30.52"/>
</g>
<!-- Node9 -->
<g id="node9" class="node">
<title>Node9</title>
<g id="a_node9"><a xlink:title=" ">
<polygon fill="none" stroke="#bfbfbf" points="1095,-6 1095,-25 1241,-25 1241,-6 1095,-6"/>
<text text-anchor="middle" x="1168" y="-13" font-family="FreeSans.ttf" font-size="10.00">gazebo/common/Plugin.hh</text>
</a>
</g>
</g>
<!-- Node1&#45;&gt;Node9 -->
<g id="edge8" class="edge">
<title>Node1&#45;&gt;Node9</title>
<path fill="none" stroke="midnightblue" d="M781.18,-69.81C852.63,-61.86 978.6,-47.16 1086,-31 1094.43,-29.73 1103.32,-28.28 1112.02,-26.79"/>
<polygon fill="midnightblue" stroke="midnightblue" points="1112.84,-30.2 1122.1,-25.05 1111.65,-23.31 1112.84,-30.2"/>
</g>
<!-- Node10 -->
<g id="node10" class="node">
<title>Node10</title>
<g id="a_node10"><a xlink:title=" ">
<polygon fill="none" stroke="#bfbfbf" points="1259,-6 1259,-25 1307,-25 1307,-6 1259,-6"/>
<text text-anchor="middle" x="1283" y="-13" font-family="FreeSans.ttf" font-size="10.00">mutex</text>
</a>
</g>
</g>
<!-- Node1&#45;&gt;Node10 -->
<g id="edge9" class="edge">
<title>Node1&#45;&gt;Node10</title>
<path fill="none" stroke="midnightblue" d="M781.45,-73.46C898.86,-67.89 1162.63,-53.28 1250,-31 1252.3,-30.41 1254.65,-29.68 1256.97,-28.86"/>
<polygon fill="midnightblue" stroke="midnightblue" points="1258.28,-32.11 1266.25,-25.13 1255.67,-25.61 1258.28,-32.11"/>
</g>
</g>
</svg>
