<?xml version="1.0" encoding="UTF-8" standalone="no"?>
<!DOCTYPE svg PUBLIC "-//W3C//DTD SVG 1.1//EN"
 "http://www.w3.org/Graphics/SVG/1.1/DTD/svg11.dtd">
<!-- Generated by graphviz version 5.0.0 (20220707.2338)
 -->
<!-- Title: LaserSensor.cc Pages: 1 -->
<svg width="2858pt" height="151pt"
 viewBox="0.00 0.00 2858.00 151.00" xmlns="http://www.w3.org/2000/svg" xmlns:xlink="http://www.w3.org/1999/xlink">
<g id="graph0" class="graph" transform="scale(1 1) rotate(0) translate(4 147)">
<title>LaserSensor.cc</title>
<!-- Node1 -->
<g id="node1" class="node">
<title>Node1</title>
<g id="a_node1"><a xlink:title=" ">
<polygon fill="#bfbfbf" stroke="black" points="2088.5,-123.5 2088.5,-142.5 2177.5,-142.5 2177.5,-123.5 2088.5,-123.5"/>
<text text-anchor="middle" x="2133" y="-130.5" font-family="FreeSans.ttf" font-size="10.00">LaserSensor.cc</text>
</a>
</g>
</g>
<!-- Node2 -->
<g id="node2" class="node">
<title>Node2</title>
<g id="a_node2"><a xlink:href="LaserSensor_8hh.html" target="_top" xlink:title=" ">
<polygon fill="none" stroke="black" points="1141,-67.5 1141,-86.5 1231,-86.5 1231,-67.5 1141,-67.5"/>
<text text-anchor="middle" x="1186" y="-74.5" font-family="FreeSans.ttf" font-size="10.00">LaserSensor.hh</text>
</a>
</g>
</g>
<!-- Node1&#45;&gt;Node2 -->
<g id="edge1" class="edge">
<title>Node1&#45;&gt;Node2</title>
<path fill="none" stroke="midnightblue" d="M2088.08,-130.5C1960.19,-126.05 1583.23,-111.66 1271,-87 1261.45,-86.25 1251.31,-85.3 1241.48,-84.31"/>
<polygon fill="midnightblue" stroke="midnightblue" points="1241.7,-80.81 1231.39,-83.26 1240.98,-87.77 1241.7,-80.81"/>
</g>
<!-- Node4 -->
<g id="node4" class="node">
<title>Node4</title>
<g id="a_node4"><a xlink:title=" ">
<polygon fill="none" stroke="#bfbfbf" points="1020,-6 1020,-25 1142,-25 1142,-6 1020,-6"/>
<text text-anchor="middle" x="1081" y="-13" font-family="FreeSans.ttf" font-size="10.00">yarp/dev/PolyDriver.h</text>
</a>
</g>
</g>
<!-- Node1&#45;&gt;Node4 -->
<g id="edge34" class="edge">
<title>Node1&#45;&gt;Node4</title>
<path fill="none" stroke="midnightblue" d="M2088.29,-132.26C1905.01,-133.02 1216.83,-132.76 1132,-87 1110.97,-75.66 1096.46,-51.42 1088.44,-34.55"/>
<polygon fill="midnightblue" stroke="midnightblue" points="1091.54,-32.9 1084.28,-25.18 1085.14,-35.74 1091.54,-32.9"/>
</g>
<!-- Node6 -->
<g id="node6" class="node">
<title>Node6</title>
<g id="a_node6"><a xlink:href="LaserSensorDriver_8h.html" target="_top" xlink:title=" ">
<polygon fill="none" stroke="black" points="642,-67.5 642,-86.5 756,-86.5 756,-67.5 642,-67.5"/>
<text text-anchor="middle" x="699" y="-74.5" font-family="FreeSans.ttf" font-size="10.00">LaserSensorDriver.h</text>
</a>
</g>
</g>
<!-- Node1&#45;&gt;Node6 -->
<g id="edge5" class="edge">
<title>Node1&#45;&gt;Node6</title>
<path fill="none" stroke="midnightblue" d="M2088.11,-130.31C1880.81,-122.5 1015.53,-89.92 766.39,-80.54"/>
<polygon fill="midnightblue" stroke="midnightblue" points="766.16,-77.03 756.04,-80.15 765.9,-84.02 766.16,-77.03"/>
</g>
<!-- Node14 -->
<g id="node14" class="node">
<title>Node14</title>
<g id="a_node14"><a xlink:href="LaserSensorLog_8h.html" target="_top" xlink:title=" ">
<polygon fill="none" stroke="black" points="2233,-67.5 2233,-86.5 2335,-86.5 2335,-67.5 2233,-67.5"/>
<text text-anchor="middle" x="2284" y="-74.5" font-family="FreeSans.ttf" font-size="10.00">LaserSensorLog.h</text>
</a>
</g>
</g>
<!-- Node1&#45;&gt;Node14 -->
<g id="edge14" class="edge">
<title>Node1&#45;&gt;Node14</title>
<path fill="none" stroke="midnightblue" d="M2156.93,-123.44C2182.22,-114.4 2222.3,-100.06 2250.68,-89.92"/>
<polygon fill="midnightblue" stroke="midnightblue" points="2251.95,-93.18 2260.19,-86.52 2249.59,-86.59 2251.95,-93.18"/>
</g>
<!-- Node16 -->
<g id="node16" class="node">
<title>Node16</title>
<g id="a_node16"><a xlink:title=" ">
<polygon fill="none" stroke="#bfbfbf" points="2457.5,-6 2457.5,-25 2574.5,-25 2574.5,-6 2457.5,-6"/>
<text text-anchor="middle" x="2516" y="-13" font-family="FreeSans.ttf" font-size="10.00">yarp/os/LogStream.h</text>
</a>
</g>
</g>
<!-- Node1&#45;&gt;Node16 -->
<g id="edge37" class="edge">
<title>Node1&#45;&gt;Node16</title>
<path fill="none" stroke="midnightblue" d="M2177.58,-125.99C2220.94,-119.34 2288.25,-106.85 2344,-87 2362.35,-80.47 2365.2,-74.91 2383,-67 2415.96,-52.34 2454.61,-37.97 2481.72,-28.33"/>
<polygon fill="midnightblue" stroke="midnightblue" points="2482.89,-31.63 2491.16,-25 2480.56,-25.03 2482.89,-31.63"/>
</g>
<!-- Node17 -->
<g id="node17" class="node">
<title>Node17</title>
<g id="a_node17"><a xlink:href="Handler_8hh.html" target="_top" xlink:title=" ">
<polygon fill="none" stroke="black" points="1280,-67.5 1280,-86.5 1444,-86.5 1444,-67.5 1280,-67.5"/>
<text text-anchor="middle" x="1362" y="-74.5" font-family="FreeSans.ttf" font-size="10.00">GazeboYarpPlugins/Handler.hh</text>
</a>
</g>
</g>
<!-- Node1&#45;&gt;Node17 -->
<g id="edge17" class="edge">
<title>Node1&#45;&gt;Node17</title>
<path fill="none" stroke="midnightblue" d="M2088.5,-128.88C1965.84,-120.29 1620.99,-96.14 1454.39,-84.47"/>
<polygon fill="midnightblue" stroke="midnightblue" points="1454.38,-80.96 1444.16,-83.75 1453.89,-87.94 1454.38,-80.96"/>
</g>
<!-- Node22 -->
<g id="node22" class="node">
<title>Node22</title>
<g id="a_node22"><a xlink:href="common_8h.html" target="_top" xlink:title=" ">
<polygon fill="none" stroke="black" points="2051,-67.5 2051,-86.5 2215,-86.5 2215,-67.5 2051,-67.5"/>
<text text-anchor="middle" x="2133" y="-74.5" font-family="FreeSans.ttf" font-size="10.00">GazeboYarpPlugins/common.h</text>
</a>
</g>
</g>
<!-- Node1&#45;&gt;Node22 -->
<g id="edge25" class="edge">
<title>Node1&#45;&gt;Node22</title>
<path fill="none" stroke="midnightblue" d="M2133,-123.08C2133,-116.01 2133,-105.86 2133,-96.99"/>
<polygon fill="midnightblue" stroke="midnightblue" points="2136.5,-96.75 2133,-86.75 2129.5,-96.75 2136.5,-96.75"/>
</g>
<!-- Node24 -->
<g id="node24" class="node">
<title>Node24</title>
<g id="a_node24"><a xlink:href="ConfHelpers_8hh.html" target="_top" xlink:title=" ">
<polygon fill="none" stroke="black" points="1784.5,-67.5 1784.5,-86.5 1971.5,-86.5 1971.5,-67.5 1784.5,-67.5"/>
<text text-anchor="middle" x="1878" y="-74.5" font-family="FreeSans.ttf" font-size="10.00">GazeboYarpPlugins/ConfHelpers.hh</text>
</a>
</g>
</g>
<!-- Node1&#45;&gt;Node24 -->
<g id="edge28" class="edge">
<title>Node1&#45;&gt;Node24</title>
<path fill="none" stroke="midnightblue" d="M2092.59,-123.44C2048.02,-114 1976.23,-98.8 1928.11,-88.61"/>
<polygon fill="midnightblue" stroke="midnightblue" points="1928.72,-85.16 1918.22,-86.52 1927.27,-92.01 1928.72,-85.16"/>
</g>
<!-- Node27 -->
<g id="node27" class="node">
<title>Node27</title>
<g id="a_node27"><a xlink:title=" ">
<polygon fill="none" stroke="#bfbfbf" points="2391.5,-67.5 2391.5,-86.5 2552.5,-86.5 2552.5,-67.5 2391.5,-67.5"/>
<text text-anchor="middle" x="2472" y="-74.5" font-family="FreeSans.ttf" font-size="10.00">gazebo/sensors/RaySensor.hh</text>
</a>
</g>
</g>
<!-- Node1&#45;&gt;Node27 -->
<g id="edge33" class="edge">
<title>Node1&#45;&gt;Node27</title>
<path fill="none" stroke="midnightblue" d="M2177.67,-124.88C2236.75,-115.47 2341.25,-98.83 2408.52,-88.11"/>
<polygon fill="midnightblue" stroke="midnightblue" points="2409.25,-91.54 2418.57,-86.51 2408.15,-84.63 2409.25,-91.54"/>
</g>
<!-- Node28 -->
<g id="node28" class="node">
<title>Node28</title>
<g id="a_node28"><a xlink:title=" ">
<polygon fill="none" stroke="#bfbfbf" points="2570.5,-67.5 2570.5,-86.5 2725.5,-86.5 2725.5,-67.5 2570.5,-67.5"/>
<text text-anchor="middle" x="2648" y="-74.5" font-family="FreeSans.ttf" font-size="10.00">yarp/dev/IMultipleWrapper.h</text>
</a>
</g>
</g>
<!-- Node1&#45;&gt;Node28 -->
<g id="edge35" class="edge">
<title>Node1&#45;&gt;Node28</title>
<path fill="none" stroke="midnightblue" d="M2177.8,-127.3C2262.88,-118.38 2449.2,-98.85 2560.05,-87.22"/>
<polygon fill="midnightblue" stroke="midnightblue" points="2560.63,-90.68 2570.21,-86.16 2559.9,-83.72 2560.63,-90.68"/>
</g>
<!-- Node29 -->
<g id="node29" class="node">
<title>Node29</title>
<g id="a_node29"><a xlink:title=" ">
<polygon fill="none" stroke="#bfbfbf" points="2744,-67.5 2744,-86.5 2850,-86.5 2850,-67.5 2744,-67.5"/>
<text text-anchor="middle" x="2797" y="-74.5" font-family="FreeSans.ttf" font-size="10.00">yarp/os/Network.h</text>
</a>
</g>
</g>
<!-- Node1&#45;&gt;Node29 -->
<g id="edge36" class="edge">
<title>Node1&#45;&gt;Node29</title>
<path fill="none" stroke="midnightblue" d="M2177.66,-129.73C2276.1,-124.49 2519.4,-110.28 2733.75,-87.06"/>
<polygon fill="midnightblue" stroke="midnightblue" points="2734.37,-90.52 2743.93,-85.95 2733.61,-83.56 2734.37,-90.52"/>
</g>
<!-- Node3 -->
<g id="node3" class="node">
<title>Node3</title>
<g id="a_node3"><a xlink:title=" ">
<polygon fill="none" stroke="#bfbfbf" points="790,-6 790,-25 936,-25 936,-6 790,-6"/>
<text text-anchor="middle" x="863" y="-13" font-family="FreeSans.ttf" font-size="10.00">gazebo/common/Plugin.hh</text>
</a>
</g>
</g>
<!-- Node2&#45;&gt;Node3 -->
<g id="edge2" class="edge">
<title>Node2&#45;&gt;Node3</title>
<path fill="none" stroke="midnightblue" d="M1140.75,-67.66C1082.77,-56.98 982.28,-38.47 919.39,-26.89"/>
<polygon fill="midnightblue" stroke="midnightblue" points="919.72,-23.39 909.25,-25.02 918.45,-30.27 919.72,-23.39"/>
</g>
<!-- Node2&#45;&gt;Node4 -->
<g id="edge3" class="edge">
<title>Node2&#45;&gt;Node4</title>
<path fill="none" stroke="midnightblue" d="M1170.96,-67.48C1153.72,-57.71 1125.26,-41.58 1104.97,-30.08"/>
<polygon fill="midnightblue" stroke="midnightblue" points="1106.44,-26.89 1096.02,-25.01 1102.99,-32.98 1106.44,-26.89"/>
</g>
<!-- Node5 -->
<g id="node5" class="node">
<title>Node5</title>
<g id="a_node5"><a xlink:title=" ">
<polygon fill="none" stroke="#bfbfbf" points="2173,-6 2173,-25 2217,-25 2217,-6 2173,-6"/>
<text text-anchor="middle" x="2195" y="-13" font-family="FreeSans.ttf" font-size="10.00">string</text>
</a>
</g>
</g>
<!-- Node2&#45;&gt;Node5 -->
<g id="edge4" class="edge">
<title>Node2&#45;&gt;Node5</title>
<path fill="none" stroke="midnightblue" d="M1231.39,-70.64C1244.18,-69.28 1258.12,-67.94 1271,-67 1468.86,-52.55 1969.97,-76.79 2163,-31 2165.22,-30.47 2167.47,-29.79 2169.7,-29.01"/>
<polygon fill="midnightblue" stroke="midnightblue" points="2171.23,-32.17 2179.15,-25.13 2168.57,-25.69 2171.23,-32.17"/>
</g>
<!-- Node6&#45;&gt;Node3 -->
<g id="edge12" class="edge">
<title>Node6&#45;&gt;Node3</title>
<path fill="none" stroke="midnightblue" d="M722.5,-67.48C750.63,-57.27 797.93,-40.11 829.79,-28.55"/>
<polygon fill="midnightblue" stroke="midnightblue" points="831.34,-31.71 839.55,-25.01 828.95,-25.13 831.34,-31.71"/>
</g>
<!-- Node7 -->
<g id="node7" class="node">
<title>Node7</title>
<g id="a_node7"><a xlink:title=" ">
<polygon fill="none" stroke="#bfbfbf" points="474,-6 474,-25 608,-25 608,-6 474,-6"/>
<text text-anchor="middle" x="541" y="-13" font-family="FreeSans.ttf" font-size="10.00">yarp/dev/DeviceDriver.h</text>
</a>
</g>
</g>
<!-- Node6&#45;&gt;Node7 -->
<g id="edge6" class="edge">
<title>Node6&#45;&gt;Node7</title>
<path fill="none" stroke="midnightblue" d="M676.36,-67.48C649.26,-57.27 603.69,-40.11 573,-28.55"/>
<polygon fill="midnightblue" stroke="midnightblue" points="574.19,-25.26 563.6,-25.01 571.72,-31.81 574.19,-25.26"/>
</g>
<!-- Node8 -->
<g id="node8" class="node">
<title>Node8</title>
<g id="a_node8"><a xlink:title=" ">
<polygon fill="none" stroke="#bfbfbf" points="626,-6 626,-25 772,-25 772,-6 626,-6"/>
<text text-anchor="middle" x="699" y="-13" font-family="FreeSans.ttf" font-size="10.00">yarp/dev/IRangefinder2D.h</text>
</a>
</g>
</g>
<!-- Node6&#45;&gt;Node8 -->
<g id="edge7" class="edge">
<title>Node6&#45;&gt;Node8</title>
<path fill="none" stroke="midnightblue" d="M699,-67.48C699,-59.08 699,-45.98 699,-35.16"/>
<polygon fill="midnightblue" stroke="midnightblue" points="702.5,-35.01 699,-25.01 695.5,-35.01 702.5,-35.01"/>
</g>
<!-- Node9 -->
<g id="node9" class="node">
<title>Node9</title>
<g id="a_node9"><a xlink:title=" ">
<polygon fill="none" stroke="#bfbfbf" points="0,-0.5 0,-30.5 156,-30.5 156,-0.5 0,-0.5"/>
<text text-anchor="start" x="8" y="-18.5" font-family="FreeSans.ttf" font-size="10.00">yarp/dev/LaserMeasurement</text>
<text text-anchor="middle" x="78" y="-7.5" font-family="FreeSans.ttf" font-size="10.00">Data.h</text>
</a>
</g>
</g>
<!-- Node6&#45;&gt;Node9 -->
<g id="edge8" class="edge">
<title>Node6&#45;&gt;Node9</title>
<path fill="none" stroke="midnightblue" d="M641.94,-72.72C545.91,-66.85 345.7,-53.2 166.36,-31.1"/>
<polygon fill="midnightblue" stroke="midnightblue" points="166.57,-27.6 156.21,-29.84 165.7,-34.55 166.57,-27.6"/>
</g>
<!-- Node10 -->
<g id="node10" class="node">
<title>Node10</title>
<g id="a_node10"><a xlink:title=" ">
<polygon fill="none" stroke="#bfbfbf" points="174.5,-6 174.5,-25 341.5,-25 341.5,-6 174.5,-6"/>
<text text-anchor="middle" x="258" y="-13" font-family="FreeSans.ttf" font-size="10.00">yarp/dev/Lidar2DDeviceBase.h</text>
</a>
</g>
</g>
<!-- Node6&#45;&gt;Node10 -->
<g id="edge9" class="edge">
<title>Node6&#45;&gt;Node10</title>
<path fill="none" stroke="midnightblue" d="M641.97,-69.09C572.99,-60.62 453.38,-45.6 351,-31 341.29,-29.62 331.03,-28.08 321,-26.55"/>
<polygon fill="midnightblue" stroke="midnightblue" points="321.5,-23.09 311.08,-25.02 320.43,-30 321.5,-23.09"/>
</g>
<!-- Node11 -->
<g id="node11" class="node">
<title>Node11</title>
<g id="a_node11"><a xlink:title=" ">
<polygon fill="none" stroke="#bfbfbf" points="360,-6 360,-25 456,-25 456,-6 360,-6"/>
<text text-anchor="middle" x="408" y="-13" font-family="FreeSans.ttf" font-size="10.00">yarp/os/Stamp.h</text>
</a>
</g>
</g>
<!-- Node6&#45;&gt;Node11 -->
<g id="edge10" class="edge">
<title>Node6&#45;&gt;Node11</title>
<path fill="none" stroke="midnightblue" d="M649.97,-67.44C602.51,-58.95 528.59,-45.19 465,-31 460.21,-29.93 455.2,-28.75 450.24,-27.54"/>
<polygon fill="midnightblue" stroke="midnightblue" points="450.72,-24.06 440.18,-25.04 449.03,-30.85 450.72,-24.06"/>
</g>
<!-- Node12 -->
<g id="node12" class="node">
<title>Node12</title>
<g id="a_node12"><a xlink:title=" ">
<polygon fill="none" stroke="#bfbfbf" points="1216.5,-6 1216.5,-25 1335.5,-25 1335.5,-6 1216.5,-6"/>
<text text-anchor="middle" x="1276" y="-13" font-family="FreeSans.ttf" font-size="10.00">boost/shared_ptr.hpp</text>
</a>
</g>
</g>
<!-- Node6&#45;&gt;Node12 -->
<g id="edge11" class="edge">
<title>Node6&#45;&gt;Node12</title>
<path fill="none" stroke="midnightblue" d="M756.02,-73.16C850.27,-67.98 1044.33,-55.21 1207,-31 1214.24,-29.92 1221.87,-28.56 1229.3,-27.1"/>
<polygon fill="midnightblue" stroke="midnightblue" points="1230.16,-30.49 1239.26,-25.06 1228.76,-23.63 1230.16,-30.49"/>
</g>
<!-- Node13 -->
<g id="node13" class="node">
<title>Node13</title>
<g id="a_node13"><a xlink:title=" ">
<polygon fill="none" stroke="#bfbfbf" points="954,-6 954,-25 1002,-25 1002,-6 954,-6"/>
<text text-anchor="middle" x="978" y="-13" font-family="FreeSans.ttf" font-size="10.00">mutex</text>
</a>
</g>
</g>
<!-- Node6&#45;&gt;Node13 -->
<g id="edge13" class="edge">
<title>Node6&#45;&gt;Node13</title>
<path fill="none" stroke="midnightblue" d="M756.07,-69.4C806.52,-62.66 881.7,-50.41 945,-31 946.93,-30.41 948.9,-29.74 950.86,-29.01"/>
<polygon fill="midnightblue" stroke="midnightblue" points="952.53,-32.11 960.48,-25.1 949.9,-25.63 952.53,-32.11"/>
</g>
<!-- Node15 -->
<g id="node15" class="node">
<title>Node15</title>
<g id="a_node15"><a xlink:title=" ">
<polygon fill="none" stroke="#bfbfbf" points="2301,-6 2301,-25 2439,-25 2439,-6 2301,-6"/>
<text text-anchor="middle" x="2370" y="-13" font-family="FreeSans.ttf" font-size="10.00">yarp/os/LogComponent.h</text>
</a>
</g>
</g>
<!-- Node14&#45;&gt;Node15 -->
<g id="edge15" class="edge">
<title>Node14&#45;&gt;Node15</title>
<path fill="none" stroke="midnightblue" d="M2296.32,-67.48C2310.12,-57.93 2332.7,-42.31 2349.23,-30.87"/>
<polygon fill="midnightblue" stroke="midnightblue" points="2351.47,-33.58 2357.7,-25.01 2347.49,-27.82 2351.47,-33.58"/>
</g>
<!-- Node14&#45;&gt;Node16 -->
<g id="edge16" class="edge">
<title>Node14&#45;&gt;Node16</title>
<path fill="none" stroke="midnightblue" d="M2317.24,-67.48C2358.24,-56.96 2428.03,-39.06 2473.05,-27.51"/>
<polygon fill="midnightblue" stroke="midnightblue" points="2474,-30.88 2482.82,-25.01 2472.27,-24.1 2474,-30.88"/>
</g>
<!-- Node17&#45;&gt;Node4 -->
<g id="edge22" class="edge">
<title>Node17&#45;&gt;Node4</title>
<path fill="none" stroke="midnightblue" d="M1321.74,-67.48C1271.56,-56.85 1185.77,-38.68 1131.31,-27.15"/>
<polygon fill="midnightblue" stroke="midnightblue" points="1131.69,-23.66 1121.19,-25.01 1130.24,-30.5 1131.69,-23.66"/>
</g>
<!-- Node17&#45;&gt;Node12 -->
<g id="edge20" class="edge">
<title>Node17&#45;&gt;Node12</title>
<path fill="none" stroke="midnightblue" d="M1349.68,-67.48C1335.88,-57.93 1313.3,-42.31 1296.77,-30.87"/>
<polygon fill="midnightblue" stroke="midnightblue" points="1298.51,-27.82 1288.3,-25.01 1294.53,-33.58 1298.51,-27.82"/>
</g>
<!-- Node17&#45;&gt;Node13 -->
<g id="edge21" class="edge">
<title>Node17&#45;&gt;Node13</title>
<path fill="none" stroke="midnightblue" d="M1279.78,-68.2C1192.33,-59.42 1059.99,-44.6 1011,-31 1008.84,-30.4 1006.65,-29.69 1004.46,-28.9"/>
<polygon fill="midnightblue" stroke="midnightblue" points="1005.71,-25.63 995.13,-25.13 1003.09,-32.12 1005.71,-25.63"/>
</g>
<!-- Node18 -->
<g id="node18" class="node">
<title>Node18</title>
<g id="a_node18"><a xlink:title=" ">
<polygon fill="none" stroke="#bfbfbf" points="1160,-6 1160,-25 1198,-25 1198,-6 1160,-6"/>
<text text-anchor="middle" x="1179" y="-13" font-family="FreeSans.ttf" font-size="10.00">map</text>
</a>
</g>
</g>
<!-- Node17&#45;&gt;Node18 -->
<g id="edge18" class="edge">
<title>Node17&#45;&gt;Node18</title>
<path fill="none" stroke="midnightblue" d="M1324.99,-67.42C1293.16,-59.54 1246.29,-46.7 1207,-31 1205.8,-30.52 1204.58,-30.01 1203.36,-29.47"/>
<polygon fill="midnightblue" stroke="midnightblue" points="1204.68,-26.22 1194.15,-25.03 1201.64,-32.52 1204.68,-26.22"/>
</g>
<!-- Node19 -->
<g id="node19" class="node">
<title>Node19</title>
<g id="a_node19"><a xlink:title=" ">
<polygon fill="none" stroke="#bfbfbf" points="1679.5,-6 1679.5,-25 1772.5,-25 1772.5,-6 1679.5,-6"/>
<text text-anchor="middle" x="1726" y="-13" font-family="FreeSans.ttf" font-size="10.00">sdf/sdf_config.h</text>
</a>
</g>
</g>
<!-- Node17&#45;&gt;Node19 -->
<g id="edge19" class="edge">
<title>Node17&#45;&gt;Node19</title>
<path fill="none" stroke="midnightblue" d="M1435.82,-67.49C1498.46,-59.73 1590.54,-47.04 1670,-31 1675.1,-29.97 1680.43,-28.76 1685.68,-27.49"/>
<polygon fill="midnightblue" stroke="midnightblue" points="1686.77,-30.83 1695.62,-25 1685.07,-24.04 1686.77,-30.83"/>
</g>
<!-- Node20 -->
<g id="node20" class="node">
<title>Node20</title>
<g id="a_node20"><a xlink:title=" ">
<polygon fill="none" stroke="#bfbfbf" points="1354,-6 1354,-25 1494,-25 1494,-6 1354,-6"/>
<text text-anchor="middle" x="1424" y="-13" font-family="FreeSans.ttf" font-size="10.00">yarp/dev/PolyDriverList.h</text>
</a>
</g>
</g>
<!-- Node17&#45;&gt;Node20 -->
<g id="edge23" class="edge">
<title>Node17&#45;&gt;Node20</title>
<path fill="none" stroke="midnightblue" d="M1370.88,-67.48C1380.46,-58.28 1395.91,-43.46 1407.69,-32.16"/>
<polygon fill="midnightblue" stroke="midnightblue" points="1410.34,-34.46 1415.13,-25.01 1405.49,-29.41 1410.34,-34.46"/>
</g>
<!-- Node21 -->
<g id="node21" class="node">
<title>Node21</title>
<g id="a_node21"><a xlink:title=" ">
<polygon fill="none" stroke="#bfbfbf" points="1512.5,-6 1512.5,-25 1661.5,-25 1661.5,-6 1512.5,-6"/>
<text text-anchor="middle" x="1587" y="-13" font-family="FreeSans.ttf" font-size="10.00">gazebo/common/Events.hh</text>
</a>
</g>
</g>
<!-- Node17&#45;&gt;Node21 -->
<g id="edge24" class="edge">
<title>Node17&#45;&gt;Node21</title>
<path fill="none" stroke="midnightblue" d="M1394.24,-67.48C1433.92,-56.98 1501.4,-39.14 1545.07,-27.59"/>
<polygon fill="midnightblue" stroke="midnightblue" points="1546.05,-30.95 1554.82,-25.01 1544.26,-24.18 1546.05,-30.95"/>
</g>
<!-- Node22&#45;&gt;Node5 -->
<g id="edge26" class="edge">
<title>Node22&#45;&gt;Node5</title>
<path fill="none" stroke="midnightblue" d="M2141.88,-67.48C2151.46,-58.28 2166.91,-43.46 2178.69,-32.16"/>
<polygon fill="midnightblue" stroke="midnightblue" points="2181.34,-34.46 2186.13,-25.01 2176.49,-29.41 2181.34,-34.46"/>
</g>
<!-- Node23 -->
<g id="node23" class="node">
<title>Node23</title>
<g id="a_node23"><a xlink:title=" ">
<polygon fill="none" stroke="#bfbfbf" points="2235.5,-6 2235.5,-25 2282.5,-25 2282.5,-6 2235.5,-6"/>
<text text-anchor="middle" x="2259" y="-13" font-family="FreeSans.ttf" font-size="10.00">cmath</text>
</a>
</g>
</g>
<!-- Node22&#45;&gt;Node23 -->
<g id="edge27" class="edge">
<title>Node22&#45;&gt;Node23</title>
<path fill="none" stroke="midnightblue" d="M2151.05,-67.48C2172.2,-57.49 2207.44,-40.85 2231.88,-29.31"/>
<polygon fill="midnightblue" stroke="midnightblue" points="2233.43,-32.44 2240.98,-25.01 2230.44,-26.11 2233.43,-32.44"/>
</g>
<!-- Node24&#45;&gt;Node12 -->
<g id="edge30" class="edge">
<title>Node24&#45;&gt;Node12</title>
<path fill="none" stroke="midnightblue" d="M1784.21,-71.58C1677.43,-65.73 1497.98,-53.45 1345,-31 1337.59,-29.91 1329.78,-28.52 1322.18,-27.02"/>
<polygon fill="midnightblue" stroke="midnightblue" points="1322.87,-23.59 1312.38,-25.02 1321.47,-30.45 1322.87,-23.59"/>
</g>
<!-- Node24&#45;&gt;Node19 -->
<g id="edge29" class="edge">
<title>Node24&#45;&gt;Node19</title>
<path fill="none" stroke="midnightblue" d="M1856.22,-67.48C1830.26,-57.31 1786.69,-40.26 1757.17,-28.7"/>
<polygon fill="midnightblue" stroke="midnightblue" points="1758.33,-25.4 1747.74,-25.01 1755.77,-31.91 1758.33,-25.4"/>
</g>
<!-- Node25 -->
<g id="node25" class="node">
<title>Node25</title>
<g id="a_node25"><a xlink:title=" ">
<polygon fill="none" stroke="#bfbfbf" points="1983.5,-6 1983.5,-25 2154.5,-25 2154.5,-6 1983.5,-6"/>
<text text-anchor="middle" x="2069" y="-13" font-family="FreeSans.ttf" font-size="10.00">gazebo/sensors/SensorTypes.hh</text>
</a>
</g>
</g>
<!-- Node24&#45;&gt;Node25 -->
<g id="edge31" class="edge">
<title>Node24&#45;&gt;Node25</title>
<path fill="none" stroke="midnightblue" d="M1905.37,-67.48C1938.55,-57.14 1994.65,-39.66 2031.76,-28.1"/>
<polygon fill="midnightblue" stroke="midnightblue" points="2033.18,-31.32 2041.69,-25.01 2031.1,-24.64 2033.18,-31.32"/>
</g>
<!-- Node26 -->
<g id="node26" class="node">
<title>Node26</title>
<g id="a_node26"><a xlink:title=" ">
<polygon fill="none" stroke="#bfbfbf" points="1791,-6 1791,-25 1965,-25 1965,-6 1791,-6"/>
<text text-anchor="middle" x="1878" y="-13" font-family="FreeSans.ttf" font-size="10.00">gazebo/physics/PhysicsTypes.hh</text>
</a>
</g>
</g>
<!-- Node24&#45;&gt;Node26 -->
<g id="edge32" class="edge">
<title>Node24&#45;&gt;Node26</title>
<path fill="none" stroke="midnightblue" d="M1878,-67.48C1878,-59.08 1878,-45.98 1878,-35.16"/>
<polygon fill="midnightblue" stroke="midnightblue" points="1881.5,-35.01 1878,-25.01 1874.5,-35.01 1881.5,-35.01"/>
</g>
</g>
</svg>
