<?xml version="1.0" encoding="UTF-8" standalone="no"?>
<!DOCTYPE svg PUBLIC "-//W3C//DTD SVG 1.1//EN"
 "http://www.w3.org/Graphics/SVG/1.1/DTD/svg11.dtd">
<!-- Generated by graphviz version 2.43.0 (0)
 -->
<!-- Title: LaserSensor.cc Pages: 1 -->
<svg width="2557pt" height="151pt"
 viewBox="0.00 0.00 2557.00 151.00" xmlns="http://www.w3.org/2000/svg" xmlns:xlink="http://www.w3.org/1999/xlink">
<g id="graph0" class="graph" transform="scale(1 1) rotate(0) translate(4 147)">
<title>LaserSensor.cc</title>
<!-- Node1 -->
<g id="node1" class="node">
<title>Node1</title>
<g id="a_node1"><a xlink:title=" ">
<polygon fill="#bfbfbf" stroke="black" points="1713,-123.5 1713,-142.5 1802,-142.5 1802,-123.5 1713,-123.5"/>
<text text-anchor="middle" x="1757.5" y="-130.5" font-family="FreeSans.ttf" font-size="10.00">LaserSensor.cc</text>
</a>
</g>
</g>
<!-- Node2 -->
<g id="node2" class="node">
<title>Node2</title>
<g id="a_node2"><a xlink:href="LaserSensor_8hh.html" target="_top" xlink:title=" ">
<polygon fill="none" stroke="black" points="1276.5,-67.5 1276.5,-86.5 1366.5,-86.5 1366.5,-67.5 1276.5,-67.5"/>
<text text-anchor="middle" x="1321.5" y="-74.5" font-family="FreeSans.ttf" font-size="10.00">LaserSensor.hh</text>
</a>
</g>
</g>
<!-- Node1&#45;&gt;Node2 -->
<g id="edge1" class="edge">
<title>Node1&#45;&gt;Node2</title>
<path fill="none" stroke="midnightblue" d="M1712.71,-127.43C1643.08,-120.16 1504.42,-105.08 1376.53,-87.09"/>
<polygon fill="midnightblue" stroke="midnightblue" points="1376.95,-83.61 1366.56,-85.68 1375.97,-90.54 1376.95,-83.61"/>
</g>
<!-- Node4 -->
<g id="node4" class="node">
<title>Node4</title>
<g id="a_node4"><a xlink:title=" ">
<polygon fill="none" stroke="#bfbfbf" points="1187.5,-6 1187.5,-25 1309.5,-25 1309.5,-6 1187.5,-6"/>
<text text-anchor="middle" x="1248.5" y="-13" font-family="FreeSans.ttf" font-size="10.00">yarp/dev/PolyDriver.h</text>
</a>
</g>
</g>
<!-- Node1&#45;&gt;Node4 -->
<g id="edge31" class="edge">
<title>Node1&#45;&gt;Node4</title>
<path fill="none" stroke="midnightblue" d="M1712.99,-130.78C1598.66,-127.23 1301.2,-115.36 1267.5,-87 1252.53,-74.4 1248.7,-51.36 1248.03,-35.05"/>
<polygon fill="midnightblue" stroke="midnightblue" points="1251.53,-35.03 1247.96,-25.05 1244.53,-35.07 1251.53,-35.03"/>
</g>
<!-- Node6 -->
<g id="node6" class="node">
<title>Node6</title>
<g id="a_node6"><a xlink:href="LaserSensorDriver_8h.html" target="_top" xlink:title=" ">
<polygon fill="none" stroke="black" points="720.5,-67.5 720.5,-86.5 834.5,-86.5 834.5,-67.5 720.5,-67.5"/>
<text text-anchor="middle" x="777.5" y="-74.5" font-family="FreeSans.ttf" font-size="10.00">LaserSensorDriver.h</text>
</a>
</g>
</g>
<!-- Node1&#45;&gt;Node6 -->
<g id="edge5" class="edge">
<title>Node1&#45;&gt;Node6</title>
<path fill="none" stroke="midnightblue" d="M1712.84,-129.54C1556.3,-120.91 1031.8,-92.01 844.6,-81.7"/>
<polygon fill="midnightblue" stroke="midnightblue" points="844.79,-78.2 834.61,-81.15 844.41,-85.19 844.79,-78.2"/>
</g>
<!-- Node15 -->
<g id="node15" class="node">
<title>Node15</title>
<g id="a_node15"><a xlink:href="Handler_8hh.html" target="_top" xlink:title=" ">
<polygon fill="none" stroke="black" points="1384.5,-67.5 1384.5,-86.5 1548.5,-86.5 1548.5,-67.5 1384.5,-67.5"/>
<text text-anchor="middle" x="1466.5" y="-74.5" font-family="FreeSans.ttf" font-size="10.00">GazeboYarpPlugins/Handler.hh</text>
</a>
</g>
</g>
<!-- Node1&#45;&gt;Node15 -->
<g id="edge15" class="edge">
<title>Node1&#45;&gt;Node15</title>
<path fill="none" stroke="midnightblue" d="M1712.99,-123.74C1661.88,-114.26 1577.96,-98.68 1522.47,-88.39"/>
<polygon fill="midnightblue" stroke="midnightblue" points="1522.92,-84.91 1512.45,-86.53 1521.64,-91.79 1522.92,-84.91"/>
</g>
<!-- Node19 -->
<g id="node19" class="node">
<title>Node19</title>
<g id="a_node19"><a xlink:href="common_8h.html" target="_top" xlink:title=" ">
<polygon fill="none" stroke="black" points="1772.5,-67.5 1772.5,-86.5 1936.5,-86.5 1936.5,-67.5 1772.5,-67.5"/>
<text text-anchor="middle" x="1854.5" y="-74.5" font-family="FreeSans.ttf" font-size="10.00">GazeboYarpPlugins/common.h</text>
</a>
</g>
</g>
<!-- Node1&#45;&gt;Node19 -->
<g id="edge22" class="edge">
<title>Node1&#45;&gt;Node19</title>
<path fill="none" stroke="midnightblue" d="M1773.08,-123.32C1788.5,-114.74 1812.31,-101.49 1830.21,-91.52"/>
<polygon fill="midnightblue" stroke="midnightblue" points="1831.92,-94.58 1838.95,-86.65 1828.51,-88.46 1831.92,-94.58"/>
</g>
<!-- Node21 -->
<g id="node21" class="node">
<title>Node21</title>
<g id="a_node21"><a xlink:href="ConfHelpers_8hh.html" target="_top" xlink:title=" ">
<polygon fill="none" stroke="black" points="1567,-67.5 1567,-86.5 1754,-86.5 1754,-67.5 1567,-67.5"/>
<text text-anchor="middle" x="1660.5" y="-74.5" font-family="FreeSans.ttf" font-size="10.00">GazeboYarpPlugins/ConfHelpers.hh</text>
</a>
</g>
</g>
<!-- Node1&#45;&gt;Node21 -->
<g id="edge25" class="edge">
<title>Node1&#45;&gt;Node21</title>
<path fill="none" stroke="midnightblue" d="M1741.92,-123.32C1726.5,-114.74 1702.69,-101.49 1684.79,-91.52"/>
<polygon fill="midnightblue" stroke="midnightblue" points="1686.49,-88.46 1676.05,-86.65 1683.08,-94.58 1686.49,-88.46"/>
</g>
<!-- Node24 -->
<g id="node24" class="node">
<title>Node24</title>
<g id="a_node24"><a xlink:title=" ">
<polygon fill="none" stroke="#bfbfbf" points="1955,-67.5 1955,-86.5 2116,-86.5 2116,-67.5 1955,-67.5"/>
<text text-anchor="middle" x="2035.5" y="-74.5" font-family="FreeSans.ttf" font-size="10.00">gazebo/sensors/RaySensor.hh</text>
</a>
</g>
</g>
<!-- Node1&#45;&gt;Node24 -->
<g id="edge30" class="edge">
<title>Node1&#45;&gt;Node24</title>
<path fill="none" stroke="midnightblue" d="M1801.55,-123.44C1850.35,-113.96 1929.06,-98.67 1981.53,-88.48"/>
<polygon fill="midnightblue" stroke="midnightblue" points="1982.51,-91.86 1991.66,-86.52 1981.17,-84.99 1982.51,-91.86"/>
</g>
<!-- Node25 -->
<g id="node25" class="node">
<title>Node25</title>
<g id="a_node25"><a xlink:title=" ">
<polygon fill="none" stroke="#bfbfbf" points="2134,-67.5 2134,-86.5 2289,-86.5 2289,-67.5 2134,-67.5"/>
<text text-anchor="middle" x="2211.5" y="-74.5" font-family="FreeSans.ttf" font-size="10.00">yarp/dev/IMultipleWrapper.h</text>
</a>
</g>
</g>
<!-- Node1&#45;&gt;Node25 -->
<g id="edge32" class="edge">
<title>Node1&#45;&gt;Node25</title>
<path fill="none" stroke="midnightblue" d="M1802.27,-126.67C1878.33,-117.63 2033.81,-99.14 2129.71,-87.73"/>
<polygon fill="midnightblue" stroke="midnightblue" points="2130.14,-91.2 2139.66,-86.55 2129.31,-84.25 2130.14,-91.2"/>
</g>
<!-- Node26 -->
<g id="node26" class="node">
<title>Node26</title>
<g id="a_node26"><a xlink:title=" ">
<polygon fill="none" stroke="#bfbfbf" points="2307.5,-67.5 2307.5,-86.5 2413.5,-86.5 2413.5,-67.5 2307.5,-67.5"/>
<text text-anchor="middle" x="2360.5" y="-74.5" font-family="FreeSans.ttf" font-size="10.00">yarp/os/Network.h</text>
</a>
</g>
</g>
<!-- Node1&#45;&gt;Node26 -->
<g id="edge33" class="edge">
<title>Node1&#45;&gt;Node26</title>
<path fill="none" stroke="midnightblue" d="M1802.12,-129.22C1893.15,-123.34 2107.04,-108.5 2297.24,-87.08"/>
<polygon fill="midnightblue" stroke="midnightblue" points="2297.89,-90.53 2307.43,-85.92 2297.1,-83.57 2297.89,-90.53"/>
</g>
<!-- Node27 -->
<g id="node27" class="node">
<title>Node27</title>
<g id="a_node27"><a xlink:title=" ">
<polygon fill="none" stroke="#bfbfbf" points="2432,-67.5 2432,-86.5 2549,-86.5 2549,-67.5 2432,-67.5"/>
<text text-anchor="middle" x="2490.5" y="-74.5" font-family="FreeSans.ttf" font-size="10.00">yarp/os/LogStream.h</text>
</a>
</g>
</g>
<!-- Node1&#45;&gt;Node27 -->
<g id="edge34" class="edge">
<title>Node1&#45;&gt;Node27</title>
<path fill="none" stroke="midnightblue" d="M1802.34,-129.96C1908.18,-124.93 2182,-110.66 2421.96,-86.99"/>
<polygon fill="midnightblue" stroke="midnightblue" points="2422.32,-90.47 2431.92,-85.99 2421.63,-83.5 2422.32,-90.47"/>
</g>
<!-- Node3 -->
<g id="node3" class="node">
<title>Node3</title>
<g id="a_node3"><a xlink:title=" ">
<polygon fill="none" stroke="#bfbfbf" points="957.5,-6 957.5,-25 1103.5,-25 1103.5,-6 957.5,-6"/>
<text text-anchor="middle" x="1030.5" y="-13" font-family="FreeSans.ttf" font-size="10.00">gazebo/common/Plugin.hh</text>
</a>
</g>
</g>
<!-- Node2&#45;&gt;Node3 -->
<g id="edge2" class="edge">
<title>Node2&#45;&gt;Node3</title>
<path fill="none" stroke="midnightblue" d="M1279.81,-67.48C1227.73,-56.83 1138.63,-38.61 1082.25,-27.08"/>
<polygon fill="midnightblue" stroke="midnightblue" points="1082.61,-23.58 1072.12,-25.01 1081.21,-30.44 1082.61,-23.58"/>
</g>
<!-- Node2&#45;&gt;Node4 -->
<g id="edge3" class="edge">
<title>Node2&#45;&gt;Node4</title>
<path fill="none" stroke="midnightblue" d="M1311.04,-67.48C1299.55,-58.11 1280.87,-42.88 1266.91,-31.51"/>
<polygon fill="midnightblue" stroke="midnightblue" points="1268.9,-28.61 1258.94,-25.01 1264.48,-34.04 1268.9,-28.61"/>
</g>
<!-- Node5 -->
<g id="node5" class="node">
<title>Node5</title>
<g id="a_node5"><a xlink:title=" ">
<polygon fill="none" stroke="#bfbfbf" points="1623.5,-6 1623.5,-25 1667.5,-25 1667.5,-6 1623.5,-6"/>
<text text-anchor="middle" x="1645.5" y="-13" font-family="FreeSans.ttf" font-size="10.00">string</text>
</a>
</g>
</g>
<!-- Node2&#45;&gt;Node5 -->
<g id="edge4" class="edge">
<title>Node2&#45;&gt;Node5</title>
<path fill="none" stroke="midnightblue" d="M1366.57,-68.43C1369.59,-67.94 1372.59,-67.46 1375.5,-67 1481.59,-50.17 1511.67,-62.08 1614.5,-31 1616.38,-30.43 1618.28,-29.77 1620.19,-29.05"/>
<polygon fill="midnightblue" stroke="midnightblue" points="1621.62,-32.24 1629.44,-25.08 1618.87,-25.81 1621.62,-32.24"/>
</g>
<!-- Node6&#45;&gt;Node3 -->
<g id="edge13" class="edge">
<title>Node6&#45;&gt;Node3</title>
<path fill="none" stroke="midnightblue" d="M813.75,-67.48C858.65,-56.92 935.21,-38.91 984.28,-27.37"/>
<polygon fill="midnightblue" stroke="midnightblue" points="985.39,-30.71 994.32,-25.01 983.78,-23.89 985.39,-30.71"/>
</g>
<!-- Node7 -->
<g id="node7" class="node">
<title>Node7</title>
<g id="a_node7"><a xlink:title=" ">
<polygon fill="none" stroke="#bfbfbf" points="467.5,-6 467.5,-25 601.5,-25 601.5,-6 467.5,-6"/>
<text text-anchor="middle" x="534.5" y="-13" font-family="FreeSans.ttf" font-size="10.00">yarp/dev/DeviceDriver.h</text>
</a>
</g>
</g>
<!-- Node6&#45;&gt;Node7 -->
<g id="edge6" class="edge">
<title>Node6&#45;&gt;Node7</title>
<path fill="none" stroke="midnightblue" d="M742.68,-67.48C699.65,-56.94 626.33,-38.99 579.19,-27.44"/>
<polygon fill="midnightblue" stroke="midnightblue" points="579.8,-23.99 569.25,-25.01 578.13,-30.79 579.8,-23.99"/>
</g>
<!-- Node8 -->
<g id="node8" class="node">
<title>Node8</title>
<g id="a_node8"><a xlink:title=" ">
<polygon fill="none" stroke="#bfbfbf" points="619.5,-6 619.5,-25 765.5,-25 765.5,-6 619.5,-6"/>
<text text-anchor="middle" x="692.5" y="-13" font-family="FreeSans.ttf" font-size="10.00">yarp/dev/IRangefinder2D.h</text>
</a>
</g>
</g>
<!-- Node6&#45;&gt;Node8 -->
<g id="edge7" class="edge">
<title>Node6&#45;&gt;Node8</title>
<path fill="none" stroke="midnightblue" d="M765.32,-67.48C751.69,-57.93 729.37,-42.31 713.03,-30.87"/>
<polygon fill="midnightblue" stroke="midnightblue" points="714.86,-27.88 704.66,-25.01 710.84,-33.61 714.86,-27.88"/>
</g>
<!-- Node9 -->
<g id="node9" class="node">
<title>Node9</title>
<g id="a_node9"><a xlink:title=" ">
<polygon fill="none" stroke="#bfbfbf" points="783.5,-0.5 783.5,-30.5 939.5,-30.5 939.5,-0.5 783.5,-0.5"/>
<text text-anchor="start" x="791.5" y="-18.5" font-family="FreeSans.ttf" font-size="10.00">yarp/dev/LaserMeasurement</text>
<text text-anchor="middle" x="861.5" y="-7.5" font-family="FreeSans.ttf" font-size="10.00">Data.h</text>
</a>
</g>
</g>
<!-- Node6&#45;&gt;Node9 -->
<g id="edge8" class="edge">
<title>Node6&#45;&gt;Node9</title>
<path fill="none" stroke="midnightblue" d="M789.54,-67.48C800.91,-59.42 818.41,-47.02 833.3,-36.47"/>
<polygon fill="midnightblue" stroke="midnightblue" points="835.57,-39.16 841.7,-30.52 831.52,-33.45 835.57,-39.16"/>
</g>
<!-- Node10 -->
<g id="node10" class="node">
<title>Node10</title>
<g id="a_node10"><a xlink:title=" ">
<polygon fill="none" stroke="#bfbfbf" points="0,-6 0,-25 167,-25 167,-6 0,-6"/>
<text text-anchor="middle" x="83.5" y="-13" font-family="FreeSans.ttf" font-size="10.00">yarp/dev/Lidar2DDeviceBase.h</text>
</a>
</g>
</g>
<!-- Node6&#45;&gt;Node10 -->
<g id="edge9" class="edge">
<title>Node6&#45;&gt;Node10</title>
<path fill="none" stroke="midnightblue" d="M720.18,-73.24C613.11,-67.74 375.55,-53.93 176.5,-31 165.81,-29.77 154.47,-28.21 143.52,-26.58"/>
<polygon fill="midnightblue" stroke="midnightblue" points="144.01,-23.11 133.6,-25.06 142.95,-30.03 144.01,-23.11"/>
</g>
<!-- Node11 -->
<g id="node11" class="node">
<title>Node11</title>
<g id="a_node11"><a xlink:title=" ">
<polygon fill="none" stroke="#bfbfbf" points="185.5,-6 185.5,-25 281.5,-25 281.5,-6 185.5,-6"/>
<text text-anchor="middle" x="233.5" y="-13" font-family="FreeSans.ttf" font-size="10.00">yarp/os/Stamp.h</text>
</a>
</g>
</g>
<!-- Node6&#45;&gt;Node11 -->
<g id="edge10" class="edge">
<title>Node6&#45;&gt;Node11</title>
<path fill="none" stroke="midnightblue" d="M720.14,-73.62C628.69,-69.17 444.46,-57.53 290.5,-31 284.97,-30.05 279.18,-28.83 273.5,-27.52"/>
<polygon fill="midnightblue" stroke="midnightblue" points="274.03,-24.04 263.48,-25.07 272.37,-30.84 274.03,-24.04"/>
</g>
<!-- Node12 -->
<g id="node12" class="node">
<title>Node12</title>
<g id="a_node12"><a xlink:title=" ">
<polygon fill="none" stroke="#bfbfbf" points="300,-6 300,-25 449,-25 449,-6 300,-6"/>
<text text-anchor="middle" x="374.5" y="-13" font-family="FreeSans.ttf" font-size="10.00">yarp/dev/IPreciselyTimed.h</text>
</a>
</g>
</g>
<!-- Node6&#45;&gt;Node12 -->
<g id="edge11" class="edge">
<title>Node6&#45;&gt;Node12</title>
<path fill="none" stroke="midnightblue" d="M720.37,-68.48C656.48,-59.95 549.95,-45.34 458.5,-31 450.09,-29.68 441.23,-28.22 432.53,-26.76"/>
<polygon fill="midnightblue" stroke="midnightblue" points="432.88,-23.27 422.43,-25.04 431.7,-30.17 432.88,-23.27"/>
</g>
<!-- Node13 -->
<g id="node13" class="node">
<title>Node13</title>
<g id="a_node13"><a xlink:title=" ">
<polygon fill="none" stroke="#bfbfbf" points="1328,-6 1328,-25 1447,-25 1447,-6 1328,-6"/>
<text text-anchor="middle" x="1387.5" y="-13" font-family="FreeSans.ttf" font-size="10.00">boost/shared_ptr.hpp</text>
</a>
</g>
</g>
<!-- Node6&#45;&gt;Node13 -->
<g id="edge12" class="edge">
<title>Node6&#45;&gt;Node13</title>
<path fill="none" stroke="midnightblue" d="M834.62,-73.58C933.59,-68.88 1143.17,-56.61 1318.5,-31 1325.91,-29.92 1333.72,-28.52 1341.32,-27.03"/>
<polygon fill="midnightblue" stroke="midnightblue" points="1342.03,-30.46 1351.13,-25.03 1340.63,-23.6 1342.03,-30.46"/>
</g>
<!-- Node14 -->
<g id="node14" class="node">
<title>Node14</title>
<g id="a_node14"><a xlink:title=" ">
<polygon fill="none" stroke="#bfbfbf" points="1121.5,-6 1121.5,-25 1169.5,-25 1169.5,-6 1121.5,-6"/>
<text text-anchor="middle" x="1145.5" y="-13" font-family="FreeSans.ttf" font-size="10.00">mutex</text>
</a>
</g>
</g>
<!-- Node6&#45;&gt;Node14 -->
<g id="edge14" class="edge">
<title>Node6&#45;&gt;Node14</title>
<path fill="none" stroke="midnightblue" d="M834.79,-73.19C902.29,-68.77 1017.3,-57.73 1112.5,-31 1114.65,-30.4 1116.85,-29.68 1119.03,-28.89"/>
<polygon fill="midnightblue" stroke="midnightblue" points="1120.41,-32.11 1128.37,-25.11 1117.78,-25.62 1120.41,-32.11"/>
</g>
<!-- Node15&#45;&gt;Node4 -->
<g id="edge20" class="edge">
<title>Node15&#45;&gt;Node4</title>
<path fill="none" stroke="midnightblue" d="M1435.27,-67.48C1396.9,-57 1331.71,-39.21 1289.39,-27.66"/>
<polygon fill="midnightblue" stroke="midnightblue" points="1290.24,-24.27 1279.68,-25.01 1288.4,-31.02 1290.24,-24.27"/>
</g>
<!-- Node15&#45;&gt;Node13 -->
<g id="edge18" class="edge">
<title>Node15&#45;&gt;Node13</title>
<path fill="none" stroke="midnightblue" d="M1455.18,-67.48C1442.63,-58.02 1422.15,-42.6 1407,-31.19"/>
<polygon fill="midnightblue" stroke="midnightblue" points="1408.89,-28.23 1398.8,-25.01 1404.68,-33.82 1408.89,-28.23"/>
</g>
<!-- Node15&#45;&gt;Node14 -->
<g id="edge19" class="edge">
<title>Node15&#45;&gt;Node14</title>
<path fill="none" stroke="midnightblue" d="M1398.71,-67.47C1326.96,-58.07 1218.63,-42.74 1178.5,-31 1176.35,-30.37 1174.16,-29.64 1171.98,-28.84"/>
<polygon fill="midnightblue" stroke="midnightblue" points="1173.24,-25.57 1162.65,-25.04 1170.6,-32.05 1173.24,-25.57"/>
</g>
<!-- Node16 -->
<g id="node16" class="node">
<title>Node16</title>
<g id="a_node16"><a xlink:title=" ">
<polygon fill="none" stroke="#bfbfbf" points="1685.5,-6 1685.5,-25 1723.5,-25 1723.5,-6 1685.5,-6"/>
<text text-anchor="middle" x="1704.5" y="-13" font-family="FreeSans.ttf" font-size="10.00">map</text>
</a>
</g>
</g>
<!-- Node15&#45;&gt;Node16 -->
<g id="edge16" class="edge">
<title>Node15&#45;&gt;Node16</title>
<path fill="none" stroke="midnightblue" d="M1526.97,-67.44C1569.58,-60.35 1627.54,-48.56 1676.5,-31 1677.75,-30.55 1679.01,-30.06 1680.27,-29.54"/>
<polygon fill="midnightblue" stroke="midnightblue" points="1682.16,-32.51 1689.72,-25.09 1679.18,-26.18 1682.16,-32.51"/>
</g>
<!-- Node17 -->
<g id="node17" class="node">
<title>Node17</title>
<g id="a_node17"><a xlink:title=" ">
<polygon fill="none" stroke="#bfbfbf" points="1742,-6 1742,-25 1835,-25 1835,-6 1742,-6"/>
<text text-anchor="middle" x="1788.5" y="-13" font-family="FreeSans.ttf" font-size="10.00">sdf/sdf_config.h</text>
</a>
</g>
</g>
<!-- Node15&#45;&gt;Node17 -->
<g id="edge17" class="edge">
<title>Node15&#45;&gt;Node17</title>
<path fill="none" stroke="midnightblue" d="M1525.68,-67.48C1579.77,-59.34 1661.85,-46.09 1732.5,-31 1737.47,-29.94 1742.66,-28.73 1747.79,-27.48"/>
<polygon fill="midnightblue" stroke="midnightblue" points="1748.67,-30.86 1757.51,-25.03 1746.96,-24.08 1748.67,-30.86"/>
</g>
<!-- Node18 -->
<g id="node18" class="node">
<title>Node18</title>
<g id="a_node18"><a xlink:title=" ">
<polygon fill="none" stroke="#bfbfbf" points="1465.5,-6 1465.5,-25 1605.5,-25 1605.5,-6 1465.5,-6"/>
<text text-anchor="middle" x="1535.5" y="-13" font-family="FreeSans.ttf" font-size="10.00">yarp/dev/PolyDriverList.h</text>
</a>
</g>
</g>
<!-- Node15&#45;&gt;Node18 -->
<g id="edge21" class="edge">
<title>Node15&#45;&gt;Node18</title>
<path fill="none" stroke="midnightblue" d="M1476.39,-67.48C1487.15,-58.2 1504.57,-43.17 1517.72,-31.83"/>
<polygon fill="midnightblue" stroke="midnightblue" points="1520.34,-34.19 1525.63,-25.01 1515.77,-28.89 1520.34,-34.19"/>
</g>
<!-- Node19&#45;&gt;Node5 -->
<g id="edge23" class="edge">
<title>Node19&#45;&gt;Node5</title>
<path fill="none" stroke="midnightblue" d="M1811.02,-67.43C1774.55,-59.66 1721.38,-47.01 1676.5,-31 1674.88,-30.42 1673.24,-29.79 1671.59,-29.13"/>
<polygon fill="midnightblue" stroke="midnightblue" points="1672.88,-25.87 1662.31,-25.07 1670.07,-32.28 1672.88,-25.87"/>
</g>
<!-- Node20 -->
<g id="node20" class="node">
<title>Node20</title>
<g id="a_node20"><a xlink:title=" ">
<polygon fill="none" stroke="#bfbfbf" points="2235,-6 2235,-25 2282,-25 2282,-6 2235,-6"/>
<text text-anchor="middle" x="2258.5" y="-13" font-family="FreeSans.ttf" font-size="10.00">cmath</text>
</a>
</g>
</g>
<!-- Node19&#45;&gt;Node20 -->
<g id="edge24" class="edge">
<title>Node19&#45;&gt;Node20</title>
<path fill="none" stroke="midnightblue" d="M1936.16,-67.45C2037.19,-56.68 2199.25,-38.63 2226.5,-31 2228.65,-30.4 2230.83,-29.67 2233.01,-28.87"/>
<polygon fill="midnightblue" stroke="midnightblue" points="2234.37,-32.1 2242.25,-25.02 2231.68,-25.63 2234.37,-32.1"/>
</g>
<!-- Node21&#45;&gt;Node13 -->
<g id="edge27" class="edge">
<title>Node21&#45;&gt;Node13</title>
<path fill="none" stroke="midnightblue" d="M1621.39,-67.48C1572.63,-56.85 1489.29,-38.68 1436.38,-27.15"/>
<polygon fill="midnightblue" stroke="midnightblue" points="1437.06,-23.72 1426.54,-25.01 1435.57,-30.56 1437.06,-23.72"/>
</g>
<!-- Node21&#45;&gt;Node17 -->
<g id="edge26" class="edge">
<title>Node21&#45;&gt;Node17</title>
<path fill="none" stroke="midnightblue" d="M1678.84,-67.48C1700.32,-57.49 1736.12,-40.85 1760.95,-29.31"/>
<polygon fill="midnightblue" stroke="midnightblue" points="1762.6,-32.4 1770.19,-25.01 1759.65,-26.05 1762.6,-32.4"/>
</g>
<!-- Node22 -->
<g id="node22" class="node">
<title>Node22</title>
<g id="a_node22"><a xlink:title=" ">
<polygon fill="none" stroke="#bfbfbf" points="2046,-6 2046,-25 2217,-25 2217,-6 2046,-6"/>
<text text-anchor="middle" x="2131.5" y="-13" font-family="FreeSans.ttf" font-size="10.00">gazebo/sensors/SensorTypes.hh</text>
</a>
</g>
</g>
<!-- Node21&#45;&gt;Node22 -->
<g id="edge28" class="edge">
<title>Node21&#45;&gt;Node22</title>
<path fill="none" stroke="midnightblue" d="M1738.01,-67.47C1814.09,-58.91 1933.41,-45.03 2036.5,-31 2046.65,-29.62 2057.39,-28.07 2067.86,-26.5"/>
<polygon fill="midnightblue" stroke="midnightblue" points="2068.42,-29.96 2077.79,-25.01 2067.38,-23.04 2068.42,-29.96"/>
</g>
<!-- Node23 -->
<g id="node23" class="node">
<title>Node23</title>
<g id="a_node23"><a xlink:title=" ">
<polygon fill="none" stroke="#bfbfbf" points="1853.5,-6 1853.5,-25 2027.5,-25 2027.5,-6 1853.5,-6"/>
<text text-anchor="middle" x="1940.5" y="-13" font-family="FreeSans.ttf" font-size="10.00">gazebo/physics/PhysicsTypes.hh</text>
</a>
</g>
</g>
<!-- Node21&#45;&gt;Node23 -->
<g id="edge29" class="edge">
<title>Node21&#45;&gt;Node23</title>
<path fill="none" stroke="midnightblue" d="M1700.62,-67.48C1750.62,-56.85 1836.1,-38.68 1890.37,-27.15"/>
<polygon fill="midnightblue" stroke="midnightblue" points="1891.4,-30.51 1900.46,-25.01 1889.95,-23.66 1891.4,-30.51"/>
</g>
</g>
</svg>
