<?xml version="1.0" encoding="UTF-8" standalone="no"?>
<!DOCTYPE svg PUBLIC "-//W3C//DTD SVG 1.1//EN"
 "http://www.w3.org/Graphics/SVG/1.1/DTD/svg11.dtd">
<!-- Generated by graphviz version 3.0.0 (20220315.2325)
 -->
<!-- Title: LaserSensorDriver.cpp Pages: 1 -->
<svg width="2256pt" height="151pt"
 viewBox="0.00 0.00 2255.50 151.00" xmlns="http://www.w3.org/2000/svg" xmlns:xlink="http://www.w3.org/1999/xlink">
<g id="graph0" class="graph" transform="scale(1 1) rotate(0) translate(4 147)">
<title>LaserSensorDriver.cpp</title>
<!-- Node1 -->
<g id="node1" class="node">
<title>Node1</title>
<g id="a_node1"><a xlink:title=" ">
<polygon fill="#bfbfbf" stroke="black" points="1837,-123.5 1837,-142.5 1962,-142.5 1962,-123.5 1837,-123.5"/>
<text text-anchor="middle" x="1899.5" y="-130.5" font-family="FreeSans.ttf" font-size="10.00">LaserSensorDriver.cpp</text>
</a>
</g>
</g>
<!-- Node2 -->
<g id="node2" class="node">
<title>Node2</title>
<g id="a_node2"><a xlink:href="LaserSensorDriver_8h.html" target="_top" xlink:title=" ">
<polygon fill="none" stroke="black" points="631.5,-67.5 631.5,-86.5 745.5,-86.5 745.5,-67.5 631.5,-67.5"/>
<text text-anchor="middle" x="688.5" y="-74.5" font-family="FreeSans.ttf" font-size="10.00">LaserSensorDriver.h</text>
</a>
</g>
</g>
<!-- Node1&#45;&gt;Node2 -->
<g id="edge1" class="edge">
<title>Node1&#45;&gt;Node2</title>
<path fill="none" stroke="midnightblue" d="M1836.94,-129.21C1630.13,-119.99 969.48,-90.53 755.84,-81"/>
<polygon fill="midnightblue" stroke="midnightblue" points="755.85,-77.5 745.7,-80.55 755.54,-84.49 755.85,-77.5"/>
</g>
<!-- Node11 -->
<g id="node11" class="node">
<title>Node11</title>
<g id="a_node11"><a xlink:href="Handler_8hh.html" target="_top" xlink:title=" ">
<polygon fill="none" stroke="black" points="1241.5,-67.5 1241.5,-86.5 1405.5,-86.5 1405.5,-67.5 1241.5,-67.5"/>
<text text-anchor="middle" x="1323.5" y="-74.5" font-family="FreeSans.ttf" font-size="10.00">GazeboYarpPlugins/Handler.hh</text>
</a>
</g>
</g>
<!-- Node1&#45;&gt;Node11 -->
<g id="edge10" class="edge">
<title>Node1&#45;&gt;Node11</title>
<path fill="none" stroke="midnightblue" d="M1836.76,-126.12C1735.05,-116.58 1533.68,-97.7 1415.67,-86.64"/>
<polygon fill="midnightblue" stroke="midnightblue" points="1415.85,-83.14 1405.57,-85.69 1415.2,-90.11 1415.85,-83.14"/>
</g>
<!-- Node17 -->
<g id="node17" class="node">
<title>Node17</title>
<g id="a_node17"><a xlink:href="LaserSensorLog_8h.html" target="_top" xlink:title=" ">
<polygon fill="none" stroke="black" points="1809.5,-67.5 1809.5,-86.5 1911.5,-86.5 1911.5,-67.5 1809.5,-67.5"/>
<text text-anchor="middle" x="1860.5" y="-74.5" font-family="FreeSans.ttf" font-size="10.00">LaserSensorLog.h</text>
</a>
</g>
</g>
<!-- Node1&#45;&gt;Node17 -->
<g id="edge18" class="edge">
<title>Node1&#45;&gt;Node17</title>
<path fill="none" stroke="midnightblue" d="M1893.06,-123.08C1887.55,-115.46 1879.47,-104.26 1872.74,-94.94"/>
<polygon fill="midnightblue" stroke="midnightblue" points="1875.51,-92.81 1866.82,-86.75 1869.84,-96.91 1875.51,-92.81"/>
</g>
<!-- Node19 -->
<g id="node19" class="node">
<title>Node19</title>
<g id="a_node19"><a xlink:title=" ">
<polygon fill="none" stroke="#bfbfbf" points="1948,-6 1948,-25 2065,-25 2065,-6 1948,-6"/>
<text text-anchor="middle" x="2006.5" y="-13" font-family="FreeSans.ttf" font-size="10.00">yarp/os/LogStream.h</text>
</a>
</g>
</g>
<!-- Node1&#45;&gt;Node19 -->
<g id="edge23" class="edge">
<title>Node1&#45;&gt;Node19</title>
<path fill="none" stroke="midnightblue" d="M1907.64,-123.16C1919.17,-110.64 1940.92,-87.05 1959.5,-67 1970.19,-55.47 1982.27,-42.49 1991.51,-32.58"/>
<polygon fill="midnightblue" stroke="midnightblue" points="1994.25,-34.77 1998.51,-25.07 1989.13,-30 1994.25,-34.77"/>
</g>
<!-- Node20 -->
<g id="node20" class="node">
<title>Node20</title>
<g id="a_node20"><a xlink:title=" ">
<polygon fill="none" stroke="#bfbfbf" points="1968,-67.5 1968,-86.5 2081,-86.5 2081,-67.5 1968,-67.5"/>
<text text-anchor="middle" x="2024.5" y="-74.5" font-family="FreeSans.ttf" font-size="10.00">boost/bind/bind.hpp</text>
</a>
</g>
</g>
<!-- Node1&#45;&gt;Node20 -->
<g id="edge21" class="edge">
<title>Node1&#45;&gt;Node20</title>
<path fill="none" stroke="midnightblue" d="M1919.31,-123.44C1939.79,-114.6 1971.98,-100.69 1995.36,-90.59"/>
<polygon fill="midnightblue" stroke="midnightblue" points="1996.99,-93.7 2004.79,-86.52 1994.22,-87.27 1996.99,-93.7"/>
</g>
<!-- Node21 -->
<g id="node21" class="node">
<title>Node21</title>
<g id="a_node21"><a xlink:title=" ">
<polygon fill="none" stroke="#bfbfbf" points="2099.5,-67.5 2099.5,-86.5 2247.5,-86.5 2247.5,-67.5 2099.5,-67.5"/>
<text text-anchor="middle" x="2173.5" y="-74.5" font-family="FreeSans.ttf" font-size="10.00">gazebo/sensors/sensors.hh</text>
</a>
</g>
</g>
<!-- Node1&#45;&gt;Node21 -->
<g id="edge22" class="edge">
<title>Node1&#45;&gt;Node21</title>
<path fill="none" stroke="midnightblue" d="M1942.92,-123.44C1991.02,-113.96 2068.59,-98.67 2120.31,-88.48"/>
<polygon fill="midnightblue" stroke="midnightblue" points="2121.15,-91.88 2130.29,-86.52 2119.8,-85.02 2121.15,-91.88"/>
</g>
<!-- Node3 -->
<g id="node3" class="node">
<title>Node3</title>
<g id="a_node3"><a xlink:title=" ">
<polygon fill="none" stroke="#bfbfbf" points="463.5,-6 463.5,-25 597.5,-25 597.5,-6 463.5,-6"/>
<text text-anchor="middle" x="530.5" y="-13" font-family="FreeSans.ttf" font-size="10.00">yarp/dev/DeviceDriver.h</text>
</a>
</g>
</g>
<!-- Node2&#45;&gt;Node3 -->
<g id="edge2" class="edge">
<title>Node2&#45;&gt;Node3</title>
<path fill="none" stroke="midnightblue" d="M665.86,-67.48C638.76,-57.27 593.19,-40.11 562.5,-28.55"/>
<polygon fill="midnightblue" stroke="midnightblue" points="563.69,-25.26 553.1,-25.01 561.22,-31.81 563.69,-25.26"/>
</g>
<!-- Node4 -->
<g id="node4" class="node">
<title>Node4</title>
<g id="a_node4"><a xlink:title=" ">
<polygon fill="none" stroke="#bfbfbf" points="615.5,-6 615.5,-25 761.5,-25 761.5,-6 615.5,-6"/>
<text text-anchor="middle" x="688.5" y="-13" font-family="FreeSans.ttf" font-size="10.00">yarp/dev/IRangefinder2D.h</text>
</a>
</g>
</g>
<!-- Node2&#45;&gt;Node4 -->
<g id="edge3" class="edge">
<title>Node2&#45;&gt;Node4</title>
<path fill="none" stroke="midnightblue" d="M688.5,-67.48C688.5,-59.08 688.5,-45.98 688.5,-35.16"/>
<polygon fill="midnightblue" stroke="midnightblue" points="692,-35.01 688.5,-25.01 685,-35.01 692,-35.01"/>
</g>
<!-- Node5 -->
<g id="node5" class="node">
<title>Node5</title>
<g id="a_node5"><a xlink:title=" ">
<polygon fill="none" stroke="#bfbfbf" points="779.5,-0.5 779.5,-30.5 935.5,-30.5 935.5,-0.5 779.5,-0.5"/>
<text text-anchor="start" x="787.5" y="-18.5" font-family="FreeSans.ttf" font-size="10.00">yarp/dev/LaserMeasurement</text>
<text text-anchor="middle" x="857.5" y="-7.5" font-family="FreeSans.ttf" font-size="10.00">Data.h</text>
</a>
</g>
</g>
<!-- Node2&#45;&gt;Node5 -->
<g id="edge4" class="edge">
<title>Node2&#45;&gt;Node5</title>
<path fill="none" stroke="midnightblue" d="M712.71,-67.48C737.53,-58.74 776.81,-44.91 808.21,-33.86"/>
<polygon fill="midnightblue" stroke="midnightblue" points="809.4,-37.15 817.67,-30.52 807.08,-30.54 809.4,-37.15"/>
</g>
<!-- Node6 -->
<g id="node6" class="node">
<title>Node6</title>
<g id="a_node6"><a xlink:title=" ">
<polygon fill="none" stroke="#bfbfbf" points="0,-6 0,-25 167,-25 167,-6 0,-6"/>
<text text-anchor="middle" x="83.5" y="-13" font-family="FreeSans.ttf" font-size="10.00">yarp/dev/Lidar2DDeviceBase.h</text>
</a>
</g>
</g>
<!-- Node2&#45;&gt;Node6 -->
<g id="edge5" class="edge">
<title>Node2&#45;&gt;Node6</title>
<path fill="none" stroke="midnightblue" d="M631.16,-72.22C536.36,-65.69 341.03,-51.03 176.5,-31 166.05,-29.73 154.97,-28.18 144.24,-26.57"/>
<polygon fill="midnightblue" stroke="midnightblue" points="144.51,-23.07 134.09,-25.02 143.45,-29.99 144.51,-23.07"/>
</g>
<!-- Node7 -->
<g id="node7" class="node">
<title>Node7</title>
<g id="a_node7"><a xlink:title=" ">
<polygon fill="none" stroke="#bfbfbf" points="185.5,-6 185.5,-25 281.5,-25 281.5,-6 185.5,-6"/>
<text text-anchor="middle" x="233.5" y="-13" font-family="FreeSans.ttf" font-size="10.00">yarp/os/Stamp.h</text>
</a>
</g>
</g>
<!-- Node2&#45;&gt;Node7 -->
<g id="edge6" class="edge">
<title>Node2&#45;&gt;Node7</title>
<path fill="none" stroke="midnightblue" d="M631.46,-72.01C553.86,-66.03 410.89,-53.01 290.5,-31 285.04,-30 279.33,-28.77 273.71,-27.46"/>
<polygon fill="midnightblue" stroke="midnightblue" points="274.35,-24.01 263.8,-25.03 272.68,-30.81 274.35,-24.01"/>
</g>
<!-- Node8 -->
<g id="node8" class="node">
<title>Node8</title>
<g id="a_node8"><a xlink:title=" ">
<polygon fill="none" stroke="#bfbfbf" points="1020,-6 1020,-25 1139,-25 1139,-6 1020,-6"/>
<text text-anchor="middle" x="1079.5" y="-13" font-family="FreeSans.ttf" font-size="10.00">boost/shared_ptr.hpp</text>
</a>
</g>
</g>
<!-- Node2&#45;&gt;Node8 -->
<g id="edge7" class="edge">
<title>Node2&#45;&gt;Node8</title>
<path fill="none" stroke="midnightblue" d="M745.69,-69.21C810.21,-61.26 918.2,-47.13 1010.5,-31 1017.22,-29.83 1024.29,-28.47 1031.24,-27.08"/>
<polygon fill="midnightblue" stroke="midnightblue" points="1032.18,-30.46 1041.27,-25.02 1030.77,-23.6 1032.18,-30.46"/>
</g>
<!-- Node9 -->
<g id="node9" class="node">
<title>Node9</title>
<g id="a_node9"><a xlink:title=" ">
<polygon fill="none" stroke="#bfbfbf" points="299.5,-6 299.5,-25 445.5,-25 445.5,-6 299.5,-6"/>
<text text-anchor="middle" x="372.5" y="-13" font-family="FreeSans.ttf" font-size="10.00">gazebo/common/Plugin.hh</text>
</a>
</g>
</g>
<!-- Node2&#45;&gt;Node9 -->
<g id="edge8" class="edge">
<title>Node2&#45;&gt;Node9</title>
<path fill="none" stroke="midnightblue" d="M643.22,-67.48C586.32,-56.76 488.71,-38.38 427.55,-26.87"/>
<polygon fill="midnightblue" stroke="midnightblue" points="428.17,-23.42 417.69,-25.01 426.87,-30.3 428.17,-23.42"/>
</g>
<!-- Node10 -->
<g id="node10" class="node">
<title>Node10</title>
<g id="a_node10"><a xlink:title=" ">
<polygon fill="none" stroke="#bfbfbf" points="953.5,-6 953.5,-25 1001.5,-25 1001.5,-6 953.5,-6"/>
<text text-anchor="middle" x="977.5" y="-13" font-family="FreeSans.ttf" font-size="10.00">mutex</text>
</a>
</g>
</g>
<!-- Node2&#45;&gt;Node10 -->
<g id="edge9" class="edge">
<title>Node2&#45;&gt;Node10</title>
<path fill="none" stroke="midnightblue" d="M745.59,-69.95C798.09,-63.45 877.66,-51.24 944.5,-31 946.43,-30.42 948.4,-29.75 950.37,-29.03"/>
<polygon fill="midnightblue" stroke="midnightblue" points="952.03,-32.13 959.98,-25.13 949.4,-25.64 952.03,-32.13"/>
</g>
<!-- Node11&#45;&gt;Node8 -->
<g id="edge13" class="edge">
<title>Node11&#45;&gt;Node8</title>
<path fill="none" stroke="midnightblue" d="M1288.54,-67.48C1245.33,-56.94 1171.71,-38.99 1124.37,-27.44"/>
<polygon fill="midnightblue" stroke="midnightblue" points="1124.94,-23.98 1114.39,-25.01 1123.28,-30.78 1124.94,-23.98"/>
</g>
<!-- Node11&#45;&gt;Node10 -->
<g id="edge14" class="edge">
<title>Node11&#45;&gt;Node10</title>
<path fill="none" stroke="midnightblue" d="M1241.49,-70.32C1177.6,-64.45 1087.17,-52.91 1010.5,-31 1008.35,-30.39 1006.16,-29.66 1003.97,-28.87"/>
<polygon fill="midnightblue" stroke="midnightblue" points="1005.22,-25.6 994.64,-25.08 1002.59,-32.08 1005.22,-25.6"/>
</g>
<!-- Node12 -->
<g id="node12" class="node">
<title>Node12</title>
<g id="a_node12"><a xlink:title=" ">
<polygon fill="none" stroke="#bfbfbf" points="1157.5,-6 1157.5,-25 1195.5,-25 1195.5,-6 1157.5,-6"/>
<text text-anchor="middle" x="1176.5" y="-13" font-family="FreeSans.ttf" font-size="10.00">map</text>
</a>
</g>
</g>
<!-- Node11&#45;&gt;Node12 -->
<g id="edge11" class="edge">
<title>Node11&#45;&gt;Node12</title>
<path fill="none" stroke="midnightblue" d="M1298.08,-67.36C1273.75,-58.85 1236.17,-45.13 1204.5,-31 1203.5,-30.55 1202.49,-30.09 1201.46,-29.61"/>
<polygon fill="midnightblue" stroke="midnightblue" points="1202.85,-26.39 1192.33,-25.11 1199.75,-32.67 1202.85,-26.39"/>
</g>
<!-- Node13 -->
<g id="node13" class="node">
<title>Node13</title>
<g id="a_node13"><a xlink:title=" ">
<polygon fill="none" stroke="#bfbfbf" points="1214,-6 1214,-25 1307,-25 1307,-6 1214,-6"/>
<text text-anchor="middle" x="1260.5" y="-13" font-family="FreeSans.ttf" font-size="10.00">sdf/sdf_config.h</text>
</a>
</g>
</g>
<!-- Node11&#45;&gt;Node13 -->
<g id="edge12" class="edge">
<title>Node11&#45;&gt;Node13</title>
<path fill="none" stroke="midnightblue" d="M1314.47,-67.48C1304.74,-58.28 1289.04,-43.46 1277.08,-32.16"/>
<polygon fill="midnightblue" stroke="midnightblue" points="1279.18,-29.33 1269.51,-25.01 1274.38,-34.42 1279.18,-29.33"/>
</g>
<!-- Node14 -->
<g id="node14" class="node">
<title>Node14</title>
<g id="a_node14"><a xlink:title=" ">
<polygon fill="none" stroke="#bfbfbf" points="1325.5,-6 1325.5,-25 1447.5,-25 1447.5,-6 1325.5,-6"/>
<text text-anchor="middle" x="1386.5" y="-13" font-family="FreeSans.ttf" font-size="10.00">yarp/dev/PolyDriver.h</text>
</a>
</g>
</g>
<!-- Node11&#45;&gt;Node14 -->
<g id="edge15" class="edge">
<title>Node11&#45;&gt;Node14</title>
<path fill="none" stroke="midnightblue" d="M1332.53,-67.48C1342.26,-58.28 1357.96,-43.46 1369.92,-32.16"/>
<polygon fill="midnightblue" stroke="midnightblue" points="1372.62,-34.42 1377.49,-25.01 1367.82,-29.33 1372.62,-34.42"/>
</g>
<!-- Node15 -->
<g id="node15" class="node">
<title>Node15</title>
<g id="a_node15"><a xlink:title=" ">
<polygon fill="none" stroke="#bfbfbf" points="1465.5,-6 1465.5,-25 1605.5,-25 1605.5,-6 1465.5,-6"/>
<text text-anchor="middle" x="1535.5" y="-13" font-family="FreeSans.ttf" font-size="10.00">yarp/dev/PolyDriverList.h</text>
</a>
</g>
</g>
<!-- Node11&#45;&gt;Node15 -->
<g id="edge16" class="edge">
<title>Node11&#45;&gt;Node15</title>
<path fill="none" stroke="midnightblue" d="M1353.87,-67.48C1391.11,-57.03 1454.31,-39.29 1495.48,-27.73"/>
<polygon fill="midnightblue" stroke="midnightblue" points="1496.5,-31.08 1505.18,-25.01 1494.61,-24.34 1496.5,-31.08"/>
</g>
<!-- Node16 -->
<g id="node16" class="node">
<title>Node16</title>
<g id="a_node16"><a xlink:title=" ">
<polygon fill="none" stroke="#bfbfbf" points="1624,-6 1624,-25 1773,-25 1773,-6 1624,-6"/>
<text text-anchor="middle" x="1698.5" y="-13" font-family="FreeSans.ttf" font-size="10.00">gazebo/common/Events.hh</text>
</a>
</g>
</g>
<!-- Node11&#45;&gt;Node16 -->
<g id="edge17" class="edge">
<title>Node11&#45;&gt;Node16</title>
<path fill="none" stroke="midnightblue" d="M1380.42,-67.5C1439.12,-58.66 1533.27,-44.29 1614.5,-31 1622.79,-29.64 1631.54,-28.17 1640.13,-26.71"/>
<polygon fill="midnightblue" stroke="midnightblue" points="1640.84,-30.14 1650.11,-25 1639.66,-23.24 1640.84,-30.14"/>
</g>
<!-- Node18 -->
<g id="node18" class="node">
<title>Node18</title>
<g id="a_node18"><a xlink:title=" ">
<polygon fill="none" stroke="#bfbfbf" points="1791.5,-6 1791.5,-25 1929.5,-25 1929.5,-6 1791.5,-6"/>
<text text-anchor="middle" x="1860.5" y="-13" font-family="FreeSans.ttf" font-size="10.00">yarp/os/LogComponent.h</text>
</a>
</g>
</g>
<!-- Node17&#45;&gt;Node18 -->
<g id="edge19" class="edge">
<title>Node17&#45;&gt;Node18</title>
<path fill="none" stroke="midnightblue" d="M1860.5,-67.48C1860.5,-59.08 1860.5,-45.98 1860.5,-35.16"/>
<polygon fill="midnightblue" stroke="midnightblue" points="1864,-35.01 1860.5,-25.01 1857,-35.01 1864,-35.01"/>
</g>
<!-- Node17&#45;&gt;Node19 -->
<g id="edge20" class="edge">
<title>Node17&#45;&gt;Node19</title>
<path fill="none" stroke="midnightblue" d="M1881.42,-67.48C1906.25,-57.36 1947.84,-40.4 1976.19,-28.85"/>
<polygon fill="midnightblue" stroke="midnightblue" points="1977.68,-32.02 1985.62,-25.01 1975.04,-25.54 1977.68,-32.02"/>
</g>
</g>
</svg>
