<?xml version="1.0" encoding="UTF-8" standalone="no"?>
<!DOCTYPE svg PUBLIC "-//W3C//DTD SVG 1.1//EN"
 "http://www.w3.org/Graphics/SVG/1.1/DTD/svg11.dtd">
<!-- Generated by graphviz version 2.43.0 (0)
 -->
<!-- Title: linkattacher.hh Pages: 1 -->
<svg width="2451pt" height="196pt"
 viewBox="0.00 0.00 2450.50 196.00" xmlns="http://www.w3.org/2000/svg" xmlns:xlink="http://www.w3.org/1999/xlink">
<g id="graph0" class="graph" transform="scale(1 1) rotate(0) translate(4 192)">
<title>linkattacher.hh</title>
<!-- Node1 -->
<g id="node1" class="node">
<title>Node1</title>
<g id="a_node1"><a xlink:title=" ">
<polygon fill="#bfbfbf" stroke="black" points="1164,-168.5 1164,-187.5 1253,-187.5 1253,-168.5 1164,-168.5"/>
<text text-anchor="middle" x="1208.5" y="-175.5" font-family="FreeSans.ttf" font-size="10.00">linkattacher.hh</text>
</a>
</g>
</g>
<!-- Node2 -->
<g id="node2" class="node">
<title>Node2</title>
<g id="a_node2"><a xlink:href="linkattacherserverimpl_8h.html" target="_top" xlink:title=" ">
<polygon fill="none" stroke="black" points="1083.5,-112.5 1083.5,-131.5 1219.5,-131.5 1219.5,-112.5 1083.5,-112.5"/>
<text text-anchor="middle" x="1151.5" y="-119.5" font-family="FreeSans.ttf" font-size="10.00">linkattacherserverimpl.h</text>
</a>
</g>
</g>
<!-- Node1&#45;&gt;Node2 -->
<g id="edge1" class="edge">
<title>Node1&#45;&gt;Node2</title>
<path fill="none" stroke="midnightblue" d="M1199.34,-168.32C1191,-160.42 1178.47,-148.55 1168.32,-138.94"/>
<polygon fill="midnightblue" stroke="midnightblue" points="1170.49,-136.17 1160.82,-131.83 1165.68,-141.25 1170.49,-136.17"/>
</g>
<!-- Node24 -->
<g id="node24" class="node">
<title>Node24</title>
<g id="a_node24"><a xlink:title=" ">
<polygon fill="none" stroke="#bfbfbf" points="1237.5,-112.5 1237.5,-131.5 1295.5,-131.5 1295.5,-112.5 1237.5,-112.5"/>
<text text-anchor="middle" x="1266.5" y="-119.5" font-family="FreeSans.ttf" font-size="10.00">memory</text>
</a>
</g>
</g>
<!-- Node1&#45;&gt;Node24 -->
<g id="edge23" class="edge">
<title>Node1&#45;&gt;Node24</title>
<path fill="none" stroke="midnightblue" d="M1217.82,-168.32C1226.39,-160.34 1239.31,-148.31 1249.69,-138.65"/>
<polygon fill="midnightblue" stroke="midnightblue" points="1252.08,-141.21 1257.01,-131.83 1247.31,-136.09 1252.08,-141.21"/>
</g>
<!-- Node3 -->
<g id="node3" class="node">
<title>Node3</title>
<g id="a_node3"><a xlink:title=" ">
<polygon fill="none" stroke="#bfbfbf" points="0,-56.5 0,-75.5 105,-75.5 105,-56.5 0,-56.5"/>
<text text-anchor="middle" x="52.5" y="-63.5" font-family="FreeSans.ttf" font-size="10.00">gazebo/gazebo.hh</text>
</a>
</g>
</g>
<!-- Node2&#45;&gt;Node3 -->
<g id="edge2" class="edge">
<title>Node2&#45;&gt;Node3</title>
<path fill="none" stroke="midnightblue" d="M1083.39,-120.42C918.87,-118.49 486.61,-110.4 115.36,-75.97"/>
<polygon fill="midnightblue" stroke="midnightblue" points="115.5,-72.47 105.22,-75.02 114.85,-79.44 115.5,-72.47"/>
</g>
<!-- Node4 -->
<g id="node4" class="node">
<title>Node4</title>
<g id="a_node4"><a xlink:title=" ">
<polygon fill="none" stroke="#bfbfbf" points="123.5,-56.5 123.5,-75.5 263.5,-75.5 263.5,-56.5 123.5,-56.5"/>
<text text-anchor="middle" x="193.5" y="-63.5" font-family="FreeSans.ttf" font-size="10.00">gazebo/physics/Model.hh</text>
</a>
</g>
</g>
<!-- Node2&#45;&gt;Node4 -->
<g id="edge3" class="edge">
<title>Node2&#45;&gt;Node4</title>
<path fill="none" stroke="midnightblue" d="M1083.3,-118.96C937,-114.26 581.95,-101.17 273.71,-76.05"/>
<polygon fill="midnightblue" stroke="midnightblue" points="273.94,-72.56 263.69,-75.23 273.37,-79.53 273.94,-72.56"/>
</g>
<!-- Node5 -->
<g id="node5" class="node">
<title>Node5</title>
<g id="a_node5"><a xlink:title=" ">
<polygon fill="none" stroke="#bfbfbf" points="282,-56.5 282,-75.5 419,-75.5 419,-56.5 282,-56.5"/>
<text text-anchor="middle" x="350.5" y="-63.5" font-family="FreeSans.ttf" font-size="10.00">gazebo/physics/World.hh</text>
</a>
</g>
</g>
<!-- Node2&#45;&gt;Node5 -->
<g id="edge4" class="edge">
<title>Node2&#45;&gt;Node5</title>
<path fill="none" stroke="midnightblue" d="M1083.28,-118C956.55,-112.15 675.99,-97.93 429.56,-76.14"/>
<polygon fill="midnightblue" stroke="midnightblue" points="429.6,-72.63 419.33,-75.23 428.98,-79.61 429.6,-72.63"/>
</g>
<!-- Node6 -->
<g id="node6" class="node">
<title>Node6</title>
<g id="a_node6"><a xlink:title=" ">
<polygon fill="none" stroke="#bfbfbf" points="437,-56.5 437,-75.5 568,-75.5 568,-56.5 437,-56.5"/>
<text text-anchor="middle" x="502.5" y="-63.5" font-family="FreeSans.ttf" font-size="10.00">gazebo/physics/Joint.hh</text>
</a>
</g>
</g>
<!-- Node2&#45;&gt;Node6 -->
<g id="edge5" class="edge">
<title>Node2&#45;&gt;Node6</title>
<path fill="none" stroke="midnightblue" d="M1083.38,-116.57C977.7,-109.5 767.58,-94.63 578.46,-76.06"/>
<polygon fill="midnightblue" stroke="midnightblue" points="578.63,-72.56 568.33,-75.06 577.94,-79.52 578.63,-72.56"/>
</g>
<!-- Node7 -->
<g id="node7" class="node">
<title>Node7</title>
<g id="a_node7"><a xlink:title=" ">
<polygon fill="none" stroke="#bfbfbf" points="586.5,-56.5 586.5,-75.5 716.5,-75.5 716.5,-56.5 586.5,-56.5"/>
<text text-anchor="middle" x="651.5" y="-63.5" font-family="FreeSans.ttf" font-size="10.00">gazebo/physics/Link.hh</text>
</a>
</g>
</g>
<!-- Node2&#45;&gt;Node7 -->
<g id="edge6" class="edge">
<title>Node2&#45;&gt;Node7</title>
<path fill="none" stroke="midnightblue" d="M1083.22,-114.12C1001.19,-105.78 859.12,-91.11 727.16,-76.17"/>
<polygon fill="midnightblue" stroke="midnightblue" points="727.19,-72.66 716.86,-75.01 726.41,-79.61 727.19,-72.66"/>
</g>
<!-- Node8 -->
<g id="node8" class="node">
<title>Node8</title>
<g id="a_node8"><a xlink:title=" ">
<polygon fill="none" stroke="#bfbfbf" points="735,-56.5 735,-75.5 914,-75.5 914,-56.5 735,-56.5"/>
<text text-anchor="middle" x="824.5" y="-63.5" font-family="FreeSans.ttf" font-size="10.00">gazebo/physics/PhysicsEngine.hh</text>
</a>
</g>
</g>
<!-- Node2&#45;&gt;Node8 -->
<g id="edge7" class="edge">
<title>Node2&#45;&gt;Node8</title>
<path fill="none" stroke="midnightblue" d="M1099.69,-112.44C1041.68,-102.87 947.76,-87.36 886.06,-77.17"/>
<polygon fill="midnightblue" stroke="midnightblue" points="886.51,-73.69 876.07,-75.52 885.37,-80.6 886.51,-73.69"/>
</g>
<!-- Node9 -->
<g id="node9" class="node">
<title>Node9</title>
<g id="a_node9"><a xlink:title=" ">
<polygon fill="none" stroke="#bfbfbf" points="932,-56.5 932,-75.5 1081,-75.5 1081,-56.5 932,-56.5"/>
<text text-anchor="middle" x="1006.5" y="-63.5" font-family="FreeSans.ttf" font-size="10.00">gazebo/common/Events.hh</text>
</a>
</g>
</g>
<!-- Node2&#45;&gt;Node9 -->
<g id="edge8" class="edge">
<title>Node2&#45;&gt;Node9</title>
<path fill="none" stroke="midnightblue" d="M1128.52,-112.44C1104.34,-103.44 1066.08,-89.19 1038.85,-79.05"/>
<polygon fill="midnightblue" stroke="midnightblue" points="1039.96,-75.73 1029.37,-75.52 1037.52,-82.29 1039.96,-75.73"/>
</g>
<!-- Node10 -->
<g id="node10" class="node">
<title>Node10</title>
<g id="a_node10"><a xlink:title=" ">
<polygon fill="none" stroke="#bfbfbf" points="1098.5,-56.5 1098.5,-75.5 1204.5,-75.5 1204.5,-56.5 1098.5,-56.5"/>
<text text-anchor="middle" x="1151.5" y="-63.5" font-family="FreeSans.ttf" font-size="10.00">yarp/os/Network.h</text>
</a>
</g>
</g>
<!-- Node2&#45;&gt;Node10 -->
<g id="edge9" class="edge">
<title>Node2&#45;&gt;Node10</title>
<path fill="none" stroke="midnightblue" d="M1151.5,-112.08C1151.5,-105.01 1151.5,-94.86 1151.5,-85.99"/>
<polygon fill="midnightblue" stroke="midnightblue" points="1155,-85.75 1151.5,-75.75 1148,-85.75 1155,-85.75"/>
</g>
<!-- Node11 -->
<g id="node11" class="node">
<title>Node11</title>
<g id="a_node11"><a xlink:title=" ">
<polygon fill="none" stroke="#bfbfbf" points="1223,-56.5 1223,-75.5 1336,-75.5 1336,-56.5 1223,-56.5"/>
<text text-anchor="middle" x="1279.5" y="-63.5" font-family="FreeSans.ttf" font-size="10.00">yarp/os/RpcServer.h</text>
</a>
</g>
</g>
<!-- Node2&#45;&gt;Node11 -->
<g id="edge10" class="edge">
<title>Node2&#45;&gt;Node11</title>
<path fill="none" stroke="midnightblue" d="M1171.78,-112.44C1192.85,-103.56 1226.02,-89.56 1249.99,-79.45"/>
<polygon fill="midnightblue" stroke="midnightblue" points="1251.46,-82.63 1259.31,-75.52 1248.74,-76.18 1251.46,-82.63"/>
</g>
<!-- Node12 -->
<g id="node12" class="node">
<title>Node12</title>
<g id="a_node12"><a xlink:title=" ">
<polygon fill="none" stroke="#bfbfbf" points="1354.5,-56.5 1354.5,-75.5 1458.5,-75.5 1458.5,-56.5 1354.5,-56.5"/>
<text text-anchor="middle" x="1406.5" y="-63.5" font-family="FreeSans.ttf" font-size="10.00">yarp/os/Property.h</text>
</a>
</g>
</g>
<!-- Node2&#45;&gt;Node12 -->
<g id="edge11" class="edge">
<title>Node2&#45;&gt;Node12</title>
<path fill="none" stroke="midnightblue" d="M1191.91,-112.44C1236.48,-103 1308.27,-87.8 1356.39,-77.61"/>
<polygon fill="midnightblue" stroke="midnightblue" points="1357.23,-81.01 1366.28,-75.52 1355.78,-74.16 1357.23,-81.01"/>
</g>
<!-- Node13 -->
<g id="node13" class="node">
<title>Node13</title>
<g id="a_node13"><a xlink:title=" ">
<polygon fill="none" stroke="#bfbfbf" points="1476.5,-56.5 1476.5,-75.5 1558.5,-75.5 1558.5,-56.5 1476.5,-56.5"/>
<text text-anchor="middle" x="1517.5" y="-63.5" font-family="FreeSans.ttf" font-size="10.00">yarp/os/Log.h</text>
</a>
</g>
</g>
<!-- Node2&#45;&gt;Node13 -->
<g id="edge12" class="edge">
<title>Node2&#45;&gt;Node13</title>
<path fill="none" stroke="midnightblue" d="M1216.36,-112.47C1278.07,-104.2 1373.77,-90.95 1466.23,-76.16"/>
<polygon fill="midnightblue" stroke="midnightblue" points="1467,-79.58 1476.32,-74.54 1465.89,-72.67 1467,-79.58"/>
</g>
<!-- Node14 -->
<g id="node14" class="node">
<title>Node14</title>
<g id="a_node14"><a xlink:title=" ">
<polygon fill="none" stroke="#bfbfbf" points="1577,-56.5 1577,-75.5 1694,-75.5 1694,-56.5 1577,-56.5"/>
<text text-anchor="middle" x="1635.5" y="-63.5" font-family="FreeSans.ttf" font-size="10.00">yarp/os/LogStream.h</text>
</a>
</g>
</g>
<!-- Node2&#45;&gt;Node14 -->
<g id="edge13" class="edge">
<title>Node2&#45;&gt;Node14</title>
<path fill="none" stroke="midnightblue" d="M1219.52,-113.01C1222.55,-112.67 1225.56,-112.33 1228.5,-112 1375.84,-95.57 1415.37,-94 1566.77,-76.06"/>
<polygon fill="midnightblue" stroke="midnightblue" points="1567.39,-79.51 1576.91,-74.85 1566.56,-72.56 1567.39,-79.51"/>
</g>
<!-- Node15 -->
<g id="node15" class="node">
<title>Node15</title>
<g id="a_node15"><a xlink:href="common_8h.html" target="_top" xlink:title=" ">
<polygon fill="none" stroke="black" points="1712.5,-56.5 1712.5,-75.5 1876.5,-75.5 1876.5,-56.5 1712.5,-56.5"/>
<text text-anchor="middle" x="1794.5" y="-63.5" font-family="FreeSans.ttf" font-size="10.00">GazeboYarpPlugins/common.h</text>
</a>
</g>
</g>
<!-- Node2&#45;&gt;Node15 -->
<g id="edge14" class="edge">
<title>Node2&#45;&gt;Node15</title>
<path fill="none" stroke="midnightblue" d="M1219.5,-112.9C1222.54,-112.59 1225.55,-112.28 1228.5,-112 1435.51,-92.05 1490.32,-94.21 1702.05,-76.02"/>
<polygon fill="midnightblue" stroke="midnightblue" points="1702.59,-79.48 1712.25,-75.14 1701.99,-72.51 1702.59,-79.48"/>
</g>
<!-- Node18 -->
<g id="node18" class="node">
<title>Node18</title>
<g id="a_node18"><a xlink:href="ConfHelpers_8hh.html" target="_top" xlink:title=" ">
<polygon fill="none" stroke="black" points="1904,-56.5 1904,-75.5 2091,-75.5 2091,-56.5 1904,-56.5"/>
<text text-anchor="middle" x="1997.5" y="-63.5" font-family="FreeSans.ttf" font-size="10.00">GazeboYarpPlugins/ConfHelpers.hh</text>
</a>
</g>
</g>
<!-- Node2&#45;&gt;Node18 -->
<g id="edge17" class="edge">
<title>Node2&#45;&gt;Node18</title>
<path fill="none" stroke="midnightblue" d="M1219.91,-112.78C1222.81,-112.5 1225.68,-112.24 1228.5,-112 1519.87,-87.01 1593.73,-95.71 1885.5,-76 1888.19,-75.82 1890.92,-75.63 1893.67,-75.44"/>
<polygon fill="midnightblue" stroke="midnightblue" points="1893.99,-78.92 1903.71,-74.71 1893.48,-71.94 1893.99,-78.92"/>
</g>
<!-- Node23 -->
<g id="node23" class="node">
<title>Node23</title>
<g id="a_node23"><a xlink:title=" ">
<polygon fill="none" stroke="#bfbfbf" points="2109.5,-56.5 2109.5,-75.5 2227.5,-75.5 2227.5,-56.5 2109.5,-56.5"/>
<text text-anchor="middle" x="2168.5" y="-63.5" font-family="FreeSans.ttf" font-size="10.00">LinkAttacherServer.h</text>
</a>
</g>
</g>
<!-- Node2&#45;&gt;Node23 -->
<g id="edge22" class="edge">
<title>Node2&#45;&gt;Node23</title>
<path fill="none" stroke="midnightblue" d="M1219.91,-112.73C1222.81,-112.47 1225.68,-112.22 1228.5,-112 1611.88,-81.72 1712.35,-109.01 2099.13,-76.04"/>
<polygon fill="midnightblue" stroke="midnightblue" points="2099.53,-79.51 2109.2,-75.17 2098.93,-72.54 2099.53,-79.51"/>
</g>
<!-- Node16 -->
<g id="node16" class="node">
<title>Node16</title>
<g id="a_node16"><a xlink:title=" ">
<polygon fill="none" stroke="#bfbfbf" points="1703.5,-0.5 1703.5,-19.5 1747.5,-19.5 1747.5,-0.5 1703.5,-0.5"/>
<text text-anchor="middle" x="1725.5" y="-7.5" font-family="FreeSans.ttf" font-size="10.00">string</text>
</a>
</g>
</g>
<!-- Node15&#45;&gt;Node16 -->
<g id="edge15" class="edge">
<title>Node15&#45;&gt;Node16</title>
<path fill="none" stroke="midnightblue" d="M1783.41,-56.32C1773.01,-48.18 1757.24,-35.84 1744.78,-26.09"/>
<polygon fill="midnightblue" stroke="midnightblue" points="1746.82,-23.24 1736.79,-19.83 1742.51,-28.75 1746.82,-23.24"/>
</g>
<!-- Node17 -->
<g id="node17" class="node">
<title>Node17</title>
<g id="a_node17"><a xlink:title=" ">
<polygon fill="none" stroke="#bfbfbf" points="1766,-0.5 1766,-19.5 1813,-19.5 1813,-0.5 1766,-0.5"/>
<text text-anchor="middle" x="1789.5" y="-7.5" font-family="FreeSans.ttf" font-size="10.00">cmath</text>
</a>
</g>
</g>
<!-- Node15&#45;&gt;Node17 -->
<g id="edge16" class="edge">
<title>Node15&#45;&gt;Node17</title>
<path fill="none" stroke="midnightblue" d="M1793.67,-56.08C1793.02,-49.01 1792.08,-38.86 1791.26,-29.99"/>
<polygon fill="midnightblue" stroke="midnightblue" points="1794.72,-29.39 1790.31,-19.75 1787.75,-30.03 1794.72,-29.39"/>
</g>
<!-- Node19 -->
<g id="node19" class="node">
<title>Node19</title>
<g id="a_node19"><a xlink:title=" ">
<polygon fill="none" stroke="#bfbfbf" points="1831,-0.5 1831,-19.5 1924,-19.5 1924,-0.5 1831,-0.5"/>
<text text-anchor="middle" x="1877.5" y="-7.5" font-family="FreeSans.ttf" font-size="10.00">sdf/sdf_config.h</text>
</a>
</g>
</g>
<!-- Node18&#45;&gt;Node19 -->
<g id="edge18" class="edge">
<title>Node18&#45;&gt;Node19</title>
<path fill="none" stroke="midnightblue" d="M1978.49,-56.44C1958.91,-47.64 1928.19,-33.81 1905.77,-23.72"/>
<polygon fill="midnightblue" stroke="midnightblue" points="1906.98,-20.43 1896.43,-19.52 1904.11,-26.81 1906.98,-20.43"/>
</g>
<!-- Node20 -->
<g id="node20" class="node">
<title>Node20</title>
<g id="a_node20"><a xlink:title=" ">
<polygon fill="none" stroke="#bfbfbf" points="1942,-0.5 1942,-19.5 2061,-19.5 2061,-0.5 1942,-0.5"/>
<text text-anchor="middle" x="2001.5" y="-7.5" font-family="FreeSans.ttf" font-size="10.00">boost/shared_ptr.hpp</text>
</a>
</g>
</g>
<!-- Node18&#45;&gt;Node20 -->
<g id="edge19" class="edge">
<title>Node18&#45;&gt;Node20</title>
<path fill="none" stroke="midnightblue" d="M1998.16,-56.08C1998.68,-49.01 1999.44,-38.86 2000.09,-29.99"/>
<polygon fill="midnightblue" stroke="midnightblue" points="2003.6,-29.98 2000.85,-19.75 1996.62,-29.47 2003.6,-29.98"/>
</g>
<!-- Node21 -->
<g id="node21" class="node">
<title>Node21</title>
<g id="a_node21"><a xlink:title=" ">
<polygon fill="none" stroke="#bfbfbf" points="2079,-0.5 2079,-19.5 2250,-19.5 2250,-0.5 2079,-0.5"/>
<text text-anchor="middle" x="2164.5" y="-7.5" font-family="FreeSans.ttf" font-size="10.00">gazebo/sensors/SensorTypes.hh</text>
</a>
</g>
</g>
<!-- Node18&#45;&gt;Node21 -->
<g id="edge20" class="edge">
<title>Node18&#45;&gt;Node21</title>
<path fill="none" stroke="midnightblue" d="M2023.96,-56.44C2052.18,-47.32 2097.04,-32.81 2128.47,-22.65"/>
<polygon fill="midnightblue" stroke="midnightblue" points="2129.72,-25.92 2138.16,-19.52 2127.57,-19.26 2129.72,-25.92"/>
</g>
<!-- Node22 -->
<g id="node22" class="node">
<title>Node22</title>
<g id="a_node22"><a xlink:title=" ">
<polygon fill="none" stroke="#bfbfbf" points="2268.5,-0.5 2268.5,-19.5 2442.5,-19.5 2442.5,-0.5 2268.5,-0.5"/>
<text text-anchor="middle" x="2355.5" y="-7.5" font-family="FreeSans.ttf" font-size="10.00">gazebo/physics/PhysicsTypes.hh</text>
</a>
</g>
</g>
<!-- Node18&#45;&gt;Node22 -->
<g id="edge21" class="edge">
<title>Node18&#45;&gt;Node22</title>
<path fill="none" stroke="midnightblue" d="M2054.23,-56.44C2117.99,-46.83 2221.4,-31.23 2288.93,-21.04"/>
<polygon fill="midnightblue" stroke="midnightblue" points="2289.67,-24.47 2299.04,-19.52 2288.63,-17.55 2289.67,-24.47"/>
</g>
</g>
</svg>
