<?xml version="1.0" encoding="UTF-8" standalone="no"?>
<!DOCTYPE svg PUBLIC "-//W3C//DTD SVG 1.1//EN"
 "http://www.w3.org/Graphics/SVG/1.1/DTD/svg11.dtd">
<!-- Generated by graphviz version 5.0.0 (20220707.2338)
 -->
<!-- Title: linkattacher.cc Pages: 1 -->
<svg width="2451pt" height="263pt"
 viewBox="0.00 0.00 2450.50 263.00" xmlns="http://www.w3.org/2000/svg" xmlns:xlink="http://www.w3.org/1999/xlink">
<g id="graph0" class="graph" transform="scale(1 1) rotate(0) translate(4 259)">
<title>linkattacher.cc</title>
<!-- Node1 -->
<g id="node1" class="node">
<title>Node1</title>
<g id="a_node1"><a xlink:title=" ">
<polygon fill="#bfbfbf" stroke="black" points="1165,-235.5 1165,-254.5 1252,-254.5 1252,-235.5 1165,-235.5"/>
<text text-anchor="middle" x="1208.5" y="-242.5" font-family="FreeSans.ttf" font-size="10.00">linkattacher.cc</text>
</a>
</g>
</g>
<!-- Node2 -->
<g id="node2" class="node">
<title>Node2</title>
<g id="a_node2"><a xlink:href="linkattacher_8hh.html" target="_top" xlink:title=" ">
<polygon fill="none" stroke="black" points="1164,-179.5 1164,-198.5 1253,-198.5 1253,-179.5 1164,-179.5"/>
<text text-anchor="middle" x="1208.5" y="-186.5" font-family="FreeSans.ttf" font-size="10.00">linkattacher.hh</text>
</a>
</g>
</g>
<!-- Node1&#45;&gt;Node2 -->
<g id="edge1" class="edge">
<title>Node1&#45;&gt;Node2</title>
<path fill="none" stroke="midnightblue" d="M1208.5,-235.08C1208.5,-228.01 1208.5,-217.86 1208.5,-208.99"/>
<polygon fill="midnightblue" stroke="midnightblue" points="1212,-208.75 1208.5,-198.75 1205,-208.75 1212,-208.75"/>
</g>
<!-- Node3 -->
<g id="node3" class="node">
<title>Node3</title>
<g id="a_node3"><a xlink:href="linkattacherserverimpl_8h.html" target="_top" xlink:title=" ">
<polygon fill="none" stroke="black" points="1083.5,-123.5 1083.5,-142.5 1219.5,-142.5 1219.5,-123.5 1083.5,-123.5"/>
<text text-anchor="middle" x="1151.5" y="-130.5" font-family="FreeSans.ttf" font-size="10.00">linkattacherserverimpl.h</text>
</a>
</g>
</g>
<!-- Node2&#45;&gt;Node3 -->
<g id="edge2" class="edge">
<title>Node2&#45;&gt;Node3</title>
<path fill="none" stroke="midnightblue" d="M1199.34,-179.32C1191,-171.42 1178.47,-159.55 1168.32,-149.94"/>
<polygon fill="midnightblue" stroke="midnightblue" points="1170.49,-147.17 1160.82,-142.83 1165.68,-152.25 1170.49,-147.17"/>
</g>
<!-- Node25 -->
<g id="node25" class="node">
<title>Node25</title>
<g id="a_node25"><a xlink:title=" ">
<polygon fill="none" stroke="#bfbfbf" points="1237.5,-123.5 1237.5,-142.5 1295.5,-142.5 1295.5,-123.5 1237.5,-123.5"/>
<text text-anchor="middle" x="1266.5" y="-130.5" font-family="FreeSans.ttf" font-size="10.00">memory</text>
</a>
</g>
</g>
<!-- Node2&#45;&gt;Node25 -->
<g id="edge24" class="edge">
<title>Node2&#45;&gt;Node25</title>
<path fill="none" stroke="midnightblue" d="M1217.82,-179.32C1226.39,-171.34 1239.31,-159.31 1249.69,-149.65"/>
<polygon fill="midnightblue" stroke="midnightblue" points="1252.08,-152.21 1257.01,-142.83 1247.31,-147.09 1252.08,-152.21"/>
</g>
<!-- Node4 -->
<g id="node4" class="node">
<title>Node4</title>
<g id="a_node4"><a xlink:title=" ">
<polygon fill="none" stroke="#bfbfbf" points="0,-62 0,-81 105,-81 105,-62 0,-62"/>
<text text-anchor="middle" x="52.5" y="-69" font-family="FreeSans.ttf" font-size="10.00">gazebo/gazebo.hh</text>
</a>
</g>
</g>
<!-- Node3&#45;&gt;Node4 -->
<g id="edge3" class="edge">
<title>Node3&#45;&gt;Node4</title>
<path fill="none" stroke="midnightblue" d="M1083.39,-130.7C883.81,-126.64 302.62,-112.85 114.5,-87 107.73,-86.07 100.62,-84.74 93.72,-83.27"/>
<polygon fill="midnightblue" stroke="midnightblue" points="94.36,-79.82 83.83,-81.02 92.81,-86.65 94.36,-79.82"/>
</g>
<!-- Node5 -->
<g id="node5" class="node">
<title>Node5</title>
<g id="a_node5"><a xlink:title=" ">
<polygon fill="none" stroke="#bfbfbf" points="123.5,-62 123.5,-81 263.5,-81 263.5,-62 123.5,-62"/>
<text text-anchor="middle" x="193.5" y="-69" font-family="FreeSans.ttf" font-size="10.00">gazebo/physics/Model.hh</text>
</a>
</g>
</g>
<!-- Node3&#45;&gt;Node5 -->
<g id="edge4" class="edge">
<title>Node3&#45;&gt;Node5</title>
<path fill="none" stroke="midnightblue" d="M1083.42,-131.53C935.4,-129.85 573.39,-122.16 272.5,-87 263.35,-85.93 253.65,-84.45 244.31,-82.83"/>
<polygon fill="midnightblue" stroke="midnightblue" points="244.81,-79.37 234.35,-81.05 243.57,-86.26 244.81,-79.37"/>
</g>
<!-- Node6 -->
<g id="node6" class="node">
<title>Node6</title>
<g id="a_node6"><a xlink:title=" ">
<polygon fill="none" stroke="#bfbfbf" points="282,-62 282,-81 419,-81 419,-62 282,-62"/>
<text text-anchor="middle" x="350.5" y="-69" font-family="FreeSans.ttf" font-size="10.00">gazebo/physics/World.hh</text>
</a>
</g>
</g>
<!-- Node3&#45;&gt;Node6 -->
<g id="edge5" class="edge">
<title>Node3&#45;&gt;Node6</title>
<path fill="none" stroke="midnightblue" d="M1083.36,-130.58C954.72,-127.28 667.44,-116.93 427.5,-87 418.77,-85.91 409.54,-84.45 400.62,-82.87"/>
<polygon fill="midnightblue" stroke="midnightblue" points="401.18,-79.41 390.71,-81.05 399.92,-86.3 401.18,-79.41"/>
</g>
<!-- Node7 -->
<g id="node7" class="node">
<title>Node7</title>
<g id="a_node7"><a xlink:title=" ">
<polygon fill="none" stroke="#bfbfbf" points="437,-62 437,-81 568,-81 568,-62 437,-62"/>
<text text-anchor="middle" x="502.5" y="-69" font-family="FreeSans.ttf" font-size="10.00">gazebo/physics/Joint.hh</text>
</a>
</g>
</g>
<!-- Node3&#45;&gt;Node7 -->
<g id="edge6" class="edge">
<title>Node3&#45;&gt;Node7</title>
<path fill="none" stroke="midnightblue" d="M1083.2,-129.14C975.37,-124.06 759.26,-111.62 577.5,-87 569.28,-85.89 560.6,-84.45 552.17,-82.92"/>
<polygon fill="midnightblue" stroke="midnightblue" points="552.54,-79.43 542.06,-81.01 551.24,-86.31 552.54,-79.43"/>
</g>
<!-- Node8 -->
<g id="node8" class="node">
<title>Node8</title>
<g id="a_node8"><a xlink:title=" ">
<polygon fill="none" stroke="#bfbfbf" points="586.5,-62 586.5,-81 716.5,-81 716.5,-62 586.5,-62"/>
<text text-anchor="middle" x="651.5" y="-69" font-family="FreeSans.ttf" font-size="10.00">gazebo/physics/Link.hh</text>
</a>
</g>
</g>
<!-- Node3&#45;&gt;Node8 -->
<g id="edge7" class="edge">
<title>Node3&#45;&gt;Node8</title>
<path fill="none" stroke="midnightblue" d="M1083.39,-126.67C999.08,-119.65 851.26,-105.93 725.5,-87 717.76,-85.84 709.61,-84.42 701.64,-82.95"/>
<polygon fill="midnightblue" stroke="midnightblue" points="702.19,-79.49 691.71,-81.05 700.88,-86.36 702.19,-79.49"/>
</g>
<!-- Node9 -->
<g id="node9" class="node">
<title>Node9</title>
<g id="a_node9"><a xlink:title=" ">
<polygon fill="none" stroke="#bfbfbf" points="735,-62 735,-81 914,-81 914,-62 735,-62"/>
<text text-anchor="middle" x="824.5" y="-69" font-family="FreeSans.ttf" font-size="10.00">gazebo/physics/PhysicsEngine.hh</text>
</a>
</g>
</g>
<!-- Node3&#45;&gt;Node9 -->
<g id="edge8" class="edge">
<title>Node3&#45;&gt;Node9</title>
<path fill="none" stroke="midnightblue" d="M1104.65,-123.48C1045.76,-112.76 944.76,-94.38 881.47,-82.87"/>
<polygon fill="midnightblue" stroke="midnightblue" points="881.73,-79.36 871.26,-81.01 880.48,-86.24 881.73,-79.36"/>
</g>
<!-- Node10 -->
<g id="node10" class="node">
<title>Node10</title>
<g id="a_node10"><a xlink:title=" ">
<polygon fill="none" stroke="#bfbfbf" points="932,-62 932,-81 1081,-81 1081,-62 932,-62"/>
<text text-anchor="middle" x="1006.5" y="-69" font-family="FreeSans.ttf" font-size="10.00">gazebo/common/Events.hh</text>
</a>
</g>
</g>
<!-- Node3&#45;&gt;Node10 -->
<g id="edge9" class="edge">
<title>Node3&#45;&gt;Node10</title>
<path fill="none" stroke="midnightblue" d="M1130.73,-123.48C1106.07,-113.36 1064.75,-96.4 1036.6,-84.85"/>
<polygon fill="midnightblue" stroke="midnightblue" points="1037.82,-81.57 1027.24,-81.01 1035.16,-88.04 1037.82,-81.57"/>
</g>
<!-- Node11 -->
<g id="node11" class="node">
<title>Node11</title>
<g id="a_node11"><a xlink:title=" ">
<polygon fill="none" stroke="#bfbfbf" points="1098.5,-62 1098.5,-81 1204.5,-81 1204.5,-62 1098.5,-62"/>
<text text-anchor="middle" x="1151.5" y="-69" font-family="FreeSans.ttf" font-size="10.00">yarp/os/Network.h</text>
</a>
</g>
</g>
<!-- Node3&#45;&gt;Node11 -->
<g id="edge10" class="edge">
<title>Node3&#45;&gt;Node11</title>
<path fill="none" stroke="midnightblue" d="M1151.5,-123.48C1151.5,-115.08 1151.5,-101.98 1151.5,-91.16"/>
<polygon fill="midnightblue" stroke="midnightblue" points="1155,-91.01 1151.5,-81.01 1148,-91.01 1155,-91.01"/>
</g>
<!-- Node12 -->
<g id="node12" class="node">
<title>Node12</title>
<g id="a_node12"><a xlink:title=" ">
<polygon fill="none" stroke="#bfbfbf" points="1223,-62 1223,-81 1336,-81 1336,-62 1223,-62"/>
<text text-anchor="middle" x="1279.5" y="-69" font-family="FreeSans.ttf" font-size="10.00">yarp/os/RpcServer.h</text>
</a>
</g>
</g>
<!-- Node3&#45;&gt;Node12 -->
<g id="edge11" class="edge">
<title>Node3&#45;&gt;Node12</title>
<path fill="none" stroke="midnightblue" d="M1169.84,-123.48C1191.32,-113.49 1227.12,-96.85 1251.95,-85.31"/>
<polygon fill="midnightblue" stroke="midnightblue" points="1253.6,-88.4 1261.19,-81.01 1250.65,-82.05 1253.6,-88.4"/>
</g>
<!-- Node13 -->
<g id="node13" class="node">
<title>Node13</title>
<g id="a_node13"><a xlink:title=" ">
<polygon fill="none" stroke="#bfbfbf" points="1354.5,-62 1354.5,-81 1458.5,-81 1458.5,-62 1354.5,-62"/>
<text text-anchor="middle" x="1406.5" y="-69" font-family="FreeSans.ttf" font-size="10.00">yarp/os/Property.h</text>
</a>
</g>
</g>
<!-- Node3&#45;&gt;Node13 -->
<g id="edge12" class="edge">
<title>Node3&#45;&gt;Node13</title>
<path fill="none" stroke="midnightblue" d="M1188.14,-123.46C1226.97,-114.42 1290.06,-99.71 1344.5,-87 1349.55,-85.82 1354.83,-84.59 1360.09,-83.36"/>
<polygon fill="midnightblue" stroke="midnightblue" points="1361.17,-86.7 1370.11,-81.01 1359.58,-79.88 1361.17,-86.7"/>
</g>
<!-- Node14 -->
<g id="node14" class="node">
<title>Node14</title>
<g id="a_node14"><a xlink:title=" ">
<polygon fill="none" stroke="#bfbfbf" points="1476.5,-62 1476.5,-81 1558.5,-81 1558.5,-62 1476.5,-62"/>
<text text-anchor="middle" x="1517.5" y="-69" font-family="FreeSans.ttf" font-size="10.00">yarp/os/Log.h</text>
</a>
</g>
</g>
<!-- Node3&#45;&gt;Node14 -->
<g id="edge13" class="edge">
<title>Node3&#45;&gt;Node14</title>
<path fill="none" stroke="midnightblue" d="M1219.28,-123.49C1297.58,-113.45 1421.52,-96.89 1467.5,-87 1471.89,-86.06 1476.47,-84.93 1480.98,-83.73"/>
<polygon fill="midnightblue" stroke="midnightblue" points="1482,-87.08 1490.69,-81.03 1480.12,-80.34 1482,-87.08"/>
</g>
<!-- Node15 -->
<g id="node15" class="node">
<title>Node15</title>
<g id="a_node15"><a xlink:title=" ">
<polygon fill="none" stroke="#bfbfbf" points="1577,-62 1577,-81 1694,-81 1694,-62 1577,-62"/>
<text text-anchor="middle" x="1635.5" y="-69" font-family="FreeSans.ttf" font-size="10.00">yarp/os/LogStream.h</text>
</a>
</g>
</g>
<!-- Node3&#45;&gt;Node15 -->
<g id="edge14" class="edge">
<title>Node3&#45;&gt;Node15</title>
<path fill="none" stroke="midnightblue" d="M1219.52,-124.01C1222.55,-123.67 1225.56,-123.33 1228.5,-123 1379.08,-106.2 1417.87,-110.83 1567.5,-87 1574.39,-85.9 1581.63,-84.56 1588.72,-83.14"/>
<polygon fill="midnightblue" stroke="midnightblue" points="1589.85,-86.48 1598.93,-81.03 1588.43,-79.63 1589.85,-86.48"/>
</g>
<!-- Node16 -->
<g id="node16" class="node">
<title>Node16</title>
<g id="a_node16"><a xlink:href="common_8h.html" target="_top" xlink:title=" ">
<polygon fill="none" stroke="black" points="1712.5,-62 1712.5,-81 1876.5,-81 1876.5,-62 1712.5,-62"/>
<text text-anchor="middle" x="1794.5" y="-69" font-family="FreeSans.ttf" font-size="10.00">GazeboYarpPlugins/common.h</text>
</a>
</g>
</g>
<!-- Node3&#45;&gt;Node16 -->
<g id="edge15" class="edge">
<title>Node3&#45;&gt;Node16</title>
<path fill="none" stroke="midnightblue" d="M1219.5,-123.9C1222.54,-123.59 1225.55,-123.28 1228.5,-123 1438.8,-102.73 1492.65,-111.47 1702.5,-87 1712.97,-85.78 1724.07,-84.24 1734.8,-82.63"/>
<polygon fill="midnightblue" stroke="midnightblue" points="1735.6,-86.04 1744.94,-81.06 1734.53,-79.13 1735.6,-86.04"/>
</g>
<!-- Node19 -->
<g id="node19" class="node">
<title>Node19</title>
<g id="a_node19"><a xlink:href="ConfHelpers_8hh.html" target="_top" xlink:title=" ">
<polygon fill="none" stroke="black" points="1904,-62 1904,-81 2091,-81 2091,-62 1904,-62"/>
<text text-anchor="middle" x="1997.5" y="-69" font-family="FreeSans.ttf" font-size="10.00">GazeboYarpPlugins/ConfHelpers.hh</text>
</a>
</g>
</g>
<!-- Node3&#45;&gt;Node19 -->
<g id="edge18" class="edge">
<title>Node3&#45;&gt;Node19</title>
<path fill="none" stroke="midnightblue" d="M1219.91,-123.78C1222.81,-123.5 1225.68,-123.24 1228.5,-123 1519.87,-98.01 1594.29,-113.79 1885.5,-87 1899.25,-85.74 1913.9,-84.07 1927.93,-82.32"/>
<polygon fill="midnightblue" stroke="midnightblue" points="1928.54,-85.77 1938.01,-81.03 1927.65,-78.83 1928.54,-85.77"/>
</g>
<!-- Node24 -->
<g id="node24" class="node">
<title>Node24</title>
<g id="a_node24"><a xlink:title=" ">
<polygon fill="none" stroke="#bfbfbf" points="2109,-56.5 2109,-86.5 2282,-86.5 2282,-56.5 2109,-56.5"/>
<text text-anchor="start" x="2117" y="-74.5" font-family="FreeSans.ttf" font-size="10.00">GazeboYarpPlugins/LinkAttacher</text>
<text text-anchor="middle" x="2195.5" y="-63.5" font-family="FreeSans.ttf" font-size="10.00">Server.h</text>
</a>
</g>
</g>
<!-- Node3&#45;&gt;Node24 -->
<g id="edge23" class="edge">
<title>Node3&#45;&gt;Node24</title>
<path fill="none" stroke="midnightblue" d="M1219.91,-123.73C1222.81,-123.47 1225.68,-123.22 1228.5,-123 1611.88,-92.72 1712.7,-123.78 2098.78,-87.1"/>
<polygon fill="midnightblue" stroke="midnightblue" points="2099.21,-90.57 2108.83,-86.13 2098.54,-83.6 2099.21,-90.57"/>
</g>
<!-- Node17 -->
<g id="node17" class="node">
<title>Node17</title>
<g id="a_node17"><a xlink:title=" ">
<polygon fill="none" stroke="#bfbfbf" points="1703.5,-0.5 1703.5,-19.5 1747.5,-19.5 1747.5,-0.5 1703.5,-0.5"/>
<text text-anchor="middle" x="1725.5" y="-7.5" font-family="FreeSans.ttf" font-size="10.00">string</text>
</a>
</g>
</g>
<!-- Node16&#45;&gt;Node17 -->
<g id="edge16" class="edge">
<title>Node16&#45;&gt;Node17</title>
<path fill="none" stroke="midnightblue" d="M1784.61,-61.98C1773.85,-52.7 1756.43,-37.67 1743.28,-26.33"/>
<polygon fill="midnightblue" stroke="midnightblue" points="1745.23,-23.39 1735.37,-19.51 1740.66,-28.69 1745.23,-23.39"/>
</g>
<!-- Node18 -->
<g id="node18" class="node">
<title>Node18</title>
<g id="a_node18"><a xlink:title=" ">
<polygon fill="none" stroke="#bfbfbf" points="1766,-0.5 1766,-19.5 1813,-19.5 1813,-0.5 1766,-0.5"/>
<text text-anchor="middle" x="1789.5" y="-7.5" font-family="FreeSans.ttf" font-size="10.00">cmath</text>
</a>
</g>
</g>
<!-- Node16&#45;&gt;Node18 -->
<g id="edge17" class="edge">
<title>Node16&#45;&gt;Node18</title>
<path fill="none" stroke="midnightblue" d="M1793.78,-61.98C1793.08,-53.58 1791.98,-40.48 1791.07,-29.66"/>
<polygon fill="midnightblue" stroke="midnightblue" points="1794.54,-29.18 1790.22,-19.51 1787.56,-29.77 1794.54,-29.18"/>
</g>
<!-- Node20 -->
<g id="node20" class="node">
<title>Node20</title>
<g id="a_node20"><a xlink:title=" ">
<polygon fill="none" stroke="#bfbfbf" points="1831,-0.5 1831,-19.5 1924,-19.5 1924,-0.5 1831,-0.5"/>
<text text-anchor="middle" x="1877.5" y="-7.5" font-family="FreeSans.ttf" font-size="10.00">sdf/sdf_config.h</text>
</a>
</g>
</g>
<!-- Node19&#45;&gt;Node20 -->
<g id="edge19" class="edge">
<title>Node19&#45;&gt;Node20</title>
<path fill="none" stroke="midnightblue" d="M1980.31,-61.98C1960.26,-52.03 1926.9,-35.49 1903.64,-23.96"/>
<polygon fill="midnightblue" stroke="midnightblue" points="1905.18,-20.82 1894.66,-19.51 1902.07,-27.09 1905.18,-20.82"/>
</g>
<!-- Node21 -->
<g id="node21" class="node">
<title>Node21</title>
<g id="a_node21"><a xlink:title=" ">
<polygon fill="none" stroke="#bfbfbf" points="1942,-0.5 1942,-19.5 2061,-19.5 2061,-0.5 1942,-0.5"/>
<text text-anchor="middle" x="2001.5" y="-7.5" font-family="FreeSans.ttf" font-size="10.00">boost/shared_ptr.hpp</text>
</a>
</g>
</g>
<!-- Node19&#45;&gt;Node21 -->
<g id="edge20" class="edge">
<title>Node19&#45;&gt;Node21</title>
<path fill="none" stroke="midnightblue" d="M1998.07,-61.98C1998.64,-53.58 1999.52,-40.48 2000.25,-29.66"/>
<polygon fill="midnightblue" stroke="midnightblue" points="2003.75,-29.72 2000.93,-19.51 1996.76,-29.25 2003.75,-29.72"/>
</g>
<!-- Node22 -->
<g id="node22" class="node">
<title>Node22</title>
<g id="a_node22"><a xlink:title=" ">
<polygon fill="none" stroke="#bfbfbf" points="2079,-0.5 2079,-19.5 2250,-19.5 2250,-0.5 2079,-0.5"/>
<text text-anchor="middle" x="2164.5" y="-7.5" font-family="FreeSans.ttf" font-size="10.00">gazebo/sensors/SensorTypes.hh</text>
</a>
</g>
</g>
<!-- Node19&#45;&gt;Node22 -->
<g id="edge21" class="edge">
<title>Node19&#45;&gt;Node22</title>
<path fill="none" stroke="midnightblue" d="M2021.43,-61.98C2050.2,-51.72 2098.66,-34.46 2131.1,-22.9"/>
<polygon fill="midnightblue" stroke="midnightblue" points="2132.37,-26.16 2140.62,-19.51 2130.02,-19.57 2132.37,-26.16"/>
</g>
<!-- Node23 -->
<g id="node23" class="node">
<title>Node23</title>
<g id="a_node23"><a xlink:title=" ">
<polygon fill="none" stroke="#bfbfbf" points="2268.5,-0.5 2268.5,-19.5 2442.5,-19.5 2442.5,-0.5 2268.5,-0.5"/>
<text text-anchor="middle" x="2355.5" y="-7.5" font-family="FreeSans.ttf" font-size="10.00">gazebo/physics/PhysicsTypes.hh</text>
</a>
</g>
</g>
<!-- Node19&#45;&gt;Node23 -->
<g id="edge22" class="edge">
<title>Node19&#45;&gt;Node23</title>
<path fill="none" stroke="midnightblue" d="M2048.79,-61.98C2113.66,-51.19 2225.21,-32.65 2294.41,-21.15"/>
<polygon fill="midnightblue" stroke="midnightblue" points="2295.01,-24.6 2304.3,-19.51 2293.86,-17.7 2295.01,-24.6"/>
</g>
</g>
</svg>
