<?xml version="1.0" encoding="UTF-8" standalone="no"?>
<!DOCTYPE svg PUBLIC "-//W3C//DTD SVG 1.1//EN"
 "http://www.w3.org/Graphics/SVG/1.1/DTD/svg11.dtd">
<!-- Generated by graphviz version 2.43.0 (0)
 -->
<!-- Title: LinkAttacherServer.cpp Pages: 1 -->
<svg width="275pt" height="151pt"
 viewBox="0.00 0.00 274.50 151.00" xmlns="http://www.w3.org/2000/svg" xmlns:xlink="http://www.w3.org/1999/xlink">
<g id="graph0" class="graph" transform="scale(1 1) rotate(0) translate(4 147)">
<title>LinkAttacherServer.cpp</title>
<!-- Node1 -->
<g id="node1" class="node">
<title>Node1</title>
<g id="a_node1"><a xlink:title=" ">
<polygon fill="#bfbfbf" stroke="black" points="79,-123.5 79,-142.5 208,-142.5 208,-123.5 79,-123.5"/>
<text text-anchor="middle" x="143.5" y="-130.5" font-family="FreeSans.ttf" font-size="10.00">LinkAttacherServer.cpp</text>
</a>
</g>
</g>
<!-- Node2 -->
<g id="node2" class="node">
<title>Node2</title>
<g id="a_node2"><a xlink:href="GazeboYarpPlugins_2LinkAttacherServer_8h.html" target="_top" xlink:title=" ">
<polygon fill="none" stroke="black" points="0,-56.5 0,-86.5 173,-86.5 173,-56.5 0,-56.5"/>
<text text-anchor="start" x="8" y="-74.5" font-family="FreeSans.ttf" font-size="10.00">GazeboYarpPlugins/LinkAttacher</text>
<text text-anchor="middle" x="86.5" y="-63.5" font-family="FreeSans.ttf" font-size="10.00">Server.h</text>
</a>
</g>
</g>
<!-- Node1&#45;&gt;Node2 -->
<g id="edge1" class="edge">
<title>Node1&#45;&gt;Node2</title>
<path fill="none" stroke="midnightblue" d="M135.33,-123.48C127.97,-115.79 116.84,-104.17 107.06,-93.96"/>
<polygon fill="midnightblue" stroke="midnightblue" points="109.38,-91.32 99.93,-86.52 104.32,-96.17 109.38,-91.32"/>
</g>
<!-- Node4 -->
<g id="node4" class="node">
<title>Node4</title>
<g id="a_node4"><a xlink:title=" ">
<polygon fill="none" stroke="#bfbfbf" points="136.5,-0.5 136.5,-19.5 266.5,-19.5 266.5,-0.5 136.5,-0.5"/>
<text text-anchor="middle" x="201.5" y="-7.5" font-family="FreeSans.ttf" font-size="10.00">yarp/os/idl/WireTypes.h</text>
</a>
</g>
</g>
<!-- Node1&#45;&gt;Node4 -->
<g id="edge4" class="edge">
<title>Node1&#45;&gt;Node4</title>
<path fill="none" stroke="midnightblue" d="M153.3,-123.32C162.2,-114.89 175.06,-101.31 182.5,-87 191.89,-68.94 196.8,-46.02 199.25,-30.09"/>
<polygon fill="midnightblue" stroke="midnightblue" points="202.76,-30.29 200.63,-19.91 195.82,-29.34 202.76,-30.29"/>
</g>
<!-- Node3 -->
<g id="node3" class="node">
<title>Node3</title>
<g id="a_node3"><a xlink:title=" ">
<polygon fill="none" stroke="#bfbfbf" points="31,-0.5 31,-19.5 118,-19.5 118,-0.5 31,-0.5"/>
<text text-anchor="middle" x="74.5" y="-7.5" font-family="FreeSans.ttf" font-size="10.00">yarp/os/Wire.h</text>
</a>
</g>
</g>
<!-- Node2&#45;&gt;Node3 -->
<g id="edge2" class="edge">
<title>Node2&#45;&gt;Node3</title>
<path fill="none" stroke="midnightblue" d="M83.66,-56.4C82.04,-48.38 79.99,-38.23 78.25,-29.57"/>
<polygon fill="midnightblue" stroke="midnightblue" points="81.65,-28.77 76.25,-19.66 74.79,-30.15 81.65,-28.77"/>
</g>
<!-- Node2&#45;&gt;Node4 -->
<g id="edge3" class="edge">
<title>Node2&#45;&gt;Node4</title>
<path fill="none" stroke="midnightblue" d="M113.75,-56.4C132.53,-46.68 157.33,-33.86 175.77,-24.31"/>
<polygon fill="midnightblue" stroke="midnightblue" points="177.49,-27.36 184.77,-19.66 174.28,-21.14 177.49,-27.36"/>
</g>
</g>
</svg>
