<?xml version="1.0" encoding="UTF-8" standalone="no"?>
<!DOCTYPE svg PUBLIC "-//W3C//DTD SVG 1.1//EN"
 "http://www.w3.org/Graphics/SVG/1.1/DTD/svg11.dtd">
<!-- Generated by graphviz version 2.43.0 (0)
 -->
<!-- Title: main.cpp Pages: 1 -->
<svg width="1632pt" height="84pt"
 viewBox="0.00 0.00 1631.50 84.00" xmlns="http://www.w3.org/2000/svg" xmlns:xlink="http://www.w3.org/1999/xlink">
<g id="graph0" class="graph" transform="scale(1 1) rotate(0) translate(4 80)">
<title>main.cpp</title>
<!-- Node1 -->
<g id="node1" class="node">
<title>Node1</title>
<g id="a_node1"><a xlink:title=" ">
<polygon fill="#bfbfbf" stroke="black" points="888,-56.5 888,-75.5 950,-75.5 950,-56.5 888,-56.5"/>
<text text-anchor="middle" x="919" y="-63.5" font-family="FreeSans.ttf" font-size="10.00">main.cpp</text>
</a>
</g>
</g>
<!-- Node2 -->
<g id="node2" class="node">
<title>Node2</title>
<g id="a_node2"><a xlink:title=" ">
<polygon fill="none" stroke="#bfbfbf" points="0,-0.5 0,-19.5 106,-19.5 106,-0.5 0,-0.5"/>
<text text-anchor="middle" x="53" y="-7.5" font-family="FreeSans.ttf" font-size="10.00">yarp/os/Network.h</text>
</a>
</g>
</g>
<!-- Node1&#45;&gt;Node2 -->
<g id="edge1" class="edge">
<title>Node1&#45;&gt;Node2</title>
<path fill="none" stroke="midnightblue" d="M887.88,-64.25C781.58,-61.46 422.93,-50.36 116.04,-20.01"/>
<polygon fill="midnightblue" stroke="midnightblue" points="116.36,-16.53 106.06,-19.02 115.67,-23.49 116.36,-16.53"/>
</g>
<!-- Node3 -->
<g id="node3" class="node">
<title>Node3</title>
<g id="a_node3"><a xlink:title=" ">
<polygon fill="none" stroke="#bfbfbf" points="124.5,-0.5 124.5,-19.5 213.5,-19.5 213.5,-0.5 124.5,-0.5"/>
<text text-anchor="middle" x="169" y="-7.5" font-family="FreeSans.ttf" font-size="10.00">yarp/os/Time.h</text>
</a>
</g>
</g>
<!-- Node1&#45;&gt;Node3 -->
<g id="edge2" class="edge">
<title>Node1&#45;&gt;Node3</title>
<path fill="none" stroke="midnightblue" d="M887.98,-64.14C791.21,-61.24 486.11,-50.23 223.87,-20.11"/>
<polygon fill="midnightblue" stroke="midnightblue" points="224.11,-16.61 213.77,-18.94 223.3,-23.57 224.11,-16.61"/>
</g>
<!-- Node4 -->
<g id="node4" class="node">
<title>Node4</title>
<g id="a_node4"><a xlink:title=" ">
<polygon fill="none" stroke="#bfbfbf" points="231.5,-0.5 231.5,-19.5 370.5,-19.5 370.5,-0.5 231.5,-0.5"/>
<text text-anchor="middle" x="301" y="-7.5" font-family="FreeSans.ttf" font-size="10.00">yarp/os/ResourceFinder.h</text>
</a>
</g>
</g>
<!-- Node1&#45;&gt;Node4 -->
<g id="edge3" class="edge">
<title>Node1&#45;&gt;Node4</title>
<path fill="none" stroke="midnightblue" d="M887.98,-62.74C806.71,-56.75 580.64,-39.62 380.87,-20.06"/>
<polygon fill="midnightblue" stroke="midnightblue" points="381.07,-16.56 370.77,-19.06 380.38,-23.53 381.07,-16.56"/>
</g>
<!-- Node5 -->
<g id="node5" class="node">
<title>Node5</title>
<g id="a_node5"><a xlink:title=" ">
<polygon fill="none" stroke="#bfbfbf" points="389,-0.5 389,-19.5 511,-19.5 511,-0.5 389,-0.5"/>
<text text-anchor="middle" x="450" y="-7.5" font-family="FreeSans.ttf" font-size="10.00">yarp/dev/PolyDriver.h</text>
</a>
</g>
</g>
<!-- Node1&#45;&gt;Node5 -->
<g id="edge4" class="edge">
<title>Node1&#45;&gt;Node5</title>
<path fill="none" stroke="midnightblue" d="M887.94,-61.66C822.35,-54.58 664.65,-37.37 521.37,-20.15"/>
<polygon fill="midnightblue" stroke="midnightblue" points="521.42,-16.63 511.08,-18.91 520.59,-23.58 521.42,-16.63"/>
</g>
<!-- Node6 -->
<g id="node6" class="node">
<title>Node6</title>
<g id="a_node6"><a xlink:title=" ">
<polygon fill="none" stroke="#bfbfbf" points="529,-0.5 529,-19.5 671,-19.5 671,-0.5 529,-0.5"/>
<text text-anchor="middle" x="600" y="-7.5" font-family="FreeSans.ttf" font-size="10.00">yarp/dev/ITorqueControl.h</text>
</a>
</g>
</g>
<!-- Node1&#45;&gt;Node6 -->
<g id="edge5" class="edge">
<title>Node1&#45;&gt;Node6</title>
<path fill="none" stroke="midnightblue" d="M887.83,-59.72C835.27,-50.83 728.11,-32.69 660.41,-21.23"/>
<polygon fill="midnightblue" stroke="midnightblue" points="660.75,-17.73 650.31,-19.52 659.58,-24.64 660.75,-17.73"/>
</g>
<!-- Node7 -->
<g id="node7" class="node">
<title>Node7</title>
<g id="a_node7"><a xlink:title=" ">
<polygon fill="none" stroke="#bfbfbf" points="689.5,-0.5 689.5,-19.5 826.5,-19.5 826.5,-0.5 689.5,-0.5"/>
<text text-anchor="middle" x="758" y="-7.5" font-family="FreeSans.ttf" font-size="10.00">yarp/dev/IControlMode.h</text>
</a>
</g>
</g>
<!-- Node1&#45;&gt;Node7 -->
<g id="edge6" class="edge">
<title>Node1&#45;&gt;Node7</title>
<path fill="none" stroke="midnightblue" d="M893.49,-56.44C866.4,-47.36 823.41,-32.94 793.13,-22.78"/>
<polygon fill="midnightblue" stroke="midnightblue" points="793.99,-19.38 783.39,-19.52 791.76,-26.01 793.99,-19.38"/>
</g>
<!-- Node8 -->
<g id="node8" class="node">
<title>Node8</title>
<g id="a_node8"><a xlink:title=" ">
<polygon fill="none" stroke="#bfbfbf" points="844.5,-0.5 844.5,-19.5 993.5,-19.5 993.5,-0.5 844.5,-0.5"/>
<text text-anchor="middle" x="919" y="-7.5" font-family="FreeSans.ttf" font-size="10.00">yarp/dev/IPositionControl.h</text>
</a>
</g>
</g>
<!-- Node1&#45;&gt;Node8 -->
<g id="edge7" class="edge">
<title>Node1&#45;&gt;Node8</title>
<path fill="none" stroke="midnightblue" d="M919,-56.08C919,-49.01 919,-38.86 919,-29.99"/>
<polygon fill="midnightblue" stroke="midnightblue" points="922.5,-29.75 919,-19.75 915.5,-29.75 922.5,-29.75"/>
</g>
<!-- Node9 -->
<g id="node9" class="node">
<title>Node9</title>
<g id="a_node9"><a xlink:title=" ">
<polygon fill="none" stroke="#bfbfbf" points="1011.5,-0.5 1011.5,-19.5 1130.5,-19.5 1130.5,-0.5 1011.5,-0.5"/>
<text text-anchor="middle" x="1071" y="-7.5" font-family="FreeSans.ttf" font-size="10.00">yarp/dev/IEncoders.h</text>
</a>
</g>
</g>
<!-- Node1&#45;&gt;Node9 -->
<g id="edge8" class="edge">
<title>Node1&#45;&gt;Node9</title>
<path fill="none" stroke="midnightblue" d="M943.08,-56.44C968.54,-47.4 1008.89,-33.06 1037.46,-22.92"/>
<polygon fill="midnightblue" stroke="midnightblue" points="1038.78,-26.16 1047.03,-19.52 1036.43,-19.57 1038.78,-26.16"/>
</g>
<!-- Node10 -->
<g id="node10" class="node">
<title>Node10</title>
<g id="a_node10"><a xlink:title=" ">
<polygon fill="none" stroke="#bfbfbf" points="1148.5,-0.5 1148.5,-19.5 1247.5,-19.5 1247.5,-0.5 1148.5,-0.5"/>
<text text-anchor="middle" x="1198" y="-7.5" font-family="FreeSans.ttf" font-size="10.00">yarp/sig/Matrix.h</text>
</a>
</g>
</g>
<!-- Node1&#45;&gt;Node10 -->
<g id="edge9" class="edge">
<title>Node1&#45;&gt;Node10</title>
<path fill="none" stroke="midnightblue" d="M950.19,-58.96C997.01,-49.9 1086.08,-32.66 1143.71,-21.51"/>
<polygon fill="midnightblue" stroke="midnightblue" points="1144.58,-24.9 1153.73,-19.57 1143.25,-18.03 1144.58,-24.9"/>
</g>
<!-- Node11 -->
<g id="node11" class="node">
<title>Node11</title>
<g id="a_node11"><a xlink:title=" ">
<polygon fill="none" stroke="#bfbfbf" points="1266,-0.5 1266,-19.5 1364,-19.5 1364,-0.5 1266,-0.5"/>
<text text-anchor="middle" x="1315" y="-7.5" font-family="FreeSans.ttf" font-size="10.00">yarp/sig/Vector.h</text>
</a>
</g>
</g>
<!-- Node1&#45;&gt;Node11 -->
<g id="edge10" class="edge">
<title>Node1&#45;&gt;Node11</title>
<path fill="none" stroke="midnightblue" d="M950.25,-61.07C1008.3,-53.72 1136.92,-37.19 1255.95,-20.13"/>
<polygon fill="midnightblue" stroke="midnightblue" points="1256.56,-23.57 1265.96,-18.69 1255.57,-16.64 1256.56,-23.57"/>
</g>
<!-- Node12 -->
<g id="node12" class="node">
<title>Node12</title>
<g id="a_node12"><a xlink:title=" ">
<polygon fill="none" stroke="#bfbfbf" points="1382,-0.5 1382,-19.5 1486,-19.5 1486,-0.5 1382,-0.5"/>
<text text-anchor="middle" x="1434" y="-7.5" font-family="FreeSans.ttf" font-size="10.00">yarp/math/Math.h</text>
</a>
</g>
</g>
<!-- Node1&#45;&gt;Node12 -->
<g id="edge11" class="edge">
<title>Node1&#45;&gt;Node12</title>
<path fill="none" stroke="midnightblue" d="M950.16,-62.43C1022.3,-56.36 1206.63,-40.23 1371.45,-20.14"/>
<polygon fill="midnightblue" stroke="midnightblue" points="1372.28,-23.56 1381.78,-18.87 1371.43,-16.62 1372.28,-23.56"/>
</g>
<!-- Node13 -->
<g id="node13" class="node">
<title>Node13</title>
<g id="a_node13"><a xlink:title=" ">
<polygon fill="none" stroke="#bfbfbf" points="1504,-0.5 1504,-19.5 1554,-19.5 1554,-0.5 1504,-0.5"/>
<text text-anchor="middle" x="1529" y="-7.5" font-family="FreeSans.ttf" font-size="10.00">stdio.h</text>
</a>
</g>
</g>
<!-- Node1&#45;&gt;Node13 -->
<g id="edge12" class="edge">
<title>Node1&#45;&gt;Node13</title>
<path fill="none" stroke="midnightblue" d="M950.15,-64.54C1035.66,-62.86 1281.23,-55.25 1493.77,-19.9"/>
<polygon fill="midnightblue" stroke="midnightblue" points="1494.58,-23.31 1503.86,-18.2 1493.42,-16.41 1494.58,-23.31"/>
</g>
<!-- Node14 -->
<g id="node14" class="node">
<title>Node14</title>
<g id="a_node14"><a xlink:title=" ">
<polygon fill="none" stroke="#bfbfbf" points="1572.5,-0.5 1572.5,-19.5 1623.5,-19.5 1623.5,-0.5 1572.5,-0.5"/>
<text text-anchor="middle" x="1598" y="-7.5" font-family="FreeSans.ttf" font-size="10.00">math.h</text>
</a>
</g>
</g>
<!-- Node1&#45;&gt;Node14 -->
<g id="edge13" class="edge">
<title>Node1&#45;&gt;Node14</title>
<path fill="none" stroke="midnightblue" d="M950.06,-64.83C1042.16,-63.89 1321.78,-58.01 1562.51,-19.74"/>
<polygon fill="midnightblue" stroke="midnightblue" points="1563.18,-23.18 1572.5,-18.13 1562.07,-16.27 1563.18,-23.18"/>
</g>
</g>
</svg>
