<?xml version="1.0" encoding="UTF-8" standalone="no"?>
<!DOCTYPE svg PUBLIC "-//W3C//DTD SVG 1.1//EN"
 "http://www.w3.org/Graphics/SVG/1.1/DTD/svg11.dtd">
<!-- Generated by graphviz version 5.0.1 (20220821.0811)
 -->
<!-- Title: MaisSensor.cc Pages: 1 -->
<svg width="2918pt" height="151pt"
 viewBox="0.00 0.00 2918.00 151.00" xmlns="http://www.w3.org/2000/svg" xmlns:xlink="http://www.w3.org/1999/xlink">
<g id="graph0" class="graph" transform="scale(1 1) rotate(0) translate(4 147)">
<title>MaisSensor.cc</title>
<!-- Node1 -->
<g id="node1" class="node">
<title>Node1</title>
<g id="a_node1"><a xlink:title=" ">
<polygon fill="#bfbfbf" stroke="black" points="2172.5,-123.5 2172.5,-142.5 2258.5,-142.5 2258.5,-123.5 2172.5,-123.5"/>
<text text-anchor="middle" x="2215.5" y="-130.5" font-family="FreeSans.ttf" font-size="10.00">MaisSensor.cc</text>
</a>
</g>
</g>
<!-- Node2 -->
<g id="node2" class="node">
<title>Node2</title>
<g id="a_node2"><a xlink:href="MaisSensor_8hh.html" target="_top" xlink:title=" ">
<polygon fill="none" stroke="black" points="393,-67.5 393,-86.5 480,-86.5 480,-67.5 393,-67.5"/>
<text text-anchor="middle" x="436.5" y="-74.5" font-family="FreeSans.ttf" font-size="10.00">MaisSensor.hh</text>
</a>
</g>
</g>
<!-- Node1&#45;&gt;Node2 -->
<g id="edge1" class="edge">
<title>Node1&#45;&gt;Node2</title>
<path fill="none" stroke="midnightblue" d="M2172.41,-130.69C1931.93,-123.39 757.11,-87.73 490.42,-79.64"/>
<polygon fill="midnightblue" stroke="midnightblue" points="490.32,-76.13 480.22,-79.33 490.11,-83.13 490.32,-76.13"/>
</g>
<!-- Node6 -->
<g id="node6" class="node">
<title>Node6</title>
<g id="a_node6"><a xlink:href="MaisSensorDriver_8h.html" target="_top" xlink:title=" ">
<polygon fill="none" stroke="black" points="1053,-67.5 1053,-86.5 1164,-86.5 1164,-67.5 1053,-67.5"/>
<text text-anchor="middle" x="1108.5" y="-74.5" font-family="FreeSans.ttf" font-size="10.00">MaisSensorDriver.h</text>
</a>
</g>
</g>
<!-- Node1&#45;&gt;Node6 -->
<g id="edge5" class="edge">
<title>Node1&#45;&gt;Node6</title>
<path fill="none" stroke="midnightblue" d="M2172.44,-129.9C2002.64,-121.62 1378.7,-91.18 1174.02,-81.2"/>
<polygon fill="midnightblue" stroke="midnightblue" points="1174.17,-77.7 1164.01,-80.71 1173.83,-84.69 1174.17,-77.7"/>
</g>
<!-- Node19 -->
<g id="node19" class="node">
<title>Node19</title>
<g id="a_node19"><a xlink:href="common_8h.html" target="_top" xlink:title=" ">
<polygon fill="none" stroke="black" points="169.5,-67.5 169.5,-86.5 333.5,-86.5 333.5,-67.5 169.5,-67.5"/>
<text text-anchor="middle" x="251.5" y="-74.5" font-family="FreeSans.ttf" font-size="10.00">GazeboYarpPlugins/common.h</text>
</a>
</g>
</g>
<!-- Node1&#45;&gt;Node19 -->
<g id="edge19" class="edge">
<title>Node1&#45;&gt;Node19</title>
<path fill="none" stroke="midnightblue" d="M2172.2,-131.63C1969.92,-129.77 1097.78,-120.11 383.5,-87 370.61,-86.4 357.02,-85.63 343.66,-84.8"/>
<polygon fill="midnightblue" stroke="midnightblue" points="343.7,-81.29 333.5,-84.15 343.26,-88.28 343.7,-81.29"/>
</g>
<!-- Node21 -->
<g id="node21" class="node">
<title>Node21</title>
<g id="a_node21"><a xlink:href="Handler_8hh.html" target="_top" xlink:title=" ">
<polygon fill="none" stroke="black" points="1814.5,-67.5 1814.5,-86.5 1978.5,-86.5 1978.5,-67.5 1814.5,-67.5"/>
<text text-anchor="middle" x="1896.5" y="-74.5" font-family="FreeSans.ttf" font-size="10.00">GazeboYarpPlugins/Handler.hh</text>
</a>
</g>
</g>
<!-- Node1&#45;&gt;Node21 -->
<g id="edge22" class="edge">
<title>Node1&#45;&gt;Node21</title>
<path fill="none" stroke="midnightblue" d="M2172.48,-124.72C2116.98,-115.32 2020.11,-98.93 1957.16,-88.27"/>
<polygon fill="midnightblue" stroke="midnightblue" points="1957.42,-84.76 1946.97,-86.54 1956.25,-91.66 1957.42,-84.76"/>
</g>
<!-- Node25 -->
<g id="node25" class="node">
<title>Node25</title>
<g id="a_node25"><a xlink:href="ConfHelpers_8hh.html" target="_top" xlink:title=" ">
<polygon fill="none" stroke="black" points="2031,-67.5 2031,-86.5 2218,-86.5 2218,-67.5 2031,-67.5"/>
<text text-anchor="middle" x="2124.5" y="-74.5" font-family="FreeSans.ttf" font-size="10.00">GazeboYarpPlugins/ConfHelpers.hh</text>
</a>
</g>
</g>
<!-- Node1&#45;&gt;Node25 -->
<g id="edge30" class="edge">
<title>Node1&#45;&gt;Node25</title>
<path fill="none" stroke="midnightblue" d="M2200.88,-123.32C2186.55,-114.82 2164.49,-101.73 2147.75,-91.8"/>
<polygon fill="midnightblue" stroke="midnightblue" points="2149.47,-88.75 2139.08,-86.65 2145.9,-94.77 2149.47,-88.75"/>
</g>
<!-- Node28 -->
<g id="node28" class="node">
<title>Node28</title>
<g id="a_node28"><a xlink:title=" ">
<polygon fill="none" stroke="#bfbfbf" points="2236.5,-67.5 2236.5,-86.5 2376.5,-86.5 2376.5,-67.5 2236.5,-67.5"/>
<text text-anchor="middle" x="2306.5" y="-74.5" font-family="FreeSans.ttf" font-size="10.00">gazebo/physics/Model.hh</text>
</a>
</g>
</g>
<!-- Node1&#45;&gt;Node28 -->
<g id="edge35" class="edge">
<title>Node1&#45;&gt;Node28</title>
<path fill="none" stroke="midnightblue" d="M2230.12,-123.32C2244.45,-114.82 2266.51,-101.73 2283.25,-91.8"/>
<polygon fill="midnightblue" stroke="midnightblue" points="2285.1,-94.77 2291.92,-86.65 2281.53,-88.75 2285.1,-94.77"/>
</g>
<!-- Node29 -->
<g id="node29" class="node">
<title>Node29</title>
<g id="a_node29"><a xlink:title=" ">
<polygon fill="none" stroke="#bfbfbf" points="2395,-67.5 2395,-86.5 2550,-86.5 2550,-67.5 2395,-67.5"/>
<text text-anchor="middle" x="2472.5" y="-74.5" font-family="FreeSans.ttf" font-size="10.00">yarp/dev/IMultipleWrapper.h</text>
</a>
</g>
</g>
<!-- Node1&#45;&gt;Node29 -->
<g id="edge36" class="edge">
<title>Node1&#45;&gt;Node29</title>
<path fill="none" stroke="midnightblue" d="M2256.22,-123.44C2301.15,-114 2373.5,-98.8 2422,-88.61"/>
<polygon fill="midnightblue" stroke="midnightblue" points="2422.9,-92 2431.97,-86.52 2421.46,-85.15 2422.9,-92"/>
</g>
<!-- Node30 -->
<g id="node30" class="node">
<title>Node30</title>
<g id="a_node30"><a xlink:title=" ">
<polygon fill="none" stroke="#bfbfbf" points="2568.5,-67.5 2568.5,-86.5 2674.5,-86.5 2674.5,-67.5 2568.5,-67.5"/>
<text text-anchor="middle" x="2621.5" y="-74.5" font-family="FreeSans.ttf" font-size="10.00">yarp/os/Network.h</text>
</a>
</g>
</g>
<!-- Node1&#45;&gt;Node30 -->
<g id="edge37" class="edge">
<title>Node1&#45;&gt;Node30</title>
<path fill="none" stroke="midnightblue" d="M2258.7,-126.55C2322.06,-118.51 2444.19,-102.84 2558.44,-87.13"/>
<polygon fill="midnightblue" stroke="midnightblue" points="2558.98,-90.59 2568.41,-85.76 2558.02,-83.66 2558.98,-90.59"/>
</g>
<!-- Node31 -->
<g id="node31" class="node">
<title>Node31</title>
<g id="a_node31"><a xlink:title=" ">
<polygon fill="none" stroke="#bfbfbf" points="2692.5,-67.5 2692.5,-86.5 2774.5,-86.5 2774.5,-67.5 2692.5,-67.5"/>
<text text-anchor="middle" x="2733.5" y="-74.5" font-family="FreeSans.ttf" font-size="10.00">yarp/os/Log.h</text>
</a>
</g>
</g>
<!-- Node1&#45;&gt;Node31 -->
<g id="edge38" class="edge">
<title>Node1&#45;&gt;Node31</title>
<path fill="none" stroke="midnightblue" d="M2258.55,-129.05C2339.48,-123.25 2520.04,-109.08 2682.18,-87.08"/>
<polygon fill="midnightblue" stroke="midnightblue" points="2682.91,-90.51 2692.34,-85.69 2681.96,-83.58 2682.91,-90.51"/>
</g>
<!-- Node32 -->
<g id="node32" class="node">
<title>Node32</title>
<g id="a_node32"><a xlink:title=" ">
<polygon fill="none" stroke="#bfbfbf" points="2793,-67.5 2793,-86.5 2910,-86.5 2910,-67.5 2793,-67.5"/>
<text text-anchor="middle" x="2851.5" y="-74.5" font-family="FreeSans.ttf" font-size="10.00">yarp/os/LogStream.h</text>
</a>
</g>
</g>
<!-- Node1&#45;&gt;Node32 -->
<g id="edge39" class="edge">
<title>Node1&#45;&gt;Node32</title>
<path fill="none" stroke="midnightblue" d="M2258.68,-129.36C2352.12,-123.47 2580.24,-108.19 2782.69,-87.03"/>
<polygon fill="midnightblue" stroke="midnightblue" points="2783.34,-90.48 2792.92,-85.95 2782.61,-83.52 2783.34,-90.48"/>
</g>
<!-- Node3 -->
<g id="node3" class="node">
<title>Node3</title>
<g id="a_node3"><a xlink:title=" ">
<polygon fill="none" stroke="#bfbfbf" points="65.5,-6 65.5,-25 211.5,-25 211.5,-6 65.5,-6"/>
<text text-anchor="middle" x="138.5" y="-13" font-family="FreeSans.ttf" font-size="10.00">gazebo/common/Plugin.hh</text>
</a>
</g>
</g>
<!-- Node2&#45;&gt;Node3 -->
<g id="edge2" class="edge">
<title>Node2&#45;&gt;Node3</title>
<path fill="none" stroke="midnightblue" d="M393.8,-67.48C340.36,-56.8 248.85,-38.53 191.13,-27.01"/>
<polygon fill="midnightblue" stroke="midnightblue" points="191.61,-23.53 181.12,-25.01 190.24,-30.4 191.61,-23.53"/>
</g>
<!-- Node4 -->
<g id="node4" class="node">
<title>Node4</title>
<g id="a_node4"><a xlink:title=" ">
<polygon fill="none" stroke="#bfbfbf" points="229.5,-6 229.5,-25 273.5,-25 273.5,-6 229.5,-6"/>
<text text-anchor="middle" x="251.5" y="-13" font-family="FreeSans.ttf" font-size="10.00">string</text>
</a>
</g>
</g>
<!-- Node2&#45;&gt;Node4 -->
<g id="edge3" class="edge">
<title>Node2&#45;&gt;Node4</title>
<path fill="none" stroke="midnightblue" d="M401.75,-67.48C370.21,-59.35 322.63,-46.15 282.5,-31 281.08,-30.46 279.63,-29.89 278.17,-29.29"/>
<polygon fill="midnightblue" stroke="midnightblue" points="279.24,-25.93 268.68,-25.11 276.42,-32.34 279.24,-25.93"/>
</g>
<!-- Node5 -->
<g id="node5" class="node">
<title>Node5</title>
<g id="a_node5"><a xlink:title=" ">
<polygon fill="none" stroke="#bfbfbf" points="407.5,-6 407.5,-25 547.5,-25 547.5,-6 407.5,-6"/>
<text text-anchor="middle" x="477.5" y="-13" font-family="FreeSans.ttf" font-size="10.00">yarp/dev/PolyDriverList.h</text>
</a>
</g>
</g>
<!-- Node2&#45;&gt;Node5 -->
<g id="edge4" class="edge">
<title>Node2&#45;&gt;Node5</title>
<path fill="none" stroke="midnightblue" d="M442.37,-67.48C448.46,-58.64 458.14,-44.59 465.8,-33.48"/>
<polygon fill="midnightblue" stroke="midnightblue" points="468.84,-35.23 471.64,-25.01 463.08,-31.26 468.84,-35.23"/>
</g>
<!-- Node6&#45;&gt;Node4 -->
<g id="edge15" class="edge">
<title>Node6&#45;&gt;Node4</title>
<path fill="none" stroke="midnightblue" d="M1052.82,-75.72C891.99,-74.49 428.93,-67.76 282.5,-31 280.51,-30.5 278.5,-29.87 276.5,-29.16"/>
<polygon fill="midnightblue" stroke="midnightblue" points="277.41,-25.75 266.84,-25.09 274.69,-32.2 277.41,-25.75"/>
</g>
<!-- Node7 -->
<g id="node7" class="node">
<title>Node7</title>
<g id="a_node7"><a xlink:title=" ">
<polygon fill="none" stroke="#bfbfbf" points="853.5,-6 853.5,-25 957.5,-25 957.5,-6 853.5,-6"/>
<text text-anchor="middle" x="905.5" y="-13" font-family="FreeSans.ttf" font-size="10.00">yarp/os/Property.h</text>
</a>
</g>
</g>
<!-- Node6&#45;&gt;Node7 -->
<g id="edge6" class="edge">
<title>Node6&#45;&gt;Node7</title>
<path fill="none" stroke="midnightblue" d="M1079.42,-67.48C1043.92,-57.07 983.75,-39.44 944.33,-27.88"/>
<polygon fill="midnightblue" stroke="midnightblue" points="945.11,-24.46 934.53,-25.01 943.14,-31.18 945.11,-24.46"/>
</g>
<!-- Node8 -->
<g id="node8" class="node">
<title>Node8</title>
<g id="a_node8"><a xlink:title=" ">
<polygon fill="none" stroke="#bfbfbf" points="976,-6 976,-25 1083,-25 1083,-6 976,-6"/>
<text text-anchor="middle" x="1029.5" y="-13" font-family="FreeSans.ttf" font-size="10.00">yarp/dev/Drivers.h</text>
</a>
</g>
</g>
<!-- Node6&#45;&gt;Node8 -->
<g id="edge7" class="edge">
<title>Node6&#45;&gt;Node8</title>
<path fill="none" stroke="midnightblue" d="M1097.18,-67.48C1084.63,-58.02 1064.15,-42.6 1049,-31.19"/>
<polygon fill="midnightblue" stroke="midnightblue" points="1050.89,-28.23 1040.8,-25.01 1046.68,-33.82 1050.89,-28.23"/>
</g>
<!-- Node9 -->
<g id="node9" class="node">
<title>Node9</title>
<g id="a_node9"><a xlink:title=" ">
<polygon fill="none" stroke="#bfbfbf" points="1654.5,-6 1654.5,-25 1776.5,-25 1776.5,-6 1654.5,-6"/>
<text text-anchor="middle" x="1715.5" y="-13" font-family="FreeSans.ttf" font-size="10.00">yarp/dev/PolyDriver.h</text>
</a>
</g>
</g>
<!-- Node6&#45;&gt;Node9 -->
<g id="edge8" class="edge">
<title>Node6&#45;&gt;Node9</title>
<path fill="none" stroke="midnightblue" d="M1164.02,-73.56C1261.76,-68.77 1470.74,-56.33 1645.5,-31 1653.02,-29.91 1660.94,-28.51 1668.64,-27.02"/>
<polygon fill="midnightblue" stroke="midnightblue" points="1669.48,-30.42 1678.59,-25.01 1668.1,-23.56 1669.48,-30.42"/>
</g>
<!-- Node10 -->
<g id="node10" class="node">
<title>Node10</title>
<g id="a_node10"><a xlink:title=" ">
<polygon fill="none" stroke="#bfbfbf" points="1101,-0.5 1101,-30.5 1276,-30.5 1276,-0.5 1101,-0.5"/>
<text text-anchor="start" x="1109" y="-18.5" font-family="FreeSans.ttf" font-size="10.00">yarp/dev/ControlBoardInterfaces</text>
<text text-anchor="middle" x="1188.5" y="-7.5" font-family="FreeSans.ttf" font-size="10.00">Impl.h</text>
</a>
</g>
</g>
<!-- Node6&#45;&gt;Node10 -->
<g id="edge9" class="edge">
<title>Node6&#45;&gt;Node10</title>
<path fill="none" stroke="midnightblue" d="M1119.96,-67.48C1130.7,-59.49 1147.15,-47.25 1161.25,-36.77"/>
<polygon fill="midnightblue" stroke="midnightblue" points="1163.71,-39.3 1169.65,-30.52 1159.53,-33.68 1163.71,-39.3"/>
</g>
<!-- Node11 -->
<g id="node11" class="node">
<title>Node11</title>
<g id="a_node11"><a xlink:title=" ">
<polygon fill="none" stroke="#bfbfbf" points="1294.5,-6 1294.5,-25 1478.5,-25 1478.5,-6 1294.5,-6"/>
<text text-anchor="middle" x="1386.5" y="-13" font-family="FreeSans.ttf" font-size="10.00">yarp/dev/ControlBoardInterfaces.h</text>
</a>
</g>
</g>
<!-- Node6&#45;&gt;Node11 -->
<g id="edge10" class="edge">
<title>Node6&#45;&gt;Node11</title>
<path fill="none" stroke="midnightblue" d="M1148.33,-67.48C1197.98,-56.85 1282.85,-38.68 1336.73,-27.15"/>
<polygon fill="midnightblue" stroke="midnightblue" points="1337.7,-30.52 1346.74,-25.01 1336.23,-23.68 1337.7,-30.52"/>
</g>
<!-- Node12 -->
<g id="node12" class="node">
<title>Node12</title>
<g id="a_node12"><a xlink:title=" ">
<polygon fill="none" stroke="#bfbfbf" points="1496.5,-6 1496.5,-25 1636.5,-25 1636.5,-6 1496.5,-6"/>
<text text-anchor="middle" x="1566.5" y="-13" font-family="FreeSans.ttf" font-size="10.00">yarp/dev/IAnalogSensor.h</text>
</a>
</g>
</g>
<!-- Node6&#45;&gt;Node12 -->
<g id="edge11" class="edge">
<title>Node6&#45;&gt;Node12</title>
<path fill="none" stroke="midnightblue" d="M1164.2,-70.5C1238.22,-62.94 1373.01,-48.29 1487.5,-31 1495.64,-29.77 1504.22,-28.34 1512.61,-26.86"/>
<polygon fill="midnightblue" stroke="midnightblue" points="1513.48,-30.26 1522.71,-25.05 1512.25,-23.37 1513.48,-30.26"/>
</g>
<!-- Node13 -->
<g id="node13" class="node">
<title>Node13</title>
<g id="a_node13"><a xlink:title=" ">
<polygon fill="none" stroke="#bfbfbf" points="291.5,-6 291.5,-25 389.5,-25 389.5,-6 291.5,-6"/>
<text text-anchor="middle" x="340.5" y="-13" font-family="FreeSans.ttf" font-size="10.00">yarp/sig/Vector.h</text>
</a>
</g>
</g>
<!-- Node6&#45;&gt;Node13 -->
<g id="edge12" class="edge">
<title>Node6&#45;&gt;Node13</title>
<path fill="none" stroke="midnightblue" d="M1052.89,-75.9C932.72,-74.93 640.15,-68.55 398.5,-31 392.59,-30.08 386.39,-28.84 380.35,-27.47"/>
<polygon fill="midnightblue" stroke="midnightblue" points="380.93,-24.01 370.39,-25.07 379.3,-30.82 380.93,-24.01"/>
</g>
<!-- Node14 -->
<g id="node14" class="node">
<title>Node14</title>
<g id="a_node14"><a xlink:title=" ">
<polygon fill="none" stroke="#bfbfbf" points="566,-6 566,-25 655,-25 655,-6 566,-6"/>
<text text-anchor="middle" x="610.5" y="-13" font-family="FreeSans.ttf" font-size="10.00">yarp/os/Time.h</text>
</a>
</g>
</g>
<!-- Node6&#45;&gt;Node14 -->
<g id="edge13" class="edge">
<title>Node6&#45;&gt;Node14</title>
<path fill="none" stroke="midnightblue" d="M1052.72,-73.24C968.18,-68.41 802.81,-56.41 664.5,-31 659.38,-30.06 654.04,-28.88 648.79,-27.59"/>
<polygon fill="midnightblue" stroke="midnightblue" points="649.45,-24.15 638.89,-25.04 647.7,-30.93 649.45,-24.15"/>
</g>
<!-- Node15 -->
<g id="node15" class="node">
<title>Node15</title>
<g id="a_node15"><a xlink:title=" ">
<polygon fill="none" stroke="#bfbfbf" points="673.5,-6 673.5,-25 769.5,-25 769.5,-6 673.5,-6"/>
<text text-anchor="middle" x="721.5" y="-13" font-family="FreeSans.ttf" font-size="10.00">yarp/os/Stamp.h</text>
</a>
</g>
</g>
<!-- Node6&#45;&gt;Node15 -->
<g id="edge14" class="edge">
<title>Node6&#45;&gt;Node15</title>
<path fill="none" stroke="midnightblue" d="M1052.9,-70.27C987.24,-63.07 874.88,-49.39 779.5,-31 774.09,-29.96 768.42,-28.72 762.84,-27.42"/>
<polygon fill="midnightblue" stroke="midnightblue" points="763.51,-23.98 752.97,-25.03 761.86,-30.78 763.51,-23.98"/>
</g>
<!-- Node16 -->
<g id="node16" class="node">
<title>Node16</title>
<g id="a_node16"><a xlink:title=" ">
<polygon fill="none" stroke="#bfbfbf" points="788,-6 788,-25 835,-25 835,-6 788,-6"/>
<text text-anchor="middle" x="811.5" y="-13" font-family="FreeSans.ttf" font-size="10.00">vector</text>
</a>
</g>
</g>
<!-- Node6&#45;&gt;Node16 -->
<g id="edge16" class="edge">
<title>Node6&#45;&gt;Node16</title>
<path fill="none" stroke="midnightblue" d="M1052.99,-70.54C998.94,-64.3 914.86,-52.11 844.5,-31 842.57,-30.42 840.6,-29.76 838.63,-29.04"/>
<polygon fill="midnightblue" stroke="midnightblue" points="839.59,-25.65 829.01,-25.14 836.97,-32.14 839.59,-25.65"/>
</g>
<!-- Node17 -->
<g id="node17" class="node">
<title>Node17</title>
<g id="a_node17"><a xlink:title=" ">
<polygon fill="none" stroke="#bfbfbf" points="2083,-6 2083,-25 2202,-25 2202,-6 2083,-6"/>
<text text-anchor="middle" x="2142.5" y="-13" font-family="FreeSans.ttf" font-size="10.00">boost/shared_ptr.hpp</text>
</a>
</g>
</g>
<!-- Node6&#45;&gt;Node17 -->
<g id="edge17" class="edge">
<title>Node6&#45;&gt;Node17</title>
<path fill="none" stroke="midnightblue" d="M1164.05,-76.58C1312.48,-77.44 1730.45,-75.39 2074.5,-31 2082.07,-30.02 2090.06,-28.64 2097.79,-27.12"/>
<polygon fill="midnightblue" stroke="midnightblue" points="2098.66,-30.51 2107.75,-25.05 2097.24,-23.66 2098.66,-30.51"/>
</g>
<!-- Node18 -->
<g id="node18" class="node">
<title>Node18</title>
<g id="a_node18"><a xlink:title=" ">
<polygon fill="none" stroke="#bfbfbf" points="1794.5,-6 1794.5,-25 1842.5,-25 1842.5,-6 1794.5,-6"/>
<text text-anchor="middle" x="1818.5" y="-13" font-family="FreeSans.ttf" font-size="10.00">mutex</text>
</a>
</g>
</g>
<!-- Node6&#45;&gt;Node18 -->
<g id="edge18" class="edge">
<title>Node6&#45;&gt;Node18</title>
<path fill="none" stroke="midnightblue" d="M1164.18,-74.78C1304.2,-71.31 1668.16,-59.74 1785.5,-31 1787.86,-30.42 1790.26,-29.69 1792.64,-28.85"/>
<polygon fill="midnightblue" stroke="midnightblue" points="1794.14,-32.02 1802.11,-25.04 1791.52,-25.53 1794.14,-32.02"/>
</g>
<!-- Node19&#45;&gt;Node4 -->
<g id="edge20" class="edge">
<title>Node19&#45;&gt;Node4</title>
<path fill="none" stroke="midnightblue" d="M251.5,-67.48C251.5,-59.08 251.5,-45.98 251.5,-35.16"/>
<polygon fill="midnightblue" stroke="midnightblue" points="255,-35.01 251.5,-25.01 248,-35.01 255,-35.01"/>
</g>
<!-- Node20 -->
<g id="node20" class="node">
<title>Node20</title>
<g id="a_node20"><a xlink:title=" ">
<polygon fill="none" stroke="#bfbfbf" points="0,-6 0,-25 47,-25 47,-6 0,-6"/>
<text text-anchor="middle" x="23.5" y="-13" font-family="FreeSans.ttf" font-size="10.00">cmath</text>
</a>
</g>
</g>
<!-- Node19&#45;&gt;Node20 -->
<g id="edge21" class="edge">
<title>Node19&#45;&gt;Node20</title>
<path fill="none" stroke="midnightblue" d="M203.13,-67.46C163.24,-59.79 105.47,-47.25 56.5,-31 54.63,-30.38 52.72,-29.69 50.81,-28.96"/>
<polygon fill="midnightblue" stroke="midnightblue" points="52,-25.67 41.42,-25.1 49.33,-32.14 52,-25.67"/>
</g>
<!-- Node21&#45;&gt;Node5 -->
<g id="edge28" class="edge">
<title>Node21&#45;&gt;Node5</title>
<path fill="none" stroke="midnightblue" d="M1814.43,-74.84C1562.47,-71.01 802.24,-57.53 556.5,-31 547.03,-29.98 537,-28.47 527.37,-26.81"/>
<polygon fill="midnightblue" stroke="midnightblue" points="527.98,-23.36 517.52,-25.03 526.74,-30.25 527.98,-23.36"/>
</g>
<!-- Node21&#45;&gt;Node9 -->
<g id="edge27" class="edge">
<title>Node21&#45;&gt;Node9</title>
<path fill="none" stroke="midnightblue" d="M1870.57,-67.48C1839.25,-57.18 1786.41,-39.81 1751.24,-28.25"/>
<polygon fill="midnightblue" stroke="midnightblue" points="1751.98,-24.81 1741.38,-25.01 1749.79,-31.46 1751.98,-24.81"/>
</g>
<!-- Node21&#45;&gt;Node17 -->
<g id="edge25" class="edge">
<title>Node21&#45;&gt;Node17</title>
<path fill="none" stroke="midnightblue" d="M1931.75,-67.48C1975.4,-56.92 2049.84,-38.91 2097.56,-27.37"/>
<polygon fill="midnightblue" stroke="midnightblue" points="2098.42,-30.76 2107.32,-25.01 2096.78,-23.96 2098.42,-30.76"/>
</g>
<!-- Node21&#45;&gt;Node18 -->
<g id="edge26" class="edge">
<title>Node21&#45;&gt;Node18</title>
<path fill="none" stroke="midnightblue" d="M1885.32,-67.48C1872.93,-58.02 1852.71,-42.6 1837.75,-31.19"/>
<polygon fill="midnightblue" stroke="midnightblue" points="1839.73,-28.29 1829.65,-25.01 1835.48,-33.86 1839.73,-28.29"/>
</g>
<!-- Node22 -->
<g id="node22" class="node">
<title>Node22</title>
<g id="a_node22"><a xlink:title=" ">
<polygon fill="none" stroke="#bfbfbf" points="1860.5,-6 1860.5,-25 1898.5,-25 1898.5,-6 1860.5,-6"/>
<text text-anchor="middle" x="1879.5" y="-13" font-family="FreeSans.ttf" font-size="10.00">map</text>
</a>
</g>
</g>
<!-- Node21&#45;&gt;Node22 -->
<g id="edge23" class="edge">
<title>Node21&#45;&gt;Node22</title>
<path fill="none" stroke="midnightblue" d="M1894.06,-67.48C1891.64,-58.99 1887.84,-45.7 1884.73,-34.82"/>
<polygon fill="midnightblue" stroke="midnightblue" points="1888.04,-33.66 1881.93,-25.01 1881.31,-35.59 1888.04,-33.66"/>
</g>
<!-- Node23 -->
<g id="node23" class="node">
<title>Node23</title>
<g id="a_node23"><a xlink:title=" ">
<polygon fill="none" stroke="#bfbfbf" points="2220,-6 2220,-25 2313,-25 2313,-6 2220,-6"/>
<text text-anchor="middle" x="2266.5" y="-13" font-family="FreeSans.ttf" font-size="10.00">sdf/sdf_config.h</text>
</a>
</g>
</g>
<!-- Node21&#45;&gt;Node23 -->
<g id="edge24" class="edge">
<title>Node21&#45;&gt;Node23</title>
<path fill="none" stroke="midnightblue" d="M1973.95,-67.47C2037.98,-59.82 2131.1,-47.28 2211.5,-31 2216.51,-29.98 2221.75,-28.79 2226.91,-27.52"/>
<polygon fill="midnightblue" stroke="midnightblue" points="2227.85,-30.89 2236.68,-25.04 2226.12,-24.11 2227.85,-30.89"/>
</g>
<!-- Node24 -->
<g id="node24" class="node">
<title>Node24</title>
<g id="a_node24"><a xlink:title=" ">
<polygon fill="none" stroke="#bfbfbf" points="1916,-6 1916,-25 2065,-25 2065,-6 1916,-6"/>
<text text-anchor="middle" x="1990.5" y="-13" font-family="FreeSans.ttf" font-size="10.00">gazebo/common/Events.hh</text>
</a>
</g>
</g>
<!-- Node21&#45;&gt;Node24 -->
<g id="edge29" class="edge">
<title>Node21&#45;&gt;Node24</title>
<path fill="none" stroke="midnightblue" d="M1909.97,-67.48C1925.18,-57.84 1950.19,-42.02 1968.3,-30.55"/>
<polygon fill="midnightblue" stroke="midnightblue" points="1970.48,-33.31 1977.06,-25.01 1966.74,-27.4 1970.48,-33.31"/>
</g>
<!-- Node25&#45;&gt;Node17 -->
<g id="edge32" class="edge">
<title>Node25&#45;&gt;Node17</title>
<path fill="none" stroke="midnightblue" d="M2127.08,-67.48C2129.65,-58.99 2133.67,-45.7 2136.96,-34.82"/>
<polygon fill="midnightblue" stroke="midnightblue" points="2140.38,-35.59 2139.93,-25.01 2133.68,-33.57 2140.38,-35.59"/>
</g>
<!-- Node25&#45;&gt;Node23 -->
<g id="edge31" class="edge">
<title>Node25&#45;&gt;Node23</title>
<path fill="none" stroke="midnightblue" d="M2144.85,-67.48C2168.89,-57.4 2209.1,-40.55 2236.66,-29"/>
<polygon fill="midnightblue" stroke="midnightblue" points="2238.32,-32.1 2246.19,-25.01 2235.62,-25.65 2238.32,-32.1"/>
</g>
<!-- Node26 -->
<g id="node26" class="node">
<title>Node26</title>
<g id="a_node26"><a xlink:title=" ">
<polygon fill="none" stroke="#bfbfbf" points="2524,-6 2524,-25 2695,-25 2695,-6 2524,-6"/>
<text text-anchor="middle" x="2609.5" y="-13" font-family="FreeSans.ttf" font-size="10.00">gazebo/sensors/SensorTypes.hh</text>
</a>
</g>
</g>
<!-- Node25&#45;&gt;Node26 -->
<g id="edge33" class="edge">
<title>Node25&#45;&gt;Node26</title>
<path fill="none" stroke="midnightblue" d="M2206.03,-67.47C2285,-59 2408.1,-45.25 2514.5,-31 2524.65,-29.64 2535.4,-28.1 2545.87,-26.54"/>
<polygon fill="midnightblue" stroke="midnightblue" points="2546.42,-30 2555.79,-25.05 2545.38,-23.07 2546.42,-30"/>
</g>
<!-- Node27 -->
<g id="node27" class="node">
<title>Node27</title>
<g id="a_node27"><a xlink:title=" ">
<polygon fill="none" stroke="#bfbfbf" points="2331.5,-6 2331.5,-25 2505.5,-25 2505.5,-6 2331.5,-6"/>
<text text-anchor="middle" x="2418.5" y="-13" font-family="FreeSans.ttf" font-size="10.00">gazebo/physics/PhysicsTypes.hh</text>
</a>
</g>
</g>
<!-- Node25&#45;&gt;Node27 -->
<g id="edge34" class="edge">
<title>Node25&#45;&gt;Node27</title>
<path fill="none" stroke="midnightblue" d="M2166.62,-67.48C2219.35,-56.8 2309.63,-38.53 2366.57,-27.01"/>
<polygon fill="midnightblue" stroke="midnightblue" points="2367.35,-30.42 2376.46,-25.01 2365.96,-23.56 2367.35,-30.42"/>
</g>
</g>
</svg>
