<?xml version="1.0" encoding="UTF-8" standalone="no"?>
<!DOCTYPE svg PUBLIC "-//W3C//DTD SVG 1.1//EN"
 "http://www.w3.org/Graphics/SVG/1.1/DTD/svg11.dtd">
<!-- Generated by graphviz version 2.43.0 (0)
 -->
<!-- Title: MaisSensorDriver.cpp Pages: 1 -->
<svg width="2484pt" height="151pt"
 viewBox="0.00 0.00 2483.50 151.00" xmlns="http://www.w3.org/2000/svg" xmlns:xlink="http://www.w3.org/1999/xlink">
<g id="graph0" class="graph" transform="scale(1 1) rotate(0) translate(4 147)">
<title>MaisSensorDriver.cpp</title>
<!-- Node1 -->
<g id="node1" class="node">
<title>Node1</title>
<g id="a_node1"><a xlink:title=" ">
<polygon fill="#bfbfbf" stroke="black" points="1821,-123.5 1821,-142.5 1943,-142.5 1943,-123.5 1821,-123.5"/>
<text text-anchor="middle" x="1882" y="-130.5" font-family="FreeSans.ttf" font-size="10.00">MaisSensorDriver.cpp</text>
</a>
</g>
</g>
<!-- Node2 -->
<g id="node2" class="node">
<title>Node2</title>
<g id="a_node2"><a xlink:href="MaisSensorDriver_8h.html" target="_top" xlink:title=" ">
<polygon fill="none" stroke="black" points="991.5,-67.5 991.5,-86.5 1102.5,-86.5 1102.5,-67.5 991.5,-67.5"/>
<text text-anchor="middle" x="1047" y="-74.5" font-family="FreeSans.ttf" font-size="10.00">MaisSensorDriver.h</text>
</a>
</g>
</g>
<!-- Node1&#45;&gt;Node2 -->
<g id="edge1" class="edge">
<title>Node1&#45;&gt;Node2</title>
<path fill="none" stroke="midnightblue" d="M1820.94,-128.05C1668.18,-118.17 1270.44,-92.45 1112.77,-82.25"/>
<polygon fill="midnightblue" stroke="midnightblue" points="1112.94,-78.76 1102.74,-81.6 1112.49,-85.74 1112.94,-78.76"/>
</g>
<!-- Node16 -->
<g id="node16" class="node">
<title>Node16</title>
<g id="a_node16"><a xlink:href="common_8h.html" target="_top" xlink:title=" ">
<polygon fill="none" stroke="black" points="1489,-67.5 1489,-86.5 1653,-86.5 1653,-67.5 1489,-67.5"/>
<text text-anchor="middle" x="1571" y="-74.5" font-family="FreeSans.ttf" font-size="10.00">GazeboYarpPlugins/common.h</text>
</a>
</g>
</g>
<!-- Node1&#45;&gt;Node16 -->
<g id="edge15" class="edge">
<title>Node1&#45;&gt;Node16</title>
<path fill="none" stroke="midnightblue" d="M1832.72,-123.44C1777.67,-113.89 1688.6,-98.42 1629.92,-88.23"/>
<polygon fill="midnightblue" stroke="midnightblue" points="1630.5,-84.78 1620.05,-86.52 1629.3,-91.68 1630.5,-84.78"/>
</g>
<!-- Node18 -->
<g id="node18" class="node">
<title>Node18</title>
<g id="a_node18"><a xlink:title=" ">
<polygon fill="none" stroke="#bfbfbf" points="1671,-67.5 1671,-86.5 1717,-86.5 1717,-67.5 1671,-67.5"/>
<text text-anchor="middle" x="1694" y="-74.5" font-family="FreeSans.ttf" font-size="10.00">cstdio</text>
</a>
</g>
</g>
<!-- Node1&#45;&gt;Node18 -->
<g id="edge18" class="edge">
<title>Node1&#45;&gt;Node18</title>
<path fill="none" stroke="midnightblue" d="M1852.21,-123.44C1818.1,-113.65 1762.37,-97.64 1726.98,-87.47"/>
<polygon fill="midnightblue" stroke="midnightblue" points="1727.71,-84.04 1717.13,-84.64 1725.78,-90.77 1727.71,-84.04"/>
</g>
<!-- Node19 -->
<g id="node19" class="node">
<title>Node19</title>
<g id="a_node19"><a xlink:title=" ">
<polygon fill="none" stroke="#bfbfbf" points="1735,-67.5 1735,-86.5 1875,-86.5 1875,-67.5 1735,-67.5"/>
<text text-anchor="middle" x="1805" y="-74.5" font-family="FreeSans.ttf" font-size="10.00">gazebo/physics/Model.hh</text>
</a>
</g>
</g>
<!-- Node1&#45;&gt;Node19 -->
<g id="edge19" class="edge">
<title>Node1&#45;&gt;Node19</title>
<path fill="none" stroke="midnightblue" d="M1869.63,-123.32C1857.84,-115.06 1839.87,-102.45 1825.86,-92.63"/>
<polygon fill="midnightblue" stroke="midnightblue" points="1827.54,-89.53 1817.34,-86.65 1823.52,-95.26 1827.54,-89.53"/>
</g>
<!-- Node20 -->
<g id="node20" class="node">
<title>Node20</title>
<g id="a_node20"><a xlink:title=" ">
<polygon fill="none" stroke="#bfbfbf" points="1893.5,-67.5 1893.5,-86.5 2024.5,-86.5 2024.5,-67.5 1893.5,-67.5"/>
<text text-anchor="middle" x="1959" y="-74.5" font-family="FreeSans.ttf" font-size="10.00">gazebo/physics/Joint.hh</text>
</a>
</g>
</g>
<!-- Node1&#45;&gt;Node20 -->
<g id="edge20" class="edge">
<title>Node1&#45;&gt;Node20</title>
<path fill="none" stroke="midnightblue" d="M1894.37,-123.32C1906.16,-115.06 1924.13,-102.45 1938.14,-92.63"/>
<polygon fill="midnightblue" stroke="midnightblue" points="1940.48,-95.26 1946.66,-86.65 1936.46,-89.53 1940.48,-95.26"/>
</g>
<!-- Node21 -->
<g id="node21" class="node">
<title>Node21</title>
<g id="a_node21"><a xlink:title=" ">
<polygon fill="none" stroke="#bfbfbf" points="2042.5,-67.5 2042.5,-86.5 2179.5,-86.5 2179.5,-67.5 2042.5,-67.5"/>
<text text-anchor="middle" x="2111" y="-74.5" font-family="FreeSans.ttf" font-size="10.00">gazebo/physics/World.hh</text>
</a>
</g>
</g>
<!-- Node1&#45;&gt;Node21 -->
<g id="edge21" class="edge">
<title>Node1&#45;&gt;Node21</title>
<path fill="none" stroke="midnightblue" d="M1918.29,-123.44C1957.98,-114.08 2021.71,-99.06 2064.91,-88.87"/>
<polygon fill="midnightblue" stroke="midnightblue" points="2065.95,-92.22 2074.88,-86.52 2064.35,-85.41 2065.95,-92.22"/>
</g>
<!-- Node22 -->
<g id="node22" class="node">
<title>Node22</title>
<g id="a_node22"><a xlink:title=" ">
<polygon fill="none" stroke="#bfbfbf" points="2197.5,-67.5 2197.5,-86.5 2340.5,-86.5 2340.5,-67.5 2197.5,-67.5"/>
<text text-anchor="middle" x="2269" y="-74.5" font-family="FreeSans.ttf" font-size="10.00">gazebo/transport/Node.hh</text>
</a>
</g>
</g>
<!-- Node1&#45;&gt;Node22 -->
<g id="edge22" class="edge">
<title>Node1&#45;&gt;Node22</title>
<path fill="none" stroke="midnightblue" d="M1943.32,-123.44C2012.53,-113.79 2124.95,-98.1 2197.94,-87.92"/>
<polygon fill="midnightblue" stroke="midnightblue" points="2198.55,-91.36 2207.97,-86.52 2197.58,-84.43 2198.55,-91.36"/>
</g>
<!-- Node23 -->
<g id="node23" class="node">
<title>Node23</title>
<g id="a_node23"><a xlink:title=" ">
<polygon fill="none" stroke="#bfbfbf" points="2358.5,-67.5 2358.5,-86.5 2475.5,-86.5 2475.5,-67.5 2358.5,-67.5"/>
<text text-anchor="middle" x="2417" y="-74.5" font-family="FreeSans.ttf" font-size="10.00">yarp/os/LogStream.h</text>
</a>
</g>
</g>
<!-- Node1&#45;&gt;Node23 -->
<g id="edge23" class="edge">
<title>Node1&#45;&gt;Node23</title>
<path fill="none" stroke="midnightblue" d="M1943.03,-126.87C2030.52,-119.35 2196.9,-104.45 2348.24,-87.17"/>
<polygon fill="midnightblue" stroke="midnightblue" points="2348.65,-90.64 2358.19,-86.03 2347.86,-83.69 2348.65,-90.64"/>
</g>
<!-- Node3 -->
<g id="node3" class="node">
<title>Node3</title>
<g id="a_node3"><a xlink:title=" ">
<polygon fill="none" stroke="#bfbfbf" points="0,-6 0,-25 104,-25 104,-6 0,-6"/>
<text text-anchor="middle" x="52" y="-13" font-family="FreeSans.ttf" font-size="10.00">yarp/os/Property.h</text>
</a>
</g>
</g>
<!-- Node2&#45;&gt;Node3 -->
<g id="edge2" class="edge">
<title>Node2&#45;&gt;Node3</title>
<path fill="none" stroke="midnightblue" d="M991.29,-74.67C817.09,-70.3 284.18,-55.26 113,-31 106.56,-30.09 99.81,-28.81 93.24,-27.39"/>
<polygon fill="midnightblue" stroke="midnightblue" points="93.66,-23.9 83.13,-25.07 92.1,-30.72 93.66,-23.9"/>
</g>
<!-- Node4 -->
<g id="node4" class="node">
<title>Node4</title>
<g id="a_node4"><a xlink:title=" ">
<polygon fill="none" stroke="#bfbfbf" points="122.5,-6 122.5,-25 229.5,-25 229.5,-6 122.5,-6"/>
<text text-anchor="middle" x="176" y="-13" font-family="FreeSans.ttf" font-size="10.00">yarp/dev/Drivers.h</text>
</a>
</g>
</g>
<!-- Node2&#45;&gt;Node4 -->
<g id="edge3" class="edge">
<title>Node2&#45;&gt;Node4</title>
<path fill="none" stroke="midnightblue" d="M991.33,-76.16C859.77,-75.82 519.64,-70.81 239,-31 232.21,-30.04 225.06,-28.71 218.13,-27.24"/>
<polygon fill="midnightblue" stroke="midnightblue" points="218.7,-23.78 208.18,-25.02 217.17,-30.61 218.7,-23.78"/>
</g>
<!-- Node5 -->
<g id="node5" class="node">
<title>Node5</title>
<g id="a_node5"><a xlink:title=" ">
<polygon fill="none" stroke="#bfbfbf" points="248,-6 248,-25 370,-25 370,-6 248,-6"/>
<text text-anchor="middle" x="309" y="-13" font-family="FreeSans.ttf" font-size="10.00">yarp/dev/PolyDriver.h</text>
</a>
</g>
</g>
<!-- Node2&#45;&gt;Node5 -->
<g id="edge4" class="edge">
<title>Node2&#45;&gt;Node5</title>
<path fill="none" stroke="midnightblue" d="M991.32,-74.82C876.38,-71.83 604.72,-61.83 379,-31 371.39,-29.96 363.37,-28.58 355.58,-27.07"/>
<polygon fill="midnightblue" stroke="midnightblue" points="356.02,-23.59 345.53,-25.05 354.64,-30.46 356.02,-23.59"/>
</g>
<!-- Node6 -->
<g id="node6" class="node">
<title>Node6</title>
<g id="a_node6"><a xlink:title=" ">
<polygon fill="none" stroke="#bfbfbf" points="388.5,-0.5 388.5,-30.5 563.5,-30.5 563.5,-0.5 388.5,-0.5"/>
<text text-anchor="start" x="396.5" y="-18.5" font-family="FreeSans.ttf" font-size="10.00">yarp/dev/ControlBoardInterfaces</text>
<text text-anchor="middle" x="476" y="-7.5" font-family="FreeSans.ttf" font-size="10.00">Impl.h</text>
</a>
</g>
</g>
<!-- Node2&#45;&gt;Node6 -->
<g id="edge5" class="edge">
<title>Node2&#45;&gt;Node6</title>
<path fill="none" stroke="midnightblue" d="M991.44,-71.7C904.7,-64.77 731.62,-50.09 574.09,-31.09"/>
<polygon fill="midnightblue" stroke="midnightblue" points="574.09,-27.56 563.74,-29.83 573.25,-34.51 574.09,-27.56"/>
</g>
<!-- Node7 -->
<g id="node7" class="node">
<title>Node7</title>
<g id="a_node7"><a xlink:title=" ">
<polygon fill="none" stroke="#bfbfbf" points="582,-6 582,-25 766,-25 766,-6 582,-6"/>
<text text-anchor="middle" x="674" y="-13" font-family="FreeSans.ttf" font-size="10.00">yarp/dev/ControlBoardInterfaces.h</text>
</a>
</g>
</g>
<!-- Node2&#45;&gt;Node7 -->
<g id="edge6" class="edge">
<title>Node2&#45;&gt;Node7</title>
<path fill="none" stroke="midnightblue" d="M993.56,-67.48C925.97,-56.69 809.75,-38.15 737.65,-26.65"/>
<polygon fill="midnightblue" stroke="midnightblue" points="737.77,-23.13 727.34,-25.01 736.67,-30.04 737.77,-23.13"/>
</g>
<!-- Node8 -->
<g id="node8" class="node">
<title>Node8</title>
<g id="a_node8"><a xlink:title=" ">
<polygon fill="none" stroke="#bfbfbf" points="784,-6 784,-25 924,-25 924,-6 784,-6"/>
<text text-anchor="middle" x="854" y="-13" font-family="FreeSans.ttf" font-size="10.00">yarp/dev/IAnalogSensor.h</text>
</a>
</g>
</g>
<!-- Node2&#45;&gt;Node8 -->
<g id="edge7" class="edge">
<title>Node2&#45;&gt;Node8</title>
<path fill="none" stroke="midnightblue" d="M1019.35,-67.48C985.81,-57.14 929.13,-39.66 891.63,-28.1"/>
<polygon fill="midnightblue" stroke="midnightblue" points="892.19,-24.61 881.6,-25.01 890.13,-31.3 892.19,-24.61"/>
</g>
<!-- Node9 -->
<g id="node9" class="node">
<title>Node9</title>
<g id="a_node9"><a xlink:title=" ">
<polygon fill="none" stroke="#bfbfbf" points="942,-6 942,-25 1040,-25 1040,-6 942,-6"/>
<text text-anchor="middle" x="991" y="-13" font-family="FreeSans.ttf" font-size="10.00">yarp/sig/Vector.h</text>
</a>
</g>
</g>
<!-- Node2&#45;&gt;Node9 -->
<g id="edge8" class="edge">
<title>Node2&#45;&gt;Node9</title>
<path fill="none" stroke="midnightblue" d="M1038.98,-67.48C1030.41,-58.37 1016.64,-43.74 1006.04,-32.48"/>
<polygon fill="midnightblue" stroke="midnightblue" points="1008.41,-29.89 999.01,-25.01 1003.31,-34.69 1008.41,-29.89"/>
</g>
<!-- Node10 -->
<g id="node10" class="node">
<title>Node10</title>
<g id="a_node10"><a xlink:title=" ">
<polygon fill="none" stroke="#bfbfbf" points="1058.5,-6 1058.5,-25 1147.5,-25 1147.5,-6 1058.5,-6"/>
<text text-anchor="middle" x="1103" y="-13" font-family="FreeSans.ttf" font-size="10.00">yarp/os/Time.h</text>
</a>
</g>
</g>
<!-- Node2&#45;&gt;Node10 -->
<g id="edge9" class="edge">
<title>Node2&#45;&gt;Node10</title>
<path fill="none" stroke="midnightblue" d="M1055.02,-67.48C1063.59,-58.37 1077.36,-43.74 1087.96,-32.48"/>
<polygon fill="midnightblue" stroke="midnightblue" points="1090.69,-34.69 1094.99,-25.01 1085.59,-29.89 1090.69,-34.69"/>
</g>
<!-- Node11 -->
<g id="node11" class="node">
<title>Node11</title>
<g id="a_node11"><a xlink:title=" ">
<polygon fill="none" stroke="#bfbfbf" points="1166,-6 1166,-25 1262,-25 1262,-6 1166,-6"/>
<text text-anchor="middle" x="1214" y="-13" font-family="FreeSans.ttf" font-size="10.00">yarp/os/Stamp.h</text>
</a>
</g>
</g>
<!-- Node2&#45;&gt;Node11 -->
<g id="edge10" class="edge">
<title>Node2&#45;&gt;Node11</title>
<path fill="none" stroke="midnightblue" d="M1070.93,-67.48C1099.7,-57.22 1148.16,-39.96 1180.6,-28.4"/>
<polygon fill="midnightblue" stroke="midnightblue" points="1181.87,-31.66 1190.12,-25.01 1179.52,-25.07 1181.87,-31.66"/>
</g>
<!-- Node12 -->
<g id="node12" class="node">
<title>Node12</title>
<g id="a_node12"><a xlink:title=" ">
<polygon fill="none" stroke="#bfbfbf" points="1549,-6 1549,-25 1593,-25 1593,-6 1549,-6"/>
<text text-anchor="middle" x="1571" y="-13" font-family="FreeSans.ttf" font-size="10.00">string</text>
</a>
</g>
</g>
<!-- Node2&#45;&gt;Node12 -->
<g id="edge11" class="edge">
<title>Node2&#45;&gt;Node12</title>
<path fill="none" stroke="midnightblue" d="M1102.58,-73.35C1213.53,-67.65 1458.8,-52.97 1540,-31 1541.94,-30.48 1543.9,-29.84 1545.85,-29.13"/>
<polygon fill="midnightblue" stroke="midnightblue" points="1547.47,-32.24 1555.31,-25.12 1544.74,-25.8 1547.47,-32.24"/>
</g>
<!-- Node13 -->
<g id="node13" class="node">
<title>Node13</title>
<g id="a_node13"><a xlink:title=" ">
<polygon fill="none" stroke="#bfbfbf" points="1280.5,-6 1280.5,-25 1327.5,-25 1327.5,-6 1280.5,-6"/>
<text text-anchor="middle" x="1304" y="-13" font-family="FreeSans.ttf" font-size="10.00">vector</text>
</a>
</g>
</g>
<!-- Node2&#45;&gt;Node13 -->
<g id="edge12" class="edge">
<title>Node2&#45;&gt;Node13</title>
<path fill="none" stroke="midnightblue" d="M1102.61,-68.25C1148.46,-61.05 1214.83,-48.75 1271,-31 1272.92,-30.39 1274.89,-29.71 1276.85,-28.97"/>
<polygon fill="midnightblue" stroke="midnightblue" points="1278.53,-32.07 1286.46,-25.04 1275.88,-25.59 1278.53,-32.07"/>
</g>
<!-- Node14 -->
<g id="node14" class="node">
<title>Node14</title>
<g id="a_node14"><a xlink:title=" ">
<polygon fill="none" stroke="#bfbfbf" points="1345.5,-6 1345.5,-25 1464.5,-25 1464.5,-6 1345.5,-6"/>
<text text-anchor="middle" x="1405" y="-13" font-family="FreeSans.ttf" font-size="10.00">boost/shared_ptr.hpp</text>
</a>
</g>
</g>
<!-- Node2&#45;&gt;Node14 -->
<g id="edge13" class="edge">
<title>Node2&#45;&gt;Node14</title>
<path fill="none" stroke="midnightblue" d="M1102.55,-68.24C1160.84,-59.88 1255.08,-45.79 1336,-31 1342.55,-29.8 1349.44,-28.46 1356.22,-27.08"/>
<polygon fill="midnightblue" stroke="midnightblue" points="1356.94,-30.51 1366.03,-25.06 1355.52,-23.65 1356.94,-30.51"/>
</g>
<!-- Node15 -->
<g id="node15" class="node">
<title>Node15</title>
<g id="a_node15"><a xlink:title=" ">
<polygon fill="none" stroke="#bfbfbf" points="1483,-6 1483,-25 1531,-25 1531,-6 1483,-6"/>
<text text-anchor="middle" x="1507" y="-13" font-family="FreeSans.ttf" font-size="10.00">mutex</text>
</a>
</g>
</g>
<!-- Node2&#45;&gt;Node15 -->
<g id="edge14" class="edge">
<title>Node2&#45;&gt;Node15</title>
<path fill="none" stroke="midnightblue" d="M1102.74,-75.37C1185.02,-73.26 1343.26,-64.71 1473,-31 1475.36,-30.39 1477.76,-29.64 1480.15,-28.8"/>
<polygon fill="midnightblue" stroke="midnightblue" points="1481.68,-31.97 1489.7,-25.05 1479.12,-25.45 1481.68,-31.97"/>
</g>
<!-- Node16&#45;&gt;Node12 -->
<g id="edge16" class="edge">
<title>Node16&#45;&gt;Node12</title>
<path fill="none" stroke="midnightblue" d="M1571,-67.48C1571,-59.08 1571,-45.98 1571,-35.16"/>
<polygon fill="midnightblue" stroke="midnightblue" points="1574.5,-35.01 1571,-25.01 1567.5,-35.01 1574.5,-35.01"/>
</g>
<!-- Node17 -->
<g id="node17" class="node">
<title>Node17</title>
<g id="a_node17"><a xlink:title=" ">
<polygon fill="none" stroke="#bfbfbf" points="1611.5,-6 1611.5,-25 1658.5,-25 1658.5,-6 1611.5,-6"/>
<text text-anchor="middle" x="1635" y="-13" font-family="FreeSans.ttf" font-size="10.00">cmath</text>
</a>
</g>
</g>
<!-- Node16&#45;&gt;Node17 -->
<g id="edge17" class="edge">
<title>Node16&#45;&gt;Node17</title>
<path fill="none" stroke="midnightblue" d="M1580.17,-67.48C1590.15,-58.2 1606.31,-43.17 1618.51,-31.83"/>
<polygon fill="midnightblue" stroke="midnightblue" points="1620.91,-34.38 1625.85,-25.01 1616.14,-29.25 1620.91,-34.38"/>
</g>
</g>
</svg>
