<?xml version="1.0" encoding="UTF-8" standalone="no"?>
<!DOCTYPE svg PUBLIC "-//W3C//DTD SVG 1.1//EN"
 "http://www.w3.org/Graphics/SVG/1.1/DTD/svg11.dtd">
<!-- Generated by graphviz version 2.43.0 (0)
 -->
<!-- Title: MaisSensorDriver.h Pages: 1 -->
<svg width="1601pt" height="95pt"
 viewBox="0.00 0.00 1601.00 95.00" xmlns="http://www.w3.org/2000/svg" xmlns:xlink="http://www.w3.org/1999/xlink">
<g id="graph0" class="graph" transform="scale(1 1) rotate(0) translate(4 91)">
<title>MaisSensorDriver.h</title>
<!-- Node1 -->
<g id="node1" class="node">
<title>Node1</title>
<g id="a_node1"><a xlink:title=" ">
<polygon fill="#bfbfbf" stroke="black" points="935.5,-67.5 935.5,-86.5 1046.5,-86.5 1046.5,-67.5 935.5,-67.5"/>
<text text-anchor="middle" x="991" y="-74.5" font-family="FreeSans.ttf" font-size="10.00">MaisSensorDriver.h</text>
</a>
</g>
</g>
<!-- Node2 -->
<g id="node2" class="node">
<title>Node2</title>
<g id="a_node2"><a xlink:title=" ">
<polygon fill="none" stroke="#bfbfbf" points="0,-6 0,-25 104,-25 104,-6 0,-6"/>
<text text-anchor="middle" x="52" y="-13" font-family="FreeSans.ttf" font-size="10.00">yarp/os/Property.h</text>
</a>
</g>
</g>
<!-- Node1&#45;&gt;Node2 -->
<g id="edge1" class="edge">
<title>Node1&#45;&gt;Node2</title>
<path fill="none" stroke="midnightblue" d="M935.45,-76.65C796.21,-77.52 421.41,-75.18 113,-31 106.57,-30.08 99.81,-28.8 93.24,-27.38"/>
<polygon fill="midnightblue" stroke="midnightblue" points="93.67,-23.88 83.14,-25.06 92.1,-30.7 93.67,-23.88"/>
</g>
<!-- Node3 -->
<g id="node3" class="node">
<title>Node3</title>
<g id="a_node3"><a xlink:title=" ">
<polygon fill="none" stroke="#bfbfbf" points="122.5,-6 122.5,-25 229.5,-25 229.5,-6 122.5,-6"/>
<text text-anchor="middle" x="176" y="-13" font-family="FreeSans.ttf" font-size="10.00">yarp/dev/Drivers.h</text>
</a>
</g>
</g>
<!-- Node1&#45;&gt;Node3 -->
<g id="edge2" class="edge">
<title>Node1&#45;&gt;Node3</title>
<path fill="none" stroke="midnightblue" d="M935.49,-75.83C810.47,-74.76 497.58,-68.23 239,-31 232.28,-30.03 225.22,-28.71 218.36,-27.26"/>
<polygon fill="midnightblue" stroke="midnightblue" points="219.03,-23.83 208.5,-25.07 217.5,-30.66 219.03,-23.83"/>
</g>
<!-- Node4 -->
<g id="node4" class="node">
<title>Node4</title>
<g id="a_node4"><a xlink:title=" ">
<polygon fill="none" stroke="#bfbfbf" points="248,-6 248,-25 370,-25 370,-6 248,-6"/>
<text text-anchor="middle" x="309" y="-13" font-family="FreeSans.ttf" font-size="10.00">yarp/dev/PolyDriver.h</text>
</a>
</g>
</g>
<!-- Node1&#45;&gt;Node4 -->
<g id="edge3" class="edge">
<title>Node1&#45;&gt;Node4</title>
<path fill="none" stroke="midnightblue" d="M935.47,-74.35C827.71,-70.61 582.9,-59.49 379,-31 371.39,-29.94 363.37,-28.54 355.59,-27.03"/>
<polygon fill="midnightblue" stroke="midnightblue" points="356.03,-23.55 345.54,-25.01 354.65,-30.42 356.03,-23.55"/>
</g>
<!-- Node5 -->
<g id="node5" class="node">
<title>Node5</title>
<g id="a_node5"><a xlink:title=" ">
<polygon fill="none" stroke="#bfbfbf" points="388.5,-0.5 388.5,-30.5 563.5,-30.5 563.5,-0.5 388.5,-0.5"/>
<text text-anchor="start" x="396.5" y="-18.5" font-family="FreeSans.ttf" font-size="10.00">yarp/dev/ControlBoardInterfaces</text>
<text text-anchor="middle" x="476" y="-7.5" font-family="FreeSans.ttf" font-size="10.00">Impl.h</text>
</a>
</g>
</g>
<!-- Node1&#45;&gt;Node5 -->
<g id="edge4" class="edge">
<title>Node1&#45;&gt;Node5</title>
<path fill="none" stroke="midnightblue" d="M935.47,-70.76C857.27,-63.21 710,-48.4 573.94,-31.09"/>
<polygon fill="midnightblue" stroke="midnightblue" points="574.11,-27.58 563.75,-29.78 573.22,-34.52 574.11,-27.58"/>
</g>
<!-- Node6 -->
<g id="node6" class="node">
<title>Node6</title>
<g id="a_node6"><a xlink:title=" ">
<polygon fill="none" stroke="#bfbfbf" points="582,-6 582,-25 766,-25 766,-6 582,-6"/>
<text text-anchor="middle" x="674" y="-13" font-family="FreeSans.ttf" font-size="10.00">yarp/dev/ControlBoardInterfaces.h</text>
</a>
</g>
</g>
<!-- Node1&#45;&gt;Node6 -->
<g id="edge5" class="edge">
<title>Node1&#45;&gt;Node6</title>
<path fill="none" stroke="midnightblue" d="M945.58,-67.48C888.5,-56.76 790.58,-38.38 729.23,-26.87"/>
<polygon fill="midnightblue" stroke="midnightblue" points="729.81,-23.41 719.33,-25.01 728.52,-30.29 729.81,-23.41"/>
</g>
<!-- Node7 -->
<g id="node7" class="node">
<title>Node7</title>
<g id="a_node7"><a xlink:title=" ">
<polygon fill="none" stroke="#bfbfbf" points="784,-6 784,-25 924,-25 924,-6 784,-6"/>
<text text-anchor="middle" x="854" y="-13" font-family="FreeSans.ttf" font-size="10.00">yarp/dev/IAnalogSensor.h</text>
</a>
</g>
</g>
<!-- Node1&#45;&gt;Node7 -->
<g id="edge6" class="edge">
<title>Node1&#45;&gt;Node7</title>
<path fill="none" stroke="midnightblue" d="M971.37,-67.48C948.18,-57.4 909.38,-40.55 882.79,-29"/>
<polygon fill="midnightblue" stroke="midnightblue" points="884.16,-25.78 873.59,-25.01 881.37,-32.2 884.16,-25.78"/>
</g>
<!-- Node8 -->
<g id="node8" class="node">
<title>Node8</title>
<g id="a_node8"><a xlink:title=" ">
<polygon fill="none" stroke="#bfbfbf" points="942,-6 942,-25 1040,-25 1040,-6 942,-6"/>
<text text-anchor="middle" x="991" y="-13" font-family="FreeSans.ttf" font-size="10.00">yarp/sig/Vector.h</text>
</a>
</g>
</g>
<!-- Node1&#45;&gt;Node8 -->
<g id="edge7" class="edge">
<title>Node1&#45;&gt;Node8</title>
<path fill="none" stroke="midnightblue" d="M991,-67.48C991,-59.08 991,-45.98 991,-35.16"/>
<polygon fill="midnightblue" stroke="midnightblue" points="994.5,-35.01 991,-25.01 987.5,-35.01 994.5,-35.01"/>
</g>
<!-- Node9 -->
<g id="node9" class="node">
<title>Node9</title>
<g id="a_node9"><a xlink:title=" ">
<polygon fill="none" stroke="#bfbfbf" points="1058.5,-6 1058.5,-25 1147.5,-25 1147.5,-6 1058.5,-6"/>
<text text-anchor="middle" x="1103" y="-13" font-family="FreeSans.ttf" font-size="10.00">yarp/os/Time.h</text>
</a>
</g>
</g>
<!-- Node1&#45;&gt;Node9 -->
<g id="edge8" class="edge">
<title>Node1&#45;&gt;Node9</title>
<path fill="none" stroke="midnightblue" d="M1007.05,-67.48C1025.59,-57.62 1056.34,-41.29 1078.02,-29.77"/>
<polygon fill="midnightblue" stroke="midnightblue" points="1079.79,-32.79 1086.98,-25.01 1076.51,-26.61 1079.79,-32.79"/>
</g>
<!-- Node10 -->
<g id="node10" class="node">
<title>Node10</title>
<g id="a_node10"><a xlink:title=" ">
<polygon fill="none" stroke="#bfbfbf" points="1166,-6 1166,-25 1262,-25 1262,-6 1166,-6"/>
<text text-anchor="middle" x="1214" y="-13" font-family="FreeSans.ttf" font-size="10.00">yarp/os/Stamp.h</text>
</a>
</g>
</g>
<!-- Node1&#45;&gt;Node10 -->
<g id="edge9" class="edge">
<title>Node1&#45;&gt;Node10</title>
<path fill="none" stroke="midnightblue" d="M1022.95,-67.48C1062.2,-57 1128.88,-39.21 1172.17,-27.66"/>
<polygon fill="midnightblue" stroke="midnightblue" points="1173.35,-30.97 1182.11,-25.01 1171.54,-24.21 1173.35,-30.97"/>
</g>
<!-- Node11 -->
<g id="node11" class="node">
<title>Node11</title>
<g id="a_node11"><a xlink:title=" ">
<polygon fill="none" stroke="#bfbfbf" points="1280,-6 1280,-25 1324,-25 1324,-6 1280,-6"/>
<text text-anchor="middle" x="1302" y="-13" font-family="FreeSans.ttf" font-size="10.00">string</text>
</a>
</g>
</g>
<!-- Node1&#45;&gt;Node11 -->
<g id="edge10" class="edge">
<title>Node1&#45;&gt;Node11</title>
<path fill="none" stroke="midnightblue" d="M1046.76,-71.64C1104.02,-66.1 1195.24,-54.31 1271,-31 1272.87,-30.42 1274.78,-29.75 1276.68,-29.03"/>
<polygon fill="midnightblue" stroke="midnightblue" points="1278.12,-32.22 1285.93,-25.05 1275.36,-25.78 1278.12,-32.22"/>
</g>
<!-- Node12 -->
<g id="node12" class="node">
<title>Node12</title>
<g id="a_node12"><a xlink:title=" ">
<polygon fill="none" stroke="#bfbfbf" points="1342.5,-6 1342.5,-25 1389.5,-25 1389.5,-6 1342.5,-6"/>
<text text-anchor="middle" x="1366" y="-13" font-family="FreeSans.ttf" font-size="10.00">vector</text>
</a>
</g>
</g>
<!-- Node1&#45;&gt;Node12 -->
<g id="edge11" class="edge">
<title>Node1&#45;&gt;Node12</title>
<path fill="none" stroke="midnightblue" d="M1046.75,-73.51C1115.26,-69.34 1234.51,-58.51 1333,-31 1335.15,-30.4 1337.35,-29.68 1339.54,-28.89"/>
<polygon fill="midnightblue" stroke="midnightblue" points="1340.91,-32.11 1348.87,-25.12 1338.29,-25.62 1340.91,-32.11"/>
</g>
<!-- Node13 -->
<g id="node13" class="node">
<title>Node13</title>
<g id="a_node13"><a xlink:title=" ">
<polygon fill="none" stroke="#bfbfbf" points="1407.5,-6 1407.5,-25 1526.5,-25 1526.5,-6 1407.5,-6"/>
<text text-anchor="middle" x="1467" y="-13" font-family="FreeSans.ttf" font-size="10.00">boost/shared_ptr.hpp</text>
</a>
</g>
</g>
<!-- Node1&#45;&gt;Node13 -->
<g id="edge12" class="edge">
<title>Node1&#45;&gt;Node13</title>
<path fill="none" stroke="midnightblue" d="M1046.67,-71.64C1125.44,-65.07 1273.77,-51.21 1399,-31 1405.89,-29.89 1413.13,-28.54 1420.21,-27.12"/>
<polygon fill="midnightblue" stroke="midnightblue" points="1421.34,-30.46 1430.42,-25 1419.92,-23.61 1421.34,-30.46"/>
</g>
<!-- Node14 -->
<g id="node14" class="node">
<title>Node14</title>
<g id="a_node14"><a xlink:title=" ">
<polygon fill="none" stroke="#bfbfbf" points="1545,-6 1545,-25 1593,-25 1593,-6 1545,-6"/>
<text text-anchor="middle" x="1569" y="-13" font-family="FreeSans.ttf" font-size="10.00">mutex</text>
</a>
</g>
</g>
<!-- Node1&#45;&gt;Node14 -->
<g id="edge13" class="edge">
<title>Node1&#45;&gt;Node14</title>
<path fill="none" stroke="midnightblue" d="M1046.86,-73.73C1166.6,-68.49 1444.54,-54.18 1536,-31 1538.3,-30.42 1540.65,-29.69 1542.97,-28.87"/>
<polygon fill="midnightblue" stroke="midnightblue" points="1544.28,-32.11 1552.25,-25.14 1541.67,-25.62 1544.28,-32.11"/>
</g>
</g>
</svg>
