<?xml version="1.0" encoding="UTF-8" standalone="no"?>
<!DOCTYPE svg PUBLIC "-//W3C//DTD SVG 1.1//EN"
 "http://www.w3.org/Graphics/SVG/1.1/DTD/svg11.dtd">
<!-- Generated by graphviz version 2.43.0 (0)
 -->
<!-- Title: MaisSensor.cc Pages: 1 -->
<svg width="2807pt" height="151pt"
 viewBox="0.00 0.00 2807.00 151.00" xmlns="http://www.w3.org/2000/svg" xmlns:xlink="http://www.w3.org/1999/xlink">
<g id="graph0" class="graph" transform="scale(1 1) rotate(0) translate(4 147)">
<title>MaisSensor.cc</title>
<!-- Node1 -->
<g id="node1" class="node">
<title>Node1</title>
<g id="a_node1"><a xlink:title=" ">
<polygon fill="#bfbfbf" stroke="black" points="2061.5,-123.5 2061.5,-142.5 2147.5,-142.5 2147.5,-123.5 2061.5,-123.5"/>
<text text-anchor="middle" x="2104.5" y="-130.5" font-family="FreeSans.ttf" font-size="10.00">MaisSensor.cc</text>
</a>
</g>
</g>
<!-- Node2 -->
<g id="node2" class="node">
<title>Node2</title>
<g id="a_node2"><a xlink:href="MaisSensor_8hh.html" target="_top" xlink:title=" ">
<polygon fill="none" stroke="black" points="670,-67.5 670,-86.5 757,-86.5 757,-67.5 670,-67.5"/>
<text text-anchor="middle" x="713.5" y="-74.5" font-family="FreeSans.ttf" font-size="10.00">MaisSensor.hh</text>
</a>
</g>
</g>
<!-- Node1&#45;&gt;Node2 -->
<g id="edge1" class="edge">
<title>Node1&#45;&gt;Node2</title>
<path fill="none" stroke="midnightblue" d="M2061.34,-130.32C1857.65,-122.42 992.89,-88.85 767.43,-80.09"/>
<polygon fill="midnightblue" stroke="midnightblue" points="767.31,-76.59 757.18,-79.7 767.04,-83.58 767.31,-76.59"/>
</g>
<!-- Node6 -->
<g id="node6" class="node">
<title>Node6</title>
<g id="a_node6"><a xlink:href="MaisSensorDriver_8h.html" target="_top" xlink:title=" ">
<polygon fill="none" stroke="black" points="1265,-67.5 1265,-86.5 1376,-86.5 1376,-67.5 1265,-67.5"/>
<text text-anchor="middle" x="1320.5" y="-74.5" font-family="FreeSans.ttf" font-size="10.00">MaisSensorDriver.h</text>
</a>
</g>
</g>
<!-- Node1&#45;&gt;Node6 -->
<g id="edge5" class="edge">
<title>Node1&#45;&gt;Node6</title>
<path fill="none" stroke="midnightblue" d="M2061.23,-129.02C1931.08,-120.06 1542.58,-93.3 1386.49,-82.55"/>
<polygon fill="midnightblue" stroke="midnightblue" points="1386.33,-79.03 1376.11,-81.83 1385.85,-86.01 1386.33,-79.03"/>
</g>
<!-- Node19 -->
<g id="node19" class="node">
<title>Node19</title>
<g id="a_node19"><a xlink:href="common_8h.html" target="_top" xlink:title=" ">
<polygon fill="none" stroke="black" points="169.5,-67.5 169.5,-86.5 333.5,-86.5 333.5,-67.5 169.5,-67.5"/>
<text text-anchor="middle" x="251.5" y="-74.5" font-family="FreeSans.ttf" font-size="10.00">GazeboYarpPlugins/common.h</text>
</a>
</g>
</g>
<!-- Node1&#45;&gt;Node19 -->
<g id="edge19" class="edge">
<title>Node1&#45;&gt;Node19</title>
<path fill="none" stroke="midnightblue" d="M2061.42,-130.74C1824.51,-123.84 678.69,-90.45 343.68,-80.69"/>
<polygon fill="midnightblue" stroke="midnightblue" points="343.63,-77.18 333.53,-80.39 343.42,-84.18 343.63,-77.18"/>
</g>
<!-- Node21 -->
<g id="node21" class="node">
<title>Node21</title>
<g id="a_node21"><a xlink:href="Handler_8hh.html" target="_top" xlink:title=" ">
<polygon fill="none" stroke="black" points="1737.5,-67.5 1737.5,-86.5 1901.5,-86.5 1901.5,-67.5 1737.5,-67.5"/>
<text text-anchor="middle" x="1819.5" y="-74.5" font-family="FreeSans.ttf" font-size="10.00">GazeboYarpPlugins/Handler.hh</text>
</a>
</g>
</g>
<!-- Node1&#45;&gt;Node21 -->
<g id="edge22" class="edge">
<title>Node1&#45;&gt;Node21</title>
<path fill="none" stroke="midnightblue" d="M2061.21,-123.8C2011.23,-114.33 1928.9,-98.73 1874.44,-88.41"/>
<polygon fill="midnightblue" stroke="midnightblue" points="1875.08,-84.97 1864.61,-86.55 1873.78,-91.85 1875.08,-84.97"/>
</g>
<!-- Node24 -->
<g id="node24" class="node">
<title>Node24</title>
<g id="a_node24"><a xlink:href="ConfHelpers_8hh.html" target="_top" xlink:title=" ">
<polygon fill="none" stroke="black" points="1920,-67.5 1920,-86.5 2107,-86.5 2107,-67.5 1920,-67.5"/>
<text text-anchor="middle" x="2013.5" y="-74.5" font-family="FreeSans.ttf" font-size="10.00">GazeboYarpPlugins/ConfHelpers.hh</text>
</a>
</g>
</g>
<!-- Node1&#45;&gt;Node24 -->
<g id="edge29" class="edge">
<title>Node1&#45;&gt;Node24</title>
<path fill="none" stroke="midnightblue" d="M2089.88,-123.32C2075.55,-114.82 2053.49,-101.73 2036.75,-91.8"/>
<polygon fill="midnightblue" stroke="midnightblue" points="2038.47,-88.75 2028.08,-86.65 2034.9,-94.77 2038.47,-88.75"/>
</g>
<!-- Node27 -->
<g id="node27" class="node">
<title>Node27</title>
<g id="a_node27"><a xlink:title=" ">
<polygon fill="none" stroke="#bfbfbf" points="2125.5,-67.5 2125.5,-86.5 2265.5,-86.5 2265.5,-67.5 2125.5,-67.5"/>
<text text-anchor="middle" x="2195.5" y="-74.5" font-family="FreeSans.ttf" font-size="10.00">gazebo/physics/Model.hh</text>
</a>
</g>
</g>
<!-- Node1&#45;&gt;Node27 -->
<g id="edge34" class="edge">
<title>Node1&#45;&gt;Node27</title>
<path fill="none" stroke="midnightblue" d="M2119.12,-123.32C2133.45,-114.82 2155.51,-101.73 2172.25,-91.8"/>
<polygon fill="midnightblue" stroke="midnightblue" points="2174.1,-94.77 2180.92,-86.65 2170.53,-88.75 2174.1,-94.77"/>
</g>
<!-- Node28 -->
<g id="node28" class="node">
<title>Node28</title>
<g id="a_node28"><a xlink:title=" ">
<polygon fill="none" stroke="#bfbfbf" points="2284,-67.5 2284,-86.5 2439,-86.5 2439,-67.5 2284,-67.5"/>
<text text-anchor="middle" x="2361.5" y="-74.5" font-family="FreeSans.ttf" font-size="10.00">yarp/dev/IMultipleWrapper.h</text>
</a>
</g>
</g>
<!-- Node1&#45;&gt;Node28 -->
<g id="edge35" class="edge">
<title>Node1&#45;&gt;Node28</title>
<path fill="none" stroke="midnightblue" d="M2145.22,-123.44C2190.15,-114 2262.5,-98.8 2311,-88.61"/>
<polygon fill="midnightblue" stroke="midnightblue" points="2311.9,-92 2320.97,-86.52 2310.46,-85.15 2311.9,-92"/>
</g>
<!-- Node29 -->
<g id="node29" class="node">
<title>Node29</title>
<g id="a_node29"><a xlink:title=" ">
<polygon fill="none" stroke="#bfbfbf" points="2457.5,-67.5 2457.5,-86.5 2563.5,-86.5 2563.5,-67.5 2457.5,-67.5"/>
<text text-anchor="middle" x="2510.5" y="-74.5" font-family="FreeSans.ttf" font-size="10.00">yarp/os/Network.h</text>
</a>
</g>
</g>
<!-- Node1&#45;&gt;Node29 -->
<g id="edge36" class="edge">
<title>Node1&#45;&gt;Node29</title>
<path fill="none" stroke="midnightblue" d="M2147.7,-126.55C2211.06,-118.51 2333.19,-102.84 2447.44,-87.13"/>
<polygon fill="midnightblue" stroke="midnightblue" points="2447.98,-90.59 2457.41,-85.76 2447.02,-83.66 2447.98,-90.59"/>
</g>
<!-- Node30 -->
<g id="node30" class="node">
<title>Node30</title>
<g id="a_node30"><a xlink:title=" ">
<polygon fill="none" stroke="#bfbfbf" points="2581.5,-67.5 2581.5,-86.5 2663.5,-86.5 2663.5,-67.5 2581.5,-67.5"/>
<text text-anchor="middle" x="2622.5" y="-74.5" font-family="FreeSans.ttf" font-size="10.00">yarp/os/Log.h</text>
</a>
</g>
</g>
<!-- Node1&#45;&gt;Node30 -->
<g id="edge37" class="edge">
<title>Node1&#45;&gt;Node30</title>
<path fill="none" stroke="midnightblue" d="M2147.55,-129.05C2228.48,-123.25 2409.04,-109.08 2571.18,-87.08"/>
<polygon fill="midnightblue" stroke="midnightblue" points="2571.91,-90.51 2581.34,-85.69 2570.96,-83.58 2571.91,-90.51"/>
</g>
<!-- Node31 -->
<g id="node31" class="node">
<title>Node31</title>
<g id="a_node31"><a xlink:title=" ">
<polygon fill="none" stroke="#bfbfbf" points="2682,-67.5 2682,-86.5 2799,-86.5 2799,-67.5 2682,-67.5"/>
<text text-anchor="middle" x="2740.5" y="-74.5" font-family="FreeSans.ttf" font-size="10.00">yarp/os/LogStream.h</text>
</a>
</g>
</g>
<!-- Node1&#45;&gt;Node31 -->
<g id="edge38" class="edge">
<title>Node1&#45;&gt;Node31</title>
<path fill="none" stroke="midnightblue" d="M2147.68,-129.36C2241.12,-123.47 2469.24,-108.19 2671.69,-87.03"/>
<polygon fill="midnightblue" stroke="midnightblue" points="2672.34,-90.48 2681.92,-85.95 2671.61,-83.52 2672.34,-90.48"/>
</g>
<!-- Node3 -->
<g id="node3" class="node">
<title>Node3</title>
<g id="a_node3"><a xlink:title=" ">
<polygon fill="none" stroke="#bfbfbf" points="65.5,-6 65.5,-25 211.5,-25 211.5,-6 65.5,-6"/>
<text text-anchor="middle" x="138.5" y="-13" font-family="FreeSans.ttf" font-size="10.00">gazebo/common/Plugin.hh</text>
</a>
</g>
</g>
<!-- Node2&#45;&gt;Node3 -->
<g id="edge2" class="edge">
<title>Node2&#45;&gt;Node3</title>
<path fill="none" stroke="midnightblue" d="M669.84,-73.25C583.67,-67.55 385.76,-53.11 220.5,-31 211.45,-29.79 201.87,-28.29 192.58,-26.73"/>
<polygon fill="midnightblue" stroke="midnightblue" points="193.1,-23.26 182.65,-25.01 191.91,-30.16 193.1,-23.26"/>
</g>
<!-- Node4 -->
<g id="node4" class="node">
<title>Node4</title>
<g id="a_node4"><a xlink:title=" ">
<polygon fill="none" stroke="#bfbfbf" points="229.5,-6 229.5,-25 273.5,-25 273.5,-6 229.5,-6"/>
<text text-anchor="middle" x="251.5" y="-13" font-family="FreeSans.ttf" font-size="10.00">string</text>
</a>
</g>
</g>
<!-- Node2&#45;&gt;Node4 -->
<g id="edge3" class="edge">
<title>Node2&#45;&gt;Node4</title>
<path fill="none" stroke="midnightblue" d="M669.79,-76.19C590.93,-75.5 420.23,-69.23 282.5,-31 280.57,-30.46 278.61,-29.82 276.66,-29.1"/>
<polygon fill="midnightblue" stroke="midnightblue" points="277.77,-25.77 267.2,-25.08 275.03,-32.21 277.77,-25.77"/>
</g>
<!-- Node5 -->
<g id="node5" class="node">
<title>Node5</title>
<g id="a_node5"><a xlink:title=" ">
<polygon fill="none" stroke="#bfbfbf" points="961.5,-6 961.5,-25 1101.5,-25 1101.5,-6 961.5,-6"/>
<text text-anchor="middle" x="1031.5" y="-13" font-family="FreeSans.ttf" font-size="10.00">yarp/dev/PolyDriverList.h</text>
</a>
</g>
</g>
<!-- Node2&#45;&gt;Node5 -->
<g id="edge4" class="edge">
<title>Node2&#45;&gt;Node5</title>
<path fill="none" stroke="midnightblue" d="M757.05,-67.85C813.93,-57.21 913.58,-38.56 975.87,-26.91"/>
<polygon fill="midnightblue" stroke="midnightblue" points="976.72,-30.31 985.91,-25.03 975.43,-23.43 976.72,-30.31"/>
</g>
<!-- Node6&#45;&gt;Node4 -->
<g id="edge15" class="edge">
<title>Node6&#45;&gt;Node4</title>
<path fill="none" stroke="midnightblue" d="M1264.99,-74.87C1063.56,-70.58 377.98,-54.41 282.5,-31 280.51,-30.51 278.49,-29.89 276.49,-29.18"/>
<polygon fill="midnightblue" stroke="midnightblue" points="277.41,-25.77 266.83,-25.13 274.69,-32.23 277.41,-25.77"/>
</g>
<!-- Node7 -->
<g id="node7" class="node">
<title>Node7</title>
<g id="a_node7"><a xlink:title=" ">
<polygon fill="none" stroke="#bfbfbf" points="1407.5,-6 1407.5,-25 1511.5,-25 1511.5,-6 1407.5,-6"/>
<text text-anchor="middle" x="1459.5" y="-13" font-family="FreeSans.ttf" font-size="10.00">yarp/os/Property.h</text>
</a>
</g>
</g>
<!-- Node6&#45;&gt;Node7 -->
<g id="edge6" class="edge">
<title>Node6&#45;&gt;Node7</title>
<path fill="none" stroke="midnightblue" d="M1340.42,-67.48C1363.95,-57.4 1403.31,-40.55 1430.29,-29"/>
<polygon fill="midnightblue" stroke="midnightblue" points="1431.81,-32.16 1439.62,-25.01 1429.05,-25.73 1431.81,-32.16"/>
</g>
<!-- Node8 -->
<g id="node8" class="node">
<title>Node8</title>
<g id="a_node8"><a xlink:title=" ">
<polygon fill="none" stroke="#bfbfbf" points="1530,-6 1530,-25 1637,-25 1637,-6 1530,-6"/>
<text text-anchor="middle" x="1583.5" y="-13" font-family="FreeSans.ttf" font-size="10.00">yarp/dev/Drivers.h</text>
</a>
</g>
</g>
<!-- Node6&#45;&gt;Node8 -->
<g id="edge7" class="edge">
<title>Node6&#45;&gt;Node8</title>
<path fill="none" stroke="midnightblue" d="M1358.85,-67.43C1399.12,-58.42 1464.28,-43.79 1520.5,-31 1525.77,-29.8 1531.28,-28.54 1536.76,-27.28"/>
<polygon fill="midnightblue" stroke="midnightblue" points="1537.57,-30.69 1546.53,-25.04 1536,-23.87 1537.57,-30.69"/>
</g>
<!-- Node9 -->
<g id="node9" class="node">
<title>Node9</title>
<g id="a_node9"><a xlink:title=" ">
<polygon fill="none" stroke="#bfbfbf" points="1655.5,-6 1655.5,-25 1777.5,-25 1777.5,-6 1655.5,-6"/>
<text text-anchor="middle" x="1716.5" y="-13" font-family="FreeSans.ttf" font-size="10.00">yarp/dev/PolyDriver.h</text>
</a>
</g>
</g>
<!-- Node6&#45;&gt;Node9 -->
<g id="edge8" class="edge">
<title>Node6&#45;&gt;Node9</title>
<path fill="none" stroke="midnightblue" d="M1376.05,-69.48C1441.07,-61.59 1551.91,-47.31 1646.5,-31 1653.32,-29.82 1660.49,-28.47 1667.54,-27.08"/>
<polygon fill="midnightblue" stroke="midnightblue" points="1668.6,-30.43 1677.71,-25.02 1667.22,-23.57 1668.6,-30.43"/>
</g>
<!-- Node10 -->
<g id="node10" class="node">
<title>Node10</title>
<g id="a_node10"><a xlink:title=" ">
<polygon fill="none" stroke="#bfbfbf" points="292,-0.5 292,-30.5 467,-30.5 467,-0.5 292,-0.5"/>
<text text-anchor="start" x="300" y="-18.5" font-family="FreeSans.ttf" font-size="10.00">yarp/dev/ControlBoardInterfaces</text>
<text text-anchor="middle" x="379.5" y="-7.5" font-family="FreeSans.ttf" font-size="10.00">Impl.h</text>
</a>
</g>
</g>
<!-- Node6&#45;&gt;Node10 -->
<g id="edge9" class="edge">
<title>Node6&#45;&gt;Node10</title>
<path fill="none" stroke="midnightblue" d="M1264.81,-74.86C1131,-71.73 780.66,-61.2 477.53,-31.03"/>
<polygon fill="midnightblue" stroke="midnightblue" points="477.52,-27.51 467.22,-30 476.82,-34.48 477.52,-27.51"/>
</g>
<!-- Node11 -->
<g id="node11" class="node">
<title>Node11</title>
<g id="a_node11"><a xlink:title=" ">
<polygon fill="none" stroke="#bfbfbf" points="485.5,-6 485.5,-25 669.5,-25 669.5,-6 485.5,-6"/>
<text text-anchor="middle" x="577.5" y="-13" font-family="FreeSans.ttf" font-size="10.00">yarp/dev/ControlBoardInterfaces.h</text>
</a>
</g>
</g>
<!-- Node6&#45;&gt;Node11 -->
<g id="edge10" class="edge">
<title>Node6&#45;&gt;Node11</title>
<path fill="none" stroke="midnightblue" d="M1264.99,-73.47C1153.58,-68.09 894.87,-54.08 678.5,-31 666.6,-29.73 653.94,-28.12 641.76,-26.44"/>
<polygon fill="midnightblue" stroke="midnightblue" points="642.05,-22.95 631.66,-25.01 641.07,-29.88 642.05,-22.95"/>
</g>
<!-- Node12 -->
<g id="node12" class="node">
<title>Node12</title>
<g id="a_node12"><a xlink:title=" ">
<polygon fill="none" stroke="#bfbfbf" points="687.5,-6 687.5,-25 827.5,-25 827.5,-6 687.5,-6"/>
<text text-anchor="middle" x="757.5" y="-13" font-family="FreeSans.ttf" font-size="10.00">yarp/dev/IAnalogSensor.h</text>
</a>
</g>
</g>
<!-- Node6&#45;&gt;Node12 -->
<g id="edge11" class="edge">
<title>Node6&#45;&gt;Node12</title>
<path fill="none" stroke="midnightblue" d="M1264.79,-72.44C1174.55,-66.3 990.95,-52.31 836.5,-31 827.87,-29.81 818.74,-28.34 809.88,-26.79"/>
<polygon fill="midnightblue" stroke="midnightblue" points="810.49,-23.34 800.03,-25.02 809.25,-30.23 810.49,-23.34"/>
</g>
<!-- Node13 -->
<g id="node13" class="node">
<title>Node13</title>
<g id="a_node13"><a xlink:title=" ">
<polygon fill="none" stroke="#bfbfbf" points="845.5,-6 845.5,-25 943.5,-25 943.5,-6 845.5,-6"/>
<text text-anchor="middle" x="894.5" y="-13" font-family="FreeSans.ttf" font-size="10.00">yarp/sig/Vector.h</text>
</a>
</g>
</g>
<!-- Node6&#45;&gt;Node13 -->
<g id="edge12" class="edge">
<title>Node6&#45;&gt;Node13</title>
<path fill="none" stroke="midnightblue" d="M1265,-71.36C1192.68,-64.83 1062.46,-51.39 952.5,-31 947.01,-29.98 941.28,-28.75 935.63,-27.45"/>
<polygon fill="midnightblue" stroke="midnightblue" points="936.19,-23.98 925.65,-25.04 934.55,-30.79 936.19,-23.98"/>
</g>
<!-- Node14 -->
<g id="node14" class="node">
<title>Node14</title>
<g id="a_node14"><a xlink:title=" ">
<polygon fill="none" stroke="#bfbfbf" points="1120,-6 1120,-25 1209,-25 1209,-6 1120,-6"/>
<text text-anchor="middle" x="1164.5" y="-13" font-family="FreeSans.ttf" font-size="10.00">yarp/os/Time.h</text>
</a>
</g>
</g>
<!-- Node6&#45;&gt;Node14 -->
<g id="edge13" class="edge">
<title>Node6&#45;&gt;Node14</title>
<path fill="none" stroke="midnightblue" d="M1298.15,-67.48C1271.51,-57.31 1226.79,-40.26 1196.49,-28.7"/>
<polygon fill="midnightblue" stroke="midnightblue" points="1197.4,-25.3 1186.81,-25.01 1194.91,-31.84 1197.4,-25.3"/>
</g>
<!-- Node15 -->
<g id="node15" class="node">
<title>Node15</title>
<g id="a_node15"><a xlink:title=" ">
<polygon fill="none" stroke="#bfbfbf" points="1227.5,-6 1227.5,-25 1323.5,-25 1323.5,-6 1227.5,-6"/>
<text text-anchor="middle" x="1275.5" y="-13" font-family="FreeSans.ttf" font-size="10.00">yarp/os/Stamp.h</text>
</a>
</g>
</g>
<!-- Node6&#45;&gt;Node15 -->
<g id="edge14" class="edge">
<title>Node6&#45;&gt;Node15</title>
<path fill="none" stroke="midnightblue" d="M1314.05,-67.48C1307.3,-58.55 1296.53,-44.31 1288.09,-33.14"/>
<polygon fill="midnightblue" stroke="midnightblue" points="1290.76,-30.87 1281.94,-25.01 1285.18,-35.1 1290.76,-30.87"/>
</g>
<!-- Node16 -->
<g id="node16" class="node">
<title>Node16</title>
<g id="a_node16"><a xlink:title=" ">
<polygon fill="none" stroke="#bfbfbf" points="1342,-6 1342,-25 1389,-25 1389,-6 1342,-6"/>
<text text-anchor="middle" x="1365.5" y="-13" font-family="FreeSans.ttf" font-size="10.00">vector</text>
</a>
</g>
</g>
<!-- Node6&#45;&gt;Node16 -->
<g id="edge16" class="edge">
<title>Node6&#45;&gt;Node16</title>
<path fill="none" stroke="midnightblue" d="M1326.95,-67.48C1333.7,-58.55 1344.47,-44.31 1352.91,-33.14"/>
<polygon fill="midnightblue" stroke="midnightblue" points="1355.82,-35.1 1359.06,-25.01 1350.24,-30.87 1355.82,-35.1"/>
</g>
<!-- Node17 -->
<g id="node17" class="node">
<title>Node17</title>
<g id="a_node17"><a xlink:title=" ">
<polygon fill="none" stroke="#bfbfbf" points="1862,-6 1862,-25 1981,-25 1981,-6 1862,-6"/>
<text text-anchor="middle" x="1921.5" y="-13" font-family="FreeSans.ttf" font-size="10.00">boost/shared_ptr.hpp</text>
</a>
</g>
</g>
<!-- Node6&#45;&gt;Node17 -->
<g id="edge17" class="edge">
<title>Node6&#45;&gt;Node17</title>
<path fill="none" stroke="midnightblue" d="M1376.29,-73.54C1473.45,-68.75 1679.86,-56.34 1852.5,-31 1859.91,-29.91 1867.72,-28.52 1875.32,-27.02"/>
<polygon fill="midnightblue" stroke="midnightblue" points="1876.03,-30.45 1885.12,-25.02 1874.63,-23.59 1876.03,-30.45"/>
</g>
<!-- Node18 -->
<g id="node18" class="node">
<title>Node18</title>
<g id="a_node18"><a xlink:title=" ">
<polygon fill="none" stroke="#bfbfbf" points="1795.5,-6 1795.5,-25 1843.5,-25 1843.5,-6 1795.5,-6"/>
<text text-anchor="middle" x="1819.5" y="-13" font-family="FreeSans.ttf" font-size="10.00">mutex</text>
</a>
</g>
</g>
<!-- Node6&#45;&gt;Node18 -->
<g id="edge18" class="edge">
<title>Node6&#45;&gt;Node18</title>
<path fill="none" stroke="midnightblue" d="M1376.01,-76.28C1464.36,-75.48 1641.79,-68.74 1786.5,-31 1788.8,-30.4 1791.14,-29.66 1793.47,-28.83"/>
<polygon fill="midnightblue" stroke="midnightblue" points="1794.78,-32.08 1802.74,-25.09 1792.16,-25.59 1794.78,-32.08"/>
</g>
<!-- Node19&#45;&gt;Node4 -->
<g id="edge20" class="edge">
<title>Node19&#45;&gt;Node4</title>
<path fill="none" stroke="midnightblue" d="M251.5,-67.48C251.5,-59.08 251.5,-45.98 251.5,-35.16"/>
<polygon fill="midnightblue" stroke="midnightblue" points="255,-35.01 251.5,-25.01 248,-35.01 255,-35.01"/>
</g>
<!-- Node20 -->
<g id="node20" class="node">
<title>Node20</title>
<g id="a_node20"><a xlink:title=" ">
<polygon fill="none" stroke="#bfbfbf" points="0,-6 0,-25 47,-25 47,-6 0,-6"/>
<text text-anchor="middle" x="23.5" y="-13" font-family="FreeSans.ttf" font-size="10.00">cmath</text>
</a>
</g>
</g>
<!-- Node19&#45;&gt;Node20 -->
<g id="edge21" class="edge">
<title>Node19&#45;&gt;Node20</title>
<path fill="none" stroke="midnightblue" d="M203.13,-67.46C163.24,-59.79 105.47,-47.25 56.5,-31 54.63,-30.38 52.72,-29.69 50.81,-28.96"/>
<polygon fill="midnightblue" stroke="midnightblue" points="52,-25.67 41.42,-25.1 49.33,-32.14 52,-25.67"/>
</g>
<!-- Node21&#45;&gt;Node5 -->
<g id="edge28" class="edge">
<title>Node21&#45;&gt;Node5</title>
<path fill="none" stroke="midnightblue" d="M1737.45,-73.87C1605.24,-69.74 1337.07,-58.52 1111.5,-31 1102.34,-29.88 1092.65,-28.39 1083.28,-26.79"/>
<polygon fill="midnightblue" stroke="midnightblue" points="1083.75,-23.32 1073.3,-25.02 1082.53,-30.21 1083.75,-23.32"/>
</g>
<!-- Node21&#45;&gt;Node9 -->
<g id="edge27" class="edge">
<title>Node21&#45;&gt;Node9</title>
<path fill="none" stroke="midnightblue" d="M1804.74,-67.48C1787.84,-57.71 1759.92,-41.58 1740.01,-30.08"/>
<polygon fill="midnightblue" stroke="midnightblue" points="1741.64,-26.98 1731.23,-25.01 1738.14,-33.04 1741.64,-26.98"/>
</g>
<!-- Node21&#45;&gt;Node17 -->
<g id="edge25" class="edge">
<title>Node21&#45;&gt;Node17</title>
<path fill="none" stroke="midnightblue" d="M1834.11,-67.48C1850.85,-57.71 1878.5,-41.58 1898.22,-30.08"/>
<polygon fill="midnightblue" stroke="midnightblue" points="1900.04,-33.07 1906.91,-25.01 1896.51,-27.02 1900.04,-33.07"/>
</g>
<!-- Node21&#45;&gt;Node18 -->
<g id="edge26" class="edge">
<title>Node21&#45;&gt;Node18</title>
<path fill="none" stroke="midnightblue" d="M1819.5,-67.48C1819.5,-59.08 1819.5,-45.98 1819.5,-35.16"/>
<polygon fill="midnightblue" stroke="midnightblue" points="1823,-35.01 1819.5,-25.01 1816,-35.01 1823,-35.01"/>
</g>
<!-- Node22 -->
<g id="node22" class="node">
<title>Node22</title>
<g id="a_node22"><a xlink:title=" ">
<polygon fill="none" stroke="#bfbfbf" points="1999.5,-6 1999.5,-25 2037.5,-25 2037.5,-6 1999.5,-6"/>
<text text-anchor="middle" x="2018.5" y="-13" font-family="FreeSans.ttf" font-size="10.00">map</text>
</a>
</g>
</g>
<!-- Node21&#45;&gt;Node22 -->
<g id="edge23" class="edge">
<title>Node21&#45;&gt;Node22</title>
<path fill="none" stroke="midnightblue" d="M1862.49,-67.45C1897.57,-59.82 1948.1,-47.33 1990.5,-31 1991.71,-30.54 1992.93,-30.03 1994.15,-29.5"/>
<polygon fill="midnightblue" stroke="midnightblue" points="1995.86,-32.57 2003.38,-25.1 1992.84,-26.25 1995.86,-32.57"/>
</g>
<!-- Node23 -->
<g id="node23" class="node">
<title>Node23</title>
<g id="a_node23"><a xlink:title=" ">
<polygon fill="none" stroke="#bfbfbf" points="2056,-6 2056,-25 2149,-25 2149,-6 2056,-6"/>
<text text-anchor="middle" x="2102.5" y="-13" font-family="FreeSans.ttf" font-size="10.00">sdf/sdf_config.h</text>
</a>
</g>
</g>
<!-- Node21&#45;&gt;Node23 -->
<g id="edge24" class="edge">
<title>Node21&#45;&gt;Node23</title>
<path fill="none" stroke="midnightblue" d="M1866.62,-67.48C1912.65,-58.96 1984.61,-45.13 2046.5,-31 2051.21,-29.92 2056.12,-28.74 2061,-27.53"/>
<polygon fill="midnightblue" stroke="midnightblue" points="2062.05,-30.87 2070.89,-25.02 2060.34,-24.09 2062.05,-30.87"/>
</g>
<!-- Node24&#45;&gt;Node17 -->
<g id="edge31" class="edge">
<title>Node24&#45;&gt;Node17</title>
<path fill="none" stroke="midnightblue" d="M2000.32,-67.48C1985.43,-57.84 1960.96,-42.02 1943.23,-30.55"/>
<polygon fill="midnightblue" stroke="midnightblue" points="1944.95,-27.5 1934.66,-25.01 1941.15,-33.38 1944.95,-27.5"/>
</g>
<!-- Node24&#45;&gt;Node23 -->
<g id="edge30" class="edge">
<title>Node24&#45;&gt;Node23</title>
<path fill="none" stroke="midnightblue" d="M2026.25,-67.48C2040.53,-57.93 2063.9,-42.31 2081.01,-30.87"/>
<polygon fill="midnightblue" stroke="midnightblue" points="2083.4,-33.48 2089.77,-25.01 2079.51,-27.66 2083.4,-33.48"/>
</g>
<!-- Node25 -->
<g id="node25" class="node">
<title>Node25</title>
<g id="a_node25"><a xlink:title=" ">
<polygon fill="none" stroke="#bfbfbf" points="2167,-6 2167,-25 2338,-25 2338,-6 2167,-6"/>
<text text-anchor="middle" x="2252.5" y="-13" font-family="FreeSans.ttf" font-size="10.00">gazebo/sensors/SensorTypes.hh</text>
</a>
</g>
</g>
<!-- Node24&#45;&gt;Node25 -->
<g id="edge32" class="edge">
<title>Node24&#45;&gt;Node25</title>
<path fill="none" stroke="midnightblue" d="M2047.74,-67.48C2090.07,-56.94 2162.18,-38.99 2208.55,-27.44"/>
<polygon fill="midnightblue" stroke="midnightblue" points="2209.46,-30.82 2218.32,-25.01 2207.77,-24.03 2209.46,-30.82"/>
</g>
<!-- Node26 -->
<g id="node26" class="node">
<title>Node26</title>
<g id="a_node26"><a xlink:title=" ">
<polygon fill="none" stroke="#bfbfbf" points="2356.5,-6 2356.5,-25 2530.5,-25 2530.5,-6 2356.5,-6"/>
<text text-anchor="middle" x="2443.5" y="-13" font-family="FreeSans.ttf" font-size="10.00">gazebo/physics/PhysicsTypes.hh</text>
</a>
</g>
</g>
<!-- Node24&#45;&gt;Node26 -->
<g id="edge33" class="edge">
<title>Node24&#45;&gt;Node26</title>
<path fill="none" stroke="midnightblue" d="M2079.14,-67.47C2146.52,-58.64 2254.39,-44.3 2347.5,-31 2357.39,-29.59 2367.84,-28.05 2378.07,-26.53"/>
<polygon fill="midnightblue" stroke="midnightblue" points="2378.82,-29.95 2388.19,-25.01 2377.78,-23.03 2378.82,-29.95"/>
</g>
</g>
</svg>
