<?xml version="1.0" encoding="UTF-8" standalone="no"?>
<!DOCTYPE svg PUBLIC "-//W3C//DTD SVG 1.1//EN"
 "http://www.w3.org/Graphics/SVG/1.1/DTD/svg11.dtd">
<!-- Generated by graphviz version 2.43.0 (0)
 -->
<!-- Title: MaisSensorDriver.h Pages: 1 -->
<svg width="408pt" height="84pt"
 viewBox="0.00 0.00 408.00 84.00" xmlns="http://www.w3.org/2000/svg" xmlns:xlink="http://www.w3.org/1999/xlink">
<g id="graph0" class="graph" transform="scale(1 1) rotate(0) translate(4 80)">
<title>MaisSensorDriver.h</title>
<!-- Node1 -->
<g id="node1" class="node">
<title>Node1</title>
<g id="a_node1"><a xlink:title=" ">
<polygon fill="#bfbfbf" stroke="black" points="126.5,-56.5 126.5,-75.5 237.5,-75.5 237.5,-56.5 126.5,-56.5"/>
<text text-anchor="middle" x="182" y="-63.5" font-family="FreeSans.ttf" font-size="10.00">MaisSensorDriver.h</text>
</a>
</g>
</g>
<!-- Node2 -->
<g id="node2" class="node">
<title>Node2</title>
<g id="a_node2"><a xlink:href="MaisSensor_8cc.html" target="_top" xlink:title=" ">
<polygon fill="none" stroke="black" points="0,-0.5 0,-19.5 86,-19.5 86,-0.5 0,-0.5"/>
<text text-anchor="middle" x="43" y="-7.5" font-family="FreeSans.ttf" font-size="10.00">MaisSensor.cc</text>
</a>
</g>
</g>
<!-- Node1&#45;&gt;Node2 -->
<g id="edge1" class="edge">
<title>Node1&#45;&gt;Node2</title>
<path fill="none" stroke="midnightblue" d="M150.52,-52.77C124.41,-42.63 87.96,-28.47 64.92,-19.52"/>
<polygon fill="midnightblue" stroke="midnightblue" points="149.39,-56.08 159.98,-56.44 151.92,-49.56 149.39,-56.08"/>
</g>
<!-- Node3 -->
<g id="node3" class="node">
<title>Node3</title>
<g id="a_node3"><a xlink:href="MaisSensorDeviceDriver_8cpp.html" target="_top" xlink:title=" ">
<polygon fill="none" stroke="black" points="104,-0.5 104,-19.5 260,-19.5 260,-0.5 104,-0.5"/>
<text text-anchor="middle" x="182" y="-7.5" font-family="FreeSans.ttf" font-size="10.00">MaisSensorDeviceDriver.cpp</text>
</a>
</g>
</g>
<!-- Node1&#45;&gt;Node3 -->
<g id="edge2" class="edge">
<title>Node1&#45;&gt;Node3</title>
<path fill="none" stroke="midnightblue" d="M182,-45.8C182,-36.91 182,-26.78 182,-19.75"/>
<polygon fill="midnightblue" stroke="midnightblue" points="178.5,-46.08 182,-56.08 185.5,-46.08 178.5,-46.08"/>
</g>
<!-- Node4 -->
<g id="node4" class="node">
<title>Node4</title>
<g id="a_node4"><a xlink:href="MaisSensorDriver_8cpp.html" target="_top" xlink:title=" ">
<polygon fill="none" stroke="black" points="278,-0.5 278,-19.5 400,-19.5 400,-0.5 278,-0.5"/>
<text text-anchor="middle" x="339" y="-7.5" font-family="FreeSans.ttf" font-size="10.00">MaisSensorDriver.cpp</text>
</a>
</g>
</g>
<!-- Node1&#45;&gt;Node4 -->
<g id="edge3" class="edge">
<title>Node1&#45;&gt;Node4</title>
<path fill="none" stroke="midnightblue" d="M216.39,-53.17C245.95,-43 287.87,-28.59 314.24,-19.52"/>
<polygon fill="midnightblue" stroke="midnightblue" points="215.2,-49.88 206.88,-56.44 217.47,-56.5 215.2,-49.88"/>
</g>
</g>
</svg>
