<?xml version="1.0" encoding="UTF-8" standalone="no"?>
<!DOCTYPE svg PUBLIC "-//W3C//DTD SVG 1.1//EN"
 "http://www.w3.org/Graphics/SVG/1.1/DTD/svg11.dtd">
<!-- Generated by graphviz version 2.43.0 (0)
 -->
<!-- Title: MaisSensorDeviceDriver.cpp Pages: 1 -->
<svg width="1927pt" height="151pt"
 viewBox="0.00 0.00 1927.00 151.00" xmlns="http://www.w3.org/2000/svg" xmlns:xlink="http://www.w3.org/1999/xlink">
<g id="graph0" class="graph" transform="scale(1 1) rotate(0) translate(4 147)">
<title>MaisSensorDeviceDriver.cpp</title>
<!-- Node1 -->
<g id="node1" class="node">
<title>Node1</title>
<g id="a_node1"><a xlink:title=" ">
<polygon fill="#bfbfbf" stroke="black" points="900,-123.5 900,-142.5 1056,-142.5 1056,-123.5 900,-123.5"/>
<text text-anchor="middle" x="978" y="-130.5" font-family="FreeSans.ttf" font-size="10.00">MaisSensorDeviceDriver.cpp</text>
</a>
</g>
</g>
<!-- Node2 -->
<g id="node2" class="node">
<title>Node2</title>
<g id="a_node2"><a xlink:href="MaisSensorDriver_8h.html" target="_top" xlink:title=" ">
<polygon fill="none" stroke="black" points="856.5,-67.5 856.5,-86.5 967.5,-86.5 967.5,-67.5 856.5,-67.5"/>
<text text-anchor="middle" x="912" y="-74.5" font-family="FreeSans.ttf" font-size="10.00">MaisSensorDriver.h</text>
</a>
</g>
</g>
<!-- Node1&#45;&gt;Node2 -->
<g id="edge1" class="edge">
<title>Node1&#45;&gt;Node2</title>
<path fill="none" stroke="midnightblue" d="M967.4,-123.32C957.54,-115.26 942.65,-103.08 930.78,-93.37"/>
<polygon fill="midnightblue" stroke="midnightblue" points="932.75,-90.46 922.8,-86.83 928.32,-95.88 932.75,-90.46"/>
</g>
<!-- Node16 -->
<g id="node16" class="node">
<title>Node16</title>
<g id="a_node16"><a xlink:href="Handler_8hh.html" target="_top" xlink:title=" ">
<polygon fill="none" stroke="black" points="305,-67.5 305,-86.5 469,-86.5 469,-67.5 305,-67.5"/>
<text text-anchor="middle" x="387" y="-74.5" font-family="FreeSans.ttf" font-size="10.00">GazeboYarpPlugins/Handler.hh</text>
</a>
</g>
</g>
<!-- Node1&#45;&gt;Node16 -->
<g id="edge15" class="edge">
<title>Node1&#45;&gt;Node16</title>
<path fill="none" stroke="midnightblue" d="M899.82,-124.86C791.26,-114.94 595.18,-97.02 479.48,-86.45"/>
<polygon fill="midnightblue" stroke="midnightblue" points="479.5,-82.94 469.23,-85.51 478.87,-89.91 479.5,-82.94"/>
</g>
<!-- Node20 -->
<g id="node20" class="node">
<title>Node20</title>
<g id="a_node20"><a xlink:title=" ">
<polygon fill="none" stroke="#bfbfbf" points="985.5,-67.5 985.5,-86.5 1102.5,-86.5 1102.5,-67.5 985.5,-67.5"/>
<text text-anchor="middle" x="1044" y="-74.5" font-family="FreeSans.ttf" font-size="10.00">yarp/os/LogStream.h</text>
</a>
</g>
</g>
<!-- Node1&#45;&gt;Node20 -->
<g id="edge22" class="edge">
<title>Node1&#45;&gt;Node20</title>
<path fill="none" stroke="midnightblue" d="M988.6,-123.32C998.46,-115.26 1013.35,-103.08 1025.22,-93.37"/>
<polygon fill="midnightblue" stroke="midnightblue" points="1027.68,-95.88 1033.2,-86.83 1023.25,-90.46 1027.68,-95.88"/>
</g>
<!-- Node21 -->
<g id="node21" class="node">
<title>Node21</title>
<g id="a_node21"><a xlink:title=" ">
<polygon fill="none" stroke="#bfbfbf" points="1120.5,-67.5 1120.5,-86.5 1269.5,-86.5 1269.5,-67.5 1120.5,-67.5"/>
<text text-anchor="middle" x="1195" y="-74.5" font-family="FreeSans.ttf" font-size="10.00">gazebo/common/Events.hh</text>
</a>
</g>
</g>
<!-- Node1&#45;&gt;Node21 -->
<g id="edge23" class="edge">
<title>Node1&#45;&gt;Node21</title>
<path fill="none" stroke="midnightblue" d="M1012.38,-123.44C1049.92,-114.1 1110.13,-99.12 1151.07,-88.93"/>
<polygon fill="midnightblue" stroke="midnightblue" points="1151.92,-92.33 1160.78,-86.52 1150.23,-85.53 1151.92,-92.33"/>
</g>
<!-- Node3 -->
<g id="node3" class="node">
<title>Node3</title>
<g id="a_node3"><a xlink:title=" ">
<polygon fill="none" stroke="#bfbfbf" points="798,-6 798,-25 902,-25 902,-6 798,-6"/>
<text text-anchor="middle" x="850" y="-13" font-family="FreeSans.ttf" font-size="10.00">yarp/os/Property.h</text>
</a>
</g>
</g>
<!-- Node2&#45;&gt;Node3 -->
<g id="edge2" class="edge">
<title>Node2&#45;&gt;Node3</title>
<path fill="none" stroke="midnightblue" d="M903.12,-67.48C893.54,-58.28 878.09,-43.46 866.31,-32.16"/>
<polygon fill="midnightblue" stroke="midnightblue" points="868.51,-29.41 858.87,-25.01 863.66,-34.46 868.51,-29.41"/>
</g>
<!-- Node4 -->
<g id="node4" class="node">
<title>Node4</title>
<g id="a_node4"><a xlink:title=" ">
<polygon fill="none" stroke="#bfbfbf" points="920.5,-6 920.5,-25 1027.5,-25 1027.5,-6 920.5,-6"/>
<text text-anchor="middle" x="974" y="-13" font-family="FreeSans.ttf" font-size="10.00">yarp/dev/Drivers.h</text>
</a>
</g>
</g>
<!-- Node2&#45;&gt;Node4 -->
<g id="edge3" class="edge">
<title>Node2&#45;&gt;Node4</title>
<path fill="none" stroke="midnightblue" d="M920.88,-67.48C930.46,-58.28 945.91,-43.46 957.69,-32.16"/>
<polygon fill="midnightblue" stroke="midnightblue" points="960.34,-34.46 965.13,-25.01 955.49,-29.41 960.34,-34.46"/>
</g>
<!-- Node5 -->
<g id="node5" class="node">
<title>Node5</title>
<g id="a_node5"><a xlink:title=" ">
<polygon fill="none" stroke="#bfbfbf" points="326,-6 326,-25 448,-25 448,-6 326,-6"/>
<text text-anchor="middle" x="387" y="-13" font-family="FreeSans.ttf" font-size="10.00">yarp/dev/PolyDriver.h</text>
</a>
</g>
</g>
<!-- Node2&#45;&gt;Node5 -->
<g id="edge4" class="edge">
<title>Node2&#45;&gt;Node5</title>
<path fill="none" stroke="midnightblue" d="M856.21,-72.32C770.33,-66.25 600.73,-52.59 458,-31 450.56,-29.87 442.72,-28.48 435.08,-27.01"/>
<polygon fill="midnightblue" stroke="midnightblue" points="435.68,-23.56 425.19,-25.05 434.32,-30.43 435.68,-23.56"/>
</g>
<!-- Node6 -->
<g id="node6" class="node">
<title>Node6</title>
<g id="a_node6"><a xlink:title=" ">
<polygon fill="none" stroke="#bfbfbf" points="1045.5,-0.5 1045.5,-30.5 1220.5,-30.5 1220.5,-0.5 1045.5,-0.5"/>
<text text-anchor="start" x="1053.5" y="-18.5" font-family="FreeSans.ttf" font-size="10.00">yarp/dev/ControlBoardInterfaces</text>
<text text-anchor="middle" x="1133" y="-7.5" font-family="FreeSans.ttf" font-size="10.00">Impl.h</text>
</a>
</g>
</g>
<!-- Node2&#45;&gt;Node6 -->
<g id="edge5" class="edge">
<title>Node2&#45;&gt;Node6</title>
<path fill="none" stroke="midnightblue" d="M943.66,-67.48C976.81,-58.55 1029.71,-44.31 1071.18,-33.14"/>
<polygon fill="midnightblue" stroke="midnightblue" points="1072.17,-36.5 1080.91,-30.52 1070.35,-29.74 1072.17,-36.5"/>
</g>
<!-- Node7 -->
<g id="node7" class="node">
<title>Node7</title>
<g id="a_node7"><a xlink:title=" ">
<polygon fill="none" stroke="#bfbfbf" points="1239,-6 1239,-25 1423,-25 1423,-6 1239,-6"/>
<text text-anchor="middle" x="1331" y="-13" font-family="FreeSans.ttf" font-size="10.00">yarp/dev/ControlBoardInterfaces.h</text>
</a>
</g>
</g>
<!-- Node2&#45;&gt;Node7 -->
<g id="edge6" class="edge">
<title>Node2&#45;&gt;Node7</title>
<path fill="none" stroke="midnightblue" d="M967.73,-68.15C1031.22,-59.2 1138.09,-44.1 1230,-31 1240.23,-29.54 1251.05,-27.99 1261.65,-26.48"/>
<polygon fill="midnightblue" stroke="midnightblue" points="1262.32,-29.91 1271.72,-25.03 1261.33,-22.99 1262.32,-29.91"/>
</g>
<!-- Node8 -->
<g id="node8" class="node">
<title>Node8</title>
<g id="a_node8"><a xlink:title=" ">
<polygon fill="none" stroke="#bfbfbf" points="1441,-6 1441,-25 1581,-25 1581,-6 1441,-6"/>
<text text-anchor="middle" x="1511" y="-13" font-family="FreeSans.ttf" font-size="10.00">yarp/dev/IAnalogSensor.h</text>
</a>
</g>
</g>
<!-- Node2&#45;&gt;Node8 -->
<g id="edge7" class="edge">
<title>Node2&#45;&gt;Node8</title>
<path fill="none" stroke="midnightblue" d="M967.64,-68.08C970.81,-67.69 973.94,-67.33 977,-67 1178.67,-45.08 1230.86,-57.35 1432,-31 1440.74,-29.86 1449.98,-28.39 1458.94,-26.84"/>
<polygon fill="midnightblue" stroke="midnightblue" points="1459.67,-30.26 1468.9,-25.05 1458.44,-23.37 1459.67,-30.26"/>
</g>
<!-- Node9 -->
<g id="node9" class="node">
<title>Node9</title>
<g id="a_node9"><a xlink:title=" ">
<polygon fill="none" stroke="#bfbfbf" points="1599,-6 1599,-25 1697,-25 1697,-6 1599,-6"/>
<text text-anchor="middle" x="1648" y="-13" font-family="FreeSans.ttf" font-size="10.00">yarp/sig/Vector.h</text>
</a>
</g>
</g>
<!-- Node2&#45;&gt;Node9 -->
<g id="edge8" class="edge">
<title>Node2&#45;&gt;Node9</title>
<path fill="none" stroke="midnightblue" d="M967.63,-68C970.8,-67.64 973.94,-67.3 977,-67 1248.6,-40.26 1320.23,-72.27 1590,-31 1595.98,-30.08 1602.25,-28.83 1608.36,-27.45"/>
<polygon fill="midnightblue" stroke="midnightblue" points="1609.51,-30.77 1618.41,-25.03 1607.87,-23.97 1609.51,-30.77"/>
</g>
<!-- Node10 -->
<g id="node10" class="node">
<title>Node10</title>
<g id="a_node10"><a xlink:title=" ">
<polygon fill="none" stroke="#bfbfbf" points="1715.5,-6 1715.5,-25 1804.5,-25 1804.5,-6 1715.5,-6"/>
<text text-anchor="middle" x="1760" y="-13" font-family="FreeSans.ttf" font-size="10.00">yarp/os/Time.h</text>
</a>
</g>
</g>
<!-- Node2&#45;&gt;Node10 -->
<g id="edge9" class="edge">
<title>Node2&#45;&gt;Node10</title>
<path fill="none" stroke="midnightblue" d="M967.63,-67.97C970.8,-67.61 973.94,-67.29 977,-67 1299.98,-36.72 1385.54,-81.35 1706,-31 1711.51,-30.13 1717.28,-28.93 1722.89,-27.57"/>
<polygon fill="midnightblue" stroke="midnightblue" points="1723.96,-30.91 1732.77,-25.02 1722.21,-24.13 1723.96,-30.91"/>
</g>
<!-- Node11 -->
<g id="node11" class="node">
<title>Node11</title>
<g id="a_node11"><a xlink:title=" ">
<polygon fill="none" stroke="#bfbfbf" points="1823,-6 1823,-25 1919,-25 1919,-6 1823,-6"/>
<text text-anchor="middle" x="1871" y="-13" font-family="FreeSans.ttf" font-size="10.00">yarp/os/Stamp.h</text>
</a>
</g>
</g>
<!-- Node2&#45;&gt;Node11 -->
<g id="edge10" class="edge">
<title>Node2&#45;&gt;Node11</title>
<path fill="none" stroke="midnightblue" d="M967.63,-67.94C970.8,-67.6 973.94,-67.28 977,-67 1347.83,-33.43 1445.62,-85.19 1814,-31 1819.95,-30.12 1826.19,-28.88 1832.26,-27.49"/>
<polygon fill="midnightblue" stroke="midnightblue" points="1833.36,-30.83 1842.24,-25.04 1831.69,-24.03 1833.36,-30.83"/>
</g>
<!-- Node12 -->
<g id="node12" class="node">
<title>Node12</title>
<g id="a_node12"><a xlink:title=" ">
<polygon fill="none" stroke="#bfbfbf" points="670,-6 670,-25 714,-25 714,-6 670,-6"/>
<text text-anchor="middle" x="692" y="-13" font-family="FreeSans.ttf" font-size="10.00">string</text>
</a>
</g>
</g>
<!-- Node2&#45;&gt;Node12 -->
<g id="edge11" class="edge">
<title>Node2&#45;&gt;Node12</title>
<path fill="none" stroke="midnightblue" d="M865.72,-67.48C827.23,-59.8 771.3,-47.21 724,-31 722.33,-30.43 720.64,-29.8 718.94,-29.14"/>
<polygon fill="midnightblue" stroke="midnightblue" points="719.94,-25.76 709.36,-25.09 717.21,-32.21 719.94,-25.76"/>
</g>
<!-- Node13 -->
<g id="node13" class="node">
<title>Node13</title>
<g id="a_node13"><a xlink:title=" ">
<polygon fill="none" stroke="#bfbfbf" points="732.5,-6 732.5,-25 779.5,-25 779.5,-6 732.5,-6"/>
<text text-anchor="middle" x="756" y="-13" font-family="FreeSans.ttf" font-size="10.00">vector</text>
</a>
</g>
</g>
<!-- Node2&#45;&gt;Node13 -->
<g id="edge12" class="edge">
<title>Node2&#45;&gt;Node13</title>
<path fill="none" stroke="midnightblue" d="M887.32,-67.49C862.36,-58.76 822.75,-44.57 789,-31 787.58,-30.43 786.14,-29.84 784.68,-29.23"/>
<polygon fill="midnightblue" stroke="midnightblue" points="785.68,-25.85 775.11,-25.14 782.93,-32.29 785.68,-25.85"/>
</g>
<!-- Node14 -->
<g id="node14" class="node">
<title>Node14</title>
<g id="a_node14"><a xlink:title=" ">
<polygon fill="none" stroke="#bfbfbf" points="466.5,-6 466.5,-25 585.5,-25 585.5,-6 466.5,-6"/>
<text text-anchor="middle" x="526" y="-13" font-family="FreeSans.ttf" font-size="10.00">boost/shared_ptr.hpp</text>
</a>
</g>
</g>
<!-- Node2&#45;&gt;Node14 -->
<g id="edge13" class="edge">
<title>Node2&#45;&gt;Node14</title>
<path fill="none" stroke="midnightblue" d="M856.28,-69.22C792.83,-61.24 686.15,-47.03 595,-31 588.28,-29.82 581.21,-28.46 574.26,-27.07"/>
<polygon fill="midnightblue" stroke="midnightblue" points="574.73,-23.59 564.23,-25 573.33,-30.45 574.73,-23.59"/>
</g>
<!-- Node15 -->
<g id="node15" class="node">
<title>Node15</title>
<g id="a_node15"><a xlink:title=" ">
<polygon fill="none" stroke="#bfbfbf" points="604,-6 604,-25 652,-25 652,-6 604,-6"/>
<text text-anchor="middle" x="628" y="-13" font-family="FreeSans.ttf" font-size="10.00">mutex</text>
</a>
</g>
</g>
<!-- Node2&#45;&gt;Node15 -->
<g id="edge14" class="edge">
<title>Node2&#45;&gt;Node15</title>
<path fill="none" stroke="midnightblue" d="M856.27,-69.85C804.81,-63.28 726.64,-51 661,-31 659.07,-30.41 657.1,-29.74 655.14,-29.02"/>
<polygon fill="midnightblue" stroke="midnightblue" points="656.1,-25.63 645.52,-25.12 653.47,-32.12 656.1,-25.63"/>
</g>
<!-- Node16&#45;&gt;Node5 -->
<g id="edge20" class="edge">
<title>Node16&#45;&gt;Node5</title>
<path fill="none" stroke="midnightblue" d="M387,-67.48C387,-59.08 387,-45.98 387,-35.16"/>
<polygon fill="midnightblue" stroke="midnightblue" points="390.5,-35.01 387,-25.01 383.5,-35.01 390.5,-35.01"/>
</g>
<!-- Node16&#45;&gt;Node14 -->
<g id="edge18" class="edge">
<title>Node16&#45;&gt;Node14</title>
<path fill="none" stroke="midnightblue" d="M406.92,-67.48C430.45,-57.4 469.81,-40.55 496.79,-29"/>
<polygon fill="midnightblue" stroke="midnightblue" points="498.31,-32.16 506.12,-25.01 495.55,-25.73 498.31,-32.16"/>
</g>
<!-- Node16&#45;&gt;Node15 -->
<g id="edge19" class="edge">
<title>Node16&#45;&gt;Node15</title>
<path fill="none" stroke="midnightblue" d="M440.79,-67.43C483.25,-59.93 543.69,-47.64 595,-31 596.88,-30.39 598.79,-29.71 600.7,-28.99"/>
<polygon fill="midnightblue" stroke="midnightblue" points="602.17,-32.17 610.1,-25.15 599.52,-25.7 602.17,-32.17"/>
</g>
<!-- Node17 -->
<g id="node17" class="node">
<title>Node17</title>
<g id="a_node17"><a xlink:title=" ">
<polygon fill="none" stroke="#bfbfbf" points="0,-6 0,-25 38,-25 38,-6 0,-6"/>
<text text-anchor="middle" x="19" y="-13" font-family="FreeSans.ttf" font-size="10.00">map</text>
</a>
</g>
</g>
<!-- Node16&#45;&gt;Node17 -->
<g id="edge16" class="edge">
<title>Node16&#45;&gt;Node17</title>
<path fill="none" stroke="midnightblue" d="M304.92,-73.07C234.97,-68.71 132.48,-57.88 47,-31 45.53,-30.54 44.05,-30 42.57,-29.42"/>
<polygon fill="midnightblue" stroke="midnightblue" points="43.67,-26.07 33.12,-25.02 40.71,-32.41 43.67,-26.07"/>
</g>
<!-- Node18 -->
<g id="node18" class="node">
<title>Node18</title>
<g id="a_node18"><a xlink:title=" ">
<polygon fill="none" stroke="#bfbfbf" points="56.5,-6 56.5,-25 149.5,-25 149.5,-6 56.5,-6"/>
<text text-anchor="middle" x="103" y="-13" font-family="FreeSans.ttf" font-size="10.00">sdf/sdf_config.h</text>
</a>
</g>
</g>
<!-- Node16&#45;&gt;Node18 -->
<g id="edge17" class="edge">
<title>Node16&#45;&gt;Node18</title>
<path fill="none" stroke="midnightblue" d="M339.67,-67.49C293.44,-58.99 221.15,-45.17 159,-31 154.29,-29.93 149.37,-28.74 144.5,-27.53"/>
<polygon fill="midnightblue" stroke="midnightblue" points="145.16,-24.09 134.61,-25.03 143.44,-30.88 145.16,-24.09"/>
</g>
<!-- Node19 -->
<g id="node19" class="node">
<title>Node19</title>
<g id="a_node19"><a xlink:title=" ">
<polygon fill="none" stroke="#bfbfbf" points="168,-6 168,-25 308,-25 308,-6 168,-6"/>
<text text-anchor="middle" x="238" y="-13" font-family="FreeSans.ttf" font-size="10.00">yarp/dev/PolyDriverList.h</text>
</a>
</g>
</g>
<!-- Node16&#45;&gt;Node19 -->
<g id="edge21" class="edge">
<title>Node16&#45;&gt;Node19</title>
<path fill="none" stroke="midnightblue" d="M365.65,-67.48C340.31,-57.36 297.86,-40.4 268.93,-28.85"/>
<polygon fill="midnightblue" stroke="midnightblue" points="269.89,-25.47 259.31,-25.01 267.3,-31.97 269.89,-25.47"/>
</g>
</g>
</svg>
