<?xml version="1.0" encoding="UTF-8" standalone="no"?>
<!DOCTYPE svg PUBLIC "-//W3C//DTD SVG 1.1//EN"
 "http://www.w3.org/Graphics/SVG/1.1/DTD/svg11.dtd">
<!-- Generated by graphviz version 3.0.0 (20220315.2325)
 -->
<!-- Title: MaisSensorDeviceDriver.cpp Pages: 1 -->
<svg width="2094pt" height="151pt"
 viewBox="0.00 0.00 2093.50 151.00" xmlns="http://www.w3.org/2000/svg" xmlns:xlink="http://www.w3.org/1999/xlink">
<g id="graph0" class="graph" transform="scale(1 1) rotate(0) translate(4 147)">
<title>MaisSensorDeviceDriver.cpp</title>
<!-- Node1 -->
<g id="node1" class="node">
<title>Node1</title>
<g id="a_node1"><a xlink:title=" ">
<polygon fill="#bfbfbf" stroke="black" points="821.5,-123.5 821.5,-142.5 977.5,-142.5 977.5,-123.5 821.5,-123.5"/>
<text text-anchor="middle" x="899.5" y="-130.5" font-family="FreeSans.ttf" font-size="10.00">MaisSensorDeviceDriver.cpp</text>
</a>
</g>
</g>
<!-- Node2 -->
<g id="node2" class="node">
<title>Node2</title>
<g id="a_node2"><a xlink:href="MaisSensorDriver_8h.html" target="_top" xlink:title=" ">
<polygon fill="none" stroke="black" points="1192,-67.5 1192,-86.5 1303,-86.5 1303,-67.5 1192,-67.5"/>
<text text-anchor="middle" x="1247.5" y="-74.5" font-family="FreeSans.ttf" font-size="10.00">MaisSensorDriver.h</text>
</a>
</g>
</g>
<!-- Node1&#45;&gt;Node2 -->
<g id="edge1" class="edge">
<title>Node1&#45;&gt;Node2</title>
<path fill="none" stroke="midnightblue" d="M954.64,-123.44C1016.49,-113.85 1116.73,-98.29 1182.39,-88.1"/>
<polygon fill="midnightblue" stroke="midnightblue" points="1183.27,-91.51 1192.62,-86.52 1182.2,-84.59 1183.27,-91.51"/>
</g>
<!-- Node16 -->
<g id="node16" class="node">
<title>Node16</title>
<g id="a_node16"><a xlink:href="Handler_8hh.html" target="_top" xlink:title=" ">
<polygon fill="none" stroke="black" points="396.5,-67.5 396.5,-86.5 560.5,-86.5 560.5,-67.5 396.5,-67.5"/>
<text text-anchor="middle" x="478.5" y="-74.5" font-family="FreeSans.ttf" font-size="10.00">GazeboYarpPlugins/Handler.hh</text>
</a>
</g>
</g>
<!-- Node1&#45;&gt;Node16 -->
<g id="edge15" class="edge">
<title>Node1&#45;&gt;Node16</title>
<path fill="none" stroke="midnightblue" d="M832.79,-123.44C757.19,-113.75 634.2,-97.97 554.83,-87.79"/>
<polygon fill="midnightblue" stroke="midnightblue" points="555.26,-84.32 544.9,-86.52 554.37,-91.26 555.26,-84.32"/>
</g>
<!-- Node20 -->
<g id="node20" class="node">
<title>Node20</title>
<g id="a_node20"><a xlink:title=" ">
<polygon fill="none" stroke="#bfbfbf" points="0,-6 0,-25 149,-25 149,-6 0,-6"/>
<text text-anchor="middle" x="74.5" y="-13" font-family="FreeSans.ttf" font-size="10.00">gazebo/common/Events.hh</text>
</a>
</g>
</g>
<!-- Node1&#45;&gt;Node20 -->
<g id="edge24" class="edge">
<title>Node1&#45;&gt;Node20</title>
<path fill="none" stroke="midnightblue" d="M821.48,-128.4C720.75,-123 540.25,-110.81 387.5,-87 288.91,-71.63 175.03,-43.25 115.54,-27.59"/>
<polygon fill="midnightblue" stroke="midnightblue" points="116.34,-24.18 105.78,-25.01 114.55,-30.95 116.34,-24.18"/>
</g>
<!-- Node21 -->
<g id="node21" class="node">
<title>Node21</title>
<g id="a_node21"><a xlink:title=" ">
<polygon fill="none" stroke="#bfbfbf" points="1321,-67.5 1321,-86.5 1438,-86.5 1438,-67.5 1321,-67.5"/>
<text text-anchor="middle" x="1379.5" y="-74.5" font-family="FreeSans.ttf" font-size="10.00">yarp/os/LogStream.h</text>
</a>
</g>
</g>
<!-- Node1&#45;&gt;Node21 -->
<g id="edge23" class="edge">
<title>Node1&#45;&gt;Node21</title>
<path fill="none" stroke="midnightblue" d="M977.59,-124.08C1058.42,-115.75 1188.61,-101.95 1310.43,-87.23"/>
<polygon fill="midnightblue" stroke="midnightblue" points="1311.18,-90.66 1320.68,-85.99 1310.34,-83.72 1311.18,-90.66"/>
</g>
<!-- Node3 -->
<g id="node3" class="node">
<title>Node3</title>
<g id="a_node3"><a xlink:title=" ">
<polygon fill="none" stroke="#bfbfbf" points="1981.5,-6 1981.5,-25 2085.5,-25 2085.5,-6 1981.5,-6"/>
<text text-anchor="middle" x="2033.5" y="-13" font-family="FreeSans.ttf" font-size="10.00">yarp/os/Property.h</text>
</a>
</g>
</g>
<!-- Node2&#45;&gt;Node3 -->
<g id="edge2" class="edge">
<title>Node2&#45;&gt;Node3</title>
<path fill="none" stroke="midnightblue" d="M1303.13,-67.99C1306.3,-67.63 1309.44,-67.29 1312.5,-67 1604.92,-38.83 1681.77,-73.14 1972.5,-31 1978.93,-30.07 1985.68,-28.78 1992.26,-27.36"/>
<polygon fill="midnightblue" stroke="midnightblue" points="1993.4,-30.69 2002.36,-25.04 1991.83,-23.86 1993.4,-30.69"/>
</g>
<!-- Node4 -->
<g id="node4" class="node">
<title>Node4</title>
<g id="a_node4"><a xlink:title=" ">
<polygon fill="none" stroke="#bfbfbf" points="837,-6 837,-25 944,-25 944,-6 837,-6"/>
<text text-anchor="middle" x="890.5" y="-13" font-family="FreeSans.ttf" font-size="10.00">yarp/dev/Drivers.h</text>
</a>
</g>
</g>
<!-- Node2&#45;&gt;Node4 -->
<g id="edge3" class="edge">
<title>Node2&#45;&gt;Node4</title>
<path fill="none" stroke="midnightblue" d="M1191.75,-68.72C1132.46,-60.69 1036.04,-46.79 953.5,-31 947.64,-29.88 941.49,-28.6 935.44,-27.27"/>
<polygon fill="midnightblue" stroke="midnightblue" points="935.92,-23.79 925.39,-25.02 934.38,-30.62 935.92,-23.79"/>
</g>
<!-- Node5 -->
<g id="node5" class="node">
<title>Node5</title>
<g id="a_node5"><a xlink:title=" ">
<polygon fill="none" stroke="#bfbfbf" points="492.5,-6 492.5,-25 614.5,-25 614.5,-6 492.5,-6"/>
<text text-anchor="middle" x="553.5" y="-13" font-family="FreeSans.ttf" font-size="10.00">yarp/dev/PolyDriver.h</text>
</a>
</g>
</g>
<!-- Node2&#45;&gt;Node5 -->
<g id="edge4" class="edge">
<title>Node2&#45;&gt;Node5</title>
<path fill="none" stroke="midnightblue" d="M1191.83,-74.39C1082.58,-70.71 832.64,-59.65 624.5,-31 616.7,-29.93 608.47,-28.51 600.49,-26.99"/>
<polygon fill="midnightblue" stroke="midnightblue" points="601.05,-23.53 590.56,-25.01 599.69,-30.39 601.05,-23.53"/>
</g>
<!-- Node6 -->
<g id="node6" class="node">
<title>Node6</title>
<g id="a_node6"><a xlink:title=" ">
<polygon fill="none" stroke="#bfbfbf" points="962,-0.5 962,-30.5 1137,-30.5 1137,-0.5 962,-0.5"/>
<text text-anchor="start" x="970" y="-18.5" font-family="FreeSans.ttf" font-size="10.00">yarp/dev/ControlBoardInterfaces</text>
<text text-anchor="middle" x="1049.5" y="-7.5" font-family="FreeSans.ttf" font-size="10.00">Impl.h</text>
</a>
</g>
</g>
<!-- Node2&#45;&gt;Node6 -->
<g id="edge5" class="edge">
<title>Node2&#45;&gt;Node6</title>
<path fill="none" stroke="midnightblue" d="M1219.13,-67.48C1189.68,-58.63 1142.84,-44.55 1105.83,-33.43"/>
<polygon fill="midnightblue" stroke="midnightblue" points="1106.75,-30.05 1096.16,-30.52 1104.73,-36.75 1106.75,-30.05"/>
</g>
<!-- Node7 -->
<g id="node7" class="node">
<title>Node7</title>
<g id="a_node7"><a xlink:title=" ">
<polygon fill="none" stroke="#bfbfbf" points="1155.5,-6 1155.5,-25 1339.5,-25 1339.5,-6 1155.5,-6"/>
<text text-anchor="middle" x="1247.5" y="-13" font-family="FreeSans.ttf" font-size="10.00">yarp/dev/ControlBoardInterfaces.h</text>
</a>
</g>
</g>
<!-- Node2&#45;&gt;Node7 -->
<g id="edge6" class="edge">
<title>Node2&#45;&gt;Node7</title>
<path fill="none" stroke="midnightblue" d="M1247.5,-67.48C1247.5,-59.08 1247.5,-45.98 1247.5,-35.16"/>
<polygon fill="midnightblue" stroke="midnightblue" points="1251,-35.01 1247.5,-25.01 1244,-35.01 1251,-35.01"/>
</g>
<!-- Node8 -->
<g id="node8" class="node">
<title>Node8</title>
<g id="a_node8"><a xlink:title=" ">
<polygon fill="none" stroke="#bfbfbf" points="1357.5,-6 1357.5,-25 1497.5,-25 1497.5,-6 1357.5,-6"/>
<text text-anchor="middle" x="1427.5" y="-13" font-family="FreeSans.ttf" font-size="10.00">yarp/dev/IAnalogSensor.h</text>
</a>
</g>
</g>
<!-- Node2&#45;&gt;Node8 -->
<g id="edge7" class="edge">
<title>Node2&#45;&gt;Node8</title>
<path fill="none" stroke="midnightblue" d="M1273.29,-67.48C1304.43,-57.18 1356.98,-39.81 1391.95,-28.25"/>
<polygon fill="midnightblue" stroke="midnightblue" points="1393.36,-31.47 1401.76,-25.01 1391.16,-24.82 1393.36,-31.47"/>
</g>
<!-- Node9 -->
<g id="node9" class="node">
<title>Node9</title>
<g id="a_node9"><a xlink:title=" ">
<polygon fill="none" stroke="#bfbfbf" points="1515.5,-6 1515.5,-25 1613.5,-25 1613.5,-6 1515.5,-6"/>
<text text-anchor="middle" x="1564.5" y="-13" font-family="FreeSans.ttf" font-size="10.00">yarp/sig/Vector.h</text>
</a>
</g>
</g>
<!-- Node2&#45;&gt;Node9 -->
<g id="edge8" class="edge">
<title>Node2&#45;&gt;Node9</title>
<path fill="none" stroke="midnightblue" d="M1303.05,-67.55C1355.65,-59.27 1436.73,-45.76 1506.5,-31 1511.57,-29.93 1516.88,-28.72 1522.13,-27.47"/>
<polygon fill="midnightblue" stroke="midnightblue" points="1523.19,-30.81 1532.08,-25.05 1521.54,-24.01 1523.19,-30.81"/>
</g>
<!-- Node10 -->
<g id="node10" class="node">
<title>Node10</title>
<g id="a_node10"><a xlink:title=" ">
<polygon fill="none" stroke="#bfbfbf" points="1632,-6 1632,-25 1721,-25 1721,-6 1632,-6"/>
<text text-anchor="middle" x="1676.5" y="-13" font-family="FreeSans.ttf" font-size="10.00">yarp/os/Time.h</text>
</a>
</g>
</g>
<!-- Node2&#45;&gt;Node10 -->
<g id="edge9" class="edge">
<title>Node2&#45;&gt;Node10</title>
<path fill="none" stroke="midnightblue" d="M1303.16,-68.21C1306.32,-67.79 1309.45,-67.39 1312.5,-67 1450.09,-49.49 1486.27,-57.06 1622.5,-31 1627.55,-30.03 1632.83,-28.85 1638.02,-27.57"/>
<polygon fill="midnightblue" stroke="midnightblue" points="1639.01,-30.93 1647.82,-25.04 1637.26,-24.15 1639.01,-30.93"/>
</g>
<!-- Node11 -->
<g id="node11" class="node">
<title>Node11</title>
<g id="a_node11"><a xlink:title=" ">
<polygon fill="none" stroke="#bfbfbf" points="1739.5,-6 1739.5,-25 1835.5,-25 1835.5,-6 1739.5,-6"/>
<text text-anchor="middle" x="1787.5" y="-13" font-family="FreeSans.ttf" font-size="10.00">yarp/os/Stamp.h</text>
</a>
</g>
</g>
<!-- Node2&#45;&gt;Node11 -->
<g id="edge10" class="edge">
<title>Node2&#45;&gt;Node11</title>
<path fill="none" stroke="midnightblue" d="M1303.15,-68.1C1306.31,-67.71 1309.44,-67.34 1312.5,-67 1497.8,-46.21 1546.64,-62.09 1730.5,-31 1736.1,-30.05 1741.96,-28.83 1747.7,-27.5"/>
<polygon fill="midnightblue" stroke="midnightblue" points="1748.94,-30.8 1757.82,-25.03 1747.27,-24 1748.94,-30.8"/>
</g>
<!-- Node12 -->
<g id="node12" class="node">
<title>Node12</title>
<g id="a_node12"><a xlink:title=" ">
<polygon fill="none" stroke="#bfbfbf" points="1853.5,-6 1853.5,-25 1897.5,-25 1897.5,-6 1853.5,-6"/>
<text text-anchor="middle" x="1875.5" y="-13" font-family="FreeSans.ttf" font-size="10.00">string</text>
</a>
</g>
</g>
<!-- Node2&#45;&gt;Node12 -->
<g id="edge11" class="edge">
<title>Node2&#45;&gt;Node12</title>
<path fill="none" stroke="midnightblue" d="M1303.14,-68.04C1306.3,-67.66 1309.44,-67.31 1312.5,-67 1548.24,-42.73 1615.03,-90.21 1844.5,-31 1846.48,-30.49 1848.5,-29.85 1850.5,-29.13"/>
<polygon fill="midnightblue" stroke="midnightblue" points="1852.3,-32.17 1860.15,-25.05 1849.58,-25.72 1852.3,-32.17"/>
</g>
<!-- Node13 -->
<g id="node13" class="node">
<title>Node13</title>
<g id="a_node13"><a xlink:title=" ">
<polygon fill="none" stroke="#bfbfbf" points="1916,-6 1916,-25 1963,-25 1963,-6 1916,-6"/>
<text text-anchor="middle" x="1939.5" y="-13" font-family="FreeSans.ttf" font-size="10.00">vector</text>
</a>
</g>
</g>
<!-- Node2&#45;&gt;Node13 -->
<g id="edge12" class="edge">
<title>Node2&#45;&gt;Node13</title>
<path fill="none" stroke="midnightblue" d="M1303.14,-68.01C1306.3,-67.64 1309.44,-67.3 1312.5,-67 1575.69,-40.84 1649.43,-93.17 1906.5,-31 1908.86,-30.43 1911.26,-29.7 1913.64,-28.87"/>
<polygon fill="midnightblue" stroke="midnightblue" points="1915.14,-32.04 1923.11,-25.06 1912.53,-25.54 1915.14,-32.04"/>
</g>
<!-- Node14 -->
<g id="node14" class="node">
<title>Node14</title>
<g id="a_node14"><a xlink:title=" ">
<polygon fill="none" stroke="#bfbfbf" points="633,-6 633,-25 752,-25 752,-6 633,-6"/>
<text text-anchor="middle" x="692.5" y="-13" font-family="FreeSans.ttf" font-size="10.00">boost/shared_ptr.hpp</text>
</a>
</g>
</g>
<!-- Node2&#45;&gt;Node14 -->
<g id="edge13" class="edge">
<title>Node2&#45;&gt;Node14</title>
<path fill="none" stroke="midnightblue" d="M1191.86,-72.93C1101.29,-67.47 916.51,-54.38 761.5,-31 754.26,-29.91 746.64,-28.53 739.2,-27.07"/>
<polygon fill="midnightblue" stroke="midnightblue" points="739.74,-23.61 729.24,-25.04 738.34,-30.47 739.74,-23.61"/>
</g>
<!-- Node15 -->
<g id="node15" class="node">
<title>Node15</title>
<g id="a_node15"><a xlink:title=" ">
<polygon fill="none" stroke="#bfbfbf" points="770.5,-6 770.5,-25 818.5,-25 818.5,-6 770.5,-6"/>
<text text-anchor="middle" x="794.5" y="-13" font-family="FreeSans.ttf" font-size="10.00">mutex</text>
</a>
</g>
</g>
<!-- Node2&#45;&gt;Node15 -->
<g id="edge14" class="edge">
<title>Node2&#45;&gt;Node15</title>
<path fill="none" stroke="midnightblue" d="M1192,-75.23C1110.88,-72.95 955.75,-64.18 828.5,-31 826.14,-30.39 823.74,-29.63 821.35,-28.8"/>
<polygon fill="midnightblue" stroke="midnightblue" points="822.39,-25.45 811.8,-25.05 819.82,-31.96 822.39,-25.45"/>
</g>
<!-- Node16&#45;&gt;Node5 -->
<g id="edge20" class="edge">
<title>Node16&#45;&gt;Node5</title>
<path fill="none" stroke="midnightblue" d="M489.25,-67.48C501.05,-58.11 520.24,-42.88 534.58,-31.51"/>
<polygon fill="midnightblue" stroke="midnightblue" points="537.12,-33.97 542.77,-25.01 532.76,-28.48 537.12,-33.97"/>
</g>
<!-- Node16&#45;&gt;Node14 -->
<g id="edge18" class="edge">
<title>Node16&#45;&gt;Node14</title>
<path fill="none" stroke="midnightblue" d="M509.16,-67.48C546.74,-57.03 610.54,-39.29 652.1,-27.73"/>
<polygon fill="midnightblue" stroke="midnightblue" points="653.2,-31.06 661.9,-25.01 651.32,-24.32 653.2,-31.06"/>
</g>
<!-- Node16&#45;&gt;Node15 -->
<g id="edge19" class="edge">
<title>Node16&#45;&gt;Node15</title>
<path fill="none" stroke="midnightblue" d="M560.54,-68.58C617.7,-62.05 695.27,-50.46 761.5,-31 763.65,-30.37 765.84,-29.63 768.02,-28.83"/>
<polygon fill="midnightblue" stroke="midnightblue" points="769.4,-32.04 777.34,-25.03 766.76,-25.56 769.4,-32.04"/>
</g>
<!-- Node17 -->
<g id="node17" class="node">
<title>Node17</title>
<g id="a_node17"><a xlink:title=" ">
<polygon fill="none" stroke="#bfbfbf" points="166.5,-6 166.5,-25 204.5,-25 204.5,-6 166.5,-6"/>
<text text-anchor="middle" x="185.5" y="-13" font-family="FreeSans.ttf" font-size="10.00">map</text>
</a>
</g>
</g>
<!-- Node16&#45;&gt;Node17 -->
<g id="edge16" class="edge">
<title>Node16&#45;&gt;Node17</title>
<path fill="none" stroke="midnightblue" d="M396.41,-68.32C343.53,-61.84 273.82,-50.41 214.5,-31 212.88,-30.47 211.24,-29.86 209.61,-29.21"/>
<polygon fill="midnightblue" stroke="midnightblue" points="211.04,-26.01 200.49,-25.05 208.14,-32.38 211.04,-26.01"/>
</g>
<!-- Node18 -->
<g id="node18" class="node">
<title>Node18</title>
<g id="a_node18"><a xlink:title=" ">
<polygon fill="none" stroke="#bfbfbf" points="223,-6 223,-25 316,-25 316,-6 223,-6"/>
<text text-anchor="middle" x="269.5" y="-13" font-family="FreeSans.ttf" font-size="10.00">sdf/sdf_config.h</text>
</a>
</g>
</g>
<!-- Node16&#45;&gt;Node18 -->
<g id="edge17" class="edge">
<title>Node16&#45;&gt;Node18</title>
<path fill="none" stroke="midnightblue" d="M448.56,-67.48C411.93,-57.05 349.8,-39.36 309.22,-27.81"/>
<polygon fill="midnightblue" stroke="midnightblue" points="309.97,-24.38 299.39,-25.01 308.05,-31.11 309.97,-24.38"/>
</g>
<!-- Node19 -->
<g id="node19" class="node">
<title>Node19</title>
<g id="a_node19"><a xlink:title=" ">
<polygon fill="none" stroke="#bfbfbf" points="334.5,-6 334.5,-25 474.5,-25 474.5,-6 334.5,-6"/>
<text text-anchor="middle" x="404.5" y="-13" font-family="FreeSans.ttf" font-size="10.00">yarp/dev/PolyDriverList.h</text>
</a>
</g>
</g>
<!-- Node16&#45;&gt;Node19 -->
<g id="edge21" class="edge">
<title>Node16&#45;&gt;Node19</title>
<path fill="none" stroke="midnightblue" d="M467.9,-67.48C456.25,-58.11 437.31,-42.88 423.17,-31.51"/>
<polygon fill="midnightblue" stroke="midnightblue" points="425.07,-28.55 415.08,-25.01 420.68,-34 425.07,-28.55"/>
</g>
<!-- Node16&#45;&gt;Node20 -->
<g id="edge22" class="edge">
<title>Node16&#45;&gt;Node20</title>
<path fill="none" stroke="midnightblue" d="M412.93,-67.47C347.99,-58.86 245.75,-44.89 157.5,-31 149.19,-29.69 140.43,-28.24 131.83,-26.78"/>
<polygon fill="midnightblue" stroke="midnightblue" points="132.31,-23.31 121.86,-25.06 131.12,-30.2 132.31,-23.31"/>
</g>
</g>
</svg>
