<?xml version="1.0" encoding="UTF-8" standalone="no"?>
<!DOCTYPE svg PUBLIC "-//W3C//DTD SVG 1.1//EN"
 "http://www.w3.org/Graphics/SVG/1.1/DTD/svg11.dtd">
<!-- Generated by graphviz version 2.43.0 (0)
 -->
<!-- Title: MaisSensor.hh Pages: 1 -->
<svg width="374pt" height="84pt"
 viewBox="0.00 0.00 374.00 84.00" xmlns="http://www.w3.org/2000/svg" xmlns:xlink="http://www.w3.org/1999/xlink">
<g id="graph0" class="graph" transform="scale(1 1) rotate(0) translate(4 80)">
<title>MaisSensor.hh</title>
<!-- Node1 -->
<g id="node1" class="node">
<title>Node1</title>
<g id="a_node1"><a xlink:title=" ">
<polygon fill="#bfbfbf" stroke="black" points="142.5,-56.5 142.5,-75.5 229.5,-75.5 229.5,-56.5 142.5,-56.5"/>
<text text-anchor="middle" x="186" y="-63.5" font-family="FreeSans.ttf" font-size="10.00">MaisSensor.hh</text>
</a>
</g>
</g>
<!-- Node2 -->
<g id="node2" class="node">
<title>Node2</title>
<g id="a_node2"><a xlink:title=" ">
<polygon fill="none" stroke="#bfbfbf" points="0,-0.5 0,-19.5 146,-19.5 146,-0.5 0,-0.5"/>
<text text-anchor="middle" x="73" y="-7.5" font-family="FreeSans.ttf" font-size="10.00">gazebo/common/Plugin.hh</text>
</a>
</g>
</g>
<!-- Node1&#45;&gt;Node2 -->
<g id="edge1" class="edge">
<title>Node1&#45;&gt;Node2</title>
<path fill="none" stroke="midnightblue" d="M168.09,-56.44C149.75,-47.68 120.99,-33.94 99.91,-23.86"/>
<polygon fill="midnightblue" stroke="midnightblue" points="101.35,-20.67 90.82,-19.52 98.33,-26.99 101.35,-20.67"/>
</g>
<!-- Node3 -->
<g id="node3" class="node">
<title>Node3</title>
<g id="a_node3"><a xlink:title=" ">
<polygon fill="none" stroke="#bfbfbf" points="164,-0.5 164,-19.5 208,-19.5 208,-0.5 164,-0.5"/>
<text text-anchor="middle" x="186" y="-7.5" font-family="FreeSans.ttf" font-size="10.00">string</text>
</a>
</g>
</g>
<!-- Node1&#45;&gt;Node3 -->
<g id="edge2" class="edge">
<title>Node1&#45;&gt;Node3</title>
<path fill="none" stroke="midnightblue" d="M186,-56.08C186,-49.01 186,-38.86 186,-29.99"/>
<polygon fill="midnightblue" stroke="midnightblue" points="189.5,-29.75 186,-19.75 182.5,-29.75 189.5,-29.75"/>
</g>
<!-- Node4 -->
<g id="node4" class="node">
<title>Node4</title>
<g id="a_node4"><a xlink:title=" ">
<polygon fill="none" stroke="#bfbfbf" points="226,-0.5 226,-19.5 366,-19.5 366,-0.5 226,-0.5"/>
<text text-anchor="middle" x="296" y="-7.5" font-family="FreeSans.ttf" font-size="10.00">yarp/dev/PolyDriverList.h</text>
</a>
</g>
</g>
<!-- Node1&#45;&gt;Node4 -->
<g id="edge3" class="edge">
<title>Node1&#45;&gt;Node4</title>
<path fill="none" stroke="midnightblue" d="M203.67,-56.32C221.39,-47.62 248.9,-34.12 269.29,-24.11"/>
<polygon fill="midnightblue" stroke="midnightblue" points="270.94,-27.2 278.37,-19.65 267.85,-20.92 270.94,-27.2"/>
</g>
</g>
</svg>
