<?xml version="1.0" encoding="UTF-8" standalone="no"?>
<!DOCTYPE svg PUBLIC "-//W3C//DTD SVG 1.1//EN"
 "http://www.w3.org/Graphics/SVG/1.1/DTD/svg11.dtd">
<!-- Generated by graphviz version 2.43.0 (0)
 -->
<!-- Title: ModelPosePublisher.cc Pages: 1 -->
<svg width="2280pt" height="140pt"
 viewBox="0.00 0.00 2280.00 140.00" xmlns="http://www.w3.org/2000/svg" xmlns:xlink="http://www.w3.org/1999/xlink">
<g id="graph0" class="graph" transform="scale(1 1) rotate(0) translate(4 136)">
<title>ModelPosePublisher.cc</title>
<!-- Node1 -->
<g id="node1" class="node">
<title>Node1</title>
<g id="a_node1"><a xlink:title=" ">
<polygon fill="#bfbfbf" stroke="black" points="944,-112.5 944,-131.5 1072,-131.5 1072,-112.5 944,-112.5"/>
<text text-anchor="middle" x="1008" y="-119.5" font-family="FreeSans.ttf" font-size="10.00">ModelPosePublisher.cc</text>
</a>
</g>
</g>
<!-- Node2 -->
<g id="node2" class="node">
<title>Node2</title>
<g id="a_node2"><a xlink:title=" ">
<polygon fill="none" stroke="#bfbfbf" points="0,-56.5 0,-75.5 140,-75.5 140,-56.5 0,-56.5"/>
<text text-anchor="middle" x="70" y="-63.5" font-family="FreeSans.ttf" font-size="10.00">gazebo/physics/Model.hh</text>
</a>
</g>
</g>
<!-- Node1&#45;&gt;Node2 -->
<g id="edge1" class="edge">
<title>Node1&#45;&gt;Node2</title>
<path fill="none" stroke="midnightblue" d="M943.79,-118.98C802.44,-114.24 453.49,-100.94 150.5,-76.07"/>
<polygon fill="midnightblue" stroke="midnightblue" points="150.44,-72.56 140.19,-75.22 149.87,-79.53 150.44,-72.56"/>
</g>
<!-- Node3 -->
<g id="node3" class="node">
<title>Node3</title>
<g id="a_node3"><a xlink:title=" ">
<polygon fill="none" stroke="#bfbfbf" points="158,-56.5 158,-75.5 288,-75.5 288,-56.5 158,-56.5"/>
<text text-anchor="middle" x="223" y="-63.5" font-family="FreeSans.ttf" font-size="10.00">gazebo/physics/Link.hh</text>
</a>
</g>
</g>
<!-- Node1&#45;&gt;Node3 -->
<g id="edge2" class="edge">
<title>Node1&#45;&gt;Node3</title>
<path fill="none" stroke="midnightblue" d="M943.69,-118.18C820.55,-112.5 542.74,-98.38 298.49,-76.09"/>
<polygon fill="midnightblue" stroke="midnightblue" points="298.63,-72.59 288.35,-75.16 297.99,-79.56 298.63,-72.59"/>
</g>
<!-- Node4 -->
<g id="node4" class="node">
<title>Node4</title>
<g id="a_node4"><a xlink:title=" ">
<polygon fill="none" stroke="#bfbfbf" points="306.5,-56.5 306.5,-75.5 455.5,-75.5 455.5,-56.5 306.5,-56.5"/>
<text text-anchor="middle" x="381" y="-63.5" font-family="FreeSans.ttf" font-size="10.00">gazebo/common/Events.hh</text>
</a>
</g>
</g>
<!-- Node1&#45;&gt;Node4 -->
<g id="edge3" class="edge">
<title>Node1&#45;&gt;Node4</title>
<path fill="none" stroke="midnightblue" d="M943.89,-116.23C844,-108.68 644.91,-93.15 465.78,-76.15"/>
<polygon fill="midnightblue" stroke="midnightblue" points="465.93,-72.65 455.65,-75.19 465.27,-79.62 465.93,-72.65"/>
</g>
<!-- Node5 -->
<g id="node5" class="node">
<title>Node5</title>
<g id="a_node5"><a xlink:title=" ">
<polygon fill="none" stroke="#bfbfbf" points="473.5,-56.5 473.5,-75.5 610.5,-75.5 610.5,-56.5 473.5,-56.5"/>
<text text-anchor="middle" x="542" y="-63.5" font-family="FreeSans.ttf" font-size="10.00">gazebo/physics/World.hh</text>
</a>
</g>
</g>
<!-- Node1&#45;&gt;Node5 -->
<g id="edge4" class="edge">
<title>Node1&#45;&gt;Node5</title>
<path fill="none" stroke="midnightblue" d="M943.98,-113.62C868.99,-104.97 740.72,-90.15 620.93,-76.22"/>
<polygon fill="midnightblue" stroke="midnightblue" points="621.18,-72.73 610.85,-75.05 620.38,-79.68 621.18,-72.73"/>
</g>
<!-- Node6 -->
<g id="node6" class="node">
<title>Node6</title>
<g id="a_node6"><a xlink:title=" ">
<polygon fill="none" stroke="#bfbfbf" points="628.5,-56.5 628.5,-75.5 757.5,-75.5 757.5,-56.5 628.5,-56.5"/>
<text text-anchor="middle" x="693" y="-63.5" font-family="FreeSans.ttf" font-size="10.00">ignition/math/Pose3.hh</text>
</a>
</g>
</g>
<!-- Node1&#45;&gt;Node6 -->
<g id="edge5" class="edge">
<title>Node1&#45;&gt;Node6</title>
<path fill="none" stroke="midnightblue" d="M958.09,-112.44C902.33,-102.89 812.11,-87.42 752.67,-77.23"/>
<polygon fill="midnightblue" stroke="midnightblue" points="753.13,-73.76 742.68,-75.52 751.94,-80.66 753.13,-73.76"/>
</g>
<!-- Node7 -->
<g id="node7" class="node">
<title>Node7</title>
<g id="a_node7"><a xlink:title=" ">
<polygon fill="none" stroke="#bfbfbf" points="775.5,-56.5 775.5,-75.5 912.5,-75.5 912.5,-56.5 775.5,-56.5"/>
<text text-anchor="middle" x="844" y="-63.5" font-family="FreeSans.ttf" font-size="10.00">ignition/math/Vector3.hh</text>
</a>
</g>
</g>
<!-- Node1&#45;&gt;Node7 -->
<g id="edge6" class="edge">
<title>Node1&#45;&gt;Node7</title>
<path fill="none" stroke="midnightblue" d="M982.01,-112.44C954.3,-103.32 910.25,-88.81 879.38,-78.65"/>
<polygon fill="midnightblue" stroke="midnightblue" points="880.46,-75.32 869.86,-75.52 878.27,-81.97 880.46,-75.32"/>
</g>
<!-- Node8 -->
<g id="node8" class="node">
<title>Node8</title>
<g id="a_node8"><a xlink:title=" ">
<polygon fill="none" stroke="#bfbfbf" points="931,-56.5 931,-75.5 1085,-75.5 1085,-56.5 931,-56.5"/>
<text text-anchor="middle" x="1008" y="-63.5" font-family="FreeSans.ttf" font-size="10.00">ignition/math/Quaternion.hh</text>
</a>
</g>
</g>
<!-- Node1&#45;&gt;Node8 -->
<g id="edge7" class="edge">
<title>Node1&#45;&gt;Node8</title>
<path fill="none" stroke="midnightblue" d="M1008,-112.08C1008,-105.01 1008,-94.86 1008,-85.99"/>
<polygon fill="midnightblue" stroke="midnightblue" points="1011.5,-85.75 1008,-75.75 1004.5,-85.75 1011.5,-85.75"/>
</g>
<!-- Node9 -->
<g id="node9" class="node">
<title>Node9</title>
<g id="a_node9"><a xlink:href="common_8h.html" target="_top" xlink:title=" ">
<polygon fill="none" stroke="black" points="1103,-56.5 1103,-75.5 1267,-75.5 1267,-56.5 1103,-56.5"/>
<text text-anchor="middle" x="1185" y="-63.5" font-family="FreeSans.ttf" font-size="10.00">GazeboYarpPlugins/common.h</text>
</a>
</g>
</g>
<!-- Node1&#45;&gt;Node9 -->
<g id="edge8" class="edge">
<title>Node1&#45;&gt;Node9</title>
<path fill="none" stroke="midnightblue" d="M1036.05,-112.44C1066.08,-103.28 1113.91,-88.69 1147.24,-78.52"/>
<polygon fill="midnightblue" stroke="midnightblue" points="1148.54,-81.78 1157.09,-75.52 1146.5,-75.09 1148.54,-81.78"/>
</g>
<!-- Node12 -->
<g id="node12" class="node">
<title>Node12</title>
<g id="a_node12"><a xlink:title=" ">
<polygon fill="none" stroke="#bfbfbf" points="1285,-56.5 1285,-75.5 1367,-75.5 1367,-56.5 1285,-56.5"/>
<text text-anchor="middle" x="1326" y="-63.5" font-family="FreeSans.ttf" font-size="10.00">yarp/os/Log.h</text>
</a>
</g>
</g>
<!-- Node1&#45;&gt;Node12 -->
<g id="edge11" class="edge">
<title>Node1&#45;&gt;Node12</title>
<path fill="none" stroke="midnightblue" d="M1059.91,-112.47C1111.7,-103.92 1193.85,-90.24 1274.47,-76.25"/>
<polygon fill="midnightblue" stroke="midnightblue" points="1275.55,-79.62 1284.81,-74.45 1274.35,-72.72 1275.55,-79.62"/>
</g>
<!-- Node13 -->
<g id="node13" class="node">
<title>Node13</title>
<g id="a_node13"><a xlink:title=" ">
<polygon fill="none" stroke="#bfbfbf" points="1385.5,-56.5 1385.5,-75.5 1502.5,-75.5 1502.5,-56.5 1385.5,-56.5"/>
<text text-anchor="middle" x="1444" y="-63.5" font-family="FreeSans.ttf" font-size="10.00">yarp/os/LogStream.h</text>
</a>
</g>
</g>
<!-- Node1&#45;&gt;Node13 -->
<g id="edge12" class="edge">
<title>Node1&#45;&gt;Node13</title>
<path fill="none" stroke="midnightblue" d="M1072.18,-113.35C1143.48,-104.8 1262.31,-90.43 1375.2,-76.09"/>
<polygon fill="midnightblue" stroke="midnightblue" points="1375.92,-79.53 1385.4,-74.79 1375.04,-72.58 1375.92,-79.53"/>
</g>
<!-- Node14 -->
<g id="node14" class="node">
<title>Node14</title>
<g id="a_node14"><a xlink:title=" ">
<polygon fill="none" stroke="#bfbfbf" points="1521,-56.5 1521,-75.5 1679,-75.5 1679,-56.5 1521,-56.5"/>
<text text-anchor="middle" x="1600" y="-63.5" font-family="FreeSans.ttf" font-size="10.00">yarp/math/FrameTransform.h</text>
</a>
</g>
</g>
<!-- Node1&#45;&gt;Node14 -->
<g id="edge13" class="edge">
<title>Node1&#45;&gt;Node14</title>
<path fill="none" stroke="midnightblue" d="M1072.34,-115.48C1166.05,-107.4 1345.89,-91.67 1510.58,-76.03"/>
<polygon fill="midnightblue" stroke="midnightblue" points="1511.28,-79.48 1520.91,-75.05 1510.62,-72.51 1511.28,-79.48"/>
</g>
<!-- Node15 -->
<g id="node15" class="node">
<title>Node15</title>
<g id="a_node15"><a xlink:title=" ">
<polygon fill="none" stroke="#bfbfbf" points="1696.5,-56.5 1696.5,-75.5 1785.5,-75.5 1785.5,-56.5 1696.5,-56.5"/>
<text text-anchor="middle" x="1741" y="-63.5" font-family="FreeSans.ttf" font-size="10.00">boost/bind.hpp</text>
</a>
</g>
</g>
<!-- Node1&#45;&gt;Node15 -->
<g id="edge14" class="edge">
<title>Node1&#45;&gt;Node15</title>
<path fill="none" stroke="midnightblue" d="M1072.42,-118.93C1191.69,-114.62 1455.09,-102.85 1686.29,-76.1"/>
<polygon fill="midnightblue" stroke="midnightblue" points="1686.7,-79.57 1696.23,-74.93 1685.89,-72.62 1686.7,-79.57"/>
</g>
<!-- Node16 -->
<g id="node16" class="node">
<title>Node16</title>
<g id="a_node16"><a xlink:href="ModelPosePublisher_8hh.html" target="_top" xlink:title=" ">
<polygon fill="none" stroke="black" points="1803.5,-56.5 1803.5,-75.5 1932.5,-75.5 1932.5,-56.5 1803.5,-56.5"/>
<text text-anchor="middle" x="1868" y="-63.5" font-family="FreeSans.ttf" font-size="10.00">ModelPosePublisher.hh</text>
</a>
</g>
</g>
<!-- Node1&#45;&gt;Node16 -->
<g id="edge15" class="edge">
<title>Node1&#45;&gt;Node16</title>
<path fill="none" stroke="midnightblue" d="M1072.12,-118.76C1204.77,-113.81 1519.2,-100.49 1793.01,-76.13"/>
<polygon fill="midnightblue" stroke="midnightblue" points="1793.5,-79.6 1803.14,-75.22 1792.87,-72.63 1793.5,-79.6"/>
</g>
<!-- Node10 -->
<g id="node10" class="node">
<title>Node10</title>
<g id="a_node10"><a xlink:title=" ">
<polygon fill="none" stroke="#bfbfbf" points="1131,-0.5 1131,-19.5 1175,-19.5 1175,-0.5 1131,-0.5"/>
<text text-anchor="middle" x="1153" y="-7.5" font-family="FreeSans.ttf" font-size="10.00">string</text>
</a>
</g>
</g>
<!-- Node9&#45;&gt;Node10 -->
<g id="edge9" class="edge">
<title>Node9&#45;&gt;Node10</title>
<path fill="none" stroke="midnightblue" d="M1179.72,-56.08C1175.29,-48.61 1168.84,-37.72 1163.38,-28.52"/>
<polygon fill="midnightblue" stroke="midnightblue" points="1166.29,-26.57 1158.19,-19.75 1160.27,-30.14 1166.29,-26.57"/>
</g>
<!-- Node11 -->
<g id="node11" class="node">
<title>Node11</title>
<g id="a_node11"><a xlink:title=" ">
<polygon fill="none" stroke="#bfbfbf" points="1193.5,-0.5 1193.5,-19.5 1240.5,-19.5 1240.5,-0.5 1193.5,-0.5"/>
<text text-anchor="middle" x="1217" y="-7.5" font-family="FreeSans.ttf" font-size="10.00">cmath</text>
</a>
</g>
</g>
<!-- Node9&#45;&gt;Node11 -->
<g id="edge10" class="edge">
<title>Node9&#45;&gt;Node11</title>
<path fill="none" stroke="midnightblue" d="M1190.28,-56.08C1194.71,-48.61 1201.16,-37.72 1206.62,-28.52"/>
<polygon fill="midnightblue" stroke="midnightblue" points="1209.73,-30.14 1211.81,-19.75 1203.71,-26.57 1209.73,-30.14"/>
</g>
<!-- Node17 -->
<g id="node17" class="node">
<title>Node17</title>
<g id="a_node17"><a xlink:title=" ">
<polygon fill="none" stroke="#bfbfbf" points="1488,-0.5 1488,-19.5 1634,-19.5 1634,-0.5 1488,-0.5"/>
<text text-anchor="middle" x="1561" y="-7.5" font-family="FreeSans.ttf" font-size="10.00">gazebo/common/Plugin.hh</text>
</a>
</g>
</g>
<!-- Node16&#45;&gt;Node17 -->
<g id="edge16" class="edge">
<title>Node16&#45;&gt;Node17</title>
<path fill="none" stroke="midnightblue" d="M1819.35,-56.44C1765.13,-46.9 1677.45,-31.48 1619.52,-21.29"/>
<polygon fill="midnightblue" stroke="midnightblue" points="1619.87,-17.8 1609.42,-19.52 1618.66,-24.7 1619.87,-17.8"/>
</g>
<!-- Node18 -->
<g id="node18" class="node">
<title>Node18</title>
<g id="a_node18"><a xlink:title=" ">
<polygon fill="none" stroke="#bfbfbf" points="1652,-0.5 1652,-19.5 1758,-19.5 1758,-0.5 1652,-0.5"/>
<text text-anchor="middle" x="1705" y="-7.5" font-family="FreeSans.ttf" font-size="10.00">yarp/os/Network.h</text>
</a>
</g>
</g>
<!-- Node16&#45;&gt;Node18 -->
<g id="edge17" class="edge">
<title>Node16&#45;&gt;Node18</title>
<path fill="none" stroke="midnightblue" d="M1842.17,-56.44C1814.75,-47.36 1771.22,-32.94 1740.57,-22.78"/>
<polygon fill="midnightblue" stroke="midnightblue" points="1741.3,-19.34 1730.71,-19.52 1739.1,-25.98 1741.3,-19.34"/>
</g>
<!-- Node19 -->
<g id="node19" class="node">
<title>Node19</title>
<g id="a_node19"><a xlink:title=" ">
<polygon fill="none" stroke="#bfbfbf" points="1776,-0.5 1776,-19.5 1960,-19.5 1960,-0.5 1776,-0.5"/>
<text text-anchor="middle" x="1868" y="-7.5" font-family="FreeSans.ttf" font-size="10.00">yarp/dev/ControlBoardInterfaces.h</text>
</a>
</g>
</g>
<!-- Node16&#45;&gt;Node19 -->
<g id="edge18" class="edge">
<title>Node16&#45;&gt;Node19</title>
<path fill="none" stroke="midnightblue" d="M1868,-56.08C1868,-49.01 1868,-38.86 1868,-29.99"/>
<polygon fill="midnightblue" stroke="midnightblue" points="1871.5,-29.75 1868,-19.75 1864.5,-29.75 1871.5,-29.75"/>
</g>
<!-- Node20 -->
<g id="node20" class="node">
<title>Node20</title>
<g id="a_node20"><a xlink:title=" ">
<polygon fill="none" stroke="#bfbfbf" points="1978,-0.5 1978,-19.5 2132,-19.5 2132,-0.5 1978,-0.5"/>
<text text-anchor="middle" x="2055" y="-7.5" font-family="FreeSans.ttf" font-size="10.00">yarp/dev/IFrameTransform.h</text>
</a>
</g>
</g>
<!-- Node16&#45;&gt;Node20 -->
<g id="edge19" class="edge">
<title>Node16&#45;&gt;Node20</title>
<path fill="none" stroke="midnightblue" d="M1897.63,-56.44C1929.5,-47.24 1980.33,-32.56 2015.56,-22.39"/>
<polygon fill="midnightblue" stroke="midnightblue" points="2016.87,-25.65 2025.51,-19.52 2014.93,-18.93 2016.87,-25.65"/>
</g>
<!-- Node21 -->
<g id="node21" class="node">
<title>Node21</title>
<g id="a_node21"><a xlink:title=" ">
<polygon fill="none" stroke="#bfbfbf" points="2150,-0.5 2150,-19.5 2272,-19.5 2272,-0.5 2150,-0.5"/>
<text text-anchor="middle" x="2211" y="-7.5" font-family="FreeSans.ttf" font-size="10.00">yarp/dev/PolyDriver.h</text>
</a>
</g>
</g>
<!-- Node16&#45;&gt;Node21 -->
<g id="edge20" class="edge">
<title>Node16&#45;&gt;Node21</title>
<path fill="none" stroke="midnightblue" d="M1922.35,-56.44C1983.31,-46.85 2082.11,-31.29 2146.82,-21.1"/>
<polygon fill="midnightblue" stroke="midnightblue" points="2147.57,-24.53 2156.9,-19.52 2146.48,-17.61 2147.57,-24.53"/>
</g>
</g>
</svg>
