<?xml version="1.0" encoding="UTF-8" standalone="no"?>
<!DOCTYPE svg PUBLIC "-//W3C//DTD SVG 1.1//EN"
 "http://www.w3.org/Graphics/SVG/1.1/DTD/svg11.dtd">
<!-- Generated by graphviz version 2.43.0 (0)
 -->
<!-- Title: ModelPosePublisher.hh Pages: 1 -->
<svg width="792pt" height="84pt"
 viewBox="0.00 0.00 792.00 84.00" xmlns="http://www.w3.org/2000/svg" xmlns:xlink="http://www.w3.org/1999/xlink">
<g id="graph0" class="graph" transform="scale(1 1) rotate(0) translate(4 80)">
<title>ModelPosePublisher.hh</title>
<!-- Node1 -->
<g id="node1" class="node">
<title>Node1</title>
<g id="a_node1"><a xlink:title=" ">
<polygon fill="#bfbfbf" stroke="black" points="315.5,-56.5 315.5,-75.5 444.5,-75.5 444.5,-56.5 315.5,-56.5"/>
<text text-anchor="middle" x="380" y="-63.5" font-family="FreeSans.ttf" font-size="10.00">ModelPosePublisher.hh</text>
</a>
</g>
</g>
<!-- Node2 -->
<g id="node2" class="node">
<title>Node2</title>
<g id="a_node2"><a xlink:title=" ">
<polygon fill="none" stroke="#bfbfbf" points="0,-0.5 0,-19.5 146,-19.5 146,-0.5 0,-0.5"/>
<text text-anchor="middle" x="73" y="-7.5" font-family="FreeSans.ttf" font-size="10.00">gazebo/common/Plugin.hh</text>
</a>
</g>
</g>
<!-- Node1&#45;&gt;Node2 -->
<g id="edge1" class="edge">
<title>Node1&#45;&gt;Node2</title>
<path fill="none" stroke="midnightblue" d="M331.35,-56.44C277.13,-46.9 189.45,-31.48 131.52,-21.29"/>
<polygon fill="midnightblue" stroke="midnightblue" points="131.87,-17.8 121.42,-19.52 130.66,-24.7 131.87,-17.8"/>
</g>
<!-- Node3 -->
<g id="node3" class="node">
<title>Node3</title>
<g id="a_node3"><a xlink:title=" ">
<polygon fill="none" stroke="#bfbfbf" points="164,-0.5 164,-19.5 270,-19.5 270,-0.5 164,-0.5"/>
<text text-anchor="middle" x="217" y="-7.5" font-family="FreeSans.ttf" font-size="10.00">yarp/os/Network.h</text>
</a>
</g>
</g>
<!-- Node1&#45;&gt;Node3 -->
<g id="edge2" class="edge">
<title>Node1&#45;&gt;Node3</title>
<path fill="none" stroke="midnightblue" d="M354.17,-56.44C326.75,-47.36 283.22,-32.94 252.57,-22.78"/>
<polygon fill="midnightblue" stroke="midnightblue" points="253.3,-19.34 242.71,-19.52 251.1,-25.98 253.3,-19.34"/>
</g>
<!-- Node4 -->
<g id="node4" class="node">
<title>Node4</title>
<g id="a_node4"><a xlink:title=" ">
<polygon fill="none" stroke="#bfbfbf" points="288,-0.5 288,-19.5 472,-19.5 472,-0.5 288,-0.5"/>
<text text-anchor="middle" x="380" y="-7.5" font-family="FreeSans.ttf" font-size="10.00">yarp/dev/ControlBoardInterfaces.h</text>
</a>
</g>
</g>
<!-- Node1&#45;&gt;Node4 -->
<g id="edge3" class="edge">
<title>Node1&#45;&gt;Node4</title>
<path fill="none" stroke="midnightblue" d="M380,-56.08C380,-49.01 380,-38.86 380,-29.99"/>
<polygon fill="midnightblue" stroke="midnightblue" points="383.5,-29.75 380,-19.75 376.5,-29.75 383.5,-29.75"/>
</g>
<!-- Node5 -->
<g id="node5" class="node">
<title>Node5</title>
<g id="a_node5"><a xlink:title=" ">
<polygon fill="none" stroke="#bfbfbf" points="490,-0.5 490,-19.5 644,-19.5 644,-0.5 490,-0.5"/>
<text text-anchor="middle" x="567" y="-7.5" font-family="FreeSans.ttf" font-size="10.00">yarp/dev/IFrameTransform.h</text>
</a>
</g>
</g>
<!-- Node1&#45;&gt;Node5 -->
<g id="edge4" class="edge">
<title>Node1&#45;&gt;Node5</title>
<path fill="none" stroke="midnightblue" d="M409.63,-56.44C441.5,-47.24 492.33,-32.56 527.56,-22.39"/>
<polygon fill="midnightblue" stroke="midnightblue" points="528.87,-25.65 537.51,-19.52 526.93,-18.93 528.87,-25.65"/>
</g>
<!-- Node6 -->
<g id="node6" class="node">
<title>Node6</title>
<g id="a_node6"><a xlink:title=" ">
<polygon fill="none" stroke="#bfbfbf" points="662,-0.5 662,-19.5 784,-19.5 784,-0.5 662,-0.5"/>
<text text-anchor="middle" x="723" y="-7.5" font-family="FreeSans.ttf" font-size="10.00">yarp/dev/PolyDriver.h</text>
</a>
</g>
</g>
<!-- Node1&#45;&gt;Node6 -->
<g id="edge5" class="edge">
<title>Node1&#45;&gt;Node6</title>
<path fill="none" stroke="midnightblue" d="M434.35,-56.44C495.31,-46.85 594.11,-31.29 658.82,-21.1"/>
<polygon fill="midnightblue" stroke="midnightblue" points="659.57,-24.53 668.9,-19.52 658.48,-17.61 659.57,-24.53"/>
</g>
</g>
</svg>
