<?xml version="1.0" encoding="UTF-8" standalone="no"?>
<!DOCTYPE svg PUBLIC "-//W3C//DTD SVG 1.1//EN"
 "http://www.w3.org/Graphics/SVG/1.1/DTD/svg11.dtd">
<!-- Generated by graphviz version 2.43.0 (0)
 -->
<!-- Title: MultiCameraPlugin.hh Pages: 1 -->
<svg width="634pt" height="95pt"
 viewBox="0.00 0.00 634.00 95.00" xmlns="http://www.w3.org/2000/svg" xmlns:xlink="http://www.w3.org/1999/xlink">
<g id="graph0" class="graph" transform="scale(1 1) rotate(0) translate(4 91)">
<title>MultiCameraPlugin.hh</title>
<!-- Node1 -->
<g id="node1" class="node">
<title>Node1</title>
<g id="a_node1"><a xlink:title=" ">
<polygon fill="#bfbfbf" stroke="black" points="138.5,-67.5 138.5,-86.5 263.5,-86.5 263.5,-67.5 138.5,-67.5"/>
<text text-anchor="middle" x="201" y="-74.5" font-family="FreeSans.ttf" font-size="10.00">MultiCameraPlugin.hh</text>
</a>
</g>
</g>
<!-- Node2 -->
<g id="node2" class="node">
<title>Node2</title>
<g id="a_node2"><a xlink:title=" ">
<polygon fill="none" stroke="#bfbfbf" points="0,-6 0,-25 44,-25 44,-6 0,-6"/>
<text text-anchor="middle" x="22" y="-13" font-family="FreeSans.ttf" font-size="10.00">string</text>
</a>
</g>
</g>
<!-- Node1&#45;&gt;Node2 -->
<g id="edge1" class="edge">
<title>Node1&#45;&gt;Node2</title>
<path fill="none" stroke="midnightblue" d="M168.22,-67.48C137.92,-59.26 91.86,-45.91 53,-31 51.58,-30.45 50.13,-29.87 48.68,-29.27"/>
<polygon fill="midnightblue" stroke="midnightblue" points="49.75,-25.92 39.19,-25.07 46.92,-32.32 49.75,-25.92"/>
</g>
<!-- Node3 -->
<g id="node3" class="node">
<title>Node3</title>
<g id="a_node3"><a xlink:title=" ">
<polygon fill="none" stroke="#bfbfbf" points="62.5,-6 62.5,-25 109.5,-25 109.5,-6 62.5,-6"/>
<text text-anchor="middle" x="86" y="-13" font-family="FreeSans.ttf" font-size="10.00">vector</text>
</a>
</g>
</g>
<!-- Node1&#45;&gt;Node3 -->
<g id="edge2" class="edge">
<title>Node1&#45;&gt;Node3</title>
<path fill="none" stroke="midnightblue" d="M184.52,-67.48C165.39,-57.58 133.63,-41.14 111.35,-29.62"/>
<polygon fill="midnightblue" stroke="midnightblue" points="112.94,-26.5 102.45,-25.01 109.72,-32.71 112.94,-26.5"/>
</g>
<!-- Node4 -->
<g id="node4" class="node">
<title>Node4</title>
<g id="a_node4"><a xlink:title=" ">
<polygon fill="none" stroke="#bfbfbf" points="128,-6 128,-25 274,-25 274,-6 128,-6"/>
<text text-anchor="middle" x="201" y="-13" font-family="FreeSans.ttf" font-size="10.00">gazebo/common/Plugin.hh</text>
</a>
</g>
</g>
<!-- Node1&#45;&gt;Node4 -->
<g id="edge3" class="edge">
<title>Node1&#45;&gt;Node4</title>
<path fill="none" stroke="midnightblue" d="M201,-67.48C201,-59.08 201,-45.98 201,-35.16"/>
<polygon fill="midnightblue" stroke="midnightblue" points="204.5,-35.01 201,-25.01 197.5,-35.01 204.5,-35.01"/>
</g>
<!-- Node5 -->
<g id="node5" class="node">
<title>Node5</title>
<g id="a_node5"><a xlink:title=" ">
<polygon fill="none" stroke="#bfbfbf" points="292,-0.5 292,-30.5 450,-30.5 450,-0.5 292,-0.5"/>
<text text-anchor="start" x="300" y="-18.5" font-family="FreeSans.ttf" font-size="10.00">gazebo/sensors/MultiCamera</text>
<text text-anchor="middle" x="371" y="-7.5" font-family="FreeSans.ttf" font-size="10.00">Sensor.hh</text>
</a>
</g>
</g>
<!-- Node1&#45;&gt;Node5 -->
<g id="edge4" class="edge">
<title>Node1&#45;&gt;Node5</title>
<path fill="none" stroke="midnightblue" d="M225.36,-67.48C250.32,-58.74 289.84,-44.91 321.41,-33.86"/>
<polygon fill="midnightblue" stroke="midnightblue" points="322.65,-37.13 330.93,-30.52 320.34,-30.52 322.65,-37.13"/>
</g>
<!-- Node6 -->
<g id="node6" class="node">
<title>Node6</title>
<g id="a_node6"><a xlink:title=" ">
<polygon fill="none" stroke="#bfbfbf" points="468,-6 468,-25 626,-25 626,-6 468,-6"/>
<text text-anchor="middle" x="547" y="-13" font-family="FreeSans.ttf" font-size="10.00">gazebo/rendering/Camera.hh</text>
</a>
</g>
</g>
<!-- Node1&#45;&gt;Node6 -->
<g id="edge5" class="edge">
<title>Node1&#45;&gt;Node6</title>
<path fill="none" stroke="midnightblue" d="M250.57,-67.48C313.14,-56.72 420.64,-38.23 487.55,-26.72"/>
<polygon fill="midnightblue" stroke="midnightblue" points="488.26,-30.15 497.52,-25.01 487.07,-23.25 488.26,-30.15"/>
</g>
</g>
</svg>
