<?xml version="1.0" encoding="UTF-8" standalone="no"?>
<!DOCTYPE svg PUBLIC "-//W3C//DTD SVG 1.1//EN"
 "http://www.w3.org/Graphics/SVG/1.1/DTD/svg11.dtd">
<!-- Generated by graphviz version 2.49.0 (20210829.0051)
 -->
<!-- Title: MultiCamera.cc Pages: 1 -->
<svg width="2746pt" height="229pt"
 viewBox="0.00 0.00 2745.50 229.00" xmlns="http://www.w3.org/2000/svg" xmlns:xlink="http://www.w3.org/1999/xlink">
<g id="graph0" class="graph" transform="scale(1 1) rotate(0) translate(4 225)">
<title>MultiCamera.cc</title>
<!-- Node1 -->
<g id="node1" class="node">
<title>Node1</title>
<g id="a_node1"><a xlink:title=" ">
<polygon fill="#bfbfbf" stroke="black" points="1773.5,-201.5 1773.5,-220.5 1866.5,-220.5 1866.5,-201.5 1773.5,-201.5"/>
<text text-anchor="middle" x="1820" y="-208.5" font-family="FreeSans.ttf" font-size="10.00">MultiCamera.cc</text>
</a>
</g>
</g>
<!-- Node2 -->
<g id="node2" class="node">
<title>Node2</title>
<g id="a_node2"><a xlink:href="MultiCamera_8hh.html" target="_top" xlink:title=" ">
<polygon fill="none" stroke="black" points="307.5,-140 307.5,-159 440.5,-159 440.5,-140 307.5,-140"/>
<text text-anchor="middle" x="374" y="-147" font-family="FreeSans.ttf" font-size="10.00">gazebo/MultiCamera.hh</text>
</a>
</g>
</g>
<!-- Node1&#45;&gt;Node2 -->
<g id="edge1" class="edge">
<title>Node1&#45;&gt;Node2</title>
<path fill="none" stroke="midnightblue" d="M1773.12,-208.07C1563.7,-199.45 712.64,-164.43 450.94,-153.67"/>
<polygon fill="midnightblue" stroke="midnightblue" points="450.9,-150.16 440.77,-153.25 450.62,-157.16 450.9,-150.16"/>
</g>
<!-- Node7 -->
<g id="node7" class="node">
<title>Node7</title>
<g id="a_node7"><a xlink:title=" ">
<polygon fill="none" stroke="#bfbfbf" points="1269,-0.5 1269,-30.5 1427,-30.5 1427,-0.5 1269,-0.5"/>
<text text-anchor="start" x="1277" y="-18.5" font-family="FreeSans.ttf" font-size="10.00">gazebo/sensors/MultiCamera</text>
<text text-anchor="middle" x="1348" y="-7.5" font-family="FreeSans.ttf" font-size="10.00">Sensor.hh</text>
</a>
</g>
</g>
<!-- Node1&#45;&gt;Node7 -->
<g id="edge41" class="edge">
<title>Node1&#45;&gt;Node7</title>
<path fill="none" stroke="midnightblue" d="M1773.42,-209.33C1690.36,-205.77 1515.08,-187.37 1405,-98 1385.43,-82.11 1369.65,-57.85 1359.69,-39.92"/>
<polygon fill="midnightblue" stroke="midnightblue" points="1362.57,-37.88 1354.78,-30.71 1356.4,-41.18 1362.57,-37.88"/>
</g>
<!-- Node9 -->
<g id="node9" class="node">
<title>Node9</title>
<g id="a_node9"><a xlink:title=" ">
<polygon fill="none" stroke="#bfbfbf" points="1414,-73 1414,-92 1536,-92 1536,-73 1414,-73"/>
<text text-anchor="middle" x="1475" y="-80" font-family="FreeSans.ttf" font-size="10.00">yarp/dev/PolyDriver.h</text>
</a>
</g>
</g>
<!-- Node1&#45;&gt;Node9 -->
<g id="edge46" class="edge">
<title>Node1&#45;&gt;Node9</title>
<path fill="none" stroke="midnightblue" d="M1773.48,-202.14C1734.85,-194.85 1678.85,-182.47 1632,-165 1581.89,-146.32 1527.3,-115.34 1497.52,-97.44"/>
<polygon fill="midnightblue" stroke="midnightblue" points="1499.12,-94.31 1488.75,-92.12 1495.49,-100.3 1499.12,-94.31"/>
</g>
<!-- Node11 -->
<g id="node11" class="node">
<title>Node11</title>
<g id="a_node11"><a xlink:href="MultiCameraLog_8h.html" target="_top" xlink:title=" ">
<polygon fill="none" stroke="black" points="2029,-140 2029,-159 2173,-159 2173,-140 2029,-140"/>
<text text-anchor="middle" x="2101" y="-147" font-family="FreeSans.ttf" font-size="10.00">gazebo/MultiCameraLog.h</text>
</a>
</g>
</g>
<!-- Node1&#45;&gt;Node11 -->
<g id="edge12" class="edge">
<title>Node1&#45;&gt;Node11</title>
<path fill="none" stroke="midnightblue" d="M1860.26,-201.48C1910.44,-190.85 1996.23,-172.68 2050.69,-161.15"/>
<polygon fill="midnightblue" stroke="midnightblue" points="2051.76,-164.5 2060.81,-159.01 2050.31,-157.66 2051.76,-164.5"/>
</g>
<!-- Node13 -->
<g id="node13" class="node">
<title>Node13</title>
<g id="a_node13"><a xlink:title=" ">
<polygon fill="none" stroke="#bfbfbf" points="2620.5,-73 2620.5,-92 2737.5,-92 2737.5,-73 2620.5,-73"/>
<text text-anchor="middle" x="2679" y="-80" font-family="FreeSans.ttf" font-size="10.00">yarp/os/LogStream.h</text>
</a>
</g>
</g>
<!-- Node1&#45;&gt;Node13 -->
<g id="edge45" class="edge">
<title>Node1&#45;&gt;Node13</title>
<path fill="none" stroke="midnightblue" d="M1866.71,-207.34C1951.26,-202.01 2126.09,-188.48 2182,-165 2202.41,-156.43 2200.45,-142.25 2221,-134 2382.53,-69.14 2438.91,-124.2 2611,-98 2618.14,-96.91 2625.65,-95.54 2632.98,-94.08"/>
<polygon fill="midnightblue" stroke="midnightblue" points="2633.71,-97.5 2642.8,-92.05 2632.29,-90.65 2633.71,-97.5"/>
</g>
<!-- Node14 -->
<g id="node14" class="node">
<title>Node14</title>
<g id="a_node14"><a xlink:href="MultiCameraDriver_8h.html" target="_top" xlink:title=" ">
<polygon fill="none" stroke="black" points="1056,-140 1056,-159 1220,-159 1220,-140 1056,-140"/>
<text text-anchor="middle" x="1138" y="-147" font-family="FreeSans.ttf" font-size="10.00">yarp/dev/MultiCameraDriver.h</text>
</a>
</g>
</g>
<!-- Node1&#45;&gt;Node14 -->
<g id="edge15" class="edge">
<title>Node1&#45;&gt;Node14</title>
<path fill="none" stroke="midnightblue" d="M1773.39,-205.93C1661.92,-196.21 1378.25,-171.46 1230.56,-158.57"/>
<polygon fill="midnightblue" stroke="midnightblue" points="1230.43,-155.05 1220.16,-157.67 1229.82,-162.02 1230.43,-155.05"/>
</g>
<!-- Node22 -->
<g id="node22" class="node">
<title>Node22</title>
<g id="a_node22"><a xlink:href="Handler_8hh.html" target="_top" xlink:title=" ">
<polygon fill="none" stroke="black" points="1641,-140 1641,-159 1805,-159 1805,-140 1641,-140"/>
<text text-anchor="middle" x="1723" y="-147" font-family="FreeSans.ttf" font-size="10.00">GazeboYarpPlugins/Handler.hh</text>
</a>
</g>
</g>
<!-- Node1&#45;&gt;Node22 -->
<g id="edge26" class="edge">
<title>Node1&#45;&gt;Node22</title>
<path fill="none" stroke="midnightblue" d="M1806.1,-201.48C1790.33,-191.8 1764.36,-175.87 1745.65,-164.39"/>
<polygon fill="midnightblue" stroke="midnightblue" points="1747.23,-161.25 1736.87,-159.01 1743.57,-167.22 1747.23,-161.25"/>
</g>
<!-- Node26 -->
<g id="node26" class="node">
<title>Node26</title>
<g id="a_node26"><a xlink:href="common_8h.html" target="_top" xlink:title=" ">
<polygon fill="none" stroke="black" points="0,-140 0,-159 164,-159 164,-140 0,-140"/>
<text text-anchor="middle" x="82" y="-147" font-family="FreeSans.ttf" font-size="10.00">GazeboYarpPlugins/common.h</text>
</a>
</g>
</g>
<!-- Node1&#45;&gt;Node26 -->
<g id="edge33" class="edge">
<title>Node1&#45;&gt;Node26</title>
<path fill="none" stroke="midnightblue" d="M1773.27,-209.26C1587.02,-206.16 879.56,-193.11 298,-165 257.34,-163.03 212.41,-160.14 174.11,-157.45"/>
<polygon fill="midnightblue" stroke="midnightblue" points="174.24,-153.95 164.01,-156.73 173.74,-160.93 174.24,-153.95"/>
</g>
<!-- Node28 -->
<g id="node28" class="node">
<title>Node28</title>
<g id="a_node28"><a xlink:href="ConfHelpers_8hh.html" target="_top" xlink:title=" ">
<polygon fill="none" stroke="black" points="1823.5,-140 1823.5,-159 2010.5,-159 2010.5,-140 1823.5,-140"/>
<text text-anchor="middle" x="1917" y="-147" font-family="FreeSans.ttf" font-size="10.00">GazeboYarpPlugins/ConfHelpers.hh</text>
</a>
</g>
</g>
<!-- Node1&#45;&gt;Node28 -->
<g id="edge36" class="edge">
<title>Node1&#45;&gt;Node28</title>
<path fill="none" stroke="midnightblue" d="M1833.9,-201.48C1849.67,-191.8 1875.64,-175.87 1894.35,-164.39"/>
<polygon fill="midnightblue" stroke="midnightblue" points="1896.43,-167.22 1903.13,-159.01 1892.77,-161.25 1896.43,-167.22"/>
</g>
<!-- Node31 -->
<g id="node31" class="node">
<title>Node31</title>
<g id="a_node31"><a xlink:title=" ">
<polygon fill="none" stroke="#bfbfbf" points="2229.5,-134.5 2229.5,-164.5 2392.5,-164.5 2392.5,-134.5 2229.5,-134.5"/>
<text text-anchor="start" x="2237.5" y="-152.5" font-family="FreeSans.ttf" font-size="10.00">gazebo/sensors/DepthCamera</text>
<text text-anchor="middle" x="2311" y="-141.5" font-family="FreeSans.ttf" font-size="10.00">Sensor.hh</text>
</a>
</g>
</g>
<!-- Node1&#45;&gt;Node31 -->
<g id="edge42" class="edge">
<title>Node1&#45;&gt;Node31</title>
<path fill="none" stroke="midnightblue" d="M1866.59,-205.25C1940.53,-197.58 2089.27,-181.65 2215,-165 2216.46,-164.81 2217.94,-164.61 2219.42,-164.41"/>
<polygon fill="midnightblue" stroke="midnightblue" points="2219.9,-167.88 2229.33,-163.04 2218.94,-160.94 2219.9,-167.88"/>
</g>
<!-- Node32 -->
<g id="node32" class="node">
<title>Node32</title>
<g id="a_node32"><a xlink:title=" ">
<polygon fill="none" stroke="#bfbfbf" points="2410.5,-140 2410.5,-159 2591.5,-159 2591.5,-140 2410.5,-140"/>
<text text-anchor="middle" x="2501" y="-147" font-family="FreeSans.ttf" font-size="10.00">gazebo/sensors/CameraSensor.hh</text>
</a>
</g>
</g>
<!-- Node1&#45;&gt;Node32 -->
<g id="edge43" class="edge">
<title>Node1&#45;&gt;Node32</title>
<path fill="none" stroke="midnightblue" d="M1866.87,-207.46C1965.9,-201.87 2203.59,-187.17 2402,-165 2413.42,-163.72 2425.54,-162.14 2437.24,-160.49"/>
<polygon fill="midnightblue" stroke="midnightblue" points="2437.99,-163.92 2447.39,-159.03 2437,-156.99 2437.99,-163.92"/>
</g>
<!-- Node33 -->
<g id="node33" class="node">
<title>Node33</title>
<g id="a_node33"><a xlink:title=" ">
<polygon fill="none" stroke="#bfbfbf" points="2610,-140 2610,-159 2716,-159 2716,-140 2610,-140"/>
<text text-anchor="middle" x="2663" y="-147" font-family="FreeSans.ttf" font-size="10.00">yarp/os/Network.h</text>
</a>
</g>
</g>
<!-- Node1&#45;&gt;Node33 -->
<g id="edge44" class="edge">
<title>Node1&#45;&gt;Node33</title>
<path fill="none" stroke="midnightblue" d="M1866.94,-210.1C1988.76,-209.76 2324.77,-204.95 2601,-165 2607.69,-164.03 2614.72,-162.7 2621.55,-161.23"/>
<polygon fill="midnightblue" stroke="midnightblue" points="2622.36,-164.64 2631.34,-159.01 2620.81,-157.81 2622.36,-164.64"/>
</g>
<!-- Node3 -->
<g id="node3" class="node">
<title>Node3</title>
<g id="a_node3"><a xlink:title=" ">
<polygon fill="none" stroke="#bfbfbf" points="136,-6 136,-25 282,-25 282,-6 136,-6"/>
<text text-anchor="middle" x="209" y="-13" font-family="FreeSans.ttf" font-size="10.00">gazebo/common/Plugin.hh</text>
</a>
</g>
</g>
<!-- Node2&#45;&gt;Node3 -->
<g id="edge2" class="edge">
<title>Node2&#45;&gt;Node3</title>
<path fill="none" stroke="midnightblue" d="M314.5,-139.97C267.03,-131.81 206.07,-117.8 191,-98 176.78,-79.32 187.76,-51.65 197.75,-33.84"/>
<polygon fill="midnightblue" stroke="midnightblue" points="200.86,-35.46 203.03,-25.08 194.87,-31.84 200.86,-35.46"/>
</g>
<!-- Node4 -->
<g id="node4" class="node">
<title>Node4</title>
<g id="a_node4"><a xlink:href="MultiCameraPlugin_8hh.html" target="_top" xlink:title=" ">
<polygon fill="none" stroke="black" points="200,-67.5 200,-97.5 356,-97.5 356,-67.5 200,-67.5"/>
<text text-anchor="start" x="208" y="-85.5" font-family="FreeSans.ttf" font-size="10.00">gazebo/plugins/MultiCamera</text>
<text text-anchor="middle" x="278" y="-74.5" font-family="FreeSans.ttf" font-size="10.00">Plugin.hh</text>
</a>
</g>
</g>
<!-- Node2&#45;&gt;Node4 -->
<g id="edge3" class="edge">
<title>Node2&#45;&gt;Node4</title>
<path fill="none" stroke="midnightblue" d="M361.05,-139.73C347.33,-130.44 325.2,-115.46 307.24,-103.3"/>
<polygon fill="midnightblue" stroke="midnightblue" points="309.05,-100.3 298.81,-97.59 305.13,-106.09 309.05,-100.3"/>
</g>
<!-- Node5 -->
<g id="node5" class="node">
<title>Node5</title>
<g id="a_node5"><a xlink:title=" ">
<polygon fill="none" stroke="#bfbfbf" points="74,-6 74,-25 118,-25 118,-6 74,-6"/>
<text text-anchor="middle" x="96" y="-13" font-family="FreeSans.ttf" font-size="10.00">string</text>
</a>
</g>
</g>
<!-- Node2&#45;&gt;Node5 -->
<g id="edge11" class="edge">
<title>Node2&#45;&gt;Node5</title>
<path fill="none" stroke="midnightblue" d="M309.21,-139.98C270.2,-132.86 220.59,-120.16 181,-98 151.12,-81.28 123.96,-51.56 108.74,-33"/>
<polygon fill="midnightblue" stroke="midnightblue" points="111.43,-30.75 102.45,-25.12 105.96,-35.12 111.43,-30.75"/>
</g>
<!-- Node2&#45;&gt;Node9 -->
<g id="edge9" class="edge">
<title>Node2&#45;&gt;Node9</title>
<path fill="none" stroke="midnightblue" d="M440.57,-146.02C596.06,-139.99 995.17,-123.21 1328,-98 1352.72,-96.13 1379.74,-93.6 1403.79,-91.18"/>
<polygon fill="midnightblue" stroke="midnightblue" points="1404.31,-94.65 1413.9,-90.15 1403.6,-87.68 1404.31,-94.65"/>
</g>
<!-- Node10 -->
<g id="node10" class="node">
<title>Node10</title>
<g id="a_node10"><a xlink:title=" ">
<polygon fill="none" stroke="#bfbfbf" points="374,-73 374,-92 564,-92 564,-73 374,-73"/>
<text text-anchor="middle" x="469" y="-80" font-family="FreeSans.ttf" font-size="10.00">yarp/dev/FrameGrabberInterfaces.h</text>
</a>
</g>
</g>
<!-- Node2&#45;&gt;Node10 -->
<g id="edge10" class="edge">
<title>Node2&#45;&gt;Node10</title>
<path fill="none" stroke="midnightblue" d="M386.81,-139.73C402.48,-129.01 429.22,-110.72 447.93,-97.91"/>
<polygon fill="midnightblue" stroke="midnightblue" points="450.11,-100.66 456.39,-92.13 446.16,-94.89 450.11,-100.66"/>
</g>
<!-- Node4&#45;&gt;Node3 -->
<g id="edge6" class="edge">
<title>Node4&#45;&gt;Node3</title>
<path fill="none" stroke="midnightblue" d="M263.03,-67.4C252.06,-57.06 237.16,-43.02 225.78,-32.31"/>
<polygon fill="midnightblue" stroke="midnightblue" points="227.91,-29.5 218.23,-25.19 223.11,-34.6 227.91,-29.5"/>
</g>
<!-- Node4&#45;&gt;Node5 -->
<g id="edge4" class="edge">
<title>Node4&#45;&gt;Node5</title>
<path fill="none" stroke="midnightblue" d="M231.58,-67.49C201.45,-58.03 161.53,-44.79 127,-31 125.62,-30.45 124.22,-29.87 122.8,-29.27"/>
<polygon fill="midnightblue" stroke="midnightblue" points="124.11,-26.02 113.55,-25.14 121.26,-32.41 124.11,-26.02"/>
</g>
<!-- Node6 -->
<g id="node6" class="node">
<title>Node6</title>
<g id="a_node6"><a xlink:title=" ">
<polygon fill="none" stroke="#bfbfbf" points="300.5,-6 300.5,-25 347.5,-25 347.5,-6 300.5,-6"/>
<text text-anchor="middle" x="324" y="-13" font-family="FreeSans.ttf" font-size="10.00">vector</text>
</a>
</g>
</g>
<!-- Node4&#45;&gt;Node6 -->
<g id="edge5" class="edge">
<title>Node4&#45;&gt;Node6</title>
<path fill="none" stroke="midnightblue" d="M287.98,-67.4C295.01,-57.46 304.46,-44.11 311.92,-33.57"/>
<polygon fill="midnightblue" stroke="midnightblue" points="314.93,-35.38 317.85,-25.19 309.21,-31.34 314.93,-35.38"/>
</g>
<!-- Node4&#45;&gt;Node7 -->
<g id="edge7" class="edge">
<title>Node4&#45;&gt;Node7</title>
<path fill="none" stroke="midnightblue" d="M356.2,-68.04C359.17,-67.66 362.11,-67.31 365,-67 693.14,-31.34 1085.71,-20.74 1258.68,-17.69"/>
<polygon fill="midnightblue" stroke="midnightblue" points="1258.82,-21.19 1268.76,-17.52 1258.7,-14.19 1258.82,-21.19"/>
</g>
<!-- Node8 -->
<g id="node8" class="node">
<title>Node8</title>
<g id="a_node8"><a xlink:title=" ">
<polygon fill="none" stroke="#bfbfbf" points="497,-6 497,-25 655,-25 655,-6 497,-6"/>
<text text-anchor="middle" x="576" y="-13" font-family="FreeSans.ttf" font-size="10.00">gazebo/rendering/Camera.hh</text>
</a>
</g>
</g>
<!-- Node4&#45;&gt;Node8 -->
<g id="edge8" class="edge">
<title>Node4&#45;&gt;Node8</title>
<path fill="none" stroke="midnightblue" d="M342.29,-67.48C397.68,-55.4 476.45,-38.21 526.89,-27.21"/>
<polygon fill="midnightblue" stroke="midnightblue" points="527.88,-30.58 536.9,-25.03 526.38,-23.74 527.88,-30.58"/>
</g>
<!-- Node12 -->
<g id="node12" class="node">
<title>Node12</title>
<g id="a_node12"><a xlink:title=" ">
<polygon fill="none" stroke="#bfbfbf" points="2464,-73 2464,-92 2602,-92 2602,-73 2464,-73"/>
<text text-anchor="middle" x="2533" y="-80" font-family="FreeSans.ttf" font-size="10.00">yarp/os/LogComponent.h</text>
</a>
</g>
</g>
<!-- Node11&#45;&gt;Node12 -->
<g id="edge13" class="edge">
<title>Node11&#45;&gt;Node12</title>
<path fill="none" stroke="midnightblue" d="M2150.07,-139.93C2162.13,-137.91 2175.02,-135.81 2187,-134 2305.83,-116.01 2336.33,-116.99 2455,-98 2462.93,-96.73 2471.29,-95.29 2479.48,-93.82"/>
<polygon fill="midnightblue" stroke="midnightblue" points="2480.13,-97.26 2489.34,-92.02 2478.87,-90.37 2480.13,-97.26"/>
</g>
<!-- Node11&#45;&gt;Node13 -->
<g id="edge14" class="edge">
<title>Node11&#45;&gt;Node13</title>
<path fill="none" stroke="midnightblue" d="M2147.31,-139.97C2160.14,-137.81 2174.08,-135.63 2187,-134 2374.63,-110.26 2423.93,-125.78 2611,-98 2618.22,-96.93 2625.83,-95.55 2633.24,-94.08"/>
<polygon fill="midnightblue" stroke="midnightblue" points="2634.07,-97.48 2643.16,-92.02 2632.65,-90.62 2634.07,-97.48"/>
</g>
<!-- Node14&#45;&gt;Node7 -->
<g id="edge24" class="edge">
<title>Node14&#45;&gt;Node7</title>
<path fill="none" stroke="midnightblue" d="M1220,-145.29C1257.58,-139.62 1299.91,-126.63 1328,-98 1342.77,-82.94 1347.23,-58.85 1348.32,-40.76"/>
<polygon fill="midnightblue" stroke="midnightblue" points="1351.82,-40.76 1348.62,-30.66 1344.82,-40.55 1351.82,-40.76"/>
</g>
<!-- Node14&#45;&gt;Node8 -->
<g id="edge23" class="edge">
<title>Node14&#45;&gt;Node8</title>
<path fill="none" stroke="midnightblue" d="M1055.72,-142.82C961.35,-135.36 813.07,-120.53 762,-98 742.37,-89.34 743.7,-77.51 725,-67 693.02,-49.02 653.58,-36.01 623.31,-27.7"/>
<polygon fill="midnightblue" stroke="midnightblue" points="623.99,-24.26 613.42,-25.06 622.18,-31.02 623.99,-24.26"/>
</g>
<!-- Node14&#45;&gt;Node10 -->
<g id="edge17" class="edge">
<title>Node14&#45;&gt;Node10</title>
<path fill="none" stroke="midnightblue" d="M1055.53,-142.41C945.38,-133.99 744.23,-117.58 573,-98 561.18,-96.65 548.64,-95.05 536.5,-93.4"/>
<polygon fill="midnightblue" stroke="midnightblue" points="536.81,-89.91 526.42,-92.02 535.86,-96.85 536.81,-89.91"/>
</g>
<!-- Node15 -->
<g id="node15" class="node">
<title>Node15</title>
<g id="a_node15"><a xlink:title=" ">
<polygon fill="none" stroke="#bfbfbf" points="582,-73 582,-92 716,-92 716,-73 582,-73"/>
<text text-anchor="middle" x="649" y="-80" font-family="FreeSans.ttf" font-size="10.00">yarp/dev/DeviceDriver.h</text>
</a>
</g>
</g>
<!-- Node14&#45;&gt;Node15 -->
<g id="edge16" class="edge">
<title>Node14&#45;&gt;Node15</title>
<path fill="none" stroke="midnightblue" d="M1058.85,-139.98C976.52,-130.83 843.97,-115.24 730,-98 721.67,-96.74 712.89,-95.29 704.3,-93.81"/>
<polygon fill="midnightblue" stroke="midnightblue" points="704.79,-90.34 694.34,-92.06 703.58,-97.24 704.79,-90.34"/>
</g>
<!-- Node16 -->
<g id="node16" class="node">
<title>Node16</title>
<g id="a_node16"><a xlink:title=" ">
<polygon fill="none" stroke="#bfbfbf" points="771.5,-73 771.5,-92 930.5,-92 930.5,-73 771.5,-73"/>
<text text-anchor="middle" x="851" y="-80" font-family="FreeSans.ttf" font-size="10.00">yarp/dev/IRgbVisualParams.h</text>
</a>
</g>
</g>
<!-- Node14&#45;&gt;Node16 -->
<g id="edge18" class="edge">
<title>Node14&#45;&gt;Node16</title>
<path fill="none" stroke="midnightblue" d="M1100.18,-139.94C1048.35,-128.2 955.23,-107.11 898.67,-94.3"/>
<polygon fill="midnightblue" stroke="midnightblue" points="899.43,-90.88 888.9,-92.08 897.88,-97.71 899.43,-90.88"/>
</g>
<!-- Node17 -->
<g id="node17" class="node">
<title>Node17</title>
<g id="a_node17"><a xlink:title=" ">
<polygon fill="none" stroke="#bfbfbf" points="949,-73 949,-92 1045,-92 1045,-73 949,-73"/>
<text text-anchor="middle" x="997" y="-80" font-family="FreeSans.ttf" font-size="10.00">yarp/os/Stamp.h</text>
</a>
</g>
</g>
<!-- Node14&#45;&gt;Node17 -->
<g id="edge19" class="edge">
<title>Node14&#45;&gt;Node17</title>
<path fill="none" stroke="midnightblue" d="M1119.28,-139.87C1095.15,-128.75 1053,-109.32 1025.05,-96.43"/>
<polygon fill="midnightblue" stroke="midnightblue" points="1026.35,-93.18 1015.8,-92.17 1023.42,-99.53 1026.35,-93.18"/>
</g>
<!-- Node18 -->
<g id="node18" class="node">
<title>Node18</title>
<g id="a_node18"><a xlink:title=" ">
<polygon fill="none" stroke="#bfbfbf" points="1063.5,-73 1063.5,-92 1212.5,-92 1212.5,-73 1063.5,-73"/>
<text text-anchor="middle" x="1138" y="-80" font-family="FreeSans.ttf" font-size="10.00">yarp/dev/IPreciselyTimed.h</text>
</a>
</g>
</g>
<!-- Node14&#45;&gt;Node18 -->
<g id="edge20" class="edge">
<title>Node14&#45;&gt;Node18</title>
<path fill="none" stroke="midnightblue" d="M1138,-139.73C1138,-130.18 1138,-114.62 1138,-102.28"/>
<polygon fill="midnightblue" stroke="midnightblue" points="1141.5,-102.13 1138,-92.13 1134.5,-102.13 1141.5,-102.13"/>
</g>
<!-- Node19 -->
<g id="node19" class="node">
<title>Node19</title>
<g id="a_node19"><a xlink:title=" ">
<polygon fill="none" stroke="#bfbfbf" points="1230.5,-73 1230.5,-92 1319.5,-92 1319.5,-73 1230.5,-73"/>
<text text-anchor="middle" x="1275" y="-80" font-family="FreeSans.ttf" font-size="10.00">yarp/os/Time.h</text>
</a>
</g>
</g>
<!-- Node14&#45;&gt;Node19 -->
<g id="edge21" class="edge">
<title>Node14&#45;&gt;Node19</title>
<path fill="none" stroke="midnightblue" d="M1156.19,-139.87C1179.53,-128.8 1220.23,-109.49 1247.39,-96.6"/>
<polygon fill="midnightblue" stroke="midnightblue" points="1249.2,-99.62 1256.73,-92.17 1246.2,-93.29 1249.2,-99.62"/>
</g>
<!-- Node20 -->
<g id="node20" class="node">
<title>Node20</title>
<g id="a_node20"><a xlink:title=" ">
<polygon fill="none" stroke="#bfbfbf" points="1834.5,-73 1834.5,-92 1953.5,-92 1953.5,-73 1834.5,-73"/>
<text text-anchor="middle" x="1894" y="-80" font-family="FreeSans.ttf" font-size="10.00">boost/shared_ptr.hpp</text>
</a>
</g>
</g>
<!-- Node14&#45;&gt;Node20 -->
<g id="edge22" class="edge">
<title>Node14&#45;&gt;Node20</title>
<path fill="none" stroke="midnightblue" d="M1220.07,-146.02C1349.29,-141.31 1607.85,-128.66 1825,-98 1832.5,-96.94 1840.41,-95.55 1848.08,-94.04"/>
<polygon fill="midnightblue" stroke="midnightblue" points="1848.9,-97.45 1857.99,-92.02 1847.49,-90.59 1848.9,-97.45"/>
</g>
<!-- Node21 -->
<g id="node21" class="node">
<title>Node21</title>
<g id="a_node21"><a xlink:title=" ">
<polygon fill="none" stroke="#bfbfbf" points="1554,-73 1554,-92 1602,-92 1602,-73 1554,-73"/>
<text text-anchor="middle" x="1578" y="-80" font-family="FreeSans.ttf" font-size="10.00">mutex</text>
</a>
</g>
</g>
<!-- Node14&#45;&gt;Node21 -->
<g id="edge25" class="edge">
<title>Node14&#45;&gt;Node21</title>
<path fill="none" stroke="midnightblue" d="M1220.05,-145.3C1303.23,-140.45 1434.99,-128.29 1545,-98 1547.16,-97.41 1549.35,-96.7 1551.54,-95.91"/>
<polygon fill="midnightblue" stroke="midnightblue" points="1552.91,-99.13 1560.88,-92.15 1550.29,-92.64 1552.91,-99.13"/>
</g>
<!-- Node22&#45;&gt;Node9 -->
<g id="edge31" class="edge">
<title>Node22&#45;&gt;Node9</title>
<path fill="none" stroke="midnightblue" d="M1690.32,-139.94C1645.99,-128.32 1566.73,-107.54 1517.72,-94.7"/>
<polygon fill="midnightblue" stroke="midnightblue" points="1518.31,-91.23 1507.75,-92.08 1516.53,-98 1518.31,-91.23"/>
</g>
<!-- Node22&#45;&gt;Node20 -->
<g id="edge29" class="edge">
<title>Node22&#45;&gt;Node20</title>
<path fill="none" stroke="midnightblue" d="M1745.71,-139.87C1775.56,-128.52 1828.17,-108.52 1862.03,-95.65"/>
<polygon fill="midnightblue" stroke="midnightblue" points="1863.37,-98.89 1871.47,-92.06 1860.88,-92.35 1863.37,-98.89"/>
</g>
<!-- Node22&#45;&gt;Node21 -->
<g id="edge30" class="edge">
<title>Node22&#45;&gt;Node21</title>
<path fill="none" stroke="midnightblue" d="M1703.75,-139.87C1678.83,-128.7 1635.21,-109.15 1606.47,-96.26"/>
<polygon fill="midnightblue" stroke="midnightblue" points="1607.89,-93.06 1597.33,-92.17 1605.03,-99.45 1607.89,-93.06"/>
</g>
<!-- Node23 -->
<g id="node23" class="node">
<title>Node23</title>
<g id="a_node23"><a xlink:title=" ">
<polygon fill="none" stroke="#bfbfbf" points="1620,-73 1620,-92 1658,-92 1658,-73 1620,-73"/>
<text text-anchor="middle" x="1639" y="-80" font-family="FreeSans.ttf" font-size="10.00">map</text>
</a>
</g>
</g>
<!-- Node22&#45;&gt;Node23 -->
<g id="edge27" class="edge">
<title>Node22&#45;&gt;Node23</title>
<path fill="none" stroke="midnightblue" d="M1711.67,-139.73C1697.94,-129.11 1674.6,-111.05 1658.08,-98.26"/>
<polygon fill="midnightblue" stroke="midnightblue" points="1660.2,-95.48 1650.15,-92.13 1655.92,-101.02 1660.2,-95.48"/>
</g>
<!-- Node24 -->
<g id="node24" class="node">
<title>Node24</title>
<g id="a_node24"><a xlink:title=" ">
<polygon fill="none" stroke="#bfbfbf" points="1971.5,-73 1971.5,-92 2064.5,-92 2064.5,-73 1971.5,-73"/>
<text text-anchor="middle" x="2018" y="-80" font-family="FreeSans.ttf" font-size="10.00">sdf/sdf_config.h</text>
</a>
</g>
</g>
<!-- Node22&#45;&gt;Node24 -->
<g id="edge28" class="edge">
<title>Node22&#45;&gt;Node24</title>
<path fill="none" stroke="midnightblue" d="M1766.31,-139.96C1814.29,-130.36 1893.88,-114.01 1962,-98 1966.64,-96.91 1971.49,-95.72 1976.31,-94.52"/>
<polygon fill="midnightblue" stroke="midnightblue" points="1977.25,-97.89 1986.08,-92.03 1975.52,-91.1 1977.25,-97.89"/>
</g>
<!-- Node25 -->
<g id="node25" class="node">
<title>Node25</title>
<g id="a_node25"><a xlink:title=" ">
<polygon fill="none" stroke="#bfbfbf" points="1676,-73 1676,-92 1816,-92 1816,-73 1676,-73"/>
<text text-anchor="middle" x="1746" y="-80" font-family="FreeSans.ttf" font-size="10.00">yarp/dev/PolyDriverList.h</text>
</a>
</g>
</g>
<!-- Node22&#45;&gt;Node25 -->
<g id="edge32" class="edge">
<title>Node22&#45;&gt;Node25</title>
<path fill="none" stroke="midnightblue" d="M1726.1,-139.73C1729.52,-130.09 1735.1,-114.3 1739.49,-101.91"/>
<polygon fill="midnightblue" stroke="midnightblue" points="1742.91,-102.72 1742.95,-92.13 1736.31,-100.39 1742.91,-102.72"/>
</g>
<!-- Node26&#45;&gt;Node5 -->
<g id="edge34" class="edge">
<title>Node26&#45;&gt;Node5</title>
<path fill="none" stroke="midnightblue" d="M74.03,-139.96C61.22,-125.14 38.49,-93.71 49,-67 54.47,-53.1 65.75,-40.77 75.9,-31.76"/>
<polygon fill="midnightblue" stroke="midnightblue" points="78.22,-34.39 83.66,-25.29 73.73,-29.01 78.22,-34.39"/>
</g>
<!-- Node27 -->
<g id="node27" class="node">
<title>Node27</title>
<g id="a_node27"><a xlink:title=" ">
<polygon fill="none" stroke="#bfbfbf" points="58.5,-73 58.5,-92 105.5,-92 105.5,-73 58.5,-73"/>
<text text-anchor="middle" x="82" y="-80" font-family="FreeSans.ttf" font-size="10.00">cmath</text>
</a>
</g>
</g>
<!-- Node26&#45;&gt;Node27 -->
<g id="edge35" class="edge">
<title>Node26&#45;&gt;Node27</title>
<path fill="none" stroke="midnightblue" d="M82,-139.73C82,-130.18 82,-114.62 82,-102.28"/>
<polygon fill="midnightblue" stroke="midnightblue" points="85.5,-102.13 82,-92.13 78.5,-102.13 85.5,-102.13"/>
</g>
<!-- Node28&#45;&gt;Node20 -->
<g id="edge38" class="edge">
<title>Node28&#45;&gt;Node20</title>
<path fill="none" stroke="midnightblue" d="M1913.9,-139.73C1910.48,-130.09 1904.9,-114.3 1900.51,-101.91"/>
<polygon fill="midnightblue" stroke="midnightblue" points="1903.69,-100.39 1897.05,-92.13 1897.09,-102.72 1903.69,-100.39"/>
</g>
<!-- Node28&#45;&gt;Node24 -->
<g id="edge37" class="edge">
<title>Node28&#45;&gt;Node24</title>
<path fill="none" stroke="midnightblue" d="M1930.62,-139.73C1947.43,-128.92 1976.23,-110.38 1996.14,-97.57"/>
<polygon fill="midnightblue" stroke="midnightblue" points="1998.08,-100.48 2004.59,-92.13 1994.29,-94.6 1998.08,-100.48"/>
</g>
<!-- Node29 -->
<g id="node29" class="node">
<title>Node29</title>
<g id="a_node29"><a xlink:title=" ">
<polygon fill="none" stroke="#bfbfbf" points="2082.5,-73 2082.5,-92 2253.5,-92 2253.5,-73 2082.5,-73"/>
<text text-anchor="middle" x="2168" y="-80" font-family="FreeSans.ttf" font-size="10.00">gazebo/sensors/SensorTypes.hh</text>
</a>
</g>
</g>
<!-- Node28&#45;&gt;Node29 -->
<g id="edge39" class="edge">
<title>Node28&#45;&gt;Node29</title>
<path fill="none" stroke="midnightblue" d="M1950.07,-139.94C1995.03,-128.29 2075.5,-107.45 2125.07,-94.62"/>
<polygon fill="midnightblue" stroke="midnightblue" points="2126.05,-97.98 2134.85,-92.08 2124.3,-91.2 2126.05,-97.98"/>
</g>
<!-- Node30 -->
<g id="node30" class="node">
<title>Node30</title>
<g id="a_node30"><a xlink:title=" ">
<polygon fill="none" stroke="#bfbfbf" points="2272,-73 2272,-92 2446,-92 2446,-73 2272,-73"/>
<text text-anchor="middle" x="2359" y="-80" font-family="FreeSans.ttf" font-size="10.00">gazebo/physics/PhysicsTypes.hh</text>
</a>
</g>
</g>
<!-- Node28&#45;&gt;Node30 -->
<g id="edge40" class="edge">
<title>Node28&#45;&gt;Node30</title>
<path fill="none" stroke="midnightblue" d="M1976.09,-139.97C2044.99,-130 2162.27,-112.96 2263,-98 2272.69,-96.56 2282.93,-95.03 2292.97,-93.52"/>
<polygon fill="midnightblue" stroke="midnightblue" points="2293.55,-96.97 2302.91,-92.02 2292.5,-90.05 2293.55,-96.97"/>
</g>
</g>
</svg>
