<?xml version="1.0" encoding="UTF-8" standalone="no"?>
<!DOCTYPE svg PUBLIC "-//W3C//DTD SVG 1.1//EN"
 "http://www.w3.org/Graphics/SVG/1.1/DTD/svg11.dtd">
<!-- Generated by graphviz version 2.43.0 (0)
 -->
<!-- Title: MultiCamera.cc Pages: 1 -->
<svg width="2330pt" height="229pt"
 viewBox="0.00 0.00 2329.50 229.00" xmlns="http://www.w3.org/2000/svg" xmlns:xlink="http://www.w3.org/1999/xlink">
<g id="graph0" class="graph" transform="scale(1 1) rotate(0) translate(4 225)">
<title>MultiCamera.cc</title>
<!-- Node1 -->
<g id="node1" class="node">
<title>Node1</title>
<g id="a_node1"><a xlink:title=" ">
<polygon fill="#bfbfbf" stroke="black" points="1347.5,-201.5 1347.5,-220.5 1440.5,-220.5 1440.5,-201.5 1347.5,-201.5"/>
<text text-anchor="middle" x="1394" y="-208.5" font-family="FreeSans.ttf" font-size="10.00">MultiCamera.cc</text>
</a>
</g>
</g>
<!-- Node2 -->
<g id="node2" class="node">
<title>Node2</title>
<g id="a_node2"><a xlink:href="MultiCamera_8hh.html" target="_top" xlink:title=" ">
<polygon fill="none" stroke="black" points="293.5,-140 293.5,-159 426.5,-159 426.5,-140 293.5,-140"/>
<text text-anchor="middle" x="360" y="-147" font-family="FreeSans.ttf" font-size="10.00">gazebo/MultiCamera.hh</text>
</a>
</g>
</g>
<!-- Node1&#45;&gt;Node2 -->
<g id="edge1" class="edge">
<title>Node1&#45;&gt;Node2</title>
<path fill="none" stroke="midnightblue" d="M1347.18,-207.74C1220.8,-201.57 862.13,-183.68 564,-165 521.87,-162.36 474.88,-159.05 436.63,-156.25"/>
<polygon fill="midnightblue" stroke="midnightblue" points="436.82,-152.76 426.59,-155.52 436.31,-159.74 436.82,-152.76"/>
</g>
<!-- Node7 -->
<g id="node7" class="node">
<title>Node7</title>
<g id="a_node7"><a xlink:title=" ">
<polygon fill="none" stroke="#bfbfbf" points="499,-0.5 499,-30.5 657,-30.5 657,-0.5 499,-0.5"/>
<text text-anchor="start" x="507" y="-18.5" font-family="FreeSans.ttf" font-size="10.00">gazebo/sensors/MultiCamera</text>
<text text-anchor="middle" x="578" y="-7.5" font-family="FreeSans.ttf" font-size="10.00">Sensor.hh</text>
</a>
</g>
</g>
<!-- Node1&#45;&gt;Node7 -->
<g id="edge37" class="edge">
<title>Node1&#45;&gt;Node7</title>
<path fill="none" stroke="midnightblue" d="M1347.25,-210.27C1193.73,-210.14 708.67,-201.42 601,-98 585.65,-83.25 580.31,-59.12 578.56,-40.94"/>
<polygon fill="midnightblue" stroke="midnightblue" points="582.04,-40.52 577.89,-30.77 575.06,-40.98 582.04,-40.52"/>
</g>
<!-- Node9 -->
<g id="node9" class="node">
<title>Node9</title>
<g id="a_node9"><a xlink:title=" ">
<polygon fill="none" stroke="#bfbfbf" points="1223,-73 1223,-92 1345,-92 1345,-73 1223,-73"/>
<text text-anchor="middle" x="1284" y="-80" font-family="FreeSans.ttf" font-size="10.00">yarp/dev/PolyDriver.h</text>
</a>
</g>
</g>
<!-- Node1&#45;&gt;Node9 -->
<g id="edge42" class="edge">
<title>Node1&#45;&gt;Node9</title>
<path fill="none" stroke="midnightblue" d="M1360.8,-201.39C1341.19,-194.63 1317.45,-183.23 1303,-165 1288.72,-146.98 1284.83,-120.1 1283.95,-102.19"/>
<polygon fill="midnightblue" stroke="midnightblue" points="1287.45,-102.05 1283.72,-92.14 1280.45,-102.21 1287.45,-102.05"/>
</g>
<!-- Node11 -->
<g id="node11" class="node">
<title>Node11</title>
<g id="a_node11"><a xlink:href="MultiCameraDriver_8h.html" target="_top" xlink:title=" ">
<polygon fill="none" stroke="black" points="890,-140 890,-159 1054,-159 1054,-140 890,-140"/>
<text text-anchor="middle" x="972" y="-147" font-family="FreeSans.ttf" font-size="10.00">yarp/dev/MultiCameraDriver.h</text>
</a>
</g>
</g>
<!-- Node1&#45;&gt;Node11 -->
<g id="edge12" class="edge">
<title>Node1&#45;&gt;Node11</title>
<path fill="none" stroke="midnightblue" d="M1347.23,-203.41C1273.33,-192.99 1129.09,-172.65 1042.57,-160.45"/>
<polygon fill="midnightblue" stroke="midnightblue" points="1042.96,-156.97 1032.57,-159.04 1041.98,-163.9 1042.96,-156.97"/>
</g>
<!-- Node18 -->
<g id="node18" class="node">
<title>Node18</title>
<g id="a_node18"><a xlink:href="Handler_8hh.html" target="_top" xlink:title=" ">
<polygon fill="none" stroke="black" points="1312,-140 1312,-159 1476,-159 1476,-140 1312,-140"/>
<text text-anchor="middle" x="1394" y="-147" font-family="FreeSans.ttf" font-size="10.00">GazeboYarpPlugins/Handler.hh</text>
</a>
</g>
</g>
<!-- Node1&#45;&gt;Node18 -->
<g id="edge22" class="edge">
<title>Node1&#45;&gt;Node18</title>
<path fill="none" stroke="midnightblue" d="M1394,-201.48C1394,-193.08 1394,-179.98 1394,-169.16"/>
<polygon fill="midnightblue" stroke="midnightblue" points="1397.5,-169.01 1394,-159.01 1390.5,-169.01 1397.5,-169.01"/>
</g>
<!-- Node22 -->
<g id="node22" class="node">
<title>Node22</title>
<g id="a_node22"><a xlink:href="common_8h.html" target="_top" xlink:title=" ">
<polygon fill="none" stroke="black" points="0,-140 0,-159 164,-159 164,-140 0,-140"/>
<text text-anchor="middle" x="82" y="-147" font-family="FreeSans.ttf" font-size="10.00">GazeboYarpPlugins/common.h</text>
</a>
</g>
</g>
<!-- Node1&#45;&gt;Node22 -->
<g id="edge29" class="edge">
<title>Node1&#45;&gt;Node22</title>
<path fill="none" stroke="midnightblue" d="M1347.45,-208.63C1194.87,-204.04 696.09,-188.14 284,-165 248.06,-162.98 208.55,-160.26 174.08,-157.72"/>
<polygon fill="midnightblue" stroke="midnightblue" points="174.26,-154.22 164.03,-156.97 173.74,-161.2 174.26,-154.22"/>
</g>
<!-- Node24 -->
<g id="node24" class="node">
<title>Node24</title>
<g id="a_node24"><a xlink:href="ConfHelpers_8hh.html" target="_top" xlink:title=" ">
<polygon fill="none" stroke="black" points="1494.5,-140 1494.5,-159 1681.5,-159 1681.5,-140 1494.5,-140"/>
<text text-anchor="middle" x="1588" y="-147" font-family="FreeSans.ttf" font-size="10.00">GazeboYarpPlugins/ConfHelpers.hh</text>
</a>
</g>
</g>
<!-- Node1&#45;&gt;Node24 -->
<g id="edge32" class="edge">
<title>Node1&#45;&gt;Node24</title>
<path fill="none" stroke="midnightblue" d="M1421.8,-201.48C1455.65,-191.09 1512.97,-173.51 1550.65,-161.95"/>
<polygon fill="midnightblue" stroke="midnightblue" points="1551.72,-165.29 1560.26,-159.01 1549.67,-158.6 1551.72,-165.29"/>
</g>
<!-- Node27 -->
<g id="node27" class="node">
<title>Node27</title>
<g id="a_node27"><a xlink:title=" ">
<polygon fill="none" stroke="#bfbfbf" points="1699.5,-134.5 1699.5,-164.5 1862.5,-164.5 1862.5,-134.5 1699.5,-134.5"/>
<text text-anchor="start" x="1707.5" y="-152.5" font-family="FreeSans.ttf" font-size="10.00">gazebo/sensors/DepthCamera</text>
<text text-anchor="middle" x="1781" y="-141.5" font-family="FreeSans.ttf" font-size="10.00">Sensor.hh</text>
</a>
</g>
</g>
<!-- Node1&#45;&gt;Node27 -->
<g id="edge38" class="edge">
<title>Node1&#45;&gt;Node27</title>
<path fill="none" stroke="midnightblue" d="M1440.67,-203.01C1497.01,-194.55 1594.93,-179.77 1689.16,-165.12"/>
<polygon fill="midnightblue" stroke="midnightblue" points="1689.81,-168.57 1699.15,-163.57 1688.73,-161.65 1689.81,-168.57"/>
</g>
<!-- Node28 -->
<g id="node28" class="node">
<title>Node28</title>
<g id="a_node28"><a xlink:title=" ">
<polygon fill="none" stroke="#bfbfbf" points="1880.5,-140 1880.5,-159 2061.5,-159 2061.5,-140 1880.5,-140"/>
<text text-anchor="middle" x="1971" y="-147" font-family="FreeSans.ttf" font-size="10.00">gazebo/sensors/CameraSensor.hh</text>
</a>
</g>
</g>
<!-- Node1&#45;&gt;Node28 -->
<g id="edge39" class="edge">
<title>Node1&#45;&gt;Node28</title>
<path fill="none" stroke="midnightblue" d="M1440.56,-206.42C1526.14,-199.66 1714.14,-183.98 1872,-165 1883.14,-163.66 1894.96,-162.07 1906.4,-160.45"/>
<polygon fill="midnightblue" stroke="midnightblue" points="1906.94,-163.91 1916.34,-159.02 1905.95,-156.98 1906.94,-163.91"/>
</g>
<!-- Node29 -->
<g id="node29" class="node">
<title>Node29</title>
<g id="a_node29"><a xlink:title=" ">
<polygon fill="none" stroke="#bfbfbf" points="2080,-140 2080,-159 2186,-159 2186,-140 2080,-140"/>
<text text-anchor="middle" x="2133" y="-147" font-family="FreeSans.ttf" font-size="10.00">yarp/os/Network.h</text>
</a>
</g>
</g>
<!-- Node1&#45;&gt;Node29 -->
<g id="edge40" class="edge">
<title>Node1&#45;&gt;Node29</title>
<path fill="none" stroke="midnightblue" d="M1440.66,-209.52C1550.91,-207.81 1835.95,-200.06 2071,-165 2077.46,-164.04 2084.24,-162.75 2090.84,-161.33"/>
<polygon fill="midnightblue" stroke="midnightblue" points="2092.03,-164.65 2101.01,-159.03 2090.49,-157.82 2092.03,-164.65"/>
</g>
<!-- Node30 -->
<g id="node30" class="node">
<title>Node30</title>
<g id="a_node30"><a xlink:title=" ">
<polygon fill="none" stroke="#bfbfbf" points="2204.5,-140 2204.5,-159 2321.5,-159 2321.5,-140 2204.5,-140"/>
<text text-anchor="middle" x="2263" y="-147" font-family="FreeSans.ttf" font-size="10.00">yarp/os/LogStream.h</text>
</a>
</g>
</g>
<!-- Node1&#45;&gt;Node30 -->
<g id="edge41" class="edge">
<title>Node1&#45;&gt;Node30</title>
<path fill="none" stroke="midnightblue" d="M1440.74,-209.88C1564.41,-209.03 1910.27,-203.12 2195,-165 2202.49,-164 2210.38,-162.62 2218.03,-161.11"/>
<polygon fill="midnightblue" stroke="midnightblue" points="2218.8,-164.52 2227.89,-159.07 2217.38,-157.67 2218.8,-164.52"/>
</g>
<!-- Node3 -->
<g id="node3" class="node">
<title>Node3</title>
<g id="a_node3"><a xlink:title=" ">
<polygon fill="none" stroke="#bfbfbf" points="141,-6 141,-25 287,-25 287,-6 141,-6"/>
<text text-anchor="middle" x="214" y="-13" font-family="FreeSans.ttf" font-size="10.00">gazebo/common/Plugin.hh</text>
</a>
</g>
</g>
<!-- Node2&#45;&gt;Node3 -->
<g id="edge2" class="edge">
<title>Node2&#45;&gt;Node3</title>
<path fill="none" stroke="midnightblue" d="M300.5,-139.97C253.03,-131.81 192.07,-117.8 177,-98 161.55,-77.71 181.12,-49.93 197.16,-32.61"/>
<polygon fill="midnightblue" stroke="midnightblue" points="200.09,-34.62 204.58,-25.03 195.08,-29.73 200.09,-34.62"/>
</g>
<!-- Node4 -->
<g id="node4" class="node">
<title>Node4</title>
<g id="a_node4"><a xlink:href="MultiCameraPlugin_8hh.html" target="_top" xlink:title=" ">
<polygon fill="none" stroke="black" points="186,-67.5 186,-97.5 342,-97.5 342,-67.5 186,-67.5"/>
<text text-anchor="start" x="194" y="-85.5" font-family="FreeSans.ttf" font-size="10.00">gazebo/plugins/MultiCamera</text>
<text text-anchor="middle" x="264" y="-74.5" font-family="FreeSans.ttf" font-size="10.00">Plugin.hh</text>
</a>
</g>
</g>
<!-- Node2&#45;&gt;Node4 -->
<g id="edge3" class="edge">
<title>Node2&#45;&gt;Node4</title>
<path fill="none" stroke="midnightblue" d="M347.05,-139.73C333.33,-130.44 311.2,-115.46 293.24,-103.3"/>
<polygon fill="midnightblue" stroke="midnightblue" points="295.05,-100.3 284.81,-97.59 291.13,-106.09 295.05,-100.3"/>
</g>
<!-- Node5 -->
<g id="node5" class="node">
<title>Node5</title>
<g id="a_node5"><a xlink:title=" ">
<polygon fill="none" stroke="#bfbfbf" points="79,-6 79,-25 123,-25 123,-6 79,-6"/>
<text text-anchor="middle" x="101" y="-13" font-family="FreeSans.ttf" font-size="10.00">string</text>
</a>
</g>
</g>
<!-- Node2&#45;&gt;Node5 -->
<g id="edge11" class="edge">
<title>Node2&#45;&gt;Node5</title>
<path fill="none" stroke="midnightblue" d="M293.21,-141.34C254.27,-134.73 205.58,-122.09 168,-98 142.52,-81.67 122.03,-52.48 110.69,-33.82"/>
<polygon fill="midnightblue" stroke="midnightblue" points="113.69,-32.02 105.62,-25.15 107.65,-35.55 113.69,-32.02"/>
</g>
<!-- Node2&#45;&gt;Node9 -->
<g id="edge9" class="edge">
<title>Node2&#45;&gt;Node9</title>
<path fill="none" stroke="midnightblue" d="M426.75,-147.84C571.03,-145.7 922.47,-136.61 1214,-98 1221.79,-96.97 1230,-95.56 1237.95,-94.03"/>
<polygon fill="midnightblue" stroke="midnightblue" points="1238.73,-97.44 1247.84,-92.03 1237.35,-90.58 1238.73,-97.44"/>
</g>
<!-- Node10 -->
<g id="node10" class="node">
<title>Node10</title>
<g id="a_node10"><a xlink:title=" ">
<polygon fill="none" stroke="#bfbfbf" points="360,-73 360,-92 550,-92 550,-73 360,-73"/>
<text text-anchor="middle" x="455" y="-80" font-family="FreeSans.ttf" font-size="10.00">yarp/dev/FrameGrabberInterfaces.h</text>
</a>
</g>
</g>
<!-- Node2&#45;&gt;Node10 -->
<g id="edge10" class="edge">
<title>Node2&#45;&gt;Node10</title>
<path fill="none" stroke="midnightblue" d="M372.81,-139.73C388.48,-129.01 415.22,-110.72 433.93,-97.91"/>
<polygon fill="midnightblue" stroke="midnightblue" points="436.11,-100.66 442.39,-92.13 432.16,-94.89 436.11,-100.66"/>
</g>
<!-- Node4&#45;&gt;Node3 -->
<g id="edge6" class="edge">
<title>Node4&#45;&gt;Node3</title>
<path fill="none" stroke="midnightblue" d="M253.15,-67.4C245.43,-57.36 235.03,-43.84 226.89,-33.25"/>
<polygon fill="midnightblue" stroke="midnightblue" points="229.56,-30.99 220.69,-25.19 224.01,-35.25 229.56,-30.99"/>
</g>
<!-- Node4&#45;&gt;Node5 -->
<g id="edge4" class="edge">
<title>Node4&#45;&gt;Node5</title>
<path fill="none" stroke="midnightblue" d="M225.01,-67.42C198.57,-57.67 162.94,-44.14 132,-31 130.63,-30.42 129.24,-29.81 127.83,-29.19"/>
<polygon fill="midnightblue" stroke="midnightblue" points="129.16,-25.95 118.61,-25 126.26,-32.33 129.16,-25.95"/>
</g>
<!-- Node6 -->
<g id="node6" class="node">
<title>Node6</title>
<g id="a_node6"><a xlink:title=" ">
<polygon fill="none" stroke="#bfbfbf" points="305.5,-6 305.5,-25 352.5,-25 352.5,-6 305.5,-6"/>
<text text-anchor="middle" x="329" y="-13" font-family="FreeSans.ttf" font-size="10.00">vector</text>
</a>
</g>
</g>
<!-- Node4&#45;&gt;Node6 -->
<g id="edge5" class="edge">
<title>Node4&#45;&gt;Node6</title>
<path fill="none" stroke="midnightblue" d="M278.1,-67.4C288.44,-57.06 302.48,-43.02 313.19,-32.31"/>
<polygon fill="midnightblue" stroke="midnightblue" points="315.71,-34.74 320.31,-25.19 310.76,-29.79 315.71,-34.74"/>
</g>
<!-- Node4&#45;&gt;Node7 -->
<g id="edge7" class="edge">
<title>Node4&#45;&gt;Node7</title>
<path fill="none" stroke="midnightblue" d="M331.75,-67.48C381.29,-57.22 448.58,-43.29 500.31,-32.58"/>
<polygon fill="midnightblue" stroke="midnightblue" points="501.02,-36.01 510.1,-30.55 499.6,-29.15 501.02,-36.01"/>
</g>
<!-- Node8 -->
<g id="node8" class="node">
<title>Node8</title>
<g id="a_node8"><a xlink:title=" ">
<polygon fill="none" stroke="#bfbfbf" points="765,-6 765,-25 923,-25 923,-6 765,-6"/>
<text text-anchor="middle" x="844" y="-13" font-family="FreeSans.ttf" font-size="10.00">gazebo/rendering/Camera.hh</text>
</a>
</g>
</g>
<!-- Node4&#45;&gt;Node8 -->
<g id="edge8" class="edge">
<title>Node4&#45;&gt;Node8</title>
<path fill="none" stroke="midnightblue" d="M342.22,-68.22C345.18,-67.8 348.12,-67.39 351,-67 491.62,-48.1 655.66,-32.59 754.58,-23.95"/>
<polygon fill="midnightblue" stroke="midnightblue" points="755.18,-27.41 764.84,-23.06 754.57,-20.44 755.18,-27.41"/>
</g>
<!-- Node11&#45;&gt;Node7 -->
<g id="edge20" class="edge">
<title>Node11&#45;&gt;Node7</title>
<path fill="none" stroke="midnightblue" d="M889.86,-143.61C804.11,-137.21 676.43,-123.66 635,-98 613,-84.37 597.22,-58.77 587.92,-39.88"/>
<polygon fill="midnightblue" stroke="midnightblue" points="591.05,-38.3 583.65,-30.71 584.7,-41.26 591.05,-38.3"/>
</g>
<!-- Node11&#45;&gt;Node8 -->
<g id="edge19" class="edge">
<title>Node11&#45;&gt;Node8</title>
<path fill="none" stroke="midnightblue" d="M967.47,-139.91C958.89,-124.2 939.07,-90.3 916,-67 901.76,-52.63 882.98,-39.6 868.16,-30.38"/>
<polygon fill="midnightblue" stroke="midnightblue" points="869.9,-27.34 859.53,-25.16 866.27,-33.33 869.9,-27.34"/>
</g>
<!-- Node11&#45;&gt;Node10 -->
<g id="edge14" class="edge">
<title>Node11&#45;&gt;Node10</title>
<path fill="none" stroke="midnightblue" d="M904.15,-139.97C808.4,-127.93 634.09,-106.02 533.08,-93.32"/>
<polygon fill="midnightblue" stroke="midnightblue" points="533.3,-89.82 522.94,-92.04 532.42,-96.76 533.3,-89.82"/>
</g>
<!-- Node12 -->
<g id="node12" class="node">
<title>Node12</title>
<g id="a_node12"><a xlink:title=" ">
<polygon fill="none" stroke="#bfbfbf" points="1071,-73 1071,-92 1205,-92 1205,-73 1071,-73"/>
<text text-anchor="middle" x="1138" y="-80" font-family="FreeSans.ttf" font-size="10.00">yarp/dev/DeviceDriver.h</text>
</a>
</g>
</g>
<!-- Node11&#45;&gt;Node12 -->
<g id="edge13" class="edge">
<title>Node11&#45;&gt;Node12</title>
<path fill="none" stroke="midnightblue" d="M994.04,-139.87C1022.9,-128.57 1073.65,-108.7 1106.54,-95.82"/>
<polygon fill="midnightblue" stroke="midnightblue" points="1108.09,-98.97 1116.13,-92.06 1105.54,-92.45 1108.09,-98.97"/>
</g>
<!-- Node13 -->
<g id="node13" class="node">
<title>Node13</title>
<g id="a_node13"><a xlink:title=" ">
<polygon fill="none" stroke="#bfbfbf" points="644,-73 644,-92 740,-92 740,-73 644,-73"/>
<text text-anchor="middle" x="692" y="-80" font-family="FreeSans.ttf" font-size="10.00">yarp/os/Stamp.h</text>
</a>
</g>
</g>
<!-- Node11&#45;&gt;Node13 -->
<g id="edge15" class="edge">
<title>Node11&#45;&gt;Node13</title>
<path fill="none" stroke="midnightblue" d="M932.85,-139.96C888.26,-130.16 813.26,-113.45 749,-98 744.34,-96.88 739.48,-95.68 734.64,-94.48"/>
<polygon fill="midnightblue" stroke="midnightblue" points="735.37,-91.05 724.82,-92.01 733.66,-97.84 735.37,-91.05"/>
</g>
<!-- Node14 -->
<g id="node14" class="node">
<title>Node14</title>
<g id="a_node14"><a xlink:title=" ">
<polygon fill="none" stroke="#bfbfbf" points="758.5,-73 758.5,-92 907.5,-92 907.5,-73 758.5,-73"/>
<text text-anchor="middle" x="833" y="-80" font-family="FreeSans.ttf" font-size="10.00">yarp/dev/IPreciselyTimed.h</text>
</a>
</g>
</g>
<!-- Node11&#45;&gt;Node14 -->
<g id="edge16" class="edge">
<title>Node11&#45;&gt;Node14</title>
<path fill="none" stroke="midnightblue" d="M953.54,-139.87C929.76,-128.75 888.21,-109.32 860.65,-96.43"/>
<polygon fill="midnightblue" stroke="midnightblue" points="862.08,-93.23 851.53,-92.17 859.11,-99.57 862.08,-93.23"/>
</g>
<!-- Node15 -->
<g id="node15" class="node">
<title>Node15</title>
<g id="a_node15"><a xlink:title=" ">
<polygon fill="none" stroke="#bfbfbf" points="963.5,-73 963.5,-92 1052.5,-92 1052.5,-73 963.5,-73"/>
<text text-anchor="middle" x="1008" y="-80" font-family="FreeSans.ttf" font-size="10.00">yarp/os/Time.h</text>
</a>
</g>
</g>
<!-- Node11&#45;&gt;Node15 -->
<g id="edge17" class="edge">
<title>Node11&#45;&gt;Node15</title>
<path fill="none" stroke="midnightblue" d="M976.86,-139.73C982.31,-129.89 991.3,-113.66 998.22,-101.16"/>
<polygon fill="midnightblue" stroke="midnightblue" points="1001.44,-102.57 1003.22,-92.13 995.31,-99.18 1001.44,-102.57"/>
</g>
<!-- Node16 -->
<g id="node16" class="node">
<title>Node16</title>
<g id="a_node16"><a xlink:title=" ">
<polygon fill="none" stroke="#bfbfbf" points="1485.5,-73 1485.5,-92 1604.5,-92 1604.5,-73 1485.5,-73"/>
<text text-anchor="middle" x="1545" y="-80" font-family="FreeSans.ttf" font-size="10.00">boost/shared_ptr.hpp</text>
</a>
</g>
</g>
<!-- Node11&#45;&gt;Node16 -->
<g id="edge18" class="edge">
<title>Node11&#45;&gt;Node16</title>
<path fill="none" stroke="midnightblue" d="M1054.4,-142.97C1154.49,-135.63 1328.26,-120.86 1476,-98 1483.15,-96.89 1490.68,-95.52 1498.03,-94.07"/>
<polygon fill="midnightblue" stroke="midnightblue" points="1498.79,-97.49 1507.89,-92.06 1497.39,-90.63 1498.79,-97.49"/>
</g>
<!-- Node17 -->
<g id="node17" class="node">
<title>Node17</title>
<g id="a_node17"><a xlink:title=" ">
<polygon fill="none" stroke="#bfbfbf" points="1363,-73 1363,-92 1411,-92 1411,-73 1363,-73"/>
<text text-anchor="middle" x="1387" y="-80" font-family="FreeSans.ttf" font-size="10.00">mutex</text>
</a>
</g>
</g>
<!-- Node11&#45;&gt;Node17 -->
<g id="edge21" class="edge">
<title>Node11&#45;&gt;Node17</title>
<path fill="none" stroke="midnightblue" d="M1054.2,-144.35C1132.48,-138.83 1253.02,-126.24 1354,-98 1356.15,-97.4 1358.35,-96.68 1360.54,-95.89"/>
<polygon fill="midnightblue" stroke="midnightblue" points="1361.91,-99.11 1369.87,-92.12 1359.29,-92.62 1361.91,-99.11"/>
</g>
<!-- Node18&#45;&gt;Node9 -->
<g id="edge27" class="edge">
<title>Node18&#45;&gt;Node9</title>
<path fill="none" stroke="midnightblue" d="M1379.16,-139.73C1360.69,-128.82 1328.93,-110.05 1307.22,-97.22"/>
<polygon fill="midnightblue" stroke="midnightblue" points="1308.99,-94.2 1298.6,-92.13 1305.43,-100.23 1308.99,-94.2"/>
</g>
<!-- Node18&#45;&gt;Node16 -->
<g id="edge25" class="edge">
<title>Node18&#45;&gt;Node16</title>
<path fill="none" stroke="midnightblue" d="M1414.05,-139.87C1440,-128.7 1485.42,-109.15 1515.36,-96.26"/>
<polygon fill="midnightblue" stroke="midnightblue" points="1517.06,-99.34 1524.87,-92.17 1514.3,-92.91 1517.06,-99.34"/>
</g>
<!-- Node18&#45;&gt;Node17 -->
<g id="edge26" class="edge">
<title>Node18&#45;&gt;Node17</title>
<path fill="none" stroke="midnightblue" d="M1393.06,-139.73C1392.03,-130.18 1390.35,-114.62 1389.02,-102.28"/>
<polygon fill="midnightblue" stroke="midnightblue" points="1392.48,-101.7 1387.93,-92.13 1385.52,-102.44 1392.48,-101.7"/>
</g>
<!-- Node19 -->
<g id="node19" class="node">
<title>Node19</title>
<g id="a_node19"><a xlink:title=" ">
<polygon fill="none" stroke="#bfbfbf" points="1429,-73 1429,-92 1467,-92 1467,-73 1429,-73"/>
<text text-anchor="middle" x="1448" y="-80" font-family="FreeSans.ttf" font-size="10.00">map</text>
</a>
</g>
</g>
<!-- Node18&#45;&gt;Node19 -->
<g id="edge23" class="edge">
<title>Node18&#45;&gt;Node19</title>
<path fill="none" stroke="midnightblue" d="M1401.28,-139.73C1409.7,-129.6 1423.75,-112.69 1434.25,-100.06"/>
<polygon fill="midnightblue" stroke="midnightblue" points="1437.13,-102.06 1440.83,-92.13 1431.75,-97.58 1437.13,-102.06"/>
</g>
<!-- Node20 -->
<g id="node20" class="node">
<title>Node20</title>
<g id="a_node20"><a xlink:title=" ">
<polygon fill="none" stroke="#bfbfbf" points="1781.5,-73 1781.5,-92 1874.5,-92 1874.5,-73 1781.5,-73"/>
<text text-anchor="middle" x="1828" y="-80" font-family="FreeSans.ttf" font-size="10.00">sdf/sdf_config.h</text>
</a>
</g>
</g>
<!-- Node18&#45;&gt;Node20 -->
<g id="edge24" class="edge">
<title>Node18&#45;&gt;Node20</title>
<path fill="none" stroke="midnightblue" d="M1446.5,-139.94C1459.41,-137.91 1473.19,-135.81 1486,-134 1612.85,-116.02 1646.17,-122.11 1772,-98 1777.17,-97.01 1782.57,-95.82 1787.89,-94.55"/>
<polygon fill="midnightblue" stroke="midnightblue" points="1789.08,-97.86 1797.94,-92.04 1787.39,-91.06 1789.08,-97.86"/>
</g>
<!-- Node21 -->
<g id="node21" class="node">
<title>Node21</title>
<g id="a_node21"><a xlink:title=" ">
<polygon fill="none" stroke="#bfbfbf" points="1623,-73 1623,-92 1763,-92 1763,-73 1623,-73"/>
<text text-anchor="middle" x="1693" y="-80" font-family="FreeSans.ttf" font-size="10.00">yarp/dev/PolyDriverList.h</text>
</a>
</g>
</g>
<!-- Node18&#45;&gt;Node21 -->
<g id="edge28" class="edge">
<title>Node18&#45;&gt;Node21</title>
<path fill="none" stroke="midnightblue" d="M1433.4,-139.94C1487.51,-128.17 1584.82,-107.02 1643.7,-94.22"/>
<polygon fill="midnightblue" stroke="midnightblue" points="1644.49,-97.63 1653.52,-92.08 1643,-90.79 1644.49,-97.63"/>
</g>
<!-- Node22&#45;&gt;Node5 -->
<g id="edge30" class="edge">
<title>Node22&#45;&gt;Node5</title>
<path fill="none" stroke="midnightblue" d="M83.25,-139.84C86.29,-118.67 94.17,-63.95 98.33,-35.03"/>
<polygon fill="midnightblue" stroke="midnightblue" points="101.81,-35.42 99.77,-25.02 94.88,-34.42 101.81,-35.42"/>
</g>
<!-- Node23 -->
<g id="node23" class="node">
<title>Node23</title>
<g id="a_node23"><a xlink:title=" ">
<polygon fill="none" stroke="#bfbfbf" points="6.5,-73 6.5,-92 53.5,-92 53.5,-73 6.5,-73"/>
<text text-anchor="middle" x="30" y="-80" font-family="FreeSans.ttf" font-size="10.00">cmath</text>
</a>
</g>
</g>
<!-- Node22&#45;&gt;Node23 -->
<g id="edge31" class="edge">
<title>Node22&#45;&gt;Node23</title>
<path fill="none" stroke="midnightblue" d="M74.99,-139.73C66.88,-129.6 53.35,-112.69 43.24,-100.06"/>
<polygon fill="midnightblue" stroke="midnightblue" points="45.88,-97.75 36.9,-92.13 40.42,-102.12 45.88,-97.75"/>
</g>
<!-- Node24&#45;&gt;Node16 -->
<g id="edge34" class="edge">
<title>Node24&#45;&gt;Node16</title>
<path fill="none" stroke="midnightblue" d="M1582.2,-139.73C1575.62,-129.79 1564.74,-113.34 1556.44,-100.79"/>
<polygon fill="midnightblue" stroke="midnightblue" points="1559.14,-98.54 1550.71,-92.13 1553.31,-102.4 1559.14,-98.54"/>
</g>
<!-- Node24&#45;&gt;Node20 -->
<g id="edge33" class="edge">
<title>Node24&#45;&gt;Node20</title>
<path fill="none" stroke="midnightblue" d="M1619.87,-139.87C1662.75,-128.25 1739.11,-107.58 1786.45,-94.75"/>
<polygon fill="midnightblue" stroke="midnightblue" points="1787.64,-98.06 1796.38,-92.06 1785.81,-91.3 1787.64,-98.06"/>
</g>
<!-- Node25 -->
<g id="node25" class="node">
<title>Node25</title>
<g id="a_node25"><a xlink:title=" ">
<polygon fill="none" stroke="#bfbfbf" points="2085.5,-73 2085.5,-92 2256.5,-92 2256.5,-73 2085.5,-73"/>
<text text-anchor="middle" x="2171" y="-80" font-family="FreeSans.ttf" font-size="10.00">gazebo/sensors/SensorTypes.hh</text>
</a>
</g>
</g>
<!-- Node24&#45;&gt;Node25 -->
<g id="edge35" class="edge">
<title>Node24&#45;&gt;Node25</title>
<path fill="none" stroke="midnightblue" d="M1645.14,-139.97C1660.05,-137.88 1676.11,-135.74 1691,-134 1861.69,-114.02 1905.43,-118.97 2076,-98 2086.65,-96.69 2097.94,-95.12 2108.89,-93.51"/>
<polygon fill="midnightblue" stroke="midnightblue" points="2109.44,-96.97 2118.81,-92.02 2108.4,-90.05 2109.44,-96.97"/>
</g>
<!-- Node26 -->
<g id="node26" class="node">
<title>Node26</title>
<g id="a_node26"><a xlink:title=" ">
<polygon fill="none" stroke="#bfbfbf" points="1893,-73 1893,-92 2067,-92 2067,-73 1893,-73"/>
<text text-anchor="middle" x="1980" y="-80" font-family="FreeSans.ttf" font-size="10.00">gazebo/physics/PhysicsTypes.hh</text>
</a>
</g>
</g>
<!-- Node24&#45;&gt;Node26 -->
<g id="edge36" class="edge">
<title>Node24&#45;&gt;Node26</title>
<path fill="none" stroke="midnightblue" d="M1639.65,-139.94C1711.58,-128.01 1841.7,-106.43 1918.53,-93.69"/>
<polygon fill="midnightblue" stroke="midnightblue" points="1919.25,-97.12 1928.55,-92.03 1918.11,-90.21 1919.25,-97.12"/>
</g>
</g>
</svg>
