<?xml version="1.0" encoding="UTF-8" standalone="no"?>
<!DOCTYPE svg PUBLIC "-//W3C//DTD SVG 1.1//EN"
 "http://www.w3.org/Graphics/SVG/1.1/DTD/svg11.dtd">
<!-- Generated by graphviz version 3.0.0 (20220315.2325)
 -->
<!-- Title: MultiCameraDriver.h Pages: 1 -->
<svg width="1472pt" height="95pt"
 viewBox="0.00 0.00 1472.00 95.00" xmlns="http://www.w3.org/2000/svg" xmlns:xlink="http://www.w3.org/1999/xlink">
<g id="graph0" class="graph" transform="scale(1 1) rotate(0) translate(4 91)">
<title>MultiCameraDriver.h</title>
<!-- Node1 -->
<g id="node1" class="node">
<title>Node1</title>
<g id="a_node1"><a xlink:title=" ">
<polygon fill="#bfbfbf" stroke="black" points="736,-67.5 736,-86.5 854,-86.5 854,-67.5 736,-67.5"/>
<text text-anchor="middle" x="795" y="-74.5" font-family="FreeSans.ttf" font-size="10.00">MultiCameraDriver.h</text>
</a>
</g>
</g>
<!-- Node2 -->
<g id="node2" class="node">
<title>Node2</title>
<g id="a_node2"><a xlink:title=" ">
<polygon fill="none" stroke="#bfbfbf" points="0,-6 0,-25 134,-25 134,-6 0,-6"/>
<text text-anchor="middle" x="67" y="-13" font-family="FreeSans.ttf" font-size="10.00">yarp/dev/DeviceDriver.h</text>
</a>
</g>
</g>
<!-- Node1&#45;&gt;Node2 -->
<g id="edge1" class="edge">
<title>Node1&#45;&gt;Node2</title>
<path fill="none" stroke="midnightblue" d="M735.88,-74.29C621.14,-70.44 360.45,-59.15 143,-31 134.48,-29.9 125.47,-28.44 116.75,-26.87"/>
<polygon fill="midnightblue" stroke="midnightblue" points="117.17,-23.39 106.69,-25 115.88,-30.27 117.17,-23.39"/>
</g>
<!-- Node3 -->
<g id="node3" class="node">
<title>Node3</title>
<g id="a_node3"><a xlink:title=" ">
<polygon fill="none" stroke="#bfbfbf" points="152,-6 152,-25 342,-25 342,-6 152,-6"/>
<text text-anchor="middle" x="247" y="-13" font-family="FreeSans.ttf" font-size="10.00">yarp/dev/FrameGrabberInterfaces.h</text>
</a>
</g>
</g>
<!-- Node1&#45;&gt;Node3 -->
<g id="edge2" class="edge">
<title>Node1&#45;&gt;Node3</title>
<path fill="none" stroke="midnightblue" d="M735.67,-70.7C650.45,-62.93 488.5,-47.55 351,-31 339.4,-29.6 327.1,-28 315.17,-26.38"/>
<polygon fill="midnightblue" stroke="midnightblue" points="315.64,-22.91 305.26,-25.01 314.69,-29.84 315.64,-22.91"/>
</g>
<!-- Node4 -->
<g id="node4" class="node">
<title>Node4</title>
<g id="a_node4"><a xlink:title=" ">
<polygon fill="none" stroke="#bfbfbf" points="360.5,-6 360.5,-25 519.5,-25 519.5,-6 360.5,-6"/>
<text text-anchor="middle" x="440" y="-13" font-family="FreeSans.ttf" font-size="10.00">yarp/dev/IRgbVisualParams.h</text>
</a>
</g>
</g>
<!-- Node1&#45;&gt;Node4 -->
<g id="edge3" class="edge">
<title>Node1&#45;&gt;Node4</title>
<path fill="none" stroke="midnightblue" d="M744.14,-67.48C679.95,-56.72 569.65,-38.23 501,-26.72"/>
<polygon fill="midnightblue" stroke="midnightblue" points="501.21,-23.21 490.77,-25.01 500.05,-30.11 501.21,-23.21"/>
</g>
<!-- Node5 -->
<g id="node5" class="node">
<title>Node5</title>
<g id="a_node5"><a xlink:title=" ">
<polygon fill="none" stroke="#bfbfbf" points="538,-6 538,-25 634,-25 634,-6 538,-6"/>
<text text-anchor="middle" x="586" y="-13" font-family="FreeSans.ttf" font-size="10.00">yarp/os/Stamp.h</text>
</a>
</g>
</g>
<!-- Node1&#45;&gt;Node5 -->
<g id="edge4" class="edge">
<title>Node1&#45;&gt;Node5</title>
<path fill="none" stroke="midnightblue" d="M765.06,-67.48C728.43,-57.05 666.3,-39.36 625.72,-27.81"/>
<polygon fill="midnightblue" stroke="midnightblue" points="626.47,-24.38 615.89,-25.01 624.55,-31.11 626.47,-24.38"/>
</g>
<!-- Node6 -->
<g id="node6" class="node">
<title>Node6</title>
<g id="a_node6"><a xlink:title=" ">
<polygon fill="none" stroke="#bfbfbf" points="652.5,-6 652.5,-25 801.5,-25 801.5,-6 652.5,-6"/>
<text text-anchor="middle" x="727" y="-13" font-family="FreeSans.ttf" font-size="10.00">yarp/dev/IPreciselyTimed.h</text>
</a>
</g>
</g>
<!-- Node1&#45;&gt;Node6 -->
<g id="edge5" class="edge">
<title>Node1&#45;&gt;Node6</title>
<path fill="none" stroke="midnightblue" d="M785.26,-67.48C774.65,-58.2 757.48,-43.17 744.52,-31.83"/>
<polygon fill="midnightblue" stroke="midnightblue" points="746.56,-28.96 736.72,-25.01 741.95,-34.23 746.56,-28.96"/>
</g>
<!-- Node7 -->
<g id="node7" class="node">
<title>Node7</title>
<g id="a_node7"><a xlink:title=" ">
<polygon fill="none" stroke="#bfbfbf" points="819.5,-6 819.5,-25 908.5,-25 908.5,-6 819.5,-6"/>
<text text-anchor="middle" x="864" y="-13" font-family="FreeSans.ttf" font-size="10.00">yarp/os/Time.h</text>
</a>
</g>
</g>
<!-- Node1&#45;&gt;Node7 -->
<g id="edge6" class="edge">
<title>Node1&#45;&gt;Node7</title>
<path fill="none" stroke="midnightblue" d="M804.89,-67.48C815.65,-58.2 833.07,-43.17 846.22,-31.83"/>
<polygon fill="midnightblue" stroke="midnightblue" points="848.84,-34.19 854.13,-25.01 844.27,-28.89 848.84,-34.19"/>
</g>
<!-- Node8 -->
<g id="node8" class="node">
<title>Node8</title>
<g id="a_node8"><a xlink:title=" ">
<polygon fill="none" stroke="#bfbfbf" points="926.5,-6 926.5,-25 1045.5,-25 1045.5,-6 926.5,-6"/>
<text text-anchor="middle" x="986" y="-13" font-family="FreeSans.ttf" font-size="10.00">boost/shared_ptr.hpp</text>
</a>
</g>
</g>
<!-- Node1&#45;&gt;Node8 -->
<g id="edge7" class="edge">
<title>Node1&#45;&gt;Node8</title>
<path fill="none" stroke="midnightblue" d="M822.37,-67.48C855.55,-57.14 911.65,-39.66 948.76,-28.1"/>
<polygon fill="midnightblue" stroke="midnightblue" points="950.18,-31.32 958.69,-25.01 948.1,-24.64 950.18,-31.32"/>
</g>
<!-- Node9 -->
<g id="node9" class="node">
<title>Node9</title>
<g id="a_node9"><a xlink:title=" ">
<polygon fill="none" stroke="#bfbfbf" points="1064,-6 1064,-25 1222,-25 1222,-6 1064,-6"/>
<text text-anchor="middle" x="1143" y="-13" font-family="FreeSans.ttf" font-size="10.00">gazebo/rendering/Camera.hh</text>
</a>
</g>
</g>
<!-- Node1&#45;&gt;Node9 -->
<g id="edge8" class="edge">
<title>Node1&#45;&gt;Node9</title>
<path fill="none" stroke="midnightblue" d="M844.86,-67.48C907.78,-56.72 1015.9,-38.23 1083.2,-26.72"/>
<polygon fill="midnightblue" stroke="midnightblue" points="1083.97,-30.14 1093.23,-25.01 1082.79,-23.24 1083.97,-30.14"/>
</g>
<!-- Node10 -->
<g id="node10" class="node">
<title>Node10</title>
<g id="a_node10"><a xlink:title=" ">
<polygon fill="none" stroke="#bfbfbf" points="1240,-0.5 1240,-30.5 1398,-30.5 1398,-0.5 1240,-0.5"/>
<text text-anchor="start" x="1248" y="-18.5" font-family="FreeSans.ttf" font-size="10.00">gazebo/sensors/MultiCamera</text>
<text text-anchor="middle" x="1319" y="-7.5" font-family="FreeSans.ttf" font-size="10.00">Sensor.hh</text>
</a>
</g>
</g>
<!-- Node1&#45;&gt;Node10 -->
<g id="edge9" class="edge">
<title>Node1&#45;&gt;Node10</title>
<path fill="none" stroke="midnightblue" d="M854.02,-71.05C935.99,-63.92 1089.16,-49.68 1229.78,-31.11"/>
<polygon fill="midnightblue" stroke="midnightblue" points="1230.43,-34.56 1239.88,-29.77 1229.51,-27.62 1230.43,-34.56"/>
</g>
<!-- Node11 -->
<g id="node11" class="node">
<title>Node11</title>
<g id="a_node11"><a xlink:title=" ">
<polygon fill="none" stroke="#bfbfbf" points="1416,-6 1416,-25 1464,-25 1464,-6 1416,-6"/>
<text text-anchor="middle" x="1440" y="-13" font-family="FreeSans.ttf" font-size="10.00">mutex</text>
</a>
</g>
</g>
<!-- Node1&#45;&gt;Node11 -->
<g id="edge10" class="edge">
<title>Node1&#45;&gt;Node11</title>
<path fill="none" stroke="midnightblue" d="M854.21,-74.21C986.65,-69.78 1303.35,-56.77 1407,-31 1409.36,-30.41 1411.76,-29.67 1414.14,-28.84"/>
<polygon fill="midnightblue" stroke="midnightblue" points="1415.64,-32 1423.6,-25.02 1413.02,-25.51 1415.64,-32"/>
</g>
</g>
</svg>
