<?xml version="1.0" encoding="UTF-8" standalone="no"?>
<!DOCTYPE svg PUBLIC "-//W3C//DTD SVG 1.1//EN"
 "http://www.w3.org/Graphics/SVG/1.1/DTD/svg11.dtd">
<!-- Generated by graphviz version 5.0.0 (20220707.2338)
 -->
<!-- Title: MultiCameraLog.cpp Pages: 1 -->
<svg width="282pt" height="140pt"
 viewBox="0.00 0.00 281.50 140.00" xmlns="http://www.w3.org/2000/svg" xmlns:xlink="http://www.w3.org/1999/xlink">
<g id="graph0" class="graph" transform="scale(1 1) rotate(0) translate(4 136)">
<title>MultiCameraLog.cpp</title>
<!-- Node1 -->
<g id="node1" class="node">
<title>Node1</title>
<g id="a_node1"><a xlink:title=" ">
<polygon fill="#bfbfbf" stroke="black" points="83.5,-112.5 83.5,-131.5 200.5,-131.5 200.5,-112.5 83.5,-112.5"/>
<text text-anchor="middle" x="142" y="-119.5" font-family="FreeSans.ttf" font-size="10.00">MultiCameraLog.cpp</text>
</a>
</g>
</g>
<!-- Node2 -->
<g id="node2" class="node">
<title>Node2</title>
<g id="a_node2"><a xlink:href="MultiCameraLog_8h.html" target="_top" xlink:title=" ">
<polygon fill="none" stroke="black" points="70,-56.5 70,-75.5 214,-75.5 214,-56.5 70,-56.5"/>
<text text-anchor="middle" x="142" y="-63.5" font-family="FreeSans.ttf" font-size="10.00">gazebo/MultiCameraLog.h</text>
</a>
</g>
</g>
<!-- Node1&#45;&gt;Node2 -->
<g id="edge1" class="edge">
<title>Node1&#45;&gt;Node2</title>
<path fill="none" stroke="midnightblue" d="M142,-112.08C142,-105.01 142,-94.86 142,-85.99"/>
<polygon fill="midnightblue" stroke="midnightblue" points="145.5,-85.75 142,-75.75 138.5,-85.75 145.5,-85.75"/>
</g>
<!-- Node3 -->
<g id="node3" class="node">
<title>Node3</title>
<g id="a_node3"><a xlink:title=" ">
<polygon fill="none" stroke="#bfbfbf" points="0,-0.5 0,-19.5 138,-19.5 138,-0.5 0,-0.5"/>
<text text-anchor="middle" x="69" y="-7.5" font-family="FreeSans.ttf" font-size="10.00">yarp/os/LogComponent.h</text>
</a>
</g>
</g>
<!-- Node2&#45;&gt;Node3 -->
<g id="edge2" class="edge">
<title>Node2&#45;&gt;Node3</title>
<path fill="none" stroke="midnightblue" d="M130.27,-56.32C119.16,-48.11 102.26,-35.6 89.02,-25.81"/>
<polygon fill="midnightblue" stroke="midnightblue" points="91.06,-22.97 80.94,-19.83 86.9,-28.59 91.06,-22.97"/>
</g>
<!-- Node4 -->
<g id="node4" class="node">
<title>Node4</title>
<g id="a_node4"><a xlink:title=" ">
<polygon fill="none" stroke="#bfbfbf" points="156.5,-0.5 156.5,-19.5 273.5,-19.5 273.5,-0.5 156.5,-0.5"/>
<text text-anchor="middle" x="215" y="-7.5" font-family="FreeSans.ttf" font-size="10.00">yarp/os/LogStream.h</text>
</a>
</g>
</g>
<!-- Node2&#45;&gt;Node4 -->
<g id="edge3" class="edge">
<title>Node2&#45;&gt;Node4</title>
<path fill="none" stroke="midnightblue" d="M153.73,-56.32C164.84,-48.11 181.74,-35.6 194.98,-25.81"/>
<polygon fill="midnightblue" stroke="midnightblue" points="197.1,-28.59 203.06,-19.83 192.94,-22.97 197.1,-28.59"/>
</g>
</g>
</svg>
