<?xml version="1.0" encoding="UTF-8" standalone="no"?>
<!DOCTYPE svg PUBLIC "-//W3C//DTD SVG 1.1//EN"
 "http://www.w3.org/Graphics/SVG/1.1/DTD/svg11.dtd">
<!-- Generated by graphviz version 2.43.0 (0)
 -->
<!-- Title: MultiCameraDriver.h Pages: 1 -->
<svg width="1294pt" height="95pt"
 viewBox="0.00 0.00 1294.00 95.00" xmlns="http://www.w3.org/2000/svg" xmlns:xlink="http://www.w3.org/1999/xlink">
<g id="graph0" class="graph" transform="scale(1 1) rotate(0) translate(4 91)">
<title>MultiCameraDriver.h</title>
<!-- Node1 -->
<g id="node1" class="node">
<title>Node1</title>
<g id="a_node1"><a xlink:title=" ">
<polygon fill="#bfbfbf" stroke="black" points="627,-67.5 627,-86.5 745,-86.5 745,-67.5 627,-67.5"/>
<text text-anchor="middle" x="686" y="-74.5" font-family="FreeSans.ttf" font-size="10.00">MultiCameraDriver.h</text>
</a>
</g>
</g>
<!-- Node2 -->
<g id="node2" class="node">
<title>Node2</title>
<g id="a_node2"><a xlink:title=" ">
<polygon fill="none" stroke="#bfbfbf" points="0,-6 0,-25 134,-25 134,-6 0,-6"/>
<text text-anchor="middle" x="67" y="-13" font-family="FreeSans.ttf" font-size="10.00">yarp/dev/DeviceDriver.h</text>
</a>
</g>
</g>
<!-- Node1&#45;&gt;Node2 -->
<g id="edge1" class="edge">
<title>Node1&#45;&gt;Node2</title>
<path fill="none" stroke="midnightblue" d="M626.72,-73.15C526.66,-67.87 318.03,-54.88 143,-31 134.68,-29.86 125.89,-28.42 117.35,-26.88"/>
<polygon fill="midnightblue" stroke="midnightblue" points="117.97,-23.44 107.49,-25.05 116.69,-30.32 117.97,-23.44"/>
</g>
<!-- Node3 -->
<g id="node3" class="node">
<title>Node3</title>
<g id="a_node3"><a xlink:title=" ">
<polygon fill="none" stroke="#bfbfbf" points="152,-6 152,-25 342,-25 342,-6 152,-6"/>
<text text-anchor="middle" x="247" y="-13" font-family="FreeSans.ttf" font-size="10.00">yarp/dev/FrameGrabberInterfaces.h</text>
</a>
</g>
</g>
<!-- Node1&#45;&gt;Node3 -->
<g id="edge2" class="edge">
<title>Node1&#45;&gt;Node3</title>
<path fill="none" stroke="midnightblue" d="M626.99,-68.16C560.06,-59.25 447.66,-44.23 351,-31 340.28,-29.53 328.95,-27.97 317.85,-26.43"/>
<polygon fill="midnightblue" stroke="midnightblue" points="318.15,-22.93 307.76,-25.02 317.18,-29.87 318.15,-22.93"/>
</g>
<!-- Node4 -->
<g id="node4" class="node">
<title>Node4</title>
<g id="a_node4"><a xlink:title=" ">
<polygon fill="none" stroke="#bfbfbf" points="360,-6 360,-25 456,-25 456,-6 360,-6"/>
<text text-anchor="middle" x="408" y="-13" font-family="FreeSans.ttf" font-size="10.00">yarp/os/Stamp.h</text>
</a>
</g>
</g>
<!-- Node1&#45;&gt;Node4 -->
<g id="edge3" class="edge">
<title>Node1&#45;&gt;Node4</title>
<path fill="none" stroke="midnightblue" d="M641,-67.5C596.24,-58.88 525.69,-44.89 465,-31 460.27,-29.92 455.34,-28.74 450.43,-27.53"/>
<polygon fill="midnightblue" stroke="midnightblue" points="451.04,-24.08 440.49,-25.05 449.34,-30.87 451.04,-24.08"/>
</g>
<!-- Node5 -->
<g id="node5" class="node">
<title>Node5</title>
<g id="a_node5"><a xlink:title=" ">
<polygon fill="none" stroke="#bfbfbf" points="474.5,-6 474.5,-25 623.5,-25 623.5,-6 474.5,-6"/>
<text text-anchor="middle" x="549" y="-13" font-family="FreeSans.ttf" font-size="10.00">yarp/dev/IPreciselyTimed.h</text>
</a>
</g>
</g>
<!-- Node1&#45;&gt;Node5 -->
<g id="edge4" class="edge">
<title>Node1&#45;&gt;Node5</title>
<path fill="none" stroke="midnightblue" d="M666.37,-67.48C643.18,-57.4 604.38,-40.55 577.79,-29"/>
<polygon fill="midnightblue" stroke="midnightblue" points="579.16,-25.78 568.59,-25.01 576.37,-32.2 579.16,-25.78"/>
</g>
<!-- Node6 -->
<g id="node6" class="node">
<title>Node6</title>
<g id="a_node6"><a xlink:title=" ">
<polygon fill="none" stroke="#bfbfbf" points="641.5,-6 641.5,-25 730.5,-25 730.5,-6 641.5,-6"/>
<text text-anchor="middle" x="686" y="-13" font-family="FreeSans.ttf" font-size="10.00">yarp/os/Time.h</text>
</a>
</g>
</g>
<!-- Node1&#45;&gt;Node6 -->
<g id="edge5" class="edge">
<title>Node1&#45;&gt;Node6</title>
<path fill="none" stroke="midnightblue" d="M686,-67.48C686,-59.08 686,-45.98 686,-35.16"/>
<polygon fill="midnightblue" stroke="midnightblue" points="689.5,-35.01 686,-25.01 682.5,-35.01 689.5,-35.01"/>
</g>
<!-- Node7 -->
<g id="node7" class="node">
<title>Node7</title>
<g id="a_node7"><a xlink:title=" ">
<polygon fill="none" stroke="#bfbfbf" points="748.5,-6 748.5,-25 867.5,-25 867.5,-6 748.5,-6"/>
<text text-anchor="middle" x="808" y="-13" font-family="FreeSans.ttf" font-size="10.00">boost/shared_ptr.hpp</text>
</a>
</g>
</g>
<!-- Node1&#45;&gt;Node7 -->
<g id="edge6" class="edge">
<title>Node1&#45;&gt;Node7</title>
<path fill="none" stroke="midnightblue" d="M703.48,-67.48C723.86,-57.53 757.78,-40.99 781.42,-29.46"/>
<polygon fill="midnightblue" stroke="midnightblue" points="783.1,-32.54 790.55,-25.01 780.03,-26.25 783.1,-32.54"/>
</g>
<!-- Node8 -->
<g id="node8" class="node">
<title>Node8</title>
<g id="a_node8"><a xlink:title=" ">
<polygon fill="none" stroke="#bfbfbf" points="886,-6 886,-25 1044,-25 1044,-6 886,-6"/>
<text text-anchor="middle" x="965" y="-13" font-family="FreeSans.ttf" font-size="10.00">gazebo/rendering/Camera.hh</text>
</a>
</g>
</g>
<!-- Node1&#45;&gt;Node8 -->
<g id="edge7" class="edge">
<title>Node1&#45;&gt;Node8</title>
<path fill="none" stroke="midnightblue" d="M725.97,-67.48C775.8,-56.85 860.97,-38.68 915.05,-27.15"/>
<polygon fill="midnightblue" stroke="midnightblue" points="916.05,-30.52 925.1,-25.01 914.59,-23.67 916.05,-30.52"/>
</g>
<!-- Node9 -->
<g id="node9" class="node">
<title>Node9</title>
<g id="a_node9"><a xlink:title=" ">
<polygon fill="none" stroke="#bfbfbf" points="1062,-0.5 1062,-30.5 1220,-30.5 1220,-0.5 1062,-0.5"/>
<text text-anchor="start" x="1070" y="-18.5" font-family="FreeSans.ttf" font-size="10.00">gazebo/sensors/MultiCamera</text>
<text text-anchor="middle" x="1141" y="-7.5" font-family="FreeSans.ttf" font-size="10.00">Sensor.hh</text>
</a>
</g>
</g>
<!-- Node1&#45;&gt;Node9 -->
<g id="edge8" class="edge">
<title>Node1&#45;&gt;Node9</title>
<path fill="none" stroke="midnightblue" d="M745.21,-69.5C815.79,-61.59 937.52,-47.39 1051.89,-31.12"/>
<polygon fill="midnightblue" stroke="midnightblue" points="1052.47,-34.58 1061.87,-29.7 1051.47,-27.65 1052.47,-34.58"/>
</g>
<!-- Node10 -->
<g id="node10" class="node">
<title>Node10</title>
<g id="a_node10"><a xlink:title=" ">
<polygon fill="none" stroke="#bfbfbf" points="1238,-6 1238,-25 1286,-25 1286,-6 1238,-6"/>
<text text-anchor="middle" x="1262" y="-13" font-family="FreeSans.ttf" font-size="10.00">mutex</text>
</a>
</g>
</g>
<!-- Node1&#45;&gt;Node10 -->
<g id="edge9" class="edge">
<title>Node1&#45;&gt;Node10</title>
<path fill="none" stroke="midnightblue" d="M745.3,-73.56C866.51,-68.17 1138.8,-53.87 1229,-31 1231.3,-30.42 1233.65,-29.69 1235.97,-28.87"/>
<polygon fill="midnightblue" stroke="midnightblue" points="1237.28,-32.11 1245.25,-25.14 1234.67,-25.62 1237.28,-32.11"/>
</g>
</g>
</svg>
