<?xml version="1.0" encoding="UTF-8" standalone="no"?>
<!DOCTYPE svg PUBLIC "-//W3C//DTD SVG 1.1//EN"
 "http://www.w3.org/Graphics/SVG/1.1/DTD/svg11.dtd">
<!-- Generated by graphviz version 5.0.1 (20220821.0811)
 -->
<!-- Title: MultiCamera.cc Pages: 1 -->
<svg width="2900pt" height="229pt"
 viewBox="0.00 0.00 2899.50 229.00" xmlns="http://www.w3.org/2000/svg" xmlns:xlink="http://www.w3.org/1999/xlink">
<g id="graph0" class="graph" transform="scale(1 1) rotate(0) translate(4 225)">
<title>MultiCamera.cc</title>
<!-- Node1 -->
<g id="node1" class="node">
<title>Node1</title>
<g id="a_node1"><a xlink:title=" ">
<polygon fill="#bfbfbf" stroke="black" points="1882.5,-201.5 1882.5,-220.5 1975.5,-220.5 1975.5,-201.5 1882.5,-201.5"/>
<text text-anchor="middle" x="1929" y="-208.5" font-family="FreeSans.ttf" font-size="10.00">MultiCamera.cc</text>
</a>
</g>
</g>
<!-- Node2 -->
<g id="node2" class="node">
<title>Node2</title>
<g id="a_node2"><a xlink:href="MultiCamera_8hh.html" target="_top" xlink:title=" ">
<polygon fill="none" stroke="black" points="203.5,-140 203.5,-159 336.5,-159 336.5,-140 203.5,-140"/>
<text text-anchor="middle" x="270" y="-147" font-family="FreeSans.ttf" font-size="10.00">gazebo/MultiCamera.hh</text>
</a>
</g>
</g>
<!-- Node1&#45;&gt;Node2 -->
<g id="edge1" class="edge">
<title>Node1&#45;&gt;Node2</title>
<path fill="none" stroke="midnightblue" d="M1882.29,-209.54C1655.04,-207.15 663.41,-195.17 356,-165 345.49,-163.97 334.33,-162.42 323.65,-160.72"/>
<polygon fill="midnightblue" stroke="midnightblue" points="324.03,-157.24 313.59,-159.05 322.89,-164.14 324.03,-157.24"/>
</g>
<!-- Node7 -->
<g id="node7" class="node">
<title>Node7</title>
<g id="a_node7"><a xlink:title=" ">
<polygon fill="none" stroke="#bfbfbf" points="351,-0.5 351,-30.5 509,-30.5 509,-0.5 351,-0.5"/>
<text text-anchor="start" x="359" y="-18.5" font-family="FreeSans.ttf" font-size="10.00">gazebo/sensors/MultiCamera</text>
<text text-anchor="middle" x="430" y="-7.5" font-family="FreeSans.ttf" font-size="10.00">Sensor.hh</text>
</a>
</g>
</g>
<!-- Node1&#45;&gt;Node7 -->
<g id="edge42" class="edge">
<title>Node1&#45;&gt;Node7</title>
<path fill="none" stroke="midnightblue" d="M1882.21,-210.38C1635.19,-211.88 490.32,-212.59 389,-98 373.44,-80.4 389.67,-55.85 406.07,-38.3"/>
<polygon fill="midnightblue" stroke="midnightblue" points="408.96,-40.35 413.51,-30.78 403.99,-35.43 408.96,-40.35"/>
</g>
<!-- Node9 -->
<g id="node9" class="node">
<title>Node9</title>
<g id="a_node9"><a xlink:title=" ">
<polygon fill="none" stroke="#bfbfbf" points="1400,-73 1400,-92 1522,-92 1522,-73 1400,-73"/>
<text text-anchor="middle" x="1461" y="-80" font-family="FreeSans.ttf" font-size="10.00">yarp/dev/PolyDriver.h</text>
</a>
</g>
</g>
<!-- Node1&#45;&gt;Node9 -->
<g id="edge47" class="edge">
<title>Node1&#45;&gt;Node9</title>
<path fill="none" stroke="midnightblue" d="M1891.06,-201.48C1852.99,-192.81 1792.74,-178.71 1741,-165 1653.65,-141.85 1551.98,-111.36 1498.43,-95.02"/>
<polygon fill="midnightblue" stroke="midnightblue" points="1499.28,-91.62 1488.7,-92.04 1497.24,-98.31 1499.28,-91.62"/>
</g>
<!-- Node11 -->
<g id="node11" class="node">
<title>Node11</title>
<g id="a_node11"><a xlink:href="MultiCameraLog_8h.html" target="_top" xlink:title=" ">
<polygon fill="none" stroke="black" points="2138,-140 2138,-159 2282,-159 2282,-140 2138,-140"/>
<text text-anchor="middle" x="2210" y="-147" font-family="FreeSans.ttf" font-size="10.00">gazebo/MultiCameraLog.h</text>
</a>
</g>
</g>
<!-- Node1&#45;&gt;Node11 -->
<g id="edge12" class="edge">
<title>Node1&#45;&gt;Node11</title>
<path fill="none" stroke="midnightblue" d="M1969.26,-201.48C2019.44,-190.85 2105.23,-172.68 2159.69,-161.15"/>
<polygon fill="midnightblue" stroke="midnightblue" points="2160.76,-164.5 2169.81,-159.01 2159.31,-157.66 2160.76,-164.5"/>
</g>
<!-- Node13 -->
<g id="node13" class="node">
<title>Node13</title>
<g id="a_node13"><a xlink:title=" ">
<polygon fill="none" stroke="#bfbfbf" points="2774.5,-73 2774.5,-92 2891.5,-92 2891.5,-73 2774.5,-73"/>
<text text-anchor="middle" x="2833" y="-80" font-family="FreeSans.ttf" font-size="10.00">yarp/os/LogStream.h</text>
</a>
</g>
</g>
<!-- Node1&#45;&gt;Node13 -->
<g id="edge46" class="edge">
<title>Node1&#45;&gt;Node13</title>
<path fill="none" stroke="midnightblue" d="M1975.71,-207.34C2060.26,-202.01 2235.09,-188.48 2291,-165 2311.41,-156.43 2309.41,-142.15 2330,-134 2510.36,-62.57 2573.08,-126.29 2765,-98 2772.22,-96.94 2779.83,-95.56 2787.24,-94.09"/>
<polygon fill="midnightblue" stroke="midnightblue" points="2788.08,-97.49 2797.16,-92.04 2786.66,-90.64 2788.08,-97.49"/>
</g>
<!-- Node14 -->
<g id="node14" class="node">
<title>Node14</title>
<g id="a_node14"><a xlink:href="MultiCameraDriver_8h.html" target="_top" xlink:title=" ">
<polygon fill="none" stroke="black" points="941,-140 941,-159 1105,-159 1105,-140 941,-140"/>
<text text-anchor="middle" x="1023" y="-147" font-family="FreeSans.ttf" font-size="10.00">yarp/dev/MultiCameraDriver.h</text>
</a>
</g>
</g>
<!-- Node1&#45;&gt;Node14 -->
<g id="edge15" class="edge">
<title>Node1&#45;&gt;Node14</title>
<path fill="none" stroke="midnightblue" d="M1882.2,-206.93C1739.18,-197.53 1306.08,-169.09 1115.12,-156.55"/>
<polygon fill="midnightblue" stroke="midnightblue" points="1115.32,-153.06 1105.11,-155.89 1114.86,-160.04 1115.32,-153.06"/>
</g>
<!-- Node22 -->
<g id="node22" class="node">
<title>Node22</title>
<g id="a_node22"><a xlink:href="Handler_8hh.html" target="_top" xlink:title=" ">
<polygon fill="none" stroke="black" points="1750,-140 1750,-159 1914,-159 1914,-140 1750,-140"/>
<text text-anchor="middle" x="1832" y="-147" font-family="FreeSans.ttf" font-size="10.00">GazeboYarpPlugins/Handler.hh</text>
</a>
</g>
</g>
<!-- Node1&#45;&gt;Node22 -->
<g id="edge26" class="edge">
<title>Node1&#45;&gt;Node22</title>
<path fill="none" stroke="midnightblue" d="M1915.1,-201.48C1899.33,-191.8 1873.36,-175.87 1854.65,-164.39"/>
<polygon fill="midnightblue" stroke="midnightblue" points="1856.23,-161.25 1845.87,-159.01 1852.57,-167.22 1856.23,-161.25"/>
</g>
<!-- Node27 -->
<g id="node27" class="node">
<title>Node27</title>
<g id="a_node27"><a xlink:href="common_8h.html" target="_top" xlink:title=" ">
<polygon fill="none" stroke="black" points="0,-140 0,-159 164,-159 164,-140 0,-140"/>
<text text-anchor="middle" x="82" y="-147" font-family="FreeSans.ttf" font-size="10.00">GazeboYarpPlugins/common.h</text>
</a>
</g>
</g>
<!-- Node1&#45;&gt;Node27 -->
<g id="edge34" class="edge">
<title>Node1&#45;&gt;Node27</title>
<path fill="none" stroke="midnightblue" d="M1882.38,-209.44C1641.5,-206.45 535.91,-191.5 194,-165 179.39,-163.87 163.76,-162.16 148.96,-160.31"/>
<polygon fill="midnightblue" stroke="midnightblue" points="149.22,-156.82 138.86,-159.01 148.33,-163.76 149.22,-156.82"/>
</g>
<!-- Node29 -->
<g id="node29" class="node">
<title>Node29</title>
<g id="a_node29"><a xlink:href="ConfHelpers_8hh.html" target="_top" xlink:title=" ">
<polygon fill="none" stroke="black" points="1932.5,-140 1932.5,-159 2119.5,-159 2119.5,-140 1932.5,-140"/>
<text text-anchor="middle" x="2026" y="-147" font-family="FreeSans.ttf" font-size="10.00">GazeboYarpPlugins/ConfHelpers.hh</text>
</a>
</g>
</g>
<!-- Node1&#45;&gt;Node29 -->
<g id="edge37" class="edge">
<title>Node1&#45;&gt;Node29</title>
<path fill="none" stroke="midnightblue" d="M1942.9,-201.48C1958.67,-191.8 1984.64,-175.87 2003.35,-164.39"/>
<polygon fill="midnightblue" stroke="midnightblue" points="2005.43,-167.22 2012.13,-159.01 2001.77,-161.25 2005.43,-167.22"/>
</g>
<!-- Node32 -->
<g id="node32" class="node">
<title>Node32</title>
<g id="a_node32"><a xlink:title=" ">
<polygon fill="none" stroke="#bfbfbf" points="2338.5,-134.5 2338.5,-164.5 2501.5,-164.5 2501.5,-134.5 2338.5,-134.5"/>
<text text-anchor="start" x="2346.5" y="-152.5" font-family="FreeSans.ttf" font-size="10.00">gazebo/sensors/DepthCamera</text>
<text text-anchor="middle" x="2420" y="-141.5" font-family="FreeSans.ttf" font-size="10.00">Sensor.hh</text>
</a>
</g>
</g>
<!-- Node1&#45;&gt;Node32 -->
<g id="edge43" class="edge">
<title>Node1&#45;&gt;Node32</title>
<path fill="none" stroke="midnightblue" d="M1975.59,-205.25C2049.53,-197.58 2198.27,-181.65 2324,-165 2325.46,-164.81 2326.94,-164.61 2328.42,-164.41"/>
<polygon fill="midnightblue" stroke="midnightblue" points="2328.9,-167.88 2338.33,-163.04 2327.94,-160.94 2328.9,-167.88"/>
</g>
<!-- Node33 -->
<g id="node33" class="node">
<title>Node33</title>
<g id="a_node33"><a xlink:title=" ">
<polygon fill="none" stroke="#bfbfbf" points="2519.5,-140 2519.5,-159 2700.5,-159 2700.5,-140 2519.5,-140"/>
<text text-anchor="middle" x="2610" y="-147" font-family="FreeSans.ttf" font-size="10.00">gazebo/sensors/CameraSensor.hh</text>
</a>
</g>
</g>
<!-- Node1&#45;&gt;Node33 -->
<g id="edge44" class="edge">
<title>Node1&#45;&gt;Node33</title>
<path fill="none" stroke="midnightblue" d="M1975.87,-207.46C2074.9,-201.87 2312.59,-187.17 2511,-165 2522.42,-163.72 2534.54,-162.14 2546.24,-160.49"/>
<polygon fill="midnightblue" stroke="midnightblue" points="2546.99,-163.92 2556.39,-159.03 2546,-156.99 2546.99,-163.92"/>
</g>
<!-- Node34 -->
<g id="node34" class="node">
<title>Node34</title>
<g id="a_node34"><a xlink:title=" ">
<polygon fill="none" stroke="#bfbfbf" points="2719,-140 2719,-159 2825,-159 2825,-140 2719,-140"/>
<text text-anchor="middle" x="2772" y="-147" font-family="FreeSans.ttf" font-size="10.00">yarp/os/Network.h</text>
</a>
</g>
</g>
<!-- Node1&#45;&gt;Node34 -->
<g id="edge45" class="edge">
<title>Node1&#45;&gt;Node34</title>
<path fill="none" stroke="midnightblue" d="M1975.94,-210.1C2097.76,-209.76 2433.77,-204.95 2710,-165 2716.69,-164.03 2723.72,-162.7 2730.55,-161.23"/>
<polygon fill="midnightblue" stroke="midnightblue" points="2731.36,-164.64 2740.34,-159.01 2729.81,-157.81 2731.36,-164.64"/>
</g>
<!-- Node3 -->
<g id="node3" class="node">
<title>Node3</title>
<g id="a_node3"><a xlink:title=" ">
<polygon fill="none" stroke="#bfbfbf" points="122,-6 122,-25 268,-25 268,-6 122,-6"/>
<text text-anchor="middle" x="195" y="-13" font-family="FreeSans.ttf" font-size="10.00">gazebo/common/Plugin.hh</text>
</a>
</g>
</g>
<!-- Node2&#45;&gt;Node3 -->
<g id="edge2" class="edge">
<title>Node2&#45;&gt;Node3</title>
<path fill="none" stroke="midnightblue" d="M236.74,-139.93C215.6,-132.57 189.87,-119.63 177,-98 165.23,-78.22 175,-51.61 184.1,-34.26"/>
<polygon fill="midnightblue" stroke="midnightblue" points="187.33,-35.67 189.22,-25.24 181.24,-32.21 187.33,-35.67"/>
</g>
<!-- Node4 -->
<g id="node4" class="node">
<title>Node4</title>
<g id="a_node4"><a xlink:href="MultiCameraPlugin_8hh.html" target="_top" xlink:title=" ">
<polygon fill="none" stroke="black" points="186,-67.5 186,-97.5 342,-97.5 342,-67.5 186,-67.5"/>
<text text-anchor="start" x="194" y="-85.5" font-family="FreeSans.ttf" font-size="10.00">gazebo/plugins/MultiCamera</text>
<text text-anchor="middle" x="264" y="-74.5" font-family="FreeSans.ttf" font-size="10.00">Plugin.hh</text>
</a>
</g>
</g>
<!-- Node2&#45;&gt;Node4 -->
<g id="edge3" class="edge">
<title>Node2&#45;&gt;Node4</title>
<path fill="none" stroke="midnightblue" d="M269.19,-139.73C268.43,-131.54 267.27,-118.92 266.24,-107.71"/>
<polygon fill="midnightblue" stroke="midnightblue" points="269.7,-107.22 265.3,-97.59 262.73,-107.87 269.7,-107.22"/>
</g>
<!-- Node5 -->
<g id="node5" class="node">
<title>Node5</title>
<g id="a_node5"><a xlink:title=" ">
<polygon fill="none" stroke="#bfbfbf" points="60,-6 60,-25 104,-25 104,-6 60,-6"/>
<text text-anchor="middle" x="82" y="-13" font-family="FreeSans.ttf" font-size="10.00">string</text>
</a>
</g>
</g>
<!-- Node2&#45;&gt;Node5 -->
<g id="edge11" class="edge">
<title>Node2&#45;&gt;Node5</title>
<path fill="none" stroke="midnightblue" d="M248.26,-139.99C226.87,-131.1 193.77,-115.98 168,-98 140.31,-78.68 112.77,-50.63 96.58,-32.99"/>
<polygon fill="midnightblue" stroke="midnightblue" points="98.89,-30.32 89.59,-25.25 93.69,-35.01 98.89,-30.32"/>
</g>
<!-- Node2&#45;&gt;Node9 -->
<g id="edge9" class="edge">
<title>Node2&#45;&gt;Node9</title>
<path fill="none" stroke="midnightblue" d="M336.83,-146.89C545.8,-141.62 1185.13,-123.79 1391,-98 1398.88,-97.01 1407.19,-95.61 1415.23,-94.07"/>
<polygon fill="midnightblue" stroke="midnightblue" points="1416.1,-97.46 1425.21,-92.06 1414.72,-90.6 1416.1,-97.46"/>
</g>
<!-- Node10 -->
<g id="node10" class="node">
<title>Node10</title>
<g id="a_node10"><a xlink:title=" ">
<polygon fill="none" stroke="#bfbfbf" points="398,-73 398,-92 588,-92 588,-73 398,-73"/>
<text text-anchor="middle" x="493" y="-80" font-family="FreeSans.ttf" font-size="10.00">yarp/dev/FrameGrabberInterfaces.h</text>
</a>
</g>
</g>
<!-- Node2&#45;&gt;Node10 -->
<g id="edge10" class="edge">
<title>Node2&#45;&gt;Node10</title>
<path fill="none" stroke="midnightblue" d="M299.61,-139.87C339.29,-128.3 409.81,-107.75 453.84,-94.91"/>
<polygon fill="midnightblue" stroke="midnightblue" points="455,-98.22 463.62,-92.06 453.04,-91.5 455,-98.22"/>
</g>
<!-- Node4&#45;&gt;Node3 -->
<g id="edge6" class="edge">
<title>Node4&#45;&gt;Node3</title>
<path fill="none" stroke="midnightblue" d="M249.03,-67.4C238.06,-57.06 223.16,-43.02 211.78,-32.31"/>
<polygon fill="midnightblue" stroke="midnightblue" points="213.91,-29.5 204.23,-25.19 209.11,-34.6 213.91,-29.5"/>
</g>
<!-- Node4&#45;&gt;Node5 -->
<g id="edge4" class="edge">
<title>Node4&#45;&gt;Node5</title>
<path fill="none" stroke="midnightblue" d="M217.58,-67.49C187.45,-58.03 147.53,-44.79 113,-31 111.62,-30.45 110.22,-29.87 108.8,-29.27"/>
<polygon fill="midnightblue" stroke="midnightblue" points="110.11,-26.02 99.55,-25.14 107.26,-32.41 110.11,-26.02"/>
</g>
<!-- Node6 -->
<g id="node6" class="node">
<title>Node6</title>
<g id="a_node6"><a xlink:title=" ">
<polygon fill="none" stroke="#bfbfbf" points="286.5,-6 286.5,-25 333.5,-25 333.5,-6 286.5,-6"/>
<text text-anchor="middle" x="310" y="-13" font-family="FreeSans.ttf" font-size="10.00">vector</text>
</a>
</g>
</g>
<!-- Node4&#45;&gt;Node6 -->
<g id="edge5" class="edge">
<title>Node4&#45;&gt;Node6</title>
<path fill="none" stroke="midnightblue" d="M273.98,-67.4C281.01,-57.46 290.46,-44.11 297.92,-33.57"/>
<polygon fill="midnightblue" stroke="midnightblue" points="300.93,-35.38 303.85,-25.19 295.21,-31.34 300.93,-35.38"/>
</g>
<!-- Node4&#45;&gt;Node7 -->
<g id="edge7" class="edge">
<title>Node4&#45;&gt;Node7</title>
<path fill="none" stroke="midnightblue" d="M300.02,-67.4C324.82,-57.69 357.96,-44.71 384.57,-34.29"/>
<polygon fill="midnightblue" stroke="midnightblue" points="386.02,-37.48 394.05,-30.58 383.46,-30.96 386.02,-37.48"/>
</g>
<!-- Node8 -->
<g id="node8" class="node">
<title>Node8</title>
<g id="a_node8"><a xlink:title=" ">
<polygon fill="none" stroke="#bfbfbf" points="688,-6 688,-25 846,-25 846,-6 688,-6"/>
<text text-anchor="middle" x="767" y="-13" font-family="FreeSans.ttf" font-size="10.00">gazebo/rendering/Camera.hh</text>
</a>
</g>
</g>
<!-- Node4&#45;&gt;Node8 -->
<g id="edge8" class="edge">
<title>Node4&#45;&gt;Node8</title>
<path fill="none" stroke="midnightblue" d="M342.04,-71.42C437.22,-59.12 597.03,-38.46 691.19,-26.3"/>
<polygon fill="midnightblue" stroke="midnightblue" points="691.75,-29.75 701.21,-25 690.85,-22.81 691.75,-29.75"/>
</g>
<!-- Node12 -->
<g id="node12" class="node">
<title>Node12</title>
<g id="a_node12"><a xlink:title=" ">
<polygon fill="none" stroke="#bfbfbf" points="2618,-73 2618,-92 2756,-92 2756,-73 2618,-73"/>
<text text-anchor="middle" x="2687" y="-80" font-family="FreeSans.ttf" font-size="10.00">yarp/os/LogComponent.h</text>
</a>
</g>
</g>
<!-- Node11&#45;&gt;Node12 -->
<g id="edge13" class="edge">
<title>Node11&#45;&gt;Node12</title>
<path fill="none" stroke="midnightblue" d="M2258.14,-139.92C2270.47,-137.86 2283.71,-135.74 2296,-134 2434.64,-114.35 2470.53,-118.81 2609,-98 2617.13,-96.78 2625.72,-95.34 2634.1,-93.85"/>
<polygon fill="midnightblue" stroke="midnightblue" points="2634.96,-97.25 2644.18,-92.01 2633.71,-90.36 2634.96,-97.25"/>
</g>
<!-- Node11&#45;&gt;Node13 -->
<g id="edge14" class="edge">
<title>Node11&#45;&gt;Node13</title>
<path fill="none" stroke="midnightblue" d="M2255.86,-139.98C2268.8,-137.79 2282.92,-135.6 2296,-134 2503.51,-108.6 2558.09,-127.87 2765,-98 2772.31,-96.94 2780.01,-95.57 2787.5,-94.08"/>
<polygon fill="midnightblue" stroke="midnightblue" points="2788.43,-97.46 2797.52,-92 2787.01,-90.6 2788.43,-97.46"/>
</g>
<!-- Node14&#45;&gt;Node7 -->
<g id="edge24" class="edge">
<title>Node14&#45;&gt;Node7</title>
<path fill="none" stroke="midnightblue" d="M940.89,-143.26C843.43,-136.1 687.4,-121.42 634,-98 614.35,-89.38 615.87,-77.2 597,-67 569.47,-52.12 536.96,-41.02 507.97,-33.08"/>
<polygon fill="midnightblue" stroke="midnightblue" points="508.85,-29.7 498.29,-30.51 507.05,-36.46 508.85,-29.7"/>
</g>
<!-- Node14&#45;&gt;Node8 -->
<g id="edge23" class="edge">
<title>Node14&#45;&gt;Node8</title>
<path fill="none" stroke="midnightblue" d="M1009.31,-139.9C993.91,-130.11 968.26,-113.47 947,-98 929.1,-84.97 927.35,-77.77 908,-67 876.9,-49.7 838.76,-36.46 809.98,-27.89"/>
<polygon fill="midnightblue" stroke="midnightblue" points="810.81,-24.48 800.23,-25.05 808.85,-31.2 810.81,-24.48"/>
</g>
<!-- Node14&#45;&gt;Node10 -->
<g id="edge17" class="edge">
<title>Node14&#45;&gt;Node10</title>
<path fill="none" stroke="midnightblue" d="M949.57,-139.98C865.54,-130.17 723.78,-113.4 602,-98 590.38,-96.53 578.08,-94.93 566.08,-93.35"/>
<polygon fill="midnightblue" stroke="midnightblue" points="566.47,-89.87 556.1,-92.03 565.55,-96.81 566.47,-89.87"/>
</g>
<!-- Node15 -->
<g id="node15" class="node">
<title>Node15</title>
<g id="a_node15"><a xlink:title=" ">
<polygon fill="none" stroke="#bfbfbf" points="956,-73 956,-92 1090,-92 1090,-73 956,-73"/>
<text text-anchor="middle" x="1023" y="-80" font-family="FreeSans.ttf" font-size="10.00">yarp/dev/DeviceDriver.h</text>
</a>
</g>
</g>
<!-- Node14&#45;&gt;Node15 -->
<g id="edge16" class="edge">
<title>Node14&#45;&gt;Node15</title>
<path fill="none" stroke="midnightblue" d="M1023,-139.73C1023,-130.18 1023,-114.62 1023,-102.28"/>
<polygon fill="midnightblue" stroke="midnightblue" points="1026.5,-102.13 1023,-92.13 1019.5,-102.13 1026.5,-102.13"/>
</g>
<!-- Node16 -->
<g id="node16" class="node">
<title>Node16</title>
<g id="a_node16"><a xlink:title=" ">
<polygon fill="none" stroke="#bfbfbf" points="1108.5,-73 1108.5,-92 1267.5,-92 1267.5,-73 1108.5,-73"/>
<text text-anchor="middle" x="1188" y="-80" font-family="FreeSans.ttf" font-size="10.00">yarp/dev/IRgbVisualParams.h</text>
</a>
</g>
</g>
<!-- Node14&#45;&gt;Node16 -->
<g id="edge18" class="edge">
<title>Node14&#45;&gt;Node16</title>
<path fill="none" stroke="midnightblue" d="M1044.91,-139.87C1073.59,-128.57 1124.04,-108.7 1156.73,-95.82"/>
<polygon fill="midnightblue" stroke="midnightblue" points="1158.24,-98.99 1166.26,-92.06 1155.67,-92.47 1158.24,-98.99"/>
</g>
<!-- Node17 -->
<g id="node17" class="node">
<title>Node17</title>
<g id="a_node17"><a xlink:title=" ">
<polygon fill="none" stroke="#bfbfbf" points="1286,-73 1286,-92 1382,-92 1382,-73 1286,-73"/>
<text text-anchor="middle" x="1334" y="-80" font-family="FreeSans.ttf" font-size="10.00">yarp/os/Stamp.h</text>
</a>
</g>
</g>
<!-- Node14&#45;&gt;Node17 -->
<g id="edge19" class="edge">
<title>Node14&#45;&gt;Node17</title>
<path fill="none" stroke="midnightblue" d="M1069.31,-139.95C1120.15,-130.4 1204.11,-114.15 1276,-98 1280.94,-96.89 1286.1,-95.68 1291.22,-94.44"/>
<polygon fill="midnightblue" stroke="midnightblue" points="1292.06,-97.84 1300.94,-92.06 1290.39,-91.04 1292.06,-97.84"/>
</g>
<!-- Node18 -->
<g id="node18" class="node">
<title>Node18</title>
<g id="a_node18"><a xlink:title=" ">
<polygon fill="none" stroke="#bfbfbf" points="643.5,-73 643.5,-92 792.5,-92 792.5,-73 643.5,-73"/>
<text text-anchor="middle" x="718" y="-80" font-family="FreeSans.ttf" font-size="10.00">yarp/dev/IPreciselyTimed.h</text>
</a>
</g>
</g>
<!-- Node14&#45;&gt;Node18 -->
<g id="edge20" class="edge">
<title>Node14&#45;&gt;Node18</title>
<path fill="none" stroke="midnightblue" d="M982.81,-139.94C927.61,-128.17 828.35,-107.02 768.29,-94.22"/>
<polygon fill="midnightblue" stroke="midnightblue" points="768.79,-90.74 758.28,-92.08 767.33,-97.59 768.79,-90.74"/>
</g>
<!-- Node19 -->
<g id="node19" class="node">
<title>Node19</title>
<g id="a_node19"><a xlink:title=" ">
<polygon fill="none" stroke="#bfbfbf" points="810.5,-73 810.5,-92 899.5,-92 899.5,-73 810.5,-73"/>
<text text-anchor="middle" x="855" y="-80" font-family="FreeSans.ttf" font-size="10.00">yarp/os/Time.h</text>
</a>
</g>
</g>
<!-- Node14&#45;&gt;Node19 -->
<g id="edge21" class="edge">
<title>Node14&#45;&gt;Node19</title>
<path fill="none" stroke="midnightblue" d="M1000.69,-139.87C971.49,-128.57 920.12,-108.7 886.84,-95.82"/>
<polygon fill="midnightblue" stroke="midnightblue" points="887.72,-92.41 877.13,-92.06 885.2,-98.94 887.72,-92.41"/>
</g>
<!-- Node20 -->
<g id="node20" class="node">
<title>Node20</title>
<g id="a_node20"><a xlink:title=" ">
<polygon fill="none" stroke="#bfbfbf" points="1772.5,-73 1772.5,-92 1891.5,-92 1891.5,-73 1772.5,-73"/>
<text text-anchor="middle" x="1832" y="-80" font-family="FreeSans.ttf" font-size="10.00">boost/shared_ptr.hpp</text>
</a>
</g>
</g>
<!-- Node14&#45;&gt;Node20 -->
<g id="edge22" class="edge">
<title>Node14&#45;&gt;Node20</title>
<path fill="none" stroke="midnightblue" d="M1105.24,-146.62C1242.23,-142.65 1525.59,-130.88 1763,-98 1770.5,-96.96 1778.41,-95.58 1786.09,-94.08"/>
<polygon fill="midnightblue" stroke="midnightblue" points="1786.9,-97.48 1796,-92.05 1785.5,-90.62 1786.9,-97.48"/>
</g>
<!-- Node21 -->
<g id="node21" class="node">
<title>Node21</title>
<g id="a_node21"><a xlink:title=" ">
<polygon fill="none" stroke="#bfbfbf" points="1540,-73 1540,-92 1588,-92 1588,-73 1540,-73"/>
<text text-anchor="middle" x="1564" y="-80" font-family="FreeSans.ttf" font-size="10.00">mutex</text>
</a>
</g>
</g>
<!-- Node14&#45;&gt;Node21 -->
<g id="edge25" class="edge">
<title>Node14&#45;&gt;Node21</title>
<path fill="none" stroke="midnightblue" d="M1105.34,-148.21C1206.99,-146.07 1384.4,-136.46 1531,-98 1533.3,-97.4 1535.64,-96.65 1537.96,-95.83"/>
<polygon fill="midnightblue" stroke="midnightblue" points="1539.28,-99.07 1547.24,-92.08 1536.66,-92.58 1539.28,-99.07"/>
</g>
<!-- Node22&#45;&gt;Node9 -->
<g id="edge31" class="edge">
<title>Node22&#45;&gt;Node9</title>
<path fill="none" stroke="midnightblue" d="M1777.51,-140C1717.13,-130.43 1616.93,-114.1 1531,-98 1524.44,-96.77 1517.55,-95.42 1510.76,-94.05"/>
<polygon fill="midnightblue" stroke="midnightblue" points="1511.42,-90.61 1500.93,-92.04 1510.03,-97.47 1511.42,-90.61"/>
</g>
<!-- Node22&#45;&gt;Node20 -->
<g id="edge29" class="edge">
<title>Node22&#45;&gt;Node20</title>
<path fill="none" stroke="midnightblue" d="M1832,-139.73C1832,-130.18 1832,-114.62 1832,-102.28"/>
<polygon fill="midnightblue" stroke="midnightblue" points="1835.5,-102.13 1832,-92.13 1828.5,-102.13 1835.5,-102.13"/>
</g>
<!-- Node22&#45;&gt;Node21 -->
<g id="edge30" class="edge">
<title>Node22&#45;&gt;Node21</title>
<path fill="none" stroke="midnightblue" d="M1775.79,-139.97C1727.4,-131.8 1656.09,-117.79 1596,-98 1594.13,-97.38 1592.23,-96.69 1590.32,-95.96"/>
<polygon fill="midnightblue" stroke="midnightblue" points="1591.58,-92.69 1581,-92.02 1588.85,-99.14 1591.58,-92.69"/>
</g>
<!-- Node23 -->
<g id="node23" class="node">
<title>Node23</title>
<g id="a_node23"><a xlink:title=" ">
<polygon fill="none" stroke="#bfbfbf" points="1910,-73 1910,-92 1948,-92 1948,-73 1910,-73"/>
<text text-anchor="middle" x="1929" y="-80" font-family="FreeSans.ttf" font-size="10.00">map</text>
</a>
</g>
</g>
<!-- Node22&#45;&gt;Node23 -->
<g id="edge27" class="edge">
<title>Node22&#45;&gt;Node23</title>
<path fill="none" stroke="midnightblue" d="M1845.08,-139.73C1861.15,-128.96 1888.63,-110.55 1907.75,-97.74"/>
<polygon fill="midnightblue" stroke="midnightblue" points="1909.77,-100.6 1916.13,-92.13 1905.87,-94.79 1909.77,-100.6"/>
</g>
<!-- Node24 -->
<g id="node24" class="node">
<title>Node24</title>
<g id="a_node24"><a xlink:title=" ">
<polygon fill="none" stroke="#bfbfbf" points="2124.5,-73 2124.5,-92 2217.5,-92 2217.5,-73 2124.5,-73"/>
<text text-anchor="middle" x="2171" y="-80" font-family="FreeSans.ttf" font-size="10.00">sdf/sdf_config.h</text>
</a>
</g>
</g>
<!-- Node22&#45;&gt;Node24 -->
<g id="edge28" class="edge">
<title>Node22&#45;&gt;Node24</title>
<path fill="none" stroke="midnightblue" d="M1882.43,-139.98C1951.4,-128.25 2071.54,-107.49 2115,-98 2119.78,-96.96 2124.76,-95.79 2129.7,-94.57"/>
<polygon fill="midnightblue" stroke="midnightblue" points="2130.86,-97.89 2139.71,-92.06 2129.15,-91.1 2130.86,-97.89"/>
</g>
<!-- Node25 -->
<g id="node25" class="node">
<title>Node25</title>
<g id="a_node25"><a xlink:title=" ">
<polygon fill="none" stroke="#bfbfbf" points="1966,-73 1966,-92 2106,-92 2106,-73 1966,-73"/>
<text text-anchor="middle" x="2036" y="-80" font-family="FreeSans.ttf" font-size="10.00">yarp/dev/PolyDriverList.h</text>
</a>
</g>
</g>
<!-- Node22&#45;&gt;Node25 -->
<g id="edge32" class="edge">
<title>Node22&#45;&gt;Node25</title>
<path fill="none" stroke="midnightblue" d="M1859.09,-139.87C1895.16,-128.38 1959.08,-108.01 1999.41,-95.16"/>
<polygon fill="midnightblue" stroke="midnightblue" points="2000.66,-98.43 2009.12,-92.06 1998.53,-91.76 2000.66,-98.43"/>
</g>
<!-- Node26 -->
<g id="node26" class="node">
<title>Node26</title>
<g id="a_node26"><a xlink:title=" ">
<polygon fill="none" stroke="#bfbfbf" points="1605.5,-73 1605.5,-92 1754.5,-92 1754.5,-73 1605.5,-73"/>
<text text-anchor="middle" x="1680" y="-80" font-family="FreeSans.ttf" font-size="10.00">gazebo/common/Events.hh</text>
</a>
</g>
</g>
<!-- Node22&#45;&gt;Node26 -->
<g id="edge33" class="edge">
<title>Node22&#45;&gt;Node26</title>
<path fill="none" stroke="midnightblue" d="M1811.82,-139.87C1785.7,-128.7 1739.97,-109.15 1709.84,-96.26"/>
<polygon fill="midnightblue" stroke="midnightblue" points="1710.84,-92.88 1700.27,-92.17 1708.09,-99.32 1710.84,-92.88"/>
</g>
<!-- Node27&#45;&gt;Node5 -->
<g id="edge35" class="edge">
<title>Node27&#45;&gt;Node5</title>
<path fill="none" stroke="midnightblue" d="M82,-139.84C82,-118.67 82,-63.95 82,-35.03"/>
<polygon fill="midnightblue" stroke="midnightblue" points="85.5,-35.02 82,-25.02 78.5,-35.02 85.5,-35.02"/>
</g>
<!-- Node28 -->
<g id="node28" class="node">
<title>Node28</title>
<g id="a_node28"><a xlink:title=" ">
<polygon fill="none" stroke="#bfbfbf" points="6.5,-73 6.5,-92 53.5,-92 53.5,-73 6.5,-73"/>
<text text-anchor="middle" x="30" y="-80" font-family="FreeSans.ttf" font-size="10.00">cmath</text>
</a>
</g>
</g>
<!-- Node27&#45;&gt;Node28 -->
<g id="edge36" class="edge">
<title>Node27&#45;&gt;Node28</title>
<path fill="none" stroke="midnightblue" d="M74.99,-139.73C66.88,-129.6 53.35,-112.69 43.24,-100.06"/>
<polygon fill="midnightblue" stroke="midnightblue" points="45.88,-97.75 36.9,-92.13 40.42,-102.12 45.88,-97.75"/>
</g>
<!-- Node29&#45;&gt;Node20 -->
<g id="edge39" class="edge">
<title>Node29&#45;&gt;Node20</title>
<path fill="none" stroke="midnightblue" d="M2000.24,-139.87C1966.08,-128.42 1905.66,-108.18 1867.29,-95.32"/>
<polygon fill="midnightblue" stroke="midnightblue" points="1868.15,-91.92 1857.56,-92.06 1865.93,-98.56 1868.15,-91.92"/>
</g>
<!-- Node29&#45;&gt;Node24 -->
<g id="edge38" class="edge">
<title>Node29&#45;&gt;Node24</title>
<path fill="none" stroke="midnightblue" d="M2045.25,-139.87C2070.17,-128.7 2113.79,-109.15 2142.53,-96.26"/>
<polygon fill="midnightblue" stroke="midnightblue" points="2143.97,-99.45 2151.67,-92.17 2141.11,-93.06 2143.97,-99.45"/>
</g>
<!-- Node30 -->
<g id="node30" class="node">
<title>Node30</title>
<g id="a_node30"><a xlink:title=" ">
<polygon fill="none" stroke="#bfbfbf" points="2428.5,-73 2428.5,-92 2599.5,-92 2599.5,-73 2428.5,-73"/>
<text text-anchor="middle" x="2514" y="-80" font-family="FreeSans.ttf" font-size="10.00">gazebo/sensors/SensorTypes.hh</text>
</a>
</g>
</g>
<!-- Node29&#45;&gt;Node30 -->
<g id="edge40" class="edge">
<title>Node29&#45;&gt;Node30</title>
<path fill="none" stroke="midnightblue" d="M2085.35,-139.98C2099.63,-137.97 2114.86,-135.87 2129,-134 2257.75,-116.95 2290.35,-115.8 2419,-98 2428.92,-96.63 2439.4,-95.1 2449.65,-93.57"/>
<polygon fill="midnightblue" stroke="midnightblue" points="2450.41,-97 2459.78,-92.04 2449.37,-90.07 2450.41,-97"/>
</g>
<!-- Node31 -->
<g id="node31" class="node">
<title>Node31</title>
<g id="a_node31"><a xlink:title=" ">
<polygon fill="none" stroke="#bfbfbf" points="2236,-73 2236,-92 2410,-92 2410,-73 2236,-73"/>
<text text-anchor="middle" x="2323" y="-80" font-family="FreeSans.ttf" font-size="10.00">gazebo/physics/PhysicsTypes.hh</text>
</a>
</g>
</g>
<!-- Node29&#45;&gt;Node31 -->
<g id="edge41" class="edge">
<title>Node29&#45;&gt;Node31</title>
<path fill="none" stroke="midnightblue" d="M2065.13,-139.94C2118.78,-128.2 2215.14,-107.11 2273.67,-94.3"/>
<polygon fill="midnightblue" stroke="midnightblue" points="2274.76,-97.64 2283.78,-92.08 2273.26,-90.8 2274.76,-97.64"/>
</g>
</g>
</svg>
