<?xml version="1.0" encoding="UTF-8" standalone="no"?>
<!DOCTYPE svg PUBLIC "-//W3C//DTD SVG 1.1//EN"
 "http://www.w3.org/Graphics/SVG/1.1/DTD/svg11.dtd">
<!-- Generated by graphviz version 2.43.0 (0)
 -->
<!-- Title: MultiCamera.hh Pages: 1 -->
<svg width="684pt" height="162pt"
 viewBox="0.00 0.00 684.00 162.00" xmlns="http://www.w3.org/2000/svg" xmlns:xlink="http://www.w3.org/1999/xlink">
<g id="graph0" class="graph" transform="scale(1 1) rotate(0) translate(4 158)">
<title>MultiCamera.hh</title>
<!-- Node1 -->
<g id="node1" class="node">
<title>Node1</title>
<g id="a_node1"><a xlink:title=" ">
<polygon fill="#bfbfbf" stroke="black" points="202.5,-134.5 202.5,-153.5 297.5,-153.5 297.5,-134.5 202.5,-134.5"/>
<text text-anchor="middle" x="250" y="-141.5" font-family="FreeSans.ttf" font-size="10.00">MultiCamera.hh</text>
</a>
</g>
</g>
<!-- Node2 -->
<g id="node2" class="node">
<title>Node2</title>
<g id="a_node2"><a xlink:title=" ">
<polygon fill="none" stroke="#bfbfbf" points="0,-6 0,-25 146,-25 146,-6 0,-6"/>
<text text-anchor="middle" x="73" y="-13" font-family="FreeSans.ttf" font-size="10.00">gazebo/common/Plugin.hh</text>
</a>
</g>
</g>
<!-- Node1&#45;&gt;Node2 -->
<g id="edge1" class="edge">
<title>Node1&#45;&gt;Node2</title>
<path fill="none" stroke="midnightblue" d="M225.87,-134.42C205.66,-126.61 176.58,-113.89 154,-98 127.09,-79.05 101.22,-50.67 86.23,-32.89"/>
<polygon fill="midnightblue" stroke="midnightblue" points="88.85,-30.58 79.78,-25.1 83.46,-35.04 88.85,-30.58"/>
</g>
<!-- Node3 -->
<g id="node3" class="node">
<title>Node3</title>
<g id="a_node3"><a xlink:href="MultiCameraPlugin_8hh.html" target="_top" xlink:title=" ">
<polygon fill="none" stroke="black" points="172,-67.5 172,-97.5 328,-97.5 328,-67.5 172,-67.5"/>
<text text-anchor="start" x="180" y="-85.5" font-family="FreeSans.ttf" font-size="10.00">gazebo/plugins/MultiCamera</text>
<text text-anchor="middle" x="250" y="-74.5" font-family="FreeSans.ttf" font-size="10.00">Plugin.hh</text>
</a>
</g>
</g>
<!-- Node1&#45;&gt;Node3 -->
<g id="edge2" class="edge">
<title>Node1&#45;&gt;Node3</title>
<path fill="none" stroke="midnightblue" d="M250,-134.48C250,-127.47 250,-117.19 250,-107.7"/>
<polygon fill="midnightblue" stroke="midnightblue" points="253.5,-107.52 250,-97.52 246.5,-107.52 253.5,-107.52"/>
</g>
<!-- Node4 -->
<g id="node4" class="node">
<title>Node4</title>
<g id="a_node4"><a xlink:title=" ">
<polygon fill="none" stroke="#bfbfbf" points="164,-6 164,-25 208,-25 208,-6 164,-6"/>
<text text-anchor="middle" x="186" y="-13" font-family="FreeSans.ttf" font-size="10.00">string</text>
</a>
</g>
</g>
<!-- Node1&#45;&gt;Node4 -->
<g id="edge10" class="edge">
<title>Node1&#45;&gt;Node4</title>
<path fill="none" stroke="midnightblue" d="M214.99,-134.45C196.07,-127.84 174.32,-116.59 163,-98 150.75,-77.87 162.86,-50.99 173.63,-33.71"/>
<polygon fill="midnightblue" stroke="midnightblue" points="176.67,-35.46 179.31,-25.2 170.84,-31.57 176.67,-35.46"/>
</g>
<!-- Node8 -->
<g id="node8" class="node">
<title>Node8</title>
<g id="a_node8"><a xlink:title=" ">
<polygon fill="none" stroke="#bfbfbf" points="346,-73 346,-92 468,-92 468,-73 346,-73"/>
<text text-anchor="middle" x="407" y="-80" font-family="FreeSans.ttf" font-size="10.00">yarp/dev/PolyDriver.h</text>
</a>
</g>
</g>
<!-- Node1&#45;&gt;Node8 -->
<g id="edge8" class="edge">
<title>Node1&#45;&gt;Node8</title>
<path fill="none" stroke="midnightblue" d="M272.49,-134.48C299.31,-124.31 344.32,-107.26 374.81,-95.7"/>
<polygon fill="midnightblue" stroke="midnightblue" points="376.44,-98.83 384.55,-92.01 373.96,-92.28 376.44,-98.83"/>
</g>
<!-- Node9 -->
<g id="node9" class="node">
<title>Node9</title>
<g id="a_node9"><a xlink:title=" ">
<polygon fill="none" stroke="#bfbfbf" points="486,-73 486,-92 676,-92 676,-73 486,-73"/>
<text text-anchor="middle" x="581" y="-80" font-family="FreeSans.ttf" font-size="10.00">yarp/dev/FrameGrabberInterfaces.h</text>
</a>
</g>
</g>
<!-- Node1&#45;&gt;Node9 -->
<g id="edge9" class="edge">
<title>Node1&#45;&gt;Node9</title>
<path fill="none" stroke="midnightblue" d="M297.42,-134.48C357.15,-123.74 459.69,-105.31 523.73,-93.79"/>
<polygon fill="midnightblue" stroke="midnightblue" points="524.44,-97.22 533.66,-92.01 523.2,-90.33 524.44,-97.22"/>
</g>
<!-- Node3&#45;&gt;Node2 -->
<g id="edge5" class="edge">
<title>Node3&#45;&gt;Node2</title>
<path fill="none" stroke="midnightblue" d="M211.59,-67.4C179.99,-55.79 135.67,-39.51 105.73,-28.52"/>
<polygon fill="midnightblue" stroke="midnightblue" points="106.76,-25.17 96.17,-25.01 104.35,-31.74 106.76,-25.17"/>
</g>
<!-- Node3&#45;&gt;Node4 -->
<g id="edge3" class="edge">
<title>Node3&#45;&gt;Node4</title>
<path fill="none" stroke="midnightblue" d="M236.11,-67.4C226.04,-57.16 212.38,-43.3 201.87,-32.62"/>
<polygon fill="midnightblue" stroke="midnightblue" points="204.07,-29.86 194.56,-25.19 199.08,-34.78 204.07,-29.86"/>
</g>
<!-- Node5 -->
<g id="node5" class="node">
<title>Node5</title>
<g id="a_node5"><a xlink:title=" ">
<polygon fill="none" stroke="#bfbfbf" points="226.5,-6 226.5,-25 273.5,-25 273.5,-6 226.5,-6"/>
<text text-anchor="middle" x="250" y="-13" font-family="FreeSans.ttf" font-size="10.00">vector</text>
</a>
</g>
</g>
<!-- Node3&#45;&gt;Node5 -->
<g id="edge4" class="edge">
<title>Node3&#45;&gt;Node5</title>
<path fill="none" stroke="midnightblue" d="M250,-67.4C250,-58.06 250,-45.71 250,-35.52"/>
<polygon fill="midnightblue" stroke="midnightblue" points="253.5,-35.19 250,-25.19 246.5,-35.19 253.5,-35.19"/>
</g>
<!-- Node6 -->
<g id="node6" class="node">
<title>Node6</title>
<g id="a_node6"><a xlink:title=" ">
<polygon fill="none" stroke="#bfbfbf" points="291,-0.5 291,-30.5 449,-30.5 449,-0.5 291,-0.5"/>
<text text-anchor="start" x="299" y="-18.5" font-family="FreeSans.ttf" font-size="10.00">gazebo/sensors/MultiCamera</text>
<text text-anchor="middle" x="370" y="-7.5" font-family="FreeSans.ttf" font-size="10.00">Sensor.hh</text>
</a>
</g>
</g>
<!-- Node3&#45;&gt;Node6 -->
<g id="edge6" class="edge">
<title>Node3&#45;&gt;Node6</title>
<path fill="none" stroke="midnightblue" d="M276.04,-67.4C293.34,-58.03 316.25,-45.62 335.12,-35.39"/>
<polygon fill="midnightblue" stroke="midnightblue" points="336.89,-38.42 344.01,-30.58 333.55,-32.26 336.89,-38.42"/>
</g>
<!-- Node7 -->
<g id="node7" class="node">
<title>Node7</title>
<g id="a_node7"><a xlink:title=" ">
<polygon fill="none" stroke="#bfbfbf" points="467,-6 467,-25 625,-25 625,-6 467,-6"/>
<text text-anchor="middle" x="546" y="-13" font-family="FreeSans.ttf" font-size="10.00">gazebo/rendering/Camera.hh</text>
</a>
</g>
</g>
<!-- Node3&#45;&gt;Node7 -->
<g id="edge7" class="edge">
<title>Node3&#45;&gt;Node7</title>
<path fill="none" stroke="midnightblue" d="M313.86,-67.48C368.88,-55.4 447.12,-38.21 497.22,-27.21"/>
<polygon fill="midnightblue" stroke="midnightblue" points="498.15,-30.59 507.16,-25.03 496.64,-23.76 498.15,-30.59"/>
</g>
</g>
</svg>
