<?xml version="1.0" encoding="UTF-8" standalone="no"?>
<!DOCTYPE svg PUBLIC "-//W3C//DTD SVG 1.1//EN"
 "http://www.w3.org/Graphics/SVG/1.1/DTD/svg11.dtd">
<!-- Generated by graphviz version 2.43.0 (0)
 -->
<!-- Title: MultiCameraDriver.cpp Pages: 1 -->
<svg width="2013pt" height="151pt"
 viewBox="0.00 0.00 2012.50 151.00" xmlns="http://www.w3.org/2000/svg" xmlns:xlink="http://www.w3.org/1999/xlink">
<g id="graph0" class="graph" transform="scale(1 1) rotate(0) translate(4 147)">
<title>MultiCameraDriver.cpp</title>
<!-- Node1 -->
<g id="node1" class="node">
<title>Node1</title>
<g id="a_node1"><a xlink:title=" ">
<polygon fill="#bfbfbf" stroke="black" points="1530,-123.5 1530,-142.5 1659,-142.5 1659,-123.5 1530,-123.5"/>
<text text-anchor="middle" x="1594.5" y="-130.5" font-family="FreeSans.ttf" font-size="10.00">MultiCameraDriver.cpp</text>
</a>
</g>
</g>
<!-- Node2 -->
<g id="node2" class="node">
<title>Node2</title>
<g id="a_node2"><a xlink:href="MultiCameraDriver_8h.html" target="_top" xlink:title=" ">
<polygon fill="none" stroke="black" points="695.5,-67.5 695.5,-86.5 859.5,-86.5 859.5,-67.5 695.5,-67.5"/>
<text text-anchor="middle" x="777.5" y="-74.5" font-family="FreeSans.ttf" font-size="10.00">yarp/dev/MultiCameraDriver.h</text>
</a>
</g>
</g>
<!-- Node1&#45;&gt;Node2 -->
<g id="edge1" class="edge">
<title>Node1&#45;&gt;Node2</title>
<path fill="none" stroke="midnightblue" d="M1529.71,-127.72C1385.28,-118.17 1036.53,-95.12 869.58,-84.09"/>
<polygon fill="midnightblue" stroke="midnightblue" points="869.78,-80.59 859.58,-83.42 869.32,-87.58 869.78,-80.59"/>
</g>
<!-- Node10 -->
<g id="node10" class="node">
<title>Node10</title>
<g id="a_node10"><a xlink:title=" ">
<polygon fill="none" stroke="#bfbfbf" points="923.5,-0.5 923.5,-30.5 1081.5,-30.5 1081.5,-0.5 923.5,-0.5"/>
<text text-anchor="start" x="931.5" y="-18.5" font-family="FreeSans.ttf" font-size="10.00">gazebo/sensors/MultiCamera</text>
<text text-anchor="middle" x="1002.5" y="-7.5" font-family="FreeSans.ttf" font-size="10.00">Sensor.hh</text>
</a>
</g>
</g>
<!-- Node1&#45;&gt;Node10 -->
<g id="edge21" class="edge">
<title>Node1&#45;&gt;Node10</title>
<path fill="none" stroke="midnightblue" d="M1537.08,-123.46C1481.73,-115.01 1395.67,-101.3 1321.5,-87 1234.93,-70.31 1135.89,-47.9 1071.43,-32.87"/>
<polygon fill="midnightblue" stroke="midnightblue" points="1071.92,-29.39 1061.39,-30.52 1070.33,-36.2 1071.92,-29.39"/>
</g>
<!-- Node12 -->
<g id="node12" class="node">
<title>Node12</title>
<g id="a_node12"><a xlink:href="Handler_8hh.html" target="_top" xlink:title=" ">
<polygon fill="none" stroke="black" points="1330.5,-67.5 1330.5,-86.5 1494.5,-86.5 1494.5,-67.5 1330.5,-67.5"/>
<text text-anchor="middle" x="1412.5" y="-74.5" font-family="FreeSans.ttf" font-size="10.00">GazeboYarpPlugins/Handler.hh</text>
</a>
</g>
</g>
<!-- Node1&#45;&gt;Node12 -->
<g id="edge11" class="edge">
<title>Node1&#45;&gt;Node12</title>
<path fill="none" stroke="midnightblue" d="M1565.66,-123.44C1534.64,-114.24 1485.17,-99.56 1450.88,-89.39"/>
<polygon fill="midnightblue" stroke="midnightblue" points="1451.79,-86.01 1441.2,-86.52 1449.79,-92.72 1451.79,-86.01"/>
</g>
<!-- Node17 -->
<g id="node17" class="node">
<title>Node17</title>
<g id="a_node17"><a xlink:href="common_8h.html" target="_top" xlink:title=" ">
<polygon fill="none" stroke="black" points="1512.5,-67.5 1512.5,-86.5 1676.5,-86.5 1676.5,-67.5 1512.5,-67.5"/>
<text text-anchor="middle" x="1594.5" y="-74.5" font-family="FreeSans.ttf" font-size="10.00">GazeboYarpPlugins/common.h</text>
</a>
</g>
</g>
<!-- Node1&#45;&gt;Node17 -->
<g id="edge18" class="edge">
<title>Node1&#45;&gt;Node17</title>
<path fill="none" stroke="midnightblue" d="M1594.5,-123.08C1594.5,-116.01 1594.5,-105.86 1594.5,-96.99"/>
<polygon fill="midnightblue" stroke="midnightblue" points="1598,-96.75 1594.5,-86.75 1591,-96.75 1598,-96.75"/>
</g>
<!-- Node20 -->
<g id="node20" class="node">
<title>Node20</title>
<g id="a_node20"><a xlink:title=" ">
<polygon fill="none" stroke="#bfbfbf" points="1694.5,-67.5 1694.5,-86.5 1786.5,-86.5 1786.5,-67.5 1694.5,-67.5"/>
<text text-anchor="middle" x="1740.5" y="-74.5" font-family="FreeSans.ttf" font-size="10.00">yarp/os/Value.h</text>
</a>
</g>
</g>
<!-- Node1&#45;&gt;Node20 -->
<g id="edge22" class="edge">
<title>Node1&#45;&gt;Node20</title>
<path fill="none" stroke="midnightblue" d="M1617.63,-123.44C1641.98,-114.44 1680.51,-100.19 1707.92,-90.05"/>
<polygon fill="midnightblue" stroke="midnightblue" points="1709.31,-93.27 1717.47,-86.52 1706.88,-86.7 1709.31,-93.27"/>
</g>
<!-- Node21 -->
<g id="node21" class="node">
<title>Node21</title>
<g id="a_node21"><a xlink:title=" ">
<polygon fill="none" stroke="#bfbfbf" points="1805,-67.5 1805,-86.5 1922,-86.5 1922,-67.5 1805,-67.5"/>
<text text-anchor="middle" x="1863.5" y="-74.5" font-family="FreeSans.ttf" font-size="10.00">yarp/os/LogStream.h</text>
</a>
</g>
</g>
<!-- Node1&#45;&gt;Node21 -->
<g id="edge23" class="edge">
<title>Node1&#45;&gt;Node21</title>
<path fill="none" stroke="midnightblue" d="M1637.12,-123.44C1684.25,-113.98 1760.19,-98.74 1810.96,-88.55"/>
<polygon fill="midnightblue" stroke="midnightblue" points="1811.96,-91.92 1821.08,-86.52 1810.58,-85.05 1811.96,-91.92"/>
</g>
<!-- Node22 -->
<g id="node22" class="node">
<title>Node22</title>
<g id="a_node22"><a xlink:title=" ">
<polygon fill="none" stroke="#bfbfbf" points="1940.5,-67.5 1940.5,-86.5 2004.5,-86.5 2004.5,-67.5 1940.5,-67.5"/>
<text text-anchor="middle" x="1972.5" y="-74.5" font-family="FreeSans.ttf" font-size="10.00">algorithm</text>
</a>
</g>
</g>
<!-- Node1&#45;&gt;Node22 -->
<g id="edge24" class="edge">
<title>Node1&#45;&gt;Node22</title>
<path fill="none" stroke="midnightblue" d="M1659.04,-125C1724.86,-117.5 1830.13,-104.49 1930.33,-87.08"/>
<polygon fill="midnightblue" stroke="midnightblue" points="1931.08,-90.51 1940.32,-85.33 1929.87,-83.61 1931.08,-90.51"/>
</g>
<!-- Node3 -->
<g id="node3" class="node">
<title>Node3</title>
<g id="a_node3"><a xlink:title=" ">
<polygon fill="none" stroke="#bfbfbf" points="449.5,-6 449.5,-25 583.5,-25 583.5,-6 449.5,-6"/>
<text text-anchor="middle" x="516.5" y="-13" font-family="FreeSans.ttf" font-size="10.00">yarp/dev/DeviceDriver.h</text>
</a>
</g>
</g>
<!-- Node2&#45;&gt;Node3 -->
<g id="edge2" class="edge">
<title>Node2&#45;&gt;Node3</title>
<path fill="none" stroke="midnightblue" d="M740.11,-67.48C693.69,-56.89 614.48,-38.84 563.86,-27.3"/>
<polygon fill="midnightblue" stroke="midnightblue" points="564.35,-23.82 553.83,-25.01 562.8,-30.64 564.35,-23.82"/>
</g>
<!-- Node4 -->
<g id="node4" class="node">
<title>Node4</title>
<g id="a_node4"><a xlink:title=" ">
<polygon fill="none" stroke="#bfbfbf" points="601.5,-6 601.5,-25 791.5,-25 791.5,-6 601.5,-6"/>
<text text-anchor="middle" x="696.5" y="-13" font-family="FreeSans.ttf" font-size="10.00">yarp/dev/FrameGrabberInterfaces.h</text>
</a>
</g>
</g>
<!-- Node2&#45;&gt;Node4 -->
<g id="edge3" class="edge">
<title>Node2&#45;&gt;Node4</title>
<path fill="none" stroke="midnightblue" d="M765.89,-67.48C753.02,-58.02 732.03,-42.6 716.49,-31.19"/>
<polygon fill="midnightblue" stroke="midnightblue" points="718.22,-28.11 708.08,-25.01 714.07,-33.75 718.22,-28.11"/>
</g>
<!-- Node5 -->
<g id="node5" class="node">
<title>Node5</title>
<g id="a_node5"><a xlink:title=" ">
<polygon fill="none" stroke="#bfbfbf" points="809.5,-6 809.5,-25 905.5,-25 905.5,-6 809.5,-6"/>
<text text-anchor="middle" x="857.5" y="-13" font-family="FreeSans.ttf" font-size="10.00">yarp/os/Stamp.h</text>
</a>
</g>
</g>
<!-- Node2&#45;&gt;Node5 -->
<g id="edge4" class="edge">
<title>Node2&#45;&gt;Node5</title>
<path fill="none" stroke="midnightblue" d="M788.96,-67.48C801.67,-58.02 822.41,-42.6 837.75,-31.19"/>
<polygon fill="midnightblue" stroke="midnightblue" points="840.12,-33.79 846.06,-25.01 835.95,-28.17 840.12,-33.79"/>
</g>
<!-- Node6 -->
<g id="node6" class="node">
<title>Node6</title>
<g id="a_node6"><a xlink:title=" ">
<polygon fill="none" stroke="#bfbfbf" points="0,-6 0,-25 149,-25 149,-6 0,-6"/>
<text text-anchor="middle" x="74.5" y="-13" font-family="FreeSans.ttf" font-size="10.00">yarp/dev/IPreciselyTimed.h</text>
</a>
</g>
</g>
<!-- Node2&#45;&gt;Node6 -->
<g id="edge5" class="edge">
<title>Node2&#45;&gt;Node6</title>
<path fill="none" stroke="midnightblue" d="M695.01,-72.65C575.96,-67.22 349.23,-54.64 157.5,-31 148.02,-29.83 137.97,-28.31 128.27,-26.7"/>
<polygon fill="midnightblue" stroke="midnightblue" points="128.76,-23.24 118.31,-25 127.58,-30.14 128.76,-23.24"/>
</g>
<!-- Node7 -->
<g id="node7" class="node">
<title>Node7</title>
<g id="a_node7"><a xlink:title=" ">
<polygon fill="none" stroke="#bfbfbf" points="167,-6 167,-25 256,-25 256,-6 167,-6"/>
<text text-anchor="middle" x="211.5" y="-13" font-family="FreeSans.ttf" font-size="10.00">yarp/os/Time.h</text>
</a>
</g>
</g>
<!-- Node2&#45;&gt;Node7 -->
<g id="edge6" class="edge">
<title>Node2&#45;&gt;Node7</title>
<path fill="none" stroke="midnightblue" d="M695.16,-73.33C593.32,-68.98 414.99,-57.96 264.5,-31 259.41,-30.09 254.09,-28.91 248.88,-27.62"/>
<polygon fill="midnightblue" stroke="midnightblue" points="249.63,-24.2 239.07,-25.05 247.85,-30.97 249.63,-24.2"/>
</g>
<!-- Node8 -->
<g id="node8" class="node">
<title>Node8</title>
<g id="a_node8"><a xlink:title=" ">
<polygon fill="none" stroke="#bfbfbf" points="1166,-6 1166,-25 1285,-25 1285,-6 1166,-6"/>
<text text-anchor="middle" x="1225.5" y="-13" font-family="FreeSans.ttf" font-size="10.00">boost/shared_ptr.hpp</text>
</a>
</g>
</g>
<!-- Node2&#45;&gt;Node8 -->
<g id="edge7" class="edge">
<title>Node2&#45;&gt;Node8</title>
<path fill="none" stroke="midnightblue" d="M859.86,-68.35C936.83,-60.7 1054.82,-47.69 1156.5,-31 1163.4,-29.87 1170.65,-28.52 1177.76,-27.11"/>
<polygon fill="midnightblue" stroke="midnightblue" points="1178.92,-30.44 1188.01,-25.01 1177.51,-23.59 1178.92,-30.44"/>
</g>
<!-- Node9 -->
<g id="node9" class="node">
<title>Node9</title>
<g id="a_node9"><a xlink:title=" ">
<polygon fill="none" stroke="#bfbfbf" points="273.5,-6 273.5,-25 431.5,-25 431.5,-6 273.5,-6"/>
<text text-anchor="middle" x="352.5" y="-13" font-family="FreeSans.ttf" font-size="10.00">gazebo/rendering/Camera.hh</text>
</a>
</g>
</g>
<!-- Node2&#45;&gt;Node9 -->
<g id="edge8" class="edge">
<title>Node2&#45;&gt;Node9</title>
<path fill="none" stroke="midnightblue" d="M709,-67.48C640.84,-58.85 533.33,-44.84 440.5,-31 431.5,-29.66 422,-28.17 412.7,-26.67"/>
<polygon fill="midnightblue" stroke="midnightblue" points="413.15,-23.2 402.72,-25.05 412.03,-30.11 413.15,-23.2"/>
</g>
<!-- Node2&#45;&gt;Node10 -->
<g id="edge9" class="edge">
<title>Node2&#45;&gt;Node10</title>
<path fill="none" stroke="midnightblue" d="M809.74,-67.48C843.49,-58.55 897.34,-44.31 939.56,-33.14"/>
<polygon fill="midnightblue" stroke="midnightblue" points="940.7,-36.46 949.47,-30.52 938.91,-29.7 940.7,-36.46"/>
</g>
<!-- Node11 -->
<g id="node11" class="node">
<title>Node11</title>
<g id="a_node11"><a xlink:title=" ">
<polygon fill="none" stroke="#bfbfbf" points="1099.5,-6 1099.5,-25 1147.5,-25 1147.5,-6 1099.5,-6"/>
<text text-anchor="middle" x="1123.5" y="-13" font-family="FreeSans.ttf" font-size="10.00">mutex</text>
</a>
</g>
</g>
<!-- Node2&#45;&gt;Node11 -->
<g id="edge10" class="edge">
<title>Node2&#45;&gt;Node11</title>
<path fill="none" stroke="midnightblue" d="M859.51,-70.32C923.4,-64.45 1013.83,-52.91 1090.5,-31 1092.65,-30.39 1094.84,-29.66 1097.03,-28.87"/>
<polygon fill="midnightblue" stroke="midnightblue" points="1098.41,-32.08 1106.36,-25.08 1095.78,-25.6 1098.41,-32.08"/>
</g>
<!-- Node12&#45;&gt;Node8 -->
<g id="edge14" class="edge">
<title>Node12&#45;&gt;Node8</title>
<path fill="none" stroke="midnightblue" d="M1385.71,-67.48C1353.21,-57.14 1298.29,-39.66 1261.96,-28.1"/>
<polygon fill="midnightblue" stroke="midnightblue" points="1262.83,-24.71 1252.24,-25.01 1260.71,-31.38 1262.83,-24.71"/>
</g>
<!-- Node12&#45;&gt;Node11 -->
<g id="edge15" class="edge">
<title>Node12&#45;&gt;Node11</title>
<path fill="none" stroke="midnightblue" d="M1336.33,-67.48C1284.83,-60.54 1215.67,-48.92 1156.5,-31 1154.57,-30.42 1152.6,-29.75 1150.63,-29.03"/>
<polygon fill="midnightblue" stroke="midnightblue" points="1151.6,-25.64 1141.02,-25.13 1148.97,-32.13 1151.6,-25.64"/>
</g>
<!-- Node13 -->
<g id="node13" class="node">
<title>Node13</title>
<g id="a_node13"><a xlink:title=" ">
<polygon fill="none" stroke="#bfbfbf" points="1712.5,-6 1712.5,-25 1750.5,-25 1750.5,-6 1712.5,-6"/>
<text text-anchor="middle" x="1731.5" y="-13" font-family="FreeSans.ttf" font-size="10.00">map</text>
</a>
</g>
</g>
<!-- Node12&#45;&gt;Node13 -->
<g id="edge12" class="edge">
<title>Node12&#45;&gt;Node13</title>
<path fill="none" stroke="midnightblue" d="M1485.13,-67.49C1557.73,-58.5 1664.08,-43.87 1703.5,-31 1704.93,-30.53 1706.38,-30 1707.82,-29.42"/>
<polygon fill="midnightblue" stroke="midnightblue" points="1709.48,-32.5 1717.07,-25.11 1706.53,-26.16 1709.48,-32.5"/>
</g>
<!-- Node14 -->
<g id="node14" class="node">
<title>Node14</title>
<g id="a_node14"><a xlink:title=" ">
<polygon fill="none" stroke="#bfbfbf" points="1303,-6 1303,-25 1396,-25 1396,-6 1303,-6"/>
<text text-anchor="middle" x="1349.5" y="-13" font-family="FreeSans.ttf" font-size="10.00">sdf/sdf_config.h</text>
</a>
</g>
</g>
<!-- Node12&#45;&gt;Node14 -->
<g id="edge13" class="edge">
<title>Node12&#45;&gt;Node14</title>
<path fill="none" stroke="midnightblue" d="M1403.47,-67.48C1393.74,-58.28 1378.04,-43.46 1366.08,-32.16"/>
<polygon fill="midnightblue" stroke="midnightblue" points="1368.18,-29.33 1358.51,-25.01 1363.38,-34.42 1368.18,-29.33"/>
</g>
<!-- Node15 -->
<g id="node15" class="node">
<title>Node15</title>
<g id="a_node15"><a xlink:title=" ">
<polygon fill="none" stroke="#bfbfbf" points="1414.5,-6 1414.5,-25 1536.5,-25 1536.5,-6 1414.5,-6"/>
<text text-anchor="middle" x="1475.5" y="-13" font-family="FreeSans.ttf" font-size="10.00">yarp/dev/PolyDriver.h</text>
</a>
</g>
</g>
<!-- Node12&#45;&gt;Node15 -->
<g id="edge16" class="edge">
<title>Node12&#45;&gt;Node15</title>
<path fill="none" stroke="midnightblue" d="M1421.53,-67.48C1431.26,-58.28 1446.96,-43.46 1458.92,-32.16"/>
<polygon fill="midnightblue" stroke="midnightblue" points="1461.62,-34.42 1466.49,-25.01 1456.82,-29.33 1461.62,-34.42"/>
</g>
<!-- Node16 -->
<g id="node16" class="node">
<title>Node16</title>
<g id="a_node16"><a xlink:title=" ">
<polygon fill="none" stroke="#bfbfbf" points="1554.5,-6 1554.5,-25 1694.5,-25 1694.5,-6 1554.5,-6"/>
<text text-anchor="middle" x="1624.5" y="-13" font-family="FreeSans.ttf" font-size="10.00">yarp/dev/PolyDriverList.h</text>
</a>
</g>
</g>
<!-- Node12&#45;&gt;Node16 -->
<g id="edge17" class="edge">
<title>Node12&#45;&gt;Node16</title>
<path fill="none" stroke="midnightblue" d="M1442.87,-67.48C1480.11,-57.03 1543.31,-39.29 1584.48,-27.73"/>
<polygon fill="midnightblue" stroke="midnightblue" points="1585.5,-31.08 1594.18,-25.01 1583.61,-24.34 1585.5,-31.08"/>
</g>
<!-- Node18 -->
<g id="node18" class="node">
<title>Node18</title>
<g id="a_node18"><a xlink:title=" ">
<polygon fill="none" stroke="#bfbfbf" points="1834.5,-6 1834.5,-25 1878.5,-25 1878.5,-6 1834.5,-6"/>
<text text-anchor="middle" x="1856.5" y="-13" font-family="FreeSans.ttf" font-size="10.00">string</text>
</a>
</g>
</g>
<!-- Node17&#45;&gt;Node18 -->
<g id="edge19" class="edge">
<title>Node17&#45;&gt;Node18</title>
<path fill="none" stroke="midnightblue" d="M1660.81,-67.49C1707.58,-60.43 1771.31,-48.66 1825.5,-31 1827.17,-30.46 1828.87,-29.84 1830.56,-29.19"/>
<polygon fill="midnightblue" stroke="midnightblue" points="1832.27,-32.26 1840.07,-25.1 1829.5,-25.83 1832.27,-32.26"/>
</g>
<!-- Node19 -->
<g id="node19" class="node">
<title>Node19</title>
<g id="a_node19"><a xlink:title=" ">
<polygon fill="none" stroke="#bfbfbf" points="1769,-6 1769,-25 1816,-25 1816,-6 1769,-6"/>
<text text-anchor="middle" x="1792.5" y="-13" font-family="FreeSans.ttf" font-size="10.00">cmath</text>
</a>
</g>
</g>
<!-- Node17&#45;&gt;Node19 -->
<g id="edge20" class="edge">
<title>Node17&#45;&gt;Node19</title>
<path fill="none" stroke="midnightblue" d="M1632.01,-67.45C1665.77,-59.35 1716.53,-46.2 1759.5,-31 1761.16,-30.41 1762.86,-29.78 1764.56,-29.11"/>
<polygon fill="midnightblue" stroke="midnightblue" points="1766.3,-32.18 1774.19,-25.12 1763.61,-25.72 1766.3,-32.18"/>
</g>
</g>
</svg>
