<?xml version="1.0" encoding="UTF-8" standalone="no"?>
<!DOCTYPE svg PUBLIC "-//W3C//DTD SVG 1.1//EN"
 "http://www.w3.org/Graphics/SVG/1.1/DTD/svg11.dtd">
<!-- Generated by graphviz version 2.43.0 (0)
 -->
<!-- Title: MultiCameraPlugin.hh Pages: 1 -->
<svg width="252pt" height="140pt"
 viewBox="0.00 0.00 251.50 140.00" xmlns="http://www.w3.org/2000/svg" xmlns:xlink="http://www.w3.org/1999/xlink">
<g id="graph0" class="graph" transform="scale(1 1) rotate(0) translate(4 136)">
<title>MultiCameraPlugin.hh</title>
<!-- Node1 -->
<g id="node1" class="node">
<title>Node1</title>
<g id="a_node1"><a xlink:title=" ">
<polygon fill="#bfbfbf" stroke="black" points="50,-112.5 50,-131.5 175,-131.5 175,-112.5 50,-112.5"/>
<text text-anchor="middle" x="112.5" y="-119.5" font-family="FreeSans.ttf" font-size="10.00">MultiCameraPlugin.hh</text>
</a>
</g>
</g>
<!-- Node2 -->
<g id="node2" class="node">
<title>Node2</title>
<g id="a_node2"><a xlink:href="MultiCamera_8hh.html" target="_top" xlink:title=" ">
<polygon fill="none" stroke="black" points="0,-56.5 0,-75.5 95,-75.5 95,-56.5 0,-56.5"/>
<text text-anchor="middle" x="47.5" y="-63.5" font-family="FreeSans.ttf" font-size="10.00">MultiCamera.hh</text>
</a>
</g>
</g>
<!-- Node1&#45;&gt;Node2 -->
<g id="edge1" class="edge">
<title>Node1&#45;&gt;Node2</title>
<path fill="none" stroke="midnightblue" d="M94.23,-105.82C82.58,-96.15 67.9,-83.95 58.13,-75.83"/>
<polygon fill="midnightblue" stroke="midnightblue" points="92.13,-108.63 102.06,-112.32 96.6,-103.24 92.13,-108.63"/>
</g>
<!-- Node4 -->
<g id="node4" class="node">
<title>Node4</title>
<g id="a_node4"><a xlink:href="MultiCameraPlugin_8cpp.html" target="_top" xlink:title=" ">
<polygon fill="none" stroke="black" points="113.5,-56.5 113.5,-75.5 243.5,-75.5 243.5,-56.5 113.5,-56.5"/>
<text text-anchor="middle" x="178.5" y="-63.5" font-family="FreeSans.ttf" font-size="10.00">MultiCameraPlugin.cpp</text>
</a>
</g>
</g>
<!-- Node1&#45;&gt;Node4 -->
<g id="edge3" class="edge">
<title>Node1&#45;&gt;Node4</title>
<path fill="none" stroke="midnightblue" d="M131.05,-105.82C142.88,-96.15 157.79,-83.95 167.7,-75.83"/>
<polygon fill="midnightblue" stroke="midnightblue" points="128.63,-103.28 123.1,-112.32 133.06,-108.7 128.63,-103.28"/>
</g>
<!-- Node3 -->
<g id="node3" class="node">
<title>Node3</title>
<g id="a_node3"><a xlink:href="MultiCamera_8cc.html" target="_top" xlink:title=" ">
<polygon fill="none" stroke="black" points="1,-0.5 1,-19.5 94,-19.5 94,-0.5 1,-0.5"/>
<text text-anchor="middle" x="47.5" y="-7.5" font-family="FreeSans.ttf" font-size="10.00">MultiCamera.cc</text>
</a>
</g>
</g>
<!-- Node2&#45;&gt;Node3 -->
<g id="edge2" class="edge">
<title>Node2&#45;&gt;Node3</title>
<path fill="none" stroke="midnightblue" d="M47.5,-45.8C47.5,-36.91 47.5,-26.78 47.5,-19.75"/>
<polygon fill="midnightblue" stroke="midnightblue" points="44,-46.08 47.5,-56.08 51,-46.08 44,-46.08"/>
</g>
</g>
</svg>
