<?xml version="1.0" encoding="UTF-8" standalone="no"?>
<!DOCTYPE svg PUBLIC "-//W3C//DTD SVG 1.1//EN"
 "http://www.w3.org/Graphics/SVG/1.1/DTD/svg11.dtd">
<!-- Generated by graphviz version 3.0.0 (20220315.2325)
 -->
<!-- Title: MultiCameraDriver.cpp Pages: 1 -->
<svg width="2880pt" height="151pt"
 viewBox="0.00 0.00 2880.00 151.00" xmlns="http://www.w3.org/2000/svg" xmlns:xlink="http://www.w3.org/1999/xlink">
<g id="graph0" class="graph" transform="scale(1 1) rotate(0) translate(4 147)">
<title>MultiCameraDriver.cpp</title>
<!-- Node1 -->
<g id="node1" class="node">
<title>Node1</title>
<g id="a_node1"><a xlink:title=" ">
<polygon fill="#bfbfbf" stroke="black" points="2237.5,-123.5 2237.5,-142.5 2366.5,-142.5 2366.5,-123.5 2237.5,-123.5"/>
<text text-anchor="middle" x="2302" y="-130.5" font-family="FreeSans.ttf" font-size="10.00">MultiCameraDriver.cpp</text>
</a>
</g>
</g>
<!-- Node2 -->
<g id="node2" class="node">
<title>Node2</title>
<g id="a_node2"><a xlink:href="MultiCameraDriver_8h.html" target="_top" xlink:title=" ">
<polygon fill="none" stroke="black" points="821,-67.5 821,-86.5 985,-86.5 985,-67.5 821,-67.5"/>
<text text-anchor="middle" x="903" y="-74.5" font-family="FreeSans.ttf" font-size="10.00">yarp/dev/MultiCameraDriver.h</text>
</a>
</g>
</g>
<!-- Node1&#45;&gt;Node2 -->
<g id="edge1" class="edge">
<title>Node1&#45;&gt;Node2</title>
<path fill="none" stroke="midnightblue" d="M2237.33,-129.5C2011.82,-120.8 1259.61,-91.76 995.57,-81.57"/>
<polygon fill="midnightblue" stroke="midnightblue" points="995.38,-78.06 985.26,-81.17 995.11,-85.06 995.38,-78.06"/>
</g>
<!-- Node11 -->
<g id="node11" class="node">
<title>Node11</title>
<g id="a_node11"><a xlink:title=" ">
<polygon fill="none" stroke="#bfbfbf" points="1102,-0.5 1102,-30.5 1260,-30.5 1260,-0.5 1102,-0.5"/>
<text text-anchor="start" x="1110" y="-18.5" font-family="FreeSans.ttf" font-size="10.00">gazebo/sensors/MultiCamera</text>
<text text-anchor="middle" x="1181" y="-7.5" font-family="FreeSans.ttf" font-size="10.00">Sensor.hh</text>
</a>
</g>
</g>
<!-- Node1&#45;&gt;Node11 -->
<g id="edge26" class="edge">
<title>Node1&#45;&gt;Node11</title>
<path fill="none" stroke="midnightblue" d="M2237.48,-130.81C2108,-127.84 1807.45,-117.92 1557,-87 1450.23,-73.82 1328.05,-49.09 1252.7,-32.71"/>
<polygon fill="midnightblue" stroke="midnightblue" points="1253.35,-29.27 1242.84,-30.56 1251.86,-36.11 1253.35,-29.27"/>
</g>
<!-- Node13 -->
<g id="node13" class="node">
<title>Node13</title>
<g id="a_node13"><a xlink:href="MultiCameraLog_8h.html" target="_top" xlink:title=" ">
<polygon fill="none" stroke="black" points="2130,-67.5 2130,-86.5 2274,-86.5 2274,-67.5 2130,-67.5"/>
<text text-anchor="middle" x="2202" y="-74.5" font-family="FreeSans.ttf" font-size="10.00">gazebo/MultiCameraLog.h</text>
</a>
</g>
</g>
<!-- Node1&#45;&gt;Node13 -->
<g id="edge12" class="edge">
<title>Node1&#45;&gt;Node13</title>
<path fill="none" stroke="midnightblue" d="M2285.93,-123.32C2270.04,-114.74 2245.49,-101.49 2227.04,-91.52"/>
<polygon fill="midnightblue" stroke="midnightblue" points="2228.49,-88.33 2218.03,-86.65 2225.16,-94.49 2228.49,-88.33"/>
</g>
<!-- Node15 -->
<g id="node15" class="node">
<title>Node15</title>
<g id="a_node15"><a xlink:title=" ">
<polygon fill="none" stroke="#bfbfbf" points="2272.5,-6 2272.5,-25 2389.5,-25 2389.5,-6 2272.5,-6"/>
<text text-anchor="middle" x="2331" y="-13" font-family="FreeSans.ttf" font-size="10.00">yarp/os/LogStream.h</text>
</a>
</g>
</g>
<!-- Node1&#45;&gt;Node15 -->
<g id="edge29" class="edge">
<title>Node1&#45;&gt;Node15</title>
<path fill="none" stroke="midnightblue" d="M2304.18,-123.32C2308.86,-104.67 2319.97,-60.44 2326.32,-35.13"/>
<polygon fill="midnightblue" stroke="midnightblue" points="2329.75,-35.83 2328.79,-25.28 2322.97,-34.13 2329.75,-35.83"/>
</g>
<!-- Node16 -->
<g id="node16" class="node">
<title>Node16</title>
<g id="a_node16"><a xlink:href="Handler_8hh.html" target="_top" xlink:title=" ">
<polygon fill="none" stroke="black" points="1566,-67.5 1566,-86.5 1730,-86.5 1730,-67.5 1566,-67.5"/>
<text text-anchor="middle" x="1648" y="-74.5" font-family="FreeSans.ttf" font-size="10.00">GazeboYarpPlugins/Handler.hh</text>
</a>
</g>
</g>
<!-- Node1&#45;&gt;Node16 -->
<g id="edge15" class="edge">
<title>Node1&#45;&gt;Node16</title>
<path fill="none" stroke="midnightblue" d="M2237.2,-126.65C2120.53,-117.02 1874.79,-96.73 1740.47,-85.64"/>
<polygon fill="midnightblue" stroke="midnightblue" points="1740.46,-82.12 1730.21,-84.79 1739.88,-89.1 1740.46,-82.12"/>
</g>
<!-- Node22 -->
<g id="node22" class="node">
<title>Node22</title>
<g id="a_node22"><a xlink:href="common_8h.html" target="_top" xlink:title=" ">
<polygon fill="none" stroke="black" points="2330,-67.5 2330,-86.5 2494,-86.5 2494,-67.5 2330,-67.5"/>
<text text-anchor="middle" x="2412" y="-74.5" font-family="FreeSans.ttf" font-size="10.00">GazeboYarpPlugins/common.h</text>
</a>
</g>
</g>
<!-- Node1&#45;&gt;Node22 -->
<g id="edge23" class="edge">
<title>Node1&#45;&gt;Node22</title>
<path fill="none" stroke="midnightblue" d="M2319.67,-123.32C2337.39,-114.62 2364.9,-101.12 2385.29,-91.11"/>
<polygon fill="midnightblue" stroke="midnightblue" points="2386.94,-94.2 2394.37,-86.65 2383.85,-87.92 2386.94,-94.2"/>
</g>
<!-- Node25 -->
<g id="node25" class="node">
<title>Node25</title>
<g id="a_node25"><a xlink:title=" ">
<polygon fill="none" stroke="#bfbfbf" points="2512.5,-67.5 2512.5,-86.5 2679.5,-86.5 2679.5,-67.5 2512.5,-67.5"/>
<text text-anchor="middle" x="2596" y="-74.5" font-family="FreeSans.ttf" font-size="10.00">gazebo/rendering/Distortion.hh</text>
</a>
</g>
</g>
<!-- Node1&#45;&gt;Node25 -->
<g id="edge27" class="edge">
<title>Node1&#45;&gt;Node25</title>
<path fill="none" stroke="midnightblue" d="M2348.59,-123.44C2400.41,-113.92 2484.13,-98.55 2539.62,-88.36"/>
<polygon fill="midnightblue" stroke="midnightblue" points="2540.43,-91.77 2549.63,-86.52 2539.16,-84.88 2540.43,-91.77"/>
</g>
<!-- Node26 -->
<g id="node26" class="node">
<title>Node26</title>
<g id="a_node26"><a xlink:title=" ">
<polygon fill="none" stroke="#bfbfbf" points="2698,-67.5 2698,-86.5 2790,-86.5 2790,-67.5 2698,-67.5"/>
<text text-anchor="middle" x="2744" y="-74.5" font-family="FreeSans.ttf" font-size="10.00">yarp/os/Value.h</text>
</a>
</g>
</g>
<!-- Node1&#45;&gt;Node26 -->
<g id="edge28" class="edge">
<title>Node1&#45;&gt;Node26</title>
<path fill="none" stroke="midnightblue" d="M2366.83,-125.39C2441.68,-117.55 2568.77,-103.6 2687.79,-87.11"/>
<polygon fill="midnightblue" stroke="midnightblue" points="2688.39,-90.57 2697.81,-85.72 2687.42,-83.63 2688.39,-90.57"/>
</g>
<!-- Node27 -->
<g id="node27" class="node">
<title>Node27</title>
<g id="a_node27"><a xlink:title=" ">
<polygon fill="none" stroke="#bfbfbf" points="2808,-67.5 2808,-86.5 2872,-86.5 2872,-67.5 2808,-67.5"/>
<text text-anchor="middle" x="2840" y="-74.5" font-family="FreeSans.ttf" font-size="10.00">algorithm</text>
</a>
</g>
</g>
<!-- Node1&#45;&gt;Node27 -->
<g id="edge30" class="edge">
<title>Node1&#45;&gt;Node27</title>
<path fill="none" stroke="midnightblue" d="M2366.65,-128.75C2459.83,-123.49 2637.41,-111.31 2797.79,-87"/>
<polygon fill="midnightblue" stroke="midnightblue" points="2798.49,-90.44 2807.84,-85.46 2797.43,-83.52 2798.49,-90.44"/>
</g>
<!-- Node3 -->
<g id="node3" class="node">
<title>Node3</title>
<g id="a_node3"><a xlink:title=" ">
<polygon fill="none" stroke="#bfbfbf" points="176,-6 176,-25 310,-25 310,-6 176,-6"/>
<text text-anchor="middle" x="243" y="-13" font-family="FreeSans.ttf" font-size="10.00">yarp/dev/DeviceDriver.h</text>
</a>
</g>
</g>
<!-- Node2&#45;&gt;Node3 -->
<g id="edge2" class="edge">
<title>Node2&#45;&gt;Node3</title>
<path fill="none" stroke="midnightblue" d="M820.97,-72.57C707.69,-67.18 497.16,-54.78 319,-31 310.58,-29.88 301.68,-28.42 293.05,-26.87"/>
<polygon fill="midnightblue" stroke="midnightblue" points="293.57,-23.41 283.09,-25.02 292.29,-30.29 293.57,-23.41"/>
</g>
<!-- Node4 -->
<g id="node4" class="node">
<title>Node4</title>
<g id="a_node4"><a xlink:title=" ">
<polygon fill="none" stroke="#bfbfbf" points="328,-6 328,-25 518,-25 518,-6 328,-6"/>
<text text-anchor="middle" x="423" y="-13" font-family="FreeSans.ttf" font-size="10.00">yarp/dev/FrameGrabberInterfaces.h</text>
</a>
</g>
</g>
<!-- Node2&#45;&gt;Node4 -->
<g id="edge3" class="edge">
<title>Node2&#45;&gt;Node4</title>
<path fill="none" stroke="midnightblue" d="M828.04,-67.46C752.11,-58.71 631.32,-44.51 527,-31 515.88,-29.56 504.11,-27.98 492.63,-26.4"/>
<polygon fill="midnightblue" stroke="midnightblue" points="493.03,-22.92 482.64,-25.02 492.07,-29.85 493.03,-22.92"/>
</g>
<!-- Node5 -->
<g id="node5" class="node">
<title>Node5</title>
<g id="a_node5"><a xlink:title=" ">
<polygon fill="none" stroke="#bfbfbf" points="536.5,-6 536.5,-25 695.5,-25 695.5,-6 536.5,-6"/>
<text text-anchor="middle" x="616" y="-13" font-family="FreeSans.ttf" font-size="10.00">yarp/dev/IRgbVisualParams.h</text>
</a>
</g>
</g>
<!-- Node2&#45;&gt;Node5 -->
<g id="edge4" class="edge">
<title>Node2&#45;&gt;Node5</title>
<path fill="none" stroke="midnightblue" d="M861.88,-67.48C810.52,-56.83 722.64,-38.61 667.04,-27.08"/>
<polygon fill="midnightblue" stroke="midnightblue" points="667.55,-23.61 657.04,-25.01 666.13,-30.47 667.55,-23.61"/>
</g>
<!-- Node6 -->
<g id="node6" class="node">
<title>Node6</title>
<g id="a_node6"><a xlink:title=" ">
<polygon fill="none" stroke="#bfbfbf" points="714,-6 714,-25 810,-25 810,-6 714,-6"/>
<text text-anchor="middle" x="762" y="-13" font-family="FreeSans.ttf" font-size="10.00">yarp/os/Stamp.h</text>
</a>
</g>
</g>
<!-- Node2&#45;&gt;Node6 -->
<g id="edge5" class="edge">
<title>Node2&#45;&gt;Node6</title>
<path fill="none" stroke="midnightblue" d="M882.8,-67.48C858.93,-57.4 819,-40.55 791.63,-29"/>
<polygon fill="midnightblue" stroke="midnightblue" points="792.74,-25.67 782.16,-25.01 790.02,-32.12 792.74,-25.67"/>
</g>
<!-- Node7 -->
<g id="node7" class="node">
<title>Node7</title>
<g id="a_node7"><a xlink:title=" ">
<polygon fill="none" stroke="#bfbfbf" points="828.5,-6 828.5,-25 977.5,-25 977.5,-6 828.5,-6"/>
<text text-anchor="middle" x="903" y="-13" font-family="FreeSans.ttf" font-size="10.00">yarp/dev/IPreciselyTimed.h</text>
</a>
</g>
</g>
<!-- Node2&#45;&gt;Node7 -->
<g id="edge6" class="edge">
<title>Node2&#45;&gt;Node7</title>
<path fill="none" stroke="midnightblue" d="M903,-67.48C903,-59.08 903,-45.98 903,-35.16"/>
<polygon fill="midnightblue" stroke="midnightblue" points="906.5,-35.01 903,-25.01 899.5,-35.01 906.5,-35.01"/>
</g>
<!-- Node8 -->
<g id="node8" class="node">
<title>Node8</title>
<g id="a_node8"><a xlink:title=" ">
<polygon fill="none" stroke="#bfbfbf" points="995.5,-6 995.5,-25 1084.5,-25 1084.5,-6 995.5,-6"/>
<text text-anchor="middle" x="1040" y="-13" font-family="FreeSans.ttf" font-size="10.00">yarp/os/Time.h</text>
</a>
</g>
</g>
<!-- Node2&#45;&gt;Node8 -->
<g id="edge7" class="edge">
<title>Node2&#45;&gt;Node8</title>
<path fill="none" stroke="midnightblue" d="M922.63,-67.48C945.82,-57.4 984.62,-40.55 1011.21,-29"/>
<polygon fill="midnightblue" stroke="midnightblue" points="1012.63,-32.2 1020.41,-25.01 1009.84,-25.78 1012.63,-32.2"/>
</g>
<!-- Node9 -->
<g id="node9" class="node">
<title>Node9</title>
<g id="a_node9"><a xlink:title=" ">
<polygon fill="none" stroke="#bfbfbf" points="1278.5,-6 1278.5,-25 1397.5,-25 1397.5,-6 1278.5,-6"/>
<text text-anchor="middle" x="1338" y="-13" font-family="FreeSans.ttf" font-size="10.00">boost/shared_ptr.hpp</text>
</a>
</g>
</g>
<!-- Node2&#45;&gt;Node9 -->
<g id="edge8" class="edge">
<title>Node2&#45;&gt;Node9</title>
<path fill="none" stroke="midnightblue" d="M985.05,-67.92C1059.42,-60.13 1171.9,-47.14 1269,-31 1275.81,-29.87 1282.98,-28.53 1290.01,-27.13"/>
<polygon fill="midnightblue" stroke="midnightblue" points="1291.05,-30.49 1300.15,-25.06 1289.65,-23.63 1291.05,-30.49"/>
</g>
<!-- Node10 -->
<g id="node10" class="node">
<title>Node10</title>
<g id="a_node10"><a xlink:title=" ">
<polygon fill="none" stroke="#bfbfbf" points="0,-6 0,-25 158,-25 158,-6 0,-6"/>
<text text-anchor="middle" x="79" y="-13" font-family="FreeSans.ttf" font-size="10.00">gazebo/rendering/Camera.hh</text>
</a>
</g>
</g>
<!-- Node2&#45;&gt;Node10 -->
<g id="edge9" class="edge">
<title>Node2&#45;&gt;Node10</title>
<path fill="none" stroke="midnightblue" d="M820.81,-73.72C684.55,-69.32 403.45,-57.64 167,-31 156.74,-29.84 145.85,-28.31 135.36,-26.66"/>
<polygon fill="midnightblue" stroke="midnightblue" points="135.89,-23.2 125.46,-25.07 134.77,-30.11 135.89,-23.2"/>
</g>
<!-- Node2&#45;&gt;Node11 -->
<g id="edge10" class="edge">
<title>Node2&#45;&gt;Node11</title>
<path fill="none" stroke="midnightblue" d="M942.83,-67.48C985.14,-58.42 1053.04,-43.89 1105.53,-32.65"/>
<polygon fill="midnightblue" stroke="midnightblue" points="1106.43,-36.04 1115.48,-30.52 1104.97,-29.19 1106.43,-36.04"/>
</g>
<!-- Node12 -->
<g id="node12" class="node">
<title>Node12</title>
<g id="a_node12"><a xlink:title=" ">
<polygon fill="none" stroke="#bfbfbf" points="1416,-6 1416,-25 1464,-25 1464,-6 1416,-6"/>
<text text-anchor="middle" x="1440" y="-13" font-family="FreeSans.ttf" font-size="10.00">mutex</text>
</a>
</g>
</g>
<!-- Node2&#45;&gt;Node12 -->
<g id="edge11" class="edge">
<title>Node2&#45;&gt;Node12</title>
<path fill="none" stroke="midnightblue" d="M985.33,-76.48C1086.04,-75.29 1261.02,-67.43 1406,-31 1408.36,-30.41 1410.77,-29.67 1413.16,-28.85"/>
<polygon fill="midnightblue" stroke="midnightblue" points="1414.68,-32.01 1422.72,-25.11 1412.13,-25.49 1414.68,-32.01"/>
</g>
<!-- Node14 -->
<g id="node14" class="node">
<title>Node14</title>
<g id="a_node14"><a xlink:title=" ">
<polygon fill="none" stroke="#bfbfbf" points="2116,-6 2116,-25 2254,-25 2254,-6 2116,-6"/>
<text text-anchor="middle" x="2185" y="-13" font-family="FreeSans.ttf" font-size="10.00">yarp/os/LogComponent.h</text>
</a>
</g>
</g>
<!-- Node13&#45;&gt;Node14 -->
<g id="edge13" class="edge">
<title>Node13&#45;&gt;Node14</title>
<path fill="none" stroke="midnightblue" d="M2199.56,-67.48C2197.14,-58.99 2193.34,-45.7 2190.23,-34.82"/>
<polygon fill="midnightblue" stroke="midnightblue" points="2193.54,-33.66 2187.43,-25.01 2186.81,-35.59 2193.54,-33.66"/>
</g>
<!-- Node13&#45;&gt;Node15 -->
<g id="edge14" class="edge">
<title>Node13&#45;&gt;Node15</title>
<path fill="none" stroke="midnightblue" d="M2220.48,-67.48C2242.13,-57.49 2278.21,-40.85 2303.23,-29.31"/>
<polygon fill="midnightblue" stroke="midnightblue" points="2304.94,-32.38 2312.55,-25.01 2302.01,-26.02 2304.94,-32.38"/>
</g>
<!-- Node16&#45;&gt;Node9 -->
<g id="edge18" class="edge">
<title>Node16&#45;&gt;Node9</title>
<path fill="none" stroke="midnightblue" d="M1600.38,-67.44C1551.72,-58.61 1474.01,-44.29 1407,-31 1400.78,-29.76 1394.24,-28.44 1387.78,-27.1"/>
<polygon fill="midnightblue" stroke="midnightblue" points="1388.24,-23.62 1377.74,-25.01 1386.82,-30.48 1388.24,-23.62"/>
</g>
<!-- Node16&#45;&gt;Node12 -->
<g id="edge19" class="edge">
<title>Node16&#45;&gt;Node12</title>
<path fill="none" stroke="midnightblue" d="M1607.13,-67.47C1571.31,-59.52 1518.07,-46.58 1473,-31 1471.14,-30.36 1469.23,-29.65 1467.33,-28.91"/>
<polygon fill="midnightblue" stroke="midnightblue" points="1468.52,-25.62 1457.94,-25.02 1465.84,-32.08 1468.52,-25.62"/>
</g>
<!-- Node17 -->
<g id="node17" class="node">
<title>Node17</title>
<g id="a_node17"><a xlink:title=" ">
<polygon fill="none" stroke="#bfbfbf" points="1482,-6 1482,-25 1520,-25 1520,-6 1482,-6"/>
<text text-anchor="middle" x="1501" y="-13" font-family="FreeSans.ttf" font-size="10.00">map</text>
</a>
</g>
</g>
<!-- Node16&#45;&gt;Node17 -->
<g id="edge16" class="edge">
<title>Node16&#45;&gt;Node17</title>
<path fill="none" stroke="midnightblue" d="M1622.58,-67.36C1598.25,-58.85 1560.67,-45.13 1529,-31 1528,-30.55 1526.99,-30.09 1525.96,-29.61"/>
<polygon fill="midnightblue" stroke="midnightblue" points="1527.35,-26.39 1516.83,-25.11 1524.25,-32.67 1527.35,-26.39"/>
</g>
<!-- Node18 -->
<g id="node18" class="node">
<title>Node18</title>
<g id="a_node18"><a xlink:title=" ">
<polygon fill="none" stroke="#bfbfbf" points="1538.5,-6 1538.5,-25 1631.5,-25 1631.5,-6 1538.5,-6"/>
<text text-anchor="middle" x="1585" y="-13" font-family="FreeSans.ttf" font-size="10.00">sdf/sdf_config.h</text>
</a>
</g>
</g>
<!-- Node16&#45;&gt;Node18 -->
<g id="edge17" class="edge">
<title>Node16&#45;&gt;Node18</title>
<path fill="none" stroke="midnightblue" d="M1638.97,-67.48C1629.24,-58.28 1613.54,-43.46 1601.58,-32.16"/>
<polygon fill="midnightblue" stroke="midnightblue" points="1603.68,-29.33 1594.01,-25.01 1598.88,-34.42 1603.68,-29.33"/>
</g>
<!-- Node19 -->
<g id="node19" class="node">
<title>Node19</title>
<g id="a_node19"><a xlink:title=" ">
<polygon fill="none" stroke="#bfbfbf" points="1650,-6 1650,-25 1772,-25 1772,-6 1650,-6"/>
<text text-anchor="middle" x="1711" y="-13" font-family="FreeSans.ttf" font-size="10.00">yarp/dev/PolyDriver.h</text>
</a>
</g>
</g>
<!-- Node16&#45;&gt;Node19 -->
<g id="edge20" class="edge">
<title>Node16&#45;&gt;Node19</title>
<path fill="none" stroke="midnightblue" d="M1657.03,-67.48C1666.76,-58.28 1682.46,-43.46 1694.42,-32.16"/>
<polygon fill="midnightblue" stroke="midnightblue" points="1697.12,-34.42 1701.99,-25.01 1692.32,-29.33 1697.12,-34.42"/>
</g>
<!-- Node20 -->
<g id="node20" class="node">
<title>Node20</title>
<g id="a_node20"><a xlink:title=" ">
<polygon fill="none" stroke="#bfbfbf" points="1790,-6 1790,-25 1930,-25 1930,-6 1790,-6"/>
<text text-anchor="middle" x="1860" y="-13" font-family="FreeSans.ttf" font-size="10.00">yarp/dev/PolyDriverList.h</text>
</a>
</g>
</g>
<!-- Node16&#45;&gt;Node20 -->
<g id="edge21" class="edge">
<title>Node16&#45;&gt;Node20</title>
<path fill="none" stroke="midnightblue" d="M1678.37,-67.48C1715.61,-57.03 1778.81,-39.29 1819.98,-27.73"/>
<polygon fill="midnightblue" stroke="midnightblue" points="1821,-31.08 1829.68,-25.01 1819.11,-24.34 1821,-31.08"/>
</g>
<!-- Node21 -->
<g id="node21" class="node">
<title>Node21</title>
<g id="a_node21"><a xlink:title=" ">
<polygon fill="none" stroke="#bfbfbf" points="1948.5,-6 1948.5,-25 2097.5,-25 2097.5,-6 1948.5,-6"/>
<text text-anchor="middle" x="2023" y="-13" font-family="FreeSans.ttf" font-size="10.00">gazebo/common/Events.hh</text>
</a>
</g>
</g>
<!-- Node16&#45;&gt;Node21 -->
<g id="edge22" class="edge">
<title>Node16&#45;&gt;Node21</title>
<path fill="none" stroke="midnightblue" d="M1704.92,-67.5C1763.62,-58.66 1857.77,-44.29 1939,-31 1947.29,-29.64 1956.04,-28.17 1964.63,-26.71"/>
<polygon fill="midnightblue" stroke="midnightblue" points="1965.34,-30.14 1974.61,-25 1964.16,-23.24 1965.34,-30.14"/>
</g>
<!-- Node23 -->
<g id="node23" class="node">
<title>Node23</title>
<g id="a_node23"><a xlink:title=" ">
<polygon fill="none" stroke="#bfbfbf" points="2408,-6 2408,-25 2452,-25 2452,-6 2408,-6"/>
<text text-anchor="middle" x="2430" y="-13" font-family="FreeSans.ttf" font-size="10.00">string</text>
</a>
</g>
</g>
<!-- Node22&#45;&gt;Node23 -->
<g id="edge24" class="edge">
<title>Node22&#45;&gt;Node23</title>
<path fill="none" stroke="midnightblue" d="M2414.58,-67.48C2417.15,-58.99 2421.17,-45.7 2424.46,-34.82"/>
<polygon fill="midnightblue" stroke="midnightblue" points="2427.88,-35.59 2427.43,-25.01 2421.18,-33.57 2427.88,-35.59"/>
</g>
<!-- Node24 -->
<g id="node24" class="node">
<title>Node24</title>
<g id="a_node24"><a xlink:title=" ">
<polygon fill="none" stroke="#bfbfbf" points="2470.5,-6 2470.5,-25 2517.5,-25 2517.5,-6 2470.5,-6"/>
<text text-anchor="middle" x="2494" y="-13" font-family="FreeSans.ttf" font-size="10.00">cmath</text>
</a>
</g>
</g>
<!-- Node22&#45;&gt;Node24 -->
<g id="edge25" class="edge">
<title>Node22&#45;&gt;Node24</title>
<path fill="none" stroke="midnightblue" d="M2423.75,-67.48C2436.78,-58.02 2458.04,-42.6 2473.76,-31.19"/>
<polygon fill="midnightblue" stroke="midnightblue" points="2476.23,-33.71 2482.27,-25.01 2472.12,-28.05 2476.23,-33.71"/>
</g>
</g>
</svg>
