<?xml version="1.0" encoding="UTF-8" standalone="no"?>
<!DOCTYPE svg PUBLIC "-//W3C//DTD SVG 1.1//EN"
 "http://www.w3.org/Graphics/SVG/1.1/DTD/svg11.dtd">
<!-- Generated by graphviz version 2.43.0 (0)
 -->
<!-- Title: MultiCameraPlugin.cpp Pages: 1 -->
<svg width="892pt" height="162pt"
 viewBox="0.00 0.00 891.50 162.00" xmlns="http://www.w3.org/2000/svg" xmlns:xlink="http://www.w3.org/1999/xlink">
<g id="graph0" class="graph" transform="scale(1 1) rotate(0) translate(4 158)">
<title>MultiCameraPlugin.cpp</title>
<!-- Node1 -->
<g id="node1" class="node">
<title>Node1</title>
<g id="a_node1"><a xlink:title=" ">
<polygon fill="#bfbfbf" stroke="black" points="206.5,-134.5 206.5,-153.5 336.5,-153.5 336.5,-134.5 206.5,-134.5"/>
<text text-anchor="middle" x="271.5" y="-141.5" font-family="FreeSans.ttf" font-size="10.00">MultiCameraPlugin.cpp</text>
</a>
</g>
</g>
<!-- Node2 -->
<g id="node2" class="node">
<title>Node2</title>
<g id="a_node2"><a xlink:title=" ">
<polygon fill="none" stroke="#bfbfbf" points="0,-67.5 0,-97.5 163,-97.5 163,-67.5 0,-67.5"/>
<text text-anchor="start" x="8" y="-85.5" font-family="FreeSans.ttf" font-size="10.00">gazebo/sensors/DepthCamera</text>
<text text-anchor="middle" x="81.5" y="-74.5" font-family="FreeSans.ttf" font-size="10.00">Sensor.hh</text>
</a>
</g>
</g>
<!-- Node1&#45;&gt;Node2 -->
<g id="edge1" class="edge">
<title>Node1&#45;&gt;Node2</title>
<path fill="none" stroke="midnightblue" d="M244.28,-134.48C216.14,-125.66 171.45,-111.67 136.01,-100.57"/>
<polygon fill="midnightblue" stroke="midnightblue" points="136.87,-97.17 126.28,-97.52 134.78,-103.85 136.87,-97.17"/>
</g>
<!-- Node3 -->
<g id="node3" class="node">
<title>Node3</title>
<g id="a_node3"><a xlink:title=" ">
<polygon fill="none" stroke="#bfbfbf" points="181,-73 181,-92 362,-92 362,-73 181,-73"/>
<text text-anchor="middle" x="271.5" y="-80" font-family="FreeSans.ttf" font-size="10.00">gazebo/sensors/CameraSensor.hh</text>
</a>
</g>
</g>
<!-- Node1&#45;&gt;Node3 -->
<g id="edge2" class="edge">
<title>Node1&#45;&gt;Node3</title>
<path fill="none" stroke="midnightblue" d="M271.5,-134.48C271.5,-126.08 271.5,-112.98 271.5,-102.16"/>
<polygon fill="midnightblue" stroke="midnightblue" points="275,-102.01 271.5,-92.01 268,-102.01 275,-102.01"/>
</g>
<!-- Node4 -->
<g id="node4" class="node">
<title>Node4</title>
<g id="a_node4"><a xlink:href="MultiCameraPlugin_8hh.html" target="_top" xlink:title=" ">
<polygon fill="none" stroke="black" points="380.5,-67.5 380.5,-97.5 536.5,-97.5 536.5,-67.5 380.5,-67.5"/>
<text text-anchor="start" x="388.5" y="-85.5" font-family="FreeSans.ttf" font-size="10.00">gazebo/plugins/MultiCamera</text>
<text text-anchor="middle" x="458.5" y="-74.5" font-family="FreeSans.ttf" font-size="10.00">Plugin.hh</text>
</a>
</g>
</g>
<!-- Node1&#45;&gt;Node4 -->
<g id="edge3" class="edge">
<title>Node1&#45;&gt;Node4</title>
<path fill="none" stroke="midnightblue" d="M298.29,-134.48C325.99,-125.66 369.97,-111.67 404.85,-100.57"/>
<polygon fill="midnightblue" stroke="midnightblue" points="405.96,-103.89 414.43,-97.52 403.84,-97.22 405.96,-103.89"/>
</g>
<!-- Node5 -->
<g id="node5" class="node">
<title>Node5</title>
<g id="a_node5"><a xlink:title=" ">
<polygon fill="none" stroke="#bfbfbf" points="257.5,-6 257.5,-25 301.5,-25 301.5,-6 257.5,-6"/>
<text text-anchor="middle" x="279.5" y="-13" font-family="FreeSans.ttf" font-size="10.00">string</text>
</a>
</g>
</g>
<!-- Node4&#45;&gt;Node5 -->
<g id="edge4" class="edge">
<title>Node4&#45;&gt;Node5</title>
<path fill="none" stroke="midnightblue" d="M414.04,-67.44C384.67,-57.86 345.48,-44.5 311.5,-31 310.08,-30.44 308.64,-29.85 307.18,-29.24"/>
<polygon fill="midnightblue" stroke="midnightblue" points="308.21,-25.87 297.65,-25.08 305.42,-32.29 308.21,-25.87"/>
</g>
<!-- Node6 -->
<g id="node6" class="node">
<title>Node6</title>
<g id="a_node6"><a xlink:title=" ">
<polygon fill="none" stroke="#bfbfbf" points="320,-6 320,-25 367,-25 367,-6 320,-6"/>
<text text-anchor="middle" x="343.5" y="-13" font-family="FreeSans.ttf" font-size="10.00">vector</text>
</a>
</g>
</g>
<!-- Node4&#45;&gt;Node6 -->
<g id="edge5" class="edge">
<title>Node4&#45;&gt;Node6</title>
<path fill="none" stroke="midnightblue" d="M433.55,-67.4C413.9,-56.29 386.71,-40.92 367.35,-29.98"/>
<polygon fill="midnightblue" stroke="midnightblue" points="368.98,-26.88 358.55,-25.01 365.53,-32.97 368.98,-26.88"/>
</g>
<!-- Node7 -->
<g id="node7" class="node">
<title>Node7</title>
<g id="a_node7"><a xlink:title=" ">
<polygon fill="none" stroke="#bfbfbf" points="385.5,-6 385.5,-25 531.5,-25 531.5,-6 385.5,-6"/>
<text text-anchor="middle" x="458.5" y="-13" font-family="FreeSans.ttf" font-size="10.00">gazebo/common/Plugin.hh</text>
</a>
</g>
</g>
<!-- Node4&#45;&gt;Node7 -->
<g id="edge6" class="edge">
<title>Node4&#45;&gt;Node7</title>
<path fill="none" stroke="midnightblue" d="M458.5,-67.4C458.5,-58.06 458.5,-45.71 458.5,-35.52"/>
<polygon fill="midnightblue" stroke="midnightblue" points="462,-35.19 458.5,-25.19 455,-35.19 462,-35.19"/>
</g>
<!-- Node8 -->
<g id="node8" class="node">
<title>Node8</title>
<g id="a_node8"><a xlink:title=" ">
<polygon fill="none" stroke="#bfbfbf" points="549.5,-0.5 549.5,-30.5 707.5,-30.5 707.5,-0.5 549.5,-0.5"/>
<text text-anchor="start" x="557.5" y="-18.5" font-family="FreeSans.ttf" font-size="10.00">gazebo/sensors/MultiCamera</text>
<text text-anchor="middle" x="628.5" y="-7.5" font-family="FreeSans.ttf" font-size="10.00">Sensor.hh</text>
</a>
</g>
</g>
<!-- Node4&#45;&gt;Node8 -->
<g id="edge7" class="edge">
<title>Node4&#45;&gt;Node8</title>
<path fill="none" stroke="midnightblue" d="M495.39,-67.4C520.89,-57.64 555.02,-44.59 582.33,-34.15"/>
<polygon fill="midnightblue" stroke="midnightblue" points="583.59,-37.42 591.68,-30.58 581.09,-30.88 583.59,-37.42"/>
</g>
<!-- Node9 -->
<g id="node9" class="node">
<title>Node9</title>
<g id="a_node9"><a xlink:title=" ">
<polygon fill="none" stroke="#bfbfbf" points="725.5,-6 725.5,-25 883.5,-25 883.5,-6 725.5,-6"/>
<text text-anchor="middle" x="804.5" y="-13" font-family="FreeSans.ttf" font-size="10.00">gazebo/rendering/Camera.hh</text>
</a>
</g>
</g>
<!-- Node4&#45;&gt;Node9 -->
<g id="edge8" class="edge">
<title>Node4&#45;&gt;Node9</title>
<path fill="none" stroke="midnightblue" d="M533.15,-67.48C597.99,-55.29 690.44,-37.93 748.94,-26.94"/>
<polygon fill="midnightblue" stroke="midnightblue" points="749.92,-30.31 759.1,-25.03 748.63,-23.44 749.92,-30.31"/>
</g>
</g>
</svg>
