<?xml version="1.0" encoding="UTF-8" standalone="no"?>
<!DOCTYPE svg PUBLIC "-//W3C//DTD SVG 1.1//EN"
 "http://www.w3.org/Graphics/SVG/1.1/DTD/svg11.dtd">
<!-- Generated by graphviz version 2.49.0 (20210829.0051)
 -->
<!-- Title: MultiCameraDriver.cpp Pages: 1 -->
<svg width="2712pt" height="151pt"
 viewBox="0.00 0.00 2711.50 151.00" xmlns="http://www.w3.org/2000/svg" xmlns:xlink="http://www.w3.org/1999/xlink">
<g id="graph0" class="graph" transform="scale(1 1) rotate(0) translate(4 147)">
<title>MultiCameraDriver.cpp</title>
<!-- Node1 -->
<g id="node1" class="node">
<title>Node1</title>
<g id="a_node1"><a xlink:title=" ">
<polygon fill="#bfbfbf" stroke="black" points="2069,-123.5 2069,-142.5 2198,-142.5 2198,-123.5 2069,-123.5"/>
<text text-anchor="middle" x="2133.5" y="-130.5" font-family="FreeSans.ttf" font-size="10.00">MultiCameraDriver.cpp</text>
</a>
</g>
</g>
<!-- Node2 -->
<g id="node2" class="node">
<title>Node2</title>
<g id="a_node2"><a xlink:href="MultiCameraDriver_8h.html" target="_top" xlink:title=" ">
<polygon fill="none" stroke="black" points="786.5,-67.5 786.5,-86.5 950.5,-86.5 950.5,-67.5 786.5,-67.5"/>
<text text-anchor="middle" x="868.5" y="-74.5" font-family="FreeSans.ttf" font-size="10.00">yarp/dev/MultiCameraDriver.h</text>
</a>
</g>
</g>
<!-- Node1&#45;&gt;Node2 -->
<g id="edge1" class="edge">
<title>Node1&#45;&gt;Node2</title>
<path fill="none" stroke="midnightblue" d="M2068.59,-129.23C1859.74,-120.31 1204.57,-92.35 960.95,-81.95"/>
<polygon fill="midnightblue" stroke="midnightblue" points="960.85,-78.44 950.71,-81.51 960.55,-85.43 960.85,-78.44"/>
</g>
<!-- Node11 -->
<g id="node11" class="node">
<title>Node11</title>
<g id="a_node11"><a xlink:title=" ">
<polygon fill="none" stroke="#bfbfbf" points="1101.5,-0.5 1101.5,-30.5 1259.5,-30.5 1259.5,-0.5 1101.5,-0.5"/>
<text text-anchor="start" x="1109.5" y="-18.5" font-family="FreeSans.ttf" font-size="10.00">gazebo/sensors/MultiCamera</text>
<text text-anchor="middle" x="1180.5" y="-7.5" font-family="FreeSans.ttf" font-size="10.00">Sensor.hh</text>
</a>
</g>
</g>
<!-- Node1&#45;&gt;Node11 -->
<g id="edge25" class="edge">
<title>Node1&#45;&gt;Node11</title>
<path fill="none" stroke="midnightblue" d="M2068.77,-128.98C1963.39,-123.59 1748.33,-110.6 1567.5,-87 1458.62,-72.79 1333.85,-48.62 1256.1,-32.61"/>
<polygon fill="midnightblue" stroke="midnightblue" points="1256.42,-29.1 1245.92,-30.5 1255,-35.95 1256.42,-29.1"/>
</g>
<!-- Node13 -->
<g id="node13" class="node">
<title>Node13</title>
<g id="a_node13"><a xlink:href="MultiCameraLog_8h.html" target="_top" xlink:title=" ">
<polygon fill="none" stroke="black" points="1961.5,-67.5 1961.5,-86.5 2105.5,-86.5 2105.5,-67.5 1961.5,-67.5"/>
<text text-anchor="middle" x="2033.5" y="-74.5" font-family="FreeSans.ttf" font-size="10.00">gazebo/MultiCameraLog.h</text>
</a>
</g>
</g>
<!-- Node1&#45;&gt;Node13 -->
<g id="edge12" class="edge">
<title>Node1&#45;&gt;Node13</title>
<path fill="none" stroke="midnightblue" d="M2117.43,-123.32C2101.54,-114.74 2076.99,-101.49 2058.54,-91.52"/>
<polygon fill="midnightblue" stroke="midnightblue" points="2059.99,-88.33 2049.53,-86.65 2056.66,-94.49 2059.99,-88.33"/>
</g>
<!-- Node15 -->
<g id="node15" class="node">
<title>Node15</title>
<g id="a_node15"><a xlink:title=" ">
<polygon fill="none" stroke="#bfbfbf" points="2104,-6 2104,-25 2221,-25 2221,-6 2104,-6"/>
<text text-anchor="middle" x="2162.5" y="-13" font-family="FreeSans.ttf" font-size="10.00">yarp/os/LogStream.h</text>
</a>
</g>
</g>
<!-- Node1&#45;&gt;Node15 -->
<g id="edge28" class="edge">
<title>Node1&#45;&gt;Node15</title>
<path fill="none" stroke="midnightblue" d="M2135.68,-123.32C2140.36,-104.67 2151.47,-60.44 2157.82,-35.13"/>
<polygon fill="midnightblue" stroke="midnightblue" points="2161.25,-35.83 2160.29,-25.28 2154.47,-34.13 2161.25,-35.83"/>
</g>
<!-- Node16 -->
<g id="node16" class="node">
<title>Node16</title>
<g id="a_node16"><a xlink:href="Handler_8hh.html" target="_top" xlink:title=" ">
<polygon fill="none" stroke="black" points="1576.5,-67.5 1576.5,-86.5 1740.5,-86.5 1740.5,-67.5 1576.5,-67.5"/>
<text text-anchor="middle" x="1658.5" y="-74.5" font-family="FreeSans.ttf" font-size="10.00">GazeboYarpPlugins/Handler.hh</text>
</a>
</g>
</g>
<!-- Node1&#45;&gt;Node16 -->
<g id="edge15" class="edge">
<title>Node1&#45;&gt;Node16</title>
<path fill="none" stroke="midnightblue" d="M2068.95,-124.66C1984.63,-115.08 1836.81,-98.27 1743.47,-87.66"/>
<polygon fill="midnightblue" stroke="midnightblue" points="1743.82,-84.18 1733.49,-86.52 1743.03,-91.13 1743.82,-84.18"/>
</g>
<!-- Node21 -->
<g id="node21" class="node">
<title>Node21</title>
<g id="a_node21"><a xlink:href="common_8h.html" target="_top" xlink:title=" ">
<polygon fill="none" stroke="black" points="2161.5,-67.5 2161.5,-86.5 2325.5,-86.5 2325.5,-67.5 2161.5,-67.5"/>
<text text-anchor="middle" x="2243.5" y="-74.5" font-family="FreeSans.ttf" font-size="10.00">GazeboYarpPlugins/common.h</text>
</a>
</g>
</g>
<!-- Node1&#45;&gt;Node21 -->
<g id="edge22" class="edge">
<title>Node1&#45;&gt;Node21</title>
<path fill="none" stroke="midnightblue" d="M2151.17,-123.32C2168.89,-114.62 2196.4,-101.12 2216.79,-91.11"/>
<polygon fill="midnightblue" stroke="midnightblue" points="2218.44,-94.2 2225.87,-86.65 2215.35,-87.92 2218.44,-94.2"/>
</g>
<!-- Node24 -->
<g id="node24" class="node">
<title>Node24</title>
<g id="a_node24"><a xlink:title=" ">
<polygon fill="none" stroke="#bfbfbf" points="2344,-67.5 2344,-86.5 2511,-86.5 2511,-67.5 2344,-67.5"/>
<text text-anchor="middle" x="2427.5" y="-74.5" font-family="FreeSans.ttf" font-size="10.00">gazebo/rendering/Distortion.hh</text>
</a>
</g>
</g>
<!-- Node1&#45;&gt;Node24 -->
<g id="edge26" class="edge">
<title>Node1&#45;&gt;Node24</title>
<path fill="none" stroke="midnightblue" d="M2180.09,-123.44C2231.91,-113.92 2315.63,-98.55 2371.12,-88.36"/>
<polygon fill="midnightblue" stroke="midnightblue" points="2371.93,-91.77 2381.13,-86.52 2370.66,-84.88 2371.93,-91.77"/>
</g>
<!-- Node25 -->
<g id="node25" class="node">
<title>Node25</title>
<g id="a_node25"><a xlink:title=" ">
<polygon fill="none" stroke="#bfbfbf" points="2529.5,-67.5 2529.5,-86.5 2621.5,-86.5 2621.5,-67.5 2529.5,-67.5"/>
<text text-anchor="middle" x="2575.5" y="-74.5" font-family="FreeSans.ttf" font-size="10.00">yarp/os/Value.h</text>
</a>
</g>
</g>
<!-- Node1&#45;&gt;Node25 -->
<g id="edge27" class="edge">
<title>Node1&#45;&gt;Node25</title>
<path fill="none" stroke="midnightblue" d="M2198.33,-125.39C2273.18,-117.55 2400.27,-103.6 2519.29,-87.11"/>
<polygon fill="midnightblue" stroke="midnightblue" points="2519.89,-90.57 2529.31,-85.72 2518.92,-83.63 2519.89,-90.57"/>
</g>
<!-- Node26 -->
<g id="node26" class="node">
<title>Node26</title>
<g id="a_node26"><a xlink:title=" ">
<polygon fill="none" stroke="#bfbfbf" points="2639.5,-67.5 2639.5,-86.5 2703.5,-86.5 2703.5,-67.5 2639.5,-67.5"/>
<text text-anchor="middle" x="2671.5" y="-74.5" font-family="FreeSans.ttf" font-size="10.00">algorithm</text>
</a>
</g>
</g>
<!-- Node1&#45;&gt;Node26 -->
<g id="edge29" class="edge">
<title>Node1&#45;&gt;Node26</title>
<path fill="none" stroke="midnightblue" d="M2198.15,-128.75C2291.33,-123.49 2468.91,-111.31 2629.29,-87"/>
<polygon fill="midnightblue" stroke="midnightblue" points="2629.99,-90.44 2639.34,-85.46 2628.93,-83.52 2629.99,-90.44"/>
</g>
<!-- Node3 -->
<g id="node3" class="node">
<title>Node3</title>
<g id="a_node3"><a xlink:title=" ">
<polygon fill="none" stroke="#bfbfbf" points="282.5,-6 282.5,-25 416.5,-25 416.5,-6 282.5,-6"/>
<text text-anchor="middle" x="349.5" y="-13" font-family="FreeSans.ttf" font-size="10.00">yarp/dev/DeviceDriver.h</text>
</a>
</g>
</g>
<!-- Node2&#45;&gt;Node3 -->
<g id="edge2" class="edge">
<title>Node2&#45;&gt;Node3</title>
<path fill="none" stroke="midnightblue" d="M786.18,-69.8C697.03,-62.58 550.76,-49.28 425.5,-31 417.47,-29.83 408.99,-28.4 400.73,-26.91"/>
<polygon fill="midnightblue" stroke="midnightblue" points="401.28,-23.45 390.81,-25.06 400,-30.33 401.28,-23.45"/>
</g>
<!-- Node4 -->
<g id="node4" class="node">
<title>Node4</title>
<g id="a_node4"><a xlink:title=" ">
<polygon fill="none" stroke="#bfbfbf" points="434.5,-6 434.5,-25 624.5,-25 624.5,-6 434.5,-6"/>
<text text-anchor="middle" x="529.5" y="-13" font-family="FreeSans.ttf" font-size="10.00">yarp/dev/FrameGrabberInterfaces.h</text>
</a>
</g>
</g>
<!-- Node2&#45;&gt;Node4 -->
<g id="edge3" class="edge">
<title>Node2&#45;&gt;Node4</title>
<path fill="none" stroke="midnightblue" d="M819.93,-67.48C758.76,-56.74 653.74,-38.31 588.16,-26.79"/>
<polygon fill="midnightblue" stroke="midnightblue" points="588.43,-23.29 577.98,-25.01 587.22,-30.19 588.43,-23.29"/>
</g>
<!-- Node5 -->
<g id="node5" class="node">
<title>Node5</title>
<g id="a_node5"><a xlink:title=" ">
<polygon fill="none" stroke="#bfbfbf" points="643,-6 643,-25 802,-25 802,-6 643,-6"/>
<text text-anchor="middle" x="722.5" y="-13" font-family="FreeSans.ttf" font-size="10.00">yarp/dev/IRgbVisualParams.h</text>
</a>
</g>
</g>
<!-- Node2&#45;&gt;Node5 -->
<g id="edge4" class="edge">
<title>Node2&#45;&gt;Node5</title>
<path fill="none" stroke="midnightblue" d="M847.58,-67.48C822.75,-57.36 781.16,-40.4 752.81,-28.85"/>
<polygon fill="midnightblue" stroke="midnightblue" points="753.96,-25.54 743.38,-25.01 751.32,-32.02 753.96,-25.54"/>
</g>
<!-- Node6 -->
<g id="node6" class="node">
<title>Node6</title>
<g id="a_node6"><a xlink:title=" ">
<polygon fill="none" stroke="#bfbfbf" points="820.5,-6 820.5,-25 916.5,-25 916.5,-6 820.5,-6"/>
<text text-anchor="middle" x="868.5" y="-13" font-family="FreeSans.ttf" font-size="10.00">yarp/os/Stamp.h</text>
</a>
</g>
</g>
<!-- Node2&#45;&gt;Node6 -->
<g id="edge5" class="edge">
<title>Node2&#45;&gt;Node6</title>
<path fill="none" stroke="midnightblue" d="M868.5,-67.48C868.5,-59.08 868.5,-45.98 868.5,-35.16"/>
<polygon fill="midnightblue" stroke="midnightblue" points="872,-35.01 868.5,-25.01 865,-35.01 872,-35.01"/>
</g>
<!-- Node7 -->
<g id="node7" class="node">
<title>Node7</title>
<g id="a_node7"><a xlink:title=" ">
<polygon fill="none" stroke="#bfbfbf" points="935,-6 935,-25 1084,-25 1084,-6 935,-6"/>
<text text-anchor="middle" x="1009.5" y="-13" font-family="FreeSans.ttf" font-size="10.00">yarp/dev/IPreciselyTimed.h</text>
</a>
</g>
</g>
<!-- Node2&#45;&gt;Node7 -->
<g id="edge6" class="edge">
<title>Node2&#45;&gt;Node7</title>
<path fill="none" stroke="midnightblue" d="M888.7,-67.48C912.57,-57.4 952.5,-40.55 979.87,-29"/>
<polygon fill="midnightblue" stroke="midnightblue" points="981.48,-32.12 989.34,-25.01 978.76,-25.67 981.48,-32.12"/>
</g>
<!-- Node8 -->
<g id="node8" class="node">
<title>Node8</title>
<g id="a_node8"><a xlink:title=" ">
<polygon fill="none" stroke="#bfbfbf" points="0,-6 0,-25 89,-25 89,-6 0,-6"/>
<text text-anchor="middle" x="44.5" y="-13" font-family="FreeSans.ttf" font-size="10.00">yarp/os/Time.h</text>
</a>
</g>
</g>
<!-- Node2&#45;&gt;Node8 -->
<g id="edge7" class="edge">
<title>Node2&#45;&gt;Node8</title>
<path fill="none" stroke="midnightblue" d="M786.29,-76.8C644.66,-76.94 345.92,-71.77 97.5,-31 92.28,-30.14 86.83,-28.98 81.51,-27.68"/>
<polygon fill="midnightblue" stroke="midnightblue" points="82.05,-24.2 71.49,-25.05 80.28,-30.97 82.05,-24.2"/>
</g>
<!-- Node9 -->
<g id="node9" class="node">
<title>Node9</title>
<g id="a_node9"><a xlink:title=" ">
<polygon fill="none" stroke="#bfbfbf" points="1278,-6 1278,-25 1397,-25 1397,-6 1278,-6"/>
<text text-anchor="middle" x="1337.5" y="-13" font-family="FreeSans.ttf" font-size="10.00">boost/shared_ptr.hpp</text>
</a>
</g>
</g>
<!-- Node2&#45;&gt;Node9 -->
<g id="edge8" class="edge">
<title>Node2&#45;&gt;Node9</title>
<path fill="none" stroke="midnightblue" d="M950.78,-69.05C1031.87,-61.66 1159.14,-48.6 1268.5,-31 1275.4,-29.89 1282.66,-28.55 1289.77,-27.15"/>
<polygon fill="midnightblue" stroke="midnightblue" points="1290.92,-30.48 1300.02,-25.05 1289.52,-23.62 1290.92,-30.48"/>
</g>
<!-- Node10 -->
<g id="node10" class="node">
<title>Node10</title>
<g id="a_node10"><a xlink:title=" ">
<polygon fill="none" stroke="#bfbfbf" points="106.5,-6 106.5,-25 264.5,-25 264.5,-6 106.5,-6"/>
<text text-anchor="middle" x="185.5" y="-13" font-family="FreeSans.ttf" font-size="10.00">gazebo/rendering/Camera.hh</text>
</a>
</g>
</g>
<!-- Node2&#45;&gt;Node10 -->
<g id="edge9" class="edge">
<title>Node2&#45;&gt;Node10</title>
<path fill="none" stroke="midnightblue" d="M786.47,-72.08C671.51,-66.07 456.07,-52.9 273.5,-31 263.47,-29.8 252.83,-28.26 242.56,-26.65"/>
<polygon fill="midnightblue" stroke="midnightblue" points="242.86,-23.15 232.43,-25.02 241.75,-30.06 242.86,-23.15"/>
</g>
<!-- Node2&#45;&gt;Node11 -->
<g id="edge10" class="edge">
<title>Node2&#45;&gt;Node11</title>
<path fill="none" stroke="midnightblue" d="M913.2,-67.48C960.99,-58.36 1037.84,-43.71 1096.91,-32.44"/>
<polygon fill="midnightblue" stroke="midnightblue" points="1097.8,-35.83 1106.97,-30.52 1096.49,-28.96 1097.8,-35.83"/>
</g>
<!-- Node12 -->
<g id="node12" class="node">
<title>Node12</title>
<g id="a_node12"><a xlink:title=" ">
<polygon fill="none" stroke="#bfbfbf" points="1415.5,-6 1415.5,-25 1463.5,-25 1463.5,-6 1415.5,-6"/>
<text text-anchor="middle" x="1439.5" y="-13" font-family="FreeSans.ttf" font-size="10.00">mutex</text>
</a>
</g>
</g>
<!-- Node2&#45;&gt;Node12 -->
<g id="edge11" class="edge">
<title>Node2&#45;&gt;Node12</title>
<path fill="none" stroke="midnightblue" d="M950.65,-72.32C1079.13,-66.03 1321.62,-51.82 1405.5,-31 1407.86,-30.41 1410.28,-29.68 1412.67,-28.86"/>
<polygon fill="midnightblue" stroke="midnightblue" points="1414.18,-32.03 1422.22,-25.13 1411.63,-25.51 1414.18,-32.03"/>
</g>
<!-- Node14 -->
<g id="node14" class="node">
<title>Node14</title>
<g id="a_node14"><a xlink:title=" ">
<polygon fill="none" stroke="#bfbfbf" points="1947.5,-6 1947.5,-25 2085.5,-25 2085.5,-6 1947.5,-6"/>
<text text-anchor="middle" x="2016.5" y="-13" font-family="FreeSans.ttf" font-size="10.00">yarp/os/LogComponent.h</text>
</a>
</g>
</g>
<!-- Node13&#45;&gt;Node14 -->
<g id="edge13" class="edge">
<title>Node13&#45;&gt;Node14</title>
<path fill="none" stroke="midnightblue" d="M2031.06,-67.48C2028.64,-58.99 2024.84,-45.7 2021.73,-34.82"/>
<polygon fill="midnightblue" stroke="midnightblue" points="2025.04,-33.66 2018.93,-25.01 2018.31,-35.59 2025.04,-33.66"/>
</g>
<!-- Node13&#45;&gt;Node15 -->
<g id="edge14" class="edge">
<title>Node13&#45;&gt;Node15</title>
<path fill="none" stroke="midnightblue" d="M2051.98,-67.48C2073.63,-57.49 2109.71,-40.85 2134.73,-29.31"/>
<polygon fill="midnightblue" stroke="midnightblue" points="2136.44,-32.38 2144.05,-25.01 2133.51,-26.02 2136.44,-32.38"/>
</g>
<!-- Node16&#45;&gt;Node9 -->
<g id="edge18" class="edge">
<title>Node16&#45;&gt;Node9</title>
<path fill="none" stroke="midnightblue" d="M1608.21,-67.48C1557.29,-58.75 1476.3,-44.56 1406.5,-31 1400.27,-29.79 1393.73,-28.47 1387.27,-27.15"/>
<polygon fill="midnightblue" stroke="midnightblue" points="1387.73,-23.67 1377.23,-25.06 1386.31,-30.52 1387.73,-23.67"/>
</g>
<!-- Node16&#45;&gt;Node12 -->
<g id="edge19" class="edge">
<title>Node16&#45;&gt;Node12</title>
<path fill="none" stroke="midnightblue" d="M1613.53,-67.44C1575.46,-59.65 1519.72,-46.95 1472.5,-31 1470.63,-30.37 1468.72,-29.67 1466.82,-28.94"/>
<polygon fill="midnightblue" stroke="midnightblue" points="1468.01,-25.65 1457.43,-25.06 1465.33,-32.12 1468.01,-25.65"/>
</g>
<!-- Node17 -->
<g id="node17" class="node">
<title>Node17</title>
<g id="a_node17"><a xlink:title=" ">
<polygon fill="none" stroke="#bfbfbf" points="1639.5,-6 1639.5,-25 1677.5,-25 1677.5,-6 1639.5,-6"/>
<text text-anchor="middle" x="1658.5" y="-13" font-family="FreeSans.ttf" font-size="10.00">map</text>
</a>
</g>
</g>
<!-- Node16&#45;&gt;Node17 -->
<g id="edge16" class="edge">
<title>Node16&#45;&gt;Node17</title>
<path fill="none" stroke="midnightblue" d="M1658.5,-67.48C1658.5,-59.08 1658.5,-45.98 1658.5,-35.16"/>
<polygon fill="midnightblue" stroke="midnightblue" points="1662,-35.01 1658.5,-25.01 1655,-35.01 1662,-35.01"/>
</g>
<!-- Node18 -->
<g id="node18" class="node">
<title>Node18</title>
<g id="a_node18"><a xlink:title=" ">
<polygon fill="none" stroke="#bfbfbf" points="1696,-6 1696,-25 1789,-25 1789,-6 1696,-6"/>
<text text-anchor="middle" x="1742.5" y="-13" font-family="FreeSans.ttf" font-size="10.00">sdf/sdf_config.h</text>
</a>
</g>
</g>
<!-- Node16&#45;&gt;Node18 -->
<g id="edge17" class="edge">
<title>Node16&#45;&gt;Node18</title>
<path fill="none" stroke="midnightblue" d="M1670.54,-67.48C1684.01,-57.93 1706.07,-42.31 1722.22,-30.87"/>
<polygon fill="midnightblue" stroke="midnightblue" points="1724.35,-33.65 1730.49,-25.01 1720.3,-27.93 1724.35,-33.65"/>
</g>
<!-- Node19 -->
<g id="node19" class="node">
<title>Node19</title>
<g id="a_node19"><a xlink:title=" ">
<polygon fill="none" stroke="#bfbfbf" points="1807.5,-6 1807.5,-25 1929.5,-25 1929.5,-6 1807.5,-6"/>
<text text-anchor="middle" x="1868.5" y="-13" font-family="FreeSans.ttf" font-size="10.00">yarp/dev/PolyDriver.h</text>
</a>
</g>
</g>
<!-- Node16&#45;&gt;Node19 -->
<g id="edge20" class="edge">
<title>Node16&#45;&gt;Node19</title>
<path fill="none" stroke="midnightblue" d="M1688.59,-67.48C1725.39,-57.05 1787.81,-39.36 1828.59,-27.81"/>
<polygon fill="midnightblue" stroke="midnightblue" points="1829.8,-31.1 1838.47,-25.01 1827.89,-24.37 1829.8,-31.1"/>
</g>
<!-- Node20 -->
<g id="node20" class="node">
<title>Node20</title>
<g id="a_node20"><a xlink:title=" ">
<polygon fill="none" stroke="#bfbfbf" points="1481.5,-6 1481.5,-25 1621.5,-25 1621.5,-6 1481.5,-6"/>
<text text-anchor="middle" x="1551.5" y="-13" font-family="FreeSans.ttf" font-size="10.00">yarp/dev/PolyDriverList.h</text>
</a>
</g>
</g>
<!-- Node16&#45;&gt;Node20 -->
<g id="edge21" class="edge">
<title>Node16&#45;&gt;Node20</title>
<path fill="none" stroke="midnightblue" d="M1643.17,-67.48C1625.53,-57.67 1596.34,-41.43 1575.64,-29.92"/>
<polygon fill="midnightblue" stroke="midnightblue" points="1577.24,-26.81 1566.8,-25.01 1573.84,-32.93 1577.24,-26.81"/>
</g>
<!-- Node22 -->
<g id="node22" class="node">
<title>Node22</title>
<g id="a_node22"><a xlink:title=" ">
<polygon fill="none" stroke="#bfbfbf" points="2239.5,-6 2239.5,-25 2283.5,-25 2283.5,-6 2239.5,-6"/>
<text text-anchor="middle" x="2261.5" y="-13" font-family="FreeSans.ttf" font-size="10.00">string</text>
</a>
</g>
</g>
<!-- Node21&#45;&gt;Node22 -->
<g id="edge23" class="edge">
<title>Node21&#45;&gt;Node22</title>
<path fill="none" stroke="midnightblue" d="M2246.08,-67.48C2248.65,-58.99 2252.67,-45.7 2255.96,-34.82"/>
<polygon fill="midnightblue" stroke="midnightblue" points="2259.38,-35.59 2258.93,-25.01 2252.68,-33.57 2259.38,-35.59"/>
</g>
<!-- Node23 -->
<g id="node23" class="node">
<title>Node23</title>
<g id="a_node23"><a xlink:title=" ">
<polygon fill="none" stroke="#bfbfbf" points="2302,-6 2302,-25 2349,-25 2349,-6 2302,-6"/>
<text text-anchor="middle" x="2325.5" y="-13" font-family="FreeSans.ttf" font-size="10.00">cmath</text>
</a>
</g>
</g>
<!-- Node21&#45;&gt;Node23 -->
<g id="edge24" class="edge">
<title>Node21&#45;&gt;Node23</title>
<path fill="none" stroke="midnightblue" d="M2255.25,-67.48C2268.28,-58.02 2289.54,-42.6 2305.26,-31.19"/>
<polygon fill="midnightblue" stroke="midnightblue" points="2307.73,-33.71 2313.77,-25.01 2303.62,-28.05 2307.73,-33.71"/>
</g>
</g>
</svg>
