<?xml version="1.0" encoding="UTF-8" standalone="no"?>
<!DOCTYPE svg PUBLIC "-//W3C//DTD SVG 1.1//EN"
 "http://www.w3.org/Graphics/SVG/1.1/DTD/svg11.dtd">
<!-- Generated by graphviz version 3.0.0 (20220315.2325)
 -->
<!-- Title: MultiCameraLog.h Pages: 1 -->
<svg width="383pt" height="84pt"
 viewBox="0.00 0.00 383.00 84.00" xmlns="http://www.w3.org/2000/svg" xmlns:xlink="http://www.w3.org/1999/xlink">
<g id="graph0" class="graph" transform="scale(1 1) rotate(0) translate(4 80)">
<title>MultiCameraLog.h</title>
<!-- Node1 -->
<g id="node1" class="node">
<title>Node1</title>
<g id="a_node1"><a xlink:title=" ">
<polygon fill="#bfbfbf" stroke="black" points="122.5,-56.5 122.5,-75.5 228.5,-75.5 228.5,-56.5 122.5,-56.5"/>
<text text-anchor="middle" x="175.5" y="-63.5" font-family="FreeSans.ttf" font-size="10.00">MultiCameraLog.h</text>
</a>
</g>
</g>
<!-- Node2 -->
<g id="node2" class="node">
<title>Node2</title>
<g id="a_node2"><a xlink:href="MultiCamera_8cc.html" target="_top" xlink:title=" ">
<polygon fill="none" stroke="black" points="0,-0.5 0,-19.5 93,-19.5 93,-0.5 0,-0.5"/>
<text text-anchor="middle" x="46.5" y="-7.5" font-family="FreeSans.ttf" font-size="10.00">MultiCamera.cc</text>
</a>
</g>
</g>
<!-- Node1&#45;&gt;Node2 -->
<g id="edge1" class="edge">
<title>Node1&#45;&gt;Node2</title>
<path fill="none" stroke="midnightblue" d="M145.65,-52.5C121.46,-42.38 88.04,-28.39 66.84,-19.52"/>
<polygon fill="midnightblue" stroke="midnightblue" points="144.48,-55.81 155.06,-56.44 147.19,-49.35 144.48,-55.81"/>
</g>
<!-- Node3 -->
<g id="node3" class="node">
<title>Node3</title>
<g id="a_node3"><a xlink:href="MultiCameraDriver_8cpp.html" target="_top" xlink:title=" ">
<polygon fill="none" stroke="black" points="111,-0.5 111,-19.5 240,-19.5 240,-0.5 111,-0.5"/>
<text text-anchor="middle" x="175.5" y="-7.5" font-family="FreeSans.ttf" font-size="10.00">MultiCameraDriver.cpp</text>
</a>
</g>
</g>
<!-- Node1&#45;&gt;Node3 -->
<g id="edge2" class="edge">
<title>Node1&#45;&gt;Node3</title>
<path fill="none" stroke="midnightblue" d="M175.5,-45.8C175.5,-36.91 175.5,-26.78 175.5,-19.75"/>
<polygon fill="midnightblue" stroke="midnightblue" points="172,-46.08 175.5,-56.08 179,-46.08 172,-46.08"/>
</g>
<!-- Node4 -->
<g id="node4" class="node">
<title>Node4</title>
<g id="a_node4"><a xlink:href="MultiCameraLog_8cpp.html" target="_top" xlink:title=" ">
<polygon fill="none" stroke="black" points="258,-0.5 258,-19.5 375,-19.5 375,-0.5 258,-0.5"/>
<text text-anchor="middle" x="316.5" y="-7.5" font-family="FreeSans.ttf" font-size="10.00">MultiCameraLog.cpp</text>
</a>
</g>
</g>
<!-- Node1&#45;&gt;Node4 -->
<g id="edge3" class="edge">
<title>Node1&#45;&gt;Node4</title>
<path fill="none" stroke="midnightblue" d="M207.43,-52.77C233.91,-42.63 270.89,-28.47 294.26,-19.52"/>
<polygon fill="midnightblue" stroke="midnightblue" points="205.93,-49.6 197.84,-56.44 208.43,-56.14 205.93,-49.6"/>
</g>
</g>
</svg>
