<?xml version="1.0" encoding="UTF-8" standalone="no"?>
<!DOCTYPE svg PUBLIC "-//W3C//DTD SVG 1.1//EN"
 "http://www.w3.org/Graphics/SVG/1.1/DTD/svg11.dtd">
<!-- Generated by graphviz version 2.43.0 (0)
 -->
<!-- Title: ShowModelCoM.cc Pages: 1 -->
<svg width="1571pt" height="140pt"
 viewBox="0.00 0.00 1571.00 140.00" xmlns="http://www.w3.org/2000/svg" xmlns:xlink="http://www.w3.org/1999/xlink">
<g id="graph0" class="graph" transform="scale(1 1) rotate(0) translate(4 136)">
<title>ShowModelCoM.cc</title>
<!-- Node1 -->
<g id="node1" class="node">
<title>Node1</title>
<g id="a_node1"><a xlink:title=" ">
<polygon fill="#bfbfbf" stroke="black" points="631,-112.5 631,-131.5 739,-131.5 739,-112.5 631,-112.5"/>
<text text-anchor="middle" x="685" y="-119.5" font-family="FreeSans.ttf" font-size="10.00">ShowModelCoM.cc</text>
</a>
</g>
</g>
<!-- Node2 -->
<g id="node2" class="node">
<title>Node2</title>
<g id="a_node2"><a xlink:href="ShowModelCoM_8hh.html" target="_top" xlink:title=" ">
<polygon fill="none" stroke="black" points="128,-56.5 128,-75.5 238,-75.5 238,-56.5 128,-56.5"/>
<text text-anchor="middle" x="183" y="-63.5" font-family="FreeSans.ttf" font-size="10.00">ShowModelCoM.hh</text>
</a>
</g>
</g>
<!-- Node1&#45;&gt;Node2 -->
<g id="edge1" class="edge">
<title>Node1&#45;&gt;Node2</title>
<path fill="none" stroke="midnightblue" d="M630.95,-115.84C548.95,-107.91 388.24,-91.96 252,-76 250.89,-75.87 249.77,-75.74 248.64,-75.6"/>
<polygon fill="midnightblue" stroke="midnightblue" points="248.7,-72.08 238.35,-74.35 247.85,-79.03 248.7,-72.08"/>
</g>
<!-- Node3 -->
<g id="node3" class="node">
<title>Node3</title>
<g id="a_node3"><a xlink:title=" ">
<polygon fill="none" stroke="#bfbfbf" points="0,-0.5 0,-19.5 60,-19.5 60,-0.5 0,-0.5"/>
<text text-anchor="middle" x="30" y="-7.5" font-family="FreeSans.ttf" font-size="10.00">iostream</text>
</a>
</g>
</g>
<!-- Node1&#45;&gt;Node3 -->
<g id="edge6" class="edge">
<title>Node1&#45;&gt;Node3</title>
<path fill="none" stroke="midnightblue" d="M630.59,-121.29C504.36,-121.25 195.23,-116.86 101,-76 76.9,-65.55 55.64,-43.44 42.8,-27.92"/>
<polygon fill="midnightblue" stroke="midnightblue" points="45.22,-25.33 36.27,-19.68 39.74,-29.69 45.22,-25.33"/>
</g>
<!-- Node4 -->
<g id="node4" class="node">
<title>Node4</title>
<g id="a_node4"><a xlink:title=" ">
<polygon fill="none" stroke="#bfbfbf" points="78,-0.5 78,-19.5 122,-19.5 122,-0.5 78,-0.5"/>
<text text-anchor="middle" x="100" y="-7.5" font-family="FreeSans.ttf" font-size="10.00">string</text>
</a>
</g>
</g>
<!-- Node1&#45;&gt;Node4 -->
<g id="edge7" class="edge">
<title>Node1&#45;&gt;Node4</title>
<path fill="none" stroke="midnightblue" d="M630.74,-120.14C496.74,-117.53 158.14,-107.84 119,-76 105.48,-65 101.25,-44.95 100.08,-30.02"/>
<polygon fill="midnightblue" stroke="midnightblue" points="103.57,-29.68 99.68,-19.83 96.57,-29.96 103.57,-29.68"/>
</g>
<!-- Node5 -->
<g id="node5" class="node">
<title>Node5</title>
<g id="a_node5"><a xlink:title=" ">
<polygon fill="none" stroke="#bfbfbf" points="284,-0.5 284,-19.5 430,-19.5 430,-0.5 284,-0.5"/>
<text text-anchor="middle" x="357" y="-7.5" font-family="FreeSans.ttf" font-size="10.00">gazebo/common/Plugin.hh</text>
</a>
</g>
</g>
<!-- Node1&#45;&gt;Node5 -->
<g id="edge8" class="edge">
<title>Node1&#45;&gt;Node5</title>
<path fill="none" stroke="midnightblue" d="M630.76,-118.84C526.78,-114.15 307.64,-101.34 285,-76 267.33,-56.23 298.63,-36.19 325.34,-23.7"/>
<polygon fill="midnightblue" stroke="midnightblue" points="326.81,-26.87 334.51,-19.6 323.96,-20.48 326.81,-26.87"/>
</g>
<!-- Node7 -->
<g id="node7" class="node">
<title>Node7</title>
<g id="a_node7"><a xlink:title=" ">
<polygon fill="none" stroke="#bfbfbf" points="294,-56.5 294,-75.5 434,-75.5 434,-56.5 294,-56.5"/>
<text text-anchor="middle" x="364" y="-63.5" font-family="FreeSans.ttf" font-size="10.00">gazebo/physics/Model.hh</text>
</a>
</g>
</g>
<!-- Node1&#45;&gt;Node7 -->
<g id="edge9" class="edge">
<title>Node1&#45;&gt;Node7</title>
<path fill="none" stroke="midnightblue" d="M634.14,-112.44C577.32,-102.89 485.38,-87.42 424.81,-77.23"/>
<polygon fill="midnightblue" stroke="midnightblue" points="425.07,-73.72 414.63,-75.52 423.91,-80.63 425.07,-73.72"/>
</g>
<!-- Node8 -->
<g id="node8" class="node">
<title>Node8</title>
<g id="a_node8"><a xlink:title=" ">
<polygon fill="none" stroke="#bfbfbf" points="452.5,-56.5 452.5,-75.5 601.5,-75.5 601.5,-56.5 452.5,-56.5"/>
<text text-anchor="middle" x="527" y="-63.5" font-family="FreeSans.ttf" font-size="10.00">gazebo/common/Events.hh</text>
</a>
</g>
</g>
<!-- Node1&#45;&gt;Node8 -->
<g id="edge10" class="edge">
<title>Node1&#45;&gt;Node8</title>
<path fill="none" stroke="midnightblue" d="M659.96,-112.44C633.38,-103.36 591.19,-88.94 561.48,-78.78"/>
<polygon fill="midnightblue" stroke="midnightblue" points="562.51,-75.44 551.92,-75.52 560.25,-82.06 562.51,-75.44"/>
</g>
<!-- Node9 -->
<g id="node9" class="node">
<title>Node9</title>
<g id="a_node9"><a xlink:title=" ">
<polygon fill="none" stroke="#bfbfbf" points="620,-56.5 620,-75.5 750,-75.5 750,-56.5 620,-56.5"/>
<text text-anchor="middle" x="685" y="-63.5" font-family="FreeSans.ttf" font-size="10.00">gazebo/physics/Link.hh</text>
</a>
</g>
</g>
<!-- Node1&#45;&gt;Node9 -->
<g id="edge11" class="edge">
<title>Node1&#45;&gt;Node9</title>
<path fill="none" stroke="midnightblue" d="M685,-112.08C685,-105.01 685,-94.86 685,-85.99"/>
<polygon fill="midnightblue" stroke="midnightblue" points="688.5,-85.75 685,-75.75 681.5,-85.75 688.5,-85.75"/>
</g>
<!-- Node10 -->
<g id="node10" class="node">
<title>Node10</title>
<g id="a_node10"><a xlink:title=" ">
<polygon fill="none" stroke="#bfbfbf" points="768.5,-56.5 768.5,-75.5 905.5,-75.5 905.5,-56.5 768.5,-56.5"/>
<text text-anchor="middle" x="837" y="-63.5" font-family="FreeSans.ttf" font-size="10.00">gazebo/physics/World.hh</text>
</a>
</g>
</g>
<!-- Node1&#45;&gt;Node10 -->
<g id="edge12" class="edge">
<title>Node1&#45;&gt;Node10</title>
<path fill="none" stroke="midnightblue" d="M709.08,-112.44C734.54,-103.4 774.89,-89.06 803.46,-78.92"/>
<polygon fill="midnightblue" stroke="midnightblue" points="804.78,-82.16 813.03,-75.52 802.43,-75.57 804.78,-82.16"/>
</g>
<!-- Node11 -->
<g id="node11" class="node">
<title>Node11</title>
<g id="a_node11"><a xlink:title=" ">
<polygon fill="none" stroke="#bfbfbf" points="923.5,-56.5 923.5,-75.5 1066.5,-75.5 1066.5,-56.5 923.5,-56.5"/>
<text text-anchor="middle" x="995" y="-63.5" font-family="FreeSans.ttf" font-size="10.00">gazebo/transport/Node.hh</text>
</a>
</g>
</g>
<!-- Node1&#45;&gt;Node11 -->
<g id="edge13" class="edge">
<title>Node1&#45;&gt;Node11</title>
<path fill="none" stroke="midnightblue" d="M734.12,-112.44C788.88,-102.9 877.41,-87.48 935.91,-77.29"/>
<polygon fill="midnightblue" stroke="midnightblue" points="936.86,-80.68 946.11,-75.52 935.66,-73.78 936.86,-80.68"/>
</g>
<!-- Node12 -->
<g id="node12" class="node">
<title>Node12</title>
<g id="a_node12"><a xlink:title=" ">
<polygon fill="none" stroke="#bfbfbf" points="1085,-56.5 1085,-75.5 1191,-75.5 1191,-56.5 1085,-56.5"/>
<text text-anchor="middle" x="1138" y="-63.5" font-family="FreeSans.ttf" font-size="10.00">yarp/os/Network.h</text>
</a>
</g>
</g>
<!-- Node1&#45;&gt;Node12 -->
<g id="edge14" class="edge">
<title>Node1&#45;&gt;Node12</title>
<path fill="none" stroke="midnightblue" d="M739.14,-115.28C812.67,-107.4 948.5,-92.44 1074.68,-76.14"/>
<polygon fill="midnightblue" stroke="midnightblue" points="1075.45,-79.57 1084.91,-74.81 1074.55,-72.63 1075.45,-79.57"/>
</g>
<!-- Node13 -->
<g id="node13" class="node">
<title>Node13</title>
<g id="a_node13"><a xlink:title=" ">
<polygon fill="none" stroke="#bfbfbf" points="1209,-56.5 1209,-75.5 1303,-75.5 1303,-56.5 1209,-56.5"/>
<text text-anchor="middle" x="1256" y="-63.5" font-family="FreeSans.ttf" font-size="10.00">yarp/os/Bottle.h</text>
</a>
</g>
</g>
<!-- Node1&#45;&gt;Node13 -->
<g id="edge15" class="edge">
<title>Node1&#45;&gt;Node13</title>
<path fill="none" stroke="midnightblue" d="M739.26,-117.55C831.51,-111.41 1025,-97.3 1198.88,-76.05"/>
<polygon fill="midnightblue" stroke="midnightblue" points="1199.48,-79.51 1208.98,-74.81 1198.63,-72.56 1199.48,-79.51"/>
</g>
<!-- Node14 -->
<g id="node14" class="node">
<title>Node14</title>
<g id="a_node14"><a xlink:title=" ">
<polygon fill="none" stroke="#bfbfbf" points="1321.5,-56.5 1321.5,-75.5 1446.5,-75.5 1446.5,-56.5 1321.5,-56.5"/>
<text text-anchor="middle" x="1384" y="-63.5" font-family="FreeSans.ttf" font-size="10.00">yarp/os/BufferedPort.h</text>
</a>
</g>
</g>
<!-- Node1&#45;&gt;Node14 -->
<g id="edge16" class="edge">
<title>Node1&#45;&gt;Node14</title>
<path fill="none" stroke="midnightblue" d="M739.18,-118.08C846.28,-112.09 1092.87,-97.25 1311.15,-76.03"/>
<polygon fill="midnightblue" stroke="midnightblue" points="1311.58,-79.51 1321.19,-75.05 1310.9,-72.54 1311.58,-79.51"/>
</g>
<!-- Node15 -->
<g id="node15" class="node">
<title>Node15</title>
<g id="a_node15"><a xlink:title=" ">
<polygon fill="none" stroke="#bfbfbf" points="1465,-56.5 1465,-75.5 1563,-75.5 1563,-56.5 1465,-56.5"/>
<text text-anchor="middle" x="1514" y="-63.5" font-family="FreeSans.ttf" font-size="10.00">yarp/sig/Vector.h</text>
</a>
</g>
</g>
<!-- Node1&#45;&gt;Node15 -->
<g id="edge17" class="edge">
<title>Node1&#45;&gt;Node15</title>
<path fill="none" stroke="midnightblue" d="M739.36,-119.61C864.01,-116.05 1180.17,-104.83 1454.83,-76.02"/>
<polygon fill="midnightblue" stroke="midnightblue" points="1455.42,-79.47 1465,-74.94 1454.68,-72.51 1455.42,-79.47"/>
</g>
<!-- Node2&#45;&gt;Node3 -->
<g id="edge2" class="edge">
<title>Node2&#45;&gt;Node3</title>
<path fill="none" stroke="midnightblue" d="M158.76,-56.44C133.13,-47.4 92.51,-33.06 63.76,-22.92"/>
<polygon fill="midnightblue" stroke="midnightblue" points="64.72,-19.54 54.13,-19.52 62.39,-26.15 64.72,-19.54"/>
</g>
<!-- Node2&#45;&gt;Node4 -->
<g id="edge3" class="edge">
<title>Node2&#45;&gt;Node4</title>
<path fill="none" stroke="midnightblue" d="M169.66,-56.32C156.84,-47.98 137.22,-35.21 122.06,-25.35"/>
<polygon fill="midnightblue" stroke="midnightblue" points="123.59,-22.17 113.3,-19.65 119.78,-28.04 123.59,-22.17"/>
</g>
<!-- Node2&#45;&gt;Node5 -->
<g id="edge4" class="edge">
<title>Node2&#45;&gt;Node5</title>
<path fill="none" stroke="midnightblue" d="M210.57,-56.44C240.1,-47.28 287.12,-32.69 319.88,-22.52"/>
<polygon fill="midnightblue" stroke="midnightblue" points="321.04,-25.82 329.56,-19.52 318.97,-19.14 321.04,-25.82"/>
</g>
<!-- Node6 -->
<g id="node6" class="node">
<title>Node6</title>
<g id="a_node6"><a xlink:title=" ">
<polygon fill="none" stroke="#bfbfbf" points="140.5,-0.5 140.5,-19.5 265.5,-19.5 265.5,-0.5 140.5,-0.5"/>
<text text-anchor="middle" x="203" y="-7.5" font-family="FreeSans.ttf" font-size="10.00">gazebo/msgs/msgs.hh</text>
</a>
</g>
</g>
<!-- Node2&#45;&gt;Node6 -->
<g id="edge5" class="edge">
<title>Node2&#45;&gt;Node6</title>
<path fill="none" stroke="midnightblue" d="M186.3,-56.08C188.98,-48.85 192.85,-38.41 196.19,-29.4"/>
<polygon fill="midnightblue" stroke="midnightblue" points="199.57,-30.34 199.76,-19.75 193,-27.91 199.57,-30.34"/>
</g>
</g>
</svg>
