<?xml version="1.0" encoding="UTF-8" standalone="no"?>
<!DOCTYPE svg PUBLIC "-//W3C//DTD SVG 1.1//EN"
 "http://www.w3.org/Graphics/SVG/1.1/DTD/svg11.dtd">
<!-- Generated by graphviz version 2.43.0 (0)
 -->
<!-- Title: ShowModelCoM.hh Pages: 1 -->
<svg width="438pt" height="84pt"
 viewBox="0.00 0.00 437.50 84.00" xmlns="http://www.w3.org/2000/svg" xmlns:xlink="http://www.w3.org/1999/xlink">
<g id="graph0" class="graph" transform="scale(1 1) rotate(0) translate(4 80)">
<title>ShowModelCoM.hh</title>
<!-- Node1 -->
<g id="node1" class="node">
<title>Node1</title>
<g id="a_node1"><a xlink:title=" ">
<polygon fill="#bfbfbf" stroke="black" points="101,-56.5 101,-75.5 211,-75.5 211,-56.5 101,-56.5"/>
<text text-anchor="middle" x="156" y="-63.5" font-family="FreeSans.ttf" font-size="10.00">ShowModelCoM.hh</text>
</a>
</g>
</g>
<!-- Node2 -->
<g id="node2" class="node">
<title>Node2</title>
<g id="a_node2"><a xlink:title=" ">
<polygon fill="none" stroke="#bfbfbf" points="0,-0.5 0,-19.5 60,-19.5 60,-0.5 0,-0.5"/>
<text text-anchor="middle" x="30" y="-7.5" font-family="FreeSans.ttf" font-size="10.00">iostream</text>
</a>
</g>
</g>
<!-- Node1&#45;&gt;Node2 -->
<g id="edge1" class="edge">
<title>Node1&#45;&gt;Node2</title>
<path fill="none" stroke="midnightblue" d="M136.03,-56.44C115.39,-47.6 82.94,-33.69 59.37,-23.59"/>
<polygon fill="midnightblue" stroke="midnightblue" points="60.44,-20.24 49.87,-19.52 57.68,-26.67 60.44,-20.24"/>
</g>
<!-- Node3 -->
<g id="node3" class="node">
<title>Node3</title>
<g id="a_node3"><a xlink:title=" ">
<polygon fill="none" stroke="#bfbfbf" points="78,-0.5 78,-19.5 122,-19.5 122,-0.5 78,-0.5"/>
<text text-anchor="middle" x="100" y="-7.5" font-family="FreeSans.ttf" font-size="10.00">string</text>
</a>
</g>
</g>
<!-- Node1&#45;&gt;Node3 -->
<g id="edge2" class="edge">
<title>Node1&#45;&gt;Node3</title>
<path fill="none" stroke="midnightblue" d="M147,-56.32C138.81,-48.42 126.49,-36.55 116.53,-26.94"/>
<polygon fill="midnightblue" stroke="midnightblue" points="118.79,-24.26 109.16,-19.83 113.93,-29.29 118.79,-24.26"/>
</g>
<!-- Node4 -->
<g id="node4" class="node">
<title>Node4</title>
<g id="a_node4"><a xlink:title=" ">
<polygon fill="none" stroke="#bfbfbf" points="140,-0.5 140,-19.5 286,-19.5 286,-0.5 140,-0.5"/>
<text text-anchor="middle" x="213" y="-7.5" font-family="FreeSans.ttf" font-size="10.00">gazebo/common/Plugin.hh</text>
</a>
</g>
</g>
<!-- Node1&#45;&gt;Node4 -->
<g id="edge3" class="edge">
<title>Node1&#45;&gt;Node4</title>
<path fill="none" stroke="midnightblue" d="M165.16,-56.32C173.5,-48.42 186.03,-36.55 196.18,-26.94"/>
<polygon fill="midnightblue" stroke="midnightblue" points="198.82,-29.25 203.68,-19.83 194.01,-24.17 198.82,-29.25"/>
</g>
<!-- Node5 -->
<g id="node5" class="node">
<title>Node5</title>
<g id="a_node5"><a xlink:title=" ">
<polygon fill="none" stroke="#bfbfbf" points="304.5,-0.5 304.5,-19.5 429.5,-19.5 429.5,-0.5 304.5,-0.5"/>
<text text-anchor="middle" x="367" y="-7.5" font-family="FreeSans.ttf" font-size="10.00">gazebo/msgs/msgs.hh</text>
</a>
</g>
</g>
<!-- Node1&#45;&gt;Node5 -->
<g id="edge4" class="edge">
<title>Node1&#45;&gt;Node5</title>
<path fill="none" stroke="midnightblue" d="M189.43,-56.44C225.86,-47.12 284.23,-32.18 324.03,-22"/>
<polygon fill="midnightblue" stroke="midnightblue" points="324.9,-25.39 333.72,-19.52 323.17,-18.61 324.9,-25.39"/>
</g>
</g>
</svg>
