<?xml version="1.0" encoding="UTF-8" standalone="no"?>
<!DOCTYPE svg PUBLIC "-//W3C//DTD SVG 1.1//EN"
 "http://www.w3.org/Graphics/SVG/1.1/DTD/svg11.dtd">
<!-- Generated by graphviz version 2.43.0 (0)
 -->
<!-- Title: VideoTexture.hh Pages: 1 -->
<svg width="1601pt" height="95pt"
 viewBox="0.00 0.00 1600.50 95.00" xmlns="http://www.w3.org/2000/svg" xmlns:xlink="http://www.w3.org/1999/xlink">
<g id="graph0" class="graph" transform="scale(1 1) rotate(0) translate(4 91)">
<title>VideoTexture.hh</title>
<!-- Node1 -->
<g id="node1" class="node">
<title>Node1</title>
<g id="a_node1"><a xlink:title=" ">
<polygon fill="#bfbfbf" stroke="black" points="643.5,-67.5 643.5,-86.5 738.5,-86.5 738.5,-67.5 643.5,-67.5"/>
<text text-anchor="middle" x="691" y="-74.5" font-family="FreeSans.ttf" font-size="10.00">VideoTexture.hh</text>
</a>
</g>
</g>
<!-- Node2 -->
<g id="node2" class="node">
<title>Node2</title>
<g id="a_node2"><a xlink:title=" ">
<polygon fill="none" stroke="#bfbfbf" points="0,-6 0,-25 134,-25 134,-6 0,-6"/>
<text text-anchor="middle" x="67" y="-13" font-family="FreeSans.ttf" font-size="10.00">boost/thread/mutex.hpp</text>
</a>
</g>
</g>
<!-- Node1&#45;&gt;Node2 -->
<g id="edge1" class="edge">
<title>Node1&#45;&gt;Node2</title>
<path fill="none" stroke="midnightblue" d="M643.17,-73.79C547.72,-69 326.97,-56.03 143,-31 134.68,-29.87 125.89,-28.42 117.35,-26.89"/>
<polygon fill="midnightblue" stroke="midnightblue" points="117.97,-23.44 107.49,-25.05 116.69,-30.32 117.97,-23.44"/>
</g>
<!-- Node3 -->
<g id="node3" class="node">
<title>Node3</title>
<g id="a_node3"><a xlink:title=" ">
<polygon fill="none" stroke="#bfbfbf" points="152,-6 152,-25 268,-25 268,-6 152,-6"/>
<text text-anchor="middle" x="210" y="-13" font-family="FreeSans.ttf" font-size="10.00">opencv2/opencv.hpp</text>
</a>
</g>
</g>
<!-- Node1&#45;&gt;Node3 -->
<g id="edge2" class="edge">
<title>Node1&#45;&gt;Node3</title>
<path fill="none" stroke="midnightblue" d="M643.28,-72.45C566.01,-66.33 408.85,-52.37 277,-31 270.21,-29.9 263.07,-28.56 256.09,-27.14"/>
<polygon fill="midnightblue" stroke="midnightblue" points="256.54,-23.66 246.03,-25.02 255.1,-30.51 256.54,-23.66"/>
</g>
<!-- Node4 -->
<g id="node4" class="node">
<title>Node4</title>
<g id="a_node4"><a xlink:title=" ">
<polygon fill="none" stroke="#bfbfbf" points="286,-6 286,-25 384,-25 384,-6 286,-6"/>
<text text-anchor="middle" x="335" y="-13" font-family="FreeSans.ttf" font-size="10.00">yarp/sig/Image.h</text>
</a>
</g>
</g>
<!-- Node1&#45;&gt;Node4 -->
<g id="edge3" class="edge">
<title>Node1&#45;&gt;Node4</title>
<path fill="none" stroke="midnightblue" d="M643.27,-70.22C584.22,-62.73 480.73,-48.55 393,-31 387.66,-29.93 382.07,-28.69 376.55,-27.39"/>
<polygon fill="midnightblue" stroke="midnightblue" points="377.33,-23.98 366.79,-25.03 375.68,-30.78 377.33,-23.98"/>
</g>
<!-- Node5 -->
<g id="node5" class="node">
<title>Node5</title>
<g id="a_node5"><a xlink:title=" ">
<polygon fill="none" stroke="#bfbfbf" points="402,-6 402,-25 486,-25 486,-6 402,-6"/>
<text text-anchor="middle" x="444" y="-13" font-family="FreeSans.ttf" font-size="10.00">yarp/os/Port.h</text>
</a>
</g>
</g>
<!-- Node1&#45;&gt;Node5 -->
<g id="edge4" class="edge">
<title>Node1&#45;&gt;Node5</title>
<path fill="none" stroke="midnightblue" d="M651.06,-67.46C611.35,-58.82 548.77,-44.81 495,-31 491.1,-30 487.04,-28.92 483,-27.81"/>
<polygon fill="midnightblue" stroke="midnightblue" points="483.63,-24.35 473.06,-25.04 481.75,-31.1 483.63,-24.35"/>
</g>
<!-- Node6 -->
<g id="node6" class="node">
<title>Node6</title>
<g id="a_node6"><a xlink:title=" ">
<polygon fill="none" stroke="#bfbfbf" points="504,-6 504,-25 610,-25 610,-6 504,-6"/>
<text text-anchor="middle" x="557" y="-13" font-family="FreeSans.ttf" font-size="10.00">yarp/os/Network.h</text>
</a>
</g>
</g>
<!-- Node1&#45;&gt;Node6 -->
<g id="edge5" class="edge">
<title>Node1&#45;&gt;Node6</title>
<path fill="none" stroke="midnightblue" d="M671.8,-67.48C649.21,-57.45 611.5,-40.7 585.5,-29.15"/>
<polygon fill="midnightblue" stroke="midnightblue" points="586.72,-25.87 576.16,-25.01 583.88,-32.27 586.72,-25.87"/>
</g>
<!-- Node7 -->
<g id="node7" class="node">
<title>Node7</title>
<g id="a_node7"><a xlink:title=" ">
<polygon fill="none" stroke="#bfbfbf" points="628.5,-6 628.5,-25 753.5,-25 753.5,-6 628.5,-6"/>
<text text-anchor="middle" x="691" y="-13" font-family="FreeSans.ttf" font-size="10.00">yarp/os/BufferedPort.h</text>
</a>
</g>
</g>
<!-- Node1&#45;&gt;Node7 -->
<g id="edge6" class="edge">
<title>Node1&#45;&gt;Node7</title>
<path fill="none" stroke="midnightblue" d="M691,-67.48C691,-59.08 691,-45.98 691,-35.16"/>
<polygon fill="midnightblue" stroke="midnightblue" points="694.5,-35.01 691,-25.01 687.5,-35.01 694.5,-35.01"/>
</g>
<!-- Node8 -->
<g id="node8" class="node">
<title>Node8</title>
<g id="a_node8"><a xlink:title=" ">
<polygon fill="none" stroke="#bfbfbf" points="771.5,-6 771.5,-25 920.5,-25 920.5,-6 771.5,-6"/>
<text text-anchor="middle" x="846" y="-13" font-family="FreeSans.ttf" font-size="10.00">gazebo/common/Events.hh</text>
</a>
</g>
</g>
<!-- Node1&#45;&gt;Node8 -->
<g id="edge7" class="edge">
<title>Node1&#45;&gt;Node8</title>
<path fill="none" stroke="midnightblue" d="M713.21,-67.48C739.68,-57.31 784.11,-40.26 814.22,-28.7"/>
<polygon fill="midnightblue" stroke="midnightblue" points="815.75,-31.86 823.83,-25.01 813.24,-25.33 815.75,-31.86"/>
</g>
<!-- Node9 -->
<g id="node9" class="node">
<title>Node9</title>
<g id="a_node9"><a xlink:title=" ">
<polygon fill="none" stroke="#bfbfbf" points="939,-6 939,-25 1085,-25 1085,-6 939,-6"/>
<text text-anchor="middle" x="1012" y="-13" font-family="FreeSans.ttf" font-size="10.00">gazebo/common/Plugin.hh</text>
</a>
</g>
</g>
<!-- Node1&#45;&gt;Node9 -->
<g id="edge8" class="edge">
<title>Node1&#45;&gt;Node9</title>
<path fill="none" stroke="midnightblue" d="M736.99,-67.48C794.8,-56.76 893.95,-38.38 956.08,-26.87"/>
<polygon fill="midnightblue" stroke="midnightblue" points="956.9,-30.27 966.09,-25.01 955.62,-23.39 956.9,-30.27"/>
</g>
<!-- Node10 -->
<g id="node10" class="node">
<title>Node10</title>
<g id="a_node10"><a xlink:title=" ">
<polygon fill="none" stroke="#bfbfbf" points="1103,-6 1103,-25 1243,-25 1243,-6 1103,-6"/>
<text text-anchor="middle" x="1173" y="-13" font-family="FreeSans.ttf" font-size="10.00">gazebo/common/Time.hh</text>
</a>
</g>
</g>
<!-- Node1&#45;&gt;Node10 -->
<g id="edge9" class="edge">
<title>Node1&#45;&gt;Node10</title>
<path fill="none" stroke="midnightblue" d="M738.6,-71.78C814.14,-64.83 966.02,-49.87 1094,-31 1102.33,-29.77 1111.12,-28.32 1119.7,-26.81"/>
<polygon fill="midnightblue" stroke="midnightblue" points="1120.4,-30.24 1129.63,-25.03 1119.17,-23.35 1120.4,-30.24"/>
</g>
<!-- Node11 -->
<g id="node11" class="node">
<title>Node11</title>
<g id="a_node11"><a xlink:title=" ">
<polygon fill="none" stroke="#bfbfbf" points="1261,-6 1261,-25 1427,-25 1427,-6 1261,-6"/>
<text text-anchor="middle" x="1344" y="-13" font-family="FreeSans.ttf" font-size="10.00">gazebo/rendering/rendering.hh</text>
</a>
</g>
</g>
<!-- Node1&#45;&gt;Node11 -->
<g id="edge10" class="edge">
<title>Node1&#45;&gt;Node11</title>
<path fill="none" stroke="midnightblue" d="M738.78,-73.4C835.75,-67.85 1062.55,-53.49 1252,-31 1262.46,-29.76 1273.56,-28.21 1284.3,-26.59"/>
<polygon fill="midnightblue" stroke="midnightblue" points="1285.09,-30.01 1294.44,-25.02 1284.02,-23.09 1285.09,-30.01"/>
</g>
<!-- Node12 -->
<g id="node12" class="node">
<title>Node12</title>
<g id="a_node12"><a xlink:title=" ">
<polygon fill="none" stroke="#bfbfbf" points="1445.5,-0.5 1445.5,-30.5 1592.5,-30.5 1592.5,-0.5 1445.5,-0.5"/>
<text text-anchor="start" x="1453.5" y="-18.5" font-family="FreeSans.ttf" font-size="10.00">gazebo/transport/Transport</text>
<text text-anchor="middle" x="1519" y="-7.5" font-family="FreeSans.ttf" font-size="10.00">Types.hh</text>
</a>
</g>
</g>
<!-- Node1&#45;&gt;Node12 -->
<g id="edge11" class="edge">
<title>Node1&#45;&gt;Node12</title>
<path fill="none" stroke="midnightblue" d="M738.67,-74.98C855.59,-72.08 1166.08,-61.98 1435.33,-30.98"/>
<polygon fill="midnightblue" stroke="midnightblue" points="1435.77,-34.45 1445.3,-29.82 1434.96,-27.5 1435.77,-34.45"/>
</g>
</g>
</svg>
