<?xml version="1.0" encoding="UTF-8" standalone="no"?>
<!DOCTYPE svg PUBLIC "-//W3C//DTD SVG 1.1//EN"
 "http://www.w3.org/Graphics/SVG/1.1/DTD/svg11.dtd">
<!-- Generated by graphviz version 3.0.0 (20220315.2325)
 -->
<!-- Title: VideoTexture.cc Pages: 1 -->
<svg width="2779pt" height="151pt"
 viewBox="0.00 0.00 2779.00 151.00" xmlns="http://www.w3.org/2000/svg" xmlns:xlink="http://www.w3.org/1999/xlink">
<g id="graph0" class="graph" transform="scale(1 1) rotate(0) translate(4 147)">
<title>VideoTexture.cc</title>
<!-- Node1 -->
<g id="node1" class="node">
<title>Node1</title>
<g id="a_node1"><a xlink:title=" ">
<polygon fill="#bfbfbf" stroke="black" points="1841,-123.5 1841,-142.5 1935,-142.5 1935,-123.5 1841,-123.5"/>
<text text-anchor="middle" x="1888" y="-130.5" font-family="FreeSans.ttf" font-size="10.00">VideoTexture.cc</text>
</a>
</g>
</g>
<!-- Node2 -->
<g id="node2" class="node">
<title>Node2</title>
<g id="a_node2"><a xlink:href="Handler_8hh.html" target="_top" xlink:title=" ">
<polygon fill="none" stroke="black" points="684,-67.5 684,-86.5 848,-86.5 848,-67.5 684,-67.5"/>
<text text-anchor="middle" x="766" y="-74.5" font-family="FreeSans.ttf" font-size="10.00">GazeboYarpPlugins/Handler.hh</text>
</a>
</g>
</g>
<!-- Node1&#45;&gt;Node2 -->
<g id="edge1" class="edge">
<title>Node1&#45;&gt;Node2</title>
<path fill="none" stroke="midnightblue" d="M1840.86,-129.73C1670.76,-121.54 1086.62,-93.43 858.4,-82.45"/>
<polygon fill="midnightblue" stroke="midnightblue" points="858.29,-78.94 848.14,-81.95 857.96,-85.93 858.29,-78.94"/>
</g>
<!-- Node7 -->
<g id="node7" class="node">
<title>Node7</title>
<g id="a_node7"><a xlink:title=" ">
<polygon fill="none" stroke="#bfbfbf" points="910,-6 910,-25 1032,-25 1032,-6 910,-6"/>
<text text-anchor="middle" x="971" y="-13" font-family="FreeSans.ttf" font-size="10.00">yarp/dev/PolyDriver.h</text>
</a>
</g>
</g>
<!-- Node1&#45;&gt;Node7 -->
<g id="edge30" class="edge">
<title>Node1&#45;&gt;Node7</title>
<path fill="none" stroke="midnightblue" d="M1840.97,-127.82C1712.39,-116.07 1344.29,-80.4 1041,-31 1034.09,-29.87 1026.82,-28.54 1019.69,-27.14"/>
<polygon fill="midnightblue" stroke="midnightblue" points="1019.9,-23.61 1009.4,-25.07 1018.51,-30.48 1019.9,-23.61"/>
</g>
<!-- Node10 -->
<g id="node10" class="node">
<title>Node10</title>
<g id="a_node10"><a xlink:href="common_8h.html" target="_top" xlink:title=" ">
<polygon fill="none" stroke="black" points="1806,-67.5 1806,-86.5 1970,-86.5 1970,-67.5 1806,-67.5"/>
<text text-anchor="middle" x="1888" y="-74.5" font-family="FreeSans.ttf" font-size="10.00">GazeboYarpPlugins/common.h</text>
</a>
</g>
</g>
<!-- Node1&#45;&gt;Node10 -->
<g id="edge9" class="edge">
<title>Node1&#45;&gt;Node10</title>
<path fill="none" stroke="midnightblue" d="M1888,-123.08C1888,-116.01 1888,-105.86 1888,-96.99"/>
<polygon fill="midnightblue" stroke="midnightblue" points="1891.5,-96.75 1888,-86.75 1884.5,-96.75 1891.5,-96.75"/>
</g>
<!-- Node13 -->
<g id="node13" class="node">
<title>Node13</title>
<g id="a_node13"><a xlink:href="ConfHelpers_8hh.html" target="_top" xlink:title=" ">
<polygon fill="none" stroke="black" points="347.5,-67.5 347.5,-86.5 534.5,-86.5 534.5,-67.5 347.5,-67.5"/>
<text text-anchor="middle" x="441" y="-74.5" font-family="FreeSans.ttf" font-size="10.00">GazeboYarpPlugins/ConfHelpers.hh</text>
</a>
</g>
</g>
<!-- Node1&#45;&gt;Node13 -->
<g id="edge12" class="edge">
<title>Node1&#45;&gt;Node13</title>
<path fill="none" stroke="midnightblue" d="M1840.88,-130.28C1678.78,-124.34 1129.07,-104.15 675,-87 632.4,-85.39 585.43,-83.59 544.83,-82.02"/>
<polygon fill="midnightblue" stroke="midnightblue" points="544.78,-78.52 534.65,-81.63 544.51,-85.51 544.78,-78.52"/>
</g>
<!-- Node16 -->
<g id="node16" class="node">
<title>Node16</title>
<g id="a_node16"><a xlink:title=" ">
<polygon fill="none" stroke="#bfbfbf" points="1988.5,-67.5 1988.5,-86.5 2169.5,-86.5 2169.5,-67.5 1988.5,-67.5"/>
<text text-anchor="middle" x="2079" y="-74.5" font-family="FreeSans.ttf" font-size="10.00">gazebo/sensors/CameraSensor.hh</text>
</a>
</g>
</g>
<!-- Node1&#45;&gt;Node16 -->
<g id="edge17" class="edge">
<title>Node1&#45;&gt;Node16</title>
<path fill="none" stroke="midnightblue" d="M1918.26,-123.44C1950.96,-114.2 2003.18,-99.44 2039.18,-89.26"/>
<polygon fill="midnightblue" stroke="midnightblue" points="2040.21,-92.61 2048.88,-86.52 2038.3,-85.87 2040.21,-92.61"/>
</g>
<!-- Node17 -->
<g id="node17" class="node">
<title>Node17</title>
<g id="a_node17"><a xlink:href="VideoTexture_8hh.html" target="_top" xlink:title=" ">
<polygon fill="none" stroke="black" points="1692.5,-67.5 1692.5,-86.5 1787.5,-86.5 1787.5,-67.5 1692.5,-67.5"/>
<text text-anchor="middle" x="1740" y="-74.5" font-family="FreeSans.ttf" font-size="10.00">VideoTexture.hh</text>
</a>
</g>
</g>
<!-- Node1&#45;&gt;Node17 -->
<g id="edge18" class="edge">
<title>Node1&#45;&gt;Node17</title>
<path fill="none" stroke="midnightblue" d="M1864.55,-123.44C1839.87,-114.44 1800.81,-100.19 1773.02,-90.05"/>
<polygon fill="midnightblue" stroke="midnightblue" points="1773.94,-86.66 1763.34,-86.52 1771.54,-93.23 1773.94,-86.66"/>
</g>
<!-- Node28 -->
<g id="node28" class="node">
<title>Node28</title>
<g id="a_node28"><a xlink:title=" ">
<polygon fill="none" stroke="#bfbfbf" points="2188,-67.5 2188,-86.5 2270,-86.5 2270,-67.5 2188,-67.5"/>
<text text-anchor="middle" x="2229" y="-74.5" font-family="FreeSans.ttf" font-size="10.00">yarp/os/Log.h</text>
</a>
</g>
</g>
<!-- Node1&#45;&gt;Node28 -->
<g id="edge31" class="edge">
<title>Node1&#45;&gt;Node28</title>
<path fill="none" stroke="midnightblue" d="M1935.18,-125.07C1990.77,-116.82 2086.15,-102.42 2177.81,-87.17"/>
<polygon fill="midnightblue" stroke="midnightblue" points="2178.53,-90.6 2187.81,-85.5 2177.37,-83.69 2178.53,-90.6"/>
</g>
<!-- Node29 -->
<g id="node29" class="node">
<title>Node29</title>
<g id="a_node29"><a xlink:title=" ">
<polygon fill="none" stroke="#bfbfbf" points="2288.5,-67.5 2288.5,-86.5 2405.5,-86.5 2405.5,-67.5 2288.5,-67.5"/>
<text text-anchor="middle" x="2347" y="-74.5" font-family="FreeSans.ttf" font-size="10.00">yarp/os/LogStream.h</text>
</a>
</g>
</g>
<!-- Node1&#45;&gt;Node29 -->
<g id="edge32" class="edge">
<title>Node1&#45;&gt;Node29</title>
<path fill="none" stroke="midnightblue" d="M1935.28,-126.82C2006.96,-118.91 2147.69,-103.16 2278.22,-87.08"/>
<polygon fill="midnightblue" stroke="midnightblue" points="2278.91,-90.52 2288.4,-85.82 2278.05,-83.57 2278.91,-90.52"/>
</g>
<!-- Node30 -->
<g id="node30" class="node">
<title>Node30</title>
<g id="a_node30"><a xlink:title=" ">
<polygon fill="none" stroke="#bfbfbf" points="2423.5,-67.5 2423.5,-86.5 2500.5,-86.5 2500.5,-67.5 2423.5,-67.5"/>
<text text-anchor="middle" x="2462" y="-74.5" font-family="FreeSans.ttf" font-size="10.00">yarp/cv/Cv.h</text>
</a>
</g>
</g>
<!-- Node1&#45;&gt;Node30 -->
<g id="edge33" class="edge">
<title>Node1&#45;&gt;Node30</title>
<path fill="none" stroke="midnightblue" d="M1935.07,-129.63C2025.75,-124.7 2231.16,-111.81 2413.3,-87.11"/>
<polygon fill="midnightblue" stroke="midnightblue" points="2413.89,-90.56 2423.32,-85.74 2412.94,-83.63 2413.89,-90.56"/>
</g>
<!-- Node3 -->
<g id="node3" class="node">
<title>Node3</title>
<g id="a_node3"><a xlink:title=" ">
<polygon fill="none" stroke="#bfbfbf" points="630,-6 630,-25 668,-25 668,-6 630,-6"/>
<text text-anchor="middle" x="649" y="-13" font-family="FreeSans.ttf" font-size="10.00">map</text>
</a>
</g>
</g>
<!-- Node2&#45;&gt;Node3 -->
<g id="edge2" class="edge">
<title>Node2&#45;&gt;Node3</title>
<path fill="none" stroke="midnightblue" d="M748.91,-67.42C730.98,-58.4 701.97,-43.78 677,-31 676.19,-30.59 675.37,-30.16 674.54,-29.74"/>
<polygon fill="midnightblue" stroke="midnightblue" points="676.06,-26.59 665.57,-25.11 672.85,-32.81 676.06,-26.59"/>
</g>
<!-- Node4 -->
<g id="node4" class="node">
<title>Node4</title>
<g id="a_node4"><a xlink:title=" ">
<polygon fill="none" stroke="#bfbfbf" points="518.5,-6 518.5,-25 611.5,-25 611.5,-6 518.5,-6"/>
<text text-anchor="middle" x="565" y="-13" font-family="FreeSans.ttf" font-size="10.00">sdf/sdf_config.h</text>
</a>
</g>
</g>
<!-- Node2&#45;&gt;Node4 -->
<g id="edge3" class="edge">
<title>Node2&#45;&gt;Node4</title>
<path fill="none" stroke="midnightblue" d="M737.2,-67.48C702.13,-57.09 642.74,-39.51 603.69,-27.95"/>
<polygon fill="midnightblue" stroke="midnightblue" points="604.33,-24.49 593.74,-25.01 602.34,-31.2 604.33,-24.49"/>
</g>
<!-- Node5 -->
<g id="node5" class="node">
<title>Node5</title>
<g id="a_node5"><a xlink:title=" ">
<polygon fill="none" stroke="#bfbfbf" points="381.5,-6 381.5,-25 500.5,-25 500.5,-6 381.5,-6"/>
<text text-anchor="middle" x="441" y="-13" font-family="FreeSans.ttf" font-size="10.00">boost/shared_ptr.hpp</text>
</a>
</g>
</g>
<!-- Node2&#45;&gt;Node5 -->
<g id="edge4" class="edge">
<title>Node2&#45;&gt;Node5</title>
<path fill="none" stroke="midnightblue" d="M713.72,-67.42C661.72,-58.76 579.7,-44.72 509,-31 502.78,-29.79 496.25,-28.47 489.8,-27.13"/>
<polygon fill="midnightblue" stroke="midnightblue" points="490.29,-23.66 479.79,-25.03 488.85,-30.51 490.29,-23.66"/>
</g>
<!-- Node6 -->
<g id="node6" class="node">
<title>Node6</title>
<g id="a_node6"><a xlink:title=" ">
<polygon fill="none" stroke="#bfbfbf" points="686,-6 686,-25 734,-25 734,-6 686,-6"/>
<text text-anchor="middle" x="710" y="-13" font-family="FreeSans.ttf" font-size="10.00">mutex</text>
</a>
</g>
</g>
<!-- Node2&#45;&gt;Node6 -->
<g id="edge5" class="edge">
<title>Node2&#45;&gt;Node6</title>
<path fill="none" stroke="midnightblue" d="M757.98,-67.48C749.41,-58.37 735.64,-43.74 725.04,-32.48"/>
<polygon fill="midnightblue" stroke="midnightblue" points="727.41,-29.89 718.01,-25.01 722.31,-34.69 727.41,-29.89"/>
</g>
<!-- Node2&#45;&gt;Node7 -->
<g id="edge6" class="edge">
<title>Node2&#45;&gt;Node7</title>
<path fill="none" stroke="midnightblue" d="M795.37,-67.48C831.3,-57.05 892.23,-39.36 932.04,-27.81"/>
<polygon fill="midnightblue" stroke="midnightblue" points="933.05,-31.16 941.68,-25.01 931.1,-24.44 933.05,-31.16"/>
</g>
<!-- Node8 -->
<g id="node8" class="node">
<title>Node8</title>
<g id="a_node8"><a xlink:title=" ">
<polygon fill="none" stroke="#bfbfbf" points="752,-6 752,-25 892,-25 892,-6 752,-6"/>
<text text-anchor="middle" x="822" y="-13" font-family="FreeSans.ttf" font-size="10.00">yarp/dev/PolyDriverList.h</text>
</a>
</g>
</g>
<!-- Node2&#45;&gt;Node8 -->
<g id="edge7" class="edge">
<title>Node2&#45;&gt;Node8</title>
<path fill="none" stroke="midnightblue" d="M774.02,-67.48C782.59,-58.37 796.36,-43.74 806.96,-32.48"/>
<polygon fill="midnightblue" stroke="midnightblue" points="809.69,-34.69 813.99,-25.01 804.59,-29.89 809.69,-34.69"/>
</g>
<!-- Node9 -->
<g id="node9" class="node">
<title>Node9</title>
<g id="a_node9"><a xlink:title=" ">
<polygon fill="none" stroke="#bfbfbf" points="1050.5,-6 1050.5,-25 1199.5,-25 1199.5,-6 1050.5,-6"/>
<text text-anchor="middle" x="1125" y="-13" font-family="FreeSans.ttf" font-size="10.00">gazebo/common/Events.hh</text>
</a>
</g>
</g>
<!-- Node2&#45;&gt;Node9 -->
<g id="edge8" class="edge">
<title>Node2&#45;&gt;Node9</title>
<path fill="none" stroke="midnightblue" d="M819,-67.47C874.39,-58.52 963.83,-43.97 1041,-31 1049.18,-29.62 1057.81,-28.16 1066.29,-26.7"/>
<polygon fill="midnightblue" stroke="midnightblue" points="1066.89,-30.15 1076.15,-25.01 1065.7,-23.25 1066.89,-30.15"/>
</g>
<!-- Node11 -->
<g id="node11" class="node">
<title>Node11</title>
<g id="a_node11"><a xlink:title=" ">
<polygon fill="none" stroke="#bfbfbf" points="2727,-6 2727,-25 2771,-25 2771,-6 2727,-6"/>
<text text-anchor="middle" x="2749" y="-13" font-family="FreeSans.ttf" font-size="10.00">string</text>
</a>
</g>
</g>
<!-- Node10&#45;&gt;Node11 -->
<g id="edge10" class="edge">
<title>Node10&#45;&gt;Node11</title>
<path fill="none" stroke="midnightblue" d="M1970.24,-67.75C1973.54,-67.49 1976.8,-67.23 1980,-67 2143.76,-55 2558.63,-70.53 2718,-31 2719.99,-30.51 2722.01,-29.88 2724.01,-29.17"/>
<polygon fill="midnightblue" stroke="midnightblue" points="2725.81,-32.21 2733.67,-25.11 2723.09,-25.76 2725.81,-32.21"/>
</g>
<!-- Node12 -->
<g id="node12" class="node">
<title>Node12</title>
<g id="a_node12"><a xlink:title=" ">
<polygon fill="none" stroke="#bfbfbf" points="2661.5,-6 2661.5,-25 2708.5,-25 2708.5,-6 2661.5,-6"/>
<text text-anchor="middle" x="2685" y="-13" font-family="FreeSans.ttf" font-size="10.00">cmath</text>
</a>
</g>
</g>
<!-- Node10&#45;&gt;Node12 -->
<g id="edge11" class="edge">
<title>Node10&#45;&gt;Node12</title>
<path fill="none" stroke="midnightblue" d="M1970.24,-67.77C1973.54,-67.5 1976.8,-67.24 1980,-67 2129.12,-55.72 2506.52,-65.64 2652,-31 2654.36,-30.44 2656.77,-29.71 2659.15,-28.89"/>
<polygon fill="midnightblue" stroke="midnightblue" points="2660.64,-32.06 2668.62,-25.09 2658.03,-25.56 2660.64,-32.06"/>
</g>
<!-- Node13&#45;&gt;Node4 -->
<g id="edge13" class="edge">
<title>Node13&#45;&gt;Node4</title>
<path fill="none" stroke="midnightblue" d="M458.77,-67.48C479.48,-57.53 513.95,-40.99 537.99,-29.46"/>
<polygon fill="midnightblue" stroke="midnightblue" points="539.77,-32.49 547.27,-25.01 536.74,-26.18 539.77,-32.49"/>
</g>
<!-- Node13&#45;&gt;Node5 -->
<g id="edge14" class="edge">
<title>Node13&#45;&gt;Node5</title>
<path fill="none" stroke="midnightblue" d="M441,-67.48C441,-59.08 441,-45.98 441,-35.16"/>
<polygon fill="midnightblue" stroke="midnightblue" points="444.5,-35.01 441,-25.01 437.5,-35.01 444.5,-35.01"/>
</g>
<!-- Node14 -->
<g id="node14" class="node">
<title>Node14</title>
<g id="a_node14"><a xlink:title=" ">
<polygon fill="none" stroke="#bfbfbf" points="192.5,-6 192.5,-25 363.5,-25 363.5,-6 192.5,-6"/>
<text text-anchor="middle" x="278" y="-13" font-family="FreeSans.ttf" font-size="10.00">gazebo/sensors/SensorTypes.hh</text>
</a>
</g>
</g>
<!-- Node13&#45;&gt;Node14 -->
<g id="edge15" class="edge">
<title>Node13&#45;&gt;Node14</title>
<path fill="none" stroke="midnightblue" d="M417.65,-67.48C389.69,-57.27 342.67,-40.11 311.01,-28.55"/>
<polygon fill="midnightblue" stroke="midnightblue" points="311.9,-25.15 301.31,-25.01 309.5,-31.73 311.9,-25.15"/>
</g>
<!-- Node15 -->
<g id="node15" class="node">
<title>Node15</title>
<g id="a_node15"><a xlink:title=" ">
<polygon fill="none" stroke="#bfbfbf" points="0,-6 0,-25 174,-25 174,-6 0,-6"/>
<text text-anchor="middle" x="87" y="-13" font-family="FreeSans.ttf" font-size="10.00">gazebo/physics/PhysicsTypes.hh</text>
</a>
</g>
</g>
<!-- Node13&#45;&gt;Node15 -->
<g id="edge16" class="edge">
<title>Node13&#45;&gt;Node15</title>
<path fill="none" stroke="midnightblue" d="M390.28,-67.48C326.27,-56.72 216.29,-38.23 147.83,-26.72"/>
<polygon fill="midnightblue" stroke="midnightblue" points="148.07,-23.22 137.63,-25.01 146.91,-30.12 148.07,-23.22"/>
</g>
<!-- Node17&#45;&gt;Node9 -->
<g id="edge25" class="edge">
<title>Node17&#45;&gt;Node9</title>
<path fill="none" stroke="midnightblue" d="M1692.16,-73.38C1598.8,-67.95 1385.87,-54.01 1208,-31 1198.84,-29.81 1189.14,-28.33 1179.74,-26.77"/>
<polygon fill="midnightblue" stroke="midnightblue" points="1180.13,-23.29 1169.69,-25.05 1178.96,-30.19 1180.13,-23.29"/>
</g>
<!-- Node18 -->
<g id="node18" class="node">
<title>Node18</title>
<g id="a_node18"><a xlink:title=" ">
<polygon fill="none" stroke="#bfbfbf" points="2259,-6 2259,-25 2393,-25 2393,-6 2259,-6"/>
<text text-anchor="middle" x="2326" y="-13" font-family="FreeSans.ttf" font-size="10.00">boost/thread/mutex.hpp</text>
</a>
</g>
</g>
<!-- Node17&#45;&gt;Node18 -->
<g id="edge19" class="edge">
<title>Node17&#45;&gt;Node18</title>
<path fill="none" stroke="midnightblue" d="M1787.55,-68.21C1790.74,-67.77 1793.92,-67.37 1797,-67 1997.56,-43.23 2049.84,-57.97 2250,-31 2258.32,-29.88 2267.12,-28.44 2275.65,-26.91"/>
<polygon fill="midnightblue" stroke="midnightblue" points="2276.32,-30.34 2285.51,-25.07 2275.04,-23.46 2276.32,-30.34"/>
</g>
<!-- Node19 -->
<g id="node19" class="node">
<title>Node19</title>
<g id="a_node19"><a xlink:title=" ">
<polygon fill="none" stroke="#bfbfbf" points="2411,-6 2411,-25 2527,-25 2527,-6 2411,-6"/>
<text text-anchor="middle" x="2469" y="-13" font-family="FreeSans.ttf" font-size="10.00">opencv2/opencv.hpp</text>
</a>
</g>
</g>
<!-- Node17&#45;&gt;Node19 -->
<g id="edge20" class="edge">
<title>Node17&#45;&gt;Node19</title>
<path fill="none" stroke="midnightblue" d="M1787.54,-68.14C1790.74,-67.72 1793.91,-67.33 1797,-67 2064.79,-37.96 2135.13,-67.6 2402,-31 2409.3,-30 2416.98,-28.64 2424.44,-27.14"/>
<polygon fill="midnightblue" stroke="midnightblue" points="2425.34,-30.53 2434.41,-25.05 2423.9,-23.68 2425.34,-30.53"/>
</g>
<!-- Node20 -->
<g id="node20" class="node">
<title>Node20</title>
<g id="a_node20"><a xlink:title=" ">
<polygon fill="none" stroke="#bfbfbf" points="2545,-6 2545,-25 2643,-25 2643,-6 2545,-6"/>
<text text-anchor="middle" x="2594" y="-13" font-family="FreeSans.ttf" font-size="10.00">yarp/sig/Image.h</text>
</a>
</g>
</g>
<!-- Node17&#45;&gt;Node20 -->
<g id="edge21" class="edge">
<title>Node17&#45;&gt;Node20</title>
<path fill="none" stroke="midnightblue" d="M1787.54,-68.1C1790.73,-67.69 1793.91,-67.32 1797,-67 2124.1,-33.31 2210.7,-79.11 2536,-31 2542.05,-30.11 2548.39,-28.85 2554.56,-27.46"/>
<polygon fill="midnightblue" stroke="midnightblue" points="2555.82,-30.76 2564.72,-25.01 2554.18,-23.95 2555.82,-30.76"/>
</g>
<!-- Node21 -->
<g id="node21" class="node">
<title>Node21</title>
<g id="a_node21"><a xlink:title=" ">
<polygon fill="none" stroke="#bfbfbf" points="1217,-6 1217,-25 1301,-25 1301,-6 1217,-6"/>
<text text-anchor="middle" x="1259" y="-13" font-family="FreeSans.ttf" font-size="10.00">yarp/os/Port.h</text>
</a>
</g>
</g>
<!-- Node17&#45;&gt;Node21 -->
<g id="edge22" class="edge">
<title>Node17&#45;&gt;Node21</title>
<path fill="none" stroke="midnightblue" d="M1692.2,-73.7C1612.4,-69.25 1447.27,-57.49 1310,-31 1305.28,-30.09 1300.36,-28.95 1295.52,-27.7"/>
<polygon fill="midnightblue" stroke="midnightblue" points="1296.36,-24.3 1285.79,-25.05 1294.52,-31.06 1296.36,-24.3"/>
</g>
<!-- Node22 -->
<g id="node22" class="node">
<title>Node22</title>
<g id="a_node22"><a xlink:title=" ">
<polygon fill="none" stroke="#bfbfbf" points="1319,-6 1319,-25 1425,-25 1425,-6 1319,-6"/>
<text text-anchor="middle" x="1372" y="-13" font-family="FreeSans.ttf" font-size="10.00">yarp/os/Network.h</text>
</a>
</g>
</g>
<!-- Node17&#45;&gt;Node22 -->
<g id="edge23" class="edge">
<title>Node17&#45;&gt;Node22</title>
<path fill="none" stroke="midnightblue" d="M1692.35,-70.25C1631.99,-62.68 1524.86,-48.28 1434,-31 1428.23,-29.9 1422.18,-28.63 1416.21,-27.32"/>
<polygon fill="midnightblue" stroke="midnightblue" points="1416.85,-23.87 1406.33,-25.07 1415.3,-30.7 1416.85,-23.87"/>
</g>
<!-- Node23 -->
<g id="node23" class="node">
<title>Node23</title>
<g id="a_node23"><a xlink:title=" ">
<polygon fill="none" stroke="#bfbfbf" points="1443.5,-6 1443.5,-25 1568.5,-25 1568.5,-6 1443.5,-6"/>
<text text-anchor="middle" x="1506" y="-13" font-family="FreeSans.ttf" font-size="10.00">yarp/os/BufferedPort.h</text>
</a>
</g>
</g>
<!-- Node17&#45;&gt;Node23 -->
<g id="edge24" class="edge">
<title>Node17&#45;&gt;Node23</title>
<path fill="none" stroke="midnightblue" d="M1706.47,-67.48C1665.12,-56.96 1594.73,-39.06 1549.32,-27.51"/>
<polygon fill="midnightblue" stroke="midnightblue" points="1550.02,-24.08 1539.46,-25.01 1548.29,-30.87 1550.02,-24.08"/>
</g>
<!-- Node24 -->
<g id="node24" class="node">
<title>Node24</title>
<g id="a_node24"><a xlink:title=" ">
<polygon fill="none" stroke="#bfbfbf" points="1587,-6 1587,-25 1733,-25 1733,-6 1587,-6"/>
<text text-anchor="middle" x="1660" y="-13" font-family="FreeSans.ttf" font-size="10.00">gazebo/common/Plugin.hh</text>
</a>
</g>
</g>
<!-- Node17&#45;&gt;Node24 -->
<g id="edge26" class="edge">
<title>Node17&#45;&gt;Node24</title>
<path fill="none" stroke="midnightblue" d="M1728.54,-67.48C1715.83,-58.02 1695.09,-42.6 1679.75,-31.19"/>
<polygon fill="midnightblue" stroke="midnightblue" points="1681.55,-28.17 1671.44,-25.01 1677.38,-33.79 1681.55,-28.17"/>
</g>
<!-- Node25 -->
<g id="node25" class="node">
<title>Node25</title>
<g id="a_node25"><a xlink:title=" ">
<polygon fill="none" stroke="#bfbfbf" points="1751,-6 1751,-25 1891,-25 1891,-6 1751,-6"/>
<text text-anchor="middle" x="1821" y="-13" font-family="FreeSans.ttf" font-size="10.00">gazebo/common/Time.hh</text>
</a>
</g>
</g>
<!-- Node17&#45;&gt;Node25 -->
<g id="edge27" class="edge">
<title>Node17&#45;&gt;Node25</title>
<path fill="none" stroke="midnightblue" d="M1751.61,-67.48C1764.48,-58.02 1785.47,-42.6 1801.01,-31.19"/>
<polygon fill="midnightblue" stroke="midnightblue" points="1803.43,-33.75 1809.42,-25.01 1799.28,-28.11 1803.43,-33.75"/>
</g>
<!-- Node26 -->
<g id="node26" class="node">
<title>Node26</title>
<g id="a_node26"><a xlink:title=" ">
<polygon fill="none" stroke="#bfbfbf" points="1909,-6 1909,-25 2075,-25 2075,-6 1909,-6"/>
<text text-anchor="middle" x="1992" y="-13" font-family="FreeSans.ttf" font-size="10.00">gazebo/rendering/rendering.hh</text>
</a>
</g>
</g>
<!-- Node17&#45;&gt;Node26 -->
<g id="edge28" class="edge">
<title>Node17&#45;&gt;Node26</title>
<path fill="none" stroke="midnightblue" d="M1776.11,-67.48C1820.83,-56.92 1897.08,-38.91 1945.97,-27.37"/>
<polygon fill="midnightblue" stroke="midnightblue" points="1947.03,-30.71 1955.96,-25.01 1945.42,-23.9 1947.03,-30.71"/>
</g>
<!-- Node27 -->
<g id="node27" class="node">
<title>Node27</title>
<g id="a_node27"><a xlink:title=" ">
<polygon fill="none" stroke="#bfbfbf" points="2093.5,-0.5 2093.5,-30.5 2240.5,-30.5 2240.5,-0.5 2093.5,-0.5"/>
<text text-anchor="start" x="2101.5" y="-18.5" font-family="FreeSans.ttf" font-size="10.00">gazebo/transport/Transport</text>
<text text-anchor="middle" x="2167" y="-7.5" font-family="FreeSans.ttf" font-size="10.00">Types.hh</text>
</a>
</g>
</g>
<!-- Node17&#45;&gt;Node27 -->
<g id="edge29" class="edge">
<title>Node17&#45;&gt;Node27</title>
<path fill="none" stroke="midnightblue" d="M1787.57,-68.37C1790.76,-67.9 1793.92,-67.44 1797,-67 1921.05,-49.43 1955.15,-50.02 2083.07,-31.09"/>
<polygon fill="midnightblue" stroke="midnightblue" points="2083.89,-34.51 2093.26,-29.57 2082.86,-27.59 2083.89,-34.51"/>
</g>
</g>
</svg>
