<?xml version="1.0" encoding="UTF-8" standalone="no"?>
<!DOCTYPE svg PUBLIC "-//W3C//DTD SVG 1.1//EN"
 "http://www.w3.org/Graphics/SVG/1.1/DTD/svg11.dtd">
<!-- Generated by graphviz version 2.43.0 (0)
 -->
<!-- Title: VideoTexture.cc Pages: 1 -->
<svg width="2779pt" height="151pt"
 viewBox="0.00 0.00 2779.00 151.00" xmlns="http://www.w3.org/2000/svg" xmlns:xlink="http://www.w3.org/1999/xlink">
<g id="graph0" class="graph" transform="scale(1 1) rotate(0) translate(4 147)">
<title>VideoTexture.cc</title>
<!-- Node1 -->
<g id="node1" class="node">
<title>Node1</title>
<g id="a_node1"><a xlink:title=" ">
<polygon fill="#bfbfbf" stroke="black" points="1416,-123.5 1416,-142.5 1510,-142.5 1510,-123.5 1416,-123.5"/>
<text text-anchor="middle" x="1463" y="-130.5" font-family="FreeSans.ttf" font-size="10.00">VideoTexture.cc</text>
</a>
</g>
</g>
<!-- Node2 -->
<g id="node2" class="node">
<title>Node2</title>
<g id="a_node2"><a xlink:href="Handler_8hh.html" target="_top" xlink:title=" ">
<polygon fill="none" stroke="black" points="628,-67.5 628,-86.5 792,-86.5 792,-67.5 628,-67.5"/>
<text text-anchor="middle" x="710" y="-74.5" font-family="FreeSans.ttf" font-size="10.00">GazeboYarpPlugins/Handler.hh</text>
</a>
</g>
</g>
<!-- Node1&#45;&gt;Node2 -->
<g id="edge1" class="edge">
<title>Node1&#45;&gt;Node2</title>
<path fill="none" stroke="midnightblue" d="M1415.9,-128.62C1293.65,-119.86 964.55,-96.25 802.6,-84.64"/>
<polygon fill="midnightblue" stroke="midnightblue" points="802.4,-81.12 792.18,-83.89 801.9,-88.1 802.4,-81.12"/>
</g>
<!-- Node7 -->
<g id="node7" class="node">
<title>Node7</title>
<g id="a_node7"><a xlink:title=" ">
<polygon fill="none" stroke="#bfbfbf" points="910,-6 910,-25 1032,-25 1032,-6 910,-6"/>
<text text-anchor="middle" x="971" y="-13" font-family="FreeSans.ttf" font-size="10.00">yarp/dev/PolyDriver.h</text>
</a>
</g>
</g>
<!-- Node1&#45;&gt;Node7 -->
<g id="edge29" class="edge">
<title>Node1&#45;&gt;Node7</title>
<path fill="none" stroke="midnightblue" d="M1415.83,-130.61C1321.21,-127.22 1111.77,-116.54 1047,-87 1020.51,-74.92 997.14,-49.95 983.54,-33.21"/>
<polygon fill="midnightblue" stroke="midnightblue" points="986.27,-31.02 977.35,-25.31 980.76,-35.34 986.27,-31.02"/>
</g>
<!-- Node9 -->
<g id="node9" class="node">
<title>Node9</title>
<g id="a_node9"><a xlink:href="common_8h.html" target="_top" xlink:title=" ">
<polygon fill="none" stroke="black" points="1056,-67.5 1056,-86.5 1220,-86.5 1220,-67.5 1056,-67.5"/>
<text text-anchor="middle" x="1138" y="-74.5" font-family="FreeSans.ttf" font-size="10.00">GazeboYarpPlugins/common.h</text>
</a>
</g>
</g>
<!-- Node1&#45;&gt;Node9 -->
<g id="edge8" class="edge">
<title>Node1&#45;&gt;Node9</title>
<path fill="none" stroke="midnightblue" d="M1415.74,-124.15C1358.62,-114.66 1262.37,-98.66 1199.51,-88.22"/>
<polygon fill="midnightblue" stroke="midnightblue" points="1199.78,-84.72 1189.34,-86.53 1198.63,-91.62 1199.78,-84.72"/>
</g>
<!-- Node12 -->
<g id="node12" class="node">
<title>Node12</title>
<g id="a_node12"><a xlink:href="ConfHelpers_8hh.html" target="_top" xlink:title=" ">
<polygon fill="none" stroke="black" points="347.5,-67.5 347.5,-86.5 534.5,-86.5 534.5,-67.5 347.5,-67.5"/>
<text text-anchor="middle" x="441" y="-74.5" font-family="FreeSans.ttf" font-size="10.00">GazeboYarpPlugins/ConfHelpers.hh</text>
</a>
</g>
</g>
<!-- Node1&#45;&gt;Node12 -->
<g id="edge11" class="edge">
<title>Node1&#45;&gt;Node12</title>
<path fill="none" stroke="midnightblue" d="M1415.76,-129.5C1260.41,-121.3 762.92,-95.01 544.96,-83.49"/>
<polygon fill="midnightblue" stroke="midnightblue" points="544.96,-79.99 534.79,-82.96 544.59,-86.98 544.96,-79.99"/>
</g>
<!-- Node15 -->
<g id="node15" class="node">
<title>Node15</title>
<g id="a_node15"><a xlink:title=" ">
<polygon fill="none" stroke="#bfbfbf" points="1372.5,-67.5 1372.5,-86.5 1553.5,-86.5 1553.5,-67.5 1372.5,-67.5"/>
<text text-anchor="middle" x="1463" y="-74.5" font-family="FreeSans.ttf" font-size="10.00">gazebo/sensors/CameraSensor.hh</text>
</a>
</g>
</g>
<!-- Node1&#45;&gt;Node15 -->
<g id="edge16" class="edge">
<title>Node1&#45;&gt;Node15</title>
<path fill="none" stroke="midnightblue" d="M1463,-123.08C1463,-116.01 1463,-105.86 1463,-96.99"/>
<polygon fill="midnightblue" stroke="midnightblue" points="1466.5,-96.75 1463,-86.75 1459.5,-96.75 1466.5,-96.75"/>
</g>
<!-- Node16 -->
<g id="node16" class="node">
<title>Node16</title>
<g id="a_node16"><a xlink:href="VideoTexture_8hh.html" target="_top" xlink:title=" ">
<polygon fill="none" stroke="black" points="1705.5,-67.5 1705.5,-86.5 1800.5,-86.5 1800.5,-67.5 1705.5,-67.5"/>
<text text-anchor="middle" x="1753" y="-74.5" font-family="FreeSans.ttf" font-size="10.00">VideoTexture.hh</text>
</a>
</g>
</g>
<!-- Node1&#45;&gt;Node16 -->
<g id="edge17" class="edge">
<title>Node1&#45;&gt;Node16</title>
<path fill="none" stroke="midnightblue" d="M1508.95,-123.44C1560.07,-113.92 1642.65,-98.55 1697.38,-88.36"/>
<polygon fill="midnightblue" stroke="midnightblue" points="1698.07,-91.79 1707.26,-86.52 1696.79,-84.91 1698.07,-91.79"/>
</g>
<!-- Node28 -->
<g id="node28" class="node">
<title>Node28</title>
<g id="a_node28"><a xlink:title=" ">
<polygon fill="none" stroke="#bfbfbf" points="1819,-67.5 1819,-86.5 1901,-86.5 1901,-67.5 1819,-67.5"/>
<text text-anchor="middle" x="1860" y="-74.5" font-family="FreeSans.ttf" font-size="10.00">yarp/os/Log.h</text>
</a>
</g>
</g>
<!-- Node1&#45;&gt;Node28 -->
<g id="edge30" class="edge">
<title>Node1&#45;&gt;Node28</title>
<path fill="none" stroke="midnightblue" d="M1510.25,-126.62C1575.16,-119.06 1695.81,-104.43 1808.63,-87.15"/>
<polygon fill="midnightblue" stroke="midnightblue" points="1809.48,-90.56 1818.83,-85.58 1808.41,-83.64 1809.48,-90.56"/>
</g>
<!-- Node29 -->
<g id="node29" class="node">
<title>Node29</title>
<g id="a_node29"><a xlink:title=" ">
<polygon fill="none" stroke="#bfbfbf" points="1919.5,-67.5 1919.5,-86.5 2036.5,-86.5 2036.5,-67.5 1919.5,-67.5"/>
<text text-anchor="middle" x="1978" y="-74.5" font-family="FreeSans.ttf" font-size="10.00">yarp/os/LogStream.h</text>
</a>
</g>
</g>
<!-- Node1&#45;&gt;Node29 -->
<g id="edge31" class="edge">
<title>Node1&#45;&gt;Node29</title>
<path fill="none" stroke="midnightblue" d="M1510.03,-127.75C1589.8,-120.44 1756.97,-104.66 1909.39,-87.04"/>
<polygon fill="midnightblue" stroke="midnightblue" points="1909.88,-90.5 1919.41,-85.87 1909.07,-83.55 1909.88,-90.5"/>
</g>
<!-- Node30 -->
<g id="node30" class="node">
<title>Node30</title>
<g id="a_node30"><a xlink:title=" ">
<polygon fill="none" stroke="#bfbfbf" points="2054.5,-67.5 2054.5,-86.5 2131.5,-86.5 2131.5,-67.5 2054.5,-67.5"/>
<text text-anchor="middle" x="2093" y="-74.5" font-family="FreeSans.ttf" font-size="10.00">yarp/cv/Cv.h</text>
</a>
</g>
</g>
<!-- Node1&#45;&gt;Node30 -->
<g id="edge32" class="edge">
<title>Node1&#45;&gt;Node30</title>
<path fill="none" stroke="midnightblue" d="M1510.04,-130.16C1607.79,-125.95 1840.14,-113.94 2044.32,-87.09"/>
<polygon fill="midnightblue" stroke="midnightblue" points="2044.88,-90.55 2054.33,-85.76 2043.95,-83.61 2044.88,-90.55"/>
</g>
<!-- Node3 -->
<g id="node3" class="node">
<title>Node3</title>
<g id="a_node3"><a xlink:title=" ">
<polygon fill="none" stroke="#bfbfbf" points="630,-6 630,-25 668,-25 668,-6 630,-6"/>
<text text-anchor="middle" x="649" y="-13" font-family="FreeSans.ttf" font-size="10.00">map</text>
</a>
</g>
</g>
<!-- Node2&#45;&gt;Node3 -->
<g id="edge2" class="edge">
<title>Node2&#45;&gt;Node3</title>
<path fill="none" stroke="midnightblue" d="M701.26,-67.48C691.84,-58.28 676.64,-43.46 665.05,-32.16"/>
<polygon fill="midnightblue" stroke="midnightblue" points="667.33,-29.49 657.72,-25.01 662.44,-34.5 667.33,-29.49"/>
</g>
<!-- Node4 -->
<g id="node4" class="node">
<title>Node4</title>
<g id="a_node4"><a xlink:title=" ">
<polygon fill="none" stroke="#bfbfbf" points="518.5,-6 518.5,-25 611.5,-25 611.5,-6 518.5,-6"/>
<text text-anchor="middle" x="565" y="-13" font-family="FreeSans.ttf" font-size="10.00">sdf/sdf_config.h</text>
</a>
</g>
</g>
<!-- Node2&#45;&gt;Node4 -->
<g id="edge3" class="edge">
<title>Node2&#45;&gt;Node4</title>
<path fill="none" stroke="midnightblue" d="M689.23,-67.48C664.57,-57.36 623.25,-40.4 595.1,-28.85"/>
<polygon fill="midnightblue" stroke="midnightblue" points="596.32,-25.57 585.74,-25.01 593.66,-32.04 596.32,-25.57"/>
</g>
<!-- Node5 -->
<g id="node5" class="node">
<title>Node5</title>
<g id="a_node5"><a xlink:title=" ">
<polygon fill="none" stroke="#bfbfbf" points="381.5,-6 381.5,-25 500.5,-25 500.5,-6 381.5,-6"/>
<text text-anchor="middle" x="441" y="-13" font-family="FreeSans.ttf" font-size="10.00">boost/shared_ptr.hpp</text>
</a>
</g>
</g>
<!-- Node2&#45;&gt;Node5 -->
<g id="edge4" class="edge">
<title>Node2&#45;&gt;Node5</title>
<path fill="none" stroke="midnightblue" d="M671.46,-67.48C623.52,-56.87 541.64,-38.76 489.49,-27.22"/>
<polygon fill="midnightblue" stroke="midnightblue" points="489.99,-23.75 479.47,-25.01 488.48,-30.59 489.99,-23.75"/>
</g>
<!-- Node6 -->
<g id="node6" class="node">
<title>Node6</title>
<g id="a_node6"><a xlink:title=" ">
<polygon fill="none" stroke="#bfbfbf" points="686,-6 686,-25 734,-25 734,-6 686,-6"/>
<text text-anchor="middle" x="710" y="-13" font-family="FreeSans.ttf" font-size="10.00">mutex</text>
</a>
</g>
</g>
<!-- Node2&#45;&gt;Node6 -->
<g id="edge5" class="edge">
<title>Node2&#45;&gt;Node6</title>
<path fill="none" stroke="midnightblue" d="M710,-67.48C710,-59.08 710,-45.98 710,-35.16"/>
<polygon fill="midnightblue" stroke="midnightblue" points="713.5,-35.01 710,-25.01 706.5,-35.01 713.5,-35.01"/>
</g>
<!-- Node2&#45;&gt;Node7 -->
<g id="edge6" class="edge">
<title>Node2&#45;&gt;Node7</title>
<path fill="none" stroke="midnightblue" d="M747.39,-67.48C793.81,-56.89 873.02,-38.84 923.64,-27.3"/>
<polygon fill="midnightblue" stroke="midnightblue" points="924.7,-30.64 933.67,-25.01 923.15,-23.82 924.7,-30.64"/>
</g>
<!-- Node8 -->
<g id="node8" class="node">
<title>Node8</title>
<g id="a_node8"><a xlink:title=" ">
<polygon fill="none" stroke="#bfbfbf" points="752,-6 752,-25 892,-25 892,-6 752,-6"/>
<text text-anchor="middle" x="822" y="-13" font-family="FreeSans.ttf" font-size="10.00">yarp/dev/PolyDriverList.h</text>
</a>
</g>
</g>
<!-- Node2&#45;&gt;Node8 -->
<g id="edge7" class="edge">
<title>Node2&#45;&gt;Node8</title>
<path fill="none" stroke="midnightblue" d="M726.05,-67.48C744.59,-57.62 775.34,-41.29 797.02,-29.77"/>
<polygon fill="midnightblue" stroke="midnightblue" points="798.79,-32.79 805.98,-25.01 795.51,-26.61 798.79,-32.79"/>
</g>
<!-- Node10 -->
<g id="node10" class="node">
<title>Node10</title>
<g id="a_node10"><a xlink:title=" ">
<polygon fill="none" stroke="#bfbfbf" points="1116,-6 1116,-25 1160,-25 1160,-6 1116,-6"/>
<text text-anchor="middle" x="1138" y="-13" font-family="FreeSans.ttf" font-size="10.00">string</text>
</a>
</g>
</g>
<!-- Node9&#45;&gt;Node10 -->
<g id="edge9" class="edge">
<title>Node9&#45;&gt;Node10</title>
<path fill="none" stroke="midnightblue" d="M1138,-67.48C1138,-59.08 1138,-45.98 1138,-35.16"/>
<polygon fill="midnightblue" stroke="midnightblue" points="1141.5,-35.01 1138,-25.01 1134.5,-35.01 1141.5,-35.01"/>
</g>
<!-- Node11 -->
<g id="node11" class="node">
<title>Node11</title>
<g id="a_node11"><a xlink:title=" ">
<polygon fill="none" stroke="#bfbfbf" points="1050.5,-6 1050.5,-25 1097.5,-25 1097.5,-6 1050.5,-6"/>
<text text-anchor="middle" x="1074" y="-13" font-family="FreeSans.ttf" font-size="10.00">cmath</text>
</a>
</g>
</g>
<!-- Node9&#45;&gt;Node11 -->
<g id="edge10" class="edge">
<title>Node9&#45;&gt;Node11</title>
<path fill="none" stroke="midnightblue" d="M1128.83,-67.48C1118.85,-58.2 1102.69,-43.17 1090.49,-31.83"/>
<polygon fill="midnightblue" stroke="midnightblue" points="1092.86,-29.25 1083.15,-25.01 1088.09,-34.38 1092.86,-29.25"/>
</g>
<!-- Node12&#45;&gt;Node4 -->
<g id="edge12" class="edge">
<title>Node12&#45;&gt;Node4</title>
<path fill="none" stroke="midnightblue" d="M458.77,-67.48C479.48,-57.53 513.95,-40.99 537.99,-29.46"/>
<polygon fill="midnightblue" stroke="midnightblue" points="539.77,-32.49 547.27,-25.01 536.74,-26.18 539.77,-32.49"/>
</g>
<!-- Node12&#45;&gt;Node5 -->
<g id="edge13" class="edge">
<title>Node12&#45;&gt;Node5</title>
<path fill="none" stroke="midnightblue" d="M441,-67.48C441,-59.08 441,-45.98 441,-35.16"/>
<polygon fill="midnightblue" stroke="midnightblue" points="444.5,-35.01 441,-25.01 437.5,-35.01 444.5,-35.01"/>
</g>
<!-- Node13 -->
<g id="node13" class="node">
<title>Node13</title>
<g id="a_node13"><a xlink:title=" ">
<polygon fill="none" stroke="#bfbfbf" points="192.5,-6 192.5,-25 363.5,-25 363.5,-6 192.5,-6"/>
<text text-anchor="middle" x="278" y="-13" font-family="FreeSans.ttf" font-size="10.00">gazebo/sensors/SensorTypes.hh</text>
</a>
</g>
</g>
<!-- Node12&#45;&gt;Node13 -->
<g id="edge14" class="edge">
<title>Node12&#45;&gt;Node13</title>
<path fill="none" stroke="midnightblue" d="M417.65,-67.48C389.69,-57.27 342.67,-40.11 311.01,-28.55"/>
<polygon fill="midnightblue" stroke="midnightblue" points="311.9,-25.15 301.31,-25.01 309.5,-31.73 311.9,-25.15"/>
</g>
<!-- Node14 -->
<g id="node14" class="node">
<title>Node14</title>
<g id="a_node14"><a xlink:title=" ">
<polygon fill="none" stroke="#bfbfbf" points="0,-6 0,-25 174,-25 174,-6 0,-6"/>
<text text-anchor="middle" x="87" y="-13" font-family="FreeSans.ttf" font-size="10.00">gazebo/physics/PhysicsTypes.hh</text>
</a>
</g>
</g>
<!-- Node12&#45;&gt;Node14 -->
<g id="edge15" class="edge">
<title>Node12&#45;&gt;Node14</title>
<path fill="none" stroke="midnightblue" d="M390.28,-67.48C326.27,-56.72 216.29,-38.23 147.83,-26.72"/>
<polygon fill="midnightblue" stroke="midnightblue" points="148.07,-23.22 137.63,-25.01 146.91,-30.12 148.07,-23.22"/>
</g>
<!-- Node17 -->
<g id="node17" class="node">
<title>Node17</title>
<g id="a_node17"><a xlink:title=" ">
<polygon fill="none" stroke="#bfbfbf" points="1686,-6 1686,-25 1820,-25 1820,-6 1686,-6"/>
<text text-anchor="middle" x="1753" y="-13" font-family="FreeSans.ttf" font-size="10.00">boost/thread/mutex.hpp</text>
</a>
</g>
</g>
<!-- Node16&#45;&gt;Node17 -->
<g id="edge18" class="edge">
<title>Node16&#45;&gt;Node17</title>
<path fill="none" stroke="midnightblue" d="M1753,-67.48C1753,-59.08 1753,-45.98 1753,-35.16"/>
<polygon fill="midnightblue" stroke="midnightblue" points="1756.5,-35.01 1753,-25.01 1749.5,-35.01 1756.5,-35.01"/>
</g>
<!-- Node18 -->
<g id="node18" class="node">
<title>Node18</title>
<g id="a_node18"><a xlink:title=" ">
<polygon fill="none" stroke="#bfbfbf" points="1838,-6 1838,-25 1954,-25 1954,-6 1838,-6"/>
<text text-anchor="middle" x="1896" y="-13" font-family="FreeSans.ttf" font-size="10.00">opencv2/opencv.hpp</text>
</a>
</g>
</g>
<!-- Node16&#45;&gt;Node18 -->
<g id="edge19" class="edge">
<title>Node16&#45;&gt;Node18</title>
<path fill="none" stroke="midnightblue" d="M1773.49,-67.48C1797.81,-57.36 1838.55,-40.4 1866.32,-28.85"/>
<polygon fill="midnightblue" stroke="midnightblue" points="1867.66,-32.08 1875.55,-25.01 1864.97,-25.62 1867.66,-32.08"/>
</g>
<!-- Node19 -->
<g id="node19" class="node">
<title>Node19</title>
<g id="a_node19"><a xlink:title=" ">
<polygon fill="none" stroke="#bfbfbf" points="1972,-6 1972,-25 2070,-25 2070,-6 1972,-6"/>
<text text-anchor="middle" x="2021" y="-13" font-family="FreeSans.ttf" font-size="10.00">yarp/sig/Image.h</text>
</a>
</g>
</g>
<!-- Node16&#45;&gt;Node19 -->
<g id="edge20" class="edge">
<title>Node16&#45;&gt;Node19</title>
<path fill="none" stroke="midnightblue" d="M1794.93,-67.45C1837.38,-58.69 1904.89,-44.49 1963,-31 1967.74,-29.9 1972.69,-28.72 1977.62,-27.52"/>
<polygon fill="midnightblue" stroke="midnightblue" points="1978.74,-30.84 1987.62,-25.05 1977.07,-24.05 1978.74,-30.84"/>
</g>
<!-- Node20 -->
<g id="node20" class="node">
<title>Node20</title>
<g id="a_node20"><a xlink:title=" ">
<polygon fill="none" stroke="#bfbfbf" points="2088,-6 2088,-25 2172,-25 2172,-6 2088,-6"/>
<text text-anchor="middle" x="2130" y="-13" font-family="FreeSans.ttf" font-size="10.00">yarp/os/Port.h</text>
</a>
</g>
</g>
<!-- Node16&#45;&gt;Node20 -->
<g id="edge21" class="edge">
<title>Node16&#45;&gt;Node20</title>
<path fill="none" stroke="midnightblue" d="M1800.57,-68.4C1803.76,-67.92 1806.93,-67.45 1810,-67 1929.36,-49.59 1960.9,-55.56 2079,-31 2083.48,-30.07 2088.14,-28.95 2092.75,-27.76"/>
<polygon fill="midnightblue" stroke="midnightblue" points="2093.93,-31.06 2102.65,-25.06 2092.08,-24.31 2093.93,-31.06"/>
</g>
<!-- Node21 -->
<g id="node21" class="node">
<title>Node21</title>
<g id="a_node21"><a xlink:title=" ">
<polygon fill="none" stroke="#bfbfbf" points="2190,-6 2190,-25 2296,-25 2296,-6 2190,-6"/>
<text text-anchor="middle" x="2243" y="-13" font-family="FreeSans.ttf" font-size="10.00">yarp/os/Network.h</text>
</a>
</g>
</g>
<!-- Node16&#45;&gt;Node21 -->
<g id="edge22" class="edge">
<title>Node16&#45;&gt;Node21</title>
<path fill="none" stroke="midnightblue" d="M1800.56,-68.27C1803.75,-67.82 1806.92,-67.39 1810,-67 1974.34,-46.07 2017.54,-57.92 2181,-31 2187.23,-29.97 2193.76,-28.68 2200.15,-27.3"/>
<polygon fill="midnightblue" stroke="midnightblue" points="2201.04,-30.69 2210.02,-25.07 2199.5,-23.86 2201.04,-30.69"/>
</g>
<!-- Node22 -->
<g id="node22" class="node">
<title>Node22</title>
<g id="a_node22"><a xlink:title=" ">
<polygon fill="none" stroke="#bfbfbf" points="2314.5,-6 2314.5,-25 2439.5,-25 2439.5,-6 2314.5,-6"/>
<text text-anchor="middle" x="2377" y="-13" font-family="FreeSans.ttf" font-size="10.00">yarp/os/BufferedPort.h</text>
</a>
</g>
</g>
<!-- Node16&#45;&gt;Node22 -->
<g id="edge23" class="edge">
<title>Node16&#45;&gt;Node22</title>
<path fill="none" stroke="midnightblue" d="M1800.54,-68.19C1803.74,-67.76 1806.91,-67.36 1810,-67 2029.13,-41.78 2086.45,-60.83 2305,-31 2312.91,-29.92 2321.25,-28.5 2329.34,-26.98"/>
<polygon fill="midnightblue" stroke="midnightblue" points="2330.27,-30.36 2339.41,-25 2328.92,-23.49 2330.27,-30.36"/>
</g>
<!-- Node23 -->
<g id="node23" class="node">
<title>Node23</title>
<g id="a_node23"><a xlink:title=" ">
<polygon fill="none" stroke="#bfbfbf" points="2457.5,-6 2457.5,-25 2606.5,-25 2606.5,-6 2457.5,-6"/>
<text text-anchor="middle" x="2532" y="-13" font-family="FreeSans.ttf" font-size="10.00">gazebo/common/Events.hh</text>
</a>
</g>
</g>
<!-- Node16&#45;&gt;Node23 -->
<g id="edge24" class="edge">
<title>Node16&#45;&gt;Node23</title>
<path fill="none" stroke="midnightblue" d="M1800.54,-68.13C1803.74,-67.71 1806.91,-67.33 1810,-67 2092.84,-36.78 2166.42,-63.53 2449,-31 2458.6,-29.89 2468.77,-28.39 2478.58,-26.78"/>
<polygon fill="midnightblue" stroke="midnightblue" points="2479.36,-30.19 2488.63,-25.06 2478.19,-23.29 2479.36,-30.19"/>
</g>
<!-- Node24 -->
<g id="node24" class="node">
<title>Node24</title>
<g id="a_node24"><a xlink:title=" ">
<polygon fill="none" stroke="#bfbfbf" points="2625,-6 2625,-25 2771,-25 2771,-6 2625,-6"/>
<text text-anchor="middle" x="2698" y="-13" font-family="FreeSans.ttf" font-size="10.00">gazebo/common/Plugin.hh</text>
</a>
</g>
</g>
<!-- Node16&#45;&gt;Node24 -->
<g id="edge25" class="edge">
<title>Node16&#45;&gt;Node24</title>
<path fill="none" stroke="midnightblue" d="M1800.53,-68.09C1803.73,-67.68 1806.91,-67.31 1810,-67 2166.77,-30.98 2259.58,-70.3 2616,-31 2625.71,-29.93 2636,-28.42 2645.89,-26.76"/>
<polygon fill="midnightblue" stroke="midnightblue" points="2646.76,-30.17 2656.01,-25.01 2645.56,-23.27 2646.76,-30.17"/>
</g>
<!-- Node25 -->
<g id="node25" class="node">
<title>Node25</title>
<g id="a_node25"><a xlink:title=" ">
<polygon fill="none" stroke="#bfbfbf" points="1178,-6 1178,-25 1318,-25 1318,-6 1178,-6"/>
<text text-anchor="middle" x="1248" y="-13" font-family="FreeSans.ttf" font-size="10.00">gazebo/common/Time.hh</text>
</a>
</g>
</g>
<!-- Node16&#45;&gt;Node25 -->
<g id="edge26" class="edge">
<title>Node16&#45;&gt;Node25</title>
<path fill="none" stroke="midnightblue" d="M1705.26,-72.15C1626.32,-65.52 1463.72,-50.74 1327,-31 1318.67,-29.8 1309.87,-28.35 1301.29,-26.85"/>
<polygon fill="midnightblue" stroke="midnightblue" points="1301.83,-23.39 1291.37,-25.07 1300.59,-30.28 1301.83,-23.39"/>
</g>
<!-- Node26 -->
<g id="node26" class="node">
<title>Node26</title>
<g id="a_node26"><a xlink:title=" ">
<polygon fill="none" stroke="#bfbfbf" points="1336,-6 1336,-25 1502,-25 1502,-6 1336,-6"/>
<text text-anchor="middle" x="1419" y="-13" font-family="FreeSans.ttf" font-size="10.00">gazebo/rendering/rendering.hh</text>
</a>
</g>
</g>
<!-- Node16&#45;&gt;Node26 -->
<g id="edge27" class="edge">
<title>Node16&#45;&gt;Node26</title>
<path fill="none" stroke="midnightblue" d="M1705.15,-67.48C1644.88,-56.74 1541.41,-38.31 1476.79,-26.79"/>
<polygon fill="midnightblue" stroke="midnightblue" points="1477.22,-23.32 1466.77,-25.01 1476,-30.21 1477.22,-23.32"/>
</g>
<!-- Node27 -->
<g id="node27" class="node">
<title>Node27</title>
<g id="a_node27"><a xlink:title=" ">
<polygon fill="none" stroke="#bfbfbf" points="1520.5,-0.5 1520.5,-30.5 1667.5,-30.5 1667.5,-0.5 1520.5,-0.5"/>
<text text-anchor="start" x="1528.5" y="-18.5" font-family="FreeSans.ttf" font-size="10.00">gazebo/transport/Transport</text>
<text text-anchor="middle" x="1594" y="-7.5" font-family="FreeSans.ttf" font-size="10.00">Types.hh</text>
</a>
</g>
</g>
<!-- Node16&#45;&gt;Node27 -->
<g id="edge28" class="edge">
<title>Node16&#45;&gt;Node27</title>
<path fill="none" stroke="midnightblue" d="M1730.22,-67.48C1707.07,-58.81 1670.55,-45.15 1641.14,-34.14"/>
<polygon fill="midnightblue" stroke="midnightblue" points="1642.07,-30.75 1631.47,-30.52 1639.61,-37.31 1642.07,-30.75"/>
</g>
</g>
</svg>
