<?xml version="1.0" encoding="UTF-8" standalone="no"?>
<!DOCTYPE svg PUBLIC "-//W3C//DTD SVG 1.1//EN"
 "http://www.w3.org/Graphics/SVG/1.1/DTD/svg11.dtd">
<!-- Generated by graphviz version 5.0.0 (20220707.2338)
 -->
<!-- Title: worldproxy.cpp Pages: 1 -->
<svg width="2236pt" height="151pt"
 viewBox="0.00 0.00 2235.50 151.00" xmlns="http://www.w3.org/2000/svg" xmlns:xlink="http://www.w3.org/1999/xlink">
<g id="graph0" class="graph" transform="scale(1 1) rotate(0) translate(4 147)">
<title>worldproxy.cpp</title>
<!-- Node1 -->
<g id="node1" class="node">
<title>Node1</title>
<g id="a_node1"><a xlink:title=" ">
<polygon fill="#bfbfbf" stroke="black" points="1734,-123.5 1734,-142.5 1824,-142.5 1824,-123.5 1734,-123.5"/>
<text text-anchor="middle" x="1779" y="-130.5" font-family="FreeSans.ttf" font-size="10.00">worldproxy.cpp</text>
</a>
</g>
</g>
<!-- Node2 -->
<g id="node2" class="node">
<title>Node2</title>
<g id="a_node2"><a xlink:href="worldproxy_8h.html" target="_top" xlink:title=" ">
<polygon fill="none" stroke="black" points="828.5,-67.5 828.5,-86.5 907.5,-86.5 907.5,-67.5 828.5,-67.5"/>
<text text-anchor="middle" x="868" y="-74.5" font-family="FreeSans.ttf" font-size="10.00">worldproxy.h</text>
</a>
</g>
</g>
<!-- Node1&#45;&gt;Node2 -->
<g id="edge1" class="edge">
<title>Node1&#45;&gt;Node2</title>
<path fill="none" stroke="midnightblue" d="M1733.82,-129.32C1580.12,-120.21 1078.14,-90.46 917.75,-80.95"/>
<polygon fill="midnightblue" stroke="midnightblue" points="917.87,-77.45 907.68,-80.35 917.46,-84.44 917.87,-77.45"/>
</g>
<!-- Node13 -->
<g id="node13" class="node">
<title>Node13</title>
<g id="a_node13"><a xlink:href="ConfHelpers_8hh.html" target="_top" xlink:title=" ">
<polygon fill="none" stroke="black" points="1412.5,-67.5 1412.5,-86.5 1599.5,-86.5 1599.5,-67.5 1412.5,-67.5"/>
<text text-anchor="middle" x="1506" y="-74.5" font-family="FreeSans.ttf" font-size="10.00">GazeboYarpPlugins/ConfHelpers.hh</text>
</a>
</g>
</g>
<!-- Node1&#45;&gt;Node13 -->
<g id="edge12" class="edge">
<title>Node1&#45;&gt;Node13</title>
<path fill="none" stroke="midnightblue" d="M1735.74,-123.44C1687.82,-113.96 1610.52,-98.67 1559,-88.48"/>
<polygon fill="midnightblue" stroke="midnightblue" points="1559.54,-85.02 1549.06,-86.52 1558.19,-91.89 1559.54,-85.02"/>
</g>
<!-- Node18 -->
<g id="node18" class="node">
<title>Node18</title>
<g id="a_node18"><a xlink:title=" ">
<polygon fill="none" stroke="#bfbfbf" points="1617.5,-67.5 1617.5,-86.5 1668.5,-86.5 1668.5,-67.5 1617.5,-67.5"/>
<text text-anchor="middle" x="1643" y="-74.5" font-family="FreeSans.ttf" font-size="10.00">math.h</text>
</a>
</g>
</g>
<!-- Node1&#45;&gt;Node18 -->
<g id="edge17" class="edge">
<title>Node1&#45;&gt;Node18</title>
<path fill="none" stroke="midnightblue" d="M1757.45,-123.44C1734.97,-114.52 1699.51,-100.44 1674.02,-90.32"/>
<polygon fill="midnightblue" stroke="midnightblue" points="1675.03,-86.95 1664.45,-86.52 1672.45,-93.46 1675.03,-86.95"/>
</g>
<!-- Node19 -->
<g id="node19" class="node">
<title>Node19</title>
<g id="a_node19"><a xlink:title=" ">
<polygon fill="none" stroke="#bfbfbf" points="1687,-67.5 1687,-86.5 1731,-86.5 1731,-67.5 1687,-67.5"/>
<text text-anchor="middle" x="1709" y="-74.5" font-family="FreeSans.ttf" font-size="10.00">string</text>
</a>
</g>
</g>
<!-- Node1&#45;&gt;Node19 -->
<g id="edge18" class="edge">
<title>Node1&#45;&gt;Node19</title>
<path fill="none" stroke="midnightblue" d="M1767.75,-123.32C1757.2,-115.18 1741.2,-102.84 1728.56,-93.09"/>
<polygon fill="midnightblue" stroke="midnightblue" points="1730.51,-90.17 1720.45,-86.83 1726.23,-95.71 1730.51,-90.17"/>
</g>
<!-- Node20 -->
<g id="node20" class="node">
<title>Node20</title>
<g id="a_node20"><a xlink:title=" ">
<polygon fill="none" stroke="#bfbfbf" points="1749,-67.5 1749,-86.5 1809,-86.5 1809,-67.5 1749,-67.5"/>
<text text-anchor="middle" x="1779" y="-74.5" font-family="FreeSans.ttf" font-size="10.00">iostream</text>
</a>
</g>
</g>
<!-- Node1&#45;&gt;Node20 -->
<g id="edge19" class="edge">
<title>Node1&#45;&gt;Node20</title>
<path fill="none" stroke="midnightblue" d="M1779,-123.08C1779,-116.01 1779,-105.86 1779,-96.99"/>
<polygon fill="midnightblue" stroke="midnightblue" points="1782.5,-96.75 1779,-86.75 1775.5,-96.75 1782.5,-96.75"/>
</g>
<!-- Node21 -->
<g id="node21" class="node">
<title>Node21</title>
<g id="a_node21"><a xlink:title=" ">
<polygon fill="none" stroke="#bfbfbf" points="1827.5,-67.5 1827.5,-86.5 1884.5,-86.5 1884.5,-67.5 1827.5,-67.5"/>
<text text-anchor="middle" x="1856" y="-74.5" font-family="FreeSans.ttf" font-size="10.00">ostream</text>
</a>
</g>
</g>
<!-- Node1&#45;&gt;Node21 -->
<g id="edge20" class="edge">
<title>Node1&#45;&gt;Node21</title>
<path fill="none" stroke="midnightblue" d="M1791.37,-123.32C1803.16,-115.06 1821.13,-102.45 1835.14,-92.63"/>
<polygon fill="midnightblue" stroke="midnightblue" points="1837.48,-95.26 1843.66,-86.65 1833.46,-89.53 1837.48,-95.26"/>
</g>
<!-- Node22 -->
<g id="node22" class="node">
<title>Node22</title>
<g id="a_node22"><a xlink:title=" ">
<polygon fill="none" stroke="#bfbfbf" points="1902.5,-67.5 1902.5,-86.5 1991.5,-86.5 1991.5,-67.5 1902.5,-67.5"/>
<text text-anchor="middle" x="1947" y="-74.5" font-family="FreeSans.ttf" font-size="10.00">yarp/os/Time.h</text>
</a>
</g>
</g>
<!-- Node1&#45;&gt;Node22 -->
<g id="edge21" class="edge">
<title>Node1&#45;&gt;Node22</title>
<path fill="none" stroke="midnightblue" d="M1805.62,-123.44C1834.01,-114.32 1879.14,-99.81 1910.75,-89.65"/>
<polygon fill="midnightblue" stroke="midnightblue" points="1912.06,-92.91 1920.5,-86.52 1909.91,-86.24 1912.06,-92.91"/>
</g>
<!-- Node23 -->
<g id="node23" class="node">
<title>Node23</title>
<g id="a_node23"><a xlink:title=" ">
<polygon fill="none" stroke="#bfbfbf" points="2010,-67.5 2010,-86.5 2092,-86.5 2092,-67.5 2010,-67.5"/>
<text text-anchor="middle" x="2051" y="-74.5" font-family="FreeSans.ttf" font-size="10.00">yarp/os/Log.h</text>
</a>
</g>
</g>
<!-- Node1&#45;&gt;Node23 -->
<g id="edge22" class="edge">
<title>Node1&#45;&gt;Node23</title>
<path fill="none" stroke="midnightblue" d="M1822.1,-123.44C1870.41,-113.85 1948.68,-98.31 2000,-88.13"/>
<polygon fill="midnightblue" stroke="midnightblue" points="2000.76,-91.54 2009.88,-86.16 1999.39,-84.68 2000.76,-91.54"/>
</g>
<!-- Node24 -->
<g id="node24" class="node">
<title>Node24</title>
<g id="a_node24"><a xlink:title=" ">
<polygon fill="none" stroke="#bfbfbf" points="2110.5,-67.5 2110.5,-86.5 2227.5,-86.5 2227.5,-67.5 2110.5,-67.5"/>
<text text-anchor="middle" x="2169" y="-74.5" font-family="FreeSans.ttf" font-size="10.00">yarp/os/LogStream.h</text>
</a>
</g>
</g>
<!-- Node1&#45;&gt;Node24 -->
<g id="edge23" class="edge">
<title>Node1&#45;&gt;Node24</title>
<path fill="none" stroke="midnightblue" d="M1824.12,-125.75C1892,-116.35 2020.88,-98.51 2100.43,-87.49"/>
<polygon fill="midnightblue" stroke="midnightblue" points="2100.93,-90.96 2110.36,-86.12 2099.97,-84.02 2100.93,-90.96"/>
</g>
<!-- Node3 -->
<g id="node3" class="node">
<title>Node3</title>
<g id="a_node3"><a xlink:title=" ">
<polygon fill="none" stroke="#bfbfbf" points="0,-6 0,-25 140,-25 140,-6 0,-6"/>
<text text-anchor="middle" x="70" y="-13" font-family="FreeSans.ttf" font-size="10.00">gazebo/physics/Model.hh</text>
</a>
</g>
</g>
<!-- Node2&#45;&gt;Node3 -->
<g id="edge2" class="edge">
<title>Node2&#45;&gt;Node3</title>
<path fill="none" stroke="midnightblue" d="M828.49,-75.18C719.73,-72.56 406.9,-62.62 149,-31 139.95,-29.89 130.38,-28.4 121.13,-26.8"/>
<polygon fill="midnightblue" stroke="midnightblue" points="121.73,-23.35 111.27,-25.03 120.49,-30.24 121.73,-23.35"/>
</g>
<!-- Node4 -->
<g id="node4" class="node">
<title>Node4</title>
<g id="a_node4"><a xlink:title=" ">
<polygon fill="none" stroke="#bfbfbf" points="158.5,-6 158.5,-25 295.5,-25 295.5,-6 158.5,-6"/>
<text text-anchor="middle" x="227" y="-13" font-family="FreeSans.ttf" font-size="10.00">gazebo/physics/World.hh</text>
</a>
</g>
</g>
<!-- Node2&#45;&gt;Node4 -->
<g id="edge3" class="edge">
<title>Node2&#45;&gt;Node4</title>
<path fill="none" stroke="midnightblue" d="M828.19,-74.28C735.78,-69.98 499.7,-57.16 304,-31 295.57,-29.87 286.66,-28.43 278.02,-26.9"/>
<polygon fill="midnightblue" stroke="midnightblue" points="278.5,-23.43 268.03,-25.06 277.23,-30.31 278.5,-23.43"/>
</g>
<!-- Node5 -->
<g id="node5" class="node">
<title>Node5</title>
<g id="a_node5"><a xlink:title=" ">
<polygon fill="none" stroke="#bfbfbf" points="313.5,-6 313.5,-25 444.5,-25 444.5,-6 313.5,-6"/>
<text text-anchor="middle" x="379" y="-13" font-family="FreeSans.ttf" font-size="10.00">gazebo/physics/Joint.hh</text>
</a>
</g>
</g>
<!-- Node2&#45;&gt;Node5 -->
<g id="edge4" class="edge">
<title>Node2&#45;&gt;Node5</title>
<path fill="none" stroke="midnightblue" d="M828.37,-72.84C754.36,-66.68 590.21,-51.84 453,-31 445.26,-29.82 437.11,-28.41 429.15,-26.93"/>
<polygon fill="midnightblue" stroke="midnightblue" points="429.7,-23.47 419.22,-25.03 428.38,-30.34 429.7,-23.47"/>
</g>
<!-- Node6 -->
<g id="node6" class="node">
<title>Node6</title>
<g id="a_node6"><a xlink:title=" ">
<polygon fill="none" stroke="#bfbfbf" points="462.5,-6 462.5,-25 641.5,-25 641.5,-6 462.5,-6"/>
<text text-anchor="middle" x="552" y="-13" font-family="FreeSans.ttf" font-size="10.00">gazebo/physics/PhysicsEngine.hh</text>
</a>
</g>
</g>
<!-- Node2&#45;&gt;Node6 -->
<g id="edge5" class="edge">
<title>Node2&#45;&gt;Node6</title>
<path fill="none" stroke="midnightblue" d="M828.3,-68.52C772.48,-58.01 670.56,-38.82 607.33,-26.92"/>
<polygon fill="midnightblue" stroke="midnightblue" points="607.62,-23.41 597.15,-25 606.33,-30.29 607.62,-23.41"/>
</g>
<!-- Node7 -->
<g id="node7" class="node">
<title>Node7</title>
<g id="a_node7"><a xlink:title=" ">
<polygon fill="none" stroke="#bfbfbf" points="660,-6 660,-25 790,-25 790,-6 660,-6"/>
<text text-anchor="middle" x="725" y="-13" font-family="FreeSans.ttf" font-size="10.00">gazebo/physics/Link.hh</text>
</a>
</g>
</g>
<!-- Node2&#45;&gt;Node7 -->
<g id="edge6" class="edge">
<title>Node2&#45;&gt;Node7</title>
<path fill="none" stroke="midnightblue" d="M847.51,-67.48C823.19,-57.36 782.45,-40.4 754.68,-28.85"/>
<polygon fill="midnightblue" stroke="midnightblue" points="756.03,-25.62 745.45,-25.01 753.34,-32.08 756.03,-25.62"/>
</g>
<!-- Node8 -->
<g id="node8" class="node">
<title>Node8</title>
<g id="a_node8"><a xlink:title=" ">
<polygon fill="none" stroke="#bfbfbf" points="808,-6 808,-25 928,-25 928,-6 808,-6"/>
<text text-anchor="middle" x="868" y="-13" font-family="FreeSans.ttf" font-size="10.00">yarp/os/Semaphore.h</text>
</a>
</g>
</g>
<!-- Node2&#45;&gt;Node8 -->
<g id="edge7" class="edge">
<title>Node2&#45;&gt;Node8</title>
<path fill="none" stroke="midnightblue" d="M868,-67.48C868,-59.08 868,-45.98 868,-35.16"/>
<polygon fill="midnightblue" stroke="midnightblue" points="871.5,-35.01 868,-25.01 864.5,-35.01 871.5,-35.01"/>
</g>
<!-- Node9 -->
<g id="node9" class="node">
<title>Node9</title>
<g id="a_node9"><a xlink:title=" ">
<polygon fill="none" stroke="#bfbfbf" points="946.5,-0.5 946.5,-30.5 1129.5,-30.5 1129.5,-0.5 946.5,-0.5"/>
<text text-anchor="start" x="954.5" y="-18.5" font-family="FreeSans.ttf" font-size="10.00">GazeboYarpPlugins/WorldInterface</text>
<text text-anchor="middle" x="1038" y="-7.5" font-family="FreeSans.ttf" font-size="10.00">Server.h</text>
</a>
</g>
</g>
<!-- Node2&#45;&gt;Node9 -->
<g id="edge8" class="edge">
<title>Node2&#45;&gt;Node9</title>
<path fill="none" stroke="midnightblue" d="M892.36,-67.48C917.32,-58.74 956.84,-44.91 988.41,-33.86"/>
<polygon fill="midnightblue" stroke="midnightblue" points="989.65,-37.13 997.93,-30.52 987.34,-30.52 989.65,-37.13"/>
</g>
<!-- Node10 -->
<g id="node10" class="node">
<title>Node10</title>
<g id="a_node10"><a xlink:title=" ">
<polygon fill="none" stroke="#bfbfbf" points="1148,-6 1148,-25 1186,-25 1186,-6 1148,-6"/>
<text text-anchor="middle" x="1167" y="-13" font-family="FreeSans.ttf" font-size="10.00">map</text>
</a>
</g>
</g>
<!-- Node2&#45;&gt;Node10 -->
<g id="edge9" class="edge">
<title>Node2&#45;&gt;Node10</title>
<path fill="none" stroke="midnightblue" d="M907.78,-73.1C961.23,-68.37 1058.69,-56.79 1138,-31 1139.62,-30.47 1141.26,-29.87 1142.9,-29.21"/>
<polygon fill="midnightblue" stroke="midnightblue" points="1144.36,-32.39 1152.01,-25.06 1141.46,-26.02 1144.36,-32.39"/>
</g>
<!-- Node11 -->
<g id="node11" class="node">
<title>Node11</title>
<g id="a_node11"><a xlink:title=" ">
<polygon fill="none" stroke="#bfbfbf" points="1204,-6 1204,-25 1252,-25 1252,-6 1204,-6"/>
<text text-anchor="middle" x="1228" y="-13" font-family="FreeSans.ttf" font-size="10.00">mutex</text>
</a>
</g>
</g>
<!-- Node2&#45;&gt;Node11 -->
<g id="edge10" class="edge">
<title>Node2&#45;&gt;Node11</title>
<path fill="none" stroke="midnightblue" d="M907.73,-74.08C970.01,-70.29 1093.94,-59.55 1195,-31 1197.15,-30.39 1199.35,-29.67 1201.53,-28.88"/>
<polygon fill="midnightblue" stroke="midnightblue" points="1202.91,-32.1 1210.86,-25.1 1200.28,-25.61 1202.91,-32.1"/>
</g>
<!-- Node12 -->
<g id="node12" class="node">
<title>Node12</title>
<g id="a_node12"><a xlink:title=" ">
<polygon fill="none" stroke="#bfbfbf" points="1270.5,-6 1270.5,-25 1317.5,-25 1317.5,-6 1270.5,-6"/>
<text text-anchor="middle" x="1294" y="-13" font-family="FreeSans.ttf" font-size="10.00">queue</text>
</a>
</g>
</g>
<!-- Node2&#45;&gt;Node12 -->
<g id="edge11" class="edge">
<title>Node2&#45;&gt;Node12</title>
<path fill="none" stroke="midnightblue" d="M907.78,-75.36C979.57,-73.34 1135.04,-65.05 1261,-31 1263.29,-30.38 1265.63,-29.62 1267.95,-28.79"/>
<polygon fill="midnightblue" stroke="midnightblue" points="1269.27,-32.03 1277.23,-25.03 1266.64,-25.54 1269.27,-32.03"/>
</g>
<!-- Node14 -->
<g id="node14" class="node">
<title>Node14</title>
<g id="a_node14"><a xlink:title=" ">
<polygon fill="none" stroke="#bfbfbf" points="1335.5,-6 1335.5,-25 1428.5,-25 1428.5,-6 1335.5,-6"/>
<text text-anchor="middle" x="1382" y="-13" font-family="FreeSans.ttf" font-size="10.00">sdf/sdf_config.h</text>
</a>
</g>
</g>
<!-- Node13&#45;&gt;Node14 -->
<g id="edge13" class="edge">
<title>Node13&#45;&gt;Node14</title>
<path fill="none" stroke="midnightblue" d="M1488.23,-67.48C1467.52,-57.53 1433.05,-40.99 1409.01,-29.46"/>
<polygon fill="midnightblue" stroke="midnightblue" points="1410.26,-26.18 1399.73,-25.01 1407.23,-32.49 1410.26,-26.18"/>
</g>
<!-- Node15 -->
<g id="node15" class="node">
<title>Node15</title>
<g id="a_node15"><a xlink:title=" ">
<polygon fill="none" stroke="#bfbfbf" points="1446.5,-6 1446.5,-25 1565.5,-25 1565.5,-6 1446.5,-6"/>
<text text-anchor="middle" x="1506" y="-13" font-family="FreeSans.ttf" font-size="10.00">boost/shared_ptr.hpp</text>
</a>
</g>
</g>
<!-- Node13&#45;&gt;Node15 -->
<g id="edge14" class="edge">
<title>Node13&#45;&gt;Node15</title>
<path fill="none" stroke="midnightblue" d="M1506,-67.48C1506,-59.08 1506,-45.98 1506,-35.16"/>
<polygon fill="midnightblue" stroke="midnightblue" points="1509.5,-35.01 1506,-25.01 1502.5,-35.01 1509.5,-35.01"/>
</g>
<!-- Node16 -->
<g id="node16" class="node">
<title>Node16</title>
<g id="a_node16"><a xlink:title=" ">
<polygon fill="none" stroke="#bfbfbf" points="1583.5,-6 1583.5,-25 1754.5,-25 1754.5,-6 1583.5,-6"/>
<text text-anchor="middle" x="1669" y="-13" font-family="FreeSans.ttf" font-size="10.00">gazebo/sensors/SensorTypes.hh</text>
</a>
</g>
</g>
<!-- Node13&#45;&gt;Node16 -->
<g id="edge15" class="edge">
<title>Node13&#45;&gt;Node16</title>
<path fill="none" stroke="midnightblue" d="M1529.35,-67.48C1557.31,-57.27 1604.33,-40.11 1635.99,-28.55"/>
<polygon fill="midnightblue" stroke="midnightblue" points="1637.5,-31.73 1645.69,-25.01 1635.1,-25.15 1637.5,-31.73"/>
</g>
<!-- Node17 -->
<g id="node17" class="node">
<title>Node17</title>
<g id="a_node17"><a xlink:title=" ">
<polygon fill="none" stroke="#bfbfbf" points="1773,-6 1773,-25 1947,-25 1947,-6 1773,-6"/>
<text text-anchor="middle" x="1860" y="-13" font-family="FreeSans.ttf" font-size="10.00">gazebo/physics/PhysicsTypes.hh</text>
</a>
</g>
</g>
<!-- Node13&#45;&gt;Node17 -->
<g id="edge16" class="edge">
<title>Node13&#45;&gt;Node17</title>
<path fill="none" stroke="midnightblue" d="M1556.72,-67.48C1620.73,-56.72 1730.71,-38.23 1799.17,-26.72"/>
<polygon fill="midnightblue" stroke="midnightblue" points="1800.09,-30.12 1809.37,-25.01 1798.93,-23.22 1800.09,-30.12"/>
</g>
</g>
</svg>
