<?xml version="1.0" encoding="UTF-8" standalone="no"?>
<!DOCTYPE svg PUBLIC "-//W3C//DTD SVG 1.1//EN"
 "http://www.w3.org/Graphics/SVG/1.1/DTD/svg11.dtd">
<!-- Generated by graphviz version 3.0.0 (20220315.2325)
 -->
<!-- Title: worldinterfaceserverimpl.cpp Pages: 1 -->
<svg width="1325pt" height="207pt"
 viewBox="0.00 0.00 1325.00 207.00" xmlns="http://www.w3.org/2000/svg" xmlns:xlink="http://www.w3.org/1999/xlink">
<g id="graph0" class="graph" transform="scale(1 1) rotate(0) translate(4 203)">
<title>worldinterfaceserverimpl.cpp</title>
<!-- Node1 -->
<g id="node1" class="node">
<title>Node1</title>
<g id="a_node1"><a xlink:title=" ">
<polygon fill="#bfbfbf" stroke="black" points="456.5,-179.5 456.5,-198.5 616.5,-198.5 616.5,-179.5 456.5,-179.5"/>
<text text-anchor="middle" x="536.5" y="-186.5" font-family="FreeSans.ttf" font-size="10.00">worldinterfaceserverimpl.cpp</text>
</a>
</g>
</g>
<!-- Node2 -->
<g id="node2" class="node">
<title>Node2</title>
<g id="a_node2"><a xlink:href="worldinterfaceserverimpl_8h.html" target="_top" xlink:title=" ">
<polygon fill="none" stroke="black" points="348,-123.5 348,-142.5 497,-142.5 497,-123.5 348,-123.5"/>
<text text-anchor="middle" x="422.5" y="-130.5" font-family="FreeSans.ttf" font-size="10.00">worldinterfaceserverimpl.h</text>
</a>
</g>
</g>
<!-- Node1&#45;&gt;Node2 -->
<g id="edge1" class="edge">
<title>Node1&#45;&gt;Node2</title>
<path fill="none" stroke="midnightblue" d="M518.44,-179.44C499.93,-170.68 470.92,-156.94 449.64,-146.86"/>
<polygon fill="midnightblue" stroke="midnightblue" points="451.01,-143.63 440.48,-142.52 448.02,-149.96 451.01,-143.63"/>
</g>
<!-- Node14 -->
<g id="node14" class="node">
<title>Node14</title>
<g id="a_node14"><a xlink:title=" ">
<polygon fill="none" stroke="#bfbfbf" points="514.5,-123.5 514.5,-142.5 558.5,-142.5 558.5,-123.5 514.5,-123.5"/>
<text text-anchor="middle" x="536.5" y="-130.5" font-family="FreeSans.ttf" font-size="10.00">string</text>
</a>
</g>
</g>
<!-- Node1&#45;&gt;Node14 -->
<g id="edge14" class="edge">
<title>Node1&#45;&gt;Node14</title>
<path fill="none" stroke="midnightblue" d="M536.5,-179.08C536.5,-172.01 536.5,-161.86 536.5,-152.99"/>
<polygon fill="midnightblue" stroke="midnightblue" points="540,-152.75 536.5,-142.75 533,-152.75 540,-152.75"/>
</g>
<!-- Node15 -->
<g id="node15" class="node">
<title>Node15</title>
<g id="a_node15"><a xlink:title=" ">
<polygon fill="none" stroke="#bfbfbf" points="576.5,-123.5 576.5,-142.5 608.5,-142.5 608.5,-123.5 576.5,-123.5"/>
<text text-anchor="middle" x="592.5" y="-130.5" font-family="FreeSans.ttf" font-size="10.00">list</text>
</a>
</g>
</g>
<!-- Node1&#45;&gt;Node15 -->
<g id="edge15" class="edge">
<title>Node1&#45;&gt;Node15</title>
<path fill="none" stroke="midnightblue" d="M545.5,-179.32C553.69,-171.42 566.01,-159.55 575.97,-149.94"/>
<polygon fill="midnightblue" stroke="midnightblue" points="578.57,-152.29 583.34,-142.83 573.71,-147.26 578.57,-152.29"/>
</g>
<!-- Node3 -->
<g id="node3" class="node">
<title>Node3</title>
<g id="a_node3"><a xlink:title=" ">
<polygon fill="none" stroke="#bfbfbf" points="0,-0.5 0,-30.5 183,-30.5 183,-0.5 0,-0.5"/>
<text text-anchor="start" x="8" y="-18.5" font-family="FreeSans.ttf" font-size="10.00">GazeboYarpPlugins/WorldInterface</text>
<text text-anchor="middle" x="91.5" y="-7.5" font-family="FreeSans.ttf" font-size="10.00">Server.h</text>
</a>
</g>
</g>
<!-- Node2&#45;&gt;Node3 -->
<g id="edge2" class="edge">
<title>Node2&#45;&gt;Node3</title>
<path fill="none" stroke="midnightblue" d="M397.89,-123.41C343.8,-104.54 213.66,-59.13 141.6,-33.98"/>
<polygon fill="midnightblue" stroke="midnightblue" points="142.43,-30.57 131.84,-30.58 140.13,-37.17 142.43,-30.57"/>
</g>
<!-- Node4 -->
<g id="node4" class="node">
<title>Node4</title>
<g id="a_node4"><a xlink:href="worldproxy_8h.html" target="_top" xlink:title=" ">
<polygon fill="none" stroke="black" points="714,-67.5 714,-86.5 793,-86.5 793,-67.5 714,-67.5"/>
<text text-anchor="middle" x="753.5" y="-74.5" font-family="FreeSans.ttf" font-size="10.00">worldproxy.h</text>
</a>
</g>
</g>
<!-- Node2&#45;&gt;Node4 -->
<g id="edge3" class="edge">
<title>Node2&#45;&gt;Node4</title>
<path fill="none" stroke="midnightblue" d="M474.95,-123.44C537.67,-113.21 641.9,-96.21 703.51,-86.15"/>
<polygon fill="midnightblue" stroke="midnightblue" points="704.46,-89.55 713.76,-84.48 703.33,-82.64 704.46,-89.55"/>
</g>
<!-- Node4&#45;&gt;Node3 -->
<g id="edge10" class="edge">
<title>Node4&#45;&gt;Node3</title>
<path fill="none" stroke="midnightblue" d="M713.97,-73.68C623.73,-68.21 395.43,-53.32 193.34,-31.04"/>
<polygon fill="midnightblue" stroke="midnightblue" points="193.45,-27.54 183.13,-29.91 192.68,-34.49 193.45,-27.54"/>
</g>
<!-- Node5 -->
<g id="node5" class="node">
<title>Node5</title>
<g id="a_node5"><a xlink:title=" ">
<polygon fill="none" stroke="#bfbfbf" points="201.5,-6 201.5,-25 341.5,-25 341.5,-6 201.5,-6"/>
<text text-anchor="middle" x="271.5" y="-13" font-family="FreeSans.ttf" font-size="10.00">gazebo/physics/Model.hh</text>
</a>
</g>
</g>
<!-- Node4&#45;&gt;Node5 -->
<g id="edge4" class="edge">
<title>Node4&#45;&gt;Node5</title>
<path fill="none" stroke="midnightblue" d="M713.91,-72.51C641.55,-65.93 483.18,-50.56 350.5,-31 342.17,-29.77 333.38,-28.32 324.8,-26.81"/>
<polygon fill="midnightblue" stroke="midnightblue" points="325.33,-23.35 314.87,-25.03 324.1,-30.24 325.33,-23.35"/>
</g>
<!-- Node6 -->
<g id="node6" class="node">
<title>Node6</title>
<g id="a_node6"><a xlink:title=" ">
<polygon fill="none" stroke="#bfbfbf" points="360,-6 360,-25 497,-25 497,-6 360,-6"/>
<text text-anchor="middle" x="428.5" y="-13" font-family="FreeSans.ttf" font-size="10.00">gazebo/physics/World.hh</text>
</a>
</g>
</g>
<!-- Node4&#45;&gt;Node6 -->
<g id="edge5" class="edge">
<title>Node4&#45;&gt;Node6</title>
<path fill="none" stroke="midnightblue" d="M713.97,-68.91C665.02,-60.11 579.08,-44.6 505.5,-31 498.42,-29.69 490.97,-28.3 483.62,-26.93"/>
<polygon fill="midnightblue" stroke="midnightblue" points="484.16,-23.47 473.69,-25.06 482.87,-30.35 484.16,-23.47"/>
</g>
<!-- Node7 -->
<g id="node7" class="node">
<title>Node7</title>
<g id="a_node7"><a xlink:title=" ">
<polygon fill="none" stroke="#bfbfbf" points="515,-6 515,-25 646,-25 646,-6 515,-6"/>
<text text-anchor="middle" x="580.5" y="-13" font-family="FreeSans.ttf" font-size="10.00">gazebo/physics/Joint.hh</text>
</a>
</g>
</g>
<!-- Node4&#45;&gt;Node7 -->
<g id="edge6" class="edge">
<title>Node4&#45;&gt;Node7</title>
<path fill="none" stroke="midnightblue" d="M728.71,-67.48C698.91,-57.22 648.71,-39.96 615.1,-28.4"/>
<polygon fill="midnightblue" stroke="midnightblue" points="615.84,-24.95 605.24,-25.01 613.56,-31.57 615.84,-24.95"/>
</g>
<!-- Node8 -->
<g id="node8" class="node">
<title>Node8</title>
<g id="a_node8"><a xlink:title=" ">
<polygon fill="none" stroke="#bfbfbf" points="664,-6 664,-25 843,-25 843,-6 664,-6"/>
<text text-anchor="middle" x="753.5" y="-13" font-family="FreeSans.ttf" font-size="10.00">gazebo/physics/PhysicsEngine.hh</text>
</a>
</g>
</g>
<!-- Node4&#45;&gt;Node8 -->
<g id="edge7" class="edge">
<title>Node4&#45;&gt;Node8</title>
<path fill="none" stroke="midnightblue" d="M753.5,-67.48C753.5,-59.08 753.5,-45.98 753.5,-35.16"/>
<polygon fill="midnightblue" stroke="midnightblue" points="757,-35.01 753.5,-25.01 750,-35.01 757,-35.01"/>
</g>
<!-- Node9 -->
<g id="node9" class="node">
<title>Node9</title>
<g id="a_node9"><a xlink:title=" ">
<polygon fill="none" stroke="#bfbfbf" points="861.5,-6 861.5,-25 991.5,-25 991.5,-6 861.5,-6"/>
<text text-anchor="middle" x="926.5" y="-13" font-family="FreeSans.ttf" font-size="10.00">gazebo/physics/Link.hh</text>
</a>
</g>
</g>
<!-- Node4&#45;&gt;Node9 -->
<g id="edge8" class="edge">
<title>Node4&#45;&gt;Node9</title>
<path fill="none" stroke="midnightblue" d="M778.29,-67.48C808.09,-57.22 858.29,-39.96 891.9,-28.4"/>
<polygon fill="midnightblue" stroke="midnightblue" points="893.44,-31.57 901.76,-25.01 891.16,-24.95 893.44,-31.57"/>
</g>
<!-- Node10 -->
<g id="node10" class="node">
<title>Node10</title>
<g id="a_node10"><a xlink:title=" ">
<polygon fill="none" stroke="#bfbfbf" points="1009.5,-6 1009.5,-25 1129.5,-25 1129.5,-6 1009.5,-6"/>
<text text-anchor="middle" x="1069.5" y="-13" font-family="FreeSans.ttf" font-size="10.00">yarp/os/Semaphore.h</text>
</a>
</g>
</g>
<!-- Node4&#45;&gt;Node10 -->
<g id="edge9" class="edge">
<title>Node4&#45;&gt;Node10</title>
<path fill="none" stroke="midnightblue" d="M793.35,-69.08C842.22,-60.52 927.57,-45.3 1000.5,-31 1006.73,-29.78 1013.26,-28.46 1019.73,-27.13"/>
<polygon fill="midnightblue" stroke="midnightblue" points="1020.69,-30.5 1029.77,-25.04 1019.26,-23.65 1020.69,-30.5"/>
</g>
<!-- Node11 -->
<g id="node11" class="node">
<title>Node11</title>
<g id="a_node11"><a xlink:title=" ">
<polygon fill="none" stroke="#bfbfbf" points="1147.5,-6 1147.5,-25 1185.5,-25 1185.5,-6 1147.5,-6"/>
<text text-anchor="middle" x="1166.5" y="-13" font-family="FreeSans.ttf" font-size="10.00">map</text>
</a>
</g>
</g>
<!-- Node4&#45;&gt;Node11 -->
<g id="edge11" class="edge">
<title>Node4&#45;&gt;Node11</title>
<path fill="none" stroke="midnightblue" d="M793.26,-76.03C864.19,-75.05 1016.56,-68.33 1138.5,-31 1139.97,-30.55 1141.46,-30.02 1142.94,-29.44"/>
<polygon fill="midnightblue" stroke="midnightblue" points="1144.79,-32.44 1152.39,-25.06 1141.85,-26.09 1144.79,-32.44"/>
</g>
<!-- Node12 -->
<g id="node12" class="node">
<title>Node12</title>
<g id="a_node12"><a xlink:title=" ">
<polygon fill="none" stroke="#bfbfbf" points="1203.5,-6 1203.5,-25 1251.5,-25 1251.5,-6 1203.5,-6"/>
<text text-anchor="middle" x="1227.5" y="-13" font-family="FreeSans.ttf" font-size="10.00">mutex</text>
</a>
</g>
</g>
<!-- Node4&#45;&gt;Node12 -->
<g id="edge12" class="edge">
<title>Node4&#45;&gt;Node12</title>
<path fill="none" stroke="midnightblue" d="M793.17,-76.06C871.31,-75.28 1050.13,-69.07 1194.5,-31 1196.8,-30.39 1199.14,-29.65 1201.46,-28.82"/>
<polygon fill="midnightblue" stroke="midnightblue" points="1202.78,-32.06 1210.74,-25.07 1200.15,-25.57 1202.78,-32.06"/>
</g>
<!-- Node13 -->
<g id="node13" class="node">
<title>Node13</title>
<g id="a_node13"><a xlink:title=" ">
<polygon fill="none" stroke="#bfbfbf" points="1270,-6 1270,-25 1317,-25 1317,-6 1270,-6"/>
<text text-anchor="middle" x="1293.5" y="-13" font-family="FreeSans.ttf" font-size="10.00">queue</text>
</a>
</g>
</g>
<!-- Node4&#45;&gt;Node13 -->
<g id="edge13" class="edge">
<title>Node4&#45;&gt;Node13</title>
<path fill="none" stroke="midnightblue" d="M793.03,-76.81C879.35,-77.65 1090.6,-74.61 1260.5,-31 1262.8,-30.41 1265.15,-29.67 1267.47,-28.85"/>
<polygon fill="midnightblue" stroke="midnightblue" points="1268.78,-32.1 1276.75,-25.12 1266.17,-25.6 1268.78,-32.1"/>
</g>
</g>
</svg>
