<?xml version="1.0" encoding="UTF-8" standalone="no"?>
<!DOCTYPE svg PUBLIC "-//W3C//DTD SVG 1.1//EN"
 "http://www.w3.org/Graphics/SVG/1.1/DTD/svg11.dtd">
<!-- Generated by graphviz version 3.0.0 (20220315.2325)
 -->
<!-- Title: worldproxy.h Pages: 1 -->
<svg width="1326pt" height="95pt"
 viewBox="0.00 0.00 1325.50 95.00" xmlns="http://www.w3.org/2000/svg" xmlns:xlink="http://www.w3.org/1999/xlink">
<g id="graph0" class="graph" transform="scale(1 1) rotate(0) translate(4 91)">
<title>worldproxy.h</title>
<!-- Node1 -->
<g id="node1" class="node">
<title>Node1</title>
<g id="a_node1"><a xlink:title=" ">
<polygon fill="#bfbfbf" stroke="black" points="756.5,-67.5 756.5,-86.5 835.5,-86.5 835.5,-67.5 756.5,-67.5"/>
<text text-anchor="middle" x="796" y="-74.5" font-family="FreeSans.ttf" font-size="10.00">worldproxy.h</text>
</a>
</g>
</g>
<!-- Node2 -->
<g id="node2" class="node">
<title>Node2</title>
<g id="a_node2"><a xlink:title=" ">
<polygon fill="none" stroke="#bfbfbf" points="0,-6 0,-25 140,-25 140,-6 0,-6"/>
<text text-anchor="middle" x="70" y="-13" font-family="FreeSans.ttf" font-size="10.00">gazebo/physics/Model.hh</text>
</a>
</g>
</g>
<!-- Node1&#45;&gt;Node2 -->
<g id="edge1" class="edge">
<title>Node1&#45;&gt;Node2</title>
<path fill="none" stroke="midnightblue" d="M756.46,-74.79C655.14,-71.37 378.01,-59.89 149,-31 140.15,-29.88 130.8,-28.42 121.74,-26.85"/>
<polygon fill="midnightblue" stroke="midnightblue" points="122.14,-23.37 111.68,-25.05 120.91,-30.26 122.14,-23.37"/>
</g>
<!-- Node3 -->
<g id="node3" class="node">
<title>Node3</title>
<g id="a_node3"><a xlink:title=" ">
<polygon fill="none" stroke="#bfbfbf" points="158.5,-6 158.5,-25 295.5,-25 295.5,-6 158.5,-6"/>
<text text-anchor="middle" x="227" y="-13" font-family="FreeSans.ttf" font-size="10.00">gazebo/physics/World.hh</text>
</a>
</g>
</g>
<!-- Node1&#45;&gt;Node3 -->
<g id="edge2" class="edge">
<title>Node1&#45;&gt;Node3</title>
<path fill="none" stroke="midnightblue" d="M756.31,-73.65C672.49,-68.41 471.35,-54.36 304,-31 295.67,-29.84 286.88,-28.39 278.33,-26.87"/>
<polygon fill="midnightblue" stroke="midnightblue" points="278.91,-23.41 268.44,-25.05 277.64,-30.3 278.91,-23.41"/>
</g>
<!-- Node4 -->
<g id="node4" class="node">
<title>Node4</title>
<g id="a_node4"><a xlink:title=" ">
<polygon fill="none" stroke="#bfbfbf" points="313.5,-6 313.5,-25 444.5,-25 444.5,-6 313.5,-6"/>
<text text-anchor="middle" x="379" y="-13" font-family="FreeSans.ttf" font-size="10.00">gazebo/physics/Joint.hh</text>
</a>
</g>
</g>
<!-- Node1&#45;&gt;Node4 -->
<g id="edge3" class="edge">
<title>Node1&#45;&gt;Node4</title>
<path fill="none" stroke="midnightblue" d="M756.27,-71.61C692.25,-64.36 562.36,-48.87 453,-31 445.54,-29.78 437.69,-28.38 429.99,-26.93"/>
<polygon fill="midnightblue" stroke="midnightblue" points="430.5,-23.46 420.02,-25.02 429.18,-30.34 430.5,-23.46"/>
</g>
<!-- Node5 -->
<g id="node5" class="node">
<title>Node5</title>
<g id="a_node5"><a xlink:title=" ">
<polygon fill="none" stroke="#bfbfbf" points="462.5,-6 462.5,-25 641.5,-25 641.5,-6 462.5,-6"/>
<text text-anchor="middle" x="552" y="-13" font-family="FreeSans.ttf" font-size="10.00">gazebo/physics/PhysicsEngine.hh</text>
</a>
</g>
</g>
<!-- Node1&#45;&gt;Node5 -->
<g id="edge4" class="edge">
<title>Node1&#45;&gt;Node5</title>
<path fill="none" stroke="midnightblue" d="M761.04,-67.48C717.83,-56.94 644.21,-38.99 596.87,-27.44"/>
<polygon fill="midnightblue" stroke="midnightblue" points="597.44,-23.98 586.89,-25.01 595.78,-30.78 597.44,-23.98"/>
</g>
<!-- Node6 -->
<g id="node6" class="node">
<title>Node6</title>
<g id="a_node6"><a xlink:title=" ">
<polygon fill="none" stroke="#bfbfbf" points="660,-6 660,-25 790,-25 790,-6 660,-6"/>
<text text-anchor="middle" x="725" y="-13" font-family="FreeSans.ttf" font-size="10.00">gazebo/physics/Link.hh</text>
</a>
</g>
</g>
<!-- Node1&#45;&gt;Node6 -->
<g id="edge5" class="edge">
<title>Node1&#45;&gt;Node6</title>
<path fill="none" stroke="midnightblue" d="M785.83,-67.48C774.65,-58.11 756.48,-42.88 742.91,-31.51"/>
<polygon fill="midnightblue" stroke="midnightblue" points="745.07,-28.75 735.15,-25.01 740.57,-34.11 745.07,-28.75"/>
</g>
<!-- Node7 -->
<g id="node7" class="node">
<title>Node7</title>
<g id="a_node7"><a xlink:title=" ">
<polygon fill="none" stroke="#bfbfbf" points="808,-6 808,-25 928,-25 928,-6 808,-6"/>
<text text-anchor="middle" x="868" y="-13" font-family="FreeSans.ttf" font-size="10.00">yarp/os/Semaphore.h</text>
</a>
</g>
</g>
<!-- Node1&#45;&gt;Node7 -->
<g id="edge6" class="edge">
<title>Node1&#45;&gt;Node7</title>
<path fill="none" stroke="midnightblue" d="M806.32,-67.48C817.65,-58.11 836.07,-42.88 849.84,-31.51"/>
<polygon fill="midnightblue" stroke="midnightblue" points="852.22,-34.08 857.7,-25.01 847.77,-28.68 852.22,-34.08"/>
</g>
<!-- Node8 -->
<g id="node8" class="node">
<title>Node8</title>
<g id="a_node8"><a xlink:title=" ">
<polygon fill="none" stroke="#bfbfbf" points="946.5,-0.5 946.5,-30.5 1129.5,-30.5 1129.5,-0.5 946.5,-0.5"/>
<text text-anchor="start" x="954.5" y="-18.5" font-family="FreeSans.ttf" font-size="10.00">GazeboYarpPlugins/WorldInterface</text>
<text text-anchor="middle" x="1038" y="-7.5" font-family="FreeSans.ttf" font-size="10.00">Server.h</text>
</a>
</g>
</g>
<!-- Node1&#45;&gt;Node8 -->
<g id="edge7" class="edge">
<title>Node1&#45;&gt;Node8</title>
<path fill="none" stroke="midnightblue" d="M830.67,-67.48C867.2,-58.49 925.63,-44.13 971.16,-32.93"/>
<polygon fill="midnightblue" stroke="midnightblue" points="972.09,-36.31 980.97,-30.52 970.42,-29.51 972.09,-36.31"/>
</g>
<!-- Node9 -->
<g id="node9" class="node">
<title>Node9</title>
<g id="a_node9"><a xlink:title=" ">
<polygon fill="none" stroke="#bfbfbf" points="1148,-6 1148,-25 1186,-25 1186,-6 1148,-6"/>
<text text-anchor="middle" x="1167" y="-13" font-family="FreeSans.ttf" font-size="10.00">map</text>
</a>
</g>
</g>
<!-- Node1&#45;&gt;Node9 -->
<g id="edge8" class="edge">
<title>Node1&#45;&gt;Node9</title>
<path fill="none" stroke="midnightblue" d="M835.53,-75.23C900.36,-73 1032.7,-64.36 1139,-31 1140.47,-30.54 1141.95,-30 1143.43,-29.42"/>
<polygon fill="midnightblue" stroke="midnightblue" points="1145.29,-32.41 1152.88,-25.02 1142.34,-26.07 1145.29,-32.41"/>
</g>
<!-- Node10 -->
<g id="node10" class="node">
<title>Node10</title>
<g id="a_node10"><a xlink:title=" ">
<polygon fill="none" stroke="#bfbfbf" points="1204,-6 1204,-25 1252,-25 1252,-6 1204,-6"/>
<text text-anchor="middle" x="1228" y="-13" font-family="FreeSans.ttf" font-size="10.00">mutex</text>
</a>
</g>
</g>
<!-- Node1&#45;&gt;Node10 -->
<g id="edge9" class="edge">
<title>Node1&#45;&gt;Node10</title>
<path fill="none" stroke="midnightblue" d="M835.53,-75.46C908.02,-73.62 1066.61,-65.59 1195,-31 1197.29,-30.38 1199.63,-29.63 1201.95,-28.79"/>
<polygon fill="midnightblue" stroke="midnightblue" points="1203.27,-32.03 1211.23,-25.04 1200.65,-25.55 1203.27,-32.03"/>
</g>
<!-- Node11 -->
<g id="node11" class="node">
<title>Node11</title>
<g id="a_node11"><a xlink:title=" ">
<polygon fill="none" stroke="#bfbfbf" points="1270.5,-6 1270.5,-25 1317.5,-25 1317.5,-6 1270.5,-6"/>
<text text-anchor="middle" x="1294" y="-13" font-family="FreeSans.ttf" font-size="10.00">queue</text>
</a>
</g>
</g>
<!-- Node1&#45;&gt;Node11 -->
<g id="edge10" class="edge">
<title>Node1&#45;&gt;Node11</title>
<path fill="none" stroke="midnightblue" d="M835.62,-76.36C916.81,-76.18 1107.38,-71.08 1261,-31 1263.3,-30.4 1265.64,-29.66 1267.97,-28.83"/>
<polygon fill="midnightblue" stroke="midnightblue" points="1269.28,-32.08 1277.24,-25.09 1266.66,-25.59 1269.28,-32.08"/>
</g>
</g>
</svg>
