<?xml version="1.0" encoding="UTF-8" standalone="no"?>
<!DOCTYPE svg PUBLIC "-//W3C//DTD SVG 1.1//EN"
 "http://www.w3.org/Graphics/SVG/1.1/DTD/svg11.dtd">
<!-- Generated by graphviz version 2.43.0 (0)
 -->
<!-- Title: worldinterface.h Pages: 1 -->
<svg width="1270pt" height="196pt"
 viewBox="0.00 0.00 1269.50 196.00" xmlns="http://www.w3.org/2000/svg" xmlns:xlink="http://www.w3.org/1999/xlink">
<g id="graph0" class="graph" transform="scale(1 1) rotate(0) translate(4 192)">
<title>worldinterface.h</title>
<!-- Node1 -->
<g id="node1" class="node">
<title>Node1</title>
<g id="a_node1"><a xlink:title=" ">
<polygon fill="#bfbfbf" stroke="black" points="690,-168.5 690,-187.5 786,-187.5 786,-168.5 690,-168.5"/>
<text text-anchor="middle" x="738" y="-175.5" font-family="FreeSans.ttf" font-size="10.00">worldinterface.h</text>
</a>
</g>
</g>
<!-- Node2 -->
<g id="node2" class="node">
<title>Node2</title>
<g id="a_node2"><a xlink:title=" ">
<polygon fill="none" stroke="#bfbfbf" points="398.5,-112.5 398.5,-131.5 503.5,-131.5 503.5,-112.5 398.5,-112.5"/>
<text text-anchor="middle" x="451" y="-119.5" font-family="FreeSans.ttf" font-size="10.00">gazebo/gazebo.hh</text>
</a>
</g>
</g>
<!-- Node1&#45;&gt;Node2 -->
<g id="edge1" class="edge">
<title>Node1&#45;&gt;Node2</title>
<path fill="none" stroke="midnightblue" d="M692.52,-168.44C642.04,-158.94 560.54,-143.61 506.38,-133.42"/>
<polygon fill="midnightblue" stroke="midnightblue" points="506.74,-129.93 496.26,-131.52 505.44,-136.81 506.74,-129.93"/>
</g>
<!-- Node3 -->
<g id="node3" class="node">
<title>Node3</title>
<g id="a_node3"><a xlink:href="worldinterfaceserverimpl_8h.html" target="_top" xlink:title=" ">
<polygon fill="none" stroke="black" points="521.5,-112.5 521.5,-131.5 670.5,-131.5 670.5,-112.5 521.5,-112.5"/>
<text text-anchor="middle" x="596" y="-119.5" font-family="FreeSans.ttf" font-size="10.00">worldinterfaceserverimpl.h</text>
</a>
</g>
</g>
<!-- Node1&#45;&gt;Node3 -->
<g id="edge2" class="edge">
<title>Node1&#45;&gt;Node3</title>
<path fill="none" stroke="midnightblue" d="M715.5,-168.44C691.92,-159.48 654.68,-145.31 628.04,-135.18"/>
<polygon fill="midnightblue" stroke="midnightblue" points="628.99,-131.8 618.4,-131.52 626.5,-138.34 628.99,-131.8"/>
</g>
<!-- Node5 -->
<g id="node5" class="node">
<title>Node5</title>
<g id="a_node5"><a xlink:href="worldproxy_8h.html" target="_top" xlink:title=" ">
<polygon fill="none" stroke="black" points="658.5,-56.5 658.5,-75.5 737.5,-75.5 737.5,-56.5 658.5,-56.5"/>
<text text-anchor="middle" x="698" y="-63.5" font-family="FreeSans.ttf" font-size="10.00">worldproxy.h</text>
</a>
</g>
</g>
<!-- Node1&#45;&gt;Node5 -->
<g id="edge15" class="edge">
<title>Node1&#45;&gt;Node5</title>
<path fill="none" stroke="midnightblue" d="M733.41,-168.21C728.85,-159.26 721.87,-144.91 717,-132 711.17,-116.53 706.01,-98.44 702.55,-85.28"/>
<polygon fill="midnightblue" stroke="midnightblue" points="705.93,-84.37 700.06,-75.55 699.14,-86.1 705.93,-84.37"/>
</g>
<!-- Node15 -->
<g id="node15" class="node">
<title>Node15</title>
<g id="a_node15"><a xlink:title=" ">
<polygon fill="none" stroke="#bfbfbf" points="726,-112.5 726,-131.5 832,-131.5 832,-112.5 726,-112.5"/>
<text text-anchor="middle" x="779" y="-119.5" font-family="FreeSans.ttf" font-size="10.00">yarp/os/Network.h</text>
</a>
</g>
</g>
<!-- Node1&#45;&gt;Node15 -->
<g id="edge16" class="edge">
<title>Node1&#45;&gt;Node15</title>
<path fill="none" stroke="midnightblue" d="M744.77,-168.08C750.56,-160.46 759.06,-149.26 766.14,-139.94"/>
<polygon fill="midnightblue" stroke="midnightblue" points="769.1,-141.83 772.36,-131.75 763.52,-137.6 769.1,-141.83"/>
</g>
<!-- Node16 -->
<g id="node16" class="node">
<title>Node16</title>
<g id="a_node16"><a xlink:title=" ">
<polygon fill="none" stroke="#bfbfbf" points="850.5,-112.5 850.5,-131.5 963.5,-131.5 963.5,-112.5 850.5,-112.5"/>
<text text-anchor="middle" x="907" y="-119.5" font-family="FreeSans.ttf" font-size="10.00">yarp/os/RpcServer.h</text>
</a>
</g>
</g>
<!-- Node1&#45;&gt;Node16 -->
<g id="edge17" class="edge">
<title>Node1&#45;&gt;Node16</title>
<path fill="none" stroke="midnightblue" d="M764.78,-168.44C793.33,-159.32 838.73,-144.81 870.54,-134.65"/>
<polygon fill="midnightblue" stroke="midnightblue" points="871.89,-137.89 880.35,-131.52 869.76,-131.23 871.89,-137.89"/>
</g>
<!-- Node17 -->
<g id="node17" class="node">
<title>Node17</title>
<g id="a_node17"><a xlink:title=" ">
<polygon fill="none" stroke="#bfbfbf" points="982,-112.5 982,-131.5 1086,-131.5 1086,-112.5 982,-112.5"/>
<text text-anchor="middle" x="1034" y="-119.5" font-family="FreeSans.ttf" font-size="10.00">yarp/os/Property.h</text>
</a>
</g>
</g>
<!-- Node1&#45;&gt;Node17 -->
<g id="edge18" class="edge">
<title>Node1&#45;&gt;Node17</title>
<path fill="none" stroke="midnightblue" d="M784.9,-168.44C837.08,-158.92 921.37,-143.55 977.23,-133.36"/>
<polygon fill="midnightblue" stroke="midnightblue" points="978.11,-136.75 987.32,-131.52 976.85,-129.87 978.11,-136.75"/>
</g>
<!-- Node4 -->
<g id="node4" class="node">
<title>Node4</title>
<g id="a_node4"><a xlink:title=" ">
<polygon fill="none" stroke="#bfbfbf" points="0,-0.5 0,-19.5 128,-19.5 128,-0.5 0,-0.5"/>
<text text-anchor="middle" x="64" y="-7.5" font-family="FreeSans.ttf" font-size="10.00">WorldInterfaceServer.h</text>
</a>
</g>
</g>
<!-- Node3&#45;&gt;Node4 -->
<g id="edge3" class="edge">
<title>Node3&#45;&gt;Node4</title>
<path fill="none" stroke="midnightblue" d="M554.7,-112.46C458.66,-92.6 220.51,-43.36 115.33,-21.61"/>
<polygon fill="midnightblue" stroke="midnightblue" points="115.78,-18.13 105.28,-19.53 114.36,-24.99 115.78,-18.13"/>
</g>
<!-- Node3&#45;&gt;Node5 -->
<g id="edge4" class="edge">
<title>Node3&#45;&gt;Node5</title>
<path fill="none" stroke="midnightblue" d="M612.39,-112.32C628.67,-103.7 653.87,-90.36 672.72,-80.39"/>
<polygon fill="midnightblue" stroke="midnightblue" points="674.45,-83.43 681.65,-75.65 671.18,-77.24 674.45,-83.43"/>
</g>
<!-- Node5&#45;&gt;Node4 -->
<g id="edge11" class="edge">
<title>Node5&#45;&gt;Node4</title>
<path fill="none" stroke="midnightblue" d="M658.5,-62.41C568.32,-56.38 340.13,-40.41 138.28,-20.09"/>
<polygon fill="midnightblue" stroke="midnightblue" points="138.38,-16.58 128.08,-19.06 137.67,-23.55 138.38,-16.58"/>
</g>
<!-- Node6 -->
<g id="node6" class="node">
<title>Node6</title>
<g id="a_node6"><a xlink:title=" ">
<polygon fill="none" stroke="#bfbfbf" points="146,-0.5 146,-19.5 286,-19.5 286,-0.5 146,-0.5"/>
<text text-anchor="middle" x="216" y="-7.5" font-family="FreeSans.ttf" font-size="10.00">gazebo/physics/Model.hh</text>
</a>
</g>
</g>
<!-- Node5&#45;&gt;Node6 -->
<g id="edge5" class="edge">
<title>Node5&#45;&gt;Node6</title>
<path fill="none" stroke="midnightblue" d="M658.24,-60.59C587.63,-52.75 435.44,-35.83 296.21,-20.13"/>
<polygon fill="midnightblue" stroke="midnightblue" points="296.54,-16.65 286.21,-19.01 295.76,-23.61 296.54,-16.65"/>
</g>
<!-- Node7 -->
<g id="node7" class="node">
<title>Node7</title>
<g id="a_node7"><a xlink:title=" ">
<polygon fill="none" stroke="#bfbfbf" points="304.5,-0.5 304.5,-19.5 441.5,-19.5 441.5,-0.5 304.5,-0.5"/>
<text text-anchor="middle" x="373" y="-7.5" font-family="FreeSans.ttf" font-size="10.00">gazebo/physics/World.hh</text>
</a>
</g>
</g>
<!-- Node5&#45;&gt;Node7 -->
<g id="edge6" class="edge">
<title>Node5&#45;&gt;Node7</title>
<path fill="none" stroke="midnightblue" d="M658.47,-58.43C602.67,-49.16 500.28,-32.15 434.5,-21.22"/>
<polygon fill="midnightblue" stroke="midnightblue" points="434.7,-17.7 424.27,-19.52 433.56,-24.61 434.7,-17.7"/>
</g>
<!-- Node8 -->
<g id="node8" class="node">
<title>Node8</title>
<g id="a_node8"><a xlink:title=" ">
<polygon fill="none" stroke="#bfbfbf" points="459.5,-0.5 459.5,-19.5 590.5,-19.5 590.5,-0.5 459.5,-0.5"/>
<text text-anchor="middle" x="525" y="-7.5" font-family="FreeSans.ttf" font-size="10.00">gazebo/physics/Joint.hh</text>
</a>
</g>
</g>
<!-- Node5&#45;&gt;Node8 -->
<g id="edge7" class="edge">
<title>Node5&#45;&gt;Node8</title>
<path fill="none" stroke="midnightblue" d="M670.59,-56.44C641.23,-47.28 594.48,-32.69 561.9,-22.52"/>
<polygon fill="midnightblue" stroke="midnightblue" points="562.87,-19.16 552.28,-19.52 560.79,-25.84 562.87,-19.16"/>
</g>
<!-- Node9 -->
<g id="node9" class="node">
<title>Node9</title>
<g id="a_node9"><a xlink:title=" ">
<polygon fill="none" stroke="#bfbfbf" points="608.5,-0.5 608.5,-19.5 787.5,-19.5 787.5,-0.5 608.5,-0.5"/>
<text text-anchor="middle" x="698" y="-7.5" font-family="FreeSans.ttf" font-size="10.00">gazebo/physics/PhysicsEngine.hh</text>
</a>
</g>
</g>
<!-- Node5&#45;&gt;Node9 -->
<g id="edge8" class="edge">
<title>Node5&#45;&gt;Node9</title>
<path fill="none" stroke="midnightblue" d="M698,-56.08C698,-49.01 698,-38.86 698,-29.99"/>
<polygon fill="midnightblue" stroke="midnightblue" points="701.5,-29.75 698,-19.75 694.5,-29.75 701.5,-29.75"/>
</g>
<!-- Node10 -->
<g id="node10" class="node">
<title>Node10</title>
<g id="a_node10"><a xlink:title=" ">
<polygon fill="none" stroke="#bfbfbf" points="806,-0.5 806,-19.5 936,-19.5 936,-0.5 806,-0.5"/>
<text text-anchor="middle" x="871" y="-7.5" font-family="FreeSans.ttf" font-size="10.00">gazebo/physics/Link.hh</text>
</a>
</g>
</g>
<!-- Node5&#45;&gt;Node10 -->
<g id="edge9" class="edge">
<title>Node5&#45;&gt;Node10</title>
<path fill="none" stroke="midnightblue" d="M725.41,-56.44C754.77,-47.28 801.52,-32.69 834.1,-22.52"/>
<polygon fill="midnightblue" stroke="midnightblue" points="835.21,-25.84 843.72,-19.52 833.13,-19.16 835.21,-25.84"/>
</g>
<!-- Node11 -->
<g id="node11" class="node">
<title>Node11</title>
<g id="a_node11"><a xlink:title=" ">
<polygon fill="none" stroke="#bfbfbf" points="954,-0.5 954,-19.5 1074,-19.5 1074,-0.5 954,-0.5"/>
<text text-anchor="middle" x="1014" y="-7.5" font-family="FreeSans.ttf" font-size="10.00">yarp/os/Semaphore.h</text>
</a>
</g>
</g>
<!-- Node5&#45;&gt;Node11 -->
<g id="edge10" class="edge">
<title>Node5&#45;&gt;Node11</title>
<path fill="none" stroke="midnightblue" d="M737.7,-58.22C792.22,-48.9 890.71,-32.07 954.19,-21.22"/>
<polygon fill="midnightblue" stroke="midnightblue" points="954.79,-24.67 964.06,-19.53 953.61,-17.77 954.79,-24.67"/>
</g>
<!-- Node12 -->
<g id="node12" class="node">
<title>Node12</title>
<g id="a_node12"><a xlink:title=" ">
<polygon fill="none" stroke="#bfbfbf" points="1092,-0.5 1092,-19.5 1130,-19.5 1130,-0.5 1092,-0.5"/>
<text text-anchor="middle" x="1111" y="-7.5" font-family="FreeSans.ttf" font-size="10.00">map</text>
</a>
</g>
</g>
<!-- Node5&#45;&gt;Node12 -->
<g id="edge12" class="edge">
<title>Node5&#45;&gt;Node12</title>
<path fill="none" stroke="midnightblue" d="M737.77,-62.91C806.37,-58.75 951.4,-47.54 1082.07,-19.81"/>
<polygon fill="midnightblue" stroke="midnightblue" points="1082.82,-23.23 1091.85,-17.7 1081.34,-16.39 1082.82,-23.23"/>
</g>
<!-- Node13 -->
<g id="node13" class="node">
<title>Node13</title>
<g id="a_node13"><a xlink:title=" ">
<polygon fill="none" stroke="#bfbfbf" points="1148,-0.5 1148,-19.5 1196,-19.5 1196,-0.5 1148,-0.5"/>
<text text-anchor="middle" x="1172" y="-7.5" font-family="FreeSans.ttf" font-size="10.00">mutex</text>
</a>
</g>
</g>
<!-- Node5&#45;&gt;Node13 -->
<g id="edge13" class="edge">
<title>Node5&#45;&gt;Node13</title>
<path fill="none" stroke="midnightblue" d="M737.54,-63.15C813.44,-59.13 984.83,-47.78 1137.9,-19.91"/>
<polygon fill="midnightblue" stroke="midnightblue" points="1138.76,-23.31 1147.96,-18.05 1137.49,-16.43 1138.76,-23.31"/>
</g>
<!-- Node14 -->
<g id="node14" class="node">
<title>Node14</title>
<g id="a_node14"><a xlink:title=" ">
<polygon fill="none" stroke="#bfbfbf" points="1214.5,-0.5 1214.5,-19.5 1261.5,-19.5 1261.5,-0.5 1214.5,-0.5"/>
<text text-anchor="middle" x="1238" y="-7.5" font-family="FreeSans.ttf" font-size="10.00">queue</text>
</a>
</g>
</g>
<!-- Node5&#45;&gt;Node14 -->
<g id="edge14" class="edge">
<title>Node5&#45;&gt;Node14</title>
<path fill="none" stroke="midnightblue" d="M737.76,-63.87C822.12,-60.96 1025.26,-51.23 1204.46,-19.76"/>
<polygon fill="midnightblue" stroke="midnightblue" points="1205.09,-23.2 1214.32,-18 1203.86,-16.31 1205.09,-23.2"/>
</g>
</g>
</svg>
