<?xml version="1.0" encoding="UTF-8" standalone="no"?>
<!DOCTYPE svg PUBLIC "-//W3C//DTD SVG 1.1//EN"
 "http://www.w3.org/Graphics/SVG/1.1/DTD/svg11.dtd">
<!-- Generated by graphviz version 2.43.0 (0)
 -->
<!-- Title: worldproxy.h Pages: 1 -->
<svg width="1270pt" height="84pt"
 viewBox="0.00 0.00 1269.50 84.00" xmlns="http://www.w3.org/2000/svg" xmlns:xlink="http://www.w3.org/1999/xlink">
<g id="graph0" class="graph" transform="scale(1 1) rotate(0) translate(4 80)">
<title>worldproxy.h</title>
<!-- Node1 -->
<g id="node1" class="node">
<title>Node1</title>
<g id="a_node1"><a xlink:title=" ">
<polygon fill="#bfbfbf" stroke="black" points="756.5,-56.5 756.5,-75.5 835.5,-75.5 835.5,-56.5 756.5,-56.5"/>
<text text-anchor="middle" x="796" y="-63.5" font-family="FreeSans.ttf" font-size="10.00">worldproxy.h</text>
</a>
</g>
</g>
<!-- Node2 -->
<g id="node2" class="node">
<title>Node2</title>
<g id="a_node2"><a xlink:title=" ">
<polygon fill="none" stroke="#bfbfbf" points="0,-0.5 0,-19.5 140,-19.5 140,-0.5 0,-0.5"/>
<text text-anchor="middle" x="70" y="-7.5" font-family="FreeSans.ttf" font-size="10.00">gazebo/physics/Model.hh</text>
</a>
</g>
</g>
<!-- Node1&#45;&gt;Node2 -->
<g id="edge1" class="edge">
<title>Node1&#45;&gt;Node2</title>
<path fill="none" stroke="midnightblue" d="M756.19,-62.84C656.24,-57.29 386.37,-41.51 150.34,-20.09"/>
<polygon fill="midnightblue" stroke="midnightblue" points="150.47,-16.58 140.19,-19.16 149.84,-23.55 150.47,-16.58"/>
</g>
<!-- Node3 -->
<g id="node3" class="node">
<title>Node3</title>
<g id="a_node3"><a xlink:title=" ">
<polygon fill="none" stroke="#bfbfbf" points="158.5,-0.5 158.5,-19.5 295.5,-19.5 295.5,-0.5 158.5,-0.5"/>
<text text-anchor="middle" x="227" y="-7.5" font-family="FreeSans.ttf" font-size="10.00">gazebo/physics/World.hh</text>
</a>
</g>
</g>
<!-- Node1&#45;&gt;Node3 -->
<g id="edge2" class="edge">
<title>Node1&#45;&gt;Node3</title>
<path fill="none" stroke="midnightblue" d="M756.43,-61.72C674.41,-54.85 479.67,-38.16 305.93,-20.18"/>
<polygon fill="midnightblue" stroke="midnightblue" points="306.15,-16.68 295.84,-19.13 305.42,-23.65 306.15,-16.68"/>
</g>
<!-- Node4 -->
<g id="node4" class="node">
<title>Node4</title>
<g id="a_node4"><a xlink:title=" ">
<polygon fill="none" stroke="#bfbfbf" points="313.5,-0.5 313.5,-19.5 444.5,-19.5 444.5,-0.5 313.5,-0.5"/>
<text text-anchor="middle" x="379" y="-7.5" font-family="FreeSans.ttf" font-size="10.00">gazebo/physics/Joint.hh</text>
</a>
</g>
</g>
<!-- Node1&#45;&gt;Node4 -->
<g id="edge3" class="edge">
<title>Node1&#45;&gt;Node4</title>
<path fill="none" stroke="midnightblue" d="M756.39,-59.87C687.29,-50.92 543.61,-32.32 454.83,-20.82"/>
<polygon fill="midnightblue" stroke="midnightblue" points="455.19,-17.34 444.82,-19.52 454.29,-24.28 455.19,-17.34"/>
</g>
<!-- Node5 -->
<g id="node5" class="node">
<title>Node5</title>
<g id="a_node5"><a xlink:title=" ">
<polygon fill="none" stroke="#bfbfbf" points="462.5,-0.5 462.5,-19.5 641.5,-19.5 641.5,-0.5 462.5,-0.5"/>
<text text-anchor="middle" x="552" y="-7.5" font-family="FreeSans.ttf" font-size="10.00">gazebo/physics/PhysicsEngine.hh</text>
</a>
</g>
</g>
<!-- Node1&#45;&gt;Node5 -->
<g id="edge4" class="edge">
<title>Node1&#45;&gt;Node5</title>
<path fill="none" stroke="midnightblue" d="M757.34,-56.44C714.86,-47.04 646.57,-31.93 600.53,-21.74"/>
<polygon fill="midnightblue" stroke="midnightblue" points="601,-18.26 590.48,-19.52 599.49,-25.09 601,-18.26"/>
</g>
<!-- Node6 -->
<g id="node6" class="node">
<title>Node6</title>
<g id="a_node6"><a xlink:title=" ">
<polygon fill="none" stroke="#bfbfbf" points="660,-0.5 660,-19.5 790,-19.5 790,-0.5 660,-0.5"/>
<text text-anchor="middle" x="725" y="-7.5" font-family="FreeSans.ttf" font-size="10.00">gazebo/physics/Link.hh</text>
</a>
</g>
</g>
<!-- Node1&#45;&gt;Node6 -->
<g id="edge5" class="edge">
<title>Node1&#45;&gt;Node6</title>
<path fill="none" stroke="midnightblue" d="M784.59,-56.32C773.89,-48.18 757.66,-35.84 744.84,-26.09"/>
<polygon fill="midnightblue" stroke="midnightblue" points="746.69,-23.1 736.61,-19.83 742.46,-28.67 746.69,-23.1"/>
</g>
<!-- Node7 -->
<g id="node7" class="node">
<title>Node7</title>
<g id="a_node7"><a xlink:title=" ">
<polygon fill="none" stroke="#bfbfbf" points="808,-0.5 808,-19.5 928,-19.5 928,-0.5 808,-0.5"/>
<text text-anchor="middle" x="868" y="-7.5" font-family="FreeSans.ttf" font-size="10.00">yarp/os/Semaphore.h</text>
</a>
</g>
</g>
<!-- Node1&#45;&gt;Node7 -->
<g id="edge6" class="edge">
<title>Node1&#45;&gt;Node7</title>
<path fill="none" stroke="midnightblue" d="M807.57,-56.32C818.42,-48.18 834.88,-35.84 847.88,-26.09"/>
<polygon fill="midnightblue" stroke="midnightblue" points="850.32,-28.63 856.22,-19.83 846.12,-23.03 850.32,-28.63"/>
</g>
<!-- Node8 -->
<g id="node8" class="node">
<title>Node8</title>
<g id="a_node8"><a xlink:title=" ">
<polygon fill="none" stroke="#bfbfbf" points="946,-0.5 946,-19.5 1074,-19.5 1074,-0.5 946,-0.5"/>
<text text-anchor="middle" x="1010" y="-7.5" font-family="FreeSans.ttf" font-size="10.00">WorldInterfaceServer.h</text>
</a>
</g>
</g>
<!-- Node1&#45;&gt;Node8 -->
<g id="edge7" class="edge">
<title>Node1&#45;&gt;Node8</title>
<path fill="none" stroke="midnightblue" d="M829.91,-56.44C866.85,-47.12 926.05,-32.18 966.42,-22"/>
<polygon fill="midnightblue" stroke="midnightblue" points="967.41,-25.36 976.25,-19.52 965.7,-18.57 967.41,-25.36"/>
</g>
<!-- Node9 -->
<g id="node9" class="node">
<title>Node9</title>
<g id="a_node9"><a xlink:title=" ">
<polygon fill="none" stroke="#bfbfbf" points="1092,-0.5 1092,-19.5 1130,-19.5 1130,-0.5 1092,-0.5"/>
<text text-anchor="middle" x="1111" y="-7.5" font-family="FreeSans.ttf" font-size="10.00">map</text>
</a>
</g>
</g>
<!-- Node1&#45;&gt;Node9 -->
<g id="edge8" class="edge">
<title>Node1&#45;&gt;Node9</title>
<path fill="none" stroke="midnightblue" d="M835.84,-60.74C889.7,-54.54 988.83,-41.62 1081.97,-19.93"/>
<polygon fill="midnightblue" stroke="midnightblue" points="1082.91,-23.3 1091.83,-17.59 1081.29,-16.49 1082.91,-23.3"/>
</g>
<!-- Node10 -->
<g id="node10" class="node">
<title>Node10</title>
<g id="a_node10"><a xlink:title=" ">
<polygon fill="none" stroke="#bfbfbf" points="1148,-0.5 1148,-19.5 1196,-19.5 1196,-0.5 1148,-0.5"/>
<text text-anchor="middle" x="1172" y="-7.5" font-family="FreeSans.ttf" font-size="10.00">mutex</text>
</a>
</g>
</g>
<!-- Node1&#45;&gt;Node10 -->
<g id="edge9" class="edge">
<title>Node1&#45;&gt;Node10</title>
<path fill="none" stroke="midnightblue" d="M835.64,-61.56C897.99,-55.78 1022.88,-42.64 1137.91,-19.97"/>
<polygon fill="midnightblue" stroke="midnightblue" points="1138.82,-23.36 1147.94,-17.97 1137.45,-16.5 1138.82,-23.36"/>
</g>
<!-- Node11 -->
<g id="node11" class="node">
<title>Node11</title>
<g id="a_node11"><a xlink:title=" ">
<polygon fill="none" stroke="#bfbfbf" points="1214.5,-0.5 1214.5,-19.5 1261.5,-19.5 1261.5,-0.5 1214.5,-0.5"/>
<text text-anchor="middle" x="1238" y="-7.5" font-family="FreeSans.ttf" font-size="10.00">queue</text>
</a>
</g>
</g>
<!-- Node1&#45;&gt;Node11 -->
<g id="edge10" class="edge">
<title>Node1&#45;&gt;Node11</title>
<path fill="none" stroke="midnightblue" d="M835.5,-62.72C907.12,-58.14 1063.24,-46.1 1204.19,-19.85"/>
<polygon fill="midnightblue" stroke="midnightblue" points="1205.14,-23.24 1214.31,-17.94 1203.83,-16.36 1205.14,-23.24"/>
</g>
</g>
</svg>
