<?xml version="1.0" encoding="UTF-8" standalone="no"?>
<!DOCTYPE svg PUBLIC "-//W3C//DTD SVG 1.1//EN"
 "http://www.w3.org/Graphics/SVG/1.1/DTD/svg11.dtd">
<!-- Generated by graphviz version 5.0.1 (20220821.0811)
 -->
<!-- Title: worldinterface.cpp Pages: 1 -->
<svg width="2087pt" height="263pt"
 viewBox="0.00 0.00 2086.50 263.00" xmlns="http://www.w3.org/2000/svg" xmlns:xlink="http://www.w3.org/1999/xlink">
<g id="graph0" class="graph" transform="scale(1 1) rotate(0) translate(4 259)">
<title>worldinterface.cpp</title>
<!-- Node1 -->
<g id="node1" class="node">
<title>Node1</title>
<g id="a_node1"><a xlink:title=" ">
<polygon fill="#bfbfbf" stroke="black" points="1095,-235.5 1095,-254.5 1202,-254.5 1202,-235.5 1095,-235.5"/>
<text text-anchor="middle" x="1148.5" y="-242.5" font-family="FreeSans.ttf" font-size="10.00">worldinterface.cpp</text>
</a>
</g>
</g>
<!-- Node2 -->
<g id="node2" class="node">
<title>Node2</title>
<g id="a_node2"><a xlink:href="worldinterface_8h.html" target="_top" xlink:title=" ">
<polygon fill="none" stroke="black" points="790.5,-179.5 790.5,-198.5 886.5,-198.5 886.5,-179.5 790.5,-179.5"/>
<text text-anchor="middle" x="838.5" y="-186.5" font-family="FreeSans.ttf" font-size="10.00">worldinterface.h</text>
</a>
</g>
</g>
<!-- Node1&#45;&gt;Node2 -->
<g id="edge1" class="edge">
<title>Node1&#45;&gt;Node2</title>
<path fill="none" stroke="midnightblue" d="M1099.38,-235.44C1044.38,-225.86 955.31,-210.35 896.82,-200.16"/>
<polygon fill="midnightblue" stroke="midnightblue" points="897.08,-196.65 886.63,-198.38 895.88,-203.55 897.08,-196.65"/>
</g>
<!-- Node16 -->
<g id="node16" class="node">
<title>Node16</title>
<g id="a_node16"><a xlink:title=" ">
<polygon fill="none" stroke="#bfbfbf" points="1035.5,-123.5 1035.5,-142.5 1141.5,-142.5 1141.5,-123.5 1035.5,-123.5"/>
<text text-anchor="middle" x="1088.5" y="-130.5" font-family="FreeSans.ttf" font-size="10.00">yarp/os/Network.h</text>
</a>
</g>
</g>
<!-- Node1&#45;&gt;Node16 -->
<g id="edge21" class="edge">
<title>Node1&#45;&gt;Node16</title>
<path fill="none" stroke="midnightblue" d="M1094.97,-239.46C1067.94,-234.14 1037.38,-222.83 1020.5,-199 1005.93,-178.44 1033.63,-159.05 1057.93,-146.89"/>
<polygon fill="midnightblue" stroke="midnightblue" points="1059.45,-150.05 1066.98,-142.6 1056.45,-143.72 1059.45,-150.05"/>
</g>
<!-- Node19 -->
<g id="node19" class="node">
<title>Node19</title>
<g id="a_node19"><a xlink:title=" ">
<polygon fill="none" stroke="#bfbfbf" points="1029.5,-179.5 1029.5,-198.5 1089.5,-198.5 1089.5,-179.5 1029.5,-179.5"/>
<text text-anchor="middle" x="1059.5" y="-186.5" font-family="FreeSans.ttf" font-size="10.00">iostream</text>
</a>
</g>
</g>
<!-- Node1&#45;&gt;Node19 -->
<g id="edge20" class="edge">
<title>Node1&#45;&gt;Node19</title>
<path fill="none" stroke="midnightblue" d="M1134.2,-235.32C1120.32,-226.9 1099.01,-213.97 1082.7,-204.07"/>
<polygon fill="midnightblue" stroke="midnightblue" points="1084.13,-200.85 1073.76,-198.65 1080.5,-206.83 1084.13,-200.85"/>
</g>
<!-- Node20 -->
<g id="node20" class="node">
<title>Node20</title>
<g id="a_node20"><a xlink:title=" ">
<polygon fill="none" stroke="#bfbfbf" points="1107.5,-179.5 1107.5,-198.5 1189.5,-198.5 1189.5,-179.5 1107.5,-179.5"/>
<text text-anchor="middle" x="1148.5" y="-186.5" font-family="FreeSans.ttf" font-size="10.00">yarp/os/Log.h</text>
</a>
</g>
</g>
<!-- Node1&#45;&gt;Node20 -->
<g id="edge22" class="edge">
<title>Node1&#45;&gt;Node20</title>
<path fill="none" stroke="midnightblue" d="M1148.5,-235.08C1148.5,-228.01 1148.5,-217.86 1148.5,-208.99"/>
<polygon fill="midnightblue" stroke="midnightblue" points="1152,-208.75 1148.5,-198.75 1145,-208.75 1152,-208.75"/>
</g>
<!-- Node21 -->
<g id="node21" class="node">
<title>Node21</title>
<g id="a_node21"><a xlink:title=" ">
<polygon fill="none" stroke="#bfbfbf" points="1208,-179.5 1208,-198.5 1325,-198.5 1325,-179.5 1208,-179.5"/>
<text text-anchor="middle" x="1266.5" y="-186.5" font-family="FreeSans.ttf" font-size="10.00">yarp/os/LogStream.h</text>
</a>
</g>
</g>
<!-- Node1&#45;&gt;Node21 -->
<g id="edge23" class="edge">
<title>Node1&#45;&gt;Node21</title>
<path fill="none" stroke="midnightblue" d="M1167.2,-235.44C1186.44,-226.64 1216.65,-212.81 1238.7,-202.72"/>
<polygon fill="midnightblue" stroke="midnightblue" points="1240.25,-205.86 1247.89,-198.52 1237.34,-199.5 1240.25,-205.86"/>
</g>
<!-- Node22 -->
<g id="node22" class="node">
<title>Node22</title>
<g id="a_node22"><a xlink:href="common_8h.html" target="_top" xlink:title=" ">
<polygon fill="none" stroke="black" points="1343.5,-179.5 1343.5,-198.5 1507.5,-198.5 1507.5,-179.5 1343.5,-179.5"/>
<text text-anchor="middle" x="1425.5" y="-186.5" font-family="FreeSans.ttf" font-size="10.00">GazeboYarpPlugins/common.h</text>
</a>
</g>
</g>
<!-- Node1&#45;&gt;Node22 -->
<g id="edge24" class="edge">
<title>Node1&#45;&gt;Node22</title>
<path fill="none" stroke="midnightblue" d="M1192.39,-235.44C1241.02,-225.96 1319.45,-210.67 1371.72,-200.48"/>
<polygon fill="midnightblue" stroke="midnightblue" points="1372.67,-203.87 1381.81,-198.52 1371.33,-196.99 1372.67,-203.87"/>
</g>
<!-- Node25 -->
<g id="node25" class="node">
<title>Node25</title>
<g id="a_node25"><a xlink:href="ConfHelpers_8hh.html" target="_top" xlink:title=" ">
<polygon fill="none" stroke="black" points="1544,-179.5 1544,-198.5 1731,-198.5 1731,-179.5 1544,-179.5"/>
<text text-anchor="middle" x="1637.5" y="-186.5" font-family="FreeSans.ttf" font-size="10.00">GazeboYarpPlugins/ConfHelpers.hh</text>
</a>
</g>
</g>
<!-- Node1&#45;&gt;Node25 -->
<g id="edge27" class="edge">
<title>Node1&#45;&gt;Node25</title>
<path fill="none" stroke="midnightblue" d="M1202.23,-238.07C1286.18,-228.8 1449.29,-210.78 1550.25,-199.63"/>
<polygon fill="midnightblue" stroke="midnightblue" points="1550.87,-203.09 1560.43,-198.51 1550.1,-196.13 1550.87,-203.09"/>
</g>
<!-- Node3 -->
<g id="node3" class="node">
<title>Node3</title>
<g id="a_node3"><a xlink:title=" ">
<polygon fill="none" stroke="#bfbfbf" points="454,-123.5 454,-142.5 559,-142.5 559,-123.5 454,-123.5"/>
<text text-anchor="middle" x="506.5" y="-130.5" font-family="FreeSans.ttf" font-size="10.00">gazebo/gazebo.hh</text>
</a>
</g>
</g>
<!-- Node2&#45;&gt;Node3 -->
<g id="edge2" class="edge">
<title>Node2&#45;&gt;Node3</title>
<path fill="none" stroke="midnightblue" d="M790.22,-180.15C731.76,-170.64 633.14,-154.6 568.94,-144.16"/>
<polygon fill="midnightblue" stroke="midnightblue" points="569.38,-140.68 558.95,-142.53 568.25,-147.59 569.38,-140.68"/>
</g>
<!-- Node4 -->
<g id="node4" class="node">
<title>Node4</title>
<g id="a_node4"><a xlink:href="worldinterfaceserverimpl_8h.html" target="_top" xlink:title=" ">
<polygon fill="none" stroke="black" points="577,-123.5 577,-142.5 726,-142.5 726,-123.5 577,-123.5"/>
<text text-anchor="middle" x="651.5" y="-130.5" font-family="FreeSans.ttf" font-size="10.00">worldinterfaceserverimpl.h</text>
</a>
</g>
</g>
<!-- Node2&#45;&gt;Node4 -->
<g id="edge3" class="edge">
<title>Node2&#45;&gt;Node4</title>
<path fill="none" stroke="midnightblue" d="M808.87,-179.44C777,-170.24 726.17,-155.56 690.94,-145.39"/>
<polygon fill="midnightblue" stroke="midnightblue" points="691.57,-141.93 680.99,-142.52 689.63,-148.65 691.57,-141.93"/>
</g>
<!-- Node6 -->
<g id="node6" class="node">
<title>Node6</title>
<g id="a_node6"><a xlink:href="worldproxy_8h.html" target="_top" xlink:title=" ">
<polygon fill="none" stroke="black" points="714,-67.5 714,-86.5 793,-86.5 793,-67.5 714,-67.5"/>
<text text-anchor="middle" x="753.5" y="-74.5" font-family="FreeSans.ttf" font-size="10.00">worldproxy.h</text>
</a>
</g>
</g>
<!-- Node2&#45;&gt;Node6 -->
<g id="edge16" class="edge">
<title>Node2&#45;&gt;Node6</title>
<path fill="none" stroke="midnightblue" d="M819.31,-179.44C804.47,-171.88 784.48,-159.49 772.5,-143 762.67,-129.48 757.9,-110.92 755.6,-97.1"/>
<polygon fill="midnightblue" stroke="midnightblue" points="759.02,-96.25 754.19,-86.81 752.08,-97.2 759.02,-96.25"/>
</g>
<!-- Node2&#45;&gt;Node16 -->
<g id="edge17" class="edge">
<title>Node2&#45;&gt;Node16</title>
<path fill="none" stroke="midnightblue" d="M878.11,-179.44C921.73,-170.02 991.9,-154.87 1039.08,-144.68"/>
<polygon fill="midnightblue" stroke="midnightblue" points="1040.04,-148.05 1049.07,-142.52 1038.56,-141.21 1040.04,-148.05"/>
</g>
<!-- Node17 -->
<g id="node17" class="node">
<title>Node17</title>
<g id="a_node17"><a xlink:title=" ">
<polygon fill="none" stroke="#bfbfbf" points="782,-123.5 782,-142.5 895,-142.5 895,-123.5 782,-123.5"/>
<text text-anchor="middle" x="838.5" y="-130.5" font-family="FreeSans.ttf" font-size="10.00">yarp/os/RpcServer.h</text>
</a>
</g>
</g>
<!-- Node2&#45;&gt;Node17 -->
<g id="edge18" class="edge">
<title>Node2&#45;&gt;Node17</title>
<path fill="none" stroke="midnightblue" d="M838.5,-179.08C838.5,-172.01 838.5,-161.86 838.5,-152.99"/>
<polygon fill="midnightblue" stroke="midnightblue" points="842,-152.75 838.5,-142.75 835,-152.75 842,-152.75"/>
</g>
<!-- Node18 -->
<g id="node18" class="node">
<title>Node18</title>
<g id="a_node18"><a xlink:title=" ">
<polygon fill="none" stroke="#bfbfbf" points="913.5,-123.5 913.5,-142.5 1017.5,-142.5 1017.5,-123.5 913.5,-123.5"/>
<text text-anchor="middle" x="965.5" y="-130.5" font-family="FreeSans.ttf" font-size="10.00">yarp/os/Property.h</text>
</a>
</g>
</g>
<!-- Node2&#45;&gt;Node18 -->
<g id="edge19" class="edge">
<title>Node2&#45;&gt;Node18</title>
<path fill="none" stroke="midnightblue" d="M858.62,-179.44C879.52,-170.56 912.43,-156.56 936.22,-146.45"/>
<polygon fill="midnightblue" stroke="midnightblue" points="937.64,-149.65 945.47,-142.52 934.9,-143.21 937.64,-149.65"/>
</g>
<!-- Node5 -->
<g id="node5" class="node">
<title>Node5</title>
<g id="a_node5"><a xlink:title=" ">
<polygon fill="none" stroke="#bfbfbf" points="0,-0.5 0,-30.5 183,-30.5 183,-0.5 0,-0.5"/>
<text text-anchor="start" x="8" y="-18.5" font-family="FreeSans.ttf" font-size="10.00">GazeboYarpPlugins/WorldInterface</text>
<text text-anchor="middle" x="91.5" y="-7.5" font-family="FreeSans.ttf" font-size="10.00">Server.h</text>
</a>
</g>
</g>
<!-- Node4&#45;&gt;Node5 -->
<g id="edge4" class="edge">
<title>Node4&#45;&gt;Node5</title>
<path fill="none" stroke="midnightblue" d="M609.87,-123.41C516.67,-104.19 290.02,-57.45 169.64,-32.62"/>
<polygon fill="midnightblue" stroke="midnightblue" points="170.25,-29.17 159.74,-30.58 168.83,-36.02 170.25,-29.17"/>
</g>
<!-- Node4&#45;&gt;Node6 -->
<g id="edge5" class="edge">
<title>Node4&#45;&gt;Node6</title>
<path fill="none" stroke="midnightblue" d="M667.89,-123.32C684.17,-114.7 709.37,-101.36 728.22,-91.39"/>
<polygon fill="midnightblue" stroke="midnightblue" points="729.95,-94.43 737.15,-86.65 726.68,-88.24 729.95,-94.43"/>
</g>
<!-- Node6&#45;&gt;Node5 -->
<g id="edge12" class="edge">
<title>Node6&#45;&gt;Node5</title>
<path fill="none" stroke="midnightblue" d="M713.97,-73.68C623.73,-68.21 395.43,-53.32 193.34,-31.04"/>
<polygon fill="midnightblue" stroke="midnightblue" points="193.45,-27.54 183.13,-29.91 192.68,-34.49 193.45,-27.54"/>
</g>
<!-- Node7 -->
<g id="node7" class="node">
<title>Node7</title>
<g id="a_node7"><a xlink:title=" ">
<polygon fill="none" stroke="#bfbfbf" points="201.5,-6 201.5,-25 341.5,-25 341.5,-6 201.5,-6"/>
<text text-anchor="middle" x="271.5" y="-13" font-family="FreeSans.ttf" font-size="10.00">gazebo/physics/Model.hh</text>
</a>
</g>
</g>
<!-- Node6&#45;&gt;Node7 -->
<g id="edge6" class="edge">
<title>Node6&#45;&gt;Node7</title>
<path fill="none" stroke="midnightblue" d="M713.91,-72.51C641.55,-65.93 483.18,-50.56 350.5,-31 342.17,-29.77 333.38,-28.32 324.8,-26.81"/>
<polygon fill="midnightblue" stroke="midnightblue" points="325.33,-23.35 314.87,-25.03 324.1,-30.24 325.33,-23.35"/>
</g>
<!-- Node8 -->
<g id="node8" class="node">
<title>Node8</title>
<g id="a_node8"><a xlink:title=" ">
<polygon fill="none" stroke="#bfbfbf" points="360,-6 360,-25 497,-25 497,-6 360,-6"/>
<text text-anchor="middle" x="428.5" y="-13" font-family="FreeSans.ttf" font-size="10.00">gazebo/physics/World.hh</text>
</a>
</g>
</g>
<!-- Node6&#45;&gt;Node8 -->
<g id="edge7" class="edge">
<title>Node6&#45;&gt;Node8</title>
<path fill="none" stroke="midnightblue" d="M713.97,-68.91C665.02,-60.11 579.08,-44.6 505.5,-31 498.42,-29.69 490.97,-28.3 483.62,-26.93"/>
<polygon fill="midnightblue" stroke="midnightblue" points="484.16,-23.47 473.69,-25.06 482.87,-30.35 484.16,-23.47"/>
</g>
<!-- Node9 -->
<g id="node9" class="node">
<title>Node9</title>
<g id="a_node9"><a xlink:title=" ">
<polygon fill="none" stroke="#bfbfbf" points="515,-6 515,-25 646,-25 646,-6 515,-6"/>
<text text-anchor="middle" x="580.5" y="-13" font-family="FreeSans.ttf" font-size="10.00">gazebo/physics/Joint.hh</text>
</a>
</g>
</g>
<!-- Node6&#45;&gt;Node9 -->
<g id="edge8" class="edge">
<title>Node6&#45;&gt;Node9</title>
<path fill="none" stroke="midnightblue" d="M728.71,-67.48C698.91,-57.22 648.71,-39.96 615.1,-28.4"/>
<polygon fill="midnightblue" stroke="midnightblue" points="615.84,-24.95 605.24,-25.01 613.56,-31.57 615.84,-24.95"/>
</g>
<!-- Node10 -->
<g id="node10" class="node">
<title>Node10</title>
<g id="a_node10"><a xlink:title=" ">
<polygon fill="none" stroke="#bfbfbf" points="664,-6 664,-25 843,-25 843,-6 664,-6"/>
<text text-anchor="middle" x="753.5" y="-13" font-family="FreeSans.ttf" font-size="10.00">gazebo/physics/PhysicsEngine.hh</text>
</a>
</g>
</g>
<!-- Node6&#45;&gt;Node10 -->
<g id="edge9" class="edge">
<title>Node6&#45;&gt;Node10</title>
<path fill="none" stroke="midnightblue" d="M753.5,-67.48C753.5,-59.08 753.5,-45.98 753.5,-35.16"/>
<polygon fill="midnightblue" stroke="midnightblue" points="757,-35.01 753.5,-25.01 750,-35.01 757,-35.01"/>
</g>
<!-- Node11 -->
<g id="node11" class="node">
<title>Node11</title>
<g id="a_node11"><a xlink:title=" ">
<polygon fill="none" stroke="#bfbfbf" points="861.5,-6 861.5,-25 991.5,-25 991.5,-6 861.5,-6"/>
<text text-anchor="middle" x="926.5" y="-13" font-family="FreeSans.ttf" font-size="10.00">gazebo/physics/Link.hh</text>
</a>
</g>
</g>
<!-- Node6&#45;&gt;Node11 -->
<g id="edge10" class="edge">
<title>Node6&#45;&gt;Node11</title>
<path fill="none" stroke="midnightblue" d="M778.29,-67.48C808.09,-57.22 858.29,-39.96 891.9,-28.4"/>
<polygon fill="midnightblue" stroke="midnightblue" points="893.44,-31.57 901.76,-25.01 891.16,-24.95 893.44,-31.57"/>
</g>
<!-- Node12 -->
<g id="node12" class="node">
<title>Node12</title>
<g id="a_node12"><a xlink:title=" ">
<polygon fill="none" stroke="#bfbfbf" points="1009.5,-6 1009.5,-25 1129.5,-25 1129.5,-6 1009.5,-6"/>
<text text-anchor="middle" x="1069.5" y="-13" font-family="FreeSans.ttf" font-size="10.00">yarp/os/Semaphore.h</text>
</a>
</g>
</g>
<!-- Node6&#45;&gt;Node12 -->
<g id="edge11" class="edge">
<title>Node6&#45;&gt;Node12</title>
<path fill="none" stroke="midnightblue" d="M793.35,-69.08C842.22,-60.52 927.57,-45.3 1000.5,-31 1006.73,-29.78 1013.26,-28.46 1019.73,-27.13"/>
<polygon fill="midnightblue" stroke="midnightblue" points="1020.69,-30.5 1029.77,-25.04 1019.26,-23.65 1020.69,-30.5"/>
</g>
<!-- Node13 -->
<g id="node13" class="node">
<title>Node13</title>
<g id="a_node13"><a xlink:title=" ">
<polygon fill="none" stroke="#bfbfbf" points="1147.5,-6 1147.5,-25 1185.5,-25 1185.5,-6 1147.5,-6"/>
<text text-anchor="middle" x="1166.5" y="-13" font-family="FreeSans.ttf" font-size="10.00">map</text>
</a>
</g>
</g>
<!-- Node6&#45;&gt;Node13 -->
<g id="edge13" class="edge">
<title>Node6&#45;&gt;Node13</title>
<path fill="none" stroke="midnightblue" d="M793.26,-76.03C864.19,-75.05 1016.56,-68.33 1138.5,-31 1139.97,-30.55 1141.46,-30.02 1142.94,-29.44"/>
<polygon fill="midnightblue" stroke="midnightblue" points="1144.79,-32.44 1152.39,-25.06 1141.85,-26.09 1144.79,-32.44"/>
</g>
<!-- Node14 -->
<g id="node14" class="node">
<title>Node14</title>
<g id="a_node14"><a xlink:title=" ">
<polygon fill="none" stroke="#bfbfbf" points="1203.5,-6 1203.5,-25 1251.5,-25 1251.5,-6 1203.5,-6"/>
<text text-anchor="middle" x="1227.5" y="-13" font-family="FreeSans.ttf" font-size="10.00">mutex</text>
</a>
</g>
</g>
<!-- Node6&#45;&gt;Node14 -->
<g id="edge14" class="edge">
<title>Node6&#45;&gt;Node14</title>
<path fill="none" stroke="midnightblue" d="M793.17,-76.06C871.31,-75.28 1050.13,-69.07 1194.5,-31 1196.8,-30.39 1199.14,-29.65 1201.46,-28.82"/>
<polygon fill="midnightblue" stroke="midnightblue" points="1202.78,-32.06 1210.74,-25.07 1200.15,-25.57 1202.78,-32.06"/>
</g>
<!-- Node15 -->
<g id="node15" class="node">
<title>Node15</title>
<g id="a_node15"><a xlink:title=" ">
<polygon fill="none" stroke="#bfbfbf" points="1270,-6 1270,-25 1317,-25 1317,-6 1270,-6"/>
<text text-anchor="middle" x="1293.5" y="-13" font-family="FreeSans.ttf" font-size="10.00">queue</text>
</a>
</g>
</g>
<!-- Node6&#45;&gt;Node15 -->
<g id="edge15" class="edge">
<title>Node6&#45;&gt;Node15</title>
<path fill="none" stroke="midnightblue" d="M793.03,-76.81C879.35,-77.65 1090.6,-74.61 1260.5,-31 1262.8,-30.41 1265.15,-29.67 1267.47,-28.85"/>
<polygon fill="midnightblue" stroke="midnightblue" points="1268.78,-32.1 1276.75,-25.12 1266.17,-25.6 1268.78,-32.1"/>
</g>
<!-- Node23 -->
<g id="node23" class="node">
<title>Node23</title>
<g id="a_node23"><a xlink:title=" ">
<polygon fill="none" stroke="#bfbfbf" points="1339.5,-123.5 1339.5,-142.5 1383.5,-142.5 1383.5,-123.5 1339.5,-123.5"/>
<text text-anchor="middle" x="1361.5" y="-130.5" font-family="FreeSans.ttf" font-size="10.00">string</text>
</a>
</g>
</g>
<!-- Node22&#45;&gt;Node23 -->
<g id="edge25" class="edge">
<title>Node22&#45;&gt;Node23</title>
<path fill="none" stroke="midnightblue" d="M1415.22,-179.32C1405.66,-171.26 1391.22,-159.08 1379.72,-149.37"/>
<polygon fill="midnightblue" stroke="midnightblue" points="1381.87,-146.61 1371.97,-142.83 1377.36,-151.96 1381.87,-146.61"/>
</g>
<!-- Node24 -->
<g id="node24" class="node">
<title>Node24</title>
<g id="a_node24"><a xlink:title=" ">
<polygon fill="none" stroke="#bfbfbf" points="1402,-123.5 1402,-142.5 1449,-142.5 1449,-123.5 1402,-123.5"/>
<text text-anchor="middle" x="1425.5" y="-130.5" font-family="FreeSans.ttf" font-size="10.00">cmath</text>
</a>
</g>
</g>
<!-- Node22&#45;&gt;Node24 -->
<g id="edge26" class="edge">
<title>Node22&#45;&gt;Node24</title>
<path fill="none" stroke="midnightblue" d="M1425.5,-179.08C1425.5,-172.01 1425.5,-161.86 1425.5,-152.99"/>
<polygon fill="midnightblue" stroke="midnightblue" points="1429,-152.75 1425.5,-142.75 1422,-152.75 1429,-152.75"/>
</g>
<!-- Node26 -->
<g id="node26" class="node">
<title>Node26</title>
<g id="a_node26"><a xlink:title=" ">
<polygon fill="none" stroke="#bfbfbf" points="1467,-123.5 1467,-142.5 1560,-142.5 1560,-123.5 1467,-123.5"/>
<text text-anchor="middle" x="1513.5" y="-130.5" font-family="FreeSans.ttf" font-size="10.00">sdf/sdf_config.h</text>
</a>
</g>
</g>
<!-- Node25&#45;&gt;Node26 -->
<g id="edge28" class="edge">
<title>Node25&#45;&gt;Node26</title>
<path fill="none" stroke="midnightblue" d="M1617.85,-179.44C1597.54,-170.6 1565.6,-156.69 1542.4,-146.59"/>
<polygon fill="midnightblue" stroke="midnightblue" points="1543.62,-143.3 1533.06,-142.52 1540.83,-149.72 1543.62,-143.3"/>
</g>
<!-- Node27 -->
<g id="node27" class="node">
<title>Node27</title>
<g id="a_node27"><a xlink:title=" ">
<polygon fill="none" stroke="#bfbfbf" points="1578,-123.5 1578,-142.5 1697,-142.5 1697,-123.5 1578,-123.5"/>
<text text-anchor="middle" x="1637.5" y="-130.5" font-family="FreeSans.ttf" font-size="10.00">boost/shared_ptr.hpp</text>
</a>
</g>
</g>
<!-- Node25&#45;&gt;Node27 -->
<g id="edge29" class="edge">
<title>Node25&#45;&gt;Node27</title>
<path fill="none" stroke="midnightblue" d="M1637.5,-179.08C1637.5,-172.01 1637.5,-161.86 1637.5,-152.99"/>
<polygon fill="midnightblue" stroke="midnightblue" points="1641,-152.75 1637.5,-142.75 1634,-152.75 1641,-152.75"/>
</g>
<!-- Node28 -->
<g id="node28" class="node">
<title>Node28</title>
<g id="a_node28"><a xlink:title=" ">
<polygon fill="none" stroke="#bfbfbf" points="1715,-123.5 1715,-142.5 1886,-142.5 1886,-123.5 1715,-123.5"/>
<text text-anchor="middle" x="1800.5" y="-130.5" font-family="FreeSans.ttf" font-size="10.00">gazebo/sensors/SensorTypes.hh</text>
</a>
</g>
</g>
<!-- Node25&#45;&gt;Node28 -->
<g id="edge30" class="edge">
<title>Node25&#45;&gt;Node28</title>
<path fill="none" stroke="midnightblue" d="M1663.33,-179.44C1690.75,-170.36 1734.28,-155.94 1764.93,-145.78"/>
<polygon fill="midnightblue" stroke="midnightblue" points="1766.4,-148.98 1774.79,-142.52 1764.2,-142.34 1766.4,-148.98"/>
</g>
<!-- Node29 -->
<g id="node29" class="node">
<title>Node29</title>
<g id="a_node29"><a xlink:title=" ">
<polygon fill="none" stroke="#bfbfbf" points="1904.5,-123.5 1904.5,-142.5 2078.5,-142.5 2078.5,-123.5 1904.5,-123.5"/>
<text text-anchor="middle" x="1991.5" y="-130.5" font-family="FreeSans.ttf" font-size="10.00">gazebo/physics/PhysicsTypes.hh</text>
</a>
</g>
</g>
<!-- Node25&#45;&gt;Node29 -->
<g id="edge31" class="edge">
<title>Node25&#45;&gt;Node29</title>
<path fill="none" stroke="midnightblue" d="M1693.59,-179.44C1756.64,-169.83 1858.9,-154.23 1925.68,-144.04"/>
<polygon fill="midnightblue" stroke="midnightblue" points="1926.31,-147.48 1935.67,-142.52 1925.26,-140.56 1926.31,-147.48"/>
</g>
</g>
</svg>
