<?xml version="1.0" encoding="UTF-8" standalone="no"?>
<!DOCTYPE svg PUBLIC "-//W3C//DTD SVG 1.1//EN"
 "http://www.w3.org/Graphics/SVG/1.1/DTD/svg11.dtd">
<!-- Generated by graphviz version 2.43.0 (0)
 -->
<!-- Title: worldproxy.h Pages: 1 -->
<svg width="347pt" height="196pt"
 viewBox="0.00 0.00 346.50 196.00" xmlns="http://www.w3.org/2000/svg" xmlns:xlink="http://www.w3.org/1999/xlink">
<g id="graph0" class="graph" transform="scale(1 1) rotate(0) translate(4 192)">
<title>worldproxy.h</title>
<!-- Node1 -->
<g id="node1" class="node">
<title>Node1</title>
<g id="a_node1"><a xlink:title=" ">
<polygon fill="#bfbfbf" stroke="black" points="116,-168.5 116,-187.5 195,-187.5 195,-168.5 116,-168.5"/>
<text text-anchor="middle" x="155.5" y="-175.5" font-family="FreeSans.ttf" font-size="10.00">worldproxy.h</text>
</a>
</g>
</g>
<!-- Node2 -->
<g id="node2" class="node">
<title>Node2</title>
<g id="a_node2"><a xlink:href="worldinterface_8h.html" target="_top" xlink:title=" ">
<polygon fill="none" stroke="black" points="5.5,-56.5 5.5,-75.5 101.5,-75.5 101.5,-56.5 5.5,-56.5"/>
<text text-anchor="middle" x="53.5" y="-63.5" font-family="FreeSans.ttf" font-size="10.00">worldinterface.h</text>
</a>
</g>
</g>
<!-- Node1&#45;&gt;Node2 -->
<g id="edge1" class="edge">
<title>Node1&#45;&gt;Node2</title>
<path fill="none" stroke="midnightblue" d="M118.63,-164.5C102.4,-157.3 84.38,-146.71 72.5,-132 58.91,-115.17 55.04,-88.95 53.94,-75.54"/>
<polygon fill="midnightblue" stroke="midnightblue" points="117.33,-167.75 127.91,-168.35 120.01,-161.29 117.33,-167.75"/>
</g>
<!-- Node4 -->
<g id="node4" class="node">
<title>Node4</title>
<g id="a_node4"><a xlink:href="worldinterfaceserverimpl_8h.html" target="_top" xlink:title=" ">
<polygon fill="none" stroke="black" points="81,-112.5 81,-131.5 230,-131.5 230,-112.5 81,-112.5"/>
<text text-anchor="middle" x="155.5" y="-119.5" font-family="FreeSans.ttf" font-size="10.00">worldinterfaceserverimpl.h</text>
</a>
</g>
</g>
<!-- Node1&#45;&gt;Node4 -->
<g id="edge3" class="edge">
<title>Node1&#45;&gt;Node4</title>
<path fill="none" stroke="midnightblue" d="M155.5,-157.8C155.5,-148.91 155.5,-138.78 155.5,-131.75"/>
<polygon fill="midnightblue" stroke="midnightblue" points="152,-158.08 155.5,-168.08 159,-158.08 152,-158.08"/>
</g>
<!-- Node6 -->
<g id="node6" class="node">
<title>Node6</title>
<g id="a_node6"><a xlink:href="worldproxy_8cpp.html" target="_top" xlink:title=" ">
<polygon fill="none" stroke="black" points="248.5,-112.5 248.5,-131.5 338.5,-131.5 338.5,-112.5 248.5,-112.5"/>
<text text-anchor="middle" x="293.5" y="-119.5" font-family="FreeSans.ttf" font-size="10.00">worldproxy.cpp</text>
</a>
</g>
</g>
<!-- Node1&#45;&gt;Node6 -->
<g id="edge6" class="edge">
<title>Node1&#45;&gt;Node6</title>
<path fill="none" stroke="midnightblue" d="M186.75,-164.77C212.67,-154.63 248.86,-140.47 271.74,-131.52"/>
<polygon fill="midnightblue" stroke="midnightblue" points="185.4,-161.54 177.37,-168.44 187.95,-168.06 185.4,-161.54"/>
</g>
<!-- Node3 -->
<g id="node3" class="node">
<title>Node3</title>
<g id="a_node3"><a xlink:href="worldinterface_8cpp.html" target="_top" xlink:title=" ">
<polygon fill="none" stroke="black" points="0,-0.5 0,-19.5 107,-19.5 107,-0.5 0,-0.5"/>
<text text-anchor="middle" x="53.5" y="-7.5" font-family="FreeSans.ttf" font-size="10.00">worldinterface.cpp</text>
</a>
</g>
</g>
<!-- Node2&#45;&gt;Node3 -->
<g id="edge2" class="edge">
<title>Node2&#45;&gt;Node3</title>
<path fill="none" stroke="midnightblue" d="M53.5,-45.8C53.5,-36.91 53.5,-26.78 53.5,-19.75"/>
<polygon fill="midnightblue" stroke="midnightblue" points="50,-46.08 53.5,-56.08 57,-46.08 50,-46.08"/>
</g>
<!-- Node4&#45;&gt;Node2 -->
<g id="edge4" class="edge">
<title>Node4&#45;&gt;Node2</title>
<path fill="none" stroke="midnightblue" d="M130.17,-107.59C111.31,-97.61 86.12,-84.27 69.85,-75.65"/>
<polygon fill="midnightblue" stroke="midnightblue" points="128.64,-110.74 139.11,-112.32 131.91,-104.55 128.64,-110.74"/>
</g>
<!-- Node5 -->
<g id="node5" class="node">
<title>Node5</title>
<g id="a_node5"><a xlink:href="worldinterfaceserverimpl_8cpp.html" target="_top" xlink:title=" ">
<polygon fill="none" stroke="black" points="119.5,-56.5 119.5,-75.5 279.5,-75.5 279.5,-56.5 119.5,-56.5"/>
<text text-anchor="middle" x="199.5" y="-63.5" font-family="FreeSans.ttf" font-size="10.00">worldinterfaceserverimpl.cpp</text>
</a>
</g>
</g>
<!-- Node4&#45;&gt;Node5 -->
<g id="edge5" class="edge">
<title>Node4&#45;&gt;Node5</title>
<path fill="none" stroke="midnightblue" d="M169.23,-104.14C176.9,-94.74 186.13,-83.4 192.37,-75.75"/>
<polygon fill="midnightblue" stroke="midnightblue" points="166.37,-102.12 162.77,-112.08 171.8,-106.54 166.37,-102.12"/>
</g>
</g>
</svg>
