<?xml version="1.0" encoding="UTF-8" standalone="no"?>
<!DOCTYPE svg PUBLIC "-//W3C//DTD SVG 1.1//EN"
 "http://www.w3.org/Graphics/SVG/1.1/DTD/svg11.dtd">
<!-- Generated by graphviz version 2.43.0 (0)
 -->
<!-- Title: worldinterfaceserverimpl.cpp Pages: 1 -->
<svg width="1270pt" height="196pt"
 viewBox="0.00 0.00 1269.50 196.00" xmlns="http://www.w3.org/2000/svg" xmlns:xlink="http://www.w3.org/1999/xlink">
<g id="graph0" class="graph" transform="scale(1 1) rotate(0) translate(4 192)">
<title>worldinterfaceserverimpl.cpp</title>
<!-- Node1 -->
<g id="node1" class="node">
<title>Node1</title>
<g id="a_node1"><a xlink:title=" ">
<polygon fill="#bfbfbf" stroke="black" points="415,-168.5 415,-187.5 575,-187.5 575,-168.5 415,-168.5"/>
<text text-anchor="middle" x="495" y="-175.5" font-family="FreeSans.ttf" font-size="10.00">worldinterfaceserverimpl.cpp</text>
</a>
</g>
</g>
<!-- Node2 -->
<g id="node2" class="node">
<title>Node2</title>
<g id="a_node2"><a xlink:href="worldinterfaceserverimpl_8h.html" target="_top" xlink:title=" ">
<polygon fill="none" stroke="black" points="306.5,-112.5 306.5,-131.5 455.5,-131.5 455.5,-112.5 306.5,-112.5"/>
<text text-anchor="middle" x="381" y="-119.5" font-family="FreeSans.ttf" font-size="10.00">worldinterfaceserverimpl.h</text>
</a>
</g>
</g>
<!-- Node1&#45;&gt;Node2 -->
<g id="edge1" class="edge">
<title>Node1&#45;&gt;Node2</title>
<path fill="none" stroke="midnightblue" d="M476.94,-168.44C458.43,-159.68 429.42,-145.94 408.14,-135.86"/>
<polygon fill="midnightblue" stroke="midnightblue" points="409.51,-132.63 398.98,-131.52 406.52,-138.96 409.51,-132.63"/>
</g>
<!-- Node14 -->
<g id="node14" class="node">
<title>Node14</title>
<g id="a_node14"><a xlink:title=" ">
<polygon fill="none" stroke="#bfbfbf" points="473,-112.5 473,-131.5 517,-131.5 517,-112.5 473,-112.5"/>
<text text-anchor="middle" x="495" y="-119.5" font-family="FreeSans.ttf" font-size="10.00">string</text>
</a>
</g>
</g>
<!-- Node1&#45;&gt;Node14 -->
<g id="edge14" class="edge">
<title>Node1&#45;&gt;Node14</title>
<path fill="none" stroke="midnightblue" d="M495,-168.08C495,-161.01 495,-150.86 495,-141.99"/>
<polygon fill="midnightblue" stroke="midnightblue" points="498.5,-141.75 495,-131.75 491.5,-141.75 498.5,-141.75"/>
</g>
<!-- Node15 -->
<g id="node15" class="node">
<title>Node15</title>
<g id="a_node15"><a xlink:title=" ">
<polygon fill="none" stroke="#bfbfbf" points="535,-112.5 535,-131.5 567,-131.5 567,-112.5 535,-112.5"/>
<text text-anchor="middle" x="551" y="-119.5" font-family="FreeSans.ttf" font-size="10.00">list</text>
</a>
</g>
</g>
<!-- Node1&#45;&gt;Node15 -->
<g id="edge15" class="edge">
<title>Node1&#45;&gt;Node15</title>
<path fill="none" stroke="midnightblue" d="M504,-168.32C512.19,-160.42 524.51,-148.55 534.47,-138.94"/>
<polygon fill="midnightblue" stroke="midnightblue" points="537.07,-141.29 541.84,-131.83 532.21,-136.26 537.07,-141.29"/>
</g>
<!-- Node3 -->
<g id="node3" class="node">
<title>Node3</title>
<g id="a_node3"><a xlink:title=" ">
<polygon fill="none" stroke="#bfbfbf" points="0,-0.5 0,-19.5 128,-19.5 128,-0.5 0,-0.5"/>
<text text-anchor="middle" x="64" y="-7.5" font-family="FreeSans.ttf" font-size="10.00">WorldInterfaceServer.h</text>
</a>
</g>
</g>
<!-- Node2&#45;&gt;Node3 -->
<g id="edge2" class="edge">
<title>Node2&#45;&gt;Node3</title>
<path fill="none" stroke="midnightblue" d="M356.39,-112.46C300.33,-93.01 163.01,-45.36 98.51,-22.98"/>
<polygon fill="midnightblue" stroke="midnightblue" points="99.41,-19.58 88.81,-19.61 97.11,-26.2 99.41,-19.58"/>
</g>
<!-- Node4 -->
<g id="node4" class="node">
<title>Node4</title>
<g id="a_node4"><a xlink:href="worldproxy_8h.html" target="_top" xlink:title=" ">
<polygon fill="none" stroke="black" points="658.5,-56.5 658.5,-75.5 737.5,-75.5 737.5,-56.5 658.5,-56.5"/>
<text text-anchor="middle" x="698" y="-63.5" font-family="FreeSans.ttf" font-size="10.00">worldproxy.h</text>
</a>
</g>
</g>
<!-- Node2&#45;&gt;Node4 -->
<g id="edge3" class="edge">
<title>Node2&#45;&gt;Node4</title>
<path fill="none" stroke="midnightblue" d="M431.23,-112.44C490.64,-102.32 588.93,-85.58 648.17,-75.49"/>
<polygon fill="midnightblue" stroke="midnightblue" points="648.77,-78.94 658.04,-73.81 647.6,-72.04 648.77,-78.94"/>
</g>
<!-- Node4&#45;&gt;Node3 -->
<g id="edge10" class="edge">
<title>Node4&#45;&gt;Node3</title>
<path fill="none" stroke="midnightblue" d="M658.5,-62.41C568.32,-56.38 340.13,-40.41 138.28,-20.09"/>
<polygon fill="midnightblue" stroke="midnightblue" points="138.38,-16.58 128.08,-19.06 137.67,-23.55 138.38,-16.58"/>
</g>
<!-- Node5 -->
<g id="node5" class="node">
<title>Node5</title>
<g id="a_node5"><a xlink:title=" ">
<polygon fill="none" stroke="#bfbfbf" points="146,-0.5 146,-19.5 286,-19.5 286,-0.5 146,-0.5"/>
<text text-anchor="middle" x="216" y="-7.5" font-family="FreeSans.ttf" font-size="10.00">gazebo/physics/Model.hh</text>
</a>
</g>
</g>
<!-- Node4&#45;&gt;Node5 -->
<g id="edge4" class="edge">
<title>Node4&#45;&gt;Node5</title>
<path fill="none" stroke="midnightblue" d="M658.24,-60.59C587.63,-52.75 435.44,-35.83 296.21,-20.13"/>
<polygon fill="midnightblue" stroke="midnightblue" points="296.54,-16.65 286.21,-19.01 295.76,-23.61 296.54,-16.65"/>
</g>
<!-- Node6 -->
<g id="node6" class="node">
<title>Node6</title>
<g id="a_node6"><a xlink:title=" ">
<polygon fill="none" stroke="#bfbfbf" points="304.5,-0.5 304.5,-19.5 441.5,-19.5 441.5,-0.5 304.5,-0.5"/>
<text text-anchor="middle" x="373" y="-7.5" font-family="FreeSans.ttf" font-size="10.00">gazebo/physics/World.hh</text>
</a>
</g>
</g>
<!-- Node4&#45;&gt;Node6 -->
<g id="edge5" class="edge">
<title>Node4&#45;&gt;Node6</title>
<path fill="none" stroke="midnightblue" d="M658.47,-58.43C602.67,-49.16 500.28,-32.15 434.5,-21.22"/>
<polygon fill="midnightblue" stroke="midnightblue" points="434.7,-17.7 424.27,-19.52 433.56,-24.61 434.7,-17.7"/>
</g>
<!-- Node7 -->
<g id="node7" class="node">
<title>Node7</title>
<g id="a_node7"><a xlink:title=" ">
<polygon fill="none" stroke="#bfbfbf" points="459.5,-0.5 459.5,-19.5 590.5,-19.5 590.5,-0.5 459.5,-0.5"/>
<text text-anchor="middle" x="525" y="-7.5" font-family="FreeSans.ttf" font-size="10.00">gazebo/physics/Joint.hh</text>
</a>
</g>
</g>
<!-- Node4&#45;&gt;Node7 -->
<g id="edge6" class="edge">
<title>Node4&#45;&gt;Node7</title>
<path fill="none" stroke="midnightblue" d="M670.59,-56.44C641.23,-47.28 594.48,-32.69 561.9,-22.52"/>
<polygon fill="midnightblue" stroke="midnightblue" points="562.87,-19.16 552.28,-19.52 560.79,-25.84 562.87,-19.16"/>
</g>
<!-- Node8 -->
<g id="node8" class="node">
<title>Node8</title>
<g id="a_node8"><a xlink:title=" ">
<polygon fill="none" stroke="#bfbfbf" points="608.5,-0.5 608.5,-19.5 787.5,-19.5 787.5,-0.5 608.5,-0.5"/>
<text text-anchor="middle" x="698" y="-7.5" font-family="FreeSans.ttf" font-size="10.00">gazebo/physics/PhysicsEngine.hh</text>
</a>
</g>
</g>
<!-- Node4&#45;&gt;Node8 -->
<g id="edge7" class="edge">
<title>Node4&#45;&gt;Node8</title>
<path fill="none" stroke="midnightblue" d="M698,-56.08C698,-49.01 698,-38.86 698,-29.99"/>
<polygon fill="midnightblue" stroke="midnightblue" points="701.5,-29.75 698,-19.75 694.5,-29.75 701.5,-29.75"/>
</g>
<!-- Node9 -->
<g id="node9" class="node">
<title>Node9</title>
<g id="a_node9"><a xlink:title=" ">
<polygon fill="none" stroke="#bfbfbf" points="806,-0.5 806,-19.5 936,-19.5 936,-0.5 806,-0.5"/>
<text text-anchor="middle" x="871" y="-7.5" font-family="FreeSans.ttf" font-size="10.00">gazebo/physics/Link.hh</text>
</a>
</g>
</g>
<!-- Node4&#45;&gt;Node9 -->
<g id="edge8" class="edge">
<title>Node4&#45;&gt;Node9</title>
<path fill="none" stroke="midnightblue" d="M725.41,-56.44C754.77,-47.28 801.52,-32.69 834.1,-22.52"/>
<polygon fill="midnightblue" stroke="midnightblue" points="835.21,-25.84 843.72,-19.52 833.13,-19.16 835.21,-25.84"/>
</g>
<!-- Node10 -->
<g id="node10" class="node">
<title>Node10</title>
<g id="a_node10"><a xlink:title=" ">
<polygon fill="none" stroke="#bfbfbf" points="954,-0.5 954,-19.5 1074,-19.5 1074,-0.5 954,-0.5"/>
<text text-anchor="middle" x="1014" y="-7.5" font-family="FreeSans.ttf" font-size="10.00">yarp/os/Semaphore.h</text>
</a>
</g>
</g>
<!-- Node4&#45;&gt;Node10 -->
<g id="edge9" class="edge">
<title>Node4&#45;&gt;Node10</title>
<path fill="none" stroke="midnightblue" d="M737.7,-58.22C792.22,-48.9 890.71,-32.07 954.19,-21.22"/>
<polygon fill="midnightblue" stroke="midnightblue" points="954.79,-24.67 964.06,-19.53 953.61,-17.77 954.79,-24.67"/>
</g>
<!-- Node11 -->
<g id="node11" class="node">
<title>Node11</title>
<g id="a_node11"><a xlink:title=" ">
<polygon fill="none" stroke="#bfbfbf" points="1092,-0.5 1092,-19.5 1130,-19.5 1130,-0.5 1092,-0.5"/>
<text text-anchor="middle" x="1111" y="-7.5" font-family="FreeSans.ttf" font-size="10.00">map</text>
</a>
</g>
</g>
<!-- Node4&#45;&gt;Node11 -->
<g id="edge11" class="edge">
<title>Node4&#45;&gt;Node11</title>
<path fill="none" stroke="midnightblue" d="M737.77,-62.91C806.37,-58.75 951.4,-47.54 1082.07,-19.81"/>
<polygon fill="midnightblue" stroke="midnightblue" points="1082.82,-23.23 1091.85,-17.7 1081.34,-16.39 1082.82,-23.23"/>
</g>
<!-- Node12 -->
<g id="node12" class="node">
<title>Node12</title>
<g id="a_node12"><a xlink:title=" ">
<polygon fill="none" stroke="#bfbfbf" points="1148,-0.5 1148,-19.5 1196,-19.5 1196,-0.5 1148,-0.5"/>
<text text-anchor="middle" x="1172" y="-7.5" font-family="FreeSans.ttf" font-size="10.00">mutex</text>
</a>
</g>
</g>
<!-- Node4&#45;&gt;Node12 -->
<g id="edge12" class="edge">
<title>Node4&#45;&gt;Node12</title>
<path fill="none" stroke="midnightblue" d="M737.54,-63.15C813.44,-59.13 984.83,-47.78 1137.9,-19.91"/>
<polygon fill="midnightblue" stroke="midnightblue" points="1138.76,-23.31 1147.96,-18.05 1137.49,-16.43 1138.76,-23.31"/>
</g>
<!-- Node13 -->
<g id="node13" class="node">
<title>Node13</title>
<g id="a_node13"><a xlink:title=" ">
<polygon fill="none" stroke="#bfbfbf" points="1214.5,-0.5 1214.5,-19.5 1261.5,-19.5 1261.5,-0.5 1214.5,-0.5"/>
<text text-anchor="middle" x="1238" y="-7.5" font-family="FreeSans.ttf" font-size="10.00">queue</text>
</a>
</g>
</g>
<!-- Node4&#45;&gt;Node13 -->
<g id="edge13" class="edge">
<title>Node4&#45;&gt;Node13</title>
<path fill="none" stroke="midnightblue" d="M737.76,-63.87C822.12,-60.96 1025.26,-51.23 1204.46,-19.76"/>
<polygon fill="midnightblue" stroke="midnightblue" points="1205.09,-23.2 1214.32,-18 1203.86,-16.31 1205.09,-23.2"/>
</g>
</g>
</svg>
