<?xml version="1.0" encoding="UTF-8" standalone="no"?>
<!DOCTYPE svg PUBLIC "-//W3C//DTD SVG 1.1//EN"
 "http://www.w3.org/Graphics/SVG/1.1/DTD/svg11.dtd">
<!-- Generated by graphviz version 2.43.0 (0)
 -->
<!-- Title: WorldInterfaceServer.cpp Pages: 1 -->
<svg width="396pt" height="207pt"
 viewBox="0.00 0.00 395.58 207.00" xmlns="http://www.w3.org/2000/svg" xmlns:xlink="http://www.w3.org/1999/xlink">
<g id="graph0" class="graph" transform="scale(1 1) rotate(0) translate(4 203)">
<title>WorldInterfaceServer.cpp</title>
<!-- Node1 -->
<g id="node1" class="node">
<title>Node1</title>
<g id="a_node1"><a xlink:title=" ">
<polygon fill="#bfbfbf" stroke="black" points="248.58,-179.5 248.58,-198.5 387.58,-198.5 387.58,-179.5 248.58,-179.5"/>
<text text-anchor="middle" x="318.08" y="-186.5" font-family="FreeSans.ttf" font-size="10.00">WorldInterfaceServer.cpp</text>
</a>
</g>
</g>
<!-- Node2 -->
<g id="node2" class="node">
<title>Node2</title>
<g id="a_node2"><a xlink:href="GazeboYarpPlugins_2WorldInterfaceServer_8h.html" target="_top" xlink:title=" ">
<polygon fill="none" stroke="black" points="157.58,-112.5 157.58,-142.5 340.58,-142.5 340.58,-112.5 157.58,-112.5"/>
<text text-anchor="start" x="165.58" y="-130.5" font-family="FreeSans.ttf" font-size="10.00">GazeboYarpPlugins/WorldInterface</text>
<text text-anchor="middle" x="249.08" y="-119.5" font-family="FreeSans.ttf" font-size="10.00">Server.h</text>
</a>
</g>
</g>
<!-- Node1&#45;&gt;Node2 -->
<g id="edge1" class="edge">
<title>Node1&#45;&gt;Node2</title>
<path fill="none" stroke="midnightblue" d="M308.19,-179.48C299.02,-171.57 285.01,-159.48 272.93,-149.07"/>
<polygon fill="midnightblue" stroke="midnightblue" points="275.2,-146.4 265.34,-142.52 270.63,-151.7 275.2,-146.4"/>
</g>
<!-- Node4 -->
<g id="node4" class="node">
<title>Node4</title>
<g id="a_node4"><a xlink:title=" ">
<polygon fill="none" stroke="#bfbfbf" points="234.08,-0.5 234.08,-19.5 364.08,-19.5 364.08,-0.5 234.08,-0.5"/>
<text text-anchor="middle" x="299.08" y="-7.5" font-family="FreeSans.ttf" font-size="10.00">yarp/os/idl/WireTypes.h</text>
</a>
</g>
</g>
<!-- Node1&#45;&gt;Node4 -->
<g id="edge10" class="edge">
<title>Node1&#45;&gt;Node4</title>
<path fill="none" stroke="midnightblue" d="M326.83,-179.29C334.64,-170.84 345.53,-157.25 350.08,-143 354.81,-128.18 348.33,-60.8 346.08,-56 340.43,-43.98 330.06,-33.51 320.49,-25.7"/>
<polygon fill="midnightblue" stroke="midnightblue" points="322.5,-22.83 312.43,-19.55 318.26,-28.4 322.5,-22.83"/>
</g>
<!-- Node3 -->
<g id="node3" class="node">
<title>Node3</title>
<g id="a_node3"><a xlink:title=" ">
<polygon fill="none" stroke="#bfbfbf" points="42.58,-0.5 42.58,-19.5 129.58,-19.5 129.58,-0.5 42.58,-0.5"/>
<text text-anchor="middle" x="86.08" y="-7.5" font-family="FreeSans.ttf" font-size="10.00">yarp/os/Wire.h</text>
</a>
</g>
</g>
<!-- Node2&#45;&gt;Node3 -->
<g id="edge2" class="edge">
<title>Node2&#45;&gt;Node3</title>
<path fill="none" stroke="midnightblue" d="M157.26,-119.4C96.4,-112.57 24.33,-99.65 5.08,-76 -12.57,-54.33 20.84,-35.08 49.95,-23.25"/>
<polygon fill="midnightblue" stroke="midnightblue" points="51.51,-26.4 59.58,-19.54 48.99,-19.87 51.51,-26.4"/>
</g>
<!-- Node2&#45;&gt;Node4 -->
<g id="edge3" class="edge">
<title>Node2&#45;&gt;Node4</title>
<path fill="none" stroke="midnightblue" d="M288.2,-112.48C304.51,-104.47 321.78,-92.64 331.08,-76 340.22,-59.63 327.87,-40.29 315.95,-26.98"/>
<polygon fill="midnightblue" stroke="midnightblue" points="318.25,-24.32 308.78,-19.56 313.21,-29.18 318.25,-24.32"/>
</g>
<!-- Node5 -->
<g id="node5" class="node">
<title>Node5</title>
<g id="a_node5"><a xlink:href="GazeboYarpPlugins_2Color_8h.html" target="_top" xlink:title=" ">
<polygon fill="none" stroke="black" points="176.08,-56.5 176.08,-75.5 322.08,-75.5 322.08,-56.5 176.08,-56.5"/>
<text text-anchor="middle" x="249.08" y="-63.5" font-family="FreeSans.ttf" font-size="10.00">GazeboYarpPlugins/Color.h</text>
</a>
</g>
</g>
<!-- Node2&#45;&gt;Node5 -->
<g id="edge4" class="edge">
<title>Node2&#45;&gt;Node5</title>
<path fill="none" stroke="midnightblue" d="M249.08,-112.4C249.08,-104.47 249.08,-94.46 249.08,-85.86"/>
<polygon fill="midnightblue" stroke="midnightblue" points="252.58,-85.66 249.08,-75.66 245.58,-85.66 252.58,-85.66"/>
</g>
<!-- Node6 -->
<g id="node6" class="node">
<title>Node6</title>
<g id="a_node6"><a xlink:href="GazeboYarpPlugins_2Pose_8h.html" target="_top" xlink:title=" ">
<polygon fill="none" stroke="black" points="14.08,-56.5 14.08,-75.5 158.08,-75.5 158.08,-56.5 14.08,-56.5"/>
<text text-anchor="middle" x="86.08" y="-63.5" font-family="FreeSans.ttf" font-size="10.00">GazeboYarpPlugins/Pose.h</text>
</a>
</g>
</g>
<!-- Node2&#45;&gt;Node6 -->
<g id="edge7" class="edge">
<title>Node2&#45;&gt;Node6</title>
<path fill="none" stroke="midnightblue" d="M210.45,-112.4C182.73,-102.28 145.77,-88.79 119.36,-79.15"/>
<polygon fill="midnightblue" stroke="midnightblue" points="120.39,-75.8 109.8,-75.66 117.99,-82.37 120.39,-75.8"/>
</g>
<!-- Node5&#45;&gt;Node3 -->
<g id="edge5" class="edge">
<title>Node5&#45;&gt;Node3</title>
<path fill="none" stroke="midnightblue" d="M223.25,-56.44C195.83,-47.36 152.3,-32.94 121.65,-22.78"/>
<polygon fill="midnightblue" stroke="midnightblue" points="122.38,-19.34 111.79,-19.52 120.18,-25.98 122.38,-19.34"/>
</g>
<!-- Node5&#45;&gt;Node4 -->
<g id="edge6" class="edge">
<title>Node5&#45;&gt;Node4</title>
<path fill="none" stroke="midnightblue" d="M257.33,-56.08C264.54,-48.3 275.19,-36.8 283.92,-27.37"/>
<polygon fill="midnightblue" stroke="midnightblue" points="286.75,-29.47 290.98,-19.75 281.61,-24.71 286.75,-29.47"/>
</g>
<!-- Node6&#45;&gt;Node3 -->
<g id="edge8" class="edge">
<title>Node6&#45;&gt;Node3</title>
<path fill="none" stroke="midnightblue" d="M86.08,-56.08C86.08,-49.01 86.08,-38.86 86.08,-29.99"/>
<polygon fill="midnightblue" stroke="midnightblue" points="89.58,-29.75 86.08,-19.75 82.58,-29.75 89.58,-29.75"/>
</g>
<!-- Node6&#45;&gt;Node4 -->
<g id="edge9" class="edge">
<title>Node6&#45;&gt;Node4</title>
<path fill="none" stroke="midnightblue" d="M119.83,-56.44C156.6,-47.12 215.52,-32.18 255.7,-22"/>
<polygon fill="midnightblue" stroke="midnightblue" points="256.65,-25.37 265.49,-19.52 254.93,-18.58 256.65,-25.37"/>
</g>
</g>
</svg>
