<?xml version="1.0" encoding="UTF-8" standalone="no"?>
<!DOCTYPE svg PUBLIC "-//W3C//DTD SVG 1.1//EN"
 "http://www.w3.org/Graphics/SVG/1.1/DTD/svg11.dtd">
<!-- Generated by graphviz version 2.43.0 (0)
 -->
<!-- Title: worldinterfaceserverimpl.h Pages: 1 -->
<svg width="288pt" height="140pt"
 viewBox="0.00 0.00 287.50 140.00" xmlns="http://www.w3.org/2000/svg" xmlns:xlink="http://www.w3.org/1999/xlink">
<g id="graph0" class="graph" transform="scale(1 1) rotate(0) translate(4 136)">
<title>worldinterfaceserverimpl.h</title>
<!-- Node1 -->
<g id="node1" class="node">
<title>Node1</title>
<g id="a_node1"><a xlink:title=" ">
<polygon fill="#bfbfbf" stroke="black" points="52,-112.5 52,-131.5 201,-131.5 201,-112.5 52,-112.5"/>
<text text-anchor="middle" x="126.5" y="-119.5" font-family="FreeSans.ttf" font-size="10.00">worldinterfaceserverimpl.h</text>
</a>
</g>
</g>
<!-- Node2 -->
<g id="node2" class="node">
<title>Node2</title>
<g id="a_node2"><a xlink:href="worldinterface_8h.html" target="_top" xlink:title=" ">
<polygon fill="none" stroke="black" points="5.5,-56.5 5.5,-75.5 101.5,-75.5 101.5,-56.5 5.5,-56.5"/>
<text text-anchor="middle" x="53.5" y="-63.5" font-family="FreeSans.ttf" font-size="10.00">worldinterface.h</text>
</a>
</g>
</g>
<!-- Node1&#45;&gt;Node2 -->
<g id="edge1" class="edge">
<title>Node1&#45;&gt;Node2</title>
<path fill="none" stroke="midnightblue" d="M106.36,-106.1C93.22,-96.38 76.52,-84.03 65.44,-75.83"/>
<polygon fill="midnightblue" stroke="midnightblue" points="104.65,-109.19 114.77,-112.32 108.81,-103.56 104.65,-109.19"/>
</g>
<!-- Node4 -->
<g id="node4" class="node">
<title>Node4</title>
<g id="a_node4"><a xlink:href="worldinterfaceserverimpl_8cpp.html" target="_top" xlink:title=" ">
<polygon fill="none" stroke="black" points="119.5,-56.5 119.5,-75.5 279.5,-75.5 279.5,-56.5 119.5,-56.5"/>
<text text-anchor="middle" x="199.5" y="-63.5" font-family="FreeSans.ttf" font-size="10.00">worldinterfaceserverimpl.cpp</text>
</a>
</g>
</g>
<!-- Node1&#45;&gt;Node4 -->
<g id="edge3" class="edge">
<title>Node1&#45;&gt;Node4</title>
<path fill="none" stroke="midnightblue" d="M146.64,-106.1C159.78,-96.38 176.48,-84.03 187.56,-75.83"/>
<polygon fill="midnightblue" stroke="midnightblue" points="144.19,-103.56 138.23,-112.32 148.35,-109.19 144.19,-103.56"/>
</g>
<!-- Node3 -->
<g id="node3" class="node">
<title>Node3</title>
<g id="a_node3"><a xlink:href="worldinterface_8cpp.html" target="_top" xlink:title=" ">
<polygon fill="none" stroke="black" points="0,-0.5 0,-19.5 107,-19.5 107,-0.5 0,-0.5"/>
<text text-anchor="middle" x="53.5" y="-7.5" font-family="FreeSans.ttf" font-size="10.00">worldinterface.cpp</text>
</a>
</g>
</g>
<!-- Node2&#45;&gt;Node3 -->
<g id="edge2" class="edge">
<title>Node2&#45;&gt;Node3</title>
<path fill="none" stroke="midnightblue" d="M53.5,-45.8C53.5,-36.91 53.5,-26.78 53.5,-19.75"/>
<polygon fill="midnightblue" stroke="midnightblue" points="50,-46.08 53.5,-56.08 57,-46.08 50,-46.08"/>
</g>
</g>
</svg>
