<?xml version="1.0" encoding="UTF-8" standalone="no"?>
<!DOCTYPE svg PUBLIC "-//W3C//DTD SVG 1.1//EN"
 "http://www.w3.org/Graphics/SVG/1.1/DTD/svg11.dtd">
<!-- Generated by graphviz version 2.43.0 (0)
 -->
<!-- Title: worldinterface.cpp Pages: 1 -->
<svg width="1460pt" height="252pt"
 viewBox="0.00 0.00 1460.00 252.00" xmlns="http://www.w3.org/2000/svg" xmlns:xlink="http://www.w3.org/1999/xlink">
<g id="graph0" class="graph" transform="scale(1 1) rotate(0) translate(4 248)">
<title>worldinterface.cpp</title>
<!-- Node1 -->
<g id="node1" class="node">
<title>Node1</title>
<g id="a_node1"><a xlink:title=" ">
<polygon fill="#bfbfbf" stroke="black" points="994.5,-224.5 994.5,-243.5 1101.5,-243.5 1101.5,-224.5 994.5,-224.5"/>
<text text-anchor="middle" x="1048" y="-231.5" font-family="FreeSans.ttf" font-size="10.00">worldinterface.cpp</text>
</a>
</g>
</g>
<!-- Node2 -->
<g id="node2" class="node">
<title>Node2</title>
<g id="a_node2"><a xlink:href="worldinterface_8h.html" target="_top" xlink:title=" ">
<polygon fill="none" stroke="black" points="735,-168.5 735,-187.5 831,-187.5 831,-168.5 735,-168.5"/>
<text text-anchor="middle" x="783" y="-175.5" font-family="FreeSans.ttf" font-size="10.00">worldinterface.h</text>
</a>
</g>
</g>
<!-- Node1&#45;&gt;Node2 -->
<g id="edge1" class="edge">
<title>Node1&#45;&gt;Node2</title>
<path fill="none" stroke="midnightblue" d="M1006.01,-224.44C959.59,-214.98 884.77,-199.74 834.76,-189.55"/>
<polygon fill="midnightblue" stroke="midnightblue" points="835.29,-186.08 824.79,-187.52 833.89,-192.94 835.29,-186.08"/>
</g>
<!-- Node16 -->
<g id="node16" class="node">
<title>Node16</title>
<g id="a_node16"><a xlink:title=" ">
<polygon fill="none" stroke="#bfbfbf" points="980,-112.5 980,-131.5 1086,-131.5 1086,-112.5 980,-112.5"/>
<text text-anchor="middle" x="1033" y="-119.5" font-family="FreeSans.ttf" font-size="10.00">yarp/os/Network.h</text>
</a>
</g>
</g>
<!-- Node1&#45;&gt;Node16 -->
<g id="edge21" class="edge">
<title>Node1&#45;&gt;Node16</title>
<path fill="none" stroke="midnightblue" d="M1015.82,-224.49C997.46,-217.8 975.98,-206.45 965,-188 952.31,-166.69 978.6,-147.79 1002.09,-135.94"/>
<polygon fill="midnightblue" stroke="midnightblue" points="1003.67,-139.06 1011.2,-131.61 1000.67,-132.74 1003.67,-139.06"/>
</g>
<!-- Node19 -->
<g id="node19" class="node">
<title>Node19</title>
<g id="a_node19"><a xlink:title=" ">
<polygon fill="none" stroke="#bfbfbf" points="974,-168.5 974,-187.5 1034,-187.5 1034,-168.5 974,-168.5"/>
<text text-anchor="middle" x="1004" y="-175.5" font-family="FreeSans.ttf" font-size="10.00">iostream</text>
</a>
</g>
</g>
<!-- Node1&#45;&gt;Node19 -->
<g id="edge20" class="edge">
<title>Node1&#45;&gt;Node19</title>
<path fill="none" stroke="midnightblue" d="M1040.73,-224.08C1034.46,-216.38 1025.21,-205.03 1017.57,-195.65"/>
<polygon fill="midnightblue" stroke="midnightblue" points="1020.16,-193.29 1011.13,-187.75 1014.73,-197.71 1020.16,-193.29"/>
</g>
<!-- Node20 -->
<g id="node20" class="node">
<title>Node20</title>
<g id="a_node20"><a xlink:title=" ">
<polygon fill="none" stroke="#bfbfbf" points="1052,-168.5 1052,-187.5 1134,-187.5 1134,-168.5 1052,-168.5"/>
<text text-anchor="middle" x="1093" y="-175.5" font-family="FreeSans.ttf" font-size="10.00">yarp/os/Log.h</text>
</a>
</g>
</g>
<!-- Node1&#45;&gt;Node20 -->
<g id="edge22" class="edge">
<title>Node1&#45;&gt;Node20</title>
<path fill="none" stroke="midnightblue" d="M1055.43,-224.08C1061.85,-216.38 1071.31,-205.03 1079.12,-195.65"/>
<polygon fill="midnightblue" stroke="midnightblue" points="1081.99,-197.67 1085.71,-187.75 1076.62,-193.19 1081.99,-197.67"/>
</g>
<!-- Node21 -->
<g id="node21" class="node">
<title>Node21</title>
<g id="a_node21"><a xlink:title=" ">
<polygon fill="none" stroke="#bfbfbf" points="1152.5,-168.5 1152.5,-187.5 1269.5,-187.5 1269.5,-168.5 1152.5,-168.5"/>
<text text-anchor="middle" x="1211" y="-175.5" font-family="FreeSans.ttf" font-size="10.00">yarp/os/LogStream.h</text>
</a>
</g>
</g>
<!-- Node1&#45;&gt;Node21 -->
<g id="edge23" class="edge">
<title>Node1&#45;&gt;Node21</title>
<path fill="none" stroke="midnightblue" d="M1073.83,-224.44C1101.25,-215.36 1144.78,-200.94 1175.43,-190.78"/>
<polygon fill="midnightblue" stroke="midnightblue" points="1176.9,-193.98 1185.29,-187.52 1174.7,-187.34 1176.9,-193.98"/>
</g>
<!-- Node22 -->
<g id="node22" class="node">
<title>Node22</title>
<g id="a_node22"><a xlink:href="common_8h.html" target="_top" xlink:title=" ">
<polygon fill="none" stroke="black" points="1288,-168.5 1288,-187.5 1452,-187.5 1452,-168.5 1288,-168.5"/>
<text text-anchor="middle" x="1370" y="-175.5" font-family="FreeSans.ttf" font-size="10.00">GazeboYarpPlugins/common.h</text>
</a>
</g>
</g>
<!-- Node1&#45;&gt;Node22 -->
<g id="edge24" class="edge">
<title>Node1&#45;&gt;Node22</title>
<path fill="none" stroke="midnightblue" d="M1099.02,-224.44C1156.02,-214.89 1248.24,-199.42 1309,-189.23"/>
<polygon fill="midnightblue" stroke="midnightblue" points="1309.93,-192.62 1319.22,-187.52 1308.78,-185.72 1309.93,-192.62"/>
</g>
<!-- Node3 -->
<g id="node3" class="node">
<title>Node3</title>
<g id="a_node3"><a xlink:title=" ">
<polygon fill="none" stroke="#bfbfbf" points="398.5,-112.5 398.5,-131.5 503.5,-131.5 503.5,-112.5 398.5,-112.5"/>
<text text-anchor="middle" x="451" y="-119.5" font-family="FreeSans.ttf" font-size="10.00">gazebo/gazebo.hh</text>
</a>
</g>
</g>
<!-- Node2&#45;&gt;Node3 -->
<g id="edge2" class="edge">
<title>Node2&#45;&gt;Node3</title>
<path fill="none" stroke="midnightblue" d="M734.72,-169.15C676.26,-159.64 577.64,-143.6 513.44,-133.16"/>
<polygon fill="midnightblue" stroke="midnightblue" points="513.88,-129.68 503.45,-131.53 512.75,-136.59 513.88,-129.68"/>
</g>
<!-- Node4 -->
<g id="node4" class="node">
<title>Node4</title>
<g id="a_node4"><a xlink:href="worldinterfaceserverimpl_8h.html" target="_top" xlink:title=" ">
<polygon fill="none" stroke="black" points="521.5,-112.5 521.5,-131.5 670.5,-131.5 670.5,-112.5 521.5,-112.5"/>
<text text-anchor="middle" x="596" y="-119.5" font-family="FreeSans.ttf" font-size="10.00">worldinterfaceserverimpl.h</text>
</a>
</g>
</g>
<!-- Node2&#45;&gt;Node4 -->
<g id="edge3" class="edge">
<title>Node2&#45;&gt;Node4</title>
<path fill="none" stroke="midnightblue" d="M753.37,-168.44C721.5,-159.24 670.67,-144.56 635.44,-134.39"/>
<polygon fill="midnightblue" stroke="midnightblue" points="636.07,-130.93 625.49,-131.52 634.13,-137.65 636.07,-130.93"/>
</g>
<!-- Node6 -->
<g id="node6" class="node">
<title>Node6</title>
<g id="a_node6"><a xlink:href="worldproxy_8h.html" target="_top" xlink:title=" ">
<polygon fill="none" stroke="black" points="658.5,-56.5 658.5,-75.5 737.5,-75.5 737.5,-56.5 658.5,-56.5"/>
<text text-anchor="middle" x="698" y="-63.5" font-family="FreeSans.ttf" font-size="10.00">worldproxy.h</text>
</a>
</g>
</g>
<!-- Node2&#45;&gt;Node6 -->
<g id="edge16" class="edge">
<title>Node2&#45;&gt;Node6</title>
<path fill="none" stroke="midnightblue" d="M763.81,-168.44C748.97,-160.88 728.98,-148.49 717,-132 707.17,-118.48 702.4,-99.92 700.1,-86.1"/>
<polygon fill="midnightblue" stroke="midnightblue" points="703.52,-85.25 698.69,-75.81 696.58,-86.2 703.52,-85.25"/>
</g>
<!-- Node2&#45;&gt;Node16 -->
<g id="edge17" class="edge">
<title>Node2&#45;&gt;Node16</title>
<path fill="none" stroke="midnightblue" d="M822.61,-168.44C866.23,-159.02 936.4,-143.87 983.58,-133.68"/>
<polygon fill="midnightblue" stroke="midnightblue" points="984.54,-137.05 993.57,-131.52 983.06,-130.21 984.54,-137.05"/>
</g>
<!-- Node17 -->
<g id="node17" class="node">
<title>Node17</title>
<g id="a_node17"><a xlink:title=" ">
<polygon fill="none" stroke="#bfbfbf" points="726.5,-112.5 726.5,-131.5 839.5,-131.5 839.5,-112.5 726.5,-112.5"/>
<text text-anchor="middle" x="783" y="-119.5" font-family="FreeSans.ttf" font-size="10.00">yarp/os/RpcServer.h</text>
</a>
</g>
</g>
<!-- Node2&#45;&gt;Node17 -->
<g id="edge18" class="edge">
<title>Node2&#45;&gt;Node17</title>
<path fill="none" stroke="midnightblue" d="M783,-168.08C783,-161.01 783,-150.86 783,-141.99"/>
<polygon fill="midnightblue" stroke="midnightblue" points="786.5,-141.75 783,-131.75 779.5,-141.75 786.5,-141.75"/>
</g>
<!-- Node18 -->
<g id="node18" class="node">
<title>Node18</title>
<g id="a_node18"><a xlink:title=" ">
<polygon fill="none" stroke="#bfbfbf" points="858,-112.5 858,-131.5 962,-131.5 962,-112.5 858,-112.5"/>
<text text-anchor="middle" x="910" y="-119.5" font-family="FreeSans.ttf" font-size="10.00">yarp/os/Property.h</text>
</a>
</g>
</g>
<!-- Node2&#45;&gt;Node18 -->
<g id="edge19" class="edge">
<title>Node2&#45;&gt;Node18</title>
<path fill="none" stroke="midnightblue" d="M803.12,-168.44C824.02,-159.56 856.93,-145.56 880.72,-135.45"/>
<polygon fill="midnightblue" stroke="midnightblue" points="882.14,-138.65 889.97,-131.52 879.4,-132.21 882.14,-138.65"/>
</g>
<!-- Node5 -->
<g id="node5" class="node">
<title>Node5</title>
<g id="a_node5"><a xlink:title=" ">
<polygon fill="none" stroke="#bfbfbf" points="0,-0.5 0,-19.5 128,-19.5 128,-0.5 0,-0.5"/>
<text text-anchor="middle" x="64" y="-7.5" font-family="FreeSans.ttf" font-size="10.00">WorldInterfaceServer.h</text>
</a>
</g>
</g>
<!-- Node4&#45;&gt;Node5 -->
<g id="edge4" class="edge">
<title>Node4&#45;&gt;Node5</title>
<path fill="none" stroke="midnightblue" d="M554.7,-112.46C458.66,-92.6 220.51,-43.36 115.33,-21.61"/>
<polygon fill="midnightblue" stroke="midnightblue" points="115.78,-18.13 105.28,-19.53 114.36,-24.99 115.78,-18.13"/>
</g>
<!-- Node4&#45;&gt;Node6 -->
<g id="edge5" class="edge">
<title>Node4&#45;&gt;Node6</title>
<path fill="none" stroke="midnightblue" d="M612.39,-112.32C628.67,-103.7 653.87,-90.36 672.72,-80.39"/>
<polygon fill="midnightblue" stroke="midnightblue" points="674.45,-83.43 681.65,-75.65 671.18,-77.24 674.45,-83.43"/>
</g>
<!-- Node6&#45;&gt;Node5 -->
<g id="edge12" class="edge">
<title>Node6&#45;&gt;Node5</title>
<path fill="none" stroke="midnightblue" d="M658.5,-62.41C568.32,-56.38 340.13,-40.41 138.28,-20.09"/>
<polygon fill="midnightblue" stroke="midnightblue" points="138.38,-16.58 128.08,-19.06 137.67,-23.55 138.38,-16.58"/>
</g>
<!-- Node7 -->
<g id="node7" class="node">
<title>Node7</title>
<g id="a_node7"><a xlink:title=" ">
<polygon fill="none" stroke="#bfbfbf" points="146,-0.5 146,-19.5 286,-19.5 286,-0.5 146,-0.5"/>
<text text-anchor="middle" x="216" y="-7.5" font-family="FreeSans.ttf" font-size="10.00">gazebo/physics/Model.hh</text>
</a>
</g>
</g>
<!-- Node6&#45;&gt;Node7 -->
<g id="edge6" class="edge">
<title>Node6&#45;&gt;Node7</title>
<path fill="none" stroke="midnightblue" d="M658.24,-60.59C587.63,-52.75 435.44,-35.83 296.21,-20.13"/>
<polygon fill="midnightblue" stroke="midnightblue" points="296.54,-16.65 286.21,-19.01 295.76,-23.61 296.54,-16.65"/>
</g>
<!-- Node8 -->
<g id="node8" class="node">
<title>Node8</title>
<g id="a_node8"><a xlink:title=" ">
<polygon fill="none" stroke="#bfbfbf" points="304.5,-0.5 304.5,-19.5 441.5,-19.5 441.5,-0.5 304.5,-0.5"/>
<text text-anchor="middle" x="373" y="-7.5" font-family="FreeSans.ttf" font-size="10.00">gazebo/physics/World.hh</text>
</a>
</g>
</g>
<!-- Node6&#45;&gt;Node8 -->
<g id="edge7" class="edge">
<title>Node6&#45;&gt;Node8</title>
<path fill="none" stroke="midnightblue" d="M658.47,-58.43C602.67,-49.16 500.28,-32.15 434.5,-21.22"/>
<polygon fill="midnightblue" stroke="midnightblue" points="434.7,-17.7 424.27,-19.52 433.56,-24.61 434.7,-17.7"/>
</g>
<!-- Node9 -->
<g id="node9" class="node">
<title>Node9</title>
<g id="a_node9"><a xlink:title=" ">
<polygon fill="none" stroke="#bfbfbf" points="459.5,-0.5 459.5,-19.5 590.5,-19.5 590.5,-0.5 459.5,-0.5"/>
<text text-anchor="middle" x="525" y="-7.5" font-family="FreeSans.ttf" font-size="10.00">gazebo/physics/Joint.hh</text>
</a>
</g>
</g>
<!-- Node6&#45;&gt;Node9 -->
<g id="edge8" class="edge">
<title>Node6&#45;&gt;Node9</title>
<path fill="none" stroke="midnightblue" d="M670.59,-56.44C641.23,-47.28 594.48,-32.69 561.9,-22.52"/>
<polygon fill="midnightblue" stroke="midnightblue" points="562.87,-19.16 552.28,-19.52 560.79,-25.84 562.87,-19.16"/>
</g>
<!-- Node10 -->
<g id="node10" class="node">
<title>Node10</title>
<g id="a_node10"><a xlink:title=" ">
<polygon fill="none" stroke="#bfbfbf" points="608.5,-0.5 608.5,-19.5 787.5,-19.5 787.5,-0.5 608.5,-0.5"/>
<text text-anchor="middle" x="698" y="-7.5" font-family="FreeSans.ttf" font-size="10.00">gazebo/physics/PhysicsEngine.hh</text>
</a>
</g>
</g>
<!-- Node6&#45;&gt;Node10 -->
<g id="edge9" class="edge">
<title>Node6&#45;&gt;Node10</title>
<path fill="none" stroke="midnightblue" d="M698,-56.08C698,-49.01 698,-38.86 698,-29.99"/>
<polygon fill="midnightblue" stroke="midnightblue" points="701.5,-29.75 698,-19.75 694.5,-29.75 701.5,-29.75"/>
</g>
<!-- Node11 -->
<g id="node11" class="node">
<title>Node11</title>
<g id="a_node11"><a xlink:title=" ">
<polygon fill="none" stroke="#bfbfbf" points="806,-0.5 806,-19.5 936,-19.5 936,-0.5 806,-0.5"/>
<text text-anchor="middle" x="871" y="-7.5" font-family="FreeSans.ttf" font-size="10.00">gazebo/physics/Link.hh</text>
</a>
</g>
</g>
<!-- Node6&#45;&gt;Node11 -->
<g id="edge10" class="edge">
<title>Node6&#45;&gt;Node11</title>
<path fill="none" stroke="midnightblue" d="M725.41,-56.44C754.77,-47.28 801.52,-32.69 834.1,-22.52"/>
<polygon fill="midnightblue" stroke="midnightblue" points="835.21,-25.84 843.72,-19.52 833.13,-19.16 835.21,-25.84"/>
</g>
<!-- Node12 -->
<g id="node12" class="node">
<title>Node12</title>
<g id="a_node12"><a xlink:title=" ">
<polygon fill="none" stroke="#bfbfbf" points="954,-0.5 954,-19.5 1074,-19.5 1074,-0.5 954,-0.5"/>
<text text-anchor="middle" x="1014" y="-7.5" font-family="FreeSans.ttf" font-size="10.00">yarp/os/Semaphore.h</text>
</a>
</g>
</g>
<!-- Node6&#45;&gt;Node12 -->
<g id="edge11" class="edge">
<title>Node6&#45;&gt;Node12</title>
<path fill="none" stroke="midnightblue" d="M737.7,-58.22C792.22,-48.9 890.71,-32.07 954.19,-21.22"/>
<polygon fill="midnightblue" stroke="midnightblue" points="954.79,-24.67 964.06,-19.53 953.61,-17.77 954.79,-24.67"/>
</g>
<!-- Node13 -->
<g id="node13" class="node">
<title>Node13</title>
<g id="a_node13"><a xlink:title=" ">
<polygon fill="none" stroke="#bfbfbf" points="1092,-0.5 1092,-19.5 1130,-19.5 1130,-0.5 1092,-0.5"/>
<text text-anchor="middle" x="1111" y="-7.5" font-family="FreeSans.ttf" font-size="10.00">map</text>
</a>
</g>
</g>
<!-- Node6&#45;&gt;Node13 -->
<g id="edge13" class="edge">
<title>Node6&#45;&gt;Node13</title>
<path fill="none" stroke="midnightblue" d="M737.77,-62.91C806.37,-58.75 951.4,-47.54 1082.07,-19.81"/>
<polygon fill="midnightblue" stroke="midnightblue" points="1082.82,-23.23 1091.85,-17.7 1081.34,-16.39 1082.82,-23.23"/>
</g>
<!-- Node14 -->
<g id="node14" class="node">
<title>Node14</title>
<g id="a_node14"><a xlink:title=" ">
<polygon fill="none" stroke="#bfbfbf" points="1148,-0.5 1148,-19.5 1196,-19.5 1196,-0.5 1148,-0.5"/>
<text text-anchor="middle" x="1172" y="-7.5" font-family="FreeSans.ttf" font-size="10.00">mutex</text>
</a>
</g>
</g>
<!-- Node6&#45;&gt;Node14 -->
<g id="edge14" class="edge">
<title>Node6&#45;&gt;Node14</title>
<path fill="none" stroke="midnightblue" d="M737.54,-63.15C813.44,-59.13 984.83,-47.78 1137.9,-19.91"/>
<polygon fill="midnightblue" stroke="midnightblue" points="1138.76,-23.31 1147.96,-18.05 1137.49,-16.43 1138.76,-23.31"/>
</g>
<!-- Node15 -->
<g id="node15" class="node">
<title>Node15</title>
<g id="a_node15"><a xlink:title=" ">
<polygon fill="none" stroke="#bfbfbf" points="1214.5,-0.5 1214.5,-19.5 1261.5,-19.5 1261.5,-0.5 1214.5,-0.5"/>
<text text-anchor="middle" x="1238" y="-7.5" font-family="FreeSans.ttf" font-size="10.00">queue</text>
</a>
</g>
</g>
<!-- Node6&#45;&gt;Node15 -->
<g id="edge15" class="edge">
<title>Node6&#45;&gt;Node15</title>
<path fill="none" stroke="midnightblue" d="M737.76,-63.87C822.12,-60.96 1025.26,-51.23 1204.46,-19.76"/>
<polygon fill="midnightblue" stroke="midnightblue" points="1205.09,-23.2 1214.32,-18 1203.86,-16.31 1205.09,-23.2"/>
</g>
<!-- Node23 -->
<g id="node23" class="node">
<title>Node23</title>
<g id="a_node23"><a xlink:title=" ">
<polygon fill="none" stroke="#bfbfbf" points="1316,-112.5 1316,-131.5 1360,-131.5 1360,-112.5 1316,-112.5"/>
<text text-anchor="middle" x="1338" y="-119.5" font-family="FreeSans.ttf" font-size="10.00">string</text>
</a>
</g>
</g>
<!-- Node22&#45;&gt;Node23 -->
<g id="edge25" class="edge">
<title>Node22&#45;&gt;Node23</title>
<path fill="none" stroke="midnightblue" d="M1364.72,-168.08C1360.29,-160.61 1353.84,-149.72 1348.38,-140.52"/>
<polygon fill="midnightblue" stroke="midnightblue" points="1351.29,-138.57 1343.19,-131.75 1345.27,-142.14 1351.29,-138.57"/>
</g>
<!-- Node24 -->
<g id="node24" class="node">
<title>Node24</title>
<g id="a_node24"><a xlink:title=" ">
<polygon fill="none" stroke="#bfbfbf" points="1378.5,-112.5 1378.5,-131.5 1425.5,-131.5 1425.5,-112.5 1378.5,-112.5"/>
<text text-anchor="middle" x="1402" y="-119.5" font-family="FreeSans.ttf" font-size="10.00">cmath</text>
</a>
</g>
</g>
<!-- Node22&#45;&gt;Node24 -->
<g id="edge26" class="edge">
<title>Node22&#45;&gt;Node24</title>
<path fill="none" stroke="midnightblue" d="M1375.28,-168.08C1379.71,-160.61 1386.16,-149.72 1391.62,-140.52"/>
<polygon fill="midnightblue" stroke="midnightblue" points="1394.73,-142.14 1396.81,-131.75 1388.71,-138.57 1394.73,-142.14"/>
</g>
</g>
</svg>
