<?xml version="1.0" encoding="UTF-8" standalone="no"?>
<!DOCTYPE svg PUBLIC "-//W3C//DTD SVG 1.1//EN"
 "http://www.w3.org/Graphics/SVG/1.1/DTD/svg11.dtd">
<!-- Generated by graphviz version 2.43.0 (0)
 -->
<!-- Title: WorldInterfaceServer.h Pages: 1 -->
<svg width="344pt" height="140pt"
 viewBox="0.00 0.00 343.52 140.00" xmlns="http://www.w3.org/2000/svg" xmlns:xlink="http://www.w3.org/1999/xlink">
<g id="graph0" class="graph" transform="scale(1 1) rotate(0) translate(4 136)">
<title>WorldInterfaceServer.h</title>
<!-- Node1 -->
<g id="node1" class="node">
<title>Node1</title>
<g id="a_node1"><a xlink:title=" ">
<polygon fill="#bfbfbf" stroke="black" points="103.77,-112.5 103.77,-131.5 231.77,-131.5 231.77,-112.5 103.77,-112.5"/>
<text text-anchor="middle" x="167.77" y="-119.5" font-family="FreeSans.ttf" font-size="10.00">WorldInterfaceServer.h</text>
</a>
</g>
</g>
<!-- Node2 -->
<g id="node2" class="node">
<title>Node2</title>
<g id="a_node2"><a xlink:title=" ">
<polygon fill="none" stroke="#bfbfbf" points="43.27,-0.5 43.27,-19.5 130.27,-19.5 130.27,-0.5 43.27,-0.5"/>
<text text-anchor="middle" x="86.77" y="-7.5" font-family="FreeSans.ttf" font-size="10.00">yarp/os/Wire.h</text>
</a>
</g>
</g>
<!-- Node1&#45;&gt;Node2 -->
<g id="edge1" class="edge">
<title>Node1&#45;&gt;Node2</title>
<path fill="none" stroke="midnightblue" d="M109.25,-112.43C67.9,-105.04 17.62,-92.88 4.77,-76 -12.14,-53.79 20.78,-34.83 49.81,-23.22"/>
<polygon fill="midnightblue" stroke="midnightblue" points="51.32,-26.39 59.43,-19.56 48.84,-19.84 51.32,-26.39"/>
</g>
<!-- Node3 -->
<g id="node3" class="node">
<title>Node3</title>
<g id="a_node3"><a xlink:title=" ">
<polygon fill="none" stroke="#bfbfbf" points="184.77,-0.5 184.77,-19.5 314.77,-19.5 314.77,-0.5 184.77,-0.5"/>
<text text-anchor="middle" x="249.77" y="-7.5" font-family="FreeSans.ttf" font-size="10.00">yarp/os/idl/WireTypes.h</text>
</a>
</g>
</g>
<!-- Node1&#45;&gt;Node3 -->
<g id="edge2" class="edge">
<title>Node1&#45;&gt;Node3</title>
<path fill="none" stroke="midnightblue" d="M226.29,-112.43C267.65,-105.04 317.92,-92.88 330.77,-76 347.6,-53.9 314.83,-34.85 286.06,-23.19"/>
<polygon fill="midnightblue" stroke="midnightblue" points="287.13,-19.85 276.54,-19.53 284.62,-26.39 287.13,-19.85"/>
</g>
<!-- Node4 -->
<g id="node4" class="node">
<title>Node4</title>
<g id="a_node4"><a xlink:href="GazeboYarpPlugins_2Color_8h.html" target="_top" xlink:title=" ">
<polygon fill="none" stroke="black" points="13.77,-56.5 13.77,-75.5 159.77,-75.5 159.77,-56.5 13.77,-56.5"/>
<text text-anchor="middle" x="86.77" y="-63.5" font-family="FreeSans.ttf" font-size="10.00">GazeboYarpPlugins/Color.h</text>
</a>
</g>
</g>
<!-- Node1&#45;&gt;Node4 -->
<g id="edge3" class="edge">
<title>Node1&#45;&gt;Node4</title>
<path fill="none" stroke="midnightblue" d="M154.76,-112.32C142.24,-103.98 123.09,-91.21 108.3,-81.35"/>
<polygon fill="midnightblue" stroke="midnightblue" points="110.01,-78.29 99.75,-75.65 106.13,-84.11 110.01,-78.29"/>
</g>
<!-- Node5 -->
<g id="node5" class="node">
<title>Node5</title>
<g id="a_node5"><a xlink:href="GazeboYarpPlugins_2Pose_8h.html" target="_top" xlink:title=" ">
<polygon fill="none" stroke="black" points="177.77,-56.5 177.77,-75.5 321.77,-75.5 321.77,-56.5 177.77,-56.5"/>
<text text-anchor="middle" x="249.77" y="-63.5" font-family="FreeSans.ttf" font-size="10.00">GazeboYarpPlugins/Pose.h</text>
</a>
</g>
</g>
<!-- Node1&#45;&gt;Node5 -->
<g id="edge6" class="edge">
<title>Node1&#45;&gt;Node5</title>
<path fill="none" stroke="midnightblue" d="M180.95,-112.32C193.62,-103.98 213,-91.21 227.98,-81.35"/>
<polygon fill="midnightblue" stroke="midnightblue" points="230.2,-84.08 236.63,-75.65 226.35,-78.23 230.2,-84.08"/>
</g>
<!-- Node4&#45;&gt;Node2 -->
<g id="edge4" class="edge">
<title>Node4&#45;&gt;Node2</title>
<path fill="none" stroke="midnightblue" d="M86.77,-56.08C86.77,-49.01 86.77,-38.86 86.77,-29.99"/>
<polygon fill="midnightblue" stroke="midnightblue" points="90.27,-29.75 86.77,-19.75 83.27,-29.75 90.27,-29.75"/>
</g>
<!-- Node4&#45;&gt;Node3 -->
<g id="edge5" class="edge">
<title>Node4&#45;&gt;Node3</title>
<path fill="none" stroke="midnightblue" d="M112.6,-56.44C140.02,-47.36 183.55,-32.94 214.2,-22.78"/>
<polygon fill="midnightblue" stroke="midnightblue" points="215.67,-25.98 224.06,-19.52 213.47,-19.34 215.67,-25.98"/>
</g>
<!-- Node5&#45;&gt;Node2 -->
<g id="edge7" class="edge">
<title>Node5&#45;&gt;Node2</title>
<path fill="none" stroke="midnightblue" d="M223.94,-56.44C196.52,-47.36 152.99,-32.94 122.34,-22.78"/>
<polygon fill="midnightblue" stroke="midnightblue" points="123.07,-19.34 112.48,-19.52 120.87,-25.98 123.07,-19.34"/>
</g>
<!-- Node5&#45;&gt;Node3 -->
<g id="edge8" class="edge">
<title>Node5&#45;&gt;Node3</title>
<path fill="none" stroke="midnightblue" d="M249.77,-56.08C249.77,-49.01 249.77,-38.86 249.77,-29.99"/>
<polygon fill="midnightblue" stroke="midnightblue" points="253.27,-29.75 249.77,-19.75 246.27,-29.75 253.27,-29.75"/>
</g>
</g>
</svg>
