<?xml version="1.0" encoding="UTF-8" standalone="no"?>
<!DOCTYPE svg PUBLIC "-//W3C//DTD SVG 1.1//EN"
 "http://www.w3.org/Graphics/SVG/1.1/DTD/svg11.dtd">
<!-- Generated by graphviz version 2.43.0 (0)
 -->
<!-- Title: worldproxy.cpp Pages: 1 -->
<svg width="2180pt" height="140pt"
 viewBox="0.00 0.00 2179.50 140.00" xmlns="http://www.w3.org/2000/svg" xmlns:xlink="http://www.w3.org/1999/xlink">
<g id="graph0" class="graph" transform="scale(1 1) rotate(0) translate(4 136)">
<title>worldproxy.cpp</title>
<!-- Node1 -->
<g id="node1" class="node">
<title>Node1</title>
<g id="a_node1"><a xlink:title=" ">
<polygon fill="#bfbfbf" stroke="black" points="1678,-112.5 1678,-131.5 1768,-131.5 1768,-112.5 1678,-112.5"/>
<text text-anchor="middle" x="1723" y="-119.5" font-family="FreeSans.ttf" font-size="10.00">worldproxy.cpp</text>
</a>
</g>
</g>
<!-- Node2 -->
<g id="node2" class="node">
<title>Node2</title>
<g id="a_node2"><a xlink:href="worldproxy_8h.html" target="_top" xlink:title=" ">
<polygon fill="none" stroke="black" points="828.5,-56.5 828.5,-75.5 907.5,-75.5 907.5,-56.5 828.5,-56.5"/>
<text text-anchor="middle" x="868" y="-63.5" font-family="FreeSans.ttf" font-size="10.00">worldproxy.h</text>
</a>
</g>
</g>
<!-- Node1&#45;&gt;Node2 -->
<g id="edge1" class="edge">
<title>Node1&#45;&gt;Node2</title>
<path fill="none" stroke="midnightblue" d="M1677.94,-118.15C1531.65,-108.91 1070.68,-79.8 917.81,-70.15"/>
<polygon fill="midnightblue" stroke="midnightblue" points="917.97,-66.65 907.77,-69.51 917.53,-73.64 917.97,-66.65"/>
</g>
<!-- Node13 -->
<g id="node13" class="node">
<title>Node13</title>
<g id="a_node13"><a xlink:href="ConfHelpers_8hh.html" target="_top" xlink:title=" ">
<polygon fill="none" stroke="black" points="1356.5,-56.5 1356.5,-75.5 1543.5,-75.5 1543.5,-56.5 1356.5,-56.5"/>
<text text-anchor="middle" x="1450" y="-63.5" font-family="FreeSans.ttf" font-size="10.00">GazeboYarpPlugins/ConfHelpers.hh</text>
</a>
</g>
</g>
<!-- Node1&#45;&gt;Node13 -->
<g id="edge12" class="edge">
<title>Node1&#45;&gt;Node13</title>
<path fill="none" stroke="midnightblue" d="M1679.74,-112.44C1631.82,-102.96 1554.52,-87.67 1503,-77.48"/>
<polygon fill="midnightblue" stroke="midnightblue" points="1503.54,-74.02 1493.06,-75.52 1502.19,-80.89 1503.54,-74.02"/>
</g>
<!-- Node18 -->
<g id="node18" class="node">
<title>Node18</title>
<g id="a_node18"><a xlink:title=" ">
<polygon fill="none" stroke="#bfbfbf" points="1561.5,-56.5 1561.5,-75.5 1612.5,-75.5 1612.5,-56.5 1561.5,-56.5"/>
<text text-anchor="middle" x="1587" y="-63.5" font-family="FreeSans.ttf" font-size="10.00">math.h</text>
</a>
</g>
</g>
<!-- Node1&#45;&gt;Node18 -->
<g id="edge17" class="edge">
<title>Node1&#45;&gt;Node18</title>
<path fill="none" stroke="midnightblue" d="M1701.45,-112.44C1678.97,-103.52 1643.51,-89.44 1618.02,-79.32"/>
<polygon fill="midnightblue" stroke="midnightblue" points="1619.03,-75.95 1608.45,-75.52 1616.45,-82.46 1619.03,-75.95"/>
</g>
<!-- Node19 -->
<g id="node19" class="node">
<title>Node19</title>
<g id="a_node19"><a xlink:title=" ">
<polygon fill="none" stroke="#bfbfbf" points="1631,-56.5 1631,-75.5 1675,-75.5 1675,-56.5 1631,-56.5"/>
<text text-anchor="middle" x="1653" y="-63.5" font-family="FreeSans.ttf" font-size="10.00">string</text>
</a>
</g>
</g>
<!-- Node1&#45;&gt;Node19 -->
<g id="edge18" class="edge">
<title>Node1&#45;&gt;Node19</title>
<path fill="none" stroke="midnightblue" d="M1711.75,-112.32C1701.2,-104.18 1685.2,-91.84 1672.56,-82.09"/>
<polygon fill="midnightblue" stroke="midnightblue" points="1674.51,-79.17 1664.45,-75.83 1670.23,-84.71 1674.51,-79.17"/>
</g>
<!-- Node20 -->
<g id="node20" class="node">
<title>Node20</title>
<g id="a_node20"><a xlink:title=" ">
<polygon fill="none" stroke="#bfbfbf" points="1693,-56.5 1693,-75.5 1753,-75.5 1753,-56.5 1693,-56.5"/>
<text text-anchor="middle" x="1723" y="-63.5" font-family="FreeSans.ttf" font-size="10.00">iostream</text>
</a>
</g>
</g>
<!-- Node1&#45;&gt;Node20 -->
<g id="edge19" class="edge">
<title>Node1&#45;&gt;Node20</title>
<path fill="none" stroke="midnightblue" d="M1723,-112.08C1723,-105.01 1723,-94.86 1723,-85.99"/>
<polygon fill="midnightblue" stroke="midnightblue" points="1726.5,-85.75 1723,-75.75 1719.5,-85.75 1726.5,-85.75"/>
</g>
<!-- Node21 -->
<g id="node21" class="node">
<title>Node21</title>
<g id="a_node21"><a xlink:title=" ">
<polygon fill="none" stroke="#bfbfbf" points="1771.5,-56.5 1771.5,-75.5 1828.5,-75.5 1828.5,-56.5 1771.5,-56.5"/>
<text text-anchor="middle" x="1800" y="-63.5" font-family="FreeSans.ttf" font-size="10.00">ostream</text>
</a>
</g>
</g>
<!-- Node1&#45;&gt;Node21 -->
<g id="edge20" class="edge">
<title>Node1&#45;&gt;Node21</title>
<path fill="none" stroke="midnightblue" d="M1735.37,-112.32C1747.16,-104.06 1765.13,-91.45 1779.14,-81.63"/>
<polygon fill="midnightblue" stroke="midnightblue" points="1781.48,-84.26 1787.66,-75.65 1777.46,-78.53 1781.48,-84.26"/>
</g>
<!-- Node22 -->
<g id="node22" class="node">
<title>Node22</title>
<g id="a_node22"><a xlink:title=" ">
<polygon fill="none" stroke="#bfbfbf" points="1846.5,-56.5 1846.5,-75.5 1935.5,-75.5 1935.5,-56.5 1846.5,-56.5"/>
<text text-anchor="middle" x="1891" y="-63.5" font-family="FreeSans.ttf" font-size="10.00">yarp/os/Time.h</text>
</a>
</g>
</g>
<!-- Node1&#45;&gt;Node22 -->
<g id="edge21" class="edge">
<title>Node1&#45;&gt;Node22</title>
<path fill="none" stroke="midnightblue" d="M1749.62,-112.44C1778.01,-103.32 1823.14,-88.81 1854.75,-78.65"/>
<polygon fill="midnightblue" stroke="midnightblue" points="1856.06,-81.91 1864.5,-75.52 1853.91,-75.24 1856.06,-81.91"/>
</g>
<!-- Node23 -->
<g id="node23" class="node">
<title>Node23</title>
<g id="a_node23"><a xlink:title=" ">
<polygon fill="none" stroke="#bfbfbf" points="1954,-56.5 1954,-75.5 2036,-75.5 2036,-56.5 1954,-56.5"/>
<text text-anchor="middle" x="1995" y="-63.5" font-family="FreeSans.ttf" font-size="10.00">yarp/os/Log.h</text>
</a>
</g>
</g>
<!-- Node1&#45;&gt;Node23 -->
<g id="edge22" class="edge">
<title>Node1&#45;&gt;Node23</title>
<path fill="none" stroke="midnightblue" d="M1766.1,-112.44C1814.41,-102.85 1892.68,-87.31 1944,-77.13"/>
<polygon fill="midnightblue" stroke="midnightblue" points="1944.76,-80.54 1953.88,-75.16 1943.39,-73.68 1944.76,-80.54"/>
</g>
<!-- Node24 -->
<g id="node24" class="node">
<title>Node24</title>
<g id="a_node24"><a xlink:title=" ">
<polygon fill="none" stroke="#bfbfbf" points="2054.5,-56.5 2054.5,-75.5 2171.5,-75.5 2171.5,-56.5 2054.5,-56.5"/>
<text text-anchor="middle" x="2113" y="-63.5" font-family="FreeSans.ttf" font-size="10.00">yarp/os/LogStream.h</text>
</a>
</g>
</g>
<!-- Node1&#45;&gt;Node24 -->
<g id="edge23" class="edge">
<title>Node1&#45;&gt;Node24</title>
<path fill="none" stroke="midnightblue" d="M1768.12,-114.75C1836,-105.35 1964.88,-87.51 2044.43,-76.49"/>
<polygon fill="midnightblue" stroke="midnightblue" points="2044.93,-79.96 2054.36,-75.12 2043.97,-73.02 2044.93,-79.96"/>
</g>
<!-- Node3 -->
<g id="node3" class="node">
<title>Node3</title>
<g id="a_node3"><a xlink:title=" ">
<polygon fill="none" stroke="#bfbfbf" points="0,-0.5 0,-19.5 140,-19.5 140,-0.5 0,-0.5"/>
<text text-anchor="middle" x="70" y="-7.5" font-family="FreeSans.ttf" font-size="10.00">gazebo/physics/Model.hh</text>
</a>
</g>
</g>
<!-- Node2&#45;&gt;Node3 -->
<g id="edge2" class="edge">
<title>Node2&#45;&gt;Node3</title>
<path fill="none" stroke="midnightblue" d="M828.19,-63.22C720.71,-58.27 415.4,-43.19 150.39,-20.08"/>
<polygon fill="midnightblue" stroke="midnightblue" points="150.46,-16.57 140.19,-19.18 149.85,-23.55 150.46,-16.57"/>
</g>
<!-- Node4 -->
<g id="node4" class="node">
<title>Node4</title>
<g id="a_node4"><a xlink:title=" ">
<polygon fill="none" stroke="#bfbfbf" points="158.5,-0.5 158.5,-19.5 295.5,-19.5 295.5,-0.5 158.5,-0.5"/>
<text text-anchor="middle" x="227" y="-7.5" font-family="FreeSans.ttf" font-size="10.00">gazebo/physics/World.hh</text>
</a>
</g>
</g>
<!-- Node2&#45;&gt;Node4 -->
<g id="edge3" class="edge">
<title>Node2&#45;&gt;Node4</title>
<path fill="none" stroke="midnightblue" d="M828.3,-62.34C737.65,-56.15 508.27,-39.87 306.05,-20.17"/>
<polygon fill="midnightblue" stroke="midnightblue" points="306.13,-16.66 295.83,-19.17 305.44,-23.63 306.13,-16.66"/>
</g>
<!-- Node5 -->
<g id="node5" class="node">
<title>Node5</title>
<g id="a_node5"><a xlink:title=" ">
<polygon fill="none" stroke="#bfbfbf" points="313.5,-0.5 313.5,-19.5 444.5,-19.5 444.5,-0.5 313.5,-0.5"/>
<text text-anchor="middle" x="379" y="-7.5" font-family="FreeSans.ttf" font-size="10.00">gazebo/physics/Joint.hh</text>
</a>
</g>
</g>
<!-- Node2&#45;&gt;Node5 -->
<g id="edge4" class="edge">
<title>Node2&#45;&gt;Node5</title>
<path fill="none" stroke="midnightblue" d="M828.5,-60.89C756.43,-53.35 598.5,-36.66 455.06,-20.23"/>
<polygon fill="midnightblue" stroke="midnightblue" points="455.1,-16.71 444.76,-19.04 454.3,-23.66 455.1,-16.71"/>
</g>
<!-- Node6 -->
<g id="node6" class="node">
<title>Node6</title>
<g id="a_node6"><a xlink:title=" ">
<polygon fill="none" stroke="#bfbfbf" points="462.5,-0.5 462.5,-19.5 641.5,-19.5 641.5,-0.5 462.5,-0.5"/>
<text text-anchor="middle" x="552" y="-7.5" font-family="FreeSans.ttf" font-size="10.00">gazebo/physics/PhysicsEngine.hh</text>
</a>
</g>
</g>
<!-- Node2&#45;&gt;Node6 -->
<g id="edge5" class="edge">
<title>Node2&#45;&gt;Node6</title>
<path fill="none" stroke="midnightblue" d="M828.3,-58.22C773.78,-48.9 675.29,-32.07 611.81,-21.22"/>
<polygon fill="midnightblue" stroke="midnightblue" points="612.39,-17.77 601.94,-19.53 611.21,-24.67 612.39,-17.77"/>
</g>
<!-- Node7 -->
<g id="node7" class="node">
<title>Node7</title>
<g id="a_node7"><a xlink:title=" ">
<polygon fill="none" stroke="#bfbfbf" points="660,-0.5 660,-19.5 790,-19.5 790,-0.5 660,-0.5"/>
<text text-anchor="middle" x="725" y="-7.5" font-family="FreeSans.ttf" font-size="10.00">gazebo/physics/Link.hh</text>
</a>
</g>
</g>
<!-- Node2&#45;&gt;Node7 -->
<g id="edge6" class="edge">
<title>Node2&#45;&gt;Node7</title>
<path fill="none" stroke="midnightblue" d="M845.34,-56.44C821.6,-47.48 784.09,-33.31 757.26,-23.18"/>
<polygon fill="midnightblue" stroke="midnightblue" points="758.14,-19.77 747.55,-19.52 755.67,-26.32 758.14,-19.77"/>
</g>
<!-- Node8 -->
<g id="node8" class="node">
<title>Node8</title>
<g id="a_node8"><a xlink:title=" ">
<polygon fill="none" stroke="#bfbfbf" points="808,-0.5 808,-19.5 928,-19.5 928,-0.5 808,-0.5"/>
<text text-anchor="middle" x="868" y="-7.5" font-family="FreeSans.ttf" font-size="10.00">yarp/os/Semaphore.h</text>
</a>
</g>
</g>
<!-- Node2&#45;&gt;Node8 -->
<g id="edge7" class="edge">
<title>Node2&#45;&gt;Node8</title>
<path fill="none" stroke="midnightblue" d="M868,-56.08C868,-49.01 868,-38.86 868,-29.99"/>
<polygon fill="midnightblue" stroke="midnightblue" points="871.5,-29.75 868,-19.75 864.5,-29.75 871.5,-29.75"/>
</g>
<!-- Node9 -->
<g id="node9" class="node">
<title>Node9</title>
<g id="a_node9"><a xlink:title=" ">
<polygon fill="none" stroke="#bfbfbf" points="946,-0.5 946,-19.5 1074,-19.5 1074,-0.5 946,-0.5"/>
<text text-anchor="middle" x="1010" y="-7.5" font-family="FreeSans.ttf" font-size="10.00">WorldInterfaceServer.h</text>
</a>
</g>
</g>
<!-- Node2&#45;&gt;Node9 -->
<g id="edge8" class="edge">
<title>Node2&#45;&gt;Node9</title>
<path fill="none" stroke="midnightblue" d="M890.5,-56.44C914.08,-47.48 951.32,-33.31 977.96,-23.18"/>
<polygon fill="midnightblue" stroke="midnightblue" points="979.5,-26.34 987.6,-19.52 977.01,-19.8 979.5,-26.34"/>
</g>
<!-- Node10 -->
<g id="node10" class="node">
<title>Node10</title>
<g id="a_node10"><a xlink:title=" ">
<polygon fill="none" stroke="#bfbfbf" points="1092,-0.5 1092,-19.5 1130,-19.5 1130,-0.5 1092,-0.5"/>
<text text-anchor="middle" x="1111" y="-7.5" font-family="FreeSans.ttf" font-size="10.00">map</text>
</a>
</g>
</g>
<!-- Node2&#45;&gt;Node10 -->
<g id="edge9" class="edge">
<title>Node2&#45;&gt;Node10</title>
<path fill="none" stroke="midnightblue" d="M907.52,-58.01C948.84,-50.42 1015.71,-37.35 1082.02,-20.05"/>
<polygon fill="midnightblue" stroke="midnightblue" points="1083.02,-23.4 1091.8,-17.46 1081.24,-16.63 1083.02,-23.4"/>
</g>
<!-- Node11 -->
<g id="node11" class="node">
<title>Node11</title>
<g id="a_node11"><a xlink:title=" ">
<polygon fill="none" stroke="#bfbfbf" points="1148,-0.5 1148,-19.5 1196,-19.5 1196,-0.5 1148,-0.5"/>
<text text-anchor="middle" x="1172" y="-7.5" font-family="FreeSans.ttf" font-size="10.00">mutex</text>
</a>
</g>
</g>
<!-- Node2&#45;&gt;Node11 -->
<g id="edge10" class="edge">
<title>Node2&#45;&gt;Node11</title>
<path fill="none" stroke="midnightblue" d="M907.74,-59.69C958.85,-52.58 1050.54,-38.88 1138.09,-20.01"/>
<polygon fill="midnightblue" stroke="midnightblue" points="1138.89,-23.42 1147.92,-17.87 1137.4,-16.58 1138.89,-23.42"/>
</g>
<!-- Node12 -->
<g id="node12" class="node">
<title>Node12</title>
<g id="a_node12"><a xlink:title=" ">
<polygon fill="none" stroke="#bfbfbf" points="1214.5,-0.5 1214.5,-19.5 1261.5,-19.5 1261.5,-0.5 1214.5,-0.5"/>
<text text-anchor="middle" x="1238" y="-7.5" font-family="FreeSans.ttf" font-size="10.00">queue</text>
</a>
</g>
</g>
<!-- Node2&#45;&gt;Node12 -->
<g id="edge11" class="edge">
<title>Node2&#45;&gt;Node12</title>
<path fill="none" stroke="midnightblue" d="M907.71,-61.43C969.23,-55.53 1091.37,-42.3 1204.44,-19.86"/>
<polygon fill="midnightblue" stroke="midnightblue" points="1205.19,-23.28 1214.3,-17.87 1203.8,-16.41 1205.19,-23.28"/>
</g>
<!-- Node14 -->
<g id="node14" class="node">
<title>Node14</title>
<g id="a_node14"><a xlink:title=" ">
<polygon fill="none" stroke="#bfbfbf" points="1279.5,-0.5 1279.5,-19.5 1372.5,-19.5 1372.5,-0.5 1279.5,-0.5"/>
<text text-anchor="middle" x="1326" y="-7.5" font-family="FreeSans.ttf" font-size="10.00">sdf/sdf_config.h</text>
</a>
</g>
</g>
<!-- Node13&#45;&gt;Node14 -->
<g id="edge13" class="edge">
<title>Node13&#45;&gt;Node14</title>
<path fill="none" stroke="midnightblue" d="M1430.35,-56.44C1410.04,-47.6 1378.1,-33.69 1354.9,-23.59"/>
<polygon fill="midnightblue" stroke="midnightblue" points="1356.12,-20.3 1345.56,-19.52 1353.33,-26.72 1356.12,-20.3"/>
</g>
<!-- Node15 -->
<g id="node15" class="node">
<title>Node15</title>
<g id="a_node15"><a xlink:title=" ">
<polygon fill="none" stroke="#bfbfbf" points="1390.5,-0.5 1390.5,-19.5 1509.5,-19.5 1509.5,-0.5 1390.5,-0.5"/>
<text text-anchor="middle" x="1450" y="-7.5" font-family="FreeSans.ttf" font-size="10.00">boost/shared_ptr.hpp</text>
</a>
</g>
</g>
<!-- Node13&#45;&gt;Node15 -->
<g id="edge14" class="edge">
<title>Node13&#45;&gt;Node15</title>
<path fill="none" stroke="midnightblue" d="M1450,-56.08C1450,-49.01 1450,-38.86 1450,-29.99"/>
<polygon fill="midnightblue" stroke="midnightblue" points="1453.5,-29.75 1450,-19.75 1446.5,-29.75 1453.5,-29.75"/>
</g>
<!-- Node16 -->
<g id="node16" class="node">
<title>Node16</title>
<g id="a_node16"><a xlink:title=" ">
<polygon fill="none" stroke="#bfbfbf" points="1527.5,-0.5 1527.5,-19.5 1698.5,-19.5 1698.5,-0.5 1527.5,-0.5"/>
<text text-anchor="middle" x="1613" y="-7.5" font-family="FreeSans.ttf" font-size="10.00">gazebo/sensors/SensorTypes.hh</text>
</a>
</g>
</g>
<!-- Node13&#45;&gt;Node16 -->
<g id="edge15" class="edge">
<title>Node13&#45;&gt;Node16</title>
<path fill="none" stroke="midnightblue" d="M1475.83,-56.44C1503.25,-47.36 1546.78,-32.94 1577.43,-22.78"/>
<polygon fill="midnightblue" stroke="midnightblue" points="1578.9,-25.98 1587.29,-19.52 1576.7,-19.34 1578.9,-25.98"/>
</g>
<!-- Node17 -->
<g id="node17" class="node">
<title>Node17</title>
<g id="a_node17"><a xlink:title=" ">
<polygon fill="none" stroke="#bfbfbf" points="1717,-0.5 1717,-19.5 1891,-19.5 1891,-0.5 1717,-0.5"/>
<text text-anchor="middle" x="1804" y="-7.5" font-family="FreeSans.ttf" font-size="10.00">gazebo/physics/PhysicsTypes.hh</text>
</a>
</g>
</g>
<!-- Node13&#45;&gt;Node17 -->
<g id="edge16" class="edge">
<title>Node13&#45;&gt;Node17</title>
<path fill="none" stroke="midnightblue" d="M1506.09,-56.44C1569.14,-46.83 1671.4,-31.23 1738.18,-21.04"/>
<polygon fill="midnightblue" stroke="midnightblue" points="1738.81,-24.48 1748.17,-19.52 1737.76,-17.56 1738.81,-24.48"/>
</g>
</g>
</svg>
